<?xml version="1.0" encoding="iso-8859-1"?>
<!-- Generator: Adobe Illustrator 19.0.0, SVG Export Plug-In . SVG Version: 6.00 Build 0)  -->
<svg xmlns="http://www.w3.org/2000/svg" xmlns:xlink="http://www.w3.org/1999/xlink" version="1.1" id="Capa_1" x="0px" y="0px" viewBox="0 0 512 512" style="enable-background:new 0 0 512 512;" xml:space="preserve" width="512px" height="512px">
<g>
	<g>
		<path d="M256.618,116.447c-18.537,0-33.619,15.081-33.619,33.619c0,18.536,15.081,33.618,33.619,33.618    c18.536,0,33.618-15.081,33.618-33.618C290.235,131.528,275.154,116.447,256.618,116.447z M256.618,168.681    c-10.265,0-18.618-8.352-18.618-18.616c0-10.265,8.352-18.617,18.618-18.617c10.266,0,18.616,8.353,18.616,18.617    C275.234,160.33,266.882,168.681,256.618,168.681z" fill="#5c5c5c"/>
	</g>
</g>
<g>
	<g>
		<path d="M220.179,333.201c-4.143,0-7.501,3.357-7.501,7.501v37.455c0,4.143,3.357,7.501,7.501,7.501s7.501-3.357,7.501-7.501    v-37.455C227.679,336.558,224.322,333.201,220.179,333.201z" fill="#5c5c5c"/>
	</g>
</g>
<g>
	<g>
		<path d="M256.618,333.201c-4.143,0-7.501,3.357-7.501,7.501v37.455c0,4.143,3.357,7.501,7.501,7.501    c4.143,0,7.501-3.357,7.501-7.501v-37.455C264.118,336.558,260.761,333.201,256.618,333.201z" fill="#5c5c5c"/>
	</g>
</g>
<g>
	<g>
		<path d="M293.055,333.201c-4.143,0-7.501,3.357-7.501,7.501v37.455c0,4.143,3.357,7.501,7.501,7.501s7.501-3.357,7.501-7.501    v-37.455C300.556,336.558,297.198,333.201,293.055,333.201z" fill="#5c5c5c"/>
	</g>
</g>
<g>
	<g>
		<path d="M457.996,439.853h-15.001c0.494-1.761,0.777-3.61,0.777-5.527V317.431c0-4.143-3.357-7.501-7.501-7.501    s-7.501,3.357-7.501,7.501v116.895c0,3.048-2.479,5.527-5.526,5.527c-13.324,0-327.227,0-334.489,0    c-3.047,0-5.526-2.479-5.526-5.527V157.334c0-3.048,2.479-5.527,5.526-5.527H197.02v23.746h-39.193h-40.602    c-0.37,0-0.735,0.019-1.095,0.055c-5.401,0.55-9.631,5.125-9.631,10.67v38.29v181.7c0,5.914,4.812,10.727,10.726,10.727h277.551    c5.913,0,10.726-4.812,10.726-10.727V224.569v-38.29c0-5.544-4.229-10.12-9.631-10.67c-0.36-0.037-0.725-0.055-1.095-0.055    h-78.562v-23.746h107.03c3.047,0,5.526,2.479,5.526,5.527v125.094c0,4.143,3.357,7.501,7.501,7.501s7.501-3.357,7.501-7.501    V157.334c0-11.319-9.209-20.529-20.528-20.529H316.214v-38.89c0-1.296-0.37-2.598-0.923-3.605L267.013,6.15    c-4.49-8.201-16.301-8.201-20.792,0l-48.278,88.16c-0.57,1.037-0.923,2.343-0.923,3.605v38.89H88.755    c-11.319,0-20.528,9.21-20.528,20.529v276.992c0,1.917,0.284,3.766,0.777,5.527H54.004c-10.753,0-19.502,8.749-19.502,19.502    v33.144c0,10.753,8.749,19.502,19.502,19.502h184.494c4.143,0,7.501-3.357,7.501-7.501c0-4.143-3.357-7.501-7.501-7.501H54.004    c-2.439,0-4.5-2.061-4.5-4.5v-33.144c0-2.439,2.061-4.5,4.5-4.5c5.372,0,119.017,0,123.429,0v8.044    c0,11.319,9.21,20.529,20.529,20.529h116.077c11.319,0,20.529-9.21,20.529-20.529v-8.044c4.512,0,118.336,0,123.429,0    c2.439,0,4.5,2.061,4.5,4.5v33.144c0,2.439-2.061,4.5-4.5,4.5H273.502c-4.143,0-7.501,3.357-7.501,7.501    c0,4.143,3.357,7.501,7.501,7.501h184.494c10.753,0,19.502-8.749,19.502-19.502v-33.144    C477.498,448.602,468.749,439.853,457.996,439.853z M165.327,190.554h23.133c-6.993,8.278-13.404,15.369-20.529,26.514h-2.604    V190.554z M121.501,190.554h28.825v26.514h-28.825V190.554z M390.499,190.554v26.514h-45.197    c-7.112-11.124-13.52-18.215-20.53-26.514H390.499z M316.214,203.668l4.862,5.756c20.704,24.504,33.598,56.166,34.808,90.165    l-39.67-33.298C316.214,260.054,316.214,209.845,316.214,203.668z M256.617,18.398l39.438,72.017H217.18L256.617,18.398z     M212.021,105.416h89.192c0,17.333,0,145.695,0,164.684c-13.44,0-21.526,0-37.095,0v-68.609c0-4.143-3.357-7.501-7.501-7.501    c-4.143,0-7.501,3.357-7.501,7.501V270.1c-15.546,0-23.676,0-37.096,0C212.021,260.766,212.021,108.804,212.021,105.416z     M290.275,285.101v16.828c0,0.256-0.242,0.498-0.498,0.498h-25.659v-17.326H290.275z M222.959,301.93v-16.828h26.158v17.326    h-25.66v0C223.201,302.428,222.959,302.186,222.959,301.93z M201.334,282.256c1.933,1.624,4.309,2.574,6.622,2.789v16.884    c0,8.547,6.953,15.499,15.499,15.499h25.667c0.072,4.08,3.396,7.367,7.494,7.367c4.097,0,7.422-3.286,7.494-7.367h25.666h0.001    c8.546,0,15.498-6.954,15.498-15.499V285c2.405-0.305,4.704-1.351,6.487-2.857l38.517,32.329c8.284,6.95,20.697,0.964,20.697-9.65    c0-25.394-5.969-50.305-17.173-72.753h36.696v169.924H121.501V232.069h36.326h1.603c-11.204,22.449-17.174,47.36-17.174,72.753    c0,10.615,12.411,16.604,20.697,9.65L201.334,282.256z M197.021,266.292l-39.67,33.298c1.034-29.089,10.695-57.419,27.786-81.156    c4.078-5.667,6.926-8.896,11.884-14.766C197.021,209.847,197.021,260.049,197.021,266.292z M319.567,462.898L319.567,462.898    c-0.001,3.048-2.48,5.527-5.528,5.527H197.962c-3.048,0-5.527-2.479-5.527-5.527v-8.044h127.133V462.898z" fill="#5c5c5c"/>
	</g>
</g>
<g>
</g>
<g>
</g>
<g>
</g>
<g>
</g>
<g>
</g>
<g>
</g>
<g>
</g>
<g>
</g>
<g>
</g>
<g>
</g>
<g>
</g>
<g>
</g>
<g>
</g>
<g>
</g>
<g>
</g>
</svg>
