<?xml version="1.0" encoding="iso-8859-1"?>
<!-- Generator: Adobe Illustrator 19.0.0, SVG Export Plug-In . SVG Version: 6.00 Build 0)  -->
<svg version="1.1" id="Capa_1" xmlns="http://www.w3.org/2000/svg" xmlns:xlink="http://www.w3.org/1999/xlink" x="0px" y="0px"
	 viewBox="0 0 511.808 511.808" style="enable-background:new 0 0 511.808 511.808;" xml:space="preserve">
<g>
	<g transform="translate(5 5)">
		<path style="fill:#A4C2F7;" d="M464.491,251.046c-0.043,117.803-95.53,213.29-213.333,213.333c-4.267,0-8.533-0.085-12.8-0.427
			c-112.64-6.749-200.533-100.065-200.533-212.907S125.718,44.888,238.358,38.139c4.267-0.341,8.533-0.427,12.8-0.427
			C368.973,37.725,464.478,133.23,464.491,251.046z"/>
		<ellipse style="fill:#E3E7F2;" cx="238.358" cy="251.046" rx="200.533" ry="212.907"/>
		<polygon style="fill:#F5F5F5;" points="294.319,283.711 288.286,350.092 221.905,416.464 221.905,356.125 185.707,368.191 
			149.5,331.984 161.566,295.786 101.227,295.786 167.599,229.405 233.98,223.372 		"/>
		<g>
			<path style="fill:#E3E7F2;" d="M181.783,364.268c-1.046,2.265-2.491,4.324-4.267,6.077c-8.585,8.586-46.117,15.947-46.117,15.947
				s7.361-37.531,15.947-46.117c1.753-1.775,3.812-3.221,6.077-4.267"/>
			<polygon style="fill:#E3E7F2;" points="221.905,356.117 221.846,415.184 221.905,415.244 222.69,415.671 288.286,350.084 
				294.319,283.703 233.98,223.364 167.599,229.405 102.012,294.992 102.439,295.777 102.498,295.837 161.566,295.777 			"/>
		</g>
		<path style="fill:#A4C2F7;" d="M354.656,223.367l-60.34-60.34c0.845-0.845,1.69-1.69,2.595-2.474
			c20.455-17.801,54.245-21.18,71.322-21.722c6.517-0.12,10.559,0.06,10.559,0.06S381.929,196.093,354.656,223.367z"/>
		<path style="fill:#E3E7F2;" d="M336.554,205.265l-42.238-42.238c0.845-0.845,1.69-1.69,2.595-2.474
			c20.455-17.801,54.245-21.18,71.322-21.722C365.095,154.037,356.587,185.232,336.554,205.265z"/>
		
			<rect x="164.248" y="216.911" transform="matrix(-0.7071 0.7071 -0.7071 -0.7071 624.1788 260.6115)" style="fill:#D4E1F4;" width="187.734" height="85.334"/>
		
			<rect x="155.192" y="220.651" transform="matrix(-0.7071 0.7071 -0.7071 -0.7071 602.3138 251.5485)" style="fill:#F5F5F5;" width="187.734" height="59.734"/>
		
			<rect x="206.582" y="319.154" transform="matrix(-0.7071 0.7071 -0.7071 -0.7071 623.8024 405.5207)" style="fill:#A4C2F7;" width="42.667" height="25.6"/>
		
			<rect x="176.438" y="271.946" transform="matrix(-0.7071 0.7071 -0.7071 -0.7071 551.0313 375.3811)" style="fill:#E3E7F2;" width="42.667" height="59.734"/>
		<path style="fill:#FFFFFF;" d="M238.358,464.123c4.267,0.341,8.533,0.427,12.8,0.427c4.331,0,8.622-0.168,12.89-0.423l-0.09-0.003
			c-112.64-6.749-200.533-100.065-200.533-212.907S151.318,45.058,263.958,38.31l0.092-0.003c-4.268-0.255-8.559-0.424-12.892-0.424
			c-4.267,0-8.533,0.085-12.8,0.427C125.718,45.058,37.825,138.375,37.825,251.216S125.718,457.374,238.358,464.123z"/>
	</g>
	<g>
		<path style="fill:#FFFFFF;" d="M34.257,256.005c0.179-38.656,10.329-76.611,29.469-110.196l7.567-12.446
			c2.645-4.065,5.732-7.831,8.585-11.756c5.881-7.724,12.217-15.091,18.975-22.06l10.732-9.839l5.394-4.89l5.825-4.369l11.695-8.675
			l12.445-7.569c33.803-19.549,72.132-29.914,111.18-30.066v17.067c-26.953,0.298-53.614,5.619-78.616,15.691
			c-4.126,1.734-8.093,3.841-12.151,5.735c-4.103,1.806-8.061,3.922-11.841,6.332l-11.494,6.974l-10.789,8.022l-5.389,4.021
			l-4.97,4.529l-9.921,9.075c-6.234,6.442-12.081,13.248-17.51,20.381c-2.626,3.629-5.497,7.092-7.936,10.847l-6.977,11.493
			c-17.658,30.999-27.027,66.026-27.204,101.7H34.257z"/>
		<g>
			<path style="fill:#428DFF;" d="M48.281,195.501c0.401,0.374,0.855,0.686,1.349,0.925c0.516,0.249,1.049,0.462,1.595,0.638
				c2.147,0.587,4.436,0.352,6.42-0.657c0.922-0.563,1.749-1.268,2.451-2.09c2.271-2.437,2.826-6.013,1.399-9.023
				c-0.514-0.989-1.204-1.876-2.037-2.617c-0.814-0.765-1.766-1.368-2.806-1.776c-2.131-0.774-4.48-0.682-6.545,0.255
				c-2.069,1.083-3.666,2.89-4.489,5.075c-0.835,2.188-0.682,4.63,0.42,6.696l0.963,1.382
				C47.373,194.761,47.803,195.162,48.281,195.501z"/>
			<path style="fill:#428DFF;" d="M501.089,11.04c-31.231-31.251-111.326,10.752-158.921,40.471
				c-27.228-11.495-56.488-17.403-86.044-17.371v-0.002c-39.048,0.152-77.378,10.517-111.181,30.066l-12.445,7.569l-11.695,8.675
				l-5.825,4.369l-5.394,4.89l-10.732,9.839c-6.758,6.969-13.095,14.336-18.976,22.06c-2.852,3.925-5.939,7.692-8.585,11.756
				l-7.567,12.446c-1.612,2.481-3.046,5.073-4.292,7.757c-1.05,2.052-1.233,4.439-0.507,6.627c0.726,2.188,2.3,3.992,4.369,5.009
				c4.149,2.01,9.145,0.352,11.269-3.74c1.14-2.482,2.466-4.874,3.964-7.157l6.977-11.493c2.439-3.755,5.31-7.218,7.936-10.847
				c5.429-7.133,11.276-13.939,17.51-20.381l9.921-9.075l4.97-4.529l5.389-4.021l10.789-8.022l11.494-6.974
				c3.78-2.409,7.738-4.526,11.841-6.332c4.058-1.893,8.026-4.001,12.151-5.735c24.999-10.071,51.657-15.392,78.607-15.691
				l0.008,0.002c78.953,0.074,150.85,45.472,184.86,116.724c-35.411,54.323-76.52,104.712-122.627,150.309
				c-4.632,4.632-9.336,9.223-14.066,13.767l3.469-38.164l58.155-58.153c29.617-29.621,26.758-88.483,26.621-90.975
				c-0.238-4.346-3.708-7.817-8.054-8.054c-2.496-0.15-61.354-2.996-90.975,26.621l-58.152,58.154l-63.297,5.754
				c-1.989,0.182-3.851,1.055-5.263,2.467l-66.375,66.375c-2.441,2.44-3.171,6.11-1.85,9.299c1.321,3.189,4.432,5.268,7.883,5.268
				h48.5l-8.325,24.971c-0.518,1.583-0.56,3.282-0.121,4.889c-9.656,9.711-16.414,41.079-18.258,50.474
				c-0.49,2.503,0.166,5.095,1.787,7.064c1.621,1.969,4.038,3.111,6.589,3.111c0.551-0.001,1.101-0.054,1.642-0.158
				c9.404-1.846,40.833-8.617,50.517-18.295l0.049-0.059c1.55,0.566,3.252,0.557,4.796-0.024l24.971-8.326v31.152
				c-17.564,13.334-34.488,25.206-50.498,35.495C96.818,406.893,51.397,334.98,51.322,256.006l-0.001-0.002h0.002
				c0.19-10.924,1.142-21.822,2.848-32.614c0.525-4.621-2.578-8.874-7.138-9.786c-2.239-0.431-4.556,0.087-6.398,1.43
				c-1.842,1.344-3.043,3.392-3.315,5.655c-1.849,11.683-2.873,23.481-3.063,35.308l-0.002,0.009
				c-0.031,29.557,5.877,58.82,17.373,86.05c-29.72,47.588-71.719,127.675-40.473,158.917c8.364,7.593,19.448,11.472,30.721,10.75
				c32.923-0.003,80.553-22.048,127.575-51.491c83.257,35.348,179.637,16.61,243.585-47.358s82.656-160.354,47.283-243.6
				C504.711,98.604,526.048,35.999,501.089,11.04z M285.289,352.519l-49.625,49.625v-36.208l27.661-27.66l0.009-0.006l0.006-0.009
				l25.566-25.565L285.289,352.519z M193.231,364.711l-28.746-28.746l6.037-18.105l40.813,40.814L193.231,364.711z M196.961,283.962
				l48.272,48.272l-18.103,18.102l-48.271-48.271L196.961,283.962z M257.3,320.167l-48.272-48.272l90.511-90.514l48.275,48.275
				L257.3,320.167z M359.26,216.969l-47.031-47.031c19.438-13.638,49.172-16.018,63.331-16.29
				C375.3,167.796,372.943,197.5,359.26,216.969z M127.051,293.531l49.625-49.625l39.824-3.618l-25.565,25.566l-0.009,0.006
				l-0.006,0.009l-27.66,27.661L127.051,293.531z M157.855,353.468l17.869,17.869c-8.772,4.566-18.127,7.911-27.806,9.94
				C149.942,371.597,153.286,362.24,157.855,353.468z M23.222,488.906c-15.479-15.483-0.887-65.22,37.179-128.542
				c20.679,38.588,52.24,70.251,90.761,91.054C85.298,490.919,37.086,502.77,23.222,488.906z M460.923,256.006
				c0.014,66.634-32.398,129.108-86.883,167.468s-124.229,47.808-186.956,25.327c10.978-7.315,21.82-14.911,32.318-22.652
				c1.104,2.585,3.421,4.451,6.182,4.978c2.761,0.527,5.603-0.354,7.581-2.35l66.375-66.375c1.236-1.274,2.041-2.904,2.303-4.659
				c9.624-8.891,19.232-18.084,28.58-27.436c43.948-43.941,83.616-91.963,118.468-143.417
				C456.866,209.06,460.937,232.445,460.923,256.006L460.923,256.006z M451.496,150.971c-20.805-38.489-52.454-70.022-91.019-90.687
				c63.328-38.068,113.061-52.657,128.545-37.178C503.174,37.26,489.983,86.48,451.496,150.971z"/>
			<path style="fill:#428DFF;" d="M293.506,211.556c-1.601,1.6-2.5,3.77-2.5,6.033c0,2.263,0.899,4.434,2.5,6.033l12.067,12.067
				c2.155,2.156,5.297,2.997,8.242,2.208c2.944-0.789,5.244-3.089,6.033-6.033c0.789-2.944-0.053-6.086-2.208-8.242l-12.067-12.067
				c-1.6-1.601-3.77-2.5-6.033-2.5C297.276,209.056,295.106,209.956,293.506,211.556z"/>
			<path style="fill:#428DFF;" d="M281.435,235.69c-3.332-3.332-8.735-3.332-12.067,0s-3.332,8.735,0,12.067l12.071,12.071
				c3.332,3.332,8.735,3.332,12.067,0c3.332-3.332,3.332-8.735,0-12.067L281.435,235.69z"/>
		</g>
	</g>
</g>
<g>
</g>
<g>
</g>
<g>
</g>
<g>
</g>
<g>
</g>
<g>
</g>
<g>
</g>
<g>
</g>
<g>
</g>
<g>
</g>
<g>
</g>
<g>
</g>
<g>
</g>
<g>
</g>
<g>
</g>
</svg>
