<svg width="147" height="180" viewBox="0 0 147 180" fill="none" xmlns="http://www.w3.org/2000/svg">
<rect width="147" height="180" fill="white"/>
<line x1="14.5" y1="174" x2="14.5" y2="36" stroke="black" stroke-width="3"/>
<line x1="128.5" y1="174" x2="128.5" y2="38" stroke="black" stroke-width="3"/>
<path d="M123.835 65.5871C124.061 65.4287 124.116 65.1169 123.958 64.8907L121.377 61.2045C121.218 60.9783 120.907 60.9234 120.68 61.0818C120.454 61.2401 120.399 61.5519 120.558 61.7781L122.852 65.0547L119.575 67.349C119.349 67.5074 119.294 67.8192 119.453 68.0454C119.611 68.2716 119.923 68.3266 120.149 68.1682L123.835 65.5871ZM19.3649 47.3149L123.461 65.6699L123.635 64.6851L19.5385 46.3301L19.3649 47.3149Z" fill="black"/>
<path d="M123.835 162.587C124.061 162.429 124.116 162.117 123.958 161.891L121.377 158.205C121.218 157.978 120.907 157.923 120.68 158.082C120.454 158.24 120.399 158.552 120.558 158.778L122.852 162.055L119.575 164.349C119.349 164.507 119.294 164.819 119.453 165.045C119.611 165.272 119.923 165.327 120.149 165.168L123.835 162.587ZM19.3649 144.315L123.461 162.67L123.635 161.685L19.5385 143.33L19.3649 144.315Z" fill="black"/>
<path d="M19.165 123.587C18.9388 123.429 18.8838 123.117 19.0422 122.891L21.6233 119.205C21.7817 118.978 22.0935 118.923 22.3197 119.082C22.5459 119.24 22.6008 119.552 22.4425 119.778L20.1481 123.055L23.4248 125.349C23.651 125.507 23.7059 125.819 23.5475 126.045C23.3892 126.272 23.0774 126.327 22.8512 126.168L19.165 123.587ZM123.635 105.315L19.5386 123.67L19.365 122.685L123.462 104.33L123.635 105.315Z" fill="black"/>
<path d="M68.0109 48.0248L64.6871 47.4387L64.0817 50.8721L62.3506 50.5668L63.8321 42.1652L69.3024 43.1297L69.0551 44.5319L65.3159 43.8726L64.9334 46.0423L68.2571 46.6283L68.0109 48.0248ZM70.6657 52.033L68.9346 51.7277L70.4161 43.3261L72.1472 43.6313L70.6657 52.033ZM79.1078 53.5215L77.3766 53.2163L74.9815 47.0941L74.0068 52.6221L72.2757 52.3169L73.7571 43.9152L75.4882 44.2205L77.8871 50.3552L78.8639 44.8157L80.5892 45.1199L79.1078 53.5215Z" fill="black"/>
<path d="M66.2863 147.093L63.2511 146.558L62.3688 148.187L60.5281 147.863L65.1371 140.012L66.7412 140.295L68.4046 149.251L66.5639 148.927L66.2863 147.093ZM63.9658 145.238L66.0662 145.608L65.5647 142.277L63.9658 145.238ZM76.1514 147.732C75.9266 148.624 75.4665 149.277 74.7709 149.69C74.0792 150.103 73.241 150.223 72.2562 150.05C71.1791 149.86 70.3946 149.348 69.9027 148.516C69.4154 147.68 69.2834 146.63 69.5065 145.364L69.5971 144.851C69.7395 144.043 70.0074 143.356 70.4006 142.791C70.7938 142.226 71.2827 141.826 71.8674 141.592C72.4566 141.355 73.1013 141.298 73.8014 141.421C74.7708 141.592 75.506 141.989 76.0068 142.613C76.5077 143.237 76.7215 144.026 76.6483 144.981L74.9172 144.676C74.9705 144.126 74.8878 143.707 74.6689 143.419C74.4546 143.127 74.082 142.934 73.5511 142.841C72.9741 142.739 72.5047 142.87 72.1429 143.235C71.7856 143.596 71.5265 144.211 71.3655 145.079L71.2536 145.714C71.0935 146.622 71.1131 147.309 71.3123 147.777C71.5153 148.245 71.913 148.531 72.5055 148.636C73.0402 148.73 73.4597 148.679 73.764 148.483C74.0729 148.283 74.2916 147.931 74.4203 147.427L76.1514 147.732ZM80.0202 147.825L78.9491 148.636L78.5258 151.036L76.7947 150.731L78.2762 142.329L80.0073 142.634L79.3357 146.443L80.2816 145.533L82.9098 143.146L85.039 143.522L81.3974 146.729L83.6441 151.939L81.5841 151.575L80.0202 147.825Z" fill="black"/>
<path d="M72.1892 106.3L68.8655 106.886L69.4709 110.319L67.7398 110.624L66.2584 102.223L71.7287 101.258L71.9759 102.66L68.2367 103.32L68.6193 105.489L71.943 104.903L72.1892 106.3ZM76.0549 109.158L74.3238 109.463L72.8423 101.062L74.5735 100.757L76.0549 109.158ZM84.4969 107.67L82.7658 107.975L78.4212 103.041L79.3959 108.569L77.6648 108.874L76.1834 100.473L77.9145 100.167L82.2669 105.112L81.2902 99.5723L83.0155 99.268L84.4969 107.67Z" fill="black"/>
<path d="M19.165 103.587C18.9388 103.429 18.8838 103.117 19.0422 102.891L21.6233 99.2045C21.7817 98.9783 22.0935 98.9234 22.3197 99.0818C22.5459 99.2401 22.6008 99.5519 22.4425 99.7781L20.1481 103.055L23.4248 105.349C23.651 105.507 23.7059 105.819 23.5475 106.045C23.3892 106.272 23.0774 106.327 22.8512 106.168L19.165 103.587ZM123.635 85.3149L19.5386 103.67L19.365 102.685L123.462 84.3301L123.635 85.3149Z" fill="black"/>
<path d="M65.065 89.636L62.0298 90.1712L61.758 92.004L59.9173 92.3286L61.5634 83.3755L63.1675 83.0926L67.7938 90.9398L65.9531 91.2643L65.065 89.636ZM62.25 88.6866L64.3504 88.3162L62.7399 85.3576L62.25 88.6866ZM74.5537 86.8622C74.6477 87.7777 74.4385 88.5484 73.9261 89.1743C73.4175 89.7994 72.6709 90.1988 71.6861 90.3725C70.6089 90.5624 69.6969 90.3503 68.95 89.7363C68.2063 89.1178 67.7229 88.1757 67.4997 86.9101L67.4092 86.3965C67.2667 85.5887 67.2836 84.8519 67.4597 84.1862C67.6359 83.5205 67.9586 82.9777 68.428 82.5578C68.9005 82.1333 69.4869 81.8594 70.187 81.7359C71.1564 81.565 71.9831 81.687 72.6671 82.1018C73.3511 82.5167 73.822 83.1853 74.0799 84.1077L72.3488 84.4129C72.2108 83.878 71.9897 83.5124 71.6853 83.3162C71.3842 83.1154 70.9682 83.0618 70.4373 83.1554C69.8603 83.2572 69.4641 83.5412 69.2489 84.0076C69.0368 84.4694 69.0035 85.1357 69.1491 86.0064L69.261 86.6412C69.4211 87.549 69.6747 88.1885 70.0218 88.5597C70.3727 88.9302 70.8444 89.0632 71.4368 88.9587C71.9715 88.8644 72.3483 88.673 72.5671 88.3846C72.7892 88.0916 72.8743 87.6858 72.8226 87.1674L74.5537 86.8622ZM78.221 85.6265L77.4917 86.7547L77.915 89.1551L76.1839 89.4604L74.7025 81.0587L76.4336 80.7535L77.1051 84.5619L77.6826 83.3832L79.3361 80.2417L81.4653 79.8663L79.1403 84.1257L83.0333 88.2526L80.9733 88.6159L78.221 85.6265Z" fill="black"/>
<path d="M5.70801 13.7344C5.57129 14.4701 5.23763 15.0527 4.70703 15.4824C4.17969 15.9121 3.54655 16.1172 2.80762 16.0977C2.36816 16.0879 1.98405 15.9805 1.65527 15.7754C1.3265 15.5671 1.07096 15.2692 0.888672 14.8818C0.70638 14.4912 0.605469 14.0599 0.585938 13.5879C0.572917 13.321 0.58431 13.0605 0.620117 12.8066L0.703125 12.2207C0.85612 11.153 1.23047 10.3115 1.82617 9.69629C2.42513 9.0778 3.15267 8.77669 4.00879 8.79297C4.67611 8.80599 5.20508 9.02246 5.5957 9.44238C5.98633 9.85905 6.19303 10.4385 6.21582 11.1807H5.30273C5.26042 10.1846 4.86979 9.64746 4.13086 9.56934L3.96973 9.55957C3.35449 9.54329 2.84017 9.77279 2.42676 10.248C2.0166 10.7201 1.7513 11.3662 1.63086 12.1865L1.52344 12.9238L1.49414 13.3535C1.47461 13.9525 1.5804 14.4294 1.81152 14.7842C2.0459 15.1357 2.39258 15.318 2.85156 15.3311C3.34635 15.3473 3.75488 15.2285 4.07715 14.9746C4.40267 14.7207 4.65007 14.3122 4.81934 13.749L5.70801 13.7344ZM7.47559 16H6.59668L7.89551 8.5H8.7793L7.47559 16ZM9.87793 16H8.99902L9.91699 10.7168H10.7959L9.87793 16ZM10.6055 8.78809C10.7552 8.78158 10.8789 8.82715 10.9766 8.9248C11.0775 9.01921 11.1279 9.14453 11.1279 9.30078C11.1247 9.45378 11.0742 9.5791 10.9766 9.67676C10.8822 9.77441 10.7585 9.8265 10.6055 9.83301C10.4525 9.83952 10.3271 9.79557 10.2295 9.70117C10.1318 9.60677 10.0846 9.48307 10.0879 9.33008C10.0911 9.17708 10.14 9.05013 10.2344 8.94922C10.3288 8.84831 10.4525 8.7946 10.6055 8.78809ZM13.6084 16.0977C12.9508 16.0846 12.4365 15.8421 12.0654 15.3701C11.6943 14.8981 11.5381 14.2943 11.5967 13.5586L11.6211 13.3486C11.6764 12.8245 11.8311 12.346 12.085 11.9131C12.3421 11.4801 12.6546 11.1546 13.0225 10.9365C13.3903 10.7152 13.7874 10.6094 14.2139 10.6191C14.7575 10.6322 15.1839 10.8128 15.4932 11.1611C15.8024 11.5094 15.9717 11.9814 16.001 12.5771C16.0107 12.7887 16.0042 13.0003 15.9814 13.2119L15.9277 13.6172H12.4756C12.417 14.0957 12.4951 14.5026 12.71 14.8379C12.9281 15.1732 13.252 15.3473 13.6816 15.3604C14.2025 15.3734 14.6842 15.139 15.127 14.6572L15.6348 15.0869C15.4134 15.4059 15.127 15.6566 14.7754 15.8389C14.4271 16.0179 14.0381 16.1042 13.6084 16.0977ZM14.1699 11.3564C13.8053 11.3467 13.4863 11.4704 13.2129 11.7275C12.9427 11.9847 12.7279 12.3672 12.5684 12.875L15.1367 12.8799L15.1562 12.8018C15.2083 12.3916 15.1416 12.0514 14.9561 11.7812C14.7738 11.5078 14.5117 11.3662 14.1699 11.3564ZM18.2617 10.7119L18.1348 11.3809C18.61 10.86 19.1504 10.6061 19.7559 10.6191C20.2539 10.6322 20.6217 10.8047 20.8594 11.1367C21.097 11.4688 21.1849 11.9359 21.123 12.5381L20.5469 16H19.6631L20.2441 12.5234C20.2637 12.3639 20.2653 12.2158 20.249 12.0791C20.1937 11.6234 19.9251 11.3906 19.4434 11.3809C18.9128 11.3711 18.4473 11.6543 18.0469 12.2305L17.3926 16H16.5088L17.4268 10.7168L18.2617 10.7119ZM24.2432 9.4375L24.0186 10.7168H24.9805L24.8584 11.415H23.9014L23.3496 14.7012C23.3398 14.7858 23.3382 14.8639 23.3447 14.9355C23.3675 15.1895 23.5059 15.3164 23.7598 15.3164C23.8672 15.3164 24.0104 15.3001 24.1895 15.2676L24.1211 16.0049C23.9095 16.0635 23.6947 16.0928 23.4766 16.0928C23.125 16.0863 22.8613 15.9577 22.6855 15.707C22.5098 15.4531 22.4414 15.113 22.4805 14.6865L23.0176 11.415H22.085L22.207 10.7168H23.1396L23.3643 9.4375H24.2432Z" fill="black"/>
<path d="M120.282 14.1689C120.354 13.6481 120.084 13.2673 119.472 13.0264L118.627 12.7188L118.344 12.5967C117.393 12.1637 116.949 11.555 117.011 10.7705C117.043 10.3766 117.178 10.0283 117.416 9.72559C117.654 9.42285 117.968 9.1901 118.358 9.02734C118.752 8.86133 119.171 8.7832 119.613 8.79297C120.043 8.80273 120.425 8.89876 120.761 9.08105C121.099 9.26335 121.356 9.51888 121.532 9.84766C121.708 10.1732 121.786 10.541 121.767 10.9512L120.844 10.9463C120.876 10.5101 120.779 10.1732 120.551 9.93555C120.323 9.69466 119.997 9.57096 119.574 9.56445C119.128 9.55794 118.756 9.66211 118.456 9.87695C118.157 10.0918 117.984 10.3848 117.938 10.7559C117.873 11.2409 118.171 11.6087 118.832 11.8594L119.56 12.1182L119.926 12.2744C120.844 12.6976 121.269 13.3258 121.2 14.1592C121.164 14.5596 121.029 14.9062 120.795 15.1992C120.561 15.4889 120.242 15.7135 119.838 15.873C119.438 16.0326 119.006 16.1074 118.544 16.0977C118.098 16.0944 117.689 16 117.318 15.8145C116.951 15.6257 116.671 15.3685 116.479 15.043C116.286 14.7174 116.202 14.348 116.225 13.9346L117.143 13.9395C117.113 14.3626 117.227 14.6995 117.484 14.9502C117.745 15.1976 118.111 15.3245 118.583 15.3311C119.055 15.3376 119.444 15.235 119.75 15.0234C120.056 14.8118 120.233 14.527 120.282 14.1689ZM124.247 16.0977C123.59 16.0846 123.075 15.8421 122.704 15.3701C122.333 14.8981 122.177 14.2943 122.235 13.5586L122.26 13.3486C122.315 12.8245 122.47 12.346 122.724 11.9131C122.981 11.4801 123.293 11.1546 123.661 10.9365C124.029 10.7152 124.426 10.6094 124.853 10.6191C125.396 10.6322 125.823 10.8128 126.132 11.1611C126.441 11.5094 126.61 11.9814 126.64 12.5771C126.649 12.7887 126.643 13.0003 126.62 13.2119L126.566 13.6172H123.114C123.056 14.0957 123.134 14.5026 123.349 14.8379C123.567 15.1732 123.891 15.3473 124.32 15.3604C124.841 15.3734 125.323 15.139 125.766 14.6572L126.273 15.0869C126.052 15.4059 125.766 15.6566 125.414 15.8389C125.066 16.0179 124.677 16.1042 124.247 16.0977ZM124.809 11.3564C124.444 11.3467 124.125 11.4704 123.852 11.7275C123.581 11.9847 123.367 12.3672 123.207 12.875L125.775 12.8799L125.795 12.8018C125.847 12.3916 125.78 12.0514 125.595 11.7812C125.412 11.5078 125.15 11.3662 124.809 11.3564ZM130.434 11.5225L130.019 11.4785C129.452 11.4785 129.006 11.734 128.681 12.2451L128.031 16H127.147L128.065 10.7168L128.92 10.7119L128.788 11.3271C129.162 10.8356 129.604 10.5964 130.111 10.6094C130.219 10.6094 130.359 10.6338 130.531 10.6826L130.434 11.5225ZM132.484 14.7646L134.389 10.7168H135.321L132.66 16H131.986L130.951 10.7168H131.82L132.484 14.7646ZM137.528 16.0977C136.871 16.0846 136.356 15.8421 135.985 15.3701C135.614 14.8981 135.458 14.2943 135.517 13.5586L135.541 13.3486C135.596 12.8245 135.751 12.346 136.005 11.9131C136.262 11.4801 136.575 11.1546 136.942 10.9365C137.31 10.7152 137.707 10.6094 138.134 10.6191C138.677 10.6322 139.104 10.8128 139.413 11.1611C139.722 11.5094 139.892 11.9814 139.921 12.5771C139.931 12.7887 139.924 13.0003 139.901 13.2119L139.848 13.6172H136.396C136.337 14.0957 136.415 14.5026 136.63 14.8379C136.848 15.1732 137.172 15.3473 137.602 15.3604C138.122 15.3734 138.604 15.139 139.047 14.6572L139.555 15.0869C139.333 15.4059 139.047 15.6566 138.695 15.8389C138.347 16.0179 137.958 16.1042 137.528 16.0977ZM138.09 11.3564C137.725 11.3467 137.406 11.4704 137.133 11.7275C136.863 11.9847 136.648 12.3672 136.488 12.875L139.057 12.8799L139.076 12.8018C139.128 12.3916 139.062 12.0514 138.876 11.7812C138.694 11.5078 138.432 11.3662 138.09 11.3564ZM143.715 11.5225L143.3 11.4785C142.733 11.4785 142.287 11.734 141.962 12.2451L141.312 16H140.429L141.347 10.7168L142.201 10.7119L142.069 11.3271C142.444 10.8356 142.885 10.5964 143.393 10.6094C143.5 10.6094 143.64 10.6338 143.812 10.6826L143.715 11.5225Z" fill="black"/>
<line x1="14.5" y1="40" x2="14.5" y2="20" stroke="black" stroke-width="3" stroke-dasharray="3 3"/>
<line x1="128.5" y1="40" x2="128.5" y2="20" stroke="black" stroke-width="3" stroke-dasharray="3 3"/>
<line x1="14.5" y1="40" x2="14.5" y2="20" stroke="black" stroke-width="3" stroke-dasharray="3 3"/>
<line x1="128.5" y1="40" x2="128.5" y2="20" stroke="black" stroke-width="3" stroke-dasharray="3 3"/>
<line x1="14.5" y1="40" x2="14.5" y2="20" stroke="black" stroke-width="3" stroke-dasharray="3 3"/>
<line x1="128.5" y1="40" x2="128.5" y2="20" stroke="black" stroke-width="3" stroke-dasharray="3 3"/>
</svg>
