<svg xmlns="http://www.w3.org/2000/svg" viewBox="250 0 1078 520"><defs><style>.cls-1{fill:#e2dee4;}.cls-1,.cls-15{opacity:0.49;}.cls-13,.cls-2,.cls-8{fill:#fff;}.cls-3{fill:#faaf40;}.cls-4{fill:#e63d2e;}.cls-11,.cls-5,.cls-6,.cls-7,.cls-9{fill:none;}.cls-5{stroke:#f05a30;stroke-width:5.79px;}.cls-11,.cls-5,.cls-6{stroke-linecap:round;stroke-linejoin:round;}.cls-6,.cls-7,.cls-9{stroke:#fff;}.cls-11,.cls-6{stroke-width:4.61px;}.cls-7,.cls-9{stroke-miterlimit:10;}.cls-7{stroke-width:1.16px;}.cls-8{opacity:0.6;}.cls-9{stroke-width:2.32px;}.cls-10{fill:#bbbdbf;}.cls-11{stroke:#929497;}.cls-12{fill:#a6a8ab;}.cls-13{opacity:0.3;}.cls-14{opacity:0.5;}.cls-15{fill:#d3d9e3;}</style></defs><title>Artboard 1</title><circle class="cls-1" cx="469.08" cy="193.69" r="101.03"/><path class="cls-2" d="M758.45,521.89l-3,0-1.46,0c-1.21,0-2.41-.07-3.62-.12l-.8,0c-1.45-.06-2.91-.15-4.37-.24l-1.17-.09-3.2-.25-1.5-.14-2.92-.29-1.5-.16-3.15-.38-1.14-.14c-1.4-.18-2.81-.38-4.22-.59l-.78-.12-3.44-.55-1.38-.24L718,518l-1.44-.27-2.9-.57-1.23-.25c-2.69-.56-5.4-1.17-8.08-1.81l-1.19-.29-2.8-.7-1.37-.35-2.66-.71L695,512.7l-3.17-.89-.67-.19-3.77-1.12-1-.3-2.75-.86-1.18-.38-2.56-.84-1.22-.41-2.65-.91-.93-.32-3.49-1.24-.59-.22-2.84-1-1.11-.42-2.29-.88-1.15-.45-2.3-.91-1-.38c-2.07-.84-4.18-1.71-6.26-2.6l-2-.86a76.19,76.19,0,0,0,7.33,4.62,7.92,7.92,0,0,1-5.77,14.65c-45.17-12.53-71.87-34.23-87.18-52.44l.31,1.13a7.92,7.92,0,0,1-13.4,7.53,92.89,92.89,0,0,1-15.58-23,7.92,7.92,0,0,1-3.19,4.66L465,502.86A7.92,7.92,0,0,1,453.54,500L413.72,424.7a7.92,7.92,0,0,1-.77-5.21c10.49-54.06,59.77-90.61,93.4-109.72-16.64-2.4-38.32-3.64-64.07-3.64-28.18,0-51.28,1.51-51.51,1.53l-.53,0a7.92,7.92,0,0,1-7.9-8.44L387.24,225a7.92,7.92,0,0,1,7.5-7.39c4.27-.22,8.56-.33,12.74-.33,32.42,0,61.88,6.52,87.67,19.4,19.1-15.55,39.17-23.42,59.73-23.42q2.31,0,4.59.14c-13.78-29.23-22.9-55.17-27.17-77.29-3.79-19.65-2.22-29.08-2-30.09a7.92,7.92,0,0,1,5.57-6.13A136.52,136.52,0,0,1,574,94.61c45.84,0,87.26,20.84,105.6,31.6a27,27,0,0,0-2.66-13.78C667,91.44,632.5,76.64,620,72.7a7.92,7.92,0,0,1,2.38-15.47h.41c31.09,1.61,56,9.73,74.14,24.12a78.34,78.34,0,0,1,22.58,28.29,119.34,119.34,0,0,1,38.81-6.58,86.94,86.94,0,0,1,16.33,1.34,7.92,7.92,0,0,1,5.89,10.24q11.81-1.16,22.78-1.41A89.58,89.58,0,0,1,828.27,88C847.23,75,871,68.46,898.78,68.46a196.49,196.49,0,0,1,21.91,1.28,7.92,7.92,0,0,1,7,6.8c.31,2.32,7.05,53.6-6.73,87.44,19,12.15,21.81,21.68,22.21,24.51a7.92,7.92,0,0,1-10.29,8.65l-11.22-3.66,3.78,34,.88,6.44c31.08,12.47,46.28,35,46.94,36A7.92,7.92,0,0,1,968.42,282c26.79,28.58,29.9,59.72,30,61.32a7.92,7.92,0,0,1-10.73,8.09c4.22,23.7-2.75,39.7-10.49,49.64l0,0-.93,1.16-.13.16-.81,1-.16.18-.79.89-.17.19-.77.82-.19.19-.78.78-.21.2-.73.7-.93.86-.93.82-1.2,1-.89.71-.81.62-.66.49-1.13.8-.81.55-.74.49-.72.46-.71.43-.63.37-.6.34-.54.3-1.09.57-.9.44-.64.29a7.9,7.9,0,0,1-3.11.64h-.26C936,451,908.32,472.85,906.89,474a7.92,7.92,0,0,1-11.4-1.76,151.17,151.17,0,0,1-27.67,21.89,7.92,7.92,0,0,1-11.52-4.29,113.89,113.89,0,0,1-21.61,14.51l-1.37.68-.44.21q-.27.16-.56.3c-1.35.67-2.79,1.35-4.41,2.08l-1,.43-.41.18c-1,.45-2.05.9-3.09,1.33l-1.57.64q-1.51.61-3,1.18l-1.48.56c-1.23.45-2.45.88-3.66,1.29l-.81.28c-1.46.49-3,1-4.51,1.42l-1.21.35c-1.09.32-2.2.63-3.31.92l-1.58.41c-1,.26-2,.51-3,.74l-1.57.36c-1.1.25-2.21.48-3.32.71l-1.21.25c-1.49.29-3,.57-4.5.82l-.84.13q-1.83.3-3.68.56l-1.23.16-.28,0-3.06.37-1.58.17c-1,.11-2.09.21-3.14.3l-1.38.12c-2.94.23-6,.39-9,.48l-1.37,0-3.12,0h-1.58Z"/><path class="cls-3" d="M548.25,293.07s-41.05-73.3-153.11-67.57l-4.91,74.25s127.6-8.48,154.59,14.26Z"/><path class="cls-3" d="M540.88,301.63S436,342.05,420.72,421l39.82,75.35,69.63-48.22S531.79,312.09,540.88,301.63Z"/><path class="cls-4" d="M583,227.59s-51-30.08-107,39.92c0,0,72.31-54.17,98.18-3.8Z"/><polygon class="cls-2" points="697.85 467.53 590.02 402.58 583.76 257.88 582.51 211.93 548.25 121.56 576.59 104.42 651.96 130.22 731.65 180.39 848.53 111.45 899.38 106.14 888.88 192.32 929.13 289.15 901.29 378.91 805.54 463.37 697.85 467.53"/><path class="cls-4" d="M990.58,344.06s-3.91-43.9-48.14-73.75c0,0,18.84.09,24.19,4,0,0-15.49-23.43-47.54-34.65l-7.91-57.93,24.13,7.86s-1.35-9.43-24.57-22.52c17-31.34,9.08-89.48,9.08-89.48-76.88-8.67-105.05,31-111.94,43.5-18.5.11-41.58,2.3-70,8.23,0,0,16.86-14.82,35.15-17.17,0,0-46.49-9.74-88.11,26.77,0,0-74.79-52.43-146.9-31.47,0,0-6.86,36.12,40.16,125.79A208.47,208.47,0,0,0,560,247.12a100.11,100.11,0,0,1-5.14,18,36.59,36.59,0,0,1,4.84-2.83s-2.92,3.12-7.26,8.53c-.63,1.38-1.29,2.76-2,4.13L535.62,296.3a17.46,17.46,0,0,1-2.49,2.75c-14.38,25-26.5,58.68-11.92,87.87,0,0,.7-33.9,11.09-43.61,0,0-5,31.47,2,59.15l-1.58-1.05a31,31,0,0,1,3.68,5.39c.09.17.15.33.23.49a83.26,83.26,0,0,1,13.12,5.09c-1.68-10.15-2.32-21.05.88-27.44a293.39,293.39,0,0,0,9.05,33.37c1.61,1.11,3.24,2.17,4.78,3.4,9.49,7.59,18.33,15.49,27,23.86q8,2.35,15.89,4.74C632,462,648,471.38,675.93,479.31c25.52,7.25,50.53,15.06,75.58,23.73,12.06,4.17,21.53,2,35.55,2.27,19.12.37,31.44-6.35-.4,4.46a114.53,114.53,0,0,1,25.82-5.55l-.29-.24h0c1.75-.42,3.52-.85,5.32-1.32a63.62,63.62,0,0,0,13.59-5.38c11.65-6,29-18,44.61-41.19,0,0-7.39,27.21-11.89,31.2,0,0,37.24-21.9,47-52.62,0,0-5.94,27.75-8.79,33.07,0,0,41.24-32.16,55.36-77.51,0,0-.85,16.39-2.87,19.39,0,0,43.87-18.25,18.9-78.38A27.28,27.28,0,0,1,990.58,344.06ZM599.85,196.44c-24.16-22.44-30.49-73.1-30.49-73.1,32.39,3.75,77.19,24.64,77.19,24.64C618.51,163.85,599.85,196.44,599.85,196.44Zm282-78.13s7.91,35.7-12.77,55.05l-42-25.87S841.92,122.62,881.83,118.32ZM781,352.84c-33.13,2.49-62.43-28-65.45-68s24.52-60,57.65-62.53,59.31,13.44,62.33,53.49S814.16,350.35,781,352.84ZM898.23,327.2c-5,16.14-20,33.7-20,33.7S818.9,338.27,846,329.34,903.19,311.05,898.23,327.2Z"/><path class="cls-5" d="M763.86,293.07s46.32,85.6,57.15-10.9"/><path class="cls-6" d="M856.38,268.48S890.08,343.09,898,259"/><path class="cls-4" d="M530.36,344.45s-8.52,83.32,28.86,123.1c0,0-9.9-35.88-9.12-52,0,0,10.71,67.17,105.74,93.53a116,116,0,0,1-41.09-40S732.29,546,828.82,498.43L656.67,434.6s-72.22-84.73-74.11-85.15S530.36,344.45,530.36,344.45Z"/><path class="cls-3" d="M578.21,233.27s185.36,3,332.52-66.18l6.83,61.38s-167.4,70.13-394.48,68C523.07,296.42,537.51,261.19,578.21,233.27Z"/><path class="cls-7" d="M748,183.71s67.5,33.14,80.84-21.37"/><path class="cls-4" d="M717.2,128.79s-5.3-59-94.79-63.63c0,0,86.17,27.18,60.32,77.55Z"/><circle class="cls-8" cx="663.21" cy="350.64" r="20.9"/><circle class="cls-8" cx="932.11" cy="299" r="9.72"/><circle class="cls-8" cx="912.78" cy="291.69" r="4.78"/><circle class="cls-8" cx="707.04" cy="339.91" r="11.36"/><circle class="cls-8" cx="686.45" cy="393.76" r="5.76"/><circle class="cls-8" cx="953.8" cy="324.81" r="3.36"/><circle class="cls-8" cx="606.14" cy="329.74" r="12.72"/><circle class="cls-8" cx="638.53" cy="311.57" r="4.98"/><circle class="cls-8" cx="695.04" cy="311.57" r="8.58"/><circle class="cls-8" cx="917.56" cy="272.33" r="6.67"/><path class="cls-9" d="M833.63,279s4.47,138.6-113.31,83.5"/><path class="cls-10" d="M626.23,475.9c31.85,17.68,124.16,61.21,202.59,22.52l0,0c.75-.35,1.51-.73,2.32-1.14,11.65-6,29-18,44.61-41.19,0,0-7.39,27.21-11.89,31.2,0,0,37.24-21.9,47-52.62,0,0-5.94,27.75-8.79,33.07,0,0,41.24-32.16,55.36-77.51,0,0-.85,16.39-2.87,19.39a46.42,46.42,0,0,0,19.57-17.86C773.9,330.81,649.11,451.29,626.23,475.9Z"/><path class="cls-10" d="M622.41,480.18v3.43l7.38,5.06c-2.47-2.58-5-5.41-7.38-8.49Z"/><path class="cls-11" d="M694.09,452.31s74.09-41.73,139.54,21.25"/><ellipse class="cls-12" cx="895.17" cy="400.2" rx="2.79" ry="4.75"/><ellipse class="cls-12" cx="714.94" cy="488.67" rx="2.79" ry="4.75"/><ellipse class="cls-12" cx="679.17" cy="473.56" rx="2.79" ry="4.75"/><ellipse class="cls-12" cx="809.56" cy="404.96" rx="2.79" ry="4.75"/><ellipse class="cls-12" cx="789.65" cy="478.32" rx="2.79" ry="4.75"/><ellipse class="cls-12" cx="763.86" cy="414.46" rx="2.79" ry="4.75"/><ellipse class="cls-12" cx="835.76" cy="443.51" rx="2.79" ry="4.75"/><ellipse class="cls-12" cx="812.35" cy="429.21" rx="2.79" ry="4.75"/><ellipse class="cls-12" cx="922.38" cy="424.46" rx="2.79" ry="4.75"/><polygon class="cls-13" points="668.34 235.1 674.82 251.23 692.17 250.05 678.83 261.21 685.31 277.34 670.58 268.1 657.24 279.25 661.48 262.39 646.75 253.15 664.1 251.96 668.34 235.1"/><polygon class="cls-13" points="616.14 242.86 620.88 254.64 633.55 253.78 623.8 261.93 628.54 273.71 617.78 266.96 608.04 275.11 611.13 262.79 600.37 256.04 613.04 255.18 616.14 242.86"/><g class="cls-14"><path class="cls-2" d="M789.73,253.91l-1.3-5.47L772,252.33l-1.88-7.93,7.51-23.66,14.32-3.4L796.62,237l3.94-.93,2.14,9-3.94.93,1.3,5.47Zm-6-25.21L779.85,241l6.44-1.53Z"/><path class="cls-2" d="M800.78,233.3c-2.2-9.26.79-18.77,11-21.19s17.12,4.75,19.31,14-.77,18.82-11,21.24S803,242.56,800.78,233.3Zm19.9-4.72c-1.37-5.78-3.5-8.14-6.77-7.36s-4.11,3.84-2.74,9.62,3.51,8.19,6.78,7.41S822,234.36,820.67,228.58Z"/><path class="cls-2" d="M852.33,239.06l-1.3-5.47-16.42,3.9-1.88-7.93,7.51-23.66,14.32-3.4,4.66,19.64,3.94-.93,2.14,9-3.94.93,1.3,5.47Zm-6-25.21-3.9,12.27,6.44-1.53Z"/></g><circle class="cls-1" cx="1084.64" cy="221.16" r="101.03"/><circle class="cls-1" cx="983.62" cy="98.33" r="33.18"/><circle class="cls-1" cx="507.26" cy="493.42" r="16.98"/><circle class="cls-1" cx="1040.49" cy="438.76" r="48.84"/><circle class="cls-15" cx="1089.33" cy="368.37" r="13.21"/><circle class="cls-1" cx="344.76" cy="327.21" r="13.21"/></svg>