<svg xmlns="http://www.w3.org/2000/svg" xmlns:xlink="http://www.w3.org/1999/xlink" width="200" height="200" viewBox="0 0 200 200"><defs><style>.cls-1,.cls-10,.cls-21,.cls-4{fill:none;}.cls-2{isolation:isolate;}.cls-3{fill:#f6f6f6;}.cls-4{stroke:#c9c9c9;stroke-width:2px;}.cls-21,.cls-4{stroke-miterlimit:10;}.cls-23,.cls-5{fill:#fff;}.cls-6{clip-path:url(#clip-path);}.cls-7{fill:#231f20;}.cls-8{fill:#332e2f;}.cls-9{fill:#4c2d1f;}.cls-10{stroke:#603f30;stroke-linecap:round;stroke-linejoin:round;}.cls-10,.cls-21{stroke-width:0.97px;}.cls-11{fill:#e6bd99;}.cls-12{fill:#e7be99;}.cls-13{fill:#ce9c78;}.cls-14{fill:#cd9b78;}.cls-15{fill:#c69677;opacity:0.4;}.cls-16{clip-path:url(#clip-path-2);}.cls-17{fill:#885e3c;}.cls-18{fill:#221f1f;}.cls-19{opacity:0.2;mix-blend-mode:multiply;}.cls-20{fill:#3c2417;}.cls-21{stroke:#ce9c78;}.cls-22{fill:#db9c94;}.cls-23{opacity:0.7;}</style><clipPath id="clip-path"><path class="cls-1" d="M169.73,100c0-38.51,22.52-97.88-71.95-97.88-94,0-67.51,59.37-67.51,97.88a69.73,69.73,0,0,0,139.46,0Z"/></clipPath><clipPath id="clip-path-2"><path class="cls-1" d="M67.62,87.71s3.48,14,16.37,5.37c0,0-6.93-9.57-16.41-5.53"/></clipPath></defs><title>Artboard 108 copy 9</title><g class="cls-2"><g id="Layer_1" data-name="Layer 1"><circle class="cls-3" cx="100" cy="100" r="69.73"/><circle class="cls-4" cx="100" cy="100" r="69.73"/><circle class="cls-5" cx="96.81" cy="170.62" r="0.97"/><g class="cls-6"><path class="cls-7" d="M53.55,45.34c3-5.8,10.14-16,23.18-20.72A18.18,18.18,0,1,0,53.55,45.34Z"/><path class="cls-8" d="M73.87,25.79a13.71,13.71,0,1,0-19.46,18A43.63,43.63,0,0,1,73.87,25.79Z"/><polygon class="cls-9" points="48.42 73.91 50.59 168.74 155.07 172.65 155.41 73.91 48.42 73.91"/><polygon class="cls-9" points="47.91 74.08 50.08 168.9 154.56 172.82 154.91 74.08 47.91 74.08"/><line class="cls-10" x1="56.33" y1="168.74" x2="53.78" y2="73.91"/><line class="cls-10" x1="66.59" y1="168.74" x2="64.04" y2="73.91"/><line class="cls-10" x1="74.4" y1="168.74" x2="71.86" y2="73.91"/><line class="cls-10" x1="121.88" y1="171.41" x2="118.09" y2="73.91"/><line class="cls-10" x1="129.93" y1="171.59" x2="127.3" y2="73.91"/><line class="cls-10" x1="142.18" y1="172.17" x2="139.54" y2="73.91"/><line class="cls-10" x1="150.32" y1="172.47" x2="147.67" y2="73.91"/><path class="cls-9" d="M155.08,77c-4.42,33.27-43.58,55.51-61.66,53.11C63.78,126.15,43.33,96,47.74,62.73s32-57,61.67-53.11S159.49,43.71,155.08,77Z"/><path class="cls-7" d="M89,133.31s-13.62,11.22-18.23,21a11.7,11.7,0,0,1,1.18.58,8.74,8.74,0,0,1,2.12,1.62c.8-4.78,6.19-12,20.26-22.93Z"/><path class="cls-7" d="M74.33,155.55a10.4,10.4,0,0,1-3.41-1.44c-3.74,7.76,3.42,14.63,16.4,14.63-.3-1.13.41-2.19,1.52-3C83.4,165.61,71.89,164.21,74.33,155.55Z"/><path class="cls-7" d="M102.41,134.43s14.37,10.25,19.64,19.71a12,12,0,0,0-1.13.67,8.58,8.58,0,0,0-2,1.76c-1.13-4.72-7-11.55-21.81-21.47Z"/><path class="cls-7" d="M118.63,155.59a10.57,10.57,0,0,0,3.3-1.66c4.27,7.48-2.4,14.82-15.34,15.72.22-1.15-.56-2.15-1.73-2.83C110.28,166.26,121.66,164.07,118.63,155.59Z"/><polyline class="cls-5" points="110.17 139.73 108.65 177.57 84.5 177.57 81.84 138.71"/><polygon class="cls-7" points="82.04 146.51 83.88 175.53 109.25 175.06 110.72 146.51 96.3 167 82.04 146.51"/><path class="cls-11" d="M142.42,75.29c-3.37,25.43-24.47,43.6-47.12,40.59S57,89.83,60.4,64.41s24.47-43.59,47.12-40.59S145.8,49.87,142.42,75.29Z"/><path class="cls-11" d="M63.12,90.05c-4,16.24-2.36,32.05,7.9,45.76,7.92,10.58,21.5,16.89,34.61,13.27,16.92-4.67,27.48-23.86,28.51-40.45.23-3.66.37-7.35.39-11"/><path class="cls-9" d="M61.48,71.58s.29-1.45.45-1.85c1.71-4,10-26.95,25-36.69,0,0,42.7,7.31,54.24,51.66L147.67,54,139.55,35.3S127.5,23.46,126,23.51,115,18,113.53,18s-10.52.41-11.35,0S85.28,20.86,85,21.6s-17.84,9-18,9.38-9.38,14-9.38,14"/><path class="cls-12" d="M63.25,79.7s-2.48-9.41-10.87-5.14c-5.7,2.9-4.15,6.89-1.56,9.91a25.91,25.91,0,0,0,5,4.39,5.35,5.35,0,0,1,1.29,7.67c-3.11,4.76-3.61,6.67-2,7.78s5.78.35,6.73-2.73C66,88.28,63.25,79.7,63.25,79.7Z"/><path class="cls-13" d="M61.48,88.29S58.26,69.57,55,83C55,83,58.24,75.83,61.48,88.29Z"/><path class="cls-13" d="M62,88.35S58.86,78.69,58.24,90C58.24,90,59.33,82.91,62,88.35Z"/><path class="cls-13" d="M134.49,112.58s-2.87-1.2-3.22-3.23c0,0,.86,4,2.6,4.66Z"/><path class="cls-12" d="M137.82,85.62s5.36-9.33,13.08-2.35c5.24,4.74,2.45,8.55-1.19,11a28.87,28.87,0,0,1-6.66,3.23,5.91,5.91,0,0,0-3.59,7.81c1.95,6,1.93,8.16-.14,8.87s-6.28-1.29-6.4-4.86C132.37,94,137.82,85.62,137.82,85.62Z"/><path class="cls-13" d="M136.58,96.17s8.83-19,8.44-3.83C145,92.34,143.63,83.81,136.58,96.17Z"/><path class="cls-13" d="M136.52,96.22s6.11-9.41,3.5,2.89C140,99.11,140.92,91.18,136.52,96.22Z"/><path class="cls-9" d="M57.19,66.47s1.74,8.73,2.92,8.27c4.82-1.88,17.42-15,23.94-39.62l-14,3.2"/><path class="cls-13" d="M60.88,103.2a8.44,8.44,0,0,0,2.2-2.29s-.35,4.11-2.2,5.11Z"/><path class="cls-13" d="M83.28,35.75s12.47,38.85,53.24,45.7l-23.3-26.73L89.08,36.91,82.8,35.12"/><path class="cls-9" d="M82.8,35.12s28.25,38.66,58,47.17l-5.33-22L112.36,40.74,97,32.57,82.8,30.8Z"/><path class="cls-14" d="M57.19,100.91a.86.86,0,1,0-.86.86A.86.86,0,0,0,57.19,100.91Z"/><path class="cls-14" d="M139.3,112.54a.86.86,0,1,0-.86.85A.86.86,0,0,0,139.3,112.54Z"/><path class="cls-10" d="M153.79,81.45c-19-53.61-70.71-48.59-70.71-48.59s42.34-19.7,68.77,16.8"/><path class="cls-10" d="M83.08,32.86S71.86,59.93,48.42,65.76"/><path class="cls-10" d="M125.29,18C104,11,82.35,32.2,83.08,32.86c0,0-6.41-11.42-16.49-5.37"/><path class="cls-15" d="M64.46,89.09s1.11,9.47,9,9.31S84,93.08,84,93.08l-13.18-4Z"/><path class="cls-5" d="M67.62,87.71s3.48,14,16.37,5.37c0,0-6.93-9.57-16.41-5.53"/><g class="cls-16"><path class="cls-17" d="M81.39,87.74A3.9,3.9,0,0,1,84,92.6a3.86,3.86,0,1,1-2.63-4.86Z"/><path class="cls-18" d="M80.86,89.68a1.95,1.95,0,1,1-2.36,1.37A1.94,1.94,0,0,1,80.86,89.68Z"/><path class="cls-5" d="M78.57,90.75a.79.79,0,0,1-.43,1.51.76.76,0,0,1-.51-1A.78.78,0,0,1,78.57,90.75Z"/></g><path class="cls-18" d="M84,93.08c-.13-.14-.17-.65-.27-.83a13,13,0,0,0-1.26-1.8,12,12,0,0,0-7.18-4.28,35,35,0,0,0-3.85-.54c-1.65-.15-3.34-.08-5-.29a9.4,9.4,0,0,1-4.26-1.63,7.55,7.55,0,0,1-1.66-1.52,4.49,4.49,0,0,1-.81-1.86s-.42,4.83,5.49,7.18c0,0-1.75.48-4.72-1.15a8.67,8.67,0,0,0,4,2.73,6,6,0,0,1,2.4,1.49c.82,1,1.26,2.18,2.15,3.15a7,7,0,0,0,3,2,8.46,8.46,0,0,0,2.18.39,13.46,13.46,0,0,0,1.68,0c.43,0,.92-.18,1.35-.19,0,0-7.88.06-8.51-8.08C68.75,87.77,75.58,84.9,84,93.08Z"/><path class="cls-19" d="M68.12,88.75S74.78,87,84,93.08l-3.25-3L76,87.64l-4.71-1.06L69.24,87Z"/><path class="cls-15" d="M98.9,90.42s14.6,21.14,23.32-2Z"/><path class="cls-5" d="M119.9,89s-7.18,13.31-21.05,2c0,0,10.46-8.17,21.13-2.18"/><path class="cls-17" d="M119.15,88.08a84.51,84.51,0,0,1-10.76-1.47,1.82,1.82,0,0,1-.07.25,6.27,6.27,0,0,0,4.2,7.53,5.77,5.77,0,0,0,6.89-4.68,7.33,7.33,0,0,0,.16-1.67A1.87,1.87,0,0,1,119.15,88.08Z"/><path class="cls-18" d="M111.28,87.11a2.66,2.66,0,0,0-.16.5,3.07,3.07,0,0,0,2.06,3.69,2.83,2.83,0,0,0,3.37-2.3,3.21,3.21,0,0,0,.06-1.11C114.83,87.71,113.05,87.42,111.28,87.11Z"/><path class="cls-5" d="M110.36,89.63a1.23,1.23,0,0,0,.83,1.48,1.13,1.13,0,0,0,1.36-.92,1.24,1.24,0,0,0-.83-1.48A1.15,1.15,0,0,0,110.36,89.63Z"/><path class="cls-18" d="M98.85,91c.19-.11,0-.25.51-.78a12.25,12.25,0,0,1,1.91-1.54,16.23,16.23,0,0,1,9.64-2.82c1.59,0,3.19.1,4.79.25,2,.19,4.08.61,6.13.73a13.65,13.65,0,0,0,5.52-.76,9.34,9.34,0,0,0,2.34-1.18,4.46,4.46,0,0,0,1.38-1.7s-.5,4.93-8.19,6.07c0,0,2,.84,6-.18,0,0-1.47,1.29-5.42,1.93a8.17,8.17,0,0,0-3.23,1c-1.2.83-2,1.93-3.28,2.72a9.17,9.17,0,0,1-4.11,1.34,13.24,13.24,0,0,1-2.74,0c-.68-.1-1.36-.23-2-.39-.52-.13-1.09-.38-1.61-.47,0,0,9.59,1.68,12.06-6.35C118.51,88.8,110.8,84.52,98.85,91Z"/><path class="cls-19" d="M119.53,90.05s-9-3.29-20.68.94l2.23-1.56,4.17-2.09,5.35-.63,4.9.51s1.76.23,1.87.26,2.53.59,2.53.59Z"/><path class="cls-20" d="M64.19,81.24S74.4,70.72,83.55,84.06C83.55,84.06,73.88,77.3,64.19,81.24Z"/><path class="cls-20" d="M97.77,83.17s10.69-14,26.54-4.68C124.31,78.49,109.58,75.69,97.77,83.17Z"/><path class="cls-14" d="M67.78,123.58s8.52,1.52,7.13-4.85A7.21,7.21,0,0,1,67.78,123.58Z"/><path class="cls-14" d="M115.29,114s3.22,8,7.89,3.48A7.22,7.22,0,0,1,115.29,114Z"/><path class="cls-21" d="M114,122.58s-11.18,17.76-33.12,3.68"/><path class="cls-7" d="M142.15,48.17c-3.24-6.26-11-17.27-25-22.37a19.63,19.63,0,1,1,25,22.37Z"/><path class="cls-8" d="M120.21,27.07a14.8,14.8,0,1,1,21,19.4A47,47,0,0,0,120.21,27.07Z"/><path class="cls-14" d="M110.9,121.67s5-1.37,5.55,4.18C116.45,125.85,114.73,121.89,110.9,121.67Z"/><path class="cls-22" d="M96.47,113.18s-14.53,8-15.31-.9c-1-11.45,12.56-1.48,12.56-1.48l1.7-20.58,1,23Z"/><path class="cls-23" d="M94.28,111.86l1.26-19.07-.12-2.57-1.7,20.58s-12.55-9.41-12.61.36C83.05,107.06,87.57,106.64,94.28,111.86Z"/></g></g></g></svg>