<svg xmlns="http://www.w3.org/2000/svg" viewBox="0 0 200 200" width="200" height="200"><defs><style>.cls-1{isolation:isolate;}.cls-2{fill:#f6f6f6;}.cls-3{fill:none;stroke:#c9c9c9;stroke-miterlimit:10;stroke-width:2px;}.cls-4{fill:#bd9947;}.cls-5{fill:#e1b563;}.cls-6{fill:#a78342;}.cls-7{fill:#404041;}.cls-8{fill:#e6bd98;}.cls-9{fill:#2aa5dc;}.cls-10{fill:#d2ac8c;}.cls-11,.cls-12,.cls-21{fill:#cd9b78;}.cls-12{opacity:0.2;}.cls-12,.cls-16,.cls-21{mix-blend-mode:multiply;}.cls-13,.cls-18{fill:#fff;}.cls-14{fill:#e6e6e6;}.cls-15{fill:#006838;}.cls-16,.cls-21{opacity:0.1;}.cls-17{fill:#8e7036;}.cls-18{opacity:0.41;}.cls-19{fill:#523119;}.cls-20{fill:#da9c94;}.cls-22{fill:#513119;}</style></defs><title>Artboard 105 copy 5</title><g class="cls-1"><g id="Layer_1" data-name="Layer 1"><path class="cls-2" d="M168.73,100a68.64,68.64,0,0,1-25.12,53.13,69.54,69.54,0,0,1-11.15,7.47l-.58.3a66.76,66.76,0,0,1-12.17,4.95c-.44.14-.88.27-1.33.39a68,68,0,0,1-17.82,2.48H100a68.73,68.73,0,0,1-17.8-2.33c-.46-.12-.93-.25-1.39-.39A68.7,68.7,0,0,1,52.5,50.34c.19-.19.38-.37.58-.54A68.72,68.72,0,0,1,168.73,100Z"/><circle class="cls-3" cx="100" cy="100" r="69.73"/><path class="cls-4" d="M160.2,81c0,.16,0,.32,0,.48a101.25,101.25,0,0,1-1,10.1c0,.15-.05.3-.07.45A105.23,105.23,0,0,1,157,102.49a153.52,153.52,0,0,1-9.18,26c-3.64,7.84-8.37,16.61-4.17,24.65a69.54,69.54,0,0,1-11.15,7.47l-.58.3a66.76,66.76,0,0,1-12.17,4.95c-.44.14-.88.27-1.33.39a68,68,0,0,1-17.82,2.48H100a68.73,68.73,0,0,1-17.8-2.33v.44c-.47-.26-.93-.54-1.39-.83-11.94-7.39-21.34-18.28-27.72-30.15C41.5,114.3,37.8,90.3,40,66.52A153.66,153.66,0,0,1,44.2,42.07C46.73,32.19,51,20.88,60.48,15a24.26,24.26,0,0,1,13-3.5,56.69,56.69,0,0,1,17,3.55l-.1-.09c21.6-11.68,44.06.85,56.29,17.85A72.42,72.42,0,0,1,159.5,65.6c.29,2.07.49,4.15.62,6.24,0,.17,0,.34,0,.51A86.84,86.84,0,0,1,160.2,81Z"/><path class="cls-5" d="M51.12,125.57C45.6,94.84,44.2,70.09,47,52c2.23-14.58,7.17-24.91,14.66-30.7C74.9,11.06,91.8,18.69,92,18.77l-.19.41c-.17-.08-16.83-7.59-29.87,2.49-7.4,5.72-12.28,15.95-14.49,30.41-2.76,18-1.37,42.73,4.14,73.41Z"/><path class="cls-6" d="M148.21,127.39C132.92,127,125.69,99.23,125.62,99l.45-.11c.07.27,7.21,27.71,22.15,28.09Z"/><path class="cls-6" d="M132.46,160.6l-.58.3a42.83,42.83,0,0,1-21-15.69,51.38,51.38,0,0,1-8.75-21.63l.46,0A50.85,50.85,0,0,0,111.24,145,42.36,42.36,0,0,0,132.46,160.6Z"/><path class="cls-6" d="M119.71,165.85c-.44.14-.88.27-1.33.39q-3.73-.37-7.32-1a85.56,85.56,0,0,1-10.27-2.43,72,72,0,0,1-18.59-8.49,62.39,62.39,0,0,1-7.31-5.47A68.91,68.91,0,0,1,55.2,119.28c-4.49-12.66-6.36-27.67-5.58-44.61A153.08,153.08,0,0,1,52.5,50.34C55.78,34.8,61.62,24.51,70,19.63c10.73-6.28,21.81-.85,21.92-.8l-.2.41c-.11-.06-11-5.37-21.5.79-8.1,4.75-13.82,14.73-17.09,29.77a151.07,151.07,0,0,0-3,24.89c-1.55,33.22,6.9,58.06,25.11,73.82a62.83,62.83,0,0,0,7,5.26,72.17,72.17,0,0,0,18.61,8.5A93.78,93.78,0,0,0,119.71,165.85Z"/><path class="cls-7" d="M78.66,139.07a36.87,36.87,0,0,0,7.54-1.67l-.73-2.16c-19.93,6.71-37.08-7.69-37.25-7.83l-1.48,1.72C46.9,129.27,60.92,141,78.66,139.07Z"/><path class="cls-8" d="M48.91,128.21c1.94-.27,8.15-5.61,5.14-6.87-2.34-.89-4.92,4.14-5.78,5.7l-.22-.12a16.34,16.34,0,0,0-3-1.83c-1.67-.75-10.18-3.48-11.51-1.36-1.92,2.77,9.25,3.9,11.06,4.08-2.94-.23-8.11,1.51-8.91,4.67,2.4,2.37,8-3,9.81-4.63-.84,1.22-4,5.32-.88,5.21,1.59-.05,2.69-2.18,3.31-3.41"/><path class="cls-7" d="M100.1,139.53a35.66,35.66,0,0,1-7-3.23l1.17-2c18.06,10.79,37.86.34,38.06.24l1.08,2C133.22,136.69,117,145.22,100.1,139.53Z"/><path class="cls-8" d="M131.48,135.23c-1.84-.67-6.78-7.21-3.57-7.81,2.48-.37,3.93,5.09,4.44,6.8l.24-.07A15.65,15.65,0,0,1,135.9,133c1.79-.38,10.68-1.25,11.53,1.1,1.29,3.12-9.87,1.85-11.67,1.65,2.92.4,7.6,3.19,7.72,6.45-2.85,1.81-7.24-4.63-8.62-6.61.57,1.37,2.74,6-.23,5.28-1.55-.38-2.17-2.69-2.51-4"/><path class="cls-7" d="M101.92,133.7l-1.11,28.57,0,.54-.23,5.91H100a68.73,68.73,0,0,1-17.8-2.33V133.7Z"/><path class="cls-9" d="M85.12,141.09S90,161.72,94.63,141Z"/><path class="cls-10" d="M62.52,76.29s-.75-7-10.2-5.32c-6.43,1.12-5.61,4.14-3.53,6.67a23.83,23.83,0,0,0,4.36,3.86s4,2.73-.15,5.55-5,4.07-3.52,5.11,5.89,1.17,7.46-.83C63.73,82.71,62.52,76.29,62.52,76.29Z"/><path class="cls-8" d="M66.41,126.92c.44.33,5,3.37,5,3,0,0,.32.58,1,1.51,2.35,3.45,8.94,11.66,18.53,11.7,5.46,0,11.9-2.59,19.08-10.24,5.88-1.23,11.45-5.31,15.11-9.15a30.64,30.64,0,0,0,8.07-15.52c1.15-6.44-1.45-12.3-4.32-18l2.66-3.77,4.9.12L140.54,77l4.19-.08s14.91-57.18-46.55-58c-.93,0-1.87,0-2.83,0C82.21,19,73.53,24.3,67.82,31.67h0A36.49,36.49,0,0,0,65.5,35h-.06l0,0c-9.33,15.16-8.51,36.32-7.94,42a8.21,8.21,0,0,0,.22,1.48c0,.58-.07,1.16-.11,1.75a27.81,27.81,0,0,1-1.14,8.12C51.6,102.09,54,117.39,66.41,126.92Z"/><path class="cls-11" d="M133.38,104.94a5.23,5.23,0,0,1-2.19-2.51s-.55,3.3,1.85,4.7Z"/><path class="cls-11" d="M87.35,121.54a30.42,30.42,0,0,1-19.13-7.07.49.49,0,0,1,0-.68.47.47,0,0,1,.67,0,29.3,29.3,0,0,0,19.73,6.79c9.37-.43,18.55-5.62,27.28-15.41a.47.47,0,1,1,.71.63c-8.91,10-18.32,15.29-28,15.73Z"/><path class="cls-12" d="M108.9,82.56c-.37,3.58-4.35,6.31-8.91,6.07s-7.94-3.34-7.57-6.93,4.35-6.31,8.9-6.06S109.26,79,108.9,82.56Z"/><path class="cls-13" d="M106.57,81.79c-.33,3.25-3.75,5.73-7.65,5.54s-6.77-3-6.44-6.25,3.75-5.74,7.64-5.54S106.89,78.53,106.57,81.79Z"/><path class="cls-14" d="M93.49,82.7c.33-3.25,3.75-5.74,7.64-5.54a7.28,7.28,0,0,1,5.11,2.3,4.94,4.94,0,0,1,.33,2.33c-.33,3.25-3.75,5.73-7.65,5.54A7.28,7.28,0,0,1,93.81,85,5,5,0,0,1,93.49,82.7Z"/><ellipse class="cls-15" cx="102.54" cy="81.06" rx="1.88" ry="1.8" transform="matrix(1, -0.01, 0.01, 1, -0.83, 1.07)"/><g class="cls-16"><path class="cls-11" d="M66.41,126.92c.44.33,5,3.37,5,3,0,0,.32.58,1,1.51,2.35,3.45,8.94,11.66,18.53,11.7-.33-.8-.66-1.61-1-2.41a114.22,114.22,0,0,1-6-18.46c-4.12-19.38.14-39.42,4.4-58.78l9.81-44.64c-.93,0-1.87,0-2.83,0C82.21,19,73.53,24.3,67.82,31.67h0A36.49,36.49,0,0,0,65.5,35h-.06l0,0c-9.33,15.16-8.51,36.32-7.94,42a8.21,8.21,0,0,0,.22,1.48c0,.58-.07,1.16-.11,1.75a27.81,27.81,0,0,1-1.14,8.12C51.6,102.09,54,117.39,66.41,126.92Z"/></g><path class="cls-12" d="M79.26,79.8C79,82.72,75.72,84.94,72,84.74S65.53,82,65.83,79.1s3.54-5.15,7.25-4.95S79.56,76.87,79.26,79.8Z"/><path class="cls-13" d="M77.36,79.16c-.27,2.65-3.06,4.68-6.23,4.52s-5.52-2.44-5.25-5.09,3.05-4.68,6.22-4.52S77.63,76.51,77.36,79.16Z"/><path class="cls-14" d="M66.7,79.91c.27-2.65,3.06-4.68,6.23-4.52a6,6,0,0,1,4.17,1.88,4,4,0,0,1,.26,1.89c-.27,2.65-3.06,4.68-6.23,4.52A5.94,5.94,0,0,1,67,81.8,4.14,4.14,0,0,1,66.7,79.91Z"/><ellipse class="cls-15" cx="73.51" cy="78.26" rx="1.88" ry="1.8" transform="translate(-0.81 0.77) rotate(-0.59)"/><path class="cls-17" d="M118.89,67.5s-11.45-14.23-27.74-.29C91.15,67.21,109.19,61.83,118.89,67.5Z"/><path class="cls-17" d="M79.8,68.1S72.05,52.79,59.66,65C59.66,65,73,61.47,79.8,68.1Z"/><path class="cls-11" d="M118.17,106a5.33,5.33,0,0,1-2.49-.58,5.74,5.74,0,0,1-2.76-4.23.47.47,0,1,1,.93-.19,4.85,4.85,0,0,0,2.27,3.58,6,6,0,0,0,4.49,0,.47.47,0,0,1,.62.25.49.49,0,0,1-.25.63A8,8,0,0,1,118.17,106Z"/><path class="cls-13" d="M66.41,126.92c.44.33,5,3.37,5,3,0,0,.32.58,1,1.51l.18-.08a11.38,11.38,0,0,0-3.26-3.73c-7.11-6.2-13.64-14.32-13.47-23.61.1-5.31,2.4-10.36,3-15.63a58.17,58.17,0,0,0,0-9.05C58.24,63,60,46,67.82,31.67A36.49,36.49,0,0,0,65.5,35h-.06l0,0c-9.33,15.16-8.51,36.32-7.94,42a8.21,8.21,0,0,0,.22,1.48c0,.58-.07,1.16-.11,1.75a27.81,27.81,0,0,1-1.14,8.12C51.6,102.09,54,117.39,66.41,126.92Z"/><path class="cls-18" d="M119.12,72.56s-20.55-6.73-29.18,2.62l2.72,16L101,96l6.53-.73L114.68,92l4.07-9.09Z"/><path class="cls-18" d="M51.58,70.59s21-5.26,28.92,4.67l-3.84,15.8L68,95.29,61.52,94.1l-6.88-3.81-3.42-9.35Z"/><path class="cls-19" d="M48.31,69.13c0,.21-.16,7-.2,9.05a.89.89,0,0,0,.17.58.58.58,0,0,0,.39.22h.23c1.22.1,1.72,2,2.25,4.41.14.64.27,1.25.43,1.78,1.21,4.15,3.29,7.21,6,8.86a12.69,12.69,0,0,0,5.73,1.73,28.89,28.89,0,0,0,7.16-.54,10.51,10.51,0,0,0,7.58-5,38.63,38.63,0,0,0,3.5-8.66c.12-.39.24-.9.37-1.43a9.47,9.47,0,0,1,1-2.94c.23-.25.86-.65,2.5-.64s2.17.6,2.38.87a9.38,9.38,0,0,1,.61,3c.07.54.13,1.06.2,1.47a37.57,37.57,0,0,0,2.46,8.93A10.12,10.12,0,0,0,98,96.51a30.72,30.72,0,0,0,6,1.16,13.42,13.42,0,0,0,7-1.13c2.91-1.38,5.34-4.23,7-8.24.22-.51.42-1.1.64-1.73.85-2.5,1.56-4.27,2.84-4.17,0,0,.11,0,.11,0a.59.59,0,0,0,.45-.19.9.9,0,0,0,.24-.56c.15-1.47.85-8.8.87-9l.08-1.47a.72.72,0,0,0-.56-.84L117.8,70a19.8,19.8,0,0,1-2.81-.52c-.63-.15-1.28-.31-1.93-.41-1.5-.25-3-.44-4.48-.55a46,46,0,0,0-5.37-.11,32.54,32.54,0,0,0-9.33,1.88l-1.33.47A18.05,18.05,0,0,1,86,72.24h-.88A18.06,18.06,0,0,1,79,70.11l-1.26-.59a31.87,31.87,0,0,0-9.06-2.75c-.82-.11-1.66-.19-2.5-.26a50.33,50.33,0,0,0-7.37,0c-.66,0-1.32.14-2,.23a20,20,0,0,1-2.85.25l-4.88-.09a.76.76,0,0,0-.66.79Zm5.35,2.36a31.15,31.15,0,0,1,12.09-1.61,23.23,23.23,0,0,1,13.3,5.21c.12,1.46.45,7.7-2.6,12.3-2.36,3.55-6.2,5.36-11.41,5.36-.45,0-.89,0-1.32,0-4.07-.32-7-2.13-8.77-5.4C52,81.74,53.28,73.52,53.66,71.49ZM91.87,75.7a24.05,24.05,0,0,1,15.45-3.86,31.39,31.39,0,0,1,10.22,2.66c.14,2.08.47,10.58-3.3,15.81C112,93.5,108.51,94.94,104,94.6l-.31,0c-5.18-.49-8.79-2.65-10.71-6.41C90.51,83.29,91.57,77.13,91.87,75.7Z"/><path class="cls-20" d="M72.15,95.1a1.23,1.23,0,0,1,0-.2,8.66,8.66,0,0,1,.24-1.52,5.93,5.93,0,0,1,.3-.9A2.61,2.61,0,0,1,73,92a1.72,1.72,0,0,1,.22-.33,2.84,2.84,0,0,1,2.86-1,5.49,5.49,0,0,1,.76.17,8.63,8.63,0,0,1,1.53.6l.53.27a27.07,27.07,0,0,1,5,3.65l.34.31.23.23,1.66-19.24v-.06l.61.35h0l.3,22s-14.36,9.55-14.88-1.55c0-.51,0-1,0-1.4a.56.56,0,0,1,0-.13v-.12C72.12,95.49,72.13,95.29,72.15,95.1Z"/><path class="cls-13" d="M72.15,95.1a1.23,1.23,0,0,1,0-.2h0a8.55,8.55,0,0,1,.26-1.52,4.63,4.63,0,0,1,.3-.89A2.69,2.69,0,0,1,73,92a1.72,1.72,0,0,1,.22-.33,2.83,2.83,0,0,1,2.92-1.06,5.49,5.49,0,0,1,.76.17,9.55,9.55,0,0,1,1.51.61,5.12,5.12,0,0,1,.52.27,25.92,25.92,0,0,1,4.92,3.7l.34.31.23.23,1.66-19.24v-.06l.35.2-1.5,20.43c-2.51-2.63-4.73-4.16-6.6-4.75q-.33-.1-.66-.18c-2.17-.43-3.85.5-5,2.52a8.2,8.2,0,0,0-.44.89h0c0,.09-.08.17-.11.26h0v-.26C72.12,95.49,72.13,95.29,72.15,95.1Z"/><path class="cls-21" d="M93,18.9s20.09,12.8,16.71,31,12.19,37.45,29.35,32.35l-.71-24.57-12.1-19.37L119,27.55l-16.89-9.86-2-.69Z"/><path class="cls-4" d="M154.16,53.08a6.45,6.45,0,0,1-3.65-2.64,49.63,49.63,0,0,1-4.29-8.56c-1-2.37-2-5.23-2.91-7.11-2.43-5.13-5.52-8.09-10.44-11.06-2.59-1.57-5.27-3-7.91-4.47A64.93,64.93,0,0,0,117.08,15a6.32,6.32,0,0,1-7,3.12c-4.87-.92-9.88-1.3-14.59-2.87L91.77,19S110.48,16,117.21,54.1c6.33,35.86,39.52,28.29,39.52,28.29Z"/><path class="cls-6" d="M143.9,86.84a30,30,0,0,0,15.29,4.77c0,.16,0,.31-.07.46a30.61,30.61,0,0,1-15.43-4.83,33.11,33.11,0,0,1-5.64-4.51l-.19-.2c-.62-.62-1.23-1.28-1.83-2h0c-5.27-6.17-10.13-15.9-11.92-31.23A76.55,76.55,0,0,0,122,37.82v-.06a40.18,40.18,0,0,0-4.8-11.26,21.12,21.12,0,0,0-6.51-6.59h0c-.31-.2-.62-.38-.94-.56a17.88,17.88,0,0,0-8.87-2.1h0a21.59,21.59,0,0,0-2.18.14h0A23.54,23.54,0,0,0,92.51,19l-.06,0h0l-.51.24h-.06L91.73,19l-.1-.15,0,0,0,0c.13-.1.5-.39,1.09-.8h0a39.71,39.71,0,0,1,3.94-2.37c4.69-2.48,12-5.14,19.31-3a21.59,21.59,0,0,1,10.72,7.58h0a39,39,0,0,1,5,8.33,62.81,62.81,0,0,1,2.62,6.74c3.68,11.29,7.88,19.16,11.9,24.65h0a39.46,39.46,0,0,0,9.16,9.28.71.71,0,0,1,.14.1,25.64,25.64,0,0,0,4.54,2.49,4.53,4.53,0,0,1,0,.52,25.7,25.7,0,0,1-4.51-2.42l-.47-.32a39.5,39.5,0,0,1-8.87-8.85c-4.16-5.53-8.54-13.6-12.36-25.31A60.9,60.9,0,0,0,131,28h0a36.57,36.57,0,0,0-5.34-8.35h0a20.84,20.84,0,0,0-9.74-6.53C109,11,102,13.44,97.35,15.82c-.84.43-1.59.85-2.26,1.25h0c-.64.38-1.19.74-1.65,1.05.41-.15.87-.29,1.39-.44h0a23,23,0,0,1,7.2-.87h0a18,18,0,0,1,4.3.68h0a17.55,17.55,0,0,1,5.44,2.61A22.79,22.79,0,0,1,118,27c3.26,5.38,5.45,12.82,6.55,22.27,1.84,15.79,6.95,25.58,12.38,31.64.43.48.87.94,1.31,1.38l.13.13A32.44,32.44,0,0,0,143.9,86.84Z"/><path class="cls-5" d="M160.21,81c0,.16,0,.33,0,.49a17,17,0,0,1-3.48.66c-.49,0-1,.07-1.6.07A17.78,17.78,0,0,1,146,79.77a21.41,21.41,0,0,1-3.77-2.84,26.09,26.09,0,0,1-3.46-4c-4.46-6.31-7.52-15.71-9.16-28.09-.06-.48-.12-1-.2-1.43-.11-.8-.24-1.58-.38-2.35,0-.2-.07-.39-.1-.58l-.06-.32h0s0,0,0,0c-1.34-7.07-3.45-12.69-6.32-16.82a19.77,19.77,0,0,0-7-6.4c-.27-.15-.55-.29-.83-.42-5.56-2.59-11.57-1.71-16-.28a36.29,36.29,0,0,0-3.92,1.53h0c-1.15.53-2,1-2.48,1.28h0l-.37.23h0L91.77,19v0l-.11-.17,0,0c.08-.05.32-.2.7-.41.59-.33,1.51-.81,2.69-1.33h0c.83-.37,1.77-.75,2.82-1.11C102.52,14.38,109,13.23,115,16c.34.16.67.33,1,.52a20.53,20.53,0,0,1,7.37,7.06c3.24,5,5.48,11.88,6.68,20.71l.06.43c1.58,11.94,4.49,21.08,8.68,27.32a26.23,26.23,0,0,0,4.15,4.85,20.12,20.12,0,0,0,3.33,2.46,17.42,17.42,0,0,0,10.43,2.36A15.69,15.69,0,0,0,160.21,81Z"/><polygon class="cls-22" points="145.18 74.65 121.62 74.95 121.53 77.7 144.21 78.5 145.18 74.65"/><path class="cls-8" d="M128.89,82s3-10.22,15.85-7.87c8.75,1.6,6.76,6,3.13,9.77a44.31,44.31,0,0,1-7.2,5.7s-6.34,4-1.32,8.16,5.93,6,3.56,7.48S134.29,107,132.62,104C125.42,91.42,128.89,82,128.89,82Z"/><path class="cls-11" d="M132.23,91.9s3.3-19.92,9.24-7C141.47,84.89,136.08,78.39,132.23,91.9Z"/><path class="cls-11" d="M132.17,92s3.89-10.62,5.72.84C137.89,92.81,135.7,85.78,132.17,92Z"/></g></g></svg>