<svg xmlns="http://www.w3.org/2000/svg" xmlns:xlink="http://www.w3.org/1999/xlink" width="200" height="200" viewBox="0 0 200 200"><defs><style>.cls-1,.cls-4,.cls-85{fill:none;}.cls-2{isolation:isolate;}.cls-3{fill:#f6f6f6;}.cls-4{stroke:#c9c9c9;stroke-miterlimit:10;stroke-width:2px;}.cls-5{fill:#06060d;}.cls-6{fill:#909295;}.cls-7{fill:#e7be99;}.cls-8{fill:#eeefef;}.cls-9{clip-path:url(#clip-path);}.cls-10{clip-path:url(#clip-path-2);}.cls-11,.cls-13,.cls-14,.cls-15,.cls-16,.cls-17,.cls-18,.cls-19,.cls-20,.cls-21,.cls-22,.cls-23,.cls-24,.cls-25,.cls-26,.cls-27,.cls-28,.cls-29,.cls-30,.cls-31,.cls-32,.cls-33,.cls-34,.cls-35,.cls-36,.cls-37,.cls-38,.cls-39,.cls-40,.cls-41,.cls-42,.cls-43,.cls-44,.cls-45,.cls-46,.cls-47,.cls-48,.cls-49,.cls-50,.cls-51,.cls-52,.cls-53,.cls-54,.cls-55,.cls-56,.cls-57,.cls-58,.cls-59,.cls-60,.cls-61,.cls-62,.cls-63,.cls-64,.cls-65,.cls-66,.cls-67,.cls-68,.cls-69,.cls-70,.cls-71,.cls-72,.cls-73,.cls-74,.cls-75,.cls-76,.cls-82{mix-blend-mode:multiply;}.cls-11{fill:url(#linear-gradient);}.cls-12,.cls-84{fill:#fff;}.cls-13{fill:url(#linear-gradient-2);}.cls-14{fill:url(#linear-gradient-3);}.cls-15{fill:url(#linear-gradient-4);}.cls-16{fill:url(#linear-gradient-5);}.cls-17{fill:url(#linear-gradient-6);}.cls-18{fill:url(#linear-gradient-7);}.cls-19{fill:url(#linear-gradient-8);}.cls-20{fill:url(#linear-gradient-9);}.cls-21{fill:url(#linear-gradient-10);}.cls-22{fill:url(#linear-gradient-11);}.cls-23{fill:url(#linear-gradient-12);}.cls-24{fill:url(#linear-gradient-13);}.cls-25{fill:url(#linear-gradient-14);}.cls-26{fill:url(#linear-gradient-15);}.cls-27{fill:url(#linear-gradient-16);}.cls-28{fill:url(#linear-gradient-17);}.cls-29{fill:url(#linear-gradient-18);}.cls-30{fill:url(#linear-gradient-19);}.cls-31{fill:url(#linear-gradient-20);}.cls-32{fill:url(#linear-gradient-21);}.cls-33{fill:url(#linear-gradient-22);}.cls-34{fill:url(#linear-gradient-23);}.cls-35{fill:url(#linear-gradient-24);}.cls-36{fill:url(#linear-gradient-25);}.cls-37{fill:url(#linear-gradient-26);}.cls-38{fill:url(#linear-gradient-27);}.cls-39{fill:url(#linear-gradient-28);}.cls-40{fill:url(#linear-gradient-29);}.cls-41{fill:url(#linear-gradient-30);}.cls-42{fill:url(#linear-gradient-31);}.cls-43{fill:url(#linear-gradient-32);}.cls-44{fill:url(#linear-gradient-33);}.cls-45{fill:url(#linear-gradient-34);}.cls-46{fill:url(#linear-gradient-35);}.cls-47{fill:url(#linear-gradient-36);}.cls-48{fill:url(#linear-gradient-37);}.cls-49{fill:url(#linear-gradient-38);}.cls-50{fill:url(#linear-gradient-39);}.cls-51{fill:#58595b;}.cls-52{fill:url(#linear-gradient-40);}.cls-53{fill:#808082;}.cls-54{fill:#a4a6a9;}.cls-55{fill:url(#linear-gradient-41);}.cls-56{fill:#414042;}.cls-57{fill:url(#linear-gradient-42);}.cls-58{fill:url(#linear-gradient-43);}.cls-59{fill:url(#linear-gradient-44);}.cls-60{fill:#ced0d1;}.cls-61{fill:url(#linear-gradient-45);}.cls-62{fill:url(#linear-gradient-46);}.cls-63{fill:url(#linear-gradient-47);}.cls-64{fill:url(#linear-gradient-48);}.cls-65{fill:url(#linear-gradient-49);}.cls-66{fill:url(#linear-gradient-50);}.cls-67{fill:url(#linear-gradient-51);}.cls-68{fill:url(#linear-gradient-52);}.cls-69{fill:url(#linear-gradient-53);}.cls-70{fill:url(#linear-gradient-54);}.cls-71{fill:url(#linear-gradient-55);}.cls-72{fill:url(#linear-gradient-56);}.cls-73{fill:url(#linear-gradient-57);}.cls-74{fill:url(#linear-gradient-58);}.cls-75{fill:url(#linear-gradient-59);}.cls-76{fill:url(#linear-gradient-60);}.cls-77{fill:#f0d0b3;}.cls-78{fill:#cf9e78;}.cls-79{clip-path:url(#clip-path-3);}.cls-80{fill:#603913;}.cls-81{fill:#221f1f;}.cls-82{opacity:0.2;}.cls-83{fill:#db9c94;}.cls-84{opacity:0.7;}.cls-85{stroke:#b79581;stroke-linecap:round;stroke-linejoin:round;stroke-width:0.79px;}</style><clipPath id="clip-path"><polyline class="cls-1" points="110.76 123.3 109.73 169.06 85.61 168.78 83.22 122.32"/></clipPath><clipPath id="clip-path-2"><rect class="cls-1" x="40.84" y="-26.03" width="224.01" height="223.72"/></clipPath><linearGradient id="linear-gradient" x1="-90662.55" y1="-97214.51" x2="-90613.15" y2="-97114.42" gradientTransform="translate(97373.49 -90415.06) rotate(-90)" gradientUnits="userSpaceOnUse"><stop offset="0.05" stop-color="#fff" stop-opacity="0"/><stop offset="0.14" stop-color="#fcfefd" stop-opacity="0.05"/><stop offset="0.3" stop-color="#f3faf9" stop-opacity="0.18"/><stop offset="0.51" stop-color="#e5f4f1" stop-opacity="0.4"/><stop offset="0.77" stop-color="#d1ebe7" stop-opacity="0.7"/><stop offset="1" stop-color="#bde3dc"/></linearGradient><linearGradient id="linear-gradient-2" x1="-96668.19" y1="86786.18" x2="-96618.79" y2="86886.26" gradientTransform="translate(96894.15 -86628.14)" xlink:href="#linear-gradient"/><linearGradient id="linear-gradient-3" x1="87332.48" y1="92791.82" x2="87381.88" y2="92891.9" gradientTransform="translate(93107.23 -87107.48) rotate(90)" xlink:href="#linear-gradient"/><linearGradient id="linear-gradient-4" x1="93338.11" y1="-91208.86" x2="93387.52" y2="-91108.78" gradientTransform="translate(93586.55 -90894.4) rotate(180)" xlink:href="#linear-gradient"/><linearGradient id="linear-gradient-5" x1="-96696.7" y1="86850.98" x2="-96623.59" y2="86850.98" gradientTransform="translate(96894.15 -86628.14)" gradientUnits="userSpaceOnUse"><stop offset="0.05" stop-color="#fff" stop-opacity="0"/><stop offset="0.2" stop-color="#f2faf8" stop-opacity="0.19"/><stop offset="0.49" stop-color="#dcf0ec" stop-opacity="0.53"/><stop offset="0.73" stop-color="#cbe9e3" stop-opacity="0.79"/><stop offset="0.91" stop-color="#c1e5de" stop-opacity="0.94"/><stop offset="1" stop-color="#bde3dc"/></linearGradient><linearGradient id="linear-gradient-6" x1="-90691.05" y1="-97149.7" x2="-90617.95" y2="-97149.7" gradientTransform="translate(97373.49 -90415.06) rotate(-90)" xlink:href="#linear-gradient-5"/><linearGradient id="linear-gradient-7" x1="-12630.85" y1="-126865.16" x2="-12595.42" y2="-126793.39" gradientTransform="translate(80887.25 -98348.91) rotate(-135)" xlink:href="#linear-gradient"/><linearGradient id="linear-gradient-8" x1="-126346.73" y1="8759.65" x2="-126311.31" y2="8831.41" gradientTransform="translate(83225.94 -95332.35) rotate(-45)" xlink:href="#linear-gradient"/><linearGradient id="linear-gradient-9" x1="9287.43" y1="122496.7" x2="9322.85" y2="122568.46" gradientTransform="translate(80209.38 -92993.67) rotate(45)" xlink:href="#linear-gradient"/><linearGradient id="linear-gradient-10" x1="9267" y1="122543.17" x2="9319.41" y2="122543.17" gradientTransform="translate(80209.38 -92993.67) rotate(45)" xlink:href="#linear-gradient-5"/><linearGradient id="linear-gradient-11" x1="-90662.55" y1="-97438.51" x2="-90613.15" y2="-97338.43" xlink:href="#linear-gradient"/><linearGradient id="linear-gradient-12" x1="-96893.37" y1="86786.75" x2="-96843.97" y2="86886.84" gradientTransform="translate(96894.15 -86628.14)" xlink:href="#linear-gradient"/><linearGradient id="linear-gradient-13" x1="93562.12" y1="-91208.86" x2="93611.52" y2="-91108.78" gradientTransform="translate(93586.55 -90894.4) rotate(180)" xlink:href="#linear-gradient"/><linearGradient id="linear-gradient-14" x1="-96920.7" y1="86850.98" x2="-96847.6" y2="86850.98" xlink:href="#linear-gradient-5"/><linearGradient id="linear-gradient-15" x1="87303.98" y1="93079.97" x2="87377.08" y2="93079.97" gradientTransform="translate(93107.23 -87107.48) rotate(90)" xlink:href="#linear-gradient-5"/><linearGradient id="linear-gradient-16" x1="-90438.84" y1="-97214.51" x2="-90389.43" y2="-97114.42" xlink:href="#linear-gradient"/><linearGradient id="linear-gradient-17" x1="-96668.19" y1="86562.46" x2="-96618.79" y2="86662.54" gradientTransform="translate(96894.15 -86628.14)" xlink:href="#linear-gradient"/><linearGradient id="linear-gradient-18" x1="87106.93" y1="92792.61" x2="87156.33" y2="92892.69" gradientTransform="translate(93107.23 -87107.48) rotate(90)" xlink:href="#linear-gradient"/><linearGradient id="linear-gradient-19" x1="93338.11" y1="-90985.15" x2="93387.52" y2="-90885.06" gradientTransform="translate(93586.55 -90894.4) rotate(180)" xlink:href="#linear-gradient"/><linearGradient id="linear-gradient-20" x1="-96696.7" y1="86627.26" x2="-96623.59" y2="86627.26" xlink:href="#linear-gradient-5"/><linearGradient id="linear-gradient-21" x1="-90467.34" y1="-97149.7" x2="-90394.23" y2="-97149.7" gradientTransform="translate(97373.49 -90415.06) rotate(-90)" xlink:href="#linear-gradient-5"/><linearGradient id="linear-gradient-22" x1="93309.61" y1="-90920.34" x2="93382.72" y2="-90920.34" gradientTransform="translate(93586.55 -90894.4) rotate(180)" xlink:href="#linear-gradient-5"/><linearGradient id="linear-gradient-23" x1="-12452.79" y1="-126716.77" x2="-12417.37" y2="-126645" gradientTransform="translate(80887.25 -98348.91) rotate(-135)" xlink:href="#linear-gradient"/><linearGradient id="linear-gradient-24" x1="-126189.41" y1="8601.88" x2="-126153.99" y2="8673.65" gradientTransform="translate(83225.94 -95332.35) rotate(-45)" xlink:href="#linear-gradient"/><linearGradient id="linear-gradient-25" x1="9129.24" y1="122338.51" x2="9164.66" y2="122410.27" gradientTransform="translate(80209.38 -92993.67) rotate(45)" xlink:href="#linear-gradient"/><linearGradient id="linear-gradient-26" x1="122865.86" y1="-12980.14" x2="122901.28" y2="-12908.38" gradientTransform="translate(77870.7 -96010.23) rotate(135)" xlink:href="#linear-gradient"/><linearGradient id="linear-gradient-27" x1="-126209.85" y1="8648.35" x2="-126157.43" y2="8648.35" gradientTransform="translate(83225.94 -95332.35) rotate(-45)" xlink:href="#linear-gradient-5"/><linearGradient id="linear-gradient-28" x1="-12473.23" y1="-126670.3" x2="-12420.81" y2="-126670.3" gradientTransform="translate(80887.25 -98348.91) rotate(-135)" xlink:href="#linear-gradient-5"/><linearGradient id="linear-gradient-29" x1="122845.42" y1="-12933.68" x2="122897.84" y2="-12933.68" gradientTransform="translate(77870.7 -96010.23) rotate(135)" xlink:href="#linear-gradient-5"/><linearGradient id="linear-gradient-30" x1="9108.8" y1="122384.97" x2="9161.22" y2="122384.97" gradientTransform="translate(80209.38 -92993.67) rotate(45)" xlink:href="#linear-gradient-5"/><linearGradient id="linear-gradient-31" x1="-126186.03" y1="8634.94" x2="-126170.66" y2="8666.09" gradientTransform="translate(83225.94 -95332.35) rotate(-45)" gradientUnits="userSpaceOnUse"><stop offset="0.35" stop-color="#fff" stop-opacity="0"/><stop offset="1" stop-color="#bde3dc"/></linearGradient><linearGradient id="linear-gradient-32" x1="-12449.41" y1="-126683.71" x2="-12434.04" y2="-126652.56" gradientTransform="translate(80887.25 -98348.91) rotate(-135)" xlink:href="#linear-gradient-31"/><linearGradient id="linear-gradient-33" x1="122869.24" y1="-12947.08" x2="122884.61" y2="-12915.94" gradientTransform="translate(77870.7 -96010.23) rotate(135)" xlink:href="#linear-gradient-31"/><linearGradient id="linear-gradient-34" x1="9132.61" y1="122371.56" x2="9147.99" y2="122402.71" gradientTransform="translate(80209.38 -92993.67) rotate(45)" xlink:href="#linear-gradient-31"/><linearGradient id="linear-gradient-35" x1="-12611.24" y1="-126716.76" x2="-12575.82" y2="-126645" gradientTransform="translate(80887.25 -98348.91) rotate(-135)" xlink:href="#linear-gradient"/><linearGradient id="linear-gradient-36" x1="-126189.41" y1="8760.33" x2="-126153.98" y2="8832.1" gradientTransform="translate(83225.94 -95332.35) rotate(-45)" xlink:href="#linear-gradient"/><linearGradient id="linear-gradient-37" x1="122865.85" y1="-13138.59" x2="122901.28" y2="-13066.83" gradientTransform="translate(77870.7 -96010.23) rotate(135)" xlink:href="#linear-gradient"/><linearGradient id="linear-gradient-38" x1="-126210.3" y1="8806.47" x2="-126157.89" y2="8806.47" gradientTransform="translate(83225.94 -95332.35) rotate(-45)" xlink:href="#linear-gradient-5"/><linearGradient id="linear-gradient-39" x1="-90549.63" y1="-97327.16" x2="-90500.23" y2="-97227.07" xlink:href="#linear-gradient"/><linearGradient id="linear-gradient-40" x1="-96780.24" y1="86674.49" x2="-96730.83" y2="86774.58" gradientTransform="translate(96894.15 -86628.14)" xlink:href="#linear-gradient"/><linearGradient id="linear-gradient-41" x1="-96808.74" y1="86739.3" x2="-96735.63" y2="86739.3" xlink:href="#linear-gradient-5"/><linearGradient id="linear-gradient-42" x1="87192.29" y1="92968.66" x2="87265.4" y2="92968.66" gradientTransform="translate(93107.23 -87107.48) rotate(90)" xlink:href="#linear-gradient-5"/><linearGradient id="linear-gradient-43" x1="-96775.53" y1="86720.6" x2="-96754.08" y2="86764.04" gradientTransform="translate(96894.15 -86628.14)" xlink:href="#linear-gradient-31"/><linearGradient id="linear-gradient-44" x1="-90546.16" y1="-97280.44" x2="-90524.72" y2="-97237" gradientTransform="translate(97373.49 -90415.06) rotate(-90)" xlink:href="#linear-gradient-31"/><linearGradient id="linear-gradient-45" x1="-90438.84" y1="-97438.51" x2="-90389.43" y2="-97338.43" xlink:href="#linear-gradient"/><linearGradient id="linear-gradient-46" x1="-96892.2" y1="86562.46" x2="-96842.8" y2="86662.54" gradientTransform="translate(96894.15 -86628.14)" xlink:href="#linear-gradient"/><linearGradient id="linear-gradient-47" x1="87108.76" y1="93015.83" x2="87158.16" y2="93115.91" gradientTransform="translate(93107.23 -87107.48) rotate(90)" xlink:href="#linear-gradient"/><linearGradient id="linear-gradient-48" x1="93562.12" y1="-90985.15" x2="93611.52" y2="-90885.06" gradientTransform="translate(93586.55 -90894.4) rotate(180)" xlink:href="#linear-gradient"/><linearGradient id="linear-gradient-49" x1="-96920.7" y1="86627.26" x2="-96847.6" y2="86627.26" xlink:href="#linear-gradient-5"/><linearGradient id="linear-gradient-50" x1="93533.62" y1="-90920.34" x2="93606.72" y2="-90920.34" gradientTransform="translate(93586.55 -90894.4) rotate(180)" xlink:href="#linear-gradient-5"/><linearGradient id="linear-gradient-51" x1="87080.26" y1="93080.63" x2="87153.36" y2="93080.63" gradientTransform="translate(93107.23 -87107.48) rotate(90)" xlink:href="#linear-gradient-5"/><linearGradient id="linear-gradient-52" x1="-96887.49" y1="86608.57" x2="-96866.05" y2="86652.01" gradientTransform="translate(96894.15 -86628.14)" xlink:href="#linear-gradient-31"/><linearGradient id="linear-gradient-53" x1="87113.47" y1="93061.93" x2="87134.91" y2="93105.37" gradientTransform="translate(93107.23 -87107.48) rotate(90)" xlink:href="#linear-gradient-31"/><linearGradient id="linear-gradient-54" x1="-12452.84" y1="-126875.16" x2="-12417.42" y2="-126803.4" gradientTransform="translate(80887.25 -98348.91) rotate(-135)" xlink:href="#linear-gradient"/><linearGradient id="linear-gradient-55" x1="-126347.81" y1="8601.93" x2="-126312.38" y2="8673.7" gradientTransform="translate(83225.94 -95332.35) rotate(-45)" xlink:href="#linear-gradient"/><linearGradient id="linear-gradient-56" x1="9129.29" y1="122496.9" x2="9164.71" y2="122568.66" gradientTransform="translate(80209.38 -92993.67) rotate(45)" xlink:href="#linear-gradient"/><linearGradient id="linear-gradient-57" x1="123024.25" y1="-12980.19" x2="123059.68" y2="-12908.43" gradientTransform="translate(77870.7 -96010.23) rotate(135)" xlink:href="#linear-gradient"/><linearGradient id="linear-gradient-58" x1="-12473.28" y1="-126828.69" x2="-12420.86" y2="-126828.69" gradientTransform="translate(80887.25 -98348.91) rotate(-135)" xlink:href="#linear-gradient-5"/><linearGradient id="linear-gradient-59" x1="123003.82" y1="-12933.73" x2="123056.24" y2="-12933.73" gradientTransform="translate(77870.7 -96010.23) rotate(135)" xlink:href="#linear-gradient-5"/><linearGradient id="linear-gradient-60" x1="9108.85" y1="122543.37" x2="9161.27" y2="122543.37" gradientTransform="translate(80209.38 -92993.67) rotate(45)" xlink:href="#linear-gradient-5"/><clipPath id="clip-path-3"><path class="cls-1" d="M129,78.07s-1.52,10.42-15.46,4.07c0,0,7.64-7.26,15.5-4.22"/></clipPath></defs><title>Artboard 108 copy 6</title><g class="cls-2"><g id="Layer_1" data-name="Layer 1"><circle class="cls-3" cx="100" cy="100" r="69.73"/><circle class="cls-4" cx="100" cy="100" r="69.73"/><path class="cls-5" d="M145.31,69.41s-2.39,59.85,6.82,84.84c-51.24,1.87-62.08-2.14-106.43-7.12,0,0,4.2-43.22,0-77.72Z"/><path class="cls-6" d="M115,133.55a45.77,45.77,0,0,1-9.36-3.09l1.2-2.64c24.48,11.07,48.1-5,48.34-5.21l1.66,2.38C156.63,125.15,137.31,138.32,115,133.55Z"/><path class="cls-7" d="M154.22,123.54c-2.43-.58-9.65-8.17-5.67-9.38,3.1-.83,5.73,5.89,6.62,8l.3-.12a20.51,20.51,0,0,1,4-2c2.22-.74,13.37-3.12,14.8-.27,2.08,3.78-12.26,3.78-14.58,3.79,3.76.08,10.11,2.94,10.73,7.07-3.35,2.71-9.85-4.83-11.89-7.14.92,1.66,4.35,7.26.47,6.73-2-.26-3.15-3.1-3.77-4.75"/><path class="cls-6" d="M78.74,133.55a45.77,45.77,0,0,0,9.36-3.09l-1.2-2.64c-24.48,11.07-48.11-5-48.34-5.21L36.9,125C37.12,125.15,56.44,138.32,78.74,133.55Z"/><path class="cls-7" d="M39.53,123.54c2.43-.58,9.65-8.17,5.67-9.38-3.1-.83-5.73,5.89-6.62,8l-.3-.12a20.51,20.51,0,0,0-4-2c-2.22-.74-13.38-3.12-14.8-.27-2.09,3.78,12.26,3.78,14.58,3.79-3.76.08-10.11,2.94-10.73,7.07,3.35,2.71,9.85-4.83,11.88-7.14-.91,1.66-4.34,7.26-.46,6.73,2-.26,3.15-3.1,3.77-4.75"/><path class="cls-5" d="M45.7,70.14A57.94,57.94,0,0,0,58.88,98.43l3.91-14.19L51,72Z"/><path class="cls-5" d="M95.46,7C67.72,7,45.22,31.84,45.22,62.47A60.86,60.86,0,0,0,46.8,76.29l.2-.13A20.08,20.08,0,0,1,71.33,79.3c.56.74,1.13,1.47,1.7,2.21a20,20,0,0,1-.29,28.07,17.85,17.85,0,0,1-1.6,1.42,46.81,46.81,0,0,0,18.55,6.57,19.68,19.68,0,0,1-.85-5.71,20.06,20.06,0,0,1,38.9-6.9c11-10.17,18-25.43,18-42.49C145.7,31.84,123.21,7,95.46,7Z"/><path class="cls-8" d="M90.07,169.79l1.31.13c1.83.19,4.9-.16,6.63.45l1,.06,1.71-.09c1.07-.06,2.15-.1,3.22-.13,1.92-.05,3.86,0,5.78.06l1.06-47-27.53-1,2.4,46.79A36.43,36.43,0,0,1,90.07,169.79Z"/><g class="cls-9"><g class="cls-10"><path class="cls-11" d="M152.88,236.24a84,84,0,0,0,24.69,59.62l3.6-3.6a69.62,69.62,0,0,1,56-110.94,54.91,54.91,0,0,1,54.91,54.92,69.62,69.62,0,1,0-139.23,0Z"/><path class="cls-12" d="M292.12,236.25a54.92,54.92,0,1,1-54.92-54.92A54.91,54.91,0,0,1,292.12,236.25Z"/><path class="cls-13" d="M237.2,151.93a84,84,0,0,0-59.62,24.69l3.6,3.6a69.62,69.62,0,0,1,110.94,56,54.91,54.91,0,0,1-54.92,54.91,69.62,69.62,0,1,0,0-139.23Z"/><path class="cls-14" d="M321.51,236.25a84.07,84.07,0,0,0-24.69-59.62l-3.6,3.6a69.62,69.62,0,0,1-56,110.94,54.91,54.91,0,0,1-54.91-54.92,69.62,69.62,0,1,0,139.23,0Z"/><path class="cls-15" d="M237.19,320.56a84,84,0,0,0,59.62-24.69l-3.6-3.6a69.62,69.62,0,0,1-110.94-56,54.91,54.91,0,0,1,54.92-54.91,69.62,69.62,0,1,0,0,139.23Z"/><path class="cls-16" d="M262.49,197.41a45.35,45.35,0,0,0-64.12,0,54.74,54.74,0,0,0-16.09,38.84h3.32A45.34,45.34,0,0,1,262.49,211a35.77,35.77,0,0,1,0,50.59A45.34,45.34,0,0,0,262.49,197.41Z"/><path class="cls-17" d="M198.36,211a45.35,45.35,0,0,0,0,64.12,54.74,54.74,0,0,0,38.84,16.09v-3.32A45.34,45.34,0,0,1,211.9,211a35.77,35.77,0,0,1,50.59,0A45.34,45.34,0,0,0,198.36,211Z"/><path class="cls-18" d="M153,208.4a49.63,49.63,0,0,0-22.77-13c.06.61.1,1.22.11,1.84A39.13,39.13,0,0,1,153,208.4Z"/><path class="cls-12" d="M153,208.4a39.16,39.16,0,0,0-22.67-11.17,21.8,21.8,0,0,1-.12,2.54c-.59,5.12-1.6,8.91-4.49,13.26-2.08,3.15-3.21,4.33-4.86,5.52a21.62,21.62,0,0,1-2.21,2,20.22,20.22,0,0,1-9.38,5.07,20.3,20.3,0,0,1-10.22,1.49,21,21,0,0,1-3.5-.69,10.7,10.7,0,0,1-3.43-.7c-.07,0-.44-.2-1-.45a21.44,21.44,0,0,1-2.25-.11l-.74,0-.37-.05-.14,0-.27-.06A39.38,39.38,0,1,0,153,208.4Z"/><path class="cls-19" d="M153,193.49a49.54,49.54,0,0,0-29.27-14.2c.13.17.27.33.4.51a22.59,22.59,0,0,1,3.49,5.52c0,.11.07.22.11.33a20.05,20.05,0,0,1,1.49,4.57c.19.59.39,1.17.58,1.76v.11a26.47,26.47,0,0,1,.39,3.16.68.68,0,0,1,0,.14,49.66,49.66,0,0,1,22.78,13,39.39,39.39,0,0,1,0,55.69A49.93,49.93,0,0,0,153,193.49Z"/><path class="cls-20" d="M167.9,193.5a60.25,60.25,0,0,0-42.75-17.71v3.65A49.91,49.91,0,0,1,153,264.09a39.38,39.38,0,0,1-55.69,0A49.91,49.91,0,1,0,167.9,193.5Z"/><path class="cls-21" d="M130.33,197.3a20.63,20.63,0,0,1-.12,2.47,39.62,39.62,0,0,1-1.07,5.83,32.52,32.52,0,0,1,21.66,30.65,25.65,25.65,0,0,1-25.65,25.65,32.51,32.51,0,0,0,5.18-64.6Z"/><path class="cls-22" d="M55,195.56A69.52,69.52,0,0,0-1.51,166.62a69.62,69.62,0,0,0-69.62,69.62,84,84,0,0,0,24.7,59.62l3.59-3.6a69.34,69.34,0,0,1-13.59-41.32,69.62,69.62,0,0,1,69.62-69.62A54.76,54.76,0,0,1,55.27,201C55.17,199.19,55.06,197.38,55,195.56Z"/><path class="cls-12" d="M61.84,214.43l-.39-.39a26.88,26.88,0,0,1-6.16-12.71c0-.1,0-.21,0-.32a54.39,54.39,0,1,0,9.54,16.44A21.23,21.23,0,0,1,61.84,214.43Z"/><path class="cls-23" d="M54.89,194.44a27,27,0,0,1,4.44-13.06L64.11,176c.3-.29.61-.55.92-.81a69.35,69.35,0,0,0-51.84-23.21,84,84,0,0,0-59.62,24.69l3.6,3.6A69.3,69.3,0,0,1-1.51,166.63,69.51,69.51,0,0,1,55,195.56C54.94,195.19,54.91,194.81,54.89,194.44Z"/><path class="cls-24" d="M13.18,320.56A84,84,0,0,0,72.8,295.87l-3.6-3.6a69.62,69.62,0,0,1-110.94-56,54.91,54.91,0,0,1,54.92-54.91,69.62,69.62,0,1,0,0,139.23Z"/><path class="cls-25" d="M38.48,197.41a45.35,45.35,0,0,0-64.12,0,54.74,54.74,0,0,0-16.09,38.84h3.32A45.13,45.13,0,0,1-25.64,211a45.35,45.35,0,0,1,64.12,0,35.77,35.77,0,0,1,0,50.59A45.34,45.34,0,0,0,38.48,197.41Z"/><path class="cls-26" d="M61.84,214.43l-.39-.39a26.88,26.88,0,0,1-6.16-12.71c0-.07,0-.15,0-.23A45.15,45.15,0,0,0,52,197.42a54.73,54.73,0,0,0-38.84-16.09v3.32a45.13,45.13,0,0,1,25.3,12.77,45.33,45.33,0,0,1,0,64.12,35.76,35.76,0,0,1-49.25,1.27,45.33,45.33,0,0,0,74-46.82A20.76,20.76,0,0,1,61.84,214.43Z"/><path class="cls-27" d="M152.88,12.52a84,84,0,0,0,24.69,59.62l3.6-3.59a69.63,69.63,0,0,1,56-110.95,54.91,54.91,0,0,1,54.91,54.92,69.62,69.62,0,1,0-139.23,0Z"/><path class="cls-12" d="M292.12,12.53A54.92,54.92,0,1,1,237.2-42.39,54.92,54.92,0,0,1,292.12,12.53Z"/><path class="cls-28" d="M237.2-71.79a84,84,0,0,0-59.62,24.7l3.6,3.6a69.28,69.28,0,0,1,41.32-13.6,69.62,69.62,0,0,1,69.62,69.62A54.92,54.92,0,0,1,237.2,67.45,69.62,69.62,0,0,0,306.82-2.17,69.62,69.62,0,0,0,237.2-71.79Z"/><path class="cls-29" d="M320.72,10.7A84,84,0,0,0,296-48.92l-3.6,3.6A69.3,69.3,0,0,1,306-4,69.62,69.62,0,0,1,236.4,65.62,54.91,54.91,0,0,1,181.49,10.7a69.62,69.62,0,1,0,139.23,0Z"/><path class="cls-30" d="M237.19,96.84a84,84,0,0,0,59.62-24.69l-3.6-3.6a69.3,69.3,0,0,1-41.32,13.59,69.62,69.62,0,0,1-69.62-69.61,54.92,54.92,0,0,1,54.92-54.92,69.62,69.62,0,1,0,0,139.23Z"/><path class="cls-31" d="M262.49-26.3a45.33,45.33,0,0,0-64.12,0,54.7,54.7,0,0,0-16.09,38.83h3.32a45.34,45.34,0,0,1,76.89-25.29,35.76,35.76,0,0,1,0,50.58A45.33,45.33,0,0,0,262.49-26.3Z"/><path class="cls-32" d="M198.36-12.77a45.36,45.36,0,0,0,0,64.13A54.77,54.77,0,0,0,237.2,67.44V64.12a45.33,45.33,0,0,1-25.3-76.89,35.77,35.77,0,0,1,50.59,0A45.34,45.34,0,0,0,198.36-12.77Z"/><path class="cls-33" d="M211.9,51.36a45.33,45.33,0,0,0,64.12,0,54.72,54.72,0,0,0,16.09-38.83h-3.32A45.14,45.14,0,0,1,276,37.82a45.33,45.33,0,0,1-64.12,0,35.77,35.77,0,0,1,0-50.59A45.34,45.34,0,0,0,211.9,51.36Z"/><path class="cls-34" d="M82.4,55.27A60.26,60.26,0,0,0,125.15,73V69.33A49.63,49.63,0,0,1,97.31,55.27a49.9,49.9,0,0,1,0-70.59,39.36,39.36,0,0,1,55.68,0A49.91,49.91,0,0,0,82.4,55.27Z"/><path class="cls-12" d="M153-15.32a39.38,39.38,0,1,1-55.69,0A39.39,39.39,0,0,1,153-15.32Z"/><path class="cls-12" d="M150.8,12.53a25.65,25.65,0,1,1-25.65-25.65A25.64,25.64,0,0,1,150.8,12.53Z"/><path class="cls-35" d="M82.4-30.22A60.26,60.26,0,0,0,64.7,12.53h3.65A49.91,49.91,0,0,1,153-15.32a39.39,39.39,0,0,1,0,55.69A49.92,49.92,0,0,0,82.4-30.22Z"/><path class="cls-36" d="M167.9-30.22a60.29,60.29,0,0,0-42.75-17.71v3.65A49.75,49.75,0,0,1,153-30.22a49.92,49.92,0,0,1,0,70.59,39.38,39.38,0,0,1-55.69,0A49.91,49.91,0,1,0,167.9-30.22Z"/><path class="cls-37" d="M167.9,55.28a60.29,60.29,0,0,0,17.7-42.75H182a49.68,49.68,0,0,1-14,27.84,49.91,49.91,0,0,1-70.6,0,39.37,39.37,0,0,1,0-55.68A49.91,49.91,0,1,0,167.9,55.28Z"/><path class="cls-38" d="M118.29-20A32.51,32.51,0,0,0,85.78,12.53,39.24,39.24,0,0,0,97.31,40.37L99,38.69a32.51,32.51,0,0,1,26.16-51.81A25.65,25.65,0,0,1,150.8,12.53,32.52,32.52,0,0,0,118.29-20Z"/><path class="cls-39" d="M92.64,19.39A32.51,32.51,0,0,0,125.15,51.9,39.26,39.26,0,0,0,153,40.37l-1.68-1.68A32.51,32.51,0,0,1,99.5,12.53a25.65,25.65,0,0,1,25.65-25.65A32.5,32.5,0,0,0,92.64,19.39Z"/><path class="cls-40" d="M132,45a32.5,32.5,0,0,0,32.51-32.51A39.16,39.16,0,0,0,153-15.31l-1.68,1.68a32.51,32.51,0,0,1-26.16,51.81A25.65,25.65,0,0,1,99.5,12.53,32.51,32.51,0,0,0,132,45Z"/><path class="cls-41" d="M157.66,5.67a32.51,32.51,0,0,0-32.51-32.52A39.23,39.23,0,0,0,97.31-15.31L99-13.63A32.35,32.35,0,0,1,118.29-20,32.51,32.51,0,0,1,150.8,12.53a25.65,25.65,0,0,1-25.65,25.65A32.5,32.5,0,0,0,157.66,5.67Z"/><path class="cls-42" d="M115.34-11.17A25.62,25.62,0,0,0,101.46,2.71l1.43.59a21.18,21.18,0,0,1,37.69,2.83h0A16.68,16.68,0,0,1,137,24.33a16.51,16.51,0,0,1-5.41,3.61h0a21.17,21.17,0,0,0-16.21-39.12Z"/><path class="cls-43" d="M101.46,22.34a25.55,25.55,0,0,0,13.88,13.88l.59-1.43A21.17,21.17,0,0,1,118.76-2.9h0a16.7,16.7,0,0,1,21.81,9h0a21.17,21.17,0,0,0-39.12,16.21Z"/><path class="cls-44" d="M135,36.22a25.52,25.52,0,0,0,13.88-13.88l-1.43-.59a21,21,0,0,1-10,8.63,21.17,21.17,0,0,1-27.66-11.46h0a16.7,16.7,0,0,1,9-21.81h0A21.17,21.17,0,1,0,135,36.22Z"/><path class="cls-45" d="M148.85,2.72A25.58,25.58,0,0,0,135-11.16l-.6,1.43A21,21,0,0,1,143,.3,21.16,21.16,0,0,1,131.55,28h0a16.68,16.68,0,0,1-21.8-9h0a21.18,21.18,0,0,0,39.13-16.2Z"/><path class="cls-12" d="M137,.73a16.69,16.69,0,1,1-23.6,0A16.68,16.68,0,0,1,137,.73Z"/><path class="cls-46" d="M194.44,167.31A60.26,60.26,0,0,0,237.19,185v-3.65a49.91,49.91,0,0,1-27.84-84.65,39.38,39.38,0,0,1,55.69,0,49.92,49.92,0,1,0-70.6,70.59Z"/><path class="cls-12" d="M265,96.72a39.38,39.38,0,1,1-55.69,0A39.36,39.36,0,0,1,265,96.72Z"/><path class="cls-47" d="M194.45,81.81a60.26,60.26,0,0,0-17.71,42.75h3.65A49.91,49.91,0,0,1,265,96.72a39.36,39.36,0,0,1,0,55.68,49.91,49.91,0,0,0-70.59-70.59Z"/><path class="cls-48" d="M279.94,167.31a60.23,60.23,0,0,0,17.71-42.75H294a49.91,49.91,0,0,1-84.65,27.85,39.38,39.38,0,0,1,0-55.69,49.91,49.91,0,0,0,70.59,70.59Z"/><path class="cls-49" d="M229.77,92.14a32.52,32.52,0,0,0-32.51,32.51,39.29,39.29,0,0,0,11.53,27.85l1.69-1.68A32.51,32.51,0,0,1,236.64,99a25.64,25.64,0,0,1,25.64,25.64A32.51,32.51,0,0,0,229.77,92.14Z"/><path class="cls-50" d="M110.45,54.94a69.62,69.62,0,0,0-69.62,69.62,83.91,83.91,0,0,0,20.29,54.79l3-3.4c.41-.38.83-.74,1.25-1.08A69.59,69.59,0,0,1,125.15,69.64a54.92,54.92,0,0,1,54.92,54.92A69.62,69.62,0,0,0,110.45,54.94Z"/><path class="cls-12" d="M125.16,69.65a54.91,54.91,0,0,0-32.61,99.1,26.78,26.78,0,0,1,9.49.53,20.27,20.27,0,0,1,6.12.79,20.27,20.27,0,0,1,9.67,3.76,20.55,20.55,0,0,1,6,5.62c.43,0,.86,0,1.3,0a54.92,54.92,0,1,0,0-109.83Z"/><path class="cls-51" d="M150.45,149.86a35.77,35.77,0,1,1,0-50.59A35.76,35.76,0,0,1,150.45,149.86Z"/><path class="cls-52" d="M125.16,40.25A84,84,0,0,0,65.54,64.94l3.59,3.6a69.63,69.63,0,0,1,111,56,54.92,54.92,0,0,1-54.92,54.92,69.62,69.62,0,1,0,0-139.23Z"/><path class="cls-53" d="M87.56,169.65a17.56,17.56,0,0,1,3.3-.64c.56-.1,1.13-.19,1.69-.26a54.8,54.8,0,0,1-22.26-41.89,69.27,69.27,0,0,0,16.46,42.68C87,169.57,87.29,169.6,87.56,169.65Z"/><path class="cls-53" d="M184.77,65l-3.6,3.6a69.61,69.61,0,0,1-56,110.94c-.43,0-.86,0-1.28,0,.08.12.18.22.26.34a22.59,22.59,0,0,1,3.49,5.52c0,.11.07.22.11.33a20.05,20.05,0,0,1,1.49,4.57c.19.59.39,1.17.58,1.76v.11c.09.47.15.93.21,1.39a69.54,69.54,0,0,0,79.45-68.91A84,84,0,0,0,184.77,65Z"/><path class="cls-54" d="M73.49,170.88a20,20,0,0,1,8.46-1.6,20.67,20.67,0,0,1,2.93.11c.63,0,1.26.08,1.87.15a69.29,69.29,0,0,1-16.52-45,54.92,54.92,0,0,1,54.92-54.92A69.58,69.58,0,0,0,65.36,174.87,20.1,20.1,0,0,1,73.49,170.88Z"/><path class="cls-54" d="M181.17,180.58A69.36,69.36,0,0,1,130,193.47c.07.5.12,1,.16,1.49,0,.17,0,.35,0,.52s0,.06,0,.08a21.17,21.17,0,0,1,0,4.21,31.08,31.08,0,0,1-2.18,9,84,84,0,0,0,56.74-24.6Z"/><path class="cls-55" d="M150.45,85.73a45.34,45.34,0,0,0-64.13,0,54.75,54.75,0,0,0-16.08,38.83h3.31a45.34,45.34,0,0,1,76.9-25.29,35.77,35.77,0,0,1,0,50.59A45.34,45.34,0,0,0,150.45,85.73Z"/><path class="cls-56" d="M86.32,99.26a45.34,45.34,0,0,0,0,64.13,53.31,53.31,0,0,0,6.27,5.35,26.81,26.81,0,0,1,9.45.54,20.27,20.27,0,0,1,6.12.79l.25,0a44.87,44.87,0,0,1-8.55-6.71,45.33,45.33,0,0,1,0-64.12A35.76,35.76,0,0,1,149.11,98,45.34,45.34,0,0,0,86.32,99.26Z"/><path class="cls-56" d="M125.15,179.48v-3.32a45.89,45.89,0,0,1-5.76-1.26,20.3,20.3,0,0,1,4.47,4.55Z"/><path class="cls-53" d="M176.75,124.56a45.34,45.34,0,0,1-76.9,25.3,35.78,35.78,0,0,1,0-50.59,45.35,45.35,0,0,0,8.55,70.83,20.38,20.38,0,0,1,9.43,3.73c.55.34,1.08.71,1.59,1.09A45.32,45.32,0,0,0,164,163.39a54.73,54.73,0,0,0,16.08-38.83Z"/><path class="cls-57" d="M164,149.86a45.33,45.33,0,0,0,0-64.12,54.72,54.72,0,0,0-38.83-16.09V73a45.34,45.34,0,0,1,25.29,76.89,35.76,35.76,0,0,1-50.58,0A45.33,45.33,0,0,0,164,149.86Z"/><path class="cls-58" d="M138.84,91.52a35.65,35.65,0,0,0-27.37,0l.83,2a29.53,29.53,0,0,1,34.38,40h0a23.28,23.28,0,0,1-30.41,12.6h0a29.53,29.53,0,1,0,22.6-54.56Z"/><path class="cls-59" d="M92.11,110.87a35.68,35.68,0,0,0,0,27.38l2-.83a29.53,29.53,0,0,1,40-34.38v0a23.25,23.25,0,0,1,12.59,30.41h0a29.53,29.53,0,0,0-54.56-22.6Z"/><path class="cls-60" d="M107.71,159.8a35.65,35.65,0,0,0,27.37,0l-.82-2a29.53,29.53,0,0,1-34.38-40h0a23.28,23.28,0,0,1,30.41-12.6h0a29.53,29.53,0,0,0-22.6,54.56Z"/><path class="cls-53" d="M157.42,134.46a35.61,35.61,0,0,0,0-27.37l-2,.83a29.53,29.53,0,0,1-40,34.38v0a23.25,23.25,0,0,1-12.59-30.41h0a29.53,29.53,0,1,0,54.56,22.6Z"/><circle class="cls-12" cx="136.19" cy="116.58" r="23.28" transform="translate(-8.57 222.34) rotate(-76.72)"/><path class="cls-61" d="M-71.13,12.52a84,84,0,0,0,24.7,59.62l3.59-3.59A69.37,69.37,0,0,1-56.43,27.22,69.62,69.62,0,0,1,13.19-42.4,54.91,54.91,0,0,1,68.1,12.52,69.61,69.61,0,0,0-1.51-57.1,69.62,69.62,0,0,0-71.13,12.52Z"/><path class="cls-12" d="M68.11,12.53A54.92,54.92,0,1,1,13.19-42.39,54.92,54.92,0,0,1,68.11,12.53Z"/><path class="cls-12" d="M38.48,37.82a35.77,35.77,0,1,1,0-50.58A35.76,35.76,0,0,1,38.48,37.82Z"/><path class="cls-62" d="M13.19-71.79a84.06,84.06,0,0,0-59.62,24.7l3.6,3.6A69.3,69.3,0,0,1-1.51-57.09,69.62,69.62,0,0,1,68.11,12.53,54.92,54.92,0,0,1,13.19,67.45,69.62,69.62,0,0,0,82.81-2.17,69.62,69.62,0,0,0,13.19-71.79Z"/><path class="cls-63" d="M97.5,12.53A84,84,0,0,0,72.81-47.09l-3.6,3.6A69.3,69.3,0,0,1,82.8-2.17,69.62,69.62,0,0,1,13.19,67.45,54.92,54.92,0,0,1-41.73,12.53a69.62,69.62,0,1,0,139.23,0Z"/><path class="cls-64" d="M13.18,96.84A84,84,0,0,0,72.8,72.15l-3.6-3.6A69.27,69.27,0,0,1,27.88,82.14,69.62,69.62,0,0,1-41.74,12.53,54.92,54.92,0,0,1,13.18-42.39a69.62,69.62,0,1,0,0,139.23Z"/><path class="cls-65" d="M38.48-26.3a45.33,45.33,0,0,0-64.12,0A54.7,54.7,0,0,0-41.73,12.53h3.32A45.07,45.07,0,0,1-25.64-12.76a45.33,45.33,0,0,1,64.12,0,35.76,35.76,0,0,1,0,50.58A45.33,45.33,0,0,0,38.48-26.3Z"/><path class="cls-66" d="M-12.11,51.36a45.33,45.33,0,0,0,64.12,0A54.72,54.72,0,0,0,68.1,12.53H64.78A45.14,45.14,0,0,1,52,37.82a45.33,45.33,0,0,1-64.12,0,35.77,35.77,0,0,1,0-50.59A45.34,45.34,0,0,0-12.11,51.36Z"/><path class="cls-67" d="M52,37.83A45.34,45.34,0,0,0,52-26.3,54.76,54.76,0,0,0,13.19-42.39v3.32A45.14,45.14,0,0,1,38.48-26.3a45.33,45.33,0,0,1,0,64.12,35.77,35.77,0,0,1-50.59,0A45.35,45.35,0,0,0,52,37.83Z"/><path class="cls-68" d="M26.88-20.51a35.63,35.63,0,0,0-27.38,0l.83,2a29.4,29.4,0,0,1,18.4,1.38,29.53,29.53,0,0,1,16,38.58h0A23.29,23.29,0,0,1,13.19,35.81,23.1,23.1,0,0,1,4.29,34v0a29.53,29.53,0,1,0,22.6-54.56Z"/><path class="cls-69" d="M46.23,26.22a35.65,35.65,0,0,0,0-27.37l-2,.82a29.26,29.26,0,0,1-1.38,18.4,29.52,29.52,0,0,1-38.58,16h0A23.28,23.28,0,0,1-8.32,3.63h0a29.53,29.53,0,1,0,54.56,22.6Z"/><path class="cls-70" d="M-29.57,167.31A60.26,60.26,0,0,0,13.18,185v-3.65A49.91,49.91,0,0,1-14.66,96.72a39.38,39.38,0,0,1,55.69,0,49.92,49.92,0,1,0-70.6,70.59Z"/><path class="cls-12" d="M41,96.72a39.38,39.38,0,1,1-55.68,0A39.36,39.36,0,0,1,41,96.72Z"/><path class="cls-71" d="M-29.56,81.81a60.26,60.26,0,0,0-17.71,42.75h3.65A49.63,49.63,0,0,1-29.56,96.72a49.9,49.9,0,0,1,70.59,0,39.36,39.36,0,0,1,0,55.68A49.91,49.91,0,0,0-29.56,81.81Z"/><path class="cls-72" d="M55.94,81.82A60.26,60.26,0,0,0,13.19,64.11v3.65A49.66,49.66,0,0,1,41,81.82a49.9,49.9,0,0,1,0,70.59,39.38,39.38,0,0,1-55.69,0,49.92,49.92,0,0,0,70.6-70.59Z"/><path class="cls-73" d="M55.93,167.31a60.23,60.23,0,0,0,17.71-42.75H70a49.66,49.66,0,0,1-14.06,27.85,49.92,49.92,0,0,1-70.59,0,39.38,39.38,0,0,1,0-55.69,49.91,49.91,0,0,0,70.59,70.59Z"/><path class="cls-74" d="M-19.33,131.42a32.52,32.52,0,0,0,32.52,32.52A39.25,39.25,0,0,0,41,152.4l-1.68-1.68a32.51,32.51,0,0,1-51.81-26.16A25.65,25.65,0,0,1,13.19,98.91,32.52,32.52,0,0,0-19.33,131.42Z"/><path class="cls-75" d="M20.05,157.08a32.52,32.52,0,0,0,32.51-32.52A39.28,39.28,0,0,0,41,96.72L39.35,98.4a32.51,32.51,0,0,1-26.16,51.81,25.65,25.65,0,0,1-25.65-25.65A32.51,32.51,0,0,0,20.05,157.08Z"/><path class="cls-76" d="M45.7,117.7A32.52,32.52,0,0,0,13.19,85.19,39.29,39.29,0,0,0-14.66,96.72L-13,98.4a32.5,32.5,0,0,1,51.8,26.16,25.64,25.64,0,0,1-25.64,25.65A32.51,32.51,0,0,0,45.7,117.7Z"/></g></g><path class="cls-77" d="M87.16,129.89s9,28.32,20.25.55l-19.66-.55"/><path class="cls-77" d="M134.45,74.37c-.13-1.09,2.25,34.34-14.62,51.06C87.69,157.27,63.64,101,63.64,101L57.36,77.08S68.14,29,107,33.12,139.52,64.14,134.45,74.37Z"/><path class="cls-78" d="M62.73,88.4s-7.88-22.29-9.06-5.19C53.67,83.21,56.13,73.8,62.73,88.4Z"/><path class="cls-78" d="M62.79,88.46s-5.85-11.19-4.22,2.87C58.57,91.33,58.4,82.35,62.79,88.46Z"/><path class="cls-5" d="M59.26,39.83c2.21.6,51.73,16.34,64.54-12.95,0,0-17.18-5.42-19.33-5.89S57.34,39.3,59.26,39.83Z"/><polygon class="cls-5" points="107.41 34.78 99.18 58.95 57.36 65.24 71.82 36.93 107.41 34.78"/><path class="cls-5" d="M104.47,41.09,109,59l34.14,6.29-.71-11.5s-5.87-14-6.54-14.17-12-7.32-13.2-6.7S104.47,41.09,104.47,41.09Z"/><path class="cls-78" d="M87.88,131.85s8.68,5.26,17.77,2.53c0,0-9,4.8-16.74-.17Z"/><path class="cls-12" d="M129,78.07s-1.29,10.54-15.46,4.07c0,0,7.62-6.78,15.5-4.22"/><g class="cls-79"><path class="cls-80" d="M116.26,77.34a3.69,3.69,0,1,0,4.3,2.85A3.66,3.66,0,0,0,116.26,77.34Z"/><path class="cls-81" d="M116.65,79.16a1.81,1.81,0,1,0,2.1,1.4A1.79,1.79,0,0,0,116.65,79.16Z"/><path class="cls-12" d="M118.7,80.29A.72.72,0,0,0,119,81.7a.72.72,0,0,0-.32-1.41Z"/></g><path class="cls-81" d="M113.58,82.1c.13-.09-.1.12,0,0a18.46,18.46,0,0,1,1.54-1.81,13.39,13.39,0,0,1,7-2.82c1.19-.16,2.39-.25,3.59-.31,1.54-.08,3.09,0,4.63-.12a11.78,11.78,0,0,0,4-1.05A7.83,7.83,0,0,0,136,75a3.21,3.21,0,0,0,.9-1.26s0,3.32-5.64,4.84a8.68,8.68,0,0,0,4.45-.72,9.16,9.16,0,0,1-3.88,1.81,6.77,6.77,0,0,0-2.33,1c-.84.67-1.34,1.48-2.24,2.13a7.64,7.64,0,0,1-3,1.3,10.62,10.62,0,0,1-2,.23c-.52,0-1,0-1.54,0s-.84-.14-1.24-.15c0,0,7.27.16,8.49-5.41C128,78.67,122,76.62,113.58,82.1Z"/><path class="cls-82" d="M128.49,79.43s-6.07-2.4-14.93,2.71l3.16-2.2,4.51-2,4.42-.72,1.9.47Z"/><path class="cls-12" d="M79.26,78.49S84.61,88,98.63,81c0,0-9.2-6.11-19.44-2.65"/><path class="cls-80" d="M80.81,81.92a19,19,0,0,1,3.35,1.16,7.36,7.36,0,0,1,2.87.41,5.93,5.93,0,0,0,3.13-5.79,20.43,20.43,0,0,1-2.08-.53,59.71,59.71,0,0,1-8.08.54,1.6,1.6,0,0,1-.39,0,6.23,6.23,0,0,0,.06,1.55A6.06,6.06,0,0,0,80.81,81.92Z"/><path class="cls-81" d="M87.35,77.25a2.47,2.47,0,0,1,.11.47,2.83,2.83,0,0,1-2.1,3.3,2.63,2.63,0,0,1-3-2.31,3.55,3.55,0,0,1,0-1C84,77.61,85.69,77.44,87.35,77.25Z"/><path class="cls-12" d="M88.05,79.64A1.13,1.13,0,0,1,87.21,81,1.05,1.05,0,0,1,86,80a1.14,1.14,0,0,1,.85-1.32A1,1,0,0,1,88.05,79.64Z"/><path class="cls-81" d="M98.67,81.15c-.17-.08,0-.16-.44-.53a11.85,11.85,0,0,0-1.72-1.11,20,20,0,0,0-8.83-2.37c-1.47-.09-3-.11-4.44-.11-1.9,0-3.8.16-5.71.13a17.9,17.9,0,0,1-5.08-.8,11,11,0,0,1-2.13-.9,3.43,3.43,0,0,1-1.21-1.18s.28,3.22,7.36,4.4a13.61,13.61,0,0,1-5.54-.46,13.54,13.54,0,0,0,4.95,1.55,10.05,10.05,0,0,1,3,.83c1.08.61,1.78,1.36,2.94,2a11.32,11.32,0,0,0,3.76,1.1,16.44,16.44,0,0,0,2.54.12c.63,0,1.27-.07,1.9-.14s1-.18,1.51-.21c0,0-9,.55-10.94-4.8C80.54,78.62,87.83,76.28,98.67,81.15Z"/><path class="cls-82" d="M79.54,79.52a40.57,40.57,0,0,1,19.13,1.63l-2-1.19-3.81-1.64-4.72-.75-4.71-.45s-1.65.11-1.75.14-2.37.4-2.37.4Z"/><path class="cls-5" d="M72.17,71.42S87.43,59.15,100,76C100,76,88.78,65.88,72.17,71.42Z"/><path class="cls-5" d="M112.83,77.92s8.64-15.34,24.72-5.49A26.12,26.12,0,0,0,112.83,77.92Z"/><path class="cls-5" d="M60.54,62.28s7.95,46.31,2.25,61.71l-9.12-18.46L49.73,67.66l7.63-7.47Z"/><path class="cls-83" d="M102.7,98.36s13.88,6,14.72-.41c1.09-8.28-12.06-1.27-12.06-1.27l-1.42-14.93L102.7,98.36Z"/><path class="cls-84" d="M104.81,97.44l-1-13.83.14-1.86,1.42,14.93s12.16-6.62,12.13.46C115.66,94.14,111.32,93.76,104.81,97.44Z"/><path class="cls-77" d="M64.8,103.48s5.9,29.66,28.63,30.68l-2.19-7.29L84,120.48Z"/><path class="cls-85" d="M117.15,117s-30.78,8.08-36.46-17.13"/><path class="cls-85" d="M85.92,101.21s-6-5-9.08,2"/><path class="cls-4" d="M76.73,165.76a70.17,70.17,0,0,0,47.07-.19"/></g></g></svg>