<?xml version="1.0" standalone="no"?><!DOCTYPE svg PUBLIC "-//W3C//DTD SVG 1.1//EN" "http://www.w3.org/Graphics/SVG/1.1/DTD/svg11.dtd"><svg width="100%" height="100%" viewBox="0 0 32 30" version="1.1" xmlns="http://www.w3.org/2000/svg" xmlns:xlink="http://www.w3.org/1999/xlink" xml:space="preserve" style="fill-rule:evenodd;clip-rule:evenodd;stroke-linejoin:round;stroke-miterlimit:1.41421;"><g><g><path d="M11.071,20.293c-0.423,0.207 -1.02,0.312 -1.784,0.312l-4.277,0l0,-4.697l4.337,0c0.757,0.008 1.341,0.107 1.761,0.298c0.747,0.343 1.121,0.972 1.121,1.89c0,1.082 -0.384,1.813 -1.158,2.197M5.01,9.109l3.832,0c0.845,0 1.539,0.091 2.082,0.273c0.632,0.265 0.946,0.806 0.946,1.628c0,0.739 -0.238,1.255 -0.715,1.545c-0.477,0.292 -1.099,0.44 -1.862,0.44l-4.283,0l0,-3.886ZM13.224,14.21c0.592,-0.302 1.041,-0.637 1.346,-1.002c0.542,-0.655 0.813,-1.519 0.813,-2.594c0,-1.043 -0.271,-1.939 -0.806,-2.687c-0.897,-1.221 -2.42,-1.847 -4.566,-1.878l-8.511,0l0,17.613l7.935,0c0.895,0 1.723,-0.077 2.489,-0.238c0.766,-0.159 1.426,-0.453 1.988,-0.884c0.501,-0.374 0.917,-0.837 1.25,-1.386c0.522,-0.827 0.784,-1.765 0.784,-2.808c0,-1.013 -0.231,-1.874 -0.685,-2.582c-0.458,-0.71 -1.138,-1.225 -2.037,-1.554" style="fill:#888;fill-rule:nonzero;"/><path d="M20.593,15.86c0.123,-0.847 0.426,-1.519 0.907,-2.015c0.481,-0.497 1.16,-0.745 2.034,-0.745c0.802,0 1.474,0.234 2.019,0.702c0.544,0.47 0.848,1.154 0.908,2.058l-5.868,0ZM29.885,15.521c-0.157,-1.02 -0.506,-1.919 -1.04,-2.693c-0.589,-0.876 -1.341,-1.517 -2.252,-1.926c-0.907,-0.407 -1.927,-0.61 -3.061,-0.61c-1.911,0 -3.462,0.604 -4.658,1.805c-1.195,1.204 -1.795,2.936 -1.795,5.193c0,2.407 0.663,4.146 1.988,5.213c1.326,1.07 2.854,1.601 4.588,1.601c2.101,0 3.733,-0.632 4.9,-1.896c0.75,-0.798 1.173,-1.585 1.264,-2.357l-3.478,0c-0.202,0.382 -0.438,0.682 -0.701,0.897c-0.486,0.398 -1.117,0.598 -1.89,0.598c-0.733,0 -1.36,-0.165 -1.879,-0.49c-0.856,-0.525 -1.308,-1.442 -1.362,-2.75l9.487,0c0.018,-1.124 -0.02,-1.986 -0.111,-2.585" style="fill:#888;fill-rule:nonzero;"/><rect x="19.711" y="6.87" width="7.548" height="2.192" style="fill:#888;fill-rule:nonzero;"/></g></g></svg>