
<svg version="1.1" xmlns="http://www.w3.org/2000/svg" xmlns:xlink="http://www.w3.org/1999/xlink" x="0px" y="0px" viewBox="0 0 1200 1100" enable-background="new 0 0 1200 1100" xml:space="preserve">
  <g>
    <path fill="#e93e32" stroke-width="45" stroke="#e93e32"  stroke-linecap="round" d="M853.5,990c-7.5,0-14.9-2.5-21-7.4L502,717.4L167.3,982.7c-10.1,8-23.9,9.5-35.5,3.9c-11.6-5.6-19-17.3-19-30.2V43.6c0-18.5,15-33.6,33.6-33.6h707c18.5,0,33.6,15,33.6,33.6v912.9c0,12.9-7.4,24.7-19,30.3C863.4,988.9,858.5,990,853.5,990z M180,77.1V887l301.2-238.8c12.3-9.7,29.6-9.7,41.9,0.1L820,886.5V77.1H180z"/>
  </g>
</svg>