<svg xmlns="http://www.w3.org/2000/svg" viewBox="0 0 256 256"><defs><style>.cls-2{fill:#777;}.cls-3{fill:#aaa;}</style></defs><title>Booking</title><g class="cls-1"><path class="cls-2" d="M108.82,108.94a3,3,0,1,1-2.16,3.34,3,3,0,0,1,2.16-3.34Z"/><path class="cls-2" d="M88.89,109.63c1,0,2,0,2.94,0a2.44,2.44,0,0,1,1.78.63,2.84,2.84,0,0,1,.57,2c0,3.46,0,6.92,0,10.39.7,0,1.65.14,2.08-.58,1.2-1.83,2.38-3.68,3.58-5.52h5.95c-1.58,2.37-3.18,4.72-4.76,7.08a9.32,9.32,0,0,1-1,1.25,10.32,10.32,0,0,1,1.59,2.54c1.25,2.51,2.8,4.86,4.23,7.28-1.57,0-3.15,0-4.72,0a2.61,2.61,0,0,1-2.24-1.35c-1.06-1.88-2-3.82-3.06-5.71-.32-.58-1.09-.39-1.63-.46,0,2.52,0,5,0,7.55H88.89q0-12.54,0-25.08Z"/><path class="cls-2" d="M120.53,118.59a7.58,7.58,0,0,1,10-1,6.64,6.64,0,0,1,2,4.66c.07,4.15-.06,8.3.07,12.45-1,0-2.06.05-3.09,0a2.27,2.27,0,0,1-1.83-1,5.27,5.27,0,0,1-.36-2.6c0-2.47,0-4.94,0-7.41,0-.94-.26-2.13-1.28-2.46a4.18,4.18,0,0,0-3.93,1.05,5.51,5.51,0,0,0-1.47,3.8q0,4.34,0,8.69h-5.24V116.56c1.27.07,2.59-.2,3.81.26a2.37,2.37,0,0,1,1.31,1.77Z"/><path class="cls-3" d="M163.59,119a10.52,10.52,0,0,1,10-2.45,5.66,5.66,0,0,1,3.47,2.22c.74,1.22.35,2.71.45,4.05-1,0-2.07,0-3.11,0a1.85,1.85,0,0,1-1.44-1.36c-.16-.49-.71-.66-1.15-.8a4.69,4.69,0,0,0-5,2,5.77,5.77,0,0,0-.34,5.32,4.87,4.87,0,0,0,4.32,2.66,7.33,7.33,0,0,0,5.52-2.56c.72,1.21,1.46,2.41,2.17,3.62a10.57,10.57,0,0,1-14.64.89,9.68,9.68,0,0,1-.27-13.56Z"/><path class="cls-3" d="M204.6,118.83a7,7,0,0,1,4.29-2.55,6,6,0,0,1,4.79,1.2A7.32,7.32,0,0,1,215,119.3a7.27,7.27,0,0,1,5.24-3.06,6,6,0,0,1,5.22,1.75,8.11,8.11,0,0,1,1.49,5.23c0,3.83,0,7.66,0,11.48-1.3-.09-2.69.22-3.93-.32a2.61,2.61,0,0,1-1.1-2.57c0-2.79,0-5.59,0-8.38-.05-.87-.17-2-1.08-2.41a3.21,3.21,0,0,0-3.38.85,6.59,6.59,0,0,0-1.68,4.35c0,2.82,0,5.64,0,8.46-1.68,0-3.36,0-5,0q0-5.34,0-10.68a3.89,3.89,0,0,0-.71-2.56,2.34,2.34,0,0,0-2.49-.47,4.38,4.38,0,0,0-2.36,2.58,10.41,10.41,0,0,0-.63,4.05q0,3.54,0,7.08h-4.93q0-9,0-18.1c1.28.06,2.68-.23,3.87.41a2.63,2.63,0,0,1,1.06,1.81Z"/><path class="cls-2" d="M107.23,116.56a14.44,14.44,0,0,1,3.85.23,2.32,2.32,0,0,1,1.38,2.26c0,5.22,0,10.44,0,15.66h-5.19c0-6.05,0-12.1-.05-18.15Z"/><path class="cls-2" d="M55.21,116.39a10.13,10.13,0,0,1,8.6,2.16A9.79,9.79,0,0,1,64.46,132c-3.63,4-10.82,4-14.4-.07-3.45-3.88-3-10.7,1.29-13.82a9.33,9.33,0,0,1,3.85-1.69Zm.83,4.42A4.19,4.19,0,0,0,53.5,123c-1.12,2.32-.69,5.64,1.66,7a4.31,4.31,0,0,0,5.65-1.27,5.87,5.87,0,0,0-.33-6.67A4.32,4.32,0,0,0,56,120.81Z"/><path class="cls-2" d="M75.39,116.41a10.36,10.36,0,0,1,7.74,1.39,8.85,8.85,0,0,1,3.72,5.45,9.85,9.85,0,0,1-2,8.57,10,10,0,0,1-14.41.2,9.82,9.82,0,0,1,.25-13.15,9.21,9.21,0,0,1,4.66-2.47Zm1,4.38a4.34,4.34,0,0,0-3,3.22c-.53,2.11,0,4.72,2,5.93a4.37,4.37,0,0,0,5.13-.49A5.3,5.3,0,0,0,82,125.26a5,5,0,0,0-1.79-3.77,4.37,4.37,0,0,0-3.81-.7Z"/><path class="cls-3" d="M186.44,116.36a10.07,10.07,0,0,1,8.53,2.26,9.8,9.8,0,0,1,.55,13.38,10,10,0,0,1-14.31,0,9.82,9.82,0,0,1,.45-13.24,9.21,9.21,0,0,1,4.78-2.37Zm.81,4.4a4.17,4.17,0,0,0-2.63,2.12,5.73,5.73,0,0,0,.91,6.57,4.32,4.32,0,0,0,5.9-.16,5.31,5.31,0,0,0,1.33-3.87,4.94,4.94,0,0,0-1.94-4,4.4,4.4,0,0,0-3.56-.61Z"/><path class="cls-2" d="M139.17,116.74a8.09,8.09,0,0,1,8.24,1.1A2.23,2.23,0,0,1,149,116.6a23.48,23.48,0,0,1,3.16-.09q0,8.35,0,16.69a8.22,8.22,0,0,1-2,5.63,10.14,10.14,0,0,1-7.2,2.9,14.17,14.17,0,0,1-7.06-1.73,31.07,31.07,0,0,1,1.25-3,1.33,1.33,0,0,1,1.41-.66c.87.16,1.69.52,2.57.64a6.14,6.14,0,0,0,4.61-.78,3.74,3.74,0,0,0,1.22-3.25,7.32,7.32,0,0,1-6,1.25,7.63,7.63,0,0,1-5-3.46,11.12,11.12,0,0,1-1.23-8.09,7.94,7.94,0,0,1,4.59-5.88Zm2.6,4.24a3.54,3.54,0,0,0-2,2.84,6,6,0,0,0,.9,4.63,3.55,3.55,0,0,0,5.48.06,6.47,6.47,0,0,0,.8-4.25,3.7,3.7,0,0,0-1.75-3.13,4.46,4.46,0,0,0-3.41-.15Z"/><path class="cls-2" d="M29,112.27a2.6,2.6,0,0,1,2.59-2.64H38a8.18,8.18,0,0,1,5.8,2.22,6.45,6.45,0,0,1-.21,8.81c-.28.26-.57.5-.86.74a6.26,6.26,0,0,1,2.94,2.73,7.35,7.35,0,0,1-.43,7.16c-1.53,2.28-4.38,3.24-7,3.3H29q0-11.17,0-22.34Zm5.31,1.89a2,2,0,0,0-.47,1.5c0,1.35,0,2.69,0,4,1.31,0,2.62,0,3.94,0a2.65,2.65,0,0,0,2.06-1,3.28,3.28,0,0,0-.46-4.42c-.93-.68-2.13-.49-3.2-.52-.63,0-1.37-.08-1.86.4Zm.14,9.71a1.77,1.77,0,0,0-.62,1.54c0,1.64,0,3.27,0,4.9,1.51,0,3,0,4.53,0a3,3,0,0,0,2.57-1.5,3.75,3.75,0,0,0-.66-4.47c-1-.86-2.45-.75-3.7-.76a4.07,4.07,0,0,0-2.12.29Z"/><path class="cls-3" d="M156.34,128.94a3,3,0,1,1-2.22,3.29,3.05,3.05,0,0,1,2.22-3.29Z"/></g></svg>