<svg xmlns="http://www.w3.org/2000/svg" viewBox="0 0 372.95 357.43"><defs><style>.cls-1{isolation:isolate;}.cls-2,.cls-3{fill:#27aae1;}.cls-2{opacity:0.2;}.cls-4{fill:#fff;}.cls-5{fill:#e83f32;}.cls-6{fill:#0c1b23;}.cls-7{fill:#c9cbca;}.cls-8{fill:#18181b;opacity:0.1;mix-blend-mode:multiply;}.cls-9{fill:#1b75bc;}</style></defs><title>smaArtboard 85 copy 24</title><g class="cls-1"><g id="Layer_1" data-name="Layer 1"><ellipse class="cls-2" cx="186.5" cy="178.6" rx="152.36" ry="152.45"/><ellipse class="cls-3" cx="186.5" cy="178.6" rx="105.22" ry="105.28"/><path class="cls-4" d="M126.45,267.18s54.44,33,107.47,5.42c-11.41-16.83-71-111.69-81-127.85-4.11-6.65-8.6-14.32-8.14-22.43a13.92,13.92,0,0,1,9.13-12.37c4.59-1.87,8.41.44,12.9,1.47,3.4.77,6.77,1.61,10.18,2.32,10.43,2.17,21.53,1.59,21.77-11.72a26.62,26.62,0,0,0-5.46-16.48c-4.36-5.61-10.51-10.26-17.93-8.94-7.25,1.29-13.8,6.34-19.84,10.28-2.44,1.6-15.52,13.48-18.79,8.15-3.63-5.91.6-13.37,4.17-18.06,4.6-6,10.5-4.87,17.11-6.62a51.19,51.19,0,0,0,11.28-4.2c12.34-6.69,10.89-18.69,2-27.92a22.62,22.62,0,0,0-25.36-5.28c-10.46,4.58-16.79,15-22.63,24.27-4.77,7.58-8.15,15.92-12.79,23.55-2.46,4-5.61-4.21-6.1-5.73-1.46-4.55-2.55-10.39-.49-14.9,1.41-3.08,5.36-5.61,7.63-8.07a36.4,36.4,0,0,0,7-10.17c5.09-11.94-1.18-24.78-13-29.42A27,27,0,0,0,87.56,12c-10.18,3.19-17.83,9.24-19.77,20.13s.67,21.85,3,32.36c1.22,5.52,3,10.9,4.34,16.38,1.45,5.74,4.19,19.48-3,22.4-9.92,4-17.87-10.47-17.27-18.48C56,70,63.34,57.5,58.44,42.43c-5-15.33-20.05-15.8-33.3-11.92A30.18,30.18,0,0,0,10.87,40.59C5,48.8,7,60.61,9.12,69.77c2.51,10.7,7.44,20.25,12.71,29.8,10.49,19,22.32,38.38,37.68,53.92,1.17,1.18,4.74,3.83,4.46,5.82-.51,3.74-7.25,1.26-8.82.55-9.09-4.16-22-13.33-30.73-3-6.81,8-5.06,21.4-3.26,30.88,1.73,9.22,6.79,18.59,16,21.93,9.37,3.4,19.34.51,28.33-2.66,1.79-.63,28.08-12.16,27.24-14.11,0,.07,23.29,49.92,33.74,74.26"/><path class="cls-5" d="M126.45,267.18C115.92,242.64,92.71,193.07,92.68,193c.84,2-25.51,13.51-27.3,14.14-9,3.18-19,6.08-28.39,2.67-9.21-3.35-14.27-12.74-16-22-.2-1-.38-2-.55-3.11C45.6,211.49,95.12,181,95.12,181l60,98.1Z"/><path class="cls-5" d="M60.73,154.72c-.53-.48-1-.9-1.32-1.21-15.39-15.57-27.25-35-37.76-54C16.38,89.91,11.43,80.34,8.92,69.62c-2.15-9.18-4.14-21,1.76-29.24A30.25,30.25,0,0,1,25,30.28l.5-.14C22.56,41.59,15,88.14,60.73,154.72Z"/><path class="cls-5" d="M78.75,81.56s5.45,31.08-9.8,22.26a9.1,9.1,0,0,0,3.11-.68c7.19-2.93,4.44-16.7,3-22.45C73.66,75.2,71.92,69.8,70.7,64.27c-2.32-10.52-4.92-21.62-3-32.42s9.61-17,19.81-20.17a27.08,27.08,0,0,1,17.9.52,24.75,24.75,0,0,1,4.44,2.29C94.89,16.17,63,26.08,78.75,81.56Z"/><path class="cls-5" d="M112.77,76.59c3.54-6.48,6.55-13.27,10.5-19.55,5.85-9.3,12.19-19.73,22.67-24.32a22.52,22.52,0,0,1,23.57,3.59C159.91,37.23,133,42.89,112.77,76.59Z"/><path class="cls-5" d="M175.48,76.45c7.43-1.32,13.59,3.34,18,9a25.7,25.7,0,0,1,3.41,5.91A57.46,57.46,0,0,0,145.66,94h0c4.27-2.54,8.63-6.34,9.94-7.19C161.65,82.81,168.21,77.75,175.48,76.45Z"/><path class="cls-6" d="M75.73,156.79c6.05,12.17,25.2,15,42.77,6.22s26.9-25.7,20.85-37.87c-3.33-6.7-10.63-10.56-19.45-11.21a45.57,45.57,0,0,0-23.31,5c-8.75,4.35-15.45,10.73-19.23,17.54S72.69,150.67,75.73,156.79Z"/><ellipse class="cls-6" cx="171.61" cy="98.92" rx="9.65" ry="12.72" transform="translate(54.41 258.6) rotate(-83.68)"/><path class="cls-6" d="M142.71,62.58c2.45,4.73,9.5,5.94,15.74,2.7s9.3-9.7,6.85-14.43-9.5-5.94-15.75-2.7S140.25,57.85,142.71,62.58Z"/><path class="cls-6" d="M90.24,54.06c5.39,2.32,12.24-1.56,15.3-8.67s1.17-14.76-4.22-17.08S89.08,29.87,86,37,84.85,51.74,90.24,54.06Z"/><path class="cls-6" d="M38,71.81c5.26.87,10.45-4.06,11.59-11s-2.19-13.26-7.46-14.13-10.45,4.05-11.58,11S32.73,70.94,38,71.81Z"/><path class="cls-6" d="M23.88,172.8s-20-11.93-3-36.85c0,0,.46,16.85,13.19,21.91C34.1,157.85,37.52,168.29,23.88,172.8Z"/><path class="cls-6" d="M29.56,35.29s-3-23.11,27.08-25.6c0,0-12.78,11-8.68,24.05C48,33.74,41.67,43.06,29.56,35.29Z"/><path class="cls-6" d="M105.06,19.18s17.71-15.13,36.23,8.7c0,0-16.18-4.71-24.88,5.87C116.41,33.75,105.17,33.56,105.06,19.18Z"/><path class="cls-6" d="M168.68,39.72s17.42-7,25.42,16c0,0-11.14-7.77-20.5-1.93C173.6,53.77,165.06,50.73,168.68,39.72Z"/><path class="cls-6" d="M191.8,94.29s18.75-.81,18.71,23.51c0,0-7.94-11-18.71-8.62C191.79,109.18,184.74,103.49,191.8,94.29Z"/><path class="cls-7" d="M34,154.64s5.62,16.79-12.44,18.68C21.56,173.32,36.14,168.77,34,154.64Z"/><path class="cls-7" d="M50.36,31.84S40.17,47.17,27.11,33.54C27.11,33.54,40.14,42.61,50.36,31.84Z"/><path class="cls-7" d="M119.33,34.36s-18.39-.44-13.84-18.77C105.49,15.6,104.77,31.46,119.33,34.36Z"/><path class="cls-7" d="M176.53,56.12s-15.08-5-6.7-19C169.83,37.12,165.24,50.05,176.53,56.12Z"/><path class="cls-7" d="M193.6,111.38s-12.51-9.8.08-20.16C193.68,91.22,185,101.86,193.6,111.38Z"/><ellipse class="cls-8" cx="297.75" cy="340.82" rx="69.87" ry="9.61"/><polygon class="cls-4" points="230.88 256.1 330.39 198.72 329.8 197.65 227.88 250.61 230.88 256.1"/><path class="cls-4" d="M351,148.27a42.85,42.85,0,0,0-.52-12.74c0-.11,0-.22-.06-.34-.57-3.08-1.36-6-1.9-8a5.59,5.59,0,0,0-10-1.59,5.59,5.59,0,0,0-6.24,3.4,5.59,5.59,0,0,0,3.08,7.28,19.84,19.84,0,0,1,4.37,2.47,29.56,29.56,0,0,1,.22,8.1c-.06.52-.14,1-.24,1.56a23,23,0,0,1-3.26,8.25,15.15,15.15,0,0,1-5.31,5.13,10.18,10.18,0,0,1-9.25.18c-5.91-2.48-11.27-8-16.46-13.25a108.22,108.22,0,0,0-11.23-10.42,34.63,34.63,0,0,0-14.27-6.87,30.94,30.94,0,0,0-17,1.24,36.92,36.92,0,0,0-13.6,9,54.46,54.46,0,0,0-9.64,13.71,69,69,0,0,0-5.73,16.19c-.49,2.2-.87,4.43-1.13,6.62a53.32,53.32,0,0,0,2,23.65,31.84,31.84,0,0,0,8,12.8,27.61,27.61,0,0,0,12.78,6.88,5.6,5.6,0,0,0,6.75-4.13,5.65,5.65,0,0,0,.12-.64h0a5.59,5.59,0,0,0-4.24-6.11,16.53,16.53,0,0,1-7.94-4.37,21,21,0,0,1-4.86-8.11,42.09,42.09,0,0,1-1.51-18.61c.22-1.84.54-3.71,1-5.57,2.14-9.7,6.67-18.62,12.43-24.48a26.58,26.58,0,0,1,8.43-5.94,19.9,19.9,0,0,1,12-1.2C285,143.88,291,150,297.4,156.57c6,6.09,12.13,12.39,20.12,15.74a21.26,21.26,0,0,0,18.87-.65,26.31,26.31,0,0,0,9.44-9,34.35,34.35,0,0,0,4.81-12.19C350.78,149.76,350.89,149,351,148.27Z"/><path class="cls-4" d="M170,223.22a17.52,17.52,0,0,1-.48-5.19s0-.09,0-.14c.06-1.28.22-2.52.34-3.33a2.29,2.29,0,0,1,4-1.19,2.29,2.29,0,0,1,2.71,1,2.29,2.29,0,0,1-.85,3.12,8.12,8.12,0,0,0-1.64,1.24,12.08,12.08,0,0,0,.35,3.29c.05.21.12.42.18.62a9.39,9.39,0,0,0,1.77,3.17,6.19,6.19,0,0,0,2.43,1.79,4.16,4.16,0,0,0,3.76-.43c2.26-1.33,4.14-3.84,6-6.26a44.26,44.26,0,0,1,4-4.83,14.16,14.16,0,0,1,5.41-3.56,12.65,12.65,0,0,1,6.95-.42,15.09,15.09,0,0,1,6,2.92,22.26,22.26,0,0,1,4.65,5,28.22,28.22,0,0,1,3.2,6.25c.32.86.59,1.75.82,2.62a21.8,21.8,0,0,1,.46,9.69,13,13,0,0,1-2.53,5.62,11.29,11.29,0,0,1-4.81,3.48,2.29,2.29,0,0,1-3-1.31,2.31,2.31,0,0,1-.08-.25h0a2.29,2.29,0,0,1,1.39-2.71,6.76,6.76,0,0,0,3-2.2,8.6,8.6,0,0,0,1.53-3.55,17.21,17.21,0,0,0-.4-7.62c-.19-.73-.42-1.48-.69-2.21a21,21,0,0,0-6.36-9.24,10.87,10.87,0,0,0-3.74-1.95,8.14,8.14,0,0,0-4.91.16c-2.87,1-5,3.82-7.22,6.81-2.09,2.79-4.24,5.68-7.3,7.47a8.69,8.69,0,0,1-7.68.76,10.75,10.75,0,0,1-4.31-3.13,14,14,0,0,1-2.61-4.68C170.13,223.82,170,223.52,170,223.22Z"/><path class="cls-4" d="M260.16,349.81a76.08,76.08,0,1,1,84.62-66.38A76.07,76.07,0,0,1,260.16,349.81Z"/><path class="cls-9" d="M260.84,344.18a70.41,70.41,0,1,1,78.32-61.44A70.4,70.4,0,0,1,260.84,344.18Z"/><path class="cls-4" d="M286.66,355.6a1.61,1.61,0,0,0,0-.25c-.55-14.28-4-30.77-10.35-49A360.78,360.78,0,0,0,256,259.67a481.61,481.61,0,0,0-28.84-48.76,1.59,1.59,0,1,0-2.62,1.82,478.28,478.28,0,0,1,28.64,48.43,357.48,357.48,0,0,1,20.16,46.23c6.21,17.94,9.63,34.11,10.17,48.07a1.59,1.59,0,0,0,3.18.13Z"/><path class="cls-4" d="M300.86,349a1.61,1.61,0,0,0,0-.19c.05-13.46-3.48-29.23-10.51-46.85a304.63,304.63,0,0,0-23.21-45.32,454.79,454.79,0,0,0-33.79-47.93,1.59,1.59,0,1,0-2.45,2,451.45,451.45,0,0,1,33.54,47.59,301.35,301.35,0,0,1,23,44.82c6.87,17.23,10.32,32.59,10.27,45.63a1.59,1.59,0,0,0,3.18.2Z"/><path class="cls-9" d="M256.37,218.3c-8.77-2.12-15.12-8.18-18.36-17.53-2.79-8-3.08-18.15-.8-28.44a65.69,65.69,0,0,1,5.45-15.4,51.12,51.12,0,0,1,9-12.88,33.61,33.61,0,0,1,12.36-8.22,27.64,27.64,0,0,1,15.16-1.1C288.87,136.67,296,144,303,151.08c5.42,5.53,11,11.26,17.56,14a13.5,13.5,0,0,0,12.13-.32c5-2.7,9-8.72,10.27-15.72a32.7,32.7,0,0,0-.13-11.85c-1.1-1.45-4.23-3.17-6.24-4a2.24,2.24,0,0,1,1.68-4.16,31.76,31.76,0,0,1,3,1.46l-.32-1.17a2.24,2.24,0,1,1,4.32-1.21c.7,2.51,1.36,5.09,1.84,7.72,0,.07,0,.14,0,.21a39.75,39.75,0,0,1,.5,11.82q-.12,1-.31,2a31,31,0,0,1-4.34,11,23,23,0,0,1-8.22,7.85,18,18,0,0,1-16,.51c-7.37-3.09-13.29-9.14-19-15-6.76-6.91-13.15-13.43-21.45-15.1-10.7-2.15-18.65,3.2-23.44,8.07-6.18,6.29-11,15.81-13.31,26.1-2.1,9.49-1.86,18.73.66,26a24.34,24.34,0,0,0,5.66,9.38,19.83,19.83,0,0,0,9.52,5.25,2.24,2.24,0,0,1-1.05,4.36Z"/><path class="cls-9" d="M212.1,246.47a10.39,10.39,0,0,0,6.49-8.1,21.85,21.85,0,0,0-1.22-11.57,26.85,26.85,0,0,0-3-5.95,20.9,20.9,0,0,0-4.36-4.73,13.74,13.74,0,0,0-5.46-2.66,11.3,11.3,0,0,0-6.2.38c-3.8,1.31-6.32,4.67-8.75,7.92-1.9,2.54-3.86,5.16-6.36,6.62a5.52,5.52,0,0,1-4.93.53,9.21,9.21,0,0,1-5-5.81,13.37,13.37,0,0,1-.59-4.81,7.4,7.4,0,0,1,2.31-2,.92.92,0,0,0-.91-1.59,13,13,0,0,0-1.15.76L173,215a.92.92,0,1,0-1.82-.26c-.15,1.06-.28,2.14-.33,3.23,0,0,0,.06,0,.09a16.25,16.25,0,0,0,.44,4.82q.1.4.23.8a12.66,12.66,0,0,0,2.35,4.22,9.39,9.39,0,0,0,3.75,2.73,7.37,7.37,0,0,0,6.51-.66c2.82-1.65,4.89-4.43,6.9-7.11,2.37-3.17,4.6-6.16,7.87-7.28a10.35,10.35,0,0,1,9.94,2,22.43,22.43,0,0,1,6.81,9.86A20,20,0,0,1,216.79,238a10,10,0,0,1-1.78,4.11,8.11,8.11,0,0,1-3.57,2.64.92.92,0,0,0,.66,1.71Z"/><polygon class="cls-3" points="270.31 262.55 268.95 277.17 276.88 271.92 270.31 262.55"/><path class="cls-4" d="M270.43,278.53q1.22-10.12,1.79-21.32a402.1,402.1,0,0,0-1.35-57.14,1.59,1.59,0,1,0-3.17.35A398.68,398.68,0,0,1,269,257.1c-.89,17.85-3.09,33.73-6.51,47.2C258.27,321,252.1,334,244.19,342.92a1.59,1.59,0,1,0,2.38,2.12c8.26-9.3,14.66-22.76,19-40A210.92,210.92,0,0,0,270.43,278.53Z"/><path class="cls-4" d="M283.64,282.71a233.57,233.57,0,0,0,1.61-26.47,302,302,0,0,0-2.57-40.47C281.36,205.55,280,199.09,280,199a1.59,1.59,0,1,0-3.12.67,292,292,0,0,1,5.22,56.58c-.12,18.16-2.12,34.68-5.92,49.11-4.73,17.94-12.29,32.66-22.47,43.76a1.59,1.59,0,1,0,2.35,2.16c10.54-11.49,18.35-26.67,23.21-45.14A174.63,174.63,0,0,0,283.64,282.71Z"/><path class="cls-9" d="M291,268.19s-24.58,10.64-35.36,13.46l1.63,27.86s37.89-5.6,44.13-13.06S291,268.19,291,268.19Z"/><path class="cls-4" d="M337.55,222.53a1.59,1.59,0,0,0-3-1,85.15,85.15,0,0,1-7.67,10.87,141.11,141.11,0,0,1-24.76,23.69,157.06,157.06,0,0,1-44.45,23.2c-20.36,6.84-42.86,10-66.88,9.44a1.59,1.59,0,0,0-.08,3.19c24.43.58,47.34-2.66,68.08-9.64a160.19,160.19,0,0,0,45.38-23.74,145.44,145.44,0,0,0,25.28-24.25,85.9,85.9,0,0,0,7.89-11.22A1.59,1.59,0,0,0,337.55,222.53Z"/><path class="cls-4" d="M345.57,243a1.59,1.59,0,0,0-2.85-1.16,140.2,140.2,0,0,1-47.5,39.77,158.83,158.83,0,0,1-49.33,15.51,189.25,189.25,0,0,1-38.75,1.66,131.26,131.26,0,0,1-15.6-1.76,1.59,1.59,0,0,0-.62,3.13,132,132,0,0,0,16,1.81,192.48,192.48,0,0,0,39.42-1.68,162,162,0,0,0,50.32-15.83,143.37,143.37,0,0,0,48.58-40.66A1.59,1.59,0,0,0,345.57,243Z"/><path class="cls-4" d="M348.24,262.4a1.59,1.59,0,0,0-2.76-1.26,142.06,142.06,0,0,1-97.84,47.74,162.15,162.15,0,0,1-36.22-1.62,110.59,110.59,0,0,1-14.33-3.13,1.59,1.59,0,0,0-1,3,111.05,111.05,0,0,0,14.67,3.22,165.36,165.36,0,0,0,36.93,1.68,145.26,145.26,0,0,0,100.11-48.79A1.59,1.59,0,0,0,348.24,262.4Z"/><path class="cls-4" d="M190.56,178.51s.09-34.82,34.59-21.4C225.15,157.11,199.35,152,190.56,178.51Z"/><path class="cls-4" d="M180.94,152.91s.06-23.1,22.94-14.19C203.88,138.72,186.77,135.35,180.94,152.91Z"/><path class="cls-5" d="M53.73,225.86s-23.56,25.63-40-7.58C13.78,218.28,29.38,239.45,53.73,225.86Z"/><path class="cls-5" d="M43.55,251.25s-15.63,17-26.5-5C17.05,246.22,27.4,260.26,43.55,251.25Z"/></g></g></svg>