<svg xmlns="http://www.w3.org/2000/svg" xmlns:xlink="http://www.w3.org/1999/xlink" viewBox="0 0 370 350"><defs><style>.cls-1,.cls-14,.cls-15,.cls-16,.cls-9{fill:none;}.cls-2{isolation:isolate;}.cls-3,.cls-4{fill:#fbb040;}.cls-19,.cls-3{opacity:0.2;}.cls-5{clip-path:url(#clip-path);}.cls-6{fill:#fff;}.cls-7{opacity:0.1;}.cls-8{fill:#a92826;}.cls-15,.cls-9{stroke:#3a3b3d;}.cls-14,.cls-15,.cls-9{stroke-miterlimit:10;}.cls-9{stroke-width:7.72px;}.cls-10{fill:#e7e7e0;}.cls-11{fill:#bfbfbe;}.cls-12{fill:#3a3b3d;}.cls-13{fill:#e93c31;}.cls-14,.cls-16{stroke:#fff;}.cls-14,.cls-15{stroke-width:1.1px;}.cls-16{stroke-linecap:round;stroke-linejoin:round;stroke-width:1.8px;}.cls-17{fill:#808285;}.cls-18{fill:#a7a9ac;}.cls-19{fill:#231f20;mix-blend-mode:multiply;}</style><clipPath id="clip-path"><circle class="cls-1" cx="185" cy="175" r="133.88"/></clipPath></defs><title>smaArtboard 1 copy 13</title><g class="cls-2"><g id="Layer_1" data-name="Layer 1"><circle class="cls-3" cx="185" cy="175" r="166.46"/><circle class="cls-4" cx="185" cy="175" r="133.88"/><g class="cls-5"><path class="cls-6" d="M106.86,251.84a5,5,0,0,0,0-1.34l11.5.06v47.21a5.1,5.1,0,0,0,5.1,5.1h53.25a5.1,5.1,0,0,0,5.1-5.1v-3.19h.63a5.1,5.1,0,0,0,5.1-5.1V250.95l15.86.09-11.55,58.44c0,.07,0,.14,0,.21h50.47l3.8-16.75C261.37,287,269,280,269.3,271.64a14.17,14.17,0,0,0-.35-3.72,68.69,68.69,0,0,0,28.5-6.73,5.1,5.1,0,0,0,7.26,3.29c10.3-5.26,17.67-15.71,22.62-25.42a5,5,0,0,0,4.44-1.32c8.29-7.94,10.54-18.95,10.23-29.32l.38,0a5.1,5.1,0,0,0,4.38-4.85c.53-14-8.07-29.13-12.57-36,28-26.6,31-41.33,31.28-43a5.1,5.1,0,0,0-2-4.92,58.23,58.23,0,0,0-15.73-8c6-4,10.52-11,10.84-18.05.31-6.75-3.18-14.67-8.69-19.72a17.22,17.22,0,0,0-2.64-1.95c4.68-4.06,8.45-9.34,9.48-15.09,1.17-6.53-1.33-12.68-7-17.33A21.33,21.33,0,0,0,336,34.21a22.46,22.46,0,0,0-11,3.13q-.14-1-.39-2c-2.31-9.49-11.16-16.11-21.52-16.11l-1.15,0c-8.47.43-14.53,4.45-17.6,11.4-1.14-.94-2.28-1.77-3.36-2.53a22.07,22.07,0,0,0-13.13-4.49,21.15,21.15,0,0,0-5,.61h-.06l-.07,0C255.64,26,249.8,31.41,246.65,39l-.2.49c-.16.41-.32.83-.47,1.25s-.22.67-.32,1-.2.62-.28.93c-.19.69-.36,1.39-.51,2.1A21.91,21.91,0,0,0,248,62.64l.26.43.06.1.26.42.11.17.28.41.16.22.3.42.19.26.33.43.23.28.36.43.26.3.4.44.29.3.25.26-2.67,3.32C243,64.3,233.4,57.95,218.22,54.36a5.1,5.1,0,0,0-5.7,2.61c-.44.84-9.72,18.91-9.74,34.13-8.34,2.2-11,5.5-11.74,7a5.1,5.1,0,0,0,4.36,7.48l2.28.07L191.74,117a45.81,45.81,0,0,0-23.08,7.74A5.1,5.1,0,0,0,167.1,131c-13.4,7.65-18.66,18.72-18.93,19.31a5.1,5.1,0,0,0,2,6.5c-8.77,17.7,3.91,29.59,4.06,29.73a5.11,5.11,0,0,0,.77.58,84.74,84.74,0,0,0,10.59,28.1,5.16,5.16,0,0,0,4.34,2.4,5,5,0,0,0,1-.1A63.64,63.64,0,0,0,178,228.65a5.1,5.1,0,0,0,5.92,1.42,47.71,47.71,0,0,0,5.54,7.2l.63.65.13.16c.91.94,1.84,1.83,2.79,2.7l-11.28-.06a5.06,5.06,0,0,0-5-4.36l-6.23.18a13.82,13.82,0,0,0-13.78-15.72h-1.26a65.67,65.67,0,0,0-47-49.77,18.48,18.48,0,0,0-35.09,0,65.67,65.67,0,0,0-47,49.77h-.67a13.91,13.91,0,1,0,0,27.82H49.07a7.73,7.73,0,0,0,1.78,3.66c1.37,1.57,4,4.62,17.48,4.05-3.29,4-5.45,8.61-5.27,13.71a5.1,5.1,0,0,0,2.67,4.3,11.32,11.32,0,0,0,5.45,1.43c5.6,0,10.94-4.28,15.46-9.55a7.68,7.68,0,0,0,.76.89c1.29,1.3,4.2,3.23,9.2,1.57C104.27,266.18,106,256.5,106.86,251.84Zm146.11,11q.75.58,1.44,1.17a5.08,5.08,0,0,0,3.27,3.44,6.34,6.34,0,0,1,1.43,3.8c0,1.23-1.09,4.83-10.18,9.37Z"/><g class="cls-7"><path class="cls-6" d="M60.28,218.79c4.77.29,9.46,1.45,14.23,1.83,6.17.49,12.36.52,18.53,1.12,6,.59,12,1.6,18,1.19l-2.93.2c3.76-.15,7.5-.12,11.25-.16a26,26,0,0,0,3.14-.86l-.4.17a62.53,62.53,0,0,1,11.73-3.4c1.18-.2,2.37-.37,3.57-.56a33.07,33.07,0,0,1,4.18-3.07c.39-.24.78-.45,1.17-.67.1-.14.21-.28.3-.42C161.83,188,110.88,177,96.12,159.28,70.65,128,133.67,114.53,133.67,86.67c0-25.33-32.18-42.21-61.68-54.88,32.18,21.11,32.18,32.93,6.7,56.57-20.11,17.73-30.84,37.15-12.07,55.72C92.1,170.26,76,174.48,51.88,196.43c-5.13,4.24-8,8.14-9.21,11.83A31.92,31.92,0,0,1,60.28,218.79Z"/></g><rect class="cls-8" x="166.86" y="246.03" width="15.62" height="43.45" transform="translate(349.34 535.51) rotate(-180)"/><line class="cls-9" x1="219.19" y1="246.03" x2="99.9" y2="245.36"/><path class="cls-10" d="M320.89,102.69l-.21-.12s5.19,4.19,6.77,5a18.31,18.31,0,0,0,11.73,2.2c7.13-1.34,13.93-9.19,14.26-16.48.26-5.65-2.94-12-7-15.73-2.65-2.43-8.84-4.93-12.47-3.69,12-4.11,25.8-19.66,12.49-30.49s-26,2.44-33.9,12.8c4.4-5.74,9-12,7.12-19.65-1.92-7.89-9.74-12.58-17.45-12.2-10.52.53-14.9,7.8-15,18-1.58-4.27-5.33-7.45-9.15-10.1-11-8.15-25-1.62-28.14,13.62a16.86,16.86,0,0,0,2.5,14.05c1.22,2.18,3.69,5.31,6.74,6.57L240.33,94.58s5.07,1.15,33.92,17.71c23.47,13.48,33.87,1.85,34,21.26,1.51-3.81,3-7.64,4.51-11.43,2.42-5.93,5.12-11.17,6.92-17.15A5.31,5.31,0,0,1,320.89,102.69Z"/><path class="cls-11" d="M266.21,66.2c-19.56-14.33-6.38-32.16-2.18-37-6.62,1.66-12.32,7.63-14.18,16.68a16.86,16.86,0,0,0,2.5,14.05c1.22,2.18,3.69,5.31,6.74,6.57L239.26,91.17s.42,2.68,5.41,3.11Z"/><path class="cls-11" d="M320.89,102.69s-4.42-1.21-7.27-6.69a13.85,13.85,0,0,0,5.7,10.34Z"/><path class="cls-9" d="M242.89,251.22s51.29,21.11-5.26,39.32"/><polygon class="cls-12" points="237.1 309.69 252.77 240.65 212.21 232.95 197.04 309.69 237.1 309.69"/><polygon class="cls-6" points="241.16 238.44 222.09 275.58 217.01 231.78 241.16 238.44"/><polygon class="cls-13" points="231.3 252.77 224.93 258.03 221.67 250.94 227.46 243.68 231.3 252.77"/><path class="cls-14" d="M223.87,262.63c-2.66,15-3.87,30.15-6.51,45.12"/><polygon class="cls-6" points="214.15 273.02 207.92 271.84 210.1 268.21 211.41 270.48 213.84 268.92 214.15 273.02"/><polyline class="cls-15" points="234.05 257.53 227.12 245.51 216.22 256.38"/><polygon class="cls-13" points="225.91 254.88 227.51 265.03 221.92 275.93 219.93 260.14 225.91 254.88"/><polyline class="cls-14" points="235.64 249.15 242.99 254.99 234.77 257 237.76 262.73 221.92 275.93"/><polyline class="cls-14" points="219.19 246.03 210.2 248.77 217.12 253.65 212.24 257.89 222.14 275.97"/><polygon class="cls-6" points="248.82 240.74 299.48 230.57 321.94 175.52 328.79 157.94 354.54 127.76 345.96 117.21 313.26 116.75 275.52 125.1 239.91 82.27 221.86 60.62 213.11 107.93 184.15 139.78 182.48 178.32 207.78 224.22 248.82 240.74"/><path class="cls-13" d="M161.21,149.91c-18,19.78-3.55,32.9-3.55,32.9-.36-1.44,1.58-7.89,1.58-7.89-.82,19.48,10.66,37.62,10.66,37.62-.36-2.45,1.18-14,1.18-14C170.6,211.77,182,225.39,182,225.39c-1.19-2.16-.27-13.7-.27-13.7,2.82,11.14,7.85,18.18,11.53,22.09a26.12,26.12,0,0,0,4.5,4c.63.43,1.25.84,1.87,1.25h0l-.14,0a47,47,0,0,1,9.21,5.72c-10.81-8.58-7-4.28.46-1.78,5.46,1.84,8.82,4,14.05,4,10.88.12,21.63.56,32.49,1.3,11.88.8,19.36-.62,30.53-1.7l6.8.37c4.5-2,9-3.86,13.73-5.48.77-.26,1.55-.45,2.32-.65a120.43,120.43,0,0,0,8.12-11.64c.35,2.91-1.4,7-3.46,10.73a34.17,34.17,0,0,1,5.77-.15l.16-.16a12.76,12.76,0,0,1,2.17-1.57l-.76.19c6.53-9.73,9-22.58,9-22.58,2.67,5.19-1.75,18.39-1.75,18.39,18.06-17.28,2.37-53.48,2.37-53.48,5.27,5.27,11.05,22.76,11.05,22.76.64-16.95-14.17-36.54-14.17-36.54,30.59-28.14,32.94-43,32.94-43-25-18.09-61.12-8.18-61.12-8.18A44.67,44.67,0,0,0,269,93c6.74,3.44,11.21,11.5,11.21,11.5a145.28,145.28,0,0,0-25.9-12.87c-.93-5.79-6.32-25-37.23-32.31,0,0-11.1,21.38-8.88,35.84-10.79,1.84-12.61,5.3-12.61,5.3l10.41.3-11.08,21.29a41.05,41.05,0,0,0-23.17,6.81c2.61-.78,9.9,1.8,9.9,1.8-21.23,5.41-28.82,21.83-28.82,21.83A11.2,11.2,0,0,1,161.21,149.91ZM311.5,126.63s23.82-7.65,36.38,1.68c0,0-10.69,18-23.14,23.31C324.75,151.61,320.14,136.64,311.5,126.63Zm-89.35,20.94c6.71-15.06,26.52-32.34,39-26.79s12.85,31.84,6.14,46.9S245,190.45,232.56,184.9,215.44,162.64,222.16,147.58Zm-11.44,19.25c9.23,7.2-16.82,7.74-16.82,7.74s-3.39-8.87-3.07-15.8S201.49,159.62,210.71,166.82ZM222.59,70c16.8,6.12,23.3,22,20.41,22.19-6.69.5-25.69,8.09-25.69,8.09C212,90,222.59,70,222.59,70Z"/><path class="cls-13" d="M330.59,216.37s-8.25,33.38-28.2,43.57c0,0,8.79-12.49,10.72-18.81,0,0-13.44,24.47-53.81,21.5a47.63,47.63,0,0,0,21.42-9.77s-56.07,13.45-86.78-18.32l75.36-.83s39.64-22.74,40.43-22.64S330.59,216.37,330.59,216.37Z"/><path class="cls-13" d="M228.48,148.69s2.11,32.78,32.91,15.8C261.39,164.49,235.34,173,228.48,148.69Z"/><path class="cls-6" d="M194.68,129.83s1.46,22.89,20.81,11.44C215.49,141.26,199.1,146.84,194.68,129.83Z"/><path class="cls-16" d="M300.52,183.86s-30.76,69.9-99,23.2"/><path class="cls-6" d="M310.35,189.18S311,163.66,292,178.44c0,0,15.86-9.64,17.63,14.58"/><path class="cls-13" d="M103.43,245.84c5.49-2.46,19.21-23.62,9.24-24.73-7.69-.6-10.95,16.48-12.12,21.84l-.76-.17A49.63,49.63,0,0,0,89.39,240c-5.58-.77-33-1.47-35.14,5.92-3.27,9.86,30.69,3.51,36.18,2.49-8.87,1.86-22.62,11.46-22.26,21.49,9.14,4.94,21.18-15.79,25-22.17C91.7,252,86.07,266.82,95,263.85c4.64-1.53,6.06-8.75,6.82-12.91"/><polygon class="cls-13" points="176.75 241.45 176.75 297.77 123.5 297.77 123.5 242.97 176.75 241.45"/><path class="cls-17" d="M77.57,176.35a13.37,13.37,0,0,1,26.73,0Z"/><path class="cls-18" d="M30.06,232.5a60.92,60.92,0,0,1,121.76,0Z"/><rect class="cls-17" x="16.91" y="225.91" width="148.65" height="17.63" rx="8.81" ry="8.81" transform="translate(182.46 469.44) rotate(180)"/><path class="cls-19" d="M25.72,243.53a8.81,8.81,0,1,1,0-17.63h4.94a61,61,0,0,1,47-50.65,13.39,13.39,0,0,1,8.47-10.9C84,168,82.4,172.18,84.4,174.14c0,0-35.26,6.44-43.82,51.77,0,0-10.07,10.07-2,17.63Z"/></g><path class="cls-6" d="M365.47,124.53a5.1,5.1,0,0,0-2-4.92,58.23,58.23,0,0,0-15.73-8c6-4,10.52-11,10.84-18.05.31-6.75-3.18-14.67-8.69-19.72a17.22,17.22,0,0,0-2.64-1.95c4.68-4.06,8.45-9.34,9.48-15.09,1.17-6.53-1.33-12.68-7-17.33A21.33,21.33,0,0,0,336,34.21a22.46,22.46,0,0,0-11,3.13q-.14-1-.39-2c-2.31-9.49-11.16-16.11-21.52-16.11l-1.15,0c-8.47.43-14.53,4.45-17.6,11.4-1.14-.94-2.28-1.77-3.36-2.53a22.07,22.07,0,0,0-13.13-4.49,21.15,21.15,0,0,0-5,.61h-.06l-.07,0C255.64,26,249.8,31.41,246.65,39l-.2.49c-.16.41-.32.83-.47,1.25s-.22.67-.32,1-.2.62-.28.93c-.19.69-.36,1.39-.51,2.1A21.91,21.91,0,0,0,248,62.64l.26.43.06.1.26.42.11.17.28.41.16.22.3.42.19.26.33.43.23.28.36.43.26.3.4.44.29.3.25.26-2.67,3.32C243,64.3,233.4,57.95,218.22,54.36a5.1,5.1,0,0,0-5.7,2.61c-.44.84-9.72,18.91-9.74,34.13-8.34,2.2-11,5.5-11.74,7a5.1,5.1,0,0,0,4.36,7.48l2.28.07L191.74,117a45.81,45.81,0,0,0-23.08,7.74A5.1,5.1,0,0,0,167.1,131c-13.4,7.65-18.66,18.72-18.93,19.31a5.1,5.1,0,0,0,2,6.5c-8.77,17.7,3.91,29.59,4.06,29.73a5.11,5.11,0,0,0,.77.58,84.74,84.74,0,0,0,10.59,28.1,5.16,5.16,0,0,0,4.34,2.4,5,5,0,0,0,1-.1A63.64,63.64,0,0,0,178,228.65a5.1,5.1,0,0,0,5.92,1.42,47.71,47.71,0,0,0,5.54,7.2l.63.65.13.16c.91.94,1.84,1.83,2.79,2.7l-11.28-.06a5.06,5.06,0,0,0-5-4.36l-6.23.18a13.82,13.82,0,0,0-13.78-15.72h-1.26a65.67,65.67,0,0,0-47-49.77,18.48,18.48,0,0,0-35.09,0,65.67,65.67,0,0,0-47,49.77h-.67a13.91,13.91,0,1,0,0,27.82H49.07a7.73,7.73,0,0,0,1.78,3.66c1.37,1.57,4,4.62,17.48,4.05-3.29,4-5.45,8.61-5.27,13.71a5.1,5.1,0,0,0,2.67,4.3,11.32,11.32,0,0,0,5.45,1.43c5.6,0,10.94-4.28,15.46-9.55a7.68,7.68,0,0,0,.76.89c1.29,1.3,4.2,3.23,9.2,1.57,7.66-2.52,9.4-12.2,10.24-16.85a5,5,0,0,0,0-1.34l11.5.06v47.21a5.1,5.1,0,0,0,5.1,5.1h40.77a101.86,101.86,0,0,1,17.58-7.33v-1h.63a5.1,5.1,0,0,0,5.1-5.1V250.95l15.86.09-8,40.74,3.83-.9q7.05-1.61,14.24-2.8c11.65-5.16,23.52-9.51,36.25-10.85L253,262.83q.75.58,1.44,1.17a5.08,5.08,0,0,0,3.27,3.44,6.34,6.34,0,0,1,1.43,3.8c0,.87-.57,2.9-4,5.61,1.14,0,2.29-.06,3.45,0C268,265,279.72,255,292,246.48c4.63-3.21,10-3.68,14.41.11,3.8,3.24,5.38,10.09,2,14.28-.83,1-1.69,2-2.55,3,9.73-5.42,16.77-15.46,21.54-24.83a5,5,0,0,0,4.44-1.32c8.29-7.94,10.54-18.95,10.23-29.32l.38,0a5.1,5.1,0,0,0,4.38-4.85c.53-14-8.07-29.13-12.57-36C362.18,140.9,365.21,126.17,365.47,124.53Z"/><g class="cls-7"><path class="cls-6" d="M60.28,218.79c4.77.29,9.46,1.45,14.23,1.83,6.17.49,12.36.52,18.53,1.12,6,.59,12,1.6,18,1.19l-2.93.2c3.76-.15,7.5-.12,11.25-.16a26,26,0,0,0,3.14-.86l-.4.17a62.53,62.53,0,0,1,11.73-3.4c1.18-.2,2.37-.37,3.57-.56a33.07,33.07,0,0,1,4.18-3.07c.39-.24.78-.45,1.17-.67.1-.14.21-.28.3-.42C161.83,188,110.88,177,96.12,159.28,70.65,128,133.67,114.53,133.67,86.67c0-25.33-32.18-42.21-61.68-54.88,32.18,21.11,32.18,32.93,6.7,56.57-20.11,17.73-30.84,37.15-12.07,55.72C92.1,170.26,76,174.48,51.88,196.43c-5.13,4.24-8,8.14-9.21,11.83A31.92,31.92,0,0,1,60.28,218.79Z"/></g><rect class="cls-8" x="166.86" y="246.03" width="15.62" height="43.45" transform="translate(349.34 535.51) rotate(-180)"/><line class="cls-9" x1="219.19" y1="246.03" x2="99.9" y2="245.36"/><path class="cls-10" d="M320.89,102.69l-.21-.12s5.19,4.19,6.77,5a18.31,18.31,0,0,0,11.73,2.2c7.13-1.34,13.93-9.19,14.26-16.48.26-5.65-2.94-12-7-15.73-2.65-2.43-8.84-4.93-12.47-3.69,12-4.11,25.8-19.66,12.49-30.49s-26,2.44-33.9,12.8c4.4-5.74,9-12,7.12-19.65-1.92-7.89-9.74-12.58-17.45-12.2-10.52.53-14.9,7.8-15,18-1.58-4.27-5.33-7.45-9.15-10.1-11-8.15-25-1.62-28.14,13.62a16.86,16.86,0,0,0,2.5,14.05c1.22,2.18,3.69,5.31,6.74,6.57L240.33,94.58s5.07,1.15,33.92,17.71c23.47,13.48,33.87,1.85,34,21.26,1.51-3.81,3-7.64,4.51-11.43,2.42-5.93,5.12-11.17,6.92-17.15A5.31,5.31,0,0,1,320.89,102.69Z"/><path class="cls-11" d="M266.21,66.2c-19.56-14.33-6.38-32.16-2.18-37-6.62,1.66-12.32,7.63-14.18,16.68a16.86,16.86,0,0,0,2.5,14.05c1.22,2.18,3.69,5.31,6.74,6.57L239.26,91.17s.42,2.68,5.41,3.11Z"/><path class="cls-11" d="M320.89,102.69s-4.42-1.21-7.27-6.69a13.85,13.85,0,0,0,5.7,10.34Z"/><path class="cls-9" d="M242.89,251.22c6.83,4.56,17.58,7.31,20.38,16"/><path class="cls-12" d="M213.45,288.07c10-4.42,20.14-8.25,30.85-10.1l8.47-37.32-40.57-7.7-11.38,57.58Q207.09,289.14,213.45,288.07Z"/><polygon class="cls-6" points="241.16 238.44 222.09 275.58 217.01 231.78 241.16 238.44"/><polygon class="cls-13" points="231.3 252.77 224.93 258.03 221.67 250.94 227.46 243.68 231.3 252.77"/><path class="cls-14" d="M223.87,262.63c-1.15,6.48-2,13-2.87,19.52"/><polygon class="cls-6" points="214.15 273.02 207.92 271.84 210.1 268.21 211.41 270.48 213.84 268.92 214.15 273.02"/><polyline class="cls-15" points="234.05 257.53 227.12 245.51 216.22 256.38"/><polygon class="cls-13" points="225.91 254.88 227.51 265.03 221.92 275.93 219.93 260.14 225.91 254.88"/><polyline class="cls-14" points="235.64 249.15 242.99 254.99 234.77 257 237.76 262.73 221.92 275.93"/><polyline class="cls-14" points="219.19 246.03 210.2 248.77 217.12 253.65 212.24 257.89 222.14 275.97"/><polygon class="cls-6" points="248.82 240.74 299.48 230.57 321.94 175.52 328.79 157.94 354.54 127.76 345.96 117.21 313.26 116.75 275.52 125.1 239.91 82.27 221.86 60.62 213.11 107.93 184.15 139.78 182.48 178.32 207.78 224.22 248.82 240.74"/><path class="cls-13" d="M360.43,123.73c-25-18.09-61.12-8.18-61.12-8.18A44.67,44.67,0,0,0,269,93c6.74,3.44,11.21,11.5,11.21,11.5a145.27,145.27,0,0,0-25.9-12.87c-.93-5.79-6.32-25-37.23-32.31,0,0-11.1,21.38-8.88,35.84-10.79,1.84-12.61,5.3-12.61,5.3l10.41.3-11.08,21.29a41.05,41.05,0,0,0-23.17,6.81c2.61-.78,9.9,1.8,9.9,1.8-21.23,5.41-28.82,21.83-28.82,21.83a11.2,11.2,0,0,1,8.41-2.58c-18,19.78-3.55,32.9-3.55,32.9-.36-1.44,1.58-7.89,1.58-7.89-.82,19.48,10.66,37.62,10.66,37.62-.36-2.45,1.18-14,1.18-14C170.6,211.77,182,225.39,182,225.39c-1.19-2.16-.27-13.7-.27-13.7,2.82,11.14,7.85,18.18,11.53,22.09a26.12,26.12,0,0,0,4.5,4c.63.43,1.25.84,1.87,1.25h0l-.14,0a47,47,0,0,1,9.21,5.72c-10.81-8.58-7-4.28.46-1.78,5.46,1.84,8.82,4,14.05,4,10.88.12,21.63.56,32.49,1.3,11.88.8,19.36-.62,30.53-1.7l5.16.28.6-.42a12.85,12.85,0,0,1,8.22-2.54c2.15-.85,4.32-1.67,6.54-2.43.77-.26,1.55-.45,2.32-.65a120.41,120.41,0,0,0,8.12-11.64c.35,2.91-1.4,7-3.46,10.73a34.18,34.18,0,0,1,5.77-.15l.16-.16a12.76,12.76,0,0,1,2.17-1.57l-.76.19c6.53-9.73,9-22.58,9-22.58,2.67,5.19-1.75,18.39-1.75,18.39,18.06-17.28,2.37-53.48,2.37-53.48,5.27,5.27,11.05,22.76,11.05,22.76.64-16.95-14.17-36.54-14.17-36.54C358.08,138.64,360.43,123.73,360.43,123.73ZM193.89,174.56s-3.39-8.87-3.07-15.8,10.66.86,19.89,8.06S193.89,174.56,193.89,174.56ZM222.59,70c16.8,6.12,23.3,22,20.41,22.19-6.69.5-25.69,8.09-25.69,8.09C212,90,222.59,70,222.59,70Zm44.68,97.64c-6.71,15.06-22.25,22.77-34.71,17.22s-17.11-22.26-10.4-37.32,26.52-32.34,39-26.79S274,152.62,267.27,167.68Zm44.23-41.05s23.82-7.65,36.38,1.68c0,0-10.69,18-23.14,23.31C324.75,151.61,320.14,136.64,311.5,126.63Z"/><path class="cls-13" d="M309.72,211.07c-.79-.1-40.43,22.64-40.43,22.64l-75.36.83c30.71,31.77,86.78,18.32,86.78,18.32a47.63,47.63,0,0,1-21.42,9.77,85.58,85.58,0,0,0,12.44,0A180.85,180.85,0,0,1,292,246.48c4.63-3.21,10-3.68,14.41.11a9.71,9.71,0,0,1,1.24,1.28,32.71,32.71,0,0,0,5.5-6.75,46.78,46.78,0,0,1-4.23,8.72,12.17,12.17,0,0,1,1.3,4.51c14.33-13.41,20.41-38,20.41-38S310.51,211.17,309.72,211.07Z"/><path class="cls-13" d="M228.48,148.69s2.11,32.78,32.91,15.8C261.39,164.49,235.34,173,228.48,148.69Z"/><path class="cls-6" d="M194.68,129.83s1.46,22.89,20.81,11.44C215.49,141.26,199.1,146.84,194.68,129.83Z"/><path class="cls-16" d="M300.52,183.86s-30.76,69.9-99,23.2"/><path class="cls-6" d="M310.35,189.18S311,163.66,292,178.44c0,0,15.86-9.64,17.63,14.58"/><path class="cls-13" d="M103.43,245.84c5.49-2.46,19.21-23.62,9.24-24.73-7.69-.6-10.95,16.48-12.12,21.84l-.76-.17A49.63,49.63,0,0,0,89.39,240c-5.58-.77-33-1.47-35.14,5.92-3.27,9.86,30.69,3.51,36.18,2.49-8.87,1.86-22.62,11.46-22.26,21.49,9.14,4.94,21.18-15.79,25-22.17C91.7,252,86.07,266.82,95,263.85c4.64-1.53,6.06-8.75,6.82-12.91"/><path class="cls-13" d="M176.75,297.28V241.45L123.5,243v54.8h52Z"/><path class="cls-17" d="M77.57,176.35a13.37,13.37,0,0,1,26.73,0Z"/><path class="cls-18" d="M30.06,232.5a60.92,60.92,0,0,1,121.76,0Z"/><rect class="cls-17" x="16.91" y="225.91" width="148.65" height="17.63" rx="8.81" ry="8.81" transform="translate(182.46 469.44) rotate(180)"/><path class="cls-19" d="M25.72,243.53a8.81,8.81,0,1,1,0-17.63h4.94a61,61,0,0,1,47-50.65,13.39,13.39,0,0,1,8.47-10.9C84,168,82.4,172.18,84.4,174.14c0,0-35.26,6.44-43.82,51.77,0,0-10.07,10.07-2,17.63Z"/></g></g></svg>