<svg xmlns="http://www.w3.org/2000/svg" viewBox="0 0 372.95 357.43"><defs><style>.cls-1{isolation:isolate;}.cls-2{fill:#C7CEC9;}.cls-3{fill:#959A8F;}.cls-4{fill:#fff;}.cls-5{fill:#e83d32;}.cls-6{fill:#414042;}.cls-7{fill:#176ca6;}.cls-8{fill:#2b3990;opacity:0.5;}.cls-8,.cls-9{mix-blend-mode:multiply;}.cls-9{fill:#231f20;opacity:0.1;}.cls-10{fill:#1b75bc;}</style></defs><title>smaArtboard 85 copy 9</title><g class="cls-1"><g id="Layer_1" data-name="Layer 1"><circle class="cls-2" cx="181.48" cy="178.77" r="174.37"/><circle class="cls-3" cx="180.31" cy="178.77" r="120.41"/><path class="cls-4" d="M355.19,150.82a36,36,0,0,0,8.92-26.39,4,4,0,0,0-3-3.35,78.27,78.27,0,0,0-19.57-2.75c-28.31,0-38.86,19.88-42.78,33.87l-.48-.4c1.5-3.07,1.7-5.91.6-8.48a8.5,8.5,0,0,0-.51-1c-.06-.11-.14-.2-.2-.3s-.26-.4-.41-.59l-.27-.32c-.14-.16-.28-.32-.42-.48l-.32-.3-.45-.4-.35-.28-.47-.35-.37-.25-.32-.2c31.88-30.47,34.91-47.26,35-48A4,4,0,0,0,328.26,87c-12.43-9.06-28.39-13.65-47.44-13.65a121.08,121.08,0,0,0-24.51,2.52C242.5,53.47,220.43,50.11,219.46,50a4,4,0,0,0-4.54,3.56q-5-2.36-9.73-4.21c-2.15-9.25-10.88-30.49-46.05-38.9a4,4,0,0,0-4.47,2c-.52,1-11.91,23-11.28,40.56-10.52,2.41-13.37,6.28-14,7.51l-.07.16c-.38.16-.76.32-1.14.51A20.6,20.6,0,0,0,119,70.87a10.66,10.66,0,0,0-1.55,2.67,10.15,10.15,0,0,0-6.39,1.66c-3.07,2.09-4.75,5.79-5,11-4.21,1.18-10.75,3.81-12.63,9a9.42,9.42,0,0,0,1.16,8.39c-10.85,8-15.28,17.28-15.54,17.85a4,4,0,0,0,3.36,5.68c-11.65,20.52,3,34.33,3.15,34.49a4,4,0,0,0,1.35.81A96.7,96.7,0,0,0,99.08,195.7a3.94,3.94,0,0,0,3.35,1.84,4.09,4.09,0,0,0,1.37-.24,4,4,0,0,0,.79-.38,72.9,72.9,0,0,0,8.87,14.29,4,4,0,0,0,6,.15,54.84,54.84,0,0,0,7.29,9.89l.73.75.15.18c1,1.09,2.12,2.12,3.2,3.12q-1.61.06-3.22.06h-.26c-1.13,0-2.25,0-3.37-.08l-1,0c-20.43-1-39.23-8.88-53.44-22.4-8.35-26.37-16.82-39.74-25.19-39.74a8.6,8.6,0,0,0-4.67,1.4,10.43,10.43,0,0,0-5,8.06c-.43,4.67,2,10,5.22,14.71a36.89,36.89,0,0,0-10.36-1.88c-6.08,0-10.05,3.12-10.62,8.35A10.38,10.38,0,0,0,21.56,202c3.21,3.58,8.94,5.41,15,6.29-2.93,2.21-5.4,4.8-6.28,7.64a7.88,7.88,0,0,0,1,6.83,8.54,8.54,0,0,0,7.37,3.74c4.07,0,8.87-2.26,12.85-4.69-.08,3.59.45,7.34,2.4,9.89a7.93,7.93,0,0,0,6.28,3.14h.21a8.67,8.67,0,0,0,7.1-3.34,11.43,11.43,0,0,0,2.14-5.1,101.28,101.28,0,0,0,41.78,16.22c1.45.22,2.92.4,4.4.56l.07,0c1.11.12,2.22.22,3.34.3l.81.05q1.45.1,2.91.16l1,0c1.22,0,2.44.07,3.66.07h0l.94,0a115.53,115.53,0,0,0,16.43-1.33l-13.19,44.75c-.08.27-.44,1.28-.46,1.55.31.06,1.22.55,1.55.68,10.45,4,21.11,4.5,32.08,6.43,5.22.92,10.26,2,15.38,3.29,2.07.54,5.23.63,5.09-.63,0-.08,0-.15.05-.23l5.4-44.53c16.51,14.3,35.87,23.53,56.42,26.61a98.93,98.93,0,0,0,28.58.12,11.36,11.36,0,0,0-.3,5.59,8.67,8.67,0,0,0,5.08,6.13,8.19,8.19,0,0,0,3.48.8h0c4.74,0,8-4.18,10-8.64,3.4,5.34,8.21,10.86,13.61,10.86h0a8.15,8.15,0,0,0,4.13-1.12,7.88,7.88,0,0,0,3.9-5.69c.46-2.94-.62-6.37-2.28-9.65a35.72,35.72,0,0,0,10.54,2h0c7.89,0,10.71-4.55,11.7-7.26a8.77,8.77,0,0,0-1-8.24c-2.61-3.72-8.43-5.76-15-6.82,5-2.85,9.49-6.52,11.16-10.9a10.43,10.43,0,0,0-1-9.45,8.68,8.68,0,0,0-7.69-4.22c-9.57,0-24.72,13.68-36,25.48a80.26,80.26,0,0,1-24.06,3.69,85.35,85.35,0,0,1-33.61-7l-.21-.12A72.62,72.62,0,0,0,254,247.55a4,4,0,0,0,5.28,5.55c20.42-10.36,30.85-38.93,34.11-49.53l.1-.1.2-.19.17-.2.16-.21.16-.24.08-.12c.46-.81.89-1.64,1.3-2.47.12-.24.23-.49.35-.74q.43-.9.82-1.82l.32-.78q.38-1,.73-1.92l.23-.63c.28-.84.55-1.68.79-2.53v0q.37-1.33.67-2.69c0-.15.06-.3.09-.45.15-.69.29-1.39.41-2.1.06-.36.11-.72.17-1.07s.14-.95.2-1.43.11-1,.16-1.51c0-.31.06-.61.08-.92s0-.33,0-.49c.29-.08.58-.15.85-.24,12.25,24.54,27.19,30,38.09,30a28.85,28.85,0,0,0,12.84-2.82,4,4,0,0,0,2.09-4c-2.55-24-13.68-34.11-24.59-38.09C340.76,162.73,349.24,157.71,355.19,150.82Z"/><path class="cls-5" d="M26.26,162.23s5.5-25.54,26.5-7.68C52.76,154.55,35.76,143.54,26.26,162.23Z"/><path class="cls-5" d="M23.85,147.54s4.65-21.6,22.41-6.49C46.26,141,31.88,131.74,23.85,147.54Z"/><path class="cls-5" d="M345.45,277.07s2.42,26-23,15.28C322.47,292.35,342,297.75,345.45,277.07Z"/><path class="cls-5" d="M352.15,290.36s2,22-19.43,12.92C332.73,303.28,349.23,307.85,352.15,290.36Z"/><path class="cls-6" d="M134.63,290.21c14.12,6,30.58,8.83,46.85,9L190.56,223l-34.18-5.12Z"/><path class="cls-5" d="M22.89,194.17c1.37-12.47,31.17,3.37,31.17,3.37s-23.89-22.25-12.21-29.67c9.69-6.15,20.72,26,24.21,37.14,28.31,27.61,72.29,32.15,112.17,11.53l4.79,9.28c-23.44,12.12-48.23,16.28-71.05,12.86a96.28,96.28,0,0,1-46.75-20.5c1.25,5,1.18,12.78-5,12.67-7.93-.15-3.5-17.69-3.5-17.69s-17.39,14.5-22.14,7.39,16.49-15.6,16.49-15.6S21.53,206.64,22.89,194.17Z"/><path class="cls-6" d="M116.17,230.38q0-.85.07-1.7c20,2.39,41.51-1.56,62-12.15l4.79,9.28c-22,11.36-45.13,15.73-66.75,13.41A34.45,34.45,0,0,0,116.17,230.38Z"/><path class="cls-5" d="M174.3,230l8.39-6.21c26.71,36.09,68.18,51.39,105.77,39.08,8-8.47,32.11-32.46,38.1-22.67,7.21,11.81-24,21.25-24,21.25s33.74-1.09,29.46,10.71-30-2.74-30-2.74,15.33,17,7.93,21.27-16.62-16.4-16.62-16.4-3.76,17.7-10.94,14.34c-5.6-2.62-2.22-9.65,1.09-13.57a95.12,95.12,0,0,1-35.54,1.38C220.09,272.28,193.62,256.09,174.3,230Z"/><path class="cls-6" d="M221.9,268.86c-17.95-7.91-34.43-21.09-47.59-38.87l8.39-6.21c12.18,16.45,27.42,28.58,44,35.74Q224.25,264.17,221.9,268.86Z"/><polygon class="cls-4" points="194.79 226.86 254.15 215.13 280.64 150.75 288.72 130.18 318.98 94.93 308.98 82.55 270.69 81.89 226.46 91.54 184.9 41.26 163.84 15.84 153.43 71.22 119.41 108.41 117.31 153.54 146.79 207.37 194.79 226.86"/><path class="cls-5" d="M289.93,197.78a9,9,0,0,1,.81,2.77c.15-3.4.07-6.88.32-10.23.39-5.41.82-10.81,1-16.24a5.69,5.69,0,0,1,2.31-4.25c-.53-2.06-1-4.11-1.38-6.16-.11-.66-.24-1.34-.38-2-1.06-3.11-1.86-5-1.86-5,.27.27.54.58.81.9-1-3.07-2.61-5.94-5.36-7.52-4.24-2.44-2.35-8,1.24-9.13l-.3-.41c35.92-32.85,38.72-50.3,38.72-50.3-29.17-21.27-71.55-9.8-71.55-9.8C241.51,57.13,218.9,53.93,218.9,53.93,226.78,58,232,67.44,232,67.44A170.13,170.13,0,0,0,201.7,52.28c-1.07-6.78-7.32-29.31-43.49-38,0,0-13.08,25-10.53,41.94-12.64,2.12-14.79,6.16-14.79,6.16l12.19.39L132,87.69a48.08,48.08,0,0,0-27.15,7.89c3.06-.9,11.59,2.14,11.59,2.14C91.59,104,82.65,123.19,82.65,123.19a13.12,13.12,0,0,1,9.86-3c-21.12,23.1-4.27,38.52-4.27,38.52-.42-1.69,1.87-9.24,1.87-9.24-1,22.81,12.35,44.09,12.35,44.09-.42-2.87,1.44-16.39,1.44-16.39-.61,15.48,12.64,31.47,12.64,31.47-1.38-2.54-.27-16-.27-16,3.26,13.06,9.13,21.32,13.43,25.91a30.59,30.59,0,0,0,5.26,4.65c.73.51,1.46,1,2.18,1.47h0l-.16.06a55.08,55.08,0,0,1,10.76,6.73c-12.63-10.09-8.16-5,.55-2.08,6.38,2.17,10.31,4.7,16.44,4.79,12.74.18,25.32.74,38,1.63,13.91,1,22.67-.66,35.76-1.88l8,.45c5.27-2.37,10.56-4.49,16.09-6.37.9-.31,1.81-.52,2.72-.76a141.05,141.05,0,0,0,9.55-13.61c.4,3.41-1.67,8.24-4.09,12.55a40,40,0,0,1,6.76-.16l.19-.18a15,15,0,0,1,2.54-1.84l-.89.22C287.05,212.82,289.93,197.78,289.93,197.78ZM164.67,26.88c19.65,7.22,27.21,25.81,23.83,26.05-7.84.56-30.11,9.38-30.11,9.38C152.2,50.19,164.67,26.88,164.67,26.88Zm52,114.49c-7.91,17.61-21.76,18.09-36.33,11.54S156,135.29,163.88,117.67s31.17-37.78,45.74-31.24S224.56,123.76,216.65,141.38Zm51.94-47.92s27.93-8.87,42.6,2.09c0,0-12.59,21-27.18,27.21C284,122.76,278.67,105.21,268.59,93.46Z"/><path class="cls-5" d="M290.63,198.61s-9.77,39.06-33.17,50.93c0,0,10.34-14.6,12.62-22,0,0-15.82,28.61-63.09,25a55.77,55.77,0,0,0,25.11-11.36s-65.71,15.55-101.56-21.75l88.26-.71s46.5-26.49,47.42-26.37S290.63,198.61,290.63,198.61Z"/><path class="cls-4" d="M202.7,206.28c-19.56,3.63-41-2.46-63.74-18.15a1.05,1.05,0,0,1,1.19-1.73c24.33,16.76,47,22.35,67.32,16.61,31.65-8.93,46.94-42.66,47.09-43a1.05,1.05,0,0,1,1.92.85c-.15.35-15.84,35-48.44,44.17Q205.4,205.78,202.7,206.28Z"/><path class="cls-4" d="M150.42,140.17c10.78,8.47-19.72,9-19.72,9s-3.94-10.4-3.54-18.51S139.64,131.7,150.42,140.17Z"/><ellipse class="cls-5" cx="192.63" cy="139.74" rx="10.22" ry="4.35" transform="translate(11.27 293.83) rotate(-76.31)"/><ellipse class="cls-4" cx="150.83" cy="122.35" rx="10.22" ry="4.35" transform="translate(-3.74 239.94) rotate(-76.31)"/><path class="cls-7" d="M292.72,160.23h0a7.5,7.5,0,0,0-4.36,4.44,10.42,10.42,0,0,0-.2,6.31,7.73,7.73,0,0,0,7.64,6.48C311.11,178.18,308.31,154.71,292.72,160.23Z"/><path class="cls-8" d="M294.49,160l-3.79,8.38,0,7a6.73,6.73,0,0,0,1.62,1.18,8.65,8.65,0,0,0,3.53.85,11,11,0,0,0,5.24-.93C300.93,168.37,294.49,160,294.49,160Z"/><path class="cls-9" d="M112.16,117.38S198,184.92,287.78,207.66c0,0,3.78-4.34,3-7.11,0,0-11.54-9.83-10.16-11.37s-2.08-3.59-5.16-5.84S199,143.58,197.91,144,112.16,117.38,112.16,117.38Z"/><path class="cls-10" d="M99.11,103.12s25.55-35.48,42.45-38.94c0,0,65.87,56.16,145.62,76.35,0,0,18.84,33,3.57,60C290.75,200.55,130,150,99.11,103.12Z"/><path class="cls-10" d="M141.56,64.18s-15.47-6.1-21.11,14.09c0,0-11.22-5.08-10.41,11.15,0,0-19.61,3.47-10.92,13.7"/><path class="cls-8" d="M120.44,78.27s51.28,53.54,119.74,70.91c0,0-78.25-31.47-117.85-76C122.33,73.13,120.68,74.65,120.44,78.27Z"/><path class="cls-8" d="M110,89.42s34.93,35.93,61.74,45.5c0,0-45.67-15.94-66.69-44.16Z"/><path class="cls-10" d="M287.18,140.53s14.52,1.32,5.45,12.75c0,0,9.25,2.84,2.39,8.57,0,0-8,.86-7.84,0s-3.33-12.67-3.33-12.67Z"/><path class="cls-9" d="M295,161.85c6.87-5.73-2.39-8.57-2.39-8.57,9.07-11.43-5.45-12.75-5.45-12.75-7.13-1.8-14.15-3.9-21-6.21.11,1.06.22,2.13.34,3.19a156.07,156.07,0,0,1-1.85,48.32c-.36,1.82-.7,3.68-1,5.56,16.41,5.8,27.12,9.17,27.12,9.17,7.33-13,6.8-27.29,4.27-38.7Z"/><path class="cls-8" d="M292.63,153.28s-10.5,5.41-30.85-1.9c0,0,20,10.63,34.94,4.38Z"/><path class="cls-7" d="M300.5,165.74s1.33-56,59.64-40.79C360.14,124.95,365.34,164.78,300.5,165.74Z"/><path class="cls-7" d="M301,169.74s44.23-15.49,49.55,34.64C350.5,204.38,320.85,220.21,301,169.74Z"/><path class="cls-8" d="M304.33,171.47s18.13,3.17,26,14.6C330.37,186.07,315.75,176.55,304.33,171.47Z"/></g></g></svg>