<svg xmlns="http://www.w3.org/2000/svg" xmlns:xlink="http://www.w3.org/1999/xlink" viewBox="0 0 370 350"><defs><style>.cls-1,.cls-13,.cls-29{fill:none;}.cls-2{isolation:isolate;}.cls-3,.cls-4{fill:#27aae1;}.cls-24,.cls-3{opacity:0.2;}.cls-5{opacity:0.19;}.cls-6{fill:#fff;}.cls-7{fill:#efd46d;}.cls-8{fill:#a7aaac;}.cls-9{fill:#d1d3d4;}.cls-10{fill:#ed2224;}.cls-11{fill:#412512;}.cls-12{clip-path:url(#clip-path);}.cls-13{stroke:#be9d34;stroke-width:1.12px;}.cls-13,.cls-29{stroke-miterlimit:10;}.cls-14{fill:#603913;}.cls-15,.cls-24{fill:#231f20;mix-blend-mode:multiply;}.cls-15{opacity:0.1;}.cls-16{fill:#867f71;}.cls-17{fill:#3f5225;}.cls-18{fill:#e73e32;}.cls-19{fill:#9c2723;}.cls-20{fill:#c49a6c;}.cls-21{fill:#799e40;}.cls-22{fill:#85b840;}.cls-23{fill:#51692f;}.cls-25{fill:#8cc540;}.cls-26{clip-path:url(#clip-path-2);}.cls-27{fill:#e7e2d8;}.cls-28{fill:#f69320;}.cls-29{stroke:#9b9791;stroke-width:1.06px;}.cls-30{fill:#9b9791;}</style><clipPath id="clip-path"><path class="cls-1" d="M332.12,307.79a7,7,0,0,0,0-2c-.74-6.07-5.38-11.88-12.22-14.44a14.55,14.55,0,0,0-4.65-.88c.69,0,.47-3.44.39-3.81-2.24-9.81-17.88-12.7-27.79-9.22-2.17.76-8,3.19-6.82,5.78a14.2,14.2,0,0,0-7.53-6.69,26.72,26.72,0,0,0-16.41-.85c-5.64,1.48-11.62,5.15-11.28,10.53-.78-3.59-5.22-6.29-9.67-6.38-7.7-.16-13.86,5.5-16.13,11.66-.51,1.39-5.66.2,1.71,4.42-3.15-3.07-9-1.74-11.9.87-3.9,3.49-2.18,9.59.44,13.26,1.55,2.17,4.74,2.67,7.5,3.28,3.06.68,6.2,1.1,9.33,1.5,6.44.81,12.95,1.28,19.45,1.62,8,.41,16,.57,24,.55h.64c17.71-.07,36.34-.29,53.54-4.17,1.13-.25,2.24-.54,3.34-.87C330.57,311.22,331.81,309.69,332.12,307.79Z"/></clipPath><clipPath id="clip-path-2"><circle class="cls-1" cx="185" cy="175" r="133.88"/></clipPath></defs><title>smaArtboard 1 copy</title><g class="cls-2"><g id="Layer_1" data-name="Layer 1"><circle class="cls-3" cx="185" cy="175" r="166.46"/><circle class="cls-4" cx="185" cy="175" r="133.88"/><g class="cls-5"><path class="cls-6" d="M237.77,158.08c12,13.38,37.72,28.16,37.51,62.05-.17,26.83-13.93,48.51-10.34,76.31a8,8,0,0,0,1.53,4.43c1.2,1.31,3.06,1.5,4.75,1.61l19.07,1.22C279,303,300,220.91,301.8,213.86c8-31.19,13.44-59.75-4-88-11.31-18.26-28.69-39.26-21-63.08,3.78-11.74,7.4-20.17-4.24-27.67-7.24-4.66-16.48-4.14-24.31-.85C198.72,55.07,206.63,122.6,237.77,158.08Z"/></g><path class="cls-7" d="M223.31,299.17c-2.76-6.67-8.58-14.33-16.64-17.43-3.17-1.22-7-1.31-9.85.54-2.49,1.6-3.38,4.28-1.85,6.61,4.14,6.31,13.44.66,15.7-3.86,3.13-6.26-.94-12.84-8.32-15.35a1.41,1.41,0,1,0-.89,2.67c5,1.68,8,6.12,6.58,10.46a9.23,9.23,0,0,1-3.59,4.69c-1.14.78-3.16,1.71-4.74,1.3-2.49-.64-2.58-2.8-1.08-4.09,4.27-3.68,10.83,1.72,13.67,4.3a30.37,30.37,0,0,1,7.77,10.9c.69,1.67,3.95.94,3.25-.75Z"/><path class="cls-7" d="M246.21,288.2c2.32-6.76-2.28-15.75-8.86-18.17-1.84-.68-2.64,2.27-.81,2.94,5,1.85,8.46,9.39,6.73,14.42-.64,1.86,2.31,2.66,2.94.81Z"/><path class="cls-7" d="M314.53,289.34c5.79-1.79,13.64-2.64,19.44-.39,2.28.88,4.08,2.58,4.13,4.72a4,4,0,0,1-3.64,3.86c-6.18,1-6.58-5.81-4.55-8.9,2.83-4.28,9.15-5.44,14.22-3.22,1.37.6,0,2.21-1.41,1.62-3.4-1.48-7.82-.85-10.11,1.78a5.9,5.9,0,0,0-1.55,3.78,3.1,3.1,0,0,0,1.28,2.75,2.15,2.15,0,0,0,3.27-1.37c.55-3.62-6.11-4.14-9.16-4.26a32.8,32.8,0,0,0-10.95,1.44c-1.45.45-2.44-1.36-1-1.82Z"/><ellipse class="cls-8" cx="272.31" cy="320.91" rx="57.07" ry="11.49" transform="translate(-1.3 1.11) rotate(-0.23)"/><ellipse class="cls-9" cx="271.79" cy="312.2" rx="77.38" ry="15.18" transform="translate(-1.27 1.11) rotate(-0.23)"/><ellipse class="cls-6" cx="271.79" cy="310.92" rx="77.38" ry="13.89" transform="translate(-1.26 1.11) rotate(-0.23)"/><path class="cls-7" d="M332.12,307.79a7,7,0,0,0,0-2c-.74-6.07-5.38-11.88-12.22-14.44a14.55,14.55,0,0,0-4.65-.88c.69,0,.47-3.44.39-3.81-2.24-9.81-17.88-12.7-27.79-9.22-2.17.76-8,3.19-6.82,5.78a14.2,14.2,0,0,0-7.53-6.69,26.72,26.72,0,0,0-16.41-.85c-5.64,1.48-11.62,5.15-11.28,10.53-.78-3.59-5.22-6.29-9.67-6.38-7.7-.16-15.63,5.24-16.13,11.66a5.66,5.66,0,0,0,1.71,4.42c-3.15-3.07-9-1.74-11.9.87-3.9,3.49-2.18,9.59.44,13.26,1.55,2.17,4.74,2.67,7.5,3.28,3.06.68,6.2,1.1,9.33,1.5,6.44.81,12.95,1.28,19.45,1.62,8,.41,16,.57,24,.55h.64c17.71-.07,36.34-.29,53.54-4.17,1.13-.25,2.24-.54,3.34-.87C330.57,311.22,331.81,309.69,332.12,307.79Z"/><path class="cls-9" d="M211,311.38s67.62,15.46,120.69-1.13C331.65,310.24,286.08,324.56,211,311.38Z"/><path class="cls-10" d="M264.08,287.58s11.33-5.72,20.88-.27l-5.84,3.19-10.37,1.9-4.66-2.59-.46-2.32"/><path class="cls-11" d="M277.58,279.52a.53.53,0,0,0-.65.06.33.33,0,0,0,.07.53.53.53,0,0,0,.65-.06A.33.33,0,0,0,277.58,279.52Z"/><g class="cls-12"><path class="cls-13" d="M213.34,316.61s.86-28,31.72-38.62l2.63.62s-33,23.94-28,41.4l15.61,1.46s-5-22.52,15.74-42.36"/><path class="cls-13" d="M237.92,298.88s30.66,2.57,41.2-8.39c0,0,15.5-2.61,15.5-2.16s-14.32,23.53-59,17.88"/><path class="cls-13" d="M297.18,290.42s-7.19,27.69-62.12,24"/><path class="cls-13" d="M271.18,311.61a9.17,9.17,0,0,1,1.49,8.67"/><path class="cls-13" d="M278.1,309.34s5.67,4.16,5,14"/><path class="cls-13" d="M284.29,306s11.34,7,9.38,17.91"/><path class="cls-13" d="M317.08,292c-4.88,10.79,3.39,25.41,3.39,25.41l-10.76,1.54c-8.46-15.67,2.81-25.88,2.81-25.88s-6.57.18-7.11.48C294,299.82,301.31,319,301.31,319"/><path class="cls-13" d="M332.79,297.45c-.73,0-9.13-2.21-17,4"/><path class="cls-13" d="M335.37,302.82s-11-1.3-18.59,4.56"/><path class="cls-13" d="M335.21,309.25s-11.68-1-17.14,2.61"/></g><ellipse class="cls-14" cx="230.64" cy="281.24" rx="7.34" ry="5.72" transform="matrix(1, 0, 0, 1, -1.14, 0.94)"/><path class="cls-15" d="M230.79,275.53h-.18c-4.05,0-7.33,2.59-7.32,5.75a5.33,5.33,0,0,0,2.68,4.4l.4,0S222.44,278.37,230.79,275.53Z"/><ellipse class="cls-11" cx="231.43" cy="278.9" rx="1.34" ry="1.09" transform="translate(-1.13 0.94) rotate(-0.23)"/><path class="cls-11" d="M233.16,281.16a.68.68,0,0,0,.82,0,.42.42,0,0,0,0-.67.68.68,0,0,0-.82,0A.42.42,0,0,0,233.16,281.16Z"/><path class="cls-11" d="M233.91,279a.45.45,0,0,0-.54,0,.28.28,0,0,0,.06.44.45.45,0,0,0,.54,0A.28.28,0,0,0,233.91,279Z"/><path class="cls-10" d="M319.92,291.39a14.55,14.55,0,0,0-4.65-.88c.69,0,.47-3.44.39-3.81-2.24-9.81-17.88-12.7-27.79-9.22-2.17.76-8,3.19-6.82,5.78a14.2,14.2,0,0,0-7.53-6.69,26.72,26.72,0,0,0-16.41-.85c-5.64,1.48-11.62,5.15-11.28,10.53-.78-3.59-5.22-6.29-9.67-6.38a18.25,18.25,0,0,0-12.5,4.79,4,4,0,0,0,3.37,2.67c2,.38,4.09-.19,6.07.47a11.34,11.34,0,0,1,4.51,3.29c1.61,1.68,3.68,3.86,6.58,3.81,3.42-.06,5.39-3,8.13-4.22a8.49,8.49,0,0,1,8.68.68c3.57,2.82,4.38,6.88,10.2,7.4a10.14,10.14,0,0,0,6.6-1.71c2.68-1.86,4.63-4.57,7.81-5.92a12.59,12.59,0,0,1,8.49-.35c2.74.87,4.5,2.9,7.07,4,5.9,2.49,15.43,1.52,19.1-3.23Z"/><ellipse class="cls-14" cx="273.68" cy="282.21" rx="8.76" ry="6.83" transform="matrix(1, 0, 0, 1, -1.14, 1.11)"/><path class="cls-15" d="M273.87,275.39h-.22c-4.84,0-8.74,3.09-8.73,6.86a6.36,6.36,0,0,0,3.2,5.25l.48,0S263.9,278.78,273.87,275.39Z"/><ellipse class="cls-11" cx="274.63" cy="279.41" rx="1.59" ry="1.31" transform="matrix(1, 0, 0, 1, -1.13, 1.12)"/><path class="cls-11" d="M276.69,282.1a.81.81,0,0,0,1,0,.5.5,0,0,0,0-.8.81.81,0,0,0-1,0A.5.5,0,0,0,276.69,282.1Z"/><ellipse class="cls-14" cx="312.12" cy="287.62" rx="5.56" ry="4.33" transform="translate(-1.17 1.27) rotate(-0.23)"/><path class="cls-15" d="M312.24,283.29h-.14c-3.07,0-5.55,2-5.54,4.35a4,4,0,0,0,2,3.33h.3S305.91,285.44,312.24,283.29Z"/><ellipse class="cls-11" cx="312.72" cy="285.85" rx="1.01" ry="0.83" transform="matrix(1, 0, 0, 1, -1.16, 1.27)"/><path class="cls-11" d="M314,287.55a.51.51,0,0,0,.62,0,.32.32,0,0,0,0-.51.51.51,0,0,0-.62,0A.32.32,0,0,0,314,287.55Z"/><path class="cls-11" d="M314.59,285.92a.34.34,0,0,0-.41,0,.21.21,0,0,0,0,.34.34.34,0,0,0,.41,0A.21.21,0,0,0,314.59,285.92Z"/><path class="cls-10" d="M316.79,293s-1.91-4.94-13-3.27l2.46,2.23Z"/><path class="cls-16" d="M21.41,298.61s-4.06,29.76,44.12,29.76c38.59,0,35.37-29.76,35.37-29.76Z"/><ellipse class="cls-6" cx="61.94" cy="296.89" rx="43.4" ry="9.37"/><ellipse class="cls-17" cx="61.94" cy="295.63" rx="34.62" ry="5.1"/><path class="cls-18" d="M47.42,282.5a12.5,12.5,0,0,0-20.18,14.75l.13.17C30.09,295.76,40.78,289.07,47.42,282.5Z"/><path class="cls-19" d="M29.25,284.64l2.8,1.47L35.68,288l-.17-4.09-.15-3.49A14.51,14.51,0,0,0,29.25,284.64Z"/><ellipse class="cls-20" cx="34.62" cy="286.12" rx="0.45" ry="1.2" transform="translate(-156.89 70.75) rotate(-34.74)"/><path class="cls-19" d="M29.24,296.26l3.05-1.85,3.81-3.06-4.56-1.77-3.89-1.51C27.52,292.34,28.39,294.65,29.24,296.26Z"/><ellipse class="cls-20" cx="33.55" cy="291.6" rx="1.43" ry="0.54" transform="translate(-55.54 11.92) rotate(-11.11)"/><path class="cls-19" d="M45.75,284.07l-2.94,2.58-4,2.91-.06-4.89-.05-4.18C42.79,281.87,44.54,282.72,45.75,284.07Z"/><ellipse class="cls-20" cx="39.99" cy="287.26" rx="1.43" ry="0.54" transform="translate(-225.6 170.73) rotate(-58.38)"/><path class="cls-18" d="M102,291.84a12.5,12.5,0,0,0-21.76-12.29l-.1.19C82.8,281.54,93.31,288.5,102,291.84Z"/><path class="cls-19" d="M92.58,276.18l-.18,3.16-.23,4.08,3.65-1.84L98.95,280A14.51,14.51,0,0,0,92.58,276.18Z"/><ellipse class="cls-20" cx="93.45" cy="281.68" rx="1.2" ry="0.45" transform="translate(-196.29 217.4) rotate(-59.14)"/><path class="cls-19" d="M82,281l2.94,2,4.36,2.21L89,280.31l-.23-4.17C84.86,277.78,83.12,279.53,82,281Z"/><ellipse class="cls-20" cx="88.01" cy="282.97" rx="0.54" ry="1.43" transform="translate(-147.95 103.7) rotate(-35.5)"/><path class="cls-19" d="M99.91,291l-3.57-1.62L92.06,287l4.43-2.08,3.78-1.77C100.7,287.37,100.65,289.31,99.91,291Z"/><ellipse class="cls-20" cx="94.63" cy="287.04" rx="0.54" ry="1.43" transform="translate(-202.03 344.83) rotate(-82.78)"/><path class="cls-21" d="M77.89,293.56s-7.42,10.36-5,12.06,9.07-8.12,9.07-8.12,7.64,12.76,13.26,13.32c0,0-5.23-11.06-8.57-13.23,0,0,15.37,10.69,18.08,6.5s-13.9-9.46-13.9-9.46,18.11.24,19-3.24-13.92-3.2-13.92-3.2,14.25-8.95,12.32-11.56-15.07,7.83-15.07,7.83S101,267.55,97.56,266s-9,17.7-9,17.7-.59-8.67-2.66-8.34-1.55,7.34-1.55,7.34-3.31-8.44-6.14-7.57,2.34,10.27,2.34,10.27L68.7,282.27l4.78,5.95Z"/><path class="cls-21" d="M78.27,293.36S90,290.33,96.4,288"/><path class="cls-22" d="M53.86,300.73s5,13.09,8.34,12-1.68-14.29-1.68-14.29,17.92,1.65,22.4-3.3c0,0-14.56-2.75-19-1.1,0,0,21.28-7.15,19-12.64s-19,6.59-19,6.59S76.76,271,74,267.66s-12.88,11-12.88,11,1.12-19.79-2.8-19.79-2.8,19.79-2.8,19.79-11.2-19.24-15.12-17,11.2,20.88,11.2,20.88-9-5.49-10.08-3.3,6.16,6.59,6.16,6.59S37,283,35.88,286.34s11.76,4.95,11.76,4.95l-10.73,7.87,8.54.84Z"/><path class="cls-22" d="M53.86,299s5.22-13.3,7.35-21"/><path class="cls-23" d="M66.25,299.7s7.05,1.67,8-1.43-3.41-5.73-3.41-5.73,5.11,3.82,6.32,2.39-1.46-6.21-1.46-6.21,4.13.24,6.32-1.91-9.49-7.16-9.49-7.16,12.65-3.58,12.16-6.44-8.27-1.91-8.27-1.91,10-7.87,8.27-10.74-12.4,10.5-12.4,10.5-1.7-10-4.13-9.31-1.46,13.13-1.46,13.13-4.14-8.59-6.32-8.11,1.95,14.08,1.95,14.08-3.4-6.68-5.84-4.77,1,9.79,1,9.79-7.72.9-8,4.74l2.14,9.58,9,1S65,303.76,66.25,299.7Z"/><path class="cls-18" d="M47.42,282.5a12.5,12.5,0,0,0-20.18,14.75l.13.17C30.09,295.76,40.78,289.07,47.42,282.5Z"/><path class="cls-19" d="M29.25,284.64l2.8,1.47L35.68,288l-.17-4.09-.15-3.49A14.51,14.51,0,0,0,29.25,284.64Z"/><ellipse class="cls-20" cx="34.62" cy="286.12" rx="0.45" ry="1.2" transform="translate(-156.89 70.75) rotate(-34.74)"/><path class="cls-19" d="M29.24,296.26l3.05-1.85,3.81-3.06-4.56-1.77-3.89-1.51C27.52,292.34,28.39,294.65,29.24,296.26Z"/><ellipse class="cls-20" cx="33.55" cy="291.6" rx="1.43" ry="0.54" transform="translate(-55.54 11.92) rotate(-11.11)"/><path class="cls-19" d="M45.75,284.07l-2.94,2.58-4,2.91-.06-4.89-.05-4.18C42.79,281.87,44.54,282.72,45.75,284.07Z"/><ellipse class="cls-20" cx="39.99" cy="287.26" rx="1.43" ry="0.54" transform="translate(-225.6 170.73) rotate(-58.38)"/><path class="cls-21" d="M46.25,299.88s-4.22,12-7,11,1.41-12,1.41-12-15,1.38-18.77-2.76c0,0,12.2-2.3,16-.92,0,0-17.83-6-16-10.59s16,5.52,16,5.52-10.79-14.27-8.44-17,10.79,9.21,10.79,9.21-.94-16.57,2.35-16.57,2.35,16.57,2.35,16.57,9.38-16.11,12.67-14.27-9.38,17.5-9.38,17.5,7.51-4.6,8.45-2.76-5.16,5.52-5.16,5.52,8.92-2.3,9.85.46S51.41,293,51.41,293l9.26,8.19-7.42-.89Z"/><path class="cls-21" d="M46.2,299.46S41.82,288.32,40,281.88"/><path class="cls-18" d="M103.56,290.55a16.63,16.63,0,0,0-33.25.82c0,.1,0,.19,0,.29C74.56,291.9,91.32,292.69,103.56,290.55Z"/><path class="cls-19" d="M82.08,279.11l2,3.73,2.53,4.82,2.91-4.6L92,279.13A19.31,19.31,0,0,0,82.08,279.11Z"/><ellipse class="cls-20" cx="86.82" cy="284.81" rx="0.6" ry="1.59"/><path class="cls-19" d="M73.26,291.8l4.74.3,6.49-.46-3.64-5.39-3.11-4.61C74.34,286.21,73.55,289.4,73.26,291.8Z"/><ellipse class="cls-20" cx="81.49" cy="289.98" rx="0.72" ry="1.9" transform="translate(-216.84 248.36) rotate(-66.36)"/><path class="cls-19" d="M100.55,291l-5.18.59-6.53.18,3.64-5.39,3.11-4.61C99,286.35,100.26,288.6,100.55,291Z"/><ellipse class="cls-20" cx="91.84" cy="290.12" rx="1.9" ry="0.72" transform="translate(-108.63 61.17) rotate(-23.64)"/><ellipse class="cls-18" cx="261.36" cy="110.26" rx="24.64" ry="27.11" transform="translate(138.12 365.76) rotate(-87.12)"/><path class="cls-24" d="M287.22,117.89c-11.26,10.74-28.8,13.23-39.14,13.74a29.21,29.21,0,0,0,12,3.24C272.68,135.5,283.62,128.27,287.22,117.89Z"/><polygon class="cls-25" points="259.27 93.67 256.5 108.47 269.73 115.68 254.79 117.62 252.01 132.43 245.56 118.82 230.62 120.76 241.56 110.41 235.11 96.8 248.33 104.01 259.27 93.67"/><path class="cls-6" d="M248.08,139.75s14.6,17.69,27.15,0C275.23,139.75,265.54,170.09,248.08,139.75Z"/><path class="cls-6" d="M252.39,161.42s9.65,11.69,18,0C270.34,161.42,263.93,181.48,252.39,161.42Z"/><g class="cls-26"><path class="cls-6" d="M295.6,231.68c2.62-1.45,6.58-3.63,7.83-7.82a7.18,7.18,0,0,0-.91-6.64c-1.47-2-3.83-3-7-3s-7.71,1-13.39,3c-8.76,3.13-14.83,7.35-21.15,12.48-5.29-6-10.9-11-16.68-11a9,9,0,0,0-4.82,1.36l-.13.08a7.69,7.69,0,0,0-3.37,8.95c1.11,3.68,5,7.24,9.33,10a83.19,83.19,0,0,1-12.09,3,86,86,0,0,1-14.67,1.25,93.94,93.94,0,0,1-23.28-3c.71-.41,1.41-.82,2.11-1.26s1.49-.91,2.24-1.44l.24-.16a4.84,4.84,0,0,0,.42-.32l.56-.42a42.35,42.35,0,0,0,5.84-5.43,4.65,4.65,0,0,0,5.44-.45,56.57,56.57,0,0,0,7.82-8.62,4.65,4.65,0,0,0,5-1.28,75.06,75.06,0,0,0,13.34-23,4.66,4.66,0,0,0,.73-.38,21.44,21.44,0,0,0,8.61-13.09A24.53,24.53,0,0,0,247,172.3l.37-.18a4.65,4.65,0,0,0,2.28-5.34,42.19,42.19,0,0,0-13.74-19.57,4.65,4.65,0,0,0-.55-5.76,40.83,40.83,0,0,0-19.1-10.09l-3.46-10.53,1.81.24a4.65,4.65,0,0,0,5-6.09c-.47-1.4-2.29-4.68-9.25-7.81C212.5,93.86,207,76.82,206.74,76a4.65,4.65,0,0,0-4.42-3.2H202c-10.91.75-20.06,3.57-27.27,8.38-.88-1.62-1.72-3.25-2.54-4.84-1.23-2.39-2.48-4.83-3.91-7.27a20.55,20.55,0,0,0,2.39-.78,22,22,0,0,0,10.9-9.39C185.85,51,183.7,38.87,177,32.88c-3.94-3.51-9.94-5.61-16-5.61a24.34,24.34,0,0,0-3.53.25,17.1,17.1,0,0,0-3.59,1,31.44,31.44,0,0,0-4.45-15.06C146.31,8.7,142,6,136.78,5.61q-.84-.06-1.63-.06a16.7,16.7,0,0,0-13.6,6.4,26.94,26.94,0,0,0-5,12.69,19,19,0,0,0-2.7-1.56,18.28,18.28,0,0,0-7.91-1.77,21.77,21.77,0,0,0-17.83,9.86,18.22,18.22,0,0,0-1.51,18A22.13,22.13,0,0,0,70,61.72l-.1.24,0,0a19.25,19.25,0,0,0-1.07,2.77l-.12.41c-.13.44-.24.86-.34,1.26l0,.14-.14.6a21.36,21.36,0,0,0-.39,6.6A24.75,24.75,0,0,0,76,90a20.06,20.06,0,0,0,12.25,5.42,22.37,22.37,0,0,0,3.53.28c.36,0,.74,0,1.15,0l.28,0c.32,0,.64,0,1-.08l1.72,8c-1.78-.13-3.59-.21-5.44-.21a55.83,55.83,0,0,0-25.12,5.51A4.65,4.65,0,0,0,62.75,113c0,1.48.52,14.78,21.15,42-5,5.42-14.61,17.32-16.16,29.62a4.65,4.65,0,0,0,3.22,5l.22.06c-1.41,7.3-1.41,15.19,1.89,22.24a9.91,9.91,0,0,0-4.12-.86c-5.18,0-10.87,3.42-16.42,7.6C47.4,212.4,42.32,207,34.34,202.14c-6.56-4-11.45-6-14.95-6A7.1,7.1,0,0,0,14,198.37a7.39,7.39,0,0,0-1.78,5.85c.36,4.36,3.8,7.31,6.07,9.26l.34.3c1,.89,2.08,1.72,3.11,2.5l-.44.11c-3.23.82-10.81,2.75-11.38,8.84a7,7,0,0,0,1.62,5.15c2.52,3,7.19,3.71,9.07,3.87.57,0,1.16.07,1.76.07a35.36,35.36,0,0,0,6.67-.77,7,7,0,0,0,0,.9c.16,1.64,1.09,4.66,5.53,6.34a9.88,9.88,0,0,0,3.55.64c3.68,0,7.12-1.92,9.79-3.86a89.19,89.19,0,0,0,9.84,6.66h0c.94.55,1.9,1.1,2.92,1.65l.08,0a99.57,99.57,0,0,0,10.38,4.87,104.83,104.83,0,0,0,39.21,7.39h1c1.18,0,2.37-.06,3.56-.1a18.34,18.34,0,0,0,.2,5.67,29,29,0,0,1,.43,3.17,4.65,4.65,0,0,0-3.93,8.25,12.36,12.36,0,0,0,2.71,1.46,27.15,27.15,0,0,0,11.13,2.67h0a16.78,16.78,0,0,0,11.08-3.93l1.89,47a4.65,4.65,0,0,0,4.63,4.46l34.63.1a4.65,4.65,0,0,0,4.65-4.74L181,252.27a118.16,118.16,0,0,0,14.33,4.12,109,109,0,0,0,23.18,2.54h0a101.73,101.73,0,0,0,17.68-1.53,97.45,97.45,0,0,0,21.3-6.31l.05,0c1.53-.65,2.89-1.29,4.09-1.88,2.62,2.89,6.35,6,10.87,6h0a9.65,9.65,0,0,0,1.52-.12c4.7-.74,6.23-3.5,6.73-5.08a6.83,6.83,0,0,0,.21-.88,30.66,30.66,0,0,0,8.11,2.41,20.05,20.05,0,0,0,2.39.14c8.49,0,9.74-5.19,9.92-6.78.69-6.08-6.33-9.52-9.36-11l-.37-.18c1.17-.55,2.38-1.15,3.56-1.81ZM102.79,242.31l.11.07h-.14ZM77.53,222.39a7.53,7.53,0,0,0,.52-4.05,4.66,4.66,0,0,0,1.61.3c2.48,7.75,6.4,16.15,12.51,22.24A87,87,0,0,1,66,231C71.08,229.15,75.91,226.26,77.53,222.39Z"/><path class="cls-27" d="M161.31,65.94l-.22.08s6.19-1.31,7.75-2a17.37,17.37,0,0,0,8.64-7.33c3.28-6.06,1.57-15.76-3.6-20.36-4-3.57-10.57-5-15.8-4.23-3.37.5-8.92,3.56-10.18,7,3.27-8.84.75-28-11.46-28.85-17.5-1.27-17,22.86-14.38,34-1.59-6.68-3.47-13.8-10.21-17-7.15-3.4-15.67.11-19.87,6.45-5,7.48-1.72,15.59,4.72,21C78,48.33,65.06,69.69,77,84.26a16,16,0,0,0,11.84,6.57c2.33.41,6.12.46,8.87-1l6.73,30.52s8.48,5.25,37.94-6.08c24-9.22,31.65,11.85,34.09-20.47-1.9-3.39-3.85-6.75-5.72-10.16-2.92-5.33-5.16-10.46-8.49-15.36A5,5,0,0,1,161.31,65.94Z"/><path class="cls-24" d="M101.72,84.36C79.46,90.18,75.11,70,74.06,64a19.89,19.89,0,0,0-1.34,4.14,16.6,16.6,0,0,0-.3,5.16c.79,8.58,7.49,16.75,16.39,17.48,2.33.41,6.12.46,8.87-1L104,119.15s2.22,1.3,5.53-2.13Z"/><path class="cls-24" d="M161.31,65.94s-3.54,2.53-9.28,1.35a13.15,13.15,0,0,0,11,2Z"/><path class="cls-28" d="M136,245.36s-2.4,13.11,7.19,8.14-2.75-11.38-2.75-11.38Z"/><path class="cls-28" d="M135.51,247.46s-18.53,1-15.84,15.44-5.31,8.52-5.31,8.52,24.63,15.09,26-20Z"/><path class="cls-28" d="M144.56,244s12.5-13.84,21.87-2.64,9.9,1.23,9.9,1.23-4,28.79-31.77,7.76Z"/><path class="cls-27" d="M111.3,253.54a122.22,122.22,0,0,0,36.83-6.25l-1.91-5.89c-60.5,19.66-95.48-15.66-95.83-16l-4.46,4.3c.39.4,9.65,9.88,26.94,16.82A100.63,100.63,0,0,0,111.3,253.54Z"/><path class="cls-28" d="M63.34,241.45c-.15.11-.3.24-.45.36C52,235.92,46.23,230,45.93,229.67l4.46-4.3c.14.14,5.86,5.92,16.56,11.51Q65.14,239.16,63.34,241.45Z"/><path class="cls-27" d="M196.32,251.85a100.61,100.61,0,0,0,39.06,1c18.34-3.25,29.35-10.63,29.81-10.95l-3.48-5.12c-.1.07-10.58,7.05-27.71,10-15.76,2.74-40.6,2.53-69.37-13.95l-3.08,5.37A122.23,122.23,0,0,0,196.32,251.85Z"/><path class="cls-28" d="M252,241.59a60.28,60.28,0,0,0,9.68-4.85l3.48,5.12a61,61,0,0,1-9.49,4.93Q253.88,244.18,252,241.59Z"/><path class="cls-18" d="M262.64,243.1c2.3,3,6.37,8.07,10.65,7.38,8.27-1.31-2.21-10.64-5.11-13.46a100.11,100.11,0,0,0,13.55,7.39,29.88,29.88,0,0,0,7.89,2.51c2,.24,6.81.31,7.13-2.55s-4.72-5.29-6.78-6.3a27.49,27.49,0,0,0-19.39-1.62c4.68-1.42,9.33-2.94,13.89-4.74a70.93,70.93,0,0,0,8.47-3.88c2.1-1.17,5.28-2.78,6-5.3,2.12-7.13-12.94-1.69-15.3-.85-9.25,3.31-15.29,7.92-22.76,14.17l-.53.44c-3.11-3.73-12.66-15.83-18.48-12.23C234.5,229,254,240,259.3,239.74Z"/><polygon class="cls-27" points="177.68 322.31 175.82 224.81 139.17 225.64 143.06 322.21 177.68 322.31"/><line class="cls-29" x1="161.31" y1="261.4" x2="160.64" y2="278.04"/><path class="cls-28" d="M116.46,213.06s12.44,34.92,44.78,51c0,0,13.59-6,13.58-22.07s-.42-1.09-.42-1.09Z"/><path class="cls-18" d="M85.33,167s-19,29.35-5.64,47c0,0-1.7-10.5.54-15.31.38,3.82,3.52,30.71,18.37,41.62,0,0-5.9-12.17-6.67-18,0,0,8.24,23.29,44,26.5a42.3,42.3,0,0,1-15.52-9.67c8.21,5.54,42.54,15.87,74.53-4,.55-.32,1.24-.74,2-1.29l.28-.19h0l.76-.56c3.79-2.89,9.22-8.31,13.29-17.63,0,0-.87,10.2-2.22,11.92,0,0,11.91-10.25,13.4-21.86,0,0-.31,10.3-1,12.39,0,0,12.68-14.18,14.77-31.3,0,0,.77,5.91.24,7.12,0,0,14.53-9.38,1.64-29.23a10,10,0,0,1,7,3.46s-4.28-15.42-22.09-23.2c0,0,6.76-1.2,8.94-.14a36.49,36.49,0,0,0-19.31-9.27L206,115.23l9.17,1.23s-1.1-3.28-10.29-6.44c4-12.3-2.61-32.56-2.61-32.56-27.36,1.87-35.2,17.06-37.13,22.42a57.82,57.82,0,0,0-22.11,5.18A24.47,24.47,0,0,1,152,99.4a39.73,39.73,0,0,0-29.83,15.32s-30.25-13.84-54.73-1.64c0,0-.09,13.35,22.64,42.31,0,0-15.81,15-17.69,29.86C72.36,185.24,79.95,170.81,85.33,167Zm-4.51,31.19-.35,0a5.1,5.1,0,0,1,.33-.5S80.81,197.85,80.82,198.16Z"/><g id="_Mouth" data-name="+Mouth"><path class="cls-6" d="M156.33,220.36a72.76,72.76,0,0,0,25.3-5.12.61.61,0,0,0-.49-1.11c-.24.11-24.45,10.47-44,1.12-10.6-5.07-18-15-21.93-29.43a.61.61,0,1,0-1.17.32c4.05,14.82,11.65,25,22.59,30.21A44.67,44.67,0,0,0,156.33,220.36Z"/></g><path class="cls-6" d="M192.35,172.21c-9.13,5,13.62,9.17,13.62,9.17s4.25-7.26,5-13.35S201.47,167.24,192.35,172.21Z"/><path class="cls-6" d="M109.85,122.64s-19.77-10.1-32.11-3.77c0,0,6.77,17.23,16.91,23.67C94.64,142.54,100.84,130.14,109.85,122.64Z"/><path class="cls-6" d="M195.91,86c-15.6,2.92-23.59,15.83-21.09,16.43,5.79,1.4,21.34,10.75,21.34,10.75C202.31,105,195.91,86,195.91,86Z"/><path class="cls-6" d="M185.1,153.76c-3.71-14.11-18.56-32-30.28-29S139,150.72,142.68,164.83s16.21,23.07,27.92,20S188.81,167.87,185.1,153.76Z"/><path class="cls-6" d="M104.42,190.72s6.37-19.27,20.43-5.15C124.86,185.57,112,177.14,104.42,190.72Z"/><path class="cls-18" d="M48.17,231.41c-2.85,2.43-7.88,6.59-11.94,5-7.82-3,4.34-10,7.76-12.13a100.11,100.11,0,0,1-14.78,4.46,29.88,29.88,0,0,1-8.24.84c-2-.17-6.73-1.09-6.46-4s5.7-4.21,7.93-4.78a27.49,27.49,0,0,1,19.31,2.39c-4.29-2.34-8.53-4.79-12.62-7.48a70.93,70.93,0,0,1-7.5-5.53c-1.81-1.57-4.6-3.8-4.82-6.43-.62-7.41,13,1,15.15,2.3,8.38,5.13,13.35,10.88,19.38,18.53l.43.54c3.81-3,15.64-12.9,20.59-8.19,6.24,6.34-15.08,13.17-20.23,11.79Z"/><circle class="cls-30" cx="165.41" cy="266.81" r="1.7" transform="translate(-132.29 366.45) rotate(-76.71)"/><circle class="cls-30" cx="156.75" cy="266.51" r="1.7" transform="translate(-138.66 357.79) rotate(-76.71)"/><ellipse class="cls-18" cx="155.49" cy="167.56" rx="3.57" ry="8.55" transform="translate(-37.54 45.11) rotate(-14.75)"/><ellipse class="cls-6" cx="194.27" cy="154.94" rx="3.57" ry="8.55" transform="translate(-33.05 54.57) rotate(-14.75)"/></g><path class="cls-6" d="M295.6,231.68c2.62-1.45,6.58-3.63,7.83-7.82a7.18,7.18,0,0,0-.91-6.64c-1.47-2-3.83-3-7-3s-7.71,1-13.39,3c-8.76,3.13-14.83,7.35-21.15,12.48-5.29-6-10.9-11-16.68-11a9,9,0,0,0-4.82,1.36l-.13.08a7.69,7.69,0,0,0-3.37,8.95c1.11,3.68,5,7.24,9.33,10a83.2,83.2,0,0,1-12.09,3,86.05,86.05,0,0,1-14.67,1.25,93.94,93.94,0,0,1-23.28-3c.71-.41,1.41-.82,2.11-1.26s1.49-.91,2.24-1.44l.24-.16a4.89,4.89,0,0,0,.42-.32l.56-.42a42.34,42.34,0,0,0,5.84-5.43,4.65,4.65,0,0,0,5.44-.45,56.57,56.57,0,0,0,7.82-8.62,4.65,4.65,0,0,0,5-1.28,75.06,75.06,0,0,0,13.34-23,4.66,4.66,0,0,0,.73-.38,21.44,21.44,0,0,0,8.61-13.09A24.53,24.53,0,0,0,247,172.3l.37-.18a4.65,4.65,0,0,0,2.28-5.34,42.19,42.19,0,0,0-13.74-19.57,4.65,4.65,0,0,0-.55-5.76,40.83,40.83,0,0,0-19.1-10.09l-3.46-10.53,1.81.24a4.65,4.65,0,0,0,5-6.09c-.47-1.4-2.29-4.68-9.25-7.81C212.5,93.86,207,76.82,206.74,76a4.65,4.65,0,0,0-4.42-3.2H202c-10.91.75-20.06,3.57-27.27,8.38-.88-1.62-1.72-3.25-2.54-4.84-1.23-2.39-2.48-4.83-3.91-7.27a20.52,20.52,0,0,0,2.39-.78,22,22,0,0,0,10.9-9.39C185.85,51,183.7,38.87,177,32.88c-3.94-3.51-9.94-5.61-16-5.61a24.34,24.34,0,0,0-3.53.25,17.11,17.11,0,0,0-3.59,1,31.44,31.44,0,0,0-4.45-15.06C146.31,8.7,142,6,136.78,5.61q-.84-.06-1.63-.06a16.7,16.7,0,0,0-13.6,6.4,26.94,26.94,0,0,0-5,12.69,19,19,0,0,0-2.7-1.56,18.28,18.28,0,0,0-7.91-1.77,21.77,21.77,0,0,0-17.83,9.86,18.22,18.22,0,0,0-1.51,18A22.13,22.13,0,0,0,70,61.72l-.1.24,0,0a19.26,19.26,0,0,0-1.07,2.77l-.12.41c-.13.44-.24.86-.34,1.26l0,.14-.14.6a21.35,21.35,0,0,0-.39,6.6A24.75,24.75,0,0,0,76,90a20.06,20.06,0,0,0,12.25,5.42,22.38,22.38,0,0,0,3.53.28c.36,0,.74,0,1.15,0l.28,0c.32,0,.64,0,1-.08l1.72,8c-1.78-.13-3.59-.21-5.44-.21a55.83,55.83,0,0,0-25.12,5.51A4.65,4.65,0,0,0,62.75,113c0,1.48.52,14.78,21.15,42-5,5.42-14.61,17.32-16.16,29.62a4.65,4.65,0,0,0,3.22,5l.22.06c-1.41,7.3-1.41,15.19,1.89,22.24a9.91,9.91,0,0,0-4.12-.86c-5.18,0-10.87,3.42-16.42,7.6C47.4,212.4,42.32,207,34.34,202.14c-6.56-4-11.45-6-14.95-6A7.1,7.1,0,0,0,14,198.37a7.39,7.39,0,0,0-1.78,5.85c.36,4.36,3.8,7.31,6.07,9.26l.34.3c1,.89,2.08,1.72,3.11,2.5l-.44.11c-3.23.82-10.81,2.75-11.38,8.84a7,7,0,0,0,1.62,5.15c2.52,3,7.19,3.71,9.07,3.87.57,0,1.16.07,1.76.07a35.36,35.36,0,0,0,6.67-.77,7,7,0,0,0,0,.9c.16,1.64,1.09,4.66,5.53,6.34a9.89,9.89,0,0,0,3.55.64c3.68,0,7.12-1.92,9.79-3.86a89.17,89.17,0,0,0,9.84,6.66h0c.94.55,1.9,1.1,2.92,1.65l.08,0a99.55,99.55,0,0,0,10.38,4.87,104.83,104.83,0,0,0,39.21,7.39h1c1.18,0,2.37-.06,3.56-.1a18.34,18.34,0,0,0,.2,5.67,28.94,28.94,0,0,1,.43,3.17,4.65,4.65,0,0,0-3.93,8.25,12.36,12.36,0,0,0,2.71,1.46,27.15,27.15,0,0,0,11.13,2.67h0a16.78,16.78,0,0,0,11.08-3.93l.55,13.65a200.38,200.38,0,0,0,32.6,8.71c4,.71,8.12,1.33,12.23,1.8l-.9-47.27a118.15,118.15,0,0,0,14.33,4.12,109,109,0,0,0,23.18,2.54h0a101.72,101.72,0,0,0,17.68-1.53,97.45,97.45,0,0,0,21.3-6.31l.05,0c1.53-.65,2.89-1.29,4.09-1.88,2.62,2.89,6.35,6,10.87,6h0a9.64,9.64,0,0,0,1.52-.12c4.7-.74,6.23-3.5,6.73-5.07a6.8,6.8,0,0,0,.21-.88,30.65,30.65,0,0,0,8.11,2.41,20.07,20.07,0,0,0,2.39.14c8.49,0,9.74-5.19,9.92-6.78.69-6.08-6.33-9.52-9.36-11l-.37-.18c1.17-.55,2.38-1.15,3.56-1.81ZM66,231c5.06-1.88,9.89-4.77,11.51-8.64a7.53,7.53,0,0,0,.52-4.05,4.66,4.66,0,0,0,1.61.3c2.48,7.75,6.4,16.15,12.51,22.24A87,87,0,0,1,66,231Z"/><path class="cls-6" d="M102.79,242.31l.11.07h-.14Z"/><path class="cls-27" d="M161.31,65.94l-.22.08s6.19-1.31,7.75-2a17.37,17.37,0,0,0,8.64-7.33c3.28-6.06,1.57-15.76-3.6-20.36-4-3.57-10.57-5-15.8-4.23-3.37.5-8.92,3.56-10.18,7,3.27-8.84.75-28-11.46-28.85-17.5-1.27-17,22.86-14.38,34-1.59-6.68-3.47-13.8-10.21-17-7.15-3.4-15.67.11-19.87,6.45-5,7.48-1.72,15.59,4.72,21C78,48.33,65.06,69.69,77,84.26a16,16,0,0,0,11.84,6.57c2.33.41,6.12.46,8.87-1l6.73,30.52s8.48,5.25,37.94-6.08c24-9.22,31.65,11.85,34.09-20.47-1.9-3.39-3.85-6.75-5.72-10.16-2.92-5.33-5.16-10.46-8.49-15.36A5,5,0,0,1,161.31,65.94Z"/><path class="cls-24" d="M101.72,84.36C79.46,90.18,75.11,70,74.06,64a19.89,19.89,0,0,0-1.34,4.14,16.6,16.6,0,0,0-.3,5.16c.79,8.58,7.49,16.75,16.39,17.48,2.33.41,6.12.46,8.87-1L104,119.15s2.22,1.3,5.53-2.13Z"/><path class="cls-24" d="M161.31,65.94s-3.54,2.53-9.28,1.35a13.15,13.15,0,0,0,11,2Z"/><path class="cls-28" d="M136,245.36s-2.4,13.11,7.19,8.14-2.75-11.38-2.75-11.38Z"/><path class="cls-28" d="M135.51,247.46s-18.53,1-15.84,15.44-5.31,8.52-5.31,8.52,24.63,15.09,26-20Z"/><path class="cls-28" d="M144.56,244s12.5-13.84,21.87-2.64,9.9,1.23,9.9,1.23-4,28.79-31.77,7.76Z"/><path class="cls-27" d="M111.3,253.54a122.22,122.22,0,0,0,36.83-6.25l-1.91-5.89c-60.5,19.66-95.48-15.66-95.83-16l-4.46,4.3c.39.4,9.65,9.88,26.94,16.82A100.63,100.63,0,0,0,111.3,253.54Z"/><path class="cls-28" d="M63.34,241.45c-.15.11-.3.24-.45.36C52,235.92,46.23,230,45.93,229.67l4.46-4.3c.14.14,5.86,5.92,16.56,11.51Q65.14,239.16,63.34,241.45Z"/><path class="cls-27" d="M196.32,251.85a100.61,100.61,0,0,0,39.06,1c18.34-3.25,29.35-10.63,29.81-10.95l-3.48-5.12c-.1.07-10.58,7.05-27.71,10-15.76,2.74-40.6,2.53-69.37-13.95l-3.08,5.37A122.23,122.23,0,0,0,196.32,251.85Z"/><path class="cls-28" d="M252,241.59a60.28,60.28,0,0,0,9.68-4.85l3.48,5.12a61,61,0,0,1-9.49,4.93Q253.88,244.18,252,241.59Z"/><path class="cls-18" d="M262.64,243.1c2.3,3,6.37,8.07,10.65,7.38,8.27-1.31-2.21-10.64-5.11-13.46a100.11,100.11,0,0,0,13.55,7.39,29.88,29.88,0,0,0,7.89,2.51c2,.24,6.81.31,7.13-2.55s-4.72-5.29-6.78-6.3a27.49,27.49,0,0,0-19.39-1.62c4.68-1.42,9.33-2.94,13.89-4.74a70.93,70.93,0,0,0,8.47-3.88c2.1-1.17,5.28-2.78,6-5.3,2.12-7.13-12.94-1.69-15.3-.85-9.25,3.31-15.29,7.92-22.76,14.17l-.53.44c-3.11-3.73-12.66-15.83-18.48-12.23C234.5,229,254,240,259.3,239.74Z"/><path class="cls-27" d="M169.67,297.74q3.76.66,7.57,1.2l-1.41-74.12-36.65.82,2.62,65A198.81,198.81,0,0,0,169.67,297.74Z"/><line class="cls-29" x1="161.31" y1="261.4" x2="160.64" y2="278.04"/><path class="cls-28" d="M116.46,213.06s12.44,34.92,44.78,51c0,0,13.59-6,13.58-22.07s-.42-1.09-.42-1.09Z"/><path class="cls-18" d="M85.33,167s-19,29.35-5.64,47c0,0-1.7-10.5.54-15.31.38,3.82,3.52,30.71,18.37,41.62,0,0-5.9-12.17-6.67-18,0,0,8.24,23.29,44,26.5a42.3,42.3,0,0,1-15.52-9.67c8.21,5.54,42.54,15.87,74.53-4,.55-.32,1.24-.74,2-1.29l.28-.19h0l.76-.56c3.79-2.89,9.22-8.31,13.29-17.63,0,0-.87,10.2-2.22,11.92,0,0,11.91-10.25,13.4-21.86,0,0-.31,10.3-1,12.39,0,0,12.68-14.18,14.77-31.3,0,0,.77,5.91.24,7.12,0,0,14.53-9.38,1.64-29.23a10,10,0,0,1,7,3.46s-4.28-15.42-22.09-23.2c0,0,6.76-1.2,8.94-.14a36.49,36.49,0,0,0-19.31-9.27L206,115.23l9.17,1.23s-1.1-3.28-10.29-6.44c4-12.3-2.61-32.56-2.61-32.56-27.36,1.87-35.2,17.06-37.13,22.42a57.82,57.82,0,0,0-22.11,5.18A24.47,24.47,0,0,1,152,99.4a39.73,39.73,0,0,0-29.83,15.32s-30.25-13.84-54.73-1.64c0,0-.09,13.35,22.64,42.31,0,0-15.81,15-17.69,29.86C72.36,185.24,79.95,170.81,85.33,167Zm-4.51,31.19-.35,0a5.1,5.1,0,0,1,.33-.5S80.81,197.85,80.82,198.16Z"/><g id="_Mouth-2" data-name="+Mouth"><path class="cls-6" d="M156.33,220.36a72.76,72.76,0,0,0,25.3-5.12.61.61,0,0,0-.49-1.11c-.24.11-24.45,10.47-44,1.12-10.6-5.07-18-15-21.93-29.43a.61.61,0,1,0-1.17.32c4.05,14.82,11.65,25,22.59,30.21A44.67,44.67,0,0,0,156.33,220.36Z"/></g><path class="cls-6" d="M192.35,172.21c-9.13,5,13.62,9.17,13.62,9.17s4.25-7.26,5-13.35S201.47,167.24,192.35,172.21Z"/><path class="cls-6" d="M109.85,122.64s-19.77-10.1-32.11-3.77c0,0,6.77,17.23,16.91,23.67C94.64,142.54,100.84,130.14,109.85,122.64Z"/><path class="cls-6" d="M195.91,86c-15.6,2.92-23.59,15.83-21.09,16.43,5.79,1.4,21.34,10.75,21.34,10.75C202.31,105,195.91,86,195.91,86Z"/><path class="cls-6" d="M185.1,153.76c-3.71-14.11-18.56-32-30.28-29S139,150.72,142.68,164.83s16.21,23.07,27.92,20S188.81,167.87,185.1,153.76Z"/><path class="cls-6" d="M104.42,190.72s6.37-19.27,20.43-5.15C124.86,185.57,112,177.14,104.42,190.72Z"/><path class="cls-18" d="M48.17,231.41c-2.85,2.43-7.88,6.59-11.94,5-7.82-3,4.34-10,7.76-12.13a100.11,100.11,0,0,1-14.78,4.46,29.88,29.88,0,0,1-8.24.84c-2-.17-6.73-1.09-6.46-4s5.7-4.21,7.93-4.78a27.49,27.49,0,0,1,19.31,2.39c-4.29-2.34-8.53-4.79-12.62-7.48a70.93,70.93,0,0,1-7.5-5.53c-1.81-1.57-4.6-3.8-4.82-6.43-.62-7.41,13,1,15.15,2.3,8.38,5.13,13.35,10.88,19.38,18.53l.43.54c3.81-3,15.64-12.9,20.59-8.19,6.24,6.34-15.08,13.17-20.23,11.79Z"/><circle class="cls-30" cx="165.41" cy="266.81" r="1.7" transform="translate(-132.29 366.45) rotate(-76.71)"/><circle class="cls-30" cx="156.75" cy="266.51" r="1.7" transform="translate(-138.66 357.79) rotate(-76.71)"/><ellipse class="cls-18" cx="155.49" cy="167.56" rx="3.57" ry="8.55" transform="translate(-37.54 45.11) rotate(-14.75)"/><ellipse class="cls-6" cx="194.27" cy="154.94" rx="3.57" ry="8.55" transform="translate(-33.05 54.57) rotate(-14.75)"/></g></g></svg>