<svg xmlns="http://www.w3.org/2000/svg" xmlns:xlink="http://www.w3.org/1999/xlink" viewBox="0 0 370 350"><defs><style>.cls-1,.cls-13{fill:none;}.cls-2{isolation:isolate;}.cls-17,.cls-3,.cls-4{fill:#27aae1;}.cls-3,.cls-6{opacity:0.2;}.cls-5{clip-path:url(#clip-path);}.cls-15,.cls-6{fill:#231f20;mix-blend-mode:multiply;}.cls-12,.cls-7{fill:#fff;}.cls-8{fill:#28a8e0;}.cls-9{fill:#e63f31;}.cls-10{fill:#218fb2;}.cls-11{fill:#e5e5e4;}.cls-12,.cls-17{opacity:0.5;}.cls-13{stroke:#fff;stroke-width:0.76px;}.cls-14{fill:#c3996b;}.cls-15{opacity:0.1;}.cls-16{fill:#927357;}</style><clipPath id="clip-path"><circle class="cls-1" cx="185" cy="175" r="133.88"/></clipPath></defs><title>smaArtboard 1 copy 31</title><g class="cls-2"><g id="Layer_1" data-name="Layer 1"><circle class="cls-3" cx="184.8" cy="174.93" r="166.46"/><circle class="cls-4" cx="184.8" cy="174.93" r="133.88"/><g class="cls-5"><path class="cls-6" d="M17.2,241l.46.24c.69.37,1.38.72,2.07,1.05-4,2.17-10.33,6.32-9.44,13,.54,4.12,4,8.52,12.17,8.52a24,24,0,0,0,3.29-.22,33,33,0,0,0,8.31-2.48c.74,2.06,2.83,5.41,8.61,6.21a12.15,12.15,0,0,0,1.71.12c5.35,0,9.66-3.45,12.75-6.82a110,110,0,0,0,28.74,8.57,116.8,116.8,0,0,0,18.25,1.42h0a125,125,0,0,0,28.79-3.42,139.56,139.56,0,0,0,25.42-8.77L172,308.88h54.45l-16.3-65.72a135.76,135.76,0,0,0,14.31.79h1.2a120.94,120.94,0,0,0,46.15-9.34,110,110,0,0,0,25.85-15.2c3.06,2,6.88,3.93,11,3.93h0a12.41,12.41,0,0,0,4.66-.89c5.43-2.17,6.66-5.92,6.88-8.1a38.62,38.62,0,0,0,6.08.55,25.33,25.33,0,0,0,2.58-.13c2.85-.29,8.07-1.33,11-5a9.07,9.07,0,0,0,2-6.74c-.75-6.74-7.85-9.25-12.29-10.41.59-.49,1.18-1,1.76-1.52l.38-.34c2.53-2.25,6.76-6,7.11-11.46a9.55,9.55,0,0,0-2.4-7.43,9.14,9.14,0,0,0-6.92-2.82c-4.23,0-10,2.39-17.8,7.34-8.75,5.58-14.41,11.62-20,18.65-6.21-4.41-12.56-7.92-18.43-7.92a11.85,11.85,0,0,0-8.52,3.35l-.15.15a10,10,0,0,0-2.19,11c1.83,4.27,6.62,7.39,11.85,9.52a93.72,93.72,0,0,1-10.52,5.2,101.39,101.39,0,0,1-39.3,7.64h-.51c.75-1,1.52-2,2.29-3.11a6.45,6.45,0,0,0,6.45-2.07,65.24,65.24,0,0,0,7.08-10.61h.37a6.44,6.44,0,0,0,5.4-2.93,87.09,87.09,0,0,0,11.1-28.2c.17-.12.33-.25.49-.39a25.66,25.66,0,0,0,7.81-17,28.77,28.77,0,0,0-2.62-13.47,6.44,6.44,0,0,0,1.65-7.51c-.27-.61-5.41-11.66-18.56-19.69a6.44,6.44,0,0,0-2.31-6.81,47.75,47.75,0,0,0-23.26-8.23l-4.64-9.1h.28a6.44,6.44,0,0,0,5.59-9.4c-1-1.95-3.83-5.22-11.66-7.53-.2-15.07-8.58-32-9.66-34.15a6.43,6.43,0,0,0-7.15-3.36C163.41,47,153.89,63.83,150.83,73c-1.79.45-3.91,1-6.24,1.85a6.42,6.42,0,0,0-4.38-1A51.45,51.45,0,0,0,107,95.37a109,109,0,0,0-21-2.09c-16.59,0-30.62,4-41.71,11.82a6.44,6.44,0,0,0-2.65,6.19C41.93,113,44.86,128,72.52,155c-4.84,7.4-13.12,22.17-12.73,36.09a6.44,6.44,0,0,0,4.75,6c-.2,9.21,1.62,18.85,7.77,26.56-5.37,1.62-10.45,6.33-15.25,11.9-7.1-5.49-14-10-23.92-13.34C26.75,220,21.6,219,17.82,219c-4.17,0-7.25,1.32-9.16,3.93a9.37,9.37,0,0,0-1.11,8.66C9.2,236.74,14.21,239.39,17.2,241Zm68.55-2.3A54.45,54.45,0,0,0,96.6,250.32,97,97,0,0,1,77.87,247,27.13,27.13,0,0,0,85.74,238.66Z"/><path class="cls-7" d="M24.17,232.59l.46.24c.69.37,1.38.72,2.07,1.05-4,2.17-10.33,6.32-9.44,13,.54,4.12,4,8.52,12.17,8.52a24,24,0,0,0,3.29-.22A33,33,0,0,0,41,252.75c.74,2.06,2.83,5.41,8.61,6.21a12.15,12.15,0,0,0,1.71.12c5.35,0,9.66-3.45,12.75-6.82a110,110,0,0,0,28.74,8.57,116.8,116.8,0,0,0,18.25,1.42h0a125,125,0,0,0,28.79-3.42,139.56,139.56,0,0,0,25.42-8.77l15.92,58.81h54.26l-18.38-74.1a135.76,135.76,0,0,0,14.31.79h1.2a120.94,120.94,0,0,0,46.15-9.34A110,110,0,0,0,304.62,211c3.06,2,6.88,3.93,11,3.93h0a12.41,12.41,0,0,0,4.66-.89c5.43-2.17,6.66-5.92,6.88-8.1a38.62,38.62,0,0,0,6.08.55,25.33,25.33,0,0,0,2.58-.13c2.85-.29,8.07-1.33,11-5a9.07,9.07,0,0,0,2-6.74c-.75-6.74-7.85-9.25-12.29-10.41.59-.49,1.18-1,1.76-1.52l.38-.34c2.53-2.25,6.76-6,7.11-11.46a9.55,9.55,0,0,0-2.4-7.43,9.14,9.14,0,0,0-6.92-2.82c-4.23,0-10,2.39-17.8,7.34-8.75,5.58-14.41,11.62-20,18.65-6.21-4.41-12.56-7.92-18.43-7.92a11.85,11.85,0,0,0-8.52,3.35l-.15.15a10,10,0,0,0-2.19,11c1.83,4.27,6.62,7.39,11.85,9.52a93.72,93.72,0,0,1-10.52,5.2,101.39,101.39,0,0,1-39.3,7.64h-.51c.75-1,1.52-2,2.29-3.11a6.45,6.45,0,0,0,6.45-2.07,65.24,65.24,0,0,0,7.08-10.61h.37a6.44,6.44,0,0,0,5.4-2.93,87.09,87.09,0,0,0,11.1-28.2c.17-.12.33-.25.49-.39a25.66,25.66,0,0,0,7.81-17,28.77,28.77,0,0,0-2.62-13.47,6.44,6.44,0,0,0,1.65-7.51c-.27-.61-5.41-11.66-18.56-19.69A6.44,6.44,0,0,0,250,103.8a47.75,47.75,0,0,0-23.26-8.23l-4.64-9.1h.28a6.44,6.44,0,0,0,5.59-9.4c-1-1.95-3.83-5.22-11.66-7.53-.2-15.07-8.58-32-9.66-34.15A6.43,6.43,0,0,0,199.54,32c-29.16,6.58-38.68,23.43-41.74,32.58-1.79.45-3.91,1-6.24,1.85a6.42,6.42,0,0,0-4.38-1A51.45,51.45,0,0,0,114,87a109,109,0,0,0-21-2.09c-16.59,0-30.62,4-41.71,11.82a6.44,6.44,0,0,0-2.65,6.19c.25,1.69,3.18,16.71,30.84,43.67-4.84,7.4-13.12,22.17-12.73,36.09a6.44,6.44,0,0,0,4.75,6c-.2,9.21,1.62,18.85,7.77,26.56-5.37,1.62-10.45,6.33-15.25,11.9-7.1-5.49-14-10-23.92-13.34-6.38-2.15-11.53-3.25-15.31-3.25-4.17,0-7.25,1.32-9.16,3.93a9.37,9.37,0,0,0-1.11,8.66C16.18,228.37,21.18,231,24.17,232.59Zm68.55-2.3A54.45,54.45,0,0,0,103.57,242a97,97,0,0,1-18.72-3.34A27.13,27.13,0,0,0,92.72,230.29Z"/><path class="cls-7" d="M82.51,211.08a4.26,4.26,0,0,0-3.17-5.39.44.44,0,0,1-.24-.5.45.45,0,0,1,.19-.29.42.42,0,0,1,.37,0l.07,0a4.19,4.19,0,0,0,5.59-2.59l3.16-9.84a6,6,0,0,0,.41-1.34c0-.1,0-.2,0-.29s0-.15,0-.23c.46-4.33-4.83-6.54-7.16-7.5a89.31,89.31,0,0,0-15.12-4.39c-2.31-.48-4.6-.89-6.81-1.22a4.19,4.19,0,0,0-3.17.83,4.65,4.65,0,0,1-1.3,0,4.41,4.41,0,0,1-1.19-.27,4.18,4.18,0,0,0-3-1.4c-2.54-.06-8.35-.17-9.67,4l0,.09s0,.1,0,.15-.06.18-.08.27,0,.19,0,.29,0,.1,0,.15l-.63,6.26A4.18,4.18,0,0,0,41,190a4.19,4.19,0,0,0-.74,2l-.85,8.51a4.19,4.19,0,0,0,.66,2.71,4.19,4.19,0,0,0-1.19,2.53l-1.38,13.84c-.64,4.23,4.32,6.28,6.22,7.07.58.24,1.21.48,1.87.71l.12,0a80.14,80.14,0,0,0,10.22,2.79c1.93.4,3.85.74,5.7,1a4.13,4.13,0,0,0,3.31-.9,4.33,4.33,0,0,0,.57-.59,4.33,4.33,0,0,0,.46.65,4.19,4.19,0,0,0,3.19,1.47,16.75,16.75,0,0,0,3.57-.32,4.19,4.19,0,0,0,4.16-2.9Z"/><path class="cls-8" d="M138.4,252.58a139.47,139.47,0,0,0,39.39-16.29l-3.62-6.07C111.83,267.43,64,237,63.48,236.68l-3.87,5.91c.53.35,13.25,8.55,34.24,11.88A114.84,114.84,0,0,0,138.4,252.58Z"/><path class="cls-8" d="M232.56,229.14a114.81,114.81,0,0,0,43.7-8.83c19.59-8.26,30-19.27,30.4-19.74l-5.17-4.82c-.1.1-10,10.53-28.3,18.18-16.85,7-44.53,13.11-80.72,2.07l-2.06,6.76A139.48,139.48,0,0,0,232.56,229.14Z"/><path class="cls-9" d="M304.14,202.59c3.31,2.72,9.13,7.36,13.72,5.51,8.87-3.55-5.16-11.27-9.1-13.68a114.24,114.24,0,0,0,17,4.78,34.09,34.09,0,0,0,9.42.79c2.28-.23,7.65-1.38,7.29-4.64s-6.59-4.69-9.15-5.29a31.37,31.37,0,0,0-22,3.12c4.85-2.76,9.64-5.64,14.25-8.79a80.94,80.94,0,0,0,8.44-6.46c2-1.83,5.17-4.43,5.37-7.43.55-8.47-14.83,1.4-17.24,2.94-9.45,6-15,12.69-21.73,21.54l-.48.63c-4.41-3.36-18.1-14.4-23.66-8.93-7,7.36,17.47,14.71,23.33,13Z"/><polygon class="cls-8" points="228.85 308.88 202.9 204.25 162.33 214.46 187.89 308.88 228.85 308.88"/><polygon class="cls-10" points="177.79 236.28 185.71 248.68 190.82 234.83 201.99 245.64 199.81 230.22 177.79 236.28"/><path class="cls-9" d="M84.63,159.64s-16.27,36.4,1.84,54c0,0-3.75-11.54-2.06-17.36,1.09,4.25,9.33,34,28,43.74,0,0-8.78-12.69-10.66-19.09,0,0,13.36,24.83,54.29,22.2a48.27,48.27,0,0,1-19.19-8.2c10.22,4.81,50.74,10.48,83.36-17.47.57-.46,1.26-1.05,2.05-1.81l.29-.26h0l.76-.76c3.77-3.92,8.94-11,11.92-22.2,0,0,.8,11.66-.42,13.83,0,0,11.65-13.64,11.3-27,0,0,1.44,11.67,1.05,14.14,0,0,11.82-18.2,11.2-37.88,0,0,1.9,6.53,1.51,8,0,0,14.75-13.12-3.25-33.25a11.37,11.37,0,0,1,8.49,2.68s-7.51-16.65-29-22.31c0,0,7.41-2.53,10.05-1.72a41.64,41.64,0,0,0-23.4-7.09l-11-21.6L222.3,80s-1.82-3.51-12.72-5.47C212,60,201,38.3,201,38.3c-30.53,6.88-36.72,25.38-38,31.76a66,66,0,0,0-24,9.7,27.93,27.93,0,0,1,9-7.94,45.34,45.34,0,0,0-31,22.48S80.5,84,55,102c0,0,2.22,15.07,32.91,43.76,0,0-15.21,19.64-14.74,36.76C73.2,182.5,79.24,164.91,84.63,159.64Zm.36,36-.38.1a5.82,5.82,0,0,1,.28-.63S84.92,195.26,85,195.6Z"/><g id="_Mouth" data-name="+Mouth"><path class="cls-7" d="M174,207.47a83,83,0,0,0,27.64-10.18.69.69,0,0,0-.74-1.17c-.26.16-25.75,16.08-49.44,8.94-12.83-3.87-22.88-13.75-29.87-29.37a.69.69,0,1,0-1.27.57c7.16,16,17.5,26.15,30.74,30.13A51,51,0,0,0,174,207.47Z"/></g><path class="cls-7" d="M206.24,146.88c-9.43,7.19,17,8,17,8s3.53-8.93,3.28-15.92S215.66,139.69,206.24,146.88Z"/><path class="cls-7" d="M104.56,105.37s-24.05-7.94-36.87,1.35c0,0,10.64,18.25,23.19,23.74C90.88,130.46,95.7,115.39,104.56,105.37Z"/><path class="cls-7" d="M195.23,49.07c-17.08,6-23.84,22-20.91,22.21,6.78.56,25.94,8.41,25.94,8.41C205.74,69.29,195.23,49.07,195.23,49.07Z"/><path class="cls-7" d="M194.85,127.34c-6.64-15.27-26.52-32.9-39.2-27.41s-13.35,32-6.71,47.29,22.3,23.19,35,17.7S201.49,142.61,194.85,127.34Z"/><path class="cls-9" d="M190.47,129.69s.77,33.16-31.82,18.84C158.65,148.53,185.68,154.71,190.47,129.69Z"/><path class="cls-7" d="M225.41,112.25s.7,23.15-19.89,13.51C205.51,125.76,222.56,129.78,225.41,112.25Z"/><path class="cls-7" d="M110.31,183.1s3.83-22.84,22.15-9.38C132.46,173.72,116.52,166.46,110.31,183.1Z"/><path class="cls-9" d="M62.55,244c-2.56,3.43-7.1,9.33-12,8.64-9.46-1.32,2.31-12.18,5.56-15.47a114.24,114.24,0,0,1-15.31,8.7,34.09,34.09,0,0,1-9,3c-2.27.32-7.76.5-8.19-2.76s5.28-6.13,7.61-7.33a31.37,31.37,0,0,1,22.09-2.24C48,235,42.63,233.36,37.4,231.41a80.94,80.94,0,0,1-9.74-4.25c-2.42-1.29-6.08-3.06-7-5.93-2.57-8.09,14.73-2.19,17.44-1.28,10.62,3.58,17.61,8.72,26.26,15.7l.61.5c3.47-4.32,14.13-18.32,20.83-14.34,8.55,5.47-13.44,18.47-19.52,18.24Z"/><path class="cls-7" d="M296.81,182s-7.34,42.75-5.95,52.66c0,0,19.63,16.2,44.9,6.12l11.85-50.75Z"/><ellipse class="cls-11" cx="322.21" cy="186.04" rx="4.03" ry="25.72" transform="translate(88.14 475.25) rotate(-81.02)"/><path class="cls-12" d="M350.54,162.07c-1.1-4.34-4.53-8.59-6.58-12.54-3.82-7.38-4.07-15.44-3-23.55.07-.53,1-6.11,1.93-9.5,2.84-.11,5.22-1.91,5.52-4.36.34-2.78-2.1-5.39-5.42-5.79l-20.68-2.52c-3.32-.4-6.32,1.54-6.66,4.32-.29,2.39,1.47,4.64,4.08,5.49q0,.76.06,1.51c.17,6.77-.48,13.84-2.82,20.24a36.25,36.25,0,0,1-6.15,10.5c-2.66,3.23-6.81,6-9,9.49-4.11,6.45-6.72,15.3-8.29,22.73a338.13,338.13,0,0,0-6.7,58.07s7.42,10.65,24.6,12.74h0c17.18,2.09,26.82-4.53,26.82-4.53.7-2.19,1.27-4.41,1.89-6.62,3.13-11.16,5.74-22.33,7.94-33.72C350.69,190.75,353.94,175.54,350.54,162.07Z"/><path class="cls-13" d="M350.54,162.07c-1.1-4.34-4.53-8.59-6.58-12.54-3.82-7.38-4.07-15.44-3-23.55.07-.53,1-6.11,1.93-9.5,2.84-.11,5.22-1.91,5.52-4.36.34-2.78-2.1-5.39-5.42-5.79l-20.68-2.52c-3.32-.4-6.32,1.54-6.66,4.32-.29,2.39,1.47,4.64,4.08,5.49q0,.76.06,1.51c.17,6.77-.48,13.84-2.82,20.24a36.25,36.25,0,0,1-6.15,10.5c-2.66,3.23-6.81,6-9,9.49-4.11,6.45-6.72,15.3-8.29,22.73a338.13,338.13,0,0,0-6.7,58.07s7.42,10.65,24.6,12.74h0c17.18,2.09,26.82-4.53,26.82-4.53.7-2.19,1.27-4.41,1.89-6.62,3.13-11.16,5.74-22.33,7.94-33.72C350.69,190.75,353.94,175.54,350.54,162.07Z"/><path class="cls-14" d="M75,204.34A4.59,4.59,0,0,1,81.34,201l3.45-10.75-39.34-8.22-.63,6.26a2,2,0,0,1,.6,0,2.1,2.1,0,0,1-.86,4.1l-.15,0-.85,8.51a2.6,2.6,0,0,1,.64,0,2.66,2.66,0,0,1-1.09,5.21l-.07,0-1.4,14c-.31,1.48,6.47,4.15,15.13,6,1.9.4,3.74.72,5.44,1a3.56,3.56,0,0,1,.07-.69,3.49,3.49,0,0,1,6.85,1.27,9.3,9.3,0,0,0,3.31-.42l.44.1,5.63-17.52A4.61,4.61,0,0,1,75,204.34Z"/><path class="cls-15" d="M49.39,222.27c.89-5.48,1.62-11,2.45-16.47,1.09-7.14,2.83-14.38,3.83-21.61l-10.22-2.14-.63,6.26a2,2,0,0,1,.6,0,2.1,2.1,0,0,1-.86,4.1l-.15,0-.85,8.51a2.6,2.6,0,0,1,.64,0,2.66,2.66,0,0,1-1.09,5.21l-.07,0-1.4,14c-.21,1,2.81,2.53,7.44,4C49.19,223.5,49.29,222.89,49.39,222.27Z"/><ellipse class="cls-16" cx="56.63" cy="200.89" rx="4.24" ry="2.45" transform="translate(-151.61 215.21) rotate(-78.19)"/><ellipse class="cls-16" cx="67.22" cy="215.42" rx="3.16" ry="1.83" transform="translate(-157.39 237.14) rotate(-78.19)"/><ellipse class="cls-16" cx="50.47" cy="218.36" rx="3.16" ry="1.83" transform="translate(-173.6 223.08) rotate(-78.19)"/><ellipse class="cls-16" cx="73.14" cy="196" rx="3.16" ry="1.83" transform="translate(-133.67 227.49) rotate(-78.19)"/><path class="cls-16" d="M65.82,182.81c-2.29-.48-4.49-.87-6.56-1.17-.64.7-2.35,1.08-4.28.88s-3.4-.87-3.89-1.65c-3.33-.07-5.45.31-5.64,1.19-.39,1.85,8.1,5.2,19,7.47s20,2.61,20.37.76S76.68,185.08,65.82,182.81Z"/><path class="cls-14" d="M82,191.72c-.14,1-1.63,1.7-3.33,1.53s-3-1.14-2.83-2.15,1.63-1.7,3.33-1.53S82.13,190.7,82,191.72Z"/><ellipse class="cls-14" cx="67.15" cy="186.86" rx="0.99" ry="3.08" transform="translate(-129.5 214.35) rotate(-78.19)"/><ellipse class="cls-14" cx="49.98" cy="183.01" rx="0.99" ry="1.54" transform="translate(-139.38 194.48) rotate(-78.19)"/><path class="cls-7" d="M344.93,76c-3.46,2.32-9.44,15.43-9.44,15.43s14.39-.56,17.85-2.88A7.55,7.55,0,0,0,344.93,76Z"/><path class="cls-7" d="M313.61,59c.34,6.85,13.76,26.37,13.76,26.37s11.4-20.76,11.05-27.61A12.42,12.42,0,1,0,313.61,59Z"/></g><path class="cls-6" d="M77.87,247a27.13,27.13,0,0,0,7.87-8.32A54.45,54.45,0,0,0,96.6,250.32,97,97,0,0,1,77.87,247Z"/><path class="cls-7" d="M348.82,194.64c-.75-6.74-7.85-9.25-12.29-10.41.59-.49,1.18-1,1.76-1.52l.38-.34c2.53-2.25,6.76-6,7.11-11.46a9.55,9.55,0,0,0-2.4-7.43,9.14,9.14,0,0,0-6.92-2.82c-4.23,0-10,2.39-17.8,7.34-8.75,5.58-14.41,11.62-20,18.65-6.21-4.41-12.56-7.92-18.43-7.92a11.85,11.85,0,0,0-8.52,3.35l-.15.15a10,10,0,0,0-2.19,11c1.83,4.27,6.62,7.39,11.85,9.52a93.67,93.67,0,0,1-10.52,5.2,101.38,101.38,0,0,1-39.3,7.64h-.51c.75-1,1.52-2,2.29-3.11a6.45,6.45,0,0,0,6.45-2.07,65.23,65.23,0,0,0,7.08-10.61h.37a6.44,6.44,0,0,0,5.4-2.93,87.07,87.07,0,0,0,11.1-28.2c.17-.12.33-.25.49-.39a25.66,25.66,0,0,0,7.81-17,28.77,28.77,0,0,0-2.62-13.47,6.44,6.44,0,0,0,1.65-7.51c-.27-.61-5.41-11.66-18.56-19.69A6.44,6.44,0,0,0,250,103.8a47.75,47.75,0,0,0-23.26-8.23l-4.64-9.1h.28a6.44,6.44,0,0,0,5.59-9.4c-1-1.95-3.83-5.22-11.66-7.53-.2-15.07-8.58-32-9.66-34.15A6.43,6.43,0,0,0,199.54,32c-29.16,6.58-38.68,23.43-41.74,32.58-1.79.45-3.91,1-6.24,1.85a6.41,6.41,0,0,0-4.38-1A51.45,51.45,0,0,0,114,87a109,109,0,0,0-21-2.09c-16.59,0-30.62,4-41.71,11.82a6.44,6.44,0,0,0-2.65,6.19c.25,1.69,3.18,16.71,30.84,43.67-4.84,7.4-13.12,22.17-12.73,36.09a6.44,6.44,0,0,0,4.75,6c-.2,9.21,1.62,18.85,7.77,26.56-5.37,1.62-10.45,6.33-15.25,11.9-7.1-5.49-14-10-23.92-13.34-6.38-2.15-11.53-3.25-15.31-3.25-4.17,0-7.25,1.32-9.16,3.93a9.37,9.37,0,0,0-1.11,8.66c1.65,5.19,6.65,7.84,9.65,9.42l.46.24c.69.37,1.38.72,2.07,1.05-4,2.17-10.33,6.32-9.44,13,.54,4.12,4,8.52,12.17,8.52a24,24,0,0,0,3.28-.22A33,33,0,0,0,41,252.75c.74,2.06,2.83,5.41,8.61,6.21a12.15,12.15,0,0,0,1.71.12c5.35,0,9.66-3.45,12.75-6.82a110,110,0,0,0,28.74,8.57,116.8,116.8,0,0,0,18.25,1.42h0a125,125,0,0,0,28.79-3.42,139.55,139.55,0,0,0,25.42-8.77L178,297.15c3.87.29,7.73.69,11.57,1.17a212.52,212.52,0,0,1,42.58-2.69L217.1,234.79a135.76,135.76,0,0,0,14.31.79h1.2a120.94,120.94,0,0,0,46.15-9.34A110,110,0,0,0,304.62,211c3.06,2,6.88,3.93,11,3.93h0a12.41,12.41,0,0,0,4.66-.89c5.43-2.17,6.66-5.92,6.88-8.1a38.62,38.62,0,0,0,6.08.55,25.31,25.31,0,0,0,2.58-.13c2.85-.29,8.07-1.33,11-5A9.07,9.07,0,0,0,348.82,194.64Zm-264,44a27.12,27.12,0,0,0,7.87-8.32A54.46,54.46,0,0,0,103.57,242,97.06,97.06,0,0,1,84.85,238.61Z"/><path class="cls-7" d="M82.51,211.08a4.26,4.26,0,0,0-3.17-5.39.44.44,0,0,1-.24-.5.45.45,0,0,1,.19-.29.42.42,0,0,1,.37,0l.07,0a4.19,4.19,0,0,0,5.59-2.59l3.16-9.84a6,6,0,0,0,.41-1.34c0-.1,0-.2,0-.29s0-.15,0-.23c.46-4.33-4.83-6.54-7.16-7.5a89.31,89.31,0,0,0-15.12-4.39c-2.31-.48-4.6-.89-6.81-1.22a4.19,4.19,0,0,0-3.17.83,4.65,4.65,0,0,1-1.3,0,4.41,4.41,0,0,1-1.19-.27,4.18,4.18,0,0,0-3-1.4c-2.54-.06-8.35-.17-9.67,4l0,.09s0,.1,0,.15-.06.18-.08.27,0,.19,0,.29,0,.1,0,.15l-.63,6.26A4.18,4.18,0,0,0,41,190a4.19,4.19,0,0,0-.74,2l-.85,8.51a4.19,4.19,0,0,0,.66,2.71,4.19,4.19,0,0,0-1.19,2.53l-1.38,13.84c-.64,4.23,4.32,6.28,6.22,7.07.58.24,1.21.48,1.87.71l.12,0a80.14,80.14,0,0,0,10.22,2.79c1.93.4,3.85.74,5.7,1a4.13,4.13,0,0,0,3.31-.9,4.33,4.33,0,0,0,.57-.59,4.33,4.33,0,0,0,.46.65,4.19,4.19,0,0,0,3.19,1.47,16.75,16.75,0,0,0,3.57-.32,4.19,4.19,0,0,0,4.16-2.9Z"/><path class="cls-8" d="M138.4,252.58a139.47,139.47,0,0,0,39.39-16.29l-3.62-6.07C111.83,267.43,64,237,63.48,236.68l-3.87,5.91c.53.35,13.25,8.55,34.24,11.88A114.84,114.84,0,0,0,138.4,252.58Z"/><path class="cls-8" d="M232.56,229.14a114.81,114.81,0,0,0,43.7-8.83c19.59-8.26,30-19.27,30.4-19.74l-5.17-4.82c-.1.1-10,10.53-28.3,18.18-16.85,7-44.53,13.11-80.72,2.07l-2.06,6.76A139.48,139.48,0,0,0,232.56,229.14Z"/><path class="cls-9" d="M304.14,202.59c3.31,2.72,9.13,7.36,13.72,5.51,8.87-3.55-5.16-11.27-9.1-13.68a114.24,114.24,0,0,0,17,4.78,34.09,34.09,0,0,0,9.42.79c2.28-.23,7.65-1.38,7.29-4.64s-6.59-4.69-9.15-5.29a31.37,31.37,0,0,0-22,3.12c4.85-2.76,9.64-5.64,14.25-8.79a80.94,80.94,0,0,0,8.44-6.46c2-1.83,5.17-4.43,5.37-7.43.55-8.47-14.83,1.4-17.24,2.94-9.45,6-15,12.69-21.73,21.54l-.48.63c-4.41-3.36-18.1-14.4-23.66-8.93-7,7.36,17.47,14.71,23.33,13Z"/><path class="cls-8" d="M189.62,298.32a202.68,202.68,0,0,1,35.92-2.8L202.9,204.25l-40.57,10.21,22.55,83.31Q187.25,298,189.62,298.32Z"/><polygon class="cls-10" points="177.79 236.28 185.71 248.68 190.82 234.83 201.99 245.64 199.81 230.22 177.79 236.28"/><path class="cls-9" d="M84.63,159.64s-16.27,36.4,1.84,54c0,0-3.75-11.54-2.06-17.36,1.09,4.25,9.33,34,28,43.74,0,0-8.78-12.69-10.66-19.09,0,0,13.36,24.83,54.29,22.2a48.27,48.27,0,0,1-19.19-8.2c10.22,4.81,50.74,10.48,83.36-17.47.57-.46,1.26-1.05,2.05-1.81l.29-.26h0l.76-.76c3.77-3.92,8.94-11,11.92-22.2,0,0,.8,11.66-.42,13.83,0,0,11.65-13.64,11.3-27,0,0,1.44,11.67,1.05,14.14,0,0,11.82-18.2,11.2-37.88,0,0,1.9,6.53,1.51,8,0,0,14.75-13.12-3.25-33.25a11.37,11.37,0,0,1,8.49,2.68s-7.51-16.65-29-22.31c0,0,7.41-2.53,10.05-1.72a41.64,41.64,0,0,0-23.4-7.09l-11-21.6L222.3,80s-1.82-3.51-12.72-5.47C212,60,201,38.3,201,38.3c-30.53,6.88-36.72,25.38-38,31.76a66,66,0,0,0-24,9.7,27.93,27.93,0,0,1,9-7.94,45.34,45.34,0,0,0-31,22.48S80.5,84,55,102c0,0,2.22,15.07,32.91,43.76,0,0-15.21,19.64-14.74,36.76C73.2,182.5,79.24,164.91,84.63,159.64Zm.36,36-.38.1a5.82,5.82,0,0,1,.28-.63S84.92,195.26,85,195.6Z"/><g id="_Mouth-2" data-name="+Mouth"><path class="cls-7" d="M174,207.47a83,83,0,0,0,27.64-10.18.69.69,0,0,0-.74-1.17c-.26.16-25.75,16.08-49.44,8.94-12.83-3.87-22.88-13.75-29.87-29.37a.69.69,0,1,0-1.27.57c7.16,16,17.5,26.15,30.74,30.13A51,51,0,0,0,174,207.47Z"/></g><path class="cls-7" d="M206.24,146.88c-9.43,7.19,17,8,17,8s3.53-8.93,3.28-15.92S215.66,139.69,206.24,146.88Z"/><path class="cls-7" d="M104.56,105.37s-24.05-7.94-36.87,1.35c0,0,10.64,18.25,23.19,23.74C90.88,130.46,95.7,115.39,104.56,105.37Z"/><path class="cls-7" d="M195.23,49.07c-17.08,6-23.84,22-20.91,22.21,6.78.56,25.94,8.41,25.94,8.41C205.74,69.29,195.23,49.07,195.23,49.07Z"/><path class="cls-7" d="M194.85,127.34c-6.64-15.27-26.52-32.9-39.2-27.41s-13.35,32-6.71,47.29,22.3,23.19,35,17.7S201.49,142.61,194.85,127.34Z"/><path class="cls-9" d="M190.47,129.69s.77,33.16-31.82,18.84C158.65,148.53,185.68,154.71,190.47,129.69Z"/><path class="cls-7" d="M225.41,112.25s.7,23.15-19.89,13.51C205.51,125.76,222.56,129.78,225.41,112.25Z"/><path class="cls-7" d="M110.31,183.1s3.83-22.84,22.15-9.38C132.46,173.72,116.52,166.46,110.31,183.1Z"/><path class="cls-9" d="M62.55,244c-2.56,3.43-7.1,9.33-12,8.64-9.46-1.32,2.31-12.18,5.56-15.47a114.24,114.24,0,0,1-15.31,8.7,34.09,34.09,0,0,1-9,3c-2.27.32-7.76.5-8.19-2.76s5.28-6.13,7.61-7.33a31.37,31.37,0,0,1,22.09-2.24C48,235,42.63,233.36,37.4,231.41a80.94,80.94,0,0,1-9.74-4.25c-2.42-1.29-6.08-3.06-7-5.93-2.57-8.09,14.73-2.19,17.44-1.28,10.62,3.58,17.61,8.72,26.26,15.7l.61.5c3.47-4.32,14.13-18.32,20.83-14.34,8.55,5.47-13.44,18.47-19.52,18.24Z"/><path class="cls-17" d="M350.54,162.07c-1.1-4.34-4.53-8.59-6.58-12.54-3.82-7.38-4.07-15.44-3-23.55.07-.53,1-6.11,1.93-9.5,2.84-.11,5.22-1.91,5.52-4.36.34-2.78-2.1-5.39-5.42-5.79l-20.68-2.52c-3.32-.4-6.32,1.54-6.66,4.32-.29,2.39,1.47,4.64,4.08,5.49q0,.76.06,1.51c.17,6.77-.48,13.84-2.82,20.24a36.25,36.25,0,0,1-6.15,10.5c-2.66,3.23-6.81,6-9,9.49-4.11,6.45-6.72,15.3-8.29,22.73a338.13,338.13,0,0,0-6.7,58.07s7.42,10.65,24.6,12.74h0c17.18,2.09,26.82-4.53,26.82-4.53.7-2.19,1.27-4.41,1.89-6.62,3.13-11.16,5.74-22.33,7.94-33.72C350.69,190.75,353.94,175.54,350.54,162.07Z"/><path class="cls-13" d="M350.54,162.07c-1.1-4.34-4.53-8.59-6.58-12.54-3.82-7.38-4.07-15.44-3-23.55.07-.53,1-6.11,1.93-9.5,2.84-.11,5.22-1.91,5.52-4.36.34-2.78-2.1-5.39-5.42-5.79l-20.68-2.52c-3.32-.4-6.32,1.54-6.66,4.32-.29,2.39,1.47,4.64,4.08,5.49q0,.76.06,1.51c.17,6.77-.48,13.84-2.82,20.24a36.25,36.25,0,0,1-6.15,10.5c-2.66,3.23-6.81,6-9,9.49-4.11,6.45-6.72,15.3-8.29,22.73a338.13,338.13,0,0,0-6.7,58.07s7.42,10.65,24.6,12.74h0c17.18,2.09,26.82-4.53,26.82-4.53.7-2.19,1.27-4.41,1.89-6.62,3.13-11.16,5.74-22.33,7.94-33.72C350.69,190.75,353.94,175.54,350.54,162.07Z"/><path class="cls-7" d="M296.81,182s-7.34,42.75-5.95,52.66c0,0,19.63,16.2,44.9,6.12l11.85-50.75Z"/><ellipse class="cls-11" cx="322.21" cy="186.04" rx="4.03" ry="25.72" transform="translate(88.14 475.25) rotate(-81.02)"/><path class="cls-14" d="M75,204.34A4.59,4.59,0,0,1,81.34,201l3.45-10.75-39.34-8.22-.63,6.26a2,2,0,0,1,.6,0,2.1,2.1,0,0,1-.86,4.1l-.15,0-.85,8.51a2.6,2.6,0,0,1,.64,0,2.66,2.66,0,0,1-1.09,5.21l-.07,0-1.4,14c-.31,1.48,6.47,4.15,15.13,6,1.9.4,3.74.72,5.44,1a3.56,3.56,0,0,1,.07-.69,3.49,3.49,0,0,1,6.85,1.27,9.3,9.3,0,0,0,3.31-.42l.44.1,5.63-17.52A4.61,4.61,0,0,1,75,204.34Z"/><path class="cls-15" d="M49.39,222.27c.89-5.48,1.62-11,2.45-16.47,1.09-7.14,2.83-14.38,3.83-21.61l-10.22-2.14-.63,6.26a2,2,0,0,1,.6,0,2.1,2.1,0,0,1-.86,4.1l-.15,0-.85,8.51a2.6,2.6,0,0,1,.64,0,2.66,2.66,0,0,1-1.09,5.21l-.07,0-1.4,14c-.21,1,2.81,2.53,7.44,4C49.19,223.5,49.29,222.89,49.39,222.27Z"/><ellipse class="cls-16" cx="56.63" cy="200.89" rx="4.24" ry="2.45" transform="translate(-151.61 215.21) rotate(-78.19)"/><ellipse class="cls-16" cx="67.22" cy="215.42" rx="3.16" ry="1.83" transform="translate(-157.39 237.14) rotate(-78.19)"/><ellipse class="cls-16" cx="50.47" cy="218.36" rx="3.16" ry="1.83" transform="translate(-173.6 223.08) rotate(-78.19)"/><ellipse class="cls-16" cx="73.14" cy="196" rx="3.16" ry="1.83" transform="translate(-133.67 227.49) rotate(-78.19)"/><path class="cls-16" d="M65.82,182.81c-2.29-.48-4.49-.87-6.56-1.17-.64.7-2.35,1.08-4.28.88s-3.4-.87-3.89-1.65c-3.33-.07-5.45.31-5.64,1.19-.39,1.85,8.1,5.2,19,7.47s20,2.61,20.37.76S76.68,185.08,65.82,182.81Z"/><path class="cls-14" d="M82,191.72c-.14,1-1.63,1.7-3.33,1.53s-3-1.14-2.83-2.15,1.63-1.7,3.33-1.53S82.13,190.7,82,191.72Z"/><ellipse class="cls-14" cx="67.15" cy="186.86" rx="0.99" ry="3.08" transform="translate(-129.5 214.35) rotate(-78.19)"/><ellipse class="cls-14" cx="49.98" cy="183.01" rx="0.99" ry="1.54" transform="translate(-139.38 194.48) rotate(-78.19)"/><path class="cls-7" d="M291.59,101.48c3.52-.11,14.08,5.94,14.08,5.94s-10.15,6.71-13.67,6.82a6.38,6.38,0,0,1-.41-12.75Z"/><path class="cls-7" d="M304.68,74.35c3.14,4.87,3.55,24.87,3.55,24.87s-18-8.63-21.19-13.5a10.49,10.49,0,1,1,17.64-11.37Z"/></g></g></svg>