<svg xmlns="http://www.w3.org/2000/svg" viewBox="0 0 260 360"><defs><style>.cls-1{isolation:isolate;}.cls-2{fill:#d6aa75;}.cls-3,.cls-4{fill:#ffdd15;}.cls-13,.cls-15,.cls-18,.cls-4,.cls-8{opacity:0.2;}.cls-5{fill:#e63d31;}.cls-6{fill:#592f26;}.cls-7{fill:#fff2e3;}.cls-19,.cls-8{fill:#754c28;}.cls-13,.cls-18,.cls-8,.cls-9{mix-blend-mode:multiply;}.cls-9{fill:#68634d;opacity:0.51;}.cls-10{fill:#723d2e;}.cls-11{fill:#7c4c1f;}.cls-12{fill:#929497;}.cls-13,.cls-15{fill:#231f20;}.cls-14{fill:#fff;}.cls-16{fill:#37b34a;}.cls-17{fill:#2d4c42;}.cls-20{fill:#f6921e;}.cls-21,.cls-22{fill:#f05a28;}.cls-21{opacity:0.5;}.cls-22{opacity:0.72;}.cls-23{fill:#347361;}.cls-24{fill:#21534e;}</style></defs><g class="cls-1"><g id="Layer_1" data-name="Layer 1"><path class="cls-2" d="M105.4,157.2C69.49,148.65,47.19,116,46.26,114.64l4.15-2.79c.22.32,22.17,32.4,56.15,40.49Z"/><circle class="cls-3" cx="52.72" cy="53.18" r="37.17"/><circle class="cls-4" cx="52.72" cy="53.18" r="50.53"/><path class="cls-5" d="M51.1,116c-.26,2.46-.77,6.74-3.41,7.85-5.09,2.14-2.46-6.74-1.81-9.33a66.63,66.63,0,0,1-5,8.85,20,20,0,0,1-3.56,4.16c-1,.83-3.71,2.54-4.88,1s.81-4.61,1.61-5.9A18.19,18.19,0,0,1,44.33,115c-3.12.84-6.26,1.6-9.44,2.17a44.61,44.61,0,0,1-6.1.77c-1.58.08-3.93.28-5.23-.87-3.67-3.26,6.67-5.45,8.29-5.8,6.34-1.36,11.33-.87,17.7,0l.45.06c.45-3.17,1.6-13.28,6.11-13.29,5.87.19-1.21,13.16-4.3,14.85Z"/><path class="cls-2" d="M192.76,206.82l-1-.79c-9.32-6.92-20.9-9.36-34.41-7.25l.85,5.43c12-1.88,22.17.21,30.26,6.2,15,11.09,18.09,32.1,18.12,32.31L212,242C211.86,241,208.69,219.45,192.76,206.82Z"/><path class="cls-6" d="M147.44,249.22v14.53q-3.23.38-6.53.49c-1,0-2,.06-3,.06h0c-1.18,0-2.35,0-3.51-.08s-2-.1-3.06-.18c-1.23-.09-2.46-.22-3.68-.36-1-.13-2-.28-3.06-.44-1.18-.19-2.35-.4-3.51-.64s-2.05-.43-3.06-.68h0q-1.8-.44-3.57-1l-.18-.05V249.22Z"/><polygon class="cls-7" points="147.44 212.12 146.83 252.02 117.76 248.96 119.55 210.9 147.44 212.12"/><polygon class="cls-8" points="126.17 217.52 122.65 249.16 119.04 248.74 122.44 216.79 126.17 217.52"/><polygon class="cls-9" points="126.08 216.21 125.89 227.3 131.74 219.11 136.01 227.78 138.3 218.24 138.89 218.4 136.2 229.57 131.94 220.91 130.51 250.31 129.91 250.28 131.34 220.75 125.25 229.28 125.47 216.19 126.08 216.21"/><path class="cls-9" d="M128.1,230.12a1.91,1.91,0,0,0-1.88,1.93,1.51,1.51,0,0,0,0,.3,1.93,1.93,0,0,0,1.4,1.71l.34.05a1.9,1.9,0,0,0,1.87-1.93A1.92,1.92,0,0,0,128.1,230.12Zm-.1,3.32a1.27,1.27,0,0,1-1.17-1.37,1.26,1.26,0,0,1,1.25-1.28,1.33,1.33,0,0,1-.08,2.65Z"/><path class="cls-9" d="M127.91,236.26a1.91,1.91,0,0,0-1.88,1.92,1.93,1.93,0,0,0,1.76,2.06,1.9,1.9,0,0,0,1.88-1.92A1.94,1.94,0,0,0,127.91,236.26Zm-.1,3.32a1.29,1.29,0,0,1-1.17-1.37,1.27,1.27,0,0,1,1.25-1.29,1.29,1.29,0,0,1,1.17,1.38A1.26,1.26,0,0,1,127.81,239.58Z"/><path class="cls-9" d="M127.7,243.06a1.91,1.91,0,0,0-1.88,1.93,1.93,1.93,0,0,0,1.76,2,1.9,1.9,0,0,0,1.88-1.92A1.93,1.93,0,0,0,127.7,243.06Zm-.1,3.32a1.29,1.29,0,0,1-1.17-1.37,1.27,1.27,0,0,1,1.25-1.29,1.3,1.3,0,0,1,1.17,1.38A1.26,1.26,0,0,1,127.6,246.38Z"/><path class="cls-9" d="M147,229.07l-5.64.18-.1,3,6,0v.67l-6,0-.16,5.32a5.23,5.23,0,0,0,.9,2.32c1.05,1.47,2.77,2.1,5.11,1.87l0,.66a9.13,9.13,0,0,1-1.27,0,5.56,5.56,0,0,1-3.68-1.38,5.7,5.7,0,0,1-1.72-3.49l.3-9.63,6.21-.2Z"/><polygon class="cls-8" points="142.69 251.46 139.41 251.56 142.46 218.96 146.15 218.43 142.69 251.46"/><polygon class="cls-10" points="143.75 249.68 117.95 246.89 117.19 253.19 143.76 255.18 143.75 249.68"/><path class="cls-2" d="M158.5,253.73c0,1-.1,2-.16,2.85l-4.49-.38-11.61-1,.42-6.65.35-5.5L145,212l13.56-.72S159.22,238.53,158.5,253.73Z"/><path class="cls-11" d="M145.32,243.06l-.16,0H145l-.3-.06-.08,1.45.61.49.1-1.84Zm0,0-.16,0H145l-.3-.06-.08,1.45.61.49.1-1.84Zm0,0-.16,0H145l-.3-.06-.08,1.45.61.49.1-1.84ZM156.41,242l-9.42-.56-2.21-.13-.05,1,0,.67-.08,1.45-.25,4.81,0,.65-.1,1.88,0,.56,3.23.09h.43l8.7.23h.34Zm-1,10-4.91-.13h-.31l-2.79-.08h-.61l-2-.06.07-1.36.06-1.11.15-3,0-.32,0-1,.1-1.84,0-.66,0-.45,1.6.1,8.82.52.17,3.65,0,.31.25,5.47-.79,0Zm-10.13-8.92-.16,0H145l-.3-.06-.08,1.45.61.49.1-1.84Zm0,0-.16,0H145l-.3-.06-.08,1.45.61.49.1-1.84Zm0,0-.16,0H145l-.3-.06-.08,1.45.61.49.1-1.84Z"/><path class="cls-11" d="M150.43,242.72a1.12,1.12,0,0,0-.79.3,1.28,1.28,0,0,0-.4.91,1.21,1.21,0,0,0,1.11,1.29h0a1.09,1.09,0,0,0,.76-.3,1.32,1.32,0,0,0,.4-.91A1.21,1.21,0,0,0,150.43,242.72Zm.5,2a.77.77,0,0,1-.56.22.88.88,0,0,1-.81-1,.93.93,0,0,1,.29-.68.78.78,0,0,1,.57-.22.89.89,0,0,1,.81,1A1,1,0,0,1,150.93,244.68Z"/><polygon class="cls-11" points="150.09 229.74 144.1 220.02 144.37 219.85 150.1 229.15 158.53 216.46 158.8 216.63 150.09 229.74"/><path class="cls-11" d="M156.25,246.55c-.32-.06-6.93-.24-11.29-.34v-.31c11.32.26,11.39.33,11.45.4l-.12.1Z"/><rect class="cls-11" x="150.22" y="246.12" width="0.32" height="6.04"/><path class="cls-2" d="M111.43,207.39s-5.75,30.58-7.28,44.85l15.56,1.22,4.91-42.54Z"/><path class="cls-11" d="M118.21,239.45l-10-1.51-2.34,10.39,8.34,1.54,3.3.6.89.17.17-1.42,0-.18.25-2,.9-7.3Zm.36,4.69,0,.32-.31,2.46L118,249l0,.24-.08.67-.27,0-3.34-.62-1.67-.3-.31-.06-5.62-1,1.19-5.31.07-.3.8-3.55,9.47,1.43.87.13Z"/><path class="cls-11" d="M114,239.92a1.05,1.05,0,0,0-.82.2,1.29,1.29,0,0,0,.46,2.28h.18a1.07,1.07,0,0,0,.64-.21,1.29,1.29,0,0,0-.46-2.28Zm.65,1.39a1,1,0,0,1-.37.63.74.74,0,0,1-.59.14,1,1,0,0,1-.33-1.7.79.79,0,0,1,.46-.15h.13A.93.93,0,0,1,114.61,241.31Z"/><polygon class="cls-11" points="116.54 227.25 110.26 212.58 110.55 212.45 116.64 226.67 123.87 218.74 124.11 218.95 116.54 227.25"/><path class="cls-11" d="M118.72,244.49c-4.3-.81-10.82-2-11.14-2v-.14l-.12-.14c.08-.06.15-.12,11.32,2Z"/><rect class="cls-11" x="109.89" y="246.07" width="6.02" height="0.32" transform="matrix(0.18, -0.98, 0.98, 0.18, -149.32, 314.21)"/><polygon class="cls-12" points="125.2 254.35 134.5 255.39 135.16 248.29 125.87 247.25 125.2 254.35"/><path class="cls-13" d="M132.11,253.33l2.41,1.79,0,.27-9.29-1,.57-6.11C127.82,250,130,251.7,132.11,253.33Z"/><path class="cls-14" d="M195.53,174.08c-.37-1.46-2.47-37.18-2.47-37.18l-83.24-25.06S85,133.27,84.71,135.32s-3.13,37.82-3,39.06,21.14,20.91,21.14,20.91l54.89,10.14,24.39-14.07Z"/><ellipse class="cls-5" cx="124.11" cy="137.98" rx="7.05" ry="4.74" transform="matrix(0.32, -0.95, 0.95, 0.32, -46.7, 210.56)"/><path class="cls-10" d="M158.5,253.73c0,1-.1,2-.16,2.85l-4.49-.38a99.05,99.05,0,0,1-11.19-7.62c-19.89-15.63-28-34.22-28.44-35.19l4.08-1.75a85.31,85.31,0,0,0,10.11,16.17A100.6,100.6,0,0,0,143,243.08,93.64,93.64,0,0,0,158.5,253.73Z"/><path class="cls-5" d="M205.62,154.86a21.75,21.75,0,0,1,3.79,4.83,103.18,103.18,0,0,1,6.44,12.74,32.85,32.85,0,0,0-2.8-11.35h0A71.94,71.94,0,0,0,202.29,144c.17-.18.34-.35.5-.53l1.22-1.33.07-.08c-1.4-.2-2.8-.41-4.19-.64s-2.95-.5-4.43-.76l-2.2-.41c-1.24-.23-2.47-.48-3.7-.73h0c-11.23-2.29-22.35-5.27-33.31-8.67a51.24,51.24,0,0,1,0,5.68c0,.13,0,.26,0,.39,0,.77-.11,1.54-.19,2.3-.14,1.39-.35,2.76-.61,4.09a35.45,35.45,0,0,1-1.39,5c-4.46,12.48-16.45,19.59-26.77,15.89s-15.07-16.8-10.59-29.28a30.21,30.21,0,0,1,1.22-3,43.46,43.46,0,0,1,3.52-6.09h0l.79-1.11q.89-1.23,1.86-2.4c.66-.82,1.36-1.61,2.07-2.37a85,85,0,0,1-12.84-7.13h0q-2.08-1.41-4-3a31.54,31.54,0,0,1-5.72.82,27.39,27.39,0,0,1-7.65-.67l-2.23,5.21-.38.89q-.56,0-1.08.09l-.29,0-.6.07-.45.06-.87.14-.41.07h0l-.42.08-1.1.23-.56.14-.08,0-.26.06-.4.11-.78.22-.91.28-.74.26-.33.11-.38.14-.53.21-.26.1-.5.21-.29.13-.29.12h0l-.41.19-.31.15-.51.24c-.51.25-1,.5-1.42.75a25.36,25.36,0,0,0-4,2.64,6.75,6.75,0,0,1,2.69-.16,37.46,37.46,0,0,1,5.35,1,38,38,0,0,0-11.61,6.27,33.59,33.59,0,0,0-10.17,13,9.19,9.19,0,0,1,3-2,8.59,8.59,0,0,1,3.57-.62c-13.21,16.93-.86,26.58-.86,26.58-.38-1.13.79-6.42.79-6.42.51,15.41,10.49,29.07,10.81,29.49-.44-2,.11-11.27.11-11.27.4,10.46,10,20.54,10.32,20.85-1.07-1.67-1-11-1-11a39.84,39.84,0,0,0,10.58,17c.22.21.43.39.64.57h0a49.73,49.73,0,0,0,4,3.2,51.25,51.25,0,0,0,5.13,3.19c.6.33,1.2.64,1.8.94l.59.28.43.2h0c1.36.63,2.73,1.21,4.12,1.72h0c1.27.47,2.55.89,3.84,1.27.78.23,1.55.44,2.33.64l.73.18,1.45.33c.56.12,1.12.24,1.67.34l.61.12q2.7.48,5.39.77l.55.06c2,.2,4,.32,5.9.38l.63,0c1.3,0,2.59,0,3.85,0l1.85,0h.27l1.52-.07,1.32-.08c3.53-.24,6.82-.64,9.73-1.1h0l.43-.07,1.21-.2a94.86,94.86,0,0,0,11.29-2.6,38.34,38.34,0,0,1-11.23,7.3,32.34,32.34,0,0,1-5.34,1.81c1.86,0,3.65-.07,5.36-.2a52.51,52.51,0,0,0,22.44-6.46h0a40.83,40.83,0,0,0,5.85-4,31.4,31.4,0,0,0,8.17-9.76c-.62,2.74-2.67,7-4.46,10.36-1.32,2.5-2.51,4.53-2.87,5.15l-.11.19.26-.16a28.29,28.29,0,0,0,5.84-5c9.62-10.65,13.24-28.14,13.78-31,1.64,4.53-.73,13.89-.73,13.89,10.28-11.44,4-30.58.55-38.92C206.43,156.4,205.62,154.86,205.62,154.86Zm-19.47-2.34c3.39,3.09,3.75,10.47,3.75,10.47l-.35,3.12c-2.84-19-14.65-10.88-15-10.63,3-2.7,5.4-3.95,7.34-4.25A5,5,0,0,1,186.15,152.52ZM151.09,191c21.18-7.79,29.85-31.7,29.93-31.94a.73.73,0,0,1,1.37.48c-.09.25-9,24.78-30.78,32.82a41.12,41.12,0,0,1-8,2.06c-12.1,1.88-25.6-1.44-40.24-9.93a.72.72,0,0,1,.73-1.25C121.69,193.42,137.48,196,151.09,191ZM92.27,145.82c-.17-5.58,8.59,0,16.43,5.25s-13,7.22-13,7.22S92.43,151.38,92.27,145.82Zm18.16-10.89c-1.35,3.66-4.44,5.88-6.89,5s-3.35-4.6-2-8.26a9.46,9.46,0,0,1,2.53-3.79,4.38,4.38,0,0,1,4.36-1.18,4.18,4.18,0,0,1,2.46,3.23A9.1,9.1,0,0,1,110.43,134.93Zm96.76,48.52c0-.27.05-.43.05-.43a3.54,3.54,0,0,1,.23.48Z"/><path class="cls-13" d="M210.22,142.07s-89,3.61-114.29-41.77l109.2,33.23S209.44,138.76,210.22,142.07Z"/><path class="cls-2" d="M210,133.16c-.28.71-.56,1.42-.87,2.11-.39.92-.8,1.83-1.25,2.71a55.92,55.92,0,0,1-3.47,6.1L99.63,103.85a55.18,55.18,0,0,1,1.5-6.85c.26-1,.56-1.91.88-2.86.24-.71.5-1.43.77-2.14a57.42,57.42,0,0,1,108.31,38C210.76,131.09,210.4,132.12,210,133.16Z"/><path class="cls-10" d="M119.66,94.23l-.52-.18A55.25,55.25,0,0,1,131,75.48c8-8.33,22.51-18,46-16.79l0,.56c-23.22-1.22-37.56,8.36-45.5,16.6A54.52,54.52,0,0,0,119.66,94.23Z"/><circle class="cls-2" cx="176.97" cy="58.97" r="5.91"/><path class="cls-15" d="M194.62,94a12.81,12.81,0,0,0,4.84-5c2.25-5-2.7-8.66-7.21-6.21A14.15,14.15,0,0,0,187.86,87c1.17-1.79-.29-4.45-2.37-5a5.62,5.62,0,0,0-5.55,2.44,15.05,15.05,0,0,0-2.24,6c-.1-1.47-.36-3.17-1.65-3.87a2.87,2.87,0,0,0-3,.35,6.43,6.43,0,0,0-1.9,2.49c-2.61,5.16-3.46,13.57.64,18.3-1.85,1.93-3.59,3.8-5.17,5.49a.62.62,0,0,0,0,.88.63.63,0,0,0,.42.17.65.65,0,0,0,.46-.2c1.57-1.68,3.3-3.54,5.13-5.46l.3.26c4.73,3.85,13.83,4,19.27,2a8.32,8.32,0,0,0,3.51-2.09,4,4,0,0,0,1-3.81,2.72,2.72,0,0,0-3-1.83,9.79,9.79,0,0,0,5.08-3.44c.87-1.14,1.49-2.7.88-4C198.93,94,196.55,93.82,194.62,94Z"/><path class="cls-16" d="M172.23,107.46l-.39-.19c-6-3.16-7.41-12.25-6-18.25a6.57,6.57,0,0,1,1.25-2.87,2.92,2.92,0,0,1,2.81-1.06c1.42.37,2.08,2,2.54,3.36a15,15,0,0,1,.73-6.33,5.63,5.63,0,0,1,4.81-3.7c2.14,0,4.18,2.22,3.48,4.24a14.25,14.25,0,0,1,3.24-5.19c3.79-3.46,9.47-1.1,8.49,4.3a12.72,12.72,0,0,1-3.5,6c1.84-.59,4.2-1,5.41.52.91,1.12.68,2.77.11,4.09a9.78,9.78,0,0,1-4.36,4.71,2.66,2.66,0,0,1,3.59.91,4,4,0,0,1-.07,3.94,8.42,8.42,0,0,1-2.9,2.88C186.6,108,177.75,110.07,172.23,107.46Z"/><path class="cls-17" d="M167.66,114.13a.56.56,0,0,1-.3-.08.61.61,0,0,1-.24-.84c4.15-7.45,9.83-17.66,15.75-25.15a.61.61,0,0,1,.87-.1.62.62,0,0,1,.11.87c-5.86,7.41-11.52,17.57-15.65,25A.6.6,0,0,1,167.66,114.13Z"/><path class="cls-17" d="M175.32,101.38a.63.63,0,0,1-.62-.51.62.62,0,0,1,.51-.72l8.61-1.56a.63.63,0,0,1,.73.5.62.62,0,0,1-.51.72l-8.61,1.56Z"/><path class="cls-17" d="M178.16,96.22h0a.62.62,0,0,1-.58-.66l.6-8.13a.6.6,0,0,1,.66-.57.62.62,0,0,1,.58.66l-.6,8.13A.62.62,0,0,1,178.16,96.22Z"/><path class="cls-10" d="M210,133.16c-.64,1.66-1.34,3.27-2.12,4.82L101.13,97q.7-2.52,1.65-5a57.21,57.21,0,0,1,2.94-6.45L211.09,130C210.76,131.09,210.4,132.12,210,133.16Z"/><path class="cls-8" d="M207.19,158.84l-21-6.32-4.27-1.29-26.42-7.93L117.93,132l-7.05-2.12-6.82-2.05-24.94-7.49a33.93,33.93,0,0,1,14.19-4.21l2.61-6.1L124.1,122.4l32.18,14.12Z"/><path class="cls-2" d="M226.72,166.33,68.16,105.46C76,98.86,87.85,95,102,94.14h.06l107,41.09,0,0C219.07,145.41,225.33,156.21,226.72,166.33Z"/><path class="cls-8" d="M198.73,155.59,68.16,105.46C76,98.86,87.85,95,102,94.14c.24-.71.5-1.43.77-2.14a57.37,57.37,0,0,1,43-35.86c9.29,8.66,21.81,27.24,6,57.09,0,0,1.24.41,3.31,1.27,6.61,2.74,21.77,10.06,33.09,23.35A58.69,58.69,0,0,1,198.73,155.59Z"/><path class="cls-10" d="M52.72,98.57q0-4.33-.12-8.64c-.23-6.51-.79-13.1-.2-19.54L44.68,70Q44.36,84,44,98.09c0,1.91-.1,3.81-.14,5.72,0,1.14,0,2.28-.08,3.42-.1,3.16-.23,6.33-.57,9.48-.06.6-.14,1.2-.21,1.8-.35,2.77-.83,5.53-1.38,8.27-1.51,7.55-3.51,15-4.61,22.65a4.51,4.51,0,0,0,.09,2.42c1.3,3.12,9.19,2.91,9.19,2.91,3.37-7.24,4-15.4,4.65-23.36q.24-3.06.46-6.11c.17-2.35.34-4.69.49-7,.23-3.52.43-7,.57-10.55C52.62,104.66,52.7,101.62,52.72,98.57Z"/><path class="cls-7" d="M51.93,118.26c-.15,2.34-.32,4.68-.49,7l-9.78,1.49c.55-2.74,1-5.5,1.38-8.27.07-.6.15-1.2.21-1.8.34-3.15.47-6.32.57-9.48,0-1.14.06-2.28.08-3.42,0-1.91.09-3.81.14-5.72l8.68.48c0,3.05-.1,6.09-.22,9.14C52.36,111.22,52.16,114.74,51.93,118.26Z"/><path class="cls-8" d="M51.93,118.26l-8.89.25c.07-.6.15-1.2.21-1.8.34-3.15.47-6.32.57-9.48l8.68.48C52.36,111.22,52.16,114.74,51.93,118.26Z"/><g class="cls-18"><path class="cls-19" d="M40.15,145c-.86-3.77.4-7.48,1.36-11.09,1.06-4,2-8.05,2.87-12.11A110.92,110.92,0,0,0,46.46,96c-.27-8.77-.53-17.3,1.55-25.82L44.68,70Q44.36,84,44,98.09c0,1.91-.1,3.81-.14,5.72,0,1.14,0,2.28-.08,3.42-.1,3.16-.23,6.33-.57,9.48-.06.6-.14,1.2-.21,1.8-.35,2.77-.83,5.53-1.38,8.26-1.51,7.56-3.51,15-4.61,22.66a4.51,4.51,0,0,0,.09,2.42c1.3,3.12,9.19,2.91,9.19,2.91.32-.69.62-1.4.89-2.12C43.78,151.15,41,148.64,40.15,145Z"/></g><path class="cls-20" d="M42.64,82.25s-18.09-10-14.86-26.17c0,0,5.85.47,7.44,7.68,0,0-.09-15.76,5.7-22.11,0,0,2.06,7.38,3,10.46-1-3.32,2.13-6,3.68-8.54A14.8,14.8,0,0,0,49.43,39c.23-1,1-4.44.16-5.33,0,0,7.64,8.14,5.49,17.87a6.61,6.61,0,0,1,1.53-2.4,33.53,33.53,0,0,1,3.22-2.74,7.53,7.53,0,0,0,2-3.45,19.07,19.07,0,0,0,.71-3.42s9.21,19.59,1.73,27.36c0,0,2.41,1.65,4.37.85,0,0-1.1,20.14-20.19,17.57Z"/><path class="cls-3" d="M59.17,67.64a9.82,9.82,0,0,1-.32,2c-.06.2-.12.41-.19.6l-2.9,8.58-1.91,5.64s-5.63,3.09-11.21-2.2L41.55,76.9,40,69.06a8.8,8.8,0,0,1-.17-1.33,9.71,9.71,0,1,1,19.39-.09Z"/><path class="cls-20" d="M45.6,80.42c-1.2-.27-2.38-.56-3.52-.9l.56,2.73c5.58,5.29,11.21,2.2,11.21,2.2l1.09-3.24A34.43,34.43,0,0,1,45.6,80.42Z"/><path class="cls-21" d="M58.85,69.63c-.06.2-.12.41-.19.6l-2.9,8.58A35.18,35.18,0,0,1,41.55,76.9L40,69.06a8.8,8.8,0,0,1-.17-1.33A23.86,23.86,0,0,0,58.85,69.63Z"/><path class="cls-22" d="M56,59.93c-5.79,2.29-9.45.34-11.28-1.27A9.72,9.72,0,0,1,56,59.93Z"/><path class="cls-20" d="M35.79,47.86s-6-5.92,1.46-8.54C37.25,39.32,34.27,43.27,35.79,47.86Z"/><path class="cls-20" d="M64.11,35.36s7.17,1.57,2.45,9A11.29,11.29,0,0,0,64.11,35.36Z"/><path class="cls-20" d="M70.19,77.34s3.76.41,2.81-3A5.9,5.9,0,0,1,70.19,77.34Z"/><path class="cls-5" d="M211.26,238.06c1.73-1.77,4.79-4.81,7.55-4,5.32,1.48-2.26,6.8-4.38,8.44a64.81,64.81,0,0,1,9.45-3.81,19.74,19.74,0,0,1,5.37-1c1.32,0,4.48.31,4.48,2.21s-3.5,3.11-4.93,3.62A18.13,18.13,0,0,1,216,243c3,1.29,5.89,2.64,8.74,4.16a46.9,46.9,0,0,1,5.26,3.19c1.28.92,3.25,2.23,3.55,3.94.85,4.83-8.61.12-10.09-.61-5.82-2.87-9.43-6.36-13.85-11l-.31-.34c-2.33,2.21-9.51,9.42-13.05,6.62-4.48-3.8,9.12-9.56,12.6-9Z"/><rect class="cls-6" x="116.99" y="260.9" width="5.54" height="83.12"/><rect class="cls-6" x="136.12" y="260.9" width="5.54" height="69"/><path class="cls-23" d="M260,359.84c-13.62-59.18-53.56-58.34-69.06-55.62A29.79,29.79,0,0,0,173,288.39c-10.4-3.37-22.82-1-31,5.84-12,10-13.51,26.57-13.8,41.39-3.77-3.73-10.8-4.16-15.16-.94a10.07,10.07,0,0,0-3.78,5.76,9.55,9.55,0,0,0,1.55,8c-3.08-2.81-6.21-5.62-9.52-8.21a61.34,61.34,0,0,0-14.08-8.58A39.85,39.85,0,0,0,77.79,329a35.93,35.93,0,0,0-7.31-.41h-.2a29.4,29.4,0,0,0-5.94.91l-1.06.29A25.47,25.47,0,0,0,58.21,332a19.46,19.46,0,0,0-4.73,3.81l-.09.1c-5.09,5.68-6.72,14.07-2.19,20-4.81-6-16.24-6.07-21.21,0-6.8-3.64-15.58-1.14-21,4Z"/><path class="cls-23" d="M68.48,336.32a43.38,43.38,0,0,0,18-20.25c1.16-2.7,2-5.68,1.38-8.53s-3.39-5.4-6.28-4.94c-2,.32-3.61,2-4.79,3.66C71.32,314,70.66,324,70.19,333.47c.41-6.58-.25-13.42-3.42-19.2A20.42,20.42,0,0,0,58,305.72c-3.62-1.77-10.29-3.3-10.93,2.35-.59,5.2,4,11.23,7.4,14.74,3.88,4,8.67,7,13.41,9.95a31.71,31.71,0,0,0-16.38-9.21c-3.23-.68-7.29-.49-8.93,2.37-1.5,2.63.09,6.15,2.63,7.79s5.69,1.91,8.71,2.12l13.68,1Z"/><path class="cls-23" d="M225.26,310.31a20.28,20.28,0,0,1-8.15-9.67,6.47,6.47,0,0,1-.54-4,2.84,2.84,0,0,1,3-2.23,3.65,3.65,0,0,1,2.19,1.77c2.45,3.68,2.64,8.36,2.75,12.78a16.42,16.42,0,0,1,1.82-8.93,9.55,9.55,0,0,1,4.19-3.89c1.71-.78,4.84-1.42,5.07,1.22.22,2.44-2,5.2-3.63,6.8a31.4,31.4,0,0,1-6.37,4.49,14.85,14.85,0,0,1,7.75-4.11c1.52-.28,3.42-.14,4.15,1.21a2.91,2.91,0,0,1-1.32,3.61,8.48,8.48,0,0,1-4.09.89l-6.4.29Z"/><path class="cls-24" d="M170.64,348A48.83,48.83,0,0,0,192,359.84h9.78l11.24-5.79c3-1.56,6.18-3.23,8.08-6.05s2-7.18-.73-9.23c-3-2.24-7.26-.63-10.3,1.51a35.22,35.22,0,0,0-5.14,4.46c.63-1.28,1.22-2.58,1.73-3.92,2-5.12,4.05-13.42,1.13-18.54-3.16-5.56-9.38-1-12.34,2.42a23,23,0,0,0-5.29,12.72c-.67,6.92,1.35,13.83,4.35,20.12-4.51-9.18-9.57-18.62-18.22-24-2-1.23-4.33-2.24-6.59-1.67-3.2.81-4.88,4.65-4.31,7.9S168.25,345.73,170.64,348Z"/></g></g></svg>