<svg id="Layer_1" data-name="Layer 1" xmlns="http://www.w3.org/2000/svg" viewBox="0 0 372.95 357.43"><defs><style>.cls-1{fill:#f0ead6;}.cls-2{fill:#dccd9b;}.cls-3{fill:#fff;}.cls-4{fill:#e83d32;}.cls-5{fill:#27aae1;}</style></defs><title>smaArtboard 85 copy 17</title><circle class="cls-1" cx="181.48" cy="178.77" r="174.37"/><path class="cls-2" d="M299.13,177.77c-.3-66.5-53.91-120.41-120.41-120.41A120.41,120.41,0,0,0,58.31,177.77c0,66.5,53.91,120.82,120.41,120.41C246.64,297.77,299.43,244.19,299.13,177.77Z"/><path class="cls-3" d="M344.75,207a11.07,11.07,0,0,0-3.1-8.22c-2.63-2.69-6.48-4-11.77-4-.85,0-1.72,0-2.6.1,2.49-3.59,4.28-7.44,4.42-11.2a12.86,12.86,0,0,0-4.76-10.53,10.87,10.87,0,0,0-7-2.61c-3.39,0-13.6,0-31.21,37.44A80.79,80.79,0,0,1,241,223h0a90.9,90.9,0,0,1-9.6-.55l.48-.38a56.73,56.73,0,0,0,7.53-7.54,6.25,6.25,0,0,0,7.27-.89,75.81,75.81,0,0,0,10-11.92,6.25,6.25,0,0,0,6.68-2,100.89,100.89,0,0,0,16.73-31.47,6.22,6.22,0,0,0,.95-.55c.2-.14,17-12.25,9.41-34.46L291,133a6.25,6.25,0,0,0,2.82-7.28c-.23-.74-4.74-14.54-19.3-25.59a6.25,6.25,0,0,0-1-7.7,54.59,54.59,0,0,0-26-12.63l-5.13-13.95,2.39.24.61,0a6.25,6.25,0,0,0,5.86-8.45c-.7-1.86-3.29-6.17-12.74-10,2.22-18-6-40.55-6.34-41.61A6.25,6.25,0,0,0,225.6,2c-36.26,3.79-48.79,23.46-52.83,33.35q-3.49.89-7.11,2A6.25,6.25,0,0,0,160,33.74h-.07c-1,0-23.78.48-41.16,20.79a121.32,121.32,0,0,0-37.2-6.33c-13.93,0-26.35,2.89-36.93,8.66a6.25,6.25,0,0,0-3.25,5.66c.06,2,1.4,19.8,30.28,55.32-6.39,7.51-18.69,23.93-20.18,40.5a6.25,6.25,0,0,0,4.57,6.58l.27.07c-1.9,12.17-.88,25.45,7.69,36a6.25,6.25,0,0,0,4.85,2.32h.19c4.38,12.17,11.49,25.56,22.82,33.31a6.25,6.25,0,0,0,9.24-2.63,74,74,0,0,0,13.7,7.07,81.43,81.43,0,0,1-8.42.43,79.11,79.11,0,0,1-27.2-4.85c-16-18.66-28.46-28.12-36.91-28.13A10.9,10.9,0,0,0,33,213.38a12.86,12.86,0,0,0-1.77,11.42c1.15,3.58,3.89,6.81,7.25,9.59-7.39,1.51-10.34,4.17-12,6.35a11.06,11.06,0,0,0-1.61,10c.87,2.88,4,9.56,14.72,9.58a33.84,33.84,0,0,0,5.67-.52,15,15,0,0,0-1.1,6.75,10.15,10.15,0,0,0,4.61,7.59,10.53,10.53,0,0,0,5.76,1.73c5.11,0,9.79-3.8,13.52-8.29,2.27,4,5.62,7.34,10.51,7.34a10.58,10.58,0,0,0,4-.79,11.09,11.09,0,0,0,6.77-7.38,12.35,12.35,0,0,0,.43-3.57,102.55,102.55,0,0,0,16.71,1.4h0c3.28,0,6.61-.15,9.89-.46a112,112,0,0,0,43.28-13.47l-.46,46a119.58,119.58,0,0,0,19.46,1.47,124.29,124.29,0,0,0,41.58-7.33l-7.61-48.37A116.06,116.06,0,0,0,241,246.09l2.21,0a105,105,0,0,0,42.37-9.71A12.31,12.31,0,0,0,287,239.7a11.08,11.08,0,0,0,8.5,5.29,11.31,11.31,0,0,0,1.24.07,10.19,10.19,0,0,0,7.71-3.47,15.75,15.75,0,0,0,3.27-6.83c3.82,2.65,8.14,4.79,12.16,4.8a10.65,10.65,0,0,0,8.16-3.62,10.14,10.14,0,0,0,2.41-8.55,15,15,0,0,0-2.87-6.22C342.13,219.65,344.65,211.84,344.75,207Z"/><path class="cls-4" d="M338.51,206.85c.28-12.72-31.78-.73-31.78-.73s27-19.21,16.2-28.21C314,170.44,298.67,201.3,293.69,212c-32.11,24-76.91,22.77-114.27-3.22l-6,8.69c22,15.28,46.33,22.74,69.72,22.31a97.61,97.61,0,0,0,49.7-14.43c-1.91,4.83-2.87,12.69,3.35,13.39,8,.9,5.86-17.32,5.86-17.32s15.57,16.87,21.28,10.36S308.78,214,308.78,214,338.23,219.56,338.51,206.85Z"/><path class="cls-5" d="M165.5,297.53a120.07,120.07,0,0,0,13.21.65,124.9,124.9,0,0,0,35.57-5.34l-12.9-82-35,.64Z"/><path class="cls-4" d="M192.89,215l-8.15-6.75c-29,35.05-71.86,48.25-109.23,33.72-7.67-9-30.72-34.63-37.31-25.05-8,11.55,23.16,22.84,23.16,22.84s-34.09-3-30.42,9.21,30.55-1.11,30.55-1.11S45,264.22,52.29,269,70,253.29,70,253.29s2.83,18.12,10.29,15.12c5.81-2.34,2.78-9.65-.35-13.79a96.44,96.44,0,0,0,35.9,3.37C144.19,255.3,171.89,240.37,192.89,215Z"/><path class="cls-5" d="M292.8,212.68c-32,23.34-76.36,21.9-113.38-3.86l-6,8.69c22,15.28,46.33,22.74,69.72,22.31a97.64,97.64,0,0,0,48.84-13.92C292.45,221.55,292.61,217.11,292.8,212.68Z"/><path class="cls-5" d="M184.73,208.26c-28.21,34.06-69.44,47.48-106,34.88,1,3.93,1.84,7.88,2.69,11.85a96.41,96.41,0,0,0,34.47,3c28.34-2.68,56-17.61,77-43Z"/><polygon class="cls-3" points="161.4 217.01 103.28 197.38 85.16 129.16 79.75 107.42 53.99 67.99 65.69 56.86 104.26 61.26 147.44 76.8 195.86 31.75 220.38 8.98 223.53 66.02 252.82 107.9 248.97 153.54 212.23 203.76 161.4 217.01"/><path class="cls-4" d="M287.82,127.6s-6.45-20.49-30.63-30.06c0,0,9-1.93,11.93-.62A48.74,48.74,0,0,0,242.86,85.4L233,58.65l12.31,1.22s-1.63-4.35-14.05-8.15c4.8-16.69-5-43.54-5-43.54-37.5,3.92-46.76,25.75-48.73,32.42a172.49,172.49,0,0,0-32.45,11.24S151.55,43,160,40c0,0-23.15.23-39.13,22,0,0-41.09-17.13-73.22.4,0,0,.51,17.91,32.28,55.67,0,0-20.41,20.84-22.21,40.89,0,0,9.45-19.72,16.45-25.13,0,0-23.94,40.26-5.29,63.34,0,0-3.21-16.21.72-21.92,0,0,.91,15.5,7.13,27.95l-.86-.34A15.15,15.15,0,0,1,78.19,205l.16.21a40.57,40.57,0,0,1,6.78,1c-1.86-4.65-3.31-9.78-2.45-13.15A143,143,0,0,0,90.48,208c.88.36,1.77.69,2.63,1.12,5.31,2.62,10.35,5.45,15.34,8.53l8.06.6c13,3,21.58,5.76,35.7,6.62,12.91.78,25.63,1.88,38.46,3.39,6.18.72,10.46-1.3,17.16-2.64,9.14-1.82,14.3-6.31.28,2.16a55.83,55.83,0,0,1,11.71-5.35l-.16-.08h0c.79-.38,1.58-.78,2.39-1.19a31,31,0,0,0,5.9-4c4.92-4.05,11.92-11.58,16.92-24.27,0,0-.67,13.73-2.4,16.09,0,0,15.43-14.32,16.86-30,0,0,.07,13.83-.72,16.66,0,0,16.26-19.62,18.24-42.69,0,0,1.31,7.89.66,9.53,0,0,19-13.28.79-39.28A13.3,13.3,0,0,1,287.82,127.6Zm-202.35-27C71.62,92.43,61.75,69.64,61.75,69.64c16.2-9.08,43.1,3.53,43.1,3.53C93.15,83.65,85.47,100.58,85.47,100.58Zm103.93,49.5c-15.51,4.66-33-3.14-38.67-21.89S149.53,78.55,165,73.89s36.22,18.69,41.85,37.44S204.91,145.43,189.4,150.08Zm30.33-93.67S198.51,44.61,190.7,43c-3.37-.69,6.69-18.38,27.39-23C218.1,20,227.55,45,219.73,56.42Z"/><path class="cls-4" d="M68.8,176s4.67,40.55,26.62,55.57c0,0-8.47-16-9.78-23.77,0,0,12.13,30.85,60.12,33.45A56.54,56.54,0,0,1,122,226.46s64,24.31,105-8.45l-88.62-12.36s-43.24-32.77-44.18-32.77S68.8,176,68.8,176Z"/><path class="cls-3" d="M156.17,195.27c19.18,6.23,41.51,2.94,66.47-9.83a1.07,1.07,0,0,0-1-1.9c-26.67,13.64-50.17,16.26-69.87,7.81-30.64-13.16-41.55-49.08-41.65-49.44a1.07,1.07,0,0,0-2,.6c.11.37,11.31,37.25,42.86,50.8Q153.52,194.42,156.17,195.27Z"/><path class="cls-3" d="M96.74,147s3.08-30.16,23.25-9.87c0,0-17.22-13.75-23,14.5"/><path class="cls-3" d="M217.45,135.73c-12,7.09,18.64,11.65,18.64,11.65s5.33-9.94,6-18.14S229.41,128.64,217.45,135.73Z"/><ellipse class="cls-4" cx="170.42" cy="131" rx="7.59" ry="12.51" transform="translate(-24.87 41.2) rotate(-12.85)"/><ellipse class="cls-3" cx="223.34" cy="113.05" rx="7.59" ry="12.51" transform="translate(-19.55 52.52) rotate(-12.85)"/></svg>