<svg xmlns="http://www.w3.org/2000/svg" viewBox="0 0 540 440.72"><defs><style>.cls-1,.cls-11,.cls-14,.cls-9{isolation:isolate;}.cls-2{fill:#eff2b1;}.cls-3{fill:#487c66;}.cls-4{fill:#e63f31;}.cls-5{fill:#58987f;}.cls-19,.cls-20,.cls-26,.cls-29,.cls-6{fill:none;stroke-miterlimit:10;}.cls-6{stroke:#c4e1b1;stroke-width:1.09px;}.cls-7{fill:#fff;}.cls-8,.cls-9{fill:#a7c081;}.cls-11,.cls-14,.cls-9{opacity:0.1;}.cls-10,.cls-11{fill:#96aa74;}.cls-12{fill:#61bae9;}.cls-13{fill:#f29327;}.cls-14{fill:#231f20;}.cls-15{fill:#f2aa21;}.cls-16{fill:#f37b88;}.cls-17{fill:#0c6e9f;}.cls-18{fill:#f19227;}.cls-19,.cls-20{stroke:#bc3d2a;}.cls-19{stroke-width:0.92px;}.cls-20{stroke-width:0.71px;}.cls-21{fill:#086e9e;}.cls-22{fill:#61b9e8;}.cls-23,.cls-24{fill:#0d7cc0;}.cls-24{opacity:0.5;mix-blend-mode:multiply;}.cls-25{fill:#0e698c;}.cls-26{stroke:#fff;stroke-width:0.16px;}.cls-27{fill:#073a49;}.cls-28{fill:#ec4a3e;}.cls-29{stroke:#0e698c;stroke-width:0.29px;}</style></defs><g class="cls-1"><g id="Layer_1" data-name="Layer 1"><path class="cls-2" d="M439.8,231.71A169.8,169.8,0,1,1,270,61.91,169.84,169.84,0,0,1,439.8,231.71Z"></path><path class="cls-3" d="M297.05,386.06v13.53a170.85,170.85,0,0,1-25.65,1.93,168.4,168.4,0,0,1-18.62-1V386.06Z"></path><g id="Layer_1-2" data-name="Layer 1"><path class="cls-4" d="M283,308l-7.32-7.1c-12.55,13-37.5,17.86-55.71,21.45l-2.81.55c-24.15,4.79-49.37,8.83-69.06,1.31l-3.64,9.52c22.24,8.49,49,4.25,74.68-.83l2.79-.55c12.83-2.52,28.77-5.66,42.41-11.85A60.49,60.49,0,0,0,283,308Z"></path><path class="cls-5" d="M221.23,332.49l.78-.16c12.82-2.52,28.78-5.66,42.4-11.85A60.74,60.74,0,0,0,283.06,308l-7.32-7.1c-12.56,13-37.51,17.86-55.72,21.45l-1.18.23,1.58,6a10.45,10.45,0,0,1,.18,1.12c.16.64.33,1.27.47,1.93A6.78,6.78,0,0,1,221.23,332.49Z"></path><path class="cls-4" d="M303.93,309.47l6.87-7.54c13.29,12.12,38.49,15.43,56.9,17.85l2.84.37c24.38,3.25,49.82,5.68,69-3.08l4.23,9.27c-21.64,9.89-48.72,7.36-74.58,3.92l-2.82-.37c-13-1.71-29.1-3.83-43.09-9.13A60.3,60.3,0,0,1,303.93,309.47Z"></path><path class="cls-4" d="M443.09,326.7c3,3.18,5.59,6.71,8.56,9.93,2.78,3,6.37,5.8,10.72,5.18,12.36-1.73-3-15.95-7.22-20.24,7.62,4.94,15.42,9.88,24,13,4.2,1.55,9.28,3.09,13.74,1.86,6.2-1.69,3.4-6.41-.16-9.4-8.77-7.39-23.19-9.33-34-6.27,7.14-2,51.09-14.42,41.43-24.17-6.84-7.54-38.95,9.41-45.09,13.6a64.3,64.3,0,0,0-10.68,9.43l-.79.64c-4.53-5.65-18.42-24-27.16-18.74-11.17,7.12,17.49,24.17,25.44,23.86C442.13,325.41,443,326.53,443.09,326.7Z"></path><path class="cls-5" d="M331.64,323.61c11.78,3.36,24.28,5,34.74,6.38l2.82.37,1.78.23c.57-3.34,1.27-6.69,2-10l-2.46-.31-2.84-.37c-7.3-1-15.68-2.06-24-3.8A8.6,8.6,0,0,1,343,319c-1.74,3.83-7,6.43-11.09,4.47h-.21Z"></path><polygon class="cls-5" points="300.99 392.39 305.27 298.38 250.75 296 248.99 390.44 300.99 392.39"></polygon><polyline class="cls-6" points="264.38 320.49 262.03 360.53 289.36 360.8 291.12 322.1"></polyline><polygon class="cls-7" points="236.61 285.43 194.83 230.19 189.7 179.46 216.04 130.57 224.02 68.78 251.72 93.69 306.42 142.94 354.2 124.86 397.06 119.28 410.27 131.45 382.32 175.79 376.7 200.1 357.76 276.35 293.42 299.25 236.61 285.43"></polygon><path class="cls-4" d="M161.56,197c-19.76,29.28,1.6,43.72,1.6,43.72-.75-1.82.57-10.62.57-10.62,2.61,25.63,21.06,47.18,21.06,47.18-.94-3.14-1.11-18.54-1.11-18.54,1.87,17.43,19.31,33,19.31,33-2-2.59-3-17.85-3-17.85,5.79,14,13.69,22.25,19.27,26.71.39.32.75.58,1.11.86h0c43.8,37.06,98.13,21.57,113.35,11.16a63.12,63.12,0,0,1-22.54,13.25c53.36-3.73,66.3-38.32,66.3-38.32-1.31,8.62-10.45,26.63-10.45,26.63,22.43-15.89,27.88-56,28.54-61.64,3.19,7.26.37,22.88.37,22.88,20.33-26-7-70.4-7-70.4,7.89,5.89,18.77,27.66,18.77,27.66-2.38-22.28-25.47-45.1-25.47-45.1,34.69-42.6,34.93-62.54,34.93-62.54-36-18.93-81.46.88-81.46.88-18.17-23.9-44-23.75-44-23.75,9.47,3.23,16.84,12.92,16.84,12.92a192.34,192.34,0,0,0-36.31-11.89c-2.32-7.4-13-31.52-54.82-35.21,0,0-10.48,30.06-4.82,48.55-13.76,4.47-15.5,9.33-15.5,9.33l13.68-1.58-10.46,30a54.18,54.18,0,0,0-29,13.3c3.25-1.52,13.29.47,13.29.47-26.74,11.1-33.55,34-33.55,34A14.83,14.83,0,0,1,161.56,197Zm96.16-90.86c-8.64,1.92-32.07,15.45-32.07,15.45-8.93-12.52,1.11-40.6,1.11-40.6C249.89,85.79,261.41,105.29,257.72,106.12Zm46,94.09c-5.93,21-24.81,34-42.14,29.09s-26.6-25.92-20.67-46.87,28.55-47.3,45.89-42.4S309.62,179.24,303.7,200.21Zm98-66.79S391.09,159,375.86,168.26c0,0-8.86-18.68-22.05-30.13,0,0,29.71-14.53,47.91-4.71Zm-6.84,117.65a7.07,7.07,0,0,0,.55.76l-.51-.06v-.7ZM209,223.1s-6.09-10.94-7-20.07,14.11-.89,27.55,6.77-20.53,13.3-20.53,13.3Z"></path><path class="cls-7" d="M304.61,272.68c34.87-15.65,46.67-56.91,46.78-57.32h0a1.17,1.17,0,0,0-.83-1.45,1.2,1.2,0,0,0-1.46.82c-.11.43-11.59,40.6-45.46,55.8-21.76,9.77-48,7.27-77.89-7.42h0a1.19,1.19,0,1,0-1.05,2.13c28,13.76,53,17,74.16,9.74C300.81,274.3,302.74,273.54,304.61,272.68Z"></path><path class="cls-7" d="M363.9,225.33C357,194,338.07,209.59,338.07,209.59c22.08-22.91,26.05,10.57,26.05,10.57"></path><path class="cls-4" d="M139.16,335.46c-2.13,5.18-6,14.11-12.4,14.8-12.39,1.33-1-16.2,2-21.41-7.8,8.41-17.06,19.46-28.42,22.91-4.92,1.51-11.94.84-8.93-5.86,2.16-4.76,8.25-8.63,12.71-11,6.29-3.46,13.76-5.87,21-5.87-7.37-.22-53-1.47-46-13.28,4.77-9,40.06-.43,47.06,2.12a65.58,65.58,0,0,1,12.65,6.53l.94.43c3.18-7,6.32-14.57,11.6-20.27,3.33-3.61,12.29-8.11,13.73-.48,1.64,8.72-14.74,23.66-22.42,25.29"></path><ellipse class="cls-4" cx="278.81" cy="202.04" rx="12.71" ry="5.91" transform="translate(5.1 410.94) rotate(-73.28)"></ellipse><ellipse class="cls-7" cx="226.44" cy="183.18" rx="12.71" ry="5.91" transform="translate(-14.15 347.35) rotate(-73.28)"></ellipse><polygon class="cls-8" points="131.13 317.06 113.7 210.95 109.95 211.56 127.63 319.15 131.13 317.06"></polygon><path class="cls-8" d="M93.14,179.93c-3-15.69,10.9-23.68,10.9-23.68,14.45,5.24,16.94,22.92,16.94,22.92,2.22-11.79,16.89-17.53,16.89-17.53a79.67,79.67,0,0,1,.85,19.63C136,210.73,114,216,114,216c-14.69.46-25.52-10-32.64-20.51A94.27,94.27,0,0,1,70.93,175C85.44,171.68,93.19,179.93,93.14,179.93Z"></path><path class="cls-8" d="M95.3,186.49c-2.52-12.93,10.86-19.83,10.86-19.83,13.58,4.05,15.58,18.62,15.58,18.62,2.32-9.8,16.39-14.86,16.39-14.86a56.59,56.59,0,0,1,.38,16.23C135.29,211.12,114.23,216,114.23,216c-14,.66-24.08-7.72-30.63-16.29a69.57,69.57,0,0,1-9.45-16.76C88.06,179.84,95.26,186.51,95.3,186.49Z"></path><path class="cls-9" d="M138.51,186.65h0C135.29,211.12,114.23,216,114.23,216c-14,.66-24.08-7.72-30.63-16.29C125.42,215.82,138.51,186.65,138.51,186.65Z"></path><polygon class="cls-10" points="127.72 319.1 113.7 289.28 110.27 290.89 124.44 321.06 127.72 319.1"></polygon><path class="cls-10" d="M85.47,265.08c-7.17-14.27,4-25.75,4-25.75C104.8,240.4,112,256.75,112,256.75c-1.12-11.93,11.42-21.46,11.42-21.46a80,80,0,0,1,6.16,18.65c5.39,29.09-14.35,40.21-14.35,40.21-14,4.47-27.28-2.66-37-10.8a93.5,93.5,0,0,1-15.58-16.89C75.79,259.23,85.51,265,85.47,265.08Z"></path><path class="cls-10" d="M89.29,270.82c-6-11.75,5-22,5-22,14.2.17,20.1,13.65,20.1,13.65-.44-10,11.78-18.83,11.78-18.83a57.44,57.44,0,0,1,4.8,15.51c3.58,24.4-15.37,34.82-15.37,34.82-13.28,4.5-25.3-.88-33.94-7.3A69.86,69.86,0,0,1,68,273.12C80.55,266.36,89.29,270.81,89.29,270.82Z"></path><path class="cls-11" d="M131,259.11h0c3.58,24.4-15.37,34.82-15.37,34.82-13.28,4.5-25.3-.88-33.94-7.3C126.3,290.82,131,259.11,131,259.11Z"></path><polygon class="cls-12" points="147.36 343.37 67.53 214.13 63.98 216.32 143.78 345.51 147.36 343.37"></polygon><path class="cls-13" d="M33.77,191.17c-9.59-14.66,1.17-28.57,1.17-28.57,16.84-.7,26.73,16.18,26.73,16.18C59,165.92,71.45,154,71.45,154a87.36,87.36,0,0,1,9,19.61c9.51,31-10.62,45.6-10.62,45.6-14.69,6.62-30.06.51-41.67-7.15A103.75,103.75,0,0,1,9.1,195.57C22.46,186.11,33.77,191.22,33.77,191.17Z"></path><path class="cls-12" d="M38.61,197c-7.95-12.07,2.74-24.66,2.74-24.66C56.85,170.79,65,184.75,65,184.75c-1.75-10.91,10.43-21.92,10.43-21.92a63,63,0,0,1,7.16,16.36C89.49,205.28,70.15,219,70.15,219c-13.88,6.55-27.65,2.19-37.86-3.74a76.2,76.2,0,0,1-16.59-13C28.52,193.29,38.65,197,38.61,197Z"></path><path class="cls-14" d="M82.56,179.19h0C89.49,205.28,70.15,219,70.15,219c-13.88,6.55-27.65,2.19-37.86-3.74C81.43,214.19,82.56,179.19,82.56,179.19Z"></path><polygon class="cls-15" points="146.76 343.72 129.97 222.16 127.61 222.48 144.54 345.06 146.76 343.72"></polygon><path class="cls-12" d="M117.61,202.38c-1.62-9.89,7.23-14.68,7.23-14.68,9,3.55,10.24,14.65,10.24,14.65,1.56-7.3,10.87-10.67,10.87-10.67a49.55,49.55,0,0,1,.19,12.29C144,222.36,130,225.38,130,225.38c-9.21.06-15.85-6.69-20.15-13.39a58.93,58.93,0,0,1-6.18-13.06C112.88,197.06,117.6,202.36,117.61,202.38Z"></path><path class="cls-15" d="M118.84,206.48c-1.38-8.16,7.13-12.27,7.13-12.27,8.47,2.75,9.5,11.93,9.5,11.93,1.62-6.11,10.53-9.06,10.53-9.06a36.23,36.23,0,0,1,0,10.19c-2.49,15.3-15.75,18-15.75,18-8.78.22-15-5.26-19-10.72a44.26,44.26,0,0,1-5.66-10.62C114.39,202.23,118.8,206.53,118.84,206.48Z"></path><path class="cls-14" d="M146,207.27h0c-2.49,15.3-15.75,18-15.75,18-8.78.22-15-5.26-19-10.72C137.25,225.38,146,207.27,146,207.27Z"></path><polygon class="cls-15" points="146.76 343.72 129.97 222.16 127.61 222.48 144.54 345.06 146.76 343.72"></polygon><path class="cls-12" d="M117.61,202.38c-1.62-9.89,7.23-14.68,7.23-14.68,9,3.55,10.24,14.65,10.24,14.65,1.56-7.3,10.87-10.67,10.87-10.67a49.55,49.55,0,0,1,.19,12.29C144,222.36,130,225.38,130,225.38c-9.21.06-15.85-6.69-20.15-13.39a58.93,58.93,0,0,1-6.18-13.06C112.88,197.06,117.6,202.36,117.61,202.38Z"></path><path class="cls-15" d="M118.84,206.48c-1.38-8.16,7.13-12.27,7.13-12.27,8.47,2.75,9.5,11.93,9.5,11.93,1.62-6.11,10.53-9.06,10.53-9.06a36.23,36.23,0,0,1,0,10.19c-2.49,15.3-15.75,18-15.75,18-8.78.22-15-5.26-19-10.72a44.26,44.26,0,0,1-5.66-10.62C114.39,202.23,118.8,206.53,118.84,206.48Z"></path><path class="cls-14" d="M146,207.27h0c-2.49,15.3-15.75,18-15.75,18-8.78.22-15-5.26-19-10.72C137.25,225.38,146,207.27,146,207.27Z"></path><polygon class="cls-16" points="142.67 346.18 81.14 276.73 78.85 278.76 140 347.77 142.67 346.18"></polygon><path class="cls-12" d="M53.8,264.39c-8.8-9.42-2.74-20.85-2.74-20.85,12.1-2.62,21.39,8.37,21.39,8.37-3.58-9,4-19.22,4-19.22a63.87,63.87,0,0,1,9,13c10.79,21.29-2,34.37-2,34.37-9.8,6.68-21.71,4.15-31.09.05a76,76,0,0,1-15.89-9.52C45,262.09,53.81,264.38,53.8,264.39Z"></path><path class="cls-16" d="M58,268c-7.23-7.74-1.12-18.21-1.12-18.21,11-3.09,18.67,6,18.67,6-2.64-7.68,4.8-17.19,4.8-17.19a46.53,46.53,0,0,1,7.24,10.91c8.3,18-4,30.41-4,30.41-9.23,6.48-19.76,5.05-27.9,2a56.76,56.76,0,0,1-13.64-7.37C50.27,266.53,58.05,268,58,268Z"></path><path class="cls-14" d="M87.62,249.53h0c8.3,18-4,30.41-4,30.41-9.23,6.48-19.76,5.05-27.9,2C91.22,275,87.62,249.53,87.62,249.53Z"></path><polygon class="cls-17" points="144.63 345.01 88.88 175.6 82.59 177.68 138.8 348.49 144.63 345.01"></polygon><path class="cls-7" d="M45.18,127.73C35.8,101.5,57.59,84,57.59,84c26.26,5.12,35.31,34.89,35.31,34.89.58-20.88,24.32-34.72,24.32-34.72a138.94,138.94,0,0,1,6.72,33.53c3.19,51.48-33.33,66.55-33.33,66.55C65.45,189,44,173.87,28.86,157.73a164.54,164.54,0,0,1-23.4-32.48C29.58,115.57,45.2,127.75,45.18,127.73Z"></path><path class="cls-17" d="M50.53,138.47c-7.82-21.6,13.38-37.1,13.38-37.1,24.54,3.3,31.91,27.88,31.91,27.88,1.36-17.55,24.25-30,24.25-30a99.32,99.32,0,0,1,5,27.86c1,43-33.95,57-33.95,57-23.87,5-43.54-6.87-57.15-19.83A121.62,121.62,0,0,1,13.2,138C36.33,128.93,50.53,138.47,50.53,138.47Z"></path><path class="cls-14" d="M125.08,127.09h0c1,43-33.95,57-33.95,57-23.87,5-43.54-6.87-57.15-19.83C110.38,180.84,125.08,127.09,125.08,127.09Z"></path><polygon class="cls-12" points="151.29 362.22 109.23 313.05 140.25 296.55 151.29 362.22"></polygon></g><path class="cls-18" d="M433.35,242.29s-2.56,20.53,19.14,31.61c0,0-.95-8.81-3.07-12.52,0,0,11.48,15.46,28.78,15,0,0-4.94-7.5-8-10,0,0,16.13,8.35,25,7.31,0,0-5-7.57-9.1-10.51,0,0,22.56,5.6,31.54.29,0,0-18.45-9.83-27-10.62,0,0,8.08-2.55,13.5-7.12,0,0-25.09-6-37.74-2,0,0,9.18-6.36,11.62-10.95,0,0-21.12-.22-28,6,0,0,11.87-10.91,13.73-18.49C463.82,220.3,436.21,228.24,433.35,242.29Z"></path><path class="cls-20" d="M419.54,237.19s56,21,88.59,25.34"></path><line class="cls-20" x1="463.77" y1="251.99" x2="486.36" y2="269.16"></line><path class="cls-20" d="M445.83,246.35a96.16,96.16,0,0,0,24.24,25.32"></path><path class="cls-20" d="M447.1,265.61c-5.39-8.29-7.92-21.48-7.92-21.48a101.5,101.5,0,0,1,13.34-14.85"></path><path class="cls-20" d="M470.8,254.05s9-6.27,24.13-6.81"></path><path class="cls-20" d="M451,248s10.66-7.75,16.37-9.13"></path><path class="cls-21" d="M468.57,125.29c3.27-9.22,1.09-56.14,1.09-56.14s-31.22,35.09-34.48,44.32a17.71,17.71,0,1,0,33.39,11.82Z"></path><circle class="cls-22" cx="451.77" cy="119.68" r="12.33"></circle><circle class="cls-7" cx="451.77" cy="119.68" r="6.05"></circle><circle class="cls-7" cx="456.55" cy="102.53" r="2.55"></circle><path class="cls-23" d="M469.6,69.22A35.84,35.84,0,0,0,529.22,109Z"></path><path class="cls-22" d="M479.94,76.12a23.42,23.42,0,0,0,38.95,26Z"></path><path class="cls-7" d="M489.85,82.74A11.5,11.5,0,0,0,509,95.5Z"></path><path class="cls-24" d="M513.45,98.49a8.08,8.08,0,1,0,10.89,7.27Z"></path><circle class="cls-24" cx="500.96" cy="112.48" r="4.58"></circle><circle class="cls-24" cx="489.6" cy="110.02" r="2.6"></circle><path class="cls-21" d="M406.84,64.72C416,61.28,463,62.56,463,62.56s-34.5,31.88-43.65,35.32a17.71,17.71,0,1,1-12.46-33.16Z"></path><circle class="cls-22" cx="412.77" cy="81.41" r="12.33"></circle><circle class="cls-7" cx="412.77" cy="81.41" r="6.05"></circle><circle class="cls-7" cx="429.82" cy="76.31" r="2.55"></circle><path class="cls-23" d="M462.88,62.63A35.84,35.84,0,0,1,422,3.77Z"></path><path class="cls-22" d="M455.79,52.42A23.42,23.42,0,0,1,429.05,14Z"></path><path class="cls-7" d="M449,42.64a11.5,11.5,0,0,1-13.12-18.88Z"></path><path class="cls-24" d="M432.79,19.34a8.08,8.08,0,1,1-7.48-10.75Z"></path><circle class="cls-24" cx="419.03" cy="32.09" r="4.58"></circle><circle class="cls-24" cx="421.71" cy="43.41" r="2.6"></circle><path class="cls-25" d="M476.21,65.07c-.07.07-.14.15-.21.21l-6.38,5.94-.47.45-5,4.64-.5.47-5.49,5.1-.44.42-3.85,3.58-.45.43-5.42,5-.44.42-4.76,4.43-.44.41-5.49,5.11-.43.41-4.76,4.43-.43.4-2.49,2.32-.43.4-1,.93a3.67,3.67,0,0,1-5.24-5.14l.95-1.06.38-.43,2.28-2.54.39-.43,4.34-4.84.39-.43,5-5.59.4-.44,4.34-4.84.4-.45L446,78.91l.4-.45,4-4.51.42-.47,3.63-4,.4-.44,5.4-6,.42-.46L466.52,56a6.64,6.64,0,1,1,9.69,9.09Z"></path><path class="cls-26" d="M472,56.27s-1.38,2.93,1.4,1.37"></path><path class="cls-26" d="M474.27,58.5s-1.38,2.93,1.4,1.38"></path><path class="cls-27" d="M468.28,56.68a5.12,5.12,0,0,0-.4,7.12,5.18,5.18,0,0,0,7.15.5Z"></path><path class="cls-28" d="M470.09,63a2.79,2.79,0,0,0-2.77-3.28,4.48,4.48,0,0,0,1.1,3.63,4.32,4.32,0,0,0,1.27,1A4.26,4.26,0,0,0,470.09,63Z"></path><path class="cls-23" d="M469.62,71.22l-.47.45a13.11,13.11,0,0,1-5.37-3.17A15.45,15.45,0,0,1,460.25,63l.42-.46a16.43,16.43,0,0,0,1,2.31A12.6,12.6,0,0,0,469.62,71.22Z"></path><path class="cls-23" d="M453.89,85.88l-.45.43a12.9,12.9,0,0,1-4.37-2.83A14.9,14.9,0,0,1,446,78.91l.4-.45c.19.44.4.89.65,1.34A12.62,12.62,0,0,0,453.89,85.88Z"></path><path class="cls-23" d="M448,91.35l-.44.42a12.74,12.74,0,0,1-4-2.68,14.93,14.93,0,0,1-3-4.22l.4-.45c.15.33.31.66.49,1A12.64,12.64,0,0,0,448,91.35Z"></path><path class="cls-23" d="M442.82,96.2l-.44.41a12.76,12.76,0,0,1-3.7-2.54,15,15,0,0,1-2.82-3.92l.4-.44c.11.23.22.45.35.68A12.66,12.66,0,0,0,442.82,96.2Z"></path><path class="cls-23" d="M436.89,101.72l-.43.41a13,13,0,0,1-3.35-2.37,14.84,14.84,0,0,1-2.65-3.59l.39-.43.18.33A12.69,12.69,0,0,0,436.89,101.72Z"></path><path class="cls-23" d="M431.7,106.56l-.43.4a12.61,12.61,0,0,1-3-2.22,14,14,0,0,1-2.49-3.3l.39-.43s0,0,0,0A12.72,12.72,0,0,0,431.7,106.56Z"></path><path class="cls-23" d="M458.18,81.88l-.44.42a13.24,13.24,0,0,1-3.81-2.59A14.76,14.76,0,0,1,450.4,74l.42-.47a16.53,16.53,0,0,0,.63,1.67A12.63,12.63,0,0,0,458.18,81.88Z"></path><path class="cls-23" d="M464.17,76.31l-.5.47a13.09,13.09,0,0,1-6.35-3.46,15.7,15.7,0,0,1-2.87-3.89l.4-.44A15,15,0,0,0,456,70.87,12.62,12.62,0,0,0,464.17,76.31Z"></path><circle class="cls-25" cx="474.4" cy="49.41" r="1.84"></circle><line class="cls-29" x1="474.4" y1="49.41" x2="473.96" y2="55.44"></line><circle class="cls-25" cx="483.37" cy="58.22" r="1.84"></circle><line class="cls-29" x1="483.37" y1="58.22" x2="477.36" y2="58.77"></line></g></g></svg>