<svg xmlns="http://www.w3.org/2000/svg" xmlns:xlink="http://www.w3.org/1999/xlink" viewBox="0 0 370 350"><defs><style>.cls-1,.cls-14,.cls-9{fill:none;}.cls-2{isolation:isolate;}.cls-3{fill:#262262;opacity:0.2;}.cls-4{fill:#22223a;}.cls-5{clip-path:url(#clip-path);}.cls-6{fill:#e9e7de;}.cls-7{fill:#e0ddd7;}.cls-8{clip-path:url(#clip-path-2);}.cls-9{stroke:#bfc1ba;stroke-width:6.11px;}.cls-10,.cls-13,.cls-19{fill:#fff;}.cls-11{fill:#b7b7b8;}.cls-12{fill:#010101;opacity:0.3;mix-blend-mode:multiply;}.cls-13{opacity:0.4;}.cls-14{stroke:#b7b7b8;stroke-miterlimit:10;stroke-width:2.04px;}.cls-15{clip-path:url(#clip-path-3);}.cls-16{fill:#28a8e0;}.cls-17{clip-path:url(#clip-path-4);}.cls-18{fill:#e92629;}.cls-19{opacity:0.6;}.cls-20{fill:#ffde17;}</style><clipPath id="clip-path"><circle class="cls-1" cx="185" cy="175" r="133.88"/></clipPath><clipPath id="clip-path-2"><path class="cls-1" d="M169.47,137C152.81,111.13,127,81.25,91.83,69,61.56,58.5,29.52,62.72-3.4,81.55L6.82,98.22c27.54-15.76,53.86-19.46,78.24-11,57.43,19.92,88.26,99.94,88.56,100.74l18.8-6.59a257.59,257.59,0,0,0-23-44.36Z"/></clipPath><clipPath id="clip-path-3"><path class="cls-1" d="M265.91,159.45S303.76,43.69,209.21,33.89c-92.43-9.58-51.91,76.72-51.91,76.72l.23.11-37.16,94.46,93,43.28,15.83-35.87,16.89-62Z"/></clipPath><clipPath id="clip-path-4"><path class="cls-1" d="M285.66,170.73c-15.52,75.24-58.39,61.44-87.13,54.41-41.84-10.24-47-32.35-34.15-81.83s24.92-63.24,68.91-52.47C277.91,101.76,296,120.7,285.66,170.73Z"/></clipPath></defs><title>Artboard 1 copy 34</title><g class="cls-2"><g id="Layer_1" data-name="Layer 1"><circle class="cls-3" cx="185" cy="175" r="166.46"/><circle class="cls-4" cx="185" cy="175" r="133.88"/><g class="cls-5"><path class="cls-6" d="M169.47,137C152.81,111.13,127,81.25,91.83,69a101,101,0,0,0-53.76-3.56c.22,1.85.4,3.7.55,5.55.37,4.69.56,9.38.74,14.07a81.5,81.5,0,0,1,45.7,2.13c57.43,19.92,88.26,99.94,88.56,100.74l18.8-6.59A257.59,257.59,0,0,0,169.47,137Z"/><path class="cls-1" d="M169.47,137C152.81,111.13,127,81.25,91.83,69a101,101,0,0,0-53.76-3.56c.22,1.85.4,3.7.55,5.55.37,4.7.56,9.4.74,14.1q2.06-.47,4.11-.85c32.28-13.09,87.59-12.61,135,102l14-4.9A257.59,257.59,0,0,0,169.47,137Z"/><path class="cls-1" d="M173.62,188a.33.33,0,0,0,0-.09l.12.06Z"/><path class="cls-7" d="M178.45,186.27l-4.75,1.66-.12-.06c-.89-2.3-31.65-80.92-88.52-100.65a80.75,80.75,0,0,0-41.59-3C75.74,71.17,131.06,71.65,178.45,186.27Z"/><g class="cls-8"><path class="cls-9" d="M40.4,98q1,1.6,2,3.18"/><path class="cls-9" d="M40.91,53.9C42,70,45.67,84.69,49.83,100.15"/><path class="cls-9" d="M58.12,53.66c-1.59,15.54.38,31.18,2.34,46.83"/><path class="cls-9" d="M75,54.73c-6.48,15.11-2.12,32.68-2.35,48.53"/><path class="cls-9" d="M97.23,60.47c-7.73,11.37-9.1,29-11.73,42.94"/><path class="cls-9" d="M112.35,66c-7.94,9.25-9.94,29.53-11.73,42.94"/><path class="cls-9" d="M133,78.26a106.69,106.69,0,0,0-19.76,37.66"/><path class="cls-9" d="M147.36,98.8c-13.46,2.47-21,16-28.4,26"/><path class="cls-9" d="M161.53,108.23c-10,6-23.8,18.78-30,32.58"/><path class="cls-9" d="M170.48,127.54c-13-2.27-25.78,12.11-31.32,23.29"/><path class="cls-9" d="M179.75,136.55c-11.38,5.71-19.94,17.58-27.88,26.84"/><path class="cls-9" d="M191.52,153c-9.49-2.16-22.66,17-27.25,24.21"/></g><path class="cls-10" d="M267.08,247.44l-2.24-4.7c-23.53,10.45-43.69,11-59.9,1.48a47.53,47.53,0,0,1-17.28-17.17l-4.79,2.27a52.35,52.35,0,0,0,19.32,19.32C224.39,261.61,249.73,255.14,267.08,247.44Z"/><path class="cls-10" d="M265.16,244.38c-2.15-2.26-4.41-14.94.65-13.45,3.85,1.27,1.89,9.93,1.34,12.67l.4.07a27,27,0,0,1,5.62.78c2.86.77,16.32,6,15.8,9.87-.46,5.28-15.6-4.56-18-6.14,3.91,2.66,8.59,9.93,6.33,14.56-5.45.47-7-11.67-7.5-15.42-.21,2.32-.55,10.38-4.27,7.18-1.93-1.65-1.12-5.32-.62-7.42"/><path class="cls-10" d="M95.29,170.58l4.55-1.1c5.6,21.37,16.35,35,32,40.56a43.85,43.85,0,0,0,21.64,2l1,4.43a48.3,48.3,0,0,1-24.28-2.17C108.82,206.72,99.42,186.34,95.29,170.58Z"/><path class="cls-10" d="M98.5,170.17c2.78.18,13-5.31,9.13-7.84-3-1.85-8,4.22-9.68,6.09l-.27-.23a22.8,22.8,0,0,0-3.65-3.3c-2.12-1.48-13.22-7.53-15.68-5-3.47,3.21,11.81,7.84,14.28,8.59-4-1.13-11.74-.22-13.76,3.83,2.68,3.87,12.09-1.8,15-3.53-1.52,1.42-7,6.08-2.71,6.79,2.23.37,4.38-2.19,5.58-3.68"/><path class="cls-10" d="M203.34,189c-2.12,8.92-4.61,17.78-6.85,26.68-2.18,8.65-5,17.1-7.74,25.59s-5.37,17.09-9.21,25.21a78,78,0,0,1-7.92,13.35c-6.17,8.28-14.65,19-25.3,22a33.44,33.44,0,0,1-10.37.69c.34-3,.43-6,.62-8.93.06-1-.19-3.1.25-4,.82-1.6,4.53-3.3,6-4.54a25.87,25.87,0,0,0,4-4.11c2.05-2.73,3.94-6.44,2-9.69-1.27-2.12-4-4-6.25-5-18.59-8.92-48.35,7.1-38.72,26.09l-9.17,3.42c-1.06.39-6-8.17-6.31-8.85-3.1-6.25-5.1-14.32-2.85-21.07,2.15-6.47,7.5-11.47,13.27-15.06a61,61,0,0,1,10.7-5.44c4.48-1.65,9.19-2.74,13.39-5a55,55,0,0,0,11.34-8.66c8.7-8.31,14.87-20.26,19.45-31.06a236.44,236.44,0,0,0,10-29.38S165.34,164.88,203.34,189Z"/><path class="cls-11" d="M181.32,262.5s-25.75-1.08-50.86-27.52a68.59,68.59,0,0,1-8.68,5.87s17.31,29.19,52.86,34.64A74.73,74.73,0,0,0,181.32,262.5Z"/><path class="cls-11" d="M141.61,302.18s-3.86-2.33.1-16.81l-5.88-3.64s-7,15.58.23,23.93Z"/><path class="cls-11" d="M136.4,286.36s-4.57-2-9.78,15.38c0,0,.51,3.52-6.57-1.24s-15.89,25.46-9,19.56,6.91-14.11,18.93-15.16,7.55-4.11,7.55-4.11Z"/><path class="cls-12" d="M134.06,304.35a23.44,23.44,0,0,1-.25-17.94s-5.55,11.38-.64,18.1Z"/><path class="cls-11" d="M90.48,294.89s4.87.8,16.17-7.81l5.88,3.64s-11.88,13.07-22.76,10.17Z"/><path class="cls-11" d="M108.39,293s2.4,3.68-11.69,15.54c0,0-3.52,1,3.91,5.26S83.4,338.48,86.07,330s10.34-12,6.28-23,.69-8.36.69-8.36Z"/><path class="cls-12" d="M91.15,303.12s9.86.07,16.92-7.3c0,0-8.35,9.65-16.7,8.15Z"/><path class="cls-10" d="M265.91,159.45S303.76,43.69,209.21,33.89c-92.43-9.58-51.91,76.72-51.91,76.72l.23.11-37.16,94.46,93,43.28,15.83-35.87,16.89-62Z"/><path class="cls-13" d="M229.22,212.58l16.89-62,19.8,8.9S288.58,90.13,255,54.23c-18.64-2.71-45.89,7.24-82.36,56.36C124.1,176,142.27,209,161.07,224.12l52.32,24.34Z"/><path class="cls-11" d="M157,89.33l-14.72-4.88a588.56,588.56,0,0,0-21.28,80.76l15.32,2.6A571.9,571.9,0,0,1,157,89.33Z"/><path class="cls-11" d="M160.18,131.92c-3,11.26-11.94,37-23.81,35.88-12.34-1.17-8.78-34.07-6.32-43.38s15.62-39.82,27-35.09C168,93.9,163.15,120.67,160.18,131.92Z"/><path class="cls-10" d="M145.12,128.17c-2.53,9.59-12.49,39.56-24.06,37-12.72-2.77-8.9-33.78-6.07-44.54s14.84-39.73,27.35-36.22C153.74,87.65,147.64,118.58,145.12,128.17Z"/><path class="cls-14" d="M137.33,126.14c-1.19,4.52-5.88,18.62-11.33,17.44-6-1.31-4.19-15.91-2.86-21s7-18.71,12.88-17.05C141.39,107.06,138.52,121.62,137.33,126.14Z"/><path class="cls-10" d="M206.34,12.4a6.93,6.93,0,0,0-13.78-1.34,6.93,6.93,0,0,0,13.78,1.34Z"/><polygon class="cls-10" points="198.71 13.27 202.37 45.88 209.81 40.15 200.56 13.45 198.71 13.27"/><g class="cls-15"><path class="cls-11" d="M203.87,250.44l-1.49-.86c24.63-40.14,40.1-76.37,46-107.67,4.8-25.5,3.31-47.9-4.45-66.58C228.43,38,192.71,27.9,192.35,27.8l.46-1.62c.37.1,36.87,10.38,52.71,48.49,7.89,19,9.43,41.69,4.57,67.51C244.16,173.7,228.61,210.12,203.87,250.44Z"/><path class="cls-11" d="M200.25,54.26q-2.43-1.1-5-2.33a276.21,276.21,0,0,1-32-18.5l1-1.36c.57.4,57.56,39.46,80.64,27.75,6.59-3.35,9.83-10.7,9.63-21.86l1.73,0c.22,11.84-3.33,19.7-10.55,23.37C236.38,66.06,221.07,63.69,200.25,54.26Z"/></g><path class="cls-16" d="M285.66,170.73c-15.52,75.24-58.39,61.44-87.13,54.41-41.84-10.24-47-32.35-34.15-81.83s24.92-63.24,68.91-52.47C277.91,101.76,296,120.7,285.66,170.73Z"/><g class="cls-17"><polygon class="cls-10" points="164.22 199.17 142.56 168.49 159.35 128.56 164.89 115.97 166.94 87.34 177.01 86.14 194.66 102.28 210.39 125.54 251.71 121.08 272.62 118.83 252.57 147.87 251.35 178.97 232.12 199.89 194.68 211.13 164.22 199.17"/><path class="cls-18" d="M261.4,201.3s4.54-12.36-3.94-25.81c0,0,5.22,2.31,6.21,4a29,29,0,0,0-8.78-15.16l5.22-16.64,5.7,5.06s.83-2.72-3.95-9.08c8.73-6.42,14-23.12,14-23.12-20.26-11.68-33.17-4.37-36.69-1.82a109.82,109.82,0,0,0-20.5-6.27s6.58-2,12-.38a34,34,0,0,0-27.92-3.45s-14.08-23.28-36.8-26.36c0,0-6.53,8.94-4.95,38.93,0,0-18.12,2.79-26.62,11.94,0,0,12.2-6.21,17.76-6.32,0,0-27.25,11-26.67,29.05,0,0,4.54-9.09,8.67-10.46,0,0-5.42,7.91-7,16.25l-.31-.48a8.92,8.92,0,0,1,.33,1.91c0,.06,0,.11,0,.16a24.7,24.7,0,0,1,3,3c.83-3,2.05-6,3.76-7.32a85.07,85.07,0,0,0-1.76,10.13c.31.49.62,1,.89,1.5,1.67,3.21,3.11,6.42,4.44,9.73l3.81,3.21c5.38,6.16,8.62,10.65,15.36,16.18,6.17,5.06,12.12,10.22,18,15.61,2.82,2.59,5.73,3.16,9.59,4.93,5.27,2.42,9.55,2.1-.68,1.16a35.79,35.79,0,0,1,7.89,1.63l-.05-.1h0l1.65.29a20,20,0,0,0,4.47.19,38.1,38.1,0,0,0,17.68-5.73s-5.54,6.47-7.3,7c0,0,13.16-1.41,19.8-8.54,0,0-5.21,6.79-6.68,7.89,0,0,15.58-3.7,25.32-14.26,0,0-2.34,4.33-3.28,4.9,0,0,14.53.39,15.29-18.92A8,8,0,0,1,261.4,201.3ZM170.35,114.7c-3.84-9-.14-23.74-.14-23.74,11.55,1.43,20.24,17.36,20.24,17.36C180.61,109.2,170.35,114.7,170.35,114.7ZM202,178.23c-9.53-3.35-13.78-15.15-9.48-26.36s18.23-24.71,27.75-21.36,11,22.28,6.75,33.49S211.56,181.58,202,178.23Zm35.86,7.29c-3.45,3.77-9.88,6.69-9.88,6.69s-13.58-13.33-4.91-12.46S241.34,181.75,237.89,185.52ZM254.3,141.8s-6.15-13.47-9.45-17.09c-1.42-1.56,10.32-6.56,22.45-1.33C267.31,123.38,262.53,139.07,254.3,141.8Z"/><path class="cls-18" d="M133.42,145.51s-13,21.52-7.74,36.83c0,0,1.84-10.91,4.12-15.17,0,0-5.63,19.48,17.41,38.16a33.53,33.53,0,0,1-6.3-15.82s22.82,35.1,55.75,33.93L157,185.25s-9.22-31.71-9.69-32.05S133.42,145.51,133.42,145.51Z"/><path class="cls-10" d="M165.75,186.76c7.24,10,19.67,16.49,37,19.3a.68.68,0,0,0,.78-.53.64.64,0,0,0-.54-.75c-18.52-3-31.29-10.25-37.94-21.52-10.35-17.55-2.19-39.07-2.11-39.28a.64.64,0,0,0-.39-.83.68.68,0,0,0-.86.39c-.09.22-8.46,22.32,2.2,40.38Q164.75,185.38,165.75,186.76Z"/><path class="cls-18" d="M203.23,160.7c-1,3.71-3.26,6.34-5.08,5.89s-2.49-3.84-1.5-7.55,3.26-6.34,5.08-5.89S204.22,157,203.23,160.7Z"/><path class="cls-10" d="M237.49,168.74c-1,3.71-3.26,6.34-5.08,5.89s-2.49-3.84-1.5-7.55,3.26-6.34,5.08-5.89S238.48,165,237.49,168.74Z"/></g><path class="cls-11" d="M167.53,252.57l-19.37-10.13a.72.72,0,0,1-.31-1l8.41-15.1a.76.76,0,0,1,1-.29l19.37,10.13a.72.72,0,0,1,.31,1l-8.41,15.1A.76.76,0,0,1,167.53,252.57Z"/><path class="cls-10" d="M158.24,236.48a1.5,1.5,0,0,0-1.76-1.15,1.45,1.45,0,0,0-1.18,1.7,1.5,1.5,0,0,0,1.76,1.15A1.45,1.45,0,0,0,158.24,236.48Z"/><path class="cls-10" d="M163.31,239.15a1.5,1.5,0,0,0-1.76-1.15,1.45,1.45,0,0,0-1.18,1.7,1.5,1.5,0,0,0,1.76,1.15A1.45,1.45,0,0,0,163.31,239.15Z"/><path class="cls-10" d="M169.17,242.12a1.5,1.5,0,0,0-1.76-1.15,1.45,1.45,0,0,0-1.18,1.7,1.5,1.5,0,0,0,1.76,1.15A1.45,1.45,0,0,0,169.17,242.12Z"/><path class="cls-19" d="M251.09,102.5s55.18,3.15,24.18,92.53C275.27,195,298.32,118.65,251.09,102.5Z"/></g><path class="cls-10" d="M77.83,137l-8.67-1.8L77.95,134l-4.39-8.44,7,7.21,4.28-8.22-1.69,8.78,9.46.34-9.12,2.93s5.07,10.36,4.73,9.91l-6.53-8.78s-6.53,7.66-6.19,7.32S77.83,137,77.83,137Z"/><path class="cls-20" d="M305.61,177.17l1.81,8-4.41-6.9-5.41,6.92,3.38-8.62-8.54-.44,8-1.95-3.34-8.07,6,6.54s6.76-8.22,6.51-7.77l-4.87,8.85s8.93,2.55,8.52,2.4S305.61,177.17,305.61,177.17Z"/><path class="cls-20" d="M336.23,46.18l4.34,19.12L330,48.75,317,65.36l8.1-20.68-20.49-1.06,19.24-4.67-8-19.36,14.28,15.68s16.21-19.73,15.61-18.63-11.69,21.23-11.69,21.23S355.49,44,354.5,43.6,336.23,46.18,336.23,46.18Z"/><path class="cls-4" d="M41.92,301.44l2.51,11.06-6.11-9.58-7.51,9.61,4.69-12L23.64,300l11.13-2.7L30.14,286l8.26,9.07s9.38-11.41,9-10.78l-6.76,12.28s12.4,3.54,11.82,3.32S41.92,301.44,41.92,301.44Z"/><path class="cls-6" d="M169.47,137c-9.1-14.14-20.93-29.46-35.52-42.46-1.64,2.28-3.27,4.56-4.68,6.9a12,12,0,0,1-10.2,6.18c35.5,30.9,54.31,79.69,54.55,80.32l18.8-6.59A257.59,257.59,0,0,0,169.47,137Z"/><path class="cls-1" d="M169.47,137c-9.1-14.14-20.93-29.46-35.52-42.46-1.64,2.28-3.27,4.56-4.68,6.9a14.36,14.36,0,0,1-1.83,2.43c17.09,16.48,34.53,42.52,51,82.38l14-4.9A257.59,257.59,0,0,0,169.47,137Z"/><path class="cls-1" d="M173.62,188a.33.33,0,0,0,0-.09l.12.06Z"/><path class="cls-7" d="M127.44,103.89a11.66,11.66,0,0,1-8.36,3.75c35.06,30.51,53.82,78.44,54.51,80.23l.12.06,4.75-1.66C162,146.41,144.53,120.37,127.44,103.89Z"/><g class="cls-8"><path class="cls-9" d="M114.3,112.49q-.56,1.71-1.07,3.43"/><path class="cls-9" d="M147.36,98.8c-13.46,2.47-21,16-28.4,26"/><path class="cls-9" d="M161.53,108.23c-10,6-23.8,18.78-30,32.58"/><path class="cls-9" d="M170.48,127.54c-13-2.27-25.78,12.11-31.32,23.29"/><path class="cls-9" d="M179.75,136.55c-11.38,5.71-19.94,17.58-27.88,26.84"/><path class="cls-9" d="M191.52,153c-9.49-2.16-22.66,17-27.25,24.21"/></g><path class="cls-10" d="M267.08,247.44l-2.24-4.7c-23.53,10.45-43.69,11-59.9,1.48a47.53,47.53,0,0,1-17.28-17.17l-4.79,2.27a52.35,52.35,0,0,0,19.32,19.32C224.39,261.61,249.73,255.14,267.08,247.44Z"/><path class="cls-10" d="M265.16,244.38c-2.15-2.26-4.41-14.94.65-13.45,3.85,1.27,1.89,9.93,1.34,12.67l.4.07a27,27,0,0,1,5.62.78c2.86.77,16.32,6,15.8,9.87-.46,5.28-15.6-4.56-18-6.14,3.91,2.66,8.59,9.93,6.33,14.56-5.45.47-7-11.67-7.5-15.42-.21,2.32-.55,10.38-4.27,7.18-1.93-1.65-1.12-5.32-.62-7.42"/><path class="cls-10" d="M95.29,170.58l4.55-1.1c5.6,21.37,16.35,35,32,40.56a43.85,43.85,0,0,0,21.64,2l1,4.43a48.3,48.3,0,0,1-24.28-2.17C108.82,206.72,99.42,186.34,95.29,170.58Z"/><path class="cls-10" d="M98.5,170.17c2.78.18,13-5.31,9.13-7.84-3-1.85-8,4.22-9.68,6.09l-.27-.23a22.8,22.8,0,0,0-3.65-3.3c-2.12-1.48-13.22-7.53-15.68-5-3.47,3.21,11.81,7.84,14.28,8.59-4-1.13-11.74-.22-13.76,3.83,2.68,3.87,12.09-1.8,15-3.53-1.52,1.42-7,6.08-2.71,6.79,2.23.37,4.38-2.19,5.58-3.68"/><path class="cls-10" d="M203.34,189c-2.12,8.92-4.61,17.78-6.85,26.68-2.18,8.65-5,17.1-7.74,25.59s-5.37,17.09-9.21,25.21a78,78,0,0,1-7.92,13.35c-6.17,8.28-14.65,19-25.3,22a33.44,33.44,0,0,1-10.37.69c.34-3,.43-6,.62-8.93.06-1-.19-3.1.25-4,.82-1.6,4.53-3.3,6-4.54a25.87,25.87,0,0,0,4-4.11c2.05-2.73,3.94-6.44,2-9.69-1.27-2.12-4-4-6.25-5-18.59-8.92-48.35,7.1-38.72,26.09l-9.17,3.42c-1.06.39-6-8.17-6.31-8.85-3.1-6.25-5.1-14.32-2.85-21.07,2.15-6.47,7.5-11.47,13.27-15.06a61,61,0,0,1,10.7-5.44c4.48-1.65,9.19-2.74,13.39-5a55,55,0,0,0,11.34-8.66c8.7-8.31,14.87-20.26,19.45-31.06a236.44,236.44,0,0,0,10-29.38S165.34,164.88,203.34,189Z"/><path class="cls-11" d="M181.32,262.5s-25.75-1.08-50.86-27.52a68.59,68.59,0,0,1-8.68,5.87s17.31,29.19,52.86,34.64A74.73,74.73,0,0,0,181.32,262.5Z"/><path class="cls-11" d="M141.61,302.18s-3.86-2.33.1-16.81l-5.88-3.64s-7,15.58.23,23.93Z"/><path class="cls-11" d="M136.4,286.36s-4.57-2-9.78,15.38c0,0,.51,3.52-6.57-1.24s-15.89,25.46-9,19.56,6.91-14.11,18.93-15.16,7.55-4.11,7.55-4.11Z"/><path class="cls-12" d="M134.06,304.35a23.44,23.44,0,0,1-.25-17.94s-5.55,11.38-.64,18.1Z"/><path class="cls-11" d="M90.48,294.89s4.87.8,16.17-7.81l5.88,3.64s-11.88,13.07-22.76,10.17Z"/><path class="cls-11" d="M108.39,293s2.4,3.68-11.69,15.54c0,0-3.52,1,3.91,5.26S83.4,338.48,86.07,330s10.34-12,6.28-23,.69-8.36.69-8.36Z"/><path class="cls-12" d="M91.15,303.12s9.86.07,16.92-7.3c0,0-8.35,9.65-16.7,8.15Z"/><path class="cls-10" d="M265.91,159.45S303.76,43.69,209.21,33.89c-92.43-9.58-51.91,76.72-51.91,76.72l.23.11-37.16,94.46,93,43.28,15.83-35.87,16.89-62Z"/><path class="cls-13" d="M229.22,212.58l16.89-62,19.8,8.9S288.58,90.13,255,54.23c-18.64-2.71-45.89,7.24-82.36,56.36C124.1,176,142.27,209,161.07,224.12l52.32,24.34Z"/><path class="cls-11" d="M157,89.33l-14.72-4.88a588.56,588.56,0,0,0-21.28,80.76l15.32,2.6A571.9,571.9,0,0,1,157,89.33Z"/><path class="cls-11" d="M160.18,131.92c-3,11.26-11.94,37-23.81,35.88-12.34-1.17-8.78-34.07-6.32-43.38s15.62-39.82,27-35.09C168,93.9,163.15,120.67,160.18,131.92Z"/><path class="cls-10" d="M142.33,84.45a7.77,7.77,0,0,0-1.63-.26c-3.13,6-7.93,11.47-11.43,17.27a12,12,0,0,1-9.57,6.15A95.41,95.41,0,0,0,115,120.66c-2.83,10.76-6.66,41.77,6.07,44.54,11.57,2.52,21.54-27.44,24.06-37S153.74,87.65,142.33,84.45Z"/><path class="cls-14" d="M137.33,126.14c-1.19,4.52-5.88,18.62-11.33,17.44-6-1.31-4.19-15.91-2.86-21s7-18.71,12.88-17.05C141.39,107.06,138.52,121.62,137.33,126.14Z"/><path class="cls-10" d="M206.34,12.4a6.93,6.93,0,0,0-13.78-1.34,6.93,6.93,0,0,0,13.78,1.34Z"/><polygon class="cls-10" points="198.71 13.27 202.37 45.88 209.81 40.15 200.56 13.45 198.71 13.27"/><g class="cls-15"><path class="cls-11" d="M203.87,250.44l-1.49-.86c24.63-40.14,40.1-76.37,46-107.67,4.8-25.5,3.31-47.9-4.45-66.58C228.43,38,192.71,27.9,192.35,27.8l.46-1.62c.37.1,36.87,10.38,52.71,48.49,7.89,19,9.43,41.69,4.57,67.51C244.16,173.7,228.61,210.12,203.87,250.44Z"/><path class="cls-11" d="M200.25,54.26q-2.43-1.1-5-2.33a276.21,276.21,0,0,1-32-18.5l1-1.36c.57.4,57.56,39.46,80.64,27.75,6.59-3.35,9.83-10.7,9.63-21.86l1.73,0c.22,11.84-3.33,19.7-10.55,23.37C236.38,66.06,221.07,63.69,200.25,54.26Z"/></g><path class="cls-16" d="M285.66,170.73c-15.52,75.24-58.39,61.44-87.13,54.41-41.84-10.24-47-32.35-34.15-81.83s24.92-63.24,68.91-52.47C277.91,101.76,296,120.7,285.66,170.73Z"/><g class="cls-17"><polygon class="cls-10" points="164.22 199.17 142.56 168.49 159.35 128.56 164.89 115.97 166.94 87.34 177.01 86.14 194.66 102.28 210.39 125.54 251.71 121.08 272.62 118.83 252.57 147.87 251.35 178.97 232.12 199.89 194.68 211.13 164.22 199.17"/><path class="cls-18" d="M261.4,201.3s4.54-12.36-3.94-25.81c0,0,5.22,2.31,6.21,4a29,29,0,0,0-8.78-15.16l5.22-16.64,5.7,5.06s.83-2.72-3.95-9.08c8.73-6.42,14-23.12,14-23.12-20.26-11.68-33.17-4.37-36.69-1.82a109.82,109.82,0,0,0-20.5-6.27s6.58-2,12-.38a34,34,0,0,0-27.92-3.45s-14.08-23.28-36.8-26.36c0,0-6.53,8.94-4.95,38.93,0,0-18.12,2.79-26.62,11.94,0,0,12.2-6.21,17.76-6.32,0,0-27.25,11-26.67,29.05,0,0,4.54-9.09,8.67-10.46,0,0-5.42,7.91-7,16.25l-.31-.48a8.92,8.92,0,0,1,.33,1.91c0,.06,0,.11,0,.16a24.7,24.7,0,0,1,3,3c.83-3,2.05-6,3.76-7.32a85.07,85.07,0,0,0-1.76,10.13c.31.49.62,1,.89,1.5,1.67,3.21,3.11,6.42,4.44,9.73l3.81,3.21c5.38,6.16,8.62,10.65,15.36,16.18,6.17,5.06,12.12,10.22,18,15.61,2.82,2.59,5.73,3.16,9.59,4.93,5.27,2.42,9.55,2.1-.68,1.16a35.79,35.79,0,0,1,7.89,1.63l-.05-.1h0l1.65.29a20,20,0,0,0,4.47.19,38.1,38.1,0,0,0,17.68-5.73s-5.54,6.47-7.3,7c0,0,13.16-1.41,19.8-8.54,0,0-5.21,6.79-6.68,7.89,0,0,15.58-3.7,25.32-14.26,0,0-2.34,4.33-3.28,4.9,0,0,14.53.39,15.29-18.92A8,8,0,0,1,261.4,201.3ZM170.35,114.7c-3.84-9-.14-23.74-.14-23.74,11.55,1.43,20.24,17.36,20.24,17.36C180.61,109.2,170.35,114.7,170.35,114.7ZM202,178.23c-9.53-3.35-13.78-15.15-9.48-26.36s18.23-24.71,27.75-21.36,11,22.28,6.75,33.49S211.56,181.58,202,178.23Zm35.86,7.29c-3.45,3.77-9.88,6.69-9.88,6.69s-13.58-13.33-4.91-12.46S241.34,181.75,237.89,185.52ZM254.3,141.8s-6.15-13.47-9.45-17.09c-1.42-1.56,10.32-6.56,22.45-1.33C267.31,123.38,262.53,139.07,254.3,141.8Z"/><path class="cls-18" d="M133.42,145.51s-13,21.52-7.74,36.83c0,0,1.84-10.91,4.12-15.17,0,0-5.63,19.48,17.41,38.16a33.53,33.53,0,0,1-6.3-15.82s22.82,35.1,55.75,33.93L157,185.25s-9.22-31.71-9.69-32.05S133.42,145.51,133.42,145.51Z"/><path class="cls-10" d="M165.75,186.76c7.24,10,19.67,16.49,37,19.3a.68.68,0,0,0,.78-.53.64.64,0,0,0-.54-.75c-18.52-3-31.29-10.25-37.94-21.52-10.35-17.55-2.19-39.07-2.11-39.28a.64.64,0,0,0-.39-.83.68.68,0,0,0-.86.39c-.09.22-8.46,22.32,2.2,40.38Q164.75,185.38,165.75,186.76Z"/><path class="cls-18" d="M203.23,160.7c-1,3.71-3.26,6.34-5.08,5.89s-2.49-3.84-1.5-7.55,3.26-6.34,5.08-5.89S204.22,157,203.23,160.7Z"/><path class="cls-10" d="M237.49,168.74c-1,3.71-3.26,6.34-5.08,5.89s-2.49-3.84-1.5-7.55,3.26-6.34,5.08-5.89S238.48,165,237.49,168.74Z"/></g><path class="cls-11" d="M167.53,252.57l-19.37-10.13a.72.72,0,0,1-.31-1l8.41-15.1a.76.76,0,0,1,1-.29l19.37,10.13a.72.72,0,0,1,.31,1l-8.41,15.1A.76.76,0,0,1,167.53,252.57Z"/><path class="cls-10" d="M158.24,236.48a1.5,1.5,0,0,0-1.76-1.15,1.45,1.45,0,0,0-1.18,1.7,1.5,1.5,0,0,0,1.76,1.15A1.45,1.45,0,0,0,158.24,236.48Z"/><path class="cls-10" d="M163.31,239.15a1.5,1.5,0,0,0-1.76-1.15,1.45,1.45,0,0,0-1.18,1.7,1.5,1.5,0,0,0,1.76,1.15A1.45,1.45,0,0,0,163.31,239.15Z"/><path class="cls-10" d="M169.17,242.12a1.5,1.5,0,0,0-1.76-1.15,1.45,1.45,0,0,0-1.18,1.7,1.5,1.5,0,0,0,1.76,1.15A1.45,1.45,0,0,0,169.17,242.12Z"/><path class="cls-19" d="M251.09,102.5s55.18,3.15,24.18,92.53C275.27,195,298.32,118.65,251.09,102.5Z"/></g></g></svg>