<svg id="Layer_1" data-name="Layer 1" xmlns="http://www.w3.org/2000/svg" xmlns:xlink="http://www.w3.org/1999/xlink" width="200" height="200" viewBox="0 0 200 200"><defs><style>.cls-1,.cls-3{fill:none;}.cls-2{fill:#f6f6f6;}.cls-3{stroke:#c9c9c9;stroke-miterlimit:10;stroke-width:2px;}.cls-4{clip-path:url(#clip-path);}.cls-5{fill:#e73c31;}.cls-6{fill:#404041;}.cls-7{fill:#fff;}</style><clipPath id="clip-path"><path class="cls-1" d="M169.73,100a69.73,69.73,0,0,0-139.46,0c0,38.51,31.1,68.84,69.62,68.84S169.73,138.51,169.73,100Z"/></clipPath></defs><title>Artboard 108 copy 14</title><circle class="cls-2" cx="100" cy="100" r="69.73"/><circle class="cls-3" cx="100" cy="100" r="69.73"/><g class="cls-4"><path class="cls-5" d="M90.93,139.15c-6.3,3.79-13.9,6.21-20,8.15l-1.33.42c-12.18,3.9-25,7.46-36.3,4.49l1.26-4.9c10,2.64,22.05-.73,33.54-4.41l1.34-.42c8.67-2.76,20.54-6.54,25.95-13.61l4,3.09A29.7,29.7,0,0,1,90.93,139.15Z"/><path class="cls-5" d="M33.38,151.55c3.86-.53,16.24-11.29,10.25-13.83-4.67-1.8-9.81,8.34-11.51,11.48l-.44-.24a32.13,32.13,0,0,0-5.94-3.69c-3.33-1.52-20.25-7-22.9-2.78-3.83,5.59,18.41,7.88,22,8.26-5.85-.47-16.13,3-17.74,9.39,4.77,4.79,16-6,19.54-9.32-1.67,2.46-7.87,10.71-1.77,10.5,3.16-.1,5.36-4.38,6.59-6.85"/><path class="cls-5" d="M113.9,130.24c7.32.14,15.11-1.56,21.37-2.92l1.36-.3c12.5-2.71,25.39-6,33.75-14.26l-3.48-3.62c-7.41,7.28-19.53,10.38-31.31,12.94l-1.37.3c-8.89,1.93-21.06,4.59-29.21,1.15l-1.92,4.66A29.37,29.37,0,0,0,113.9,130.24Z"/><path class="cls-6" d="M66.93,143.27l1.16-.37,1.34-.42c8.67-2.76,20.54-6.54,25.95-13.61l4,3.09a29.7,29.7,0,0,1-8.4,7.19c-6.3,3.79-13.9,6.21-20,8.15l-1.33.42-.84.27Q67.91,145.61,66.93,143.27Z"/><path class="cls-6" d="M105,123.53c8.15,3.44,20.32.78,29.21-1.15l1.11-.25c.28,1.67.62,3.32,1,5l-1.07.23c-6.26,1.36-14.05,3.06-21.37,2.92a29.37,29.37,0,0,1-10.81-2.05Z"/><polygon class="cls-6" points="123.85 170.19 116.26 118.29 89.83 122.25 98.23 170.19 123.85 170.19"/><polygon class="cls-7" points="92.39 122.42 59.9 114.41 46.82 77.78 42.86 66.08 27 45.65 32.82 38.97 53.97 39.53 78.15 46 102.3 18.91 114.53 5.21 118.95 36.42 136.84 58.03 136.91 83.31 119.35 112.69 92.39 122.42"/><path class="cls-5" d="M156.78,67.19a28.92,28.92,0,0,0-18.06-15.06s4.78-1.49,6.45-.91a26.41,26.41,0,0,0-14.8-5.08l-6.61-14.23,6.74.08s-1.09-2.31-8-3.81c1.81-9.4-4.81-23.69-4.81-23.69C97.51,8.44,93.52,20.89,92.77,24.65a94,94,0,0,0-17.09,7.74s3.1-5.16,7.55-7.23a28.84,28.84,0,0,0-20.2,14s-23.12-7.44-39.74,3.74c0,0,1.13,9.82,20.17,29.06,0,0-10.09,12.43-10.12,23.55,0,0,4.2-11.3,7.75-14.61,0,0-11.09,23.29.13,35.08,0,0-2.52-8.76-.66-12.09,0,0,1.23,8.48,5.2,15l-.48-.15a8.78,8.78,0,0,1,1.36,1.09l.09.11a21.2,21.2,0,0,1,3.73.25c-1.23-2.47-2.26-5.22-2-7.11a80.58,80.58,0,0,0,4.94,7.83c.5.16,1,.3,1.49.49,3,1.19,5.87,2.5,8.73,4,1.47,0,2.93,0,4.4-.06,7.19,1,12,2.13,19.7,1.92,7-.19,14-.2,21,0,3.38.1,5.61-1.21,9.19-2.27,4.87-1.44,7.46-4.16.25,1.17a30.8,30.8,0,0,1,6.1-3.5l-.09,0h0c.41-.24.83-.5,1.24-.76a17,17,0,0,0,3-2.48,32.53,32.53,0,0,0,8-14.15s.29,7.57-.53,9c0,0,7.7-8.62,7.73-17.29,0,0,.7,7.6.4,9.2,0,0,7.9-11.57,7.88-24.35,0,0,1.08,4.28.81,5.21,0,0,9.67-8.21-1.43-21.64A7.21,7.21,0,0,1,156.78,67.19ZM45.64,62.05c-7.91-3.82-14.35-15.87-14.35-15.87,8.36-5.77,23.56-.13,23.56-.13C49,52.37,45.64,62.05,45.64,62.05Zm58.72,24.24c-8.2,3.3-18-2.16-22-12.19s-3-27.24,5.2-30.55,20.55,8.54,24.5,18.58S112.56,83,104.36,86.29Zm27.67-16c0,4.55-2.4,10.27-2.4,10.27S112.8,79.5,119,75,132,65.74,132,70.28Zm-15.6-39s-12.08-5.47-16.39-6c-1.86-.21,2.76-10.42,13.78-14C113.82,11.36,120.14,24.69,116.43,31.32Z"/><path class="cls-5" d="M40.16,104.29s4.46,22.07,17.09,29.27c0,0-5.36-8.41-6.44-12.6,0,0,8,16.38,34.23,15.51a30.64,30.64,0,0,1-13.59-7c.74,3,37.61,17.17,56.58-9.69l-48.7-2.54s-25-15.94-25.54-15.89S40.16,104.29,40.16,104.29Z"/><path class="cls-5" d="M86.93,77.13s1.35-21.48,21.29-10.38C108.22,66.75,91.36,61.22,86.93,77.13Z"/><path class="cls-7" d="M116.39,60.49s2.89-14.74,14.32-5.64C130.71,54.85,120.68,49.82,116.39,60.49Z"/><path class="cls-7" d="M88.51,110.72c10.71,2.5,22.68-.38,35.62-8.6a.6.6,0,0,0,.19-.81.58.58,0,0,0-.8-.19c-13.84,8.78-26.47,11.35-37.57,7.65-17.26-5.76-24.88-25-25-25.18a.57.57,0,0,0-.75-.33.58.58,0,0,0-.33.76c.08.2,7.91,19.94,25.68,25.87C86.55,110.21,87.53,110.49,88.51,110.72Z"/><path class="cls-7" d="M54,87s.24-16.73,12.15-6.54c0,0-10-6.73-11.78,9.07"/><path class="cls-5" d="M170,112.24c-3.62,1.46-19.63-1.7-15.67-6.91,3.18-3.89,12.6,2.35,15.61,4.23l.27-.43a32.73,32.73,0,0,1,3.36-6.19c2.15-3,14.18-16.24,18.56-13.86C198.18,92,180,105.14,177,107.26c4.85-3.33,15.5-5.44,20-.71-1.81,6.56-16.87,2.79-21.53,1.68,2.65,1.3,12.06,5.38,6.66,8.24-2.8,1.5-6.8-1.12-9.07-2.66"/></g><path class="cls-5" d="M90.93,139.15c-6.3,3.79-13.9,6.21-20,8.15l-1.33.42c-12.18,3.9-25,7.46-36.3,4.49l1.26-4.9c10,2.64,22.05-.73,33.54-4.41l1.34-.42c8.67-2.76,20.54-6.54,25.95-13.61l4,3.09A29.7,29.7,0,0,1,90.93,139.15Z"/><path class="cls-5" d="M33.38,151.55c3.86-.53,16.24-11.29,10.25-13.83-4.67-1.8-9.81,8.34-11.51,11.48l-.44-.24a32.13,32.13,0,0,0-5.94-3.69c-3.33-1.52-20.25-7-22.9-2.78-3.83,5.59,18.41,7.88,22,8.26-5.85-.47-16.13,3-17.74,9.39,4.77,4.79,16-6,19.54-9.32-1.67,2.46-7.87,10.71-1.77,10.5,3.16-.1,5.36-4.38,6.59-6.85"/><path class="cls-5" d="M113.9,130.24c7.32.14,15.11-1.56,21.37-2.92l1.36-.3c12.5-2.71,25.39-6,33.75-14.26l-3.48-3.62c-7.41,7.28-19.53,10.38-31.31,12.94l-1.37.3c-8.89,1.93-21.06,4.59-29.21,1.15l-1.92,4.66A29.37,29.37,0,0,0,113.9,130.24Z"/><path class="cls-6" d="M66.93,143.27l1.16-.37,1.34-.42c8.67-2.76,20.54-6.54,25.95-13.61l4,3.09a29.7,29.7,0,0,1-8.4,7.19c-6.3,3.79-13.9,6.21-20,8.15l-1.33.42-.84.27Q67.91,145.61,66.93,143.27Z"/><path class="cls-6" d="M105,123.53c8.15,3.44,20.32.78,29.21-1.15l1.11-.25c.28,1.67.62,3.32,1,5l-1.07.23c-6.26,1.36-14.05,3.06-21.37,2.92a29.37,29.37,0,0,1-10.81-2.05Z"/><path class="cls-6" d="M114.92,159.89c2.48.47,5.07,1.12,7.67,1.65l-6.33-43.25-26.42,4,6.35,36.31A67.54,67.54,0,0,1,114.92,159.89Z"/><polygon class="cls-7" points="92.39 122.42 59.9 114.41 46.82 77.78 42.86 66.08 27 45.65 32.82 38.97 53.97 39.53 78.15 46 102.3 18.91 114.53 5.21 118.95 36.42 136.84 58.03 136.91 83.31 119.35 112.69 92.39 122.42"/><path class="cls-5" d="M156.78,67.19a28.92,28.92,0,0,0-18.06-15.06s4.78-1.49,6.45-.91a26.41,26.41,0,0,0-14.8-5.08l-6.61-14.23,6.74.08s-1.09-2.31-8-3.81c1.81-9.4-4.81-23.69-4.81-23.69C97.51,8.44,93.52,20.89,92.77,24.65a94,94,0,0,0-17.09,7.74s3.1-5.16,7.55-7.23a28.84,28.84,0,0,0-20.2,14s-23.12-7.44-39.74,3.74c0,0,1.13,9.82,20.17,29.06,0,0-10.09,12.43-10.12,23.55,0,0,4.2-11.3,7.75-14.61,0,0-11.09,23.29.13,35.08,0,0-2.52-8.76-.66-12.09,0,0,1.23,8.48,5.2,15l-.48-.15a8.78,8.78,0,0,1,1.36,1.09l.09.11a21.2,21.2,0,0,1,3.73.25c-1.23-2.47-2.26-5.22-2-7.11a80.58,80.58,0,0,0,4.94,7.83c.5.16,1,.3,1.49.49,3,1.19,5.87,2.5,8.73,4,1.47,0,2.93,0,4.4-.06,7.19,1,12,2.13,19.7,1.92,7-.19,14-.2,21,0,3.38.1,5.61-1.21,9.19-2.27,4.87-1.44,7.46-4.16.25,1.17a30.8,30.8,0,0,1,6.1-3.5l-.09,0h0c.41-.24.83-.5,1.24-.76a17,17,0,0,0,3-2.48,32.53,32.53,0,0,0,8-14.15s.29,7.57-.53,9c0,0,7.7-8.62,7.73-17.29,0,0,.7,7.6.4,9.2,0,0,7.9-11.57,7.88-24.35,0,0,1.08,4.28.81,5.21,0,0,9.67-8.21-1.43-21.64A7.21,7.21,0,0,1,156.78,67.19ZM45.64,62.05c-7.91-3.82-14.35-15.87-14.35-15.87,8.36-5.77,23.56-.13,23.56-.13C49,52.37,45.64,62.05,45.64,62.05Zm58.72,24.24c-8.2,3.3-18-2.16-22-12.19s-3-27.24,5.2-30.55,20.55,8.54,24.5,18.58S112.56,83,104.36,86.29Zm27.67-16c0,4.55-2.4,10.27-2.4,10.27S112.8,79.5,119,75,132,65.74,132,70.28Zm-15.6-39s-12.08-5.47-16.39-6c-1.86-.21,2.76-10.42,13.78-14C113.82,11.36,120.14,24.69,116.43,31.32Z"/><path class="cls-5" d="M40.16,104.29s4.46,22.07,17.09,29.27c0,0-5.36-8.41-6.44-12.6,0,0,8,16.38,34.23,15.51a30.64,30.64,0,0,1-13.59-7c.74,3,37.61,17.17,56.58-9.69l-48.7-2.54s-25-15.94-25.54-15.89S40.16,104.29,40.16,104.29Z"/><path class="cls-5" d="M86.93,77.13s1.35-21.48,21.29-10.38C108.22,66.75,91.36,61.22,86.93,77.13Z"/><path class="cls-7" d="M116.39,60.49s2.89-14.74,14.32-5.64C130.71,54.85,120.68,49.82,116.39,60.49Z"/><path class="cls-7" d="M88.51,110.72c10.71,2.5,22.68-.38,35.62-8.6a.6.6,0,0,0,.19-.81.58.58,0,0,0-.8-.19c-13.84,8.78-26.47,11.35-37.57,7.65-17.26-5.76-24.88-25-25-25.18a.57.57,0,0,0-.75-.33.58.58,0,0,0-.33.76c.08.2,7.91,19.94,25.68,25.87C86.55,110.21,87.53,110.49,88.51,110.72Z"/><path class="cls-7" d="M54,87s.24-16.73,12.15-6.54c0,0-10-6.73-11.78,9.07"/><path class="cls-5" d="M170,112.24c-3.62,1.46-19.63-1.7-15.67-6.91,3.18-3.89,12.6,2.35,15.61,4.23l.27-.43a32.73,32.73,0,0,1,3.36-6.19c2.15-3,14.18-16.24,18.56-13.86C198.18,92,180,105.14,177,107.26c4.85-3.33,15.5-5.44,20-.71-1.81,6.56-16.87,2.79-21.53,1.68,2.65,1.3,12.06,5.38,6.66,8.24-2.8,1.5-6.8-1.12-9.07-2.66"/></svg>