<svg xmlns="http://www.w3.org/2000/svg" viewBox="0 0 270 240"><defs><style>.cls-1{isolation:isolate;}.cls-2{fill:#3c3b3a;opacity:0.1;mix-blend-mode:multiply;}.cls-3{fill:#fff;}.cls-4{fill:#e63d34;}.cls-5{fill:none;}</style></defs><title>Artboard 29 copy 16</title><g class="cls-1"><g id="Layer_1" data-name="Layer 1"><ellipse class="cls-2" cx="141.22" cy="220.58" rx="98.83" ry="4.67"/><path class="cls-3" d="M169.83,223.39a11.28,11.28,0,0,0,6.54-2.28h.5c2.11,0,6.16-.66,9.68-5.07l.19-.26a31.54,31.54,0,0,0,4.07-19.67,3.7,3.7,0,0,0-6.63-1.86c-2.79,3.65-7.37,4.42-10.72,4.42a20.45,20.45,0,0,1-3.63-.31,27.7,27.7,0,0,0-6.5-.84c-3.77,0-6.65,1-8.55,3a8.73,8.73,0,0,0-2.26,6.71,11,11,0,0,0,7.54,9.71c1.76,2.93,5.1,6.42,9.77,6.42Z"/><path class="cls-3" d="M26,84.6c3,9.84,8.9,17.63,17.13,22.54A76.8,76.8,0,0,0,65,115.57c9.19,2,20,5.64,23.59,11.86a15.07,15.07,0,0,0-8.5,7.68,3.7,3.7,0,0,0-.36,2.39,20.5,20.5,0,0,0-5.15,10,3.69,3.69,0,0,0,.19,1.89c-1.19,2.89-2,6.12-1.37,9a3.7,3.7,0,0,0,.63,1.42,20,20,0,0,0,.38,7.9C67.78,170.54,60.7,174,56.59,181a18.39,18.39,0,0,0-.93,18.71c3,5.58,8.81,8.78,15.85,8.78.46,0,.94,0,1.41,0h.17a23.66,23.66,0,0,0,15-8.85,21.55,21.55,0,0,0,10.45,2.71,19.4,19.4,0,0,0,7.34-1.39,19.79,19.79,0,0,0,7.78-5.32,25.47,25.47,0,0,1,.19,3c0,1.36-.08,2.72-.17,4-.37,6-.79,12.74,7.38,17.92a20.32,20.32,0,0,0,11,3.06,28.59,28.59,0,0,0,16.86-6l0,0,.64-.5,0,0,.62-.52,0,0,.58-.51,0,0,.6-.56.06-.06.54-.53.06-.06.52-.55,0-.05.51-.57.08-.09.46-.55.08-.09.45-.57.06-.08.44-.59.06-.09.42-.6.07-.1.39-.61.06-.09.38-.63.06-.1.35-.64.05-.1L157,208l.06-.12.3-.64,0-.09c.11-.24.2-.47.29-.7l0-.12c.08-.21.17-.44.25-.67l0-.11q.12-.35.23-.7l0-.11c.07-.23.14-.47.2-.71l0-.06c.07-.28.13-.52.19-.77l0-.13c0-.21.1-.47.14-.72l0-.12c0-.23.08-.48.12-.74v-.09c0-.21.05-.42.07-.63a47.59,47.59,0,0,0,12.5,1.76,33.56,33.56,0,0,0,13.31-2.59,14.07,14.07,0,0,0,3,7.74,12.07,12.07,0,0,0,8.77,3.51,10.27,10.27,0,0,0,5.91-1.69,6.42,6.42,0,0,0,1.62.21,8,8,0,0,0,6.65-4,8.27,8.27,0,0,0,1-6c4.58-6.27,3.46-14.41.34-19.5l0,0c-2.81-4.45-7.79-8.13-14-10.38a10.42,10.42,0,0,0,.33-1.12,3.7,3.7,0,0,0,.91-1.37,10,10,0,0,0,0-6.78,25.88,25.88,0,0,0,3.16-1.15,3.7,3.7,0,0,0,3.57.72,32.76,32.76,0,0,0,5.73-2.59,3.7,3.7,0,0,0,3.44.14,44.7,44.7,0,0,0,12.28-9.2l.18,0a14,14,0,0,0,10.67-11.86,3.71,3.71,0,0,0,2.73-3.1A25.39,25.39,0,0,0,238.55,120a3.71,3.71,0,0,0,.69-3.79,24.56,24.56,0,0,0-7.76-9.77l.35-4.26a3.7,3.7,0,0,0,5.07-3.16c.09-1.15-.25-3.35-2.91-6.43,3.83-6.64,4.72-16,4.82-17.21a3.7,3.7,0,0,0-2.49-3.81,36.77,36.77,0,0,0-11.86-2.15A22.85,22.85,0,0,0,209,74.93l-1.93-.32A3.7,3.7,0,0,0,205,72.15a24.5,24.5,0,0,0-9.5-1.78,26.7,26.7,0,0,0-10.57,2.17c-4.27-4-14.92-12.41-27.78-12.41-.62,0-1.25,0-1.87.06a3.71,3.71,0,0,0-3.16,2.23c-.35.8-3.09,8.1,1.55,27-4.15,2-11.43,6.17-14.93,12.22a3.71,3.71,0,0,0,.28,4.12,22.32,22.32,0,0,0-3.71,10.73,3.71,3.71,0,0,0-1.92.63,23.65,23.65,0,0,0-6.59-1.84l-.47,0a3.7,3.7,0,0,0-2.19.72,25.38,25.38,0,0,0-5.56-.59,30.48,30.48,0,0,0-4.21.3,3.7,3.7,0,0,0-2.35,1.32,26,26,0,0,0-7.82,2.11c-3.65-7.11-11.05-15.81-26-23-14.3-6.85-18.66-18.18-13-33.68.22-.59.46-1.21.76-1.9l.15-.34.08-.19c.06-.14.12-.28.18-.42l.17-.37.06-.15.06-.13c.44-1,.8-1.71,1.14-2.33l.06-.12.11-.24.25-.47.1-.19,0-.06.09-.17c.18-.34.37-.67.54-1a3.94,3.94,0,0,0,.22-.36l.07-.12.1-.18.19-.32,0,0a3.52,3.52,0,0,0,.3-.47l.11-.2.09-.13.19-.29.23-.31c4.24-6,5.36-12.34,3.09-17.36-1.23-2.71-4.57-7.4-13.15-8.33a28.53,28.53,0,0,0-3.05-.16c-13.8,0-26.58,10.6-31.07,25.79-.39,1.28-.74,2.68-1.11,4.36a6.13,6.13,0,0,0-.13.65l0,.12A57.25,57.25,0,0,0,26,84.6Zm161.5,24.23c1-7.1,6.94-15.51,10.91-15.51l.34,0c3.88.56,7.48,10.67,6.42,18-.83,5.75-5,10.25-9.5,10.25a6.86,6.86,0,0,1-1-.07C189.83,120.85,186.6,115.15,187.51,108.83Z"/><path class="cls-4" d="M45,104a72.9,72.9,0,0,0,20.81,8c19.71,4.32,26.77,11.24,27.6,18.43-1.87-.08-6.83.35-10,6.45,0,0,3.76-3.16,6.63-3.23,0,0-10.48,6.41-11.76,14.48,0,0,2.49-4,4.19-4.67,0,0-6.52,8.75-5.39,14.21,0,0,.8-3.37,2-3.78,0,0-3.11,11-.33,14.21,0,0-.29-4.15.3-5.13l.07-.16a12,12,0,0,0,1,4.21q.32,1,.75,2.06h0a42.86,42.86,0,0,0,5.06,7.64s-5.63-4.27-6.82-6.9l.06,0c-7.19,3-15.25,6.12-19.38,13.14-5.94,9.18-1.09,22.61,13,21.8,4.63-.49,11.47-4.5,13.55-9.25-2.41-2.28-2.84-7.81-2.84-7.81a13,13,0,0,0,3.33,6.26,17.16,17.16,0,0,0,17.83,3.51c5.43-2.05,8.54-6.34,10.56-11.29v0a79.62,79.62,0,0,0,3.27-12c0,.2,0,.4,0,.6.08,1,0,10.14-2.15,14.57a33.7,33.7,0,0,1,1.41,9.25c0,7.58-2.35,13.85,5.49,18.82,7.17,4.5,16.76,2.49,23.65-2.76h0l.57-.45h0l.55-.46,0,0,.52-.46,0,0,.5-.47,0,0,.48-.48,0,0,.46-.48,0-.05.44-.49.05-.06.42-.5.05-.06.4-.51.05-.07.38-.51.05-.07.36-.52.05-.08.34-.53,0-.08.32-.53,0-.08.3-.54,0-.09.28-.55,0-.09.26-.56,0-.09.24-.57,0-.09.22-.58,0-.09q.1-.29.19-.59l0-.08q.09-.3.17-.59l0-.08q.08-.3.15-.6l0-.08q.07-.31.12-.61v-.07q.05-.31.1-.62v-.07q0-.32.07-.63v-.06c0-.21,0-.43,0-.65,0,0,0,0,0-.06s0-.31,0-.46c-2.46-1.28-8.08-4.5-11.51-8.74-2.55-.17-11.24.11-17.24,10.91a19.42,19.42,0,0,1,1.94-4,18.88,18.88,0,0,0-2,3.59s4-13.64,15-14.44a8.38,8.38,0,0,1-.48-3.87v0c0,.58-.43,8.39,14,13l0,0c10.74,4.15,23.94,5,33.07-1.91,0,3.4,0,8.89,2.35,11.5,2.61,2.87,9.67,3.4,11.24-.52a9.86,9.86,0,0,0-2.52-10.73c1,.48,5.43,3,3.31,11.59,2.63,1.87,7.4-2.1,5-6.61,0,0-.36-2.12-3-5a12.82,12.82,0,0,1,3.76,4.18c3.92-4.71,3.37-11.55.65-16-3.14-5-9.22-8.29-15.24-9.86a11.13,11.13,0,0,0-1.24-.31h0c1-.84,1.27-4.62,1.27-4.62a7.16,7.16,0,0,1,0,2.64c2.09-1.88,1.16-7.42,1.16-7.42a13.31,13.31,0,0,1,1,3.41c1.44-3.82-2.31-8.31-2.34-8.34h0l1.15,0s6.79,0,14-6.9c0,0-2.75,5.24-3.85,5.85,0,0,8.63-2.8,12-8.65a58.39,58.39,0,0,1-3.3,6.38s9.91-4.72,14.87-13.37c0,0-.92,3.32-1.47,3.85,0,0,9.82-1.75,7.43-15.21a5.73,5.73,0,0,1,2.94,3.41,22.75,22.75,0,0,0-6.52-17.3s3.86.88,4.78,1.92a21,21,0,0,0-8.17-9.26l1-12.23,4.59,2.71s.15-2-4-5.73c4.9-5.65,5.93-17.93,5.93-17.93-15.37-5.27-22.94,1.58-24.92,3.83a74.33,74.33,0,0,0-14.72-1.49s4.13-2.27,8-1.92A22.85,22.85,0,0,0,184.2,77s-12.95-14.15-28.68-13.12c0,0-3,7.09,2.52,27.61,0,0-11.75,4.44-16.1,12,0,0,7.27-6,11-6.83,0,0-16.66,11.39-13.56,23.79,0,0,1.68-6.92,4.26-8.44a35.73,35.73,0,0,0-2.28,12.21,15.74,15.74,0,0,0-5.9-4s4.88,4.58,5,7a21.94,21.94,0,0,0-14.15-8.28s2.94,2,2.82,3.2c0,0-4.72-4.15-14.26-2.81,0,0,6,1.13,6.66,2a23.93,23.93,0,0,0-16.2,1.27s2.53-1,3.45-.5a18.31,18.31,0,0,0-6.26,2.37c-2.76-7.68-9.61-17.24-25.92-25-20.75-9.94-19-27-14.83-38.3.27-.75.56-1.46.85-2.14.06-.12.11-.26.17-.38.12-.31.26-.59.39-.89a1.91,1.91,0,0,1,.15-.34c.42-.93.83-1.8,1.26-2.58,0-.1.09-.2.14-.29l.37-.69a1.81,1.81,0,0,1,.14-.23c.24-.44.47-.86.68-1.23l.07-.09c.1-.18.19-.33.28-.49a1.17,1.17,0,0,0,.15-.25c.09-.13.17-.26.26-.37a2.54,2.54,0,0,1,.14-.23c.09-.18.2-.32.28-.45a1,1,0,0,0,.13-.2l.12-.16.1-.14,0-.07.05-.07C74.4,40.09,71.06,31.15,60.1,30c-14.49-1.56-26.29,9.87-30.17,23-.41,1.37-.75,2.75-1.06,4.17a3.18,3.18,0,0,0-.07.33h0C25.2,74.53,29,94.41,45,104Zm185.81-26s-1.84,12.32-7,15.34a26.63,26.63,0,0,0-4.16-6.88c-2.4-2.55-7.61-4.22-7.61-4.22S220.9,74,230.85,77.95ZM204.7,123c5.89-1.07,12.42-2.14,10.92,1.07a24.55,24.55,0,0,1-5.14,6.43S198.81,124,204.7,123ZM170,120.36c1.88,19.28,20,21.92,20,21.92C169.29,142.52,170,120.36,170,120.36Zm-4.08,1.75c1.27-12.41,10-2.93,10-2.93C167.09,112.72,165.92,122.11,165.92,122.11ZM158.8,68.82C167.27,67.87,179,78.9,179,78.9A36.48,36.48,0,0,0,162.25,89C158.09,76.25,158.8,68.82,158.8,68.82ZM144,127.72c.07-2.37.4-5.08,1.46-6.38a63.3,63.3,0,0,0,.84,11A29.47,29.47,0,0,0,144,127.72Zm55.27-38c6.9,1,10.76,13.87,9.56,22.22s-7.77,14.31-14.68,13.31-11.53-8.57-10.33-16.91S192.39,88.69,199.29,89.68Z"/><path class="cls-5" d="M141.22,182.52v0Z"/><path class="cls-5" d="M145.48,121.33c-1.06,1.31-1.4,4-1.46,6.38a29.49,29.49,0,0,1,2.31,4.64A63.28,63.28,0,0,1,145.48,121.33Z"/><path class="cls-3" d="M199.32,89.51c7,1,10.87,14,9.66,22.45s-7.85,14.45-14.83,13.45-11.64-8.65-10.43-17.09S192.34,88.5,199.32,89.51Z"/><path class="cls-4" d="M203.09,116.45s-7.76-13.36-16.41,0C186.68,116.45,194.95,107.55,203.09,116.45Z"/><path class="cls-3" d="M225.74,116.45s-6-13.36-12.7,0C213,116.45,219.44,107.55,225.74,116.45Z"/><path class="cls-4" d="M169,202s12,2.63,18.14-5.47a27.82,27.82,0,0,1-3.47,17.22c-3.91,4.9-8.33,3.48-8.33,3.48-8.22,7.12-12.76-3.46-12.76-3.46a7.3,7.3,0,0,1-6.34-6.69C155.77,198.38,169,202,169,202Z"/></g></g></svg>