<svg xmlns="http://www.w3.org/2000/svg" xmlns:xlink="http://www.w3.org/1999/xlink" width="200" height="200" viewBox="0 0 200 200"><defs><style>.cls-1,.cls-12,.cls-31{fill:none;}.cls-2{isolation:isolate;}.cls-3{clip-path:url(#clip-path);}.cls-4{clip-path:url(#clip-path-2);}.cls-10,.cls-14,.cls-32,.cls-5,.cls-7,.cls-8,.cls-9{mix-blend-mode:multiply;}.cls-5{fill:url(#linear-gradient);}.cls-20,.cls-6{fill:#fff;}.cls-7{fill:url(#linear-gradient-2);}.cls-8{fill:url(#linear-gradient-3);}.cls-9{fill:url(#linear-gradient-4);}.cls-10{fill:url(#linear-gradient-5);}.cls-11{fill:#f6f6f6;}.cls-12{stroke:#c9c9c9;stroke-miterlimit:10;stroke-width:2px;}.cls-13{fill:#e7be99;}.cls-14,.cls-32{opacity:0.15;}.cls-15,.cls-32{fill:#c16559;}.cls-16{fill:#a5762e;}.cls-17{fill:url(#linear-gradient-6);}.cls-18{fill:url(#linear-gradient-7);}.cls-19{fill:#d99c94;}.cls-20{opacity:0.7;}.cls-21{fill:#221f1f;}.cls-22{fill:url(#linear-gradient-8);}.cls-23{fill:url(#linear-gradient-9);}.cls-24{fill:#d6a641;}.cls-25{fill:url(#linear-gradient-10);}.cls-26{fill:#ef4d23;}.cls-27{fill:#e5bb96;}.cls-28{fill:#c97;}.cls-29{fill:url(#linear-gradient-11);}.cls-30{fill:#a37f5f;}.cls-31{stroke:#a37f5f;stroke-width:1.12px;}.cls-33{clip-path:url(#clip-path-3);}.cls-34{fill:url(#linear-gradient-12);}.cls-35{fill:url(#linear-gradient-17);}</style><clipPath id="clip-path"><polyline class="cls-1" points="-119.99 364.54 -121.02 410.29 -145.13 410.01 -147.52 363.55"/></clipPath><clipPath id="clip-path-2"><rect class="cls-1" x="-189.91" y="215.2" width="224.01" height="223.72"/></clipPath><linearGradient id="linear-gradient" x1="-90669.58" y1="-96973.27" x2="-90620.18" y2="-96873.19" gradientTransform="translate(96901.5 -90404.58) rotate(-90)" gradientUnits="userSpaceOnUse"><stop offset="0.05" stop-color="#fff" stop-opacity="0"/><stop offset="0.14" stop-color="#fcfefd" stop-opacity="0.05"/><stop offset="0.3" stop-color="#f3faf9" stop-opacity="0.18"/><stop offset="0.51" stop-color="#e5f4f1" stop-opacity="0.4"/><stop offset="0.77" stop-color="#d1ebe7" stop-opacity="0.7"/><stop offset="1" stop-color="#bde3dc"/></linearGradient><linearGradient id="linear-gradient-2" x1="-96898.94" y1="86803.69" x2="-96849.54" y2="86903.78" gradientTransform="translate(96894.15 -86628.14)" xlink:href="#linear-gradient"/><linearGradient id="linear-gradient-3" x1="86876.18" y1="93033.84" x2="86925.58" y2="93133.93" gradientTransform="translate(93117.71 -86635.49) rotate(90)" xlink:href="#linear-gradient"/><linearGradient id="linear-gradient-4" x1="93107.36" y1="-90743.91" x2="93156.77" y2="-90643.83" gradientTransform="translate(93125.05 -90411.94) rotate(180)" xlink:href="#linear-gradient"/><linearGradient id="linear-gradient-5" x1="86849.51" y1="93097.86" x2="86922.62" y2="93097.86" gradientTransform="translate(93117.71 -86635.49) rotate(90)" gradientUnits="userSpaceOnUse"><stop offset="0.05" stop-color="#fff" stop-opacity="0"/><stop offset="0.2" stop-color="#f2faf8" stop-opacity="0.19"/><stop offset="0.49" stop-color="#dcf0ec" stop-opacity="0.53"/><stop offset="0.73" stop-color="#cbe9e3" stop-opacity="0.79"/><stop offset="0.91" stop-color="#c1e5de" stop-opacity="0.94"/><stop offset="1" stop-color="#bde3dc"/></linearGradient><linearGradient id="linear-gradient-6" x1="-16365.6" y1="16.44" x2="-16365.6" y2="168.37" gradientTransform="matrix(-1, 0, 0, 1, -16258.53, 0)" gradientUnits="userSpaceOnUse"><stop offset="0" stop-color="#d6a641"/><stop offset="0.99" stop-color="#a5762e"/></linearGradient><linearGradient id="linear-gradient-7" x1="-16318.12" y1="88.03" x2="-16318.12" y2="89.1" xlink:href="#linear-gradient-6"/><linearGradient id="linear-gradient-8" x1="-16353.64" y1="50.81" x2="-16320.65" y2="50.81" xlink:href="#linear-gradient-6"/><linearGradient id="linear-gradient-9" x1="-14886.11" y1="1556.59" x2="-14842.47" y2="1556.59" gradientTransform="matrix(-0.98, 0.18, 0.18, 0.98, -14753.63, 1241.87)" xlink:href="#linear-gradient-6"/><linearGradient id="linear-gradient-10" x1="-16402.11" y1="103.75" x2="-16382.64" y2="103.75" xlink:href="#linear-gradient-6"/><linearGradient id="linear-gradient-11" x1="-16325.76" y1="102.57" x2="-16325.76" y2="157.81" xlink:href="#linear-gradient-6"/><clipPath id="clip-path-3"><path class="cls-1" d="M169.73,100a69.73,69.73,0,0,0-139.46,0c0,38.51,32.36,69.11,70.88,69.11S169.73,138.51,169.73,100Z"/></clipPath><linearGradient id="linear-gradient-12" x1="-16365.51" y1="23.81" x2="-16365.51" y2="167.2" xlink:href="#linear-gradient-6"/><linearGradient id="linear-gradient-17" x1="-16320.69" y1="102.57" x2="-16320.69" y2="160.91" xlink:href="#linear-gradient-6"/></defs><title>Artboard 108 copy 4</title><g class="cls-2"><g id="Layer_1" data-name="Layer 1"><g class="cls-3"><g class="cls-4"><path class="cls-5" d="M-77.87,253.76a84.06,84.06,0,0,0,24.7,59.62l3.59-3.6a69.36,69.36,0,0,1-13.59-41.32A69.62,69.62,0,0,1,6.45,198.84a54.91,54.91,0,0,1,54.91,54.92A69.61,69.61,0,0,0-8.25,184.14,69.62,69.62,0,0,0-77.87,253.76Z"/><path class="cls-6" d="M61.37,253.76A54.92,54.92,0,1,1,6.45,198.85,54.92,54.92,0,0,1,61.37,253.76Z"/><path class="cls-7" d="M6.45,169.44a84.06,84.06,0,0,0-59.62,24.7l3.6,3.6A69.3,69.3,0,0,1-8.25,184.15a69.61,69.61,0,0,1,69.62,69.61A54.92,54.92,0,0,1,6.45,308.68a69.62,69.62,0,0,0,0-139.24Z"/><path class="cls-8" d="M90,251.94a84.05,84.05,0,0,0-24.69-59.63l-3.6,3.6a69.3,69.3,0,0,1,13.59,41.33A69.62,69.62,0,0,1,5.66,306.85a54.91,54.91,0,0,1-54.92-54.91,69.62,69.62,0,1,0,139.23,0Z"/><path class="cls-9" d="M6.44,338.08a84,84,0,0,0,59.62-24.7l-3.6-3.6a69.61,69.61,0,0,1-110.94-56A54.92,54.92,0,0,1,6.44,198.84a69.62,69.62,0,0,0,0,139.24Z"/><path class="cls-10" d="M45.28,279.06a45.34,45.34,0,0,0,0-64.13A54.76,54.76,0,0,0,6.44,198.85v3.31a45.26,45.26,0,0,1,25.3,12.77,45.34,45.34,0,0,1,0,64.13,35.77,35.77,0,0,1-50.59,0A45.34,45.34,0,0,0,45.28,279.06Z"/></g></g><circle class="cls-11" cx="100" cy="100" r="69.73"/><circle class="cls-12" cx="100" cy="100" r="69.73"/><path class="cls-13" d="M97,34.9c.63.48,36.85,19.09,36.85,19.09l9.77,55.34-8,24.52L104,148.69,81,145.4,64,131,55.35,97.69,66.84,59.88,74.21,42Z"/><g class="cls-14"><path class="cls-15" d="M92.9,39.58A23,23,0,0,0,91.63,48c.58,7.61,7.25,13.58,14.48,16.06,2.92,1,6.17,1.67,8.28,3.94s2.53,5.47,2.2,8.45-1.37,5.84-2,8.78A29.42,29.42,0,0,0,118,106.43a25.14,25.14,0,0,0,17.62,11.88,125.52,125.52,0,0,0-1-44c-1.33-6.61-3.28-13.29-7.39-18.63a37.48,37.48,0,0,0-10.73-9.06A61.5,61.5,0,0,0,93,38.46"/></g><path class="cls-13" d="M114.74,86.64a6.06,6.06,0,0,0,4.9-3.69c-.25,1.25-.57,2.49-.92,3.72A7.35,7.35,0,0,1,114.74,86.64Z"/><path class="cls-16" d="M59.58,88c0,.41,0,.83,0,1.24A8.66,8.66,0,0,1,59.58,88Z"/><path class="cls-16" d="M58.76,64V61.9A15.16,15.16,0,0,1,58.76,64Z"/><path class="cls-17" d="M50,62a15.44,15.44,0,0,0,8,2.68h.49l.21,0a16.07,16.07,0,0,1-.88,3.73C54.33,78.17,42.66,86.5,44,97.07c1,7.83,9,13.75,9.67,21.61a5.76,5.76,0,0,1-1.57,4.94c-1.4,1.2-4.08,1.07-4.83-.56a11.45,11.45,0,0,1,.2,2.65c.12.88.28,1.75.48,2.62.86,3.61,3.55,6.31,5.09,9.61a20.06,20.06,0,0,1,1.29,3.6,15.5,15.5,0,0,1,.22,7.17,10,10,0,0,1-1.14,2.9c14.61,7.34,30.8,11,46.11,16.76a58,58,0,0,1,14.15-.86c12.75-20.77,27.6-22.06,40.46-12.74,5,3.6,5,12.06,6.35,10.28,3-3.93,1.25-10-1.25-13.69a82.36,82.36,0,0,0-5.45-6.77,17.51,17.51,0,0,0,7.48-.35,13.34,13.34,0,0,0,8.49-7.23,18.14,18.14,0,0,0,1.32-5.64c.34-3.45,0-7.3-2.27-9.53a5.79,5.79,0,0,0-7.32-.46,5.13,5.13,0,0,0-2.22,3.57c-.14,1.46.74,3,2,3.14-.89-1.15,0-3.27,1.34-3.7a2.92,2.92,0,0,1,3.39,1.92,7.14,7.14,0,0,1,0,4.57,8.09,8.09,0,0,1-3.39,5c-2.55,1.46-5.65.31-7.66-1.74-2.63-2.69-3.93-6.7-4.21-10.73,0-.22,0-.45,0-.67.09-.41.16-.82.24-1.22s.44-.6.67-.88c3.93-4.78,10.55-8.07,12.56-13.66,1.75-4.88-.6-10.14-3.64-14.53s-6.89-8.5-8.52-13.41c-1.59-4.76-1.17-9.47-.27-14.14,4.16-12.4,2.57-24.67-7.23-34.67-8.64-8.82-36.43-19.62-51.25-8.19-5.52-6.93-11.41-6.24-15.75-4.12A34.82,34.82,0,0,0,59.63,40.25c-.82,3-1.35,6.17-2.89,8.93S52.35,54.34,49,54.36s-6.53-3.24-5.38-6.17C41.36,53.18,45.17,58.92,50,62ZM64,79.58l.07-.08c.27-.91,2.67-8.6,7.49-9.43a11.87,11.87,0,0,0,.63-1.82c1.17-4.89-.4-10,1.88-14.67a23.36,23.36,0,0,1,8.59-9.47C84.62,42.89,92.9,38,94.5,41.38c.1.23.21.44.32.65a18.85,18.85,0,0,0,1.66,2.7c5.86,7.77,18.36,8.66,24.77,16,4,4.64,4.89,11.12,4.07,17.07-.77,5.54-2.84,11.07-1.9,16.59,1.49,8.77,3.38,13.69,9.35,20.65l0,0c1.82,2.14-1.64,8.4-2.72,10.4a32.55,32.55,0,0,1-6.72,8.59c-12,11-32.09,12.59-44.4,1.2-9.68-9-13-22.73-14.31-35-.34-3.16-.53-6.33-.65-9.51C63.88,87.46,64.82,82.84,64,79.58Z"/><path class="cls-18" d="M59.58,88c0,.41,0,.83,0,1.24A8.66,8.66,0,0,1,59.58,88Z"/><path class="cls-19" d="M74.21,99.27a4.66,4.66,0,0,1,1.17-3.16A4.91,4.91,0,0,0,74.21,99.27Z"/><path class="cls-19" d="M89,95h0Z"/><polygon class="cls-19" points="91.95 78.64 91.95 78.64 91.2 83.97 91.95 78.64"/><polygon class="cls-13" points="89.01 99.61 91.2 83.97 89.01 99.61 89.01 99.61"/><polygon class="cls-20" points="89.01 99.61 91.2 83.97 89.01 99.61 89.01 99.61"/><polygon class="cls-13" points="91.95 78.64 91.97 81.27 91.97 81.27 91.95 78.64 91.95 78.64"/><polygon class="cls-20" points="91.95 78.64 91.97 81.27 91.97 81.27 91.95 78.64 91.95 78.64"/><path class="cls-13" d="M74.19,94.84a1.64,1.64,0,0,1,0-.22,1.49,1.49,0,0,0,0,.21Z"/><path class="cls-20" d="M74.19,94.84a1.64,1.64,0,0,1,0-.22,1.49,1.49,0,0,0,0,.21Z"/><path class="cls-16" d="M123,79.32a15.38,15.38,0,0,0-4.79-4.63c-10.14-5.93-21.92,7.61-21.92,7.61,9.76-14.21,17-13.32,21.48-9.85A19.36,19.36,0,0,1,123,79.32Z"/><path class="cls-16" d="M84.31,81.2s-7.78-10.68-14.76-7.77c-1.93.8-3.79,2.64-5.42,6a.83.83,0,0,1-.07.13l0-.09c.27-.91,2.67-8.6,7.49-9.43C74.75,69.52,79,71.94,84.31,81.2Z"/><path class="cls-19" d="M90.78,100.72l2.35-19.45.15,20.88s-17.41,7.58-17.92-1.53a9.06,9.06,0,0,1,0-1.16C77.82,95.36,83.14,95.11,90.78,100.72Z"/><path class="cls-20" d="M75.35,99.46a1.23,1.23,0,0,1,0-.19,5,5,0,0,1,1.16-3.16C80,92.65,89.85,99.39,90.15,99.6h0L92.36,84l.75-5.33,0,2.63-2.35,19.45C83.14,95.11,77.82,95.36,75.35,99.46Z"/><path class="cls-21" d="M72,85.25c-5.22-1.32-3.06-8-3.06-8s-.78,7.76,6.31,7.13,9.72,4,9.72,4-3-2.75-6.51-1.87c-11.34,2.86-11.59-3.78-11.59-3.78C67.77,86.14,72,85.25,72,85.25Z"/><path class="cls-21" d="M119.64,82.54a6,6,0,0,1-4.9,3.69,7.35,7.35,0,0,0,4,0,4.56,4.56,0,0,0,2.78-2.4,6.38,6.38,0,0,1-3.12,3.61c-2.18,1.16-5.77,1.66-11.64-.53-3.92-1.46-8.23,1.43-8.23,1.43s4.37-5.15,12.62-3.57c6.1,1.17,8.31-3.59,9.05-6.14a11,11,0,0,0,.34-1.51A12,12,0,0,1,119.64,82.54Z"/><path class="cls-22" d="M95.11,41.43c-2.24-1.79-6.07-1.37-8.36.37a10.41,10.41,0,0,0-3.68,7c-.38,2.6-.24,5.25-.73,7.83a9.76,9.76,0,0,1-4.25,6.74c-3,1.81-7.28,1.56-10.33-.16a11.88,11.88,0,0,1-5.64-7.77c1.83,2.12,5.94,1.65,8.13-.2s3-4.52,4-7a21,21,0,0,1,4.51-7.53A12.48,12.48,0,0,1,87.34,37c3.31,0,6.69,1.85,7.49,4.6"/><path class="cls-23" d="M120.4,59.18c4,1.58,8,3.58,10.61,6.81,4.45,5.43,4.8,13.83,11,17.43,4.28,2.47,9.75,1.64,14.69,2.51a20,20,0,0,1,14.87,11.69,7.91,7.91,0,0,1,.61,5c-.91,3.38-5,5.07-8.65,5.57a6.75,6.75,0,0,1-4.43-.53c-1.27-.79-1.78-2.74-.61-3.66s3.37.75,2.36,1.82c2.18.48,4.27-1.73,4.08-3.83s-2-3.8-4.1-4.62a24.85,24.85,0,0,0-6.57-1.2c-10.12-1.1-20.76-5.4-25.15-14-3.71-7.3-2.47-16.72-8.19-22.77"/><path class="cls-24" d="M103.92,24.85a52.64,52.64,0,0,1,14.72-1.31c4.88.38,9.59,1.95,12,4.65,1.51,1.69,2,3.69,3,5.56A17.2,17.2,0,0,0,145,42.51c5.67,1.48,13.26.45,17-3,.84-.78,1.41-1.94.39-2.54,2.34,3.59.33,8.23-4.37,11s-11.65,3.62-17.38,2.42-10.17-4.3-12.13-8c-1.21-2.3-1.53-4.8-2.61-7.14-2-4.39-6.87-8.1-13.17-10.1-3.14-1-7.34-1.48-10.11.11"/><path class="cls-25" d="M128.52,109.38s8.33,17.94,15.06,20.29c0,0-19.49-22.92-18.26-51.84C125.32,77.83,121.07,96.38,128.52,109.38Z"/><path class="cls-26" d="M108.4,159.25c5.4-.18,16.62-1.52,15.12-9.64,0-.07,0-.14,0-.21s-.09-.37-.14-.57c-.88-3.26-3.7-7.55-9.5-13.16.34-.16.68-.32,1-.5.79-.25,1.55-.55,2.3-.87,3.67,3.85,7.54,8.53,9.67,12.95h0l.06.15,0,.08h0c3.59,7.88-3.76,14.81-17,14.8C110.27,161.12,109.54,160,108.4,159.25Z"/><path class="cls-26" d="M73.66,147.48h0a.3.3,0,0,0,0-.08,1,1,0,0,0,.07-.15h0c2.22-4.61,6.34-9.51,10.14-13.45a27.73,27.73,0,0,0,3.38,1.36c-6.17,5.87-9.14,10.31-10,13.68-.06.19-.1.37-.14.55s0,.15,0,.22c-1.5,8.12,9.71,9.46,15.12,9.64-1.14.79-1.87,1.87-1.57,3C77.42,162.29,70.06,155.36,73.66,147.48Z"/><path class="cls-21" d="M99.5,168.37a59.14,59.14,0,0,1,12.86-.92l0-2.23-19.19.9Q96.37,167.2,99.5,168.37Z"/><path class="cls-26" d="M99.5,168.37c5.33,1.15,9.91,1.32,13.62-.89l2.47-36.07-29.12,1,1.27,31.86C91.33,167.85,95.41,168.6,99.5,168.37Z"/><path class="cls-27" d="M111.43,139.43S101.85,169.38,90,140l20.8-.57"/><path class="cls-28" d="M104.17,149c.15,0-3.62.26-3,3.85C101.2,152.88,101.59,149.74,104.17,149Z"/><path class="cls-28" d="M98,149c-.15,0,3.62.26,3,3.85C101,152.88,100.6,149.74,98,149Z"/><path class="cls-13" d="M123.28,134.17S101.82,154.35,79,135.38l5.28-5.28,5.25-2.27,23.87-1.14Z"/><path class="cls-29" d="M62.92,123.52s0,.09,0,.14c1.27,6.78,4.41,13.27,4.41,20.17,0,3.82-1.17,7.9-4.2,10.23a6.92,6.92,0,0,1-2,1.07q3.45,1.43,7,2.68a17.15,17.15,0,0,0,5.11-10.71c.56-5-.63-10.09-2.21-14.9s-3.53-9.51-4.58-14.45A67.84,67.84,0,0,1,65,102.57a38.19,38.19,0,0,0-2.44,18.74C62.72,122.05,62.83,122.79,62.92,123.52Z"/><path class="cls-30" d="M122.33,107.32s-5.55,7.1-12.32-1C110,106.35,117.62,110.79,122.33,107.32Z"/><path class="cls-31" d="M115.59,109.63s-.74,25.54-31.35,15.6"/><path class="cls-32" d="M110.81,141.5s-8,7.42-19.9.61C90.91,142.11,101.82,145.34,110.81,141.5Z"/><g class="cls-33"><path class="cls-13" d="M97,34.9c.63.48,36.85,19.09,36.85,19.09l9.77,55.34-8,24.52L104,148.69,81,145.4,64,131,55.35,97.69,66.84,59.88,74.21,42Z"/><g class="cls-14"><path class="cls-15" d="M92.9,39.58A23,23,0,0,0,91.63,48c.58,7.61,7.25,13.58,14.48,16.06,2.92,1,6.17,1.67,8.28,3.94s2.53,5.47,2.2,8.45-1.37,5.84-2,8.78A29.42,29.42,0,0,0,118,106.43a25.14,25.14,0,0,0,17.62,11.88,125.52,125.52,0,0,0-1-44c-1.33-6.61-3.28-13.29-7.39-18.63a37.48,37.48,0,0,0-10.73-9.06A61.5,61.5,0,0,0,93,38.46"/></g><path class="cls-13" d="M114.74,86.64a6.06,6.06,0,0,0,4.9-3.69c-.25,1.25-.57,2.49-.92,3.72A7.35,7.35,0,0,1,114.74,86.64Z"/><path class="cls-16" d="M59.58,88c0,.41,0,.83,0,1.24A8.66,8.66,0,0,1,59.58,88Z"/><path class="cls-16" d="M58.76,64V61.9A15.16,15.16,0,0,1,58.76,64Z"/><path class="cls-34" d="M54.53,148.71a9.54,9.54,0,0,1-6.62,7.22c-.42.13-4.88,1.24-5.12.62,3.75,9.62,39.74,21.32,47.22,9.72,2.18-3.38,5.22,1.38,5,3.22h16.23c23.81,5,29.16-24.62,42.82-14.72,5,3.6,5,12.06,6.35,10.28,3-3.93,1.25-10-1.25-13.69a82.36,82.36,0,0,0-5.45-6.77,17.51,17.51,0,0,0,7.48-.35,13.34,13.34,0,0,0,8.49-7.23,18.14,18.14,0,0,0,1.32-5.64c.34-3.45,0-7.3-2.27-9.53a5.79,5.79,0,0,0-7.32-.46,5.13,5.13,0,0,0-2.22,3.57c-.14,1.46.74,3,2,3.14-.89-1.15,0-3.27,1.34-3.7a2.92,2.92,0,0,1,3.39,1.92,7.14,7.14,0,0,1,0,4.57,8.09,8.09,0,0,1-3.39,5c-2.55,1.46-5.65.31-7.66-1.74-2.63-2.69-3.93-6.7-4.21-10.73,0-.22,0-.45,0-.67.09-.41.16-.82.24-1.22s.44-.6.67-.88c3.93-4.78,10.55-8.07,12.56-13.66,1.75-4.88-.6-10.14-3.64-14.53s-6.89-8.5-8.52-13.41c-1.59-4.76-1.17-9.47-.27-14.14,4.16-12.4,2.57-24.67-7.23-34.67-8.64-8.82-36.43-19.62-51.25-8.19-5.52-6.93-11.41-6.24-15.75-4.12A34.82,34.82,0,0,0,59.63,40.25c-.82,3-1.34,6.17-2.88,8.93s-4.4,5.16-7.72,5.18-6.53-3.24-5.38-6.17c-2.29,5,1.52,10.73,6.3,13.78a15.44,15.44,0,0,0,8,2.68h.49l.21,0a16.07,16.07,0,0,1-.88,3.73C54.33,78.17,42.66,86.5,44,97.07c1,7.83,9,13.75,9.67,21.61a5.76,5.76,0,0,1-1.57,4.94c-1.4,1.2-4.08,1.07-4.83-.56a11.45,11.45,0,0,1,.2,2.65c.12.88.28,1.75.48,2.62.86,3.61,3.55,6.31,5.09,9.61a20.06,20.06,0,0,1,1.29,3.6A15.5,15.5,0,0,1,54.53,148.71ZM64,79.58l.07-.08c.27-.91,2.67-8.6,7.49-9.43a11.87,11.87,0,0,0,.63-1.82c1.17-4.89-.4-10,1.88-14.67a23.36,23.36,0,0,1,8.59-9.47C84.62,42.89,92.9,38,94.5,41.38c.1.23.21.44.32.65a18.85,18.85,0,0,0,1.66,2.7c5.86,7.77,18.36,8.66,24.77,16,4,4.64,4.89,11.12,4.07,17.07-.77,5.54-2.84,11.07-1.9,16.59,1.49,8.77,3.38,13.69,9.35,20.65l0,0c1.82,2.14-1.64,8.4-2.72,10.4a32.55,32.55,0,0,1-6.72,8.59c-12,11-32.09,12.59-44.4,1.2-9.68-9-13-22.73-14.31-35-.34-3.16-.53-6.33-.65-9.51C63.88,87.46,64.82,82.84,64,79.58Z"/><path class="cls-18" d="M59.58,88c0,.41,0,.83,0,1.24A8.66,8.66,0,0,1,59.58,88Z"/><path class="cls-19" d="M74.21,99.27a4.66,4.66,0,0,1,1.17-3.16A4.91,4.91,0,0,0,74.21,99.27Z"/><path class="cls-19" d="M89,95h0Z"/><polygon class="cls-19" points="91.95 78.64 91.95 78.64 91.2 83.97 91.95 78.64"/><polygon class="cls-13" points="89.01 99.61 91.2 83.97 89.01 99.61 89.01 99.61"/><polygon class="cls-20" points="89.01 99.61 91.2 83.97 89.01 99.61 89.01 99.61"/><polygon class="cls-13" points="91.95 78.64 91.97 81.27 91.97 81.27 91.95 78.64 91.95 78.64"/><polygon class="cls-20" points="91.95 78.64 91.97 81.27 91.97 81.27 91.95 78.64 91.95 78.64"/><path class="cls-13" d="M74.19,94.84a1.64,1.64,0,0,1,0-.22,1.49,1.49,0,0,0,0,.21Z"/><path class="cls-20" d="M74.19,94.84a1.64,1.64,0,0,1,0-.22,1.49,1.49,0,0,0,0,.21Z"/><path class="cls-16" d="M123,79.32a15.38,15.38,0,0,0-4.79-4.63c-10.14-5.93-21.92,7.61-21.92,7.61,9.76-14.21,17-13.32,21.48-9.85A19.36,19.36,0,0,1,123,79.32Z"/><path class="cls-16" d="M84.31,81.2s-7.78-10.68-14.76-7.77c-1.93.8-3.79,2.64-5.42,6a.83.83,0,0,1-.07.13l0-.09c.27-.91,2.67-8.6,7.49-9.43C74.75,69.52,79,71.94,84.31,81.2Z"/><path class="cls-19" d="M90.78,100.72l2.35-19.45.15,20.88s-17.41,7.58-17.92-1.53a9.06,9.06,0,0,1,0-1.16C77.82,95.36,83.14,95.11,90.78,100.72Z"/><path class="cls-20" d="M75.35,99.46a1.23,1.23,0,0,1,0-.19,5,5,0,0,1,1.16-3.16C80,92.65,89.85,99.39,90.15,99.6h0L92.36,84l.75-5.33,0,2.63-2.35,19.45C83.14,95.11,77.82,95.36,75.35,99.46Z"/><path class="cls-21" d="M72,85.25c-5.22-1.32-3.06-8-3.06-8s-.78,7.76,6.31,7.13,9.72,4,9.72,4-3-2.75-6.51-1.87c-11.34,2.86-11.59-3.78-11.59-3.78C67.77,86.14,72,85.25,72,85.25Z"/><path class="cls-21" d="M119.64,82.54a6,6,0,0,1-4.9,3.69,7.35,7.35,0,0,0,4,0,4.56,4.56,0,0,0,2.78-2.4,6.38,6.38,0,0,1-3.12,3.61c-2.18,1.16-5.77,1.66-11.64-.53-3.92-1.46-8.23,1.43-8.23,1.43s4.37-5.15,12.62-3.57c6.1,1.17,8.31-3.59,9.05-6.14a11,11,0,0,0,.34-1.51A12,12,0,0,1,119.64,82.54Z"/><path class="cls-22" d="M95.11,41.43c-2.24-1.79-6.07-1.37-8.36.37a10.41,10.41,0,0,0-3.68,7c-.38,2.6-.24,5.25-.73,7.83a9.76,9.76,0,0,1-4.25,6.74c-3,1.81-7.28,1.56-10.33-.16a11.88,11.88,0,0,1-5.64-7.77c1.83,2.12,5.94,1.65,8.13-.2s3-4.52,4-7a21,21,0,0,1,4.51-7.53A12.48,12.48,0,0,1,87.34,37c3.31,0,6.69,1.85,7.49,4.6"/><path class="cls-23" d="M120.4,59.18c4,1.58,8,3.58,10.61,6.81,4.45,5.43,4.8,13.83,11,17.43,4.28,2.47,9.75,1.64,14.69,2.51a20,20,0,0,1,14.87,11.69,7.91,7.91,0,0,1,.61,5c-.91,3.38-5,5.07-8.65,5.57a6.75,6.75,0,0,1-4.43-.53c-1.27-.79-1.78-2.74-.61-3.66s3.37.75,2.36,1.82c2.18.48,4.27-1.73,4.08-3.83s-2-3.8-4.1-4.62a24.85,24.85,0,0,0-6.57-1.2c-10.12-1.1-20.76-5.4-25.15-14-3.71-7.3-2.47-16.72-8.19-22.77"/><path class="cls-24" d="M103.92,24.85a52.64,52.64,0,0,1,14.72-1.31c4.88.38,9.59,1.95,12,4.65,1.51,1.69,2,3.69,3,5.56A17.2,17.2,0,0,0,145,42.51c5.67,1.48,13.26.45,17-3,.84-.78,1.41-1.94.39-2.54,2.34,3.59.33,8.23-4.37,11s-11.65,3.62-17.38,2.42-10.17-4.3-12.13-8c-1.21-2.3-1.53-4.8-2.61-7.14-2-4.39-6.87-8.1-13.17-10.1-3.14-1-7.34-1.48-10.11.11"/><path class="cls-25" d="M128.52,109.38s8.33,17.94,15.06,20.29c0,0-19.49-22.92-18.26-51.84C125.32,77.83,121.07,96.38,128.52,109.38Z"/><path class="cls-26" d="M108.4,159.25c5.4-.18,16.62-1.52,15.12-9.64,0-.07,0-.14,0-.21s-.09-.37-.14-.57c-.88-3.26-3.7-7.55-9.5-13.16.34-.16.68-.32,1-.5.79-.25,1.55-.55,2.3-.87,3.67,3.85,7.54,8.53,9.67,12.95h0l.06.15,0,.08h0c3.59,7.88-3.76,14.81-17,14.8C110.27,161.12,109.54,160,108.4,159.25Z"/><path class="cls-26" d="M73.66,147.48h0a.3.3,0,0,0,0-.08,1,1,0,0,0,.07-.15h0c2.22-4.61,6.34-9.51,10.14-13.45a27.73,27.73,0,0,0,3.38,1.36c-6.17,5.87-9.14,10.31-10,13.68-.06.19-.1.37-.14.55s0,.15,0,.22c-1.5,8.12,9.71,9.46,15.12,9.64-1.14.79-1.87,1.87-1.57,3C77.42,162.29,70.06,155.36,73.66,147.48Z"/><polygon class="cls-21" points="90.01 166.27 112.38 165.22 111.58 238.67 109.66 238.49 110.14 176.76 92.9 175.37 92.42 238.49 90.57 238.62 90.01 166.27"/><polyline class="cls-26" points="86.47 132.45 88.03 171.37 112.85 171.37 115.59 131.41"/><path class="cls-27" d="M111.43,139.43S101.85,169.38,90,140l20.8-.57"/><path class="cls-28" d="M104.17,149c.15,0-3.62.26-3,3.85C101.2,152.88,101.59,149.74,104.17,149Z"/><path class="cls-28" d="M98,149c-.15,0,3.62.26,3,3.85C101,152.88,100.6,149.74,98,149Z"/><path class="cls-13" d="M123.28,134.17S101.82,154.35,79,135.38l5.28-5.28,5.25-2.27,23.87-1.14Z"/><path class="cls-35" d="M53,152.15a2.11,2.11,0,0,0,.22.54c1.82,3.35,6.95,3.7,10,1.37s4.2-6.41,4.2-10.23c0-6.9-3.14-13.39-4.41-20.17,0,0,0-.1,0-.14-.09-.73-.2-1.47-.34-2.21A38.19,38.19,0,0,1,65,102.57a67.84,67.84,0,0,0,1.38,15.18c1,4.94,3,9.64,4.58,14.45s2.77,9.87,2.21,14.9-3.13,10.06-7.56,12.49-10.77,1.5-13.54-2.73a7.47,7.47,0,0,1-1.1-2.75C51.67,153.49,52.32,152.83,53,152.15Z"/><path class="cls-30" d="M122.33,107.32s-5.55,7.1-12.32-1C110,106.35,117.62,110.79,122.33,107.32Z"/><path class="cls-31" d="M115.59,109.63s-.74,25.54-31.35,15.6"/><path class="cls-32" d="M110.81,141.5s-8,7.42-19.9.61C90.91,142.11,101.82,145.34,110.81,141.5Z"/></g></g></g></svg>