<svg xmlns="http://www.w3.org/2000/svg" viewBox="0 0 270 240"><defs><style>.cls-1{isolation:isolate;}.cls-2{fill:#3c3b3a;opacity:0.1;mix-blend-mode:multiply;}.cls-3{fill:#333;}.cls-4{opacity:0.2;}.cls-5{fill:#c1272d;}.cls-6{fill:#7ac943;}</style></defs><title>Artboard 29 copy 11</title><g class="cls-1"><g id="Layer_1" data-name="Layer 1"><path class="cls-2" d="M196,212.94s17.51,1.17,10.51,8.75-94.54,13.42-75.28-16.34Z"/><path class="cls-3" d="M144.82,151.47s-6.05,36.64,5.71,57.82c0,0,12.44,1.68,5.71,13.11,0,0-44.37,10.42-60.84-7.06,0,0-4.37-46.72,33.62-72.61Z"/><path class="cls-3" d="M122.33,211.82c3.51-1.34-.15,1.05-1.41,1.63a18,18,0,0,1-18.11-1.75c-5.61-4.42-6.3-11.81-3.78-18.44,1.57-4.4,6.06-9.68,5.07-15-2.24-10.18-19.51-5.59-26.3-10.83-3.65-3.08-7.65-9.86-5.54-15,2.17-4.85,9.21-3.77,13.57-4.24,4.42-.14,7.47-2.08,4.3-6.27a17.8,17.8,0,0,0-14.22-6.58c-8.51.22-18.37,7.87-19.86,16.35-1.72,10.92,6.77,21.65,16.62,24.94,8.07,2.94,19.76,1.45,19.54,13.12-.2,10-4.72,18.66,3.94,26.62,7,6.55,13.31,5.38,21.47,1.47l4.77-1.92c-.33.06-.33.06-.72-.21"/><path class="cls-4" d="M143.4,169.18s-16-6.44-23-19.67l3.57-3.05a46,46,0,0,0,20.55,8.1S142.7,167.53,143.4,169.18Z"/><path class="cls-5" d="M144.61,155.37s-14.12-2.68-20.55-8.1l-2.73,2.47s11.27,10.55,22.54,11.37Z"/><path class="cls-4" d="M102.69,175s-8.95,20.43-7.28,40.29c0,0-2-1.12-3.76-5.83A92.8,92.8,0,0,1,102.69,175Z"/><path class="cls-3" d="M154.09,68.36s-8.72-35.45,10.45-54.53c0,0,34.84,58.92,30.64,86.48Z"/><path class="cls-4" d="M164.54,13.83s4.46,7.54,10,18.49c-5.06-8-9.88-15.33-9.88-15.33-15.53,20.1-8,50.52-8,50.52l-2.78-.05C152.69,61.8,147.18,31.1,164.54,13.83Z"/><path class="cls-3" d="M132.49,81.77q-2.63,2.08-5.24,4.18c-6.58,5.27-13.27,10.54-18.46,17.25-4.82,6.22-9.86,14.16-9.18,22.37,1.06,12.78,12.08,19.94,22.27,25.58a43.89,43.89,0,0,0,23.76,5.54c13-.48,25.72-7,34.41-16.56a56.49,56.49,0,0,0,9.59-14.62c7.4-16.75,9.25-39.35-2.43-54.72a24.76,24.76,0,0,0-10-7.8c-9.44-3.51-19.52,1.42-27.45,6.34A190.4,190.4,0,0,0,132.49,81.77Z"/><path class="cls-3" d="M121.92,92.91S90.29,79.16,63.72,81c0,0,12.85,43.54,39,54.56Z"/><path class="cls-4" d="M120.07,91.81S90,115.31,102.7,135.58l-5.76-3S84.42,117,118,91.21Z"/><path class="cls-4" d="M153.8,66.92s17.94-10.74,28.29-1.16,15.3,23.86,13.09,34.54c0,0,.71-32.31-16.24-41.68C166,51.49,153.3,65.34,153.3,65.34Z"/><path class="cls-6" d="M158,126.55s-28.26-20.19-49.33,8.55C108.66,135.1,137.64,169.25,158,126.55Z"/><path d="M141.83,121.64s12.86,1.28,8.61,15.77C150.44,137.41,137.2,134.41,141.83,121.64Z"/><polygon class="cls-3" points="187.23 126.96 193.33 139.71 184.27 132.59 186.72 128.67 187.23 126.96"/><path class="cls-3" d="M182,126.67s26.87-35,72.88-31.36C254.87,95.3,218.43,90.3,182,126.67Z"/><path class="cls-3" d="M176.86,129.16s33.66-28.5,77.87-15.24C254.73,113.92,220.18,101.32,176.86,129.16Z"/><path class="cls-3" d="M159.65,148.12s-25,7.85-28.17,49.37C131.48,197.49,132.62,163.66,159.65,148.12Z"/><path class="cls-3" d="M155,150s-26.08,2.79-37.29,42.89C117.71,192.86,125.45,159.91,155,150Z"/><path class="cls-4" d="M69.43,96a132.69,132.69,0,0,1-5.71-15c20.71-1.45,44.5,6.59,54,10.21l-4,4.66S87.54,82.24,64.85,82.73C64.85,82.73,66.77,88.4,69.43,96Z"/><ellipse cx="168.75" cy="131.93" rx="8.32" ry="4.02" transform="translate(-44.15 108.34) rotate(-31.7)"/><path class="cls-4" d="M164.4,119S200.92,129.67,193,92.41Z"/><path class="cls-6" d="M164.4,119s-6.58-33.35,25.49-36.91C189.89,82.14,208,122.9,164.4,119Z"/><path d="M167.64,102.55s12.81-1.74,12,13.34C179.66,115.89,166.09,116,167.64,102.55Z"/><polyline class="cls-3" points="155.77 151.45 165.32 161.87 162.1 150.81 157.54 151.62"/></g></g></svg>