<svg xmlns="http://www.w3.org/2000/svg" viewBox="0 0 270 240"><defs><style>.cls-1{isolation:isolate;}.cls-2,.cls-6{fill:#3c3b3a;}.cls-2{opacity:0.1;mix-blend-mode:multiply;}.cls-14,.cls-16,.cls-3,.cls-9{fill:none;stroke-miterlimit:10;}.cls-3{stroke:#5495bc;stroke-width:4.89px;}.cls-4{fill:#919395;}.cls-5{fill:#e83d31;}.cls-7{fill:#fff;}.cls-8{fill:#6b6b6b;}.cls-9{stroke:#6b6b6b;stroke-width:0.42px;}.cls-10{fill:#515252;}.cls-11{fill:#575757;}.cls-12{fill:#fcfdfc;}.cls-13{fill:#5495bc;}.cls-14{stroke:#3c3b3a;stroke-width:2.1px;}.cls-15{fill:#e0b895;}.cls-16{stroke:#fff;stroke-linecap:round;stroke-width:0.87px;}.cls-17{fill:#d0d2d3;}.cls-18,.cls-19{fill:#cb9876;}.cls-19{opacity:0.4;}.cls-20{fill:#f0eff0;}.cls-21{fill:#876439;}.cls-22{fill:#e1b996;}.cls-23{fill:#ad8166;}</style></defs><title>Artboard 29 copy 10</title><g class="cls-1"><g id="Layer_1" data-name="Layer 1"><polygon class="cls-2" points="204.65 102.5 203.78 122.86 208.4 121.51 210.61 120.59 208.28 101.33 204.65 102.5"/><path class="cls-3" d="M112,109c.43,2.15,92.36-.73-.09,36.05"/><ellipse class="cls-2" cx="135" cy="220.55" rx="101.7" ry="4.29"/><path class="cls-4" d="M120.83,158.76a2,2,0,0,1,2,.78l13.5,18.55a2,2,0,0,1-3.2,2.33l-13.5-18.55a2,2,0,0,1,1.22-3.11Z"/><rect class="cls-4" x="109.69" y="155.88" width="21.72" height="7.13" transform="translate(241.11 318.88) rotate(180)"/><polygon class="cls-5" points="135.26 181.83 81.24 181.83 81.24 179.98 134.6 179.98 179.8 142.92 180.98 144.35 135.26 181.83"/><path class="cls-6" d="M190,220.62a34.17,34.17,0,0,1-18.51-5.37,33.08,33.08,0,0,1-14.77-22A37,37,0,0,1,162.49,166a39,39,0,0,1,23-16.43,34.9,34.9,0,0,1,27.65,4.22,33.08,33.08,0,0,1,14.77,22A37,37,0,0,1,222.18,203a39,39,0,0,1-23,16.43A37.26,37.26,0,0,1,190,220.62Zm4.58-63.52a28.44,28.44,0,0,0-7,.88c-15.07,3.81-25.07,18.9-22.31,33.63a24.44,24.44,0,0,0,10.9,16.29A26.27,26.27,0,0,0,197,211c15.07-3.81,25.07-18.9,22.31-33.63a24.44,24.44,0,0,0-10.9-16.29A25.54,25.54,0,0,0,194.61,157.1Z"/><path class="cls-7" d="M190.34,212.83a26.67,26.67,0,0,1-14.45-4.19,25.73,25.73,0,0,1-11.48-17.13c-2.84-15.1,7.36-30.55,22.72-34.44a27.3,27.3,0,0,1,21.64,3.28,25.73,25.73,0,0,1,11.48,17.13c2.84,15.1-7.36,30.55-22.72,34.44A29.29,29.29,0,0,1,190.34,212.83Zm4-55.09a27.68,27.68,0,0,0-6.79.86C173,162.29,163.29,176.92,166,191.22a24.16,24.16,0,0,0,10.78,16.09,25.74,25.74,0,0,0,20.39,3.08h0c14.57-3.69,24.23-18.32,21.55-32.61a24.16,24.16,0,0,0-10.78-16.09A25.1,25.1,0,0,0,194.32,157.75Z"/><path class="cls-6" d="M80.36,217.3a33.57,33.57,0,0,1-33.87-36.41,38.94,38.94,0,0,1,38.31-35.8,33.57,33.57,0,0,1,33.87,36.41l-4.35-.3,4.35.3a38.94,38.94,0,0,1-38.31,35.8Zm4.44-63.49c-15.26,0-28.55,12.42-29.62,27.69a24.86,24.86,0,0,0,25.18,27.08c15.26,0,28.55-12.42,29.62-27.69A24.86,24.86,0,0,0,84.8,153.81Z"/><path class="cls-7" d="M80.66,209.52a26.13,26.13,0,0,1-26.39-28.38c1.09-15.59,14.66-28.27,30.24-28.27a26.13,26.13,0,0,1,26.39,28.38l-.79-.06.79.06C109.81,196.84,96.24,209.52,80.66,209.52Zm3.85-55.06a29.22,29.22,0,0,0-28.66,26.79,24.54,24.54,0,0,0,24.81,26.68,29.22,29.22,0,0,0,28.66-26.79,24.54,24.54,0,0,0-24.81-26.68Z"/><path class="cls-5" d="M153.7,142.31a107.15,107.15,0,0,0-24.26,12.45c-16.25,11.08-29.78,18.42-42.59,23.09-2.29.84-4.54,1.57-6.77,2.23a13,13,0,0,1,1.57,3.67q3.24-1,6.56-2.18c13.13-4.79,26.94-12.27,43.47-23.54,13.83-9.43,33.59-18.13,47.56-14.29l1.05-3.82C173,137.92,164,138.72,153.7,142.31Z"/><rect class="cls-5" x="179.73" y="116.96" width="3.96" height="66.92" transform="translate(-38.51 65.87) rotate(-18.61)"/><path class="cls-6" d="M86.48,177.55a5.35,5.35,0,1,0-.51,7.29A5.15,5.15,0,0,0,86.48,177.55Z"/><path class="cls-5" d="M84.69,181.2a1.94,1.94,0,0,0-2-2.11,2.3,2.3,0,0,0-2.26,2.11,1.94,1.94,0,0,0,2,2.11A2.3,2.3,0,0,0,84.69,181.2Z"/><path class="cls-6" d="M197.48,184.5a4.74,4.74,0,0,0-4.79-5.15,5.61,5.61,0,0,0-5.51,5.15,4.74,4.74,0,0,0,4.79,5.15A5.61,5.61,0,0,0,197.48,184.5Z"/><path class="cls-6" d="M196.23,180.85a5.35,5.35,0,1,0-.51,7.29A5.15,5.15,0,0,0,196.23,180.85Z"/><path class="cls-5" d="M194.45,184.5a1.94,1.94,0,0,0-2-2.11,2.3,2.3,0,0,0-2.26,2.11,1.94,1.94,0,0,0,2,2.11A2.3,2.3,0,0,0,194.45,184.5Z"/><path class="cls-8" d="M125.3,121.88l-12,.74a3.11,3.11,0,0,1-3.14-3.38h0a3.68,3.68,0,0,1,3.61-3.38h17.58A6.57,6.57,0,0,1,125.3,121.88Z"/><rect class="cls-8" x="119.5" y="118.09" width="2.11" height="10.12" transform="translate(-23.6 28.72) rotate(-12.38)"/><rect class="cls-5" x="126.07" y="123.94" width="3.96" height="58.72" transform="translate(-32.97 35.11) rotate(-13.85)"/><polygon class="cls-8" points="167.02 122.81 176.83 118.73 174.67 114.03 165.34 118.45 167.02 122.81"/><path class="cls-8" d="M168.13,118.2l-3.81-9.4h6a3,3,0,0,0,3-2.76,2.3,2.3,0,0,0-2.34-2.52H157.8v-3.43h13.08a5.73,5.73,0,0,1,5.77,6.2,6.5,6.5,0,0,1-6.38,6h-1.18l2.29,4.88Z"/><polygon class="cls-8" points="119.19 129.29 120.75 134.95 126.14 133.54 124.71 127.87 119.19 129.29"/><polygon class="cls-4" points="173.77 124.65 199.19 114.48 200.46 118.72 172.08 129.31 170.9 125.59 173.77 124.65"/><polygon class="cls-4" points="177.71 113.6 208.28 103.83 210.64 123.35 187.34 130.13 177.71 113.6"/><polyline class="cls-9" points="182.44 112.07 189.47 126.14 210.28 119.1"/><path class="cls-8" d="M77,181.71h0a5.88,5.88,0,0,0,5.25,5.36L134,192.45a11.59,11.59,0,0,0,12.78-11.53h0a11.59,11.59,0,0,0-12.92-11.51l-51.68,6A5.88,5.88,0,0,0,77,181.71Z"/><rect class="cls-10" x="153.65" y="99.18" width="11.87" height="5.3"/><circle class="cls-11" cx="135" cy="181.2" r="5.11" transform="translate(-76.83 102.55) rotate(-32.94)"/><circle class="cls-11" cx="82.58" cy="181.2" r="2.75" transform="matrix(0.84, -0.54, 0.54, 0.84, -85.26, 74.04)"/><path class="cls-4" d="M150.35,200.36a2,2,0,0,1-2-.61l-15-17.36a2,2,0,0,1,3-2.59l15,17.36a2,2,0,0,1-1,3.2Z"/><rect class="cls-4" x="136.7" y="193.73" width="21.72" height="7.13" transform="translate(-8.71 6.83) rotate(-2.57)"/><polyline class="cls-9" points="136.68 197.35 155.18 196.38 154.97 193.48"/><polygon class="cls-5" points="177.3 148.85 184.52 145.93 179.84 132.65 172.61 135.44 177.3 148.85"/><polygon class="cls-12" points="175.88 137.4 178.56 145.17 183.6 143.32 180.81 135.4 175.88 137.4"/><polygon class="cls-2" points="181.25 136.64 177.9 138.01 179.8 142.92 183.04 141.73 181.25 136.64"/><ellipse class="cls-13" cx="118.85" cy="108.75" rx="10.68" ry="8.54"/><path class="cls-14" d="M114.72,79.43s16.27,27.87,41.16,21"/><path class="cls-14" d="M127.2,80.55s32,3.83,41.58-20.17"/><polygon class="cls-6" points="109.09 78.57 108.17 107.94 129.54 107.94 125.02 79.39 109.09 78.57"/><path class="cls-3" d="M112.89,113.16c1,2,46.7-4.41,29.42,72.54"/><path class="cls-10" d="M144.45,185.93s4.5,5.8,13.86,4.85l.44,1.9s-11.88,2.17-16.08-3.24l.69,4.39h-4l.44-8.11Z"/><path class="cls-10" d="M115.12,144.81s2.44,6.93,11.61,9l-.18,1.95s-12-1.7-14.23-8.16l-.73,4.38-3.82-1.29,3-7.55Z"/><path class="cls-15" d="M152.89,100.22c-1.64-.53-6.21-6.12-3.4-6.75,2.17-.41,3.63,4.35,4.13,5.83l.21-.07a14.21,14.21,0,0,1,2.87-1.13c1.56-.39,9.36-1.45,10.19.58,1.24,2.7-8.62,2-10.22,1.84,2.58.25,6.8,2.55,7,5.42-2.45,1.69-6.52-3.83-7.8-5.53.54,1.19,2.61,5.22,0,4.66-1.37-.29-2-2.3-2.34-3.46"/><path class="cls-15" d="M167.16,61.33c-1.71.17-8.13-3.15-5.8-4.84,1.83-1.24,5.06,2.55,6.11,3.71l.17-.15a14.21,14.21,0,0,1,2.19-2.17c1.28-1,8-5.05,9.58-3.51,2.21,2-7.13,5.22-8.64,5.75,2.47-.79,7.25-.36,8.58,2.19-1.57,2.52-7.51-.92-9.35-2,1,.88,4.47,3.75,1.82,4.29-1.37.28-2.75-1.32-3.53-2.25"/><line class="cls-16" x1="171.51" y1="43.54" x2="174.78" y2="51.78"/><path class="cls-17" d="M176.55,24.29c-.31-.57-21.77,18-21.77,18s18.69,14.36,13.85,34.5L185.71,63A72.78,72.78,0,0,0,176.55,24.29Z"/><path class="cls-15" d="M143,61h0c-.08-.21-.15-.41-.24-.62l-2.3-.5-.15-.12c-3.22-2.92-5.58-6.65-8.78-9.55-2.45-2.23-3.17-5.79-1-8.53a5.93,5.93,0,0,1,1.85-1.54,7.43,7.43,0,0,0-1.41-4.3s-3.35-7.46-7.37-10.93c-4.67-5.57-14.71-13.55-31.2-7.7C68.37,25.72,81.15,52,81.15,52l8.6,9-7.46-2.32,8.18,5A72.33,72.33,0,0,0,95,75.13c1.5,3.83,8.57,18.14,29.22,12.55,0,0,13.25,4.12,15.67-7.52,0,0,6.59-9.77,3.09-19.11Z"/><polygon class="cls-18" points="142.11 58.06 126.75 60.57 142.73 60.38 142.11 58.06"/><ellipse class="cls-19" cx="114.98" cy="46.72" rx="8.49" ry="6.79" transform="translate(-8.91 39.4) rotate(-18.73)"/><path class="cls-15" d="M138,37.42c.89,2.5-.74,5.46-3.64,6.62s-6,.05-6.86-2.45.74-5.46,3.64-6.61S137.11,34.92,138,37.42Z"/><ellipse class="cls-7" cx="132.71" cy="39.44" rx="4.59" ry="4.47" transform="translate(-5.39 49.19) rotate(-20.59)"/><path class="cls-18" d="M130.14,43.5a4.65,4.65,0,0,1-1.81-6,4.93,4.93,0,0,1,7-2.13,4.61,4.61,0,0,1,2,2.35,4.8,4.8,0,0,1-2.87,6.14A4.86,4.86,0,0,1,130.14,43.5ZM135,35.82a4.41,4.41,0,0,0-6.22,1.91,4.13,4.13,0,0,0,1.61,5.33,4.35,4.35,0,0,0,3.79.33,4.28,4.28,0,0,0,2.57-5.47A4.1,4.1,0,0,0,135,35.82Z"/><path class="cls-18" d="M104.14,47.37l-.39-.34c4.39-5,8.5-7.32,12.2-7a8,8,0,0,1,5.81,3.55l-.44.27a7.62,7.62,0,0,0-5.43-3.3C112.37,40.24,108.42,42.53,104.14,47.37Z"/><path class="cls-18" d="M92.63,69.6a7.62,7.62,0,0,0,2.22-3.47,6,6,0,0,1-1.54,5Z"/><ellipse class="cls-7" cx="115.65" cy="46.27" rx="6.42" ry="5.92" transform="translate(-8.73 39.6) rotate(-18.73)"/><path class="cls-20" d="M117.55,51.88a6.67,6.67,0,0,1-4.67-.11A5.57,5.57,0,0,1,110.81,49,6.18,6.18,0,0,1,115,41.33a6.67,6.67,0,0,1,4.67.11,5.57,5.57,0,0,1,2.08,2.77A6.18,6.18,0,0,1,117.55,51.88Z"/><path class="cls-18" d="M111.9,51.57h0a5.84,5.84,0,0,1-2.57-3.16,5.92,5.92,0,0,1,.45-4.78A7,7,0,0,1,119.4,41,5.84,5.84,0,0,1,122,44.13a6.45,6.45,0,0,1-4.34,8A6.84,6.84,0,0,1,111.9,51.57Zm7.23-10.16a6.52,6.52,0,0,0-8.9,2.47,5.41,5.41,0,0,0-.42,4.36,5.33,5.33,0,0,0,2.35,2.88h0a6.33,6.33,0,0,0,5.3.51,5.94,5.94,0,0,0,4-7.34A5.33,5.33,0,0,0,119.13,41.41Z"/><circle cx="119.34" cy="44.35" r="1.53" transform="translate(-7.97 42.76) rotate(-19.67)"/><circle cx="134.2" cy="37.81" r="1.01" transform="translate(-4.89 47.43) rotate(-19.69)"/><path class="cls-15" d="M123.93,46.28s9.87-16.57,20,11.6c.1.29-19.4,2.94-19.4,2.94"/><path class="cls-21" d="M100.55,49.89s-5.13-22.23,16.56-14.37C117.12,35.52,102.13,34.38,100.55,49.89Z"/><path class="cls-21" d="M126,33.5s6.64-12.36,14.25-.4C140.28,33.1,133.25,26.84,126,33.5Z"/><path class="cls-21" d="M91.38,63.27l6.81-2.61a28.71,28.71,0,0,1-6.11-6.76c-1.81-2.9-1.91-6.32-2.19-9.64a30.88,30.88,0,0,0-2.68-10.31c-1.4-3-4.11-7.36-7.95-4.81-5.66,3.77-1.93,14.17-.72,19.35.05.23.24,1.77.49,1.9Z"/><path class="cls-22" d="M87.59,51.68S82.48,46,76.72,51.8c-7.18,7.21,7.51,8.72,7.51,8.72s4.66.53,3.54,4.86-.93,5.82.81,6,5-1.71,4.85-4.16C92.68,56.67,87.59,51.68,87.59,51.68Z"/><path class="cls-18" d="M89.15,58.76S80.47,46.91,82,57.26C82,57.26,82.44,51.25,89.15,58.76Z"/><path class="cls-18" d="M89.21,58.79s-5.71-5.63-2.62,2.43C86.58,61.22,85.23,55.93,89.21,58.79Z"/><path class="cls-18" d="M106.66,54.31V53.8c7.41.08,11.07-1.68,12.84-3.16a5.43,5.43,0,0,0,2.07-3.24l.51,0C122.06,47.73,121.3,54.47,106.66,54.31Z"/><path class="cls-18" d="M120.43,37.68l0,0a.13.13,0,0,1,0-.18,2.14,2.14,0,0,0,.75-1.84c-.21-1.26-1.85-2.1-1.87-2.11a.12.12,0,0,1-.06-.17.13.13,0,0,1,.17-.06c.07,0,1.77.91,2,2.29a2.37,2.37,0,0,1-.82,2.06A.13.13,0,0,1,120.43,37.68Z"/><path class="cls-18" d="M124.36,36.14a3.86,3.86,0,0,1-1.84-2.42,2.37,2.37,0,0,1,1-2,.13.13,0,0,1,.17.19,2.14,2.14,0,0,0-.87,1.79c.12,1.26,1.68,2.21,1.72,2.23h0a.13.13,0,0,1-.13.22Z"/><path class="cls-23" d="M102.66,65.13s2-5,6.54-.17A4.5,4.5,0,0,0,102.66,65.13Z"/><path class="cls-23" d="M122.66,75.51a17.66,17.66,0,0,1-10.43-2,15.35,15.35,0,0,1-7.12-9.87l.63-.11A15,15,0,0,0,112.55,73c4.82,2.76,11.41,2.64,19.59-.36l.22.6A37.35,37.35,0,0,1,122.66,75.51Z"/><path class="cls-21" d="M102.31,19.78s3.17-7.49,10.43-4.79C112.74,15,105.59,15.23,102.31,19.78Z"/><path class="cls-21" d="M98.63,19.12s.74-8.1,8.48-7.74C107.11,11.38,100.37,13.78,98.63,19.12Z"/><path class="cls-21" d="M95.87,20.72S92,13.54,98.7,9.59C98.7,9.59,94.39,15.31,95.87,20.72Z"/></g></g></svg>