<svg xmlns="http://www.w3.org/2000/svg" viewBox="0 0 270 240"><defs><style>.cls-1{isolation:isolate;}.cls-2{fill:#718404;}.cls-3{fill:#3c3b3a;opacity:0.1;mix-blend-mode:multiply;}.cls-4{fill:#99ba04;}.cls-5{fill:#fff;}.cls-6,.cls-9{fill:#494c03;}.cls-7{fill:#c1272d;}.cls-8{fill:#24420e;}.cls-9{opacity:0.25;}</style></defs><title>Artboard 29 copy 12</title><g class="cls-1"><g id="Layer_1" data-name="Layer 1"><path class="cls-2" d="M123.17,121.63s.16,5.14,3.7,1.52-2.73-2.51-2.73-2.51"/><path class="cls-2" d="M122.35,119.24s-2.44-4.63-4.05,0,3.61,1.27,3.61,1.27"/><path class="cls-2" d="M123.94,121.29s7.25-1.53,1.19-4.81-2.85,3.92-2.85,3.92"/><polygon class="cls-2" points="119.4 128.2 125.05 121.48 122.06 118.47 117.25 126.88 119.4 128.2"/><path class="cls-2" d="M134.88,129.31s.64,5.11,3.83,1.22-3-2.29-3-2.29"/><path class="cls-2" d="M133.85,127s-2.85-4.43-4,.32,3.72,1,3.72,1"/><path class="cls-2" d="M135.62,128.91s7.08-2.09.74-4.89-2.48,4.13-2.48,4.13"/><polygon class="cls-2" points="131.73 136.15 136.75 129.01 133.49 126.25 129.48 135 131.73 136.15"/><path class="cls-2" d="M148.58,133.24s3.11,4.28,4-.51-3.77-.8-3.77-.8"/><path class="cls-2" d="M146.52,131.61s-4.74-2.74-3.43,2,3.79-.69,3.79-.69"/><path class="cls-2" d="M149,132.57s5.26-4.82-1.77-4.66-.15,4.71-.15,4.71"/><polygon class="cls-2" points="149.19 140.64 150.1 132.19 145.82 131.1 146.6 140.57 149.19 140.64"/><path class="cls-2" d="M162,129.9s4.9,2.5,3.31-2.15-3.75.88-3.75.88"/><path class="cls-2" d="M159.33,129.32s-5.58-.44-2.07,3.2,3-2.21,3-2.21"/><path class="cls-2" d="M162.06,129.11s2.27-6.5-3.9-3.4,2.22,4.25,2.22,4.25"/><polygon class="cls-2" points="166.22 136.23 162.81 128.33 158.46 129.16 163.88 137.25 166.22 136.23"/><path class="cls-2" d="M113.16,114s.64,5.11,3.83,1.22-3-2.29-3-2.29"/><path class="cls-2" d="M112.13,111.65s-2.85-4.43-4,.32,3.72,1,3.72,1"/><path class="cls-2" d="M113.9,113.57s7.08-2.09.74-4.89-2.48,4.13-2.48,4.13"/><polygon class="cls-2" points="110.01 120.81 115.03 113.67 111.77 110.91 107.75 119.66 110.01 120.81"/><path class="cls-2" d="M101.09,108.3s1.58,4.93,4,.6-3.34-1.79-3.34-1.79"/><path class="cls-2" d="M99.64,106.18s-3.64-3.91-3.92.95,3.84.38,3.84.38"/><path class="cls-2" d="M101.74,107.79s6.58-3.17-.18-4.93-1.67,4.46-1.67,4.46"/><polygon class="cls-2" points="99.27 115.54 102.87 107.71 99.14 105.5 96.83 114.76 99.27 115.54"/><path class="cls-2" d="M89.52,107.27s3.52,4,3.94-.85-3.83-.48-3.83-.48"/><path class="cls-2" d="M87.3,105.82s-5-2.34-3.22,2.25,3.71-1,3.71-1"/><path class="cls-2" d="M89.91,106.57s4.76-5.24-2.22-4.5.31,4.7.31,4.7"/><polygon class="cls-2" points="90.85 114.59 90.93 106.1 86.56 105.36 88.27 114.73 90.85 114.59"/><path class="cls-2" d="M79.86,111.31s4.86,1.22,2.4-2.52-3.07,1.5-3.07,1.5"/><path class="cls-2" d="M77.41,111.33s-5,.7-1.07,3.2S78.48,112,78.48,112"/><path class="cls-2" d="M79.74,110.61s.48-6.13-4.2-2.21,2.92,3.28,2.92,3.28"/><polygon class="cls-2" points="85.03 116.02 80.22 109.78 76.61 111.35 83.22 117.36 85.03 116.02"/><path class="cls-2" d="M74.14,120.27s5-.59,1.15-3.18-2.21,2.47-2.21,2.47"/><path class="cls-2" d="M71.89,121.15s-4.3,2.41.36,3.33.92-3.08.92-3.08"/><path class="cls-2" d="M73.74,119.66s-2.13-5.82-4.8-.56,4.07,2,4.07,2"/><polygon class="cls-2" points="80.89 122.78 73.83 118.73 71.16 121.46 79.79 124.66 80.89 122.78"/><path class="cls-2" d="M72,130.59s4.31-1.55.25-3.06-1.36,2.65-1.36,2.65"/><path class="cls-2" d="M70.23,131.83s-3.24,3,1.13,2.89.07-2.93.07-2.93"/><path class="cls-2" d="M71.52,130.13s-3.31-4.75-4.41.49,4.11.94,4.11.94"/><polygon class="cls-2" points="78.64 131.44 71.36 129.28 69.65 132.26 78.11 133.34 78.64 131.44"/><path class="cls-2" d="M71,140.84s3.1-1.68-.22-2.38-.69,2.19-.69,2.19"/><path class="cls-2" d="M69.77,142s-2.08,2.69,1.26,2.09-.34-2.26-.34-2.26"/><path class="cls-2" d="M70.53,140.55s-3.18-3.26-3.31.88,3.28.25,3.28.25"/><polygon class="cls-2" points="76.16 140.75 70.3 139.92 69.38 142.4 76.02 142.26 76.16 140.75"/><path class="cls-2" d="M70.36,150.07s3.1-1.68-.22-2.38-.69,2.19-.69,2.19"/><path class="cls-2" d="M69.15,151.23s-2.08,2.69,1.26,2.09-.34-2.26-.34-2.26"/><path class="cls-2" d="M69.91,149.78s-3.18-3.26-3.31.88,3.28.25,3.28.25"/><polygon class="cls-2" points="75.55 149.98 69.68 149.15 68.77 151.62 75.4 151.49 75.55 149.98"/><path class="cls-2" d="M64.9,156.61s2.65,2.23,2.41-.89-2.48,0-2.48,0"/><path class="cls-2" d="M63.34,155.89s-3.41-1-1.81,1.72,2.25-1,2.25-1"/><path class="cls-2" d="M65.07,156.13s2.47-3.75-1.88-2.65.7,3,.7,3"/><polygon class="cls-2" points="66.52 161.14 65.66 155.74 62.82 155.67 64.9 161.46 66.52 161.14"/><path class="cls-2" d="M56.63,153.11s-2.48,2.39.91,2.24,0-2.28,0-2.28"/><path class="cls-2" d="M57.45,151.7s1.21-3.11-1.83-1.7,1,2.09,1,2.09"/><path class="cls-2" d="M57.15,153.28s4,2.35,2.93-1.67-3.23.57-3.23.57"/><polygon class="cls-2" points="51.67 154.49 57.56 153.84 57.71 151.22 51.36 153 51.67 154.49"/><path class="cls-2" d="M54.31,145.77s-1.92,1.84.7,1.72,0-1.76,0-1.76"/><path class="cls-2" d="M54.94,144.67s.93-2.4-1.41-1.31.77,1.61.77,1.61"/><path class="cls-2" d="M54.71,145.9s3.1,1.81,2.26-1.29-2.49.44-2.49.44"/><polygon class="cls-2" points="50.48 146.83 55.02 146.32 55.13 144.31 50.24 145.68 50.48 146.83"/><path class="cls-2" d="M53.15,138.6s-1.18,1.14.44,1.07,0-1.09,0-1.09"/><path class="cls-2" d="M53.54,137.93s.58-1.48-.87-.81.47,1,.47,1"/><path class="cls-2" d="M53.39,138.69s1.92,1.12,1.4-.79-1.54.27-1.54.27"/><polygon class="cls-2" points="50.78 139.26 53.59 138.95 53.66 137.71 50.63 138.55 50.78 139.26"/><path class="cls-2" d="M51.18,132.95s-1.18,1.14.44,1.07,0-1.09,0-1.09"/><path class="cls-2" d="M51.57,132.27s.58-1.48-.87-.81.47,1,.47,1"/><path class="cls-2" d="M51.43,133s1.92,1.12,1.4-.79-1.54.27-1.54.27"/><polygon class="cls-2" points="48.81 133.61 51.63 133.29 51.7 132.05 48.67 132.9 48.81 133.61"/><ellipse class="cls-3" cx="137.78" cy="221.03" rx="93.13" ry="5.32"/><path class="cls-4" d="M196.37,64.08s19.05-14.23,24.38-5.6-13.21,19.59-13.21,19.59Z"/><path class="cls-5" d="M148.37,106.76s5-8,9.52-5.25-5.71,10.15-5.71,10.15Z"/><path class="cls-5" d="M156.94,115s3.26-8.74,8.32-6.76-3.59,10.94-3.59,10.94Z"/><path class="cls-5" d="M145.36,47.83s-7,8-5.07,15.34c0,0,4.15,2.93,11.93-10.16Z"/><path class="cls-5" d="M131.74,39.34S122.53,49.95,125,59.67c0,0,5.49,3.88,15.8-13.45Z"/><path class="cls-5" d="M155.7,52.89s-5.71,8.8-2.77,15.83c0,0,4.54,2.39,10.33-11.54Z"/><path class="cls-5" d="M169.2,57.78s-5.59,8.86-2.54,15.86c0,0,4.57,2.33,10.16-11.66Z"/><path class="cls-6" d="M191.29,74.11s-1,39.19-18.29,50.38c0,0,18.29,16.33,38.1-11.2S191.29,74.11,191.29,74.11Z"/><path class="cls-7" d="M211.24,110.73s-12.57-26.24-40-18.89c0,0-10.29-7.7-11.43-2.1,0,0,3.26,4.15,10.87,3.12,0,0-11.33,2.56-7.8,6.14S171,93.54,171,93.54s21.36-5.63,38.46,18.6"/><ellipse class="cls-4" cx="157.18" cy="23.1" rx="6.86" ry="9.27"/><path class="cls-4" d="M183.21,31.29c-2.33,4.65-7,7.25-10.45,5.8s-4.34-6.4-2-11.05,7-7.25,10.45-5.8S185.54,26.64,183.21,31.29Z"/><path class="cls-5" d="M183.25,127.94s-1-11.93,5-10.53,2.5,12,2.5,12Z"/><path class="cls-5" d="M167,121.85s6.65-14.1,13.5-9.62-6.19,15.2-6.19,15.2Z"/><path class="cls-4" d="M187.74,70s15.05-26.2-10.62-40.2c-35-19.09-60.43,7.31-60.43,7.31a384.49,384.49,0,0,1,35.2,15.94c18.72,9.54,37.86,20.13,52,35.23,4,4.3,7.46,9.41,7.23,15.29-.24,6.35-6.73,16.29-12.11,20.13s-12.34,4.39-18.8,3c-12-2.67-21.22-11.5-29-19.77-.33-.35-5.85-5.89-5.34-6.44L141.64,105c-1.3,1.41,22.34,19.09,23.83,20,9.32,5.59,23.65,8.36,33.52,2.85,8.68-4.85,16.06-13.76,18.57-22.81,1.78-6.42,2.15-13.6,0-20-2.87-8.66-9.91-15.51-17.54-21-.22-.16-8.18-6.26-8.39-6Z"/><path class="cls-6" d="M191.6,58.22a22,22,0,0,1-4,6.38s4.47-4,5.3-5.81Z"/><ellipse class="cls-6" cx="157.2" cy="21.53" rx="1.89" ry="4.4"/><path class="cls-6" d="M178.91,29.18c-1.14,2-2.93,3.14-4,2.61s-1-2.55.11-4.52,2.94-3.14,4-2.61S180,27.21,178.91,29.18Z"/><path class="cls-5" d="M209,67.3a15.44,15.44,0,0,1-1.94-.89,5.9,5.9,0,0,1-2.19-2l0-.11a2.6,2.6,0,0,0-1.57,1c-.95,1.3-.2,3.28,1.66,4.42s4.14,1,5.08-.28a2.19,2.19,0,0,0,.38-1.56Z"/><path class="cls-8" d="M202.6,65.82s-3.62,2.51-7.48-1.25C195.12,64.56,199.38,67.29,202.6,65.82Z"/><path class="cls-5" d="M203.37,65.39c-1.18,1.12-3.45.86-5.06-.57s-2-3.5-.77-4.62,3.45-.86,5.06.57S204.55,64.27,203.37,65.39Z"/><path class="cls-8" d="M203,65a.82.82,0,0,1-1,.58.75.75,0,0,1-.63-.89.82.82,0,0,1,1-.58A.75.75,0,0,1,203,65Z"/><path class="cls-8" d="M202.92,66s-3.94,3.69,1.29,6.5A4.76,4.76,0,0,1,202.92,66Z"/><path class="cls-8" d="M203,66.66a1.06,1.06,0,0,1,1.13-1,1,1,0,0,1,1.07,1,1.06,1.06,0,0,1-1.13,1A1,1,0,0,1,203,66.66Z"/><path class="cls-8" d="M200.93,56.95l-1.86,1s4,11.08,14.84,10.93A18.09,18.09,0,0,1,200.93,56.95Z"/><path class="cls-4" d="M219.89,61.95c10.3.34,6.74-9.74,6.74-9.74-1.34,2.58-7.19,5.26-10.09,6.45l-.32-.27c4-3,14.64-12.65-3.13-20.18,0,0,2.94,11.9.72,18.26l-.52-.37c-.69-4.46-3.32-12.29-13.16-13.23,0,0,11.93,10.83,11.29,14.32"/><path class="cls-4" d="M170.11,126.1s-18.83,18.64-42.55,0-65-47-55.21,53.65c0,0,8.94,7.44,44.39,9.8s46.93,1.32,46.93,1.32-14.7-34.94,8-63.36"/><path class="cls-4" d="M164.55,135s35.64,3.56,23.58,20.62l-1.51-.69s10.8-11.07-28.88-11.76Z"/><path class="cls-4" d="M179.62,153a5.89,5.89,0,0,1,1-.09,19.88,19.88,0,0,1,6.11,1c1.13.41,2.72,1.35,2.68,2.62a4.46,4.46,0,0,1-3.85,4.34,9.69,9.69,0,0,1-4.77-1,8,8,0,0,1-4-3,2.36,2.36,0,0,1,1.39-3.42A6.69,6.69,0,0,1,179.62,153Z"/><path class="cls-4" d="M160.95,132.83s-8.26-19.91-17.92-10.19l.72.75s5.78-8,12.74,14.68Z"/><path class="cls-4" d="M158.85,168.51s38,16.82-13.29,42.54c0,0,32.08-3.55,33.69,7.31.43,2.91-43.4.79-43.4.79s25.44-32.49-5.55-34.55Z"/><polyline class="cls-4" points="81.17 154.42 57.47 159.26 49.65 129.74 22.77 133.24 39.49 137.48 44.34 187.73 86.72 177.56"/><path class="cls-4" d="M175.08,214.32s3.19-7.49,10.27-5.17c0,0-6.75,2.06-9.1,5.69Z"/><path class="cls-4" d="M176,215.22s7.92-7,14.63-.9c0,0-8.84-.93-13.59,2.06Z"/><path class="cls-4" d="M177.27,217.56s9.51-5,14.43,2.38c0,0-8.33-2.87-13.73-1Z"/><path class="cls-9" d="M171.36,127.87a23.28,23.28,0,0,1-2.2-.95l-1.89,1.47a14.4,14.4,0,0,0,3.39.54Z"/><path class="cls-9" d="M79.19,152.35l-1.28-2.52c-.23-.46,9.16-3.79,9.8-4a39.9,39.9,0,0,1,13.22-1.22c9.07.69,17.22,5.57,22.76,12a17.26,17.26,0,0,1,4.18,8.29c1.26,7.38-1.42,12.39-7.59,17.08-1.2.91-9.85,7.66-11.6,6.82l-4.21-2,2.75-16.32L96.77,159.08Z"/><path class="cls-4" d="M87.23,171.8c39.14-1.43-5.69,26.44-5.69,26.44s44.24,15.54,43.85,4.57-32.26-10.22-32.26-10.22c56.62-13.3,24.32-38.21,24.32-38.21s-17.85-15.78-40.61-1.9"/><path class="cls-4" d="M119.74,199s7.45-7.37,14.55-1.69c0,0-8.89-.45-13.43,2.79Z"/><path class="cls-4" d="M121.9,200.52s10.14-3.8,14,4.09c0,0-7.85-3.84-13.47-2.66Z"/><path class="cls-4" d="M120.77,203.45s10.84-1.44,12.48,7.08c0,0-6.61-5.47-12.36-5.58Z"/><path class="cls-4" d="M176.64,156.26A3.26,3.26,0,0,0,176,158c0,.76.8.85,1.5,1a1.4,1.4,0,0,1,1.37,1.11c.16.62.32,1.29,1,1.55,1.21.5,2.39-.56,3.64,0a3.46,3.46,0,0,0,1.92.64,4.16,4.16,0,0,0,2.2-1.08,2.17,2.17,0,0,0,.54-2.43c-.7-1.82-3.25-2.23-5-2.61,0,0,0,0,.06,0"/><path class="cls-4" d="M143.35,120.69a3,3,0,0,1,.43.32,9.47,9.47,0,0,1,2,2.58c.28.56.52,1.51,0,2a2.82,2.82,0,0,1-3.37.36,4.59,4.59,0,0,1-1.48-2.1,3.86,3.86,0,0,1-.34-2.65,1.51,1.51,0,0,1,2-.87A3.62,3.62,0,0,1,143.35,120.69Z"/><path class="cls-4" d="M140.77,120.94a2.15,2.15,0,0,0-1,.46c-.31.32,0,.62.19.92a.69.69,0,0,1,.08.93c-.2.3-.42.63-.25,1,.27.63,1.19.63,1.47,1.28.13.34.15.7.49.94a2.39,2.39,0,0,0,1.34.35,1.41,1.41,0,0,0,1.24-.78c.49-1-.36-2-.91-2.84h0"/></g></g></svg>