<svg xmlns="http://www.w3.org/2000/svg" viewBox="0 0 270 240"><defs><style>.cls-1{isolation:isolate;}.cls-2{fill:#b8e1d8;}.cls-3{fill:#040204;opacity:0.05;mix-blend-mode:multiply;}.cls-4{fill:#184b4a;}.cls-5{fill:#fff;}.cls-6{fill:#f05a28;}.cls-7{fill:#8faca5;}.cls-8{fill:#e6e7e8;}</style></defs><title>Artboard 29 copy 9</title><g class="cls-1"><g id="Layer_1" data-name="Layer 1"><path class="cls-2" d="M223.83,138.3a2.4,2.4,0,0,0-2.72-2.29l-3.3.89c-1.43.18-1.66-.39-.52-1.27l4.46-3.77a2.42,2.42,0,0,0,.57-3.43,2.49,2.49,0,0,0-3.52-.18l-6.71,6c.94-.77,1.4-3.94,1.38-5.12a8.08,8.08,0,0,0-1.08-3.78c-.81-1.39-2.47-3.62-4.35-3-3,1-.61,5.16-.37,7,1.52,11.59-5.07,7.08-6.71,3.62a2.82,2.82,0,0,1,.61-3.36c.77-.76,2-1.12,2.44-2.13a2.82,2.82,0,0,0-.2-2.66c-1.5-2.55-4.43.78-5.47,2a18.35,18.35,0,0,0-1.2,1.59c-2.09,3.08-1.23,7.06.65,10.23l-4,1.22,2,6.48,6.55-3.21a6.62,6.62,0,0,0,4.21.47c2-.51,3.77-1.48,5.76-1.94a24.38,24.38,0,0,1,6-.64l3.09.06a2.42,2.42,0,0,0,2.48-2.56Z"/><path class="cls-2" d="M76.24,139.87l-4-1.22c1.88-3.17,2.74-7.15.65-10.23a18.33,18.33,0,0,0-1.2-1.59c-1-1.24-4-4.57-5.47-2a2.82,2.82,0,0,0-.2,2.66c.49,1,1.68,1.37,2.44,2.13A2.82,2.82,0,0,1,69,133c-1.64,3.46-8.23,8-6.71-3.62.25-1.86,2.67-6-.37-7-1.88-.64-3.55,1.59-4.35,3a8.08,8.08,0,0,0-1.08,3.78c0,1.18.44,4.35,1.38,5.12l-6.71-6a2.49,2.49,0,0,0-3.52.18,2.42,2.42,0,0,0,.57,3.43l4.46,3.77c1.14.87.9,1.45-.52,1.27l-3.3-.89a2.4,2.4,0,0,0-2.72,2.29v.23a2.42,2.42,0,0,0,2.48,2.56l3.09-.06a24.38,24.38,0,0,1,6,.64c2,.47,3.79,1.44,5.76,1.94a6.62,6.62,0,0,0,4.21-.47l6.55,3.21Z"/><ellipse class="cls-3" cx="135.54" cy="218.84" rx="65.43" ry="5.77"/><path class="cls-4" d="M182.69,158.7c-11.52-4.42-21.89.63-32.25,5.05-1.75.77-4.75,1.07-6.86,2.32l0-1.11H123.27v.14c-1.66-.52-3.41-.83-4.59-1.35-10.37-4.42-20.73-9.48-32.25-5.05-10.94,4.42-19,20.85-5.76,28.43,10.94,6.32,37.43-7.33,47.79-11.12l-.07-.78,12.3.79c10.38,3.8,36.83,17.43,47.77,11.11C201.69,179.55,193.63,163.13,182.69,158.7Z"/><path class="cls-5" d="M125.39,124.8S131.77,140,123.27,165l19.82,1.8a135.45,135.45,0,0,0-.45-43.9Z"/><path class="cls-6" d="M193.79,135.38c-41.46,19.18-42.14-26.62-42.14-26.62l-5.07,2.41a87.7,87.7,0,0,0,.25,10.82l-7-.48-.35,58.32L148,180l3.48-40.38c13.3,25.22,48.57,9.56,48.57,9.56Z"/><path class="cls-6" d="M123.42,111.17l-5.07-2.41s-.69,45.8-42.14,26.62l-6.28,13.75s33.63,14.93,47.59-7.86l4.92,37.26,7.57-.23,1.81-52.84-9-.43A82,82,0,0,0,123.42,111.17Z"/><path class="cls-4" d="M107.92,49.79s-9.7,14,4.15,26.21h0l.21-26.07-4.36-.14"/><path class="cls-2" d="M112.07,76s-2.69-7.16-10.34-4.65c-9.53,3.14,3.82,10.86,3.82,10.86s4.22,2.49,1.51,5.78-3.09,4.66-1.52,5.6,5.41.71,6.17-1.5C115,82.55,112.07,76,112.07,76Z"/><path class="cls-2" d="M110.51,94.77a176.35,176.35,0,0,1-4.13,24c54,39.21,57.56-24.06,57.56-24.06l5-47.92c-44.34-33.29-61,3-61,3a106.64,106.64,0,0,1,3.27,20.94"/><path class="cls-4" d="M157.63,67.71S149,57.46,138.27,69.59l1.37,3.59s9.95-8.27,17-.06Z"/><path class="cls-4" d="M114.14,71.1s6.44-11.05,14.72-1.92l-1,3.55S120.2,67,115,75.89Z"/><path class="cls-7" d="M162.49,103.88a6.69,6.69,0,0,1-4.18-4.26s.35,4.86,3.65,6.64Z"/><path class="cls-4" d="M163.41,78.59S176.51,36,152.75,44.75C80.53,71.22,79,11.44,79,11.44c14.58,22.46,26.21,15.17,62,12,46.5-4.11,28.66,52.19,28.66,52.19Z"/><path class="cls-2" d="M162.43,76.87s5.4-10.07,16.23-4.84c13.49,6.53-7.8,15.32-7.8,15.32s-6.73,2.86-3.38,8.25,3.66,7.5,1.14,8.6-8.14,0-8.83-3.44C156.79,86,162.43,76.87,162.43,76.87Z"/><path class="cls-7" d="M162.81,86.74s9.84-19.45,10.49-4.57C173.3,82.17,170.88,74,162.81,86.74Z"/><path class="cls-7" d="M162.74,86.8s7.1-9.78,4.68,2.47C167.42,89.27,168,81.45,162.74,86.8Z"/><path class="cls-4" d="M165.78,38.33S171,11.9,194,29.09C194,29.09,175.82,23.9,165.78,38.33Z"/><path class="cls-4" d="M165.44,35.83S188,21.09,191.81,49.58C191.81,49.58,182.79,32.92,165.44,35.83Z"/><polygon class="cls-4" points="131.94 118.89 128.09 118.5 127.05 123.57 130.12 123.65 131.94 118.89"/><path class="cls-4" d="M158.68,115.36s-25.73,16.9-51.76-1.62l-1.06,6.86S145.45,152.46,158.68,115.36Z"/><path class="cls-4" d="M123,85l-.5,0c-4-.45-6.16-6.1-6.25-6.34l1-.36c0,.05,2,5.31,5.42,5.68,2.13.24,4.42-1.49,6.81-5.13l.85.56C127.83,83.12,125.38,85,123,85Z"/><path class="cls-4" d="M147.36,85.08a7.6,7.6,0,0,1-1-.06c-5-.65-7.77-6.07-7.88-6.3l1.05-.52c0,.05,2.59,5.1,7,5.66,3,.38,6.15-1.35,9.44-5.13l.88.77c-3.23,3.71-6.43,5.58-9.51,5.58Z"/><path class="cls-4" d="M125.4,114.39l-.29-1c.77-.23,19-5.58,29.89-.63l-.41.91c-10.54-4.79-29,.62-29.19.68Z"/><path class="cls-4" d="M124,184.41s1.26,9.11-7.8,16.75l1.32,2.07s12.39-8.88,11.18-17.38L132,190.3l3.52-3.68L127.86,180Z"/><path class="cls-4" d="M148.31,185.35s-1.26,9.11,7.8,16.75l-1.32,2.07s-12.39-8.88-11.18-17.38l-3.34,4.45-3.52-3.68,7.68-6.65Z"/><polygon class="cls-8" points="130.43 165.71 132.81 165.89 133.85 133.17 131.5 132.88 130.43 165.71"/></g></g></svg>