<svg xmlns="http://www.w3.org/2000/svg" viewBox="0 0 202.105 234.947"><defs><style>.cls-3{fill:#1c75bc}.cls-13{opacity:.2}.cls-6{fill:#fff}.cls-34,.cls-8{fill:#231f20}.cls-8{opacity:.1}.cls-10{fill:#f1684e}.cls-11{fill:#faf3cf}.cls-12{fill:#5b1817}.cls-13{fill:#f15a29}.cls-14{fill:#fddcd3}.cls-17{fill:#e73e32}.cls-19{fill:#bcd6d2}.cls-20{fill:#3390ce}.cls-21{fill:#414042}.cls-24{fill:#e8b8af}.cls-25{fill:#b22a26}.cls-26{fill:#f1e7e7}.cls-29{fill:#a94d4d}.cls-31{fill:#2c2c2d}.cls-32{fill:#402017}.cls-33{fill:#27aae1}</style></defs><g style="isolation:isolate"><g id="Layer_1" data-name="Layer 1"><circle cx="109.197" cy="121.329" r="79.786" fill="#7ccaad"/><path class="cls-3" d="M133.717 113.553c24.49-6.001 35.662-23.5 36.125-24.242L167.3 87.72c-.107.171-11.038 17.22-34.295 22.919zM72.958 136.1a20.915 20.915 0 008.586-1.786c11.737-5.216 15.457-19.869 15.61-20.49l-2.913-.717c-.034.138-3.54 13.866-13.93 18.472-6.11 2.709-13.494 1.78-21.94-2.765l-1.423 2.643c5.75 3.093 11.106 4.643 16.01 4.643z"/><path fill="#0b2e40" d="M111.943 167.297l-2.142 48.636-15.609.557.22-1.894 2.674-50.114.19-4.501h27.709l.077 3.501 2.901 51.114.083.687-15.068.537-1.035-48.523z"/><ellipse cx="107.287" cy="227.044" rx="59.291" ry="4.886" opacity=".2" fill="#929497"/><path class="cls-6" d="M98.437 121.444l.68 17.52.24 6.29.57 14.73 25.5-.14-1-15.15-.34-5.08-1.32-20.04-24.33 1.87z"/><path fill="#ddf0e9" d="M99.117 138.964l.24 6.29 3.75 6.94 4.31-8 4.32 8 4.32-8 4.32 8 4.05-7.5-.34-5.08-3.68 6.82-4.31-8-4.32 8-4.31-8-4.32 8-4.03-7.47z"/><path class="cls-8" d="M104.011 124.773l.183 34.875-3.174-.029.428-34.846h2.563zM121.782 159.732l-2.837.468.042-33.179 3.17-.951-.375 33.662z"/><path class="cls-3" d="M120.627 119.754l1.07 47.02 14.1-.43c-.01-.29-.01-.59-.03-.9-.01-.72-.04-1.48-.07-2.27-.15-3.99-.44-8.88-.79-13.96l-.15-2.23c-.22-3.12-.46-6.27-.69-9.29-.04-.44-.07-.88-.1-1.31-.08-.86-.14-1.7-.21-2.53-.04-.44-.07-.87-.11-1.3-.07-.87-.14-1.72-.2-2.54-.04-.44-.08-.87-.11-1.29-.56-6.58-.98-11.21-.98-11.21zM88.367 169.404l13.61-.49.87-48.01-11.74-2.09s-.33 4.66-.76 11.31c-.03.43-.05.88-.08 1.33-.06.83-.11 1.69-.17 2.57-.03.43-.05.87-.08 1.32-.05.84-.11 1.7-.16 2.58-.03.44-.06.88-.08 1.33-.17 2.75-.34 5.62-.5 8.47-.04.78-.09 1.55-.13 2.32-.23 4.35-.44 8.6-.59 12.34-.03.8-.05 1.58-.08 2.33-.05 1.73-.09 3.31-.11 4.69z"/><path d="M117.454 169.159a16.354 16.354 0 00-10.934-.004l-.228-.552a16.655 16.655 0 0111.373-.003z" fill="#15536c"/><path class="cls-10" d="M112.239 213.348v10.372a42.5 42.5 0 0016.72 4.54 58.67 58.67 0 0016.687-1.132v-2.499a15.136 15.136 0 00-5.858-4.554 29.703 29.703 0 00-9.821-2.491v-4.274a1.014 1.014 0 00-1.16-1 54.28 54.28 0 01-13.742.265 39.354 39.354 0 01-1.654-.228 1.011 1.011 0 00-1.172 1.001z"/><path class="cls-11" d="M112.239 220.271v3.45c14.999 7.954 33.407 3.408 33.407 3.408v-2.499a15.136 15.136 0 00-5.858-4.553c-2.876-.46-7.192-.005-10.844 5.13 0 0-11.715-1.218-16.705-4.936z"/><path class="cls-12" d="M135.407 225.525a75.85 75.85 0 0010.276-.66l-.073-.47c-.206.033-20.785 3.106-33.25-4.328l-.243.408c6.894 4.111 16.218 5.05 23.29 5.05zM128.437 222.159c3.402-4.67 9.319-3.163 9.378-3.148l.122-.458c-.062-.017-6.292-1.603-9.884 3.327zM124.681 220.978c3.402-4.67 9.319-3.164 9.378-3.148l.122-.458c-.062-.017-6.293-1.603-9.884 3.326z"/><circle class="cls-6" cx="116.759" cy="216.662" r="2.428"/><path class="cls-12" d="M134.031 225.305h.178v2.481h-.178zM121.013 224.181h.178v2.365h-.178zM118.69 223.3h.178v2.063h-.178zM128.592 213.927s-4.42 1.69-8.487.307a7.666 7.666 0 008.487-.307z"/><path class="cls-13" d="M112.239 213.348v10.372a42.5 42.5 0 0016.72 4.54 30.04 30.04 0 00-14.359-9.17l.465-6.515a39.354 39.354 0 01-1.654-.228 1.011 1.011 0 00-1.172 1.001z"/><path class="cls-10" d="M110.819 213.348v10.372a42.5 42.5 0 01-16.72 4.54 58.67 58.67 0 01-16.688-1.132v-2.499a15.136 15.136 0 015.859-4.554 29.703 29.703 0 019.82-2.491v-4.274a1.014 1.014 0 011.161-1 54.28 54.28 0 0013.741.265 39.354 39.354 0 001.654-.228 1.011 1.011 0 011.173 1.001z"/><path class="cls-11" d="M110.819 220.271v3.45c-15 7.954-33.408 3.408-33.408 3.408v-2.499a15.136 15.136 0 015.859-4.553c2.876-.46 7.192-.005 10.844 5.13 0 0 11.714-1.218 16.705-4.936z"/><path class="cls-12" d="M87.65 225.525a75.85 75.85 0 01-10.275-.66l.072-.47c.207.033 20.786 3.106 33.25-4.328l.243.408c-6.893 4.111-16.218 5.05-23.29 5.05zM94.62 222.159c-3.402-4.67-9.319-3.163-9.378-3.148l-.122-.458c.063-.017 6.293-1.603 9.884 3.327zM98.377 220.978c-3.403-4.67-9.32-3.164-9.379-3.148l-.121-.458c.062-.017 6.292-1.603 9.883 3.326z"/><circle class="cls-6" cx="106.299" cy="216.662" r="2.428"/><path class="cls-12" d="M88.848 225.305h.178v2.481h-.178zM101.866 224.181h.178v2.365h-.178zM104.189 223.3h.178v2.063h-.178zM94.465 213.927s4.42 1.69 8.488.307a7.666 7.666 0 01-8.488-.307z"/><path class="cls-13" d="M110.819 213.348v10.372a42.5 42.5 0 01-16.72 4.54 30.04 30.04 0 0114.359-9.17l-.466-6.515a39.354 39.354 0 001.654-.228 1.011 1.011 0 011.173 1.001z"/><path class="cls-14" d="M58.506 130.544c1.987-.98 6.762-8.946 3.08-9.214-2.834-.112-3.814 6.21-4.176 8.193l-.28-.05c-3.977-.734-7.1-1.166-11.116-.47-1.025.177-7.576 1.29-5.355 3.43.788.758 2.268.69 3.263.684a29.662 29.662 0 003.852-.33c2.011-.28 4.003-.679 5.984-1.125a11.404 11.404 0 00-6.673 4.544c-.54.788-1.864 2.693-1.163 3.66s2.423-.041 3.095-.535a12.532 12.532 0 002.339-2.52 40.202 40.202 0 003.386-5.435c-.47 1.61-2.349 7.122.904 5.906 1.688-.626 2.117-3.306 2.34-4.843z"/><path fill="#8f9293" d="M65.653 129.015l-.207 1.995-49.563-3.776L1.927 99.355l33.566-1.599 11.161 29.141 18.999 2.118z"/><path class="cls-6" d="M65.596 129.402l-19.258-2.147-11.143-29.094-33.251 1.584-.034-.78 33.882-1.614 11.179 29.187 18.738 2.089-.113.775z"/><path fill="#211e1f" opacity=".5" d="M15.581 126.629l49.925 3.804-.06.577-49.521-3.773-.344-.608z"/><ellipse class="cls-6" cx="23.896" cy="114.003" rx="2.293" ry="3.978" transform="rotate(-19.7 23.896 114.003)"/><path class="cls-17" transform="rotate(-167.292 178.212 67.523)" d="M164.258 49.364h27.907v36.319h-27.907z"/><path transform="rotate(-167.292 175.156 81.075)" fill="#b32e2b" d="M161.202 76.807h27.907v8.535h-27.907z"/><circle class="cls-6" cx="179.26" cy="62.876" r="11.546"/><path class="cls-19" transform="rotate(-77.422 181.887 69.813)" d="M180.899 69.672h1.976v.282h-1.976z"/><path class="cls-19" d="M181.845 67.529l-.754 1.925.945-.312.724.684.098-1.123-.62-.465.634.3.172-1.974-.282-.674.298.481.218-2.501-1.359 3.469.539-.087-.613.277z"/><path class="cls-19" transform="rotate(-77.422 184.213 69.022)" d="M183.719 68.951h.988v.141h-.988z"/><path class="cls-19" d="M184.192 67.879l-.377.963.473-.156.361.342.049-.562-.31-.232.317.15.086-.987-.141-.337.149.241.109-1.251-.679 1.734.269-.043-.306.138z"/><path class="cls-6" d="M173.992 67.931l-1.93-4.858.648-3.793 3.264-2.788 1.458-4.573 1.514 2.369 2.989 4.683 3.839-.354 3.229.455.717 1.151-2.925 2.664-.898 1.654-2.911 5.166-5.14.372-3.854-2.148z"/><path class="cls-17" d="M170.31 59.996c-2.005 1.713-.789 3.18-.763 3.21a3.442 3.442 0 01.256-.76 7.431 7.431 0 00.585 3.856 11.32 11.32 0 01.292-1.37 4.752 4.752 0 00.74 2.79 5.427 5.427 0 01.144-1.357 4.951 4.951 0 00.866 2.329c.02.029.04.058.063.086a2.585 2.585 0 00.333.362c.057.05.113.1.17.147l-.015.003.065.043c.062.04.123.082.183.126a4.684 4.684 0 01.56.48 15.79 15.79 0 00-.548-.538l-.017-.016.018.014a3.844 3.844 0 00.647.402l.154.078c.088.045.17.09.248.134a3.47 3.47 0 00.637.297 1.79 1.79 0 00.27.062l.03.005q.374.052.745.108a56.403 56.403 0 011.958.332l.497.095c.174.034.338.062.497.085a20.553 20.553 0 002.546.129l.667.12c.47-.144.94-.269 1.427-.37.08-.015.159-.023.238-.034a11.986 11.986 0 00.948-1.05 2.064 2.064 0 01-.476 1.018 3.402 3.402 0 01.573.057l.018-.013a1.234 1.234 0 01.234-.129l-.077.009a6.886 6.886 0 001.151-2.072l.018-.05a.566.566 0 01.018.064.418.418 0 01.012.061 4.074 4.074 0 01-.434 1.672c1.98-1.466.929-5.175.904-5.261a8.379 8.379 0 01.808 2.388 7.069 7.069 0 00-.944-3.792c.395-.28.749-.548 1.067-.802 2.404-1.918 2.73-3.046 2.73-3.046-2.117-1.982-5.532-1.626-5.91-1.579l-.035.004-.022-.052a4.522 4.522 0 00-2.346-2.427 2.761 2.761 0 00-.352-.13 3.18 3.18 0 01.965 1.277 14.529 14.529 0 00-2.402-1.598 3.159 3.159 0 00-.263-1.118 4.654 4.654 0 00-2.555-2.354h-.002q-.218-.098-.46-.189a7.558 7.558 0 00-1.328 3.433c-1.09.048-1.315.367-1.315.367l1.027.16-.026.038-1.337 1.93a4.11 4.11 0 00-2.377.385 2.656 2.656 0 01.957.301 4.438 4.438 0 00-3.124 1.799 1.12 1.12 0 01.862-.15zm15.164-.424s.065-.012.177-.027c.583-.08 2.458-.256 3.402.648a7.992 7.992 0 01-1.875 1.702 3.031 3.031 0 01-.704.315 8.024 8.024 0 00-1-2.638zm-4.909-1.208c1.163.707.873 3.312.02 4.717a2.586 2.586 0 01-3.606.966 2.407 2.407 0 01-.606-3.52c.852-1.406 3.03-2.87 4.192-2.163zm-3.179-5.502c1.584.815 2.031 2.465 1.742 2.45a9.056 9.056 0 00-1.795.276c-.476.106-.848.203-.848.203a1.173 1.173 0 01-.05-.185 1.7 1.7 0 01-.008-.534 4.129 4.129 0 01.382-1.202v-.002a7.524 7.524 0 01.577-1.006z"/><path class="cls-17" d="M184.243 67.906c-.076-.02-4.283 1.735-4.283 1.735l-7.47-.861c2.643 3.527 8.36 2.898 8.36 2.898a4.75 4.75 0 01-2.242.699c3.958.799 5.594-1.455 5.594-1.455a10.2 10.2 0 01-1.296 1.727c2.102-.759 3.336-3.958 3.336-3.958s-1.922-.765-1.999-.785z"/><path class="cls-6" d="M179.192 68.372a7.334 7.334 0 004.556-3.228l.005-.007a.09.09 0 00-.158-.085 7.141 7.141 0 01-4.429 3.143c-1.78.273-3.636-.436-5.518-2.106a.09.09 0 00-.117.134 7.273 7.273 0 005.199 2.2q.233-.015.462-.051z"/><path class="cls-6" d="M184.459 66.12c.128-2.42-1.563-1.663-1.563-1.663 2.068-1.227 1.683 1.29 1.683 1.29zM173.133 61.242a4.808 4.808 0 00.106 1.602s2.585.271 1.76-.555c-.822-.829-1.749-1.727-1.866-1.047z"/><path class="cls-17" d="M177.777 63.299a.104.104 0 00.12-.064c.454-1.167.512-1.853.178-2.096-.55-.4-1.904.677-2.057.8a.104.104 0 00.132.162c.528-.43 1.485-1.025 1.803-.794.137.1.287.473-.25 1.853a.104.104 0 00.06.134z"/><path class="cls-6" d="M174.752 60.88a.1.1 0 00.115-.063c.45-1.207.506-1.874.178-2.099-.517-.354-1.754.722-1.894.846a.1.1 0 10.133.149c.481-.428 1.355-1.031 1.648-.83.132.09.275.452-.252 1.865a.1.1 0 00.059.128z"/><path class="cls-6" transform="rotate(-77.29 189.242 79.877)" d="M188.924 79.4h.635v.953h-.635z"/><path class="cls-6" d="M184.805 79.201l.14-.619 1.95.44-.139.62zm-3.903-.88l.14-.619 1.951.44-.14.62zm-3.902-.88l.14-.619 1.95.44-.139.62zm-3.902-.88l.14-.619 1.95.44-.14.62zm-3.903-.88l.14-.619 1.951.44-.14.62zm-3.902-.88l.14-.619 1.95.44-.139.62z"/><path class="cls-6" transform="rotate(-77.29 162.947 73.947)" d="M162.63 73.471h.635v.952h-.635z"/><path class="cls-14" d="M168.57 88.516c-1.998-.958-6.864-8.868-3.185-9.178 2.832-.145 3.884 6.165 4.27 8.144l.28-.054c3.967-.779 7.085-1.247 11.11-.597 1.025.165 7.589 1.203 5.393 3.368-.78.766-2.26.716-3.255.721a29.663 29.663 0 01-3.855-.285c-2.015-.258-4.011-.633-5.997-1.056a11.404 11.404 0 016.725 4.466c.548.782 1.895 2.672 1.205 3.647s-2.424-.014-3.1-.5a12.532 12.532 0 01-2.369-2.492 40.201 40.201 0 01-3.448-5.396c.488 1.605 2.43 7.094-.836 5.916-1.695-.607-2.155-3.281-2.396-4.815z"/><path class="cls-20" d="M127.197 156.354c.04 3.36 2.92 6.42 8.57 9.09-.01-.72-.04-1.48-.07-2.27-4.23-2.16-6.47-4.52-6.5-6.84-.03-2.94 3.39-5.69 5.71-7.12l-.15-2.23c-1.9 1.06-7.61 4.63-7.56 9.37zM88.477 164.714c4.7-2.49 7.09-5.3 7.13-8.36.05-3.95-3.91-7.09-6.33-8.63-.04.78-.09 1.55-.13 2.32 2.13 1.53 4.49 3.84 4.46 6.29-.02 2.04-1.76 4.11-5.05 6.05-.03.8-.05 1.58-.08 2.33zM126.087 135.964l.71.71 6.65-6.66c-.04-.44-.08-.87-.11-1.29zM126.087 140.114l.71.7 6.96-6.96c-.04-.44-.07-.87-.11-1.3zM126.087 144.254l.71.71 7.27-7.27c-.04-.44-.07-.88-.1-1.31zM90.267 131.454l5.57 5.57.71-.71-6.2-6.19c-.03.43-.05.88-.08 1.33zM90.017 135.344l5.82 5.83.71-.71-6.45-6.44c-.03.43-.05.87-.08 1.32zM89.777 139.254l6.06 6.06.71-.7-6.69-6.69c-.03.44-.06.88-.08 1.33z"/><path class="cls-21" d="M69.712 103.061c-4.993 2.458-11.573 2.204-17.318-.668-4.272-2.136-8.253-6.015-9.244-10.524s2.094-9.139 6.581-8.507a6.064 6.064 0 014.103 2.454c.937 1.38.997 3.283-.076 4.187-.965.813-2.522.675-3.898.232-5.084-1.64-9.171-7.335-8.861-12.35a8.6 8.6 0 0110.107-7.796c1.273.202 2.831.936 3.076 2.215.295 1.541-1.546 2.193-3.064 2.134-5.682-.22-11.775-4.268-14.422-9.78S35.198 52.58 39.509 49.61s11.42-1.88 15.798 2.58a4.725 4.725 0 011.576 2.83c.074 1.743-2.015 2.578-3.73 1.913a8.77 8.77 0 01-3.957-3.919c-3.935-6.647-4.153-15.013.021-20.037s12.727-5.92 19.112-1.524c2.104 1.45 4.073 4.454 2.596 6.015-.96 1.017-2.935.597-4.172-.534a8.766 8.766 0 01-2.292-4.282c-1.778-6.555-.421-13.34 3.555-17.77a12.67 12.67 0 0113.99-3.595 17.828 17.828 0 017.906 6.783 13.965 13.965 0 012.667 7.36c.017 2.344-1.171 4.907-3.493 5.601-2.663.796-3.561-2.008-3.253-3.982 1.486-9.499 10.502-15.829 20.448-14.952 5.823.514 12.199 3.602 15.536 8.953a12.255 12.255 0 011.53 9.664 7.318 7.318 0 01-3.611 4.663c-2.295 1.029-4.79-.002-4.256-2.885 1.372-7.397 10.058-11.337 17.655-8.009 7.597 3.328 12.457 13.2 9.88 20.069a6.426 6.426 0 01-2.436 3.216c-2.307 1.446-4.482.285-2.851-2.344 1.468-2.367 4.899-3.38 7.914-2.535 4.159 1.164 7.614 4.995 9.402 9.053 1.618 3.671 2.096 7.75.855 11.058-.86 2.29-3.377 5.399-6.078 5.784-4.372.624-2.368-5.958 1.393-5.604 2.872.27 5.46 2.855 6.936 5.57a16.336 16.336 0 01.604 14.717 16.334 16.334 0 01-10.814 8.359 14.248 14.248 0 01-9.98-.749c-3.258-1.624-5.964-5.265-5.632-8.573"/><path class="cls-14" d="M67.588 64.772h-.018l1.002 6.646c-10.741 13.059.473 33.734.473 33.734 13.54 27.923 40.826 23.775 40.826 23.775 7.285 4.082 10.377-2.549 10.377-2.549 17.985-7.233 17.9-6.134 21.584-10.048 8.56-9.08-2.167-16.967-2.669-17.002a.024.024 0 00-.01-.002c.855-13.002-1.186-21.49-4.143-27.026a21.449 21.449 0 00-6.287-7.422c-2.319-1.68-2.815-11.068-5.746-10.938"/><path class="cls-14" d="M134.5 71.773s3.959-11.19-4.066-15.127l-.187 2.121-1.858 4.433-.84 2.103v2.21l5.455 3.65z"/><ellipse cx="95.727" cy="108.593" rx="8.125" ry="3.991" transform="rotate(-25.423 95.727 108.593)" style="isolation:isolate" fill="#f69ca3" opacity=".2"/><path d="M141.832 116.33c8.56-9.08-2.167-16.967-2.669-17.002.438.074 8.883 7.497 2.67 17.002z" fill="#fcdce0"/><path class="cls-24" d="M75.589 99.15l-1.641.321a36.6 36.6 0 01-3.066 9.136 40.018 40.018 0 0038.989 20.32S82.929 126.28 75.589 99.15z"/><path class="cls-25" d="M64.527 103.825l30.511-14.169 2.116 5.744-30.213 12.12-2.414-3.695z"/><path class="cls-21" d="M65.594 48.266s57.954 7.788 73.385-15.375l-17.066 4.236-17.337 1.16-31.154 3.916zM66.36 104.968s9.604-7.508 2.634-16.695c0 0 12.788-8.841-1.424-23.5l-9.127 6.996-3.667 12.684 6.818 15.227z"/><ellipse class="cls-25" cx="106.292" cy="89.656" rx="11.542" ry="15.143" transform="rotate(-17.582 106.292 89.656)"/><path class="cls-26" d="M96.431 92.396c.034.114.074.235.108.349 2.242 7.068 8.424 11.411 13.808 9.706 4.746-1.503 7.29-7.202 6.29-13.371a17.307 17.307 0 00-.598-2.517c-1.443-4.572-4.544-8.009-8.015-9.398a8.514 8.514 0 00-5.786-.302 7.964 7.964 0 00-.705.255c-4.813 2.047-7.055 8.646-5.102 15.278z"/><path class="cls-14" d="M67.57 64.773c21.345-42.478 61.573-13.343 61.573-13.343s7.186 7.295-.98 14.764l-54.234-.537z"/><path class="cls-21" d="M140.12 48.919c-.213 2.828-5.991 3.96-5.038 6.987 1.512 4.798-4.954 1.05-5.823-.72.144.293.956.29 1.16 1.01a2.822 2.822 0 01-.556 2.138 6.9 6.9 0 01-4.122 3.035 9.662 9.662 0 01-6.775-.922c-2.658-1.356-4.927-4.051-4.658-7.022-.03.338 1.171 1.784 1.273 2.4a5.239 5.239 0 01-.476 2.92 6.97 6.97 0 01-3.625 3.868c-3.27 1.442-7.283.512-10.478-.683a15.043 15.043 0 01-4.513-2.392 6.169 6.169 0 01-2.348-4.394 3.053 3.053 0 01.69-2.147 1.814 1.814 0 012.095-.472 2.547 2.547 0 01.826.796c2.286 3.12 2.84 8.516-.342 11.237-1.82 1.556-4.411 1.83-6.798 1.654a22.55 22.55 0 01-12.159-4.664c-1.222-.955-2.445-2.533-1.729-3.91a2.203 2.203 0 012.738-.863 3.29 3.29 0 011.828 2.414 5.26 5.26 0 01-1.173 4.282c-1.672 2.058-4.606 3.036-7.138 3.44a13.67 13.67 0 01-4.275.093 12.859 12.859 0 01-3.845-1.349c-2.457-1.266-4.817-3.537-4.057-6.053l20.362-20.28 17.663-1.955s20.915.44 22.938-.037 19.746 1.727 19.746 1.727z"/><path class="cls-21" d="M139.975 48.919c-.14 1.394-1.55 2.302-2.574 3.063a6.293 6.293 0 00-2.436 2.53 2.459 2.459 0 00.023 1.578c.139.492.352 1.252.007 1.713-.603.804-2.196-.02-2.832-.358a6.514 6.514 0 01-2.78-2.333l-.249.146a1.2 1.2 0 00.505.346 1.144 1.144 0 01.664 1.368 5.375 5.375 0 01-1.779 2.746 7.6 7.6 0 01-6.198 1.673c-3.827-.568-8.187-3.679-7.873-7.966h-.289c.036.641.728 1.315 1.03 1.855.67 1.2.118 2.755-.442 3.898a7.239 7.239 0 01-6.25 3.997 18.433 18.433 0 01-7.762-1.498c-2.552-.976-5.347-2.424-6.23-5.225-.41-1.302-.357-3.42 1.26-3.876 1.405-.395 2.235 1.247 2.735 2.3a9.643 9.643 0 01.746 6.344c-1.426 5.7-8.293 5.35-12.797 4.14a22.341 22.341 0 01-7.419-3.55c-1.077-.792-2.626-2.088-2.354-3.61a2.017 2.017 0 013.114-1.086 3.711 3.711 0 011.362 3.81 5.848 5.848 0 01-2.029 3.347 13.197 13.197 0 01-7.1 2.624 12.257 12.257 0 01-8.276-2.06 7.278 7.278 0 01-2.572-2.716 3.037 3.037 0 01-.247-2.443 5.979 5.979 0 01.92-.917l2.02-2.011L76.299 44.37l4.348-4.331c.157-.156.332-.306.476-.474.076-.089.231-.162.052-.101a8.516 8.516 0 011.686-.187l15.42-1.707a23.087 23.087 0 012.95-.014q4.316.076 8.633.117c2.987.026 5.977.05 8.964-.018 1.473-.034 2.946-.278 4.414-.244 2.86.066 5.722.392 8.565.685q4.154.43 8.3.933l1.404.171-.14-.182-1.39 9.861c-.026.182.252.26.277.077l1.392-9.862a.148.148 0 00-.14-.182c-5.35-.665-10.72-1.311-16.101-1.68a22.903 22.903 0 00-3.263-.097c-.628.047-1.243.155-1.876.185-2.963.136-5.938.095-8.903.076q-4.851-.03-9.702-.12a27.145 27.145 0 00-3.455.014l-16.273 1.8a1.985 1.985 0 00-.935.19 10.596 10.596 0 00-1.188 1.182l-5.58 5.559-12.461 12.41a8.416 8.416 0 00-1.048 1.044 2.705 2.705 0 00-.124 1.87 5.548 5.548 0 001.748 2.752c4.04 3.752 10.31 3.99 15.103 1.6 2.142-1.068 4.018-2.997 4.07-5.523.042-2.006-1.616-4.44-3.87-3.527a2.018 2.018 0 00-1.252 2.226 4.86 4.86 0 001.951 2.776 22.08 22.08 0 007.411 3.814c4.317 1.291 11.147 2.043 13.37-3.005a9.115 9.115 0 00.215-6.173c-.455-1.55-1.687-4.754-3.823-3.93-2.425.937-1.515 4.39-.38 5.953 1.575 2.166 4.216 3.228 6.667 4.063a15.644 15.644 0 007.95.927 7.305 7.305 0 005.396-4.31 5.006 5.006 0 00.513-3.381 5.194 5.194 0 00-.61-1.097c-.181-.284-.588-.732-.607-1.086a.144.144 0 00-.289 0c-.253 3.464 2.563 6.286 5.558 7.53 3.348 1.39 7.562 1.084 9.885-1.986a3.789 3.789 0 00.998-2.588 1.2 1.2 0 00-.427-.79c-.22-.18-.634-.246-.795-.479a.144.144 0 00-.249.146 6.374 6.374 0 002.493 2.218c.823.485 2.045 1.154 3.04.87 1.162-.33.725-1.77.521-2.592-.391-1.586 1.212-2.67 2.307-3.484 1.14-.848 2.613-1.806 2.769-3.351.018-.185-.27-.183-.289 0z"/><ellipse class="cls-25" cx="131.678" cy="84.268" rx="10.91" ry="14.559" transform="rotate(-21.276 131.678 84.268)"/><path class="cls-26" d="M122.216 86.362c.007.013.006.027.013.04 2.003 6.794 7.864 11.354 13.08 10.175 4.84-1.092 7.429-6.719 6.19-12.943a15.692 15.692 0 00-.366-1.5 15.27 15.27 0 00-7.19-9.27 8.65 8.65 0 00-5.898-.905 7.1 7.1 0 00-2.033.797c-3.818 2.194-5.502 7.775-3.796 13.606z"/><path d="M123.653 101.797l-5.92-16.403-.267.085 4.651 18.264c.15.585 4.912.852 5.423.885 2.43.16 5.978.149 7.458-2.193 1.756-2.778-.146-6.915-3.51-7.085a5.737 5.737 0 00-3.757 1.462 13.8 13.8 0 00-2.06 2.09c-.319.39-2.178 2.454-2.018 2.895z" style="mix-blend-mode:multiply" opacity=".1" fill="#231f20"/><path d="M124.131 100.67l-5.92-16.403-.266.085 4.65 18.264c.15.585 4.912.852 5.424.886 2.43.16 5.978.148 7.458-2.193 1.755-2.779-.146-6.915-3.511-7.086a5.737 5.737 0 00-3.756 1.463 13.8 13.8 0 00-2.06 2.09c-.32.389-2.178 2.453-2.019 2.895z" fill="#de6c6c"/><path class="cls-6" d="M135.532 96.14a6.139 6.139 0 00-1.718-2.946c-3.555-2.796-9.283 5.947-9.46 6.219l-.01.016-5.761-15.28-.33.105 5.916 16.407c4.344-7.166 8.47-7.968 11.428-4.325-.02-.07-.043-.13-.065-.197z"/><path class="cls-14" d="M120.248 126.378s34.447-5.277 21.095-25.052l-12.865 9.753-3.716 3.962z"/><path class="cls-24" d="M72.1 105.99s-17.515-12.7-15.478 5.03 17.227 2.087 17.227 2.087z"/><path class="cls-29" d="M69.415 109.965s-7.231-7.738-9.263 1.986c0 0 2.224-6.072 9.263-1.986z"/><path class="cls-29" d="M69.415 109.965s-5.658-.648-6.018 4.877c0 0-2.316-6.936 6.018-4.877z"/><path d="M69.558 102.798c-7.967 3.858-18.758.686-23.925-6.355-2.27-3.094-3.476-7.512-.84-10.787a5.311 5.311 0 014.596-2.027c2.099.179 4.34 1.599 4.785 3.766a2.302 2.302 0 01-.996 2.625 4.42 4.42 0 01-3.236-.08 12.174 12.174 0 01-4.923-3.162c-2.604-2.673-4.472-6.716-3.452-10.48a8.378 8.378 0 018.137-6.019 6.316 6.316 0 012.81.572c.775.39 1.764 1.296 1.279 2.262-.396.79-1.567 1.001-2.357 1.021a11.418 11.418 0 01-2.834-.346c-7.742-1.795-14.494-9.652-12.747-17.866a9.293 9.293 0 016.972-7.405 13.422 13.422 0 0110.733 2.547c1.262.946 4.304 3.54 2.503 5.207-1.676 1.55-4.058-.111-5.22-1.447a18.016 18.016 0 01-3.19-5.836 20.526 20.526 0 01-1.175-6.222c-.104-3.848 1.022-7.889 3.906-10.577a13.376 13.376 0 0110.281-3.196 15.645 15.645 0 015.704 1.648 9.323 9.323 0 014.375 4.008 2.438 2.438 0 01.094 2.45 2.208 2.208 0 01-2.64.388c-2.136-.846-3.036-3.277-3.55-5.33a20.001 20.001 0 01.966-13.006 14.022 14.022 0 019.008-7.988c4.46-1.175 8.84.478 12.101 3.578a20.56 20.56 0 014.058 5.387 10.503 10.503 0 011.383 6.571c-.34 1.835-1.523 3.756-3.49 4.121-1.806.335-2.587-1.467-2.593-2.982a12.9 12.9 0 011.379-5.15 16.983 16.983 0 012.95-4.41c5.186-5.606 13.411-7.203 20.556-4.912a19.703 19.703 0 019.955 6.9c2.52 3.465 3.553 8.447 1.297 12.315-.942 1.615-2.716 3.195-4.732 2.837-2.046-.363-1.899-2.472-1.421-4.027a11.115 11.115 0 017.022-7.045 13.662 13.662 0 0110.718.794 18.129 18.129 0 017.555 7.684 15.377 15.377 0 011.825 10.02c-.389 1.929-1.322 3.976-3.17 4.891-.648.321-1.774.645-2.333-.017-.608-.72.109-1.911.567-2.51a6.552 6.552 0 015.136-2.306 9.852 9.852 0 015.708 2.009 17.952 17.952 0 016.888 10.949c.87 4.271-.146 8.9-3.826 11.571-.963.7-3.075 1.778-4.133.648-.71-.759-.321-2.055.134-2.837 2.072-3.562 6.314-.846 8.223 1.437a16.183 16.183 0 013.313 12.857 14.665 14.665 0 01-6.976 9.97c-.335.205-.029.734.308.528a15.277 15.277 0 007.428-11.596c.468-4.81-1.206-10.212-4.882-13.475-1.393-1.237-3.459-2.455-5.401-2.015a4.213 4.213 0 00-2.808 2.527 2.798 2.798 0 00.287 3.094c1.125 1.076 3.07.457 4.22-.22a10.646 10.646 0 004.153-4.844 12.839 12.839 0 00.668-7.16 18.485 18.485 0 00-7.523-12.125 10.046 10.046 0 00-6.321-1.904 6.99 6.99 0 00-5.2 2.683c-.856 1.2-1.327 3.401.68 3.68 2.12.293 3.936-1.7 4.731-3.434 1.61-3.512 1.037-7.694-.42-11.15a19.137 19.137 0 00-7.865-9.125 14.338 14.338 0 00-11.922-1.186 11.706 11.706 0 00-7.484 7.832c-.437 1.648-.355 3.606 1.51 4.27 1.867.663 3.896-.445 5.076-1.862 3.06-3.678 2.532-9.263.13-13.128-4.714-7.585-15.083-10.828-23.471-8.346a19.044 19.044 0 00-9.829 6.736 17.301 17.301 0 00-2.71 5.35c-.504 1.66-.937 3.539-.197 5.198.755 1.692 2.51 1.983 4.073 1.176a6.004 6.004 0 002.901-4.82 12.233 12.233 0 00-1.967-7.145A20.742 20.742 0 0086.1 13.38a13.922 13.922 0 00-6.416-3.054 12.616 12.616 0 00-6.946.837 15.438 15.438 0 00-8.554 10.107 20.46 20.46 0 00-.74 7.237 16.58 16.58 0 001.875 7.115c.961 1.626 3.062 3.362 5.086 2.553 1.84-.736 1.428-2.926.622-4.284A10.823 10.823 0 0066 29.788a16.366 16.366 0 00-6.396-1.464 13.346 13.346 0 00-10.82 4.708c-2.748 3.495-3.352 8.202-2.65 12.488a22.08 22.08 0 002.394 6.937c1.052 1.937 2.504 4.097 4.701 4.828 1.533.51 3.77-.1 3.95-1.957a4.22 4.22 0 00-1.363-3.042 13.663 13.663 0 00-2.543-2.171c-3.39-2.273-7.998-3.26-11.905-1.802-3.882 1.449-6.068 5.247-6.356 9.256a15.525 15.525 0 004.985 12.111 18.893 18.893 0 005.627 3.762 13.124 13.124 0 006.215 1.276 3.358 3.358 0 002.29-1.015 1.909 1.909 0 00.025-2.255c-1.07-1.642-3.536-1.902-5.305-1.744a8.92 8.92 0 00-8.062 7.334c-.654 4.205 1.707 8.52 4.862 11.158a10.927 10.927 0 005.747 2.676 3.26 3.26 0 002.798-.87 3.091 3.091 0 00.614-2.51 5.642 5.642 0 00-4.46-4.324 5.878 5.878 0 00-5.236 1.278 7.525 7.525 0 00-2.422 5.014 10.465 10.465 0 001.722 6.26 20.323 20.323 0 0011.553 8.413 19.375 19.375 0 0013.901-.808c.354-.171.044-.698-.308-.527z" fill="#808285"/><path class="cls-31" d="M138.387 70.359c-5.017-3.942-8.078-4.261-14.04-1.458a6111.043 6111.043 0 00-2.865-3.504c7.944-4.36 14.143-3.717 20.657 2.145l-3.752 2.817zM93.463 78.268c4.585-5.789 7.944-6.973 15.41-5.425.91-1.886 1.367-2.83 2.28-4.715-10.116-2.767-16.92-.372-22.67 7.981l4.98 2.16z"/><path class="cls-32" d="M117.624 119.682a20.432 20.432 0 01-2.948.053c-10.512-.575-17.361-9.303-17.43-9.391l.405-.312c.067.086 6.78 8.633 17.058 9.193 7.139.384 14.292-3.09 21.266-10.334l.369.355c-6.13 6.367-12.414 9.867-18.72 10.436z"/><path class="cls-32" d="M96.39 110.738a7.92 7.92 0 01-3.21-.655l.203-.47c.8.348 3.055 1.07 3.88.26.518-.506.443-1.623-.216-3.23l.473-.194c.755 1.84.79 3.116.102 3.79a1.972 1.972 0 01-1.232.499z"/><path class="cls-25" d="M116.449 85.44a4.456 4.456 0 011.682-1.14 6.024 6.024 0 013.536-.11c.142.661-.104 1.539.197 2.138l.298.118a4.974 4.974 0 00-3.319-.277 2.878 2.878 0 00-1.614 1.715l-.369-.155a8.469 8.469 0 00-.411-2.288z"/><ellipse class="cls-33" cx="137.175" cy="81.219" rx="3.365" ry="5.184" transform="rotate(-17.582 137.175 81.22)"/><ellipse class="cls-34" cx="137.707" cy="80.865" rx="1.374" ry="2.117" transform="rotate(-17.582 137.707 80.865)"/><circle class="cls-6" cx="136.344" cy="80.05" r=".832"/><ellipse class="cls-33" cx="112.501" cy="86.78" rx="3.365" ry="5.184" transform="rotate(-17.582 112.501 86.78)"/><ellipse class="cls-34" cx="113.033" cy="86.426" rx="1.374" ry="2.117" transform="rotate(-17.582 113.035 86.427)"/><circle class="cls-6" cx="111.67" cy="85.611" r=".832"/></g></g></svg>