<svg id="Layer_1" data-name="Layer 1" xmlns="http://www.w3.org/2000/svg" viewBox="0 0 202.11 240.451"><defs><style>.cls-2{fill:#f89522}.cls-3{fill:#402017}.cls-15,.cls-9{opacity:.2;isolation:isolate}.cls-7{fill:#fff}.cls-8{fill:#f15c2a}.cls-9{fill:#231f20}.cls-12,.cls-15{fill:#30a9e0}.cls-13{fill:#faf3cf}.cls-14{fill:#1173bb}.cls-16{fill:#b37e6d}.cls-19{fill:#bdd8d4}.cls-20{fill:#e74133}.cls-22{fill:#896257}.cls-25{fill:#281510}</style></defs><g id="Layer_1-2" data-name="Layer 1-2"><circle cx="94.204" cy="119.569" r="79.786" fill="#7ecaad"/><path class="cls-2" d="M57.272 107.506c-19.114 0-30.625-16.88-31.125-17.627l2.493-1.669c.119.177 12.065 17.615 30.833 16.214l.222 2.992c-.82.06-1.63.09-2.423.09z"/><path class="cls-3" d="M51.325 86.797c-4.666.926-9.554-2.025-10.311-6.758s3.378-10.331 8.042-10.377a2.05 2.05 0 011.958.863c.859 1.71-2.088 3.106-3.96 2.81-4.66-.737-9.132-3.66-10.233-8.415s2.548-11.011 7.346-11.201c1.487-.059 3.138.707 3.256 2.241.135 1.735-1.941 3.204-3.563 2.9a5.035 5.035 0 01-3.357-3.337c-2.73-6.571.399-14.771 6.99-18.315a13.638 13.638 0 013.938-1.402c1.987-.372 4.68.72 3.959 2.73a3.47 3.47 0 01-4.234-2.291 8.944 8.944 0 01.236-5.585 22.746 22.746 0 0113.01-14.257 12.955 12.955 0 019.343-.433 7.863 7.863 0 015.005 7.323 4.153 4.153 0 01-1.119 2.987c-1.584 1.465-4.132.165-4.512-1.855s.72-4.18 2.018-5.922c6.892-9.248 20.95-11.377 28.522-4.318a6.91 6.91 0 012.429 4.147 4.049 4.049 0 01-2.403 4.24c-1.116-4.202 3.351-8.277 7.4-10.205 4.404-2.096 9.551-3.375 13.56-1.3s5.535 8.672 1.854 12.06c-1.27 1.17-3.336 1.704-4.362.52-1.133-1.307-.17-3.648 1.235-4.93 2.03-1.855 4.718-2.539 7.276-3.06 4.084-.834 8.324-1.428 12.16-.322s7.19 4.288 7.443 8.524-3.593 9.002-7.608 8.556a2.43 2.43 0 01-2.39-2.076c-.039-1.46 1.52-2.52 2.876-3.053a16.179 16.179 0 0115.264 1.331c4.312 3.1 6.262 8.725 5.004 14.436-1.408 5.547-6.627 10.29-11.982 10.422a7.378 7.378 0 019.215-1.202c2.733 1.697 4.292 4.86 5.18 8.111a19.028 19.028 0 01.002 11.124c-1.251 3.67-4.274 6.997-7.877 7.747 1.71-3.914 7.214-4.816 10.22-2.433s3.865 6.82 3.605 10.974a30.268 30.268 0 01-5.4 15.253c-2.466 3.528-6.868 6.772-10.26 4.945a4.738 4.738 0 017.233-.231c1.748 2.05 1.834 5.266 1.115 8.126-1.418 5.647-5.6 10.535-10.535 13.506a33.798 33.798 0 01-16.01 4.441c-1.935.088-4.017.006-5.413-1.246s-1.53-4.087.19-5.2c2.687 5.851.78 13.313-4.534 17.736-4.11 3.24-9.407 3.953-14.25 3.611-3.755-.265-7.574-1.165-10.26-3.691a9.207 9.207 0 01-2.001-10.658c-2.142 7.384-10.073 12.094-17.261 12.446-5.437.267-11.054-1.714-13.738-6.361s-1.31-12.118 3.616-15.057c1.095 1.583.242 4.141-1.346 5.516a10.389 10.389 0 01-5.622 2.087 24.567 24.567 0 01-14.333-1.866 14.527 14.527 0 01-8.021-11.52c-.427-5.104 2.498-10.904 7.214-13.019 1.81 1.56.366 5.29-2.032 6.169s-4.89-.412-6.391-2.296c-3.716-4.66-2.792-11.993 2.064-16.378A11.165 11.165 0 0157.46 91.71"/><path d="M51.24 86.284a8.523 8.523 0 01-8.373-3.183 7.913 7.913 0 01.1-9.106 8.907 8.907 0 013.616-3.238 5.928 5.928 0 012.242-.558c.658-.025 1.956.1 1.827 1.076-.087.655-.949 1.073-1.463 1.27a4.276 4.276 0 01-2.337.21 14.156 14.156 0 01-4.661-1.71c-2.696-1.594-5.077-4.426-5.06-7.963a9.723 9.723 0 014.208-7.93 4.826 4.826 0 014.337-.621 1.82 1.82 0 011.237 1.796 2.499 2.499 0 01-1.698 1.88c-1.837.672-3.276-.946-3.997-2.398a12.217 12.217 0 01-1.158-5.8 14.707 14.707 0 015.026-10.497 14.093 14.093 0 014.799-2.77 5.003 5.003 0 014.43.115 1.287 1.287 0 01.6 1.537l.391-.371a3.094 3.094 0 01-3.793-2.37 9.975 9.975 0 01.696-5.883 22.52 22.52 0 015.862-8.766c5.228-4.841 15.054-8.125 19.133-1.433a6.584 6.584 0 01.902 4.878 2.283 2.283 0 01-2.34 1.92 1.755 1.755 0 01-1.024-.438c-3.15-2.133.424-7.002 2.448-9.078a21.215 21.215 0 0115.794-6.313 16.422 16.422 0 018.777 2.815 9.241 9.241 0 013.548 3.987c.607 1.578.196 4.06-1.708 4.716l.586.373c-.59-2.407.73-4.693 2.495-6.424a19.17 19.17 0 016.628-4.05c4.483-1.732 10.463-2.524 13.367 1.665a7.962 7.962 0 011.349 5.445 5.339 5.339 0 01-3.604 4.63 1.656 1.656 0 01-2.23-1.18 1.908 1.908 0 01-.048-.322 4.474 4.474 0 011.549-3.102c1.964-1.823 4.63-2.43 7.039-2.923 5.268-1.077 11.186-1.785 15.482 1.482a8.747 8.747 0 013.431 5.443 8.014 8.014 0 01-1.82 6.301c-1.36 1.668-3.557 2.95-5.542 2.4-1.06-.292-2.049-1.31-1.172-2.536a6.052 6.052 0 013.19-1.85 15.319 15.319 0 0114.26 2.025 13.368 13.368 0 014.589 12.35 13.897 13.897 0 01-8.485 10.513 10.18 10.18 0 01-3.198.645l.268.91a6.759 6.759 0 016.497-1.963 8.648 8.648 0 015.477 4.58 21.017 21.017 0 012.341 8.031 15.331 15.331 0 01-1.603 8.88 10.49 10.49 0 01-6.596 5.36l.558.656a6.289 6.289 0 016.582-3.296c2.946.389 4.843 2.845 5.678 5.651a21.07 21.07 0 01-.008 10.294 29.777 29.777 0 01-4.776 10.825c-2.078 2.922-6.112 6.385-9.484 4.663l.11.729a4.048 4.048 0 013.936-1.474 4.378 4.378 0 013.36 2.785c1.382 3.305.113 7.608-1.694 10.813-4.111 7.296-11.752 11.145-19.217 12.404a35.3 35.3 0 01-6.025.538c-1.756-.01-3.896-.32-4.685-2.089a3.142 3.142 0 01-.284-1.31c.003-.214.026-.909.28-1.018.433-.187 1.022.941 1.123 1.212.564 1.52.167 3.545-.091 5.185a15.08 15.08 0 01-5.837 9.777 18.82 18.82 0 01-10.792 3.192c-4.123.07-8.584-.511-11.827-2.995-2.914-2.232-4.683-6.715-2.713-10.626l-.885-.412c-2.144 7.196-9.623 11.527-16.256 12.027-6.82.514-14.812-2.896-15.106-10.818-.133-3.604 1.42-7.595 4.664-9.578l-.605-.084c.936 1.464.029 3.628-1.272 4.762a9.718 9.718 0 01-5.249 1.932 26.153 26.153 0 01-11.815-.84c-6.163-2.098-11.467-8.299-9.823-15.803a12.61 12.61 0 016.656-8.769l-.605-.084c1.823 1.682-.15 5.005-2.34 5.458-3.037.629-5.522-1.988-6.573-4.544a12.094 12.094 0 015.5-14.93 10.601 10.601 0 018.939-.75c.59.236.955-.793.37-1.027-5.82-2.335-13.427 1.324-15.803 7.915a13.056 13.056 0 00.262 9.771c1.333 2.855 4.361 5.504 7.783 4.513 2.761-.8 4.914-5.07 2.651-7.158a.5.5 0 00-.605-.084 13.564 13.564 0 00-6.936 8.457 13.863 13.863 0 001.228 10.886c4.3 7.508 13.423 9.215 21.69 7.958 2.11-.32 4.467-.996 5.977-2.84a4.862 4.862 0 00.755-5.575.472.472 0 00-.606-.084 11.695 11.695 0 00-5.204 8.907 11.42 11.42 0 003.554 9.657c5.546 5.085 14.727 4.956 21.605.893a17.649 17.649 0 008.112-9.883c.165-.551-.589-.998-.884-.412a9.746 9.746 0 001.606 10.889c2.89 3.119 7.365 4.072 11.557 4.296a21.51 21.51 0 0012.547-2.722 16.229 16.229 0 007.193-10.71 13.38 13.38 0 00.204-5.981c-.29-.968-1.58-2.827-2.79-1.738a2.897 2.897 0 00-.619 2.427 3.972 3.972 0 001.173 2.387c1.494 1.402 3.74 1.492 5.756 1.403 8.775-.388 18.344-3.557 24.005-11.724 2.405-3.469 4.153-8.064 3.333-12.101a5.94 5.94 0 00-2.99-4.326 5.423 5.423 0 00-4.652-.05 4.967 4.967 0 00-1.857 1.556.525.525 0 00.11.729c3.226 1.647 6.955-.561 9.448-3.252a28.018 28.018 0 006.031-11.526 23.483 23.483 0 00.487-11.876c-.836-3.148-2.824-6.033-6.05-6.666a7.449 7.449 0 00-8.255 3.98.478.478 0 00.558.655 11.27 11.27 0 006.69-4.93 15.764 15.764 0 002.432-9.2 22.185 22.185 0 00-2.307-9.33 9.996 9.996 0 00-5.692-5.302 7.847 7.847 0 00-8.048 2.092.562.562 0 00-.054.763.451.451 0 00.322.147 14.296 14.296 0 0011.999-9.235 14.543 14.543 0 00-2.803-14.963c-3.868-4.154-10.1-5.238-15.764-3.628-1.954.556-5.887 2.072-4.925 4.903.794 2.339 4.007 2.18 5.943 1.217a9.528 9.528 0 004.625-5.817 8.722 8.722 0 00-1.22-7.229c-3.368-5.06-9.819-5.537-15.57-4.67-2.97.447-6.265.935-9 2.57-1.977 1.183-4.406 3.926-3.26 6.323 1.138 2.38 4.397 1.266 5.929-.486a7.747 7.747 0 001.707-6.106 8.597 8.597 0 00-3.118-5.663 10.618 10.618 0 00-7.976-1.585 23.394 23.394 0 00-8.797 3.22c-2.31 1.427-4.67 3.483-5.687 6.142a6.215 6.215 0 00-.262 3.712.462.462 0 00.586.373 4.593 4.593 0 002.848-4.292c.026-2.195-1.373-3.924-2.818-5.216a16.607 16.607 0 00-9.23-3.988 22.155 22.155 0 00-19.492 8.188c-1.441 1.822-2.754 4.123-2.51 6.437a3.578 3.578 0 003.121 3.206c1.856.194 3.182-1.433 3.49-3.26a7.816 7.816 0 00-1.38-5.643c-2.602-3.773-7.524-4.414-11.92-3.155a21.992 21.992 0 00-10.638 7.211 23.756 23.756 0 00-3.453 5.597 14.058 14.058 0 00-1.45 6.825 4.487 4.487 0 003.459 4.185c.681.113 1.886.174 2.136-.736a2.173 2.173 0 00-.44-2.004 4.582 4.582 0 00-4.35-1.108 15.807 15.807 0 00-12.078 14.32 13.513 13.513 0 001.183 6.6c.796 1.652 2.268 3.341 4.275 3.165 1.66-.145 3.513-1.631 3.406-3.506-.108-1.904-2.057-2.781-3.709-2.726-3.458.117-6.337 3.206-7.493 6.529a9.807 9.807 0 002.327 10.276 13.424 13.424 0 004.865 3.08c1.67.626 3.585 1.188 5.439.501 1.36-.504 2.929-1.857 2.072-3.395-.88-1.58-3.408-1.118-4.892-.505a10.548 10.548 0 00-6.108 8.797 8.609 8.609 0 005.703 8.399 9.673 9.673 0 005.277.443.521.521 0 00-.168-1.027z" fill="#2e1913"/><path class="cls-2" d="M129.703 134.34a20.915 20.915 0 01-8.586-1.786c-11.737-5.215-15.457-19.869-15.61-20.49l2.913-.717c.034.138 3.54 13.867 13.93 18.472 6.11 2.71 13.495 1.78 21.941-2.765l1.422 2.643c-5.75 3.093-11.106 4.644-16.01 4.644z"/><path fill="#434244" d="M90.718 165.538l2.142 48.636 15.609.556-.219-1.894-2.675-50.114-.19-1.642H77.676l-.077.642-2.9 51.114-.084.687 15.069.538 1.034-48.523z"/><ellipse cx="95.374" cy="225.285" rx="59.291" ry="4.886" style="isolation:isolate" opacity=".2" fill="#929497"/><path class="cls-7" d="M79.889 117.811l-2.651 40.269 25.496.141 1.488-38.54-24.333-1.87z"/><path class="cls-8" d="M90.276 136.685q-.628 0-1.256-.04c-9.152-.572-15.017-7.202-15.262-7.484l2.262-1.97c.052.06 5.333 5.985 13.22 6.462 5.344.318 10.721-1.895 15.97-6.593l2 2.234c-5.482 4.908-11.173 7.39-16.934 7.39z"/><path class="cls-8" d="M90.276 144.237q-.628 0-1.256-.039c-9.152-.572-15.017-7.202-15.262-7.484l2.262-1.97c.052.059 5.333 5.985 13.22 6.462 5.344.317 10.721-1.895 15.97-6.594l2 2.235c-5.482 4.908-11.173 7.39-16.934 7.39z"/><path class="cls-8" d="M90.276 152.35q-.628 0-1.256-.04c-9.152-.572-15.017-7.202-15.262-7.484l2.262-1.97c.052.059 5.333 5.985 13.22 6.462 5.344.318 10.721-1.895 15.97-6.594l2 2.235c-5.482 4.908-11.173 7.39-16.934 7.39z"/><path class="cls-9" d="M98.65 123.013l-.183 34.876 3.174-.029-.428-34.847H98.65zM80.879 157.972l2.838.468-.042-33.179-3.17-.951.374 33.662z"/><path fill="#272626" d="M77.676 160.547l-3.227 12.388 34.394.669-1.594-14.529-29.573 1.472z"/><path fill="#2e2f2d" d="M80.101 156.06l22.636.061.151 6.426-23.242-.94.455-5.547z"/><path class="cls-2" d="M70.304 115.757s-3.137 31.094-3.436 45.634l14.097.433 1.064-43.831z"/><path class="cls-8" d="M68.411 157.57l11.098 1.074.02-.551.302-8.904.023-.675.02-.561.015-.439-1.948-.116-8.252-.493-.223 1.855zm5.897-.03l-.3-.028-4.929-.478.658-5.513.036-.284.3-2.526.142-1.174 7.687.458.807.049h.006l.558.032-.016.474-.022.671-.1 2.884-.01.3-.19 5.584-1.681-.161z"/><path class="cls-8" d="M73.763 149.492a1.197 1.197 0 00.949 1.332.523.523 0 00.07.004.912.912 0 00.591-.23 1.34 1.34 0 00.426-.945 1.23 1.23 0 00-.845-1.32c-.033-.006-.068-.009-.1-.012a.877.877 0 00-.365.048h-.003a.954.954 0 00-.294.178 1.355 1.355 0 00-.429.945zm.3.016a1.038 1.038 0 01.326-.736.585.585 0 01.394-.154h.045a.908.908 0 01.674 1.022 1.043 1.043 0 01-.326.733.595.595 0 01-.439.154.902.902 0 01-.674-1.019zM76.178 135.283l5.998-9.156-.25-.164-5.702 8.705-6.302-13.706-.272.125 6.528 14.196z"/><path class="cls-8" transform="rotate(-60.03 75.085 138.35)" d="M74.936 133.803h.299v9.094h-.299z"/><path class="cls-8" transform="rotate(-60.03 74.616 141.826)" d="M74.467 137.279h.299v9.094h-.299z"/><path class="cls-8" d="M79.317 152.426l.03-.298c-9.874-.998-9.932-.935-9.999-.86l.111.1.029.145c.298-.023 6.043.53 9.83.913z"/><path class="cls-8" transform="rotate(-85.425 74.379 154.778)" d="M71.327 154.628h6.103v.299h-6.103z"/><path class="cls-2" d="M111.555 117.051s2.552 31.445 2.737 45.99l-13.61-.498-.869-43.403z"/><path class="cls-8" d="M101.723 148.685l.007.184v.003l.126 4.778.041 1.636.023.832.055 2.1.042 1.604.806-.068 5.378-.455h.003l1.962-.164 2.955-.249-.265-2.377-.232-2.062-.697-6.24-8.071.378-.752.036zm.613.69l-.003-.119.748-.035 1.49-.071h.004l6.82-.32.413 3.704.032.29.145 1.281.233 2.071.242 2.168-3.223.271-1.713.145-.233.02-.064.003-4.42.374-.21.016-.025-.952-.055-2.1-.013-.406v-.003l-.042-1.604-.013-.522-.01-.297z"/><path class="cls-8" d="M105.798 150.88a1.335 1.335 0 00.42.948.89.89 0 00.596.235h.061a1.012 1.012 0 00.816-.623 1.465 1.465 0 00.142-.7 1.347 1.347 0 00-.419-.948.92.92 0 00-.661-.236 1.026 1.026 0 00-.82.626 1.457 1.457 0 00-.135.697zm.297-.069a1.193 1.193 0 01.083-.448.735.735 0 01.597-.51h.039a.598.598 0 01.4.162 1.041 1.041 0 01.32.738 1.17 1.17 0 01-.088.517.74.74 0 01-.593.493.58.58 0 01-.44-.158 1.047 1.047 0 01-.318-.739zM105.593 133.085l6.638-14.114-.27-.128-6.409 13.626-5.634-8.776-.251.161 5.926 9.231z"/><path class="cls-8" transform="rotate(-29.364 106.598 139.583)" d="M102.061 139.433h9.075v.299h-9.075z"/><path class="cls-8" transform="rotate(-29.364 107.04 143.065)" d="M102.503 142.915h9.075v.299h-9.075z"/><path class="cls-8" d="M102.257 153.605c3.788-.335 9.53-.822 9.836-.79l.014-.13.128-.113c-.067-.075-.123-.14-10.005.736z"/><path class="cls-8" transform="rotate(-4.112 107.178 156.02)" d="M107.029 152.966h.299v6.105h-.299z"/><path class="cls-12" d="M90.422 211.589v10.371a42.5 42.5 0 01-16.719 4.54 58.67 58.67 0 01-16.688-1.132v-2.499a15.136 15.136 0 015.858-4.553 29.704 29.704 0 019.822-2.492v-4.273a1.014 1.014 0 011.16-1.002 54.278 54.278 0 0013.741.266 39.37 39.37 0 001.654-.228 1.011 1.011 0 011.172 1.002z"/><path class="cls-13" d="M90.422 218.511v3.45c-14.999 7.954-33.407 3.408-33.407 3.408v-2.499a15.136 15.136 0 015.858-4.553c2.876-.46 7.192-.005 10.844 5.13 0 0 11.715-1.217 16.705-4.936z"/><path class="cls-14" d="M67.254 223.765a75.848 75.848 0 01-10.276-.66l.073-.47c.206.033 20.786 3.106 33.25-4.327l.243.407c-6.894 4.111-16.218 5.05-23.29 5.05zM74.224 220.4c-3.402-4.672-9.319-3.164-9.378-3.148l-.122-.46c.062-.016 6.293-1.602 9.884 3.328zM77.98 219.218c-3.402-4.67-9.319-3.164-9.378-3.148l-.122-.458c.063-.017 6.293-1.603 9.884 3.327z"/><circle class="cls-7" cx="85.903" cy="214.902" r="2.428"/><path class="cls-14" d="M68.452 223.545h.178v2.481h-.178zM81.47 222.421h.178v2.365h-.178zM83.793 221.54h.178v2.063h-.178zM74.069 212.167s4.42 1.69 8.487.308a7.666 7.666 0 01-8.487-.308z"/><path class="cls-15" d="M90.422 211.589v10.371a42.5 42.5 0 01-16.719 4.54 30.04 30.04 0 0114.358-9.17l-.465-6.515a39.373 39.373 0 001.654-.228 1.011 1.011 0 011.172 1.002z"/><path class="cls-12" d="M91.843 211.589v10.371a42.5 42.5 0 0016.719 4.54 58.67 58.67 0 0016.688-1.132v-2.499a15.136 15.136 0 00-5.858-4.553 29.704 29.704 0 00-9.822-2.492v-4.273a1.014 1.014 0 00-1.16-1.002 54.279 54.279 0 01-13.741.266 39.37 39.37 0 01-1.654-.228 1.011 1.011 0 00-1.172 1.002z"/><path class="cls-13" d="M91.843 218.511v3.45c14.999 7.954 33.407 3.408 33.407 3.408v-2.499a15.136 15.136 0 00-5.858-4.553c-2.876-.46-7.193-.005-10.844 5.13 0 0-11.715-1.217-16.705-4.936z"/><path class="cls-14" d="M115.01 223.765a75.848 75.848 0 0010.277-.66l-.073-.47c-.206.033-20.786 3.106-33.25-4.327l-.243.407c6.894 4.111 16.218 5.05 23.29 5.05zM108.04 220.4c3.403-4.672 9.32-3.164 9.379-3.148l.122-.46c-.062-.016-6.293-1.602-9.884 3.328zM104.285 219.218c3.402-4.67 9.319-3.164 9.378-3.148l.122-.458c-.063-.017-6.293-1.603-9.884 3.327z"/><circle class="cls-7" cx="96.362" cy="214.902" r="2.428"/><path class="cls-14" d="M113.635 223.545h.178v2.481h-.178zM100.617 222.421h.178v2.365h-.178zM98.294 221.54h.178v2.063h-.178zM108.196 212.167s-4.42 1.69-8.487.308a7.666 7.666 0 008.487-.308z"/><path class="cls-15" d="M91.843 211.589v10.371a42.5 42.5 0 0016.719 4.54 30.04 30.04 0 00-14.358-9.17l.465-6.515a39.373 39.373 0 01-1.654-.228 1.011 1.011 0 00-1.172 1.002z"/><path class="cls-16" d="M144.155 128.784c-1.987-.98-6.762-8.946-3.08-9.214 2.834-.112 3.814 6.21 4.176 8.193l.28-.05c3.977-.733 7.1-1.166 11.117-.47 1.024.177 7.575 1.291 5.354 3.43-.788.758-2.268.69-3.263.684a29.66 29.66 0 01-3.852-.33c-2.011-.28-4.003-.679-5.983-1.124a11.404 11.404 0 016.672 4.543c.54.788 1.864 2.693 1.163 3.661s-2.423-.042-3.095-.536a12.532 12.532 0 01-2.339-2.52 40.2 40.2 0 01-3.385-5.435c.468 1.61 2.348 7.122-.905 5.906-1.688-.626-2.117-3.306-2.34-4.842z"/><path fill="#8f9393" d="M137.008 127.255l.207 1.996 49.563-3.777 13.956-27.879-33.566-1.598-11.161 29.14-18.999 2.118z"/><path class="cls-7" d="M137.065 127.643l19.259-2.148 11.143-29.093 33.25 1.583.035-.78-33.883-1.613-11.179 29.187-18.738 2.089.113.775z"/><path style="isolation:isolate" fill="#211e1f" opacity=".5" d="M187.081 124.869l-49.925 3.804.059.578 49.521-3.774.345-.608z"/><ellipse class="cls-7" cx="178.765" cy="112.244" rx="3.978" ry="2.293" transform="rotate(-70.3 178.765 112.244)"/><path class="cls-19" transform="rotate(-12.578 14.078 70.342)" d="M13.937 69.354h.282v1.976h-.282z"/><path class="cls-7" transform="rotate(-12.71 39.714 72.187)" d="M39.238 71.87h.952v.635h-.952z"/><path class="cls-20" transform="rotate(-12.708 18.964 68.279)" d="M5.011 50.12h27.907v36.319H5.011z"/><path transform="rotate(-12.708 22.02 81.83)" fill="#b52f2d" d="M8.067 77.563h27.907v8.535H8.067z"/><circle class="cls-7" cx="17.916" cy="63.631" r="11.546"/><path class="cls-19" d="M15.331 68.285l.755 1.925-.946-.312-.723.685-.098-1.124.619-.464-.634.299-.171-1.974.281-.674-.298.481-.218-2.501 1.359 3.469-.539-.086.613.276z"/><path class="cls-19" transform="rotate(-12.578 12.963 69.777)" d="M12.893 69.284h.141v.988h-.141z"/><path class="cls-19" d="M12.985 68.636l.377.963-.473-.156-.362.342-.049-.562.31-.232-.317.149-.086-.987.141-.337-.149.241-.109-1.25.679 1.734-.269-.043.307.138z"/><path class="cls-7" d="M23.184 68.688l1.931-4.858-.648-3.793-3.265-2.789-1.457-4.573-1.515 2.369-2.988 4.683-3.839-.354-3.23.455-.717 1.152 2.926 2.663.898 1.654 2.91 5.167 5.14.372 3.854-2.148z"/><path class="cls-20" d="M27.728 60.9a4.438 4.438 0 00-3.124-1.798 2.656 2.656 0 01.957-.3 4.11 4.11 0 00-2.377-.386l-1.336-1.93-.026-.038 1.026-.16s-.224-.319-1.315-.367a7.558 7.558 0 00-1.328-3.433q-.242.09-.46.188l-.001.001a4.655 4.655 0 00-2.556 2.354 3.159 3.159 0 00-.263 1.118 14.528 14.528 0 00-2.401 1.598 3.181 3.181 0 01.965-1.278 2.762 2.762 0 00-.353.131 4.522 4.522 0 00-2.345 2.427l-.022.052-.035-.004c-.379-.047-3.794-.403-5.911 1.579 0 0 .327 1.128 2.73 3.046.319.253.673.521 1.067.802a7.07 7.07 0 00-.944 3.792 8.38 8.38 0 01.808-2.389c-.025.087-1.076 3.796.904 5.262a4.074 4.074 0 01-.433-1.671.417.417 0 01.011-.062.568.568 0 01.019-.064l.017.05a6.885 6.885 0 001.152 2.072l-.078-.01a1.234 1.234 0 01.234.13l.018.013a3.4 3.4 0 01.573-.057 2.064 2.064 0 01-.476-1.018 11.988 11.988 0 00.949 1.05c.079.01.158.02.237.034.487.101.957.226 1.427.37l.668-.12a20.553 20.553 0 002.545-.129c.159-.023.324-.05.498-.085l.496-.095a56.389 56.389 0 011.958-.332q.371-.057.745-.108l.031-.005a1.791 1.791 0 00.269-.062 3.47 3.47 0 00.637-.297 11.572 11.572 0 01.403-.212 3.844 3.844 0 00.647-.402l.018-.014-.017.016c-.055.05-.224.208-.549.538a4.685 4.685 0 01.56-.48 3.963 3.963 0 01.248-.17l-.014-.003.17-.146a2.586 2.586 0 00.333-.363c.022-.027.042-.056.063-.085a4.951 4.951 0 00.865-2.33 5.427 5.427 0 01.144 1.359 4.752 4.752 0 00.74-2.791 11.32 11.32 0 01.292 1.37 7.431 7.431 0 00.585-3.855 3.443 3.443 0 01.257.76c.025-.03 1.241-1.498-.763-3.212a1.12 1.12 0 01.86.15zm-17.025 2.066a3.03 3.03 0 01-.705-.315 7.99 7.99 0 01-1.875-1.702c.944-.904 2.819-.729 3.402-.649.113.016.177.028.177.028a8.023 8.023 0 00-1 2.638zm10.1-1.683a2.407 2.407 0 01-.605 3.52 2.586 2.586 0 01-3.552-.87q-.029-.047-.055-.096c-.853-1.405-1.143-4.01.02-4.717s3.34.757 4.192 2.163zm-.437-6.659v.002a4.13 4.13 0 01.383 1.2v.001a1.7 1.7 0 01-.008.535 1.175 1.175 0 01-.05.185s-.372-.098-.848-.203a9.056 9.056 0 00-1.795-.276c-.289.015.158-1.636 1.742-2.45a7.523 7.523 0 01.576 1.006z"/><path class="cls-20" d="M12.933 68.662c.077-.02 4.284 1.734 4.284 1.734l7.469-.86c-2.643 3.527-8.36 2.898-8.36 2.898a4.75 4.75 0 002.242.698c-3.958.8-5.594-1.454-5.594-1.454a10.2 10.2 0 001.296 1.727c-2.102-.759-3.335-3.958-3.335-3.958s1.921-.765 1.998-.785z"/><path class="cls-7" d="M17.984 69.128a7.334 7.334 0 01-4.556-3.228l-.005-.008a.09.09 0 01.159-.085 7.141 7.141 0 004.428 3.144c1.78.273 3.636-.436 5.518-2.106a.09.09 0 01.117.134 7.273 7.273 0 01-5.198 2.2q-.234-.015-.463-.051z"/><path class="cls-7" d="M12.718 66.876c-.128-2.42 1.562-1.663 1.562-1.663-2.068-1.227-1.683 1.29-1.683 1.29zM24.044 61.998a4.808 4.808 0 01-.106 1.602s-2.585.271-1.762-.555c.823-.829 1.75-1.727 1.868-1.047z"/><path class="cls-20" d="M19.399 64.055a.104.104 0 01-.12-.064c-.454-1.167-.512-1.853-.178-2.096.551-.401 1.904.677 2.057.8a.104.104 0 01-.132.162c-.528-.43-1.484-1.026-1.803-.794-.137.1-.287.473.25 1.853a.104.104 0 01-.06.134z"/><path class="cls-7" d="M22.425 61.636a.1.1 0 01-.115-.063c-.45-1.207-.507-1.874-.178-2.099.517-.354 1.754.722 1.893.846a.1.1 0 11-.132.15v-.001c-.482-.428-1.355-1.032-1.649-.83-.132.09-.274.452.252 1.865a.1.1 0 01-.058.128z"/><path class="cls-7" transform="rotate(-12.71 7.935 80.632)" d="M7.458 80.315h.953v.635h-.953z"/><path class="cls-7" d="M10.42 80.397l-.14-.619 1.952-.44.14.62zm3.903-.88l-.14-.619 1.951-.44.14.62zm3.902-.88l-.14-.62 1.951-.44.14.62zm3.902-.88l-.14-.619 1.952-.44.14.62zm3.903-.88l-.14-.619 1.951-.44.14.62zm3.902-.88l-.14-.619 1.951-.44.14.62z"/><path class="cls-16" d="M28.606 89.272c1.998-.958 6.865-8.868 3.185-9.178-2.831-.145-3.884 6.165-4.27 8.144l-.28-.054c-3.967-.779-7.085-1.247-11.109-.598-1.026.165-7.59 1.204-5.394 3.369.78.766 2.26.715 3.255.72a29.664 29.664 0 003.856-.284c2.014-.258 4.01-.633 5.996-1.056A11.404 11.404 0 0017.12 94.8c-.548.782-1.895 2.671-1.205 3.647s2.424-.014 3.101-.5a12.533 12.533 0 002.368-2.493 40.201 40.201 0 003.448-5.395c-.487 1.605-2.43 7.094.837 5.916 1.695-.607 2.154-3.281 2.395-4.815zM142.994 98.935c-17.128 31.962-48.79 25.83-48.79 25.83-8.215 11.56-11.997-3.465-11.997-3.465-20.656-9.294-30.838-15.935-34.954-20.678-9.566-11.006 13.56-11.78 14.148-11.798l.01-.002c-.383-15.221 2.4-25.034 6.115-31.36a25.016 25.016 0 017.69-8.364l.001-.004a18.135 18.135 0 018.13-3.085c.126-.01.191-.013.191-.013l60.713 13.85.887-.276c11.925 15.755-2.144 39.365-2.144 39.365z"/><path class="cls-7" d="M47.253 100.622c-9.566-11.006 13.56-11.78 14.148-11.798-.515.065-19.854 2.558-14.148 11.798z"/><path class="cls-22" d="M140.685 102.882c-17.506 27.494-46.481 21.884-46.481 21.884s35.27-2.02 42.895-38.758l-.07.574a43.568 43.568 0 003.656 16.3z"/><path d="M74.659 92.29l8.194-14.183L75.6 94.051s-12.72 1.13-9.81-5.949c.133-.321.266-.61.402-.879 2.867-2.465 6.032-1.238 8.468 5.067z" fill="#df6d6c"/><path class="cls-7" d="M66.184 87.22c.026-.052.053-.096.08-.146a4.945 4.945 0 011.781-2.091c3.217-1.711 6.515 6.037 6.616 6.278l.006.014 6.763-11.33 2.305-3.86-.914 2.008-8.19 14.183c-2.426-6.3-5.583-7.523-8.447-5.056z"/><path class="cls-3" d="M98.374 95.003a.597.597 0 00.087.012.554.554 0 00.581-.525c.02-.406.45-9.975-3.672-11.646-2.41-.985-5.577.837-9.698 5.537a.553.553 0 00.83.73c3.67-4.183 6.598-6.004 8.452-5.242 2.82 1.142 3.11 8.014 2.983 10.565a.555.555 0 00.437.57zM77.536 83.884a.816.816 0 00.05.009.553.553 0 00.614-.485c.722-6.21-.062-9.778-2.397-10.908-3.967-1.95-10.813 4.798-11.101 5.086a.553.553 0 00.78.786l.002-.003c1.807-1.805 7.08-6.216 9.838-4.873 1.806.874 2.422 4.257 1.78 9.784a.553.553 0 00.434.604z"/><ellipse cx="102.147" cy="102.543" rx="4.304" ry="11.554" transform="rotate(-71.488 102.147 102.543)" style="isolation:isolate" fill="#f69ca3" opacity=".2"/><path class="cls-22" d="M90.484 48.501l24.605.878 13.371 3.844 20.11 11.072 1.283 24.309-.756-.16-3.68 17.476c-25.767-7.15-39.416-29.419-39.416-29.419a33.814 33.814 0 005.863 9.569C82.558 77.55 90.484 48.5 90.484 48.5z"/><path class="cls-3" d="M91.27 44.773s-7.927 29.049 21.38 37.569a33.814 33.814 0 01-5.864-9.569s19.363 31.615 55.522 31.608l-11.465-15.616-1.487-28.199-20.11-11.071-13.372-3.844z"/><path class="cls-22" d="M139.386 99.768s21.05-14 17.835 6.606-20.213 1.623-20.213 1.623z"/><path class="cls-3" d="M142.334 104.537s8.809-8.693 10.722 2.756c0 0-2.31-7.195-10.722-2.756z"/><path class="cls-3" d="M142.334 104.537s6.636-.49 6.796 5.979c0 0 3.032-7.99-6.796-5.98z"/><path class="cls-22" d="M90.484 48.501s-8.022 18.961-26.503 17.252l1.247-3.556 4.585-6.633z"/><path class="cls-3" d="M91.141 47.597S78.6 70.846 52.655 58.788c0 0 9.969-1.644 20.444-11.297l13.165-6.326 3.826 3.276zM81.224 110.383a20.433 20.433 0 002.921.398c10.507.661 18.332-7.203 18.411-7.283l-.365-.357c-.077.077-7.747 7.778-18.02 7.13-7.133-.456-13.83-4.745-19.907-12.757l-.407.31c5.341 7.041 11.17 11.254 17.367 12.559z"/><path class="cls-3" d="M103.36 103.99a7.92 7.92 0 003.265-.274l-.146-.49c-.836.251-3.16.704-3.885-.197-.454-.564-.249-1.664.594-3.182l-.447-.249c-.965 1.74-1.15 3.003-.546 3.752a1.972 1.972 0 001.165.64z"/><path class="cls-25" d="M138.141 82.759a46.47 46.47 0 008.676.993l.021-1.106c-32.123-.633-51.733-35.301-51.928-35.65l-.967.536c.179.323 16.622 29.42 44.198 35.227z"/><path class="cls-25" d="M120.234 61.598a26.465 26.465 0 005.746.651l-.044-1.104c-.163.005-16.412.45-27.725-15.733l-.906.635a37.126 37.126 0 0022.93 15.551z"/></g></svg>