<svg xmlns="http://www.w3.org/2000/svg" xmlns:xlink="http://www.w3.org/1999/xlink" width="200" height="200" viewBox="0 0 200 200"><defs><style>.cls-1,.cls-30,.cls-4{fill:none;}.cls-2{isolation:isolate;}.cls-3{fill:#f6f6f6;}.cls-4{stroke:#c9c9c9;stroke-width:2px;}.cls-30,.cls-4{stroke-miterlimit:10;}.cls-5{fill:#909295;}.cls-6{fill:#e7be99;}.cls-7{clip-path:url(#clip-path);}.cls-8{clip-path:url(#clip-path-2);}.cls-11,.cls-12,.cls-13,.cls-14,.cls-15,.cls-16,.cls-17,.cls-18,.cls-19,.cls-20,.cls-33,.cls-39,.cls-9{mix-blend-mode:multiply;}.cls-9{fill:url(#linear-gradient);}.cls-10,.cls-31{fill:#fff;}.cls-11{fill:url(#linear-gradient-2);}.cls-12{fill:url(#linear-gradient-3);}.cls-13{fill:url(#linear-gradient-4);}.cls-14{fill:url(#linear-gradient-5);}.cls-15{fill:url(#linear-gradient-6);}.cls-16{fill:url(#linear-gradient-7);}.cls-17{fill:url(#linear-gradient-8);}.cls-18{fill:url(#linear-gradient-9);}.cls-19{fill:url(#linear-gradient-10);}.cls-20{fill:url(#linear-gradient-11);}.cls-21{fill:#e5bc98;}.cls-22{fill:#e6bd98;}.cls-23{fill:#cd9b78;}.cls-24{fill:#603913;}.cls-25{fill:#e6bd99;}.cls-26,.cls-27{fill:#ce9c78;}.cls-26{opacity:0.3;}.cls-28{fill:#e87583;}.cls-29{fill:#754c29;}.cls-30{stroke:#c3922e;stroke-width:0.45px;}.cls-31{opacity:0.4;}.cls-32{fill:#c3922e;}.cls-33{fill:#231f20;opacity:0.1;}.cls-34{fill:#fbcc34;}.cls-35{fill:#db9c94;}.cls-36{clip-path:url(#clip-path-3);}.cls-37{fill:#009144;}.cls-38{fill:#221f1f;}.cls-39{opacity:0.2;}.cls-40{clip-path:url(#clip-path-4);}</style><clipPath id="clip-path"><polyline class="cls-1" points="346.42 123.3 345.39 169.06 321.27 168.78 318.88 122.32"/></clipPath><clipPath id="clip-path-2"><rect class="cls-1" x="276.49" y="-26.03" width="224.01" height="223.72"/></clipPath><linearGradient id="linear-gradient" x1="-90426.9" y1="-97438.51" x2="-90377.49" y2="-97338.43" gradientTransform="translate(97609.14 -90179.41) rotate(-90)" gradientUnits="userSpaceOnUse"><stop offset="0.05" stop-color="#fff" stop-opacity="0"/><stop offset="0.14" stop-color="#fcfefd" stop-opacity="0.05"/><stop offset="0.3" stop-color="#f3faf9" stop-opacity="0.18"/><stop offset="0.51" stop-color="#e5f4f1" stop-opacity="0.4"/><stop offset="0.77" stop-color="#d1ebe7" stop-opacity="0.7"/><stop offset="1" stop-color="#bde3dc"/></linearGradient><linearGradient id="linear-gradient-2" x1="-96657.71" y1="86786.75" x2="-96608.31" y2="86886.84" gradientTransform="translate(96894.15 -86628.14)" xlink:href="#linear-gradient"/><linearGradient id="linear-gradient-3" x1="93797.78" y1="-91208.86" x2="93847.18" y2="-91108.78" gradientTransform="translate(94057.86 -90894.4) rotate(180)" xlink:href="#linear-gradient"/><linearGradient id="linear-gradient-4" x1="-96685.05" y1="86850.98" x2="-96611.94" y2="86850.98" gradientTransform="translate(96894.15 -86628.14)" gradientUnits="userSpaceOnUse"><stop offset="0.05" stop-color="#fff" stop-opacity="0"/><stop offset="0.2" stop-color="#f2faf8" stop-opacity="0.19"/><stop offset="0.49" stop-color="#dcf0ec" stop-opacity="0.53"/><stop offset="0.73" stop-color="#cbe9e3" stop-opacity="0.79"/><stop offset="0.91" stop-color="#c1e5de" stop-opacity="0.94"/><stop offset="1" stop-color="#bde3dc"/></linearGradient><linearGradient id="linear-gradient-5" x1="-90203.18" y1="-97438.51" x2="-90153.77" y2="-97338.43" xlink:href="#linear-gradient"/><linearGradient id="linear-gradient-6" x1="-96656.55" y1="86562.46" x2="-96607.14" y2="86662.54" gradientTransform="translate(96894.15 -86628.14)" xlink:href="#linear-gradient"/><linearGradient id="linear-gradient-7" x1="87344.42" y1="93015.83" x2="87393.82" y2="93115.91" gradientTransform="translate(93342.88 -87343.13) rotate(90)" xlink:href="#linear-gradient"/><linearGradient id="linear-gradient-8" x1="93797.78" y1="-90985.15" x2="93847.18" y2="-90885.06" gradientTransform="translate(94057.86 -90894.4) rotate(180)" xlink:href="#linear-gradient"/><linearGradient id="linear-gradient-9" x1="-96685.05" y1="86627.26" x2="-96611.94" y2="86627.26" xlink:href="#linear-gradient-4"/><linearGradient id="linear-gradient-10" x1="-12217.18" y1="-126875.16" x2="-12181.76" y2="-126803.4" gradientTransform="translate(81289.54 -98182.28) rotate(-135)" xlink:href="#linear-gradient"/><linearGradient id="linear-gradient-11" x1="-126112.15" y1="8601.93" x2="-126076.73" y2="8673.7" gradientTransform="translate(83294.96 -95165.72) rotate(-45)" xlink:href="#linear-gradient"/><clipPath id="clip-path-3"><path class="cls-1" d="M77.09,64.43s2,14.41,15.87,7.11c0,0-6-10.34-15.9-7.28"/></clipPath><clipPath id="clip-path-4"><path class="cls-1" d="M127,82.37s-11.65,8.72-16.23-6.25c0,0,11.54-3.05,16.37,6.16"/></clipPath></defs><title>Artboard 108 copy 7</title><g class="cls-2"><g id="Layer_1" data-name="Layer 1"><circle class="cls-3" cx="100" cy="100" r="69.73"/><circle class="cls-4" cx="100" cy="100" r="69.73"/><path class="cls-5" d="M109.14,138a50,50,0,0,1-9.75-4.3L101,131c25.16,14.49,52.26-.35,52.53-.5l1.53,2.73C154.77,133.35,132.61,145.49,109.14,138Z"/><path class="cls-6" d="M152.34,131.38c-2.55-.89-9.51-9.8-5.1-10.69,3.42-.57,5.54,6.94,6.27,9.28l.34-.1a21.91,21.91,0,0,1,4.54-1.67c2.46-.56,14.71-1.95,15.93,1.27,1.85,4.28-13.57,2.77-16.07,2.53,4,.49,10.56,4.24,10.8,8.73-3.9,2.57-10.09-6.22-12-8.92.81,1.88,3.9,8.26-.21,7.29-2.14-.5-3.06-3.67-3.56-5.51"/><g class="cls-7"><g class="cls-8"><path class="cls-9" d="M290.62,195.56a69.6,69.6,0,0,0-126.09,40.68,84,84,0,0,0,24.69,59.62l3.6-3.6a69.62,69.62,0,0,1,56-110.94A54.76,54.76,0,0,1,290.93,201C290.83,199.19,290.72,197.38,290.62,195.56Z"/><path class="cls-10" d="M297.5,214.43l-.39-.39A26.88,26.88,0,0,1,291,201.33c0-.1,0-.21,0-.32a54.53,54.53,0,1,0,9.53,16.44A21.71,21.71,0,0,1,297.5,214.43Z"/><path class="cls-11" d="M290.55,194.44A27,27,0,0,1,295,181.38l4.78-5.43c.3-.29.61-.55.92-.81a69.35,69.35,0,0,0-51.84-23.21,84,84,0,0,0-59.62,24.69l3.6,3.6a69.59,69.59,0,0,1,97.79,15.34C290.59,195.19,290.57,194.81,290.55,194.44Z"/><path class="cls-12" d="M248.84,320.56a84,84,0,0,0,59.62-24.69l-3.6-3.6a69.62,69.62,0,0,1-110.94-56,54.91,54.91,0,0,1,54.92-54.91,69.62,69.62,0,1,0,0,139.23Z"/><path class="cls-13" d="M274.14,197.41a45.35,45.35,0,0,0-64.12,0,54.74,54.74,0,0,0-16.09,38.84h3.32A45.34,45.34,0,0,1,274.14,211a35.77,35.77,0,0,1,0,50.59A45.34,45.34,0,0,0,274.14,197.41Z"/><path class="cls-14" d="M164.53,12.52a84,84,0,0,0,24.69,59.62l3.6-3.59a69.63,69.63,0,0,1,56-110.95,54.92,54.92,0,0,1,54.92,54.92,69.62,69.62,0,1,0-139.23,0Z"/><path class="cls-10" d="M303.77,12.53a54.92,54.92,0,1,1-54.92-54.92A54.92,54.92,0,0,1,303.77,12.53Z"/><path class="cls-15" d="M248.85-71.79a84,84,0,0,0-59.62,24.7l3.6,3.6a69.28,69.28,0,0,1,41.32-13.6,69.62,69.62,0,0,1,69.62,69.62,54.92,54.92,0,0,1-54.92,54.92A69.62,69.62,0,0,0,318.47-2.17,69.62,69.62,0,0,0,248.85-71.79Z"/><path class="cls-16" d="M333.16,12.53a84.06,84.06,0,0,0-24.7-59.62l-3.59,3.6A69.3,69.3,0,0,1,318.46-2.17a69.62,69.62,0,0,1-69.62,69.62,54.91,54.91,0,0,1-54.91-54.92,69.62,69.62,0,1,0,139.23,0Z"/><path class="cls-17" d="M248.84,96.84a84,84,0,0,0,59.62-24.69l-3.6-3.6a69.3,69.3,0,0,1-41.32,13.59,69.62,69.62,0,0,1-69.62-69.61,54.92,54.92,0,0,1,54.92-54.92,69.62,69.62,0,1,0,0,139.23Z"/><path class="cls-18" d="M274.14-26.3a45.33,45.33,0,0,0-64.12,0,54.7,54.7,0,0,0-16.09,38.83h3.32a45.34,45.34,0,0,1,76.89-25.29,35.76,35.76,0,0,1,0,50.58A45.33,45.33,0,0,0,274.14-26.3Z"/><path class="cls-19" d="M206.09,167.31A60.26,60.26,0,0,0,248.84,185v-3.65A49.91,49.91,0,0,1,221,96.72a39.36,39.36,0,0,1,55.68,0,49.91,49.91,0,1,0-70.59,70.59Z"/><path class="cls-20" d="M206.1,81.81a60.26,60.26,0,0,0-17.71,42.75H192a49.91,49.91,0,0,1,84.65-27.84,39.36,39.36,0,0,1,0,55.68A49.91,49.91,0,0,0,206.1,81.81Z"/></g></g><path class="cls-5" d="M70.33,143.37c2.18-3,6.38-5.6,8.36-6.58l-.81-1.66.81,1.66-1.63-3.33c-.85.42-6.25,3.18-9.44,7.34A11,11,0,0,1,70.33,143.37Z"/><path class="cls-21" d="M69,147.19a6.33,6.33,0,0,1,1.55-4.08,8.09,8.09,0,0,1-2.69-2.58,10.13,10.13,0,0,0-2.56,6.85c.26,5,5.08,9.19,14.73,12.72l1.27-3.48C73.4,153.74,69.14,150.48,69,147.19Z"/><path class="cls-5" d="M82.69,168.31l.14.08,1-.06A25.93,25.93,0,0,1,88,169l1.58-.1a20.43,20.43,0,0,1,6,1.1H105.9l1.67-41.77-31.26-1.11,2.76,40.29A29.6,29.6,0,0,1,82.69,168.31Z"/><path class="cls-22" d="M80.78,135.69s10.28,32.14,23,.62l-22.31-.62"/><path class="cls-23" d="M81.62,138a48.14,48.14,0,0,0,22.14-2.78l-1.41,4.38S92.81,145.36,81.62,138Z"/><path class="cls-23" d="M88.57,146c-.16,0,3.88.29,3.19,4.14C91.76,150.13,91.34,146.75,88.57,146Z"/><path class="cls-23" d="M95.17,146c.16,0-3.88.29-3.19,4.14C92,150.13,92.4,146.75,95.17,146Z"/><path class="cls-24" d="M56.59,103.33s2.71,10.28,15.13,13.21l-6.61-12.32Z"/><path class="cls-24" d="M61.48,81c-.62,3.58-3.47,7-6.59,8.74-3.35,1.87-7.65,1.47-9.28-2.34-.92-2.12-.18-4.84,2-2.17-.64-.78.21-2-.39-2.81-1.45-2-4.74,1-5.77,2.13A10.26,10.26,0,0,0,38.92,91a17.6,17.6,0,0,0,5.46,12.92,13.21,13.21,0,0,0,9.24,3.79c7.77,0,14.05-7.05,14.09-14.64"/><path class="cls-24" d="M59.22,55.48S63.39-2,116.38,10L105.9,52.51Z"/><path class="cls-24" d="M148.64,36.06S164,57.6,141.78,87c0,0-13.44-52.48-6.48-56.21S148.64,36.06,148.64,36.06Z"/><path class="cls-24" d="M86.57,20.71c-40.95,29.75-14.49,61.4-14.49,61.4a33.41,33.41,0,0,1-3.53,5c1.94,1.29,3.65,3.12,3.93,5.4a10.09,10.09,0,0,1-.62,5.06l.18.17a4.23,4.23,0,0,1,.81,1,32.86,32.86,0,0,0,4.78-3.3C95.66,80.7,122,34.77,122,34.77s11.07,6.35,23-2.7C145,32.07,127.53-9,86.57,20.71Z"/><path class="cls-25" d="M138,37.14a4.72,4.72,0,0,1-4.35.53c-7.33-3.06-14.93-5.83-22.8-7.12l-.9-.12c-.48-.06-1-.12-1.42-.16-.94-.09-1.88-.17-2.82-.21s-2.17-.06-3.26,0q-.69,0-1.38.06l-.92.09a31.4,31.4,0,0,0-5.28,1.13L94,31.6l-.82.34c-.85.38-1.66.78-2.47,1.23-2.39,1.32-6.06,1.1-7.64-1-10.28,11.6-14.6,27-15.78,25.95.12.11-4.33,11.69-4.5,12.32A61.23,61.23,0,0,0,62.22,102c1.81,7,5,14.18,7.87,20.83,3,6.84,8,13.19,15.09,16a20.37,20.37,0,0,0,13.73.42c5-1.68,9-5.62,13-8.81,13.48-10.53,25.85-23.77,31.67-40.14C143.62,90.3,157,60.1,138,37.14Z"/><path class="cls-26" d="M133.25,36.82l-31.94-7.5S80.65,34,80.78,34.87c.09.64-5.82,5.88-8.61,8.32a15.19,15.19,0,0,1-.52,4L70.9,49c-.06.42-.13.85-.23,1.27a15.39,15.39,0,0,1-1.24,3.15l-.29,2s22.54-29.54,67.6-14.07Z"/><path class="cls-27" d="M71.62,105.38s-3-9.43,7.85-4.67C79.47,100.71,71.9,97.72,71.62,105.38Z"/><path class="cls-27" d="M115.68,108s8.12-3.4,4.73,6.6C120.41,114.61,122.48,107.68,115.68,108Z"/><path d="M75.44,106.56c6.9.39,13.26,3.34,20,4.88,3,.68,5.81,2.06,8.78,2.92,1.47.42,3,.68,4.45,1.13.42.13,3.49,1.18,3.32.85a4.39,4.39,0,0,0,.78,1.07c-5,5-13.33,10.68-23.29,7-11.08-4-13.75-12.76-14.32-17.95Z"/><path class="cls-10" d="M117.82,111.27l-42.72-8.9a21.12,21.12,0,0,0,.24,5.37l36.25,10.81A39.73,39.73,0,0,0,117.82,111.27Z"/><path class="cls-28" d="M81.1,119.38a22.71,22.71,0,0,0,8.29,5.08,18.36,18.36,0,0,0,5.85,1.14C91.11,114.91,84.32,117.39,81.1,119.38Z"/><path class="cls-24" d="M142.84,81.94s12.25-37.85-16.29-45.85-54.39.26-57.92,24.39l2.65-24.3L91.51,23.34l22.92,1.08,21.26,6.18,11.07,8.83,3.87,6.13,2.22,7.65-6.54,28.73Z"/><path class="cls-29" d="M136.28,40.1s-13.5-19.64-38.61-17.88c0,0,24.76,1,38.61,17.88"/><path class="cls-29" d="M136.74,40.44s.48-5.52,7-8.76C143.76,31.68,137.39,35.87,136.74,40.44Z"/><path class="cls-6" d="M69.76,56.31s-1.07-12-10.64-8.5c-6.5,2.37-5.52,7.55-3.29,11.77A32,32,0,0,0,60.44,66a7.31,7.31,0,0,1,.09,9.61c-4.07,5.16-4.91,7.39-3.35,9.08s6,1.61,7.56-2C71.28,67.33,69.76,56.31,69.76,56.31Z"/><path class="cls-27" d="M66.36,67.78s-1.69-12.41-4.23,1.3C62.13,69.08,64.46,60.61,66.36,67.78Z"/><path class="cls-27" d="M66.32,67.7S66,44.22,60.38,59.86C60.38,59.86,65,51.85,66.32,67.7Z"/><path class="cls-24" d="M136.74,40.55s-7,11.66,7.1,39.94l5.91-10.39L147.81,52Z"/><path class="cls-6" d="M142.9,81s6.33-8.23,11.68-1.26c3.64,4.73.53,8.06-3.05,10.1a28.22,28.22,0,0,1-6.32,2.52,6.32,6.32,0,0,0-4.53,7c.58,5.65.16,7.66-1.76,8.17s-5.16-1.63-4.6-4.93C136.68,88.34,142.9,81,142.9,81Z"/><path class="cls-27" d="M140.06,90.94s7-8.25,2.47,2.91C142.53,93.85,144.76,86.6,140.06,90.94Z"/><path class="cls-27" d="M140.12,90.9s11.1-17,8-3C148.08,88,148.46,80,140.12,90.9Z"/><path class="cls-24" d="M115.72,66c-.13.09,14.3-9.51,22.77,6.22C138.49,72.22,130.88,61.93,115.72,66Z"/><path class="cls-24" d="M74.08,50.68c-.16.07,16.58-7.81,26,9.36C100.1,60,91.55,48.54,74.08,50.68Z"/><path class="cls-29" d="M136.42,38.43S124.6,6.47,97.48,10.7C97.48,10.7,119.25,8.2,136.42,38.43Z"/><path class="cls-27" d="M60.46,85.68a5.2,5.2,0,0,0,2.65-1.19S62,86.55,60.51,87l-.2-1.25"/><path class="cls-27" d="M135,106.82A6.55,6.55,0,0,1,134,103s.77,2.58,1.53,3.16Z"/><line class="cls-30" x1="138.03" y1="112.75" x2="137.8" y2="105.21"/><path class="cls-27" d="M138.41,105.19a.62.62,0,0,0-1.23,0,.62.62,0,1,0,1.23,0Z"/><path class="cls-27" d="M59.62,83.81a.6.6,0,0,0-.6-.62.61.61,0,1,0,.6.62Z"/><path class="cls-31" d="M134.76,77.68a24.83,24.83,0,0,1-4.56-1.83,27.2,27.2,0,0,1-8.38-3.68L120,70.57c-2-.27-3.56-.39-3.56-.39l-9.71.79-6.6-3.11-12.33-7c-2.27-1.37-14.91-3.26-14.91-3.26l-1.17,2-1,4.69v4.79l1,3.75,2,3.65,5.89,3,6.9,1.47,7-1.09s5.61-6.68,5.77-6.91,2-3.83,2-3.83l6.38,2.55.69,1.2-.15,5.64.69,3.93.92,2.34a11.08,11.08,0,0,0,1.31,1.91c.23,0,6,3.87,6,3.87l4,1.38,6,.38s5.19-1.81,5.29-1.89,3-4.18,3-4.18,3-4.15,3-4.38.34-1.84.61-3.2A40.12,40.12,0,0,1,134.76,77.68Z"/><path class="cls-32" d="M142.48,117.53a4.45,4.45,0,1,0-4.3,4.58A4.44,4.44,0,0,0,142.48,117.53Z"/><path class="cls-33" d="M135,114.47s2.88,3.64,5.16-.73l-4.3.08A3.21,3.21,0,0,0,135,114.47Z"/><path class="cls-34" d="M140.11,113.15a2.19,2.19,0,1,0-2.12,2.26A2.19,2.19,0,0,0,140.11,113.15Z"/><path class="cls-32" d="M135.87,112.45a5.85,5.85,0,0,1,4.1,0l-.22-1.42a4.12,4.12,0,0,0-3.7,0Z"/><line class="cls-30" x1="59.22" y1="91.33" x2="58.98" y2="83.8"/><path class="cls-27" d="M59.6,83.78a.62.62,0,0,0-1.23,0,.62.62,0,0,0,1.23,0Z"/><path class="cls-32" d="M63.66,96.11a4.44,4.44,0,1,0-4.3,4.58A4.43,4.43,0,0,0,63.66,96.11Z"/><path class="cls-33" d="M56.14,93.05S59,96.7,61.3,92.32l-4.3.09A2.9,2.9,0,0,0,56.14,93.05Z"/><path class="cls-34" d="M61.29,91.74A2.19,2.19,0,1,0,59.17,94,2.18,2.18,0,0,0,61.29,91.74Z"/><path class="cls-32" d="M57.05,91a5.92,5.92,0,0,1,4.1,0l-.21-1.41a4.1,4.1,0,0,0-3.71,0Z"/><path d="M72.61,76.59a14,14,0,0,1-4.45-8.83c-.06-.47-.09-1-.11-1.53-.1-2.07-.28-3.7-1.48-4.16l-.17,0-.05,0a.81.81,0,0,1-.36-.3.7.7,0,0,1-.07-.51c.41-1.61,1.74-6.85,1.79-7l.34-1.11a.61.61,0,0,1,.8-.4L73.7,54.3a26.91,26.91,0,0,0,2.88.71c.66.13,1.34.27,2,.45a68.6,68.6,0,0,1,7.35,2.35c.83.32,1.65.65,2.44,1a43.39,43.39,0,0,1,8.56,5l1.15.86a24.92,24.92,0,0,0,5.82,3.61l.17.06.12,0,.18.06.3.1.09.05a23.24,23.24,0,0,0,6.76.91l1.41,0a41.88,41.88,0,0,1,9.64,1.5c1.76.51,3.55,1.12,5.33,1.8q2.17.84,4.37,1.85c.62.29,1.25.62,1.85.94A25.79,25.79,0,0,0,136.83,77l4.78,1.84a.69.69,0,0,1,.41.84l-.34,1.11c-.05.16-2,5.66-2.44,6.76a.58.58,0,0,1-.34.36.64.64,0,0,1-.47,0l-.12,0c-1.25-.49-2.27.67-3.56,2.35-.32.42-.63.82-.94,1.15a12.25,12.25,0,0,1-8.45,4.2,17.51,17.51,0,0,1-7.19-1.35,43.79,43.79,0,0,1-5.72-2.8c-3.18-1.8-5.06-3.92-5.92-6.67a26.89,26.89,0,0,1-.89-7.76c0-.34,0-.76.06-1.21a6.69,6.69,0,0,0-.08-2.55,4.37,4.37,0,0,0-2.22-1.43,4.12,4.12,0,0,0-2.61-.3c-.44.19-1.07,1.27-1.48,2-.22.38-.43.74-.62,1a24.27,24.27,0,0,1-5,5.65c-2.21,1.64-4.89,2.12-8.43,1.52A38.28,38.28,0,0,1,78,79.76,17.33,17.33,0,0,1,72.61,76.59ZM85,60.32a40.76,40.76,0,0,0-12.33-2.58c-.74,1.45-3.47,7.46-1.48,12.75,1.17,3.11,3.79,5.46,7.79,7,.42.16.86.31,1.31.46,5.19,1.65,9.33,1.46,12.31-.56,3.84-2.62,4.62-7.6,4.75-8.78A31,31,0,0,0,85,60.32Zm41.09,14.76c-8.44-3.25-14.78-2.18-16.07-1.91-.55,1-2.69,5.5-1.06,10.09,1.26,3.56,4.48,6.39,9.56,8.42l.3.12c4.42,1.7,8.1,1.66,10.94-.1,4.67-2.88,5.84-9.62,6.06-11.29A43.17,43.17,0,0,0,126.05,75.08Z"/><path d="M68.67,53.3l-.34,1.11-1.78,7c2.46.7,2,4.24,2.26,6.32A13.35,13.35,0,0,0,73,76.1c3.36,3,8.1,4.14,12.31,4.87,2.8.47,5.56.37,8-1.41a23.84,23.84,0,0,0,4.87-5.51c.61-.85,1.49-2.83,2.37-3.2a5.09,5.09,0,0,1,3,.28,5.47,5.47,0,0,1,2.6,1.75c.5.87.11,3,.13,4.09a26.71,26.71,0,0,0,.85,7.57c.93,3,3.09,4.84,5.59,6.27,3.78,2.14,8.22,4.28,12.56,4.06a11.78,11.78,0,0,0,8-4c1.37-1.49,2.95-4.64,5.3-3.61,0,0,2.38-6.59,2.43-6.74l.34-1.11-4.78-1.83c-1.57-.6-3.07-1.54-4.6-2.25a67.42,67.42,0,0,0-9.6-3.61,40.79,40.79,0,0,0-9.49-1.48c-2.85-.13-5.74-.06-8.47-1h0l-.27-.09-.26-.1h0c-2.73-1-5-2.91-7.37-4.65a43.54,43.54,0,0,0-8.42-5,67.1,67.1,0,0,0-9.69-3.31c-1.62-.43-3.34-.65-4.93-1.18Zm70,33.88c0-.07.05-.14.06-.18S138.68,87.13,138.66,87.18ZM109.54,72.59s12.13-3.31,26.93,7.53c0,0-1.59,18.81-18.2,12.17S109.54,72.59,109.54,72.59ZM72.24,57.06C90.09,57.94,98,68.44,98,68.44S97.08,84,80.09,78.58,72.24,57.06,72.24,57.06Zm-5.62,4s0,.12-.05.19S66.6,61.18,66.62,61.11Z"/><path class="cls-35" d="M99.37,90.36,102.56,71l-8.9,18.73s-3.74-8.18-7-1.15c-1.78,3.86.89,4.83,3.66,4.91-.58,1-.47,2,1.41,3,2.6,1.36,3.81-.25,4.38-2,2.38,2.65,7.78,7.31,9.2-1.28C106.48,86.24,99.37,90.36,99.37,90.36Z"/><path class="cls-10" d="M93.64,89.84s-3.42-7.47-6.55-2c3.35-2.52,6.39,3.42,6.39,3.42l9.06-20.17Z"/><path class="cls-10" d="M77.09,64.52s2,14.41,15.87,7.11c0,0-6-10.33-15.9-7.28"/><g class="cls-36"><path class="cls-37" d="M82.79,63.26a4,4,0,1,1-5.11,2.3A3.95,3.95,0,0,1,82.79,63.26Z"/><path class="cls-38" d="M81.82,65.06a2,2,0,1,1-2.5,1.12A1.94,1.94,0,0,1,81.82,65.06Z"/><path class="cls-10" d="M83,66.5A.79.79,0,1,1,82,67,.8.8,0,0,1,83,66.5Z"/></g><path class="cls-38" d="M93,71.54c-.12-.14-.11-.67-.19-.86a12.65,12.65,0,0,0-1.08-1.93,12,12,0,0,0-6.76-5.06,32,32,0,0,0-3.8-.94c-1.64-.33-3.34-.44-5-.83a9.45,9.45,0,0,1-4.1-2.08,7.35,7.35,0,0,1-1.51-1.7,4.47,4.47,0,0,1-.62-2S69,61,74.68,64c0,0-1.8.3-4.62-1.65,0,0,.8,1.59,3.71,3.17A6,6,0,0,1,76,67.23c.71,1.08,1,2.32,1.82,3.39a7,7,0,0,0,2.85,2.29,8.71,8.71,0,0,0,2.15.62,13.59,13.59,0,0,0,1.69.14c.44,0,1-.09,1.38,0,0,0-7.92-.77-7.69-9C78.22,64.61,85.38,62.45,93,71.54Z"/><path class="cls-39" d="M77.48,65.62s6.87-1.05,15.48,6L90,68.25l-4.48-2.92-4.62-1.56-2.12.17Z"/><path class="cls-10" d="M127,82.44s-11.65,8.72-16.23-6.26c0,0,11.53-3.05,16.36,6.16"/><g class="cls-40"><path class="cls-37" d="M116.24,73.92a4,4,0,1,0,2,5.25A3.93,3.93,0,0,0,116.24,73.92Z"/><path class="cls-38" d="M115.07,76.05a2,2,0,1,0,1,2.57A1.93,1.93,0,0,0,115.07,76.05Z"/><path class="cls-10" d="M116.57,77.9a.79.79,0,1,0,.39,1A.78.78,0,0,0,116.57,77.9Z"/></g><path class="cls-38" d="M110.8,76.12c.19,0,.56-.39.75-.47a11.8,11.8,0,0,1,2.13-.6A12.07,12.07,0,0,1,122,76.28a36.08,36.08,0,0,1,3.35,2c1.39.94,2.66,2.07,4.09,3a9.53,9.53,0,0,0,4.36,1.45,7.79,7.79,0,0,0,2.27-.13,4.58,4.58,0,0,0,1.82-.94s-2.75,4-8.87,2.11c0,0,1.06,1.49,4.42,2.12a8.86,8.86,0,0,1-4.85-.4,6.06,6.06,0,0,0-2.82-.37c-1.27.25-2.38.9-3.7,1.09a7,7,0,0,1-3.63-.41,8.52,8.52,0,0,1-2-1.09,15,15,0,0,1-1.29-1.1,12.9,12.9,0,0,0-.94-1s6.13,5.08,11.82-.89C126.11,81.7,122.6,75.1,110.8,76.12Z"/><path class="cls-39" d="M125.92,82.93s-4.1-5.61-15.18-6.75l4.47-.29L120.45,77l4.36,2.18,1.37,1.62Z"/><path class="cls-4" d="M74.27,164.84a70.41,70.41,0,0,0,35,4.28"/></g></g></svg>