<svg fill="none" xmlns="http://www.w3.org/2000/svg" viewBox="0 0 336 64">
  <path d="M174.6 30A21.8 21.8 0 01153 46.5a21.9 21.9 0 11-.1-43.9 21.8 21.8 0 0121.7 16.8h-11.4a11 11 0 00-10.3-7.3c-7.4 0-11.4 6.3-11.4 12.3 0 6.4 4.3 12.6 11.4 12.6 6.8 0 9.6-5.7 10.3-7.2h11.4zM192.9 13c11.6 0 17.1 9.1 17.1 17 0 7.7-5.5 16.7-17.1 16.7-11.6 0-17.2-9-17.2-16.8 0-7.8 5.6-16.8 17.2-16.8zm0 24.9c4.1 0 7.6-3.4 7.6-8s-3.5-8-7.6-8a7.7 7.7 0 00-7.6 8c0 4.6 3.5 8 7.6 8zM241 46h-9l.1-3.9h-.1c-2 4-5.9 4.4-8.3 4.4-2 0-6.5-.4-9.4-4-2.5-3.1-2.8-5.4-2.8-9.7v-19h9.5v17.6c0 2.1 0 6.3 5.1 6.3 2.8 0 5.5-1.4 5.5-6.4V13.9h9.6l-.1 32zM276.1 13.9h-9.6v32h9.6V14zM271.2 0a5.7 5.7 0 010 11.5c-3 0-5.5-2.6-5.5-5.8 0-3.1 2.5-5.7 5.5-5.7zM322.7 46h-10.3V13.8h10.3v32zm6.6-32.7c3.8 0 6.7 2.7 6.7 6.4 0 3.5-2.9 6.3-6.7 6.3a6.4 6.4 0 01-6.6-6.3c0-3.7 3-6.4 6.6-6.4zM310.2 36a18.8 18.8 0 01-6.6 8.1c-2.6 2-5.8 2.9-9.1 2.9a17 17 0 01-.2-34.2 17 17 0 0117 17.5L311 33H287c.6 3.8 3.7 6 7.5 6 3 0 4.5-1.3 5.8-3h9.9zm-8.5-9.6a7 7 0 00-7.3-5.5 7 7 0 00-7.3 5.5h14.6zM252.5 46H243V13.8h9.5v32zm6.3-32.7c3.5 0 6.3 2.7 6.3 6.4 0 3.5-2.8 6.3-6.3 6.3a6.2 6.2 0 01-6.3-6.3c0-3.7 2.8-6.4 6.3-6.4zM102.6 14.3a.4.4 0 100 .7.4.4 0 000-.7z" fill="black"/>
  <path d="M97 2.3a22.4 22.4 0 10-.1 44.7 22.4 22.4 0 000-44.7zm8.7 13.5h-.2c-3 .3-.6 4.4-.6 4.4.8 1.7.9 2.3.9 3.6 0 3.2-2.3 6-4.9 7.4 0 0-1.6 1.9-1.5 2.7l.5 1h1.6c.3 0 .6.3.6.6h-4.3c0-.3.3-.6.7-.6h.3s-1.5-.7-1.7-2.5c-4.3 1.3-8-.7-8-.7s-6.7 2.4-7.7 1.7c.5-.5 4.3-2.4 5-2.8C97.7 24.2 98.6 22 98.6 22c1.4-1.8 1-3.8 1.4-5.7l.3-1.2c.2-1.1 1.1-1.9 2.2-1.8.9 0 1.6.6 1.9 1.3 0 0-.3.3 0 .5.3 0 .4-.3.4-.3.6.2 1 .5 1.1 1l-.3.1zM67 2L50.3 47.3 66.9 2z" fill="black"/>
  <path d="M67 2L50.3 47.3" stroke="black"/>
  <path fill-rule="evenodd" clip-rule="evenodd" d="M32.2 23.6h1V22c-.2-1.1-.5-1.8-1.2-1.7-.6.1-.6 1-.4 2 .1.6.3 1.1.6 1.4zM26.8 24.5c.4.1.7.3.8.2v-.4c-.3-.4-.7-.7-1.2-1-1-.4-2.2-.2-3.1.4-.3.2-.6.5-.6.7l.2.1c.2 0 1.1-.4 2.1-.4.7 0 1.3.2 1.8.4zM25.9 25c-.6 0-1 .2-1.2.4l-.2.5v.1l.5-.1c.8-.3 1.4-.3 2-.2h.4v-.2c-.1-.3-.7-.6-1.5-.5zM30.4 26.8c.4.2.8.2 1-.1 0-.3-.1-.7-.5-.9-.4-.2-.9-.1-1 .2-.1.3 0 .6.5.8zM33 24.6c-.4 0-.7.4-.7.8 0 .5.3.8.6.8s.6-.3.6-.8c0-.4-.2-.8-.6-.8zM11.1 32.5h-.6a.7.7 0 01-.6-.2v-1l.1-.1c.3-.6.7-1.6.2-2.5-.3-.7-1-1.1-1.7-1.2-.7-.1-1.4.2-1.8.7-.7.7-.9 1.8-.7 2.2l.2.2c.1 0 .3-.1.4-.4V30l.3-.7c.2-.3.5-.5.8-.6.4 0 .7 0 1 .2.5.3.7 1 .5 1.5-.1.3-.3 1-.2 1.4 0 1 .6 1.3 1.2 1.4.5 0 .9-.3 1-.5v-.3z" fill="black"/>
  <path fill-rule="evenodd" clip-rule="evenodd" d="M16 15a20 20 0 015.7-4.5h.1l-.5 1.3c0 .1 0 .2.1.1 1.2-.8 3.2-1.6 5-1.7v.1l-.8.8.1.1c1.2 0 3 .5 4.1 1v.3A17.1 17.1 0 0016.2 15H16zm15.5 19.6v-.2s0-.1 0 0c0 0-3.7.4-7.1-.8.4-1.2 1.4-.8 2.9-.6 2.7.1 5-.3 6.9-.8a16 16 0 005.1-2.5c.6 1.1.7 2.4.7 2.4s.5 0 .8.2c.3.2.6.6.4 1.6-.3 2-1.2 3.6-2.6 5.1a13.4 13.4 0 01-5.2 3.2c-5.5 1.7-11-.2-12.8-4.3l-.3-1c-.8-2.7-.2-6 1.9-8l.2-.5c0-.1 0-.3-.2-.4-.7-1-3.1-2.8-2.6-6.1.3-2.4 2.4-4 4.4-4h.5l2.3.2c1.2 0 2.3-.1 3.5-1.1.5-.4.8-.7 1.4-.8h.5c.3 0 .6 0 .9.2 1 .7 1.1 2.3 1.2 3.5l.1 2.7c0 1.1.4 1.3 1 1.4l1 .3a6 6 0 012.6 1.3c.3.3.5.6.5.9.2 1.1-.9 2.5-3.7 3.8a19 19 0 01-10.1 1.4c-2-.3-3.2 2.3-2 4 .8 1.2 3 2 5 2 5 0 8.8-2.1 10.2-3.9l.1-.1v-.1c-1.2.7-6.3 3.8-11.8 2.9 0 0-.7-.1-1.3-.4-.5-.1-1.5-.6-1.6-1.6 4.4 1.3 7.2 0 7.2 0zM7.3 24.2a5.9 5.9 0 00-3.8 2.4A10 10 0 012 25c-1.4-2.5 1.4-7.3 3.3-10C10.1 8.4 17.6 3.3 21 4.2c.6.2 2.5 2.3 2.5 2.3S20 8.4 16.8 11c-4.3 3.3-7.6 8-9.5 13.2zm2.5 11.4h-.7c-2.3 0-4.8-2.1-5-4.5-.3-2.7 1-4.8 3.6-5.3h1c1.4 0 3.4 1 3.9 4 .4 2.7-.3 5.3-2.8 5.8zm31.3-4.8l-.3-1-.4-1c.7-1 .8-2 .7-2.6-.1-.6-.4-1.2-1-1.8a7.7 7.7 0 00-3.3-1.6l-.8-.2-.1-2.8c0-.6 0-1.5-.4-2.5-.3-1.2-1-2.3-1.7-3 2-2.1 3.4-4.5 3.4-6.5 0-4-4.9-5.1-10.9-2.7l-1.2.6-2.4-2.3C16-2.5-5.5 21 1.3 26.6L2.8 28c-.4 1-.5 2.1-.4 3.3a7 7 0 006.8 6c2.7 6.1 8.8 9.8 16 10 7.6.2 14-3.3 16.7-9.6.2-.5.9-2.5.9-4.3 0-1.8-1-2.5-1.7-2.5z" fill="black"/>
</svg>
