<svg width="180" height="36" viewBox="0 0 180 36" fill="none" xmlns="http://www.w3.org/2000/svg">
<path d="M20.88 6.66L10.44 13.32L20.88 19.98L10.44 26.64L0 19.944L10.44 13.284L0 6.66L10.44 0L20.88 6.66ZM10.386 28.782L20.826 22.122L31.266 28.782L20.826 35.442L10.386 28.782ZM20.88 19.944L31.32 13.284L20.88 6.66L31.266 0L41.706 6.66L31.266 13.32L41.706 19.98L31.266 26.64L20.88 19.944Z" fill="black"/>
<path d="M49.8961 6.66H58.3381C63.7201 6.66 68.1661 9.774 68.1661 16.884V18.378C68.1661 25.542 64.0081 28.764 58.5001 28.764H49.8961V6.66ZM54.6121 10.674V24.732H58.2301C61.2901 24.732 63.3421 22.734 63.3421 18.288V17.118C63.3421 12.672 61.1821 10.674 58.0681 10.674H54.6121ZM70.6681 10.89H74.4481L75.0601 15.048C75.7801 12.222 77.6161 10.71 80.9461 10.71H82.1161V15.48H80.1721C76.3381 15.48 75.4021 16.812 75.4021 20.592V28.818H70.7401V10.89H70.6681ZM83.0521 20.214V19.71C83.0521 13.716 86.8861 10.44 92.1061 10.44C97.4341 10.44 101.16 13.716 101.16 19.71V20.214C101.16 26.1 97.5421 29.268 92.1061 29.268C86.3281 29.214 83.0521 26.118 83.0521 20.214ZM96.3901 20.16V19.71C96.3901 16.38 94.7161 14.382 92.0521 14.382C89.4421 14.382 87.7141 16.218 87.7141 19.71V20.16C87.7141 23.382 89.3881 25.218 92.0521 25.218C94.7161 25.164 96.3901 23.382 96.3901 20.16ZM103.608 10.89H107.496L107.946 14.274C108.882 12.006 110.88 10.44 113.832 10.44C118.386 10.44 121.392 13.716 121.392 19.782V20.286C121.392 26.172 118.062 29.286 113.832 29.286C111.006 29.286 109.062 28.008 108.108 25.956V35.01H103.554L103.608 10.89ZM116.658 20.16V19.764C116.658 16.2 114.822 14.436 112.374 14.436C109.764 14.436 108.036 16.434 108.036 19.764V20.106C108.036 23.274 109.71 25.272 112.32 25.272C115.002 25.218 116.658 23.508 116.658 20.16ZM128.286 25.506L127.89 28.782H123.894V4.896H128.448V14.058C129.456 11.718 131.454 10.44 134.28 10.44C138.564 10.494 141.732 13.446 141.732 19.386V19.944C141.732 25.884 138.726 29.286 134.172 29.286C131.166 29.214 129.222 27.828 128.286 25.506ZM136.944 19.944V19.494C136.944 16.218 135.162 14.382 132.66 14.382C130.104 14.382 128.322 16.434 128.322 19.548V19.944C128.322 23.274 130.05 25.218 132.606 25.218C135.342 25.218 136.944 23.508 136.944 19.944ZM143.73 20.214V19.71C143.73 13.716 147.564 10.44 152.784 10.44C158.112 10.44 161.838 13.716 161.838 19.71V20.214C161.838 26.1 158.166 29.268 152.784 29.268C147.006 29.214 143.73 26.118 143.73 20.214ZM157.104 20.16V19.71C157.104 16.38 155.43 14.382 152.766 14.382C150.156 14.382 148.428 16.218 148.428 19.71V20.16C148.428 23.382 150.102 25.218 152.766 25.218C155.448 25.164 157.104 23.382 157.104 20.16ZM167.94 19.494L161.658 10.89H167.04L170.658 16.272L174.33 10.89H179.658L173.286 19.44L180 28.782H174.726L170.622 22.842L166.626 28.782H161.118L167.94 19.494Z" fill="black"/>
</svg>
