<svg xmlns="http://www.w3.org/2000/svg" xmlns:xlink="http://www.w3.org/1999/xlink" viewBox="0 0 256 256"><defs><style>.cls-1,.cls-2{fill:none;}.cls-2{stroke:#aaa;stroke-width:1.35px;}.cls-3{clip-path:url(#clip-path);}.cls-4{fill:#aaa;}.cls-5{fill:#424242;}</style><clipPath id="clip-path"><path class="cls-1" d="M86.8,67.65,78,81.65H135.6l8.84-14Zm33.61,56.11H81.2l9-14h24.35l8.89-14H69.11l-8.86,14h13l-17.76,28h73l27.71-44,10,15.95h-8.65l-8.85,14.07h26.38l8.86,14h16.83L156.24,67.15Z"/></clipPath></defs><title>EA Sports</title><path class="cls-2" d="M227.7,127.91a99,99,0,1,1-99-99A99,99,0,0,1,227.7,127.91Z"/><g class="cls-3"><rect class="cls-4" x="55.53" y="67.15" width="145.32" height="70.61"/></g><polygon class="cls-5" points="205.34 146.45 204.19 146.45 204.19 148.9 203.61 148.9 203.61 146.45 202.47 146.45 202.47 145.96 205.34 145.96 205.34 146.45"/><polygon class="cls-5" points="209.27 148.89 208.75 148.89 208.75 147.07 208.76 146.76 208.62 147.07 207.69 148.53 207.59 148.53 206.64 147.05 206.47 146.76 206.52 147.07 206.52 148.89 206.03 148.89 206.03 145.95 206.52 145.95 207.68 147.71 208.81 145.95 209.27 145.95 209.27 148.89"/><path class="cls-4" d="M75.1,168.79a6.4,6.4,0,0,1-6.42,6.47H61.1a6.2,6.2,0,0,1-6.36-6.35v-3h4.66l.71,2.78a2.2,2.2,0,0,0,2.38,1.74h5.15a2,2,0,0,0,1.57-.7,2.73,2.73,0,0,0,.58-1.79v-3.3c0-1.63-.71-2.45-2.15-2.45H61.17a6.29,6.29,0,0,1-4.55-1.86,6.4,6.4,0,0,1-1.87-4.6v-4.36a6.4,6.4,0,0,1,6.42-6.4h7.5a6.21,6.21,0,0,1,4.51,1.8A6,6,0,0,1,75,151.28V154H70.36l-.69-2.47a2.26,2.26,0,0,0-2.36-1.76H62.24a1.94,1.94,0,0,0-1.58.72,2.56,2.56,0,0,0-.59,1.79v2.55c0,1.58.72,2.38,2.18,2.38h6.43a6.06,6.06,0,0,1,4.53,1.92,6.16,6.16,0,0,1,1.9,4.53Z"/><path class="cls-4" d="M94,149.85H86.74v9.4H94l1.56-.7a2.66,2.66,0,0,0,.59-1.8v-4.41a2.63,2.63,0,0,0-.59-1.78Zm7.55,7.86a6.21,6.21,0,0,1-1.92,4.55,6.28,6.28,0,0,1-4.58,1.89H86.74v11.12H81.38V145H95.07a6.29,6.29,0,0,1,4.58,1.88,6.11,6.11,0,0,1,1.92,4.5Z"/><path class="cls-4" d="M146.11,149.85h-7v8.67h7l1.49-.67a2.61,2.61,0,0,0,.59-1.78v-3.73a2.67,2.67,0,0,0-.59-1.78Zm3,25.41-4.92-11.85H139.1v11.85h-5.37V145h13.4a6.43,6.43,0,0,1,6.45,6.37v5.29a6.43,6.43,0,0,1-1.15,3.72,6.75,6.75,0,0,1-3,2.39l5.33,12.53Z"/><polygon class="cls-4" points="177.78 149.85 170.01 149.85 170.01 175.26 164.66 175.26 164.66 149.85 156.93 149.85 156.93 144.96 177.78 144.96 177.78 149.85"/><path class="cls-4" d="M202.06,168.79a6.4,6.4,0,0,1-6.45,6.47H188a6.24,6.24,0,0,1-4.54-1.83,6.13,6.13,0,0,1-1.82-4.53v-3h4.67l.7,2.78a2.23,2.23,0,0,0,2.39,1.74h5.14a2,2,0,0,0,1.58-.7,2.73,2.73,0,0,0,.56-1.79v-3.3c0-1.63-.7-2.45-2.14-2.45h-6.45a6.19,6.19,0,0,1-4.55-1.86,6.35,6.35,0,0,1-1.9-4.6v-4.36a6.23,6.23,0,0,1,1.9-4.53,6.15,6.15,0,0,1,4.55-1.87h7.47a6.23,6.23,0,0,1,4.53,1.8,6.11,6.11,0,0,1,1.84,4.52V154h-4.65l-.72-2.47a2.25,2.25,0,0,0-2.35-1.76h-5.08a1.93,1.93,0,0,0-1.58.72,2.64,2.64,0,0,0-.58,1.79v2.55q0,2.38,2.17,2.38h6.43a6.58,6.58,0,0,1,6.45,6.45Z"/><path class="cls-4" d="M127.21,168.75a6.24,6.24,0,0,1-1.89,4.62,6.33,6.33,0,0,1-4.59,1.89H113.5a6.47,6.47,0,0,1-6.48-6.51V151.34A6.44,6.44,0,0,1,113.5,145h7.23a6.32,6.32,0,0,1,4.59,1.85,6.11,6.11,0,0,1,1.89,4.52Zm-7.51-18.9h-5.15l-1.57.71a2.78,2.78,0,0,0-.58,1.78v15.52a2.73,2.73,0,0,0,.58,1.76l1.57.75h5.15l1.56-.75a2.6,2.6,0,0,0,.61-1.76V152.34a2.65,2.65,0,0,0-.61-1.78Z"/></svg>