<svg xmlns="http://www.w3.org/2000/svg" viewBox="0 0 256 256"><defs><style>.cls-1{opacity:0.3;}.cls-2{fill:#9f9f9f;}.cls-2,.cls-3,.cls-4,.cls-5,.cls-6,.cls-7,.cls-8{fill-rule:evenodd;}.cls-3{fill:#bdbdbd;}.cls-4{fill:#5f5f5f;}.cls-5{fill:#4b4b4b;}.cls-6{fill:#909090;}.cls-7{fill:#737373;}.cls-8{fill:#2b2b2b;}</style></defs><title>eBay</title><g class="cls-1"><path class="cls-2" d="M206,85.41l-15.43,32.92L176.29,85.41H154.42l3.68,7.37c13.35,1.84,15.2,9.21,15.2,18v12.89l6.22,12.66v26.94h20V136.29l26.71-50.88Z"/><path class="cls-3" d="M151.19,92.31c-5.76,0-10.82.92-14.27,3.68-3.68,2.3-5.76,6.68-5.76,13.35h15.2c0-4.37.23-8.52,5.76-8.52s6.22,3.45,6.22,8.06v4.37c-8.75-.23-17.27,0-22.56,4.14,5.3,5.76,5.07,16.58,5.07,24.4v7.37a18.61,18.61,0,0,0,3.68.23c6.68,0,11.05-2.76,14.27-8.29H159l.69,7.37H174c-.23-3.45-.69-6.91-.69-10.36v-14.5L158.1,92.77a61.27,61.27,0,0,0-6.91-.46ZM150.73,140c-5.07,0-5.76-4.83-5.76-8.75,0-9.67,5.76-9,13.35-9.44,0,6,1.38,18.19-7.6,18.19Z"/><path class="cls-4" d="M158.1,92.77l15.2,30.85V110.73c0-8.75-1.84-16.12-15.2-18Z"/><path class="cls-5" d="M130,131.91c0-7.14,2.07-11.74,5.76-14.5-2.3-2.3-5.3-3.68-9.9-3.68-5.53,0-9.21,1.61-12.43,6.22h-.23V91.16H98v26c10.82,4.6,12.2,12.89,11.51,22.79H98v5.53h11.05c-.23,5.3-3.91,9.44-10.59,12.43-.23.23-.23.23-.46.23v11.28h14.5v-6h.23c2.76,5.3,6.91,7.14,12.89,7.14,12.66,0,14.73-11.28,15.2-21.41-7.83-1.84-10.82-9-10.82-17.27Zm-4.14,9.67c0,13.81-.92,19.57-6.45,19.57-5.3,0-6.22-5.76-6.22-19.57,0-10.82,0-18.42,6.22-18.42,6.68,0,6.45,7.6,6.45,18.42Z"/><path class="cls-6" d="M140.83,141.81c0-7.83.23-18.65-5.07-24.4-3.68,2.76-5.76,7.37-5.76,14.5,0,8.29,3,15.43,10.82,17.27v-7.37Z"/><path class="cls-7" d="M90,145.5H80.74c0,4.14-2.07,8.75-12,8.75-12.2,0-12.43-8.52-12.43-14.27H98V117.18a35.27,35.27,0,0,0-8.29-2.53,100.58,100.58,0,0,0-21-1.84c-36.61,0-40.52,11.28-40.52,24.4,0,15.2,4.6,25.79,40.52,25.79A107.93,107.93,0,0,0,90,160.92,36.71,36.71,0,0,0,98,158.16V145.5Zm-21.18-24.4c13.35,0,12.89,6.68,12.89,11.28H56.34c0-3.91-.23-11.28,12.43-11.28Z"/><path class="cls-8" d="M109.06,145.5H98v12.66c.23,0,.23,0,.46-.23,6.68-3,10.36-7.14,10.59-12.43Z"/><path class="cls-8" d="M109.52,140c.69-9.9-.69-18.19-11.51-22.79V140Z"/></g></svg>