<svg xmlns="http://www.w3.org/2000/svg" viewBox="0 0 256 256"><defs><style>.cls-1{fill:#aaa;fill-rule:evenodd;}</style></defs><title>ESPN</title><polygon class="cls-1" points="194.58 150.88 198.14 122.98 212.68 122.98 209.13 150.88 194.58 150.88 194.58 150.88"/><polygon class="cls-1" points="184.07 122.98 180.52 150.88 165.98 150.88 169.53 122.98 184.07 122.98 184.07 122.98"/><path class="cls-1" d="M171.64,106.42h34.92c6.23,0,7.69,4.15,6.61,12.64H170l1.61-12.64Z"/><polygon class="cls-1" points="76.34 122.98 75.01 133.44 51.15 133.44 50.43 139.11 74.28 139.11 72.79 150.88 34.68 150.88 38.23 122.98 76.34 122.98 76.34 122.98"/><polygon class="cls-1" points="40.34 106.42 78.45 106.42 76.84 119.06 38.73 119.06 40.34 106.42 40.34 106.42"/><path class="cls-1" d="M125.4,123h41.24c-.1.62-.2,1.23-.32,1.83-1.06,5.63-3.58,8.63-7.65,8.63H138.61l-2.22,17.43H121.85L125.4,123Z"/><path class="cls-1" d="M120.88,134.22l-.53,4.2c-.67,5.22-4,12.46-9.89,12.46H76.27l1.5-11.77h28.47l.72-5.67H85.83c-4.54,0-6.93-3.22-6.11-9.64l.1-.82h34.27c5,0,7.52,5.5,6.79,11.24Z"/><path class="cls-1" d="M90.85,106.42h69.83c5.58,0,7,4.49,6.62,10.67,0,.65-.09,1.3-.16,2H80.32l.18-1.38c1-7.76,5-11.26,10.35-11.26Z"/><path class="cls-1" d="M226.81,144.64l0,.6a1.73,1.73,0,0,1,.63-.53,1.87,1.87,0,0,1,.83-.18,1.68,1.68,0,0,1,1.44.71,2,2,0,0,1,.65-.53,2,2,0,0,1,1.76.06,1.08,1.08,0,0,1,.49.58,4.2,4.2,0,0,1,.11,1.12V151h-2.21v-4.12a4.5,4.5,0,0,0-.06-1,.28.28,0,0,0-.3-.19.3.3,0,0,0-.31.19,4.11,4.11,0,0,0-.07,1V151h-2.21v-4a6.1,6.1,0,0,0-.05-1.11.27.27,0,0,0-.29-.19.36.36,0,0,0-.26.1.35.35,0,0,0-.12.24c0,.09,0,.29,0,.6V151h-2.21v-6.32Z"/><path class="cls-1" d="M221.54,146.38a1.83,1.83,0,0,0-.06-.61.27.27,0,0,0-.27-.13.28.28,0,0,0-.27.13,1.62,1.62,0,0,0-.07.61v2.85a1.53,1.53,0,0,0,.07.58.26.26,0,0,0,.26.14.27.27,0,0,0,.27-.12,1.37,1.37,0,0,0,.06-.53v-2.92Zm2.28.48v1.55a5.57,5.57,0,0,1-.1,1.25,1.66,1.66,0,0,1-.43.74,2,2,0,0,1-.85.51,4,4,0,0,1-1.2.16,5,5,0,0,1-1.28-.14,1.81,1.81,0,0,1-.81-.42,1.59,1.59,0,0,1-.42-.69,4.39,4.39,0,0,1-.12-1.21V147a3.41,3.41,0,0,1,.22-1.38,1.69,1.69,0,0,1,.81-.8,3.28,3.28,0,0,1,1.5-.3,4,4,0,0,1,1.32.19,2.13,2.13,0,0,1,.85.5,1.74,1.74,0,0,1,.41.64,3.39,3.39,0,0,1,.11,1Z"/><path class="cls-1" d="M218,147h-2.15v-.73a1.24,1.24,0,0,0-.07-.52.28.28,0,0,0-.27-.14.27.27,0,0,0-.26.12,1.28,1.28,0,0,0-.07.53v3a1,1,0,0,0,.1.51.33.33,0,0,0,.3.17.31.31,0,0,0,.31-.18,1.84,1.84,0,0,0,.08-.67v-.75h2a8.27,8.27,0,0,1-.07,1.14,1.66,1.66,0,0,1-.38.78,2,2,0,0,1-.83.6,4.21,4.21,0,0,1-2.79-.08,1.64,1.64,0,0,1-.8-.78,3.48,3.48,0,0,1-.23-1.43v-1.8a3,3,0,0,1,.19-1.22,1.72,1.72,0,0,1,.82-.73,3.3,3.3,0,0,1,1.52-.32,3.33,3.33,0,0,1,1.52.32,1.69,1.69,0,0,1,.84.81A3.63,3.63,0,0,1,218,147Z"/><polygon class="cls-1" points="212.35 149.39 212.35 150.96 210.63 150.96 210.63 149.39 212.35 149.39 212.35 149.39"/></svg>