<?xml version="1.0" standalone="no"?><!DOCTYPE svg PUBLIC "-//W3C//DTD SVG 1.1//EN" "http://www.w3.org/Graphics/SVG/1.1/DTD/svg11.dtd"><svg width="100%" height="100%" viewBox="0 0 32 30" version="1.1" xmlns="http://www.w3.org/2000/svg" xmlns:xlink="http://www.w3.org/1999/xlink" xml:space="preserve" style="fill-rule:evenodd;clip-rule:evenodd;stroke-linejoin:round;stroke-miterlimit:1.41421;"><g><path d="M15.41,29.952l-9.83,0c-3.493,0 -4.83,-1.337 -4.83,-4.831l0,-20.339c0,-3.494 1.337,-4.83 4.83,-4.83l20.34,0c3.493,0 4.83,1.336 4.83,4.83l0,20.339c0,3.494 -1.337,4.831 -4.83,4.831l-5.047,0l0,-12.123l3.666,0c0,0 0.343,-2.161 0.51,-4.524l-4.156,0l0,-3.081c0,-0.46 0.598,-1.079 1.185,-1.079l2.977,0l0,-4.693l-4.048,0c-5.733,0 -5.597,4.512 -5.597,5.185l0,3.685l-2.66,0l0,4.507l2.66,0l0,12.123Z" style="fill:#888;"/></g></svg>