<svg width="41" height="58" viewBox="0 0 41 58" fill="none" xmlns="http://www.w3.org/2000/svg">
<path d="M39.9684 2.89837C40.0948 2.18192 39.9052 1.4329 39.4629 0.879281C39.0205 0.32566 38.357 0 37.6619 0H5.40284C2.43286 0 0 2.50758 0 5.56878V55.5576C0 56.5671 0.600316 57.4789 1.51659 57.8372C1.80095 57.9349 2.08531 58 2.36967 58C3.03317 58 3.66509 57.7069 4.10742 57.2184L20.3791 38.9163H31.3744C32.5118 38.9163 33.4913 38.0696 33.7125 36.9298L36.8404 19.9629L39.9684 2.89837ZM29.4155 34.0314H19.3365C18.673 34.0314 18.0411 34.3245 17.5987 34.813L4.73934 49.2723V5.56878C4.73934 5.21056 5.0237 4.8849 5.40284 4.8849H34.7867L32.5434 16.9994H18.4202C17.1248 16.9994 16.0506 18.1067 16.0506 19.4419C16.0506 20.7771 17.1248 21.8843 18.4202 21.8843H31.6588L29.4155 34.0314Z" fill="black"/>
</svg>
