<svg width="195" height="36" viewBox="0 0 195 36" fill="none" xmlns="http://www.w3.org/2000/svg">
<path d="M120.12 27.5725V3.97363H123.151L131.354 18.344H131.485L139.688 3.97363H142.719V27.5725H139.688V13.5653L139.82 9.60931H139.688L132.309 22.5624H130.53L123.151 9.60931H123.02L123.151 13.5653V27.5725H120.12Z" fill="#484848"/>
<path d="M152.044 28.0998C150.331 28.0998 148.898 27.6054 147.745 26.6167C146.592 25.628 146.016 24.3205 146.016 22.6944C146.016 20.9369 146.697 19.5583 148.058 18.5585C149.42 17.5587 151.1 17.0588 153.099 17.0588C154.877 17.0588 156.338 17.3884 157.48 18.0475V17.5858C157.48 16.3996 157.073 15.4494 156.261 14.7353C155.448 14.0212 154.449 13.6641 153.262 13.6641C152.384 13.6641 151.589 13.8728 150.875 14.2902C150.161 14.7076 149.672 15.2788 149.409 16.0036L146.641 14.8178C147.015 13.8508 147.75 12.9553 148.849 12.1312C149.947 11.3071 151.396 10.895 153.197 10.895C155.261 10.895 156.974 11.4994 158.336 12.708C159.697 13.9167 160.378 15.6198 160.378 17.8172V27.5727H157.48V25.3317H157.348C156.14 27.1771 154.372 28.0998 152.044 28.0998ZM152.539 25.3317C153.79 25.3317 154.926 24.8647 155.948 23.9306C156.969 22.9965 157.48 21.8925 157.48 20.6184C156.623 19.915 155.338 19.5633 153.625 19.5633C152.154 19.5633 151.044 19.882 150.298 20.5193C149.551 21.1567 149.178 21.9039 149.178 22.7608C149.178 23.5521 149.518 24.1784 150.199 24.6397C150.88 25.1011 151.66 25.3317 152.539 25.3317Z" fill="#484848"/>
<path d="M172.196 28.0998C170.966 28.0998 169.862 27.8361 168.885 27.3087C167.907 26.7813 167.177 26.1223 166.695 25.3317H166.563L166.695 27.5727V34.692H163.664V11.4231H166.563V13.6641H166.695C167.177 12.8728 167.907 12.2135 168.885 11.6861C169.862 11.1587 170.966 10.895 172.196 10.895C174.282 10.895 176.083 11.7191 177.598 13.3674C179.114 15.0156 179.871 17.0591 179.871 19.4979C179.871 21.9367 179.114 23.9801 177.598 25.628C176.083 27.2758 174.282 28.0998 172.196 28.0998ZM171.701 25.3317C173.106 25.3317 174.314 24.7988 175.325 23.733C176.335 22.6671 176.84 21.2553 176.84 19.4974C176.84 17.7396 176.335 16.3279 175.325 15.2623C174.314 14.1969 173.106 13.6641 171.701 13.6641C170.273 13.6641 169.06 14.1915 168.061 15.2463C167.062 16.3011 166.563 17.7183 166.563 19.4979C166.563 21.2776 167.062 22.6948 168.061 23.7496C169.06 24.8043 170.273 25.3317 171.701 25.3317Z" fill="#484848"/>
<path d="M188.642 28.0998C186.841 28.0998 185.353 27.6604 184.178 26.7816C183.004 25.9029 182.141 24.8044 181.592 23.486L184.293 22.3655C185.15 24.3866 186.61 25.3971 188.675 25.3971C189.62 25.3971 190.394 25.1884 190.997 24.771C191.601 24.3536 191.903 23.8042 191.903 23.1229C191.903 22.0681 191.167 21.354 189.696 20.9805L186.434 20.1899C185.402 19.9264 184.425 19.4265 183.503 18.6902C182.581 17.954 182.12 16.9599 182.12 15.7079C182.12 14.2797 182.751 13.1204 184.014 12.2303C185.276 11.3401 186.775 10.895 188.51 10.895C189.938 10.895 191.212 11.2192 192.332 11.8677C193.451 12.5161 194.253 13.4445 194.736 14.6528L192.1 15.7401C191.508 14.3118 190.278 13.5977 188.411 13.5977C187.511 13.5977 186.753 13.7845 186.138 14.1579C185.523 14.5315 185.216 15.0371 185.216 15.6747C185.216 16.5974 185.93 17.2237 187.357 17.5536L190.552 18.311C192.067 18.6624 193.188 19.2666 193.912 20.1235C194.637 20.9805 195 21.9475 195 23.0244C195 24.4748 194.407 25.6833 193.221 26.6499C192.035 27.6165 190.509 28.0998 188.642 28.0998Z" fill="#484848"/>
<path d="M26.9792 12.7134H14.174V16.5151H23.2554C22.8068 21.8462 18.3738 24.1197 14.1894 24.1197C8.83576 24.1197 4.16424 19.9053 4.16424 13.9983C4.16424 8.24404 8.61743 3.81241 14.2012 3.81241C18.5091 3.81241 21.0476 6.56006 21.0476 6.56006L23.7081 3.80356C23.7081 3.80356 20.2932 0 14.0652 0C6.1353 0 0 6.69695 0 13.9305C0 21.0186 5.77135 27.9306 14.2677 27.9306C21.7408 27.9306 27.211 22.8086 27.211 15.2348C27.211 13.6369 26.9792 12.7134 26.9792 12.7134Z" fill="black"/>
<path d="M37.4694 9.96021C32.2152 9.96021 28.4497 14.07 28.4497 18.8634C28.4497 23.7276 32.102 27.9138 37.5311 27.9138C42.446 27.9138 46.4724 24.1554 46.4724 18.9679C46.4724 13.0223 41.7887 9.96021 37.4694 9.96021ZM37.5216 13.4863C40.1055 13.4863 42.554 15.5763 42.554 18.9441C42.554 22.2405 40.1158 24.3901 37.5098 24.3901C34.6462 24.3901 32.3872 22.0956 32.3872 18.918C32.3872 15.8087 34.6182 13.4863 37.5216 13.4863Z" fill="black"/>
<path d="M57.0863 9.96021C51.8321 9.96021 48.0667 14.07 48.0667 18.8634C48.0667 23.7276 51.7189 27.9138 57.1481 27.9138C62.0629 27.9138 66.0894 24.1554 66.0894 18.9679C66.0894 13.0223 61.4057 9.96021 57.0863 9.96021ZM57.1386 13.4863C59.7225 13.4863 62.1709 15.5763 62.1709 18.9441C62.1709 22.2405 59.7328 24.3901 57.1267 24.3901C54.2632 24.3901 52.0042 22.0956 52.0042 18.918C52.0042 15.8087 54.2352 13.4863 57.1386 13.4863Z" fill="black"/>
<path d="M76.327 9.96997C71.5042 9.96997 67.7134 14.1962 67.7134 18.9397C67.7134 24.343 72.1083 27.926 76.2438 27.926C78.801 27.926 80.1607 26.9104 81.1645 25.7448V27.515C81.1645 30.6121 79.285 32.4667 76.4481 32.4667C73.7075 32.4667 72.3328 30.4278 71.8551 29.2709L68.4068 30.7132C69.6302 33.3011 72.0926 36 76.4766 36C81.2716 36 84.9263 32.9781 84.9263 26.6405V10.5093H81.1645V12.03C80.0087 10.7831 78.427 9.96997 76.327 9.96997ZM76.6761 13.489C79.0406 13.489 81.4685 15.5089 81.4685 18.9587C81.4685 22.465 79.0457 24.3976 76.6238 24.3976C74.0527 24.3976 71.6604 22.3088 71.6604 18.992C71.6604 15.5455 74.145 13.489 76.6761 13.489Z" fill="black"/>
<path d="M101.652 9.94873C97.1029 9.94873 93.2832 13.5701 93.2832 18.9137C93.2832 24.5679 97.5408 27.9214 102.089 27.9214C105.885 27.9214 108.215 25.8436 109.606 23.9818L106.504 21.917C105.699 23.1667 104.354 24.3881 102.108 24.3881C99.5858 24.3881 98.426 23.0063 97.7075 21.6676L109.739 16.673L109.114 15.2093C107.951 12.3429 105.24 9.94873 101.652 9.94873ZM101.809 13.4011C103.448 13.4011 104.628 14.2732 105.129 15.3187L97.0948 18.6784C96.7485 16.0773 99.2114 13.4011 101.809 13.4011Z" fill="black"/>
<path d="M87.5476 27.389H91.505V0.928955H87.5476V27.389Z" fill="black"/>
</svg>
