<svg xmlns="http://www.w3.org/2000/svg" xmlns:xlink="http://www.w3.org/1999/xlink" viewBox="0 0 450 480"><defs><style>.cls-1{isolation:isolate;}.cls-2,.cls-3{opacity:0.3;mix-blend-mode:multiply;}.cls-2{fill:url(#radial-gradient);}.cls-3{fill:url(#radial-gradient-2);}.cls-4{fill:url(#linear-gradient);}</style><radialGradient id="radial-gradient" cx="6165.93" cy="-55938.89" r="93.76" gradientTransform="translate(-4328.74 6974.5) scale(0.73 0.12)" gradientUnits="userSpaceOnUse"><stop offset="0" stop-color="#404041"/><stop offset="1" stop-color="#231f20" stop-opacity="0"/></radialGradient><radialGradient id="radial-gradient-2" cx="6446.35" cy="-55938.89" r="93.76" xlink:href="#radial-gradient"/><linearGradient id="linear-gradient" x1="249.19" y1="378.6" x2="189.19" y2="66.6" gradientUnits="userSpaceOnUse"><stop offset="0" stop-color="#e93722"/><stop offset="1" stop-color="#f86f25"/></linearGradient></defs><title>Artboard 1 copy 25</title><g class="cls-1"><g id="Layer_1" data-name="Layer 1"><ellipse class="cls-2" cx="143.36" cy="410.17" rx="68" ry="11"/><ellipse class="cls-3" cx="346.75" cy="410.17" rx="68" ry="11"/><path class="cls-4" d="M294.25,266.63q-2.38-12.25-6.14-14t-13.65.21L170.8,273q-5.19,1-7,4.06t-.29,11.06q1.65,8.48,2.42,13.71t1.18,8.57c.27,2.23.58,4.21.91,5.94l1.14,5.89q2.29,11.78,3.94,19t2.76,12.91L178,365.5l2.56,13.19q2.11,10.84-5.74,17t-26.22,9.74q-16.5,3.21-24.33-.65t-9.95-14.69q-1.56-8-5.07-28.6T97.7,299.45L63.41,113q-2.75-14.14,5.24-19.6t25.42-8.85q19.31-3.75,26.83-.33t9.8,15.21q.92,4.72,2.92,16.3t4.51,27q2.5,15.41,5.8,33.59t6.3,36.18q1.46,7.54,3.76,9.29t9.84.29q7.07-1.37,18.89-3.43T208,214q13.43-2.61,27.61-5.12T262,203.94a73.15,73.15,0,0,0,11.17-2.9A11.63,11.63,0,0,0,279,197a9.94,9.94,0,0,0,1.45-6.39,91,91,0,0,0-1.54-10.46q-2.47-12.72-5.49-29.49t-6-32.32q-3-15.55-5.17-27.85T259.33,74.4q-2.66-13.66,5.47-19.65t24.62-9.19q17-3.3,25.18,0t10.51,15.07q1.19,6.13,4.21,22.9t6.76,38.54q3.74,21.77,8.08,46.59t8.5,47.49q4.15,22.66,7.36,40.38t4.75,25.73l3.71,19.08q1.42,7.31,2.8,13.15t2.48,11.5l2.66,13.66q2.38,12.26-5.75,18.23T346.51,367q-17.91,3.48-25.79-.61a17.74,17.74,0,0,1-9.63-13Z"/></g></g></svg>