<svg xmlns="http://www.w3.org/2000/svg" xmlns:xlink="http://www.w3.org/1999/xlink" viewBox="0 0 370 350"><defs><style>.cls-1{fill:none;}.cls-2{isolation:isolate;}.cls-3{fill:#18a972;}.cls-4{fill:#19a972;opacity:0.45}.cls-3{opacity:0.21;}.cls-5{fill:#f1f0d9;}.cls-6{fill:#463f37;}.cls-7{fill:#fff;}.cls-8{fill:#fbcc34;}.cls-9{fill:#231f20;opacity:0.2;mix-blend-mode:multiply;}.cls-10{clip-path:url(#clip-path);}.cls-11{fill:#aaa996;}.cls-12{fill:#292625;}.cls-13{fill:#e63f34;}.cls-14{fill:#e83d32;}.cls-15{fill:#dd80b4;}.cls-16{fill:#a85285;}</style><clipPath id="clip-path"><path id="SVGID" class="cls-1" d="M319.85722,73.75584l4.69255-34.83625S350.14942,74.92666,351.033,75.62037C351.91654,76.31288,319.85722,73.75584,319.85722,73.75584Z"/></clipPath></defs><g class="cls-2"><g id="Layer_1" data-name="Layer 1"><circle class="cls-3" cx="185" cy="174.99999" r="166.46002"/><path class="cls-4" d="M318.88,174.99765a133.8759,133.8759,0,0,1-5.66,38.63c-1.06,3.52-2.26,6.99-3.59,10.38-.04.11-.09.23-.14.34-.05.14-.1.28-.16.41-.17005.44-.35.88-.53,1.31q-.96,2.325-2.01,4.61c-.79,1.74-1.63,3.46-2.5,5.15q-1.005,1.97992-2.08,3.91a134.55853,134.55853,0,0,1-45.23,48.16c-.83.54-1.67,1.06-2.52,1.57a132.97918,132.97918,0,0,1-46.26,17.42005c-2.49.43-5.01.8-7.55,1.09q-6.25506.72-12.69.87c-.98.02-1.97.03-2.96.03-1.75,0-3.48-.03-5.21-.1-.52-.02-1.04-.04-1.56-.07q-6.435-.31494-12.69-1.24-5.83494-.855-11.5-2.19c-.02-.01-.05-.01-.07-.02a130.2725,130.2725,0,0,1-13.25-3.88,132.44594,132.44594,0,0,1-24.5-11.51c-.85-.49-1.68994-1.01-2.52-1.55a133.86218,133.86218,0,0,1-24.11-19.4c-.39-.4-.78-.8-1.18006-1.21-.34-.36-.69-.72-1.02-1.09q-4.44-4.71-8.39-9.83a132.10812,132.10812,0,0,1-7.75-11.16q-2.76-4.425-5.17-9.07c-.43-.83-.85-1.67-1.27-2.51-.67-1.36-1.31-2.73-1.94-4.11-.39-.88-.78-1.77-1.16-2.66-.32-.76-.64-1.52-.95-2.29-.34-.84-.67-1.68-.99-2.53q-2.265-5.97-3.96-12.2a133.18872,133.18872,0,0,1-3.58-17.97.27638.27638,0,0,1-.01-.09q-.38993-3-.64-6.04c-.1-1.14-.17-2.28-.24-3.42-.07-1.29-.13-2.59-.17-3.89-.03-1.28-.05-2.56-.05-3.85,0-1.52.03-3.04.08-4.56q.18-5.97008.92-11.79v-.00995c.01-.16.03-.31.05-.47.05-.37.1-.75.15-1.12.07-.53.14-1.07.22-1.6a131.7713,131.7713,0,0,1,3.84-17.73q1.455-5.025,3.29-9.89c.18-.49.37-.97.56-1.46v-.01a133.45337,133.45337,0,0,1,10.57-21.28c.26-.42.52-.83.78-1.24a132.97151,132.97151,0,0,1,11.27-15.37c.3-.36.61-.72.92-1.07995a133.32548,133.32548,0,0,1,82.71-45q4.38006-.61506,8.87-.92005a2.97406,2.97406,0,0,1,.42-.03q3.84-.27,7.73-.31c.41-.01.81-.01,1.22-.01H185a134.04568,134.04568,0,0,1,18.69,1.3c1.48.2,2.96.44,4.42.7q3.27.555,6.48,1.29a132.30789,132.30789,0,0,1,24.5,8.11q4.77,2.1,9.35,4.58c3.1,1.66,6.13,3.46,9.08,5.36a.13863.13863,0,0,1,.04.03c1.4.9,2.79,1.84,4.15,2.8q3.11994,2.175,6.1,4.52c.43.34.87.69,1.3,1.04.87.7,1.73,1.41,2.58,2.14q1.185,1.005,2.34,2.04v.01a134.172,134.172,0,0,1,19.73,21.9,133.64128,133.64128,0,0,1,25.06,74.2C318.86,172.41764,318.88,173.70761,318.88,174.99765Z"/><path class="cls-5" d="M319.85722,73.75584l4.69255-34.83625S350.14942,74.92666,351.033,75.62037C351.91654,76.31288,319.85722,73.75584,319.85722,73.75584Z"/><path class="cls-5" d="M238.089,81.26686a14.27439,14.27439,0,0,1,4.65123,5.05231,17.46464,17.46464,0,0,1-9.63564,20.08666,14.93606,14.93606,0,0,1-11.17837-2.18547,13.781,13.781,0,0,1-3.87-19.44443A14.6536,14.6536,0,0,1,238.089,81.26686Z"/><path class="cls-6" d="M219.43067,101.80453a5.025,5.025,0,1,0,.826-7.03937A5.0115,5.0115,0,0,0,219.43067,101.80453Z"/><circle class="cls-7" cx="221.50835" cy="100.33962" r="1.77184"/><path class="cls-8" d="M230.792,114.09482s-8.464,1.21028-8.61595,4.24917c-.4154,8.35238,75.6286,39.44267,98.48674-44.99445C320.66277,73.34954,221.17858,8.48861,230.792,114.09482Z"/><path class="cls-9" d="M265.3466,65.86674c14.17981,3.19675,22.85015,16.22906,19.3457,29.15428-3.53678,12.8873-17.8884,20.74184-32.10931,17.54348-14.20042-3.17842-22.86424-16.23393-19.34871-29.11509C236.75658,70.54939,251.11185,62.70766,265.3466,65.86674Z"/><path class="cls-7" d="M262.65553,65.606A23.09744,23.09744,0,0,1,280.136,93.86461c-3.30144,12.5617-16.43964,20.28854-29.39673,17.25794-12.93523-3.00906-20.76382-15.66424-17.48223-28.22028C236.54462,70.32814,249.68737,62.61579,262.65553,65.606Z"/><path class="cls-5" d="M250.73928,111.12255a23.88343,23.88343,0,0,1-10.2649-5.204,29.27424,29.27424,0,0,1,3.34938-37.18907A25.03017,25.03017,0,0,1,262.65553,65.606,23.09744,23.09744,0,0,1,280.136,93.86461C276.83457,106.42631,263.69637,114.15315,250.73928,111.12255Z"/><path class="cls-9" d="M276.83451,92.98843A23.01931,23.01931,0,0,0,261.753,65.42177c.301.058.60187.115.90248.18413a23.0973,23.0973,0,0,1,17.48044,28.25856c-3.30126,12.56192-16.4395,20.2887-29.39661,17.25808-.794-.18455-1.56308-.4156-2.317-.67134C261.05389,112.87766,273.61681,105.23219,276.83451,92.98843Z"/><path class="cls-8" d="M266.65835,53.7925c-1.02548-10.59538,12.27225-20.67265,22.332-19.35567,2.94181.3442,6.89177,3.95925,3.36811,6.47731-1.80171,1.37873-4.70706,1.31431-6.85987,1.77217a33.14418,33.14418,0,0,0-7.50359,2.48638c-5.596,2.73749-7.5,6.74134-8.6616,12.46318.04047-.11873-.039-.279.04269-.51737"/><path class="cls-8" d="M267.17942,57.61705c-9.20212-5.35083-9.62516-22.02924-2.68508-29.43035,1.99519-2.18834,7.23631-3.287,7.2251,1.044.06684,2.268-1.68011,4.59012-2.564,6.60665a33.24414,33.24414,0,0,0-2.36015,7.54305c-1.04134,6.14156,1.09852,10.02624,5.06641,14.30811-.07168-.10232-.24737-.13238-.394-.33753"/><path class="cls-8" d="M269.66822,55.60479c3.14731-7.59812,15.87249-9.64052,22.25443-5.0896,1.88035,1.302,3.262,5.20056-.0551,5.6391-1.72955.28461-3.686-.81421-5.3214-1.28315a25.68869,25.68869,0,0,0-6.018-1.029c-4.80944-.1649-7.5626,1.87533-10.43177,5.3536.0711-.06534.07533-.20413.21809-.33581"/><path class="cls-9" d="M296.01793,71.6604s9.96388-.833,5.0696,8.38762c0,0,3.72391-6.54413-4.86152-8.39909Z"/><path class="cls-9" d="M287.26955,69.72232s9.96339-.83329,5.06972,8.388c0,0,3.72353-6.54523-4.86243-8.39961Z"/><path class="cls-9" d="M286.04108,79.14413s7.8543-.65664,3.99669,6.61239c0,0,2.93482-5.15963-3.83316-6.62141Z"/><path class="cls-9" d="M295.15,80.20488s9.96475-.83294,5.0701,8.38786c0,0,3.7238-6.54442-4.86152-8.39909Z"/><path class="cls-9" d="M304.7811,78.49731s7.96821-.66642,4.0542,6.70747c0,0,2.97743-5.23444-3.8885-6.71733Z"/><path class="cls-9" d="M301.99149,68.10077s7.96822-.66642,4.0542,6.70747c0,0,2.97743-5.23444-3.88808-6.71706Z"/><path class="cls-9" d="M311.28391,73.3684s6.08026-.509,3.093,5.11839c0,0,2.27184-3.99428-2.96669-5.12591Z"/><g class="cls-10"><path class="cls-11" d="M348.08306,72.96894c-3.20644.14919-7.65917.33068-13.23453.53935-4.82189.18049-9.66733.35065-13.28114.4748l-1.0459,1.07211-.99123,3.1515-.50906-.16009.67466-2.145L318.715,76.907l1.53032-2.78029-4.75668,2.1304-.09891-2.5997.26806-.0088c1.32335-.04348,2.92036-.09685,4.7012-.15758l.11062-.04954,10.03918-31.9181,4.59268,6.71845L321.481,72.98856l.55245-.24742L340.041,54.28144l4.74513,8.8539L322.34439,73.18659l-.23859.24455c12.28222-.4235,31.1473-1.12177,31.979-1.37385a.24189.24189,0,0,0-.12957.11983l.239.115-.2507.09134.5014-.18269.04578.13314-.07623.11281a.25357.25357,0,0,1-.03393.043C354.24307,72.62362,353.68073,72.70848,348.08306,72.96894Zm-24.72565-.82083,20.68774-9.26566-4.13057-7.70719Zm7.33082-29.41656-9.117,28.98616L334.47573,48.2721ZM315.99194,75.447l3.07824-1.37869c-1.54087.05221-2.64552.08895-3.12672.10484Z"/></g><path class="cls-9" d="M248.92234,130.23673c48.53269-1.10177,70.72349-54.7118,71.66795-57.04944.12343.0789.18964.12208.18964.12208C306.82062,124.87648,273.0249,133.35305,248.92234,130.23673Z"/><path class="cls-7" d="M230.792,114.09482c-4.14922-45.58115,12.02622-59.40343,31.75327-60.39353-4.23686.28134-35.9451,4.26908-30.85681,60.62583,0,0-7.16133.75-9.11878,5.25605a2.25,2.25,0,0,1-.39363-1.23918C222.328,115.3051,230.792,114.09482,230.792,114.09482Z"/><path class="cls-7" d="M262.09815,52.16439c-3.90111-7.29642-2.89693-18.33276,2.39619-23.97769a6.24669,6.24669,0,0,1,2.49694-1.57408C263.68313,29.7338,258.04126,37.533,262.09815,52.16439Z"/><path class="cls-7" d="M288.99035,34.43683a6.45938,6.45938,0,0,1,3.35129,1.59844c-3.68361-1.30744-15.16774-3.60131-25.308,13.35634C269.31189,40.59321,280.34292,33.30505,288.99035,34.43683Z"/><path class="cls-6" d="M235.83215,97.59326a6.18348,6.18348,0,1,0,1.01637-8.6622A6.16683,6.16683,0,0,0,235.83215,97.59326Z"/><circle class="cls-7" cx="238.44251" cy="96.04918" r="2.12705"/><path class="cls-12" d="M208.2,306.88767c-2.49.43-5.01.8-7.55,1.09q-6.25506.72-12.69.87c-.98.02-1.97.03-2.96.03-1.75,0-3.48-.03-5.21-.1-.52-.02-1.04-.04-1.56-.07q-6.435-.31494-12.69-1.24-5.83494-.855-11.5-2.19c-.02-.01-.05-.01-.07-.02l-1.97-21.37-2.03-8.3-1.93994-7.93-1.71-6.97-.17-.67,8.11-.74,7.94-.72,28.55-2.58,5.25-.47,1.88-.17.51,2.32.25,1.16,3.17,14.63,1.27,5.82Z"/><rect class="cls-12" x="180.2424" y="222.39913" width="100.25672" height="5.73767" transform="translate(-89.69394 188.1879) rotate(-37.75)"/><path class="cls-13" d="M266.68053,193.496c-4.06022.63858-19.815-6.37625-14.5062-10.72239,4.18412-3.21194,12.39031,5.366,15.07806,7.99652l.37173-.38123a33.92931,33.92931,0,0,1,4.90846-5.48986c2.90695-2.51619,18.38533-13.1528,22.35024-9.70258,5.54705,4.43192-16.279,13.44826-19.80544,14.9065,5.77579-2.23979,17.23205-1.9062,20.76808,4.01257-3.393,6.23327-18.02315-1.16279-22.56943-3.40258,2.4304,1.9062,11.17035,8.33011,4.92755,9.9599-3.231.85779-6.73844-2.75446-8.72087-4.86082Z"/><rect class="cls-12" x="179.84075" y="258.53277" width="100.25673" height="5.73767" transform="translate(-96.90361 141.52328) rotate(-28.52)"/><polygon class="cls-7" points="147.2 268.181 90.166 267.581 54.482 212.501 43.436 194.83 9.296 167.41 16.434 154.2 51.794 146.966 94.446 148.262 124.268 94.488 139.384 67.286 158.608 116.809 196.57 145.383 206.311 186.843 188.307 241.818 147.2 268.181"/><path class="cls-14" d="M223.47705,151.64724a12.40267,12.40267,0,0,1,9.69117,1.1067c-.35607-.49076-11.972-16.2257-35.73315-17.73665,0,0,7.38143-4.29217,10.37448-3.9842a45.36335,45.36335,0,0,0-26.52318-2.62734l-16.399-20.81627,11.231-2.4829s-2.69471-3.378-14.77256-3.15663c-.56777-16.15833-17.02449-37.05161-17.02449-37.05161q-2.59842,1.15483-4.937,2.38668c-27.29306,14.23363-28.96759,34.17411-28.79437,40.30446a160.35912,160.35912,0,0,0-25.42605,19.29575s3.17584-9.64306,9.76811-14.77256c-.61587.21176-20.49867,7.23712-28.24581,30.68067a96.40552,96.40552,0,0,0-14.888.308c-14.14693,1.28962-35.33854,5.88976-49.72613,21.14345,0,0,5.61069,15.68683,44.57742,39.90991,0,0-12.03937,24.29045-7.84341,42.54682,0,0,2.66581-20.15223,7.29485-26.95626,0,0-9.52752,42.489,13.57916,57.52138,0,0-6.56337-11.70251-5.95713-18.27558a3.665,3.665,0,0,1,.06737-.56777,5.58724,5.58724,0,0,1,.16365-.741s.077.19249.22133.5582C55.282,260.858,60.3249,272.22374,68.31264,280.327l-.85654-.04817A13.81617,13.81617,0,0,1,70.13155,281.53l.20206.14432a37.54836,37.54836,0,0,1,6.28436-1.02975c-2.98341-3.57039-5.71653-7.6894-5.94749-10.923A130.76182,130.76182,0,0,0,81.863,280.68309c.88538.06732,1.76112.10585,2.64655.231,1.36656.19249,2.71391.40419,4.06121.63515,4.03237.68331,7.98774,1.53021,11.95274,2.49259l2.12688-.51973,5.1776-1.27992c4.552-.41381,8.55557-.68331,12.44356-1.01054a117.10418,117.10418,0,0,0,21.0184-3.43565c2.89671-.75068,5.78385-1.49173,8.68062-2.20388,8.72879-2.14609,17.45757-4.09975,26.30184-5.88976,5.66843-1.1356,8.87317-4.15749,14.40686-7.27559a42.07832,42.07832,0,0,0,7.08309-5.07176c-.10584.13475-1.944,1.9633-6.217,6.90031a51.49864,51.49864,0,0,1,6.84251-6.59234c.6352-.52929,1.29924-1.02975,1.96329-1.51094h-.16365c.59673-.55814,1.18377-1.14523,1.78044-1.73227a28.32322,28.32322,0,0,0,3.45491-4.273c.22138-.308.42345-.62551.61593-.95274.50046-.7988,1.02976-1.68417,1.55905-2.66581a51.20072,51.20072,0,0,0,4.22486-10.52844,62.17765,62.17765,0,0,0,2.175-13.13644s1.4532,5.34119,2.20383,9.73927c.39461,2.2712.59667,4.29224.308,5.17761a62.62486,62.62486,0,0,0,3.62819-8.2187c2.2712-6.25547,4.46545-15.119,2.65617-23.09711.2406.71215,4.04195,12.25107,4.14786,14.89762,0,0,8.71915-22.01925,3.83025-42.97027.20212.385,3.41643,6.62118,3.32022,8.20913C234.09213,186.60087,247.03614,169.40315,223.47705,151.64724ZM47.22687,182.5396c-.51,2.82939-.70252,4.6002-.70252,4.6002C31.9347,183.92542,16.604,166.63149,16.604,166.63149c7.98773-8.671,23.28-9.84518,32.182-9.71043a68.76668,68.76668,0,0,1,6.90024.40418C50.75884,165.87118,48.29515,176.56326,47.22687,182.5396Zm61.94842-41.92125c12.36655-8.58441,37.40768,6.08224,47.7821,21.0376,10.38411,14.95541,8.06475,30.71919-4.29217,39.294-12.39545,8.57483-30.12253,6.74629-40.49695-8.20907C101.78416,177.78544,96.799,149.20282,109.17529,140.61835Zm31.33507-62.91074a79.02363,79.02363,0,0,1,7.10237,10.769,45.87331,45.87331,0,0,1,5.02359,12.95365,17.13619,17.13619,0,0,1-.154,7.98773v.02884s-22.16362-4.32107-29.54506-3.4838C119.76146,106.32876,123.55324,87.78375,140.51036,77.70761Z"/><path class="cls-14" d="M53.50992,258.55463S69.32186,293.05691,93.05409,300.005c0,0-12.10438-11.74221-15.49743-18.19469,0,0,19.61483,23.77988,62.7903,12.24735a52.573,52.573,0,0,1-25.23811-6.18562s63.58137,3.04994,90.34447-37.72374l-81.9,14.611S75.89828,248.25161,75.05,248.55661,53.50992,258.55463,53.50992,258.55463Z"/><path class="cls-15" d="M123.67722,248.28973a29.824,29.824,0,0,1-3.07851-.78155c-.87685-.12391-1.75371-.29546-2.621-.49562a17.10008,17.10008,0,0,1-1.97293-.57186c-3.393-1.24856-7.20544-2.1826-10.1124-4.38428l-.19062-.1239c-5.20393,2.43993-10.68426,8.07277-15.64039,19.29077-15.03994,34.01617,32.89151,44.60514,30.12753,18.95718C120.18887,280.1805,111.83971,256.20047,123.67722,248.28973Z"/><path class="cls-16" d="M116.68146,246.66946c-.23827-.07625-.47655-.143-.71482-.22875l-1.382-.48608c-22.99833,12.08533-10.29349,36.42753-10.29349,36.42753C99.04909,260.051,109.05665,250.56764,116.68146,246.66946Z"/><path class="cls-7" d="M136.30581,250.48186c18.7475,0,37.53313-9.369,55.928-27.84007a.99407.99407,0,1,0-1.41059-1.40106h0c-19.64341,19.73872-39.66806,28.83131-59.51163,27.02995-30.88048-2.80212-50.867-31.45234-51.06717-31.70014a.994.994,0,0,0-1.63933,1.12465c.20015.29546,20.73,29.67,52.5254,32.55794Q133.72291,250.48187,136.30581,250.48186Z"/><path class="cls-7" d="M69.86513,224.92922s-5.96642-27.54461,17.70862-15.42117c0,0-19.18592-7.19591-16.12647,19.43374Z"/><path class="cls-7" d="M173.32426,180.18113c-8.53026,9.7121,19.834,4.92753,19.834,4.92753s1.849-10.32209.08578-17.76581S181.845,170.469,173.32426,180.18113Z"/><ellipse class="cls-14" cx="149.74374" cy="164.84152" rx="4.09834" ry="9.63585" transform="translate(-54.50593 76.0835) rotate(-24.26)"/><ellipse class="cls-7" cx="164.10434" cy="153.6298" rx="4.09834" ry="9.63585" transform="translate(-48.6311 80.99385) rotate(-24.26)"/><path class="cls-13" d="M270.89322,235.85176c-4.10787,0-18.52829-9.46429-12.6-12.91453,4.6416-2.49712,11.43721,7.28169,13.60074,10.31255l.42891-.31453a33.93011,33.93011,0,0,1,5.71861-4.63207c3.27867-2.02057,20.26294-10.03615,23.6083-5.995,4.76551,5.26112-18.22329,10.65568-21.92132,11.54206,6.06171-1.27715,17.30832.9531,19.85308,7.29122-4.35568,5.60424-17.60378-4.03162-21.73069-6.97671,2.08729,2.316,9.68351,10.00756,3.26913,10.62707-3.32632.324-6.2047-3.8124-7.825-6.19516Z"/><path class="cls-7" d="M187.20005,74.53371a5.50271,5.50271,0,1,0,.444,10.99647c3.03659-.1226,21.09994-6.35906,21.09994-6.35906S190.23664,74.41111,187.20005,74.53371Z"/><path class="cls-7" d="M199.87426,57.56238a4.07592,4.07592,0,0,0-4.775,6.60691c1.82445,1.31859,15.19818,5.95527,15.19818,5.95527S201.69871,58.881,199.87426,57.56238Z"/></g></g></svg>