<svg xmlns="http://www.w3.org/2000/svg" viewBox="0 0 256 256"><defs><style>.cls-1{fill:#aaa;}</style></defs><title>IBM</title><path class="cls-1" d="M73.29,149h56.8a18.27,18.27,0,0,1-1.68,5.18H73.29Z"/><path class="cls-1" d="M73.29,100h55.21a25.08,25.08,0,0,1,1.68,5.18H73.29Z"/><path class="cls-1" d="M83.53,129.41h39.4a30.11,30.11,0,0,1,4.61,5.18h-44Z"/><path class="cls-1" d="M114.25,144.4h16.42a18.83,18.83,0,0,0-.9-5.18H114.25Z"/><path class="cls-1" d="M83.53,124.77H123a29.77,29.77,0,0,0,4.59-5.18h-44Z"/><path class="cls-1" d="M114.25,109.77h16.36a22,22,0,0,1-.86,5.18h-15.5Z"/><path class="cls-1" d="M73.29,158.86h51.35C120.1,162.71,116.08,164,109,164H73.29Z"/><path class="cls-1" d="M73.29,95.32h51.35c-4.55-3.86-8.57-5.18-15.62-5.18H73.29Z"/><rect class="cls-1" x="32.33" y="90.14" width="35.84" height="5.18"/><rect class="cls-1" x="32.33" y="99.95" width="35.84" height="5.18"/><rect class="cls-1" x="32.33" y="149.04" width="35.84" height="5.18"/><rect class="cls-1" x="42.57" y="139.22" width="15.36" height="5.18"/><rect class="cls-1" x="42.57" y="129.4" width="15.36" height="5.18"/><rect class="cls-1" x="42.57" y="119.59" width="15.36" height="5.18"/><rect class="cls-1" x="42.57" y="109.77" width="15.36" height="5.18"/><rect class="cls-1" x="83.53" y="139.22" width="15.36" height="5.18"/><rect class="cls-1" x="83.53" y="109.77" width="15.36" height="5.18"/><polygon class="cls-1" points="168.59 144.4 182.8 144.4 184.6 139.22 166.79 139.22 168.59 144.4"/><polygon class="cls-1" points="165.18 134.59 186.22 134.59 188.02 129.4 163.37 129.4 165.18 134.59"/><rect class="cls-1" x="32.33" y="158.85" width="35.84" height="5.18"/><polygon class="cls-1" points="175.43 164.04 175.97 164.04 177.77 158.85 173.63 158.85 175.43 164.04"/><rect class="cls-1" x="144.98" y="139.22" width="15.36" height="5.18"/><rect class="cls-1" x="144.98" y="129.4" width="15.36" height="5.18"/><rect class="cls-1" x="134.74" y="158.85" width="25.6" height="5.18"/><rect class="cls-1" x="134.74" y="149.04" width="25.6" height="5.18"/><polygon class="cls-1" points="172.01 154.22 179.38 154.22 181.19 149.04 170.21 149.04 172.01 154.22"/><rect class="cls-1" x="191.06" y="139.22" width="15.36" height="5.18"/><rect class="cls-1" x="191.06" y="129.4" width="15.36" height="5.18"/><rect class="cls-1" x="191.06" y="158.85" width="25.6" height="5.18"/><rect class="cls-1" x="191.06" y="149.04" width="25.6" height="5.18"/><polygon class="cls-1" points="170.59 109.77 144.98 109.77 144.98 114.96 172.43 114.96 170.59 109.77"/><polygon class="cls-1" points="177.33 119.59 175.69 124.24 174.06 119.59 144.97 119.59 144.97 124.77 160.33 124.77 160.33 120.69 161.76 124.77 189.64 124.77 191.06 120.69 191.06 120.72 191.06 124.77 206.42 124.77 206.42 119.59 177.33 119.59"/><polygon class="cls-1" points="163.63 90.14 134.74 90.14 134.74 95.32 165.47 95.32 163.63 90.14"/><polygon class="cls-1" points="167.11 99.96 134.73 99.96 134.73 105.14 168.95 105.14 167.11 99.96"/><polygon class="cls-1" points="180.81 109.77 206.42 109.77 206.42 114.96 178.97 114.96 180.81 109.77"/><polygon class="cls-1" points="187.76 90.14 216.66 90.14 216.66 95.32 185.92 95.32 187.76 90.14"/><polygon class="cls-1" points="184.28 99.96 216.66 99.96 216.66 105.14 182.44 105.14 184.28 99.96"/><path class="cls-1" d="M222.25,160.18a4,4,0,1,1,4.05,4.07,4.06,4.06,0,0,1-4.05-4.07m7.44,0a3.4,3.4,0,1,0-3.39,3.53,3.38,3.38,0,0,0,3.39-3.53m-1.38,2.27h-.66l-1.29-2.09h-1v2.09h-.55v-4.53h2c1.2,0,1.6.44,1.6,1.2s-.62,1.22-1.42,1.24Zm-2.12-2.53c.64,0,1.58.11,1.58-.81,0-.7-.58-.79-1.13-.79h-1.29v1.61Z"/></svg>