<svg xmlns="http://www.w3.org/2000/svg" width="104" height="40" viewBox="0 0 104 40" aria-hidden="true" class="nav__logo--desktop"><path fill="#ffffff" fill-rule="evenodd" d="M88.337 16.875h10.651c-.728-2.328-2.71-3.75-5.325-3.75-2.616 0-4.598 1.422-5.326 3.75zm15.49 3.647l-15.66.002c.638 2.636 2.876 4.261 5.658 4.261 2.303 0 3.846-.585 5.654-2.576l3.197 3.248c-2.639 2.899-5.429 3.918-9.155 3.918-5.922 0-10.196-4.18-10.196-10.641 0-6.462 4.296-10.609 10.218-10.609 6.246 0 10.457 4.147 10.457 10.609 0 .892-.173 1.788-.173 1.788zm-28.646-1.46c0-3.605-2.44-5.937-5.952-5.937-3.513 0-5.952 2.332-5.952 5.937 0 3.606 2.439 5.938 5.952 5.938s5.952-2.332 5.952-5.938zm4.994-9.955s.018 17.498.018 21.185c0 4.163-2.82 9.708-10.975 9.708C61.9 40 59.226 34.476 59 33.157l4.4-1.212c.121 1.008 1.673 3.71 5.568 3.71 3.704 0 6.27-1.877 6.27-5.146v-2.793c-1.595 1.348-3.658 2.148-6.067 2.148-6.068 0-10.28-4.149-10.28-10.562 0-6.413 4.212-10.552 10.28-10.552 2.674 0 4.954 1.012 6.626 2.697l.379-2.34h3.998zm-33.03-.357c-1.812 0-3.954.894-5.508 2.517l-.255-2.161h-4.418v20.269h4.747V18.342c0-2.789.974-5.074 4.267-5.074 3.378 0 4.378 2.283 4.378 5.068v11.039h4.777V17.917c0-4.958-2.912-9.167-7.988-9.167zm-19.127-.483c-1.522 3.389-4.054 3.286-6.795 3.286h-.41V0h-4.756v11.553h-4.805c-2.768 0-4.912.74-6.496 1.998V0H0v29.375h4.756v-7.358c.045-4.115 1.894-5.392 5.496-5.392h5.805v12.75h4.757v-12.76c2.427-.052 4.522-.511 6.381-1.623v14.383h4.757V9.83h-.003l-3.93-1.563zm4.56-5.142c0 1.726-1.262 3.125-2.819 3.125s-2.82-1.4-2.82-3.125C26.94 1.399 28.203 0 29.76 0s2.82 1.4 2.82 3.125z"></path></svg>