<svg xmlns="http://www.w3.org/2000/svg" width="38" height="38" viewBox="0 0 38 38">
    <g fill="none" fill-rule="evenodd">
        <path fill="#82BAFF" d="M26 2c5.43 0 9.848 4.325 9.996 9.72L36 12c0 5.43-4.325 9.848-9.72 9.996L26 22c-5.523 0-10-4.476-10-10 0-5.43 4.325-9.848 9.72-9.996L26 2zm4.718 6.304c-.385-.397-1.018-.406-1.414-.022l-5.492 5.325-2.116-2.052-.095-.082c-.397-.299-.964-.262-1.319.104-.384.396-.375 1.03.022 1.414l2.812 2.727.094.08c.388.294.94.267 1.299-.08l6.187-6 .085-.093c.31-.388.292-.955-.063-1.321z"/>
        <path fill="#FFF" fill-rule="nonzero" d="M17.657 28.657l4.23 2.94c.226.111.395.223.62.334.282.112.563.112.789.112.845 0 1.634-.39 2.14-1.115.79-1.17.508-2.731-.675-3.567l-11.493-7.915c-.451-.279-.958-.446-1.465-.446H2v8.528h6.366l11.606 8.026c.45.279.958.446 1.465.446h9.971C32.817 36 34 34.83 34 33.436c0-1.393-1.183-2.564-2.592-2.564h-4.676c-.112.223-.225.39-.338.613-.676 1.004-1.802 1.617-3.042 1.617-.732 0-1.465-.223-2.084-.613l-4.62-3.289-1.69-1.17-.17-.112c-.225-.111-.4-.575-.23-.798.112-.223.582-.275.807-.108.15.111.914.66 2.292 1.645z"/>
    </g>
</svg>
