<svg xmlns="http://www.w3.org/2000/svg" width="38" height="38" viewBox="0 0 38 38">
    <g fill="none" fill-rule="evenodd">
        <path fill="#82BAFF" d="M34.003 2C35.106 2 36 2.895 36 3.997v22.006C36 27.106 35.105 28 34.003 28H20v-8.005c0-1.052-.814-1.913-1.846-1.99l-.15-.005H10V3.997C10 2.894 10.895 2 11.997 2h22.006z"/>
        <rect width="16" height="16" x="2" y="20" fill="#FFF" rx="2"/>
        <path fill="#825EEB" d="M21.222 16.707c-.39-.39-.39-1.024 0-1.414l6.05-6.05h-2.444c-.552 0-1-.448-1-1 0-.553.448-1 1-1h5c.553 0 1 .447 1 1v5c0 .552-.447 1-1 1-.552 0-1-.448-1-1v-2.728l-6.192 6.192c-.39.39-1.024.39-1.414 0z"/>
    </g>
</svg>
