<svg xmlns="http://www.w3.org/2000/svg" width="38" height="38" viewBox="0 0 38 38">
    <g fill="none" fill-rule="evenodd">
        <path fill="#FFF" d="M12 10c6.627 0 12 5.373 12 12s-5.373 12-12 12S0 28.627 0 22s5.373-12 12-12zm4.8 15.6H7.2c.699 2.097 2.584 3.6 4.8 3.6 2.216 0 4.101-1.503 4.8-3.6zm-9.6-8.4c-.663 0-1.2.537-1.2 1.2v2.4l.008.14c.07.597.577 1.06 1.192 1.06.663 0 1.2-.537 1.2-1.2v-2.4l-.008-.14c-.07-.597-.577-1.06-1.192-1.06zm9.6 0c-.663 0-1.2.537-1.2 1.2v2.4l.008.14c.07.597.577 1.06 1.192 1.06.663 0 1.2-.537 1.2-1.2v-2.4l-.008-.14c-.07-.597-.577-1.06-1.192-1.06z" transform="translate(1 2)"/>
        <path fill="#82BAFF" d="M35.92 8.08C35.23 7.388 34.292 7 33.315 7c-.977 0-1.914.388-2.605 1.08l-.71.71-.71-.71c-1.439-1.44-3.772-1.44-5.21 0-1.44 1.438-1.44 3.771 0 5.21l.71.71L30 19.21 35.21 14l.71-.71c.692-.69 1.08-1.628 1.08-2.605 0-.977-.388-1.915-1.08-2.605zM22.229.771C21.735.277 21.066 0 20.368 0S19 .277 18.507.771L18 1.278l-.507-.507c-1.028-1.028-2.694-1.028-3.722 0s-1.028 2.694 0 3.722l.507.507L18 8.722 21.722 5l.507-.507C22.723 4 23 3.33 23 2.633c0-.699-.277-1.368-.771-1.862z" transform="translate(1 2)"/>
    </g>
</svg>
