<svg xmlns="http://www.w3.org/2000/svg" width="48" height="48" viewBox="0 0 48 48">
    <g fill="none" fill-rule="evenodd">
        <path fill="#A667E3" d="M11.222 5.996A4.228 4.228 0 0 0 7 10.226v21.637a4.228 4.228 0 0 0 4.222 4.23h3.774v4.977c0 1.506 1.824 2.259 2.88 1.193l6.265-6.17h12.635A4.228 4.228 0 0 0 41 31.863V10.226a4.228 4.228 0 0 0-4.223-4.23H11.222z"/>
        <g fill="#FFF">
            <path d="M31.504 20.632h-1.485v-.744a5.947 5.947 0 0 0-5.942-5.953 5.947 5.947 0 0 0-5.941 5.953v.744H16.65v-.744c0-4.11 3.325-7.441 7.427-7.441 4.102 0 7.427 3.331 7.427 7.44v.745zm0 5.952v-.744h-1.485v.744c0 .411-.333.745-.743.745h-3.713v1.488h3.713c1.23 0 2.228-1 2.228-2.233z"/>
            <path d="M17.393 26.632a2.24 2.24 0 0 1-2.228-2.25v-2.25c0-.829.665-1.5 1.485-1.5h1.486c.82 0 1.485.671 1.485 1.5v2.25a2.24 2.24 0 0 1-2.228 2.25zm15.596-2.28V22.12c0-.822-.665-1.488-1.485-1.488h-1.485c-.82 0-1.486.666-1.486 1.488v2.232a2.23 2.23 0 0 0 2.228 2.232c1.23 0 2.228-.999 2.228-2.232zm-8.17 2.232c-.82 0-1.485.667-1.485 1.489a1.487 1.487 0 0 0 2.97 0c.001-.822-.664-1.489-1.484-1.489z"/>
        </g>
    </g>
</svg>
