<svg xmlns="http://www.w3.org/2000/svg" width="48" height="48" viewBox="0 0 48 48">
    <path fill="#1FCCA1" fill-rule="evenodd" d="M31.881 25.024c-1.117 0-2.024-.907-2.024-2.024s.907-2.024 2.024-2.024 2.024.907 2.024 2.024-.907 2.024-2.024 2.024zm-6.881 0c-1.117 0-2.024-.907-2.024-2.024s.907-2.024 2.024-2.024 2.024.907 2.024 2.024-.907 2.024-2.024 2.024zm-6.881 0c-1.117 0-2.024-.907-2.024-2.024s.907-2.024 2.024-2.024 2.024.907 2.024 2.024-.907 2.024-2.024 2.024zM25 6C15.61 6 8 13.61 8 23c0 3.311.963 6.387 2.599 9.002l-2.461 5.74c-.575 1.343.777 2.695 2.12 2.12l5.74-2.46C18.613 39.036 21.69 40 25 40c9.39 0 17-7.61 17-17S34.39 6 25 6z"/>
</svg>
