<svg width="20" height="19" viewBox="0 0 20 19" xmlns="http://www.w3.org/2000/svg"><path d="M9.518 0c2.585 0 2.909.01 3.924.055 1.013.044 1.705.198 2.31.423.626.233 1.157.544 1.686 1.05.529.506.855 1.014 1.098 1.613.235.579.396 1.241.442 2.21.046.971.057 1.281.057 3.754s-.011 2.783-.057 3.754c-.046.969-.207 1.631-.442 2.21-.243.599-.569 1.106-1.098 1.613-.529.506-1.06.817-1.686 1.05-.605.225-1.297.379-2.31.423-1.015.044-1.339.055-3.924.055s-2.909-.01-3.924-.055c-1.013-.044-1.705-.198-2.31-.423-.626-.233-1.157-.544-1.686-1.05-.529-.506-.855-1.014-1.098-1.613-.235-.579-.396-1.241-.442-2.21-.046-.971-.057-1.281-.057-3.754s.011-2.783.057-3.754c.046-.969.207-1.631.442-2.21.243-.599.569-1.106 1.098-1.613.529-.506 1.06-.817 1.686-1.05.605-.225 1.297-.379 2.31-.423 1.015-.044 1.339-.055 3.924-.055zm0 1.64c-2.542 0-2.843.009-3.846.053-.928.04-1.432.189-1.767.313-.444.165-.761.362-1.094.681-.333.319-.539.622-.712 1.047-.13.321-.285.803-.328 1.691-.046.96-.056 1.248-.056 3.679s.01 2.719.056 3.679c.042.888.197 1.37.328 1.691.173.425.379.728.712 1.047.333.319.65.516 1.094.681.335.125.839.273 1.767.313 1.004.044 1.305.053 3.846.053 2.542 0 2.843-.009 3.846-.053.928-.04 1.432-.189 1.767-.313.444-.165.761-.362 1.094-.681.333-.319.539-.622.712-1.047.13-.321.285-.803.328-1.691.046-.96.056-1.248.056-3.679s-.01-2.719-.056-3.679c-.042-.888-.197-1.37-.328-1.691-.173-.425-.379-.728-.712-1.047-.333-.319-.65-.516-1.094-.681-.335-.125-.839-.273-1.767-.313-1.004-.044-1.305-.053-3.846-.053zm0 2.789c2.699 0 4.888 2.093 4.888 4.675s-2.188 4.675-4.888 4.675c-2.699 0-4.888-2.093-4.888-4.675s2.188-4.675 4.888-4.675zm0 7.71c1.752 0 3.173-1.359 3.173-3.035 0-1.676-1.42-3.035-3.173-3.035-1.752 0-3.173 1.359-3.173 3.035 0 1.676 1.42 3.035 3.173 3.035zm6.223-7.895c0 .603-.511 1.093-1.142 1.093-.631 0-1.142-.489-1.142-1.093 0-.603.511-1.093 1.142-1.093.631 0 1.142.489 1.142 1.093z" fill="#241C15"/></svg>