<svg xmlns="http://www.w3.org/2000/svg" viewBox="0 0 135 40.0001984"><style>.st0&#123;fill:#A6A6A6;&#125; .st1&#123;fill:#FFFFFF;stroke:#FFFFFF;stroke-width:0.2;stroke-miterlimit:10;&#125; .st2&#123;fill:#FFFFFF;&#125; .st3&#123;fill:url(#SVGID_1_);&#125; .st4&#123;fill:url(#SVGID_2_);&#125; .st5&#123;fill:url(#SVGID_3_);&#125; .st6&#123;fill:url(#SVGID_4_);&#125; .st7&#123;opacity:0.2;enable-background:new ;&#125; .st8&#123;opacity:0.12;enable-background:new ;&#125; .st9&#123;opacity:0.25;fill:#FFFFFF;enable-background:new ;&#125;</style><path d="M130 40H5c-2.75 0-5-2.25-5-5V5c0-2.75 2.25-5 5-5h125c2.75 0 5 2.25 5 5v30c0 2.75-2.25 5-5 5z"/><path class="st0" d="M130 .8c2.316 0 4.2 1.884 4.2 4.2v30c0 2.316-1.884 4.2-4.2 4.2H5C2.684 39.2.8 37.316.8 35V5C.8 2.684 2.684.8 5 .8h125m0-.8H5C2.25 0 0 2.25 0 5v30c0 2.75 2.25 5 5 5h125c2.75 0 5-2.25 5-5V5c0-2.75-2.25-5-5-5z"/><path class="st1" d="M47.418 10.243c0 .838-.248 1.506-.745 2.003-.564.592-1.3.888-2.204.888-.867 0-1.603-.3-2.21-.9-.605-.6-.908-1.346-.908-2.234 0-.89.303-1.633.91-2.233.605-.6 1.34-.9 2.207-.9.43 0 .84.083 1.23.25.39.168.705.39.94.67l-.528.53c-.398-.476-.945-.713-1.643-.713-.633 0-1.18.22-1.64.666-.46.444-.69 1.02-.69 1.73s.23 1.286.69 1.73c.46.445 1.007.667 1.64.667.67 0 1.228-.224 1.675-.67.29-.29.458-.696.503-1.216h-2.18v-.72h2.908c.03.157.042.308.042.453zM52.028 7.737h-2.733V9.64h2.464v.72h-2.465v1.903h2.733V13h-3.503V7h3.503v.737zM55.28 13h-.773V7.737H52.83V7h4.124v.737H55.28V13zM59.938 13V7h.77v6h-.77zM64.128 13h-.77V7.737H61.68V7h4.124v.737h-1.676V13zM73.61 12.225c-.59.606-1.324.91-2.2.91-.878 0-1.61-.304-2.2-.91-.59-.606-.884-1.348-.884-2.225s.294-1.62.884-2.225c.59-.606 1.322-.91 2.2-.91.87 0 1.603.305 2.195.914.592.608.888 1.35.888 2.22 0 .877-.295 1.62-.884 2.225zm-3.83-.503c.444.45.987.675 1.63.675.642 0 1.186-.225 1.63-.675.443-.45.666-1.024.666-1.722s-.223-1.272-.667-1.722c-.444-.45-.988-.674-1.63-.674-.643 0-1.186.224-1.63.674-.444.45-.667 1.024-.667 1.722s.223 1.273.666 1.722zM75.575 13V7h.94l2.915 4.668h.033l-.033-1.157V7h.77v6h-.804l-3.05-4.894h-.034l.034 1.157V13h-.77z"/><path class="st2" d="M68.136 21.752c-2.352 0-4.27 1.788-4.27 4.253 0 2.45 1.918 4.253 4.27 4.253 2.352 0 4.27-1.804 4.27-4.253 0-2.465-1.918-4.253-4.27-4.253zm0 6.83c-1.29 0-2.4-1.063-2.4-2.577 0-1.53 1.11-2.578 2.4-2.578 1.29 0 2.4 1.047 2.4 2.578 0 1.514-1.11 2.578-2.4 2.578zm-9.314-6.83c-2.352 0-4.27 1.788-4.27 4.253 0 2.45 1.918 4.253 4.27 4.253 2.352 0 4.27-1.804 4.27-4.253 0-2.465-1.918-4.253-4.27-4.253zm0 6.83c-1.288 0-2.4-1.063-2.4-2.577 0-1.53 1.112-2.578 2.4-2.578 1.29 0 2.4 1.047 2.4 2.578 0 1.514-1.11 2.578-2.4 2.578zm-11.078-5.525v1.804h4.317c-.128 1.016-.466 1.757-.982 2.273-.628.628-1.61 1.32-3.334 1.32-2.66 0-4.737-2.142-4.737-4.8s2.078-4.8 4.737-4.8c1.434 0 2.48.563 3.254 1.288l1.273-1.272c-1.08-1.03-2.513-1.82-4.526-1.82-3.64 0-6.702 2.964-6.702 6.605 0 3.64 3.06 6.605 6.702 6.605 1.965 0 3.447-.644 4.607-1.853 1.193-1.192 1.564-2.867 1.564-4.22 0-.42-.032-.806-.097-1.128h-6.073zm45.308 1.4c-.355-.95-1.434-2.705-3.64-2.705-2.192 0-4.013 1.724-4.013 4.253 0 2.384 1.804 4.253 4.22 4.253 1.95 0 3.077-1.192 3.545-1.885l-1.45-.967c-.484.71-1.144 1.177-2.095 1.177-.95 0-1.627-.436-2.062-1.29l5.687-2.35-.193-.485zm-5.8 1.42c-.048-1.644 1.273-2.482 2.223-2.482.74 0 1.37.37 1.58.902l-3.803 1.58zM82.628 30h1.87V17.5h-1.87V30zm-3.06-7.298h-.065c-.42-.5-1.224-.95-2.24-.95-2.126 0-4.075 1.87-4.075 4.27 0 2.383 1.95 4.236 4.076 4.236 1.015 0 1.82-.45 2.24-.967h.063v.614c0 1.627-.87 2.497-2.27 2.497-1.145 0-1.854-.82-2.144-1.514l-1.627.677c.467 1.128 1.708 2.513 3.77 2.513 2.19 0 4.044-1.29 4.044-4.43V22.01h-1.773v.692zm-2.143 5.88c-1.29 0-2.368-1.08-2.368-2.56 0-1.5 1.08-2.595 2.368-2.595 1.273 0 2.27 1.096 2.27 2.594 0 1.483-.997 2.563-2.27 2.563zm24.38-11.083h-4.47V30H99.2v-4.736h2.606c2.068 0 4.1-1.497 4.1-3.883s-2.032-3.88-4.1-3.88zm.05 6.024H99.2V19.24h2.654c1.395 0 2.187 1.154 2.187 2.14 0 .97-.79 2.144-2.186 2.144zm11.53-1.795c-1.35 0-2.75.594-3.33 1.913l1.658.69c.354-.69 1.013-.916 1.705-.916.965 0 1.946.58 1.962 1.61v.127c-.338-.193-1.062-.482-1.946-.482-1.785 0-3.603.98-3.603 2.814 0 1.673 1.465 2.75 3.105 2.75 1.255 0 1.946-.562 2.38-1.222h.065v.965h1.8v-4.793c0-2.22-1.655-3.458-3.794-3.458zm-.225 6.85c-.61 0-1.463-.305-1.463-1.06 0-.966 1.06-1.336 1.978-1.336.82 0 1.206.177 1.705.418-.145 1.158-1.142 1.978-2.22 1.978zm10.583-6.578l-2.14 5.42h-.063l-2.22-5.42h-2.01l3.33 7.575-1.9 4.214h1.947l5.13-11.788h-2.074zM106.936 30h1.866V17.5h-1.866V30z"/><g><linearGradient id="SVGID_1_" gradientUnits="userSpaceOnUse" x1="21.8" y1="173.29" x2="5.017" y2="156.508" gradientTransform="matrix(1 0 0 -1 0 182)"><stop offset="0" stop-color="#00A0FF"/><stop offset=".007" stop-color="#00A1FF"/><stop offset=".26" stop-color="#00BEFF"/><stop offset=".512" stop-color="#00D2FF"/><stop offset=".76" stop-color="#00DFFF"/><stop offset="1" stop-color="#00E3FF"/></linearGradient><path class="st3" d="M10.435 7.538c-.29.308-.463.786-.463 1.405V31.06c0 .62.172 1.096.463 1.404l.074.072 12.388-12.39v-.29l-12.39-12.39-.073.073z"/><linearGradient id="SVGID_2_" gradientUnits="userSpaceOnUse" x1="33.834" y1="161.999" x2="9.637" y2="161.999" gradientTransform="matrix(1 0 0 -1 0 182)"><stop offset="0" stop-color="#FFE000"/><stop offset=".409" stop-color="#FFBD00"/><stop offset=".775" stop-color="#FFA500"/><stop offset="1" stop-color="#FF9C00"/></linearGradient><path class="st4" d="M27.028 24.28l-4.13-4.133v-.291l4.13-4.13.094.053 4.893 2.78c1.397.794 1.397 2.093 0 2.887l-4.893 2.78-.094.054z"/><linearGradient id="SVGID_3_" gradientUnits="userSpaceOnUse" x1="24.827" y1="159.704" x2="2.069" y2="136.946" gradientTransform="matrix(1 0 0 -1 0 182)"><stop offset="0" stop-color="#FF3A44"/><stop offset="1" stop-color="#C31162"/></linearGradient><path class="st5" d="M27.122 24.225L22.898 20 10.435 32.465c.46.488 1.22.548 2.078.06l14.61-8.3"/><linearGradient id="SVGID_4_" gradientUnits="userSpaceOnUse" x1="7.297" y1="181.824" x2="17.46" y2="171.661" gradientTransform="matrix(1 0 0 -1 0 182)"><stop offset="0" stop-color="#32A071"/><stop offset=".069" stop-color="#2DA771"/><stop offset=".476" stop-color="#15CF74"/><stop offset=".801" stop-color="#06E775"/><stop offset="1" stop-color="#00F076"/></linearGradient><path class="st6" d="M27.122 15.777l-14.61-8.3c-.856-.487-1.616-.427-2.077.06l12.463 12.464 4.224-4.223z"/><path class="st7" d="M27.03 24.132L12.512 32.38c-.812.46-1.537.43-2.003.01l-.075.075.074.072c.466.42 1.19.45 2.003-.012l14.61-8.3-.094-.093z"/><path class="st8" d="M10.435 32.318c-.29-.307-.463-.785-.463-1.405v.147c0 .62.172 1.097.463 1.405l.075-.075-.075-.072zM32.015 21.3L27.03 24.13l.092.093 4.893-2.78c.698-.397 1.048-.92 1.048-1.444-.06.475-.415.94-1.048 1.3z"/><path class="st9" d="M12.513 7.623l19.502 11.08c.633.36.99.824 1.048 1.298 0-.522-.35-1.046-1.048-1.443L12.513 7.477c-1.397-.794-2.54-.134-2.54 1.466v.147c0-1.6 1.143-2.26 2.54-1.467z"/></g></svg>
