<svg width="19" height="16" viewBox="0 0 19 16" xmlns="http://www.w3.org/2000/svg"><path d="M16.762 2.53c.805-.499 1.423-1.291 1.714-2.234-.754.462-1.587.799-2.477.979-.709-.785-1.723-1.275-2.845-1.275-2.151 0-3.897 1.809-3.897 4.039 0 .317.033.624.1.92-3.24-.169-6.111-1.775-8.035-4.222-.336.599-.527 1.293-.527 2.033 0 1.401.688 2.637 1.734 3.362-.638-.02-1.24-.203-1.767-.504v.05c0 1.958 1.344 3.591 3.128 3.96-.327.095-.671.142-1.027.142-.251 0-.496-.024-.734-.072.496 1.604 1.935 2.772 3.641 2.804-1.334 1.084-3.016 1.73-4.841 1.73-.314 0-.626-.018-.93-.055 1.725 1.144 3.775 1.813 5.975 1.813 7.171 0 11.091-6.154 11.091-11.492l-.01-.524c.762-.57 1.423-1.28 1.944-2.091-.698.321-1.45.539-2.238.636z" fill="#241C15"/></svg>