<svg width="21" height="15" viewBox="0 0 21 15" xmlns="http://www.w3.org/2000/svg"><path d="M8.109 9.731l-.001-5.68 5.522 2.85-5.521 2.83zm12.125-6.664s-.2-1.393-.812-2.006c-.777-.805-1.648-.809-2.048-.856-2.86-.205-7.15-.205-7.15-.205h-.009s-4.29 0-7.15.205c-.4.047-1.27.051-2.048.856-.612.613-.812 2.006-.812 2.006s-.204 1.636-.204 3.272v1.534c0 1.636.204 3.272.204 3.272s.199 1.393.812 2.006c.778.805 1.799.78 2.254.864 1.635.155 6.949.203 6.949.203s4.294-.006 7.154-.211c.399-.047 1.27-.051 2.048-.857.612-.613.812-2.006.812-2.006s.204-1.635.204-3.272v-1.534c0-1.635-.204-3.272-.204-3.272z" fill="#241C15"/></svg>