<svg width="17px" height="17px" viewBox="0 0 17 17" version="1.1" xmlns="http://www.w3.org/2000/svg" xmlns:xlink="http://www.w3.org/1999/xlink">
    <g stroke="none" stroke-width="1" fill="none" fill-rule="evenodd">
        <g transform="translate(-764.000000, -234.000000)" fill="#241C15">
            <g transform="translate(603.000000, 234.000000)">
                <path d="M175.486361,14.4858889 L172.965639,14.4858889 L172.965639,10.5404722 C172.965639,9.59980556 172.949111,8.3895 171.655222,8.3895 C170.343389,8.3895 170.143167,9.41469444 170.143167,10.4734167 L170.143167,14.4858889 L167.624806,14.4858889 L167.624806,6.37311111 L170.041639,6.37311111 L170.041639,7.48236111 L170.076111,7.48236111 C170.412333,6.84438889 171.235417,6.17194444 172.46225,6.17194444 C175.014611,6.17194444 175.486361,7.85163889 175.486361,10.0366111 L175.486361,14.4858889 Z M164.781556,5.26480556 C163.971694,5.26480556 163.319083,4.60983333 163.319083,3.80233333 C163.319083,2.99530556 163.971694,2.34033333 164.781556,2.34033333 C165.588111,2.34033333 166.243083,2.99530556 166.243083,3.80233333 C166.243083,4.60983333 165.588111,5.26480556 164.781556,5.26480556 Z M163.519306,14.4858889 L166.042861,14.4858889 L166.042861,6.37311111 L163.519306,6.37311111 L163.519306,14.4858889 Z M176.742,0 L162.254222,0 C161.562417,0 161,0.548722222 161,1.22588889 L161,15.7731667 C161,16.4503333 161.562417,17 162.254222,17 L176.742,17 C177.435694,17 177.999528,16.4503333 177.999528,15.7731667 L177.999528,1.22588889 C177.999528,0.548722222 177.435694,0 176.742,0 Z" id="LinkedIn"></path>
            </g>
        </g>
    </g>
</svg>