<?xml version="1.0" standalone="no"?><!DOCTYPE svg PUBLIC "-//W3C//DTD SVG 1.1//EN" "http://www.w3.org/Graphics/SVG/1.1/DTD/svg11.dtd"><svg width="100%" height="100%" viewBox="0 0 32 30" version="1.1" xmlns="http://www.w3.org/2000/svg" xmlns:xlink="http://www.w3.org/1999/xlink" xml:space="preserve" style="fill-rule:evenodd;clip-rule:evenodd;stroke-linejoin:round;stroke-miterlimit:1.41421;"><g><path d="M27.934,13.023l0,10.224c0,0.754 0.002,1.508 0,2.265c-0.002,0.558 -0.391,1.015 -0.965,1.128c-0.111,0.022 -0.229,0.026 -0.341,0.026c-3.479,0.003 -6.957,0.002 -10.434,0.002c-3.724,0 -7.448,0 -11.171,0.001c-0.161,0 -0.32,-0.012 -0.474,-0.058c-0.469,-0.142 -0.797,-0.533 -0.837,-0.998c-0.006,-0.061 -0.006,-0.124 -0.006,-0.184l0,-12.41l0,-0.151l2.733,0c-0.62,2.388 -0.321,4.665 0.937,6.811c0.897,1.527 2.168,2.709 3.781,3.553c1.596,0.835 3.315,1.223 5.133,1.122c3.04,-0.17 5.48,-1.433 7.332,-3.725c1.769,-2.355 2.285,-4.941 1.586,-7.758l2.726,0l0,0.152ZM15.821,9.41c3.345,0 6.056,2.576 6.056,5.754c0,3.178 -2.707,5.75 -6.057,5.748c-3.351,0 -6.049,-2.565 -6.055,-5.75c-0.007,-3.124 2.66,-5.747 6.056,-5.752M21.877,4.825c0.002,-0.665 0.533,-1.166 1.235,-1.167c1.198,-0.001 2.394,-0.001 3.593,0c0.621,0.001 1.109,0.392 1.215,0.971c0.012,0.062 0.014,0.123 0.014,0.185c0,1.148 0.002,2.292 0,3.436c-0.002,0.578 -0.407,1.04 -1.006,1.143c-0.076,0.014 -0.155,0.014 -0.232,0.014c-0.6,0.003 -1.197,0.002 -1.796,0.002c-0.598,0 -1.197,-0.006 -1.797,0.002c-0.536,0.008 -1.119,-0.362 -1.216,-1.001c-0.008,-0.054 -0.01,-0.108 -0.01,-0.162c0,-1.14 0,-2.282 0,-3.423M4.717,0.702c-3.007,0 -3.967,0.895 -3.967,3.822l0,21.702c0,2.927 0.96,3.822 3.967,3.822l22.207,0c3.007,0 3.967,-0.895 3.967,-3.822l0,-21.702c0,-2.927 -0.96,-3.822 -3.967,-3.822" style="fill:#888;fill-rule:nonzero;"/></g></svg>