<svg xmlns="http://www.w3.org/2000/svg" xmlns:xlink="http://www.w3.org/1999/xlink" width="200" height="200" viewBox="0 0 200 200"><defs><style>.cls-1,.cls-12,.cls-13,.cls-4{fill:none;}.cls-2{isolation:isolate;}.cls-3{fill:#f6f6f6;}.cls-4{stroke:#c9c9c9;stroke-width:2px;}.cls-12,.cls-13,.cls-4{stroke-miterlimit:10;}.cls-5{fill:#231f20;}.cls-6{fill:#323031;}.cls-15,.cls-7{fill:#fff;}.cls-8{fill:#e5bc98;}.cls-11,.cls-9{fill:#ce9c78;}.cls-9{opacity:0.41;}.cls-10{fill:#e7be99;}.cls-12{stroke:#ce9c78;}.cls-12,.cls-13{stroke-width:0.9px;}.cls-13{stroke:#231f20;}.cls-14{fill:#db9c94;}.cls-15{opacity:0.7;}.cls-16{clip-path:url(#clip-path);}.cls-17{clip-path:url(#clip-path-2);}.cls-18,.cls-19,.cls-20,.cls-21{mix-blend-mode:multiply;}.cls-18{fill:url(#linear-gradient);}.cls-19{fill:url(#linear-gradient-2);}.cls-20{fill:url(#linear-gradient-3);}.cls-21{fill:url(#linear-gradient-4);}</style><clipPath id="clip-path"><polyline class="cls-1" points="352.45 364.54 351.42 410.29 327.3 410.01 324.91 363.55"/></clipPath><clipPath id="clip-path-2"><rect class="cls-1" x="282.52" y="215.2" width="224.01" height="223.72"/></clipPath><linearGradient id="linear-gradient" x1="-90197.15" y1="-97197.28" x2="-90147.74" y2="-97097.19" gradientTransform="translate(97373.94 -89932.14) rotate(-90)" gradientUnits="userSpaceOnUse"><stop offset="0.05" stop-color="#fff" stop-opacity="0"/><stop offset="0.14" stop-color="#fcfefd" stop-opacity="0.05"/><stop offset="0.3" stop-color="#f3faf9" stop-opacity="0.18"/><stop offset="0.51" stop-color="#e5f4f1" stop-opacity="0.4"/><stop offset="0.77" stop-color="#d1ebe7" stop-opacity="0.7"/><stop offset="1" stop-color="#bde3dc"/></linearGradient><linearGradient id="linear-gradient-2" x1="-96650.52" y1="86803.69" x2="-96601.11" y2="86903.78" gradientTransform="translate(96894.15 -86628.14)" xlink:href="#linear-gradient"/><linearGradient id="linear-gradient-3" x1="87350.45" y1="93257.06" x2="87399.85" y2="93357.15" gradientTransform="translate(93590.15 -87107.93) rotate(90)" xlink:href="#linear-gradient"/><linearGradient id="linear-gradient-4" x1="93803.81" y1="-90743.91" x2="93853.21" y2="-90643.83" gradientTransform="translate(94069.92 -90411.94) rotate(180)" xlink:href="#linear-gradient"/></defs><title>Artboard 108 copy 2</title><g class="cls-2"><g id="Layer_1" data-name="Layer 1"><circle class="cls-3" cx="100" cy="100" r="69.73"/><circle class="cls-4" cx="100" cy="100" r="69.73"/><path class="cls-5" d="M82.07,138.65a7.73,7.73,0,0,1,.08-1.08h0c.9-6,8.83-10.88,9.73-11.24a.85.85,0,0,1-.29.08l-.77-3.87c-1.37.23-4.58,2.48-6.72,4.43a20.86,20.86,0,0,0-5.44,7.39h0l-.06.16a.69.69,0,0,1,0,.13c-.07.19-.14.38-.2.58l0,.1-.18.63v0h0a11.58,11.58,0,0,0-.26,1.33A11.36,11.36,0,0,0,81,146.41c2.66,3.07,7.07,5.87,13.1,8.31l1.73-3.6C86.67,147.43,82.06,143.24,82.07,138.65Z"/><path class="cls-5" d="M119.8,135.63a9.21,9.21,0,0,0-.18-1h0c-1.34-5.76-7.65-9.34-8.34-9.55a1.07,1.07,0,0,0,.21,0l.12-3.94c1,0,3.6,1.72,5.37,3.31a19.16,19.16,0,0,1,4.8,6.44h0l.06.14a.69.69,0,0,1,0,.13,4.87,4.87,0,0,1,.21.53,1,1,0,0,0,0,.1c.07.2.14.39.2.59,0,0,0,0,0,0h0c.13.41.24.84.33,1.27a14.91,14.91,0,0,1-1.16,9.47c-1.58,3.45-4.44,6.91-8.53,10.28l-1.66-3.29C117.49,145,120.34,140.16,119.8,135.63Z"/><path class="cls-6" d="M96.38,168.9l0-7.23,14.43,1.17,0,5.3c.59-.16,1.18-.3,1.79-.42l.11-14.54L94,154.06l.08,14.75C94.85,168.81,95.61,168.84,96.38,168.9Z"/><polygon class="cls-5" points="90.65 120.42 115.4 124.9 113.2 159.88 103.7 159.34 102.38 157.5 101.2 159.56 94.37 159.34 90.65 120.42"/><polygon class="cls-7" points="95 125.67 111.34 128.38 103.17 151.74 103.17 151.74 95 125.67"/><path class="cls-5" d="M50.16,103.12a15.79,15.79,0,0,1-4.06,7.11c-2.2,2.15-5.59,5.38-8.91,5,12,7.33,28.31,14.23,42.52,10.19a35.63,35.63,0,0,0,15.86-10.16L97.35,11.43S44.16-13.91,50.16,103.12Z"/><path class="cls-8" d="M61.1,61c0-19.93,19.36-36.08,43.23-36.08S147.55,41,147.55,61a39.92,39.92,0,0,1-.83,7.76h0a51.81,51.81,0,0,1-1.32,5.18l.85,13.19c.07.34.13.67.18,1,0,.11,0,.22.05.33s.06.45.08.67,0,.26.05.39,0,.4,0,.6l0,.41c0,.2,0,.39,0,.58s0,.27,0,.41,0,.38,0,.57v.41c0,.19,0,.38,0,.57s0,.25,0,.39l0,.6c0,.11,0,.23,0,.35l-.06.7,0,.24c0,.3-.07.61-.11.92,0,.08,0,.16,0,.24,0,.23-.07.45-.11.68s0,.22-.07.34-.07.38-.11.57,0,.24-.08.36-.08.36-.13.54l-.09.37c-.05.18-.09.35-.14.52s-.07.25-.11.37l-.15.52-.12.36-.18.53L145,102c-.07.2-.14.39-.22.59a2,2,0,0,1-.1.26c-.11.29-.22.57-.35.85h0c-.12.28-.24.56-.37.83l-.12.27-.27.55-.16.32-.26.5c-.05.11-.11.21-.17.32l-.27.48-.18.33-.27.47-.19.32-.3.47c-.06.1-.13.2-.19.31l-.32.49-.18.27-.4.59-.12.16-.53.75-.14.18-.41.55-.21.26-.35.46-.24.29-.34.42-.25.3-.35.4-.25.3-.36.4-.25.28-.37.41-.25.27-.41.42-.22.24-.61.62-.13.12-.54.54-.25.24-.4.38-.29.28-.37.34-.3.28-.36.32-.32.28-.35.31-.33.28-.34.3-.33.28-.35.29-.33.27-.36.3-.46.36-.51.41-.37.28-.31.24-.38.29-.29.22-.39.29-.29.22-.39.28a2.83,2.83,0,0,1-.28.2c-.13.1-.26.2-.4.29l-.26.19-.41.29-.23.16-.44.3-.16.11c-.77.53-1.53,1-2.28,1.51l-.08,0-.51.32-.11.07-.49.31-.12.08-.49.3-.1.06-.5.31-.06,0-.54.33h0l0,0-1.09.64,0,0,0,0,0,0-1.52.86-.08.05,0,0-.46.25h0l-.51.28-.72.37h0l-.1,0h0l-.66.28h0c-6.32,2.6-13.49.5-19.41-2.53h0L92.93,129h0c-.38-.2-.76-.42-1.12-.63h0c-1.84-1.07-3.51-2.19-4.93-3.21h0l-.8-.59,0,0-.73-.55,0,0-.65-.5,0,0-.59-.47,0,0-.52-.43h0c-.5-.41-.88-.75-1.14-1h0l-.2-.18h0l-.14-.14c-1.5-1.14-2.83-2.27-4-3.37h0l0,0c-.38-.35-.74-.7-1.08-1h0l-.18-.18h0c-.68-.68-1.31-1.35-1.88-2h0l-.09-.1h0c-.28-.32-.54-.64-.8-1h0l-.11-.13h0c-.52-.64-1-1.28-1.41-1.9h0l-.07-.1h0a26.42,26.42,0,0,1-1.67-2.84.3.3,0,0,0,0-.08h0S65.53,99.84,66.29,87l-.48-14.32-5.1-5.67Z"/><path class="cls-9" d="M95,27.56s43.7,51.75,30.64,97.24l14-6.18,10.87-25.35S129.74,36.54,129,37s-27-20.76-27-20.76Z"/><path class="cls-5" d="M96.77,25.44S153.94,74,125.64,124.8c0,0,43.78,10.22,45.55-25.82S137-16,95.67,11.43Z"/><path class="cls-5" d="M98,23.33S72.36,60.6,58.24,67.9C58.24,67.9,62.06,14.42,98,23.33Z"/><path class="cls-10" d="M65.09,69.68S59.87,60.52,48.91,66c-7.44,3.68-4.54,7.5-.35,10.21a41.35,41.35,0,0,0,7.9,3.75s6.69,2.35,3.23,7.57-3.81,7.2-1.3,8.1,8.17-.41,8.92-3.65C70.58,78,65.09,69.68,65.09,69.68Z"/><path class="cls-11" d="M64.52,79.68s-6.16-9.32-4.91,2.22C59.61,81.9,59.8,74.56,64.52,79.68Z"/><path class="cls-11" d="M64.45,79.63s-8-18.45-10.05-4.52C54.4,75.11,57.6,67.5,64.45,79.63Z"/><path class="cls-12" d="M85,99.85S99.38,121.49,119,112.07"/><path class="cls-5" d="M77.79,79.27s6.71-22.45,22.08-4.42C99.87,74.85,87.08,66.22,77.79,79.27Z"/><path class="cls-5" d="M112.71,74.42s12.52-19.81,22.46,1.71C135.17,76.13,125.18,64.36,112.71,74.42Z"/><path class="cls-11" d="M87.29,94.31s1.37,10.53-8.44,6.79C78.85,101.1,86.6,102.4,87.29,94.31Z"/><path class="cls-13" d="M73.81,63.66S87.9,55.67,98,65.6"/><path class="cls-13" d="M112,65s8.42-9.94,18.68-4.36"/><path class="cls-14" d="M104.78,94.23s14,5.58,14-2c0-9.75-11.68-.24-11.68-.24l-3.22-17.24.89,19.46Z"/><path class="cls-15" d="M106.68,92.94l-2.69-16-.1-2.17L107.11,92s10.79-9,11.63-.71C116.63,88,112.44,88,106.68,92.94Z"/><g class="cls-16"><g class="cls-17"><path class="cls-18" d="M170.56,253.76a84,84,0,0,0,24.69,59.62l3.6-3.6a69.62,69.62,0,0,1,56-110.94,54.91,54.91,0,0,1,54.92,54.92,69.62,69.62,0,1,0-139.23,0Z"/><path class="cls-7" d="M309.8,253.76a54.92,54.92,0,1,1-54.92-54.91A54.92,54.92,0,0,1,309.8,253.76Z"/><path class="cls-19" d="M254.88,169.44a84,84,0,0,0-59.62,24.7l3.6,3.6a69.62,69.62,0,0,1,110.94,56,54.92,54.92,0,0,1-54.92,54.92,69.62,69.62,0,0,0,0-139.24Z"/><path class="cls-20" d="M339.19,253.77a84.06,84.06,0,0,0-24.7-59.63l-3.59,3.6a69.62,69.62,0,0,1-56,110.94A54.9,54.9,0,0,1,200,253.77a69.62,69.62,0,1,0,139.23,0Z"/><path class="cls-21" d="M254.87,338.08a84.06,84.06,0,0,0,59.62-24.7l-3.6-3.6a69.61,69.61,0,0,1-110.94-56,54.92,54.92,0,0,1,54.92-54.92,69.62,69.62,0,0,0,0,139.24Z"/></g></g></g></g></svg>