<svg width="52" height="52" viewBox="0 0 52 52" fill="none" xmlns="http://www.w3.org/2000/svg">
<path fill-rule="evenodd" clip-rule="evenodd" d="M26 0C18.9381 0 18.0541 0.0288889 15.2808 0.156C12.5132 0.283111 10.6224 0.722222 8.96856 1.365C7.23379 2.0178 5.6623 3.04114 4.36367 4.36367C3.04139 5.66251 2.01809 7.23394 1.365 8.96856C0.722222 10.6224 0.281667 12.5132 0.156 15.2822C0.0303333 18.0541 0 18.9367 0 26C0 33.0633 0.0288889 33.9459 0.156 36.7192C0.283111 39.4868 0.722222 41.3776 1.365 43.0314C2.0178 44.7662 3.04114 46.3377 4.36367 47.6363C5.80811 49.0808 7.25978 49.9706 8.96856 50.635C10.6224 51.2778 12.5132 51.7183 15.2808 51.844C18.0541 51.9697 18.9381 52 26 52C33.0619 52 33.9459 51.9711 36.7192 51.844C39.4868 51.7169 41.3776 51.2778 43.0314 50.635C44.7662 49.9822 46.3377 48.9588 47.6363 47.6363C49.0808 46.1919 49.9706 44.7402 50.635 43.0314C51.2778 41.3776 51.7183 39.4868 51.844 36.7192C51.9697 33.9459 52 33.0619 52 26C52 18.9381 51.9711 18.0541 51.844 15.2808C51.7169 12.5132 51.2778 10.6224 50.635 8.96856C49.9822 7.23382 48.9588 5.66233 47.6363 4.36367C46.3375 3.04139 44.7661 2.01809 43.0314 1.365C41.3776 0.722222 39.4868 0.281667 36.7178 0.156C33.9459 0.0303333 33.0633 0 26 0ZM26 4.68433C32.942 4.68433 33.7653 4.71178 36.5069 4.836C39.0419 4.95156 40.4184 5.37478 41.3342 5.73156C42.5476 6.20244 43.4142 6.76722 44.3242 7.67578C45.2342 8.58578 45.7976 9.45244 46.2684 10.6658C46.6252 11.5816 47.0484 12.9581 47.164 15.4931C47.2882 18.2347 47.3157 19.058 47.3157 26C47.3157 32.942 47.2882 33.7653 47.164 36.5069C47.0484 39.0419 46.6252 40.4184 46.2684 41.3342C45.852 42.4637 45.1876 43.4854 44.3242 44.3242C43.4142 45.2342 42.5476 45.7976 41.3342 46.2684C40.4184 46.6252 39.0419 47.0484 36.5069 47.164C33.7653 47.2882 32.9434 47.3157 26 47.3157C19.0566 47.3157 18.2347 47.2882 15.4931 47.164C12.9581 47.0484 11.5816 46.6252 10.6658 46.2684C9.53634 45.852 8.51463 45.1876 7.67578 44.3242C6.81244 43.4853 6.14809 42.4636 5.73156 41.3342C5.37478 40.4184 4.95156 39.0419 4.836 36.5069C4.71178 33.7653 4.68433 32.942 4.68433 26C4.68433 19.058 4.71178 18.2347 4.836 15.4931C4.95156 12.9581 5.37478 11.5816 5.73156 10.6658C6.20244 9.45244 6.76722 8.58578 7.67578 7.67578C8.58578 6.76578 9.45244 6.20244 10.6658 5.73156C11.5816 5.37478 12.9581 4.95156 15.4931 4.836C18.2347 4.71178 19.058 4.68433 26 4.68433Z" fill="black"/>
<path fill-rule="evenodd" clip-rule="evenodd" d="M26 34.6754C24.8608 34.6754 23.7326 34.451 22.6801 34.015C21.6276 33.579 20.6712 32.94 19.8656 32.1344C19.0601 31.3289 18.421 30.3725 17.9851 29.32C17.5491 28.2674 17.3247 27.1393 17.3247 26C17.3247 24.8608 17.5491 23.7327 17.9851 22.6801C18.421 21.6276 19.0601 20.6712 19.8656 19.8657C20.6712 19.0601 21.6276 18.4211 22.6801 17.9851C23.7326 17.5491 24.8608 17.3247 26 17.3247C28.3009 17.3247 30.5075 18.2387 32.1344 19.8657C33.7613 21.4926 34.6754 23.6992 34.6754 26C34.6754 28.3009 33.7613 30.5075 32.1344 32.1344C30.5075 33.7614 28.3009 34.6754 26 34.6754ZM26 12.636C22.4557 12.636 19.0565 14.044 16.5502 16.5503C14.044 19.0565 12.636 22.4557 12.636 26C12.636 29.5444 14.044 32.9436 16.5502 35.4498C19.0565 37.9561 22.4557 39.364 26 39.364C29.5444 39.364 32.9436 37.9561 35.4498 35.4498C37.956 32.9436 39.364 29.5444 39.364 26C39.364 22.4557 37.956 19.0565 35.4498 16.5503C32.9436 14.044 29.5444 12.636 26 12.636ZM43.2525 12.3934C43.2525 13.2312 42.9196 14.0347 42.3272 14.6271C41.7348 15.2196 40.9313 15.5524 40.0935 15.5524C39.2556 15.5524 38.4521 15.2196 37.8597 14.6271C37.2673 14.0347 36.9345 13.2312 36.9345 12.3934C36.9345 11.5556 37.2673 10.7521 37.8597 10.1596C38.4521 9.5672 39.2556 9.23438 40.0935 9.23438C40.9313 9.23438 41.7348 9.5672 42.3272 10.1596C42.9196 10.7521 43.2525 11.5556 43.2525 12.3934Z" fill="black"/>
</svg>
