<svg xmlns="http://www.w3.org/2000/svg" xmlns:xlink="http://www.w3.org/1999/xlink" width="200" height="200" viewBox="0 0 200 200"><defs><style>.cls-1,.cls-24,.cls-4{fill:none;}.cls-2{isolation:isolate;}.cls-3{fill:#f6f6f6;}.cls-4{stroke:#c9c9c9;stroke-width:2px;}.cls-24,.cls-4{stroke-miterlimit:10;}.cls-5{fill:#c06558;}.cls-6{fill:#e5bc98;}.cls-7{fill:#e6bd98;}.cls-8{fill:#cd9b78;}.cls-9{fill:#7f1f26;}.cls-10{fill:#e8bf9a;}.cls-11{fill:#9d2635;}.cls-12,.cls-14{fill:#cf9d78;}.cls-13{fill:#e5e5e5;}.cls-14,.cls-20{opacity:0.4;}.cls-15,.cls-22{fill:#fff;}.cls-16{clip-path:url(#clip-path);}.cls-17{fill:#009144;}.cls-18{fill:#221f1f;}.cls-19{opacity:0.2;mix-blend-mode:multiply;}.cls-20{fill:#c69677;}.cls-21{fill:#db9c94;}.cls-22{opacity:0.7;}.cls-23{opacity:0.31;}.cls-24{stroke:#b18466;stroke-width:0.55px;}.cls-25{fill:#b18466;}</style><clipPath id="clip-path"><path class="cls-1" d="M71.67,80.06S76,95.38,89.89,85.46c0,0-8-10.33-18.27-5.57"/></clipPath></defs><title>Artboard 108 copy 8</title><g class="cls-2"><g id="Layer_1" data-name="Layer 1"><circle class="cls-3" cx="100" cy="100" r="69.73"/><circle class="cls-4" cx="100" cy="100" r="69.73"/><path class="cls-4" d="M74.27,164.84a70.41,70.41,0,0,0,35,4.28"/><path class="cls-5" d="M79.23,142.9c2.17-3,6.38-5.6,8.36-6.58l-.82-1.66.82,1.66L86,133c-.86.42-6.25,3.17-9.45,7.34A11,11,0,0,1,79.23,142.9Z"/><path class="cls-6" d="M77.86,146.72a6.34,6.34,0,0,1,1.56-4.07,8.1,8.1,0,0,1-2.69-2.58,10.17,10.17,0,0,0-2.57,6.84c.27,5,5.09,9.2,14.74,12.72l1.27-3.48C82.29,153.27,78,150,77.86,146.72Z"/><path class="cls-5" d="M118.24,143.9c-2.17-3-6.38-5.6-8.36-6.58l.82-1.66-.82,1.66,1.63-3.32c.86.42,6.25,3.17,9.45,7.34A11,11,0,0,0,118.24,143.9Z"/><path class="cls-6" d="M119.61,147.72a6.34,6.34,0,0,0-1.56-4.07,8.22,8.22,0,0,0,2.7-2.58,10.21,10.21,0,0,1,2.56,6.84c-.27,5-5.09,9.2-14.74,12.72l-1.27-3.48C115.18,154.27,119.43,151,119.61,147.72Z"/><polyline class="cls-5" points="112.95 129.35 111.36 168.81 87.4 168.81 84.63 128.34"/><path class="cls-7" d="M88.67,136.13s9.32,29.12,20.83.56l-20.22-.56"/><path class="cls-8" d="M89.43,138.2a30.29,30.29,0,0,0,19.66-.53l-.87,2S99.57,144.89,89.43,138.2Z"/><path class="cls-8" d="M95.73,145.47c-.14,0,3.52.25,2.89,3.74C98.62,149.21,98.24,146.15,95.73,145.47Z"/><path class="cls-8" d="M101.72,145.47c.14,0-3.52.25-2.9,3.74C98.82,149.21,99.21,146.15,101.72,145.47Z"/><path class="cls-9" d="M61,95.82s-7.9,40.66,24.9,38.59.82.07.82.07Z"/><path class="cls-9" d="M61,93.19s-20.94,21.6,2.12,58.91c0,0-18.14-32.51,0-57.5S61,93.19,61,93.19Z"/><path class="cls-9" d="M74.47,25.78S31.88,44.58,61,93.19c0,0,30.25-58.58,24.06-65.52S74.47,25.78,74.47,25.78Z"/><path class="cls-9" d="M74.47,25.78s31-43.46,65,6.81-3.55,79.13-3.55,79.13,5.06,27.58,26.23,27.13c0,0-21.76,11.29-36.2-12.91s-28-88.82-28-88.82S84.3,40.9,74.47,25.78Z"/><path class="cls-10" d="M61.78,85.25c0,1.34-.53,2.86-.65,4.21a41.32,41.32,0,0,0,.63,11.37c3.59,18.66,20.78,40.29,41.76,38.84a21.55,21.55,0,0,0,2.64-.39c16.21-3.11,30.14-20.18,33.31-35.8,4.16-20.48,10.21-70.7-34.39-68.88S61.18,31.1,61.78,85.25Z"/><path class="cls-9" d="M83.06,34.43a283.67,283.67,0,0,0,35.25,3.35c19.77.57,26.11,46.53,24,65.64l5.85-43.48L132.29,34.43l-14-6.76Z"/><path class="cls-11" d="M77.31,25.88s30.89-24.09,52.43,0C129.74,25.88,111.89,7.46,77.31,25.88Z"/><path class="cls-10" d="M146.74,78.21a3,3,0,0,0,.29-.16,76.61,76.61,0,0,1-2.48-15.49c-4.66,1.29-6.47,6.14-6.47,6.14s-4,8.86.37,22.66c1,3.19,6.12,4,8.23,2.85s1.6-3.13-2-8.06S146.74,78.21,146.74,78.21Z"/><path class="cls-12" d="M145,68c-2.73.27-5.41,10.49-5.41,10.49,2.32-6.28,4.36-7.74,5.85-7.59C145.31,69.9,145.16,68.93,145,68Z"/><path class="cls-12" d="M139.58,78.51s4.43-10,4.54,1.78C144.12,80.29,143.19,72.9,139.58,78.51Z"/><path class="cls-13" d="M145.48,92.28a1.36,1.36,0,1,0-1.36,1.35A1.36,1.36,0,0,0,145.48,92.28Z"/><path class="cls-14" d="M77.31,42.48s28.34-16.6,69.25,37.81l1.36-2.87-8.34-16-13.24-14-10.73-7.63L103,36.87,87.51,35.52l-10.2,2Z"/><path class="cls-9" d="M61.78,87.08S60.49,37.12,93,37.5s51,34.24,55,46.59l.19-27.78L133.81,34.43l-24.47-6.76H85.05L70.68,34.43l-6,6L60,48.9,57.75,73.2Z"/><path class="cls-11" d="M74.9,28.58s-13.64,5-18.15,17.93C56.75,46.51,66.69,31.73,74.9,28.58Z"/><path class="cls-11" d="M82.16,26.53s24.22-11.29,46.17,7.9c0,0-23.31-16-46.17-7.9"/><path class="cls-15" d="M71.67,80.06S76,95.38,89.89,85.46c0,0-8-10.33-18.27-5.57"/><g class="cls-16"><path class="cls-17" d="M86.5,79.63a4.82,4.82,0,1,1-5.71,3.55A4.77,4.77,0,0,1,86.5,79.63Z"/><path class="cls-18" d="M85.93,82a2.36,2.36,0,1,1-2.8,1.73A2.31,2.31,0,0,1,85.93,82Z"/><path class="cls-15" d="M83.2,83.38a.95.95,0,1,1-1.12.69A.94.94,0,0,1,83.2,83.38Z"/></g><path class="cls-18" d="M89.89,85.46c-.15-.14-.22-.71-.33-.91a14.83,14.83,0,0,0-1.45-1.94,13.21,13.21,0,0,0-8.06-4.49,37.32,37.32,0,0,0-4.25-.47c-1.83-.11-3.69,0-5.51-.16a10.47,10.47,0,0,1-4.74-1.66,8.2,8.2,0,0,1-1.88-1.62,5,5,0,0,1-1-2S62.4,77.53,69,79.92c0,0-1.91.59-5.25-1.11,0,0,1.1,1.6,4.47,2.88a6.7,6.7,0,0,1,2.7,1.56c.93,1.07,1.46,2.37,2.47,3.41a7.52,7.52,0,0,0,3.42,2.06,9.24,9.24,0,0,0,2.41.36,12.67,12.67,0,0,0,1.85-.1c.48,0,1-.23,1.49-.25,0,0-8.69.32-9.65-8.63C72.91,80.1,80.35,76.71,89.89,85.46Z"/><path class="cls-19" d="M72.25,81.2s7.29-2.13,17.64,4.26l-3.68-3.23-5.29-2.52-5.22-1-2.27.49Z"/><path class="cls-20" d="M109.54,84.32s12,22.82,20.88-3Z"/><path class="cls-15" d="M127.87,81.22s-2.72,14.92-18.37,2.92c0,0,6.5-9.36,18.46-3.09"/><path class="cls-17" d="M128.77,83.91a1.7,1.7,0,0,0,.09-.24,4.58,4.58,0,0,0-3.26-5.62,4.68,4.68,0,0,0-2.29,9.07,4.48,4.48,0,0,0,2.06,0A7.41,7.41,0,0,1,128.77,83.91Z"/><path class="cls-18" d="M125,80.34A2.3,2.3,0,1,1,122.32,82,2.28,2.28,0,0,1,125,80.34Z"/><path class="cls-15" d="M122.39,81.69a.92.92,0,0,1-.45,1.78.92.92,0,0,1,.45-1.78Z"/><path class="cls-18" d="M109.5,84.14a11.54,11.54,0,0,0,1.06-1.23,7.64,7.64,0,0,1,1.53-1.4c2.83-2.12,4.16-3.29,8.48-3.44a14,14,0,0,1,2.58.13c2.26.14,4.52.53,6.79.61a15.15,15.15,0,0,0,6.06-1,10.14,10.14,0,0,0,2.54-1.38A4.9,4.9,0,0,0,140,74.5s-.39,5.45-8.83,7c0,0,2.25.86,6.59-.39,0,0-1.57,1.47-5.9,2.3a9.1,9.1,0,0,0-3.53,1.19c-1.3,1-2.14,2.2-3.53,3.11a7,7,0,0,1-3.75,1.15,12.15,12.15,0,0,1-2.74-.16c-.75-.09-1.19-.4-1.94-.56-.58-.12-1.7-.89-2.28-1,0,0,10.92,3.15,13.38-5.79C127.47,81.33,122.47,76.62,109.5,84.14Z"/><path class="cls-19" d="M127.5,82.43s-5.29-3.33-18,1.71l2.4-1.79,3.71-2.93,1.93-.39,5.42.4s2,.2,2.08.24l2.8.56Z"/><path class="cls-9" d="M68.35,72.19s9.82-9.22,25.57,1C93.92,73.21,79.83,67.75,68.35,72.19Z"/><path class="cls-9" d="M105.38,72.19s12.25-9.22,31.92,1C137.3,73.21,119.71,67.75,105.38,72.19Z"/><path class="cls-9" d="M82.16,39.59S109,45.67,116.79,75c0,0-.58-32.69-33.73-38.56Z"/><path class="cls-21" d="M102,102.19s-13.75,6.16-14.08-1.4c-.41-9.73,11.65-.72,11.65-.72L102,82.71,102,102.19Z"/><path class="cls-22" d="M100,101l2-16.09V82.71l-2.5,17.36s-11.15-8.49-11.65-.22C89.86,96.46,94.05,96.28,100,101Z"/><g class="cls-23"><path class="cls-15" d="M136.59,79.6a2.2,2.2,0,0,0-2.36-1.92l-27.12-.23a2.17,2.17,0,0,0-2.41,1.84l-.15,10.23a2.21,2.21,0,0,0,2.35,2l27.16.38a2.13,2.13,0,0,0,2.4-1.82Z"/></g><path d="M134.14,92.58H134l-27.16-.38c-1.81,0-3.27-1.25-3.25-2.68l.15-10.24c0-1.41,1.5-2.56,3.28-2.56l27.2.23c1.81,0,3.28,1.23,3.26,2.66L137.38,90C137.37,91.44,135.91,92.58,134.14,92.58Zm-27-14.4a1.33,1.33,0,0,0-1.47,1.12l-.15,10.23a1.39,1.39,0,0,0,1.46,1.21l27.21.39a1.3,1.3,0,0,0,1.4-1.1l.13-10.43a1.36,1.36,0,0,0-1.46-1.19l-27.12-.23Z"/><path d="M105.47,85.28s-6.79-3.26-11.55,0l.3-3.24s5.71-3.54,11.33.28Z"/><g class="cls-23"><path class="cls-15" d="M94.44,79.58A2.24,2.24,0,0,0,92,77.49L67.88,77a2.52,2.52,0,0,0-2.73,2l-.73,10.13a2.25,2.25,0,0,0,2.44,2.11L91,91.88a2.49,2.49,0,0,0,2.72-2Z"/></g><path d="M91.1,92.7H91L66.82,92c-2,0-3.58-1.36-3.58-2.92V79c0-1.54,1.6-2.8,3.55-2.8h.1L92,76.68a4,4,0,0,1,2.52.9,2.47,2.47,0,0,1,.93,2L94.76,90C94.66,91.49,93.05,92.7,91.1,92.7ZM66.83,77.78A1.37,1.37,0,0,0,65.31,79V89.08a1.51,1.51,0,0,0,1.59,1.29l24.2.7a1.52,1.52,0,0,0,1.6-1.2l.71-10.33a1.05,1.05,0,0,0-.39-.86,1.69,1.69,0,0,0-1-.37l-25.14-.53Z"/><path d="M95.19,79.22s.53,1.35,4.55,1.31,4-1.25,4-1.25l.32,3.63L95,82.34Z"/><path class="cls-24" d="M88.67,121.23s30.85,14,36.06-15.48"/><path class="cls-25" d="M120,104.56s6.87-6.82,9,2.28C129,106.84,126.53,100.47,120,104.56Z"/></g></g></svg>