<svg xmlns="http://www.w3.org/2000/svg" width="200" height="200" viewBox="0 0 200 200"><defs><style>.cls-1{isolation:isolate;}.cls-2{fill:#f6f6f6;}.cls-10,.cls-12,.cls-3{fill:none;}.cls-3{stroke:#c9c9c9;stroke-width:2px;}.cls-10,.cls-3{stroke-miterlimit:10;}.cls-4{fill:#27a7de;}.cls-5{fill:#ee5a29;}.cls-6{fill:#e7be99;}.cls-14,.cls-7{fill:#231f20;}.cls-7{opacity:0.2;mix-blend-mode:multiply;}.cls-8{fill:#1c1615;}.cls-9{fill:#ce9c78;}.cls-10{stroke:#1c1615;stroke-width:0.51px;}.cls-11{fill:#fff;}.cls-12{stroke:#b79581;stroke-linecap:round;stroke-linejoin:round;stroke-width:0.51px;}.cls-13{fill:#ced0d1;}.cls-15{fill:#c18b99;}.cls-16{fill:#cd9c78;}</style></defs><title>Artboard 108</title><g class="cls-1"><g id="Layer_1" data-name="Layer 1"><circle class="cls-2" cx="100" cy="100" r="69.73"/><circle class="cls-3" cx="100" cy="100" r="69.73"/><path class="cls-4" d="M87,168.37l.86-13.8,8.74-.13-1,15.42c.45,0,.89.1,1.33.17l1.38-20.09L87.1,148.68,85.92,168.2Z"/><polyline class="cls-5" points="93.79 152.98 97.91 153.11 101.69 129.8 86.59 131.52 86.54 152.7"/><path class="cls-5" d="M122.14,147.1c-7.47,0-17.18-1.76-25.35-9.08l1.1-1.23c15,13.43,35.52,7.27,35.73,7.21l.49,1.57A45.38,45.38,0,0,1,122.14,147.1Z"/><path class="cls-6" d="M132.64,144.19c-1.59-.95-5-8-1.91-7.93,2.38.11,2.74,5.47,2.9,7.15l.24,0a14.84,14.84,0,0,1,3.3-.47c1.74,0,10.19.78,10.56,3.12.63,3.15-9.55-.06-11.19-.58,2.65.9,6.51,4.36,6,7.42-3,1.18-5.9-5.63-6.83-7.73.28,1.38,1.45,6.13-1.18,4.88-1.37-.64-1.54-2.91-1.61-4.21"/><path class="cls-5" d="M77.21,140.48a46.35,46.35,0,0,1-21.73-5.78l.86-1.4c.19.11,18.59,11.12,36.4,1.78l.77,1.46A34.77,34.77,0,0,1,77.21,140.48Z"/><path class="cls-6" d="M57.24,133.73c1.78-.54,6.82-6.49,3.8-7.22-2.33-.49-4,4.62-4.57,6.22l-.22-.08a14.93,14.93,0,0,0-3.08-1.27c-1.68-.46-10.08-1.75-11,.44-1.39,2.89,9.27,2.27,11,2.18-2.79.22-7.38,2.63-7.66,5.71,2.61,1.88,7.11-4,8.52-5.81-.61,1.27-2.91,5.58,0,5,1.48-.28,2.2-2.44,2.59-3.69"/><path class="cls-6" d="M114.21,135.44S88.74,150,71.56,126.24L67.18,109l1.2-10.62,4-4.09s2.08-5,2.82-4.85,53.4,13.27,53.4,13.27l1,11.33s-8,14.89-8.86,15.23S114.21,135.44,114.21,135.44Z"/><path class="cls-6" d="M144.29,48.55s-15.38,54.33-16.59,55S113,126.77,113,126.77L107.88,131s-5.16,7.05-17.51,4.93c-12.56-2.16-14.27-13-14.27-13s-6-20.62-5.75-22,3.06-23.48,3.51-24.34S75.34,53,75.34,53l3.14-17.49S143.63,49.13,144.29,48.55Z"/><polygon class="cls-7" points="143.9 57.78 109.43 56.25 77.74 38.99 91.73 34.94 142.81 48.23 143.9 57.78"/><path class="cls-8" d="M133.36,104.76l-2.27,26.45L127,128.79l1.52,5.76-3-3.74-.36,4.32-17.32,3.36s18.39-15.27,18.55-28.73c0,0,0-20.71,5.46-22.16,0,0-10-1.83,9.74-34.72l-32.67-1.41L78.9,39.76s4.25,33-4.2,35.62c0,0,3.81,6.49-3.85,22.23,0,0-2.81,25,6,34.92l-14-11,2.29-3.14-4.43,1.66,2.5-4.14-6.42.73L67.25,90.13s-22.72-34.54-9.9-58c0,0,.68,4.54,1.72,4.76,0,0-2.1-13.38,1-18.95,0,0,2.41,11.9,4.29,13.33,0,0-3.36-19.09-2.32-22.75,0,0,17.33,9.58,27.4,9.62S116,.42,148,32.24c0,0,15.45,3,22.49-.72,0,0-5.84,13.53-10.95,18.42,0,0,7.25-4.7,9-9.24,0,0-3,14.38-7.5,17.58,0,0,3.34-.33,4.49-3.2C165.57,55.08,166.52,77.8,133.36,104.76Z"/><path class="cls-6" d="M139.29,90.09s7.1-5.91,14.36,1.93c4.93,5.32,1.39,7.55-2.87,8.48a35.49,35.49,0,0,1-7.6.64s-6.19-.14-5,5.21.88,7.09-1.44,7.05-6.54-2.86-6.16-5.75C132.26,95.18,139.29,90.09,139.29,90.09Z"/><path class="cls-9" d="M136.41,98.8s7.9-5.75,3.32,3.33C139.73,102.13,141.84,96.05,136.41,98.8Z"/><path class="cls-9" d="M136.48,98.78s12.21-12.68,9.6-.61C146.08,98.17,145.82,90.94,136.48,98.78Z"/><path class="cls-6" d="M66.05,75.85s-4.13-8.26-13.93-4c-6.66,2.9-4.3,6.37-.78,8.93A36.32,36.32,0,0,0,58,84.41s5.73,2.35,2.46,6.76-3.65,6.14-1.51,7,7.14,0,7.95-2.8C70.44,83.33,66.05,75.85,66.05,75.85Z"/><path class="cls-9" d="M66,85.26S61.08,76.83,61.63,87C61.63,87,62.14,80.56,66,85.26Z"/><path class="cls-9" d="M66,85.21S59.86,68.7,57.41,80.8C57.41,80.8,60.55,74.29,66,85.21Z"/><path class="cls-10" d="M111.2,141.48l-5.15-7.74"/><path class="cls-10" d="M108.66,141.23a60.5,60.5,0,0,0-3.44-5.93"/><path class="cls-10" d="M107,141.44l-2.5-4.13"/><path class="cls-10" d="M79.7,131.22q-3,2.07-6,4.29"/><path class="cls-10" d="M82.1,133.58a14.31,14.31,0,0,0-4.33,3.23"/><path class="cls-8" d="M114.75,57.65l-5.12-7.54c-.16-.24-1,.15-1,.26l5.12,7.54c.16.24,1.06-.14,1-.26Z"/><path class="cls-8" d="M111.85,57.52q-3.42-4.59-6.83-9.2c-.28-.36-1.2,0-.9.44L111,58c.28.37,1.2,0,.9-.44Z"/><path class="cls-8" d="M116,54.41a32.89,32.89,0,0,0-4.19-4.94c-.25-.24-1.18.13-.9.39a34.1,34.1,0,0,1,4.19,4.94c.19.29,1.14,0,.9-.39Z"/><path class="cls-11" d="M93.51,124.65a14.13,14.13,0,0,0,2.53.44c-.19.71-.94,2.78-3.13,2-2-.72-1.32-2.2-.87-2.9A15,15,0,0,0,93.51,124.65Z"/><path class="cls-11" d="M92.06,124.16c-.43.68-1.71,2.28-3.5.93s-.67-2.47,0-3A13.93,13.93,0,0,0,92.06,124.16Z"/><path class="cls-11" d="M85.75,119.29l.47.48A15.51,15.51,0,0,0,88.47,122l0,0s-2,2.51-3.84.38S85.75,119.29,85.75,119.29Z"/><path class="cls-11" d="M85.75,119.4s-2.27,1.76-3.41-.47,1.58-2.52,1.58-2.52Z"/><path class="cls-12" d="M102,125.5c-8.88.34-17.69-3.4-19.07-13.15"/><path class="cls-12" d="M86.24,113.48s-3.6-3.5-5.9.85"/><path class="cls-7" d="M107.75,97.36c.64-2.12,3.09-3.16,5.48-2.33a4.55,4.55,0,0,1,3.19,5.34,3.6,3.6,0,0,1-2.2,2.32h0l-.38.13h-.06a2.21,2.21,0,0,1-.37.08l-.08,0-.36,0h-.58l-.33,0-.14,0-.35-.07-.12,0-.48-.14A4.57,4.57,0,0,1,107.75,97.36Z"/><path class="cls-7" d="M86,92.09c.61-2,3-3,5.28-2.24S94.92,93,94.31,95a3.46,3.46,0,0,1-2.12,2.23h0c-.12,0-.24.09-.36.12h-.06l-.35.08H91.3l-.34,0h-.55l-.33,0-.13,0-.34-.06-.12,0L89,97.22C86.72,96.42,85.34,94.12,86,92.09Z"/><path class="cls-11" d="M107.22,96.88a3.9,3.9,0,0,0,2.69,4.59,3.47,3.47,0,0,0,4.64-2,3.89,3.89,0,0,0-2.68-4.58A3.48,3.48,0,0,0,107.22,96.88Z"/><path class="cls-13" d="M113.68,100.11A3.91,3.91,0,0,0,111,95.52a3.85,3.85,0,0,0-3.1.18,2.82,2.82,0,0,0-.67,1.18,4.09,4.09,0,0,0,5.79,4.41A3.13,3.13,0,0,0,113.68,100.11Z"/><path class="cls-14" d="M107.68,98.06c0,.43.26.77.55.77s.52-.34.51-.76-.26-.77-.55-.77S107.67,97.64,107.68,98.06Z"/><path class="cls-11" d="M87.79,91.67a3.9,3.9,0,0,0,2.69,4.58,3.48,3.48,0,0,0,4.65-2,3.91,3.91,0,0,0-2.69-4.59A3.48,3.48,0,0,0,87.79,91.67Z"/><path class="cls-13" d="M94.25,94.89a4.09,4.09,0,0,0-5.79-4.41,3.1,3.1,0,0,0-.67,1.19,4.09,4.09,0,0,0,5.79,4.41A2.86,2.86,0,0,0,94.25,94.89Z"/><path class="cls-14" d="M88.25,92.85c0,.42.26.76.56.76s.51-.34.5-.76-.26-.76-.55-.76S88.24,92.43,88.25,92.85Z"/><path class="cls-8" d="M104.89,90.38l1.37,3.21s11.87-7.49,17.59,1.92l2.21-4.69S116.41,80.08,104.89,90.38Z"/><path class="cls-8" d="M98.36,92.1l-2.2,2.71s-9.35-10.46-17.44-3l-.84-5.12S89.28,78.36,98.36,92.1Z"/><path class="cls-15" d="M97.21,109.42l3.91-15.72c5.74,7.36,1,16.79-.45,19h0c.79-.29,5-1.74,3.55,1.39-1.23,2.63-3.28.72-4.2-.34.91,1.25,2.46,4-2,3.71-5.74-.42,0-5.62,0-5.62s-5.36,2.83-5.3-1.94S97.21,109.42,97.21,109.42Z"/><path class="cls-11" d="M102.7,96.31c3.08,6.81-.75,14.4-2,16.32h0c.73-.27,4.36-1.51,3.8.74-.07-2.07-5.49.13-5.49.13C104.05,107.9,103.52,99.62,102.7,96.31Z"/><path class="cls-8" d="M96.8,20.52A39.16,39.16,0,0,0,77.93,3.23a1.15,1.15,0,0,0-1.06-.09c-.43.26-.36.89-.21,1.36,1.6,5,6.33,8.13,10.74,10.9a13.76,13.76,0,0,0-7.52-3,1.64,1.64,0,0,0-.88.11c-.59.33-.54,1.2-.32,1.83,1.26,3.53,5.15,5.26,8.67,6.55"/><path class="cls-8" d="M138.73,27.16a39.25,39.25,0,0,1,24.92-5.81,1.19,1.19,0,0,1,1,.45c.24.43-.13.95-.49,1.28-3.83,3.54-9.51,4-14.71,4.24a13.69,13.69,0,0,1,8,1.06,1.57,1.57,0,0,1,.71.53c.35.57-.11,1.31-.62,1.75-2.83,2.46-7.07,2.06-10.76,1.45"/><path class="cls-16" d="M100,90.82A9.77,9.77,0,0,0,97.32,80.5S100.27,86.76,100,90.82Z"/><path class="cls-16" d="M102.58,91a9.75,9.75,0,0,1,5.1-9.37S103.31,87,102.58,91Z"/></g></g></svg>