<svg xmlns="http://www.w3.org/2000/svg" viewBox="0 0 200 200" width="200" height="200"><defs><style>.cls-1{isolation:isolate;}.cls-2{fill:#f6f6f6;}.cls-3{fill:#c9c9c9;}.cls-4{fill:#bb1e2d;}.cls-5{fill:#e6bd99;}.cls-6{fill:#424242;}.cls-7{fill:#595858;}.cls-14,.cls-8{fill:none;}.cls-8{stroke:#a77c4f;stroke-linecap:round;stroke-linejoin:round;stroke-width:0.47px;}.cls-9{fill:#a5804f;}.cls-10,.cls-11,.cls-12{fill:#cd9b78;}.cls-10{opacity:0.2;}.cls-10,.cls-11{mix-blend-mode:multiply;}.cls-11{opacity:0.1;}.cls-13{fill:#fff;}.cls-14{stroke:#a37f5f;stroke-width:0.77px;}.cls-15{fill:#a37f5f;}.cls-16{fill:#d99b94;}.cls-17{fill:#494848;}</style></defs><title>Artboard 108 copy 17</title><g class="cls-1"><g id="Layer_1" data-name="Layer 1"><path class="cls-2" d="M168.73,100a68.36,68.36,0,0,1-10.09,35.86h0q-1.77,2.88-3.81,5.57-.51.69-1.05,1.35c-.92,1.17-1.89,2.31-2.89,3.41h0a68.65,68.65,0,0,1-43.72,22.16,70.48,70.48,0,0,1-7.16.36q-3.36,0-6.65-.32a67.9,67.9,0,0,1-11.29-2c-.78-.2-1.56-.43-2.33-.67A68.74,68.74,0,0,1,59.43,44.51c.5-.37,1-.73,1.52-1.08a65.09,65.09,0,0,1,6.64-4.06c1.64-.88,3.32-1.7,5-2.43A67.61,67.61,0,0,1,89.69,32a69.05,69.05,0,0,1,36.18,4.27s0,0,0,0l.5.21h0q2.17.9,4.27,2A68.72,68.72,0,0,1,168.73,100Z"/><path class="cls-3" d="M100,170.73A70.73,70.73,0,1,1,170.74,100,70.81,70.81,0,0,1,100,170.73Zm0-139.46A68.73,68.73,0,1,0,168.74,100,68.81,68.81,0,0,0,100,31.27Z"/><path class="cls-4" d="M87.46,156l1.55,1.9c-.26.22-.55.46-.86.74-2.21,2-5.26,5.25-6.09,7.77-.78-.2-1.56-.43-2.33-.67,1.14-3.62,5-7.38,6.86-9Z"/><path class="cls-4" d="M108.17,152.25l-.36,5.68-.15,2.44,0,.77,0,.7h0l0,.33-.39,6.19a70.48,70.48,0,0,1-7.16.36q-3.36,0-6.65-.32l-.56-5.82-1.27-13.35,8.2,1.48Z"/><path class="cls-4" d="M112.74,160.64a50.52,50.52,0,0,1-11.1-1.23l.54-2.39c29.18,6.54,51.34-16.37,51.56-16.6l1.78,1.68C155.32,142.31,137.62,160.64,112.74,160.64Z"/><path class="cls-5" d="M152.62,141.38c-2.76-.09-12.29-6.68-8.24-8.89,3.16-1.6,7.53,5.09,9,7.16l.29-.2a22.77,22.77,0,0,1,3.93-3c2.24-1.3,13.79-6.39,16-3.62,3.11,3.62-12.43,6.85-14.94,7.37,4.1-.75,11.62.93,13.21,5.25-3,3.69-11.75-3-14.48-5.06,1.37,1.59,6.34,6.89,2,7.19-2.24.16-4.11-2.66-5.15-4.3Z"/><path class="cls-6" d="M63.13,91c.69,1.68,1.47,3.42,2.35,5.2l6.91,1.61-.72-8.66v0L69.56,63.51l-1.49-18.1s-7.31,5.18-9.35,17.14C57.52,69.57,58.15,78.93,63.13,91Z"/><path class="cls-7" d="M63.13,91l8.54-1.85v0L69.56,63.51c-2.67-.94-6.92-2-10.84-1C57.52,69.57,58.15,78.93,63.13,91Z"/><path class="cls-8" d="M108.45,71.33S96.46,73.47,86.08,61"/><path class="cls-9" d="M65.94,91.8c0-.26-.24-2.6-.55-5.72C67.68,93.63,69.82,99,69.82,99S65.94,92.63,65.94,91.8Z"/><path class="cls-5" d="M66.67,103.79v-.22A1.61,1.61,0,0,1,66.67,103.79Z"/><path class="cls-5" d="M65.55,97c.29,2,1.06,4.37,1.12,6.44,0-1.1.07-4.48.12-4.86,0,.27,0,2,.06,6.38,0,5,0,1.18,1.69,5.63-3.08,31.51,16.57,44,16.57,44,5.68,8.59,11.4,10.6,16.32,9.77,8.23-1.38,14.26-10.66,14.26-10.66C129,149,127.86,117,126.07,109c.26-2.12.78-.9.69-32.19L130.9,63c-.07-8.18-3.09-13.69-7.84-17.53-3.92-3.17-9-5.21-14.64-6.67a44,44,0,0,0-12.14-1.29c-8,.18-15.22,2-20.38,2.58-8.16.88-11.05,11-11.71,18.46q-.31,3.56-.45,7.2A176.15,176.15,0,0,0,65.55,97Z"/><path class="cls-10" d="M63.74,65.78c40.72,11.29,60.06-17.64,60.06-17.64l-.74-2.64c-3.92-3.17-9-5.21-14.64-6.67a44,44,0,0,0-12.14-1.29c-8,.18-15.22,2-20.38,2.58-8.16.88-11.05,11-11.71,18.46Q63.88,62.14,63.74,65.78Z"/><path class="cls-11" d="M101.44,164.38c8.22-1.38,14.25-10.66,14.25-10.66C129,149,127.86,117,126.07,109c.25-2.12.78-.9.69-32.19L130.21,66c-.14-14.91-9.36-24-21.79-27.21a44,44,0,0,0-12.14-1.29C92.55,88.06,98,139.31,101.44,164.38Z"/><path class="cls-5" d="M68.17,92.26s-3.35-9-10.51-4.82c-8.92,5.17,4.83,13.62,4.83,13.62s4.34,2.74,2.06,7.3-2.53,6.4-.9,7.44,5.32.29,5.83-2.66C71.69,100.41,68.17,92.26,68.17,92.26Z"/><path class="cls-12" d="M67.72,101.25s-5.08-17.83-6.51-5C61.21,96.22,63.33,89.41,67.72,101.25Z"/><path class="cls-12" d="M67.76,101.31s-4-9.19-3.21,1.65C64.55,103,64.72,96.15,67.76,101.31Z"/><path class="cls-13" d="M97.71,164.53c11.84-.2,17.13-12.2,17.13-12.2,15.4-7,10.87-44.78,10.87-44.78l.37.1c-.09.74.06.83,0,1.39,1.78,8.1,2.86,40.49-10.42,45.24C115.66,154.28,108.9,165.5,97.71,164.53Z"/><path class="cls-6" d="M104.89,93.13c5.07-3.67,7.94-3.62,13.16.2l3-3.47c-6.9-5.77-12.71-5.86-19.37-.28Z"/><path class="cls-6" d="M75.21,94c5.36-3.66,8.4-3.62,13.92.21l3.2-3.46C85.05,85,78.9,84.9,71.86,90.47Z"/><path class="cls-14" d="M78.41,130.88s18.32,20.81,37.52-3.5"/><path class="cls-15" d="M117.07,99.18s-5.46-11.79-12.64.75C104.43,99.93,110.51,90.08,117.07,99.18Z"/><path class="cls-15" d="M87.69,100s-5.46-11.79-12.63.75C75.06,100.72,81.13,90.86,87.69,100Z"/><path class="cls-12" d="M126.79,114.19A7.92,7.92,0,0,1,125,111s.41,3.46,1.92,4.63Z"/><path class="cls-12" d="M68.19,115.31a7.27,7.27,0,0,0,1.56-3.25s-.14,3.46-1.56,4.65Z"/><path class="cls-16" d="M96.65,116.26l0-23.71,2.5,25.23S84,128.43,82.5,117.45c-.06-.49-.11-1-.13-1.39C84.17,110.89,89,110.13,96.65,116.26Z"/><path class="cls-13" d="M82.36,116.06a1.93,1.93,0,0,1,0-.24,7.1,7.1,0,0,1,.71-3.91c2.79-4.48,12.54,2.83,12.85,3.06h0l.24-19.1.09-6.51.31,3.18,0,23.71C89,110.13,84.15,110.89,82.36,116.06Z"/><path class="cls-15" d="M121.31,128.48S114,132.14,114,123C114,123,114.69,129.51,121.31,128.48Z"/><path class="cls-15" d="M79.24,126s2.86,8.28-5.55,7.31C73.69,133.35,79.73,133.28,79.24,126Z"/><path class="cls-6" d="M123.8,48.14a74.12,74.12,0,0,0-1.63,10c-1.52,15.83,2.68,27.54,6.15,34.21a36.53,36.53,0,0,0,4.06,6.4c.14-2.53.26-5,.36-7.53.48-11.81.51-22.78.46-29.73h0c0-4.71-.12-7.57-.12-7.57a23.68,23.68,0,0,0-3.62-13.12c-26.17-38.17-51.31-28-51.31-28l12,10.33L53.32,1.87C40.79,84.59,123.8,48.14,123.8,48.14Z"/><path class="cls-7" d="M128.32,92.33h2.2l2.22-1.13c.48-11.81.51-22.78.46-29.73h0a33.71,33.71,0,0,0-11-3.34C120.65,74,124.85,85.66,128.32,92.33Z"/><path class="cls-17" d="M61.31,36.91,52.46,8.12c.46-1.81.3-4.32.86-6.25L73.59,13.53C89,39.2,117.89,48.37,123.79,48.14c-4.07,2.11-5.87,2.57-18.85,5.93Z"/><path class="cls-6" d="M53.32,1.87l.13.07c4.67,39.91,48,50.73,54.54,51.34C79.71,57.33,42.25,50.39,53.32,1.87Z"/><path class="cls-5" d="M125.75,90.33s6.12-12.4,11.82-2.7c5.82,9.89-5.25,13.4-4.79,13.15,0,0-4.85,1.9-2,7.17s3.26,7.24,1.45,8-6.11-.88-6.86-4.07C122.15,98.06,125.75,90.33,125.75,90.33Z"/><path class="cls-11" d="M125.75,90.33s6.12-12.4,11.82-2.7c5.82,9.89-5.25,13.4-4.79,13.15,0,0-4.85,1.9-2,7.17s3.26,7.24,1.45,8-6.11-.88-6.86-4.07C122.15,98.06,125.75,90.33,125.75,90.33Z"/><path class="cls-12" d="M126.77,99.83S131.63,82.33,134,96C134,96,131.16,88.43,126.77,99.83Z"/><path class="cls-12" d="M126.73,99.87s4-8.71,3.78,2.44C130.51,102.31,129.93,95.16,126.73,99.87Z"/><path class="cls-6" d="M118.55,30.47s-1.4-10-6.42-14.33c0,0,15.68,3.21,13.93,19.94Z"/><path class="cls-6" d="M124.83,37.13s5.78-5.47,12.31-1.15c0,0-8.32-.77-8.83,9Z"/></g></g></svg>