<svg xmlns="http://www.w3.org/2000/svg" xmlns:xlink="http://www.w3.org/1999/xlink" width="200" height="200" viewBox="0 0 200 200"><defs><style>.cls-1,.cls-17,.cls-19,.cls-4{fill:none;}.cls-2{isolation:isolate;}.cls-3{fill:#f6f6f6;}.cls-4{stroke:#c9c9c9;stroke-width:2px;}.cls-17,.cls-19,.cls-4{stroke-miterlimit:10;}.cls-5{fill:#110a06;}.cls-6{fill:#1c75b9;}.cls-7{fill:#662d8e;}.cls-8{fill:#e7be99;}.cls-9{fill:#f0d0b4;}.cls-10{fill:#dfb28b;}.cls-11{fill:#c59577;opacity:0.5;}.cls-12,.cls-22{fill:#fff;}.cls-13{fill:#221f1f;}.cls-14{clip-path:url(#clip-path);}.cls-15{fill:#1f597a;}.cls-16{opacity:0.2;}.cls-16,.cls-25,.cls-26,.cls-27,.cls-28,.cls-29,.cls-30,.cls-31,.cls-32,.cls-33,.cls-34,.cls-35,.cls-36,.cls-37,.cls-38,.cls-39,.cls-40,.cls-41,.cls-42,.cls-43,.cls-44,.cls-45,.cls-46,.cls-47,.cls-48,.cls-49,.cls-50,.cls-51,.cls-52,.cls-53,.cls-54,.cls-55,.cls-56,.cls-58{mix-blend-mode:multiply;}.cls-17{stroke:#dfb28b;stroke-width:0.75px;}.cls-18{fill:#231f20;}.cls-19{stroke:#2b1910;stroke-width:0.59px;}.cls-20{fill:#808082;}.cls-21{fill:#db9c94;}.cls-22{opacity:0.7;}.cls-23{clip-path:url(#clip-path-2);}.cls-24{clip-path:url(#clip-path-3);}.cls-25{fill:url(#linear-gradient);}.cls-26{fill:url(#linear-gradient-2);}.cls-27{fill:url(#linear-gradient-3);}.cls-28{fill:url(#linear-gradient-4);}.cls-29{fill:url(#linear-gradient-5);}.cls-30{fill:url(#linear-gradient-6);}.cls-31{fill:url(#linear-gradient-7);}.cls-32{fill:url(#linear-gradient-8);}.cls-33{fill:url(#linear-gradient-9);}.cls-34{fill:url(#linear-gradient-10);}.cls-35{fill:url(#linear-gradient-11);}.cls-36{fill:url(#linear-gradient-12);}.cls-37{fill:url(#linear-gradient-13);}.cls-38{fill:url(#linear-gradient-14);}.cls-39{fill:url(#linear-gradient-15);}.cls-40{fill:url(#linear-gradient-16);}.cls-41{fill:url(#linear-gradient-17);}.cls-42{fill:url(#linear-gradient-18);}.cls-43{fill:url(#linear-gradient-19);}.cls-44{fill:url(#linear-gradient-20);}.cls-45{fill:url(#linear-gradient-21);}.cls-46{fill:url(#linear-gradient-22);}.cls-47{fill:url(#linear-gradient-23);}.cls-48{fill:url(#linear-gradient-24);}.cls-49{fill:url(#linear-gradient-25);}.cls-50{fill:url(#linear-gradient-26);}.cls-51{fill:url(#linear-gradient-27);}.cls-52{fill:url(#linear-gradient-28);}.cls-53{fill:url(#linear-gradient-29);}.cls-54{fill:url(#linear-gradient-30);}.cls-55{fill:url(#linear-gradient-31);}.cls-56{fill:url(#linear-gradient-32);}.cls-57{clip-path:url(#clip-path-4);}.cls-58{fill:#211f1f;opacity:0.15;}.cls-59{fill:#885f3d;}</style><clipPath id="clip-path"><path class="cls-1" d="M71.93,77.15s2.61,13.69,15.52,6c0,0-6.19-9.6-15.55-6.21"/></clipPath><clipPath id="clip-path-2"><polyline class="cls-1" points="-119.99 123.3 -121.02 169.06 -145.13 168.78 -147.52 122.32"/></clipPath><clipPath id="clip-path-3"><rect class="cls-1" x="-189.91" y="-26.03" width="224.01" height="223.72"/></clipPath><linearGradient id="linear-gradient" x1="-90893.3" y1="-97214.51" x2="-90843.9" y2="-97114.42" gradientTransform="translate(97142.74 -90645.81) rotate(-90)" gradientUnits="userSpaceOnUse"><stop offset="0.05" stop-color="#fff" stop-opacity="0"/><stop offset="0.14" stop-color="#fcfefd" stop-opacity="0.05"/><stop offset="0.3" stop-color="#f3faf9" stop-opacity="0.18"/><stop offset="0.51" stop-color="#e5f4f1" stop-opacity="0.4"/><stop offset="0.77" stop-color="#d1ebe7" stop-opacity="0.7"/><stop offset="1" stop-color="#bde3dc"/></linearGradient><linearGradient id="linear-gradient-2" x1="-96898.94" y1="86786.18" x2="-96849.54" y2="86886.26" gradientTransform="translate(96894.15 -86628.14)" xlink:href="#linear-gradient"/><linearGradient id="linear-gradient-3" x1="87101.73" y1="92791.82" x2="87151.13" y2="92891.9" gradientTransform="translate(92876.48 -86876.73) rotate(90)" xlink:href="#linear-gradient"/><linearGradient id="linear-gradient-4" x1="93107.36" y1="-91208.86" x2="93156.77" y2="-91108.78" gradientTransform="translate(93125.05 -90894.4) rotate(180)" xlink:href="#linear-gradient"/><linearGradient id="linear-gradient-5" x1="-96927.44" y1="86850.98" x2="-96854.34" y2="86850.98" gradientTransform="translate(96894.15 -86628.14)" gradientUnits="userSpaceOnUse"><stop offset="0.05" stop-color="#fff" stop-opacity="0"/><stop offset="0.2" stop-color="#f2faf8" stop-opacity="0.19"/><stop offset="0.49" stop-color="#dcf0ec" stop-opacity="0.53"/><stop offset="0.73" stop-color="#cbe9e3" stop-opacity="0.79"/><stop offset="0.91" stop-color="#c1e5de" stop-opacity="0.94"/><stop offset="1" stop-color="#bde3dc"/></linearGradient><linearGradient id="linear-gradient-6" x1="-90921.8" y1="-97149.7" x2="-90848.7" y2="-97149.7" gradientTransform="translate(97142.74 -90645.81) rotate(-90)" xlink:href="#linear-gradient-5"/><linearGradient id="linear-gradient-7" x1="87073.23" y1="92856.62" x2="87146.33" y2="92856.62" gradientTransform="translate(92876.48 -86876.73) rotate(90)" xlink:href="#linear-gradient-5"/><linearGradient id="linear-gradient-8" x1="-90781.62" y1="-97102.54" x2="-90732.22" y2="-97002.45" xlink:href="#linear-gradient"/><linearGradient id="linear-gradient-9" x1="-90669.58" y1="-97214.51" x2="-90620.18" y2="-97114.42" xlink:href="#linear-gradient"/><linearGradient id="linear-gradient-10" x1="-96898.94" y1="86562.46" x2="-96849.54" y2="86662.54" gradientTransform="translate(96894.15 -86628.14)" xlink:href="#linear-gradient"/><linearGradient id="linear-gradient-11" x1="86876.18" y1="92792.61" x2="86925.58" y2="92892.69" gradientTransform="translate(92876.48 -86876.73) rotate(90)" xlink:href="#linear-gradient"/><linearGradient id="linear-gradient-12" x1="93107.36" y1="-90985.15" x2="93156.77" y2="-90885.06" gradientTransform="translate(93125.05 -90894.4) rotate(180)" xlink:href="#linear-gradient"/><linearGradient id="linear-gradient-13" x1="-96927.44" y1="86627.26" x2="-96854.34" y2="86627.26" xlink:href="#linear-gradient-5"/><linearGradient id="linear-gradient-14" x1="-90698.09" y1="-97149.7" x2="-90624.98" y2="-97149.7" gradientTransform="translate(97142.74 -90645.81) rotate(-90)" xlink:href="#linear-gradient-5"/><linearGradient id="linear-gradient-15" x1="93078.86" y1="-90920.34" x2="93151.97" y2="-90920.34" gradientTransform="translate(93125.05 -90894.4) rotate(180)" xlink:href="#linear-gradient-5"/><linearGradient id="linear-gradient-16" x1="86849.51" y1="92856.62" x2="86922.62" y2="92856.62" gradientTransform="translate(92876.48 -86876.73) rotate(90)" xlink:href="#linear-gradient-5"/><linearGradient id="linear-gradient-17" x1="-96894.23" y1="86608.57" x2="-96872.79" y2="86652.01" gradientTransform="translate(96894.15 -86628.14)" gradientUnits="userSpaceOnUse"><stop offset="0.35" stop-color="#fff" stop-opacity="0"/><stop offset="1" stop-color="#bde3dc"/></linearGradient><linearGradient id="linear-gradient-18" x1="-90664.88" y1="-97168.4" x2="-90643.43" y2="-97124.96" gradientTransform="translate(97142.74 -90645.81) rotate(-90)" xlink:href="#linear-gradient-17"/><linearGradient id="linear-gradient-19" x1="93112.07" y1="-90939.03" x2="93133.52" y2="-90895.59" gradientTransform="translate(93125.05 -90894.4) rotate(180)" xlink:href="#linear-gradient-17"/><linearGradient id="linear-gradient-20" x1="86882.72" y1="92837.92" x2="86904.17" y2="92881.36" gradientTransform="translate(92876.48 -86876.73) rotate(90)" xlink:href="#linear-gradient-17"/><linearGradient id="linear-gradient-21" x1="-12841.99" y1="-126716.76" x2="-12806.57" y2="-126645" gradientTransform="translate(80493.34 -98512.07) rotate(-135)" xlink:href="#linear-gradient"/><linearGradient id="linear-gradient-22" x1="-126420.16" y1="8760.33" x2="-126384.73" y2="8832.1" gradientTransform="translate(83158.35 -95495.52) rotate(-45)" xlink:href="#linear-gradient"/><linearGradient id="linear-gradient-23" x1="9056.94" y1="122338.5" x2="9092.36" y2="122410.26" gradientTransform="translate(80141.79 -92830.51) rotate(45)" xlink:href="#linear-gradient"/><linearGradient id="linear-gradient-24" x1="122635.1" y1="-13138.59" x2="122670.53" y2="-13066.83" gradientTransform="translate(77476.78 -95847.06) rotate(135)" xlink:href="#linear-gradient"/><linearGradient id="linear-gradient-25" x1="-126441.05" y1="8806.47" x2="-126388.63" y2="8806.47" gradientTransform="translate(83158.35 -95495.52) rotate(-45)" xlink:href="#linear-gradient-5"/><linearGradient id="linear-gradient-26" x1="-12862.43" y1="-126670.29" x2="-12810.01" y2="-126670.29" gradientTransform="translate(80493.34 -98512.07) rotate(-135)" xlink:href="#linear-gradient-5"/><linearGradient id="linear-gradient-27" x1="122614.67" y1="-13092.13" x2="122667.09" y2="-13092.13" gradientTransform="translate(77476.78 -95847.06) rotate(135)" xlink:href="#linear-gradient-5"/><linearGradient id="linear-gradient-28" x1="9036.5" y1="122384.97" x2="9088.92" y2="122384.97" gradientTransform="translate(80141.79 -92830.51) rotate(45)" xlink:href="#linear-gradient-5"/><linearGradient id="linear-gradient-29" x1="-126416.78" y1="8793.39" x2="-126401.4" y2="8824.54" gradientTransform="translate(83158.35 -95495.52) rotate(-45)" xlink:href="#linear-gradient-17"/><linearGradient id="linear-gradient-30" x1="-12838.61" y1="-126683.7" x2="-12823.24" y2="-126652.55" gradientTransform="translate(80493.34 -98512.07) rotate(-135)" xlink:href="#linear-gradient-17"/><linearGradient id="linear-gradient-31" x1="122638.48" y1="-13105.53" x2="122653.86" y2="-13074.39" gradientTransform="translate(77476.78 -95847.06) rotate(135)" xlink:href="#linear-gradient-17"/><linearGradient id="linear-gradient-32" x1="9060.32" y1="122371.56" x2="9075.69" y2="122402.71" gradientTransform="translate(80141.79 -92830.51) rotate(45)" xlink:href="#linear-gradient-17"/><clipPath id="clip-path-4"><path class="cls-1" d="M169.73-141.23A69.73,69.73,0,0,0,100-211a69.73,69.73,0,0,0-69.73,69.74c0,38.51,32.36,69.11,70.88,69.11S169.73-102.72,169.73-141.23Z"/></clipPath></defs><title>Artboard 108 copy 5</title><g class="cls-2"><g id="Layer_1" data-name="Layer 1"><circle class="cls-3" cx="100" cy="100" r="69.73"/><circle class="cls-4" cx="100" cy="100" r="69.73"/><path class="cls-5" d="M109.11,131.73a19.19,19.19,0,0,1,10.11-1.55,10.77,10.77,0,0,1,8.14,5.7c1.82,3.91.74,9.14,3.82,12.15a5.83,5.83,0,0,0,9.59-2.27,29.22,29.22,0,0,1-4.25,9.57,14.42,14.42,0,0,1-8.48,5.83,11.66,11.66,0,0,1-11.68-4.75,22.6,22.6,0,0,1-2.83-7.51q-2.25-9.1-4.49-18.19"/><path class="cls-5" d="M76.71,130.59s10.41,6.12,16.71,7.45l-5.07-10.31-8.17-2.92Z"/><path class="cls-5" d="M56.5,107.46c.29,1,.6,2,.94,3A34,34,0,0,0,70.79,127.5a23.46,23.46,0,0,0,4.69,2.56c1.11.43,2.83,1.46,4,1,0-.08-.12-.19-.15-.27s.18.11.18.08a3.15,3.15,0,0,1,.14-.44c.1,0,.16,0,.24.1,1.42,1.37-2.85-2.92-1.51-1.47a24.89,24.89,0,0,1,4.41-1.85c8.06-2.5,15.82-5.81,23.62-9,3.13-1.52,6.1-3.38,9.11-5.1a110.56,110.56,0,0,1,16.68-8c.59-.68,1.21-1.32,1.86-1.94l.59-.71.08.09c-4.14,3.72-14.66,6.73-21.24,11.72-15.94,12.13-21.36,26.56-7.86,21.28,8.59-3.36,32.57-14.81,41.41-39.53,0-.15.07-.3.11-.46a67.33,67.33,0,0,0,3.82-9,27.78,27.78,0,0,0,1.27-4.15c.44-1.62.82-3.26,1.15-4.94a64.17,64.17,0,0,0-1.74-32.72c-4.33-12.85-12.39-24.9-24.93-30.89-11-5.23-24.08-6.53-35.58-2.3C77.93,16.38,66.29,26,59.9,38.69a76.33,76.33,0,0,0-6.7,19.19c-2.63,13.46-1.09,27.88,1.37,41.26A84.32,84.32,0,0,0,56.5,107.46Z"/><path class="cls-6" d="M90,168.61l-.07-8.87,15-1.21.08,10.31,2.29-.13.14-18.1L88,149.69l.21,18.89C88.79,168.57,89.4,168.58,90,168.61Z"/><path class="cls-7" d="M113.31,130.35A50.45,50.45,0,0,1,103.05,127l1.31-2.9c26.83,12.14,52.72-5.53,53-5.7l1.82,2.61C158.91,121.14,137.75,135.58,113.31,130.35Z"/><path class="cls-8" d="M156.27,119.39c-2.66-.64-10.58-9-6.21-10.29,3.39-.91,6.28,6.46,7.25,8.75l.33-.14a22.4,22.4,0,0,1,4.41-2.13c2.44-.81,14.66-3.42,16.22-.29,2.29,4.13-13.43,4.14-16,4.14,4.12.09,11.07,3.23,11.75,7.75-3.67,3-10.79-5.29-13-7.82,1,1.82,4.76,8,.51,7.38-2.21-.29-3.45-3.41-4.13-5.21"/><path class="cls-7" d="M90.82,132.7a51.28,51.28,0,0,0,10.26-3.38l-1.31-2.9c-26.83,12.13-52.72-5.53-53-5.71L45,123.32C45.22,123.49,66.38,137.93,90.82,132.7Z"/><path class="cls-8" d="M47.86,121.74c2.66-.65,10.57-9,6.21-10.29-3.39-.91-6.28,6.45-7.25,8.75l-.33-.14a22.21,22.21,0,0,0-4.42-2.13c-2.43-.81-14.65-3.42-16.21-.29-2.29,4.13,13.43,4.14,16,4.14-4.12.09-11.07,3.23-11.75,7.75,3.67,3,10.79-5.29,13-7.82-1,1.81-4.76,8-.51,7.38,2.21-.3,3.45-3.41,4.13-5.21"/><polyline class="cls-7" points="110.55 121.16 109.19 155.05 87.57 155.05 85.19 120.26"/><path class="cls-9" d="M87.21,130s10.23,25,18.39-.95l-17.85.91"/><path class="cls-10" d="M94.08,137.71a2.74,2.74,0,0,1,2.81,3.1S96.34,138.14,94.08,137.71Z"/><path class="cls-10" d="M99.35,137.29a2.73,2.73,0,0,0-2.28,3.5S97.19,138.07,99.35,137.29Z"/><path class="cls-10" d="M88.3,132.28s10.28,1.78,16.6-1.17l-1.12,2.82S95.23,136.11,88.3,132.28Z"/><path class="cls-9" d="M132.45,100.52c0-.17.07-.35.1-.53l.06-.39c0-.18,0-.36.08-.54s0-.26.05-.39l.06-.56c0-.13,0-.25,0-.38s0-.42,0-.64,0-.21,0-.31c0-.32,0-.65,0-1l1.68-12.43q1.15-2.31,2-4.61h0a42,42,0,0,0,2.12-7.1C142.4,53.11,129,34.88,108.92,31S69.58,38.9,66,57.46a48.12,48.12,0,0,0,.17,16.94h0l0,.09c0,.08,0,.16,0,.24h0a.06.06,0,0,1,0,0c.2,1.13.43,2.25.69,3.38a2.81,2.81,0,0,0,.08.31c.11.47.22.94.34,1.41s.31,1.16.48,1.74L67.55,90h0s0,0,0,0h0s0,0,0,0l.72-9c-.06.06-1-1.84-1,9.24l1.06-9.79c-1,1.25-4.76,15.4-3.09,22.58v0s0,.05,0,.08a24.93,24.93,0,0,0,.89,2.91h0l0,.1h0c.25.65.53,1.32.85,2h0l.06.15h0c.15.33.32.67.5,1h0l.06.11h0c.37.71.78,1.44,1.23,2.18h0l.11.19h0l.72,1.14,0,0h0c.81,1.22,1.73,2.49,2.78,3.8a1,1,0,0,0,.1.15h0l.14.2v0l.78,1.1h0l.37.49,0,0,.41.53,0,.05.46.58,0,0,.51.63,0,0,.56.68h0a50.75,50.75,0,0,0,3.58,3.81h0l.83.77h0c.28.26.57.51.86.76h0c4.43,3.8,10.1,6.93,15.89,5.55h0c.2,0,.4-.1.6-.16h0l.08,0h0c.22-.07.44-.14.67-.23l.47-.17h0l.43-.16,0,0,.08,0c.46-.17.94-.35,1.43-.55h0l0,0h0l1-.42h0l.52-.22,0,0c.16-.07.31-.14.48-.2l.09-.05.47-.19.11-.06.47-.2.11-.05.49-.22.08,0c.71-.33,1.44-.67,2.19-1l.15-.07.43-.21.22-.11.4-.2.26-.13.39-.21.26-.14.39-.2.28-.15.38-.21.28-.15.38-.21.31-.18.36-.2.5-.3.45-.26.36-.22.32-.2.35-.21.33-.21.35-.22.33-.21.34-.22.33-.22.35-.24.31-.21.38-.25a3.06,3.06,0,0,1,.29-.21l.4-.29.26-.19.55-.4.13-.1.63-.48.23-.18.42-.33.26-.21.38-.32.27-.22.37-.32.27-.23.37-.32.26-.24.36-.33.26-.23.38-.37.22-.21.45-.45.15-.14c.19-.2.39-.4.58-.61l.12-.13q.24-.24.45-.48l.2-.22.37-.41.21-.26.33-.39.22-.27.32-.39.22-.27.3-.4.21-.28c.11-.14.21-.28.31-.43l.19-.26.33-.47.15-.23.46-.71h0c.16-.25.3-.49.45-.74a1.71,1.71,0,0,0,.13-.23l.3-.51.15-.29c.09-.15.17-.31.25-.46l.17-.32c.07-.15.15-.3.22-.46a3.18,3.18,0,0,0,.16-.32l.21-.46.15-.33c.07-.16.14-.32.2-.48l.14-.33.2-.51c0-.11.08-.21.11-.31s.15-.41.22-.61a1.43,1.43,0,0,1,.08-.22c.09-.28.18-.56.26-.84l.06-.22c.06-.21.13-.43.18-.64l.09-.33c0-.18.09-.36.13-.55s.05-.24.08-.36.08-.35.11-.53S132.43,100.65,132.45,100.52Z"/><path class="cls-11" d="M87,84.17s3.19-1.17.72-5.09.07-.23.07-.23-7.51-14.52-15-10.25l-2.59,2.64L69.91,74Z"/><path class="cls-12" d="M71.93,77.15s2.61,13.69,15.52,6c0,0-6.19-9.6-15.55-6.21"/><path class="cls-13" d="M88.76,81.09s-11.41-26.21-18.9-9.45C69.86,71.64,77.25,60.79,88.76,81.09Z"/><path class="cls-11" d="M101.44,84.17a22.3,22.3,0,0,1,5.56-.71,22,22,0,0,1,8.32,1.64l6.33.42,4.58-5.25,1-3.17c-4.06-6.11-18-.53-22.39,1.33-.28.18-2.64,1.45-3.23,1.8-4,2.38-.39,3.93-.39,3.93Z"/><path class="cls-13" d="M101,80.6s30.3-18.64,28.77-.27C129.79,80.33,127.71,67.33,101,80.6Z"/><g class="cls-14"><path class="cls-15" d="M85.22,77.92a3.75,3.75,0,0,1,2.27,4.83,3.73,3.73,0,1,1-2.27-4.83Z"/><path class="cls-13" d="M84.6,79.76A1.88,1.88,0,1,1,82.26,81,1.86,1.86,0,0,1,84.6,79.76Z"/><path class="cls-12" d="M82.34,80.67a.76.76,0,1,1-1,.48A.76.76,0,0,1,82.34,80.67Z"/></g><path class="cls-13" d="M87.45,83.2c-.13-.13-.14-.63-.23-.81a12.31,12.31,0,0,0-7.82-6.32,32.33,32.33,0,0,0-3.68-.72c-1.59-.23-3.22-.26-4.8-.55a9.16,9.16,0,0,1-4-1.8,7.2,7.2,0,0,1-1.52-1.55,4.33,4.33,0,0,1-.68-1.84s-.67,4.64,4.91,7.22c0,0-1.71.37-4.49-1.36a8.41,8.41,0,0,0,3.68,2.85A5.76,5.76,0,0,1,71,79.88c.73,1,1.1,2.17,1.91,3.16a6.67,6.67,0,0,0,2.83,2,8.09,8.09,0,0,0,2.08.49,12.54,12.54,0,0,0,1.62.06c.42,0,.91-.13,1.32-.11,0,0-7.61-.37-7.78-8.26C73,77.27,79.76,74.87,87.45,83.2Z"/><path class="cls-16" d="M72.36,78.18s6.52-1.32,15.09,5l-3-3.09L80,77.53l-4.49-1.28-2,.26Z"/><path class="cls-5" d="M67.46,36.08s20.15,44.55,74.41,41.33l6.42-24.23-28.46-33.7-45.1,14.3Z"/><path class="cls-17" d="M84.29,115.3s19.13,8.83,30.45-8.7"/><path class="cls-9" d="M76.71,119.74s2.5,12.44,17,13.81,19.24-12.34,19.24-12.34Z"/><path class="cls-10" d="M111.41,103.13s9.41-3,6.88,5.45C118.29,108.58,119.48,102.25,111.41,103.13Z"/><path class="cls-18" d="M101.39,84.16s5.89-4,13.45,0S126.43,79,126.43,79s-1.82,8.7-8.52,7.73c0,0,4.17,3,7.36-.45,0,0-4.49,7.48-15.39-1.19C106.51,82.44,101.39,84.16,101.39,84.16Z"/><path class="cls-19" d="M144,69.51C111.13,76.35,77,36,77,36S78.8,52.5,98.78,63.78"/><path class="cls-9" d="M134.85,79.87s5-9,12.47-2.45c5.09,4.45,2.47,8.13-1,10.56a28,28,0,0,1-6.31,3.19,5.64,5.64,0,0,0-3.31,7.52c2,5.68,2,7.76,0,8.48s-6-1.14-6.19-4.54C129.79,87.94,134.85,79.87,134.85,79.87Z"/><path class="cls-10" d="M134.15,90s8.13-18.35,8-3.8C142.15,86.16,140.69,78,134.15,90Z"/><path class="cls-10" d="M134.09,90s5.69-9.09,3.38,2.7C137.47,92.71,138.21,85.13,134.09,90Z"/><path class="cls-20" d="M133.17,103.51A1.21,1.21,0,1,1,134,105,1.21,1.21,0,0,1,133.17,103.51Z"/><path class="cls-10" d="M131.3,104.85a4.61,4.61,0,0,1-1-1.65,3.78,3.78,0,0,0,.79,2.31"/><path class="cls-5" d="M71.9,43.64S76,59.65,87.57,66c0,0-11.5-3.83-18.58-21.62Z"/><path class="cls-21" d="M95.44,102.18s-11.63,4.64-11.64-1.65c0-8.1,9.7-.2,9.7-.2L96.17,86l-.73,16.18Z"/><path class="cls-22" d="M93.86,101.11l2.23-13.3L96.17,86,93.5,100.33s-9-7.43-9.66-.59C85.59,97,89.08,97,93.86,101.11Z"/><path class="cls-4" d="M76.71,165.75a70.21,70.21,0,0,0,43.34,1.06"/><g class="cls-23"><g class="cls-24"><path class="cls-25" d="M-77.87,236.24a84,84,0,0,0,24.7,59.62l3.59-3.6a69.36,69.36,0,0,1-13.59-41.32A69.62,69.62,0,0,1,6.45,181.32a54.91,54.91,0,0,1,54.91,54.92A69.61,69.61,0,0,0-8.25,166.62,69.62,69.62,0,0,0-77.87,236.24Z"/><path class="cls-12" d="M61.37,236.25A54.92,54.92,0,1,1,6.45,181.33,54.91,54.91,0,0,1,61.37,236.25Z"/><path class="cls-26" d="M6.45,151.93a84,84,0,0,0-59.62,24.69l3.6,3.6A69.3,69.3,0,0,1-8.25,166.63a69.62,69.62,0,0,1,69.62,69.62A54.91,54.91,0,0,1,6.45,291.16a69.62,69.62,0,1,0,0-139.23Z"/><path class="cls-27" d="M90.76,236.25a84,84,0,0,0-24.69-59.62l-3.6,3.6a69.3,69.3,0,0,1,13.59,41.32A69.62,69.62,0,0,1,6.44,291.17a54.91,54.91,0,0,1-54.91-54.92,69.62,69.62,0,1,0,139.23,0Z"/><path class="cls-28" d="M6.44,320.56a84,84,0,0,0,59.62-24.69l-3.6-3.6a69.62,69.62,0,0,1-110.94-56A54.91,54.91,0,0,1,6.44,181.33a69.62,69.62,0,1,0,0,139.23Z"/><path class="cls-29" d="M31.74,197.41a45.35,45.35,0,0,0-64.12,0,54.74,54.74,0,0,0-16.09,38.84h3.32A45.13,45.13,0,0,1-32.38,211a45.35,45.35,0,0,1,64.12,0,35.77,35.77,0,0,1,0,50.59A45.34,45.34,0,0,0,31.74,197.41Z"/><path class="cls-30" d="M-32.39,211a45.35,45.35,0,0,0,0,64.12A54.74,54.74,0,0,0,6.45,291.16v-3.32A45.34,45.34,0,0,1-18.85,211a35.77,35.77,0,0,1,50.59,0A45.34,45.34,0,0,0-32.39,211Z"/><path class="cls-31" d="M45.28,261.54a45.33,45.33,0,0,0,0-64.12A54.73,54.73,0,0,0,6.44,181.33v3.32a45.13,45.13,0,0,1,25.3,12.77,45.33,45.33,0,0,1,0,64.12,35.77,35.77,0,0,1-50.59,0A45.34,45.34,0,0,0,45.28,261.54Z"/><path class="cls-32" d="M34.09,124.56a84.06,84.06,0,0,0,24.7,59.62l3.6-3.6a69.62,69.62,0,0,1,56-110.94,54.92,54.92,0,0,1,54.92,54.92,69.62,69.62,0,0,0-139.24,0Z"/><path class="cls-33" d="M-77.87,12.52a84,84,0,0,0,24.7,59.62l3.59-3.59A69.37,69.37,0,0,1-63.17,27.22,69.62,69.62,0,0,1,6.45-42.4,54.91,54.91,0,0,1,61.36,12.52,69.61,69.61,0,0,0-8.25-57.1,69.62,69.62,0,0,0-77.87,12.52Z"/><path class="cls-12" d="M61.37,12.53A54.92,54.92,0,1,1,6.45-42.39,54.92,54.92,0,0,1,61.37,12.53Z"/><path class="cls-12" d="M31.74,37.82a35.77,35.77,0,1,1,0-50.58A35.76,35.76,0,0,1,31.74,37.82Z"/><path class="cls-34" d="M6.45-71.79a84.06,84.06,0,0,0-59.62,24.7l3.6,3.6A69.3,69.3,0,0,1-8.25-57.09,69.62,69.62,0,0,1,61.37,12.53,54.92,54.92,0,0,1,6.45,67.45,69.62,69.62,0,0,0,76.07-2.17,69.62,69.62,0,0,0,6.45-71.79Z"/><path class="cls-35" d="M90,10.7A84,84,0,0,0,65.28-48.92l-3.6,3.6A69.3,69.3,0,0,1,75.27-4,69.62,69.62,0,0,1,5.66,65.62,54.92,54.92,0,0,1-49.26,10.7,69.62,69.62,0,1,0,90,10.7Z"/><path class="cls-36" d="M6.44,96.84A84,84,0,0,0,66.06,72.15l-3.6-3.6A69.27,69.27,0,0,1,21.14,82.14,69.62,69.62,0,0,1-48.48,12.53,54.92,54.92,0,0,1,6.44-42.39a69.62,69.62,0,1,0,0,139.23Z"/><path class="cls-37" d="M31.74-26.3a45.33,45.33,0,0,0-64.12,0A54.7,54.7,0,0,0-48.47,12.53h3.32A45.07,45.07,0,0,1-32.38-12.76a45.33,45.33,0,0,1,64.12,0,35.76,35.76,0,0,1,0,50.58A45.33,45.33,0,0,0,31.74-26.3Z"/><path class="cls-38" d="M-32.39-12.77a45.36,45.36,0,0,0,0,64.13A54.77,54.77,0,0,0,6.45,67.44V64.12a45.33,45.33,0,0,1-25.3-76.89,35.77,35.77,0,0,1,50.59,0A45.34,45.34,0,0,0-32.39-12.77Z"/><path class="cls-39" d="M-18.85,51.36a45.33,45.33,0,0,0,64.12,0A54.72,54.72,0,0,0,61.36,12.53H58A45.14,45.14,0,0,1,45.27,37.82a45.33,45.33,0,0,1-64.12,0,35.77,35.77,0,0,1,0-50.59A45.34,45.34,0,0,0-18.85,51.36Z"/><path class="cls-40" d="M45.28,37.83a45.34,45.34,0,0,0,0-64.13A54.77,54.77,0,0,0,6.44-42.39v3.32A45.13,45.13,0,0,1,31.74-26.3a45.33,45.33,0,0,1,0,64.12,35.77,35.77,0,0,1-50.59,0A45.35,45.35,0,0,0,45.28,37.83Z"/><path class="cls-41" d="M20.14-20.51a35.63,35.63,0,0,0-27.38,0l.83,2A29.4,29.4,0,0,1,12-17.14,29.53,29.53,0,0,1,28,21.44h0A23.29,23.29,0,0,1,6.45,35.81,23.1,23.1,0,0,1-2.45,34v0a29.53,29.53,0,0,0,22.6-54.56Z"/><path class="cls-42" d="M-26.6-1.16a35.7,35.7,0,0,0,0,27.37l2-.82A29.44,29.44,0,0,1-23.22,7,29.53,29.53,0,0,1,15.36-9v0A23.28,23.28,0,0,1,29.72,12.53,23.13,23.13,0,0,1,28,21.43h0A29.53,29.53,0,0,0-26.6-1.16Z"/><path class="cls-43" d="M-7.24,45.57a35.65,35.65,0,0,0,27.37,0l-.83-2a29.53,29.53,0,0,1-34.38-40h0A23.28,23.28,0,0,1,6.45-10.75,23.14,23.14,0,0,1,15.35-9v0A29.53,29.53,0,0,0-7.24,45.57Z"/><path class="cls-44" d="M39.49,26.22a35.65,35.65,0,0,0,0-27.37l-2,.82a29.26,29.26,0,0,1-1.38,18.4,29.52,29.52,0,0,1-38.58,16h0A23.28,23.28,0,0,1-15.06,3.63h0a29.53,29.53,0,1,0,54.56,22.6Z"/><circle class="cls-12" cx="6.45" cy="12.53" r="23.28"/><path class="cls-45" d="M-36.31,167.31A60.26,60.26,0,0,0,6.44,185v-3.65A49.91,49.91,0,0,1-21.4,96.72a39.38,39.38,0,0,1,55.69,0,49.91,49.91,0,0,0-70.6,0A49.92,49.92,0,0,0-36.31,167.31Z"/><path class="cls-12" d="M34.29,96.72a39.38,39.38,0,1,1-55.68,0A39.36,39.36,0,0,1,34.29,96.72Z"/><path class="cls-12" d="M32.1,124.56A25.65,25.65,0,1,1,6.45,98.91,25.65,25.65,0,0,1,32.1,124.56Z"/><path class="cls-46" d="M-36.3,81.81A60.26,60.26,0,0,0-54,124.56h3.65A49.63,49.63,0,0,1-36.3,96.72a49.9,49.9,0,0,1,70.59,0,39.36,39.36,0,0,1,0,55.68,49.9,49.9,0,0,0,0-70.59A49.92,49.92,0,0,0-36.3,81.81Z"/><path class="cls-47" d="M49.2,81.82A60.26,60.26,0,0,0,6.45,64.11v3.65A49.66,49.66,0,0,1,34.29,81.82a49.9,49.9,0,0,1,0,70.59,39.38,39.38,0,0,1-55.69,0A49.92,49.92,0,0,0,49.2,81.82Z"/><path class="cls-48" d="M49.19,167.31A60.23,60.23,0,0,0,66.9,124.56H63.25a49.66,49.66,0,0,1-14.06,27.85,49.92,49.92,0,0,1-70.59,0,39.38,39.38,0,0,1,0-55.69,49.91,49.91,0,0,0,70.59,70.59Z"/><path class="cls-49" d="M-1,92.14a32.52,32.52,0,0,0-32.52,32.51A39.25,39.25,0,0,0-21.95,152.5l1.68-1.68a32.35,32.35,0,0,1-6.35-19.3A32.5,32.5,0,0,1,5.89,99a25.65,25.65,0,0,1,25.65,25.64A32.52,32.52,0,0,0-1,92.14Z"/><path class="cls-50" d="M-26.07,131.42A32.52,32.52,0,0,0,6.44,163.94,39.25,39.25,0,0,0,34.29,152.4l-1.68-1.68A32.51,32.51,0,0,1-19.2,124.56,25.64,25.64,0,0,1,6.44,98.91,32.52,32.52,0,0,0-26.07,131.42Z"/><path class="cls-51" d="M13.31,157.08a32.52,32.52,0,0,0,32.51-32.52A39.28,39.28,0,0,0,34.29,96.72L32.61,98.4A32.51,32.51,0,0,1,6.44,150.21,25.64,25.64,0,0,1-19.2,124.56,32.51,32.51,0,0,0,13.31,157.08Z"/><path class="cls-52" d="M39,117.7A32.52,32.52,0,0,0,6.45,85.19,39.29,39.29,0,0,0-21.4,96.72l1.69,1.68A32.46,32.46,0,0,1-.42,92.05a32.5,32.5,0,0,1,32.51,32.51A25.64,25.64,0,0,1,6.45,150.21,32.51,32.51,0,0,0,39,117.7Z"/><path class="cls-53" d="M-3.36,100.87a25.52,25.52,0,0,0-13.88,13.88l1.43.59a21.07,21.07,0,0,1,10-8.63,21.18,21.18,0,0,1,27.66,11.46h0a16.68,16.68,0,0,1-9,21.81h0a21.17,21.17,0,1,0-16.2-39.12Z"/><path class="cls-54" d="M-17.25,134.37A25.55,25.55,0,0,0-3.37,148.25l.59-1.43A21.17,21.17,0,0,1,.05,109.13h0a16.7,16.7,0,0,1,18.19,3.62,16.55,16.55,0,0,1,3.61,5.42h0a21.18,21.18,0,0,0-39.13,16.2Z"/><path class="cls-55" d="M16.26,148.26a25.62,25.62,0,0,0,13.88-13.88l-1.43-.59A21.18,21.18,0,0,1-9,131h0a16.69,16.69,0,0,1,3.61-18.19,16.55,16.55,0,0,1,5.42-3.61h0a21.17,21.17,0,1,0,16.21,39.12Z"/><path class="cls-56" d="M30.14,114.75a25.58,25.58,0,0,0-13.88-13.88l-.59,1.43a21.12,21.12,0,0,1,8.63,10A21.19,21.19,0,0,1,12.84,140v0a16.71,16.71,0,0,1-18.2-3.61A16.87,16.87,0,0,1-9,131h0a21.17,21.17,0,1,0,39.12-16.21Z"/><path class="cls-12" d="M18.25,112.76a16.69,16.69,0,1,1-23.6,0A16.69,16.69,0,0,1,18.25,112.76Z"/></g></g><g class="cls-57"><path class="cls-58" d="M104.18-1.62C130-1.62,151-.52,151,.83s-21,2.45-46.83,2.45S57.35,2.18,57.35.83,78.32-1.62,104.18-1.62Z"/><path class="cls-59" d="M90.62-2.63A6.69,6.69,0,0,1,85,0L84.86.8s5.12.41,6.66-2L91.41.63,93.12.45l-.54-3.38Z"/><path class="cls-59" d="M111.74-2.63A6.66,6.66,0,0,0,117.38,0l.11.81s-5.11.41-6.65-2l.1,1.87-1.7-.18.53-3.38Z"/></g></g></g></svg>