<?xml version="1.0" encoding="UTF-8" standalone="no"?><!DOCTYPE svg PUBLIC "-//W3C//DTD SVG 1.1//EN" "http://www.w3.org/Graphics/SVG/1.1/DTD/svg11.dtd"><svg width="100%" height="100%" viewBox="0 0 210 42" version="1.1" xmlns="http://www.w3.org/2000/svg" xmlns:xlink="http://www.w3.org/1999/xlink" xml:space="preserve" xmlns:serif="http://www.serif.com/" style="fill-rule:evenodd;clip-rule:evenodd;stroke-linejoin:round;stroke-miterlimit:1.41421;"><path d="M40.627,12.525l-0.171,-0.447c3.809,-1.681 6.657,-6.21 6.657,-10.088l-9.848,0l0,22.647c0,5.902 2.539,8.338 8.715,8.338c2.299,0 4.255,-0.343 5.456,-1.029l0,-7.48c-0.583,0.48 -1.372,0.755 -2.402,0.755c-1.166,0 -1.818,-0.515 -1.818,-1.682l0,-4.872l4.22,0l0,-7.824l-5.044,0c-2.985,-0.034 -5.765,1.682 -5.765,1.682Zm14.824,-0.893l-0.172,-0.343c4.461,-0.926 7.927,-4.975 7.927,-9.299l-9.78,0l0,30.471l9.917,0l0,-21.652l-0.858,0c-2.916,0 -7.034,0.823 -7.034,0.823Zm65.882,0.893l-0.171,-0.447c3.809,-1.681 6.588,-6.21 6.588,-10.088l-9.779,0l0,22.647c0,5.902 2.539,8.338 8.715,8.338c2.265,0 4.221,-0.343 5.388,-1.029l0,-7.48c-0.584,0.48 -1.373,0.755 -2.402,0.755c-1.167,0 -1.819,-0.515 -1.819,-1.682l0,-4.872l4.221,0l0,-7.824l-5.01,0c-2.951,-0.034 -5.731,1.682 -5.731,1.682Zm-121.333,19.97l9.882,0l0,-30.47l-9.882,0l0,30.47Zm24.26,-22.338c-7.172,0 -11.118,2.882 -12.285,7.789l9.094,1.338c0,-1.956 0.755,-2.848 2.264,-2.848c1.476,0 2.299,0.961 2.299,2.539l0,3.466l-0.24,0c-1.201,-1.235 -3.088,-2.093 -6.588,-2.093c-4.598,0 -7.343,2.711 -7.343,6.588c0,3.603 2.745,6.039 7.034,6.039c4.083,0 6.28,-1.647 7.034,-2.642l0.275,0l0,2.231l9.745,0l0,-13.383c-0.034,-5.593 -4.083,-9.024 -11.289,-9.024Zm58.23,0.206c-3.946,0 -6.519,1.921 -7.137,6.897l-0.275,0l0,-6.451l-9.71,0l0,21.72l9.916,0l0,-12.455c0.618,-2.334 1.064,-3.192 2.471,-3.192c1.235,0 1.956,0.858 1.956,2.745l0,12.902l9.951,0l0,-13.416c0.034,-5.834 -2.745,-8.75 -7.172,-8.75Zm21.24,0c-8.029,0 -12.524,4.735 -12.524,11.289c0,6.554 4.426,11.289 12.524,11.289c8.167,0 12.525,-4.769 12.525,-11.289c0.034,-6.554 -4.461,-11.289 -12.525,-11.289Zm72.299,0c-4.598,0 -6.691,2.951 -7.343,6.897l-0.274,0l0,-6.451l-9.848,0l0,28.789l9.951,0l0,-10.912l0.274,0c1.236,2.951 3.637,4.255 6.966,4.255c4.358,0 8.475,-3.328 8.475,-11.289c0,-7.961 -3.156,-11.289 -8.201,-11.289Zm33.971,10.843c0,-6.039 -4.598,-10.843 -11.632,-10.843c-7.893,0 -12.696,4.701 -12.696,11.289c0,6.657 4.46,11.289 12.455,11.289c5.216,0 10.329,-2.265 11.53,-8.818l-8.201,-0.858c-0.137,1.784 -0.892,3.362 -2.951,3.362c-2.23,0 -3.363,-2.23 -3.397,-4.563l14.892,0l0,-0.858Zm-64.544,6.931l-0.275,0c-0.446,-5.387 -1.921,-11.907 -2.848,-17.328l-9.882,0l5.456,17.26c0.789,2.573 2.402,3.911 5.078,3.911l6.863,0l0.034,0.206c-0.755,0.892 -2.539,1.201 -6.691,1.236l-6.451,0.034l0,6.554l3.946,0c5.01,0 8.544,-3.02 10.5,-8.647l7.103,-20.588l-9.916,0c-1.064,5.421 -2.368,11.941 -2.917,17.362Zm50.201,-7.206l-0.618,0c0.035,-2.779 1.51,-4.598 3.706,-4.598c1.647,0 2.402,0.892 2.402,2.128c0,1.681 -1.338,2.47 -5.49,2.47Zm-23.711,7.241c-1.064,0 -1.956,-0.309 -2.711,-1.27l0,-7.206c0.481,-2.024 1.407,-3.225 2.951,-3.225c2.128,0 2.711,1.955 2.711,6.107c0.034,3.981 -1.029,5.594 -2.951,5.594Zm-68.216,-1.407c-1.681,0 -2.779,-1.373 -2.779,-5.044c0,-3.775 1.064,-5.147 2.779,-5.147c1.716,0 2.883,1.338 2.883,5.147c0,3.671 -1.133,5.044 -2.883,5.044Zm-80.294,3.225c-1.784,0 -2.436,-1.372 -2.436,-3.5c0,-2.23 1.167,-3.5 2.711,-3.5c0.892,0 1.578,0.343 1.956,0.789l0,5.079c-0.446,0.583 -1.201,1.132 -2.231,1.132Z" style="fill:#fff;fill-rule:nonzero;"/></svg>