<svg height="80" viewBox="0 0 60 60" xmlns="http://www.w3.org/2000/svg"><ellipse cx="30.69" cy="48.43" opacity=".05" rx="24.63" ry="3.38"/><g fill="#eb5039"><path d="m38.51 30.34a27.55 27.55 0 0 0 -7-3.78 28.32 28.32 0 0 1 -5.36-2.87q-6-4.18-6-10.37a10.63 10.63 0 0 1 2.25-6.89 10.19 10.19 0 0 1 .86-.94l-8.55 2a4.62 4.62 0 0 0 -3.53 5.51l7.08 30.59a4.62 4.62 0 0 0 5.53 3.41l3.51-.81-.3-.03a33.76 33.76 0 0 1 -6.78-2.92l3.66-8.18a16.3 16.3 0 0 0 10.4 3.66c4 0 6-1.43 6-4.27a5.26 5.26 0 0 0 -1.77-4.11z"/><path d="m57.85 34.45-7.08-30.59a4.62 4.62 0 0 0 -5.54-3.46l-5.15 1.19q.89.14 1.76.33a28.13 28.13 0 0 1 6.66 2.39l-3 8c-2.24-1.92-5.37-2.88-9.37-2.88q-5.38 0-5.39 4.28a3.86 3.86 0 0 0 1.77 3 36.82 36.82 0 0 0 7.56 3.66 23.64 23.64 0 0 1 6.39 3.55 12.68 12.68 0 0 1 2 2 12.35 12.35 0 0 1 2.54 7.83 11.85 11.85 0 0 1 -2.45 7.58l5.83-1.33a4.61 4.61 0 0 0 3.47-5.55z"/></g></svg>