<svg xmlns="http://www.w3.org/2000/svg" viewBox="0 0 256 256"><defs><style>.cls-1{fill:#aaa;fill-rule:evenodd;}</style></defs><title>Lonely Planet</title><path class="cls-1" d="M79.22,127.83c-1.9-5.7-9.5-5.7-11.19,0Zm38.43,17.1V115.58h-8.87v16.68a2.22,2.22,0,1,1-4.43,0V115.58H95.48v-11H86.4v19.64c-2.75-6.33-8.45-9.5-15.2-8.44a13.33,13.33,0,0,0-10.35,8.44c-1.69-5.49-5.7-8.44-11.4-8.66-5.91,0-10.56,2.75-12.25,8.66-3-6.76-9.08-9.92-16.26-8.23a13.32,13.32,0,0,0-8.87,7.6v-19H3V143h9.08v-8.45a14,14,0,0,0,12.67,8c6.12-.42,9.92-3.17,12.46-8.66V143h8.66V126.56c.42-3.59,5.91-3.8,6.12,0V143h8.87v-8.66a13.89,13.89,0,0,0,9.92,8.45c10.35,1.06,14.36-6.12,14.36-8l-7.39-1.06c-3.8,2.75-8,1.27-9.5-2.53H86.4V143h9.08v-5.91a7.75,7.75,0,0,0,13.09,3.59,13,13,0,0,1-.42,4c-1.48,3.38-5.91,3.38-8.23,1.06l-5.28,7a14.42,14.42,0,0,0,11.19,3.59c3.59-.42,5.91-1.06,8.66-3.59a10.85,10.85,0,0,0,3.17-7.81ZM24.33,123.19a5.68,5.68,0,0,1,5.7,5.7,5.86,5.86,0,0,1-5.7,5.91,5.86,5.86,0,0,1-5.7-5.91,5.68,5.68,0,0,1,5.7-5.7Z"/><path class="cls-1" d="M220.06,127.41h11a5.69,5.69,0,0,0-11,0Zm32.3,5.28.42-.42.21,7.6c.21,1.9-6.76,4.65-10.77,1.69-3.8-2.75-3.8-5.91-3.8-10.35H220.06c2.11,5.28,8.23,4.64,9.92,2.11l7.6,1.27c-2.75,8.66-10.35,9.93-17.31,7.39a13.46,13.46,0,0,1-7.6-7.6V143H203.8V126.35c-.21-3.59-5.91-3.38-5.91.21V143l-8.87.21h-5.91L182.9,138c0-2.11-2.32,5.49-5.07,5.28A13.47,13.47,0,0,1,164.1,135v8H155v-8a14.54,14.54,0,0,1-16.26,7l-1.06-.42s.21,9.29.21,11.82h-8.87V129.31c.21-11.19,12.46-17.95,21.54-11.19a15.91,15.91,0,0,1,4.43,5.49v-19h9.08v19c2.74-6.12,8.45-8.87,15.2-7.81a13.14,13.14,0,0,1,9.71,8.44c2.53-7.39,9.5-10.35,16.89-7.81a11.93,11.93,0,0,1,6.76,7.81c3.38-7.39,10.56-10.35,17.95-7.81a14.19,14.19,0,0,1,7.81,7.81V110.09h8.66v5.49h5.49v8.24h-5.49c0,2.74-.42,5.49.42,8a3.22,3.22,0,0,0,4.86.85Zm-76-9.29a5.7,5.7,0,1,1-5.7,5.7,5.68,5.68,0,0,1,5.7-5.7Zm-33.36,0a5.7,5.7,0,1,1-5.7,5.7,5.68,5.68,0,0,1,5.7-5.7Z"/><path class="cls-1" d="M67.82,108.19a60.84,60.84,0,0,1,115.28,0l-3.17,1.06-3.17,1.06a54.15,54.15,0,0,0-51.31-36.53c-23.65,0-43.92,15.41-51.52,36.74l-6.12-2.32Z"/><path class="cls-1" d="M183.11,148.1a60.94,60.94,0,0,1-57.64,40.54c-26.82,0-49.41-16.68-57.64-40.54L71,147l3-1.05a55,55,0,0,0,103-.21l6.12,2.32Z"/><polygon class="cls-1" points="241.17 147.26 245.82 147.26 245.82 147.89 243.71 147.89 243.71 152.96 243.07 152.96 243.07 147.89 241.17 147.89 241.17 147.26 241.17 147.26"/><path class="cls-1" d="M251.09,153V148.1h0L249.41,153h-.63l-1.69-4.86h0V153h-.63v-5.7h1.06l1.69,4.64h0l1.48-4.64h1.27V153Z"/></svg>