<svg xmlns="http://www.w3.org/2000/svg" xmlns:xlink="http://www.w3.org/1999/xlink" viewBox="0 0 450 480"><defs><style>.cls-1{isolation:isolate;}.cls-2,.cls-3{opacity:0.3;mix-blend-mode:multiply;}.cls-2{fill:url(#radial-gradient);}.cls-3{fill:url(#radial-gradient-2);}.cls-4{fill:url(#linear-gradient);}</style><radialGradient id="radial-gradient" cx="3149.56" cy="-55938.89" r="93.76" gradientTransform="translate(-2147.77 6974.5) scale(0.73 0.12)" gradientUnits="userSpaceOnUse"><stop offset="0" stop-color="#404041"/><stop offset="1" stop-color="#231f20" stop-opacity="0"/></radialGradient><radialGradient id="radial-gradient-2" cx="3590.06" cy="-55938.89" r="93.76" gradientTransform="translate(-3318.62 6974.5) scale(1.02 0.12)" xlink:href="#radial-gradient"/><linearGradient id="linear-gradient" x1="259.49" y1="384.86" x2="186.24" y2="62.59" gradientUnits="userSpaceOnUse"><stop offset="0" stop-color="#e93722"/><stop offset="1" stop-color="#f86f25"/></linearGradient></defs><title>Artboard 1 copy 11</title><g class="cls-1"><g id="Layer_1" data-name="Layer 1"><ellipse class="cls-2" cx="136.58" cy="410.17" rx="68" ry="11"/><ellipse class="cls-3" cx="336.48" cy="410.17" rx="95.46" ry="11"/><path class="cls-4" d="M320.79,169.62q-1.56-8-2.71-12.68A55.52,55.52,0,0,0,316,150q-.93-2.26-2.2-2.51a7.16,7.16,0,0,0-2.68,0q-2.83.55-4.42,7.46t-4,24.5q-.88,5.56-2.26,17.31t-3.3,27q-1.92,15.3-4,32.31t-4,33.3q-2,16.28-3.65,30.29t-2.38,23q-1.49,12.52-3.08,20.65a41.78,41.78,0,0,1-4.54,13.11,20.29,20.29,0,0,1-7.81,7.63,43.08,43.08,0,0,1-12.4,4.12,37.7,37.7,0,0,1-13.84.49,23.85,23.85,0,0,1-10.75-5,49,49,0,0,1-9.73-11.07q-4.81-7.13-11.34-18.09-5.23-9.25-12.59-22t-15.48-26.82q-8.12-14.07-16.6-28.8L149,249.46q-7.37-12.74-13-22.9t-8.62-15.44q-4.57-8.4-7.51-13.46a46.84,46.84,0,0,0-4.81-7.13,11.68,11.68,0,0,0-3-2.6,3.9,3.9,0,0,0-2.49-.25c-1.58.31-2.29,2.08-2.15,5.31a126,126,0,0,0,2.41,16.16l3.39,17.43q2.66,13.67,6.46,32t8.07,39q4.26,20.69,8.07,39t6.37,31.52l3.11,16q2.84,14.61-5.53,21.86t-23.45,10.18q-15.55,3-23.81-1.73T82.23,398.87L60.89,289.08q-2.75-14.14-7.47-37.18t-9.49-46.32Q39.15,182.31,35.17,163T29.8,136.69q-3.48-17.9,5.43-28.68T70.53,92.11q12.72-2.47,22-3.55a49,49,0,0,1,16.75.65,28.64,28.64,0,0,1,13.09,7,68.59,68.59,0,0,1,11.45,14.89q2.24,4,9.74,17.42t17.58,31.3q10.07,17.85,21.31,37.91l21,37.49q9.74,17.43,16.78,29.74t8.44,14.5q3.73,6.61,7.5,5.88c1.88-.37,3-1.24,3.4-2.62s.73-2.91,1.06-4.61L259.53,96a99.41,99.41,0,0,1,3.34-18,35.12,35.12,0,0,1,8.22-14.31q5.86-6.27,16-10.93t27.06-7.95q25.91-5,38.45,1.57t16.29,25.93l4.49,23.09q3.76,19.33,9.3,46.6t11.87,58.57q6.33,31.29,11.92,58.81t9.39,47.07l4.63,23.79q2.66,13.67-4.63,21.44T391.57,362.7q-17.44,3.39-25.93-1.32t-11.06-17.9Z"/></g></g></svg>