<svg xmlns="http://www.w3.org/2000/svg" xmlns:xlink="http://www.w3.org/1999/xlink" width="200" height="200" viewBox="0 0 200 200"><defs><style>.cls-1,.cls-11,.cls-20,.cls-8{fill:none;}.cls-2{isolation:isolate;}.cls-3{clip-path:url(#clip-path);}.cls-4{fill:#211f1f;opacity:0.15;mix-blend-mode:multiply;}.cls-23,.cls-5{fill:#221f1f;}.cls-6{fill:#080708;}.cls-7{fill:#f6f6f6;}.cls-8{stroke:#c9c9c9;stroke-width:2px;}.cls-11,.cls-8{stroke-miterlimit:10;}.cls-9{clip-path:url(#clip-path-2);}.cls-10{fill:#725030;}.cls-11{stroke:#1a1a1a;stroke-width:3.7px;}.cls-12{fill:#1a1a1a;}.cls-13{fill:#8a6339;}.cls-14{fill:#e7be99;}.cls-15{fill:#cc9b77;}.cls-16{fill:#c98b84;}.cls-17{fill:#6d312b;}.cls-18,.cls-25{fill:#fff;}.cls-19{fill:#a37f5f;}.cls-20{stroke:#a37f5f;stroke-width:0.66px;}.cls-21{fill:#69492d;}.cls-22{fill:#cf9d78;opacity:0.39;}.cls-23{opacity:0.2;}.cls-24{fill:#d99c94;}.cls-25{opacity:0.7;}.cls-26{fill:#e6bd98;}</style><clipPath id="clip-path"><path class="cls-1" d="M169.73-135.49A69.73,69.73,0,0,0,100-205.22a69.73,69.73,0,0,0-69.73,69.73c0,38.52,31.1,68.84,69.62,68.84S169.73-97,169.73-135.49Z"/></clipPath><clipPath id="clip-path-2"><path class="cls-1" d="M169.73,100a69.73,69.73,0,0,0-139.46,0c0,38.51,31.1,68.84,69.62,68.84S169.73,138.51,169.73,100Z"/></clipPath></defs><title>Artboard 108 copy 11</title><g class="cls-2"><g id="Layer_1" data-name="Layer 1"><g class="cls-3"><path class="cls-4" d="M104.18,4.13C130,4.13,151,5.22,151,6.57S130,9,104.18,9,57.35,7.93,57.35,6.57,78.32,4.13,104.18,4.13Z"/><polygon class="cls-5" points="106.47 -69.17 92.76 -69.81 93.25 5.95 94.42 5.85 94.13 -63.55 104.7 -63.59 104.99 5.85 106.12 5.92 106.47 -69.17"/><path class="cls-4" d="M103.23,6c-19.12,0-34.62.81-34.62,1.81s15.5,1.81,34.62,1.81,34.62-.81,34.62-1.81S122.35,6,103.23,6Z"/><path class="cls-6" d="M106.07,5.91a3.88,3.88,0,0,0,3.29,1.53l.06.48s-3,.23-3.87-1.2l.06,1.09-1-.1.32-2Z"/><path class="cls-6" d="M93.46,5.91a3.88,3.88,0,0,1-3.29,1.53l-.06.48s3,.23,3.87-1.2l0,1.09,1-.1-.31-2Z"/></g><circle class="cls-7" cx="100" cy="100" r="69.73"/><circle class="cls-8" cx="100" cy="100" r="69.73"/><g class="cls-9"><path class="cls-10" d="M130.72,154.54H44.89c-.91-.53-1.82-1.09-2.73-1.67l21.56-53.7L86.27,103l56.71.71s-2.74,37.67-2.74,51.09C138.81,154.65,132.14,154.54,130.72,154.54Z"/><path d="M94.87,190l.25-15.65,18.37,2.06-.17,10.84a8.85,8.85,0,0,1,2.25-.16l.69-36-23.92.39-.16,38.35C93.08,189.9,94,189.94,94.87,190Z"/><path class="cls-11" d="M116.33,165.25S143.5,152,116.85,141"/><polygon class="cls-12" points="119.13 172 120.96 117.2 89.85 117.06 89.8 170.4 119.13 172"/><ellipse class="cls-13" cx="99.16" cy="56.69" rx="48.16" ry="49.89"/><path class="cls-14" d="M116.6,143.9c-21.22.72-33.41-19.86-39.4-36.72-11.17-17.43,0-55.1,0-55.1,40.44,13.25,61.36-2.77,61.37-2.78-2.55,2-.12,17.48.21,20,.82,6.29-1,8.11,1.46,14s6.2,17.2,2.94,23C132.59,125,135.81,143.25,116.6,143.9Z"/><path class="cls-14" d="M140.24,62.52c0,22.61-16.92,40.93-37.8,40.93s-37.8-18.32-37.8-40.93,16.92-40.93,37.8-40.93S140.24,39.91,140.24,62.52Z"/><path class="cls-15" d="M73.65,94.31S60.94,67.68,61.73,89.06C61.73,89.06,63.55,77.06,73.65,94.31Z"/><path class="cls-15" d="M73.74,94.38S65,81.26,68.88,98.49C68.88,98.49,67.49,87.37,73.74,94.38Z"/><path class="cls-13" d="M141.75,38.45c-2.62-9.87-9.82-8.92-19.09-14.2A27.73,27.73,0,0,0,116.49,22c-.89-.21-.33.37-1,.93,0,0-68.6,57-42.22,109a197.93,197.93,0,0,1-13.76-31.63,205,205,0,0,1-7-28.36c-2.14-11.92-2-25.18,3-36.4S70.77,17.71,82.54,15c15.37-3.49,33.55-4.83,47,5a25.6,25.6,0,0,1,8.08,10c2.62,5.63,4.28,11,3.7,17.28C141,50.42,141.7,35.32,141.75,38.45Z"/><path class="cls-14" d="M73.39,78.32s-7.7-13-18.44-3.09C41.58,87.62,66.22,95.14,66.22,95.14s7.8,2.5,5.18,10.92-2.57,11.49.35,12.46,8.8-1.92,8.92-6.93C81.17,90,73.39,78.32,73.39,78.32Z"/><path class="cls-16" d="M109.39,108.28s-6.21,11.11-1.26,16.19c0,0-10.9,0-11.93-.91,0,0-1.49-1-.71-5.15,0,0,3.43-13.18,5.88-16.79C101.37,101.62,107.13,107.94,109.39,108.28Z"/><path class="cls-17" d="M102.51,124.22s-1.13-12.19-5.79-10.28c0,0-3.18,9.81.54,10Z"/><path class="cls-18" d="M115.87,124.75l-.34-4.81L95.36,122a2.42,2.42,0,0,0,2.42,2.25Z"/><path class="cls-19" d="M106.24,99.75s-6.56-3.28-9.35,4.07A9.3,9.3,0,0,1,106.24,99.75Z"/><path class="cls-18" d="M129.76,112.81l.2,4.67s-20.3,5-30.54-11.7l2-4.16S114.6,117.65,129.76,112.81Z"/><path class="cls-20" d="M114.75,127.86c4.38,1.39,2.41-3.12,2.41-3.12s-13.77-.11-19.9-.75,4.11-22.37,4.11-22.37c15.12,15.17,26.16,13.41,33,8.8"/><polygon class="cls-16" points="97.6 113.3 97.28 116.44 96.52 116.47 96.47 117.21 99.12 117.31 99.09 116.23 98.17 116.08 98.47 113.95 97.6 113.3"/><polygon class="cls-21" points="121.32 129.53 111.56 131.05 115.87 140.23 120.96 139.04 121.32 129.53"/><path class="cls-22" d="M138.92,77.43a21.31,21.31,0,0,0,1.87,7.45,14.76,14.76,0,0,1-4.83.92c-5.83.14-10.64-2.93-10.74-6.86s4.56-7.24,10.39-7.38c1,0,2.56.71,3.51.88l-.11.48S138.91,77.25,138.92,77.43Z"/><path class="cls-18" d="M125.29,78.65c.06,3,2.86,5.5,6.26,5.59s6.09-2.27,6-5.27-2.86-5.51-6.25-5.59S125.24,75.65,125.29,78.65Z"/><path class="cls-5" d="M126,80c0,.66.38,1.21.85,1.23s.83-.52.83-1.18-.38-1.22-.85-1.23S126,79.34,126,80Z"/><path class="cls-22" d="M94.06,79.22c.11,4.5,5.85,8,12.81,7.84s12.5-3.94,12.38-8.44-5.85-8-12.81-7.83S93.94,74.73,94.06,79.22Z"/><path class="cls-18" d="M94.14,78.89c.07,3.43,3.41,6.29,7.47,6.39s7.26-2.59,7.18-6-3.41-6.29-7.45-6.39S94.07,75.46,94.14,78.89Z"/><path class="cls-5" d="M95,80.44c0,.76.45,1.39,1,1.41s1-.59,1-1.35-.45-1.39-1-1.4S95,79.68,95,80.44Z"/><path class="cls-21" d="M81.71,64l3.05,10s19.35-6.22,33.3-.74l2-10.55S101.59,53.43,81.71,64Z"/><path class="cls-21" d="M147.86,63.63l-1.51,10s-11.13-2.9-18.84.23l-1.36-11S138.78,57.6,147.86,63.63Z"/><path class="cls-23" d="M79.73,112.74,90.57,44.38l13.59-16.26a3.28,3.28,0,0,0,.61-.18c3-1.18,5.94-2.34,8.84-3.69a4,4,0,0,0,1-.69l.17,0S82,77.25,87.08,127.25C87.08,127.25,80.26,118.33,79.73,112.74Z"/><path class="cls-13" d="M79.41,154.54H44.89c-.9-.53-1.81-1.09-2.73-1.67C25.93,85.7,55.49,35.55,55.49,35.55l59.31-12C83.71,48.94,79.78,126.1,79.41,154.54Z"/><path class="cls-24" d="M119.67,101.48s14.49,6.17,14.39-2.31c-.13-10.93-12-.2-12-.2l-3.56-19.32,1.19,21.83Z"/><path class="cls-25" d="M121.61,100l-3-17.93-.13-2.44L122,99s11-10.1,12-.86C131.78,94.42,127.46,94.44,121.61,100Z"/><path class="cls-11" d="M49.69,140.65c13.52,1,28.94-1.39,40.86-7.55"/><path class="cls-26" d="M51.58,139.31c2.4-2.09,6.13-14.89.91-13.93-4,.87-3,10-2.81,12.9l-.41,0a26.45,26.45,0,0,0-5.7.16c-2.94.46-16.95,4.29-16.89,8.35-.15,5.49,16.07-2.9,18.7-4.25-4.21,2.3-9.71,9.25-8,14.27,5.38,1.11,8.31-11.22,9.26-15-.06,2.41-.66,10.75,3.42,7.88,2.12-1.48,1.74-5.35,1.49-7.57"/></g><path class="cls-10" d="M130.72,154.54H44.89c-.91-.53-1.82-1.09-2.73-1.67l21.56-53.7L86.27,103l56.71.71s-2.74,37.67-2.74,51.09C138.81,154.65,132.14,154.54,130.72,154.54Z"/><path d="M93.67,162.89A15.67,15.67,0,0,1,95.24,164l1.07.45a41.13,41.13,0,0,1,19.7-.34l.25-13-23.92.39,0,10.63A15.18,15.18,0,0,1,93.67,162.89Z"/><path class="cls-11" d="M121.27,162.25c3.08-2.2,6.79-5.38,7.24-9.4.7-6.26-7-9.9-11.66-11.84"/><path class="cls-12" d="M93.67,162.89A15.67,15.67,0,0,1,95.24,164l1.07.45c7.53-2.17,15.4-1.55,23.06.43L121,117.2l-31.11-.14,0,44.26A11.91,11.91,0,0,1,93.67,162.89Z"/><ellipse class="cls-13" cx="99.16" cy="56.69" rx="48.16" ry="49.89"/><path class="cls-14" d="M116.6,143.9c-21.22.72-33.41-19.86-39.4-36.72-11.17-17.43,0-55.1,0-55.1,40.44,13.25,61.36-2.77,61.37-2.78-2.55,2-.12,17.48.21,20,.82,6.29-1,8.11,1.46,14s6.2,17.2,2.94,23C132.59,125,135.81,143.25,116.6,143.9Z"/><path class="cls-14" d="M140.24,62.52c0,22.61-16.92,40.93-37.8,40.93s-37.8-18.32-37.8-40.93,16.92-40.93,37.8-40.93S140.24,39.91,140.24,62.52Z"/><path class="cls-15" d="M73.65,94.31S60.94,67.68,61.73,89.06C61.73,89.06,63.55,77.06,73.65,94.31Z"/><path class="cls-15" d="M73.74,94.38S65,81.26,68.88,98.49C68.88,98.49,67.49,87.37,73.74,94.38Z"/><path class="cls-13" d="M141.75,38.45c-2.62-9.87-9.82-8.92-19.09-14.2A27.73,27.73,0,0,0,116.49,22c-.89-.21-.33.37-1,.93,0,0-68.6,57-42.22,109a197.93,197.93,0,0,1-13.76-31.63,205,205,0,0,1-7-28.36c-2.14-11.92-2-25.18,3-36.4S70.77,17.71,82.54,15c15.37-3.49,33.55-4.83,47,5a25.6,25.6,0,0,1,8.08,10c2.62,5.63,4.28,11,3.7,17.28C141,50.42,141.7,35.32,141.75,38.45Z"/><path class="cls-14" d="M73.39,78.32s-7.7-13-18.44-3.09C41.58,87.62,66.22,95.14,66.22,95.14s7.8,2.5,5.18,10.92-2.57,11.49.35,12.46,8.8-1.92,8.92-6.93C81.17,90,73.39,78.32,73.39,78.32Z"/><path class="cls-16" d="M109.39,108.28s-6.21,11.11-1.26,16.19c0,0-10.9,0-11.93-.91,0,0-1.49-1-.71-5.15,0,0,3.43-13.18,5.88-16.79C101.37,101.62,107.13,107.94,109.39,108.28Z"/><path class="cls-17" d="M102.51,124.22s-1.13-12.19-5.79-10.28c0,0-3.18,9.81.54,10Z"/><path class="cls-18" d="M115.87,124.75l-.34-4.81L95.36,122a2.42,2.42,0,0,0,2.42,2.25Z"/><path class="cls-19" d="M106.24,99.75s-6.56-3.28-9.35,4.07A9.3,9.3,0,0,1,106.24,99.75Z"/><path class="cls-18" d="M129.76,112.81l.2,4.67s-20.3,5-30.54-11.7l2-4.16S114.6,117.65,129.76,112.81Z"/><path class="cls-20" d="M114.75,127.86c4.38,1.39,2.41-3.12,2.41-3.12s-13.77-.11-19.9-.75,4.11-22.37,4.11-22.37c15.12,15.17,26.16,13.41,33,8.8"/><polygon class="cls-16" points="97.6 113.3 97.28 116.44 96.52 116.47 96.47 117.21 99.12 117.31 99.09 116.23 98.17 116.08 98.47 113.95 97.6 113.3"/><polygon class="cls-21" points="121.32 129.53 111.56 131.05 115.87 140.23 120.96 139.04 121.32 129.53"/><path class="cls-22" d="M138.92,77.43a21.31,21.31,0,0,0,1.87,7.45,14.76,14.76,0,0,1-4.83.92c-5.83.14-10.64-2.93-10.74-6.86s4.56-7.24,10.39-7.38c1,0,2.56.71,3.51.88l-.11.48S138.91,77.25,138.92,77.43Z"/><path class="cls-18" d="M125.29,78.65c.06,3,2.86,5.5,6.26,5.59s6.09-2.27,6-5.27-2.86-5.51-6.25-5.59S125.24,75.65,125.29,78.65Z"/><path class="cls-5" d="M126,80c0,.66.38,1.21.85,1.23s.83-.52.83-1.18-.38-1.22-.85-1.23S126,79.34,126,80Z"/><path class="cls-22" d="M94.06,79.22c.11,4.5,5.85,8,12.81,7.84s12.5-3.94,12.38-8.44-5.85-8-12.81-7.83S93.94,74.73,94.06,79.22Z"/><path class="cls-18" d="M94.14,78.89c.07,3.43,3.41,6.29,7.47,6.39s7.26-2.59,7.18-6-3.41-6.29-7.45-6.39S94.07,75.46,94.14,78.89Z"/><path class="cls-5" d="M95,80.44c0,.76.45,1.39,1,1.41s1-.59,1-1.35-.45-1.39-1-1.4S95,79.68,95,80.44Z"/><path class="cls-21" d="M81.71,64l3.05,10s19.35-6.22,33.3-.74l2-10.55S101.59,53.43,81.71,64Z"/><path class="cls-21" d="M147.86,63.63l-1.51,10s-11.13-2.9-18.84.23l-1.36-11S138.78,57.6,147.86,63.63Z"/><path class="cls-23" d="M79.73,112.74,90.57,44.38l13.59-16.26a3.28,3.28,0,0,0,.61-.18c3-1.18,5.94-2.34,8.84-3.69a4,4,0,0,0,1-.69l.17,0S82,77.25,87.08,127.25C87.08,127.25,80.26,118.33,79.73,112.74Z"/><path class="cls-13" d="M79.41,154.54H44.89c-.9-.53-1.81-1.09-2.73-1.67C25.93,85.7,55.49,35.55,55.49,35.55l59.31-12C83.71,48.94,79.78,126.1,79.41,154.54Z"/><path class="cls-24" d="M119.67,101.48s14.49,6.17,14.39-2.31c-.13-10.93-12-.2-12-.2l-3.56-19.32,1.19,21.83Z"/><path class="cls-25" d="M121.61,100l-3-17.93-.13-2.44L122,99s11-10.1,12-.86C131.78,94.42,127.46,94.44,121.61,100Z"/><path class="cls-11" d="M49.69,140.65c13.52,1,28.94-1.39,40.86-7.55"/><path class="cls-26" d="M51.58,139.31c2.4-2.09,6.13-14.89.91-13.93-4,.87-3,10-2.81,12.9l-.41,0a26.45,26.45,0,0,0-5.7.16c-2.94.46-16.95,4.29-16.89,8.35-.15,5.49,16.07-2.9,18.7-4.25-4.21,2.3-9.71,9.25-8,14.27,5.38,1.11,8.31-11.22,9.26-15-.06,2.41-.66,10.75,3.42,7.88,2.12-1.48,1.74-5.35,1.49-7.57"/></g></g></svg>