<svg xmlns="http://www.w3.org/2000/svg" width="200" height="200" viewBox="0 0 200 200"><defs><style>.cls-1{isolation:isolate;}.cls-2{fill:#f6f6f6;}.cls-13,.cls-14,.cls-17,.cls-3{fill:none;}.cls-3{stroke:#c9c9c9;stroke-width:2px;}.cls-13,.cls-3{stroke-miterlimit:10;}.cls-4{fill:#231f20;}.cls-5{fill:#f4911e;}.cls-6{fill:#e6bd98;}.cls-7{fill:#cd9b78;}.cls-8{fill:#e6bd99;}.cls-9{fill:#b58a6d;opacity:0.3;mix-blend-mode:multiply;}.cls-10{fill:#ce9c78;}.cls-11{fill:#e7be99;}.cls-12{fill:#b18466;}.cls-13{stroke:#b18466;stroke-width:0.94px;}.cls-14,.cls-17{stroke:#deb18a;}.cls-14{stroke-width:0.61px;}.cls-15,.cls-19{fill:#fff;}.cls-16{fill:#754c29;}.cls-17{stroke-width:0.64px;}.cls-18{fill:#db9c94;}.cls-19{opacity:0.7;}</style></defs><title>Artboard 118</title><g class="cls-1"><g id="Layer_1" data-name="Layer 1"><circle class="cls-2" cx="100" cy="100" r="69.73"/><circle class="cls-3" cx="100" cy="100" r="69.73"/><path class="cls-4" d="M158.55,73.21c-4,32.79-42.39,55-60.21,52.85C69.13,122.46,48.72,93,52.76,60.17S83.76,3.72,113,7.32,162.59,40.42,158.55,73.21Z"/><path class="cls-4" d="M65.92,101c1.9,5.6-.45,11.91-4.32,16.38s-9.06,7.53-14,10.78c-9.54,6.29-19,14.38-21.72,25.46-2.87,11.5,2.94,24.6,13.41,30.17-2.37-4.18-.66-9.68,2.61-13.21s7.76-5.57,12-7.81c8-4.2,15.83-9.74,19.65-17.91,3.36-7.18,3.17-15.61,1.11-23.26S68.79,106.94,65,100"/><path class="cls-4" d="M56.59,110.07S38.27,77.84,59.17,39.42C59.17,39.42,45,75.71,56.59,110.07Z"/><path class="cls-4" d="M159,69.81c-3.81,30.92-42,51.66-59.8,49.46-29.2-3.6-49.8-31.58-46-62.5S83.76,3.72,113,7.32,162.78,38.9,159,69.81Z"/><path class="cls-4" d="M88.91,169.2c4.18.15,8.36.27,12.54.26,2,0,3.94-.06,5.92-.09.62-.05,1.26-.1,1.88-.17s1.25-.08,1.87-.11l1.34-33.6-27.88-1,2.35,34.29C87.6,168.89,88.26,169,88.91,169.2Z"/><path class="cls-5" d="M86.15,163.82l.31,4.88c.82.12,1.63.3,2.44.5,4.18.15,8.36.27,12.55.26,2,0,3.94-.06,5.92-.09.62-.05,1.26-.1,1.88-.17.8-.08,1.59-.12,2.37-.14l.23-4.45c10.69-1.69,16-8.23,12.31-14.93h0l0-.06-.08-.15h0c-5.28-9.26-19.21-19.2-19.21-19.2l-5.22.66c13.64,9.14,19.57,15.61,21.19,20.21a1.39,1.39,0,0,1,.06.19,5.53,5.53,0,0,1,.2.66c1.42,5.64-4,8.21-9,9.38l.19-19.47-13.4,20.43L85,139.87a121.13,121.13,0,0,1,12-10.4l-5.24-.3s-13.21,10.88-17.84,20.48h0a1.39,1.39,0,0,0-.06.13l0,.09h0C70.65,156.62,76,162.63,86.15,163.82ZM77,152c0-.22.09-.43.15-.66,0-.07,0-.13.05-.21.79-2.85,3.14-6.52,7.77-11.22l1,20.7C81.06,159.67,76,157.42,77,152Z"/><path class="cls-6" d="M88.56,141.9s9.17,28.67,20.51.55l-19.91-.55"/><path class="cls-7" d="M95.51,151.09c-.14,0,3.47.25,2.85,3.69C98.36,154.78,98,151.77,95.51,151.09Z"/><path class="cls-7" d="M101.41,151.09c.14,0-3.47.25-2.85,3.69C98.56,154.78,98.94,151.77,101.41,151.09Z"/><path class="cls-8" d="M146.08,71.67c-3.09,25.06-23.7,43.14-46,40.39S62.14,86.76,65.23,61.71s23.69-43.14,46-40.39S149.16,46.62,146.08,71.67Z"/><path class="cls-9" d="M76.84,35.29s42.42-6.1,64.83,51.75l1-20.13-5.39-15.43L128,44.17l-8.53-7L84.19,27S78.09,35.53,76.84,35.29Z"/><path class="cls-8" d="M65.3,99.06S65.3,126,82,135.93c0,0,3.67,8.72,15.58,10s17.05-7.28,17.05-7.28,17.33-5.05,25.13-29.33L141,96.43l-1.68-14.78-24.88-4.38L70.67,83.14Z"/><path class="cls-7" d="M89,143.22a23.65,23.65,0,0,0,19.37.84l-.82,1.79S97,152,89,143.22Z"/><path class="cls-10" d="M65.39,100.49s2.31-.75,3-2.29c0,0-.79,3.83-2.71,4.45Z"/><path class="cls-10" d="M139.75,109.73s-2.83-1.16-3.2-3.15c0,0,1,4.24,2.76,4.85Z"/><path class="cls-4" d="M77.25,32.37S71.69,87.13,65.16,73.66c-.87-1.79-4.6-20-4.6-20l10-17.52Z"/><path class="cls-11" d="M68.87,71.9S65.85,60.85,56,66c-6.67,3.48-4.81,8.16-1.73,11.69a30.71,30.71,0,0,0,6,5.11,6.3,6.3,0,0,1,1.61,9c-3.61,5.63-4.17,7.88-2.23,9.17s6.82.35,7.9-3.29C72.24,82,68.87,71.9,68.87,71.9Z"/><path class="cls-10" d="M67,83s-4-22-7.66-6.21C59.33,76.79,63,68.38,67,83Z"/><path class="cls-10" d="M67,83.07s-3.77-11.33-4.37,2C62.67,85.11,63.86,76.7,67,83.07Z"/><path class="cls-4" d="M73.87,37.2A52.56,52.56,0,0,1,121.68,30c9.25,3.25,18,9.78,21,19.12,1.81,5.63,2,11.7,1.62,17.62-1.76,31.93,1.3,12.21,5.37,16.51a4.94,4.94,0,0,0,3.41,1.86c3,0,4.06-3.93,4.2-6.92.47-9.72.93-19.53-.72-29.12S149,31.35,141.82,24.77c-3-2.81-4.68-6.37-8.27-8.46-4.34-2.52-8.82-4.92-13.69-6.16C105.38,6.48,90.16,13.76,79,23.73Z"/><path class="cls-4" d="M75.59,35.05S133.71,17.35,141,85.77L151.89,77s-.78-29.56-2.74-30.75-13.11-21-13.11-21l-14.42-6.7-15.43-1.74Z"/><path class="cls-12" d="M80.39,110.06s.38,9-5.8,4.68C74.59,114.74,79,117.37,80.39,110.06Z"/><path class="cls-12" d="M121.45,117.79s-3.64,8.23,3.7,6.38C125.15,124.17,120,125.09,121.45,117.79Z"/><path class="cls-13" d="M81,115.92s14.12,18.56,37.51,6.88"/><path class="cls-11" d="M141,85.77s4.49-8,11.1-2.1c4.49,4,2.14,7.24-.93,9.38a24.49,24.49,0,0,1-5.62,2.79,5,5,0,0,0-3,6.67c1.7,5.06,1.7,6.91-.06,7.53S137.16,109,137,106C136.45,92.9,141,85.77,141,85.77Z"/><path class="cls-10" d="M140.31,94.73s7.34-16.25,7.13-3.32C147.44,91.41,146.19,84.18,140.31,94.73Z"/><path class="cls-10" d="M140.26,94.77s5.11-8,3,2.43C143.25,97.2,144,90.46,140.26,94.77Z"/><path class="cls-14" d="M112.4,83.08s-3.15,2.08-.57,6.13"/><path class="cls-7" d="M114,83c.11,0,.86-.77,1-.85a11.91,11.91,0,0,1,2.8-1.63,11.42,11.42,0,0,1,9.13.12,9.54,9.54,0,0,1,3.64,3c.29.39,1.16,1.39.78,1.81s-1.19.21-1.53.22a13.13,13.13,0,0,1-2.51-.15Z"/><path class="cls-15" d="M130,87.31c.44,4.93-5.56,8.57-10.12,7.88s-7.42-5.34-6.4-10.38A11.52,11.52,0,0,1,114,83s10.28-1.79,15.15,1.71l.74,1.91S130,86.94,130,87.31Z"/><path class="cls-16" d="M123.47,82.72A4.9,4.9,0,1,0,131,87.65,4.7,4.7,0,0,0,131,86,21.33,21.33,0,0,1,123.47,82.72Z"/><path class="cls-4" d="M128.15,87.61A2.22,2.22,0,1,1,126.36,85,2.22,2.22,0,0,1,128.15,87.61Z"/><path class="cls-8" d="M129.05,96.38s-11.62-8.57-18.56-2.1C110.49,94.28,120,101.41,129.05,96.38Z"/><path class="cls-4" d="M129.92,86.62s1.73,4.91-5,8A10.14,10.14,0,0,0,129.92,86.62Z"/><path class="cls-4" d="M133.54,88a3.81,3.81,0,0,1-3.92,1.42,11.25,11.25,0,0,0,.27-3.18S132.41,88.56,133.54,88Z"/><path class="cls-4" d="M129.62,89.41s2,1.29,3.19,1a3.22,3.22,0,0,1-3,.65s.31,1.07,1.17,1.21c0,0-1.64.4-2.25-.62Z"/><path class="cls-4" d="M114,83s7.66-2.81,14.68.38,8.37-5,8.37-5-1.14,8.47-7.77,6.45c0,0,3.89,2.4,6.79-.5,0,0-1.66,5.73-6,2.13C125.34,82.53,114,83,114,83Z"/><path class="cls-15" d="M129.13,86.58a1,1,0,1,0-1.21.84A1,1,0,0,0,129.13,86.58Z"/><path class="cls-4" d="M113,78.61s16.37-14.34,26.42,3C139.39,81.56,128.68,72,113,78.61Z"/><path class="cls-17" d="M97.71,81.73s2.38,3.19-1.63,6.29"/><path class="cls-7" d="M96.12,81.12a4,4,0,0,1-.31-.62,11.24,11.24,0,0,0-1-1.53c-3-3.94-8.62-6.09-13.34-4a9.47,9.47,0,0,0-2.22,1.38c-.29.22-1.27,1.42-1.69,1.25l4.53,1.28S96.12,81.11,96.12,81.12Z"/><path class="cls-15" d="M78.73,79.64c-2.2,4.74,2.45,10.49,7.22,11.43s9.27-2.64,10-8a11.17,11.17,0,0,0,.11-2s-9.56-5.44-15.63-3.71L79.06,79A6.32,6.32,0,0,0,78.73,79.64Z"/><path class="cls-16" d="M94.89,80.34a22.57,22.57,0,0,1-6.82-2.83,5.16,5.16,0,1,0,8,3.23C95.66,80.62,95.27,80.48,94.89,80.34Z"/><path class="cls-4" d="M88.74,81.86A2.34,2.34,0,1,0,91.44,80,2.34,2.34,0,0,0,88.74,81.86Z"/><path class="cls-8" d="M76.45,89S91,84.62,95.6,93.52C95.6,93.52,83.61,97.2,76.45,89Z"/><path class="cls-4" d="M79.06,79s-3.47,4.24,2.12,9.76A10.66,10.66,0,0,1,79.06,79Z"/><path class="cls-4" d="M75,79.06a4,4,0,0,0,3.38,2.81s.4-2.77.86-3.25C79.23,78.62,75.9,80,75,79.06Z"/><path class="cls-4" d="M78.37,81.87s-2.47.56-3.53-.15a3.42,3.42,0,0,0,2.77,1.74,1.8,1.8,0,0,1-1.59.77s1.49,1,2.46.19Z"/><path class="cls-4" d="M96.12,81.12s-6.59-5.53-14.7-4.87-6.5-8-6.5-8-1.9,8.81,5.4,9.17c0,0-4.71,1-6.55-2.92,0,0-.4,6.28,5.18,4.26C85.07,76.57,96.12,81.12,96.12,81.12Z"/><path class="cls-15" d="M91.84,80.82a1.1,1.1,0,1,1,.89,1.27A1.09,1.09,0,0,1,91.84,80.82Z"/><path class="cls-4" d="M99.87,77.21S88.75,57.14,72.61,70.7C72.61,70.7,86.65,65,99.87,77.21Z"/><path class="cls-3" d="M76.16,165.55a70.13,70.13,0,0,0,47.59,0"/><path class="cls-18" d="M98.45,105.76S110,115.54,112,107.11c2.69-10.85-10.8-3.23-10.8-3.23l1.73-20-4.52,21.9Z"/><path class="cls-19" d="M100.58,104.81l1.89-18.5.5-2.45-1.73,20s12.5-7.23,11,2.17C111.2,101.83,107.3,100.76,100.58,104.81Z"/></g></g></svg>