<svg fill="none" xmlns="http://www.w3.org/2000/svg" viewBox="0 0 289 54">
  <path d="M202.6 21.6v.3h.1l.7-.3v-.1l1.7-1 1.5-.3c1.7 0 3 .5 4 1.7 1.1 1 1.6 2.5 1.6 4.4 0 2-.6 3.6-1.8 5a5.7 5.7 0 01-4.4 2c-.6 0-1-.2-1.6-.3-.5-.1-1-.4-1.6-.7l-.2.1a55.6 55.6 0 00.2 3.8c.2.2.4.4.9.5.4 0 .6.2.6.4 0 .3-.2.5-.6.6l-2 .2c-.8 0-1.5 0-1.9-.2-.4-.1-.6-.3-.6-.6 0-.2.2-.3.6-.4.4-.2.6-.3.7-.5l.2-1.1V27.8a60.8 60.8 0 00-.4-5.7l-.7-.1c-.4 0-.6-.3-.6-.5 0-.3.3-.6 1-1 .7-.3 1.4-.4 2-.4.2 0 .4 0 .5.2l.1.7v.6zm0 3.4v4l.1 1.1.2.6a4.5 4.5 0 003.2 1.4c1.3 0 2.3-.4 3-1.3.7-.8 1-2 1-3.6 0-1.7-.4-3-1.1-4-.8-1-1.8-1.5-3-1.5-1.1 0-2 .3-2.5.8-.6.6-.9 1.4-.9 2.5zM217.5 22.5a7 7 0 011.6-1.8c.6-.5 1.2-.7 1.7-.7s.8.2 1.1.5c.3.2.5.6.5 1 0 .5-.2.8-.4 1-.3.4-.6.5-1 .5s-.6-.1-.9-.3l-.4-1a3 3 0 00-1.8 1.4c-.3.5-.5 1.8-.5 3.8a59.9 59.9 0 00.3 4.5c0 .1.4.3.8.3h.4l.4.3.1.3c0 .2-.2.4-.6.5l-2.2.2c-.9 0-1.5 0-2-.2-.3 0-.5-.3-.5-.5 0-.3.2-.4.5-.5l.6-.3c.2-.1.3-.4.3-.8l.1-2.2a82.5 82.5 0 00-.2-5.5c0-.3-.2-.6-.3-.7 0-.1-.3-.2-.7-.2h-.3l-.3-.1a.5.5 0 01-.2-.4l.2-.4.7-.4a8.3 8.3 0 012-.8c.2 0 .4.2.5.6l.3 1.8.2.1zM225.7 25h6.5l.1-.4c0-1-.3-1.8-1-2.4a3.4 3.4 0 00-4-.6l-1.1 1-.7 1-.3 1.1.1.3h.4zm7.6 1.1h-7.7l-.3.1-.1.4c0 1.5.4 2.8 1.2 3.8.8 1 1.8 1.4 3 1.4a4.2 4.2 0 002.8-1l.8-.8c.3-.4.6-.5.8-.5h.4l.1.4c0 .2 0 .4-.2.6a3 3 0 01-.4.7 6.3 6.3 0 01-4.7 2c-1.8 0-3.2-.6-4.4-1.8A6.4 6.4 0 01223 27c0-2 .6-3.6 1.8-4.9 1.2-1.3 2.7-2 4.5-2 1.6 0 2.8.5 3.8 1.4.9.9 1.3 2 1.3 3.6l-.1 1-.9.1zM241.8 20.3l.4-.2h.3c.3 0 .6.2 1 .8.2.5.4 1.1.4 1.8 0 .3 0 .5-.2.6-.1.2-.3.3-.5.3s-.5-.3-.7-.8l-.1-.2c-.3-.6-.6-1-1-1.2-.3-.2-.7-.3-1.3-.3-.5 0-1 .2-1.4.5-.4.4-.6.8-.6 1.4 0 .9 1 1.8 3 2.7l1 .4c.7.3 1.2.8 1.6 1.4.4.6.6 1.2.6 2 0 1-.4 2-1.2 2.7-.8.7-1.8 1-3.1 1l-1.4-.1-1-.2h-.4l-.4.2c-.2 0-.5-.3-.7-.9-.3-.6-.4-1.2-.4-1.8 0-.3 0-.5.2-.6.2-.2.3-.2.5-.2.3 0 .5.2.8.7l.3.5a2.8 2.8 0 002.5 1.4c.7 0 1.3-.2 1.8-.6.4-.4.7-1 .7-1.6 0-.5-.2-.9-.4-1.2-.3-.4-.7-.7-1.4-1l-1-.4c-1.2-.5-2.1-1-2.7-1.6l-.7-1-.3-1.2c0-1 .4-1.9 1.2-2.6.7-.6 1.7-1 2.9-1l.8.1 1 .2zM248.3 25H255v-.4c0-1-.2-1.8-.9-2.4a3.4 3.4 0 00-4-.6c-.4.2-.8.6-1.1 1l-.7 1-.3 1.1.1.3h.3zm7.7 1.1h-7.7l-.4.1v.4c0 1.5.4 2.8 1.2 3.8.8 1 1.8 1.4 3 1.4a4.2 4.2 0 002.7-1l.8-.8c.4-.4.7-.5 1-.5h.3l.1.4c0 .2 0 .4-.2.6l-.4.7a6.3 6.3 0 01-4.7 2c-1.8 0-3.2-.6-4.4-1.8a6.4 6.4 0 01-1.7-4.5c0-2 .6-3.6 1.8-4.9 1.2-1.3 2.7-2 4.5-2 1.6 0 2.8.5 3.7 1.4 1 .9 1.4 2 1.4 3.6l-.1 1-.9.1zM262 22v.3h.1c.1 0 .3 0 .5-.4l.5-.5c.4-.5.8-.8 1.3-1 .5-.2 1-.3 1.7-.3a4 4 0 012.8.9c.7.5 1.2 1.5 1.5 2.7v.8a18.2 18.2 0 01.1 3.2 79.4 79.4 0 00.2 3.6l.3.3.4.2c.4 0 .6.2.6.5 0 .2-.2.4-.6.5l-1.9.2c-.8 0-1.4 0-1.8-.2-.4 0-.6-.3-.6-.5 0-.3.2-.4.6-.5l.7-.4.1-1.1V26c0-1.5-.1-2.6-.6-3.3-.4-.6-1.1-1-2.1-1a4.4 4.4 0 00-3.3 1.7l-.4.8-.1 1.3v1a92.8 92.8 0 00.2 4.9l.7.4c.4 0 .6.2.6.5 0 .2-.2.4-.6.5l-1.9.2c-.8 0-1.5 0-1.8-.2-.4 0-.6-.3-.6-.5 0-.3.2-.4.5-.5l.8-.4.1-1.4a72.8 72.8 0 00-.2-7.8s-.3-.2-.8-.2c-.4 0-.6-.3-.6-.5 0-.3.3-.6 1-1 .7-.3 1.4-.4 2-.4l.4.1.2.8v1zM274.4 22h-1l-.3-.2-.1-.2v-.3c0-.2.3-.7 1-1.4a10 10 0 00.7-.9c.6-.7 1-1 1.3-1l.2.1.2.3v2.2h2.5l.3.1.1.4v.7l-.4.1h-2.3l-.2.1v7.1c0 1 0 1.7.2 2 .3.4.6.6 1.1.6.2 0 .5 0 .8-.2l.6-.2.3.1.2.3c0 .4-.3.7-.9 1-.5.4-1.1.6-1.8.6-.9 0-1.5-.3-1.9-.9-.4-.5-.6-1.4-.6-2.7v-7.8zM286.4 20.3l.4-.2h.3c.3 0 .6.2 1 .8.2.5.4 1.1.4 1.8 0 .3 0 .5-.2.6-.1.2-.3.3-.5.3s-.5-.3-.7-.8l-.1-.2a3 3 0 00-1-1.2c-.3-.2-.7-.3-1.3-.3-.5 0-1 .2-1.4.5-.4.4-.6.8-.6 1.4 0 .9 1 1.8 3 2.7l1 .4c.7.3 1.3.8 1.6 1.4.4.6.6 1.2.6 2 0 1-.4 2-1.2 2.7-.8.7-1.8 1-3.1 1l-1.4-.1-1-.2h-.4l-.4.2c-.2 0-.4-.3-.7-.9-.3-.6-.4-1.2-.4-1.8 0-.3 0-.5.2-.6.2-.2.3-.2.5-.2.3 0 .5.2.8.7l.3.5a2.8 2.8 0 002.5 1.4c.7 0 1.3-.2 1.8-.6.4-.4.7-1 .7-1.6 0-.5-.2-.9-.4-1.2-.3-.4-.7-.7-1.3-1l-1-.4c-1.3-.5-2.2-1-2.8-1.6l-.7-1-.3-1.2c0-1 .4-1.9 1.2-2.6.7-.6 1.7-1 2.9-1l.8.1 1 .2z" fill="#241c15"/>
  <path fill-rule="evenodd" clip-rule="evenodd" d="M38 25.5h1.2c.2-.4.2-1.2 0-2.1-.2-1.3-.6-2-1.3-2-.8.2-.8 1.1-.5 2.4.1.7.4 1.3.7 1.7zm-6.3 1c.5.3.8.4 1 .3l-.1-.5c-.3-.4-.8-.8-1.4-1a3.8 3.8 0 00-3.7.4c-.3.2-.7.6-.6.8l.2.1c.3 0 1.3-.4 2.5-.5.8 0 1.5.2 2 .4zm-1.1.7c-.7 0-1 .3-1.3.5l-.4.5v.2h.2l.5-.1c1-.4 1.6-.3 2.2-.3h.6v-.2c-.1-.3-.9-.8-1.8-.6zm5.3 2.2c.5.2 1 .2 1.2-.2.1-.3-.1-.8-.6-1-.4-.3-1-.2-1.1.2-.2.3 0 .8.5 1zm3-2.7c-.3 0-.6.5-.7 1 0 .5.3 1 .7 1 .4 0 .7-.5.7-1s-.3-1-.6-1zm-26.1 9.5c-.2 0-.3.1-.4 0a.8.8 0 01-.7-.2v-1.2l.2-.2c.3-.7.8-1.8.2-3a2.6 2.6 0 00-2-1.4c-.8-.1-1.7.2-2.2.8-.9 1-1 2.2-.8 2.7l.2.2c.1 0 .4-.1.5-.5 0-.3.2-.6.4-1 .2-.3.5-.5 1-.6.4 0 .8 0 1.1.2.6.4.8 1.2.6 1.9-.1.3-.4 1-.3 1.6 0 1.1.8 1.6 1.4 1.6.6 0 1-.3 1.2-.5v-.3c-.1-.1-.3 0-.4 0zm36 1.8c-.5 2.3-1.5 4.3-3.2 6-1 1.2-2.3 2.2-3.7 2.9l-2.4 1c-6.4 2.1-13-.2-15.1-5.2A10.3 10.3 0 0126.2 32l.3-.6-.2-.5c-.9-1.3-3.8-3.3-3.2-7.4.4-2.8 3-4.9 5.3-4.8h.6l2.7.3c1.4 0 2.7-.1 4.2-1.4.5-.4.9-.8 1.6-.9h.6c.3 0 .7 0 1 .3 1.2.8 1.4 2.7 1.4 4.1l.2 3.3c0 1.3.4 1.5 1 1.7l1.3.4a7 7 0 013.2 1.5c.3.4.5.7.5 1.1.2 1.4-1 3-4.3 4.6a22 22 0 01-11 1.8l-1-.2c-2.5-.3-3.8 2.9-2.4 5 1 1.4 3.5 2.3 6 2.3 5.9 0 10.3-2.5 12-4.7l.1-.2c.1-.1 0-.2 0 0-1.4.8-7.5 4.6-14 3.4 0 0-.7 0-1.4-.4-.6-.2-1.8-.7-2-2 5.3 1.6 8.6.1 8.6.1v-.1l-.1-.2s-4.3.7-8.3-.8c.4-1.5 1.6-1 3.3-.8 3.2.2 6.1-.3 8.2-.9 1.8-.5 4.2-1.6 6.1-3 .6 1.3.9 2.9.9 2.9s.5-.1.9.1c.3.3.6.8.4 2zM19 15.2c2-2.4 4.5-4.4 6.7-5.5h.1l-.6 1.6c0 .1 0 .2.1.1 1.4-1 3.8-2 5.9-2 0 0 .1 0 0 .1a5 5 0 00-.9 1h.1c1.5 0 3.6.6 5 1.4 0 0 0 .2-.2.2a19.9 19.9 0 00-16 3.2c-.2 0-.3 0-.2-.1zm-10.4 11a7 7 0 00-4.4 2.9 12 12 0 01-1.9-1.8c-1.5-3 1.7-8.8 4-12.1C12 7.2 20.8 1 25 2.1c.6.2 2.8 2.7 2.8 2.7s-4 2.3-7.8 5.5a36 36 0 00-11.3 16zm3 13.7h-.8c-2.7 0-5.7-2.5-6-5.4-.3-3.2 1.3-5.7 4.3-6.3a5 5 0 011.2-.1c1.6 0 4 1.3 4.6 5 .5 3-.3 6.3-3.3 6.8zm37-5.7l-.3-1.3-.5-1.2a3.8 3.8 0 00-.4-5.2 9 9 0 00-3.9-2l-1-.2v-3.4c0-.7-.1-1.8-.5-3a8 8 0 00-2-3.6c2.5-2.6 4-5.5 4-8 0-4.6-5.8-6-12.9-3l-1.5.5L27 1.1c-8.1-7-33.4 21.2-25.3 28l1.7 1.6a8.8 8.8 0 00-.4 4 8 8 0 002.7 5.1 8.3 8.3 0 005.3 2.2 20.5 20.5 0 0018.8 12c9 .3 16.7-4 19.8-11.7.2-.5 1.1-3 1.1-5 0-2.2-1.2-3.1-2-3.1zM184 31.9c-1.2 0-2.2-1.6-2.2-3.8 0-2.2 1-3.9 2.2-3.9 1.5 0 2.1 1.4 2.1 3.9s-.6 3.8-2 3.8zm-3.1-9c-.4.8-.4 1-.6 1-.4 0-.1-.6 0-1.3.4-1.5.2-2.6.2-2.6h-4v19.7h5.4v-6.5a4.2 4.2 0 003.7 2.3c3.9 0 5.8-3.4 5.8-8 0-5.1-2.3-7.9-5.9-7.9-2.8 0-4 2.1-4.6 3.3zM165.3 22.7c-.3.7-.3 1.2-.6 1.2s-.1-.6-.4-1.5c-.4-1.4-1.4-3-3.9-3s-3.6 2.3-4.1 3.5c-.4.8-.4 1-.7 1-.3 0 0-.6.2-1.4.3-1.5 0-2.7 0-2.7h-4v15.5h5.5v-7.7c0-1.5.6-3.5 1.7-3.5 1.2 0 1.5 1 1.5 2.8v8.4h5.5v-7.7c0-1.4.5-3.5 1.7-3.5s1.4 1.4 1.4 2.8v8.4h5.4v-9.1c0-4-1.4-6.7-5-6.7-2.4 0-3.6 2-4.2 3.2zM144.5 35.3h5.5V19.9s-1 .5-2.8.5c-1.8 0-2.7-.5-2.7-.5v15.4zM147.2 15c-1.8 0-3.4 1-3.4 2.3 0 1.2 1.6 2.2 3.4 2.2 1.9 0 3.4-1 3.4-2.2 0-1.3-1.5-2.3-3.4-2.3zM133 23c-.2.6-.3 1-.5 1-.4 0-.1-.7 0-1.1.3-.8.8-2.9.8-5.4 0-1.7-.2-2.3-.2-2.3h-4.7v20h5.4v-7.6c0-1.3.5-3.4 2-3.4 1 0 1.4.8 1.4 2.6v8.5h5.5V27c0-4-.6-7.6-5-7.6-3.2 0-4.4 3-4.6 3.6zM118 27.5c0-1.3 1.2-2.6 3.6-2.6a10 10 0 015 1.5v-5.3s-1.6-1.6-5.6-1.6c-4.1 0-7.6 2.5-7.6 7.8s3.1 8.3 7.6 8.3c3.5 0 5.6-2 5.6-2v-5c-.7.3-2.5 1.6-5 1.6-2.7 0-3.6-1.2-3.6-2.7zM106.5 35.3h5.4V15.2h-5.4v20zM99.2 35.3h5.5V19.9s-1 .5-2.8.5c-1.8 0-2.7-.5-2.7-.5v15.4zM102 15c-2 0-3.4 1-3.4 2.3 0 1.2 1.5 2.2 3.3 2.2 1.9 0 3.4-1 3.4-2.2 0-1.3-1.5-2.3-3.4-2.3zM89.5 31.6c-1.3.3-2 0-2-1 0-1.2 1.2-1.7 3-1.7l1.5.1c0 .5-1.1 2.3-2.5 2.6zm1.3-12.1c-4.2 0-7.2 1.6-7.2 1.6v4.6s3.3-2 6-2c2.2 0 2.4 1.2 2.3 2.2 0 0-.6-.2-2.5-.2-4.4 0-6.7 2.1-6.7 5.4 0 3.2 2.5 4.5 4.7 4.5 3 0 4.5-2.1 4.9-3.2.3-.7.3-1.1.6-1.1s.2.3.2 1c0 1.2 0 2.2.2 3h4.1v-7.6c0-4.8-1.6-8.2-6.6-8.2zM72.3 22.7c-.4.7-.4 1.2-.7 1.2-.3 0 0-.5-.4-1.5a3.8 3.8 0 00-3.9-3c-2.5 0-3.6 2.3-4.1 3.5-.4.8-.4 1-.6 1-.4 0-.1-.6 0-1.4.4-1.5.1-2.7.1-2.7h-4v15.5h5.5v-7.7c0-1.5.6-3.5 1.7-3.5 1.2 0 1.5 1 1.5 2.8v8.4h5.5v-7.7c0-1.4.5-3.5 1.7-3.5S76 25.5 76 27v8.4h5.4v-9.1c0-4-1.4-6.7-5-6.7-2.4 0-3.6 2-4.1 3.2z" fill="#241c15"/>
</svg>
