<svg viewBox="0 0 1920 1080" xmlns="http://www.w3.org/2000/svg"><circle cx="960.45" cy="543.7" fill="#fff" opacity=".2" r="528.6"/><path d="M1397.955 543.704a435.793 435.793 0 0 1-106.55 286.15q-6.165 7.14-12.66 14-14.025 14.88-29.4 28.4a.423.423 0 0 1-.13.11 345.662 345.662 0 0 1-7.56 6.51q-7.845 6.6-15.99 12.81c-.1.08-.2.15-.3.22-1.63 1.25-3.26 2.48-4.91 3.68q-10.35 7.68-21.16 14.72a434.658 434.658 0 0 1-187.81 67.95q-18.81 2.19-38.09 2.76-6.45.195-12.94.19h-.04q-19.874 0-39.32-1.74a436.31 436.31 0 0 1-56.67-8.84q-3.135-.69-6.24-1.45-13.305-3.165-26.29-7.17-7.094-2.175-14.08-4.59c-4.16-1.42-8.28-2.92-12.38-4.47a438.535 438.535 0 0 1-183.3-131.83q-7.74-9.42-14.95-19.29c-.43-.58-.86-1.16-1.27-1.75q-3.284-4.515-6.43-9.11-9.21-13.425-17.43-27.54-4.56-7.83-8.79-15.86a435.48 435.48 0 0 1-50.31-203.86c0-174.64 102.32-325.38 250.29-395.53q7.74-3.675 15.65-7.04 11.43-4.89 23.18-9.12 2.505-.915 5.04-1.78c2.1-.74 4.22-1.45 6.34-2.14q11.52-3.81 23.32-6.98a441.561 441.561 0 0 1 174.75-10.68q6.57.915 13.07 2.03a433.613 433.613 0 0 1 100.02 29.79q4.32 1.86 8.58 3.83 6.6 3.03 13.08 6.29 5.85 2.925 11.59 6.03a439.403 439.403 0 0 1 133.78 111.42q8.145 10.125 15.68 20.74 3.87 5.43 7.54 10.98 4.86 7.245 9.39 14.71a435.378 435.378 0 0 1 63.7 227.45z" fill="#003d5b"/><path d="M1150.004 588.898l10.055-.022.16 70.327-10.055.023z" fill="#bbd5d1"/><path d="M1135.776 545.059l-11.117 72.761 30.397-18.241 30.48 18.103-5.405-39.785-25.15-11.271 24.364 5.427-9.502-69.882-15.056-21.198 14.132 14.37-12.029-88.549-20.025 131.085 18.035-7.219z" fill="#bbd5d1"/><path d="M1227.132 560.782l5.028-.011.08 35.164-5.028.011z" fill="#bbd5d1"/><path d="M1220.006 538.856l-5.551 36.388 15.199-9.121 15.24 9.052-2.71-19.893-12.567-5.635 12.182 2.714-4.759-34.941-7.52-10.599 7.058 7.192-6.007-44.282-10.012 65.535 9.017-3.594z" fill="#bbd5d1"/><path d="M967.297 649.979c50.282 42.061 106.569 67.678 167.634 76.626 2.06.313 4.135.596 6.21.849 5.454.715 10.967 1.262 16.496 1.689 7.83.603 15.297.935 22.339.919q4.604.095 9.01-.02a253.91 253.91 0 0 0 9.162-.294l2.513-.142a424.35 424.35 0 0 0 7.647-.548l2.543-.233a222.19 222.19 0 0 0 35.923-5.881l5.129 17.707 5.158 17.706c-1.195.381-21.671 6.182-54.363 8.074-.863.047-1.74.125-2.62.127a410.96 410.96 0 0 1-7.858.336l-2.56.006-9.373.02q-4.407-.02-9.087-.19c-4.74-.141-9.602-.373-14.615-.74-6.24-.5-12.92-1.091-19.874-1.984-2.09-.283-4.21-.566-6.377-.894-46.855-6.89-106.639-25.094-166.632-69.178q-10.042-7.367-20.026-15.704z" fill="#6ecdea"/><path d="M1300.263 736.967c-8.267-12.702-8.623-76.245 13.982-64.984 17.103 9.215.81 49.837-3.977 62.78l1.834.678c25.963 9.542 45.836 17.856 67.078 35.98 5.417 4.607 40.102 33.998 19.563 38.86-7.28 1.698-15.758-3.84-21.596-7.356a200.583 200.583 0 0 1-21.524-15.367c-10.848-8.653-21.242-17.943-31.304-27.385a78.005 78.005 0 0 1 23.45 49.997c.439 6.511 1.58 22.364-5.909 25.607s-14.133-8.691-16.356-13.941c-3.06-7.247-4.048-15.24-4.974-22.992-1.775-14.534-1.49-29.194-1.008-43.809-2.852 11.137-10.987 50.136-25.9 31.634-7.745-9.569-.954-26.818 3.097-36.655z" fill="#e63d31"/><path d="M1211.342 791.777l14.168-103.267 57.589 5.654-8.319 117.58z" fill="#1c75bc"/><g fill="#27aae1"><path d="M1226.26 780.897l1.436-5.728 36.913 9.258-1.437 5.728z"/><path d="M1227.997 763.065l1.243-5.773 36.078 7.767-1.243 5.774z"/><path d="M1228.803 742.28l1.109-5.79 34.341 6.577-1.109 5.791z"/><path d="M1233.82 727.547l.973-5.826 32.233 5.388-.974 5.826z"/><path d="M1234.936 711.402l.65-5.87 31.984 3.542-.65 5.87z"/></g><path d="M1130.337 763.097c2.146.307 4.293.613 6.395.92a15.894 15.894 0 0 1 .876-8.454 17.168 17.168 0 0 1 4.775-6.528c5.3 5.082 12.66 7.973 19.887 6.265 4.205-.964 7.928-4.468 6.965-9.112-.745-3.81-4.512-6.22-7.973-7.227a23.77 23.77 0 0 0-17.653 1.883 16.84 16.84 0 0 1-2.453-13.404v-.044a84.245 84.245 0 0 1-3.285-.437s0 .044-.044 0c-.963-.132-1.927-.263-2.847-.395v.044c-.131.438-.22.876-.307 1.314a21.792 21.792 0 0 0-.306 2.366 23.123 23.123 0 0 0 4.03 14.017 22.678 22.678 0 0 0-8.06 18.792zm17.653-17.347a8.491 8.491 0 0 1 .92-.394 17.95 17.95 0 0 1 8.191-.876c1.927.22 4.556.832 5.782 2.453.438.526.482.92-.175 1.49a5.986 5.986 0 0 1-3.023 1.05 15.719 15.719 0 0 1-7.096-1.138 20.602 20.602 0 0 1-4.6-2.585z" fill="#6ecdea"/><path d="M1188.956 729.95a347.625 347.625 0 0 1-8.67 36.97q-4.406-.02-9.086-.19a350.423 350.423 0 0 0 8.806-36.714q4.604.065 8.95-.066z" fill="#fff"/><path d="M1200.692 729.62a362.871 362.871 0 0 1-8.411 37.289l-2.56.006a379.123 379.123 0 0 0 8.457-37.258zm10.19-.84a355.59 355.59 0 0 1-8.123 37.605c-.863.048-1.741.125-2.62.127a348.884 348.884 0 0 0 8.199-37.5z" fill="#1c75bc"/><path d="M948.329 666.438c-63.614 15.727-125.464 14.171-184.265-4.58a273.254 273.254 0 0 1-5.956-1.955 331.36 331.36 0 0 1-15.565-5.72 372.536 372.536 0 0 1-20.495-8.963c-2.774-1.311-5.246-2.593-8.066-4.01s-5.534-2.865-8.096-4.267c-.698-.438-1.501-.86-2.214-1.237q-3.472-1.961-6.626-3.847l-2.184-1.312a222.279 222.279 0 0 1-29.715-21.028l-12.371 13.657-12.402 13.658c.925.815 16.768 15.045 45.32 31.078l2.304 1.252c2.23 1.252 4.55 2.473 6.93 3.74.758.377 1.5.784 2.274 1.16a309.357 309.357 0 0 0 8.399 4.176q4.017 1.945 8.292 3.843c4.366 1.944 8.808 3.872 13.46 5.74q8.777 3.538 18.75 6.923c1.955.677 3.985 1.339 6.061 2 45.1 14.315 106.864 24.17 180.1 10.829a402.952 402.952 0 0 0 24.884-5.342z" fill="#6ecdea"/><path d="M595.475 607.023c14.408-4.704 54.5-53.999 29.823-59.398-19.077-3.518-31.867 38.34-36.253 51.416l-1.848-.618c-26.216-8.834-46.946-14.804-74.82-14-7.107.201-52.556 1.366-39.601 18.019 4.602 5.894 14.688 6.876 21.434 7.804a202.93 202.93 0 0 0 26.403 1.52c13.896.054 27.773-.704 41.616-1.794a78.02 78.02 0 0 0-49.61 24.272c-4.42 4.81-15.244 16.422-11.44 23.658s16.453 2.073 21.482-.614c6.925-3.734 12.69-9.344 18.292-14.789 10.554-10.198 19.457-21.823 28.219-33.51-4.743 10.45-22.837 45.944.377 40.878 12.04-2.6 17.552-20.327 20.559-30.516z" fill="#e63d31"/><path d="M666.822 686.991l32.532-99.024-54.261-20.139-44.047 109.317z" fill="#1c75bc"/><path d="M620.938 662.773l1.22-5.779 37.236 7.86-1.22 5.78z" fill="#27aae1"/><path d="M628.584 645.144l1.413-5.734 35.834 8.828-1.413 5.734z" fill="#27aae1"/><path d="M636.768 627.235l1.56-5.696 33.783 9.254-1.56 5.696z" fill="#27aae1"/><path d="M643.476 610.143l1.678-5.663 31.334 9.281-1.678 5.663z" fill="#27aae1"/><path d="M650.545 593.66l1.988-5.562 30.288 10.827-1.987 5.561z" fill="#27aae1"/><path d="M726.99 675.751c5.737 4.643 13.622 5.301 20.587 3.067a17.827 17.827 0 0 1 1.445 7.929 15.876 15.876 0 0 1-2.89 8.015 91 91 0 0 0 3.723 1.227 6.382 6.382 0 0 1 .832.307c.482.131.964.307 1.49.481v-.044a22.539 22.539 0 0 0 1.007-20.412 22.884 22.884 0 0 0 9.725-10.82 21.835 21.835 0 0 0 1.139-3.636c-.964-.305-1.972-.612-2.98-.963-.963-.307-1.97-.613-2.978-.92a16.592 16.592 0 0 1-8.016 10.995 24.286 24.286 0 0 0-15.025-9.55c-3.592-.525-8.016.045-10.382 3.067-2.89 3.724-1.05 8.542 2.322 11.257zm3.11-7.884c1.707-.92 4.423-.263 6.263.35a17.21 17.21 0 0 1 6.965 4.424c.219.22.438.439.657.702a19.602 19.602 0 0 1-5.3.437 16.362 16.362 0 0 1-6.834-2.102 5.7 5.7 0 0 1-2.278-2.278c-.394-.832-.13-1.182.526-1.533z" fill="#6ecdea"/><path d="M713.982 641.21a347.99 347.99 0 0 0-8.396 37.03q4.017 1.945 8.292 3.843a356.653 356.653 0 0 1 8.17-36.863q-4.154-1.975-8.066-4.01z" fill="#fff"/><path d="M703.672 635.706a365.526 365.526 0 0 0-8.76 37.198c.758.377 1.501.784 2.275 1.16a373.55 373.55 0 0 1 8.699-37.121 70.097 70.097 0 0 0-2.214-1.237zm-8.75-5.16a355.678 355.678 0 0 0-9.183 37.366l2.305 1.252a351.009 351.009 0 0 1 9.001-37.305z" fill="#1c75bc"/><path d="M840.299 933.315c6.612 2.168 13.278 4.197 20.04 6.032l62.217 9.238 87.4-.208.844-13.503 1.932-31.149.56-8.913 2.73-44.086.336-5.274.45-7.521.675-10.855.234-3.74.671-10.55.213-3.72 1.96-31.513v-.02l.118-1.737-157.648-29.286-1.576 13.017-3.409 27.986-.444 3.58-1.29 10.664-.003.04-.423 3.563-1.647 13.397-.001.02-1.546 12.634-.004.04-5.975 49.172-.005.062-1.123 9.092-3.02 24.868z" fill="#6ecdea"/><path d="M853.283 758.591L1042.175 780l19.658-92.845-210.556-32.188z" fill="#1c75bc"/><path d="M880.597 741.262l2.877-57.185 9.8.493-2.877 57.185z" fill="#27aae1"/><path d="M912.825 745.876l5.058-55.362 9.772.893-5.057 55.362z" fill="#27aae1"/><path d="M946.173 750.282l6.44-52.443 9.739 1.196-6.44 52.443z" fill="#27aae1"/><path d="M978.366 751.905l7.246-48.834 9.707 1.44-7.246 48.835z" fill="#27aae1"/><path d="M1007.268 756.662l10.362-47.727 9.59 2.082-10.363 47.727z" fill="#27aae1"/><path d="M1015.666 935.464l-4.18 42.79q-18.81 2.19-38.09 2.76-6.45.195-12.94.19h-.04q-19.875 0-39.32-1.74a436.31 436.31 0 0 1-56.67-8.84q-3.136-.69-6.24-1.45-13.306-3.165-26.29-7.17c2-14.4 4.27-30.1 3.36-30.43l2.22-17.53 5.09.6 168.23 20.23z" fill="#1c75bc"/><path d="M854.177 818.756l-1.486 12.663c30.284-1.674 94.948-1.85 163.324 19.317l.804-12.799c-67.997-20.653-130.95-20.874-162.642-19.181z" fill="#fff"/><path d="M856.304 801.805l-.416 3.56c31.71-.814 107.036-.062 161.603 21.713l.234-3.741c-54.733-21.502-129.363-22.423-161.42-21.532zm1.74-14.285l-.431 3.575c32.178-.724 106.733.122 160.77 21.7l.218-3.726c-54.232-21.275-128.06-22.304-160.557-21.549z" fill="#1c75bc"/><path d="M866.251 620.526L761.199 466.965l-7.201-136.778L845.507 207.8 860.31 37.611l71.139 70.393 140.441 139.201 130.519-42.35 115.707-9.485 33.909 34.36-80.727 115.397-18.223 64.463-60.616 202.185-175.563 53.16z" fill="#fff"/><path d="M676.264 373.81c-56.2 75.212-2.497 116.65-1.358 117.483-1.664-4.995 2.979-28.385 2.979-28.385 3.723 69.079 50.462 129.266 50.462 129.266-2.102-8.542-.57-49.85-.57-49.85 2.76 46.17 46.17 89.756 47.528 91.113-4.906-7.315-5.607-48.273-5.607-48.273 13.755 38.329 33.948 61.501 48.272 74.073.92.833 1.84 1.665 2.803 2.497h.044a94.71 94.71 0 0 0 14.412 9.943 223.187 223.187 0 0 0 7.052 3.768l-.481.263c.876.306 1.62.613 2.496.964h.132c2.453.92 4.906 1.927 7.315 2.934a170.669 170.669 0 0 1 23.216 12.31c-13.842-8.937-20.982-13.054-23.26-14.368-.35-.22-.57-.351-.7-.439.218.088.481.22.7.307a139.921 139.921 0 0 0 25.626 8.936c2.058.483 4.03.964 5.957 1.49a246.08 246.08 0 0 1 9.68 2.715c8.499 2.41 16.077 4.6 24.443 5.3a60.906 60.906 0 0 0 9.812.044h.044c.394 0 .701-.044 1.095-.044 8.892-.788 17.785-1.444 26.677-2.102h.044c2.584-.175 5.08-.35 7.665-.525h.044a2138.64 2138.64 0 0 1 62.859-3.285h.044c5.957-.22 11.914-.395 17.96-.57 6.307-.176 12.22-.483 17.915-.964 32.372-2.541 56.113-8.936 89.404-15.463 8.017-.35 16.077-.7 24.136-1.007 15.157-8.717 30.532-16.734 46.652-24.049 2.628-1.139 5.3-2.058 7.972-3.022a436.32 436.32 0 0 0 24.705-43.892c2.278 10.12-2.54 25.32-8.541 39.073a117.158 117.158 0 0 1 20.325-2.496 3.505 3.505 0 0 1 .525-.614 44.055 44.055 0 0 1 7.097-6.307l-2.629.92c17.434-32.24 22.779-71.927 23.786-80.95.132-1.227.219-1.885.219-1.885a22.794 22.794 0 0 1 1.139 2.06v.043a14.028 14.028 0 0 1 .876 2.016c7.666 19.886-1.971 61.457-1.971 61.457 57.252-66.408-8.28-187-9.812-189.803 20.456 16.865 46.783 76.613 46.783 76.613-3.505-60.1-62.509-124.272-62.509-124.272a837.224 837.224 0 0 0 30.4-35.744c.132-.132.22-.306.35-.439 68.466-85.46 71.007-127.163 71.007-127.163-89.054-52.214-204.828-13.14-217.618-8.541-.789.262-1.183.438-1.183.438-.395-.57-.745-1.14-1.183-1.665a160.705 160.705 0 0 0-100.443-65.88 90.322 90.322 0 0 0-13.272-1.797c24.662 9.68 42.972 35.963 43.541 36.796-37.978-18.53-69.824-29.875-95.887-36.665a112.044 112.044 0 0 0-17.916-36.751c-16.952-23.436-48.579-50.024-107.1-61.72h-.045v-.044h-.087c-5.563-1.095-11.346-2.103-17.434-2.935 0 0-31.977 79.286-19.23 129.616-13.755 3.724-23.172 7.84-29.612 11.565-11.082 6.351-13.185 11.476-13.185 11.476l36.927-2.496-.613 1.532-31.276 77.49c-48.535 4.38-78.629 31.144-79.549 31.978 8.98-3.68 35.57 2.934 35.57 2.934-72.014 25.932-93.697 85.111-94.354 86.907a39.86 39.86 0 0 1 28.735-11.915zm592.494-59.048a93.055 93.055 0 0 1-13.886 9.374 300.82 300.82 0 0 0-16.033-31.583v-.042c-9.549-16.56-22.953-36.533-39.336-52.128 0 0 2.147-.92 5.914-2.366 19.624-7.358 83.359-28.121 123.22-4.117 0 0-21.113 44.812-51.776 73.81a121.074 121.074 0 0 1-8.104 7.052zM1019.6 236.88c45.907 15.419 56.2 108.151 37.628 163.608-18.617 55.5-71.751 77.183-117.702 61.764-45.863-15.331-67.195-61.94-48.578-117.439 18.572-55.5 82.746-123.395 128.652-107.933zM866.11 70.686c61.37 15.901 89.843 69.736 79.68 71.445-13.272 2.278-39.73 13.93-60.143 23.654-5.519 2.585-10.469 5.037-14.718 7.14h-.088c-7.928 3.898-13.053 6.527-13.053 6.527a41.343 41.343 0 0 1-3.198-6.002l-.263-.656a60.012 60.012 0 0 1-4.205-17.829v-.044c-1.445-14.411.701-30.487 3.855-44.723v-.044c0-.088.044-.176.044-.263a.161.161 0 0 1 .044-.132 267.4 267.4 0 0 1 12.046-39.073z" fill="#e73c31"/><path d="M1222.007 539.382c-2.817-.085-135.158 93.774-135.158 93.774l-266.087 28.589c119.382 101.783 312.95 35.18 312.95 35.18a169.095 169.095 0 0 1-72.353 41.81c143.677-3.248 182.844-94.306 182.844-94.306-4.657 23-31.476 70.127-31.476 70.127 67.035-42.812 84.813-163.564 84.813-163.564s-72.716-11.526-75.533-11.61z" fill="#e73c31"/><path d="M1050.266 595.107c95.624-37.501 132.57-146.666 132.93-147.757q.054-.14.095-.286a3.195 3.195 0 1 0-6.157-1.714c-.346 1.06-36.344 107.391-129.153 143.825-59.659 23.412-129.676 13.333-208.083-29.936a3.18 3.18 0 0 0-3.016 5.58c73.388 40.494 139.82 52.458 197.723 35.669q7.99-2.32 15.661-5.381z" fill="#fff"/><path d="M1215.502 475.687c-14.504-85.015-67.266-45.521-67.266-45.521 62.183-58.778 68.537 31.646 68.537 31.646zm-431.463-80.692c1.237 24.53 16.222 54.784 16.222 54.784s91.883-10.81 56.805-33.067c-35.063-22.318-74.264-46.247-73.027-21.717z" fill="#fff"/><path d="M971.239 430.044a3.706 3.706 0 0 0 3.66-3.153c6.626-44.095 3.28-68.362-10.227-74.188-22.267-9.634-60.823 38.414-65.145 43.923a3.705 3.705 0 0 0 5.826 4.578c14.972-19.066 43.511-47.248 56.385-41.7 5.54 2.391 13.665 14.18 5.833 66.284a3.705 3.705 0 0 0 3.114 4.213 3.49 3.49 0 0 0 .554.043z" fill="#e73c31"/><path d="M837.418 369.732a3.541 3.541 0 0 0 3.506-3.067c6.173-45.434 2.915-69.034-10.252-74.27-20.721-8.256-55.249 38.8-59.118 44.189a3.544 3.544 0 0 0 5.758 4.132c13.368-18.63 38.957-46.426 50.742-41.738 5.286 2.1 13.073 13.57 5.85 66.737a3.544 3.544 0 0 0 3.033 3.987 3.68 3.68 0 0 0 .481.03z" fill="#fff"/><circle cx="477.108" cy="177.037" fill="#8ecbd0" r="134.481"/><path d="M591.224 218.782l64.724 73.452-98.311-28.521z" fill="#8ecbd0"/><circle cx="1518.966" cy="276.193" fill="#edc86b" r="85.466"/><path d="M1463.842 330.275l-59.828 17.078 43.219-48.624z" fill="#edc86b"/><path d="M1658.893 694.695c-36.666 78.275-134.514 109.845-218.532 70.488-83.99-39.342-122.343-134.712-85.677-212.987 10.32-22.033 21.022-36.615 39.375-50.71l.026-.056c.015.041.04-.014.04-.014.272-.075.57-.137.882-.227.027.013.108-.017.149-.031 9.91-2.395 21.538-2.638 29.972-4.04 54.096 2.175 115.02 36.639 162.135 58.675 15.876 7.437 49.7 20.62 58.04 36.884 12.749 24.893 16.471 47.781 22.765 73.59-.001 1.01-.03 2.005-.06 3.002l-.026.055a144.224 144.224 0 0 1-9.09 25.37z" fill="#abb26f"/><path d="M1668.008 669.269l-.026.055c-1.232-2.328-51.798-97.862-90.815-25.133 0 0-15-112.375-91.95-60.444 0 0 25.414-95.296-91.158-82.261l-.204.005a.81.81 0 0 0 .23-.06c.015.04.04-.015.04-.015a2.432 2.432 0 0 0 .882-.227c.027.013.108-.017.149-.031 1.378-.499 2.843-1.396 4.03-1.85a400.772 400.772 0 0 1 15.107-5.582 453.521 453.521 0 0 1 51.906-14.64c13.17-2.888 26.445-4.92 39.812-6.503 12.55-1.493 25.28-3.51 37.883-1.378 13.041 2.203 25.053 7.897 36.68 13.983 16.079 8.441 32.249 17.766 43.747 32.176 9.625 12.084 14.384 26.939 19.674 41.233a477.439 477.439 0 0 1 17.714 57.994c3.744 16.23 6.6 32.988 6.359 49.676-.001 1.01-.03 2.005-.06 3.002z" fill="#e5e2b6"/><path d="M1571.373 500.358a70.05 70.05 0 0 0 8.72 6.059l2.109-1.948 83.429-77.831 83.676 23.577 3.192-9.941-89.715-23.06-89.462 81.366z" fill="#c16c29"/><path d="M1555.804 482.589a65.66 65.66 0 0 0 15.57 17.769 69.505 69.505 0 0 0 38.537 15.414s-12.334-2.237-27.71-11.303a100.902 100.902 0 0 1-8.88-5.89 110.296 110.296 0 0 1-17.517-15.99z" fill="#c5c090"/><path d="M645.361 603.623l-3.344 13.312-331.955-73.83-67.366-202.379 228.863 21.855 47.208 208.202z" fill="#8f9193"/><path d="M644.6 606.193l-128.327-33.291-47.132-207.87-226.708-21.649.525-5.314 231.019 22.06 47.285 208.535 124.859 32.39z" fill="#fff"/><path d="M308.601 538.715l334.383 74.37-.967 3.85-331.675-73.768z" fill="#201d1e" opacity=".5"/><ellipse cx="377.204" cy="461.314" fill="#fff" rx="15.685" ry="27.214" transform="rotate(-11.519 377.204 461.314)"/><path d="M343.467 661.033c.628-.495 1.289-.99 1.95-1.486 7.763-6.144 12.586-12.389 14.106-18.27 0-.065.033-.098.033-.197.694-2.378-.297-3.667-.66-3.833a5.481 5.481 0 0 0-1.52 1.124.485.485 0 0 1-.199.165c-2.642 2.478-4.955 6.97-7.201 11.365a96.807 96.807 0 0 1-5.65 10.01c-.297.33-.561.726-.859 1.122zm-21.506 60.357c7.268 3.668 14.7 5.452 21.77 4.99a27.552 27.552 0 0 0 12.72-3.734c11.133-6.905 8.754-11.695 7.895-13.512-2.577-5.252-9.085-6.012-18.665-6.673a7.92 7.92 0 0 1-7.4-7.929 8.018 8.018 0 0 1 7.532-7.83c8.92-.429 16.188-1.056 22.266-4.921a1.102 1.102 0 0 1 .198-.1c4.494-2.675 7.566-6.772 7.566-8.92 0-.99-1.454-2.048-2.346-2.543-5.087-3.303-13.412-1.62-18.698 2.015-.595.463-1.157.892-1.751 1.354a7.875 7.875 0 0 1-11.926-9.514 70.504 70.504 0 0 1-10.274 10.01 82.6 82.6 0 0 1 .066 6.41 117.32 117.32 0 0 1-8.953 40.897zm-176.81-20.052c-1.288 1.586-4.69 5.748 4.592 14.965a27.473 27.473 0 0 0 11.563 6.509 38.972 38.972 0 0 0 14.9 1.32 52.63 52.63 0 0 0 13.61-3.17c2.049-.76 4.163-1.586 6.244-2.511a13.326 13.326 0 0 1 .496-1.322 152.008 152.008 0 0 0-.033-31.847 64.77 64.77 0 0 1-18.666-22.563 7.878 7.878 0 0 1-13.743 6.573c-.462-.594-.99-1.188-1.453-1.783a22.365 22.365 0 0 0-10.01-6.145 12.482 12.482 0 0 0-7.533-.066c-1.123.397-2.808 1.057-3.072 2.049-.463 2.114 1.586 6.739 5.385 10.406.066.033.099.099.165.132a17.666 17.666 0 0 0 1.652 1.486c4.89 4.13 11.265 6.178 18.93 8.326a7.13 7.13 0 0 1 2.543 1.288 7.814 7.814 0 0 1 3.007 8.028 7.12 7.12 0 0 1-1.652 3.304 7.721 7.721 0 0 1-7.301 2.742c-8.49-1.388-14.57-2.082-18.368 1.023a6.451 6.451 0 0 0-1.256 1.256zm19.888-65.213v.197a24.471 24.471 0 0 0 2.214 9.02 54.758 54.758 0 0 0 7.4 11.992 27.4 27.4 0 0 1 1.585 1.85c-.198-.43-.363-.892-.561-1.322a93.173 93.173 0 0 1-3.27-11c-1.223-4.758-2.412-9.68-4.46-12.654a1.005 1.005 0 0 1-.166-.231 4.26 4.26 0 0 0-1.19-1.354c-.065-.033-.098-.066-.131-.066-.265.066-1.52 1.09-1.42 3.568z" fill="#fff"/><path d="M284.707 672.867c18.465 12.813 42.063-1.497 53.126-17.484 4.853-6.983 7.989-17.052 14.014-22.619 8.4-8.305 18.208.202 15.301 10.469-2.51 9.812-10.91 18.116-18.837 24.033 7.47-6.312 20.523-9.383 29.27-3.798 12.305 7.472 3.754 19.64-5.283 24.993-7.989 5.064-16.933 5.7-26.106 6.14 9.462.613 20.43 1.328 25.19 11.053 5.111 10.368-2.254 18.405-10.793 23.695a35.171 35.171 0 0 1-16.359 4.878c-11.578.742-22.618-3.169-32.192-9.483-8.112-5.35-16.34-11.423-21.618-19.748-4.38-7.392-9.183-20.75-5.273-28.95z" fill="#e82429"/><path d="M163.5 765.232s53.828 5.854 39.202-94.715c-14.626-100.57 122.717-62.044 120.347 9.708-2.37 71.753-79.436 138.824-159.548 85.007z" fill="#fff"/><path d="M169.541 764.958c13.628-1.993 44.7-15.09 33.161-94.44-11.499-79.066 70.926-72.159 105.551-30.727a21.871 21.871 0 0 0-3.3-1.537c-9.674-3.536-11.483 6.534-11.61 13.785-1.177-4.302-5.704-7.985-9.136-10.555-7.719-5.781-18.964-8.363-28.295-5.43a22.779 22.779 0 0 0-13.031 11.916c-4.222 10.124-2.83 23.386-1.306 33.973 2.386 16.594 5.823 33.183 5.03 50.058-.536 11.419-3.178 23.66-9.532 33.335-3.588 5.462-11.273 10.44-17.43 12.264-11.694 3.455-24.652-.922-35.48-5.354a100.924 100.924 0 0 1-14.622-7.288z" fill="#e82429"/><path d="M171.918 766.846c.334-3.456 2.09-6.792 3.532-9.89 1.573-3.386 3.277-6.835 4.008-10.521.595-3.006.873-6.805-1.353-9.266-2.36-2.611-4.601.51-5.41 2.759a28.775 28.775 0 0 0-1.441 9.682c.009 3.302.396 6.59.447 9.893-.054-3.456-1.483-7.152-2.85-10.278-.637-1.459-1.909-4.41-3.846-4.532-3.896-.242-1.097 7.512-.563 8.987a244.062 244.062 0 0 1 3.548 10.586c-1.618-1.308-2.808-3.145-4.248-4.635-1.189-1.23-2.371-3.045-4.194-3.387a1.786 1.786 0 0 0-2.214 2.006c.054 2.903 2.735 4.788 4.941 6.186a55.735 55.735 0 0 0 8.694 4.823z" fill="#e82429"/><path d="M303.28 682.884l-22.256 1.931 12.797 20.234z" fill="#ef6623"/><path d="M201.125 733.9s28.884-8.264 29.804-47.954l-27.277 34.636s-.01 4.165-2.527 13.319z" fill="#ad2126"/><path d="M230.844 683.936c-20.874 8.332-40.649-10.92-47.833-28.985-3.159-7.894-3.949-18.41-8.569-25.19-6.315-9.98-17.789-3.9-17.264 6.76.241 10.124 6.557 20.105 12.951 27.652-5.86-7.83-17.889-13.757-27.667-10.284-13.67 4.514-8.074 18.294-.471 25.543 6.642 6.731 15.216 9.363 24.055 11.854-9.356-1.533-20.206-3.3-27.03 5.1-7.314 8.957-1.942 18.444 5.186 25.52a35.217 35.217 0 0 0 14.844 8.43c11.115 3.328 22.753 2 33.5-2 9.107-3.388 18.491-7.455 25.504-14.38 5.931-6.218 14.637-21.023 12.67-29.891z" fill="#e82429"/><path d="M298.252 674.391a1.65 1.65 0 0 0 1.425-1.182c1.027-3.526 3.719-9.241 6.567-9.549l.025-.002c1.836-.178 4.11 2.044 6.413 6.265a1.648 1.648 0 0 0 2.894-1.58c-3.1-5.686-6.247-8.292-9.617-7.966l-.048.004c-5.97.651-9.066 10.76-9.4 11.912a1.65 1.65 0 0 0 1.125 2.042 1.685 1.685 0 0 0 .616.056zm-14.738.742a1.749 1.749 0 0 0 .418-.096 1.65 1.65 0 0 0 .969-2.12c-2.288-6.11-5.057-9.135-8.473-9.248-5.923-.224-10.463 9.382-10.956 10.474a1.646 1.646 0 0 0 3.002 1.353c1.517-3.351 5.112-8.64 7.849-8.532 1.849.06 3.797 2.586 5.488 7.105a1.654 1.654 0 0 0 1.703 1.064z" fill="#808083"/><path d="M3.77 888.094a2.724 2.724 0 0 0-1.616 1.43 2.748 2.748 0 0 0 3.34 3.77 2.74 2.74 0 1 0-1.724-5.2zm12.319-4.33a2.727 2.727 0 0 0-1.534 1.39 2.692 2.692 0 0 0-.24 1.5 2.834 2.834 0 0 0 .155.637 2.749 2.749 0 0 0 3.532 1.606 2.716 2.716 0 0 0 1.515-1.383l.006-.013a2.734 2.734 0 0 0-3.434-3.736zm12.15-4.768a2.742 2.742 0 1 0 3.51 3.71l.019-.039a2.725 2.725 0 0 0-1.316-3.613 2.732 2.732 0 0 0-2.213-.058zm11.984-5.177a2.748 2.748 0 1 0 2.293.018 2.749 2.749 0 0 0-2.293-.018zm11.81-5.573a2.676 2.676 0 0 0-1.264 1.283 2.738 2.738 0 1 0 1.264-1.283zm11.63-5.954a2.706 2.706 0 0 0-1.182 1.242 2.733 2.733 0 1 0 1.182-1.242zm11.445-6.293a2.685 2.685 0 0 0-1.12 1.21 2.74 2.74 0 1 0 4.956 2.34 2.773 2.773 0 0 0-.088-2.531 2.743 2.743 0 0 0-3.748-1.019zm11.254-6.65a2.778 2.778 0 0 0-1.05 1.164 2.751 2.751 0 0 0 3.91 3.524 2.814 2.814 0 0 0 1.05-1.164 2.733 2.733 0 0 0-.146-2.606 2.697 2.697 0 0 0-1.164-1.051 2.753 2.753 0 0 0-2.6.134zm11.07-6.955a2.684 2.684 0 0 0-.983 1.118 2.744 2.744 0 0 0 3.961 3.484 2.748 2.748 0 0 0-.31-4.782 2.74 2.74 0 0 0-2.669.18zm10.884-7.262a2.774 2.774 0 0 0-.938 1.092 2.741 2.741 0 0 0 4.036 3.425 2.706 2.706 0 0 0 .92-1.085 2.736 2.736 0 0 0-.214-2.731 2.669 2.669 0 0 0-1.084-.92 2.715 2.715 0 0 0-2.72.219zm10.677-7.549a2.807 2.807 0 0 0-.87 1.046 2.738 2.738 0 0 0 4.085 3.387 2.562 2.562 0 0 0 .864-1.033 2.728 2.728 0 0 0-.252-2.782 2.663 2.663 0 0 0-1.058-.876 2.723 2.723 0 0 0-2.77.258zm10.486-7.81a2.679 2.679 0 0 0-.82 1.007 2.747 2.747 0 1 0 4.664-.491 2.677 2.677 0 0 0-1.006-.82 2.725 2.725 0 0 0-2.838.304zm10.31-8.066a2.727 2.727 0 0 0-.427 3.854 2.744 2.744 0 0 0 3.855.427 2.878 2.878 0 0 0 .77-.967 2.723 2.723 0 0 0-.343-2.887 2.727 2.727 0 0 0-3.855-.427zm10.108-8.303a2.672 2.672 0 0 0-.701.922 2.74 2.74 0 1 0 4.567-.584 2.733 2.733 0 0 0-3.866-.338zm9.951-8.533a2.753 2.753 0 0 0-.676.902 2.738 2.738 0 0 0 4.29 3.217 2.67 2.67 0 0 0 .665-.876 2.75 2.75 0 0 0-1.31-3.658 2.708 2.708 0 0 0-2.969.415z" fill="#fff"/><path d="M1799.15 876.73l19.833 36.263a81.492 81.492 0 0 0 32.396 32.396l36.263 19.833-36.263 19.834a81.492 81.492 0 0 0-32.396 32.396l-19.834 36.263-19.833-36.263a81.49 81.49 0 0 0-32.396-32.396l-36.264-19.834 36.264-19.833a81.49 81.49 0 0 0 32.396-32.396zm-233.12 8.22l14.471 26.458a59.458 59.458 0 0 0 23.637 23.637l26.458 14.47-26.458 14.472a59.458 59.458 0 0 0-23.637 23.636l-14.47 26.458-14.472-26.458a59.457 59.457 0 0 0-23.636-23.636l-26.458-14.471 26.458-14.471a59.457 59.457 0 0 0 23.636-23.637zm218.528-198.882l11.605 21.218a47.682 47.682 0 0 0 18.956 18.956l21.218 11.605-21.218 11.605a47.682 47.682 0 0 0-18.956 18.955l-11.605 21.218-11.605-21.218a47.682 47.682 0 0 0-18.955-18.955l-21.219-11.605 21.219-11.605a47.681 47.681 0 0 0 18.955-18.956zM269.527 1001.536l-2.85-1.161c10.27-25.173 11.83-60.845 12.066-70.726a2723.708 2723.708 0 0 1-17.164 9.613c-1.165 3.029-7.978 20.11-21.624 42.54a324.63 324.63 0 0 1-40.824 53.808l-2.239-2.113c36.403-38.584 55.152-79.31 60.41-91.864-15.604 8.627-32.566 17.797-50.107 26.942l-61.96 68.944-2.29-2.06 56.494-62.861c-44.12 22.755-91.122 44.836-128.9 57.436l-.973-2.92c32.799-10.94 72.6-29.066 111.41-48.565-9.35-3.32-38.36-11.773-77.659-5.712l-.47-3.045c44.877-6.92 76.699 4.796 81.865 6.875 19.485-9.85 38.654-19.999 56.491-29.71-9.285-4.178-39.116-17.083-54.837-17.85l.15-3.076c18.037.882 52.385 16.45 58.072 19.08a2654.368 2654.368 0 0 0 33.139-18.422 343.515 343.515 0 0 0-50.22-37.868l1.624-2.616a343.652 343.652 0 0 1 51.404 38.895c5.863-3.322 11.404-6.49 16.563-9.46C277.383 873.899 186.5 865.6 186.5 865.6c10.638 23.209 55.476 50.985 55.476 50.985-25.785-15.824-93.503-2.14-93.503-2.14 10.66 13.254 44.074 28.06 44.074 28.06-43.129-5.164-120.067 29.63-120.067 29.63 20.236 11.361 47.779 14.592 47.779 14.592-26.955 7.797-80.235 50.729-80.235 50.729 32.135 11.556 101.21-20.33 101.21-20.33-11.251 11.935-22.782 39.368-22.782 39.368 29.194-2.11 75.89-38.885 75.89-38.885-8.321 9.844-19.59 36.987-19.59 36.987 55.916-9.066 83.3-65.822 83.3-65.822-4.547 13.237-2.175 42.14-2.175 42.14 58.295-45.382 44.665-104.016 42.351-112.375a2781.696 2781.696 0 0 1-16.372 9.349c-.085 6.325-1.073 46.066-12.329 73.648zm164.576-37.41l-.23-2.265c20.013-2.012 43.868-13.357 50.407-16.628a2015.1 2015.1 0 0 1-12.232-7.886 209.709 209.709 0 0 1-35.298.612 240.16 240.16 0 0 1-49.318-8.031l.605-2.196a238.342 238.342 0 0 0 80.98 7.641 1729.593 1729.593 0 0 1-34.977-23.41l-66.537-16.6.553-2.21 60.667 15.135c-30.165-20.948-60.888-44.014-82.218-64.337l1.571-1.648c18.519 17.644 44.16 37.374 70.358 55.981-1.072-7.261-5.602-29.152-23.185-52.735l1.828-1.363c20.077 26.931 23.45 51.79 23.882 55.887 13.19 9.321 26.468 18.332 38.997 26.624-.488-7.517-2.393-31.487-7.34-42.027l2.062-.968c5.676 12.093 7.406 39.939 7.658 44.567a1964.054 1964.054 0 0 0 23.527 15.274 254.131 254.131 0 0 0 7.343-45.948l2.272.155a254.232 254.232 0 0 1-7.604 47.077c4.204 2.68 8.195 5.204 11.924 7.546 20.448-27.352-5.63-89.628-5.63-89.628-11.48 14.998-14.093 53.93-14.093 53.93 1.405-22.337-31.01-61.853-31.01-61.853-4.968 11.561-3.063 38.531-3.063 38.531-11.574-29.977-60.983-68.202-60.983-68.202-.411 17.164 7.024 36.285 7.024 36.285-14.438-14.915-60.965-34.857-60.965-34.857 3.586 25.008 48.368 59.102 48.368 59.102-11.7-3.216-33.627-1.244-33.627-1.244 11.498 18.349 51.719 36.122 51.719 36.122-9.319-2.027-30.964.016-30.964.016 25.306 33.403 71.892 31.628 71.892 31.628-10.227 1.617-28.295 13.185-28.295 13.185 49.866 22.37 83.463-6.86 88.125-11.27a2060.069 2060.069 0 0 1-11.785-7.46c-4.164 2.136-30.48 15.265-52.408 17.469z" fill="#231f20" opacity=".2"/></svg>