<svg xmlns="http://www.w3.org/2000/svg" viewBox="0 0 256 256"><defs><style>.cls-1{fill:#fff;}.cls-2{fill:#aaa;}</style></defs><title>Mercedes</title><g id="layer1"><g id="g4178"><path id="path9939" class="cls-1" d="M120.52,101.55l6.36-38.11a42.22,42.22,0,0,0-41.43,42.17A44.55,44.55,0,0,0,90.68,126Zm7,12.23L91.44,127.33a42.23,42.23,0,0,0,72.3,0Zm7.08-12.23L164.52,126a43.3,43.3,0,0,0,5.28-20.4c0-23.24-18.43-41.48-41.43-42.22Zm39.66,4.06a46.69,46.69,0,1,1-46.69-46.7,46.86,46.86,0,0,1,46.69,46.7"/><path id="path9941" class="cls-2" d="M33.65,177.51l-.83,18.66c-.08,1.79,1.23,2.16,2.86,2.27v.63c-1.15-.05-2.3-.16-3.45-.16s-2.26.11-3.41.16v-.63c1.63-.11,2.78-.47,2.86-2.27l.87-17.66c.12-1.9-1.23-2.16-2.86-2.21v-.69c1,0,1.95.05,2.94.05a20,20,0,0,0,2.54-.16l6.59,18.61,6.7-18.61.75.11c.6,0,1.23.05,1.87.05,1,0,1.91-.05,2.86-.05v.69c-1.62.05-2.89.37-2.86,2.21l.4,17.66c.08,1.79,1.19,2.16,2.89,2.27v.63L52.9,199c-.87-.05-1.71-.11-2.58-.11s-1.74.05-2.62.11l-1.43.11v-.63c1.67-.11,2.9-.47,2.86-2.27l-.27-18.66-7.46,20.82H41l-7.31-20.82"/><path id="path9949" class="cls-2" d="M73.41,184.83v12.44c0,1.16-1.63,1.21-2.46,1.26v.53c1.19-.05,2.38-.16,3.57-.16s2.38.11,3.57.16v-.53c-1.35-.11-2.5-.26-2.5-1.84v-7c0-2,.32-6,3-6.22.47-.05,1.19.21,1.23.79,0,.32-.16.58-.16.9A1.31,1.31,0,0,0,81,186.36c1,0,1.39-.84,1.39-1.69a2.73,2.73,0,0,0-2.81-2.58,4.3,4.3,0,0,0-4.09,3.22,31.56,31.56,0,0,0-.24-3.43,19.55,19.55,0,0,1-4.24.79v.53c1.43.05,2.46,0,2.46,1.63"/><path id="path9951" class="cls-2" d="M93.25,181.78l-.92,1.74A4.69,4.69,0,0,0,89,182.09c-4.56,0-6.71,4.53-6.71,8.59s1.87,8.7,6.55,8.7c3.34,0,5-2.79,5.32-5.75H92.85c-.4,2.21-1.19,4.64-3.88,4.64-3.77,0-4.17-4.8-4.17-7.59,0-2.64.64-7.75,4.21-7.75,2.5,0,3.69,2.16,4.13,4.27h.67v-5.43h-.55"/><path id="path9953" class="cls-2" d="M108,193.58h1.39c-.52,3.53-2.58,5.8-6.23,5.8-4.68,0-6.55-4.37-6.55-8.43s1.79-8.86,6.55-8.86c4.56,0,6.19,4.11,6.15,8.06H98.72c.08,3.27.52,8.12,4.8,8.12C106.27,198.27,107.62,196,108,193.58Zm-.83-4.64v-.47c-.24-2.48-1-5.48-4.08-5.48-2.9,0-4.08,3.53-4.21,6h8.29"/><path id="path9955" class="cls-2" d="M126.46,198v.47a28.08,28.08,0,0,0-4.17.79,18.79,18.79,0,0,1-.4-3.06,4.84,4.84,0,0,1-4.49,3.06c-4.44,0-6.11-4.9-6.11-8.59s1.71-8.49,6.11-8.49c2.15,0,3.37,1.32,4.36,3.11v-6.8c0-1.63-.95-1.84-2.46-1.84v-.47l.43-.11a22.83,22.83,0,0,0,4.21-.74v20.24C124,197.43,124.6,198,126.46,198Zm-4.69-7.22c0-2.79-.47-7.64-4.21-7.64-3.57,0-3.93,4.85-3.93,7.43s.32,7.75,4,7.75,4.08-4.8,4.08-7.54"/><path id="path9957" class="cls-2" d="M139.68,193.58h1.39a6,6,0,0,1-6.23,5.8c-4.64,0-6.59-4.37-6.59-8.43s1.83-8.86,6.59-8.86c4.6,0,6.19,4.11,6.19,8.06H130.47c0,3.27.55,8.12,4.76,8.12C137.93,198.27,139.4,196,139.68,193.58Zm-.8-4.64c-.24-2.58-.88-6-4.09-6-2.89,0-3.88,3.27-4.2,5.64l0,.32h8.33"/><path id="path9959" class="cls-2" d="M143.92,199.38l.79-1.48a6.5,6.5,0,0,0,4.13,1.37c2.82,0,5.52-1.84,5.52-4.9,0-2.32-1.59-3.48-3.61-4.27l-1.59-.63c-1.43-.53-3.73-1.32-3.73-3.22a3.23,3.23,0,0,1,3.41-3.22c2.46,0,3.45,2,3.69,4.16h.67v-5.32h-.56l-.47,1.32a6.49,6.49,0,0,0-3.42-1c-2.66,0-5.12,1.74-5.12,4.53,0,5.59,8.89,4,8.89,8.17a3.59,3.59,0,0,1-3.77,3.43c-2.89,0-4.16-2.16-4.76-4.69l-.72.05,0,5.69h.6"/><path id="path9961" class="cls-2" d="M155.87,190h6.35v-1.11h-6.35Z"/><path id="path9963" class="cls-2" d="M192.72,193.58h1.39c-.32,3.43-2.74,6-6.27,5.8-4.61-.26-6.55-4.22-6.55-8.43,0-4.06,1.83-8.86,6.55-8.86s6.22,4.11,6.22,8.12H183.48c0,3.22.6,8.06,4.76,8.06C191,198.27,192.33,196,192.72,193.58Zm-.83-4.64c0-2.58-.95-6-4.08-6-2.86,0-3.89,3.32-4.21,5.64l0,.32h8.33"/><path id="path9965" class="cls-2" d="M198.16,184.89v11.86c0,1.58-1.15,1.69-2.54,1.79v.58c1.23-.11,2.42-.21,3.61-.21s2.38.11,3.61.21v-.58c-1.35-.11-2.54-.26-2.54-1.79v-8.38c0-2.48,1.27-4.69,4.09-4.69s3.21,2.37,3.21,4.59v9c0,1.21-1.67,1.21-2.54,1.26v.58c1.19-.11,2.38-.21,3.61-.21s2.42.11,3.65.21v-.58c-1.39-.11-2.54-.21-2.54-1.79v-8.59c0-3.11-1.55-6-5.08-6a5.35,5.35,0,0,0-4.56,2.69v-.42c0-.95-.12-1.79-.24-2.69a19.29,19.29,0,0,1-4.21,1.05v.53c1.39,0,2.46-.05,2.46,1.53"/><path id="path9973" class="cls-2" d="M225.66,199l.83-4.74h-.56c-.79,2.21-1.74,4-4.29,4h-4.72l9.88-15.76H215.54l-.75,4.32h.6c.75-2,1.55-3.48,3.89-3.48h4.52L214,199h11.71"/><path id="path9975" class="cls-2" d="M67.82,193.58h1.39a6,6,0,0,1-6.23,5.8c-4.69,0-6.55-4.32-6.55-8.43s1.78-8.86,6.55-8.86c4.6,0,6.19,4.11,6.19,8.06H58.61c0,3.27.55,8.12,4.76,8.12C66,198.27,67.61,196,67.82,193.58ZM67,188.94c-.16-2.58-.92-6-4.13-6-3,0-3.89,3.53-4.21,6H67"/><path id="path9977" class="cls-2" d="M179,192.32c0,4.22-2.94,6.69-8,6.69h-8.56v-.69c2.35-.16,2.87-.53,2.87-2.32V178.61c0-1.74-.51-2.16-2.87-2.27v-.69h8.81c4.25,0,6.66,2.06,6.66,5.64,0,2.48-1.17,4.16-3.72,5.27A5.58,5.58,0,0,1,179,192.32Zm-8.81-6c3.57,0,5.15-1.53,5.15-4.9s-1.38-4.8-4.47-4.8h-3.28v9.7Zm-2.6,9.75c0,1.63.37,2,2.38,2h1.29c3.25,0,5.21-2.11,5.21-5.53s-1.69-5.22-5.22-5.22h-3.66v8.8"/><path id="path9979" class="cls-2" d="M174.29,105.61a46.69,46.69,0,1,1-46.69-46.7A46.86,46.86,0,0,1,174.29,105.61Zm-57,5.22-.06.11.15-.05,8.94-5.27-1.59-.9Zm40.83,12h.17l-.09-.16L131,104.45,129,105.61ZM127.32,72.93l-.07-.11-.08.11-1.89,30.52,1.68,1Zm28.29-.26.06.16a61.6,61.6,0,0,1,6.19,6.64,42,42,0,0,1,9,26.14,43.77,43.77,0,0,1-5.54,21.08l.48.9-1,.05a43.2,43.2,0,0,1-74.28,0l-1-.05.4-.9a46.29,46.29,0,0,1-4.74-13.23l-.09-.11-.06.16a40.37,40.37,0,0,0,4.49,14.07,42.43,42.43,0,0,0,38.09,22.77,44.85,44.85,0,0,0,44.67-44.75,42.57,42.57,0,0,0-16.52-32.94Zm-28.73-9.22a42.22,42.22,0,0,0-41.43,42.17A44.55,44.55,0,0,0,90.68,126l29.25-24,2.4,1.37L90.37,126.85l-.13.32h.36l36.32-20.45-.07,7.33L91.44,127.33a42.23,42.23,0,0,0,72.3,0L128.35,114l-.09-7.33,36.42,20.45H165l-.15-.26-32-23.51,2.38-1.37,29.27,24a43.3,43.3,0,0,0,5.28-20.4c0-23.24-18.43-41.48-41.43-42.22l6.14,37.37-6.27,3.69-.45-41.75-.18-.21-.17.21L123,102.08l-2.36-1.32Zm-29.1,76.48a48.57,48.57,0,0,1-14.3-34.31A44.2,44.2,0,0,1,127.6,61.49c21.28,0,39.41,15.39,44.73,35.58l.11.05.06-.11a45.68,45.68,0,1,0-74.8,43.06h.13l0-.16"/></g></g></svg>