<svg xmlns="http://www.w3.org/2000/svg" viewBox="0 0 256 256"><defs><style>.cls-1{fill:#aaa;fill-rule:evenodd;}</style></defs><title>MTV</title><path class="cls-1" d="M49.57,186.65V73.17h62L122.77,84.4l10.78-11.23h53.74l10.07,10.07V94.61L202,90.5c2.27-1.73,4.26-2.58,6-2.58a6.53,6.53,0,0,1,5.49,2.81c1.39,1.87,2.08,4.52,2.08,8a8.06,8.06,0,0,1-1.68,4.09,32,32,0,0,1-4,3.95,28.39,28.39,0,0,0-3.69,3.59c-1.21,1.56-2.74,3.43-4.61,5.58s-3.31,3.88-4.35,5.23v56.58l-9.48,8.94H133.55V147.22l-11.23,10.21L112,150.05v27.24l-9.91,9.36Zm52.49-43.53v39.13l6.38-6.24V147.67l-6.38-4.54ZM187.74,136v47l6.38-6.41V126.22L187.74,136Zm0-58.3V107.5l6.53-9.36V84.25l-6.53-6.55Zm-31.33,40.71-1.16,2.13a7.65,7.65,0,0,0-1,3.83,11.85,11.85,0,0,0,1.09,4.82,64.41,64.41,0,0,0,3.71,6.81c1.77,2.86,3.1,5.15,4,6.88a18.93,18.93,0,0,1,1.84,5.18q1.74,13.76,7.38,13.76a7.83,7.83,0,0,0,1.56-.28,2.37,2.37,0,0,0,1.84-.76,4.94,4.94,0,0,0,1-2,17.34,17.34,0,0,0,.52-2.72q.14-1.49.28-3a15.42,15.42,0,0,1,1.8-5,16.32,16.32,0,0,0,1.75-3.95q3.4-6.84,5.3-10c1.25-2.15,3.22-5.23,5.93-9.27a29.54,29.54,0,0,1,2.13-3.74c.61-.83,1.56-2.06,2.86-3.66s2.44-3.12,3.36-4.52a33,33,0,0,1,5.13-5.58,34.47,34.47,0,0,0,5.39-5.89,11.82,11.82,0,0,0,1.7-6.67,4.88,4.88,0,0,0-1.32-3.1A4.33,4.33,0,0,0,208,90.07c-2.2.45-4.89,2.46-8.06,6.05a108.74,108.74,0,0,0-8.72,11.35c-2.62,3.95-5.3,8.13-8,12.51a25.72,25.72,0,0,0-2,5.25,38.16,38.16,0,0,1-2,5.39,14.13,14.13,0,0,0-2.06,3.48,15.71,15.71,0,0,1-2.58,4.07,5.11,5.11,0,0,1-3.88,1.39,12.18,12.18,0,0,1-2.84-5.46c-.66-2.36-1.42-5.6-2.27-9.74s-1.54-6.22-2-6.34a6,6,0,0,0-3.81-1.42,4.15,4.15,0,0,0-3.38,1.82Zm-29.11,0a29.56,29.56,0,0,1-2.91,2.86,36,36,0,0,1-4.14,2.77c-1.87,1.13-3,1.8-3.31,2a6.57,6.57,0,0,0-2,4.82,2.89,2.89,0,0,0,1.56,2.84,4,4,0,0,0,1.7.26c1.8,0,3.88-1.16,6.24-3.52,1.77-1.87,3.45-3.62,5.06-5.23a27.64,27.64,0,0,1,4.94-4.07,15.14,15.14,0,0,1,5.75-2.2q0,.11,1,3.69a23,23,0,0,1,1,5.7c0,3.14.07,6.31.21,9.46s.21,5.08.21,5.84a88.62,88.62,0,0,1-1,10.64,28.72,28.72,0,0,0-.59,4.4,23.78,23.78,0,0,0,1.42,6.81,19.3,19.3,0,0,1,.47,2.91,10.14,10.14,0,0,0,.64,3,1.57,1.57,0,0,0,1.58.95,3.77,3.77,0,0,0,1.56.45c1.44,0,2.6-1.09,3.43-3.24a22.23,22.23,0,0,0,1.25-8,41.32,41.32,0,0,1-1.3-10.07v-5.23c.4-5.93.59-9.76.59-11.51a17.84,17.84,0,0,0-.14-2.84,46.73,46.73,0,0,0-1.09-5.11,23.56,23.56,0,0,1-.9-5.37,10.13,10.13,0,0,1,1.68-5.41q4.29-8.72,20.59-12.32c2.06-1,3.1-2.32,3.1-3.85,0-1.89-1.82-2.84-5.51-2.84a11.82,11.82,0,0,0-4.8.92,36.67,36.67,0,0,0-5.15,2.86,47.74,47.74,0,0,1-5.18,3,12.31,12.31,0,0,1-4.61,1.21c-1.39.07-2.65.12-3.71.19a7.59,7.59,0,0,0-2.86.66,7.47,7.47,0,0,0-2.55,2.2,23.43,23.43,0,0,0-2.79,4.59c-.12.52-1.51,1.35-4.11,2.46a15.9,15.9,0,0,0-5.37,3.36Z"/></svg>