<svg id="Layer_1" data-name="Layer 1" xmlns="http://www.w3.org/2000/svg" viewBox="0 0 348 304"><defs><linearGradient id="linear-gradient" x1="174" y1="55" x2="174" y2="162.28" gradientTransform="matrix(1 0 0 -1 0 306)" gradientUnits="userSpaceOnUse"><stop offset="0" stop-color="#1b528a"/><stop offset=".153" stop-color="#1c5a91"/><stop offset=".392" stop-color="#1e71a4"/><stop offset=".689" stop-color="#2295c4"/><stop offset="1" stop-color="#26c3eb"/></linearGradient><style>.cls-2,.cls-4{fill:#fff}.cls-2{opacity:.22;isolation:isolate}.cls-3{fill:#bbd5d1}.cls-5{fill:#e82429}</style></defs><circle cx="174" cy="129.84" r="106.47" fill="url(#linear-gradient)"/><circle class="cls-2" cx="104.995" cy="62.752" r="6.377"/><circle class="cls-2" cx="258.914" cy="92.617" r="1.686"/><path class="cls-3" transform="rotate(-6.636 210.35 175.923)" d="M209.208 167.933h2.285v15.981h-2.285z"/><path class="cls-3" d="M205.523 146.602l-.62 16.249 6.216-4.764 7.144 3.211-2.182-8.599-5.804-1.843 5.485.58-3.836-15.101-3.836-4.276 3.463 2.8-4.858-19.137-1.114 29.277 3.778-2.036-3.836 3.639z"/><path class="cls-3" transform="rotate(-6.636 226.969 151.56)" d="M226.414 147.676h1.111v7.769h-1.111z"/><path class="cls-3" d="M223.857 143.132l-.308 8.126 3.108-2.383 3.571 1.606-1.093-4.299-2.899-.923 2.742.291-1.92-7.551-1.916-2.138 1.73 1.403-2.427-9.571-.557 14.637 1.889-1.015-1.92 1.817z"/><path class="cls-4" d="M148.248 169.915l-26.905-31.078-5.005-29.845 14.73-29.989 1.282-36.895 17.379 13.671 34.312 27.04 27.59-12.564 25.163-4.979 8.303 6.694-14.832 27.352-2.386 14.607-8.245 45.899-37.207 16.064-34.179-5.977z"/><path class="cls-5" d="M246.605 78.005c2.525-6.866 2.355-10.092 2.355-10.092a45.779 45.779 0 00-21.459-3.45 75.8 75.8 0 00-25.817 6.687c-.31.142-.545.259-.708.339l-.247.123c-.1-.111-.196-.228-.297-.333a35.557 35.557 0 00-23.702-11.95 22.123 22.123 0 00-2.954-.062c5.649 1.517 10.327 6.824 10.47 6.99a114.21 114.21 0 00-21.964-5.648 24.013 24.013 0 00-.829-1.833 24.783 24.783 0 00-4.021-5.787 29.53 29.53 0 00-6.949-5.572 42.372 42.372 0 00-18.114-5.297h-.006c-.006 0-.006 0-.012-.005h-.005a60.754 60.754 0 00-3.902-.2 82.38 82.38 0 00-1.953 10.003c-.792 5.966-1.103 13.429.978 18.924-7.975 3.178-8.815 6.125-8.815 6.125l8.04-1.467-.096.351-4.931 17.788a32.38 32.38 0 00-16.658 9.013c1.878-1.024 7.89-.24 7.89-.24-15.164 7.494-18.445 21.021-18.544 21.442a8.808 8.808 0 016.01-3.339c-10.454 17.911 2.378 25.665 2.64 25.821-.488-1.056-.054-6.307-.054-6.307 2.51 14.839 13.95 26.74 14.31 27.105-.675-1.85-1.373-10.922-1.373-10.922 1.76 10.063 12.386 18.55 12.72 18.813-1.262-1.48-2.442-10.456-2.442-10.456a39.016 39.016 0 0012.452 15.053c.229.163.457.327.69.473a20.194 20.194 0 003.41 1.828c.556.226 1.1.447 1.639.651l-.095.06c.201.05.397.095.599.151.564.14 1.124.298 1.678.467h.006a36.227 36.227 0 015.395 2.114c-3.248-1.606-4.918-2.336-5.457-2.574h-.006a1.315 1.315 0 01-.162-.075c.052.016.11.037.161.052a30.541 30.541 0 005.848 1.316c.464.052.912.11 1.348.175.769.11 1.492.234 2.193.352h.006a26.895 26.895 0 005.484.557h.006a14.414 14.414 0 002.162-.23l.244-.042q2.908-.59 5.808-1.127h.005a57.19 57.19 0 011.674-.31h.006a443.565 443.565 0 0113.71-2.292h.012c1.3-.2 2.613-.394 3.925-.583a75.263 75.263 0 003.912-.655c7.039-1.364 12.097-3.368 19.236-5.632 1.754-.278 3.515-.556 5.27-.828a122.955 122.955 0 019.637-6.445c.549-.316 1.122-.587 1.678-.87a94.037 94.037 0 004.325-10.251c.755 2.172.082 5.622-.899 8.79a26.174 26.174 0 014.406-1.055 1.375 1.375 0 01.098-.152 9.886 9.886 0 011.407-1.562l-.556.27c3.017-7.51 3.189-16.356 3.187-18.366.002-.268-.003-.416-.003-.416a3.908 3.908 0 01.306.429 2.849 2.849 0 01.244.425c0 .006.005.006.006.011 2.172 4.179 1.104 13.524 1.104 13.524 10.903-16.008-6.497-40.837-6.905-41.41 4.913 3.186 12.182 15.644 12.182 15.644-2.272-13.106-16.826-25.716-16.826-25.716a187.265 187.265 0 005.846-8.717 106.144 106.144 0 0010.043-19.598zM132.78 58.203l-.001-.028a60.779 60.779 0 011.499-8.292c.11-.427.177-.658.177-.658.55.078 1.096.168 1.625.28 12.834 2.535 19.752 12.801 17.649 13.406-2.855.83-8.368 4.054-12.616 6.697-3.259 2.015-5.77 3.7-5.77 3.7a9.994 9.994 0 01-.848-1.243 13.35 13.35 0 01-1.45-3.935V68.112a32.447 32.447 0 01-.265-9.909zm51.878 58.633c-2.696 12.645-13.819 18.73-24.283 16.502-10.459-2.223-16.3-11.916-13.611-24.566 2.69-12.645 15.072-29.155 25.536-26.915s15.053 22.334 12.357 34.979zm27.222-38.709s.447-.255 1.244-.665c4.124-2.102 17.591-8.264 26.94-3.986 0 0-3.512 10.36-9.517 17.49a23.71 23.71 0 01-4.417 4.162s-5.975-10.733-14.25-17z"/><path class="cls-5" d="M224.308 143.197c-.62.052-27.32 23.968-27.32 23.968l-57.694 12.937c28.754 19.354 69.577-.112 69.577-.112a37.359 37.359 0 01-14.836 10.989c31.458-4.31 37.776-25.279 37.776-25.279-.447 5.165-5.154 16.182-5.154 16.182 13.643-11.076 14.523-38.027 14.523-38.027s-16.251-.71-16.872-.658z"/><path class="cls-4" d="M188.004 159.729c20.052-10.626 25.43-35.514 25.481-35.763q.008-.032.014-.065a.706.706 0 00-1.394-.223v.001c-.05.242-5.29 24.484-24.75 34.805-12.51 6.632-28.132 6.173-46.427-1.362a.703.703 0 00-.522 1.3c17.123 7.052 32.005 8.015 44.295 2.88q1.696-.71 3.303-1.573z"/><path class="cls-4" d="M221.286 129.378c-5.312-18.299-15.905-8.309-15.905-8.309 12.178-14.459 15.837 5.231 15.837 5.231zM124.555 122.467c.885 5.353 4.932 11.62 4.932 11.62s19.9-4.674 11.642-8.681c-8.256-4.022-17.46-8.293-16.574-2.94zM187.365 57.07a29.569 29.569 0 0112.11 9.33c1.432 1.996 2.624 4.394 2.238 6.82s-2.987 4.565-5.271 3.664a6.112 6.112 0 01-1.915-1.397 57.401 57.401 0 01-6.973-8.116c1.743 2.906-1 7.113-4.389 7.173s-6.218-3.343-6.11-6.73a8.557 8.557 0 01-7.33 6.429c-5.375.658-12.204-3.756-11.632-9.677.53-5.488 7.19-8.812 11.96-9.787 5.795-1.185 11.95-.053 17.312 2.291z"/><circle class="cls-4" cx="190.877" cy="81.114" r="2.584"/><circle class="cls-4" cx="203.109" cy="83.504" r=".965"/><ellipse class="cls-5" cx="173.089" cy="119.96" rx="7.07" ry="4.758" transform="rotate(-78.502 173.089 119.96)"/><ellipse class="cls-4" cx="136.551" cy="109.824" rx="6.777" ry="4.561" transform="rotate(-78.502 136.55 109.824)"/><circle class="cls-4" cx="208.292" cy="41.914" r="4.615"/><circle class="cls-4" cx="91.569" cy="89.832" r="2.785"/><circle class="cls-4" cx="116.1" cy="202.33" r="1.9"/><circle class="cls-4" cx="250.015" cy="108.772" r="1.052"/><circle class="cls-4" cx="251.425" cy="188.184" r="2.795"/><circle class="cls-4" cx="163.506" cy="39.657" r="2.257"/><path d="M335.075 272.106a12 12 0 00-3.12-5l-.14-.14a7 7 0 001.9-1.7 8.89 8.89 0 001.81-5.46 13.36 13.36 0 00-1.12-5.17 14 14 0 00-3.64-4.95 18.37 18.37 0 00-5.86-3.37 23.64 23.64 0 00-8.18-1.26 27 27 0 00-6.67.8 17.06 17.06 0 00-6.13 2.91 14.27 14.27 0 00-2.93 3 16.711 16.711 0 00-2-2 19.51 19.51 0 00-6.83-3.59 25.691 25.691 0 00-4.64-.95h7.64a7.45 7.45 0 006.68-3.35 11 11 0 001.41-6c0-3.14-.49-5.26-1.58-6.88a7.78 7.78 0 00-6.81-3.24h-18.93v-.77h17.55a7.29 7.29 0 006.59-3.35 10.47 10.47 0 001.35-5.64 9.84 9.84 0 00-1.87-6.38 7.77 7.77 0 00-6.3-2.68h-16.9v-3.21h3.51c1.28 0 2.64 0 4 .08s2.92.07 4.28.07h4.86a8.49 8.49 0 007-3 10.43 10.43 0 002-6.74c0-2-.21-4.86-2-7a8.09 8.09 0 00-6.29-2.74h-3.55l-6.79-.11q-4-.08-9-.12h-10c-1.21 0-4.9 0-7.12 2.8a8.152 8.152 0 00-.8 1.26 7.18 7.18 0 00-1.53-1.73 9.22 9.22 0 00-6-1.95h-2a8.77 8.77 0 00-6.62 2.48 8.56 8.56 0 00-2.3 6.13c0 1.05 0 1.89.05 2.52s0 1.27.07 2.14.05 2.13.07 3.7v5.7c-.18-.29-.35-.58-.53-.86l-3.78-6.21c-1.2-2-2.26-3.72-3.18-5.18-1.1-1.74-1.5-2.44-1.64-2.7l-.1-.18c-.51-.83-1-1.63-1.54-2.38a13.28 13.28 0 00-2.47-2.7 11.52 11.52 0 00-3.63-2 14.14 14.14 0 00-4.63-.69c-4.14 0-7.19 1.25-9.06 3.71q-.25.33-.48.69a7.55 7.55 0 00-1.24-1.91 8.3 8.3 0 00-6.53-2.64h-2.86c-5.6 0-9.22 3.41-9.22 8.69v8.58q0 5.86-.07 16.12-.07 5.16-.11 8.58a9.33 9.33 0 00-2.2-.26h-13.5v-7.46c0-2.38 0-4.93.08-7.59s.07-5.41.07-7.84v-9.9c0-4.16-1.83-6.3-3.37-7.36-1.72-1.18-4-1.71-7.5-1.71s-5.93.64-7.67 2a7.55 7.55 0 00-1.77 2 7.451 7.451 0 00-1.37-1.49 9.22 9.22 0 00-6-1.95h-2a8.77 8.77 0 00-6.62 2.48 8.56 8.56 0 00-2.3 6.13v2.51c0 .62 0 1.28.07 2.15s.05 2.12.07 3.7v5.7c-.17-.29-.35-.58-.53-.86l-3.78-6.21c-1.2-2-2.26-3.72-3.18-5.18-1.1-1.75-1.5-2.44-1.64-2.69 0-.07-.07-.13-.1-.19-.51-.83-1-1.63-1.54-2.38a13.8 13.8 0 00-2.46-2.7 11.68 11.68 0 00-3.64-2 14.14 14.14 0 00-4.63-.69c-4.14 0-7.19 1.25-9.06 3.71a12.8 12.8 0 00-2.34 7.92v1.66a25.38 25.38 0 00-13.82-12.14 34.16 34.16 0 00-12.07-2.05 41.48 41.48 0 00-8.36.78 27.069 27.069 0 00-7.29 2.6 24.06 24.06 0 00-6 4.55 34.86 34.86 0 00-4.56 6 27.27 27.27 0 00-3.54 8.57 40.399 40.399 0 00-.9 8.6 39.45 39.45 0 001.82 12.1 30 30 0 005.65 10.33 26.72 26.72 0 009.6 7.12 28.81 28.81 0 008.07 2.23 18.998 18.998 0 00-2.88 1.23 17.8 17.8 0 00-3.57 2.51 6.87 6.87 0 00-2.11-2.9 8.94 8.94 0 00-5.79-1.7 10 10 0 00-6.12 1.66 8.1 8.1 0 00-3.09 5v.16a9.17 9.17 0 01-.23 1.26 16.088 16.088 0 00-.65-2.32 8.34 8.34 0 00-2-3.11 7.88 7.88 0 00-3.45-2 12.3 12.3 0 00-3.45-.44 9.15 9.15 0 00-6.53 2.34 10.78 10.78 0 00-2.9 6.35v.12c-.28-1.24-.49-2.11-.65-2.66a8.17 8.17 0 00-2.91-4.75 9.24 9.24 0 00-5.56-1.53 10.42 10.42 0 00-5.44 1.19 6.56 6.56 0 00-3.3 5.75 12 12 0 00.21 2.17c.11.59.3 1.4.59 2.56s.63 2.44 1.1 4.22 1.08 4.11 1.84 7q.93 3.57 1.55 6l1 4.06.66 2.65c.18.74.36 1.43.54 2.08a13.16 13.16 0 001.18 3.2 8.21 8.21 0 006 4.24 16.928 16.928 0 002.69.19c3.11 0 5.48-.75 7.25-2.3a10.36 10.36 0 003-5 9.49 9.49 0 003 5.17c1.62 1.38 3.86 2 6.83 2a19.27 19.27 0 003-.19 8.29 8.29 0 003.31-1.21 7.13 7.13 0 002.64-3.13 20.816 20.816 0 00.73-2.06 1.602 1.602 0 00.05-.21l.39-1.55c.12-.47.27-1.07.47-1.82s.37-1.36.61-2.27a21.94 21.94 0 003.64 6.16 19.94 19.94 0 007.17 5.33 23.35 23.35 0 009.59 1.89 23.71 23.71 0 0010.07-2 20.22 20.22 0 006.47-4.72 2.881 2.881 0 00.14.71 6.55 6.55 0 002.21 3.35 7.73 7.73 0 003.28 1.53 12.68 12.68 0 002.68.26h.81a14.24 14.24 0 005-.95 6.58 6.58 0 004-6.22v-3a22.1 22.1 0 001.4 3.51 13.23 13.23 0 003 3.88 10.91 10.91 0 004.48 2.35 18.218 18.218 0 004.47.52 10.68 10.68 0 005.57-1.28 9.42 9.42 0 004.7 1.07h2c2.75 0 4.81-.88 6.13-2.62a7.81 7.81 0 001.52-4.87v-3.09a17 17 0 004.51 7.65 13.27 13.27 0 009.24 3.3c2.92 0 5.09-.67 6.63-2a8.128 8.128 0 001-1.11 22.421 22.421 0 004.82 2.44 24.12 24.12 0 008.27 1.32 27.221 27.221 0 007.63-1 18.94 18.94 0 006-2.9c.31-.24.6-.49.88-.74a6.8 6.8 0 001.78 2 9 9 0 005.6 1.59 11.27 11.27 0 005.26-1 6.74 6.74 0 003.71-6.06v-6.41h4.42v6.41a6.9 6.9 0 002.64 5.5 9.19 9.19 0 005.84 1.68 11.25 11.25 0 004.89-.95 6.67 6.67 0 003.8-5.71c.12.14.22.29.33.43a19.94 19.94 0 007.17 5.33 23.38 23.38 0 009.59 1.89 23.71 23.71 0 0010.07-2 20 20 0 006.72-5 7.25 7.25 0 002.37 4.08c2 1.72 4.67 1.92 6.52 1.92a9.69 9.69 0 006.09-1.7 7.16 7.16 0 002.85-5.84v-5h1.9a23.44 23.44 0 0011.4-2.55 10.417 10.417 0 00-.06 1.13 12.1 12.1 0 001.42 5.45 15 15 0 004 4.83 20.719 20.719 0 006 3.31 24 24 0 008.26 1.32 27.34 27.34 0 007.64-1 18.83 18.83 0 006-2.9 13.42 13.42 0 004.13-5 13.75 13.75 0 001.34-6 16.67 16.67 0 00-.74-4.7z" style="isolation:isolate" opacity=".1"/><path class="cls-4" d="M339.075 269.106a12 12 0 00-3.12-5l-.14-.14a7 7 0 001.9-1.7 8.89 8.89 0 001.81-5.46 13.36 13.36 0 00-1.12-5.17 14 14 0 00-3.64-4.95 18.37 18.37 0 00-5.86-3.37 23.64 23.64 0 00-8.18-1.26 27 27 0 00-6.67.8 17.06 17.06 0 00-6.13 2.91 14.27 14.27 0 00-2.93 3 16.711 16.711 0 00-2-2 19.51 19.51 0 00-6.83-3.59 25.691 25.691 0 00-4.64-.95h7.64a7.45 7.45 0 006.68-3.35 11 11 0 001.41-6c0-3.14-.49-5.26-1.58-6.88a7.78 7.78 0 00-6.81-3.24h-18.93v-.77h17.55a7.29 7.29 0 006.59-3.35 10.47 10.47 0 001.35-5.64 9.84 9.84 0 00-1.87-6.38 7.77 7.77 0 00-6.3-2.68h-16.9v-3.21h3.51c1.28 0 2.64 0 4 .08s2.92.07 4.28.07h4.86a8.49 8.49 0 007-3 10.37 10.37 0 002-6.74c0-2-.21-4.86-2-7a8.09 8.09 0 00-6.29-2.74h-3.55l-6.79-.11q-4-.08-9-.12h-10c-1.21 0-4.9 0-7.12 2.8a8.152 8.152 0 00-.8 1.26 7.18 7.18 0 00-1.53-1.73 9.22 9.22 0 00-6-1.95h-2a8.77 8.77 0 00-6.62 2.48 8.56 8.56 0 00-2.3 6.13c0 1.05 0 1.89.05 2.52s0 1.27.07 2.14.05 2.13.07 3.7v5.7c-.18-.29-.35-.58-.53-.86l-3.78-6.21c-1.2-2-2.26-3.72-3.18-5.18-1.1-1.74-1.5-2.44-1.64-2.7l-.1-.18c-.51-.83-1-1.63-1.54-2.38a13.28 13.28 0 00-2.47-2.7 11.52 11.52 0 00-3.63-2 14.14 14.14 0 00-4.63-.69c-4.14 0-7.19 1.25-9.06 3.71q-.25.33-.48.69a7.55 7.55 0 00-1.24-1.91 8.3 8.3 0 00-6.53-2.64h-2.86c-5.6 0-9.22 3.41-9.22 8.69v8.58q0 5.86-.07 16.12-.07 5.16-.11 8.58a9.33 9.33 0 00-2.2-.26h-13.5v-7.46c0-2.38 0-4.93.08-7.59s.07-5.41.07-7.84v-9.9c0-4.16-1.83-6.3-3.37-7.36-1.72-1.18-4-1.71-7.5-1.71s-5.93.64-7.67 2a7.55 7.55 0 00-1.77 2 7.45 7.45 0 00-1.37-1.49 9.22 9.22 0 00-6-1.95h-2a8.77 8.77 0 00-6.62 2.48 8.56 8.56 0 00-2.3 6.13v2.51c0 .62 0 1.28.07 2.15s.05 2.12.07 3.7v5.7c-.17-.29-.35-.58-.53-.86l-3.78-6.21c-1.2-2-2.26-3.72-3.18-5.18-1.1-1.75-1.5-2.44-1.64-2.69 0-.07-.07-.13-.1-.19-.51-.83-1-1.63-1.54-2.38a13.8 13.8 0 00-2.46-2.7 11.68 11.68 0 00-3.64-2 14.14 14.14 0 00-4.63-.69c-4.14 0-7.19 1.25-9.06 3.71a12.8 12.8 0 00-2.34 7.92v1.66a25.38 25.38 0 00-13.82-12.14 34.16 34.16 0 00-12.07-2.05 41.48 41.48 0 00-8.36.78 27.069 27.069 0 00-7.29 2.6 24.06 24.06 0 00-6 4.55 34.86 34.86 0 00-4.56 6 27.27 27.27 0 00-3.54 8.57 40.399 40.399 0 00-.9 8.6 39.45 39.45 0 001.82 12.1 30 30 0 005.65 10.33 26.72 26.72 0 009.6 7.12 28.81 28.81 0 008.07 2.23 18.998 18.998 0 00-2.88 1.23 17.8 17.8 0 00-3.57 2.51 6.87 6.87 0 00-2.11-2.9 8.92 8.92 0 00-5.79-1.7 10 10 0 00-6.12 1.66 8.1 8.1 0 00-3.09 5v.16a9.168 9.168 0 01-.23 1.26 16.088 16.088 0 00-.65-2.32 8.34 8.34 0 00-2-3.11 7.88 7.88 0 00-3.45-2 12.3 12.3 0 00-3.45-.44 9.15 9.15 0 00-6.53 2.34 10.78 10.78 0 00-2.9 6.35v.12c-.28-1.24-.49-2.11-.65-2.66a8.17 8.17 0 00-2.91-4.75 9.24 9.24 0 00-5.56-1.53 10.42 10.42 0 00-5.44 1.19 6.56 6.56 0 00-3.3 5.75 11.997 11.997 0 00.21 2.17c.11.59.3 1.4.59 2.56s.63 2.44 1.1 4.22 1.08 4.11 1.84 7q.93 3.57 1.55 6l1 4.06.66 2.65c.18.74.36 1.43.54 2.08a13.16 13.16 0 001.18 3.2 8.21 8.21 0 006 4.24 16.928 16.928 0 002.69.19c3.11 0 5.48-.75 7.25-2.3a10.36 10.36 0 003-5 9.49 9.49 0 003 5.17c1.62 1.38 3.86 2 6.83 2a19.27 19.27 0 003-.19 8.29 8.29 0 003.31-1.21 7.13 7.13 0 002.64-3.13 18.526 18.526 0 00.73-2.06 1.597 1.597 0 00.05-.21l.39-1.55c.12-.47.27-1.07.47-1.82s.37-1.36.61-2.27a21.94 21.94 0 003.64 6.16 19.94 19.94 0 007.17 5.33 23.35 23.35 0 009.59 1.89 23.71 23.71 0 0010.07-2 20.22 20.22 0 006.47-4.72 2.881 2.881 0 00.14.71 6.55 6.55 0 002.21 3.35 7.73 7.73 0 003.28 1.53 12.68 12.68 0 002.68.26h.81a14.24 14.24 0 005-.95 6.58 6.58 0 004-6.22v-3a22.1 22.1 0 001.4 3.51 13.23 13.23 0 003 3.88 10.91 10.91 0 004.48 2.35 18.218 18.218 0 004.47.52 10.68 10.68 0 005.57-1.28 9.42 9.42 0 004.7 1.07h2c2.75 0 4.81-.88 6.13-2.62a7.81 7.81 0 001.52-4.87v-3.09a17 17 0 004.51 7.65 13.27 13.27 0 009.24 3.3c2.92 0 5.09-.67 6.63-2a8.128 8.128 0 001-1.11 22.421 22.421 0 004.82 2.44 24.12 24.12 0 008.27 1.32 27.221 27.221 0 007.63-1 18.94 18.94 0 006-2.9c.31-.24.6-.49.88-.74a6.8 6.8 0 001.78 2 9 9 0 005.6 1.59 11.27 11.27 0 005.26-1 6.74 6.74 0 003.71-6.06v-6.41h4.42v6.41a6.9 6.9 0 002.64 5.5 9.19 9.19 0 005.84 1.68 11.25 11.25 0 004.89-.95 6.67 6.67 0 003.8-5.71c.12.14.22.29.33.43a19.94 19.94 0 007.17 5.33 23.38 23.38 0 009.59 1.89 23.71 23.71 0 0010.07-2 20 20 0 006.72-5 7.25 7.25 0 002.37 4.08c2 1.72 4.67 1.92 6.52 1.92a9.69 9.69 0 006.09-1.7 7.16 7.16 0 002.85-5.84v-5h1.9a23.44 23.44 0 0011.4-2.55 10.417 10.417 0 00-.06 1.13 12.1 12.1 0 001.42 5.45 15 15 0 004 4.83 20.719 20.719 0 006 3.31 24 24 0 008.26 1.32 27.34 27.34 0 007.64-1 18.83 18.83 0 006-2.9 13.42 13.42 0 004.13-5 13.75 13.75 0 001.34-6 16.67 16.67 0 00-.74-4.7z"/><path class="cls-5" d="M77.955 238.726a26.51 26.51 0 01-11-2.11 21.62 21.62 0 01-7.83-5.8 24.83 24.83 0 01-4.7-8.62 34.21 34.21 0 01-1.58-10.57 35 35 0 01.79-7.53 22.11 22.11 0 012.89-7 29.62 29.62 0 013.92-5.12 18.92 18.92 0 014.78-3.61 21.61 21.61 0 015.95-2.11 36.45 36.45 0 017.34-.68 29.14 29.14 0 0110.31 1.73 20.79 20.79 0 017.79 5.08 22.39 22.39 0 014.9 8.25 34.69 34.69 0 011.69 11.29 35.54 35.54 0 01-1.43 10.05 24.26 24.26 0 01-4.48 8.58 21.68 21.68 0 01-7.81 5.93 27.31 27.31 0 01-11.53 2.24zm.46-9.64q7 0 10.42-4.55t3.43-12.39a23.21 23.21 0 00-.83-6.21 15.29 15.29 0 00-2.56-5.23 12.74 12.74 0 00-4.37-3.61 13.21 13.21 0 00-6.17-1.36 14.54 14.54 0 00-6.25 1.28 10.88 10.88 0 00-4.36 3.69 20.003 20.003 0 00-1.21 2 14.108 14.108 0 00-.94 2.26 16.552 16.552 0 00-.64 3.05 34.16 34.16 0 00-.23 4.25q0 8.13 3.58 12.5t10.13 4.32zM113.265 237.296a3.93 3.93 0 01-2.78-1 3.31 3.31 0 01-1.06-2.56v-40.65a8 8 0 011.32-4.9q1.32-1.73 5.08-1.73a9.25 9.25 0 013 .42 6.45 6.45 0 012.07 1.13 8.38 8.38 0 011.55 1.69c.45.65.9 1.36 1.35 2.11.3.55.9 1.54 1.81 3s1.94 3.13 3.12 5.08 2.45 4 3.8 6.25 2.64 4.37 3.84 6.48l2.71 4.66c.7 1.21 1.24 2.15 1.62 2.83a12.235 12.235 0 00.87 1.39c.2.25.37.38.52.38.35 0 .53-.31.53-.91s0-2.37-.15-5.16-.15-6.2-.15-10.27v-6.93c0-1.6-.05-2.86-.07-3.76s0-1.64-.08-2.22a21.72 21.72 0 010-2.3 3.72 3.72 0 01.91-2.67 4 4 0 013-.94h2a4.33 4.33 0 012.82.83 3.49 3.49 0 011 2.86v40a7.59 7.59 0 01-1.51 5.08q-1.5 1.77-5.64 1.77a7.36 7.36 0 01-5.12-1.7 17.71 17.71 0 01-3.46-4.4c-.41-.65-1.08-1.78-2-3.39l-3.21-5.28-3.5-6q-1.77-3-3-5.19-1.74-3.09-2.67-5c-.63-1.26-1.11-2.22-1.43-2.9a14.5 14.5 0 00-.72-1.36.65.65 0 00-.53-.33c-.25 0-.37.25-.37.75s0 2.11.11 4.67.11 5.79.11 9.71v16.89a3 3 0 01-1.17 2.76 5.74 5.74 0 01-3.16.83zM188.995 228.036a3.66 3.66 0 012.49.86c.65.58 1 1.88 1 3.88a10.61 10.61 0 01-.27 2.71 2.76 2.76 0 01-.79 1.43 2.49 2.49 0 01-1.24.57 11.768 11.768 0 01-1.69.11h-25.01a4.73 4.73 0 01-3.46-1.06 4.52 4.52 0 01-1.05-3.31c0-.45 0-1.55.07-3.31s.09-3.76.11-6 .07-4.61.12-7 .07-4.55.07-6.36v-5.91c0-2.13-.06-4.18-.11-6.14s-.09-3.68-.11-5.19 0-2.56 0-3.16a3.53 3.53 0 011.21-3c.8-.62 2.33-.94 4.59-.94s3.86.28 4.67.83 1.2 1.63 1.2 3.24v9.9c0 2.44 0 5-.07 7.75s-.08 5.3-.08 7.68v9.37a3.82 3.82 0 00.56 2.52c.38.38 1.32.57 2.83.57zM199.915 237.216a3.68 3.68 0 01-3.05-1.09 4.39 4.39 0 01-.87-2.82v-1.13c0-.6 0-1.58.08-2.94s.05-3.2.07-5.53.06-5.31.12-8.92q.06-10.32.07-16.19v-8.58c0-2.46 1.4-3.69 4.22-3.69h2.93a3.57 3.57 0 012.78.94 4.07 4.07 0 01.83 2.75v42.91a4.44 4.44 0 01-1 3.31 4 4 0 01-2.9 1zM218.205 237.296a3.93 3.93 0 01-2.78-1 3.31 3.31 0 01-1.06-2.56v-40.65a8 8 0 011.32-4.9q1.32-1.73 5.08-1.73a9.25 9.25 0 013 .42 6.45 6.45 0 012.07 1.13 8.06 8.06 0 011.54 1.69c.46.65.91 1.36 1.36 2.11.3.55.9 1.54 1.81 3s1.94 3.13 3.12 5.08 2.45 4 3.8 6.25 2.64 4.37 3.84 6.48l2.71 4.66c.7 1.21 1.24 2.15 1.62 2.83a12.236 12.236 0 00.85 1.38c.2.25.37.38.52.38.35 0 .53-.31.53-.91s-.05-2.37-.15-5.16-.15-6.2-.15-10.27v-6.93c0-1.6-.05-2.86-.07-3.76s-.05-1.64-.08-2.22 0-1.34 0-2.3a3.68 3.68 0 01.91-2.67 4 4 0 013-.94h2a4.35 4.35 0 012.82.83 3.49 3.49 0 011 2.86v40a7.59 7.59 0 01-1.51 5.08q-1.5 1.77-5.64 1.77a7.36 7.36 0 01-5.12-1.7 17.71 17.71 0 01-3.46-4.4c-.41-.65-1.08-1.78-2-3.39l-3.19-5.27-3.5-6q-1.77-3-3-5.19-1.74-3.09-2.67-5c-.63-1.26-1.11-2.22-1.43-2.9a14.496 14.496 0 00-.72-1.36.65.65 0 00-.53-.33c-.25 0-.37.25-.37.75s0 2.11.11 4.67.11 5.79.11 9.71v16.89a3 3 0 01-1.28 2.71 5.74 5.74 0 01-3.16.83zM276.775 217.116a1.48 1.48 0 00-1.39.57 2.44 2.44 0 00-.34 1.31v5.8a2.77 2.77 0 00.94 2.49 5.34 5.34 0 002.83.6h20.05a3 3 0 012.67 1.06 7.86 7.86 0 01.72 4.06 6.63 6.63 0 01-.64 3.35 2.67 2.67 0 01-2.45 1h-31.24a6.18 6.18 0 01-1.88-.23 2.27 2.27 0 01-1.06-.68 2.2 2.2 0 01-.48-1 6.55 6.55 0 01-.12-1.28v-3.42c0-1.83 0-3.94.08-6.33s0-4.82.07-7.3 0-4.63 0-6.44v-20.7a4.21 4.21 0 01.71-2.63c.48-.61 1.55-.91 3.2-.91h9.94c3.26 0 6.24.06 8.92.11l6.81.12h3.62a3.07 3.07 0 012.48 1c.55.66.83 1.91.83 3.77a5.8 5.8 0 01-.9 3.61 3.77 3.77 0 01-3.09 1.13h-4.86c-1.24 0-2.64 0-4.1-.07s-2.86-.08-4.21-.08h-6.03a2.19 2.19 0 00-2.48 2.48v8.28a3 3 0 00.49 1.89 2.51 2.51 0 002 .6h19.43a3 3 0 012.44.86 5.21 5.21 0 01.72 3.2 5.77 5.77 0 01-.61 3 2.49 2.49 0 01-2.33 1zM50.855 267.726a15.149 15.149 0 01.31-1.72c.17-.87.38-1.87.62-3l.78-3.74q.42-2 .78-3.78c.24-1.2.46-2.27.65-3.22s.32-1.63.39-2.05a3.11 3.11 0 011.16-2 5.46 5.46 0 013.14-.67 4.35 4.35 0 012.62.57 1.69 1.69 0 01.7 1.35 6.9 6.9 0 01-.23 1.81c-.16.56-.29 1.07-.39 1.56s-.36 1.36-.55 2.2-.43 1.88-.72 3.09-.65 2.63-1.07 4.25-.9 3.53-1.45 5.71-1 3.91-1.35 5.19-.62 2.31-.83 3.09-.37 1.4-.49 1.89l-.39 1.56a11.069 11.069 0 01-.52 1.47 2.06 2.06 0 01-.78.94 3.35 3.35 0 01-1.34.46 14.787 14.787 0 01-2.24.13 5.68 5.68 0 01-3.6-.85 5.08 5.08 0 01-1.43-3c-.21-1.08-.47-2.39-.8-3.95s-.68-3.19-1-4.9-.72-3.42-1.06-5.14-.64-3.24-.89-4.59a10.789 10.789 0 00-.54-2.31.73.73 0 00-.65-.49.53.53 0 00-.44.29 3.74 3.74 0 00-.34 1.11q-.57 3.27-1.14 6.46c-.38 2.13-.74 4.07-1.09 5.84s-.64 3.27-.88 4.51-.4 2.08-.47 2.49a6.3 6.3 0 01-1.73 3.56 6.06 6.06 0 01-4 1.06 13.002 13.002 0 01-1.9-.13 3.4 3.4 0 01-1.4-.55 3.3 3.3 0 01-1-1.16 8.17 8.17 0 01-.72-2.05c-.18-.63-.35-1.29-.52-2s-.4-1.61-.68-2.7-.62-2.44-1-4.07-.93-3.63-1.55-6c-.76-2.94-1.38-5.29-1.84-7.05s-.83-3.16-1.09-4.18-.44-1.76-.52-2.23a6.75 6.75 0 01-.19-1.3 1.6 1.6 0 01.83-1.48 6.08 6.08 0 012.9-.49 4.68 4.68 0 012.65.59 3.45 3.45 0 011.19 2.05c.14.49.37 1.41.68 2.78s.65 2.9 1 4.61.76 3.46 1.15 5.24.7 3.33 1 4.65.5 2.33.68 3.06a13.545 13.545 0 00.46 1.63 1.33 1.33 0 00.44.68 1.21 1.21 0 00.55.13q.67 0 1-1.59c.19-1.05.42-2.37.7-4a12.052 12.052 0 01.26-1.51c.14-.73.3-1.56.49-2.51s.38-2 .57-3 .38-2.12.57-3.14.37-2 .52-2.83.29-1.55.39-2.07a6.37 6.37 0 011.43-3.61 4.32 4.32 0 013.08-1 7.29 7.29 0 012.05.24 3 3 0 011.33.75 3.62 3.62 0 01.8 1.3 12.38 12.38 0 01.49 1.86q.42 2 1.2 5.58c.51 2.41 1.14 5.42 1.86 9.05.25 1.32.44 2.41.6 3.27s.29 1.54.42 2a3.38 3.38 0 00.38 1 .63.63 0 00.52.28q.52 0 .78-1.5c.14-.89.39-2.19.7-3.78zM81.255 283.756a18.46 18.46 0 01-7.55-1.45 14.89 14.89 0 01-5.39-4 17.12 17.12 0 01-3.25-5.94 24.86 24.86 0 01-.58-12.48 15.19 15.19 0 012-4.82 20.338 20.338 0 012.69-3.53 13.39 13.39 0 013.3-2.49 14.841 14.841 0 014.1-1.45 25.073 25.073 0 015.05-.47 20.16 20.16 0 017.11 1.19 14.33 14.33 0 015.37 3.51 15.25 15.25 0 013.38 5.66 23.7 23.7 0 011.17 7.78 24.34 24.34 0 01-1 6.93 16.52 16.52 0 01-3.08 5.91 15 15 0 01-5.4 4.1 18.78 18.78 0 01-7.92 1.55zm.31-6.64c3.22 0 5.61-1.05 7.19-3.14s2.36-4.94 2.36-8.54a16 16 0 00-.57-4.28 10.63 10.63 0 00-1.77-3.6 8.71 8.71 0 00-3-2.49 9.21 9.21 0 00-4.25-.94 10 10 0 00-4.31.89 7.45 7.45 0 00-3 2.54 14 14 0 00-.83 1.35 9.773 9.773 0 00-.65 1.55 12.32 12.32 0 00-.44 2.11 24.307 24.307 0 00-.15 2.93q0 5.6 2.46 8.61a8.53 8.53 0 006.96 3.01zM113.415 269.536a3.63 3.63 0 00-2 .39 1.48 1.48 0 00-.52 1.27v9.46a1.61 1.61 0 01-1 1.63 9.66 9.66 0 01-3.24.55 8.88 8.88 0 01-2.15-.13 3 3 0 01-1.22-.52 1.58 1.58 0 01-.55-.81 3.93 3.93 0 01-.13-1q0-.88.06-5.16c0-2.86.05-6.7.05-11.55v-12.6a4.69 4.69 0 01.38-2.05 2.79 2.79 0 011.72-1.27 15.13 15.13 0 013.86-.65q2.55-.18 6.85-.18a33.37 33.37 0 017.86.8 15.68 15.68 0 015.39 2.31 9.07 9.07 0 013.09 3.68 11.93 11.93 0 011 5 10.8 10.8 0 01-.63 4 7.54 7.54 0 01-1.58 2.57 7.4 7.4 0 01-2.07 1.53 19.722 19.722 0 01-2.08.88l-1.58.55c-.42.14-.62.33-.62.57s.19.46.57.67a10.997 10.997 0 011.35.91 11.23 11.23 0 011.6 1.58 8.3 8.3 0 011.41 2.7 6.28 6.28 0 001.27 2.52 11.308 11.308 0 001.4 1.29c.43.33.8.63 1.11.91a1.59 1.59 0 01.47 1.25 2.15 2.15 0 01-.88 1.55 5.18 5.18 0 01-3.32.78 13 13 0 01-3.22-.36 6.06 6.06 0 01-2.44-1.27 8.15 8.15 0 01-1.81-2.42 18.77 18.77 0 01-1.4-3.84 14.71 14.71 0 00-1-2.85 4.82 4.82 0 00-1.38-1.69 4.63 4.63 0 00-1.92-.8 14.25 14.25 0 00-2.7-.2zm11.31-10.17a5 5 0 00-2.12-4.2c-1.42-1-3.76-1.55-7-1.55a20.236 20.236 0 00-2.28.1 4 4 0 00-1.37.36 1.4 1.4 0 00-.68.78 4.24 4.24 0 00-.18 1.35v7.12a2.16 2.16 0 00.15.83 1.35 1.35 0 00.68.62 4.53 4.53 0 001.53.39 22.23 22.23 0 002.77.13q4.41 0 6.49-1.66a5.27 5.27 0 002.01-4.27zM139.485 282.766a4.5 4.5 0 01-2.41-.49 2.21 2.21 0 01-.76-2v-2.33c0-1.21 0-2.56.05-4s0-3 .05-4.54 0-2.83 0-3.86v-15.49a2.08 2.08 0 01.77-1.92 6.9 6.9 0 013.12-.47 5.87 5.87 0 012.75.49 2.05 2.05 0 01.88 2v12.93c0 .59.24.88.72.88a1.31 1.31 0 00.81-.39 8.54 8.54 0 00.9-1c.32-.38.63-.77.94-1.16s.6-.76.88-1.07l2.15-2.41c.89-1 1.79-2 2.73-3l2.64-2.88 1.82-2a9.19 9.19 0 012.39-2 5.82 5.82 0 012.69-.54h2.44a1.92 1.92 0 011.43.41 1.41 1.41 0 01.39 1 3.38 3.38 0 01-.29 1.22 6.19 6.19 0 01-1.11 1.63c-.42.48-1.12 1.23-2.1 2.23l-3.22 3.27-3.45 3.48c-1.14 1.14-2.08 2.09-2.8 2.85a1.25 1.25 0 00-.34.49 1.52 1.52 0 00-.08.44c0 .31.19.54.57.68a13.991 13.991 0 001.43.41c.57.14 1.2.31 1.89.52a7.26 7.26 0 012 1 6.86 6.86 0 011.76 1.95 8.66 8.66 0 011.09 3.27 10.88 10.88 0 001.25 4 9 9 0 001.63 2 15.832 15.832 0 001.4 1.12 1.4 1.4 0 01.6 1.24 2.17 2.17 0 01-.89 1.56 5.14 5.14 0 01-3.32.78 8.43 8.43 0 01-5.88-2c-1.47-1.33-2.62-3.56-3.45-6.67a17.17 17.17 0 00-1.87-4.77 2.56 2.56 0 00-2-1.35 3.53 3.53 0 00-1.22.18 4.14 4.14 0 00-1.17.75c-.59.52-1.08 1-1.48 1.33a7.91 7.91 0 00-1 1 3.73 3.73 0 00-.54.93 2.83 2.83 0 00-.19 1.09v6.67a3 3 0 01-.5 1.84c-.33.44-1 .65-2.15.65zM171.935 270.426a3.26 3.26 0 011.92.51 6.28 6.28 0 011.35 1.33c.42.53.84 1.1 1.27 1.71a8.76 8.76 0 001.64 1.71 7.7 7.7 0 002.49 1.32 11.83 11.83 0 003.88.48 7.86 7.86 0 004.35-.88 2.78 2.78 0 001.25-2.39 4 4 0 00-.34-1.71 3.34 3.34 0 00-1.37-1.35 15.291 15.291 0 00-2.91-1.24q-1.86-.63-5-1.35a22.429 22.429 0 01-5.13-1.76 12 12 0 01-3.25-2.34 7.18 7.18 0 01-1.68-2.8 10.85 10.85 0 01-.47-3.22 11.68 11.68 0 011.06-5.18 9.75 9.75 0 012.91-3.58 12 12 0 014.36-2.05 21.25 21.25 0 015.42-.65 18.92 18.92 0 016.46 1 13.16 13.16 0 014.25 2.41 8.88 8.88 0 012.36 3.16 8.23 8.23 0 01.73 3.22 3.83 3.83 0 01-.78 2.41 3.54 3.54 0 01-3 1 3.37 3.37 0 01-2.44-.81 5.39 5.39 0 01-1.24-1.84 11.63 11.63 0 00-1-2 5.15 5.15 0 00-1.33-1.38 5.34 5.34 0 00-1.89-.8 12.65 12.65 0 00-2.77-.26 6.34 6.34 0 00-4.18 1.17 4 4 0 00-1.37 3.22 6.14 6.14 0 00.26 1.81 3.71 3.71 0 001.07 1.58 7.23 7.23 0 002.36 1.38 24.36 24.36 0 004.2 1.14 31.181 31.181 0 016.25 1.84 12.63 12.63 0 013.76 2.39 6.84 6.84 0 011.84 2.93 11.41 11.41 0 01.5 3.37 8.79 8.79 0 01-.86 3.82 8.39 8.39 0 01-2.62 3.11 13.7 13.7 0 01-4.41 2.1 22.1 22.1 0 01-6.22.78 19 19 0 01-6.54-1 16.17 16.17 0 01-4.57-2.49 10 10 0 01-2.69-3.22 7.12 7.12 0 01-.89-3.19c0-2.27 1.01-3.41 3.01-3.41zM223.815 271.046c0-.9-.12-1.44-.36-1.61a2.78 2.78 0 00-1.45-.26h-11.42a1.09 1.09 0 00-.83.29 1.84 1.84 0 00-.26 1.16v1.51a4.985 4.985 0 01-.05.93 2.816 2.816 0 000 .65v6.87a1.74 1.74 0 01-1 1.69 6.81 6.81 0 01-3 .49 4.37 4.37 0 01-2.57-.57 2.07 2.07 0 01-.75-1.76c0-.59 0-1.64.05-3.14s.05-3.78.05-6.82l.21-20.5a1.973 1.973 0 011-2 7.77 7.77 0 012.88-.41 5.29 5.29 0 012.85.52 2.06 2.06 0 01.73 1.81v1.79c0 .84 0 1.84-.08 3s-.06 2.35-.07 3.68-.05 2.66-.08 4a1.78 1.78 0 00.21 1.07 1.456 1.456 0 001 .23h10.77a8.302 8.302 0 001.24-.07 1.27 1.27 0 00.7-.32 1.06 1.06 0 00.29-.65 10.738 10.738 0 00.05-1.14v-11.62a2 2 0 011-2 6.7 6.7 0 012.8-.47 5.21 5.21 0 012.67.52 2 2 0 01.81 1.82v2.52c0 1.22 0 2.63-.08 4.22s-.07 3.3-.1 5.11-.06 3.56-.08 5.22 0 3.14-.05 4.43 0 2.24 0 2.83v6.42a1.83 1.83 0 01-1 1.82 6.62 6.62 0 01-2.75.46 4.65 4.65 0 01-2.73-.59 1.93 1.93 0 01-.75-1.59zM253.075 283.756a18.49 18.49 0 01-7.55-1.45 14.89 14.89 0 01-5.39-4 16.94 16.94 0 01-3.24-5.94 23.581 23.581 0 01-1.09-7.29 24.43 24.43 0 01.54-5.19 15.19 15.19 0 012-4.82 20.367 20.367 0 012.7-3.53 13.16 13.16 0 013.29-2.49 15 15 0 014.1-1.45 25.108 25.108 0 015.06-.47 20.2 20.2 0 017.11 1.19 14.37 14.37 0 015.36 3.51 15.4 15.4 0 013.38 5.68 24 24 0 011.14 7.78 24.69 24.69 0 01-1 6.93 16.7 16.7 0 01-3.09 5.91 15.06 15.06 0 01-5.39 4.1 18.82 18.82 0 01-7.93 1.53zm.31-6.64c3.22 0 5.61-1.05 7.19-3.14s2.36-4.94 2.36-8.54a16 16 0 00-.57-4.28 10.61 10.61 0 00-1.76-3.6 8.8 8.8 0 00-3-2.49 9.26 9.26 0 00-4.26-.94 9.92 9.92 0 00-4.3.89 7.38 7.38 0 00-3 2.54 13.994 13.994 0 00-.83 1.35 8.92 8.92 0 00-.65 1.55 11.43 11.43 0 00-.44 2.11 22.22 22.22 0 00-.16 2.93q0 5.6 2.47 8.61a8.51 8.51 0 006.95 3.01zM274.815 263.416v-12.14a4.5 4.5 0 01.34-1.79 2.9 2.9 0 011.61-1.37 13.1 13.1 0 013.7-.86 60.552 60.552 0 016.64-.28 25.58 25.58 0 017.61 1 14.74 14.74 0 015.11 2.65 9.91 9.91 0 012.87 3.84 11.64 11.64 0 01.91 4.56q0 5.72-3.63 8.48t-10.32 2.78h-2.23l-1.53-.11a8.15 8.15 0 01-1.12-.1 8.333 8.333 0 00-1 0 1 1 0 00-.77.23.94.94 0 00-.21.65v9.38a2.22 2.22 0 01-.89 1.87 5.16 5.16 0 01-3.06.67 5.22 5.22 0 01-3.24-.7 2.3 2.3 0 01-.8-1.84zm8-.21a1.76 1.76 0 001.17 1.64 11.08 11.08 0 004.17.54q4.05 0 6-1.53a4.93 4.93 0 001.92-4.07 5 5 0 00-2.33-4.67 12.94 12.94 0 00-6.59-1.4 12.138 12.138 0 00-2.21.16 3.12 3.12 0 00-1.32.49 1.57 1.57 0 00-.62.83 3.72 3.72 0 00-.16 1.17zM309.005 270.426a3.3 3.3 0 011.92.51 6.77 6.77 0 011.35 1.33c.41.53.83 1.1 1.27 1.71a8.689 8.689 0 001.63 1.71 7.92 7.92 0 002.49 1.32 11.83 11.83 0 003.82.48 7.87 7.87 0 004.36-.88 2.77 2.77 0 001.24-2.39 4.14 4.14 0 00-.33-1.71 3.44 3.44 0 00-1.38-1.35 15.151 15.151 0 00-2.9-1.24q-1.87-.63-5-1.35a22.53 22.53 0 01-5.14-1.76 11.77 11.77 0 01-3.24-2.34 7.09 7.09 0 01-1.69-2.8 10.85 10.85 0 01-.47-3.22 11.68 11.68 0 011.07-5.18 9.83 9.83 0 012.9-3.58 12 12 0 014.36-2.05 21.36 21.36 0 015.42-.65 18.88 18.88 0 016.46 1 13.11 13.11 0 014.26 2.41 9 9 0 012.36 3.16 8.38 8.38 0 01.72 3.22 3.83 3.83 0 01-.78 2.41 3.52 3.52 0 01-2.95 1 3.36 3.36 0 01-2.44-.81 5.42 5.42 0 01-1.25-1.84 11 11 0 00-1-2 5 5 0 00-1.32-1.38 5.42 5.42 0 00-1.89-.8 12.752 12.752 0 00-2.78-.26 6.34 6.34 0 00-4.18 1.17 4 4 0 00-1.37 3.19 6.14 6.14 0 00.26 1.81 3.68 3.68 0 001.06 1.58 7.34 7.34 0 002.36 1.38 24.36 24.36 0 004.2 1.14 31.3 31.3 0 016.26 1.84 12.76 12.76 0 013.76 2.39 6.94 6.94 0 011.84 2.93 11.4 11.4 0 01.49 3.37 8.78 8.78 0 01-.85 3.82 8.49 8.49 0 01-2.62 3.11 13.91 13.91 0 01-4.41 2.1 22.18 22.18 0 01-6.23.78 19.12 19.12 0 01-6.54-1 16.11 16.11 0 01-4.56-2.49 10.16 10.16 0 01-2.7-3.22 7.1 7.1 0 01-.88-3.19q.03-3.38 3.04-3.38z"/></svg>