<?xml version="1.0" encoding="UTF-8"?>
<svg width="1920px" height="1057px" viewBox="0 0 1920 1057" version="1.1" xmlns="http://www.w3.org/2000/svg" xmlns:xlink="http://www.w3.org/1999/xlink">
    <!-- Generator: Sketch 61.2 (89653) - https://sketch.com -->
    <title>online-workshops-large</title>
    <desc>Created with Sketch.</desc>
    <g id="Page-1" stroke="none" stroke-width="1" fill="none" fill-rule="evenodd">
        <g id="online-workshops-large" fill-rule="nonzero">
            <path d="M1395.53554,521.344 C1395.64437,599.032978 1374.89931,675.327281 1335.465,742.264 C1330.365,750.934667 1324.975,759.401333 1319.295,767.664 L1319.295,767.684 C1317.965,769.634 1316.615,771.544 1315.255,773.474 C1252.87805,861.447662 1160.11119,923.18298 1054.875,946.754 C1052.375,947.324 1049.855,947.864 1047.335,948.374 C991.423605,959.721397 933.840174,960.098381 877.785,949.484 C872.755667,948.534 867.769,947.494 862.825,946.364 C860.335,945.814 857.855,945.224 855.375,944.624 C853.495,944.154 851.605,943.674 849.725,943.164 C704.505,905.424 588.735,794.634 543.955,652.384 C538.140026,633.942689 533.576322,615.129939 530.295,596.074 C526.038477,571.391718 523.904993,546.390617 523.904993,521.344 C523.904993,350.374 622.345,202.374 765.675,131.004 C776.455,125.634 787.495,120.700667 798.795,116.204 C801.015,115.314 803.235,114.454 805.475,113.614 C816.335,109.484 827.408333,105.800667 838.695,102.564 C872.718022,92.7583768 907.810999,87.1435004 943.195,85.844 L943.215,85.844 C948.695,85.644 954.195,85.5335795 959.715,85.5335795 C1019.06926,85.4513783 1077.80969,97.5438953 1132.305,121.064 C1133.195,121.414 1134.085,121.814 1134.975,122.214 C1141.735,125.164 1148.395,128.290667 1154.955,131.594 C1168.39739,138.340478 1181.47852,145.783935 1194.145,153.894 C1224.95764,173.593872 1253.17787,197.080494 1278.145,223.804 C1282.585,228.554 1286.90499,233.390667 1291.105,238.314 C1296.535,244.634 1301.745,251.114 1306.805,257.744 C1364.50564,333.493657 1395.68491,426.121354 1395.53554,521.344 L1395.53554,521.344 Z" id="Path" fill="#FFFFFF" opacity="0.3"></path>
            <circle id="Oval" fill="#FFFFFF" cx="320.328" cy="199.374" r="121.98"></circle>
            <polygon id="Path" fill="#FFFFFF" points="403.115 272.132 433.731 355.487 359.966 299.098"></polygon>
            <polygon id="Path" fill="#BBD5D1" transform="translate(1173.306919, 593.913003) rotate(-4.644000) translate(-1173.306919, -593.913003) " points="1168.00592 556.839003 1178.60792 556.839003 1178.60792 630.987003 1168.00592 630.987003"></polygon>
            <polygon id="Path" fill="#BBD5D1" points="1146.428 512.494 1140.782 589.892 1171.218 568.196 1204.756 584.695 1195.773 543.326 1168.404 533.567 1194.462 537.249 1178.675 464.588 1161.092 443.558 1177.138 457.488 1157.147 365.417 1146.977 504.856 1165.334 495.772"></polygon>
            <polygon id="Path" fill="#BBD5D1" transform="translate(1247.892502, 539.701040) rotate(-4.644000) translate(-1247.892502, -539.701040) " points="1245.242 521.16404 1250.543 521.16404 1250.543 558.23804 1245.242 558.23804"></polygon>
            <polygon id="Path" fill="#BBD5D1" points="1234.445 498.984 1231.63 537.69 1246.848 526.842 1263.617 535.091 1259.118 514.408 1245.441 509.528 1258.47 511.369 1250.569 475.039 1241.785 464.523 1249.801 471.497 1239.813 425.453 1234.727 495.164 1243.907 490.638"></polygon>
            <path d="M978.055,636.752 C1034.395,676.788 1095.681,699.042 1160.606,703.378 C1162.798,703.536 1165.002,703.662 1167.205,703.755 C1172.995,704.054 1178.836,704.172 1184.682,704.161 C1192.962,704.145 1200.838,703.874 1208.238,703.273 C1211.46933,703.085 1214.626,702.828333 1217.708,702.503 C1220.967,702.207 1224.236,701.829 1227.312,701.435 L1229.942,701.077 C1232.729,700.675 1235.388,700.282 1237.933,699.867 L1240.587,699.411 C1253.24004,697.381201 1265.7052,694.316586 1277.857,690.248 L1284.716,708.433 L1291.608,726.616 C1290.383,727.116 1269.342,734.912 1235.139,739.613 C1234.236,739.735 1233.319,739.889 1232.396,739.964 C1229.718,740.326 1226.973,740.645 1224.164,740.97 L1221.474,741.188 L1211.624,741.988 C1208.53467,742.218 1205.34567,742.402333 1202.057,742.541 C1197.063,742.787 1191.934,742.947 1186.634,742.977 C1180.034,742.969 1172.964,742.902 1165.582,742.541 C1163.362,742.417 1161.109,742.296 1158.804,742.131 C1108.985,738.777 1044.639,724.605 977.924,683.25 C970.479333,678.643333 963.028667,673.695333 955.572,668.406 L978.055,636.752 Z" id="Path" fill="#6ECDEA"></path>
            <path d="M1335.24,700.548 C1325.497,687.884 1319.85,621.127 1344.543,631.087 C1363.284,639.352 1349.53,683.401 1345.573,697.402 L1347.557,697.962 C1375.637,705.837 1397.214,712.926 1421.045,730.213 C1427.121,734.605 1466.016,762.619 1444.832,769.433 C1437.321,771.823 1427.951,766.704 1421.522,763.494 C1413.24863,759.236285 1405.26528,754.43719 1397.624,749.128 C1385.505,740.934 1373.809,732.032 1362.45,722.943 C1377.8981,735.735349 1388.13902,753.731989 1391.246,773.547 C1392.248,780.354 1394.763,796.921 1387.161,800.951 C1379.559,804.981 1371.584,792.989 1368.812,787.656 C1364.994,780.293 1363.293,771.973 1361.676,763.903 C1358.606,748.773 1357.688,733.342 1356.981,717.941 C1354.908,729.883 1349.594,771.548 1332.384,753.339 C1323.45,743.925 1329.156,725.232 1332.598,714.556 L1335.24,700.548 Z" id="Path" fill="#E63D31"></path>
            <polygon id="Path" fill="#1C75BC" points="1246.328 765.536 1252.649 655.821 1313.648 656.985 1314.661 781.258"></polygon>
            <polygon id="Path" fill="#27AAE1" transform="translate(1281.407180, 753.121352) rotate(-80.434000) translate(-1281.407180, -753.121352) " points="1278.29368 733.059352 1284.52068 733.059352 1284.52068 773.183352 1278.29368 773.183352"></polygon>
            <polygon id="Path" fill="#27AAE1" transform="translate(1281.145934, 733.476496) rotate(-82.364000) translate(-1281.145934, -733.476496) " points="1278.03243 714.021496 1284.25943 714.021496 1284.25943 752.931496 1278.03243 752.931496"></polygon>
            <polygon id="Path" fill="#27AAE1" transform="translate(1279.235000, 711.007000) rotate(-83.672000) translate(-1279.235000, -711.007000) " points="1276.127 692.574 1282.343 692.574 1282.343 729.44 1276.127 729.44"></polygon>
            <polygon id="Path" fill="#27AAE1" transform="translate(1282.055043, 694.553502) rotate(-85.024000) translate(-1282.055043, -694.553502) " points="1278.94154 677.325502 1285.16854 677.325502 1285.16854 711.781502 1278.94154 711.781502"></polygon>
            <polygon id="Path" fill="#27AAE1" transform="translate(1281.510484, 676.522516) rotate(-88.194000) translate(-1281.510484, -676.522516) " points="1278.39698 659.558016 1284.62398 659.558016 1284.62398 693.487016 1278.39698 693.487016"></polygon>
            <path d="M1158.802,742.124 C1161.108,742.273 1163.35,742.401 1165.592,742.529 C1164.85012,739.583232 1164.92375,736.491118 1165.805,733.584 C1166.72485,730.853482 1168.25847,728.370202 1170.288,726.325 C1176.287,731.215 1184.25,733.648 1191.702,731.278 C1196.057,729.911 1199.708,725.92 1198.298,721.116 C1197.168,717.166 1193.025,714.966 1189.289,714.178 C1182.94088,712.922395 1176.353,714.152769 1170.886,717.615 C1167.76812,713.718176 1166.44239,708.685131 1167.236,703.758 L1167.236,703.695 C1166.06,703.652 1164.866,703.588 1163.691,703.524 C1162.666,703.46 1161.641,703.396 1160.637,703.31 L1160.637,703.375 C1160.54897,703.840685 1160.49217,704.311736 1160.467,704.785 C1160.36049,705.619868 1160.3177,706.461634 1160.339,707.303 C1160.51265,712.568201 1162.41015,717.63077 1165.74,721.713 C1160.30037,727.017808 1157.72225,734.602051 1158.802,742.123 L1158.802,742.124 Z M1175.903,722.397 C1176.21456,722.229911 1176.53504,722.08002 1176.863,721.948 C1179.54077,720.736034 1182.46666,720.172784 1185.403,720.304 C1187.432,720.411 1190.271,720.817 1191.68,722.418 C1192.172,722.931 1192.256,723.358 1191.594,724.019 C1190.7118,724.749892 1189.63686,725.209738 1188.499,725.343 C1185.98296,725.729386 1183.41177,725.532313 1180.984,724.767 C1179.18995,724.213823 1177.48057,723.416339 1175.904,722.397 L1175.903,722.397 Z" id="Shape" fill="#6ECDEA"></path>
            <path d="M1217.668,702.41 C1216.37594,715.702934 1214.35827,728.915308 1211.624,741.988 C1208.53467,742.218 1205.34567,742.402333 1202.057,742.541 C1204.83201,729.556111 1206.90502,716.431068 1208.267,703.223 C1211.49633,703.013667 1214.62967,702.743 1217.667,702.411 L1217.668,702.41 Z" id="Path" fill="#FFFFFF"></path>
            <path d="M1229.975,701.09 C1228.76182,714.478383 1226.84383,727.793519 1224.229,740.98 L1221.539,741.199 C1224.14004,728.017537 1226.07483,714.713315 1227.336,701.337 L1229.975,701.09 Z M1240.615,699.361 C1239.53643,712.848917 1237.72845,726.268554 1235.199,739.561 C1234.296,739.682 1233.379,739.837 1232.456,739.911 C1235.02537,726.657482 1236.86315,713.272562 1237.961,699.817 L1240.615,699.361 Z" id="Shape" fill="#1C75BC"></path>
            <path d="M959.484,655.625 C893.928,677.435 828.79,680.932 765.432,666.103 C763.285106,665.607573 761.143966,665.087538 759.009,664.543 C753.358834,663.110364 747.74541,661.536538 742.174,659.823 C734.670063,657.473323 727.23838,654.898829 719.889,652.103 C716.865,650.954 714.161,649.813 711.079,648.557 C707.997,647.301 705.025,646.005 702.215,644.744 C701.445,644.342 700.566,643.964 699.785,643.627 C697.243667,642.445667 694.816,641.281333 692.502,640.134 L690.098,638.936 C678.586944,633.303347 667.557298,626.735995 657.12,619.3 L645.25,634.682 L633.348,650.066 C634.388,650.846 652.221,664.488 683.561,678.97 L686.087,680.094 C688.534,681.225 691.074,682.316 693.681,683.45 C694.509,683.783 695.323,684.15 696.167,684.481 C699.206492,685.757982 702.265177,686.98879 705.342,688.173 C708.264667,689.313 711.276,690.43 714.376,691.524 C719.126,693.204 723.955,694.864 729.001,696.439 C735.346333,698.433667 742.106333,700.341 749.281,702.161 C751.392,702.71 753.581,703.237 755.819,703.761 C804.409,715.063 870.144,720.295 946.012,700.195 C954.661064,697.906369 963.235673,695.345092 971.723,692.515 L959.484,655.625 Z" id="Path" fill="#6ECDEA"></path>
            <path d="M583.684,622.46 C598.438,616.319 636.485,561.18 610.101,557.554 C589.758,555.44 579.789,600.495 576.263,614.604 L574.27,614.107 C545.982,606.997 523.699,602.443 494.469,605.602 C487.015,606.403 439.343,611.398 454.34,627.827 C459.667,633.64 470.35,633.835 477.516,634.251 C486.811719,634.659064 496.124157,634.460309 505.394,633.656 C520.004,632.56 534.526,630.613 548.986,628.317 C529.223009,631.751045 511.395863,642.28808 498.858,657.946 C494.611,663.369 484.198,676.471 488.796,683.761 C493.394,691.051 506.261,684.575 511.324,681.334 C518.293,676.834 523.886,670.459 529.323,664.271 C539.569,652.677 547.962,639.719 556.201,626.708 C552.084,638.085 536.011,676.894 559.99,669.642 C572.43,665.912 576.75,646.821 579.066,635.862 L583.684,622.46 Z" id="Path" fill="#E63D31"></path>
            <polygon id="Path" fill="#1C75BC" points="665.311 700.589 691.285 593.81 632.583 577.145 595.359 695.699"></polygon>
            <polygon id="Path" fill="#27AAE1" transform="translate(635.371056, 678.439633) rotate(-82.594000) translate(-635.371056, -678.439633) " points="632.257556 658.377633 638.484556 658.377633 638.484556 698.501633 632.257556 698.501633"></polygon>
            <polygon id="Path" fill="#27AAE1" transform="translate(641.349919, 659.860493) rotate(-80.674000) translate(-641.349919, -659.860493) " points="638.236419 640.405493 644.463419 640.405493 644.463419 679.315493 638.236419 679.315493"></polygon>
            <polygon id="Path" fill="#27AAE1" transform="translate(647.483111, 640.679321) rotate(-79.194000) translate(-647.483111, -640.679321) " points="644.369611 622.214321 650.596611 622.214321 650.596611 659.144321 644.369611 659.144321"></polygon>
            <polygon id="Path" fill="#27AAE1" transform="translate(651.893896, 622.287489) rotate(-78.014000) translate(-651.893896, -622.287489) " points="648.780396 605.059489 655.007396 605.059489 655.007396 639.515489 648.780396 639.515489"></polygon>
            <polygon id="Path" fill="#27AAE1" transform="translate(657.638352, 605.271613) rotate(-74.844000) translate(-657.638352, -605.271613) " points="654.524852 588.315113 660.751852 588.315113 660.751852 622.228113 654.524852 622.228113"></polygon>
            <path d="M727.607,683.775 C734.054,688.174 742.358,688.238 749.533,685.313 C750.880236,687.847991 751.618088,690.662099 751.688,693.532 C751.694415,696.57561 750.875349,699.563992 749.318,702.179 C751.432,702.734 753.61,703.246 755.852,703.78 C759.08128,696.89776 758.83538,688.888183 755.19,682.217 C759.547233,679.276305 762.829149,674.997528 764.54,670.027 C764.944713,668.750876 765.244706,667.44388 765.437,666.119 C764.363228,665.860651 763.288892,665.604651 762.214,665.351 C761.147,665.117 760.079,664.861 759.012,664.626 C758.351285,669.589117 755.61086,674.036991 751.475,676.859 C747.2768,671.921135 741.350143,668.774466 734.908,668.063 C731.086,667.806 726.496,668.745 724.254,672.141 C721.5,676.282 723.849,681.192 727.607,683.775 L727.607,683.775 Z M730.211,675.258 C731.941,674.148 734.843,674.574 736.829,675.065 C739.673811,675.806736 742.305839,677.203225 744.515,679.143 C744.783738,679.348461 745.034022,679.576995 745.263,679.826 L745.283,679.826 L745.283,679.847 L745.263,679.826 C743.477479,680.380292 741.623149,680.681886 739.754,680.722 C737.20529,680.745215 734.685257,680.183117 732.388,679.079 C731.335572,678.616334 730.438784,677.860157 729.805,676.901 C729.336,676.069 729.549,675.663 730.211,675.258 L730.211,675.258 Z" id="Shape" fill="#6ECDEA"></path>
            <path d="M711.08,648.557 C708.442739,661.648457 706.522214,674.874141 705.327,688.175 C708.249667,689.315 711.261333,690.431667 714.362,691.525 C715.506954,678.295628 717.351872,665.136192 719.889,652.102 C716.869,650.948667 713.932333,649.767 711.079,648.557 L711.08,648.557 Z" id="Path" fill="#FFFFFF"></path>
            <path d="M699.786,643.627 C697.052987,656.785871 695.010196,670.078701 693.666,683.451 C694.494,683.785 695.308,684.151 696.152,684.483 C697.495191,671.14176 699.518827,657.87782 702.215,644.743 C701.382,644.347 700.565,643.964 699.785,643.627 L699.786,643.627 Z M690.161,638.931 C687.25657,652.148023 685.069705,665.512574 683.61,678.966 L686.136,680.09 C687.527489,666.665233 689.65233,653.326638 692.501,640.134 L690.161,638.931 Z" id="Shape" fill="#1C75BC"></path>
            <path d="M868.086,945.093 C875.216,946.823 882.39,948.403 889.649,949.769 L955.811,954.317 L1047.656,946.844 L1047.422,932.582 L1046.867,899.682 L1046.717,890.268 L1045.927,843.705 L1045.842,838.133 L1045.692,830.19 L1045.5,818.726 L1045.436,814.776 L1045.266,803.632 L1045.18,799.704 L1044.625,766.419 L1044.625,766.399 L1044.604,764.563 L876.477,746.863 L875.9,760.676 L874.64,790.374 L874.47,794.174 L874,805.489 L874,805.532 L873.85,809.312 L873.231,823.529 L873.231,823.551 L872.655,836.958 L872.655,837.001 L870.455,889.179 L870.455,889.243 L870.029,898.893 L868.919,925.281 L868.086,945.093 Z" id="Path" fill="#6ECDEA"></path>
            <polygon id="Path" fill="#1C75BC" points="867.234 760.371 1067.546 767.197 1080.503 667.98 856.525 651.623"></polygon>
            <polygon id="Path" fill="#27AAE1" transform="translate(898.813958, 709.570529) rotate(-1.634000) translate(-898.813958, -709.570529) " points="893.640958 679.386029 903.986958 679.386029 903.986958 739.755029 893.640958 739.755029"></polygon>
            <polygon id="Path" fill="#27AAE1" transform="translate(934.293994, 712.822500) rotate(-89.294000) translate(-934.293994, -712.822500) " points="904.987494 707.6495 963.600494 707.6495 963.600494 717.9955 904.987494 717.9955"></polygon>
            <polygon id="Path" fill="#27AAE1" transform="translate(970.550979, 716.326456) rotate(-87.514000) translate(-970.550979, -716.326456) " points="942.697479 711.153456 998.404479 711.153456 998.404479 721.499456 942.697479 721.499456"></polygon>
            <polygon id="Path" fill="#27AAE1" transform="translate(1005.091034, 717.352501) rotate(-86.074000) translate(-1005.091034, -717.352501) " points="979.065534 712.179501 1031.11653 712.179501 1031.11653 722.525501 979.065534 722.525501"></polygon>
            <polygon id="Path" fill="#27AAE1" transform="translate(1037.510135, 720.749009) rotate(-82.264000) translate(-1037.510135, -720.749009) " points="1011.76413 715.576009 1063.25613 715.576009 1063.25613 725.922009 1011.76413 725.922009"></polygon>
            <path d="M1054.876,946.754 C1052.376,947.324 1049.856,947.864 1047.336,948.374 C991.424605,959.721397 933.841174,960.098381 877.786,949.484 C872.756,948.534 867.769333,947.494 862.826,946.364 L863.516,925.064 L868.916,925.284 L1047.426,932.584 L1052.586,932.794 L1054.876,946.754 Z" id="Path" fill="#1C75BC"></path>
            <path d="M869.944,898.914 C869.964,898.914 870.007,898.894 870.029,898.894 C878.106692,896.943604 885.551494,892.9601 891.656,887.322 C895.371687,890.411668 899.627925,892.785776 904.209,894.324 C914.577553,897.557228 925.865928,895.662837 934.611,889.222 C945.968415,902.291741 965.470412,904.421409 979.381,894.111 C992.490484,905.313075 1011.91242,904.918402 1024.556,893.193 C1025.432,893.769 1026.329,894.367 1027.246,894.858 C1033.25374,898.148722 1040.01726,899.812024 1046.866,899.683 L1046.716,890.268 L1045.884,890.268 C1040.45422,890.248478 1035.14057,888.694388 1030.556,885.785 C1032.56403,882.487831 1034.05437,878.902126 1034.975,875.153 C1037.558,864.264 1035.637,848.209 1023.595,843.663 C1017.66363,841.549332 1011.09794,844.295685 1008.438,850.003 C1005.748,855.447 1005.982,861.745 1007.157,867.552 C1008.71616,874.855335 1012.2622,881.586135 1017.404,887.002 C1011.83108,891.617933 1004.55352,893.63695 997.399,892.552 C993.412834,891.933298 989.654648,890.293462 986.49,887.792 C993.621,879.764 997.87,868.257 995.179,857.625 C993.599,851.412 988.134,846.416 981.409,848.06 C975.089,849.619 971.054,855.788 969.453,861.724 C967.289938,870.274731 968.651877,879.335949 973.233,886.873 C970.957864,888.385127 968.466997,889.54425 965.845,890.311 C956.665,892.98 947.635,889.413 941.422,882.902 C947.541383,875.966261 950.779197,866.954326 950.473,857.71 C950.175,852.245 948.04,845.903 942.723,843.406 C936.276,840.331 929.828,844.601 926.883,850.409 C921.844,860.399 923.466,872.142 928.953,881.729 C925.638359,884.145986 921.796853,885.740787 917.745,886.382 C910.54142,887.233013 903.305473,885.078217 897.741,880.425 C900.786982,876.324134 903.124649,871.74209 904.657,866.869 C906.258,861.639 907.134,855.447 905.618,850.067 C903.887487,843.411536 897.147014,839.366719 890.46,840.971 C877.01,843.811 875.878,860.933 879.935,871.459 C881.201459,874.747739 882.918528,877.844655 885.037,880.661 C880.815372,884.490135 875.852115,887.41118 870.455,889.243 C870.435,889.243 870.413,889.264 870.392,889.264 L869.944,898.914 Z M1023.318,879.657 C1018.343,873.893 1014.715,865.289 1015.803,857.646 C1016.145,855.233 1017.383,851.603 1020.095,852.394 C1023.617,853.398 1025.453,858.051 1026.135,861.19 C1027.37097,867.485978 1026.37488,874.015864 1023.318,879.657 L1023.318,879.657 Z M977.929,866.613 C978.378,863.473 979.786,858.243 983.352,857.219 C986.064,856.429 986.426,861.724 986.469,863.581 C986.537374,867.545104 985.635887,871.465851 983.843,875.002 L983.864,875.002 C982.908679,876.901901 981.748808,878.691837 980.405,880.34 C980.065,879.636 979.701,878.931 979.423,878.184 C977.972901,874.510638 977.459482,870.534215 977.929,866.613 L977.929,866.613 Z M934.611,856.28 C935.048845,854.68791 935.938745,853.256846 937.173,852.16 C938.262,851.369 938.838,851.604 939.543,852.48 C941.485,854.785 941.422,858.884 941.123,861.787 C940.593345,865.954404 939.110292,869.943658 936.789,873.445 C936.532,873.871 936.233,874.277 935.934,874.682 C934.825081,872.248943 934.077199,869.667067 933.714,867.018 C933.175621,863.417558 933.482724,859.741218 934.611,856.28 L934.611,856.28 Z M887.386,857.326 C887.771,853.974 889.82,849.64 893.854,849.939 C897.441,850.216 897.142,855.553 896.908,858.201 C896.347915,863.600466 894.463122,868.778066 891.421,873.274 C888.181007,868.62573 886.746466,862.955828 887.386,857.326 L887.386,857.326 Z" id="Shape" fill="#FFFFFF"></path>
            <path d="M873.166,823.533 L872.656,836.966 C904.346,832.694 972.296,827.141 1045.921,843.715 L1045.704,830.197 C972.521,814.132 906.336,819.124 873.166,823.533 L873.166,823.533 Z" id="Path" fill="#FFFFFF"></path>
            <path d="M873.995,805.54 L873.853,809.316 C907.113,805.829 986.349,800.369 1045.509,818.726 L1045.444,814.776 C986.132,796.718 907.615,801.944 873.994,805.54 L873.995,805.54 Z M874.638,790.382 L874.481,794.175 C908.243,790.744 986.674,785.445 1045.261,803.641 L1045.181,799.707 C986.414,781.846 908.731,786.891 874.638,790.382 Z" id="Shape" fill="#1C75BC"></path>
            <polygon id="Path" fill="#FFFFFF" points="869.406 614.181 746.246 461.497 727.327 318.334 813.351 182.103 814.787 1.997 895.399 70.08 1054.563 204.734 1188.231 149.39 1309.058 129.818 1347.55 163.118 1272.278 291.106 1258.474 360.373 1211.542 577.912 1031.428 648.355"></polygon>
            <path d="M649.233,370.643 C596.413,454.333 656.32,493.424 657.559,494.213 C655.381,489.11 658.327,464.133 658.327,464.133 C667.998,536.443 722.119,595.837 722.119,595.837 C719.173,587.02 717.359,543.467 717.359,543.467 C724.084,591.759 773.337,633.989 774.896,635.291 C769.131,628.032 764.989,585.013 764.989,585.013 C782.624,624.168 805.767,646.841 821.885,658.883 C822.929868,659.703356 823.997971,660.493679 825.088,661.253 C830.103875,664.849217 835.45144,667.95864 841.058,670.539 C843.612561,671.696041 846.18177,672.820465 848.765,673.912 L848.295,674.19 C849.235,674.445 850.173,674.702 851.114,675.001 C853.782,675.749 856.429,676.602 859.055,677.499 C867.798883,680.4837 876.293865,684.153067 884.461,688.473 C869.175,680.253 861.339,676.496 858.841,675.3 C858.458,675.13 858.201,675.001 858.052,674.916 C858.308,675.001 858.586,675.107 858.842,675.193 C867.802149,678.516181 877.070351,680.94076 886.51,682.431 C888.71,682.773 890.823,683.113 892.894,683.498 C896.544,684.16 899.982,684.865 903.292,685.548 C912.408,687.405 920.563,689.092 929.422,689.113799 C932.880779,689.12986 936.335702,688.879784 939.756,688.365 C940.14,688.323 940.525,688.259 940.931,688.195 C950.239,686.657667 959.54,685.191667 968.834,683.797 C971.524,683.37 974.214,682.964 976.904,682.602 C998.809,679.356 1020.671,676.496 1042.704,673.934 L1042.725,673.934 C1048.97967,673.208 1055.25633,672.503 1061.555,671.819 C1067.83037,671.153772 1074.08774,670.328503 1080.321,669.344 C1114.118,663.984 1138.562,655.274 1172.999,645.666 C1181.41167,644.620667 1189.83767,643.596 1198.277,642.592 C1213.521,632.174 1228.977,622.482 1245.31,613.45 C1247.979,612.04 1250.733,610.846 1253.444,609.586 C1261.83053,593.978189 1269.28752,577.888485 1275.776,561.401 C1279,571.883 1275.221,588.236 1270.033,603.181 C1276.95776,601.147433 1284.04247,599.7046 1291.211,598.868 C1291.36277,598.632332 1291.52665,598.404693 1291.702,598.186 C1293.75399,595.535851 1296.08767,593.116339 1298.662,590.97 L1295.972,592.144 C1311.601,556.831 1313.905,514.666 1314.227,505.102 C1314.29,503.8 1314.29,503.095 1314.29,503.095 C1314.79421,503.771147 1315.2577,504.47673 1315.678,505.208 C1316.09135,505.863374 1316.45535,506.548599 1316.767,507.258 C1316.767,507.258 1316.787,507.258 1316.767,507.279 C1326.46,527.519 1319.798,572.011 1319.798,572.011 C1374.474,497.458 1295.588,376.171 1293.752,373.354 C1316.639,389.387 1349.26,450 1349.26,450 C1340.592,387.126 1273.256,324.55 1273.256,324.55 C1284.295,310.118 1294.008,296.582 1302.591,283.965 C1367.451,188.49 1366.63925,144.425 1366.63925,144.425 C1268.709,96.922 1150.262,147.627 1137.197,153.519 C1136.407,153.861 1136.001,154.053 1136.001,154.053 C1135.551,153.498 1135.104,152.943 1134.634,152.409 C1106.86859,118.536605 1067.08162,96.711623 1023.595,91.499 C1018.92175,90.9157386 1014.21416,90.6517931 1009.505,90.709 C1036.192,98.865 1057.626,124.975 1058.288,125.786 C1016.828,109.476 982.455,100.167 954.466,95.213 C949.512212,81.5913203 942.102316,68.9936148 932.604,58.045 C912.834,34.859 877.374,9.517 814.861,2.065 L814.841,2.065 C814.82,2.065 814.798,2.045 814.776,2.045 C808.602878,1.31265757 802.408584,0.771398862 796.202,0.422 C796.202,0.422 769.174,86.396 786.744,138.233 C748.187,152.068 743.682,165.988 743.682,165.988 L782.262,160.329 L781.749,161.974 L755.296,246.006 C704.656,254.652 675.279,285.268 674.361,286.228 C683.476,281.638 712,286.377 712,286.377 C638.45,319.597 620.56,383.582 620.026,385.567 C627.340174,376.844074 637.878642,371.459558 649.233,370.644 L649.233,370.643 Z M1188.114,186.973 C1188.114,186.973 1190.292,185.82 1194.157,184.006 C1214.161,174.655 1279.427,147.519 1323.3,169.466 C1323.3,169.466 1304.832,218.293 1275.007,251.299 C1268.6004,258.576914 1261.28945,265.005718 1253.252,270.429 C1253.252,270.429 1226.544,218.25 1188.114,186.973 Z M998.724,198.203 C1048.254,210.628 1066.807,307.213 1051.862,367.077 C1036.917,426.941 982.862,454.119 933.309,441.757 C883.799,429.417 857.539,382.214 872.484,322.329 C887.408,262.465 949.194,185.778 998.724,198.203 L998.724,198.203 Z M823.636,36.289 C889.456,47.903 923.828,102.109 913.303,104.756 C899.533,108.258 872.718,122.711 852.03,134.603 C836.146,143.676 823.892,151.299 823.892,151.299 C822.447721,149.385684 821.162114,147.357609 820.048,145.235 C816.97001,139.249538 814.858886,132.814575 813.793,126.169 L813.793,126.149 C811.083,111.097 812.022,94.039 814.157,78.837 L814.157,78.774 C816.218833,64.3895356 819.387912,50.1856802 823.636,36.289 L823.636,36.289 Z" id="Shape" fill="#E73C31"></path>
            <path d="M1236.59,499.37 C1233.623,499.515 1102.315,609.148 1102.315,609.148 L825.015,661.278 C958.939,758.351 1156.863,672.285 1156.863,672.285 C1137.2301,694.744168 1112.27543,711.917908 1084.285,722.233 C1235.028,706.895 1268.638,607.939 1268.638,607.939 C1265.652,632.499 1241.375,684.258 1241.375,684.258 C1308.28,633.697 1316.944,505.305 1316.944,505.305 C1316.944,505.305 1239.558,499.225 1236.591,499.37 L1236.59,499.37 Z" id="Path" fill="#E73C31"></path>
            <path d="M1060.706,572.192 C1158.1,524.842 1187.873,407.037 1188.161,405.86 C1188.191,405.758667 1188.21633,405.656 1188.237,405.552 C1188.47693,404.366836 1188.06331,403.143985 1187.15319,402.347823 C1186.24308,401.551661 1184.97608,401.304316 1183.83335,401.699718 C1182.69062,402.09512 1181.84743,403.072614 1181.624,404.261 C1181.348,405.405 1152.337,520.151 1057.813,566.148 C997.051,595.705 922.623,590.923 836.621,551.951 C834.967814,551.362079 833.140188,552.147559 832.429798,553.752301 C831.719408,555.357042 832.366613,557.238085 833.914,558.066 C914.41,594.538 985.227,601.6 1044.692,579.148 C1050.16267,577.08 1055.50067,574.761333 1060.706,572.192 Z" id="Path" fill="#FFFFFF"></path>
            <path d="M1224.468,432.963 C1202.168,344.811 1149.99,390.7 1149.99,390.7 C1210.47,323.76 1224.652,418.274 1224.652,418.274 L1224.468,432.963 Z M764.28,383.957 C767.616,409.637 785.877,440.192 785.877,440.192 C785.877,440.192 881.554,421.206 842.837,400.722 C804.132,380.175 760.944,358.277 764.28,383.957 Z M1074.682,82.485 C1097.997,93.661 1118.31,110.117 1130.889,128.991 C1137.389,138.743 1142.679,150.381 1140.434,161.883 C1138.189,173.385 1125.432,183.161 1114.686,178.486 C1111.205,176.972 1108.422,174.236 1105.784,171.507 C1093.92915,159.240612 1083.24607,145.89363 1073.874,131.64 C1081.706,145.792 1067.925,165.398 1051.754,165.122 C1035.583,164.846 1022.656,148.149 1023.73,132.012 C1019.911,148.137 1004.211,160.018 987.703,161.459 C961.964,163.705 930.124,141.519 933.835,113.377 C937.275,87.294 969.588,72.543 992.501,68.684 C1020.331,63.996 1049.499,70.414 1074.682,82.484 L1074.682,82.485 Z" id="Shape" fill="#FFFFFF"></path>
            <circle id="Oval" fill="#FFFFFF" cx="1087.447" cy="197.737" r="12.331"></circle>
            <circle id="Oval" fill="#FFFFFF" cx="1145.386" cy="211.163" r="4.604"></circle>
            <circle id="Oval" fill="#FFFFFF" cx="1121.692" cy="51.716" r="15.428"></circle>
            <ellipse id="Oval" fill="#E73C31" transform="translate(985.471000, 391.017000) rotate(-72.167000) translate(-985.471000, -391.017000) " cx="985.471" cy="391.017" rx="34.328" ry="19.451"></ellipse>
            <ellipse id="Oval" fill="#FFFFFF" transform="translate(802.537000, 320.774000) rotate(-72.167000) translate(-802.537000, -320.774000) " cx="802.537" cy="320.774" rx="34.328" ry="19.451"></ellipse>
            <polygon id="Path" fill="#8F9193" points="765.91 636.735 763.5 651.003 408.469 600.952 320.869 393.831 563.23 397.809 630.127 612.724"></polygon>
            <polygon id="Path" fill="#FFFFFF" points="765.323 639.498 627.682 615.157 560.892 400.586 320.812 396.645 320.924 391.017 565.569 395.032 632.574 610.289 766.495 633.971"></polygon>
            <polygon id="Path" fill="#201D1E" opacity="0.5" style="mix-blend-mode: multiply;" points="406.569 596.459 764.197 646.877 763.5 651.003 408.769 600.994"></polygon>
            <ellipse id="Oval" fill="#FFFFFF" transform="translate(472.253346, 509.410557) rotate(-16.034000) translate(-472.253346, -509.410557) " cx="472.253346" cy="509.410557" rx="16.538" ry="28.693"></ellipse>
            <path d="M1450.897,174.32 C1450.875,174.45 1450.942,174.476 1450.953,174.605 C1453.686,183.245 1461.382,192.207 1473.463,200.765 C1474.521,201.449 1475.545,202.104 1476.51,202.829 C1476.007,202.226 1475.574,201.683 1475.146,201.203 C1471.78761,196.533594 1468.69407,191.679286 1465.88,186.663 C1462.179,180.299 1458.435,173.81 1454.268,170.323 C1454.1342,170.264134 1454.01604,170.174747 1453.923,170.062 C1453.25848,169.392233 1452.45485,168.876734 1451.569,168.552 C1451.076,168.819 1449.699,170.84 1450.897,174.32 L1450.897,174.32 Z M1429.11,222.914 C1429.285,226.125 1434.203,231.999 1441.122,235.607 C1441.224,235.662 1441.357,235.716 1441.395,235.777 C1450.81,241.044 1461.745,241.407 1475.067,241.376 C1481.32117,241.341481 1486.51345,246.197692 1486.89688,252.440195 C1487.28031,258.682697 1482.72138,264.137853 1476.51,264.869 C1462.265,266.56 1452.632,268.249 1449.216,276.28 C1448.035,279.09 1444.879,286.391 1462.069,295.839 C1464.39449,297.097959 1466.85968,298.079673 1469.414,298.764 L1469.447,298.762 C1471.68765,299.39681 1473.98091,299.828553 1476.299,300.052 C1477.928,300.237 1479.579,300.322 1481.359,300.365 C1486.29371,300.40521 1491.21081,299.771354 1495.974,298.481 L1496.038,298.476 C1502.15412,296.869667 1508.01627,294.418044 1513.455,291.192 C1511.57955,287.223728 1509.82869,283.197759 1508.205,279.12 C1502.11301,263.672211 1498.28024,247.426731 1496.825,230.885 C1496.517,227.62 1496.411,224.468 1496.398,221.275 C1490.55169,217.145887 1485.14618,212.425653 1480.267,207.189 C1482.71795,211.972811 1481.61855,217.809145 1477.59508,221.373365 C1473.57161,224.937584 1467.64528,225.325032 1463.192,222.315 C1462.297,221.649 1461.375,221.049 1460.48,220.383 C1452.352,215.459 1439.775,213.622 1432.449,218.92 C1431.131,219.742 1429.017,221.437 1429.109,222.914 L1429.11,222.914 Z M1700.283,274.806 C1700.62737,275.449105 1700.93129,276.11306 1701.193,276.794 C1704.358,277.978 1707.577,279.027 1710.728,280.05 C1726.069,284.816 1740.825,284.952 1753.414,280.465 C1756.62944,279.316704 1759.7151,277.8332 1762.62,276.039 C1765.4041,274.343688 1767.93278,272.260808 1770.13,269.853 C1783.26,255.383 1777.885,249.451 1775.818,247.143 C1775.2529,246.463183 1774.59397,245.867212 1773.861,245.373 C1772.60561,244.474409 1771.20623,243.796367 1769.723,243.368 C1763.999,241.692 1756.217,243.126 1746.337,245.318 C1740.91194,246.499016 1735.3994,243.727946 1733.11086,238.669427 C1730.82232,233.610908 1732.38035,227.641023 1736.849,224.346 C1736.875,224.28 1736.875,224.28 1736.939,224.274 C1737.86727,223.566097 1738.91432,223.029365 1740.031,222.689 C1743.164,221.584 1746.174,220.555 1749.018,219.475 C1750.08,219.063 1751.107,218.621 1752.137,218.211 C1759.3,215.184 1765.259,211.646 1769.975,206.374 C1770.0617,206.28938 1770.14006,206.19662 1770.209,206.097 C1775.596,200.381 1778.285,193.282 1777.379,190.197 C1776.962,188.715 1774.404,187.836 1772.686,187.369 C1764.217,184.892 1753.035,190.744 1746.945,198.068 C1746.311,198.96 1745.615,199.89 1744.949,200.786 C1741.11053,205.848819 1733.9423,206.942217 1728.769,203.254 C1725.26129,200.672488 1723.39968,196.413907 1723.887,192.086 C1718.618,204.146 1709.867,217.374 1697.833,227.266 C1697.693,231.698 1697.603,235.964 1697.595,240.062 C1697.55123,251.696882 1698.44983,263.316198 1700.282,274.806 L1700.283,274.806 Z M1726.044,186.709 C1726.67,185.719 1727.459,184.75 1728.245,183.748 C1736.782,171.798 1741.133,160.718 1740.915,151.67 L1740.92,151.347 C1740.898,147.671 1738.94,146.256 1738.515,146.195 C1738.262,146.249 1737.565,146.792 1736.636,148.387 C1736.58,148.489 1736.527,148.623 1736.442,148.758 C1733.602,153.322 1732.236,160.794 1730.78,167.983 C1729.78653,173.614416 1728.44834,179.179545 1726.773,184.647 C1726.477,185.349 1726.31,186.041 1726.044,186.709 L1726.044,186.709 Z" id="Shape" fill="#FFFFFF"></path>
            <path d="M1565.184,215.784 C1538.639,236.39 1502.263,216.909 1484.469,193.924 C1476.665,183.886 1471.179,169.104 1461.739,161.274 C1448.534,149.544 1434.569,163.029 1439.729,178.126 C1444.262,192.575 1457.467,204.302 1469.773,212.504 C1458.116,203.676 1438.383,200.134 1425.769,209.172 C1407.995,221.31 1421.734,238.793 1435.655,246.064 C1447.985,252.987 1461.39,253.221 1475.122,253.146 C1461.043,254.816 1444.724,256.76 1438.394,271.66 C1431.592,287.549 1443.231,298.959 1456.402,306.176 C1463.97,310.33 1472.635,312.066 1481.216,312.152 C1498.562,312.334 1514.733,305.614 1528.523,295.422 C1540.207,286.784 1552.005,277.062 1559.221,264.211 C1565.169,252.824 1571.274,232.495 1564.78,220.566 L1565.184,215.784 Z" id="Path" fill="#E73C31"></path>
            <path d="M1753.526,344.005 C1753.526,344.005 1673.629,357.045 1687.431,205.725 C1701.233,54.403 1499.256,122.895 1508.525,229.834 C1517.796,336.773 1638.216,430.754 1753.526,344.004 L1753.526,344.005 Z" id="Path" fill="#FFFFFF"></path>
            <path d="M1744.486,344.077 C1723.98,342.19 1676.541,325.117 1687.431,205.724 C1698.282,86.759 1575.773,103.657 1527.386,168.282 C1528.91376,167.296931 1530.52099,166.440966 1532.191,165.723 C1546.351,159.672 1549.857,174.561 1550.627,185.377 C1552.039,178.861 1558.504,173 1563.422,168.888 C1574.485,159.64 1591.068,154.887 1605.233,158.52 C1613.439,160.626 1622.018,167.74 1625.642,175.27 C1632.754,190.05 1631.734,209.96 1630.306,225.89 C1628.069,250.855 1624.263,275.897 1626.794,301.028 C1628.508,318.034 1633.43,336.101 1643.69,350.037 C1649.483,357.906 1661.355,364.724 1670.694,366.954 C1688.429,371.178 1707.425,363.608 1723.237,356.126 C1730.63398,352.690507 1737.74026,348.660975 1744.486,344.077 L1744.486,344.077 Z" id="Path" fill="#E73C31"></path>
            <path d="M1741.089,347.085 C1740.313,341.953 1737.424,337.112 1735.025,332.602 C1732.406,327.673 1729.586,322.659 1728.201,317.214 C1727.071,312.774 1726.353,307.124 1729.48,303.272 C1732.794,299.185 1736.39,303.665 1737.778,306.958 C1739.56481,311.535874 1740.55412,316.386031 1740.703,321.298 C1740.953,326.231 1740.639,331.17 1740.826,336.105 C1740.63,330.941 1742.469,325.308 1744.26,320.533 C1745.095,318.303 1746.758,313.797 1749.64,313.459 C1755.437,312.786 1751.878,324.587 1751.199,326.832 C1749.59251,332.160016 1748.10813,337.524086 1746.747,342.92 C1749.057,340.838 1750.688,338 1752.72,335.66 C1754.396,333.73 1756.016,330.925 1758.71,330.268 C1760.765,329.771 1762.109,331.049 1762.177,333.088 C1762.327,337.425 1758.475,340.455 1755.293,342.718 C1751.3382,345.719262 1747.1231,348.361102 1742.698,350.612 L1741.089,347.085 Z" id="Path" fill="#E73C31"></path>
            <polygon id="Path" fill="#EC6725" points="1538.254 232.224 1571.637 233.329 1554.147 264.56"></polygon>
            <path d="M1694.85,300.231 C1694.85,300.231 1651.064,290.201 1646.52,231.015 L1690.012,280.548 C1690.012,280.548 1690.36,286.765 1694.85,300.231 Z" id="Path" fill="#AC2126"></path>
            <path d="M1646.486,228.008 C1678.318,238.778 1706.304,208.457 1715.587,180.911 C1719.672,168.872 1720.011,153.107 1726.367,142.617 C1734.999,127.21 1752.615,135.374 1752.683,151.329 C1753.133,166.465 1744.501,181.872 1735.556,193.65 C1743.681,181.492 1761.166,171.682 1776.042,176.086 C1796.813,181.733 1789.559,202.753 1778.787,214.184 C1769.407,224.764 1756.817,229.379 1743.818,233.804 C1757.666,230.768 1773.723,227.262 1784.583,239.26 C1796.219,252.048 1788.955,266.64 1778.878,277.774 C1773.084,284.178 1765.468,288.654 1757.391,291.549 C1741.061,297.404 1723.579,296.352 1707.214,291.238 C1693.347,286.908 1679.01,281.584 1667.986,271.807 C1658.634,262.996 1644.453,241.587 1646.682,228.189 L1646.486,228.008 Z" id="Path" fill="#E73C31"></path>
            <path d="M1545.082,219.142 C1544.07352,219.098384 1543.19335,218.444793 1542.86,217.492 C1541.045,212.308 1536.57,203.99 1532.293,203.759 L1532.255,203.757 C1529.5,203.639 1526.281,207.137 1523.181,213.623 C1522.59365,214.850729 1521.12223,215.369855 1519.8945,214.7825 C1518.66677,214.195145 1518.14765,212.723729 1518.735,211.496 C1522.91,202.759 1527.398,198.616 1532.455,198.834 L1532.528,198.837 C1541.495,199.332 1546.923,214.178 1547.515,215.87 C1547.96119,217.155359 1547.28248,218.559296 1545.998,219.008 C1545.70356,219.108848 1545.39299,219.154282 1545.082,219.142 L1545.082,219.142 Z M1567.146,219.072 C1566.93162,219.06142 1566.71935,219.024475 1566.514,218.962 C1565.2151,218.554827 1564.49178,217.172202 1564.898,215.873 C1567.826,206.568 1571.718,201.831 1576.809,201.389 C1585.635,200.583 1593.18,214.562 1594.003,216.153 C1594.42378,216.936164 1594.38965,217.885353 1593.91371,218.636273 C1593.43776,219.387194 1592.59394,219.823187 1591.7061,219.776922 C1590.81826,219.730657 1590.02432,219.209321 1589.629,218.413 C1587.098,213.53 1581.307,205.923 1577.229,206.301 C1574.474,206.54 1571.768,210.465 1569.604,217.347 C1569.2675,218.410571 1568.26062,219.117195 1567.146,219.072 L1567.146,219.072 Z" id="Shape" fill="#808081"></path>
            <circle id="Oval" fill="#FFFFFF" opacity="0.22" cx="569.675" cy="867.454" r="15.285"></circle>
            <circle id="Oval" fill="#FFFFFF" opacity="0.22" cx="284.23" cy="605.271" r="15.285"></circle>
            <path d="M1593.101,110.083 C1584.503,113.216 1578.512,118.29 1580.565,126.459 C1581.438,129.929 1584.61,132.509 1588.075,133.396 C1591.59976,134.137324 1595.2639,133.839969 1598.623,132.54 C1604.22555,130.609035 1609.18872,127.173632 1612.969,122.61 C1610.442,130.259 1614.075,139.641 1621.379,143.036 C1628.683,146.431 1638.625,142.706 1641.357,135.129 C1642.11407,141.817901 1645.71511,147.856768 1651.24,151.702571 C1656.76488,155.548375 1663.67839,156.828553 1670.214,155.216 C1681.394,152.458 1683.972,142.649 1679.504,132.724 C1670.989,113.809 1650.119,105.51 1630.462,105.187 C1623.68,105.076 1605.625,105.52 1593.102,110.083 L1593.101,110.083 Z" id="Path" fill="#FFFFFF"></path>
            <circle id="Oval" fill="#FFFFFF" cx="1581.748" cy="83.929" r="10.112"></circle>
            <circle id="Oval" fill="#FFFFFF" cx="1561.52" cy="108.291" r="3.678"></circle>
            <path d="M1373.35,577.739 C1373.35,539.589931 1404.27593,508.664 1442.425,508.664 C1480.57407,508.664 1511.5,539.589931 1511.5,577.739 C1511.5,615.888 1480.574,639.078 1442.425,639.078 C1404.276,639.078 1373.35,615.888 1373.35,577.738 L1373.35,577.739 Z" id="Path" fill="#FFFFFF"></path>
            <circle id="Oval" fill="#FFFFFF" cx="1465.345" cy="689.655" r="14.069"></circle>
            <circle id="Oval" fill="#FFFFFF" cx="1415.428" cy="655.211" r="6.334"></circle>
            <path d="M1381.517,576.177 C1382.749,594.936 1385.527,616.863 1398.368,625.443 C1405.852,630.445 1415.283,629.524 1422.143,635.869 C1426.327,639.739 1428.952,645.788 1432.363,650.784 C1435.774,655.78 1440.842,659.995 1445.789,658.234 C1449.257,657 1451.739,653.171 1454.397,650.014 C1466.145,636.058 1483.716,633.571 1496.201,620.751 C1506.164,610.521 1512.026,593.834 1511.463,577.305 C1510.9,560.776 1503.927,544.833 1493.308,535.797" id="Path" fill="#FFFFFF"></path>
            <circle id="Oval" fill="#FFFFFF" opacity="0.22" cx="94.463" cy="425.468" r="19.215"></circle>
            <circle id="Oval" fill="#FFFFFF" opacity="0.22" cx="1643.703" cy="545.457" r="26.982"></circle>
            <circle id="Oval" fill="#FFFFFF" opacity="0.22" cx="1334.059" cy="60.326" r="13.491"></circle>
            <circle id="Oval" fill="#FFFFFF" opacity="0.22" cx="523.906" cy="130.525" r="13.491"></circle>
            <circle id="Oval" fill="#FFFFFF" opacity="0.22" cx="211.819" cy="810.346" r="5.124"></circle>
            <circle id="Oval" fill="#FFFFFF" opacity="0.22" cx="523.906" cy="283.775" r="5.124"></circle>
            <circle id="Oval" fill="#FFFFFF" opacity="0.22" cx="57.983" cy="51.716" r="5.124"></circle>
            <circle id="Oval" fill="#FFFFFF" opacity="0.22" cx="1446.509" cy="15.48" r="5.124"></circle>
            <circle id="Oval" fill="#FFFFFF" opacity="0.22" cx="193.203" cy="401.537" r="5.124"></circle>
            <circle id="Oval" fill="#FFFFFF" opacity="0.22" cx="75.249" cy="248.154" r="5.124"></circle>
            <circle id="Oval" fill="#FFFFFF" opacity="0.22" cx="1513.251" cy="840.601" r="5.496"></circle>
            <circle id="Oval" fill="#FFFFFF" opacity="0.22" cx="1517.494" cy="937.642" r="5.496"></circle>
            <polygon id="Path" fill="#C8D9E8" points="1920 633.568 1920 1057 1313.14 1056.924 1494.704 878.558 1664.233 970.662 1751.957 855.041"></polygon>
            <polygon id="Path" fill="#FFFFFF" points="1494.714 878.548 1604.93 1019.787 1598.58 976.166 1728.881 1029.328 1664.223 970.67"></polygon>
            <polygon id="Path" fill="#FFFFFF" points="1920 633.568 1920 916.678 1894.821 796.802 1862.92 916.678 1846.956 805.791 1751.957 855.041"></polygon>
            <circle id="Oval" fill="#FFFFFF" cx="1458.359" cy="990.805" r="8.309"></circle>
            <circle id="Oval" fill="#FFFFFF" cx="1507.443" cy="943.494" r="3.276"></circle>
            <circle id="Oval" fill="#FFFFFF" cx="1842.991" cy="983.792" r="7.013"></circle>
            <circle id="Oval" fill="#FFFFFF" cx="1768.687" cy="893.221" r="4.257"></circle>
            <circle id="Oval" fill="#FFFFFF" opacity="0.22" cx="466.39" cy="986.739" r="5.496"></circle>
            <polygon id="Path" fill="#C8D9E8" points="0.359 830.555786 178.90975 992.235 310.133518 932.748 566.359 1057 0.359 1057"></polygon>
            <polygon id="Path" fill="#FFFFFF" points="309.971 932.748 340.026 1032.309 348.887 982.529 566.359 1057"></polygon>
            <polygon id="Path" fill="#FFFFFF" points="0.299 830.874 26.6352834 991.521547 43.6788692 945.157957 86.8725497 1006.874 86.5399205 945.157957 153.559937 969.565262"></polygon>
        </g>
    </g>
</svg>