<svg id="Layer_1" data-name="Layer 1" xmlns="http://www.w3.org/2000/svg" viewBox="0 0 348 304"><defs><style>.cls-1{fill:#abc9ed}.cls-2{fill:#22386e}.cls-3{fill:#fff}.cls-4{fill:#e63d31}.cls-10,.cls-5,.cls-6{fill:none;stroke-miterlimit:10}.cls-5{stroke:#e63d31;stroke-width:1.4937px}.cls-6{stroke:#fff;stroke-width:1.39859px}.cls-7{fill:#2a51a2}.cls-8{fill:#f9ec23}.cls-9{fill:#7da0d3}.cls-10{stroke:#22386e;stroke-width:1.17693px}.cls-11{opacity:.1}.cls-12{fill:#e53e31}</style></defs><path class="cls-1" d="M173.905 23.199a106.785 106.785 0 0 0-66.617 190.244h58.226v17.313h42.234v-17.313h32.773A106.785 106.785 0 0 0 173.905 23.2z"/><path class="cls-2" d="M275.941 145.248S128.688 113.134 51.034 58.961z"/><path class="cls-3" d="M145.191 78.085a16.113 16.113 0 0 0 8.683-5.81 104.17 104.17 0 0 1 12.971 8.097 12.33 12.33 0 0 0 6.478 2.383l1.383 1.157 3.523-1.482a13.188 13.188 0 0 0 5.979 6.636c6.78 7.145 14.939 12.628 23.714 17.445a17.083 17.083 0 0 0 8.292 2.127l-1.11 5.747-9.014 42.958-35.448 14.1-31.997-6.56-24.464-29.98-3.895-28.217L127 79.881a16.795 16.795 0 0 0 18.191-1.796z"/><path class="cls-4" d="M113.354 76.618s.408-1.268 3.032-2.946q1.635 1.003 3.29 1.98zm-18.386 40.468c-10.433 16.747 1.783 24.37 1.783 24.37-.456-.998.099-5.941.099-5.941 1.986 14.257 12.729 25.91 12.729 25.91-.588-1.733-.995-10.324-.995-10.324 1.403 9.67 11.457 18.055 11.457 18.055-1.15-1.413-2.016-9.915-2.016-9.915 0 3.792 5.915 9.728 8.437 12.37a51.896 51.896 0 0 0 11.61 9.101c8.36 4.82 19.391 7.515 29.026 6.542 7.984-.806 20.362-3.225 26.408-9.189a35.13 35.13 0 0 1-12.357 7.888c29.718-3.193 36.236-22.748 36.236-22.748-.56 4.845-5.292 15.085-5.292 15.085 12.199-9.329 14.42-31.821 14.677-34.996 1.93 3.983.669 12.765.669 12.765 10.824-14.943-5.368-39.16-5.368-39.16 4.53 3.13 11.043 15.063 11.043 15.063-1.466-10.215-10.79-20.338-14.025-23.584a16.928 16.928 0 0 1-11.167-1.867c-8.775-4.817-16.934-10.3-23.714-17.445a13.23 13.23 0 0 1-6.027-6.749 13.252 13.252 0 0 1-11.336-1.945 104.17 104.17 0 0 0-12.971-8.097 16.113 16.113 0 0 1-8.683 5.81 16.763 16.763 0 0 1-18.676 1.54c-1.935-1.122-3.875-2.238-5.805-3.367l-4.978 16.132a30.31 30.31 0 0 0-15.925 8.015c1.793-.909 7.43-.007 7.43-.007-14.7 6.742-18.035 19.676-18.035 19.676a8.268 8.268 0 0 1 5.766-2.988zm79.388-1.15c-2.88 11.83-13.144 19.488-22.928 17.106-9.784-2.381-15.382-13.9-12.504-25.73 2.88-11.828 14.975-27.006 24.76-24.625 9.783 2.38 13.55 21.42 10.672 33.25zm52.196 26.951l-.286-.02c.007-.255.008-.396.008-.396a4.282 4.282 0 0 1 .278.416zm-93.387-20.08c7.658 4.01-11.19 7.85-11.19 7.85s-3.638-5.995-4.326-11.067c-.686-5.073 7.859-.792 15.516 3.218z"/><path class="cls-3" d="M169.91 164.343c-11.87 2.97-25.25.041-39.827-8.731a.648.648 0 0 1 .667-1.11c15.574 9.37 29.694 11.945 41.97 7.649 19.098-6.683 27.204-27.973 27.284-28.187a.648.648 0 0 1 1.214.45c-.082.22-8.404 22.078-28.07 28.96q-1.6.56-3.238.969z"/><path class="cls-3" d="M207.903 137.603s-.602-18.385-13.66-6.946c0 0 11-7.603 13.298 9.74"/><path class="cls-5" d="M154.903 119.919s-14.04 14.679-11.913-5.957"/><path class="cls-6" d="M136.182 110.133s-12.31 14.679-10.445-5.957"/><path class="cls-7" d="M219.704 98.535c1.51-3.707 3.151-7.637 4.594-11.46 1.107-2.935 4.18-8.25.608-10.663-2.695-1.82-6.749-1.188-9.818-1.513a60.66 60.66 0 0 0 7.788-16.254c5.42 4.39 15.148-.507 14.85-7.475a354.152 354.152 0 0 0 23.915 51.077c6.282-9.323 3.88-21.81.648-32.577a306.585 306.585 0 0 0-15.731-41.324c-5.544-11.9-14.227-25.008-27.35-25.38-6.978-.197-13.456 3.433-19.239 7.343a157.955 157.955 0 0 0-37.82 36.47c2.048-2.727 2.438-22.925-3.209-20.701-3.007 1.184-5.465 4.258-7.24 6.82a162.445 162.445 0 0 0-17.196 32.014l-3.868-1.47s-29.387-6.091-79.602-4.48c0 0 204.304 78.41 224.907 86.286 0 0-27.538-28.54-56.237-46.713z"/><path class="cls-8" d="M191.386 45.217L192.692 57.076 204.374 59.497 193.5 64.405 194.807 76.263 186.779 67.437 175.905 72.345 181.818 61.983 173.791 53.157 185.473 55.579 191.386 45.217z"/><path class="cls-8" d="M253.86 58.734l2.164 11.733 4.263-8.916q-3.187-9.621-7-19.019l-2.926-2.781 2.163 11.732-10.49 5.683z"/><path class="cls-9" d="M194.458 34.182l22.87-16.8-6.866-12.444a53.442 53.442 0 0 0-9.88 5.498 152.387 152.387 0 0 0-15.552 12.057z"/><path class="cls-10" d="M184.732 30.627L192.04 25.064"/><path class="cls-10" d="M197.452 28.648L200.665 33.93"/><path class="cls-10" d="M204.22 24.204L208.095 27.777"/><path class="cls-10" d="M210.927 20.055L213.439 24.269"/><path class="cls-10" d="M213.514 13.514L217.911 10.117"/><path class="cls-10" d="M210.891 8.354L215.46 5.608"/><path class="cls-2" d="M134.504 64.912s53.626 11.253 85.2 33.623c0 0-85.511-33.92-85.2-33.623z"/><path class="cls-11" d="M303.898 226.602a8.575 8.575 0 0 0-3.648-3.013 8.085 8.085 0 0 0 2.096-2.28 11.755 11.755 0 0 0 1.543-6.31 10.928 10.928 0 0 0-2.183-7.236 8.679 8.679 0 0 0-5.193-2.988 9.265 9.265 0 0 0 5.664-3.31 11.623 11.623 0 0 0 2.296-7.551c0-2.176-.242-5.355-2.342-7.84a9.425 9.425 0 0 0-7.347-3.235q-.784 0-3.414-.036-2.687-.036-6.573-.11-3.933-.07-8.715-.11-4.767-.035-9.678-.036c-3.678 0-6.43 1.122-8.178 3.33-.068.085-.126.177-.19.264a8.903 8.903 0 0 0-1.001-.971 10.564 10.564 0 0 0-6.827-2.258h-1.97a10.092 10.092 0 0 0-7.596 2.908 9.92 9.92 0 0 0-2.677 7.073c0 1.07.013 1.87.042 2.499q.034.803.07 2.06.033 1.175.065 3.18-.562-.927-1.1-1.82a288.582 288.582 0 0 0-3.097-5.038c-1.088-1.722-1.44-2.338-1.54-2.523a6.843 6.843 0 0 0-.134-.234 44.83 44.83 0 0 0-1.544-2.4 14.694 14.694 0 0 0-2.699-2.948 12.867 12.867 0 0 0-4.024-2.224 15.306 15.306 0 0 0-5.022-.752c-4.345 0-7.619 1.313-9.766 3.872a9.262 9.262 0 0 0-.694-.911 9.624 9.624 0 0 0-7.559-3.107h-2.772c-6.319 0-10.564 4.04-10.564 10.054v8.317c0 3.663-.024 8.778-.072 15.594q-.053 3.783-.087 6.596a10.947 10.947 0 0 0-1.752-.143h-11.499q.031-2.401.031-5.596c0-2.288.024-4.751.072-7.325.05-2.774.074-5.27.074-7.63q0-3.486.035-6.075.038-2.696.038-3.52c0-4.742-2.16-7.225-3.978-8.476-1.955-1.343-4.48-1.942-8.192-1.942-3.762 0-6.443.726-8.442 2.288a9.177 9.177 0 0 0-1.356 1.325 8.954 8.954 0 0 0-.883-.844 10.565 10.565 0 0 0-6.828-2.258h-1.969a10.092 10.092 0 0 0-7.596 2.908 9.919 9.919 0 0 0-2.677 7.073c0 1.07.013 1.87.041 2.499.023.534.047 1.219.07 2.066.023.782.044 1.843.066 3.176q-.563-.928-1.1-1.822a281.686 281.686 0 0 0-3.097-5.035c-1.089-1.727-1.443-2.346-1.545-2.533a5.427 5.427 0 0 0-.13-.227 44.643 44.643 0 0 0-1.544-2.4 14.643 14.643 0 0 0-2.695-2.946 12.84 12.84 0 0 0-4.026-2.225 15.284 15.284 0 0 0-5.023-.753c-4.555 0-7.947 1.426-10.08 4.233a13.075 13.075 0 0 0-2.485 6.647 26.17 26.17 0 0 0-2.558-3.15 26.614 26.614 0 0 0-9.95-6.512 34.739 34.739 0 0 0-12.28-2.094 41.8 41.8 0 0 0-8.424.792 27.844 27.844 0 0 0-7.51 2.675 25.16 25.16 0 0 0-6.237 4.714 35.537 35.537 0 0 0-4.633 6.038 28.034 28.034 0 0 0-3.636 8.823 40.676 40.676 0 0 0-.916 8.68 40 40 0 0 0 1.84 12.228 30.73 30.73 0 0 0 5.785 10.561 27.557 27.557 0 0 0 9.885 7.346 32.287 32.287 0 0 0 13.263 2.608 32.926 32.926 0 0 0 13.927-2.755c.636-.296 1.25-.615 1.852-.946l1.839 2.97a10.2 10.2 0 0 0-1.404 1.151 12.787 12.787 0 0 0-2.557 3.794q-.694 1.512-1.426 3.603-.406 1.114-1.391 3.768l-2.223 5.976q-1.232 3.313-2.49 6.754-1.224 3.345-2.175 5.85-.448 1.12-.699 1.822a25.684 25.684 0 0 0-.477 1.438 12.831 12.831 0 0 0-.336 1.375 9.757 9.757 0 0 0-.157 1.758 8.175 8.175 0 0 0 3.425 6.751 10.452 10.452 0 0 0 6.273 1.72 14.453 14.453 0 0 0 3.246-.32 9.248 9.248 0 0 0 3.573-1.647 8.698 8.698 0 0 0 2.528-3.044 14.455 14.455 0 0 0 .775-1.891l.917-2.705h2.382q.069.186.136.373c.243.672.486 1.318.728 1.931q.397 1.01.643 1.56a10.998 10.998 0 0 0 1.097 1.937 8.361 8.361 0 0 0 2.941 2.566 10.187 10.187 0 0 0 2.977 1.003 16.43 16.43 0 0 0 2.996.237 13.86 13.86 0 0 0 3.492-.386 9.29 9.29 0 0 0 3.508-1.709 8.326 8.326 0 0 0 .856-.798 19.145 19.145 0 0 0 3.841 2.087 24.322 24.322 0 0 0 9.155 1.624 25.432 25.432 0 0 0 9.572-1.654 18.38 18.38 0 0 0 5.608-3.532 8.462 8.462 0 0 0 2.637 2.725 12.138 12.138 0 0 0 4.099 1.621 26.748 26.748 0 0 0 4.297.525c1.416.073 3.12.11 5.063.11a46.479 46.479 0 0 0 7.759-.603 22.633 22.633 0 0 0 8.197-3.193c.028-.017.056-.035.083-.054a26.075 26.075 0 0 0 2.338-1.706 8.507 8.507 0 0 0 8.198 4.892h2.095a9.04 9.04 0 0 0 6.455-2.47 8.62 8.62 0 0 0 2.407-4.389 8.757 8.757 0 0 0 2.586 4.684c2.337 2.178 5.435 2.43 7.563 2.43a15.145 15.145 0 0 0 3.584-.358 8.81 8.81 0 0 0 4.018-2.088 7.853 7.853 0 0 0 2.43-4.404 12.028 12.028 0 0 0 .177-2.132v-.433l.008.017a16.378 16.378 0 0 0 4.344 5.26 22.095 22.095 0 0 0 6.352 3.51 25.138 25.138 0 0 0 8.676 1.396 28.334 28.334 0 0 0 7.96-1.03 20.019 20.019 0 0 0 6.404-3.103 14.764 14.764 0 0 0 4.538-5.453 15.07 15.07 0 0 0 1.478-6.552 17.858 17.858 0 0 0-.77-5.226 12.992 12.992 0 0 0-2.41-4.45 8.524 8.524 0 0 0 .817-.917 10.276 10.276 0 0 0 2.107-6.323 14.617 14.617 0 0 0-1.231-5.704 15.247 15.247 0 0 0-3.984-5.424 19.326 19.326 0 0 0-6.118-3.556 11.28 11.28 0 0 0 6.665-3.641c.03-.037.056-.077.087-.114a8.412 8.412 0 0 0 .653.896 8.677 8.677 0 0 0 3.946 2.656 12.137 12.137 0 0 0 3.879.554h2.663c1.316 0 2.833-.011 4.542-.037q2.473-.035 5.16-.036h4.998q4.633 0 8.213.036 3.664.038 4.7.037a8.81 8.81 0 0 0 7.861-4.023 12.32 12.32 0 0 0 1.61-6.687c0-3.392-.558-5.728-1.815-7.584z"/><path class="cls-3" d="M307.327 223.173a8.575 8.575 0 0 0-3.648-3.014 8.085 8.085 0 0 0 2.097-2.28 11.755 11.755 0 0 0 1.543-6.31 10.928 10.928 0 0 0-2.184-7.235 8.679 8.679 0 0 0-5.193-2.989 9.265 9.265 0 0 0 5.664-3.31 11.623 11.623 0 0 0 2.296-7.55c0-2.177-.242-5.355-2.341-7.84a9.425 9.425 0 0 0-7.348-3.236q-.784 0-3.413-.035-2.687-.037-6.573-.11-3.934-.071-8.715-.11-4.767-.036-9.678-.036c-3.679 0-6.431 1.121-8.179 3.33-.068.085-.126.176-.19.264a8.903 8.903 0 0 0-1-.972 10.564 10.564 0 0 0-6.828-2.258h-1.97a10.092 10.092 0 0 0-7.595 2.908 9.92 9.92 0 0 0-2.677 7.073c0 1.07.013 1.87.041 2.5q.035.802.07 2.059.033 1.175.066 3.181-.563-.927-1.1-1.82a288.51 288.51 0 0 0-3.097-5.038c-1.089-1.723-1.44-2.339-1.541-2.524a6.823 6.823 0 0 0-.134-.233 44.836 44.836 0 0 0-1.544-2.4 14.694 14.694 0 0 0-2.698-2.949 12.867 12.867 0 0 0-4.025-2.224 15.306 15.306 0 0 0-5.021-.752c-4.345 0-7.619 1.313-9.766 3.872a9.263 9.263 0 0 0-.694-.91 9.625 9.625 0 0 0-7.56-3.107h-2.771c-6.32 0-10.565 4.04-10.565 10.053v8.317c0 3.663-.024 8.779-.072 15.594q-.053 3.783-.086 6.596a10.947 10.947 0 0 0-1.753-.143h-11.498q.03-2.4.03-5.595c0-2.288.025-4.752.073-7.325.049-2.775.073-5.27.073-7.631q0-3.486.036-6.074.038-2.697.037-3.52c0-4.743-2.16-7.225-3.977-8.477-1.955-1.343-4.481-1.942-8.192-1.942-3.762 0-6.443.726-8.443 2.288a9.178 9.178 0 0 0-1.355 1.326 8.953 8.953 0 0 0-.884-.845 10.565 10.565 0 0 0-6.827-2.258h-1.97a10.092 10.092 0 0 0-7.595 2.908 9.919 9.919 0 0 0-2.678 7.073c0 1.07.014 1.87.042 2.5.023.533.047 1.218.07 2.065.023.782.044 1.843.066 3.176q-.563-.928-1.1-1.821a281.395 281.395 0 0 0-3.097-5.036c-1.09-1.726-1.443-2.346-1.546-2.532a5.41 5.41 0 0 0-.13-.227 44.643 44.643 0 0 0-1.543-2.4 14.643 14.643 0 0 0-2.695-2.947 12.84 12.84 0 0 0-4.027-2.225 15.284 15.284 0 0 0-5.022-.753c-4.555 0-7.948 1.426-10.08 4.234a13.075 13.075 0 0 0-2.485 6.646 26.171 26.171 0 0 0-2.558-3.15 26.614 26.614 0 0 0-9.95-6.511 34.739 34.739 0 0 0-12.28-2.095 41.8 41.8 0 0 0-8.425.792 27.844 27.844 0 0 0-7.51 2.675 25.16 25.16 0 0 0-6.236 4.714 35.537 35.537 0 0 0-4.633 6.038 28.035 28.035 0 0 0-3.637 8.823 40.676 40.676 0 0 0-.916 8.68 40 40 0 0 0 1.841 12.228A30.73 30.73 0 0 0 55.91 232.9a27.556 27.556 0 0 0 9.884 7.345 32.287 32.287 0 0 0 13.263 2.609 32.926 32.926 0 0 0 13.928-2.756c.636-.295 1.249-.615 1.851-.945l1.84 2.97a10.2 10.2 0 0 0-1.405 1.15 12.787 12.787 0 0 0-2.557 3.794q-.694 1.513-1.426 3.604-.406 1.114-1.39 3.767l-2.223 5.976q-1.233 3.314-2.49 6.754-1.225 3.346-2.176 5.851-.447 1.119-.698 1.822a25.685 25.685 0 0 0-.477 1.437 12.832 12.832 0 0 0-.336 1.376 9.758 9.758 0 0 0-.158 1.757 8.175 8.175 0 0 0 3.425 6.752 10.452 10.452 0 0 0 6.274 1.72 14.453 14.453 0 0 0 3.245-.32 9.248 9.248 0 0 0 3.573-1.648 8.698 8.698 0 0 0 2.528-3.044 14.456 14.456 0 0 0 .776-1.891l.917-2.705h2.382l.136.374c.243.672.486 1.317.728 1.93q.397 1.01.642 1.56a10.997 10.997 0 0 0 1.097 1.937 8.361 8.361 0 0 0 2.942 2.567 10.187 10.187 0 0 0 2.976 1.003 16.43 16.43 0 0 0 2.997.237 13.86 13.86 0 0 0 3.492-.387 9.29 9.29 0 0 0 3.507-1.708 8.325 8.325 0 0 0 .857-.798 19.145 19.145 0 0 0 3.841 2.086 24.322 24.322 0 0 0 9.154 1.625 25.432 25.432 0 0 0 9.573-1.654 18.38 18.38 0 0 0 5.608-3.532 8.462 8.462 0 0 0 2.636 2.724 12.138 12.138 0 0 0 4.1 1.622 26.746 26.746 0 0 0 4.297.524c1.416.074 3.12.11 5.062.11a46.48 46.48 0 0 0 7.76-.603 22.633 22.633 0 0 0 8.197-3.192l.083-.054a26.074 26.074 0 0 0 2.337-1.707 8.507 8.507 0 0 0 8.198 4.892h2.096a9.04 9.04 0 0 0 6.455-2.47 8.62 8.62 0 0 0 2.407-4.388 8.757 8.757 0 0 0 2.586 4.684c2.336 2.178 5.435 2.43 7.562 2.43a15.145 15.145 0 0 0 3.585-.358 8.81 8.81 0 0 0 4.018-2.09 7.853 7.853 0 0 0 2.43-4.403 12.028 12.028 0 0 0 .177-2.132v-.432l.008.016a16.378 16.378 0 0 0 4.344 5.261 22.094 22.094 0 0 0 6.351 3.51 25.138 25.138 0 0 0 8.677 1.395 28.333 28.333 0 0 0 7.96-1.03 20.018 20.018 0 0 0 6.404-3.102 14.764 14.764 0 0 0 4.538-5.453 15.069 15.069 0 0 0 1.477-6.553 17.859 17.859 0 0 0-.77-5.226 12.992 12.992 0 0 0-2.41-4.45 8.525 8.525 0 0 0 .818-.917 10.276 10.276 0 0 0 2.107-6.323 14.617 14.617 0 0 0-1.232-5.703 15.247 15.247 0 0 0-3.983-5.425 19.326 19.326 0 0 0-6.118-3.556 11.28 11.28 0 0 0 6.664-3.641c.031-.036.057-.077.087-.113a8.415 8.415 0 0 0 .653.895 8.677 8.677 0 0 0 3.946 2.657 12.137 12.137 0 0 0 3.88.553h2.662c1.317 0 2.834-.01 4.542-.037q2.474-.034 5.162-.036h4.997q4.633 0 8.212.037 3.665.038 4.701.036a8.81 8.81 0 0 0 7.86-4.022 12.32 12.32 0 0 0 1.61-6.688c0-3.392-.557-5.727-1.815-7.583z"/><path class="cls-12" d="M79.056 236.374a25.762 25.762 0 0 1-10.615-2.043 21.032 21.032 0 0 1-7.587-5.618 24.185 24.185 0 0 1-4.56-8.354 33.379 33.379 0 0 1-1.532-10.25 34.044 34.044 0 0 1 .766-7.295 21.48 21.48 0 0 1 2.809-6.785 28.99 28.99 0 0 1 3.794-4.961 18.605 18.605 0 0 1 4.632-3.502 21.294 21.294 0 0 1 5.764-2.042 35.2 35.2 0 0 1 7.113-.657 28.172 28.172 0 0 1 9.995 1.678 20.085 20.085 0 0 1 7.55 4.925 21.626 21.626 0 0 1 4.743 7.988 33.42 33.42 0 0 1 1.641 10.943 34.318 34.318 0 0 1-1.386 9.74 23.439 23.439 0 0 1-4.34 8.317 21.105 21.105 0 0 1-7.588 5.763 26.44 26.44 0 0 1-11.199 2.153zm.438-9.339q6.785 0 10.105-4.414 3.318-4.413 3.319-12a22.356 22.356 0 0 0-.802-6.02 14.754 14.754 0 0 0-2.481-5.07 12.402 12.402 0 0 0-4.232-3.502 12.915 12.915 0 0 0-5.982-1.313 14.031 14.031 0 0 0-6.055 1.24 10.452 10.452 0 0 0-4.232 3.575 20.003 20.003 0 0 0-1.167 1.896 13.128 13.128 0 0 0-.912 2.19 16.48 16.48 0 0 0-.62 2.954 33.163 33.163 0 0 0-.219 4.122q0 7.88 3.466 12.11 3.464 4.233 9.812 4.232zm35.018 7.952a3.804 3.804 0 0 1-2.699-.948 3.225 3.225 0 0 1-1.021-2.48v-1.788q0-1.423.036-3.429t.036-4.45q0-2.444.037-4.852.036-2.407.037-4.596v-3.72q0-2.26-.037-5.035-.038-2.77-.037-5.216 0-2.443-.036-4.195-.038-1.751-.036-2.116a7.69 7.69 0 0 1 1.276-4.742q1.275-1.677 4.924-1.678a9.089 9.089 0 0 1 2.919.402 6.362 6.362 0 0 1 2.005 1.094 8.12 8.12 0 0 1 1.497 1.641q.657.95 1.313 2.043.439.803 1.75 2.882 1.315 2.079 3.028 4.924 1.713 2.846 3.686 6.056 1.969 3.211 3.72 6.274 1.604 2.773 2.626 4.523 1.022 1.75 1.569 2.736a11.005 11.005 0 0 0 .838 1.35c.195.244.365.364.51.364q.511 0 .512-.875 0-.947-.146-4.998-.147-4.049-.145-9.958 0-4.377-.037-6.712-.038-2.333-.074-3.647-.036-1.314-.073-2.153-.038-.838-.036-2.225a3.593 3.593 0 0 1 .876-2.59 3.92 3.92 0 0 1 2.919-.912h1.969a4.22 4.22 0 0 1 2.736.803 3.396 3.396 0 0 1 .984 2.772v38.813a7.39 7.39 0 0 1-1.458 4.924q-1.462 1.715-5.472 1.714a7.14 7.14 0 0 1-4.962-1.641 17.624 17.624 0 0 1-3.356-4.268q-.584-.948-1.97-3.283-1.385-2.335-3.063-5.18-1.68-2.845-3.393-5.763-1.715-2.917-2.882-5.034-1.677-2.99-2.59-4.816-.913-1.822-1.385-2.808a12.905 12.905 0 0 0-.694-1.313.619.619 0 0 0-.51-.329c-.245 0-.365.244-.365.73q0 .803.11 4.523.108 3.721.108 9.411v2.772q0 2.19.037 4.816.038 2.626.036 5.107v3.647a2.89 2.89 0 0 1-1.24 2.627 5.52 5.52 0 0 1-3.064.802zm74.633-8.973a3.506 3.506 0 0 1 2.409.838q.946.84.948 3.758a10.57 10.57 0 0 1-.255 2.626 2.704 2.704 0 0 1-.767 1.387 2.389 2.389 0 0 1-1.204.547 10.719 10.719 0 0 1-1.64.11q-1.023 0-2.955-.037-1.935-.038-6.238-.037h-4.56q-2.372 0-4.487.037-2.116.035-3.72.036h-2.262a4.617 4.617 0 0 1-3.356-1.02 4.382 4.382 0 0 1-1.021-3.211q0-.657.072-3.21.073-2.553.11-5.837.036-3.282.11-6.821.07-3.538.072-6.165 0-2.626-.036-5.727-.038-3.1-.11-5.945-.073-2.846-.11-5.034-.036-2.19-.036-3.065a3.433 3.433 0 0 1 1.168-2.882q1.166-.911 4.45-.912 3.355 0 4.523.803 1.166.803 1.167 3.137 0 .803-.036 3.429-.037 2.626-.036 6.165 0 3.54-.073 7.515-.074 3.976-.073 7.44 0 3.466-.036 5.983-.038 2.517-.038 3.1a3.685 3.685 0 0 0 .548 2.445q.547.547 2.736.547zm11.819 8.9a3.573 3.573 0 0 1-2.955-1.058 4.268 4.268 0 0 1-.839-2.735c0-.147.012-.511.037-1.095q.035-.875.073-2.845.035-1.97.072-5.362.036-3.392.11-8.645.072-9.995.073-15.686v-8.317q0-3.574 4.086-3.574h2.772a3.445 3.445 0 0 1 2.699.911 3.92 3.92 0 0 1 .803 2.663v13.57q0 3.211-.037 7.478-.038 4.268-.036 8.39 0 4.123-.036 7.478-.038 3.356-.038 4.67a4.333 4.333 0 0 1-.984 3.21 3.89 3.89 0 0 1-2.809.948zm18.967.073a3.806 3.806 0 0 1-2.7-.948 3.224 3.224 0 0 1-1.02-2.48v-1.788q0-1.423.036-3.429t.037-4.45q0-2.444.036-4.852.036-2.407.036-4.596v-3.72q0-2.26-.036-5.035-.038-2.77-.036-5.216 0-2.443-.037-4.195-.038-1.751-.036-2.116a7.69 7.69 0 0 1 1.276-4.742q1.276-1.677 4.925-1.678a9.092 9.092 0 0 1 2.918.402 6.38 6.38 0 0 1 2.006 1.094 8.143 8.143 0 0 1 1.496 1.641q.656.95 1.313 2.043.438.803 1.751 2.882t3.028 4.924q1.713 2.846 3.684 6.056 1.97 3.211 3.72 6.274 1.605 2.773 2.627 4.523 1.022 1.75 1.568 2.736a10.986 10.986 0 0 0 .84 1.35c.193.244.364.364.51.364q.51 0 .511-.875 0-.947-.146-4.998-.147-4.049-.145-9.958 0-4.377-.037-6.712-.038-2.333-.073-3.647-.037-1.314-.073-2.153-.038-.838-.037-2.225a3.593 3.593 0 0 1 .876-2.59 3.922 3.922 0 0 1 2.918-.912h1.97a4.218 4.218 0 0 1 2.736.803 3.397 3.397 0 0 1 .985 2.772v38.813a7.39 7.39 0 0 1-1.46 4.924q-1.46 1.715-5.47 1.714a7.139 7.139 0 0 1-4.962-1.641 17.624 17.624 0 0 1-3.356-4.268q-.584-.948-1.97-3.283-1.387-2.335-3.064-5.18-1.679-2.845-3.392-5.763-1.716-2.917-2.882-5.034-1.679-2.99-2.59-4.816-.913-1.822-1.386-2.808a12.955 12.955 0 0 0-.694-1.313.619.619 0 0 0-.51-.33c-.244 0-.365.245-.365.73q0 .804.11 4.524.109 3.721.109 9.411v2.772q0 2.19.036 4.816.037 2.626.037 5.107v3.647a2.892 2.892 0 0 1-1.24 2.627 5.52 5.52 0 0 1-3.064.802zm58-19.552a1.447 1.447 0 0 0-1.349.548 2.433 2.433 0 0 0-.329 1.276q0 .656-.036 2.226-.037 1.57-.037 3.392a2.664 2.664 0 0 0 .912 2.407 5.135 5.135 0 0 0 2.737.584h5.617q1.97 0 4.159-.037 2.188-.035 4.158-.036h5.618a2.917 2.917 0 0 1 2.589 1.021 7.68 7.68 0 0 1 .694 3.94 6.373 6.373 0 0 1-.62 3.247 2.587 2.587 0 0 1-2.371.984q-1.023 0-4.633-.036-3.611-.036-8.28-.036h-4.998q-2.736 0-5.253.036-2.516.038-4.45.036h-2.663a5.981 5.981 0 0 1-1.824-.219 2.1 2.1 0 0 1-1.496-1.677 6.747 6.747 0 0 1-.109-1.241q0-.656.036-3.32.036-2.661.073-6.128l.073-7.077q.036-3.61.036-6.237 0-2.627-.036-5.763-.038-3.137-.036-6.02 0-2.88-.037-5.143-.038-2.26-.036-3.137a4.04 4.04 0 0 1 .693-2.553q.692-.875 3.1-.875 4.887 0 9.63.036 4.742.038 8.646.109 3.902.074 6.602.11 2.698.037 3.502.036a2.98 2.98 0 0 1 2.408.949q.802.949.802 3.647a5.609 5.609 0 0 1-.875 3.502 3.623 3.623 0 0 1-2.991 1.095q-.293 0-1.57-.037-1.276-.035-3.136-.036-1.861 0-3.976-.074-2.117-.07-4.086-.072-1.97 0-3.575-.037-1.605-.035-2.26-.036a2.128 2.128 0 0 0-2.41 2.407v8.025a2.862 2.862 0 0 0 .475 1.824 2.438 2.438 0 0 0 1.934.584h18.822a2.927 2.927 0 0 1 2.371.839 5.058 5.058 0 0 1 .694 3.1 5.714 5.714 0 0 1-.584 2.92 2.446 2.446 0 0 1-2.262.947zM98.96 271.795a2.233 2.233 0 0 0-1.354.306 1.618 1.618 0 0 0-.537.768l-2.044 6.03a8.252 8.252 0 0 1-.435 1.073 2.267 2.267 0 0 1-.664.792 2.827 2.827 0 0 1-1.098.486 8.305 8.305 0 0 1-1.79.153 4.5 4.5 0 0 1-2.503-.51 1.705 1.705 0 0 1-.716-1.483 3.246 3.246 0 0 1 .051-.588 6.962 6.962 0 0 1 .18-.715q.126-.433.357-1.074.23-.638.639-1.66.97-2.556 2.223-5.98 1.251-3.423 2.478-6.72 1.227-3.297 2.223-5.98.997-2.683 1.406-3.807.664-1.89 1.226-3.117a6.552 6.552 0 0 1 1.252-1.917 3.607 3.607 0 0 1 1.636-.945 9.547 9.547 0 0 1 2.428-.256 7.112 7.112 0 0 1 2.274.307 3.588 3.588 0 0 1 1.533 1.022 6.723 6.723 0 0 1 1.124 1.866q.484 1.15 1.048 2.784 2.298 6.747 4.42 12.19 2.119 5.442 3.551 9.172.869 2.352 1.253 3.527a6.373 6.373 0 0 1 .383 1.84 2.595 2.595 0 0 1-.101.715 1.357 1.357 0 0 1-.486.665 2.877 2.877 0 0 1-1.074.485 7.726 7.726 0 0 1-1.865.179 10.321 10.321 0 0 1-1.814-.128 3.947 3.947 0 0 1-1.125-.358 1.939 1.939 0 0 1-.69-.587 4.588 4.588 0 0 1-.46-.818q-.204-.46-.536-1.303-.332-.844-.664-1.763t-.69-1.84q-.358-.92-.563-1.635a1.637 1.637 0 0 0-.638-.972 3.857 3.857 0 0 0-1.559-.204zm7.564-4.855q.715 0 .715-.664a5.454 5.454 0 0 0-.358-1.508q-.357-1.047-1.175-3.194l-1.533-4.19q-.307-.92-.818-.92a.629.629 0 0 0-.51.255 1.714 1.714 0 0 0-.307.664l-.588 1.661q-.282.793-.792 2.325-.512 1.585-.818 2.479-.307.896-.46 1.405-.153.512-.204.716a1.67 1.67 0 0 0-.052.409q0 .562.767.562zm15.28-17.171a6.042 6.042 0 0 1 .128-1.329 1.875 1.875 0 0 1 .562-.971 2.807 2.807 0 0 1 1.277-.614 10.116 10.116 0 0 1 2.275-.204q2.453 0 3.27.818a2.715 2.715 0 0 1 .819 1.993q0 .717-.027 2.836-.026 2.121-.025 4.702 0 2.581-.025 5.137-.027 2.555-.026 4.139 0 4.958 1.89 7.308a6.605 6.605 0 0 0 5.469 2.35 6.101 6.101 0 0 0 5.264-2.452q1.789-2.454 1.789-7.206v-2.096q0-1.43-.025-3.168-.028-1.737-.026-3.629 0-1.89-.026-3.526-.026-1.635-.025-2.836v-1.559a2.689 2.689 0 0 1 .843-2.095 5.081 5.081 0 0 1 3.296-.767 3.812 3.812 0 0 1 2.786.818 3.173 3.173 0 0 1 .791 2.3v2.631q0 1.253-.025 2.913-.026 1.662-.025 4.038v6.005a28.808 28.808 0 0 1-.793 7.027 13.601 13.601 0 0 1-2.58 5.34 11.48 11.48 0 0 1-4.677 3.374 18.984 18.984 0 0 1-7.129 1.175 17.844 17.844 0 0 1-6.72-1.15 11.825 11.825 0 0 1-4.676-3.322 14.09 14.09 0 0 1-2.735-5.239 24.622 24.622 0 0 1-.894-6.898zm35.212.409a5.652 5.652 0 0 1 .307-2.02 2.266 2.266 0 0 1 1.277-1.226 8.932 8.932 0 0 1 2.785-.588q1.814-.153 4.727-.153a34.227 34.227 0 0 1 10.196 1.329 19.269 19.269 0 0 1 6.925 3.68 13.986 13.986 0 0 1 3.96 5.621 19.865 19.865 0 0 1 1.253 7.155 21.466 21.466 0 0 1-.588 5.238 17.27 17.27 0 0 1-1.61 4.166 14.66 14.66 0 0 1-2.453 3.27 19.219 19.219 0 0 1-3.169 2.555 16.112 16.112 0 0 1-5.851 2.3 39.828 39.828 0 0 1-6.67.51q-2.759 0-4.727-.101a20.622 20.622 0 0 1-3.245-.383 5.967 5.967 0 0 1-1.942-.716 1.778 1.778 0 0 1-.818-1.098 7.395 7.395 0 0 1-.179-1.662q-.026-1.097-.025-3.5v-3.603q0-2.12-.026-5.085-.026-2.963-.05-6.823-.027-3.858-.077-8.866zm19.266 23.764a9.174 9.174 0 0 0 3.143-3.833 14.376 14.376 0 0 0 1.303-6.388 12.458 12.458 0 0 0-.766-4.498 8.611 8.611 0 0 0-2.351-3.398 10.918 10.918 0 0 0-3.986-2.172 18.542 18.542 0 0 0-5.622-.767 6.67 6.67 0 0 0-2.76.409 1.311 1.311 0 0 0-.817 1.226v2.223q0 1.56.025 3.552l.052 4.191q.025 2.198.05 4.14.025 1.943.027 3.372v1.891a1.55 1.55 0 0 0 .74 1.33 4.893 4.893 0 0 0 2.632.51q1.737 0 3.015-.127a17.242 17.242 0 0 0 2.249-.359 9.579 9.579 0 0 0 1.712-.561 9.275 9.275 0 0 0 1.354-.741zm18.398 7.41a2.502 2.502 0 0 1-2.07-.741 2.985 2.985 0 0 1-.587-1.917c0-.102.008-.357.025-.766s.034-1.073.052-1.993q.025-1.38.051-3.757.025-2.376.077-6.056.05-7.001.05-10.987v-5.826q0-2.504 2.863-2.504h1.941a2.413 2.413 0 0 1 1.891.638 2.745 2.745 0 0 1 .562 1.866v9.505q0 2.25-.025 5.239-.026 2.99-.026 5.877t-.025 5.238q-.026 2.351-.026 3.27a3.032 3.032 0 0 1-.69 2.25 2.719 2.719 0 0 1-1.967.664zm17.222-26.269a2.94 2.94 0 0 0-.153-1.021q-.153-.41-.971-.41h-6.338a2.11 2.11 0 0 1-1.941-.817 4.826 4.826 0 0 1-.511-2.505q0-3.627 2.35-3.627 2.044 0 4.063.025 2.02.026 4.089.025 2.07 0 4.293.026 2.223.027 4.676.026l5.06-.102a2.577 2.577 0 0 1 2.018.715 4.519 4.519 0 0 1 .639 2.862 4.44 4.44 0 0 1-.588 2.785 1.745 1.745 0 0 1-1.303.638h-3.986q-1.28 0-2.658-.05-.767 0-.945.332a1.892 1.892 0 0 0-.18.894v24.224a5.736 5.736 0 0 1-.076.997 1.412 1.412 0 0 1-.46.792 2.466 2.466 0 0 1-1.124.536 9.276 9.276 0 0 1-2.07.179q-2.403 0-3.143-.69a2.622 2.622 0 0 1-.74-2.018zm21.976 14.157a3.193 3.193 0 0 1 1.89.511 6.411 6.411 0 0 1 1.33 1.303q.613.793 1.251 1.687a8.75 8.75 0 0 0 1.61 1.686 7.897 7.897 0 0 0 2.453 1.303 11.783 11.783 0 0 0 3.782.51 7.77 7.77 0 0 0 4.293-.867 2.735 2.735 0 0 0 1.226-2.352 3.988 3.988 0 0 0-.332-1.686 3.273 3.273 0 0 0-1.355-1.329 14.87 14.87 0 0 0-2.86-1.226q-1.84-.613-4.908-1.329a22.296 22.296 0 0 1-5.059-1.737 11.584 11.584 0 0 1-3.194-2.3 7.088 7.088 0 0 1-1.66-2.76 10.627 10.627 0 0 1-.46-3.169 11.548 11.548 0 0 1 1.047-5.11 9.69 9.69 0 0 1 2.862-3.526 11.902 11.902 0 0 1 4.293-2.02 21.361 21.361 0 0 1 5.34-.638 18.63 18.63 0 0 1 6.363.946 12.947 12.947 0 0 1 4.191 2.376 8.798 8.798 0 0 1 2.325 3.117 8.157 8.157 0 0 1 .715 3.17 3.786 3.786 0 0 1-.766 2.376 3.506 3.506 0 0 1-2.913.996 3.317 3.317 0 0 1-2.402-.792 5.165 5.165 0 0 1-1.227-1.814 11.48 11.48 0 0 0-.996-1.942 4.954 4.954 0 0 0-1.303-1.355 5.352 5.352 0 0 0-1.866-.792 12.345 12.345 0 0 0-2.734-.256 6.241 6.241 0 0 0-4.114 1.15 3.905 3.905 0 0 0-1.354 3.143 5.956 5.956 0 0 0 .255 1.79 3.643 3.643 0 0 0 1.048 1.558 7.458 7.458 0 0 0 2.325 1.354 23.856 23.856 0 0 0 4.14 1.125 30.753 30.753 0 0 1 6.158 1.814 12.416 12.416 0 0 1 3.705 2.35 6.859 6.859 0 0 1 1.815 2.888 11.315 11.315 0 0 1 .484 3.322 8.592 8.592 0 0 1-.843 3.756 8.312 8.312 0 0 1-2.58 3.066 13.548 13.548 0 0 1-4.344 2.07 21.819 21.819 0 0 1-6.133.767 18.666 18.666 0 0 1-6.44-.996 15.588 15.588 0 0 1-4.497-2.454 9.922 9.922 0 0 1-2.657-3.168 7.02 7.02 0 0 1-.869-3.144q0-3.372 2.965-3.372z"/></svg>