<svg width="193" height="43" viewBox="0 0 193 43" fill="none" xmlns="http://www.w3.org/2000/svg">
<path d="M37.5899 0C25.7664 0 16.184 9.6026 16.184 21.4444C16.184 33.2863 25.7664 42.8889 37.5899 42.8889C49.4134 42.8889 58.9958 33.2863 58.9958 21.4444C58.9913 9.6026 49.4089 0 37.5899 0ZM37.5854 26.8033C34.6318 26.8033 32.2328 24.4015 32.2328 21.4399C32.2328 18.4783 34.6273 16.0811 37.5854 16.0811C40.539 16.0811 42.938 18.4829 42.938 21.4399C42.938 24.406 40.5435 26.8033 37.5854 26.8033ZM0 21.4444C0 18.4829 2.39446 16.0856 5.35259 16.0856C8.30621 16.0856 10.7052 18.4874 10.7052 21.4444C10.7052 24.406 8.31072 26.8078 5.35259 26.8078C2.39446 26.8033 0 24.406 0 21.4444Z" fill="black"/>
<path d="M109.947 17.3407C113.117 17.3407 115.547 19.6973 115.547 23.002C115.547 23.1871 115.52 23.6115 115.493 23.7966C115.466 24.1126 115.178 24.3519 114.912 24.3519H107.092C107.119 25.8598 108.359 27.1826 110.132 27.1826C111.345 27.1826 112.192 26.7311 112.747 26.2842C113.036 26.0449 113.356 26.0178 113.541 26.2842L114.569 27.6611C114.781 27.9004 114.808 28.1893 114.515 28.4557C113.46 29.3541 111.953 30.1216 109.969 30.1216C106.326 30.1216 103.787 27.2097 103.787 23.7153C103.792 20.2797 106.33 17.3407 109.947 17.3407ZM112.219 22.1849C112.165 20.993 111.214 20.0675 109.87 20.0675C108.391 20.0675 107.44 20.9659 107.282 22.1849H112.219ZM141.801 12.632H129.373C129.084 12.632 128.872 12.8712 128.872 13.1331V15.3046C128.872 15.571 129.084 15.8057 129.373 15.8057H133.855V29.3315C133.855 29.5979 134.094 29.8327 134.356 29.8327H136.813C137.079 29.8327 137.314 29.5934 137.314 29.3315V15.8057H141.796C142.085 15.8057 142.297 15.5665 142.297 15.3046V13.1331C142.301 12.8667 142.089 12.632 141.801 12.632ZM160.492 17.3407C159.279 17.3407 158.061 17.6296 157.507 17.8689V13.2098C157.507 12.9209 157.241 12.6274 156.925 12.6274H154.783C154.495 12.6274 154.201 12.9164 154.201 13.2098V29.2503C154.201 29.5663 154.49 29.8327 154.783 29.8327H155.708C155.726 29.8327 155.744 29.8327 155.762 29.8281H156.01C156.33 29.8281 156.596 29.5618 156.596 29.2458V28.3428L156.609 28.2977C156.609 28.2977 158.007 30.1261 160.677 30.1261C164.005 30.1261 166.408 27.2142 166.408 23.7199C166.408 20.1443 164.109 17.3407 160.492 17.3407ZM160.199 27.1058C158.612 27.1058 157.768 26.0991 157.502 25.4128V21.0472C157.502 21.0472 158.508 20.361 160.037 20.361C162.043 20.361 163.076 21.9998 163.076 23.7244C163.076 25.449 162.102 27.1058 160.199 27.1058ZM180.874 17.3407C184.044 17.3407 186.475 19.6973 186.475 23.002C186.475 23.1871 186.448 23.6115 186.421 23.7966C186.394 24.1126 186.105 24.3519 185.839 24.3519H178.02C178.047 25.8598 179.287 27.1826 181.059 27.1826C182.272 27.1826 183.12 26.7311 183.675 26.2842C183.963 26.0449 184.283 26.0178 184.468 26.2842L185.496 27.6611C185.708 27.9004 185.735 28.1893 185.442 28.4557C184.387 29.3541 182.881 30.1216 180.897 30.1216C177.253 30.1216 174.715 27.2097 174.715 23.7153C174.719 20.2797 177.253 17.3407 180.874 17.3407ZM183.147 22.1849C183.093 20.993 182.141 20.0675 180.798 20.0675C179.319 20.0675 178.367 20.9659 178.209 22.1849H183.147ZM96.0264 17.3407C93.5147 17.3407 92.1258 19.0563 92.0402 19.1646V18.1895C92.0402 17.8734 91.7741 17.6071 91.4585 17.6071H90.1598C89.8441 17.6071 89.5781 17.8734 89.5781 18.1895V34.2299C89.5781 34.5188 89.8441 34.8123 90.1598 34.8123H92.3017C92.5903 34.8123 92.8834 34.5233 92.8834 34.2299V29.625C93.4381 29.8372 94.6015 30.1261 95.8145 30.1261C99.458 30.1261 101.866 27.3225 101.866 23.7469C101.866 20.0404 99.3543 17.3407 96.0264 17.3407ZM95.4177 27.1058C93.8845 27.1058 92.8834 26.4196 92.8834 26.4196V22.054C93.1495 21.3677 93.9927 20.361 95.58 20.361C97.4829 20.361 98.4615 22.0269 98.4615 23.7469C98.4615 25.467 97.4243 27.1058 95.4177 27.1058ZM124.503 17.3407C122.167 17.3407 121.031 18.5958 120.575 19.1059V18.1895C120.575 17.8734 120.309 17.6071 119.994 17.6071H118.609C118.321 17.6071 118.028 17.8463 118.028 18.1895V29.2503C118.028 29.5663 118.316 29.8327 118.609 29.8327H120.566C121.148 29.8327 121.333 29.7017 121.333 29.2503V22.2616C121.621 21.4129 122.388 20.3565 123.975 20.3565C125.454 20.3565 126.09 21.3361 126.09 22.9253V29.2503C126.09 29.5663 126.356 29.8327 126.672 29.8327H128.814C129.102 29.8327 129.396 29.5663 129.396 29.2503V22.9253C129.391 19.9592 128.385 17.3407 124.503 17.3407ZM146.684 17.3407C144.705 17.3407 142.775 17.8418 142.509 17.9502C142.243 18.0314 142.008 18.2391 142.112 18.6906L142.378 20.0675C142.432 20.4377 142.667 20.7312 143.063 20.5957C143.776 20.3836 145.39 20.1443 146.5 20.1443C147.794 20.1443 148.245 20.8847 148.191 22.4467C148.191 22.4467 147.081 22.1036 145.841 22.1036C142.752 22.1036 140.98 23.7695 140.98 25.9411C140.98 28.5595 142.671 30.1216 145.102 30.1216C147.005 30.1216 148.218 29.2728 148.93 28.5866V29.2458C148.93 29.5618 149.196 29.8281 149.512 29.8281H149.728C149.751 29.8327 149.778 29.8327 149.805 29.8327H150.702C151.018 29.8327 151.284 29.5663 151.284 29.2503V22.6589C151.279 19.3271 150.486 17.3407 146.684 17.3407ZM148.109 26.3654C147.952 26.8169 147 27.6611 145.918 27.6611C144.781 27.6611 144.146 26.9749 144.146 25.9411C144.146 24.8575 144.912 24.1939 146.31 24.1939C147.289 24.1939 148.105 24.5641 148.105 24.5641V26.3654H148.109ZM78.3994 12.641C73.5834 12.641 69.6648 16.5868 69.6648 21.44C69.6648 26.3474 73.4977 30.1938 78.3994 30.1938C83.3146 30.1938 87.161 26.3474 87.161 21.44C87.161 16.5913 83.2289 12.641 78.3994 12.641ZM78.3994 16.045C81.3079 16.045 83.7655 18.5145 83.7655 21.4445C83.7655 24.4016 81.3575 26.7988 78.3994 26.7988C75.4548 26.7988 73.0603 24.3971 73.0603 21.4445C73.0603 18.4648 75.4548 16.045 78.3994 16.045ZM172.573 29.8552C172.888 29.8552 173.159 29.5889 173.159 29.2728V27.1194C173.159 26.8033 172.893 26.537 172.577 26.537H172.482C172.221 26.537 171.959 26.2751 171.959 26.0133V25.9185V13.255C171.959 12.966 171.671 12.6726 171.378 12.6726H169.236C168.947 12.6726 168.654 12.9615 168.654 13.255V27.3857L168.663 27.7559C168.663 28.8078 169.714 29.8597 170.76 29.8597L172.573 29.8552ZM188.279 19.8237C188.279 18.3565 189.343 17.3542 190.632 17.3542C191.936 17.3542 193 18.3565 193 19.8237C193 21.291 191.936 22.2932 190.632 22.2932C189.343 22.2932 188.279 21.291 188.279 19.8237ZM192.499 19.8237C192.499 18.6454 191.688 17.8057 190.637 17.8057C189.586 17.8057 188.784 18.6454 188.784 19.8237C188.784 21.0156 189.586 21.8328 190.637 21.8328C191.683 21.8282 192.499 21.0156 192.499 19.8237ZM189.731 18.519H190.682C191.21 18.519 191.661 18.7312 191.661 19.3362C191.661 19.6386 191.471 19.9276 191.196 20.0269L191.773 21.0698H191.196L190.759 20.1939H190.245V21.0698H189.731V18.519ZM190.569 19.7831C190.908 19.7831 191.106 19.6296 191.106 19.3542C191.106 19.1059 190.966 18.9389 190.592 18.9389H190.24V19.7786H190.569V19.7831Z" fill="black"/>
</svg>
