<svg id="Layer_1" data-name="Layer 1" xmlns="http://www.w3.org/2000/svg" viewBox="0 0 28.84 26.6"><defs><style>.cls-1{fill:#e93e32;}</style></defs><title>Artboard 29 copy</title><rect class="cls-1" x="8.25" y="2.31" width="3.06" height="3.66" rx="1.03" ry="1.03"/><rect class="cls-1" x="17.53" y="2.31" width="3.06" height="3.66" rx="1.03" ry="1.03"/><path class="cls-1" d="M24.1,5.39H21.54a2,2,0,0,1-2,1.59h-1a2,2,0,0,1-2-1.59H12.26a2,2,0,0,1-2,1.59h-1a2,2,0,0,1-2-1.59H4.75A2.07,2.07,0,0,0,2.67,7.46V22.21a2.07,2.07,0,0,0,2.07,2.07H24.1a2.07,2.07,0,0,0,2.07-2.07V7.46A2.07,2.07,0,0,0,24.1,5.39Zm-.29,16.15H5.23V8.45H23.81Z"/><rect class="cls-1" x="7.18" y="11.71" width="2.5" height="2.5"/><rect class="cls-1" x="11.27" y="11.71" width="2.5" height="2.5"/><rect class="cls-1" x="15.26" y="11.71" width="2.5" height="2.5"/><rect class="cls-1" x="19.35" y="11.71" width="2.5" height="2.5"/><rect class="cls-1" x="7.18" y="15.78" width="2.5" height="2.5"/><rect class="cls-1" x="11.27" y="15.78" width="2.5" height="2.5"/><rect class="cls-1" x="15.26" y="15.78" width="2.5" height="2.5"/><rect class="cls-1" x="19.35" y="15.78" width="2.5" height="2.5"/></svg>