<svg xmlns="http://www.w3.org/2000/svg" xmlns:xlink="http://www.w3.org/1999/xlink" width="200" height="200" viewBox="0 0 200 200"><defs><style>.cls-1,.cls-18,.cls-19,.cls-21,.cls-22,.cls-23,.cls-24{fill:none;}.cls-2{isolation:isolate;}.cls-3{fill:#f6f6f6;}.cls-4{fill:#d27b6a;opacity:0.34;}.cls-5{clip-path:url(#clip-path);}.cls-6{fill:#1a1a1a;}.cls-16,.cls-17,.cls-18,.cls-6{mix-blend-mode:multiply;}.cls-17,.cls-7{fill:#221f1f;}.cls-8{fill:#b99ac8;}.cls-9{fill:#e7bf9a;}.cls-10{fill:#c97;}.cls-11{fill:#4d4e4e;}.cls-12{fill:#e89370;}.cls-13{fill:#e4755b;}.cls-14{fill:#f4bb92;}.cls-15{fill:#fff;}.cls-16{fill:#c16559;opacity:0.15;}.cls-17{opacity:0.1;}.cls-18{stroke:#17222b;stroke-linecap:round;stroke-width:1.56px;opacity:0.49;}.cls-18,.cls-19,.cls-21,.cls-22,.cls-23,.cls-24{stroke-miterlimit:10;}.cls-19{stroke:#eb9271;stroke-width:0.87px;}.cls-20{fill:#dc634e;}.cls-21{stroke:#414141;stroke-width:0.74px;}.cls-22{stroke:#5b5b5c;}.cls-22,.cls-23{stroke-width:0.73px;}.cls-23{stroke:#fff;}.cls-24{stroke:#c9c9c9;stroke-width:2px;}</style><clipPath id="clip-path"><circle class="cls-1" cx="100" cy="100" r="69.73"/></clipPath></defs><title>Artboard 105 copy 2</title><g class="cls-2"><g id="Layer_1" data-name="Layer 1"><circle class="cls-3" cx="100" cy="100" r="69.73"/><path class="cls-4" d="M135.85,66.32s7.38-11.26,13.69-1.75C149.54,64.57,143.23,60,135.85,66.32Z"/><path class="cls-4" d="M144.52,69.11s-2.51-4.48-8.67-2.75C135.85,66.36,143.39,61.67,144.52,69.11Z"/><g class="cls-5"><path class="cls-6" d="M92.51,190.78l-.09-15.35,16.13-.07.07,13.47,2.5-.28.12-21.7-20.91-1,.21,25.21C91.2,191,91.85,190.87,92.51,190.78Z"/><path class="cls-7" d="M110.41,168.39c1.1-.16,2.2-.29,3.31-.4l2.72-39.61-29.17,1,1.52,40.1Z"/><path class="cls-8" d="M68.63,146.34a64.67,64.67,0,0,1-14.65.52,67.67,67.67,0,0,1-19-4.13l1.25-3a65.34,65.34,0,0,0,18.07,3.9c9.55.72,23.59-.38,36.18-9.74l1.94,2.62A53.27,53.27,0,0,1,68.63,146.34Z"/><path class="cls-9" d="M37.56,140.5c2.52-1.22,8.63-11.26,4-11.64-3.59-.17-4.87,7.83-5.34,10.34l-.36-.07A23.13,23.13,0,0,0,30.94,138c-2.61-.28-15.42-.23-16.29,3.24-1.39,4.64,14.34,1.21,16.88.67-4.1,1-10.38,5.64-10.07,10.31,4.32,2.17,9.65-7.65,11.32-10.67-.6,2-3,9,1.11,7.5,2.14-.77,2.7-4.16,3-6.11"/><path class="cls-8" d="M133.77,148.31a63.53,63.53,0,0,0,14.65.52,67.51,67.51,0,0,0,19-4.13l-1.26-3a65.34,65.34,0,0,1-18.07,3.9c-9.55.73-23.58-.38-36.17-9.74l-2,2.62A53.2,53.2,0,0,0,133.77,148.31Z"/><path class="cls-9" d="M164.84,142.48c-2.52-1.23-8.62-11.27-4-11.65,3.59-.17,4.87,7.83,5.35,10.34l.35-.07a23.07,23.07,0,0,1,4.89-1.17c2.61-.28,15.41-.23,16.28,3.24,1.39,4.64-14.34,1.22-16.88.67,4.1,1,10.38,5.64,10.07,10.31-4.32,2.18-9.64-7.65-11.32-10.67.6,2,3,9-1.11,7.5-2.14-.77-2.7-4.16-3-6.11"/><polygon class="cls-8" points="116.76 136.6 114.25 169.18 88.1 168.98 86.7 136.4 101.55 157.5 116.76 136.6"/><path class="cls-9" d="M112.27,136.4s-9.59,30-21.45.58l20.82-.58"/><path class="cls-10" d="M111.57,138.44S101,145.58,90.42,139l3.18-3Z"/><path class="cls-10" d="M105,146c.15,0-3.63.26-3,3.86C102,149.88,102.42,146.73,105,146Z"/><path class="cls-10" d="M98.84,146c-.15,0,3.62.26,3,3.86C101.81,149.88,101.42,146.73,98.84,146Z"/><path class="cls-11" d="M147.41,94.93s1.82-12.71,14.31-12.16C161.72,82.77,151.84,86.89,147.41,94.93Z"/><path class="cls-11" d="M148.89,95.2S156,90.57,161.18,97C161.18,97,154.82,93.91,148.89,95.2Z"/><path class="cls-12" d="M130.11,73.36s1.43-8.37,11.5-8c12.55.52-1.85,12.62-1.85,12.62s-4.52,3.88-.34,6.56,3.34,5.49,1.65,7-4.77.88-6.29-1.23C128.22,81.17,130.11,73.36,130.11,73.36Z"/><path class="cls-13" d="M133.2,80.35s.89-16,6.5-6.54C139.7,73.81,135,69.3,133.2,80.35Z"/><path class="cls-13" d="M133.16,80.41s2.1-8.79,4.45,0C137.61,80.44,135.35,75.15,133.16,80.41Z"/><path class="cls-14" d="M137.18,78.25S136.16-6.2,76.58,12C21.37,28.83,53.42,93.57,53.42,93.57l19.2,34.7,50.07,15,26-22.21,6.88-13.47Z"/><path class="cls-15" d="M76.58,12c35.9-11,50.54,15.35,56.5,38l-.55,1.25S119.4-6.9,66.53,16A60.63,60.63,0,0,1,76.58,12Z"/><path class="cls-16" d="M122.35,88.91S103.11,59,116.37,56c0,0,10.27-7.91,17.91-1.92,0,0,3.48,17.23,2.9,24.16,0,0,.66,7.23-7.69,9.49S122.35,88.91,122.35,88.91Z"/><path class="cls-11" d="M52.57,91.72s2.57,22.66,5.12,16.72c0,0-.13,13.3,2.8,8.26,0,0,9.95,41.11,13.93,33.44,0,0,40.32,16,59.26.45,0,0,9.43,14.43,26.76-32a6.2,6.2,0,0,0-.67-5.62L147,93.94s7.26,21.07,3.87,17.8a80,80,0,0,1-5.76-6.6,9.57,9.57,0,0,0-9.18-3.43c-9.08,1.64-27.58,3.75-43.17-2.45a8.18,8.18,0,0,0-8.91,1.86c-3.48,3.59-8.34,9.06-11.34,14.44,0,0-10.58-17.89-15.48-26.12Z"/><path class="cls-11" d="M66.51,115.93s43.27-21.77,84.35-4.19l-6.62.62-7.79-8.76-16.94,2.66-26.26,1.43L78.87,113.6l-6.25,14.67Z"/><path class="cls-14" d="M79.79,123.31s5.42-9.75,13.46-15.62c0,0,23,10.15,20.53,3.79,0,0,20.32,2.77,25.15-2.63L145.06,121S117.54,151.25,79.79,123.31Z"/><path class="cls-17" d="M133.63,88.91C129.44,79,122.7,90,122.7,90L111.14,63.71l2.65,26.83S103.28,84.4,104.23,94c1.19,11.9,10.1,5.85,14.09,2.38.66,2.49,2.35,4.78,6.53,3.09,3-1.22,3.32-2.7,2.54-4C131.68,95.49,135.93,94.34,133.63,88.91Z"/><path class="cls-11" d="M56.55,139.39s-2-10.45,7.93-13.39C64.48,126,57.85,131.9,56.55,139.39Z"/><path class="cls-14" d="M51.81,91.68s-6.62-7.15-16-.45c-11.74,8.35,9.67,11,9.67,11s6.78.9,4.44,6.09-2.32,7,.22,7.36,7.68-1.79,7.81-4.78C58.51,98,51.81,91.68,51.81,91.68Z"/><path class="cls-13" d="M53.22,100.33s-10.9-14.85-10.35-2.22C42.87,98.11,44.53,90.86,53.22,100.33Z"/><path class="cls-13" d="M53.29,100.36s-7.52-7.12-4.26,2.81C49,103.17,47.9,96.68,53.29,100.36Z"/><path class="cls-18" d="M88.64,85.86s1-23,14.52-4"/><path class="cls-18" d="M124.64,74.21s-.11-21.48,8.68-3.32"/><path class="cls-16" d="M108.13,88.68S67.54,75,86.64,64.65c0,0,22.24-10,23.14,29.51Z"/><path class="cls-11" d="M76.9,73.68a20,20,0,0,1,2.2-3,24.28,24.28,0,0,1,2.62-2.45,22.83,22.83,0,0,1,6.22-3.59c.55-.24,1.14-.38,1.71-.57l.86-.26c.3-.08.59-.13.88-.19l1.78-.35L95,63.15l.9-.09h2.69c1.18.06,2.36.23,3.54.35l-.7,4c-1-.14-2.07-.34-3.1-.44l-1.56-.08-.77,0-.78,0L93.63,67l-1.53.23c-.25,0-.51.07-.76.12l-.74.2c-.5.15-1,.23-1.49.42a19.84,19.84,0,0,0-5.46,2.83,22.56,22.56,0,0,0-2.35,2,17.17,17.17,0,0,0-1.91,2.31Z"/><path class="cls-11" d="M136.38,51.1a18.08,18.08,0,0,0-3-1.31,20.6,20.6,0,0,0-3.08-.74,19.15,19.15,0,0,0-6.23,0c-.52.06-1,.22-1.52.33l-.75.19c-.25.07-.49.17-.73.25l-1.46.54-1.38.68-.69.34-.65.41-1.29.83c-.83.59-1.6,1.26-2.41,1.89l2.43,2.81c.68-.58,1.33-1.2,2-1.76l1.09-.77.54-.39.58-.31,1.16-.65,1.22-.51c.21-.09.41-.18.61-.25l.64-.19c.42-.11.84-.28,1.27-.35a16.13,16.13,0,0,1,5.33-.26,17.7,17.7,0,0,1,2.67.51,15.29,15.29,0,0,1,2.5.95Z"/><path class="cls-19" d="M86.93,55.51S98.23,43.28,118.88,45"/><path class="cls-19" d="M77.51,52.73s15.81-17.12,44.7-14.67"/><path class="cls-20" d="M114.58,88.77l-4-26.65,12.85,25.7s6.19-11.32,10.86-1.67c2.57,5.3-1.61,6.67-5.91,6.82.85,1.31.64,2.8-2.33,4.18-4.09,1.9-5.89-.3-6.67-2.76-3.82,3.67-12.41,10.16-14.19-1.67C103.78,83.18,114.58,88.77,114.58,88.77Z"/><path class="cls-15" d="M123.48,88s5.65-10.34,10.24-2.81C128.66,81.74,123.65,90,123.65,90l-13-27.68Z"/><path class="cls-15" d="M94.31,116.5a1.53,1.53,0,0,1-.64-.91c-.43-.16-.64-.25-1.06-.42a7.34,7.34,0,0,0-1.82,1.64,2.38,2.38,0,0,0-.2,2.43A4.12,4.12,0,0,0,94.85,121a6.13,6.13,0,0,0,3.25-2.26A24.51,24.51,0,0,1,94.31,116.5Z"/><path class="cls-15" d="M122,120.77c-.53,0-.86,0-1.29,0a8.58,8.58,0,0,1-2.14.45,23.85,23.85,0,0,1-3.28.53,2.1,2.1,0,0,1-2,.2h-.52a16.05,16.05,0,0,1-6.75-.56,40.89,40.89,0,0,1-7.82-2.63c-.33,1.87-.49,4.13,1.34,5.58a4.61,4.61,0,0,0,4.29.66,3.65,3.65,0,0,0,2.27-2.84,5.19,5.19,0,0,0,1.08,3.81,4.8,4.8,0,0,0,5.42.7,4.39,4.39,0,0,0,2.12-3.63,4,4,0,0,0,2.73,3.28,4.62,4.62,0,0,0,5-1.18A3.34,3.34,0,0,0,122,120.77Z"/><g id="_Mouth" data-name="+Mouth"><g id="Smile"><path class="cls-21" d="M124.62,119.3a28.65,28.65,0,0,1-33.94-6.49"/></g></g><path class="cls-22" d="M129.82,142.65s-23.44,14.64-52,.12"/><path class="cls-22" d="M93.71,136.09s-17.17.13-21.09-7.82"/><line class="cls-23" x1="137.18" y1="78.25" x2="147.47" y2="94.6"/></g><circle class="cls-24" cx="100" cy="100" r="69.73"/><path class="cls-7" d="M96.15,161.71A79.5,79.5,0,0,0,106.41,164a22.79,22.79,0,0,1,7.64-.77l2.39-34.81-29.17,1L88.51,162A10.79,10.79,0,0,1,96.15,161.71Z"/><path class="cls-8" d="M68.63,146.34a64.67,64.67,0,0,1-14.65.52,67.67,67.67,0,0,1-19-4.13l1.25-3a65.34,65.34,0,0,0,18.07,3.9c9.55.72,23.59-.38,36.18-9.74l1.94,2.62A53.27,53.27,0,0,1,68.63,146.34Z"/><path class="cls-9" d="M37.56,140.5c2.52-1.22,8.63-11.26,4-11.64-3.59-.17-4.87,7.83-5.34,10.34l-.36-.07A23.13,23.13,0,0,0,30.94,138c-2.61-.28-15.42-.23-16.29,3.24-1.39,4.64,14.34,1.21,16.88.67-4.1,1-10.38,5.64-10.07,10.31,4.32,2.17,9.65-7.65,11.32-10.67-.6,2-3,9,1.11,7.5,2.14-.77,2.7-4.16,3-6.11"/><path class="cls-8" d="M133.77,148.31a63.53,63.53,0,0,0,14.65.52,67.51,67.51,0,0,0,19-4.13l-1.26-3a65.34,65.34,0,0,1-18.07,3.9c-9.55.73-23.58-.38-36.17-9.74l-2,2.62A53.2,53.2,0,0,0,133.77,148.31Z"/><path class="cls-9" d="M164.84,142.48c-2.52-1.23-8.62-11.27-4-11.65,3.59-.17,4.87,7.83,5.35,10.34l.35-.07a23.07,23.07,0,0,1,4.89-1.17c2.61-.28,15.41-.23,16.28,3.24,1.39,4.64-14.34,1.22-16.88.67,4.1,1,10.38,5.64,10.07,10.31-4.32,2.18-9.64-7.65-11.32-10.67.6,2,3,9-1.11,7.5-2.14-.77-2.7-4.16-3-6.11"/><path class="cls-8" d="M96.12,162.48a42.16,42.16,0,0,0,10.39,2c2.65-.72,5.34-1.52,8-1.26l1.7-26.82-14.68,21.1L86.7,136.4,88,162.18C90.43,161.06,93.19,161.53,96.12,162.48Z"/><path class="cls-9" d="M112.27,136.4s-9.59,30-21.45.58l20.82-.58"/><path class="cls-10" d="M111.57,138.44S101,145.58,90.42,139l3.18-3Z"/><path class="cls-10" d="M105,146c.15,0-3.63.26-3,3.86C102,149.88,102.42,146.73,105,146Z"/><path class="cls-10" d="M98.84,146c-.15,0,3.62.26,3,3.86C101.81,149.88,101.42,146.73,98.84,146Z"/><path class="cls-11" d="M147.41,94.93s1.82-12.71,14.31-12.16C161.72,82.77,151.84,86.89,147.41,94.93Z"/><path class="cls-11" d="M148.89,95.2S156,90.57,161.18,97C161.18,97,154.82,93.91,148.89,95.2Z"/><path class="cls-12" d="M130.11,73.36s1.43-8.37,11.5-8c12.55.52-1.85,12.62-1.85,12.62s-4.52,3.88-.34,6.56,3.34,5.49,1.65,7-4.77.88-6.29-1.23C128.22,81.17,130.11,73.36,130.11,73.36Z"/><path class="cls-13" d="M133.2,80.35s.89-16,6.5-6.54C139.7,73.81,135,69.3,133.2,80.35Z"/><path class="cls-13" d="M133.16,80.41s2.1-8.79,4.45,0C137.61,80.44,135.35,75.15,133.16,80.41Z"/><path class="cls-14" d="M137.18,78.25S136.16-6.2,76.58,12C21.37,28.83,53.42,93.57,53.42,93.57l19.2,34.7,50.07,15,26-22.21,6.88-13.47Z"/><path class="cls-15" d="M76.58,12c35.9-11,50.54,15.35,56.5,38l-.55,1.25S119.4-6.9,66.53,16A60.63,60.63,0,0,1,76.58,12Z"/><path class="cls-16" d="M122.35,88.91S103.11,59,116.37,56c0,0,10.27-7.91,17.91-1.92,0,0,3.48,17.23,2.9,24.16,0,0,.66,7.23-7.69,9.49S122.35,88.91,122.35,88.91Z"/><path class="cls-11" d="M52.57,91.72s2.57,22.66,5.12,16.72c0,0-.13,13.3,2.8,8.26,0,0,9.95,41.11,13.93,33.44,0,0,40.32,16,59.26.45,0,0,9.43,14.43,26.76-32a6.2,6.2,0,0,0-.67-5.62L147,93.94s7.26,21.07,3.87,17.8a80,80,0,0,1-5.76-6.6,9.57,9.57,0,0,0-9.18-3.43c-9.08,1.64-27.58,3.75-43.17-2.45a8.18,8.18,0,0,0-8.91,1.86c-3.48,3.59-8.34,9.06-11.34,14.44,0,0-10.58-17.89-15.48-26.12Z"/><path class="cls-11" d="M66.51,115.93s43.27-21.77,84.35-4.19l-6.62.62-7.79-8.76-16.94,2.66-26.26,1.43L78.87,113.6l-6.25,14.67Z"/><path class="cls-14" d="M79.79,123.31s5.42-9.75,13.46-15.62c0,0,23,10.15,20.53,3.79,0,0,20.32,2.77,25.15-2.63L145.06,121S117.54,151.25,79.79,123.31Z"/><path class="cls-17" d="M133.63,88.91C129.44,79,122.7,90,122.7,90L111.14,63.71l2.65,26.83S103.28,84.4,104.23,94c1.19,11.9,10.1,5.85,14.09,2.38.66,2.49,2.35,4.78,6.53,3.09,3-1.22,3.32-2.7,2.54-4C131.68,95.49,135.93,94.34,133.63,88.91Z"/><path class="cls-11" d="M56.55,139.39s-2-10.45,7.93-13.39C64.48,126,57.85,131.9,56.55,139.39Z"/><path class="cls-14" d="M51.81,91.68s-6.62-7.15-16-.45c-11.74,8.35,9.67,11,9.67,11s6.78.9,4.44,6.09-2.32,7,.22,7.36,7.68-1.79,7.81-4.78C58.51,98,51.81,91.68,51.81,91.68Z"/><path class="cls-13" d="M53.22,100.33s-10.9-14.85-10.35-2.22C42.87,98.11,44.53,90.86,53.22,100.33Z"/><path class="cls-13" d="M53.29,100.36s-7.52-7.12-4.26,2.81C49,103.17,47.9,96.68,53.29,100.36Z"/><path class="cls-18" d="M88.64,85.86s1-23,14.52-4"/><path class="cls-18" d="M124.64,74.21s-.11-21.48,8.68-3.32"/><path class="cls-16" d="M108.13,88.68S67.54,75,86.64,64.65c0,0,22.24-10,23.14,29.51Z"/><path class="cls-11" d="M76.9,73.68a20,20,0,0,1,2.2-3,24.28,24.28,0,0,1,2.62-2.45,22.83,22.83,0,0,1,6.22-3.59c.55-.24,1.14-.38,1.71-.57l.86-.26c.3-.08.59-.13.88-.19l1.78-.35L95,63.15l.9-.09h2.69c1.18.06,2.36.23,3.54.35l-.7,4c-1-.14-2.07-.34-3.1-.44l-1.56-.08-.77,0-.78,0L93.63,67l-1.53.23c-.25,0-.51.07-.76.12l-.74.2c-.5.15-1,.23-1.49.42a19.84,19.84,0,0,0-5.46,2.83,22.56,22.56,0,0,0-2.35,2,17.17,17.17,0,0,0-1.91,2.31Z"/><path class="cls-11" d="M136.38,51.1a18.08,18.08,0,0,0-3-1.31,20.6,20.6,0,0,0-3.08-.74,19.15,19.15,0,0,0-6.23,0c-.52.06-1,.22-1.52.33l-.75.19c-.25.07-.49.17-.73.25l-1.46.54-1.38.68-.69.34-.65.41-1.29.83c-.83.59-1.6,1.26-2.41,1.89l2.43,2.81c.68-.58,1.33-1.2,2-1.76l1.09-.77.54-.39.58-.31,1.16-.65,1.22-.51c.21-.09.41-.18.61-.25l.64-.19c.42-.11.84-.28,1.27-.35a16.13,16.13,0,0,1,5.33-.26,17.7,17.7,0,0,1,2.67.51,15.29,15.29,0,0,1,2.5.95Z"/><path class="cls-19" d="M86.93,55.51S98.23,43.28,118.88,45"/><path class="cls-19" d="M77.51,52.73s15.81-17.12,44.7-14.67"/><path class="cls-20" d="M114.58,88.77l-4-26.65,12.85,25.7s6.19-11.32,10.86-1.67c2.57,5.3-1.61,6.67-5.91,6.82.85,1.31.64,2.8-2.33,4.18-4.09,1.9-5.89-.3-6.67-2.76-3.82,3.67-12.41,10.16-14.19-1.67C103.78,83.18,114.58,88.77,114.58,88.77Z"/><path class="cls-15" d="M123.48,88s5.65-10.34,10.24-2.81C128.66,81.74,123.65,90,123.65,90l-13-27.68Z"/><path class="cls-15" d="M94.31,116.5a1.53,1.53,0,0,1-.64-.91c-.43-.16-.64-.25-1.06-.42a7.34,7.34,0,0,0-1.82,1.64,2.38,2.38,0,0,0-.2,2.43A4.12,4.12,0,0,0,94.85,121a6.13,6.13,0,0,0,3.25-2.26A24.51,24.51,0,0,1,94.31,116.5Z"/><path class="cls-15" d="M122,120.77c-.53,0-.86,0-1.29,0a8.58,8.58,0,0,1-2.14.45,23.85,23.85,0,0,1-3.28.53,2.1,2.1,0,0,1-2,.2h-.52a16.05,16.05,0,0,1-6.75-.56,40.89,40.89,0,0,1-7.82-2.63c-.33,1.87-.49,4.13,1.34,5.58a4.61,4.61,0,0,0,4.29.66,3.65,3.65,0,0,0,2.27-2.84,5.19,5.19,0,0,0,1.08,3.81,4.8,4.8,0,0,0,5.42.7,4.39,4.39,0,0,0,2.12-3.63,4,4,0,0,0,2.73,3.28,4.62,4.62,0,0,0,5-1.18A3.34,3.34,0,0,0,122,120.77Z"/><g id="_Mouth-2" data-name="+Mouth"><g id="Smile-2" data-name="Smile"><path class="cls-21" d="M124.62,119.3a28.65,28.65,0,0,1-33.94-6.49"/></g></g><path class="cls-22" d="M129.82,142.65s-23.44,14.64-52,.12"/><path class="cls-22" d="M93.71,136.09s-17.17.13-21.09-7.82"/><line class="cls-23" x1="137.18" y1="78.25" x2="147.47" y2="94.6"/></g></g></svg>