<svg xmlns="http://www.w3.org/2000/svg" viewBox="0 0 256 256"><defs><style>.cls-1{fill:none;}.cls-1,.cls-4,.cls-5{stroke:#202020;stroke-miterlimit:2.61;stroke-width:1.18px;}.cls-2{fill:#aaa;}.cls-2,.cls-4,.cls-5{fill-rule:evenodd;}.cls-3,.cls-5{fill:#fff;}.cls-4{fill:#202020;}</style></defs><title>Rock Star</title><path class="cls-1" d="M85.95,141.26l15.69-67H144.4s18.63.2,18.63,17.1-18,18.09-18,18.09l.39,1.18a8.12,8.12,0,0,1,6.47,4.52,15.8,15.8,0,0,1,1.57,8.45s-1.18,16.51,2,17.69l11.77-18.87,1.37-.2,3.33,19.66h21.77l-19.42,12.78,3.34,19.85L159.89,162.1l-22.75,12,10.4-20.45-10-9.44s-4.51-4.32-4.12-9.63,1-9.24,1-9.24-.59-8.06-6.87-8.06h-15.3l-6.47,24.18-19.81-.2Z"/><path class="cls-2" d="M222.26,168.75a33.4,33.4,0,0,1-33.36,33.43H67.13a33.4,33.4,0,0,1-33.36-33.43V63.43A33.4,33.4,0,0,1,67.13,30H188.9a33.4,33.4,0,0,1,33.36,33.43V168.75Z"/><path class="cls-3" d="M59.47,227.74l3.71-15.59H70.6a12.84,12.84,0,0,1,3.33.32,3.21,3.21,0,0,1,1.78,1.22,3.76,3.76,0,0,1,.65,2.26,4,4,0,0,1-1.42,3.16,8.42,8.42,0,0,1-4.6,1.63A6.31,6.31,0,0,1,71.78,222a13.71,13.71,0,0,1,1.77,2.87l1.37,2.91H72.28L71,224.87a13.27,13.27,0,0,0-1.56-2.75,3,3,0,0,0-1.21-1.06,5.89,5.89,0,0,0-2-.25H63.48l-1.65,6.93Zm4.42-8.62h3.23q2.24,0,2.92,0a6.31,6.31,0,0,0,2.19-.53,3.29,3.29,0,0,0,1.32-1.12,2.69,2.69,0,0,0,.47-1.52,2.06,2.06,0,0,0-.35-1.19,1.72,1.72,0,0,0-.91-.69,7,7,0,0,0-1.91-.18H65.14l-1.26,5.27Z"/><path class="cls-3" d="M78.38,221.21a8.84,8.84,0,0,1,2.73-6.74,9.32,9.32,0,0,1,6.63-2.58,7.7,7.7,0,0,1,5.39,1.9,6.54,6.54,0,0,1,2.08,5.08,8.74,8.74,0,0,1-1.05,4.22,9.07,9.07,0,0,1-2,2.51,9.29,9.29,0,0,1-2.56,1.63,9.76,9.76,0,0,1-3.84.76,8.37,8.37,0,0,1-3.87-.89,6.17,6.17,0,0,1-2.64-2.49,6.84,6.84,0,0,1-.9-3.41Zm2.32.1a5,5,0,0,0,.65,2.52,4.45,4.45,0,0,0,1.93,1.79,5.93,5.93,0,0,0,2.7.65,6.16,6.16,0,0,0,2.61-.57,7.16,7.16,0,0,0,3.75-4.08,8.15,8.15,0,0,0,.56-2.91A4.81,4.81,0,0,0,91.42,215a5.18,5.18,0,0,0-3.67-1.38,6.84,6.84,0,0,0-4.92,2.09,7.47,7.47,0,0,0-2.13,5.6Z"/><path class="cls-3" d="M110.26,222.25l2.35.26a8.63,8.63,0,0,1-3.24,4.1,8.52,8.52,0,0,1-4.77,1.39,7.27,7.27,0,0,1-5.11-1.73,6.39,6.39,0,0,1-1.89-5,9.22,9.22,0,0,1,2.87-7,8.83,8.83,0,0,1,6.36-2.45,7.32,7.32,0,0,1,4.56,1.33,5.09,5.09,0,0,1,2,3.57l-2.21.18a4.08,4.08,0,0,0-1.45-2.52,4.55,4.55,0,0,0-2.83-.83,6.4,6.4,0,0,0-5.27,2.54,8.05,8.05,0,0,0-1.75,5.19,4.78,4.78,0,0,0,1.34,3.66,4.9,4.9,0,0,0,3.5,1.26,5.64,5.64,0,0,0,3.33-1,5.92,5.92,0,0,0,2.17-3Z"/><polygon class="cls-3" points="114.31 227.74 118.03 212.15 120.39 212.15 118.61 219.64 128.19 212.15 131.52 212.15 123.31 218.5 129.32 227.74 126.68 227.74 121.57 219.83 117.89 222.67 116.68 227.74 114.31 227.74 114.31 227.74"/><path class="cls-3" d="M131.42,222.69l2.32-.18,0,.54a2.85,2.85,0,0,0,2,2.81,7.44,7.44,0,0,0,2.6.41,5.51,5.51,0,0,0,3.26-.82,2.32,2.32,0,0,0,1.13-1.87,1.87,1.87,0,0,0-.6-1.34,11.7,11.7,0,0,0-3.31-1.61A25.44,25.44,0,0,1,136,219.4a5.4,5.4,0,0,1-1.77-1.5,3.15,3.15,0,0,1-.57-1.85,3.44,3.44,0,0,1,.75-2.17,4.64,4.64,0,0,1,2.2-1.48,9.82,9.82,0,0,1,3.27-.51,9.37,9.37,0,0,1,3.66.63,4.58,4.58,0,0,1,2.17,1.7,3.78,3.78,0,0,1,.67,2,1.16,1.16,0,0,1-.07.32l-2.24.16a3.14,3.14,0,0,0-.13-1,2.68,2.68,0,0,0-.75-1.09,3.76,3.76,0,0,0-1.4-.71,6.81,6.81,0,0,0-2-.27,5.11,5.11,0,0,0-3,.77,1.81,1.81,0,0,0-.82,1.55,1.66,1.66,0,0,0,.34,1,3.38,3.38,0,0,0,1.22.89q.63.31,3,1.22a21.35,21.35,0,0,1,2.64,1.17,4.32,4.32,0,0,1,1.49,1.37,3.27,3.27,0,0,1,.52,1.82,3.6,3.6,0,0,1-.88,2.33,5.64,5.64,0,0,1-2.43,1.65,10,10,0,0,1-3.55.58,9.43,9.43,0,0,1-4.93-1.15q-1.91-1.15-1.92-4.15Z"/><polygon class="cls-3" points="151.93 227.74 155.21 213.92 149.27 213.92 149.69 212.15 163.75 212.15 163.33 213.92 157.57 213.92 154.3 227.74 151.93 227.74 151.93 227.74"/><path class="cls-3" d="M158.89,227.74l10-15.59h2.9l2.91,15.59h-2.29l-.83-4.5h-7.21l-2.81,4.5Zm6.48-6.12h5.86l-.69-3.89a37.25,37.25,0,0,1-.51-3.92,27.25,27.25,0,0,1-1.78,3.2l-2.88,4.61Z"/><path class="cls-3" d="M177.1,227.74l3.71-15.59h7.42a12.85,12.85,0,0,1,3.33.32,3.21,3.21,0,0,1,1.78,1.22A3.76,3.76,0,0,1,194,216a4,4,0,0,1-1.42,3.16,8.42,8.42,0,0,1-4.6,1.63,6.34,6.34,0,0,1,1.46,1.22,13.69,13.69,0,0,1,1.77,2.87l1.37,2.91h-2.64l-1.29-2.88a13.29,13.29,0,0,0-1.56-2.75,3,3,0,0,0-1.21-1.06,5.89,5.89,0,0,0-2-.25h-2.72l-1.65,6.93Zm4.42-8.62h3.24q2.24,0,2.92,0a6.31,6.31,0,0,0,2.19-.53,3.28,3.28,0,0,0,1.32-1.12,2.69,2.69,0,0,0,.47-1.52,2.06,2.06,0,0,0-.35-1.19,1.72,1.72,0,0,0-.91-.69,7,7,0,0,0-1.91-.18h-5.72l-1.26,5.27Z"/><path class="cls-4" d="M86.34,141.26l15.69-67h42.76s18.63.2,18.63,17.1-17.65,19.27-17.65,19.27h0a8.12,8.12,0,0,1,6.47,4.52,15.8,15.8,0,0,1,1.57,8.45s-.94,17.2,2.2,18.38l-19.26.1c-2.21-1.77-3.24-3.39-2.94-7.47.39-5.31,1-9.24,1-9.24s-.59-8.06-6.87-8.06h-15.3l-6.47,24.18-19.81-.2Zm28.83-38.53H136s8-1,8-8.45-7.65-7.86-7.65-7.86H119.1l-3.92,16.32Z"/><polygon class="cls-5" points="148.74 153.13 139.69 172.32 160.2 160.76 177.35 173.31 173.47 154.02 191.67 142.64 171.29 142.49 167.94 124.36 156.01 141.95 137.34 141.95 148.74 153.13 148.74 153.13"/><path class="cls-1" d="M147.93,153.26l-9.61,20.64,21.82-12.38,18,13-3.92-20.2,20.4-12.43H171.86L168.33,123l-12.55,17.94-20.2,0,12.36,12.38Zm-.88.2-10.2,21.92,23.34-13.07L179.12,176l-4-21.33,21.77-13.47-24.42-.1-3.83-19.66-13.44,19.17-19.12.69,11,12.19Z"/></svg>