<svg xmlns="http://www.w3.org/2000/svg" xmlns:xlink="http://www.w3.org/1999/xlink" viewBox="0 0 450 480"><defs><style>.cls-1{isolation:isolate;}.cls-2{opacity:0.4;mix-blend-mode:multiply;fill:url(#radial-gradient);}.cls-3{fill:url(#linear-gradient);}</style><radialGradient id="radial-gradient" cx="-1988.56" cy="-55921.59" r="93.76" gradientTransform="translate(3176.84 6974.5) scale(1.48 0.12)" gradientUnits="userSpaceOnUse"><stop offset="0" stop-color="#404041"/><stop offset="1" stop-color="#231f20" stop-opacity="0"/></radialGradient><linearGradient id="linear-gradient" x1="250.32" y1="410.92" x2="191.73" y2="71.57" gradientUnits="userSpaceOnUse"><stop offset="0" stop-color="#e93722"/><stop offset="1" stop-color="#f86f25"/></linearGradient></defs><title>Artboard 1 copy 17</title><g class="cls-1"><g id="Layer_1" data-name="Layer 1"><ellipse class="cls-2" cx="238.75" cy="412.2" rx="138.53" ry="11"/><path class="cls-3" d="M125,308.23q10.83-2.11,18.35,1.32a60.21,60.21,0,0,1,14.59,9.63q7.08,6.21,14.57,13.31a82.17,82.17,0,0,0,17.87,12.66q10.37,5.57,25,7.62t35.78-2.07q28.27-5.49,38-15.7t7.1-23.87a37.4,37.4,0,0,0-6.09-15q-4.35-6-14.87-9.82t-28.58-6.18q-18.06-2.36-47.62-3.46t-49.76-7q-20.21-5.85-33.57-15.48a66.5,66.5,0,0,1-20.26-22.47,99.89,99.89,0,0,1-9.92-28.39q-5.31-27.32.5-49a91,91,0,0,1,20.07-37.64q14.25-16,36-26.31A200.56,200.56,0,0,1,190.19,75q34.86-6.78,60.36-2.69t42.9,14.4q17.41,10.31,27,24.58t12.28,27.93q2.47,12.72-2.81,23.28t-25.07,14.41q-14.61,2.84-23.56-3a48.57,48.57,0,0,1-14.56-14.53,107.74,107.74,0,0,0-12.67-16.12,46.51,46.51,0,0,0-14.44-10.15,50.06,50.06,0,0,0-18.62-4q-10.59-.38-25.67,2.54-25.44,4.95-35.87,18t-6.85,31.4a55.91,55.91,0,0,0,5.56,16q3.82,7.08,12.45,12.49T194.5,218q15.24,2.91,40.18,2.95,36.24.29,60,5.69t38.37,15Q347.66,251.26,355,265a106,106,0,0,1,10.43,29.76,80.74,80.74,0,0,1-1,36.14q-4.62,17.77-18.3,32.9t-36.34,26.87q-22.66,11.74-55.17,18.06-34.4,6.69-61.16,2.35t-45.86-14.56q-19.11-10.22-30.18-24.45t-13.64-27.42Q97.68,313.54,125,308.23Z"/></g></g></svg>