<svg xmlns="http://www.w3.org/2000/svg" viewBox="0 0 370 350">
  <defs>
    <style>
      .cls-1{isolation:isolate}.cls-2{fill:#f1f2f2}.cls-3{fill:#e6e7e8}.cls-4{fill:#91cdf0}.cls-18,.cls-19,.cls-20,.cls-5{fill:none}.cls-5{stroke:#27aae1;stroke-miterlimit:10;stroke-width:5.48px}.cls-6{fill:#27aae1}.cls-10,.cls-7{fill:#231f20}.cls-7{opacity:.2;mix-blend-mode:multiply}.cls-8{fill:#fedc00}.cls-9{fill:#f79421}.cls-11{fill:#939598}.cls-12{fill:#8b5e3c}.cls-13{fill:#a97c50}.cls-14{fill:#414042}.cls-15{fill:#e83d32}.cls-16{fill:#606161}.cls-17{fill:#fff}.cls-18{stroke:#e83d32}.cls-18,.cls-19,.cls-20{stroke-linecap:round;stroke-linejoin:round}.cls-18,.cls-20{stroke-width:1.93px}.cls-19,.cls-20{stroke:#fff}.cls-19{stroke-width:1.28px}
    </style>
  </defs>
  <title>
    Sad Cat Singing
  </title>
  <g class="cls-1">
    <g id="Layer_1" data-name="Layer 1">
      <circle class="cls-2" cx="202.6" cy="159.26" r="112.03"/>
      <circle class="cls-3" cx="202.6" cy="159.26" r="86.14"/>
      <path class="cls-4" d="M275 321c0 4.5-36 8.15-80.38 8.15s-80.38-3.65-80.38-8.15 36-8.14 80.38-8.14S275 316.47 275 321zM173.19 334c0 1.5-8.76 2.71-19.55 2.71s-19.56-1.21-19.56-2.71 8.76-2.72 19.56-2.72 19.55 1.22 19.55 2.72z"/>
      <path class="cls-4" d="M202.21 309c0 2.7-14.34 4.89-32 4.89s-32-2.19-32-4.89 14.35-4.88 32-4.88 32 2.2 32 4.88z"/>
      <path class="cls-5" d="M246.76 159.68c3.87.85 70.36 16.06 7.77 54.44M230.3 164.62c-3.62 1.62-13.89 49.5-86.67 36.55"/>
      <path class="cls-6" d="M224.4 231c.22-30.21-5.84-54.27-20.39-80.61a762.242 762.242 0 0 1 43.66-16c15.12 32.32 21.15 62 19.87 97.64-14.37-.03-28.78-.42-43.14-1.03z"/>
      <path class="cls-7" d="M219.69 189s28-.3 39.14-21.91l-30.63 2.25-10.78 11.69z"/>
      <path class="cls-8" d="M130.78 282.3c-3.73 9.66-2.13 19.27 3.57 21.47s13.36-3.83 17.09-13.48 2.13-19.27-3.57-21.47-13.36 3.83-17.09 13.48z"/>
      <path class="cls-8" d="M134 298c-9.69 21.49 21.91 27.39 36.24 19.8 7.58-4.21 17.28-15.17 13.48-24.43-3.79-10.12-16-7.59-21.91-1.69-3.37 3.37-6.74 9.27-11.37 10.95-5.06 1.27-8.43-3.37-11.38-6.74-.42-.84-.42 0-.84 0"/>
      <path class="cls-9" d="M134.47 297.54c-5.8 1.7-12.27 1.36-15.67-4.43-2-3.41-1.71-11.93-7.5-12.61-6.13-.34-5.45 8.18-4.09 11.59 2.26 5.63 7.58 11.05 13.57 12.59 5 1.29 9.06-.6 13.35-3.05a2.37 2.37 0 0 0 .88-2.44c-.22-1.82-.54-1.65-.54-1.65z"/>
      <ellipse class="cls-10" cx="132.83" cy="289.55" rx=".95" ry="3.4"/>
      <path class="cls-8" d="M143 269.45c2.76-6.26-4.88-6.76-4.88-6.76 1.4 1.51 1.76 5.84 1.85 7.95l-.26.13c-1-3.27-4.9-12.42-14.32-3.47 0 0 8.71 1.37 12.44 4.44l-.37.22c-3.17-.76-9.08-1.24-12.12 4.58a39.39 39.39 0 0 1 10.66-3.63"/>
      <path class="cls-4" d="M153.64 319.84S173 309.2 185.69 321l-9.45 2.55-9.45-1.3zM86.54 313.39c3.58 1.49 23.13 2 23.13 2s-14.14-13.51-17.72-15a7 7 0 0 0-5.41 13zM107.67 337.63c2.73-.74 14.23-9.13 14.23-9.13s-14.16-1.5-16.9-.74a5.11 5.11 0 0 0 2.66 9.87z"/>
      <path class="cls-11" d="M93.21 71.51c-8.61 2.94-12.57-1-17.12-8.3 2.24 11.14-11.56 18.93-21.8 14.45a9.64 9.64 0 0 1-5.36-5.24c-11.86 4.94-29.46 2.39-24.43-5.75 3.85-6.44 16.84-5.44 23.13-4.93C42.53 59.92 37 56.87 34.19 52c-4.1-6.88-2.35-21.55 8.23-18.76 6.33 1.35 10.13 10.32 12.07 15.64C56.41 29.21 86.14 31 80.17 53c1.74-6.75 7-10.36 13.71-9.45 16.8 2.06 12.47 23.54-.67 27.96zM305.19 177c4.76 1.62 6.94-.57 9.45-4.58-1.23 6.15 6.39 10.45 12.05 8a5.32 5.32 0 0 0 3-2.89c6.55 2.73 16.27 1.32 13.49-3.17-2.13-3.56-9.3-3-12.78-2.73 2.82-1 5.91-2.69 7.43-5.37 2.26-3.8 1.29-11.9-4.55-10.36-3.5.74-5.59 5.7-6.66 8.64-1.07-10.88-17.49-9.87-14.18 2.27a6.54 6.54 0 0 0-7.58-5.22c-9.32 1.14-6.93 13 .33 15.41z"/>
      <ellipse class="cls-12" cx="247.79" cy="251.84" rx="37.49" ry="4.87"/>
      <path class="cls-12" d="M210.3 242.09h74.9v10.05h-74.9z"/>
      <ellipse class="cls-13" cx="247.79" cy="242.09" rx="37.49" ry="4.87"/>
      <path class="cls-14" d="M224.4 228.49h43.31v7.36a5.63 5.63 0 0 1-5.63 5.63H230a5.63 5.63 0 0 1-5.63-5.63v-7.36zM246.17 315.36s-4.8 7.07-15.8 6.73l-.37 2.26s14.07 1.55 18.53-5.07l-.45 5.15 4.72-.36-1.19-9.37z"/>
      <path class="cls-12" d="M260.02 251.84h7.96v67.63h-7.96zM222.04 251.84H230v67.63h-7.96z"/>
      <path class="cls-14" d="M246.71 317.68c-9.71-18.91-28.71-64.93 5.44-83.58l2.43 4.46c-30.24 16.51-12.41 59.2-3.35 76.79zM217.38 312.91s-4.8 7.07-15.81 6.73l-.37 2.26s14.08 1.55 18.54-5.07l-.45 5.15 4.72-.36-1.19-9.37z"/>
      <path class="cls-14" d="M217.87 315.13c-15.16-33.06-17.36-57-6.54-71.26 13.27-17.45 40.67-13.27 41.87-13.08l-.8 5c-.38-.05-25.66-3.84-37 11.16-9.58 12.63-7.18 34.85 7.13 66zm34.53-79.32l.4-2.5z"/>
      <path class="cls-15" d="M145.07 200.38c3.77-1.14 14.44-13.7 8.07-15.26-4.94-1-8.48 9.77-9.69 13.14l-.48-.17a32.65 32.65 0 0 0-6.51-2.7c-3.55-1-21.3-3.72-23.28.9-3 6.11 19.6 4.84 23.25 4.64-5.91.47-15.63 5.54-16.24 12.07 5.51 4 15.06-8.46 18.05-12.28-1.29 2.69-6.18 11.81-.13 10.63 3.14-.6 4.67-5.16 5.5-7.8M250.72 208.64c3.39-2 10.74-16.76 4.18-16.74-5 .18-5.9 11.51-6.26 15.08l-.51-.06a32.37 32.37 0 0 0-7-1c-3.68-.09-21.57 1.48-22.39 6.44-1.4 6.64 20.19 0 23.68-1.06-5.62 1.87-13.84 9.12-12.87 15.61 6.3 2.53 12.59-11.83 14.58-16.25-.61 2.92-3.17 12.94 2.42 10.35 2.91-1.33 3.3-6.13 3.48-8.89"/>
      <circle class="cls-16" cx="65.84" cy="142.97" r="35.69"/>
      <path class="cls-16" d="M95.89 143c1.8 0 35.63 13.82 35.63 13.82l-38.64-2.41z"/>
      <path class="cls-17" d="M77.34 133.71c.28-1.44-.13-1.78-1.54-1.31-3.83 1.27-7.71 2.41-11.58 3.55a2.11 2.11 0 0 0-1.75 1.84c-.83 4.73-1.81 9.45-2.63 14.18s-3.51 7.43-8 8.09a7.39 7.39 0 0 1-7.17-3.68 5.28 5.28 0 0 1 3.33-7.56 8.16 8.16 0 0 1 8.57 2.55c.28.32.38 1 1 .81s.49-.74.51-1.21c.22-3.93.46-7.85.65-11.78.13-2.74.24-5.48.29-8.22 0-1 .38-1.55 1.38-1.69l20.12-2.88c1.28-.19 2.56-.35 3.84-.55.95-.14 1.4.18 1.22 1.18 0 .2-.08.4-.12.61-.49 3-.48 3-3.5 3.3-.8.06-1.17.33-1.3 1.17-.81 5.16-1.72 10.31-2.49 15.47-.88 5.9-6.93 9.46-12 6.95-2.83-1.41-4.2-4.18-3.41-6.9.67-2.35 3.39-3.89 6.35-3.7a7.83 7.83 0 0 1 5.89 2.82c.24.3.4.82.93.65s.47-.64.5-1.05c.31-4.23.57-8.46.91-12.64z"/>
      <path class="cls-4" d="M171.6 216s-15.82 31.81 1 32.06-1-32.06-1-32.06zM203.5 208.81s-10.56 21.24.69 21.41-.69-21.41-.69-21.41z"/>
      <path class="cls-3" d="M37.1 96s-20 12.76-10.44 18.7S37.1 96 37.1 96zM45.77 193.38s-20 12.75-10.45 18.69 10.45-18.69 10.45-18.69zM81.1 80s-20 12.76-10.44 18.7S81.1 80 81.1 80zM333.77 195.38s-20 12.75-10.45 18.69 10.45-18.69 10.45-18.69zM331.73 238.57s-13.68 8.73-7.14 12.79 7.14-12.79 7.14-12.79zM71.73 191.91s-13.68 8.72-7.14 12.78 7.14-12.78 7.14-12.78zM313.1 226s-20 12.76-10.44 18.7S313.1 226 313.1 226zM302.44 186.71s-20 12.75-10.45 18.69 10.45-18.69 10.45-18.69z"/>
      <path class="cls-17" d="M249.08 157.99l32.78-36.1-13.79-54.38-4.65-17.19 2.65-37.34-12.42-3.21-25.09 17.97-23.99 27.48-51.03-12.56-25.83-6.34 19.86 40.83-4.15 40.41 20.32 30.2 44.93 20.67 40.41-10.44z"/>
      <path class="cls-15" d="M131.68 138.1c-2.57 25.09 15.73 27 15.73 27-1.08-.9-3.22-6.88-3.22-6.88 10.29 15.25 29.17 22.59 29.17 22.59-1.65-1.66-6.94-11.29-6.94-11.29 7 10.31 23.29 14.29 23.29 14.29-2.11-1-7.88-10.25-7.88-10.25 8.38 6.86 16.17 9.44 21.17 10.3a24.55 24.55 0 0 0 5.64.48l2.12-.1s-.06.08-.08.12a44.09 44.09 0 0 1 10.19-.81c-13-.47-7.69.65-.64-1.61 5.17-1.66 8.93-1.91 12.94-4.8 8.33-6 16.74-11.69 25.4-17.22 9.47-6 14.35-11.32 22.23-18.4l5.37-3.53c2.27-4.06 4.67-8 7.35-11.85.43-.63.92-1.21 1.39-1.8a113.11 113.11 0 0 0-.35-13.39c1.89 2 2.87 6.13 3.38 10.09a31.26 31.26 0 0 1 4.3-3.35v-.21a11.94 11.94 0 0 1 .76-2.41l-.47.57c-.49-11-5.85-22.17-5.85-22.17 4.94 2.45 9 15 9 15 4-23.24-28.16-41.94-28.16-41.94 7 1 21.14 11.09 21.14 11.09-9-13.23-31.23-19.81-31.23-19.81 7.46-38.51.9-51.14.9-51.14-29.09.25-51 28-51 28a42.17 42.17 0 0 0-35.67-.12c7-1.16 14.95 2.46 14.95 2.46a137 137 0 0 0-26.87 4.73c-3.95-3.87-18.82-15.45-46.38-3.67 0 0 3.55 22.45 13.34 32.18-7.16 7.45-6.61 11.09-6.61 11.09l8.07-5.6 3.52 22.37a38.78 38.78 0 0 0-13.78 18.15c1.55-2 8.52-4.18 8.52-4.18-13.08 16-9.65 32.72-9.65 32.72a10.59 10.59 0 0 1 4.91-6.7zM232.76 36.23s13.8-19.15 28.56-19.11c0 0 1.95 19.64-4.51 30.66 0 0-11.88-8.78-24.05-11.55zm-99.22 6.84c16.18-4.77 30 3.63 27.93 5.41-4.8 4.13-15 20.54-15 20.54-9.8-4.88-12.93-25.95-12.93-25.95z"/>
      <path class="cls-15" d="M297.52 93.68s12.43 30 3 48.88c0 0-.33-14.41-2.4-20.29 0 0 3.5 26.11-28.82 46.47a45 45 0 0 0 10.79-19.41S245 191 203.93 184l56.76-42.84s17.36-39.48 18-39.85 18.83-7.63 18.83-7.63z"/>
      <path class="cls-17" d="M179.3 102.6c-3.34-15.2 2-39.42 14.59-42.18s27.59 17 30.93 32.17S219 120 206.43 122.75s-23.79-4.96-27.13-20.15z"/>
      <path class="cls-18" d="M190.47 105.94s20 26.32 23.15-7"/>
      <path class="cls-19" d="M156.14 110.76s8.63 18.84 17.1-1"/>
      <path class="cls-4" d="M208 128.6s-10.87 21.85.7 22-.7-22-.7-22z"/>
      <path class="cls-20" d="M199.79 167.28s5-19.08 17.52-3"/>
      <path class="cls-17" d="M181.4 123.62c11 .3-8.44 15.3-8.44 15.3s-7.55-4.84-11.18-10.28 8.57-5.32 19.62-5.02z"/>
      <path class="cls-15" d="M177 71.8s19.17 26.87 68.57 21.56L228.1 56.78l-22.91-6-16.74 1.81-14 16"/>
      <path class="cls-4" d="M160.61 144.79s-10.75 21.6.69 21.77-.69-21.77-.69-21.77z"/>
    </g>
  </g>
  <!--

           *                  *
               __                *
            ,db'    *     *
           ,d8/       *        *    *
           888
           `db\       *     *
             `o`_                    **
        *               *   *    _      *
              *                 / )
           *    (\__/) *       ( (  *
         ,-.,-.,)    (.,-.,-.,-.) ).,-.,-.
        | @|  ={      }= | @|  / / | @|o |
       _j__j__j_)     `- - -/ /__j__j__j_
       ________(               /___________
        |  | @| \              || o|O | @|
        |o |  |,'\       ,   ,'"|  |  |  |
       vV\|/vV|`-'\  ,- -\   | \Vv\hjwVv\//v
                  _) )    `. \ /
                 (__/       ) )
                           (_/


    - – - – - – - – - – - – - – - – - – - – - – -
    The clues were all there, weren't they? ;-)
    - – - – - – - – - – - – - – - – - – - – - – -

    Well done, Behemoth the Cat! ;-) You passed the
    third level! It's raining quite a lot this
    time of the year, especially on Mondays.

    Do you remember Prince's Manic Monday song? And
    what about purple houses everewhere? Are right,
    it's Purple Rain! Bingo! The correct answer is ☔
    (Umbrella With Rain Drops emoji). Please write it down.

    - – - – - – - – - – - – - – - – - – - – - – -
    Ready for Level 4? Here we go!
    To move to the next level, just follow
    the link below. Once (you think) you
    have an answer, you'll need to confirm it.
    Clue: find Felix the cat first. Good luck!

    Just follow the link below:
    https://cloud.netlifyusercontent.com/assets/344dbf88-fdf9-42bb-adb4-46f01eedd629/00e08593-0032-49a1-bd1c-0bf7a16886c1/what-did-i-put-in-the-box.gif

    Vitaly and the Smashing Team

    (Cat credit: hjw.
    https://user.xmission.com/~emailbox/ascii_cats.htm)
  -->
</svg>
