<svg width="26" height="29" viewBox="0 0 26 29" fill="none" xmlns="http://www.w3.org/2000/svg">
<path fill-rule="evenodd" clip-rule="evenodd" d="M0.172852 0H25.5547V20.6227L12.8638 28.5545L0.172852 20.6227V0ZM3.89758 13.4238C4.1364 14.8775 5.22667 15.594 6.76342 15.594C8.41439 15.594 9.57734 14.6699 9.57734 13.2785C9.57734 11.9805 8.75705 11.5652 7.41758 11.1499L6.88802 10.9837C6.03658 10.7138 5.5174 10.5165 5.5174 9.89346C5.5174 9.34313 5.97428 8.94856 6.73227 8.94856C7.54218 8.94856 7.98867 9.31199 8.14442 9.93499L9.39044 9.83116C9.23469 8.61629 8.30017 7.82715 6.7738 7.82715C5.1436 7.82715 4.12602 8.72013 4.12602 9.96614C4.12602 11.1499 4.93593 11.7521 6.26501 12.1259L6.82572 12.2817C7.68755 12.5205 8.21711 12.697 8.21711 13.3719C8.21711 14.0468 7.69793 14.5037 6.80496 14.5037C5.90159 14.5037 5.30974 14.0468 5.16437 13.3096L3.89758 13.4238ZM10.296 13.4238C10.5348 14.8775 11.6251 15.594 13.1618 15.594C14.8128 15.594 15.9757 14.6699 15.9757 13.2785C15.9757 11.9805 15.1555 11.5652 13.816 11.1499L13.2864 10.9837C12.435 10.7138 11.9158 10.5165 11.9158 9.89346C11.9158 9.34313 12.3727 8.94856 13.1307 8.94856C13.9406 8.94856 14.3871 9.31199 14.5428 9.93499L15.7888 9.83116C15.6331 8.61629 14.6986 7.82715 13.1722 7.82715C11.542 7.82715 10.5244 8.72013 10.5244 9.96614C10.5244 11.1499 11.3343 11.7521 12.6634 12.1259L13.2241 12.2817C14.086 12.5205 14.6155 12.697 14.6155 13.3719C14.6155 14.0468 14.0963 14.5037 13.2034 14.5037C12.3 14.5037 11.7081 14.0468 11.5628 13.3096L10.296 13.4238ZM21.9069 15.4278H17.2136V7.97252H18.5219V14.2857H21.9069V15.4278Z" fill="white" fill-opacity="0.5"/>
</svg>
