<svg xmlns="http://www.w3.org/2000/svg" xmlns:xlink="http://www.w3.org/1999/xlink" viewBox="0 0 450 480"><defs><style>.cls-1{isolation:isolate;}.cls-2{opacity:0.3;mix-blend-mode:multiply;fill:url(#radial-gradient);}.cls-3{fill:url(#linear-gradient);}</style><radialGradient id="radial-gradient" cx="4872.52" cy="-55938.89" r="93.76" gradientTransform="translate(-3257.48 6974.5) scale(0.73 0.12)" gradientUnits="userSpaceOnUse"><stop offset="0" stop-color="#404041"/><stop offset="1" stop-color="#231f20" stop-opacity="0"/></radialGradient><linearGradient id="linear-gradient" x1="286.52" y1="405.16" x2="218.16" y2="85.33" gradientUnits="userSpaceOnUse"><stop offset="0" stop-color="#e93722"/><stop offset="1" stop-color="#f86f25"/></linearGradient></defs><title>Artboard 1 copy 18</title><g class="cls-1"><g id="Layer_1" data-name="Layer 1"><ellipse class="cls-2" cx="276.53" cy="410.17" rx="68" ry="11"/><path class="cls-3" d="M199.48,167.25a27.6,27.6,0,0,0-3.25-9.15q-2.15-3.49-9.69-2l-58.43,11.36q-13.2,2.56-19.37-4.06t-9.2-22.17q-6.5-33.45,15.17-37.67,18.84-3.66,37.5-7T190,89.4q19.08-3.71,39.63-7.46t43.16-8.15l46.46-10q12.72-2.47,19.89,3t11,25.24q3.85,19.79-.43,26.73T338.83,127l-36.75,7.14q-11.78,2.29-24.59,4.29-7.07,1.37-8.12,4.76a17.78,17.78,0,0,0,0,8.57l43.41,223.34a54.27,54.27,0,0,1,1.08,9.33,13.28,13.28,0,0,1-2.82,8.13q-2.89,4-9.4,7t-18.76,5.36q-22.15,4.31-30.21-.73t-10.45-17.28Z"/></g></g></svg>