<svg xmlns="http://www.w3.org/2000/svg" xmlns:xlink="http://www.w3.org/1999/xlink" width="200" height="200" viewBox="0 0 200 200"><defs><style>.cls-1,.cls-18,.cls-20,.cls-8{fill:none;}.cls-2{isolation:isolate;}.cls-3{clip-path:url(#clip-path);}.cls-4{fill:#211f1f;opacity:0.15;}.cls-10,.cls-4{mix-blend-mode:multiply;}.cls-5{fill:#221f1f;}.cls-6{fill:#080708;}.cls-7{fill:#f6f6f6;}.cls-8{stroke:#c9c9c9;stroke-width:2px;}.cls-20,.cls-8{stroke-miterlimit:10;}.cls-9{clip-path:url(#clip-path-2);}.cls-10{fill:#603917;}.cls-11{fill:#c0272d;}.cls-12{fill:#e9ba95;}.cls-13{fill:#282219;}.cls-14{fill:#ca9474;}.cls-15{fill:#6c2f2a;}.cls-16,.cls-22{fill:#fff;}.cls-17{fill:#c78982;}.cls-18{stroke:#a37f5f;stroke-width:1.17px;fill-rule:evenodd;}.cls-19{fill:#a37f5f;}.cls-20{stroke:#282219;stroke-linecap:round;stroke-width:1.39px;}.cls-21{fill:#d99c94;}.cls-22{opacity:0.7;}</style><clipPath id="clip-path"><path class="cls-1" d="M161.52-135.49a69.73,69.73,0,0,0-69.73-69.73,69.73,69.73,0,0,0-69.74,69.73c0,38.52,31.11,68.84,69.62,68.84S161.52-97,161.52-135.49Z"/></clipPath><clipPath id="clip-path-2"><path class="cls-1" d="M169.73,100a69.73,69.73,0,0,0-139.46,0c0,38.51,31.1,68.84,69.62,68.84S169.73,138.51,169.73,100Z"/></clipPath></defs><title>Artboard 108 copy 12</title><g class="cls-2"><g id="Layer_1" data-name="Layer 1"><g class="cls-3"><path class="cls-4" d="M96,4.13c25.86,0,46.82,1.09,46.82,2.44S121.83,9,96,9,49.13,7.93,49.13,6.57,70.1,4.13,96,4.13Z"/><polygon class="cls-5" points="98.25 -69.17 84.55 -69.81 85.04 5.95 86.21 5.85 85.92 -63.55 96.48 -63.59 96.78 5.85 97.91 5.92 98.25 -69.17"/><path class="cls-4" d="M95,6C75.9,6,60.4,6.76,60.4,7.76S75.9,9.57,95,9.57s34.62-.81,34.62-1.81S114.14,6,95,6Z"/><path class="cls-6" d="M97.86,5.91a3.88,3.88,0,0,0,3.29,1.53l.06.48s-3,.23-3.88-1.2l.06,1.09-1-.1.31-2Z"/><path class="cls-6" d="M85.25,5.91A3.9,3.9,0,0,1,82,7.44l-.06.48s3,.23,3.87-1.2l-.06,1.09,1-.1-.32-2Z"/></g><circle class="cls-7" cx="100" cy="100" r="69.73"/><circle class="cls-8" cx="100" cy="100" r="69.73"/><g class="cls-9"><polygon class="cls-10" points="94.44 170 114.07 169.08 113.36 254.27 111.68 254.12 112.11 178.05 96.97 177.99 96.55 254.12 94.93 254.23 94.44 170"/><path class="cls-5" d="M113.43,172.93c-4.12.12-8.23.2-12.34.16-1.94,0-3.88-.09-5.82-.13l-1.86-.19c-.62-.06-1.22-.09-1.83-.12l-1.07-33.07,27.45-.77-2.58,33.72C114.72,172.64,114.07,172.77,113.43,172.93Z"/><path class="cls-11" d="M128.51,154h0a.2.2,0,0,0,0-.08l-.05-.14h0c-4.48-9.49-17.39-20.29-17.39-20.29l-5.16.25a120.35,120.35,0,0,1,11.69,10.32l-14,10.61-12.83-8.82,0,19.16c-4.92-1.19-10.26-3.76-8.82-9.3,0-.21.12-.43.19-.65,0-.06,0-.12.07-.19,1.63-4.5,7.52-10.83,21-19.71l-5.13-.69s-13.77,9.67-19,18.74h0l-.08.15,0,.06h0c-3.63,6.57,1.5,13.05,12,14.79l.19,4.37c.77,0,1.55.08,2.33.16l1.86.19c1.94,0,3.88.12,5.82.13,4.12,0,8.23,0,12.35-.16.79-.19,1.59-.36,2.4-.48l.34-4.79C126.22,166.56,131.48,160.69,128.51,154Zm-12.1,10.43,1.14-20.35c4.52,4.65,6.8,8.28,7.56,11.1a1.42,1.42,0,0,1,0,.2,5.42,5.42,0,0,1,.14.65C126.21,161.44,121.22,163.61,116.41,164.46Z"/><path class="cls-12" d="M126.77,136.7s6.7,15.17-19,16.69-28.87-11.63-25.31-15.16S126.77,136.7,126.77,136.7Z"/><path class="cls-13" d="M137.07,74.76s26.45,35.61-4.1,53.54Z"/><path class="cls-13" d="M62,91.8s-2.53,37-23.23,44.4c0,0,12.87,12.68,35.29-10.17Z"/><path class="cls-14" d="M131.69,71.16s-.57-7.83,5.73-6c7.84,2.28,1,11.85,1,11.85a4.94,4.94,0,0,0,.93,6.25c3.06,3.17,3.81,4.57,3,5.74s-3.59,1.33-4.9-.92C131.88,78.39,131.69,71.16,131.69,71.16Z"/><path class="cls-12" d="M135.05,78.33c.27-15.95-2.66-26.23-6.09-32.76A37.61,37.61,0,0,0,85.42,25.69C45.63,36.28,59.73,83.22,59.73,83.22S61,91.79,61,92c2.44,16.16.56,36.52,15,47.64,18.49,14.26,45.54,16.26,57.8-7,3.78-7.17,7.59-14.77,8.63-22.9.71-5.56-.44-10.91-2.33-16.13C138.37,88.75,134.89,83.59,135.05,78.33Z"/><path class="cls-14" d="M63.38,114.12A20.73,20.73,0,0,0,67.14,108s0,7.17-3.2,9.45C63.94,117.49,63.46,115.25,63.38,114.12Z"/><path class="cls-13" d="M134.69,74.16l-.14,4.58S122.11,69.58,109.36,80l-1.25-3.5S121.85,60.12,134.69,74.16Z"/><path class="cls-13" d="M83.75,20.19l-.2.09C84.81,28.51,90,37.11,94,44.38c8.92,16.27,20.43,32.13,37.83,39.95,11.61,5.22,24.5,6.46,37,7.59-9.64-.87-24.36-14.51-26-22-3.53-16.23,3-32-10.73-45.58C120.07,12.38,98.2,13.27,83.75,20.19Z"/><path class="cls-13" d="M85.42,25.69S86.25,73,110.56,91.9c0,0-14.35-15.43-18.72-65.33Z"/><path class="cls-14" d="M86.28,36.41s.64,27.67-11.65,39.47L63,72.11Z"/><path class="cls-13" d="M87.34,28.09s-2.4,56-52.06,63.92c0,0,14.51-12.75,13.48-35.73S52.7,2,100.77,15.83C129.68,24.14,87.34,28.09,87.34,28.09Z"/><path class="cls-12" d="M59.74,83s-5.88-11.43-15.48-3.55c-12,9.84,8.56,17.45,8.56,17.45a7.05,7.05,0,0,1,3.83,9.53c-2.65,7-2.75,9.61-.32,10.58s7.56-1.19,7.91-5.43C65.75,93.26,59.74,83,59.74,83Z"/><path class="cls-14" d="M60.24,95.62s-9.46-23.22-9.85-5.05C50.39,90.57,52.52,80.48,60.24,95.62Z"/><path class="cls-14" d="M60.3,95.68S53.55,84.12,56,98.93C56,98.93,55.35,89.43,60.3,95.68Z"/><path class="cls-13" d="M97.13,16.32s27.19-27.43,50.74,3.09c0,0-14.73-16.09-45.78-.35Z"/><path class="cls-15" d="M130.18,118.27l-56.75-6.06L72,114.59s-1.26,18.67,22.11,23.46C94.08,138.05,126.7,144.7,130.18,118.27Z"/><path class="cls-16" d="M130.58,115.58l-.4,2.69S95.24,128.14,71.8,113l-.57-3.22,6.83-2.14s26.65,12,49.05,5.19Z"/><path class="cls-17" d="M116,134.59S100.32,120,87.55,134Z"/><path class="cls-16" d="M120.42,133.72s-30.19,1.82-40.47-2.5C80,131.22,98.63,147.2,120.42,133.72Z"/><path class="cls-18" d="M127.47,112.92a77.22,77.22,0,0,1-49.41-5.27L71.47,110s-.91,26,26.13,28.24c0,0,32.3,4.45,32.87-22.4Z"/><path class="cls-19" d="M133.13,119.53s-1.67-7.48-10.8-10.18C122.33,109.35,130.81,113.79,133.13,119.53Z"/><path class="cls-19" d="M82.08,107s-7.39-2-14,4.78C68,111.79,75.93,106.38,82.08,107Z"/><path class="cls-13" d="M101.57,18.85S101.38,5.18,79.62,6.39c0,0,16.82,3.92,13.4,17.35Z"/><path class="cls-13" d="M61.81,78.18l2.23,5S75.43,71.09,96,80.56V76.48S71.52,60.57,61.81,78.18Z"/><path class="cls-20" d="M95.49,88.05S82.15,71.67,73.56,91.19"/><path class="cls-20" d="M135.82,84.34S122.48,68,113.89,87.49"/><path class="cls-21" d="M100.81,103.23s18.1,5.69,17-4.46c-1.45-13.08-14.43,1.18-14.43,1.18L96.81,77.23l4,26Z"/><path class="cls-22" d="M103,101.26,97.26,80.14l-.45-2.91L103.36,100s12-13.4,14.24-2.45C114.49,93.34,109.32,93.88,103,101.26Z"/></g><path class="cls-5" d="M100.55,161.52c.44.11,1.7.19,2,.22,1.66,0,3.32,0,5-.08,2.91-.11,5.82-.35,8.73-.63l1.7-22.22-27.45.77.63,19.67C94.32,159.83,97.46,160.74,100.55,161.52Z"/><path class="cls-11" d="M78.19,160.21A15.71,15.71,0,0,1,81.91,159a6.18,6.18,0,0,1,0-3.28c0-.21.12-.43.19-.65,0-.06,0-.12.07-.19,1.63-4.5,7.52-10.83,21-19.71l-5.13-.69s-13.78,9.67-19,18.74h0l-.08.15,0,.06h0A8,8,0,0,0,78.19,160.21Z"/><path class="cls-11" d="M100.88,163.68a4.43,4.43,0,0,1,1.63-.57c1.66,0,4,1.53,5.7,1.47,3-.12,5.3-.08,8.4-3.58l.94-16.89c4.52,4.65,6.8,8.28,7.56,11.1a1.42,1.42,0,0,1,0,.2,5.42,5.42,0,0,1,.14.65,5.86,5.86,0,0,1-.62,4.05l4.41-.51a8.21,8.21,0,0,0-.57-5.57h0a.2.2,0,0,0,0-.08l-.05-.14h0c-4.48-9.49-17.39-20.29-17.39-20.29l-5.16.25a120.35,120.35,0,0,1,11.69,10.32l-14,10.61-12.83-8.82,0,13.29C94.77,162.38,97.71,165.68,100.88,163.68Z"/><path class="cls-12" d="M126.77,136.7s6.7,15.17-19,16.69-28.87-11.63-25.31-15.16S126.77,136.7,126.77,136.7Z"/><path class="cls-13" d="M137.07,74.76s26.45,35.61-4.1,53.54Z"/><path class="cls-13" d="M62,91.8s-2.53,37-23.23,44.4c0,0,12.87,12.68,35.29-10.17Z"/><path class="cls-14" d="M131.69,71.16s-.57-7.83,5.73-6c7.84,2.28,1,11.85,1,11.85a4.94,4.94,0,0,0,.93,6.25c3.06,3.17,3.81,4.57,3,5.74s-3.59,1.33-4.9-.92C131.88,78.39,131.69,71.16,131.69,71.16Z"/><path class="cls-12" d="M135.05,78.33c.27-15.95-2.66-26.23-6.09-32.76A37.61,37.61,0,0,0,85.42,25.69C45.63,36.28,59.73,83.22,59.73,83.22S61,91.79,61,92c2.44,16.16.56,36.52,15,47.64,18.49,14.26,45.54,16.26,57.8-7,3.78-7.17,7.59-14.77,8.63-22.9.71-5.56-.44-10.91-2.33-16.13C138.37,88.75,134.89,83.59,135.05,78.33Z"/><path class="cls-14" d="M63.38,114.12A20.73,20.73,0,0,0,67.14,108s0,7.17-3.2,9.45C63.94,117.49,63.46,115.25,63.38,114.12Z"/><path class="cls-13" d="M134.69,74.16l-.14,4.58S122.11,69.58,109.36,80l-1.25-3.5S121.85,60.12,134.69,74.16Z"/><path class="cls-13" d="M83.75,20.19l-.2.09C84.81,28.51,90,37.11,94,44.38c8.92,16.27,20.43,32.13,37.83,39.95,11.61,5.22,24.5,6.46,37,7.59-9.64-.87-24.36-14.51-26-22-3.53-16.23,3-32-10.73-45.58C120.07,12.38,98.2,13.27,83.75,20.19Z"/><path class="cls-13" d="M85.42,25.69S86.25,73,110.56,91.9c0,0-14.35-15.43-18.72-65.33Z"/><path class="cls-14" d="M86.28,36.41s.64,27.67-11.65,39.47L63,72.11Z"/><path class="cls-13" d="M87.34,28.09s-2.4,56-52.06,63.92c0,0,14.51-12.75,13.48-35.73S52.7,2,100.77,15.83C129.68,24.14,87.34,28.09,87.34,28.09Z"/><path class="cls-12" d="M59.74,83s-5.88-11.43-15.48-3.55c-12,9.84,8.56,17.45,8.56,17.45a7.05,7.05,0,0,1,3.83,9.53c-2.65,7-2.75,9.61-.32,10.58s7.56-1.19,7.91-5.43C65.75,93.26,59.74,83,59.74,83Z"/><path class="cls-14" d="M60.24,95.62s-9.46-23.22-9.85-5.05C50.39,90.57,52.52,80.48,60.24,95.62Z"/><path class="cls-14" d="M60.3,95.68S53.55,84.12,56,98.93C56,98.93,55.35,89.43,60.3,95.68Z"/><path class="cls-13" d="M97.13,16.32s27.19-27.43,50.74,3.09c0,0-14.73-16.09-45.78-.35Z"/><path class="cls-15" d="M130.18,118.27l-56.75-6.06L72,114.59s-1.26,18.67,22.11,23.46C94.08,138.05,126.7,144.7,130.18,118.27Z"/><path class="cls-16" d="M130.58,115.58l-.4,2.69S95.24,128.14,71.8,113l-.57-3.22,6.83-2.14s26.65,12,49.05,5.19Z"/><path class="cls-17" d="M116,134.59S100.32,120,87.55,134Z"/><path class="cls-16" d="M120.42,133.72s-30.19,1.82-40.47-2.5C80,131.22,98.63,147.2,120.42,133.72Z"/><path class="cls-18" d="M127.47,112.92a77.22,77.22,0,0,1-49.41-5.27L71.47,110s-.91,26,26.13,28.24c0,0,32.3,4.45,32.87-22.4Z"/><path class="cls-19" d="M133.13,119.53s-1.67-7.48-10.8-10.18C122.33,109.35,130.81,113.79,133.13,119.53Z"/><path class="cls-19" d="M82.08,107s-7.39-2-14,4.78C68,111.79,75.93,106.38,82.08,107Z"/><path class="cls-13" d="M101.57,18.85S101.38,5.18,79.62,6.39c0,0,16.82,3.92,13.4,17.35Z"/><path class="cls-13" d="M61.81,78.18l2.23,5S75.43,71.09,96,80.56V76.48S71.52,60.57,61.81,78.18Z"/><path class="cls-20" d="M95.49,88.05S82.15,71.67,73.56,91.19"/><path class="cls-20" d="M135.82,84.34S122.48,68,113.89,87.49"/><path class="cls-21" d="M100.81,103.23s18.1,5.69,17-4.46c-1.45-13.08-14.43,1.18-14.43,1.18L96.81,77.23l4,26Z"/><path class="cls-22" d="M103,101.26,97.26,80.14l-.45-2.91L103.36,100s12-13.4,14.24-2.45C114.49,93.34,109.32,93.88,103,101.26Z"/></g></g></svg>