<?xml version="1.0" standalone="no"?><!DOCTYPE svg PUBLIC "-//W3C//DTD SVG 1.1//EN" "http://www.w3.org/Graphics/SVG/1.1/DTD/svg11.dtd"><svg width="100%" height="100%" viewBox="0 0 32 30" version="1.1" xmlns="http://www.w3.org/2000/svg" xmlns:xlink="http://www.w3.org/1999/xlink" xml:space="preserve" style="fill-rule:evenodd;clip-rule:evenodd;stroke-linejoin:round;stroke-miterlimit:1.41421;"><g><path d="M31.5,5.981c-1.159,0.516 -2.404,0.862 -3.71,1.018c1.332,-0.799 2.357,-2.065 2.839,-3.575c-1.248,0.74 -2.631,1.279 -4.102,1.569c-1.18,-1.257 -2.86,-2.041 -4.717,-2.041c-3.569,0 -6.465,2.894 -6.465,6.462c0,0.506 0.058,0.999 0.169,1.473c-5.371,-0.27 -10.134,-2.844 -13.32,-6.752c-0.555,0.954 -0.876,2.064 -0.876,3.25c0,2.241 1.142,4.218 2.877,5.379c-1.06,-0.033 -2.057,-0.326 -2.929,-0.81l0,0.082c0,3.13 2.228,5.742 5.184,6.337c-0.543,0.148 -1.113,0.227 -1.702,0.227c-0.417,0 -0.822,-0.04 -1.217,-0.118c0.822,2.569 3.21,4.437 6.038,4.49c-2.213,1.731 -4.998,2.766 -8.027,2.766c-0.521,0 -1.036,-0.032 -1.542,-0.09c2.861,1.834 6.259,2.903 9.907,2.903c11.887,0 18.387,-9.847 18.387,-18.387c0,-0.28 -0.006,-0.56 -0.018,-0.836c1.262,-0.91 2.357,-2.049 3.224,-3.347" style="fill:#888;fill-rule:nonzero;"/></g></svg>