<svg width="64" height="52" viewBox="0 0 64 52" fill="none" xmlns="http://www.w3.org/2000/svg">
<path fill-rule="evenodd" clip-rule="evenodd" d="M20.1267 52C44.2777 52 57.4874 31.9925 57.4874 14.6421C57.4874 14.0738 57.4874 13.5081 57.449 12.9449C60.0188 11.0863 62.2371 8.7849 64 6.1486C61.6035 7.21041 59.0613 7.90675 56.4582 8.21437C59.1993 6.57348 61.2509 3.99265 62.231 0.952172C59.6535 2.48155 56.8336 3.55937 53.8931 4.13914C49.8229 -0.188496 43.3554 -1.2477 38.1172 1.55547C32.879 4.35864 30.1729 10.327 31.5162 16.114C20.9585 15.5847 11.1218 10.5984 4.45439 2.39591C0.969265 8.3952 2.74941 16.0701 8.51968 19.923C6.43006 19.861 4.38598 19.2974 2.55998 18.2796C2.55998 18.3333 2.55998 18.3896 2.55998 18.4459C2.56169 24.696 6.96768 30.0791 13.0944 31.3167C11.1613 31.8439 9.13299 31.9209 7.16542 31.542C8.88561 36.8905 13.8152 40.5545 19.4329 40.66C14.7833 44.314 9.0395 46.2976 3.12575 46.2916C2.08102 46.2896 1.03732 46.2264 0 46.1022C6.00483 49.9554 12.9918 51.9993 20.1267 51.9898" fill="black"/>
</svg>
