<svg width="182" height="41" fill="none" xmlns="http://www.w3.org/2000/svg"><g clip-path="url(#clip0)"><path d="M23.748 15.227h10.903V34.39H0V15.227h10.903v9.562h12.806v-9.562h.04zm36.871 9.798c0 3.266-2.14 5.155-5.114 5.155-2.894 0-5.075-1.929-5.075-5.155V9.601h-4.837v15.385c0 6.06 4.361 9.915 9.952 9.915 5.63 0 9.95-3.856 9.95-9.915V9.6H60.66v15.424h-.04zm17.326-8.302c-1.864 0-3.925.787-4.996 2.597v-2.125h-4.52V34.39h4.679v-9.916c0-2.007 1.19-3.58 3.25-3.58 2.26 0 3.212 1.495 3.212 3.423V34.35h4.679V23.53c-.04-3.778-2.022-6.807-6.304-6.807zm17.167 7.24l-2.577-.512c-.992-.197-1.586-.708-1.586-1.535 0-.983.872-1.691 2.101-1.691 1.745 0 2.418.865 2.577 1.928h4.044c-.04-2.361-1.903-5.43-6.542-5.43-3.726 0-6.462 2.557-6.462 5.626 0 2.4 1.507 4.407 4.837 5.116l2.379.511c1.348.275 1.863.905 1.863 1.692 0 .905-.833 1.692-2.379 1.692-1.863 0-2.894-1.063-3.132-2.282h-4.163c.238 2.557 2.102 5.823 7.335 5.823 4.52 0 6.819-2.872 6.819-5.666.04-2.518-1.705-4.564-5.114-5.272zm25.056 1.77c0 5.194-3.291 9.05-8.167 9.05-2.379 0-4.163-.944-4.995-2.085V41h-4.679V17.195h4.52v2.125c.793-1.338 2.696-2.519 5.313-2.519 5.074 0 8.008 3.856 8.008 8.932zm-4.599.04c0-3.03-1.903-4.8-4.282-4.8-2.378 0-4.321 1.77-4.321 4.8s1.943 4.84 4.321 4.84c2.379 0 4.282-1.771 4.282-4.84zm26.96-8.578h4.519V34.39h-4.678v-2.125c-.793 1.377-2.617 2.518-4.995 2.518-4.877 0-8.167-3.856-8.167-9.05 0-5.115 2.933-8.932 7.968-8.932 2.617 0 4.48 1.18 5.313 2.519v-2.125h.04zm-.08 8.578c0-3.03-1.942-4.8-4.321-4.8-2.379 0-4.282 1.77-4.282 4.8 0 3.069 1.903 4.84 4.282 4.84s4.321-1.81 4.321-4.84zm-20.1 8.577h4.678V9.6h-4.678v24.75zm52.491-17.627c-1.665 0-3.568.55-4.678 1.888v-9.01h-4.678v24.75h4.678V24.276c.119-1.888 1.269-3.344 3.251-3.344 2.26 0 3.212 1.495 3.212 3.423V34.39h4.678V23.57c-.04-3.818-2.062-6.847-6.463-6.847zm-16.651 7.24l-2.577-.512c-.991-.197-1.586-.708-1.586-1.535 0-.983.872-1.691 2.101-1.691 1.745 0 2.419.865 2.577 1.928h4.044c-.039-2.361-1.903-5.43-6.541-5.43-3.727 0-6.463 2.557-6.463 5.626 0 2.4 1.507 4.407 4.837 5.116l2.379.511c1.348.275 1.863.905 1.863 1.692 0 .905-.832 1.692-2.378 1.692-1.864 0-2.895-1.063-3.132-2.282h-4.163c.238 2.557 2.101 5.823 7.334 5.823 4.52 0 6.819-2.872 6.819-5.666.04-2.518-1.704-4.564-5.114-5.272zM23.749 0H10.902v9.6h12.806V0h.04z" fill="#000"/></g><defs><clipPath id="clip0"><path fill="#fff" d="M0 0h181.263v41H0z"/></clipPath></defs></svg>