<svg id="Layer_1" data-name="Layer 1" xmlns="http://www.w3.org/2000/svg" width="200" height="200" viewBox="0 0 200 200"><defs><style>.cls-1{fill:#f6f6f6;}.cls-15,.cls-2,.cls-9{fill:none;}.cls-2{stroke:#c9c9c9;stroke-width:2px;}.cls-2,.cls-9{stroke-miterlimit:10;}.cls-3{fill:#231f20;}.cls-4{fill:#e5bc98;}.cls-5,.cls-6{fill:#ce9b78;}.cls-6{opacity:0.4;}.cls-7{fill:#e4bb97;}.cls-8{fill:#fff;}.cls-15,.cls-9{stroke:#ce9b78;}.cls-9{stroke-width:0.85px;}.cls-10{fill:#f0eff0;}.cls-11{fill:#88c241;}.cls-12{fill:#886339;}.cls-13{fill:#ae8266;}.cls-14{fill:#f0f1f2;}.cls-15{stroke-linecap:round;stroke-linejoin:round;stroke-width:0.42px;}.cls-16{fill:#e7be99;}</style></defs><title>Artboard 108 copy</title><circle class="cls-1" cx="100" cy="100" r="69.73"/><circle class="cls-2" cx="100" cy="100" r="69.73"/><path class="cls-3" d="M67.05,141.06c3.2-4.44,9.38-8.23,12.29-9.67L78.14,129l1.2,2.44L77,126.5c-1.26.62-9.19,4.66-13.89,10.79A16.2,16.2,0,0,1,67.05,141.06Z"/><path class="cls-3" d="M145.1,134.89a15.29,15.29,0,0,1-.54-2.82c0-.46-.07-.91-.1-1.36a47.69,47.69,0,0,1-23.75.71l-1.18,5.31A53.83,53.83,0,0,0,131.29,138a52.84,52.84,0,0,0,13.81-1.85Z"/><path class="cls-4" d="M65.05,146.67a9.33,9.33,0,0,1,2.28-6,11.93,11.93,0,0,1-3.95-3.79c-2.34,2.92-4,6.32-3.77,10.06.39,7.4,7.47,13.52,21.66,18.7l1.87-5.12C71.56,156.3,65.31,151.51,65.05,146.67Z"/><path class="cls-4" d="M173.82,119.28l-3-2.36a15.19,15.19,0,0,1-1.08-1.2c-6,5.63-14.83,12.16-25.95,15.18a13.49,13.49,0,0,1,.26,5.55C156.93,133.24,167.11,125.67,173.82,119.28Z"/><path class="cls-3" d="M89.51,169.57l.54,0c1.41,0,2.82-.11,4.24-.18a62.55,62.55,0,0,1,13.13.29l3.67-50.48-33.61.15,1.58,47.49C82.49,168,86.08,168.55,89.51,169.57Z"/><path class="cls-4" d="M59.9,99.15s-3.16,34.07,37.2,38.59c0,0,17.86,14.37,28.63-2.05,0,0,16.83-11.52,16.34-28.65L113.26,87.73,88.52,75.45Z"/><path class="cls-4" d="M136.18,49.84s-3.29-38.19-45.29-39.65S52.6,56.76,52.6,56.76l11.8,29Z"/><path class="cls-4" d="M138.69,104.6c-3.18-6.45-4.53-13.59-7.69-20-2.41-4.9-1.36-10.82,3.6-13.72a9.75,9.75,0,0,1,3.78-1.24,12.25,12.25,0,0,0,.44-7.45s-1.3-28.47-12.61-26.52c0,0-5.43,1.52-10.86-3s-27.82-20-33.91-8.91,4.13,18.91,4.13,18.91S79.05,53.71,80.14,59.8c0,0-8-1.38-2.6,18.18L64,78.71l-13.66-11,9.55,12.61c-1.27,11.22.57,26.71.57,26.71,5.93,8.47,26,15.31,26,15.31s10.72,7.37,21.44,8c9.8.62,26.84-15.37,34.3-22.21A8.45,8.45,0,0,1,138.69,104.6Z"/><polygon class="cls-5" points="142.52 103.11 117.41 97.65 142.07 107.04 142.52 103.11"/><path class="cls-6" d="M93.72,68.55c-.3,6.19,5.72,11.51,13.45,11.89s14.25-4.32,14.56-10.51S116,58.43,108.28,58.05,94,62.37,93.72,68.55Z"/><path class="cls-7" d="M148.71,68.91c-.16,4.38-4.45,7.94-9.6,8s-9.2-3.54-9-7.92,4.45-7.94,9.6-7.95S148.86,64.53,148.71,68.91Z"/><path class="cls-8" d="M147,68.93a7.58,7.58,0,1,1-7.46-7.51A7.49,7.49,0,0,1,147,68.93Z"/><path class="cls-9" d="M147,68.93a7.58,7.58,0,1,1-7.46-7.51A7.49,7.49,0,0,1,147,68.93Z"/><path class="cls-9" d="M119.64,68.61s-3.19-18.54-29.14-5.33"/><path class="cls-5" d="M59.53,90.83s4-1.5,5.52-4a10,10,0,0,1-5.38,6.72Z"/><path class="cls-8" d="M98.45,68.43c-.27,5.4,4.25,10,10.1,10.29s10.8-3.85,11.06-9.25-4.26-10-10.1-10.29S98.71,63,98.45,68.43Z"/><path class="cls-10" d="M108.55,78.72a11,11,0,0,1-7.1-3,9.17,9.17,0,0,1-1.51-5.5c.27-5.4,5.22-9.54,11.06-9.25a11,11,0,0,1,7.1,3,9.15,9.15,0,0,1,1.51,5.5C119.35,74.87,114.39,79,108.55,78.72Z"/><path class="cls-9" d="M98.45,68.43c-.27,5.4,4.25,10,10.1,10.29s10.8-3.85,11.06-9.25-4.26-10-10.1-10.29S98.71,63,98.45,68.43Z"/><path class="cls-11" d="M109,69.28a4.82,4.82,0,1,1-4.66-5A4.84,4.84,0,0,1,109,69.28Z"/><path d="M104.74,69.33a2.52,2.52,0,1,1-2.44-2.6A2.53,2.53,0,0,1,104.74,69.33Z"/><path class="cls-8" d="M105.5,68.17a1,1,0,1,1-.94-1A1,1,0,0,1,105.5,68.17Z"/><path class="cls-11" d="M139,69.59a3.19,3.19,0,1,1-3.08-3.31A3.2,3.2,0,0,1,139,69.59Z"/><path d="M136.16,69.62a1.67,1.67,0,1,1-1.61-1.72A1.67,1.67,0,0,1,136.16,69.62Z"/><path class="cls-8" d="M136.66,68.85a.63.63,0,0,1-.66.62.64.64,0,0,1,0-1.28A.63.63,0,0,1,136.66,68.85Z"/><path class="cls-7" d="M121.74,74S147,54.53,145.46,104c0,.51-31.57-7.25-31.57-7.25"/><path class="cls-12" d="M83.83,60.79s10.79-36.09,35.5-7.09C119.33,53.7,98.77,39.82,83.83,60.79Z"/><path class="cls-12" d="M130.86,56.86S147.72,41,153.38,63.68C153.38,63.68,145.64,50.21,130.86,56.86Z"/><path class="cls-12" d="M61.45,80.34l12,.12a47.48,47.48,0,0,1-5.28-14.08c-1-5.56.9-10.87,2.47-16.13a50.9,50.9,0,0,0,2.14-17.47C72.52,27.27,71,19,63.54,20.58,52.57,22.94,52,41.18,50.7,49.86c-.06.38-.71,2.86-.4,3.21C50.32,53.09,61.45,80.34,61.45,80.34Z"/><path class="cls-4" d="M62.65,60.25s-4.4-11.81-16.75-6.42c-15.4,6.73,6.25,17.94,6.25,17.94s6.84,3.64,2.49,9.62-5,8.37-2.42,9.76,8.75.42,10-3.45C67.45,71,62.65,60.25,62.65,60.25Z"/><path class="cls-5" d="M60.77,72.06S54.61,48.6,50.65,65.4C50.65,65.4,55,56.46,60.77,72.06Z"/><path class="cls-5" d="M60.83,72.14S55.47,60,55.32,74.29C55.32,74.29,56.46,65.34,60.83,72.14Z"/><path class="cls-12" d="M96,14.47s5.53-15.83,19.53-3.07C115.49,11.4,103.22,1,96,14.47Z"/><path class="cls-12" d="M89.42,13.88s1.17-16.73,18-8.11C107.45,5.77,92.88-1,89.42,13.88Z"/><path class="cls-12" d="M80.17,15.45s1-14.07,15.17-6.82C95.34,8.63,83.08,2.9,80.17,15.45Z"/><path class="cls-9" d="M117.82,74.46s-5,10.06-27.32,1"/><path class="cls-13" d="M85.22,93.73s-16,11.93.1,24.64c10.86,8.58,31,2.59,31,2.59S88,120.43,85.22,93.73Z"/><path class="cls-14" d="M116.32,121s-25.15-.48-30.38-22.86c-2.17,1.4-9.49,6.87-.35,12.29,0,0-3.84,1.66-3.53,4.94a27.89,27.89,0,0,0,3.26,3C96.18,127,116.32,121,116.32,121Z"/><path class="cls-13" d="M79.89,93.69s5.63-7.93,11.6,2.49A8.15,8.15,0,0,0,79.89,93.69Z"/><path class="cls-13" d="M110.69,120.5c-7.27-1.14-13.14-3.8-17.52-8-8.94-8.47-8.36-19.93-8.33-20.42L86,92.2c0,.11-.57,11.43,8,19.51,7.32,6.92,19,9.52,34.67,7.73l.12,1.16A67.33,67.33,0,0,1,110.69,120.5Z"/><path class="cls-15" d="M86.57,42.92s8.53-15,23.73-3.66"/><path class="cls-15" d="M87.84,35.77S95.45,24.49,109,33"/><path class="cls-15" d="M122.49,51.45s4.29,4.82-.75,7.08"/><path class="cls-15" d="M128.72,58.55s-4-5.09,1.22-7"/><path class="cls-16" d="M168.78,117.51c-3-.11-13.37-7.34-8.95-9.74,3.46-1.73,8.19,5.59,9.74,7.85l.32-.22a25.55,25.55,0,0,1,4.3-3.27c2.45-1.41,15.07-6.91,17.44-3.87,3.38,4-13.59,7.41-16.33,8,4.47-.81,12.67,1.05,14.39,5.78-3.31,4-12.81-3.34-15.77-5.59,1.48,1.74,6.88,7.55,2.16,7.86-2.44.17-4.46-2.92-5.6-4.71"/><path class="cls-2" d="M54.17,152.56a69.79,69.79,0,0,0,82.09,7"/></svg>