<svg xmlns="http://www.w3.org/2000/svg" xmlns:xlink="http://www.w3.org/1999/xlink" viewBox="0 0 450 480"><defs><style>.cls-1{isolation:isolate;}.cls-2,.cls-3{opacity:0.3;mix-blend-mode:multiply;}.cls-2{fill:url(#radial-gradient);}.cls-3{fill:url(#radial-gradient-2);}.cls-4{fill:url(#linear-gradient);}</style><radialGradient id="radial-gradient" cx="5364.27" cy="-55938.89" r="93.76" gradientTransform="translate(-3714.59 6974.5) scale(0.73 0.12)" gradientUnits="userSpaceOnUse"><stop offset="0" stop-color="#404041"/><stop offset="1" stop-color="#231f20" stop-opacity="0"/></radialGradient><radialGradient id="radial-gradient-2" cx="5626.65" cy="-55938.89" r="93.76" xlink:href="#radial-gradient"/><linearGradient id="linear-gradient" x1="281.62" y1="401.45" x2="220.58" y2="69.42" gradientUnits="userSpaceOnUse"><stop offset="0" stop-color="#e93722"/><stop offset="1" stop-color="#f86f25"/></linearGradient></defs><title>Artboard 1 copy 21</title><g class="cls-1"><g id="Layer_1" data-name="Layer 1"><ellipse class="cls-2" cx="176.08" cy="410.17" rx="68" ry="11"/><ellipse class="cls-3" cx="366.38" cy="410.17" rx="68" ry="11"/><path class="cls-4" d="M359,236.75q-.27-3.86-.2-16.1t.3-28.66q.22-16.42.47-35.3t.38-35.77q.13-16.89.21-30.36t-.08-19.3q.06-12.23,7.12-20t27.32-11.67q17.43-3.39,24.8.56t8.74,11a61.8,61.8,0,0,1,1.09,16.9q-.65,8-.79,14.82-.71,8.94-1.05,21t-1.15,29.32q-.8,17.28-2.15,40.51t-3.12,54.39q-1.77,31.15-3.09,49.5t-2.09,29.5q-.76,11.15-1.13,18.07T413.78,340a120.29,120.29,0,0,1-2.1,14.35,19.16,19.16,0,0,1-5.42,9.85,31.66,31.66,0,0,1-11.43,6.62,140.74,140.74,0,0,1-20,5.12q-23.57,4.58-34.26-1.41T322.32,350q-5.67-14.05-14.26-34.39T290,272.9q-9.48-22.36-18.73-44.77T255.14,188q-6-15.94-9-20t-6.76-3.33c-1.57.31-2.74,1.43-3.5,3.37s-1.13,5.52-1.09,10.73q.58,30.69,1,60.68t.41,54.93q0,24.95,0,42.55t.16,23.44q-.32,23.53-9.51,35.34t-34.17,16.67a112.18,112.18,0,0,1-17.43,2.17,29.31,29.31,0,0,1-24.93-11.29q-5.1-6.09-10.21-17.33-4-8-8.24-17.23t-10.89-23.31q-6.67-14.11-16.61-35.16T79.57,258.3q-18.16-38-29.18-60.83t-17.27-36q-6.23-13.2-8.65-19.34A64.79,64.79,0,0,1,21,130.81,14.91,14.91,0,0,1,26,115.91q6.66-5.94,25.52-9.6,16.49-3.2,25.08.75T91,123.56q3.16,6.24,11,24t17.58,40.1q9.71,22.32,19.62,45.57t17.15,40.43q7.25,17.18,11.53,26.61a129.58,129.58,0,0,0,7.13,14c1.89,3.06,3.63,4.84,5.2,5.35a10.18,10.18,0,0,0,5.18.22q6.12-1.19,5.92-16.07t-.64-37.28q-.27-3.86-.3-14.12t0-23.72q.06-13.45-.18-28.57t-.36-29.51q-.12-14.4-.28-26.59t-.13-19.53q-.91-24.76,6.59-35.27T222.42,75q11.31-2.2,19-1.5A28,28,0,0,1,254.79,78a32.64,32.64,0,0,1,9.59,10.36,111.93,111.93,0,0,1,7.77,16.09q7.25,17.18,20.68,48.54T325.78,232q6.77,17.27,11.19,28.63t7.34,17.64q2.93,6.28,5.32,8.5a5.73,5.73,0,0,0,5.21,1.67q4.71-.92,4.41-15T359,236.75Z"/></g></g></svg>