<svg xmlns="http://www.w3.org/2000/svg" viewBox="0 0 370 350"><defs><style>.cls-1{isolation:isolate;}.cls-2{fill:#d7f4f9;}.cls-3{fill:#bef0fc;}.cls-4{fill:#1e75bb;}.cls-5{fill:#e63d31;}.cls-6{fill:#bad5d1;}.cls-7{fill:#6fcce8;}.cls-8{fill:#e53e31;}.cls-9{fill:#27a8e0;}.cls-10{fill:#fff;}.cls-11{fill:#8e9092;}.cls-12{fill:#201d1e;opacity:0.5;mix-blend-mode:multiply;}</style></defs><g class="cls-1"><g id="Layer_1" data-name="Layer 1"><g id="Layer_1-2" data-name="Layer 1"><circle class="cls-2" cx="185" cy="175" r="166.46002"/><path class="cls-3" d="M318.88,174.99982A133.88,133.88,0,1,1,185,41.11981,133.91508,133.91508,0,0,1,318.88,174.99982Z"/><circle class="cls-4" cx="56.13845" cy="62.37005" r="44.84337"/><polygon class="cls-4" points="91.397 82.334 108.677 110.032 77.895 95.28 91.397 82.334"/><circle class="cls-5" cx="275.10202" cy="38.59504" r="30.05286"/><polygon class="cls-5" points="252.832 54.132 243.044 73.699 262.655 61.921 252.832 54.132"/><rect class="cls-6" x="242.91681" y="203.04241" width="2.8987" height="20.27343" transform="matrix(0.99672, -0.08097, 0.08097, 0.99672, -16.45928, 20.48701)"/><polygon class="cls-6" points="237.017 190.918 235.473 212.08 243.795 206.148 252.965 210.659 250.509 199.348 243.026 196.679 250.15 197.686 245.834 177.819 241.026 172.069 245.414 175.878 239.948 150.704 237.167 188.829 242.186 186.345 237.017 190.918"/><rect class="cls-6" x="264.03453" y="193.28809" width="1.44935" height="10.13671" transform="translate(-15.19208 22.08962) rotate(-4.64448)"/><polygon class="cls-6" points="261.082 187.224 260.313 197.807 264.474 194.841 269.059 197.096 267.828 191.441 264.089 190.107 267.651 190.61 265.491 180.677 263.089 177.801 265.281 179.708 262.55 167.119 261.16 186.179 263.669 184.942 261.082 187.224"/><path class="cls-7" d="M190.98077,224.89184c15.40425,10.94656,32.16109,17.03106,49.91276,18.21686.59918.04331,1.202.07754,1.80413.10309,1.5834.0816,3.1803.11392,4.77873.11109,2.264-.00435,4.41731-.07854,6.44061-.24291q1.32523-.077,2.58894-.21033c.89129-.08116,1.78515-.18444,2.6261-.29218l.71912-.09783c.76192-.11009,1.489-.21733,2.185-.33081l.72569-.12465a64.05075,64.05075,0,0,0,10.19-2.50532h0l1.87558,4.97211,1.88428,4.9714a75.90011,75.90011,0,0,1-15.43949,3.55374c-.24695.0332-.49756.07545-.74993.096-.73216.09889-1.48279.18615-2.25083.27483l-.73535.05974-2.69338.2188q-1.2669.09417-2.61565.15117c-1.36545.06713-2.76784.111-4.21691.1192-1.8047-.0023-3.73771-.02045-5.75611-.11928-.60718-.03389-1.22306-.06707-1.85305-.11225a107.04369,107.04369,0,0,1-49.456-16.09905q-3.053-1.88937-6.11118-4.05862Z"/><path class="cls-8" d="M288.64156,242.335c-2.664-3.4627-4.20812-21.71528,2.54354-18.992,5.1241,2.25984,1.36348,14.30346.28168,18.13177l.54241.153c7.67767,2.15312,13.57719,4.09154,20.093,8.81807,1.66119,1.2009,12.29586,8.86023,6.50372,10.72358-2.05367.653-4.61571-.74627-6.37328-1.624a57.82221,57.82221,0,0,1-6.53416-3.9279c-3.31364-2.24047-6.51159-4.67431-9.61735-7.15943a22.48675,22.48675,0,0,1,7.87344,13.8359c.27383,1.86113.96156,6.391-1.117,7.49277s-4.2589-2.17683-5.01684-3.63507a24.37042,24.37042,0,0,1-1.95107-6.49455,81.856,81.856,0,0,1-1.28372-12.56675c-.5669,3.26528-2.01971,14.65714-6.72524,9.67843-2.44285-2.574-.88274-7.68508.05831-10.60408Z"/><polygon class="cls-4" points="264.331 260.104 266.06 230.106 282.738 230.424 283.015 264.403 264.331 260.104"/><rect class="cls-9" x="273.07042" y="251.22556" width="1.70256" height="10.97053" transform="translate(-24.7389 484.16497) rotate(-80.43448)"/><rect class="cls-9" x="272.99985" y="246.01862" width="1.70255" height="10.63874" transform="translate(-11.64517 489.36549) rotate(-82.36448)"/><rect class="cls-9" x="272.47884" y="240.15464" width="1.69956" height="10.07974" transform="translate(-0.49723 489.83361) rotate(-83.67224)"/><rect class="cls-9" x="273.24862" y="235.98561" width="1.70255" height="9.42077" transform="translate(10.53817 492.88746) rotate(-85.02448)"/><rect class="cls-9" x="273.09927" y="231.12754" width="1.70255" height="9.27671" transform="translate(29.67033 502.15215) rotate(-88.19448)"/><path class="cls-7" d="M240.40016,253.70245c.63048.04076,1.24357.07582,1.85637.11088a4.57747,4.57747,0,0,1,.05843-2.44581,5.15338,5.15338,0,0,1,1.2259-1.98463,6.32883,6.32883,0,0,0,5.85471,1.35416,2.33808,2.33808,0,0,0,1.80364-2.77843,3.08839,3.08839,0,0,0-2.46319-1.89713,6.90146,6.90146,0,0,0-5.03184.93973,4.83377,4.83377,0,0,1-.99816-3.78856v-.01739c-.32123-.01169-.64786-.02907-.96909-.04675-.28018-.01738-.56036-.035-.83484-.05843v.01768a2.906,2.906,0,0,0-.04646.38535,4.53363,4.53363,0,0,0-.03506.68862,6.57619,6.57619,0,0,0,1.47672,3.9402A6.50372,6.50372,0,0,0,240.40016,253.70245Zm4.67585-5.39354a2.64727,2.64727,0,0,1,.26251-.12284,5.10958,5.10958,0,0,1,2.33493-.44949,2.5599,2.5599,0,0,1,1.71614.578c.13453.14024.15761.25681-.02338.4378a1.62208,1.62208,0,0,1-.84624.362,4.54164,4.54164,0,0,1-2.05475-.15762A5.5936,5.5936,0,0,1,245.076,248.30891Z"/><path class="cls-10" d="M256.49511,242.84426a100.20918,100.20918,0,0,1-1.65247,10.82117q-1.2669.09417-2.61565.15117a101.01853,101.01853,0,0,0,1.69764-10.75039Q255.24915,242.9805,256.49511,242.84426Z"/><path class="cls-4" d="M259.8602,242.48328a104.60562,104.60562,0,0,1-1.57107,10.90654l-.73535.05973a109.2893,109.2893,0,0,0,1.58483-10.8989Z"/><path class="cls-4" d="M262.76945,242.01041a102.5047,102.5047,0,0,1-1.481,10.99121c-.247.0332-.49755.07545-.74992.096a100.57566,100.57566,0,0,0,1.50521-10.96252Z"/><path class="cls-7" d="M185.90329,230.05214c-17.92426,5.96307-35.734,6.91938-53.0574,2.865-.58485-.13644-1.1744-.27687-1.756-.42673-1.53816-.38748-3.07586-.82318-4.603-1.29041-2.1662-.6781-4.19493-1.38927-6.09313-2.111-.827-.31386-1.56629-.62611-2.40885-.96935s-1.65535-.6977-2.42358-1.04262c-.21041-.10992-.45093-.213-.66426-.30519q-1.04238-.4847-1.9916-.95507l-.65733-.32764a64.07852,64.07852,0,0,1-9.01637-5.3687h0L99.98637,224.326l-3.25419,4.20627a77.30858,77.30858,0,0,0,13.72915,7.90284l.69072.30742c.669.30919,1.36333.60755,2.07616.91755.22639.0911.44914.19126.67989.282.80737.34174,1.6492.67629,2.50846,1.00944q1.19865.46761,2.47022.91619c1.29874.4595,2.61887.91288,3.99852,1.3439q2.6024.81785,5.545,1.56428c.5772.15019,1.17581.29428,1.78747.4373a107.112,107.112,0,0,0,52.00211-.97474c2.307-.60788,4.65878-1.3114,7.03-2.09969Z"/><path class="cls-8" d="M83.153,220.98413c4.03387-1.67891,14.4367-16.75477,7.22273-17.74637-5.56217-.57805-8.28785,11.741-9.2518,15.59834l-.54506-.13559c-7.73436-1.944-13.827-3.18916-21.81892-2.32548-2.03813.219-15.07251,1.58476-10.97195,6.07658,1.45652,1.58953,4.3773,1.64282,6.33676,1.75654a58.4988,58.4988,0,0,0,7.62224-.1626c3.99462-.29973,7.96534-.83222,11.91885-1.45979a22.49107,22.49107,0,0,0-13.70587,8.10089c-1.16109,1.48274-4.00846,5.06524-2.751,7.05839s4.77526.2225,6.15941-.6637a24.71609,24.71609,0,0,0,4.92129-4.66516,79.28559,79.28559,0,0,0,7.349-10.27047c-1.12582,3.11079-5.52029,13.72165,1.03577,11.7389,3.40123-1.02,4.58282-6.23972,5.21588-9.236Z"/><polygon class="cls-4" points="105.471 242.346 112.573 213.151 96.523 208.594 86.345 241.009 105.471 242.346"/><rect class="cls-9" x="96.43362" y="230.80503" width="1.70255" height="10.97053" transform="translate(-149.57361 302.30799) rotate(-82.59448)"/><rect class="cls-9" x="98.06832" y="225.89068" width="1.70255" height="10.63874" transform="translate(-145.26396 291.35625) rotate(-80.67448)"/><rect class="cls-9" x="99.74572" y="220.91702" width="1.70255" height="10.09742" transform="translate(-140.22171 282.41593) rotate(-79.19448)"/><rect class="cls-9" x="100.95135" y="216.22652" width="1.70255" height="9.42078" transform="translate(-135.45868 274.63951) rotate(-78.01448)"/><rect class="cls-9" x="102.52179" y="211.64837" width="1.70255" height="9.27234" transform="translate(-132.41489 259.51685) rotate(-74.84448)"/><path class="cls-7" d="M122.50385,237.749a6.36241,6.36241,0,0,0,5.99495.42041,5.0506,5.0506,0,0,1,.58943,2.24714,4.60143,4.60143,0,0,1-.64786,2.36429c.57775.15163,1.17316.29187,1.78625.4378a6.51974,6.51974,0,0,0-.181-5.89576,6.62042,6.62042,0,0,0,2.55668-3.33309,6.7338,6.7338,0,0,0,.24513-1.06827c-.29187-.07012-.58374-.13995-.8813-.21007-.29187-.06413-.58374-.13424-.8756-.19837a4.819,4.819,0,0,1-2.06074,3.34477,6.94643,6.94643,0,0,0-4.52963-2.405,3.18723,3.18723,0,0,0-2.913,1.115A2.34,2.34,0,0,0,122.50385,237.749Zm.712-2.32895a2.5661,2.5661,0,0,1,1.80963-.05273,5.15712,5.15712,0,0,1,2.10149,1.115,1.58741,1.58741,0,0,1,.20436.1867h.0057v.006l-.0057-.006a5.47719,5.47719,0,0,1-1.50607.24512,4.55373,4.55373,0,0,1-2.014-.4492,1.63538,1.63538,0,0,1-.7063-.59542C122.97671,235.6418,123.03486,235.53093,123.21585,235.42005Z"/><path class="cls-10" d="M117.98493,228.11961a100.31512,100.31512,0,0,0-1.57273,10.83222q1.19866.46762,2.47022.91619a102.813,102.813,0,0,1,1.51136-10.77905Q119.15526,228.61581,117.98493,228.11961Z"/><path class="cls-4" d="M114.89711,226.77182a105.37085,105.37085,0,0,0-1.67329,10.88856c.2264.09111.44915.19127.6799.282a107.68424,107.68424,0,0,1,1.65763-10.8654C115.33354,226.96848,115.11044,226.864,114.89711,226.77182Z"/><path class="cls-4" d="M112.26555,225.48766a102.53292,102.53292,0,0,0-1.79121,10.94633l.69072.30742a101.18919,101.18919,0,0,1,1.74042-10.92469Z"/><path class="cls-7" d="M210.12,306.51984a134.96353,134.96353,0,0,1-49.67.11l.99-10.06.12-2.64v-.02l.6-14.27v-.01l.16-3.66v-.01l.17-3.89.04-1.03v-.01l.12994-3.1.05-1.03.34-8.12.16-3.78,45.97,4.84v.51l.15,9.1.03,1.07.04,3.05.02,1.08.05,3.13.05,2.17.02,1.53.21,12.73.05,2.57.15,9Z"/><polygon class="cls-4" points="160.68 258.692 215.449 260.558 218.992 233.43 157.752 228.958 160.68 258.692"/><rect class="cls-9" x="167.90059" y="236.54886" width="2.82885" height="16.50599" transform="translate(-6.91365 4.92901) rotate(-1.63448)"/><rect class="cls-9" x="171.00284" y="244.27635" width="16.02578" height="2.82885" transform="translate(-68.8607 421.66768) rotate(-89.29448)"/><rect class="cls-9" x="181.31362" y="245.23434" width="15.23127" height="2.82885" transform="translate(-65.68074 424.70389) rotate(-87.51448)"/><rect class="cls-9" x="191.25729" y="245.51536" width="14.23156" height="2.82885" transform="translate(-61.55793 427.93274) rotate(-86.07448)"/><rect class="cls-9" x="200.19772" y="246.44405" width="14.07877" height="2.82885" transform="matrix(0.1346, -0.9909, 0.9909, 0.1346, -66.26007, 419.84785)"/><path class="cls-10" d="M161.42126,296.57174c.0057,0,.01739-.0057.02337-.0057a13.32483,13.32483,0,0,0,5.91314-3.16379,10.69043,10.69043,0,0,0,3.43228,1.91452,9.3324,9.3324,0,0,0,8.31249-1.3952,9.06548,9.06548,0,0,0,12.24071,1.33677,9.28965,9.28965,0,0,0,12.35188-.25082c.23942.15733.48454.32094.73565.45519a10.74508,10.74508,0,0,0,5.36446,1.31909l-.041-2.57406h-.22773a7.87463,7.87463,0,0,1-4.191-1.2259,10.32038,10.32038,0,0,0,1.20822-2.907c.7063-2.9771.181-7.36678-3.11134-8.61006a3.3366,3.3366,0,0,0-4.14427,1.73353,7.46913,7.46913,0,0,0-.3503,4.7984,11.08532,11.08532,0,0,0,2.8018,5.31773,6.943,6.943,0,0,1-5.46964,1.51776,6.39057,6.39057,0,0,1-2.98279-1.30171,9.3617,9.3617,0,0,0,2.37569-8.24808,3.20975,3.20975,0,0,0-3.76491-2.61511,4.9995,4.9995,0,0,0-3.269,3.73583,8.99268,8.99268,0,0,0,1.03322,6.87625,7.40339,7.40339,0,0,1-2.01969.94,6.64922,6.64922,0,0,1-6.67787-2.02567,9.91486,9.91486,0,0,0,2.47488-6.88793c-.08152-1.49439-.66525-3.2282-2.11888-3.91113-1.76288-.84054-3.52577.32693-4.33125,1.91481a9.067,9.067,0,0,0,.56635,8.56331,7.07928,7.07928,0,0,1-3.0646,1.27235,7.20782,7.20782,0,0,1-5.46964-1.62863,12.50891,12.50891,0,0,0,1.89114-3.70648,8.43286,8.43286,0,0,0,.2628-4.594,3.45043,3.45043,0,0,0-4.14456-2.48685c-3.6774.77641-3.98694,5.458-2.87762,8.33586a10.4067,10.4067,0,0,0,1.39492,2.51592,11.37749,11.37749,0,0,1-3.98694,2.34662c-.0057,0-.01169.0057-.01739.0057Zm41.93526-5.26528a8.09564,8.09564,0,0,1-2.05476-6.01832c.09349-.65955.4321-1.652,1.17346-1.436.9631.27448,1.465,1.54684,1.65172,2.40505A7.54672,7.54672,0,0,1,203.35652,291.30646Zm-12.41-3.56653c.12256-.85821.50763-2.28818,1.4827-2.56836.74135-.216.84054,1.23159.85223,1.73951a6.6519,6.6519,0,0,1-.718,3.12274h.0057a7.98942,7.98942,0,0,1-.94572,1.45933c-.0932-.19239-.19267-.38507-.26849-.58943A6.50873,6.50873,0,0,1,190.9465,287.73993Zm-11.844-2.82517a2.33576,2.33576,0,0,1,.70031-1.12671c.29785-.216.45547-.15191.64815.08751a3.63478,3.63478,0,0,1,.43181,2.545A7.47383,7.47383,0,0,1,179.698,289.608c-.07012.11658-.15192.22745-.23372.33833a7.51329,7.51329,0,0,1-.60682-2.09551A6.413,6.413,0,0,1,179.10254,284.91476Zm-12.91223.28588c.10517-.91636.66553-2.10149,1.76858-2.01969.98078.07582.899,1.53515.83484,2.25911a9.01345,9.01345,0,0,1-1.50009,4.12119A6.36849,6.36849,0,0,1,166.19031,285.20064Z"/><path class="cls-10" d="M162.30232,275.96113l-.1396,3.67292a138.91463,138.91463,0,0,1,47.3739,1.84523l-.05939-3.69619A140.185,140.185,0,0,0,162.30232,275.96113Z"/><path class="cls-4" d="M162.529,271.04159l-.03876,1.03241c9.094-.9534,30.75834-2.44623,46.93371,2.573l-.01769-1.08038C193.18936,268.62959,171.72132,270.0583,162.529,271.04159Z"/><path class="cls-4" d="M162.70474,266.8971l-.04276,1.03712c9.231-.93825,30.67556-2.38695,46.694,2.58811l-.02169-1.0757C193.26635,264.56319,172.02645,265.94268,162.70474,266.8971Z"/><polygon class="cls-10" points="161.274 218.721 127.6 176.974 122.427 137.831 145.948 100.583 146.34 51.339 168.381 69.954 211.899 106.771 248.447 91.639 281.483 86.287 292.007 95.392 271.427 130.386 267.652 149.325 254.82 208.804 205.574 228.064 161.274 218.721"/><path class="cls-5" d="M101.07505,152.133c-14.44168,22.88243,1.93789,33.57061,2.2765,33.78637-.59541-1.3952.21007-8.2247.21007-8.2247,2.64418,19.77109,17.44186,36.01043,17.44186,36.01043-.80548-2.41075-1.30171-14.31884-1.30171-14.31884,1.839,13.20382,15.30559,24.75021,15.7317,25.1062-1.57619-1.98463-2.7086-13.74678-2.7086-13.74678,4.82178,10.70556,11.14935,16.90487,15.55642,20.1972.28617.22175.578.4435.8756.64786a26.5285,26.5285,0,0,0,4.36631,2.5393c.71228.32094,1.41287.63019,2.10748.92206l-.12855.0761c.25681.06983.51362.13994.77071.22175.72967.20436,1.45335.4378,2.17133.68292a48.06752,48.06752,0,0,1,6.94636,3.00046c-4.17934-2.24742-6.32187-3.27466-7.00479-3.60158-.10489-.04674-.175-.0818-.21577-.10518.06983.02338.14593.05245.21577.07582a39.441,39.441,0,0,0,7.56515,1.97893c.6014.09349,1.17915.1867,1.74549.29187.99816.181,1.93789.37367,2.84285.56036a35.59212,35.59212,0,0,0,7.14474.97479,18.3832,18.3832,0,0,0,2.82517-.20436c.10518-.01169.21035-.02908.32123-.04675q3.81749-.6302,7.62928-1.20224c.73565-.11686,1.471-.22773,2.20667-.32692,5.989-.88729,11.96651-1.6694,17.99053-2.37h.006q2.56522-.29757,5.14842-.578c1.80962-.19268,3.50809-.42013,5.131-.67694,9.24053-1.46531,15.9241-3.847,25.33964-6.47379q3.45022-.42882,6.91158-.84054c4.16793-2.84854,8.394-5.49871,12.85951-7.96789.72966-.38535,1.4827-.712,2.224-1.05659a122.98568,122.98568,0,0,0,6.10582-13.17474c.88159,2.86622-.15163,7.33742-1.57021,11.42354a34.91474,34.91474,0,0,1,5.79059-1.17915,2.21685,2.21685,0,0,1,.13424-.18669,12.66083,12.66083,0,0,1,1.90312-1.97295l-.73565.32094c4.2731-9.655,4.9033-21.18368,4.99108-23.79879.01739-.356.01739-.54867.01739-.54867a5.80683,5.80683,0,0,1,.37937.57775,4.27056,4.27056,0,0,1,.29785.56036s.0057,0,0,.006c2.65017,5.53378.82886,17.69867.82886,17.69867,14.94931-20.38389-6.61944-53.54578-7.12166-54.3162,6.25774,4.38369,15.17705,20.95594,15.17705,20.95594-2.37-17.19075-20.78094-34.3-20.78094-34.3,3.01814-3.94618,5.674-7.647,8.02063-11.0969,17.73372-26.10436,17.512-38.15268,17.512-38.15268-26.77588-12.98805-59.16135.8756-62.73358,2.48656-.216.09349-.32692.14593-.32692.14593-.12285-.15163-.24541-.30355-.37367-.44948A46.39616,46.39616,0,0,0,203.43233,75.81a28.329,28.329,0,0,0-3.85241-.216c7.29666,2.23,13.15707,9.36907,13.33807,9.59082a149.07848,149.07848,0,0,0-28.38685-8.35923,32.41239,32.41239,0,0,0-5.97727-10.16259c-5.40552-6.33925-15.10123-13.26823-32.19308-15.30559h-.0057c-.0057,0-.01169-.0057-.01767-.0057-1.62266-.19268-3.31542-.34431-5.07831-.44379,0,0-7.39014,23.50692-2.586,37.68011-10.54224,3.78258-11.77384,7.58852-11.77384,7.58852l10.54823-1.54712-.14023.44977-7.23252,22.97564a42.16854,42.16854,0,0,0-22.12911,10.99743c2.49226-1.255,10.29113.04076,10.29113.04076-20.1097,9.08291-25.00131,26.5775-25.14724,27.12019A11.4965,11.4965,0,0,1,101.07505,152.133ZM248.4148,101.9146s.59542-.31524,1.652-.81147c5.46964-2.55668,23.31424-9.97618,35.31012-3.97525,0,0-5.04952,13.35-13.2041,22.37451a31.09729,31.09729,0,0,1-5.9482,5.23023S258.922,110.46623,248.4148,101.9146Zm-51.7829,3.0703c13.54271,3.39722,18.61532,29.80542,14.52919,46.1733S192.295,174.957,178.74654,171.57715c-13.537-3.37413-20.7168-16.28038-16.63067-32.654C166.19629,122.5553,183.08948,101.58768,196.6319,104.9849ZM148.76013,60.71471c17.99652,3.17547,27.39439,17.99652,24.51677,18.7202-3.76519.9574-11.0969,4.90928-16.75324,8.16057-4.34293,2.48086-7.69341,4.565-7.69341,4.565a12.03778,12.03778,0,0,1-1.05089-1.658,17.43765,17.43765,0,0,1-1.71044-5.21284v-.0057a42.36362,42.36362,0,0,1,.09947-12.9356v-.01739A77.21026,77.21026,0,0,1,148.76013,60.71471Z"/><path class="cls-5" d="M261.669,187.32926c-.81144.03964-36.71342,30.01527-36.71342,30.01527L149.137,231.598c36.61718,26.54134,90.733,3.00924,90.733,3.00924a48.74508,48.74508,0,0,1-19.84392,13.6568c41.21571-4.19366,50.40536-31.25023,50.40536-31.25023-.81662,6.715-7.45437,20.867-7.45437,20.867C281.27006,224.05655,283.639,188.952,283.639,188.952S262.48048,187.28962,261.669,187.32926Z"/><path class="cls-10" d="M213.57919,207.24017c26.62913-12.94663,34.76945-45.1563,34.84843-45.47807q.0123-.04164.02062-.08431a.92112.92112,0,1,0-1.80811-.353c-.07533.31271-8.00762,31.68644-33.85218,44.26275-16.61337,8.08157-36.96345,6.774-60.47753-3.88165a.91676.91676,0,0,0-.74015,1.67193c22.00881,9.972,41.37149,11.90292,57.63025,5.76418Q211.44421,208.294,213.57919,207.24017Z"/><path class="cls-10" d="M258.35443,169.17234c-6.097-24.10215-20.36358-11.55542-20.36358-11.55542,16.53638-18.30235,20.414,7.53935,20.414,7.53935Z"/><path class="cls-10" d="M132.531,155.77342c.912,7.02133,5.90492,15.3755,5.90492,15.3755s26.15984-5.19114,15.57418-10.79151C143.42736,154.73929,131.61894,148.75208,132.531,155.77342Z"/><polygon class="cls-11" points="132.977 224.887 132.318 228.788 35.246 215.104 11.295 158.473 77.56 159.561 95.851 218.322 132.977 224.887"/><polygon class="cls-10" points="132.816 225.643 95.183 218.988 76.921 160.32 11.279 159.243 11.31 157.704 78.2 158.801 96.52 217.656 133.137 224.132 132.816 225.643"/><polygon class="cls-12" points="34.727 213.875 132.508 227.66 132.318 228.788 35.328 215.115 34.727 213.875"/><ellipse class="cls-10" cx="52.68527" cy="190.07536" rx="4.52168" ry="7.84509" transform="translate(-50.44871 21.94517) rotate(-16.03332)"/><path class="cls-5" d="M184.2164,161.825a1.06775,1.06775,0,0,0,1.06418-.99272c.90412-12.82209-.608-19.72118-4.6219-21.08885-6.61713-2.26054-16.60744,12.41972-17.725,14.10068a1.06785,1.06785,0,0,0,1.77837,1.18264c3.87052-5.81923,11.43533-14.56571,15.25787-13.26265,1.64621.562,4.24842,3.76626,3.18032,18.91742a1.06778,1.06778,0,0,0,.99027,1.14054C184.166,161.82406,184.19144,161.825,184.2164,161.825Z"/><path class="cls-10" d="M147.21716,147.30632a1.021,1.021,0,0,0,1.01866-.96335c.74307-13.19705-.72838-19.90621-4.6312-21.11235-6.14721-1.91-14.998,12.40406-15.98724,14.041a1.02142,1.02142,0,0,0,1.74851,1.05636c3.4192-5.65574,10.15478-14.227,13.63517-13.14615,1.5669.48461,4.06485,3.60374,3.19548,19.04566a1.02175,1.02175,0,0,0,.96237,1.07789C147.17849,147.30632,147.19758,147.30632,147.21716,147.30632Z"/><path class="cls-10" d="M297.22672,212.646a18.17829,18.17829,0,1,1,36.35657,0c0,10.03959-8.1387,16.14248-18.17829,16.14248S297.22672,222.68556,297.22672,212.646Z"/><circle class="cls-10" cx="321.43676" cy="242.09883" r="3.70238"/><circle class="cls-10" cx="331.91633" cy="228.43878" r="1.66696"/><circle class="cls-10" cx="308.30011" cy="233.0341" r="1.66696"/><path class="cls-10" d="M299.37582,212.23493c.32422,4.9367,1.05555,10.70733,4.43477,12.96538,1.96963,1.31614,4.4513,1.07393,6.25673,2.74368,1.101,1.01829,1.79189,2.61023,2.68963,3.92518s2.23138,2.42408,3.53328,1.96068c.91266-.32485,1.56565-1.33252,2.26527-2.16354,3.09181-3.67252,7.71572-4.32721,11.00138-7.70087a16.0474,16.0474,0,0,0,4.01663-11.43362c-.14812-4.34985-1.98328-8.54549-4.77792-10.92352"/><circle class="cls-10" cx="230.25373" cy="64.93287" r="4.21816"/><path class="cls-10" d="M217.40046,73.34558c6.37471,3.0558,11.92846,7.55523,15.36786,12.71571,1.77711,2.66638,3.22354,5.84822,2.60986,8.99322s-4.10182,5.81779-7.04013,4.53949a7.975,7.975,0,0,1-2.43383-1.90822,74.89428,74.89428,0,0,1-8.72453-10.90026c2.14106,3.86921-1.6267,9.22987-6.04815,9.15456s-7.95605-4.64066-7.66241-9.053c-1.04406,4.4089-5.33666,7.65745-9.85035,8.05136-7.03751.61414-15.74307-5.45171-14.72849-13.14642.94032-7.13158,9.77548-11.16466,16.04038-12.22C202.5398,68.29031,210.515,70.045,217.40046,73.34558Z"/><circle class="cls-10" cx="220.89047" cy="104.85755" r="3.37156"/><circle class="cls-10" cx="236.73204" cy="108.52832" r="1.25881"/></g></g></g></svg>