<svg id="Layer_1" data-name="Layer 1" xmlns="http://www.w3.org/2000/svg" viewBox="0 0 120 120"><defs><style>.cls-1{fill:#00adee;}.cls-2{fill:#c9b07a;}.cls-3{fill:#f4d086;}.cls-4{fill:#231f20;opacity:0.2;isolation:isolate;}.cls-5{fill:#fff;}</style></defs><g id="Layer_1-2" data-name="Layer 1"><polygon class="cls-1" points="110.75 90.8 25.54 110.26 23.51 100.13 22.12 93.2 12 42.67 11.17 38.53 8.34 24.42 92.76 4.78 110.75 90.8"/><path class="cls-2" d="M112.23,77.87a28.82,28.82,0,0,1-1.48,4,17.91,17.91,0,0,0-2.07-1,12,12,0,0,0-1.85-.57,16.82,16.82,0,0,0-7.47.17c-3.76.85-6.42,3.42-9.77,4.58-8.47,3-24-8.92-25.85-17.67-3.32-17.14,32.39-10.19,29.1-21.56-2.08-6.21-10.39-5.76-11-12.73-.31-5,5.1-16.53,10.8-21.73a15.66,15.66,0,0,1,1.32-1.08c.2-.15.41-.29.61-.42,4.1,3.32,4,9.74,5,15.63a21.31,21.31,0,0,0,1.95,6.37L102,33c.81,1.55,1.62,3.13,2.4,4.73l.11.57L110,66.36Z"/><path class="cls-3" d="M110,66.36A40.33,40.33,0,0,1,108,76h-.36c-.41,0-1,0-1.66.08a20.65,20.65,0,0,0-3.44.42c-4.07,1.55-7.5,4.9-11.7,6.22A14.18,14.18,0,0,1,72.92,66.26c1.73-8.27,10.43-8.6,17.14-10.94,1.8-.65,8-2.14,9.09-4.22,1.61-3.31-3.17-6-5.29-8.21-4.46-4.37-8.22-9.71-4-15.62,1-1.32,3.72-2.9,5.87-4.12l.79-.44c.52-.29,1-.55,1.33-.77a9.78,9.78,0,0,1,1.67,3.59A52.73,52.73,0,0,0,101,30.9c.15.34.29.68.46,1L102,33c.89,1.75,1.74,3.52,2.51,5.3Z"/><path class="cls-2" d="M27.26,68c.68,3.15,3.56,4.85,5.77,6.87,8.46,7.75-1.31,21.52-8.48,26.34a6.39,6.39,0,0,1-1-1.1L22.12,93.2,12,42.67l-.83-4.14c3.32.3,8.72.41,22-3.93,7.9-2.56,21,7.72,22.07,15.18C57,64.4,25.16,58.32,27.26,68Z"/><path class="cls-3" d="M46.88,50.73C44.68,57.76,36.77,58,30.5,60c-1.68.54-7.46,1.78-8.56,3.55-1.71,2.81,2.41,5.1,4.16,7,3.7,3.74,4.06,13.25-.21,18.27a29.51,29.51,0,0,1-3.77,4.38L12,42.67C17.32,41,28.48,37.56,31.89,36.6,41.16,34,49.77,41.62,46.88,50.73Z"/><ellipse class="cls-4" cx="59.03" cy="111.06" rx="43.62" ry="4.83"/><path class="cls-5" d="M113.75,86a10,10,0,0,0-.15-1.06l-.4-2-1-5L110,66.36,104.55,38.3l-.11-.57-.59-3-3.2-16.43L99.6,12.83A10.76,10.76,0,0,0,87,4.31l-72.1,14a10.77,10.77,0,0,0-8.5,12.6L9.69,47.87v0L17,85.5h0l1.15,5.88,1.5,7.76L20.4,103a10.68,10.68,0,0,0,2.72,5.32,10.28,10.28,0,0,0,2.42,1.93h0a10.75,10.75,0,0,0,5.39,1.47,11,11,0,0,0,2.06-.2l27.24-5.29h0l44.81-8.72h0A10.75,10.75,0,0,0,113.75,86Zm-87.69,16-.62-3.21L23.8,90.29,14.92,44.54l-.22-1.12L12.06,29.84A5,5,0,0,1,16,24l4.71-.92,47-9.15L88,10a5.55,5.55,0,0,1,1-.09A4.93,4.93,0,0,1,92.19,11h0l.4.37a5,5,0,0,1,1.33,2.52l.73,3.75,1.06,5.48,10.28,53,.83,4.23.14.74,1,4.92a6.44,6.44,0,0,1,.09.86,5,5,0,0,1-4,5l-72.08,14A5,5,0,0,1,26.06,101.92Z"/></g><path class="cls-5" d="M46.3,103.92c.67,0,2.07-1,.77-1-.67,0-2.07,1-.77,1Z"/><path class="cls-5" d="M71.66,12.76a7.78,7.78,0,0,1-.1,9.15,9.13,9.13,0,0,1-8.76,3.26c-4.46-.81-8.58-4.67-12.91-3.35-2.18.66-3.88,2.56-6.13,2.91-3.34.51-6.15-2.65-7.31-5.83Z"/><path class="cls-5" d="M83.09,97.6c-1.28-2.36-2.86-5.28-5.43-6.47C74.5,89.68,72.78,92.3,70,93.25a10.42,10.42,0,0,1-7.77-.62c-2.34-1.19-4.12-3.25-6.31-4.71a14.34,14.34,0,0,0-9-2.33A7.08,7.08,0,0,0,42,87.71a7.17,7.17,0,0,0-1.34,2.94,15.68,15.68,0,0,0,3.45,13.93Z"/></svg>