<svg width="52" height="52" viewBox="0 0 52 52" fill="none" xmlns="http://www.w3.org/2000/svg">
<path fill-rule="evenodd" clip-rule="evenodd" d="M52 26C52 40.3595 40.3595 52 26 52C11.6406 52 0 40.3595 0 26C0 11.6406 11.6406 3.8147e-06 26 3.8147e-06C40.3595 3.8147e-06 52 11.6406 52 26ZM16.8829 21.4767L12.4458 25.9248L16.8804 30.37C17.0297 30.5199 17.1117 30.7188 17.1117 30.9304C17.1117 31.3691 16.755 31.7255 16.3167 31.7255C16.1004 31.7255 15.8978 31.639 15.7407 31.4766L11.3115 27.0527L6.86547 31.4928C6.71554 31.6428 6.51598 31.725 6.30422 31.725C5.86601 31.725 5.50927 31.3691 5.50927 30.9304C5.50927 30.7157 5.59427 30.5146 5.75013 30.3612L10.1843 25.9186L5.74783 21.4828C5.59463 21.3316 5.50927 21.131 5.50927 20.9172C5.50927 20.4789 5.86601 20.1228 6.30422 20.1228C6.51563 20.1228 6.71501 20.2045 6.86547 20.3528L11.3184 24.7905C11.3184 24.7905 15.7511 20.3604 15.7516 20.3595C15.9026 20.2065 16.103 20.1228 16.3167 20.1228C16.7554 20.1228 17.1121 20.4791 17.1121 20.9178C17.1121 21.1283 17.03 21.3268 16.8829 21.4767ZM38.8237 25.9235C38.8237 26.7202 39.4715 27.3682 40.2691 27.3682C41.0648 27.3682 41.7129 26.7202 41.7129 25.9235C41.7129 25.1267 41.0648 24.4788 40.2691 24.4788C39.4715 24.4788 38.8237 25.1267 38.8237 25.9235ZM40.2676 21.7403C37.9604 21.7403 36.0837 23.6173 36.0837 25.9242C36.0837 28.2306 37.9604 30.1068 40.2676 30.1068C42.5736 30.1068 44.4508 28.2306 44.4508 25.9242C44.4508 23.6173 42.5736 21.7403 40.2676 21.7403ZM40.2676 31.753C37.0531 31.753 34.4379 29.1382 34.4379 25.9242C34.4379 22.7098 37.0531 20.0943 40.2676 20.0943C43.482 20.0943 46.0985 22.7098 46.0985 25.9242C46.0985 29.1382 43.482 31.753 40.2676 31.753ZM34.0241 20.194L33.7795 20.1933C33.0452 20.1933 32.3371 20.4248 31.7456 20.8806C31.6676 20.524 31.3488 20.2556 30.9691 20.2556C30.532 20.2556 30.1818 20.6058 30.1808 21.0438L30.1834 30.8623C30.1846 31.2995 30.5412 31.6548 30.9785 31.6548C31.4157 31.6548 31.7722 31.2995 31.7733 30.8614L31.7737 24.8242C31.7737 22.812 31.9577 21.9993 33.6813 21.784C33.8406 21.7641 34.0139 21.7672 34.0146 21.7672C34.4863 21.751 34.8214 21.4269 34.8214 20.9889C34.8214 20.5506 34.4636 20.194 34.0241 20.194ZM18.7617 24.8977C18.7607 24.9201 18.759 24.9428 18.759 24.9645H26.941C26.503 23.1063 24.8354 21.723 22.8437 21.723C20.8757 21.723 19.2233 23.0732 18.7617 24.8977ZM25.9862 21.0044C27.3384 21.8601 28.2264 23.1924 28.569 24.8144C28.7381 25.7327 28.1258 26.5357 26.9882 26.5595L18.69 26.5609C18.6916 26.5991 18.6956 26.6406 18.7009 26.6836C18.7423 26.9134 18.8015 27.1365 18.8784 27.3517C19.3185 28.5038 20.556 30.1179 22.8684 30.1437C23.5749 30.1397 24.2394 29.9616 24.8226 29.6501C25.2809 29.3941 25.6634 29.0641 25.9717 28.7234C26.074 28.6013 26.167 28.4791 26.2503 28.3604C26.638 27.8639 27.1307 27.9551 27.4242 28.18C27.7722 28.4467 27.8309 29.0052 27.5142 29.3979C27.505 29.409 27.4958 29.4183 27.4866 29.4288C27.0303 30.001 26.5592 30.479 25.9953 30.8415C25.452 31.1897 24.8623 31.4368 24.253 31.5851C23.5438 31.7687 22.859 31.8095 22.1554 31.7243C19.7844 31.4341 17.7958 29.6829 17.2077 27.3696C17.0903 26.9045 17.0338 26.432 17.0338 25.9639C17.0338 24.0969 17.9328 22.2846 19.4902 21.1767C21.3994 19.819 24.0095 19.7495 25.9862 21.0044Z" fill="black"/>
</svg>
