<svg xmlns="http://www.w3.org/2000/svg" xmlns:xlink="http://www.w3.org/1999/xlink" width="200" height="200" viewBox="0 0 200 200"><defs><style>.cls-1,.cls-18,.cls-4,.cls-9{fill:none;}.cls-2{isolation:isolate;}.cls-3{fill:#f6f6f6;}.cls-4{stroke:#c9c9c9;stroke-width:2px;}.cls-4,.cls-9{stroke-miterlimit:10;}.cls-5{clip-path:url(#clip-path);}.cls-12,.cls-6{fill:#231f20;}.cls-6{opacity:0.1;}.cls-24,.cls-6{mix-blend-mode:multiply;}.cls-7{fill:#3c2415;}.cls-8{clip-path:url(#clip-path-2);}.cls-9{stroke:#6b3c22;stroke-width:0.62px;}.cls-10{fill:#27a7de;}.cls-11{fill:#414042;}.cls-13{fill:#f3d2b6;}.cls-14{fill:#e5c3a9;}.cls-15{fill:#cd9b78;}.cls-16,.cls-19{fill:#fff;}.cls-17{fill:#db9c94;}.cls-18{stroke:#b79581;stroke-linecap:round;stroke-linejoin:round;stroke-width:0.75px;}.cls-19,.cls-20{opacity:0.7;}.cls-20,.cls-25{fill:#c59577;}.cls-21{clip-path:url(#clip-path-3);}.cls-22{fill:#221f1f;}.cls-23{clip-path:url(#clip-path-4);}.cls-24{opacity:0.2;}.cls-25{opacity:0.5;}.cls-26{fill:#cc9a78;}</style><clipPath id="clip-path"><path class="cls-1" d="M169.73,100c0-15.62-12.14-30.52-11-45,2.42-30.7-34.1-46.38-57-46.38-20.8,0-45-2.72-54,45.17C44.71,70,30.27,82.29,30.27,100c0,1.65.05,3.28.16,4.9.14,1.92-14,13.29-3.51,25.07,6.59,7.36,8-3.69,11.74,3.22A69.74,69.74,0,0,0,169.73,100Z"/></clipPath><clipPath id="clip-path-2"><polyline class="cls-1" points="60.74 175.83 149.93 178.84 150.94 88.46 53.11 43.41 60.74 174.65"/></clipPath><clipPath id="clip-path-3"><path class="cls-1" d="M127.35,47.16S59.69,19.5,53.11,67.4a13.07,13.07,0,0,0-.6-3.1c-2.16-13.57.15-28.93,10-39.17C70.35,17,82.27,13.34,93.29,12.41c13.24-1.12,26.93,1.07,38.13,8.53a46.13,46.13,0,0,1,20.32,34,59.71,59.71,0,0,1,.31,8.56l-1.18,33.14S118.85,115,127.35,47.16Z"/></clipPath><clipPath id="clip-path-4"><path class="cls-1" d="M58.17,79.6S60,92.93,72.86,86.18c0,0-5.51-9.57-14.71-6.74"/></clipPath></defs><title>Artboard 105 copy</title><g class="cls-2"><g id="Layer_1" data-name="Layer 1"><circle class="cls-3" cx="100" cy="100" r="69.73"/><circle class="cls-4" cx="100" cy="100" r="69.73"/><g class="cls-5"><path class="cls-6" d="M159.33,88.77l.72-19.29a60,60,0,0,0-.23-7.7c-1-.85-2-1.7-2.87-2.63A42.61,42.61,0,0,1,154,55.77c-1.12-1.41-2.19-2.87-3.24-4.35l-4.43-2.17c-4.42-2.66-5.13-4.26-7.48-7.85a13.35,13.35,0,0,1-3.08-6.35,8.9,8.9,0,0,1-1.1-3.38q-.19-3.45-.4-6.89l.15-.72c-10.16-5.13-21.82-6.61-33.16-5.65-11,.93-22.94,4.58-30.78,12.72-9.85,10.24-12.16,25.6-10,39.17a13.07,13.07,0,0,1,.6,3.1l.74.19c0,.52,0,1,0,1.54,0,1.32,0,2.63,0,3.91,0,.5,0,1,0,1.5s0,.81,0,1.21c-.14-.1-.28-.2-.42-.32a6.88,6.88,0,0,1-1.39-1.57,4.09,4.09,0,0,1-.57-1.8A6.59,6.59,0,0,0,62,83.9c0,.35,0,.69,0,1a10,10,0,0,1-2.29-1.2A7.06,7.06,0,0,0,62,86c0,3.54.06,6.66.09,9,0,.58,0,1.12,0,1.6v.15c0,.49,0,.93,0,1.3,0,.66,0,1.12,0,1.36v.18a18.84,18.84,0,0,0-2.26-1.38l-.42-.2a9.91,9.91,0,0,0-1.25-.46,5.66,5.66,0,0,0-1.21-.2,3.76,3.76,0,0,0-2.08.49,4.43,4.43,0,0,0-.93.78,5.21,5.21,0,0,0-.56.77l-.15.28-.13.22s0,0,0,0a8.28,8.28,0,0,0-.75,2.72c-1,8.58,5.76,14.39,12.86,18.52L66,132.67a59.35,59.35,0,0,1-13.42-5c2.53-1.22,8.39-8.39,4.62-9.3-3-.62-5.2,6-5.94,8.13l-.29-.11a20.57,20.57,0,0,0-4-1.64c-2.19-.59-13.14-2.24-14.35.61-1.8,3.77,12.09,2.93,14.34,2.8-3.64.3-9.62,3.45-10,7.48,3.4,2.43,9.25-5.26,11.08-7.61-.78,1.66-3.77,7.29,0,6.55,1.78-.35,2.7-2.77,3.24-4.42a60.52,60.52,0,0,0,14.21,5.24l.71.16,2.62,45.05v1.18l26.78.9.4,39.34h-.18l.1,1.41c-20.09.32-34.73,1.3-34.73,2.45,0,1.41,21.9,2.56,48.91,2.56s48.92-1.15,48.92-2.56-19.74-2.44-44.86-2.55l0,0h.06v-1l0-.26h0l.27-38.7,43.54,1.47,1-86h0l.1-2.58C161.22,93.59,162.6,90.45,159.33,88.77Zm-47,134.61H110c-4.18,0-8.24,0-12.12.08v-.07h0l0-1.31h-.36l-.27-39.28,14.93.5.27,38.78h-.29Z"/><polyline class="cls-7" points="60.74 175.83 149.93 178.84 150.94 88.46 53.11 43.41 60.74 174.65"/><g class="cls-8"><polyline class="cls-9" points="63.39 112.66 69.32 188.59 77.69 184.81 69.59 114.01 81.61 117.08 82.26 184.27 97.32 184.41 95.66 110.03 116.42 116.77 112.98 186.29 132.21 189.26 122.9 113.52 136.13 108.93 142.1 191.13"/></g><path class="cls-10" d="M102.76,115s12.79,9.12,17.49,17.54a10.32,10.32,0,0,0-1,.6,7.56,7.56,0,0,0-1.78,1.56c-1-4.19-6.24-10.28-19.41-19.11Z"/><path class="cls-10" d="M117.2,133.84a9.36,9.36,0,0,0,2.94-1.48c3.8,6.66-2.14,13.2-13.66,14a2.55,2.55,0,0,0-1.54-2.53C109.77,143.34,119.9,141.39,117.2,133.84Z"/><polygon class="cls-11" points="106.6 149 87.23 148.09 87.93 217.38 89.59 217.23 89.17 156.94 104.1 156.87 104.52 217.23 106.11 217.34 106.6 149"/><polyline class="cls-12" points="109.67 119.72 108.32 153.41 86.82 153.41 84.45 118.82"/><path class="cls-10" d="M70,130.94a54.9,54.9,0,0,1-12.58-1.5,58.14,58.14,0,0,1-15.66-6L43.22,121a56.75,56.75,0,0,0,14.92,5.73c8.07,1.88,20.21,2.79,32.2-3.54l1.32,2.5A46,46,0,0,1,70,130.94Z"/><path class="cls-13" d="M44.22,121.84c2.31-.71,8.86-8.48,4.93-9.43-3-.62-5.2,6-5.94,8.13l-.29-.11a20,20,0,0,0-4-1.64c-2.19-.59-13.14-2.24-14.35.61-1.8,3.77,12.09,2.93,14.34,2.8-3.64.3-9.62,3.45-10,7.48,3.4,2.43,9.25-5.26,11.08-7.61-.78,1.66-3.77,7.29,0,6.55,1.93-.38,2.86-3.2,3.37-4.82"/><polygon class="cls-10" points="84.63 125.76 86.27 151.59 108.85 151.17 110.16 125.76 97.32 144 84.63 125.76"/><path class="cls-13" d="M88.05,125.76s8.3,25.92,18.55.5l-18-.5"/><path class="cls-14" d="M88,126.47s9.13,6.18,18.29.47l-2.75-2.59Z"/><path class="cls-15" d="M94.34,134.07a2.76,2.76,0,0,1,2.57,3.34S96.57,134.68,94.34,134.07Z"/><path class="cls-15" d="M99.67,134.07a2.76,2.76,0,0,0-2.58,3.34S97.43,134.68,99.67,134.07Z"/><path class="cls-14" d="M139.62,100.65a18.78,18.78,0,0,1-3.86-3.11c-.46-.1-.92-.2-1.35-.33-5.45-1.56-9.58-5.27-12.53-10A22.41,22.41,0,0,1,120,83.41a56.3,56.3,0,0,1-4.2-5.86,45,45,0,0,1-4.65-11.39,19.74,19.74,0,0,1-.65-6.28L90.48,19.34,62.59,33.76a21,21,0,0,1-9,12.73c.16,15.31.49,47.09.49,47.09C51.81,92,48.34,90,46,92.61a7,7,0,0,0-1.55,4c-1.33,11.61,11.47,18.14,20.18,22.33a88,88,0,0,0,17.94,6.47c10,2.36,20.58,2.93,30.54.24a45,45,0,0,0,25-17.79c1.44-2.06,2.76-4,4-5.9A19.89,19.89,0,0,1,139.62,100.65Z"/><polygon class="cls-16" points="54.92 60.9 54.92 60.95 56.23 60.25 54.92 60.9"/><path class="cls-16" d="M55.19,96.25,54.93,61l-.41.21-.25.13-.49,0c.16,15.17.34,32.32.34,32.32C51.81,92,48.34,90,46,92.61a5.09,5.09,0,0,0-.84,1.27C49.36,89.92,55.19,96.25,55.19,96.25Z"/><path class="cls-13" d="M143.78,66.91l-4.64-.85-3.5,1.76-7.48-26.73L92.29,37.9C79.56,82.35,75.8,114.11,76,123.55c21.29,6.85,46.76,6.18,62.12-15.73,5.48-7.83,6.75-14.12,9.32-19.58Z"/><path class="cls-17" d="M77.84,102s-12.61,3.86-12.07-2.74c.69-8.5,10.2.63,10.2.63l4-14.8L77.84,102Z"/><path class="cls-16" d="M91.8,115.42a20.25,20.25,0,0,1-3.77-.35c0,1.08.28,4.31,3.7,4,3.07-.28,2.73-2.61,2.36-3.78A19.42,19.42,0,0,1,91.8,115.42Z"/><path class="cls-16" d="M94.05,115.28c.36,1.13,1.57,3.89,4.65,2.66,2.82-1.13,1.89-3.24,1.2-4.26A21,21,0,0,1,94.05,115.28Z"/><path class="cls-16" d="M104.91,110.8l-.85.49a22.25,22.25,0,0,1-4.07,2.34l-.09.06s1.91,4.33,5.33,2S104.91,110.8,104.91,110.8Z"/><path class="cls-16" d="M104.87,111s2.56,3.37,5,.65-1.29-4.19-1.29-4.19Z"/><path class="cls-18" d="M74.7,111.64s27.2,12.81,36.83-9.62"/><path class="cls-18" d="M106.44,102.37s6.48-3.59,8.08,3.46"/><path class="cls-19" d="M76.28,100.71,79.77,87,80,85.06l-4,14.8s-8.76-8.58-10.09-1.45C68,95.68,71.61,96,76.28,100.71Z"/><path class="cls-20" d="M53.11,67.4s11-49.12,74.65-11.87l2.12-18.36L95.66,26.92,68.51,35.55,55.67,43.41Z"/><path class="cls-7" d="M127.35,47.16S59.69,19.5,53.11,67.4a13.07,13.07,0,0,0-.6-3.1c-2.16-13.57.15-28.93,10-39.17C70.35,17,82.27,13.34,93.29,12.41c13.24-1.12,26.93,1.07,38.13,8.53a46.13,46.13,0,0,1,20.32,34,59.71,59.71,0,0,1,.31,8.56l-1.11,29.4S118.85,115,127.35,47.16Z"/><g class="cls-21"><path class="cls-9" d="M44.38,67.82c17-85.62,83-20.66,83-20.66S122.56,23.07,94.62,9.31"/><path class="cls-9" d="M57.54,55.32c16.13-47.1,69.81-8.84,69.81-8.84S125.87,90.7,156.1,88.36"/><path class="cls-9" d="M159,81.17c-26.43-4.73-31.61-34.69-31.61-34.69s-5.44-25,17.8-24.15"/><path class="cls-9" d="M174.5,61.44c-13.9-39.95-47.15-15-47.15-15S144.49,63.62,161,62.68"/></g><path class="cls-20" d="M72.08,86.1s3.39,0,1.2-3.89.07-.22.07-.22-6.56-14.38-14-10.61l-2.63,2.43-.48,3.91Z"/><path class="cls-16" d="M58.17,79.68S60,93,72.86,86.26c0,0-5.51-9.56-14.71-6.73"/><path class="cls-22" d="M74.22,84.2s-9.76-25.85-17.79-10C56.43,74.18,64.09,64.06,74.22,84.2Z"/><g class="cls-23"><path class="cls-10" d="M71,81a3.72,3.72,0,1,1-4.73,2.12A3.65,3.65,0,0,1,71,81Z"/><path class="cls-22" d="M70.27,82.72a1.82,1.82,0,1,1-2.31,1A1.79,1.79,0,0,1,70.27,82.72Z"/><path class="cls-16" d="M68.05,83.49a.73.73,0,1,1-.94.42A.73.73,0,0,1,68.05,83.49Z"/></g><path class="cls-22" d="M72.86,86.18c-.11-.13-.11-.62-.18-.8a11.82,11.82,0,0,0-7.25-6.47A31.74,31.74,0,0,0,61.91,78c-1.52-.3-3.09-.4-4.6-.76a9,9,0,0,1-3.8-1.93,7.09,7.09,0,0,1-1.39-1.57A4.13,4.13,0,0,1,51.55,72s-.87,4.45,4.4,7.21c0,0-1.67.27-4.28-1.53a8.21,8.21,0,0,0,3.43,2.93,5.42,5.42,0,0,1,2.08,1.61c.66,1,1,2.15,1.69,3.14a6.48,6.48,0,0,0,2.64,2.12,7.78,7.78,0,0,0,2,.57,13.66,13.66,0,0,0,1.57.13c.4,0,.87-.09,1.27-.05,0,0-7.33-.71-7.11-8.33C59.22,79.77,65.84,77.77,72.86,86.18Z"/><path class="cls-24" d="M58.53,80.69s6.36-1,14.33,5.57l-2.73-3.12L66,80.43,61.71,79l-2,.15Z"/><path class="cls-25" d="M85.89,88a24.65,24.65,0,0,1,5.71-2.16,24.22,24.22,0,0,1,9.23-.36l6.8-1.15,3.54-6.71.28-3.61c-5.85-5.46-19.24,4-23.39,7.05-.25.26-2.42,2.2-3,2.72-3.6,3.52.57,4.26.57,4.26Z"/><path class="cls-22" d="M84.55,84.27S111.94,56.9,115,76.73C115,76.73,109.47,63.49,84.55,84.27Z"/><path class="cls-12" d="M85.83,88s5.23-5.78,14.26-3.35,11-8.39,11-8.39.26,9.67-7.07,10.32c0,0,5.17,2.17,7.68-2.33,0,0-2.87,9.07-16.6,2.63C90.83,84.84,85.83,88,85.83,88Z"/><path class="cls-26" d="M139.56,106s-1.68-1.26-1-4.43c0,0-2.24,3.66-.19,6.13Z"/><path class="cls-13" d="M137.3,89s2.07-8.82,11.43-7c11.68,2.23-2.83,13.33-2.83,13.33s-4.57,3.57-.89,7,4.33,5,2.63,6.35a5.29,5.29,0,0,1-2.54,1,4.85,4.85,0,0,1-5.15-2.21,23.92,23.92,0,0,1-1.56-3.82,32.62,32.62,0,0,1-1.31-5.26,28.12,28.12,0,0,1-.34-4.3,24.85,24.85,0,0,1,.19-3.11,15.54,15.54,0,0,1,.31-1.68Z"/><path class="cls-26" d="M139.74,96.82s2.25-17.13,6.65-6.18C146.39,90.64,142.43,85.17,139.74,96.82Z"/><path class="cls-26" d="M139.71,96.88s2.73-9.18,4.15.62C143.86,97.5,142.21,91.51,139.71,96.88Z"/></g></g></g></svg>