<svg width="151" height="34" viewBox="0 0 151 34" fill="none" xmlns="http://www.w3.org/2000/svg">
<path fill-rule="evenodd" clip-rule="evenodd" d="M42.8821 1.04C44.943 1.6 46.5679 3.24 47.1228 5.32C48.1532 9.12 48.1136 17.04 48.1136 17.04C48.1136 17.04 48.1136 24.92 47.1228 28.72C46.5679 30.8 44.943 32.44 42.8821 33C39.117 34 24.0568 34 24.0568 34C24.0568 34 9.03615 34 5.23146 32.96C3.17058 32.4 1.54566 30.76 0.990806 28.68C0 24.92 0 17 0 17C0 17 0 9.12 0.990806 5.32C1.54566 3.24 3.21021 1.56 5.23146 1C8.99652 0 24.0568 0 24.0568 0C24.0568 0 39.117 0 42.8821 1.04ZM31.7852 17L19.2614 24.28V9.72003L31.7852 17Z" fill="black"/>
<path d="M69.8723 30.9599C68.9211 30.3199 68.2473 29.3199 67.851 27.9199C67.4547 26.5599 67.2565 24.7199 67.2565 22.4799V19.3999C67.2565 17.1199 67.4943 15.2799 67.9303 13.8799C68.4059 12.4799 69.1192 11.4799 70.0704 10.8399C71.0612 10.1999 72.3295 9.87988 73.9147 9.87988C75.4604 9.87988 76.7286 10.1999 77.6798 10.8399C78.631 11.4799 79.3047 12.5199 79.7407 13.8799C80.1766 15.2399 80.4144 17.0799 80.4144 19.3999V22.4799C80.4144 24.7599 80.2163 26.5599 79.7803 27.9599C79.3444 29.3199 78.6706 30.3599 77.7194 30.9999C76.7683 31.6399 75.4604 31.9599 73.8355 31.9599C72.1709 31.9199 70.8234 31.5999 69.8723 30.9599ZM75.2226 27.5999C75.5 26.9199 75.6189 25.7599 75.6189 24.1999V17.5599C75.6189 16.0399 75.5 14.9199 75.2226 14.1999C74.9452 13.4799 74.5092 13.1599 73.8355 13.1599C73.2014 13.1599 72.7258 13.5199 72.488 14.1999C72.2106 14.9199 72.0917 16.0399 72.0917 17.5599V24.1999C72.0917 25.7599 72.2106 26.9199 72.488 27.5999C72.7258 28.2799 73.2014 28.6399 73.8751 28.6399C74.5092 28.6399 74.9452 28.3199 75.2226 27.5999Z" fill="black"/>
<path d="M143.034 22.5196V23.5996C143.034 24.9596 143.074 25.9996 143.153 26.6796C143.232 27.3596 143.391 27.8796 143.668 28.1596C143.906 28.4796 144.302 28.6396 144.857 28.6396C145.57 28.6396 146.046 28.3596 146.323 27.7996C146.601 27.2396 146.72 26.3196 146.759 24.9996L150.841 25.2396C150.881 25.4396 150.881 25.6796 150.881 25.9996C150.881 27.9596 150.366 29.4396 149.296 30.3996C148.226 31.3596 146.72 31.8396 144.778 31.8396C142.439 31.8396 140.814 31.0796 139.863 29.5996C138.912 28.1196 138.437 25.8396 138.437 22.7196V18.9996C138.437 15.7996 138.912 13.4796 139.903 11.9996C140.894 10.5196 142.558 9.79956 144.897 9.79956C146.522 9.79956 147.79 10.1196 148.662 10.7196C149.534 11.3196 150.128 12.2796 150.485 13.5196C150.841 14.7996 151 16.5596 151 18.7996V22.4396H143.034V22.5196ZM143.628 13.5596C143.391 13.8796 143.232 14.3596 143.153 15.0396C143.074 15.7196 143.034 16.7596 143.034 18.1596V19.6796H146.522V18.1596C146.522 16.7996 146.482 15.7596 146.403 15.0396C146.323 14.3196 146.125 13.8396 145.887 13.5596C145.65 13.2796 145.253 13.1196 144.778 13.1196C144.223 13.0796 143.866 13.2396 143.628 13.5596Z" fill="black"/>
<path d="M58.2991 22.1199L52.9091 2.3999H57.6254L59.5277 11.3199C60.0033 13.5199 60.36 15.3999 60.5978 16.9599H60.7167C60.8752 15.8399 61.2319 13.9999 61.7867 11.3599L63.7684 2.3999H68.4846L63.0153 22.1199V31.5599H58.3387V22.1199H58.2991Z" fill="black"/>
<path d="M95.7518 10.2803V31.6003H92.0263L91.63 29.0003H91.5111C90.5203 30.9603 88.9746 31.9603 86.9534 31.9603C85.5663 31.9603 84.5358 31.4803 83.8621 30.5603C83.1883 29.6403 82.8713 28.2003 82.8713 26.2003V10.2803H87.6271V25.9203C87.6271 26.8803 87.746 27.5603 87.9442 27.9603C88.1424 28.3603 88.4991 28.5603 88.9746 28.5603C89.371 28.5603 89.7673 28.4403 90.1636 28.1603C90.5599 27.9203 90.8374 27.6003 90.9959 27.2003V10.2803H95.7518Z" fill="black"/>
<path d="M120.125 10.2803V31.6003H116.4L116.004 29.0003H115.885C114.894 30.9603 113.348 31.9603 111.327 31.9603C109.94 31.9603 108.909 31.4803 108.236 30.5603C107.562 29.6403 107.245 28.2003 107.245 26.2003V10.2803H112.001V25.9203C112.001 26.8803 112.12 27.5603 112.318 27.9603C112.516 28.3603 112.873 28.5603 113.348 28.5603C113.745 28.5603 114.141 28.4403 114.537 28.1603C114.934 27.9203 115.211 27.6003 115.37 27.2003V10.2803H120.125Z" fill="black"/>
<path d="M108.671 6.2799H103.954V31.5599H99.3175V6.2799H94.6013V2.3999H108.671V6.2799Z" fill="black"/>
<path d="M135.86 13.6798C135.582 12.3198 135.107 11.3598 134.473 10.7598C133.838 10.1598 132.927 9.83982 131.817 9.83982C130.945 9.83982 130.113 10.0798 129.36 10.5998C128.607 11.0798 128.013 11.7598 127.616 12.5598H127.577V1.31982H122.979V31.5598H126.903L127.378 29.5598H127.497C127.854 30.2798 128.409 30.8398 129.162 31.2798C129.915 31.6798 130.708 31.9198 131.619 31.9198C133.244 31.9198 134.393 31.1598 135.146 29.6798C135.899 28.1998 136.296 25.8398 136.296 22.6798V19.3198C136.256 16.8798 136.137 14.9998 135.86 13.6798ZM131.5 22.3598C131.5 23.9198 131.421 25.1198 131.302 25.9998C131.183 26.8798 130.945 27.5198 130.668 27.8798C130.351 28.2398 129.955 28.4398 129.479 28.4398C129.083 28.4398 128.726 28.3598 128.409 28.1598C128.092 27.9598 127.814 27.6798 127.616 27.3198V15.2398C127.775 14.6798 128.052 14.1998 128.449 13.7998C128.845 13.4398 129.281 13.2398 129.717 13.2398C130.192 13.2398 130.589 13.4398 130.826 13.7998C131.104 14.1998 131.262 14.8398 131.381 15.7198C131.5 16.6398 131.54 17.9198 131.54 19.5598V22.3598H131.5Z" fill="black"/>
</svg>
