<svg width="102" height="46" viewBox="0 0 102 46" fill="none" xmlns="http://www.w3.org/2000/svg">
<path d="M61.2072 19.9732H58.6648C58.6125 19.768 58.5736 19.5301 58.5477 19.26C58.4959 18.7343 58.4959 18.2049 58.5477 17.6792C58.5736 17.4097 58.6125 17.172 58.6648 16.9656H65.001V36.7463C64.6838 36.8007 64.364 36.8391 64.0428 36.8613C63.7238 36.8855 63.404 36.8982 63.084 36.8996C62.7775 36.8976 62.4712 36.8849 62.1656 36.8613C61.8446 36.8389 61.5249 36.8003 61.2078 36.7457V19.9724V19.9728L61.2072 19.9732ZM83.2653 24.9476C83.2653 24.2276 83.1674 23.5402 82.9724 22.8842C82.7765 22.2291 82.4889 21.6573 82.1119 21.1686C81.7331 20.6807 81.251 20.2883 80.6643 19.9929C80.0778 19.6972 79.3801 19.5492 78.5718 19.5492C76.9814 19.5492 75.7623 20.0254 74.9151 20.9761C74.0677 21.927 73.553 23.2508 73.3702 24.9476H83.2655H83.2653ZM73.3312 27.8007C73.3835 29.9599 73.9506 31.5411 75.0326 32.5431C76.1142 33.5455 77.7116 34.0475 79.8236 34.0475C81.6743 34.0475 83.4344 33.7257 85.1032 33.0831C85.3112 33.4687 85.4806 33.9379 85.6111 34.4905C85.7392 35.0286 85.8177 35.577 85.8457 36.1291C84.9859 36.4899 84.0399 36.7586 83.0107 36.939C81.9801 37.1184 80.8395 37.2089 79.5888 37.2089C77.763 37.2089 76.1983 36.9575 74.8953 36.4567C73.5913 35.9549 72.5158 35.248 71.6684 34.3359C70.8212 33.4236 70.2017 32.3438 69.8106 31.0969C69.4197 29.8505 69.2237 28.4815 69.2237 26.9906C69.2237 25.5255 69.4126 24.1564 69.7908 22.8838C70.1682 21.6121 70.7496 20.5065 71.5309 19.5683C72.3135 18.6297 73.2976 17.8845 74.4841 17.3319C75.6699 16.7792 77.0712 16.5024 78.6885 16.5024C80.0702 16.5024 81.2826 16.7341 82.3259 17.1967C83.3683 17.6593 84.2421 18.2956 84.9463 19.1053C85.6501 19.9152 86.1846 20.8792 86.5497 21.9968C86.9145 23.1154 87.0977 24.3298 87.0977 25.6411C87.0977 26.0011 87.0838 26.38 87.0579 26.7782C87.0365 27.1191 87.0105 27.4597 86.98 27.7999H73.3304L73.3308 27.8005L73.3312 27.8007ZM91.3629 16.9656C91.6351 16.9169 91.9091 16.8784 92.1843 16.8502C92.4444 16.825 92.7187 16.812 93.0056 16.812C93.2924 16.812 93.5788 16.825 93.8661 16.8502C94.1527 16.8763 94.4136 16.9149 94.6484 16.9656C94.7259 17.3514 94.8043 17.8596 94.8822 18.4887C94.9603 19.1186 95.0001 19.6516 95.0001 20.0888C95.5474 19.2151 96.271 18.4563 97.1703 17.8135C98.0699 17.1714 99.2235 16.8496 100.631 16.8496C100.84 16.8496 101.055 16.8564 101.277 16.8693C101.466 16.8793 101.656 16.8982 101.844 16.9266C101.896 17.1583 101.936 17.4029 101.961 17.6595C101.987 17.9163 102 18.1864 102 18.469C102 18.7777 101.981 19.0993 101.942 19.4327C101.904 19.755 101.858 20.0764 101.805 20.3965C101.594 20.3452 101.377 20.3194 101.159 20.3195H100.631C99.9271 20.3195 99.2556 20.416 98.6168 20.6085C97.9775 20.8016 97.4043 21.1423 96.8959 21.6302C96.3879 22.1189 95.9834 22.7874 95.6841 23.6357C95.3836 24.4841 95.2341 25.5765 95.2341 26.913V36.7457C94.9169 36.8 94.597 36.8388 94.2757 36.8611C93.9242 36.8869 93.6045 36.8994 93.3179 36.8994C92.9981 36.8981 92.6784 36.8854 92.3595 36.8611C92.0254 36.8372 91.6926 36.7987 91.3619 36.7459V16.9658L91.3629 16.9656ZM63.9137 6.40364C63.9137 6.86515 63.8292 7.32287 63.6642 7.75476C63.226 7.91744 62.7616 8.00084 62.2933 8.00093H62.2876C61.8194 8.00099 61.3549 7.91766 60.9167 7.75496C60.7514 7.32299 60.6668 6.86511 60.6668 6.40344V6.3974C60.6668 5.92176 60.7554 5.46622 60.9157 5.04588C61.354 4.88295 61.8186 4.79962 62.287 4.79991H62.2923C62.775 4.79991 63.2368 4.8872 63.6632 5.04588C63.8284 5.47786 63.9129 5.93575 63.9127 6.3974V6.40344H63.9133L63.9137 6.40364ZM68.6927 5.33368H64.9031L67.5825 2.69198C67.1611 2.10863 66.6439 1.59881 66.0521 1.18359L63.3723 3.82529V0.0890958C63.016 0.0300042 62.6553 0.000203048 62.2939 0H62.287C61.9194 0 61.5593 0.0309724 61.2084 0.0890958V3.82529L58.5281 1.18339C58.2329 1.39051 57.9558 1.62167 57.6998 1.87443L57.6986 1.87564C57.4426 2.12821 57.2083 2.40133 56.9983 2.69218L59.6786 5.33368H55.8883C55.8883 5.33368 55.7981 6.03559 55.7981 6.39841V6.40283C55.7981 6.76565 55.8293 7.12123 55.8885 7.46736H59.6788L56.9981 10.1087C57.4197 10.6919 57.937 11.2019 58.5287 11.6175L61.2087 8.97595V12.7123C61.5591 12.7703 61.9186 12.8008 62.2858 12.8012H62.295C62.6559 12.8009 63.0161 12.7712 63.3721 12.7123V8.97595L66.0523 11.6181C66.3475 11.4107 66.6247 11.1796 66.8811 10.927H66.8817C67.1376 10.6742 67.3718 10.4009 67.5819 10.1099L64.9025 7.46756H68.6929C68.7516 7.12163 68.7826 6.76726 68.7826 6.40525V6.396C68.7826 6.04001 68.7524 5.68504 68.6929 5.33409L68.6927 5.33368ZM0 36.2067L10.5599 20.0118H1.25135C1.17342 19.5492 1.13445 19.0355 1.13445 18.4698C1.13445 17.9302 1.17403 17.4284 1.25216 16.9654H16.3095L16.5054 17.4676L5.86729 33.7003H15.8401C15.9182 34.2146 15.9576 34.7411 15.9576 35.2807C15.9576 35.7956 15.9185 36.2837 15.8403 36.7463H0.195842L0 36.2061V36.2067ZM30.4668 27.4534C30.0758 27.4025 29.5802 27.3516 28.9807 27.2995C28.3809 27.2486 27.8725 27.2225 27.456 27.2225C25.8391 27.2225 24.6071 27.5181 23.7603 28.1094C22.9122 28.7011 22.4893 29.6003 22.4893 30.8085C22.4893 31.5795 22.6321 32.1837 22.9192 32.6205C23.2056 33.0582 23.5644 33.3916 23.9947 33.6231C24.4251 33.8544 24.9004 33.996 25.4217 34.0475C25.9429 34.0988 26.4386 34.1243 26.9078 34.1243C27.5076 34.1243 28.1267 34.0921 28.7657 34.0278C29.4042 33.964 29.9713 33.8673 30.467 33.7388V27.4534H30.4668ZM30.4668 23.7138C30.4668 22.1965 30.0758 21.1427 29.2938 20.5514C28.5113 19.9601 27.3772 19.6644 25.8911 19.6644C24.9778 19.6644 24.1244 19.7356 23.3294 19.8768C22.5427 20.016 21.7654 20.2025 21.0018 20.4353C20.506 19.587 20.2592 18.5724 20.2592 17.3892C21.1446 17.1068 22.1221 16.8884 23.1917 16.7341C24.2607 16.5797 25.2905 16.5024 26.2817 16.5024C28.8889 16.5024 30.8703 17.0877 32.2263 18.2572C33.5817 19.4277 34.2602 21.2975 34.2602 23.8676V36.2449C33.3471 36.4505 32.2394 36.6624 30.9358 36.8811C29.6178 37.1005 28.2833 37.2101 26.9466 37.2089C25.6691 37.2089 24.5149 37.0936 23.4855 36.8621C22.4553 36.6303 21.5817 36.2584 20.8649 35.7435C20.1472 35.2299 19.5939 34.5742 19.2023 33.7776C18.8114 32.9805 18.6158 32.0168 18.6158 30.8855C18.6158 29.7805 18.8438 28.8099 19.3002 27.9741C19.7486 27.1483 20.3845 26.4357 21.1582 25.8921C21.9404 25.3402 22.8398 24.9283 23.8568 24.6588C24.8739 24.3887 25.9425 24.2536 27.0637 24.2536C27.898 24.2536 28.5825 24.2733 29.1172 24.3119C29.6512 24.3501 30.1013 24.3952 30.4664 24.4467V23.714L30.4668 23.7138ZM42.356 33.5067C42.8498 33.6865 43.361 33.8158 43.8816 33.8924C44.403 33.9698 45.0803 34.0083 45.9155 34.0083C46.8539 34.0083 47.7139 33.8608 48.4961 33.5652C49.2786 33.2702 49.9498 32.8134 50.5104 32.1962C51.071 31.5795 51.5141 30.8024 51.8401 29.8632C52.1659 28.9256 52.3293 27.8142 52.3293 26.5282C52.3293 24.472 51.9441 22.8397 51.1754 21.6314C50.4057 20.4235 49.1477 19.8193 47.4014 19.8193C46.7496 19.8193 46.1233 19.9347 45.5246 20.1664C44.924 20.3977 44.3899 20.7449 43.9205 21.2074C43.4513 21.67 43.0733 22.2553 42.7867 22.962C42.4991 23.6695 42.3562 24.5106 42.3562 25.4876V33.5073V33.5069L42.356 33.5067ZM38.4841 16.9652C38.7493 16.9137 39.0165 16.8753 39.2858 16.8498C39.5654 16.8243 39.8461 16.8115 40.1269 16.8116C40.3868 16.8116 40.6604 16.8248 40.9478 16.8498C41.2342 16.8759 41.508 16.9147 41.7691 16.9654C41.7948 17.0177 41.8279 17.1776 41.8671 17.4477C41.9058 17.7178 41.945 18.0068 41.9844 18.3149C42.0235 18.6236 42.0625 18.9199 42.1017 19.2019C42.1408 19.485 42.1604 19.665 42.1604 19.7421C42.4205 19.3312 42.7337 18.9324 43.0988 18.5468C43.464 18.1611 43.9012 17.8141 44.4095 17.506C44.9179 17.1973 45.4911 16.9534 46.1303 16.7731C46.7688 16.5933 47.4793 16.5026 48.2617 16.5026C49.4347 16.5026 50.5235 16.6957 51.5278 17.0815C52.531 17.4676 53.3909 18.0643 54.1084 18.8742C54.825 19.6841 55.3854 20.7125 55.79 21.9588C56.1939 23.2065 56.3958 24.6779 56.3958 26.3742C56.3958 29.7671 55.4636 32.4218 53.599 34.3365C51.7344 36.2518 49.0952 37.2089 45.6796 37.2089C45.1058 37.2089 44.5195 37.1703 43.9197 37.0932C43.3195 37.0158 42.7985 36.9128 42.355 36.7849V45.8461C42.0247 45.8991 41.6921 45.9377 41.3583 45.9618C41.006 45.9869 40.6863 46 40.3995 46C40.0798 45.9986 39.7602 45.9859 39.4415 45.9618C39.1204 45.9394 38.8006 45.9008 38.4835 45.8461V16.9654L38.4841 16.9652Z" fill="black"/>
</svg>
