<svg width="50" height="51" viewBox="0 0 50 51" fill="none" xmlns="http://www.w3.org/2000/svg">
<g clip-path="url(#clip0)">
<path d="M25 50.5C38.8071 50.5 50 39.3071 50 25.5C50 11.6929 38.8071 0.5 25 0.5C11.1929 0.5 0 11.6929 0 25.5C0 39.3071 11.1929 50.5 25 50.5Z" fill="#1A1A1A"/>
<path fill-rule="evenodd" clip-rule="evenodd" d="M26.2372 12.3053C25.6414 11.436 24.3584 11.436 23.7626 12.3053L20.0114 17.7788C19.8164 18.0634 19.5292 18.2721 19.1982 18.3696L12.8335 20.2458C11.8225 20.5439 11.4261 21.7641 12.0688 22.5993L16.1152 27.8584C16.3255 28.1318 16.4352 28.4694 16.4258 28.8143L16.2433 35.4474C16.2144 36.5009 17.2523 37.255 18.2453 36.9019L24.4974 34.6787C24.8224 34.5631 25.1774 34.5631 25.5025 34.6787L31.7545 36.9019C32.7476 37.255 33.7855 36.5009 33.7565 35.4474L33.5741 28.8143C33.5646 28.4694 33.6743 28.1318 33.8847 27.8584L37.9311 22.5993C38.5738 21.7641 38.1773 20.5439 37.1664 20.2458L30.8016 18.3696C30.4707 18.2721 30.1835 18.0634 29.9885 17.7788L26.2372 12.3053ZM24.9999 30.5C27.7614 30.5 29.9999 28.2614 29.9999 25.5C29.9999 22.7385 27.7614 20.5 24.9999 20.5C22.2385 20.5 19.9999 22.7385 19.9999 25.5C19.9999 28.2614 22.2385 30.5 24.9999 30.5Z" fill="white"/>
</g>
<defs>
<clipPath id="clip0">
<rect width="50" height="50" fill="white" transform="translate(0 0.5)"/>
</clipPath>
</defs>
</svg>
