<svg width="24" height="25" viewBox="0 0 24 25" fill="none" xmlns="http://www.w3.org/2000/svg">
<path d="M20 8.5H17.19C16.74 7.72 16.12 7.05 15.37 6.54L17 4.91L15.59 3.5L13.42 5.67C12.96 5.56 12.49 5.5 12 5.5C11.51 5.5 11.04 5.56 10.59 5.67L8.41 3.5L7 4.91L8.62 6.54C7.88 7.05 7.26 7.72 6.81 8.5H4V10.5H6.09C6.04 10.83 6 11.16 6 11.5V12.5H4V14.5H6V15.5C6 15.84 6.04 16.17 6.09 16.5H4V18.5H6.81C7.85 20.29 9.78 21.5 12 21.5C14.22 21.5 16.15 20.29 17.19 18.5H20V16.5H17.91C17.96 16.17 18 15.84 18 15.5V14.5H20V12.5H18V11.5C18 11.16 17.96 10.83 17.91 10.5H20V8.5ZM14 16.5H10V14.5H14V16.5ZM14 12.5H10V10.5H14V12.5Z" fill="#8F8FA3"/>
</svg>
