<svg width="50" height="51" viewBox="0 0 50 51" fill="none" xmlns="http://www.w3.org/2000/svg">
<g clip-path="url(#clip0)">
<path d="M47.2407 50.5C48.7645 50.5 50 49.2643 50 47.7405V3.25951C50 1.73513 48.7643 0.5 47.2407 0.5H2.75953C1.23514 0.5 0 1.73532 0 3.25951V47.7403C0 49.2643 1.23514 50.4998 2.75953 50.4998H47.2407V50.5Z" fill="black"/>
<path d="M34.4992 50.5001V31.1374H40.9984L41.9715 23.5914H34.499V18.7736C34.499 16.5888 35.1056 15.1 38.2387 15.1L42.2345 15.0982V8.34907C41.5434 8.25727 39.1713 8.05176 36.4119 8.05176C30.6506 8.05176 26.7063 11.5683 26.7063 18.0265V23.5914H20.1904V31.1374H26.7063V50.4999H34.4992V50.5001Z" fill="white"/>
</g>
<defs>
<clipPath id="clip0">
<rect width="50" height="50" fill="white" transform="translate(0 0.5)"/>
</clipPath>
</defs>
</svg>
