<svg width="50" height="50" viewBox="0 0 50 50" fill="none" xmlns="http://www.w3.org/2000/svg">
<path d="M25 0C11.1872 0 0 11.1872 0 25C0 36.7489 8.0617 46.5 18.9383 49.2489C18.8128 48.9362 18.7511 48.4979 18.7511 48.0617V43.8106H15.6255C13.9383 43.8106 12.3745 43.0617 11.6872 41.6851C10.8745 40.1851 10.7489 37.8723 8.68723 36.434C8.0617 35.934 8.5617 35.434 9.2489 35.4957C10.5617 35.8702 11.6234 36.7468 12.6234 38.0574C13.6234 39.3702 14.0617 39.683 15.9362 39.683C16.8106 39.683 18.1851 39.6213 19.4362 39.4319C20.1234 37.6809 21.3106 36.1191 22.7489 35.3702C14.3745 34.3702 10.3745 30.2447 10.3745 24.6191C10.3745 22.1808 11.4362 19.8681 13.1872 17.8681C12.6255 15.9298 11.8745 11.9298 13.4383 10.3681C17.1894 10.3681 19.4383 12.8064 20 13.4298C21.8745 12.8043 23.9383 12.4298 26.0617 12.4298C28.2489 12.4298 30.2489 12.8043 32.1234 13.4298C32.6851 12.8043 34.9362 10.3681 38.6851 10.3681C40.1851 11.8681 39.4979 15.9298 38.8723 17.8681C40.6234 19.8064 41.6234 22.1808 41.6234 24.6191C41.6234 30.2447 37.6851 34.3702 29.3745 35.2447C31.6872 36.4319 33.3128 39.8064 33.3128 42.3064V48C33.3128 48.1872 33.2511 48.3745 33.2511 48.5617C43 45.1872 50 35.9383 50 25C50 11.1872 38.8128 0 25 0Z" fill="black"/>
</svg>
