<svg width="50" height="51" viewBox="0 0 50 51" fill="none" xmlns="http://www.w3.org/2000/svg">
<g clip-path="url(#clip0)">
<path d="M16.6687 25.5C16.6687 20.8978 20.3986 17.166 25.001 17.166C29.6034 17.166 33.3353 20.8978 33.3353 25.5C33.3353 30.1022 29.6034 33.834 25.001 33.834C20.3986 33.834 16.6687 30.1022 16.6687 25.5ZM12.1633 25.5C12.1633 32.59 17.9107 38.3372 25.001 38.3372C32.0913 38.3372 37.8387 32.59 37.8387 25.5C37.8387 18.41 32.0913 12.6628 25.001 12.6628C17.9107 12.6628 12.1633 18.41 12.1633 25.5ZM35.3468 12.1538C35.3466 12.7471 35.5223 13.3272 35.8518 13.8207C36.1812 14.3142 36.6496 14.6989 37.1977 14.9262C37.7458 15.1535 38.349 15.2131 38.9311 15.0976C39.5131 14.9821 40.0477 14.6966 40.4675 14.2772C40.8872 13.8578 41.1732 13.3233 41.2892 12.7414C41.4052 12.1596 41.346 11.5563 41.1191 11.0081C40.8923 10.4598 40.5079 9.9911 40.0147 9.66126C39.5215 9.33142 38.9415 9.15524 38.3481 9.155H38.3469C37.5516 9.15537 36.7889 9.4714 36.2264 10.0337C35.6638 10.5959 35.3475 11.3585 35.3468 12.1538ZM14.9006 45.8494C12.4631 45.7384 11.1382 45.3324 10.2578 44.9894C9.09056 44.535 8.25773 43.9938 7.3821 43.1194C6.50646 42.245 5.96444 41.413 5.51202 40.2458C5.16881 39.3658 4.76279 38.0406 4.65199 35.6032C4.53078 32.968 4.50658 32.1764 4.50658 25.5002C4.50658 18.824 4.53278 18.0346 4.65199 15.3972C4.76299 12.9598 5.17201 11.6372 5.51202 10.7546C5.96644 9.5874 6.50766 8.7546 7.3821 7.879C8.25653 7.0034 9.08856 6.4614 10.2578 6.009C11.1378 5.6658 12.4631 5.2598 14.9006 5.149C17.5359 5.0278 18.3275 5.0036 25.001 5.0036C31.6745 5.0036 32.4669 5.0298 35.1044 5.149C37.5419 5.26 38.8646 5.669 39.7472 6.009C40.9144 6.4614 41.7473 7.0046 42.6229 7.879C43.4985 8.7534 44.0386 9.5874 44.493 10.7546C44.8362 11.6346 45.2422 12.9598 45.353 15.3972C45.4742 18.0346 45.4984 18.824 45.4984 25.5002C45.4984 32.1764 45.4742 32.9658 45.353 35.6032C45.242 38.0406 44.834 39.3654 44.493 40.2458C44.0386 41.413 43.4973 42.2458 42.6229 43.1194C41.7485 43.993 40.9144 44.535 39.7472 44.9894C38.8672 45.3326 37.5419 45.7386 35.1044 45.8494C32.4691 45.9706 31.6775 45.9948 25.001 45.9948C18.3245 45.9948 17.5351 45.9706 14.9006 45.8494ZM14.6936 0.6514C12.0321 0.7726 10.2134 1.1946 8.62515 1.8126C6.98028 2.4508 5.58782 3.307 4.19637 4.6962C2.80491 6.0854 1.95088 7.48 1.31265 9.1248C0.694628 10.714 0.272611 12.5316 0.151406 15.193C0.0282011 17.8586 0 18.7108 0 25.5C0 32.2892 0.0282011 33.1414 0.151406 35.807C0.272611 38.4686 0.694628 40.286 1.31265 41.8752C1.95088 43.519 2.80511 44.9152 4.19637 46.3038C5.58762 47.6924 6.98028 48.5474 8.62515 49.1874C10.2164 49.8054 12.0321 50.2274 14.6936 50.3486C17.3607 50.4698 18.2115 50.5 25.001 50.5C31.7905 50.5 32.6427 50.4718 35.3084 50.3486C37.9701 50.2274 39.7876 49.8054 41.3769 49.1874C43.0207 48.5474 44.4142 47.693 45.8056 46.3038C47.1971 44.9146 48.0493 43.519 48.6894 41.8752C49.3074 40.286 49.7314 38.4684 49.8506 35.807C49.9718 33.1394 50 32.2892 50 25.5C50 18.7108 49.9718 17.8586 49.8506 15.193C49.7294 12.5314 49.3074 10.713 48.6894 9.1248C48.0493 7.481 47.1949 6.0876 45.8056 4.6962C44.4164 3.3048 43.0207 2.4508 41.3789 1.8126C39.7876 1.1946 37.9699 0.7706 35.3104 0.6514C32.6447 0.5302 31.7925 0.5 25.003 0.5C18.2135 0.5 17.3607 0.5282 14.6936 0.6514Z" fill="black"/>
<path d="M16.6687 25.5C16.6687 20.8978 20.3986 17.166 25.001 17.166C29.6034 17.166 33.3353 20.8978 33.3353 25.5C33.3353 30.1022 29.6034 33.834 25.001 33.834C20.3986 33.834 16.6687 30.1022 16.6687 25.5ZM12.1633 25.5C12.1633 32.59 17.9107 38.3372 25.001 38.3372C32.0913 38.3372 37.8387 32.59 37.8387 25.5C37.8387 18.41 32.0913 12.6628 25.001 12.6628C17.9107 12.6628 12.1633 18.41 12.1633 25.5ZM35.3468 12.1538C35.3466 12.7471 35.5223 13.3272 35.8518 13.8207C36.1812 14.3142 36.6496 14.6989 37.1977 14.9262C37.7458 15.1535 38.349 15.2131 38.9311 15.0976C39.5131 14.9821 40.0477 14.6966 40.4675 14.2772C40.8872 13.8578 41.1732 13.3233 41.2892 12.7414C41.4052 12.1596 41.346 11.5563 41.1191 11.0081C40.8923 10.4598 40.5079 9.9911 40.0147 9.66126C39.5215 9.33142 38.9415 9.15524 38.3481 9.155H38.3469C37.5516 9.15537 36.7889 9.4714 36.2264 10.0337C35.6638 10.5959 35.3475 11.3585 35.3468 12.1538ZM14.9006 45.8494C12.4631 45.7384 11.1382 45.3324 10.2578 44.9894C9.09056 44.535 8.25773 43.9938 7.3821 43.1194C6.50646 42.245 5.96444 41.413 5.51202 40.2458C5.16881 39.3658 4.76279 38.0406 4.65199 35.6032C4.53078 32.968 4.50658 32.1764 4.50658 25.5002C4.50658 18.824 4.53278 18.0346 4.65199 15.3972C4.76299 12.9598 5.17201 11.6372 5.51202 10.7546C5.96644 9.5874 6.50766 8.7546 7.3821 7.879C8.25653 7.0034 9.08856 6.4614 10.2578 6.009C11.1378 5.6658 12.4631 5.2598 14.9006 5.149C17.5359 5.0278 18.3275 5.0036 25.001 5.0036C31.6745 5.0036 32.4669 5.0298 35.1044 5.149C37.5419 5.26 38.8646 5.669 39.7472 6.009C40.9144 6.4614 41.7473 7.0046 42.6229 7.879C43.4985 8.7534 44.0386 9.5874 44.493 10.7546C44.8362 11.6346 45.2422 12.9598 45.353 15.3972C45.4742 18.0346 45.4984 18.824 45.4984 25.5002C45.4984 32.1764 45.4742 32.9658 45.353 35.6032C45.242 38.0406 44.834 39.3654 44.493 40.2458C44.0386 41.413 43.4973 42.2458 42.6229 43.1194C41.7485 43.993 40.9144 44.535 39.7472 44.9894C38.8672 45.3326 37.5419 45.7386 35.1044 45.8494C32.4691 45.9706 31.6775 45.9948 25.001 45.9948C18.3245 45.9948 17.5351 45.9706 14.9006 45.8494ZM14.6936 0.6514C12.0321 0.7726 10.2134 1.1946 8.62515 1.8126C6.98028 2.4508 5.58782 3.307 4.19637 4.6962C2.80491 6.0854 1.95088 7.48 1.31265 9.1248C0.694628 10.714 0.272611 12.5316 0.151406 15.193C0.0282011 17.8586 0 18.7108 0 25.5C0 32.2892 0.0282011 33.1414 0.151406 35.807C0.272611 38.4686 0.694628 40.286 1.31265 41.8752C1.95088 43.519 2.80511 44.9152 4.19637 46.3038C5.58762 47.6924 6.98028 48.5474 8.62515 49.1874C10.2164 49.8054 12.0321 50.2274 14.6936 50.3486C17.3607 50.4698 18.2115 50.5 25.001 50.5C31.7905 50.5 32.6427 50.4718 35.3084 50.3486C37.9701 50.2274 39.7876 49.8054 41.3769 49.1874C43.0207 48.5474 44.4142 47.693 45.8056 46.3038C47.1971 44.9146 48.0493 43.519 48.6894 41.8752C49.3074 40.286 49.7314 38.4684 49.8506 35.807C49.9718 33.1394 50 32.2892 50 25.5C50 18.7108 49.9718 17.8586 49.8506 15.193C49.7294 12.5314 49.3074 10.713 48.6894 9.1248C48.0493 7.481 47.1949 6.0876 45.8056 4.6962C44.4164 3.3048 43.0207 2.4508 41.3789 1.8126C39.7876 1.1946 37.9699 0.7706 35.3104 0.6514C32.6447 0.5302 31.7925 0.5 25.003 0.5C18.2135 0.5 17.3607 0.5282 14.6936 0.6514Z" fill="black"/>
</g>
<defs>
<clipPath id="clip0">
<rect width="50" height="50" fill="white" transform="translate(0 0.5)"/>
</clipPath>
</defs>
</svg>
