<svg width="100" height="100" viewBox="0 0 100 100" fill="none" xmlns="http://www.w3.org/2000/svg">
<path d="M50 31.25C39.668 31.25 31.25 39.668 31.25 50C31.25 60.332 39.668 68.75 50 68.75C60.332 68.75 68.75 60.332 68.75 50C68.75 39.668 60.332 31.25 50 31.25ZM98.125 46.9727L79.6289 37.7344L86.1719 18.125C87.0508 15.4688 84.5312 12.9492 81.8945 13.8477L62.2852 20.3906L53.0273 1.875C51.7773 -0.625 48.2227 -0.625 46.9727 1.875L37.7344 20.3711L18.1055 13.8281C15.4492 12.9492 12.9297 15.4687 13.8281 18.1055L20.3711 37.7148L1.875 46.9727C-0.625 48.2227 -0.625 51.7773 1.875 53.0273L20.3711 62.2656L13.8281 81.8945C12.9492 84.5508 15.4687 87.0703 18.1055 86.1719L37.7148 79.6289L46.9531 98.125C48.2031 100.625 51.7578 100.625 53.0078 98.125L62.2461 79.6289L81.8555 86.1719C84.5117 87.0508 87.0312 84.5312 86.1328 81.8945L79.5898 62.2852L98.0859 53.0469C100.625 51.7773 100.625 48.2227 98.125 46.9727V46.9727ZM67.6758 67.6758C57.9297 77.4219 42.0703 77.4219 32.3242 67.6758C22.5781 57.9297 22.5781 42.0703 32.3242 32.3242C42.0703 22.5781 57.9297 22.5781 67.6758 32.3242C77.4219 42.0703 77.4219 57.9297 67.6758 67.6758Z" fill="white"/>
</svg>
