<svg width="50" height="51" viewBox="0 0 50 51" fill="none" xmlns="http://www.w3.org/2000/svg">
<g clip-path="url(#clip0)">
<path d="M0 4.08173C0 2.10463 1.64463 0.5 3.67222 0.5H46.013C48.0412 0.5 49.6852 2.10463 49.6852 4.08173V46.9189C49.6852 48.8967 48.0412 50.5 46.013 50.5H3.67222C1.64463 50.5 0 48.8967 0 46.9196V4.08108V4.08173Z" fill="black"/>
<path d="M15.0614 42.3549V19.7772H7.55689V42.3549H15.062H15.0614ZM11.3104 16.6952C13.9269 16.6952 15.5558 14.9614 15.5558 12.7948C15.5066 10.579 13.9269 8.89368 11.3603 8.89368C8.79167 8.89368 7.11426 10.579 7.11426 12.7948C7.11426 14.9614 8.74249 16.6952 11.2612 16.6952H11.3098H11.3104ZM19.2149 42.3549H26.7187V29.748C26.7187 29.0739 26.7679 28.3985 26.9659 27.9171C27.5082 26.5682 28.743 25.1721 30.8165 25.1721C33.5313 25.1721 34.6179 27.2424 34.6179 30.2778V42.3549H42.1217V29.4096C42.1217 22.475 38.42 19.248 33.4828 19.248C29.4348 19.248 27.6571 21.5104 26.6695 23.0514H26.7194V19.7779H19.2156C19.3133 21.896 19.2149 42.3555 19.2149 42.3555V42.3549Z" fill="white"/>
</g>
<defs>
<clipPath id="clip0">
<rect width="50" height="50" fill="white" transform="translate(0 0.5)"/>
</clipPath>
</defs>
</svg>
