<svg width="50" height="51" viewBox="0 0 50 51" fill="none" xmlns="http://www.w3.org/2000/svg">
<path d="M33.4085 5.50867V5.5H35.7529L36.6096 5.66474C37.1807 5.77168 37.6991 5.91184 38.165 6.08525C38.6309 6.25865 39.0818 6.46098 39.5176 6.69217C39.9534 6.92336 40.3487 7.15894 40.7034 7.3988C41.055 7.6358 41.3706 7.88725 41.6502 8.15312C41.9266 8.4219 42.358 8.49126 42.9441 8.36121C43.5302 8.23115 44.1614 8.0505 44.8377 7.81931C45.514 7.58812 46.1828 7.328 46.844 7.03899C47.5053 6.74996 47.9081 6.56645 48.0523 6.48842C48.1936 6.40752 48.2688 6.36417 48.2778 6.35836L48.2867 6.34536L48.3318 6.32368L48.3769 6.302L48.422 6.28033L48.4671 6.25865L48.4761 6.24565L48.4896 6.23698L48.5032 6.2283L48.5122 6.2153L48.5573 6.20229L48.6023 6.19363L48.5934 6.25865L48.5798 6.32368L48.5573 6.38871L48.5347 6.45374L48.5122 6.49709L48.4896 6.54044L48.4671 6.60547C48.4521 6.64881 48.4371 6.7066 48.422 6.77887C48.407 6.85114 48.2642 7.14012 47.9937 7.64591C47.7232 8.15169 47.385 8.66467 46.9793 9.18489C46.5735 9.7051 46.2098 10.0981 45.8882 10.3641C45.5636 10.6328 45.3487 10.8207 45.2435 10.9276C45.1383 11.0374 45.0105 11.1386 44.8602 11.2311L44.6348 11.3741L44.5897 11.3958L44.5446 11.4175L44.5357 11.4305L44.5221 11.4392L44.5086 11.4478L44.4995 11.4608L44.4545 11.4825L44.4094 11.5042L44.4004 11.5172L44.3868 11.5259L44.3733 11.5345L44.3643 11.5475L44.3553 11.5606L44.3417 11.5692L44.3282 11.5779L44.3192 11.5909H44.5446L45.807 11.3308C46.6486 11.1574 47.4527 10.9479 48.2191 10.7022L49.4364 10.312L49.5717 10.2687L49.6393 10.247L49.6844 10.2253L49.7295 10.2036L49.7746 10.182L49.8197 10.1603L49.9098 10.1473L50 10.1386V10.2253L49.9775 10.234L49.9549 10.247L49.9459 10.26L49.9324 10.2687L49.9188 10.2773L49.9098 10.2904L49.9009 10.3034L49.8873 10.312L49.8738 10.3207L49.8647 10.3337L49.8558 10.3467L49.8422 10.3554L49.8197 10.3987L49.7971 10.4421L49.7836 10.4508C49.7776 10.4594 49.5867 10.7051 49.211 11.1877C48.8353 11.6733 48.6324 11.9189 48.6023 11.9247C48.5723 11.9334 48.5302 11.9767 48.4761 12.0548C48.425 12.1357 48.1064 12.4579 47.5203 13.0215C46.9342 13.5851 46.3601 14.0865 45.7981 14.5258C45.233 14.968 44.9474 15.5113 44.9414 16.1558C44.9324 16.7974 44.8978 17.5229 44.8377 18.3321C44.7776 19.1413 44.6649 20.0155 44.4995 20.9548C44.3343 21.8942 44.0788 22.9563 43.7331 24.1412C43.3875 25.3261 42.9666 26.4821 42.4707 27.6094C41.9748 28.7365 41.4563 29.748 40.9152 30.6439C40.3742 31.5398 39.8783 32.2985 39.4274 32.9198C38.9766 33.5413 38.5182 34.1265 38.0523 34.6756C37.5864 35.2247 36.9973 35.8433 36.285 36.5311C35.5696 37.216 35.1789 37.5918 35.1128 37.6582C35.0436 37.7218 34.7491 37.9588 34.229 38.3692C33.7121 38.7824 33.156 39.1957 32.5609 39.6091C31.9688 40.0195 31.4247 40.362 30.9288 40.6365C30.4328 40.911 29.8347 41.2246 29.1344 41.5772C28.4371 41.9327 27.6826 42.2622 26.8711 42.5656C26.0595 42.8691 25.2029 43.1509 24.3012 43.411C23.3995 43.6711 22.5278 43.8734 21.6862 44.0179C20.8446 44.1623 19.8903 44.2852 18.8233 44.3864L17.2227 44.5381V44.5597H14.2922V44.5381L13.9089 44.5165C13.6535 44.502 13.4431 44.4875 13.2777 44.4731C13.1124 44.4587 12.4887 44.3792 11.4067 44.2347C10.3246 44.0901 9.4755 43.9456 8.85933 43.8011C8.24319 43.6567 7.32642 43.3821 6.10911 42.9774C4.89179 42.5728 3.85032 42.1639 2.98467 41.7506C2.12205 41.3402 1.58102 41.0801 1.36159 40.9703C1.14518 40.8633 0.90171 40.7304 0.6312 40.5715L0.22543 40.333L0.21646 40.32L0.20289 40.3114L0.18936 40.3026L0.18034 40.2897L0.13526 40.268L0.09017 40.2463L0.0812 40.2333L0.0676301 40.2247L0.0541 40.216L0.04509 40.2029L0.03611 40.1899L0.02254 40.1813H0V40.0946L0.04509 40.1032L0.09017 40.1163L0.29306 40.1379C0.42831 40.1523 0.79653 40.1741 1.39766 40.2029C1.99883 40.2319 2.63751 40.2319 3.3138 40.2029C3.99008 40.1741 4.68142 40.109 5.38774 40.0079C6.09409 39.9068 6.92818 39.7333 7.88999 39.4876C8.85185 39.242 9.7355 38.9501 10.5411 38.612C11.3436 38.2709 11.9147 38.0166 12.2543 37.849C12.5909 37.6843 13.1049 37.3778 13.7962 36.9299L14.8332 36.2579L14.8422 36.2449L14.8557 36.2363L14.8693 36.2276L14.8783 36.2146L14.8873 36.2016L14.9008 36.1929L14.9144 36.1843L14.9234 36.1713L14.9684 36.1582L15.0135 36.1496L15.0225 36.1062L15.0361 36.0629L15.0496 36.0542L15.0586 36.0412L14.6979 36.0196C14.4575 36.0051 14.2245 35.9906 13.9991 35.9762C13.7737 35.9618 13.4205 35.8967 12.9396 35.7811C12.4587 35.6655 11.9402 35.4921 11.3841 35.2609C10.8281 35.0297 10.2871 34.7551 9.761 34.4372C9.2351 34.1193 8.85482 33.8548 8.62038 33.6439C8.38895 33.4357 8.08837 33.141 7.71867 32.7595C7.35198 32.3751 7.03336 31.9806 6.76285 31.576C6.49234 31.1714 6.23386 30.7046 5.98742 30.1757L5.61316 29.3868L5.59062 29.3217L5.56808 29.2567L5.55455 29.2133L5.54554 29.1699L5.61316 29.1787L5.68079 29.1917L6.17674 29.2567C6.50739 29.3 7.02588 29.3145 7.73219 29.3C8.43855 29.2856 8.92696 29.2567 9.1975 29.2133C9.468 29.1699 9.6333 29.1411 9.6934 29.1267L9.7836 29.1049L9.8963 29.0833L10.009 29.0616L10.018 29.0486L10.0316 29.0399L10.0451 29.0313L10.0541 29.0182L9.9639 28.9966L9.8738 28.9749L9.7836 28.9532L9.6934 28.9316L9.6032 28.9098C9.5431 28.8954 9.438 28.8665 9.2876 28.8232C9.1374 28.7798 8.7316 28.6208 8.07033 28.3463C7.40911 28.0718 6.88309 27.8044 6.49234 27.5443C6.10061 27.2834 5.7271 26.9981 5.37421 26.6902C5.02254 26.3781 4.63634 25.9764 4.21551 25.4851C3.79472 24.9938 3.41903 24.423 3.08837 23.7727C2.75775 23.1224 2.50978 22.5011 2.34445 21.9086C2.17979 21.3196 2.07115 20.7174 2.01988 20.1095L1.93868 19.1991L1.98377 19.2078L2.02885 19.2208L2.07394 19.2424L2.11903 19.2642L2.16411 19.2858L2.2092 19.3074L2.90803 19.6109C3.37394 19.8133 3.95252 19.9867 4.64382 20.1312C5.33517 20.2756 5.74842 20.3551 5.88368 20.3696L6.08656 20.3913H6.49234L6.48336 20.3783L6.46979 20.3696L6.45627 20.3609L6.44725 20.3479L6.43828 20.3349L6.42471 20.3263L6.41118 20.3175L6.40216 20.3046L6.35708 20.2829L6.31199 20.2612L6.30302 20.2482L6.28945 20.2396L6.27592 20.2309L6.26691 20.2178L6.22182 20.1962L6.17674 20.1746L6.16776 20.1615C6.15875 20.1557 6.02949 20.0632 5.77998 19.8841C5.5335 19.702 5.27502 19.4665 5.00451 19.1774C4.73399 18.8884 4.46348 18.5849 4.19297 18.2671C3.92195 17.9484 3.68057 17.6075 3.4716 17.2483C3.26123 16.8871 3.03877 16.4274 2.80433 15.8697C2.5729 15.3148 2.39707 14.7556 2.27683 14.192C2.15663 13.6284 2.089 13.0721 2.07394 12.523C2.05893 11.9738 2.07394 11.5042 2.11903 11.114C2.16411 10.7239 2.25428 10.2831 2.38954 9.79181C2.5248 9.30051 2.7202 8.78028 2.97565 8.23115L3.35888 7.40747L3.38142 7.34245L3.40397 7.27742L3.41754 7.26875L3.42651 7.25574L3.43553 7.24274L3.44905 7.23406L3.46262 7.24274L3.4716 7.25574L3.48061 7.26875L3.49414 7.27742L3.50771 7.28608L3.51668 7.29909L3.5257 7.3121L3.53922 7.32076L3.56177 7.36412L3.58431 7.40747L3.59788 7.41614L3.60685 7.42915L4.21551 8.07942C4.62128 8.51294 5.10221 8.99704 5.65825 9.5317C6.21434 10.0664 6.52241 10.3438 6.58251 10.3641C6.64265 10.3872 6.71776 10.4536 6.80793 10.5635C6.89811 10.6704 7.19869 10.9262 7.70965 11.3308C8.22065 11.7354 8.8894 12.2051 9.716 12.7397C10.5426 13.2744 11.4593 13.8018 12.4662 14.3221C13.4731 14.8422 14.5552 15.3119 15.7124 15.731C16.8696 16.15 17.6811 16.4246 18.147 16.5546C18.6129 16.6847 19.4094 16.8509 20.5365 17.0532C21.6637 17.2555 22.5128 17.3856 23.0839 17.4434C23.655 17.5012 24.0457 17.5344 24.2561 17.5431L24.5717 17.5518L24.5627 17.4868L24.5491 17.4217L24.459 16.8798C24.3989 16.5186 24.3688 16.0127 24.3688 15.3625C24.3688 14.7122 24.4214 14.1125 24.5266 13.5634C24.6318 13.0143 24.7896 12.4579 25 11.8944C25.2104 11.3308 25.4163 10.8785 25.6177 10.5375C25.8221 10.1993 26.0896 9.81349 26.4202 9.37997C26.7509 8.94645 27.1792 8.4985 27.7051 8.03607C28.2312 7.57364 28.8323 7.16179 29.5086 6.80054C30.1849 6.4393 30.8086 6.16471 31.3796 5.97687C31.9507 5.78903 32.4316 5.66617 32.8224 5.60838C33.2131 5.55059 33.4085 5.51734 33.4085 5.50867Z" fill="#5DA8DC"/>
</svg>
