<svg width="50" height="50" viewBox="0 0 50 50" fill="none" xmlns="http://www.w3.org/2000/svg">
<path d="M20.7077 42.0724C11.1854 41.8971 7.93312 41.7394 5.93405 41.3275C4.58154 41.0539 3.40621 40.4463 2.54443 39.565C1.87838 38.898 1.34869 37.8804 0.937748 36.4685C0.585242 35.2923 0.44795 34.3136 0.252217 31.9231C-0.0474125 26.5279 -0.118841 22.1169 0.252217 17.1883C0.55834 14.4666 0.706763 11.2356 2.74016 9.35065C3.70028 8.46846 4.81716 7.90074 6.07134 7.66605C8.03053 7.29406 16.3775 7 25.0185 7C33.64 7 42.0055 7.29406 43.9666 7.66605C45.5334 7.96011 47.0028 8.84137 47.8655 9.97774C49.7208 12.8961 49.7532 16.5251 49.9416 19.3637C50.0195 20.7162 50.0195 28.3962 49.9416 29.7487C49.6484 34.2348 49.4128 35.822 48.7468 37.4676C48.3349 38.5066 47.9833 39.0548 47.3748 39.6624C46.4204 40.5974 45.2037 41.2194 43.8868 41.4454C35.6465 42.065 28.6493 42.1995 20.7077 42.0724ZM33.3265 24.0464C28.7421 21.5965 24.3525 19.3247 19.8654 16.9731V31.0418C24.5871 28.475 29.5649 26.1234 33.346 24.027L33.3265 24.0464Z" fill="#CD201F"/>
</svg>
