<?xml version="1.0" encoding="utf-8"?>
<!-- Generator: Adobe Illustrator 23.0.3, SVG Export Plug-In . SVG Version: 6.00 Build 0)  -->
<svg version="1.1" id="Layer_1" xmlns="http://www.w3.org/2000/svg" xmlns:xlink="http://www.w3.org/1999/xlink" x="0px" y="0px"
	 viewBox="0 0 150 35" height="35" width="150" style="enable-background:new 0 0 150 35;" xml:space="preserve">
<g>
	<path style="fill:#00868B;" d="M8.75,12.26v1.14c0.99-1.03,2.19-1.88,3.58-2.54c1.39-0.64,2.75-0.97,4.1-0.97
		c1.22,0,2.34,0.31,3.35,0.91c0.99,0.6,1.8,1.55,2.4,2.81c1.22-1.1,2.61-2.01,4.14-2.69c1.51-0.68,2.98-1.01,4.37-1.01
		c1.88,0,3.39,0.68,4.57,2.05s1.76,3.5,1.76,6.41v8.88c0,0.89,0.35,1.37,1.06,1.43c0.15,0.02,0.33,0.02,0.58,0.04
		c0.23,0.02,0.41,0.02,0.56,0.04c0.14,0.02,0.31,0.02,0.52,0.04s0.37,0.04,0.5,0.06c0.12,0.02,0.27,0.06,0.41,0.08
		c0.15,0.04,0.27,0.08,0.37,0.12c0.08,0.04,0.17,0.08,0.25,0.14c0.08,0.06,0.14,0.12,0.19,0.19c0.02,0.08,0.04,0.17,0.04,0.27
		c0,1.61-0.23,2.63-0.68,3.04c-1.61-0.1-3-0.17-4.18-0.17c-0.68,0-1.37,0.02-2.09,0.08c-0.72,0.06-1.22,0.08-1.49,0.08
		c-0.48,0-0.72-0.54-0.72-1.59V18.73c0-1.8-0.29-3.1-0.87-3.95c-0.58-0.83-1.34-1.24-2.28-1.24s-1.97,0.27-3.1,0.83
		c-1.14,0.56-2.19,1.28-3.19,2.17c0.06,0.62,0.1,1.22,0.1,1.82v8.88c0,0.89,0.35,1.37,1.03,1.43c0.15,0.02,0.33,0.02,0.56,0.04
		c0.23,0.02,0.39,0.02,0.54,0.04c0.12,0.02,0.29,0.02,0.48,0.04c0.19,0.02,0.35,0.04,0.46,0.06c0.1,0.02,0.25,0.06,0.39,0.08
		c0.15,0.04,0.25,0.08,0.33,0.12c0.08,0.04,0.17,0.08,0.25,0.14c0.06,0.06,0.12,0.12,0.17,0.19c0.02,0.08,0.04,0.17,0.04,0.27
		c0,1.61-0.23,2.63-0.68,3.04c-1.32-0.1-2.54-0.17-3.64-0.17c-0.68,0-1.45,0.02-2.28,0.08c-0.83,0.06-1.37,0.08-1.63,0.08
		c-0.48,0-0.7-0.54-0.7-1.59V18.73c0-1.8-0.29-3.1-0.87-3.95c-0.58-0.83-1.35-1.24-2.28-1.24c-0.93,0-1.97,0.29-3.08,0.87
		c-1.12,0.58-2.15,1.32-3.12,2.23v10.7c0,0.19,0.02,0.35,0.04,0.48c0.02,0.15,0.08,0.27,0.17,0.41c0.08,0.14,0.23,0.27,0.43,0.33
		c0.19,0.08,0.43,0.12,0.74,0.12c0.52,0,0.97,0.08,1.35,0.25c0.37,0.17,0.56,0.41,0.56,0.75c0,1.61-0.23,2.63-0.68,3.02
		c-1.34-0.1-3.02-0.17-5.01-0.17c-2.13,0-3.72,0.06-4.76,0.17c-0.46-0.41-0.68-1.43-0.68-3.02c0-0.33,0.19-0.58,0.56-0.75
		c0.37-0.17,0.83-0.25,1.34-0.25c0.48,0,0.81-0.1,0.99-0.29c0.17-0.19,0.25-0.54,0.25-1.01V16.27c0-0.72-0.21-1.24-0.62-1.55
		c-0.43-0.31-1.24-0.48-2.44-0.54c-0.19-0.04-0.29-0.12-0.33-0.27c-0.06-0.14-0.08-0.43-0.08-0.89c0-0.7,0.08-1.32,0.23-1.86
		c0.15-0.54,0.31-0.85,0.46-0.93c1.06,0.14,2.09,0.23,3.08,0.23c0.62,0,1.28-0.04,1.97-0.12c0.68-0.06,1.06-0.1,1.1-0.1
		c0.48,0,0.81,0.12,0.95,0.35C8.69,10.83,8.75,11.39,8.75,12.26z"/>
	<path style="fill:#00868B;" d="M64.16,20.31c0,0.64-0.17,1.12-0.48,1.45c-0.33,0.35-0.95,0.52-1.84,0.52H47.56
		c0.06,1.26,0.27,2.34,0.66,3.25c0.39,0.91,0.89,1.61,1.53,2.13c0.64,0.52,1.32,0.91,2.09,1.14c0.77,0.25,1.59,0.37,2.48,0.37
		c1.26,0,2.55-0.23,3.85-0.66c1.3-0.43,2.5-1.05,3.56-1.86c0.79,0.93,1.18,1.84,1.18,2.73c0,0.6-0.39,1.18-1.18,1.74
		c-0.79,0.58-1.84,1.06-3.19,1.43s-2.73,0.56-4.18,0.56c-1.18,0-2.32-0.12-3.37-0.35c-1.08-0.23-2.13-0.64-3.15-1.24
		c-1.03-0.58-1.92-1.32-2.67-2.21c-0.75-0.89-1.35-2.05-1.8-3.46c-0.46-1.41-0.68-3-0.68-4.78c0-1.74,0.33-3.33,0.99-4.78
		c0.66-1.45,1.53-2.63,2.63-3.56c1.1-0.91,2.32-1.61,3.66-2.11c1.34-0.5,2.71-0.74,4.14-0.74c1.06,0,2.05,0.12,3.02,0.39
		c0.97,0.27,1.88,0.66,2.73,1.22s1.59,1.24,2.23,2.05c0.64,0.81,1.14,1.8,1.51,2.96C63.97,17.64,64.16,18.92,64.16,20.31z
		 M59.98,19.06c-0.12-1.92-0.72-3.37-1.8-4.39c-1.1-0.99-2.38-1.49-3.89-1.49c-1.59,0-3.04,0.54-4.35,1.59
		c-1.3,1.08-2.07,2.5-2.26,4.28H59.98z"/>
	<path style="fill:#00868B;" d="M84.48,27.05c0,1.39-0.41,2.54-1.26,3.46c-0.85,0.93-1.99,1.59-3.37,1.99
		c-1.39,0.39-3.04,0.6-4.95,0.6c-2.92,0-5.21-0.41-6.85-1.26c-1.66-0.85-2.48-2.13-2.48-3.87c0-1.97,1.2-2.96,3.62-2.96
		c0.39,0,0.64,0.08,0.77,0.23c0.12,0.14,0.19,0.43,0.19,0.87v2.81c0.52,0.27,1.26,0.5,2.28,0.64c0.99,0.14,2.01,0.23,3.02,0.23
		c1.22,0,2.21-0.25,3.02-0.77c0.79-0.5,1.18-1.18,1.18-2.07c0-0.62-0.21-1.18-0.6-1.68c-0.39-0.48-0.93-0.87-1.57-1.18
		c-0.64-0.31-1.39-0.62-2.21-0.93c-0.85-0.31-1.7-0.58-2.54-0.85c-0.87-0.27-1.72-0.6-2.54-0.99c-0.85-0.39-1.59-0.83-2.23-1.3
		c-0.64-0.48-1.18-1.08-1.57-1.84s-0.6-1.61-0.6-2.57c0-1.22,0.46-2.3,1.37-3.19c0.91-0.89,2.03-1.55,3.35-1.95
		c1.3-0.39,2.71-0.6,4.22-0.6c6.19,0,9.27,1.8,9.27,5.38c0,0.23-0.04,0.46-0.1,0.7c-0.08,0.25-0.23,0.54-0.43,0.87
		c-0.23,0.33-0.58,0.6-1.08,0.81c-0.52,0.23-1.14,0.33-1.86,0.33c-0.15,0-0.25-0.02-0.33-0.04c-0.1-0.02-0.17-0.06-0.21-0.1
		c-0.06-0.02-0.1-0.08-0.12-0.19c-0.04-0.08-0.06-0.15-0.06-0.19c-0.02-0.04-0.02-0.15-0.04-0.29c-0.02-0.14-0.04-0.23-0.04-0.29
		l-0.29-2.9c-0.19-0.19-0.79-0.41-1.78-0.64c-1.01-0.23-1.86-0.35-2.59-0.35c-1.41,0-2.44,0.27-3.12,0.79
		c-0.68,0.52-1.03,1.18-1.03,1.99c0,0.58,0.25,1.1,0.77,1.53c0.5,0.43,1.14,0.81,1.94,1.12c0.81,0.31,1.68,0.62,2.65,0.93
		c0.97,0.31,1.92,0.66,2.9,1.08c0.97,0.43,1.84,0.91,2.65,1.45c0.81,0.54,1.45,1.24,1.97,2.13C84.24,24.88,84.48,25.91,84.48,27.05z
		"/>
	<path style="fill:#00868B;" d="M94.11,12.26v15.08c0,0.21,0.02,0.37,0.04,0.48c0.02,0.12,0.06,0.27,0.14,0.41
		c0.06,0.14,0.21,0.27,0.39,0.33c0.19,0.08,0.43,0.12,0.75,0.12c0.52,0,0.97,0.08,1.34,0.25c0.37,0.17,0.56,0.41,0.56,0.75
		c0,1.61-0.23,2.63-0.68,3.02c-1.24-0.1-2.75-0.17-4.55-0.17c-1.86,0-3.6,0.06-5.21,0.17c-0.46-0.41-0.68-1.43-0.68-3.02
		c0-0.33,0.19-0.58,0.56-0.75c0.37-0.17,0.83-0.25,1.34-0.25c0.54,0,0.89-0.12,1.05-0.35c0.17-0.23,0.25-0.54,0.25-0.95V16.27
		c0-0.72-0.21-1.24-0.62-1.55c-0.43-0.31-1.24-0.48-2.44-0.54c-0.19-0.04-0.29-0.12-0.33-0.27c-0.06-0.14-0.08-0.43-0.08-0.89
		c0-0.7,0.08-1.32,0.23-1.86c0.14-0.54,0.31-0.85,0.46-0.93c1.06,0.14,2.09,0.23,3.08,0.23c0.66,0,1.37-0.04,2.09-0.12
		c0.72-0.06,1.12-0.1,1.16-0.1c0.48,0,0.81,0.12,0.95,0.35C94.05,10.83,94.11,11.39,94.11,12.26z M90.7,6.77
		c-0.33,0-0.66-0.04-1.01-0.1s-0.72-0.17-1.12-0.33c-0.41-0.17-0.75-0.43-0.99-0.79c-0.27-0.35-0.39-0.79-0.39-1.28
		c0-1.7,1.14-2.54,3.44-2.54c0.64,0,1.2,0.08,1.65,0.25c0.43,0.17,0.77,0.39,0.99,0.66c0.21,0.27,0.35,0.54,0.43,0.81
		c0.08,0.27,0.12,0.54,0.12,0.85c0,0.62-0.19,1.14-0.58,1.53c-0.39,0.39-0.79,0.66-1.22,0.77C91.59,6.71,91.13,6.77,90.7,6.77z"/>
	<path style="fill:#00868B;" d="M106.76,4.64v8.69c0.68-1.1,1.66-1.97,2.92-2.57c1.26-0.6,2.54-0.89,3.85-0.89
		c1.39,0,2.73,0.25,4.03,0.75s2.46,1.2,3.52,2.13c1.03,0.93,1.86,2.15,2.5,3.66c0.62,1.51,0.93,3.19,0.93,5.05s-0.31,3.54-0.93,5.05
		c-0.62,1.51-1.45,2.75-2.48,3.68c-1.05,0.93-2.21,1.66-3.5,2.15c-1.28,0.5-2.63,0.75-4.01,0.75c-3.1,0-5.88-1.16-8.32-3.48
		l-2.07,2.07c-0.75,0.66-1.47,0.99-2.15,0.99c-0.56,0-1.01-0.19-1.37-0.54c-0.35-0.35-0.54-0.81-0.54-1.34
		c0-0.83,0.39-1.59,1.16-2.32l1.76-1.61V7.52c0-0.72-0.21-1.24-0.62-1.55c-0.43-0.31-1.24-0.48-2.44-0.54
		c-0.19-0.04-0.29-0.12-0.33-0.27c-0.06-0.15-0.08-0.43-0.08-0.89c0-0.7,0.08-1.32,0.23-1.86c0.15-0.54,0.31-0.85,0.46-0.93
		c1.14,0.15,2.24,0.23,3.29,0.23c0.62,0,1.28-0.04,1.97-0.12c0.68-0.06,1.06-0.1,1.1-0.1c0.48,0,0.81,0.12,0.95,0.35
		c0.14,0.25,0.21,0.81,0.21,1.68c0,0.1,0,0.27,0,0.52C106.76,4.29,106.76,4.5,106.76,4.64z M106.76,20.04v5.4
		c0.43,1.16,1.28,2.13,2.52,2.92c1.24,0.81,2.65,1.2,4.22,1.2c1.68,0,3.1-0.72,4.33-2.15c1.22-1.43,1.82-3.39,1.82-5.94
		s-0.64-4.51-1.95-5.94c-1.3-1.43-2.83-2.13-4.61-2.13c-0.77,0-1.53,0.15-2.28,0.41c-0.75,0.29-1.43,0.7-2.03,1.24
		c-0.6,0.54-1.1,1.24-1.47,2.09C106.94,18.01,106.76,18.98,106.76,20.04z"/>
	<path style="fill:#00868B;" d="M126.98,26.51c0,0-0.17-0.37-0.5-1.12c-0.33-0.77-0.5-2.07-0.5-3.93s0.33-3.54,0.99-5.05
		c0.66-1.51,1.55-2.73,2.65-3.66c1.1-0.93,2.34-1.63,3.7-2.13s2.79-0.75,4.28-0.75c1.47,0,2.9,0.25,4.26,0.75
		c1.37,0.5,2.61,1.2,3.7,2.13c1.1,0.93,1.97,2.15,2.63,3.66c0.66,1.51,0.99,3.19,0.99,5.05s-0.33,3.54-0.99,5.05
		c-0.66,1.51-1.53,2.75-2.63,3.68c-1.1,0.93-2.34,1.66-3.7,2.15c-1.37,0.5-2.79,0.75-4.26,0.75c-1.49,0-2.92-0.25-4.28-0.75
		c-1.37-0.5-2.61-1.22-3.7-2.15C128.53,29.26,127.64,28.02,126.98,26.51z M132.84,15.53c0,0-0.33,0.35-0.99,1.06
		c-0.68,0.72-1.01,2.34-1.01,4.88s0.66,4.51,2.01,5.94c1.35,1.43,2.92,2.15,4.74,2.15c0.87,0,1.7-0.17,2.5-0.52s1.53-0.85,2.17-1.51
		c0.64-0.64,1.14-1.49,1.53-2.54c0.39-1.06,0.58-2.21,0.58-3.52c0-1.3-0.19-2.46-0.58-3.52c-0.39-1.06-0.89-1.9-1.53-2.54
		c-0.64-0.64-1.37-1.14-2.17-1.49c-0.81-0.35-1.63-0.52-2.5-0.52C135.76,13.4,134.18,14.1,132.84,15.53z"/>
</g>
</svg>
