<?xml version="1.0"?>
<!--Icons from directory ""-->
<svg xmlns="http://www.w3.org/2000/svg" width="300" height="300" viewBox="0 0 300 300"><svg xmlns:figma="http://www.figma.com/figma/ns" xmlns:xlink="http://www.w3.org/1999/xlink" height="300" width="300" version="1.1" viewBox="0 0 512 512" id="optimised" y="0"><g id="optimised-Canvas" figma:type="canvas" transform="translate(-837 419)"><g id="optimised-Component" style="mix-blend-mode:normal" figma:type="symbol"><g id="optimised-Ellipse" style="isolation:isolate;mix-blend-mode:normal" figma:type="ellipse"><use id="optimised-logohover" style="mix-blend-mode:normal" xlink:href="#optimised-path0_fill" fill="#DD4A68" transform="translate(837 -419)"/><mask id="optimised-mask0_outline_ins"><use xlink:href="#optimised-path0_fill" transform="translate(837 -419)" fill="white"/></mask><g mask="url(#optimised-mask0_outline_ins)"><use style="mix-blend-mode:normal" xlink:href="#optimised-path1_stroke_2x" transform="translate(837 -419)" fill="#FFFFFF"/></g></g><g id="optimised-Vector 2" style="mix-blend-mode:normal" figma:type="vector"><use style="mix-blend-mode:normal" xlink:href="#optimised-path2_fill" transform="translate(1126.9 -261)" fill="#FFFFFF"/></g><g id="optimised-Vector" style="mix-blend-mode:normal" figma:type="vector"><use style="mix-blend-mode:normal" xlink:href="#optimised-path3_fill" transform="translate(917.74 -261)" fill="#FFFFFF"/></g></g></g><defs><path id="optimised-path0_fill" d="m512 256c0 141.38-114.62 256-256 256s-256-114.62-256-256 114.62-256 256-256 256 114.62 256 256z"/><path id="optimised-path1_stroke_2x" d="m492 256c0 130.34-105.66 236-236 236v40c152.43 0 276-123.57 276-276h-40zm-236 236c-130.34 0-236-105.66-236-236h-40c0 152.43 123.57 276 276 276v-40zm-236-236c0-130.34 105.66-236 236-236v-40c-152.43 0-276 123.57-276 276h40zm236-236c130.34 0 236 105.66 236 236h40c0-152.43-123.57-276-276-276v40z"/><path id="optimised-path2_fill" d="m79.461 0h-79.461v56.324h79.461c11.011 4.426 15.845 13.478 16.886 17.45 5.673 18.387-8.892 29.226-16.886 32.346h-79.461v55.76h79.461c28.949-3.98 48.859-19.53 55.199-26.82 25.43-26.33 20.81-67.15 15.32-84.269-13.16-34.617-52.498-48.285-70.519-50.791z"/><path id="optimised-path3_fill" d="m122.03 11.834l-122.03 193.66h60.407l61.623-95.81v95.81h58.26v-193.66c-24.07-18.837-50.6-12.386-58.26 0.004z"/></defs></svg></svg>
