<svg xmlns="http://www.w3.org/2000/svg" xmlns:xlink="http://www.w3.org/1999/xlink" id="Layer_1" x="0" y="0" version="1.1" viewBox="0 0 252 108" xml:space="preserve" style="enable-background:new 0 0 252 108"><style type="text/css">.st0{fill:#0074bb}.st1{fill:#cadeb9}.st2{fill:#67ab3c}</style><g><path d="M22.92,75.9h-3.26v-1.39h8.08v1.39H24.5v9.12h-1.58V75.9z" class="st0"/><path d="M35.11,80.12c0-1.26-0.65-1.64-1.62-1.64c-0.88,0-1.69,0.54-2.09,1.1v5.43h-1.42V74.52h1.42v3.97 c0.5-0.61,1.53-1.26,2.69-1.26c1.62,0,2.44,0.82,2.44,2.43v5.37h-1.42V80.12z" class="st0"/><path d="M42.76,77.22c2.28,0,3.7,1.78,3.7,4.11v0.35h-6.02c0.11,1.29,1.06,2.36,2.58,2.36c0.8,0,1.69-0.32,2.25-0.9 l0.66,0.93c-0.76,0.74-1.83,1.13-3.06,1.13c-2.27,0-3.94-1.61-3.94-4C38.95,79,40.54,77.22,42.76,77.22z M40.43,80.66h4.65 c-0.03-1.01-0.71-2.27-2.32-2.27C41.23,78.39,40.51,79.62,40.43,80.66z" class="st0"/><path d="M55.17,76.96v8.06h-1.58V74.52h1.62l5.72,7.88v-7.88h1.58v10.51h-1.53L55.17,76.96z" class="st0"/><path d="M64.96,81.21c0-2.19,1.48-3.98,3.84-3.98c2.38,0,3.84,1.8,3.84,3.98c0,2.21-1.46,4-3.84,4 C66.44,85.21,64.96,83.41,64.96,81.21z M71.16,81.21c0-1.43-0.83-2.72-2.36-2.72c-1.51,0-2.36,1.29-2.36,2.72 c0,1.45,0.85,2.74,2.36,2.74C70.33,83.95,71.16,82.66,71.16,81.21z" class="st0"/><path d="M75.07,77.41h1.42v1.17c0.58-0.76,1.48-1.34,2.49-1.34v1.43c-0.14-0.03-0.3-0.05-0.49-0.05 c-0.71,0-1.67,0.54-2,1.1v5.29h-1.42V77.41z" class="st0"/><path d="M85.74,79.18l-1.87,5.84H82.4l-2.39-7.61h1.48l1.73,5.8l1.91-5.8h1.23l1.91,5.8l1.73-5.8h1.48l-2.39,7.61 h-1.46L85.74,79.18z" class="st0"/><path d="M96.7,77.22c2.28,0,3.7,1.78,3.7,4.11v0.35h-6.02c0.11,1.29,1.06,2.36,2.58,2.36c0.8,0,1.69-0.32,2.25-0.9 l0.66,0.93c-0.76,0.74-1.83,1.13-3.06,1.13c-2.27,0-3.94-1.61-3.94-4C92.89,79,94.48,77.22,96.7,77.22z M94.37,80.66h4.65 c-0.03-1.01-0.71-2.27-2.32-2.27C95.17,78.39,94.45,79.62,94.37,80.66z" class="st0"/><path d="M103.42,85.93c0.63,0.72,1.4,1.01,2.44,1.01c1.18,0,2.36-0.57,2.36-2.17v-0.99c-0.58,0.76-1.48,1.31-2.5,1.31 c-1.97,0-3.39-1.45-3.39-3.94c0-2.44,1.42-3.92,3.39-3.92c0.99,0,1.89,0.47,2.5,1.29v-1.1h1.42v7.31c0,2.61-1.91,3.39-3.78,3.39 c-1.28,0-2.21-0.27-3.12-1.13L103.42,85.93z M108.23,79.6c-0.39-0.61-1.26-1.12-2.11-1.12c-1.42,0-2.3,1.1-2.3,2.66 c0,1.58,0.88,2.68,2.3,2.68c0.85,0,1.72-0.52,2.11-1.13V79.6z" class="st0"/><path d="M112.3,75.3c0-0.5,0.42-0.9,0.91-0.9c0.5,0,0.91,0.39,0.91,0.9s-0.41,0.91-0.91,0.91 C112.73,76.22,112.3,75.81,112.3,75.3z M112.52,77.41h1.42v7.61h-1.42V77.41z" class="st0"/><path d="M121.51,84.19c-0.6,0.66-1.46,1.02-2.49,1.02c-1.26,0-2.65-0.85-2.65-2.52c0-1.73,1.37-2.49,2.65-2.49 c1.02,0,1.91,0.33,2.49,1.01v-1.26c0-0.95-0.77-1.51-1.86-1.51c-0.87,0-1.61,0.33-2.28,1.01l-0.61-0.98 c0.85-0.83,1.89-1.24,3.12-1.24c1.65,0,3.06,0.72,3.06,2.66v5.13h-1.42V84.19z M121.51,82.06c-0.43-0.57-1.17-0.87-1.95-0.87 c-1.02,0-1.75,0.61-1.75,1.51c0,0.9,0.73,1.51,1.75,1.51c0.79,0,1.53-0.3,1.95-0.87V82.06z" class="st0"/><path d="M130.96,80.15c0-1.26-0.65-1.67-1.62-1.67c-0.88,0-1.69,0.54-2.1,1.1v5.43h-1.42v-7.61h1.42v1.07 c0.5-0.61,1.51-1.26,2.69-1.26c1.61,0,2.44,0.85,2.44,2.46v5.34h-1.42V80.15z" class="st0"/><path d="M139.98,74.52h7.06v1.39h-5.48v3.07h5.37v1.39h-5.37v3.28h5.48v1.39h-7.06V74.52z" class="st0"/><path d="M152.34,82.06l-2.14,2.96h-1.61l2.85-3.91l-2.68-3.7h1.61l1.97,2.74l1.95-2.74h1.61l-2.69,3.7l2.87,3.91h-1.61 L152.34,82.06z" class="st0"/><path d="M157.96,87.92V77.41h1.42v1.09c0.55-0.76,1.47-1.28,2.49-1.28c1.98,0,3.39,1.5,3.39,3.98s-1.4,4-3.39,4 c-0.99,0-1.87-0.46-2.49-1.29v4H157.96z M161.49,78.48c-0.87,0-1.73,0.5-2.11,1.12v3.23c0.38,0.6,1.24,1.12,2.11,1.12 c1.42,0,2.28-1.15,2.28-2.74C163.77,79.63,162.91,78.48,161.49,78.48z" class="st0"/><path d="M171.01,77.22c2.28,0,3.7,1.78,3.7,4.11v0.35h-6.02c0.11,1.29,1.05,2.36,2.58,2.36c0.8,0,1.68-0.32,2.25-0.9 l0.66,0.93c-0.76,0.74-1.83,1.13-3.06,1.13c-2.27,0-3.94-1.61-3.94-4C167.2,79,168.79,77.22,171.01,77.22z M168.68,80.66h4.65 c-0.03-1.01-0.71-2.27-2.31-2.27C169.49,78.39,168.76,79.62,168.68,80.66z" class="st0"/><path d="M177.12,77.41h1.42v1.17c0.58-0.76,1.48-1.34,2.49-1.34v1.43c-0.14-0.03-0.3-0.05-0.49-0.05 c-0.71,0-1.67,0.54-2,1.1v5.29h-1.42V77.41z" class="st0"/><path d="M182.85,75.3c0-0.5,0.43-0.9,0.91-0.9c0.5,0,0.91,0.39,0.91,0.9s-0.41,0.91-0.91,0.91 C183.28,76.22,182.85,75.81,182.85,75.3z M183.07,77.41h1.42v7.61h-1.42V77.41z" class="st0"/><path d="M190.71,77.22c2.28,0,3.7,1.78,3.7,4.11v0.35h-6.02c0.11,1.29,1.06,2.36,2.58,2.36c0.8,0,1.69-0.32,2.25-0.9 l0.66,0.93c-0.76,0.74-1.83,1.13-3.06,1.13c-2.27,0-3.94-1.61-3.94-4C186.9,79,188.49,77.22,190.71,77.22z M188.38,80.66h4.65 c-0.03-1.01-0.71-2.27-2.32-2.27C189.18,78.39,188.46,79.62,188.38,80.66z" class="st0"/><path d="M201.95,80.15c0-1.26-0.65-1.67-1.62-1.67c-0.88,0-1.68,0.54-2.09,1.1v5.43h-1.42v-7.61h1.42v1.07 c0.5-0.61,1.51-1.26,2.69-1.26c1.61,0,2.44,0.85,2.44,2.46v5.34h-1.42V80.15z" class="st0"/><path d="M209.65,77.22c1.43,0,2.3,0.6,2.85,1.34l-0.95,0.87c-0.46-0.65-1.07-0.95-1.84-0.95 c-1.5,0-2.46,1.15-2.46,2.72s0.96,2.74,2.46,2.74c0.77,0,1.39-0.32,1.84-0.95l0.95,0.87c-0.55,0.74-1.42,1.34-2.85,1.34 c-2.3,0-3.87-1.72-3.87-4S207.35,77.22,209.65,77.22z" class="st0"/><path d="M218.03,77.22c2.28,0,3.7,1.78,3.7,4.11v0.35h-6.02c0.11,1.29,1.05,2.36,2.58,2.36c0.8,0,1.68-0.32,2.25-0.9 l0.66,0.93c-0.76,0.74-1.83,1.13-3.06,1.13c-2.27,0-3.94-1.61-3.94-4C214.22,79,215.81,77.22,218.03,77.22z M215.7,80.66h4.65 c-0.03-1.01-0.71-2.27-2.31-2.27C216.5,78.39,215.78,79.62,215.7,80.66z" class="st0"/></g><g><path d="M28.63,38.24v25.12h-9.08V25.33l-3-4.79v-0.64h10.74l19.05,27.67V19.89h9.07v43.46h-9.07L28.63,38.24z" class="st0"/><path d="M111.84,31.58c-3.58,0-6.01,1.73-7.54,4.09v-3.45h-8.69v31.13h8.69V45.58c0.19-3.39,2.49-5.12,5.42-6.02 c1.49-0.46,3.6-0.3,5.23,0.02l-2.35-7.97C112.32,31.59,112.06,31.58,111.84,31.58z" class="st0"/><path d="M171.66,50.19c0.77,3.64,3.96,6.01,8.44,6.01c3.96,0,7.93-1.15,10.8-3v8.37c-2.81,1.47-6.9,2.49-11.5,2.49 c-9.46,0-16.43-6.71-16.43-16.62c0-9.33,6.71-16.55,15.91-16.55c9.2,0,14.89,6.9,14.89,15.15c0,1.34-0.26,3.13-0.51,4.15H171.66z M171.66,43.6h13.74c-0.13-3.26-2.88-5.5-6.58-5.5C174.98,38.11,172.1,40.6,171.66,43.6z" class="st0"/><path d="M201.51,63.35h-10.1l10.48-15.91l-10.48-15.91h10.1l5.69,9.39l5.62-9.39h10.16l-10.42,15.91l10.42,15.91 h-10.16l-5.62-9.46L201.51,63.35z" class="st0"/><path d="M123.88,31.52l5.62,21.15l5.62-16.81l-1.53-4.35h8.63l7.41,21.15l5.5-21.15h9.01l-9.46,31.83h-9.08 l-6.33-17.45l-5.88,17.45h-9.14l-9.39-31.83H123.88z" class="st0"/><path d="M89.75,33.35c-1.69-1.3-6.01-4.1-13.45-1.62c-0.9,0.3-1.44,0.96,0.5,1.05c3.39,0.16,8.48,1.12,10.82,5.28 c3.19,5.69,0.25,12.17-3.64,16.31c-1.36,1.45-2.83,2.62-4.19,3.36c-0.04,0.02-0.08,0.04-0.11,0.06c-3.03,1.63-9.4,4.39-15.13,0 h-2.41c-0.15,0-0.29-0.03-0.42-0.07c1.49,3.19,4.78,6.77,12.04,6.23c0,0,10.62-0.09,17.39-10.75 C97.91,42.53,91.77,34.9,89.75,33.35" class="st0"/><path d="M82.46,43.52L72.29,31.63L62.13,43.52c0,0-1.52,1.37-1.52,2.35v10.15c0,0.81,0.46,1.49,1.1,1.71 c0.13,0.05,0.27,0.07,0.42,0.07h2.41h15.13c0.04-0.02,0.08-0.04,0.11-0.06c1.36-0.74,2.84-1.91,4.19-3.36v-8.5 C83.98,44.9,82.46,43.52,82.46,43.52" class="st1"/><path d="M57.12,42.82l13.93-16.3c0.31-0.37,0.72-0.57,1.12-0.61h0.17c0.4,0.03,0.8,0.24,1.13,0.61l13.92,16.3 c0.64,0.75,0.69,1.9,0.12,2.56c-0.57,0.68-1.55,0.61-2.2-0.14L72.26,29.95L59.19,45.24c-0.64,0.75-1.63,0.82-2.2,0.14 C56.42,44.73,56.48,43.57,57.12,42.82" class="st2"/><path d="M59.56,24.52c-0.83,1.47-1.88,3.63-1.18,5.92c0.88,2.91,3.81,3.86,4.75,3.86c-0.32-0.82-1.35-2.19-1.94-3.74 c-1.3-3.49-0.27-6.53-0.22-6.84l0.02,0.21c0.01,0.15,0.03,0.35,0.05,0.61c0.12,1.22,0.41,3.52,1.12,5.44 c0.65,1.78,1.09,2.07,1.6,3.59c0.24-0.29,0.59-0.77,0.87-1.35c0.82-1.42,1.32-3.59-0.8-6.03c-1.43-1.64-1.96-2.86-2.17-3.59 c-0.04-0.17-0.16-0.45-0.29-0.42c-0.15,0.01-0.48,0.31-0.78,0.7C60.26,23.32,59.89,23.87,59.56,24.52" class="st2"/><path d="M72.28,32.45c0,0-1.36,3.67-3.48,7.46c-1.83,3.29-4.23,6.49-4.06,9.4c0.38,6.53,5.55,7.08,7.83,7.08 c2.28,0,7.28-1.18,7.33-6.95c0.03-3.26-1.92-5.64-3.98-9.46C74.44,37.22,73.06,34.34,72.28,32.45" class="st0"/><path d="M76.95,45.21c0.79,1.67,2.24,3.98,1.31,6.34c-0.43,1.08-0.99,1.91-1.63,2.47c-1,0.87-2.22,1.12-3.2,1.1 c0.34-0.86,1.27-1.93,1.97-3.3c1.78-3.5-0.01-7.57-0.2-7.47c0,0-0.02,0.59-0.01,0.87c0.04,1.31,0.17,3.27-1.01,5.82 c-0.8,1.72-1.86,2.4-2.41,4.02c-1.74-0.23-2.49-1.14-2.8-1.76c-0.47-0.82-0.61-2.13-0.19-3.49c0.51-1.61,1.47-2.65,2.34-3.27 c0.75-0.54,1.45-1.23,1.88-1.81c0.53-0.73,0.68-1.37,0.76-1.68c0.32-1.36,0.13-2.68,0.39-2.48c1,1.16,1.57,2.3,1.84,2.75 C76.33,43.84,76.61,44.53,76.95,45.21" class="st2"/><g><path d="M230.66,33.48c-2.64,0-4.79-2.15-4.79-4.79c0-2.67,2.15-4.79,4.79-4.79c2.67,0,4.79,2.12,4.79,4.79 C235.45,31.34,233.32,33.48,230.66,33.48z M230.66,24.69c-2.21,0-4,1.76-4,4c0,2.19,1.78,4,4,4c2.21,0,4-1.81,4-4 C234.66,26.46,232.87,24.69,230.66,24.69z M231.95,31.45l-1.42-2.17h-0.88v2.17h-0.84v-5.49h2.24c0.93,0,1.85,0.66,1.85,1.67 c0,1.22-1.08,1.63-1.4,1.63l1.47,2.19H231.95z M231.04,26.66h-1.4v1.9h1.4c0.47,0,0.99-0.36,0.99-0.93 C232.04,27.02,231.52,26.66,231.04,26.66z" class="st0"/></g></g></svg>