<svg width="740" height="518" viewBox="0 0 740 518" xmlns="http://www.w3.org/2000/svg" xmlns:xlink="http://www.w3.org/1999/xlink"><defs><path d="M92.743 49.248L52.566 71.76l-40.98-22.51c-1.523-.888-3.528-.243-4.33 1.29-.882 1.533-.24 3.55 1.283 4.357l42.503 23.399a3.098 3.098 0 003.128 0l41.7-23.399c1.525-.888 2.086-2.824 1.204-4.357-.882-1.614-2.807-2.178-4.33-1.29zM16.56 34.321l36.007-20.493 40.097 23.317c1.524.888 3.529.323 4.41-1.21.883-1.533.322-3.55-1.202-4.438L54.17 7.292c-.963-.565-2.165-.565-3.208 0L8.459 31.497c-2.165 1.21-2.165 4.357 0 5.648l42.503 24.206c1.524.887 3.529.323 4.41-1.21.883-1.534.321-3.55-1.202-4.438L16.559 34.32zM.039 51.265V35.128c-.321-3.711 1.363-7.503 5.052-9.601L47.594 1.32c3.127-1.775 6.897-1.775 9.944.081l41.701 24.205c3.448 2.018 5.293 5.81 4.972 9.521v16.137c.32 3.792-1.604 7.665-5.132 9.602L57.378 84.265a9.897 9.897 0 01-9.704 0L5.171 60.867C1.642 58.93-.202 55.138.038 51.265z" id="a"/><path id="c" d="M.401.404h577.84v413.42H.401z"/><path d="M92.743 49.248L52.566 71.76l-40.98-22.51c-1.523-.888-3.528-.243-4.33 1.29-.882 1.533-.24 3.55 1.283 4.357l42.503 23.399a3.098 3.098 0 003.128 0l41.7-23.399c1.525-.888 2.086-2.824 1.204-4.357-.882-1.614-2.807-2.178-4.33-1.29zM16.56 34.321l36.007-20.493 40.097 23.317c1.524.888 3.529.323 4.41-1.21.883-1.533.322-3.55-1.202-4.438L54.17 7.292c-.963-.565-2.165-.565-3.208 0L8.459 31.497c-2.165 1.21-2.165 4.357 0 5.648l42.503 24.206c1.524.887 3.529.323 4.41-1.21.883-1.534.321-3.55-1.202-4.438L16.559 34.32zM.039 51.265V35.128c-.321-3.711 1.363-7.503 5.052-9.601L47.594 1.32c3.127-1.775 6.897-1.775 9.944.081l41.701 24.205c3.448 2.018 5.293 5.81 4.972 9.521v16.137c.32 3.792-1.604 7.665-5.132 9.602L57.378 84.265a9.897 9.897 0 01-9.704 0L5.171 60.867C1.642 58.93-.202 55.138.038 51.265z" id="e"/><path id="g" d="M.401.404h577.84v413.42H.401z"/></defs><g fill="none" fill-rule="evenodd"><g transform="translate(329 52)"><rect stroke="#3EB2FD" stroke-width="1.98" fill="#FFF" width="409.86" height="465.3" rx="5.94"/><path d="M0 7.171C0 3.4 3.063.342 6.814.342h396.232c3.763 0 6.814 3.051 6.814 6.83v21.682H0V7.171z" fill="#3EB2FD" fill-rule="nonzero"/><g transform="translate(10.087 9.491)" fill="#FFF" fill-rule="nonzero"><circle cx="4.752" cy="4.752" r="4.752"/><circle cx="19.008" cy="4.752" r="4.752"/><circle cx="33.264" cy="4.752" r="4.752"/></g><rect x=".556" width="366.778" height="182.021" rx="5.94" transform="translate(22.176 77.616)" fill="#EFF3F5" fill-rule="nonzero"/><rect fill="#EFF3F5" fill-rule="nonzero" x="22.81" y="49.896" width="78.408" height="11.405" rx="4.752"/><g transform="translate(21.78 281.16)" fill="#EEF2F4" fill-rule="nonzero"><rect x="1.98" y="1.98" width="100.044" height="95.04" rx="5.94"/><rect x="116.82" width="138.6" height="9.9" rx="4.95"/><rect opacity=".76" x="116.82" y="21.78" width="53.46" height="9.9" rx="4.95"/><rect x="116.82" y="43.56" width="237.6" height="9.9" rx="4.95"/><rect x="116.82" y="65.34" width="227.7" height="9.9" rx="4.95"/><rect x="116.82" y="87.12" width="245.52" height="9.9" rx="4.95"/><rect y="108.9" width="368.28" height="9.9" rx="4.95"/><rect y="128.7" width="368.28" height="9.9" rx="4.95"/><rect y="150.48" width="237.6" height="9.9" rx="4.95"/></g></g><g transform="translate(1 1)"><rect stroke="#3EB2FD" stroke-width="1.98" fill="#FFF" width="409.86" height="465.3" rx="5.94"/><path d="M0 7.171C0 3.4 3.063.342 6.814.342h396.232c3.763 0 6.814 3.051 6.814 6.83v21.682H0V7.171z" fill="#3EB2FD" fill-rule="nonzero"/><g transform="translate(10.087 9.491)" fill="#FFF" fill-rule="nonzero"><circle cx="4.752" cy="4.752" r="4.752"/><circle cx="19.008" cy="4.752" r="4.752"/><circle cx="33.264" cy="4.752" r="4.752"/></g><rect x=".556" width="366.778" height="182.021" rx="5.94" transform="translate(22.176 77.616)" fill="#EFF3F5" fill-rule="nonzero"/><rect fill="#EFF3F5" fill-rule="nonzero" x="22.81" y="49.896" width="78.408" height="11.405" rx="4.752"/><g transform="translate(21.78 281.16)" fill="#EEF2F4" fill-rule="nonzero"><rect x="1.98" y="1.98" width="100.044" height="95.04" rx="5.94"/><rect x="116.82" width="138.6" height="9.9" rx="4.95"/><rect opacity=".76" x="116.82" y="21.78" width="53.46" height="9.9" rx="4.95"/><rect x="116.82" y="43.56" width="237.6" height="9.9" rx="4.95"/><rect x="116.82" y="65.34" width="227.7" height="9.9" rx="4.95"/><rect x="116.82" y="87.12" width="245.52" height="9.9" rx="4.95"/><rect y="108.9" width="368.28" height="9.9" rx="4.95"/><rect y="128.7" width="368.28" height="9.9" rx="4.95"/><rect y="150.48" width="237.6" height="9.9" rx="4.95"/></g></g><g transform="translate(154 134)"><mask id="b" fill="#fff"><use xlink:href="#a"/></mask><g mask="url(#b)"><g transform="translate(-43.303 -238.222)"><mask id="d" fill="#fff"><use xlink:href="#c"/></mask><path fill="#3EB0FD" fill-rule="nonzero" mask="url(#d)" d="M41.332 236.182h108.345v89.629H41.332z"/></g></g></g><g transform="translate(482 177)"><mask id="f" fill="#fff"><use xlink:href="#e"/></mask><g mask="url(#f)"><g transform="translate(-43.303 -238.222)"><mask id="h" fill="#fff"><use xlink:href="#g"/></mask><path fill="#3EB0FD" fill-rule="nonzero" mask="url(#h)" d="M41.332 236.182h108.345v89.629H41.332z"/></g></g></g></g></svg>