<svg width="740" height="490" viewBox="0 0 740 490" xmlns="http://www.w3.org/2000/svg" xmlns:xlink="http://www.w3.org/1999/xlink"><defs><path d="M140.506 74.61l-60.869 34.105-62.083-34.104c-2.309-1.345-5.346-.367-6.561 1.956-1.337 2.322-.365 5.378 1.944 6.6l64.392 35.45a4.694 4.694 0 004.738 0l63.177-35.45c2.309-1.344 3.16-4.278 1.823-6.6-1.337-2.445-4.252-3.3-6.56-1.956zM25.086 51.998l54.551-31.048 60.748 35.326c2.308 1.345 5.345.49 6.682-1.833 1.336-2.323.486-5.379-1.823-6.723L82.067 11.047c-1.458-.855-3.28-.855-4.86 0L12.815 47.72c-3.28 1.833-3.28 6.6 0 8.556l64.392 36.671c2.309 1.345 5.346.49 6.683-1.833 1.336-2.323.486-5.379-1.823-6.723l-56.98-32.393zM.058 77.667V53.219c-.486-5.623 2.066-11.368 7.654-14.546L72.105 2.002c4.738-2.69 10.448-2.69 15.065.122l63.177 36.671c5.224 3.056 8.019 8.801 7.533 14.424v24.448c.486 5.745-2.43 11.612-7.776 14.546l-63.177 35.449c-4.617 2.567-10.084 2.567-14.7 0L7.833 92.213C2.488 89.279-.306 83.534.058 77.667z" id="a"/><path id="c" d="M.608.612h875.427v626.331H.608z"/></defs><g fill="none" fill-rule="evenodd"><g transform="translate(1 1)"><rect stroke="#3EB2FD" stroke-width="1.909" fill="#FFF" width="738.108" height="487.83" rx="5.727"/><path d="M0 31.815V7.62C0 3.412 2.954 0 6.57 0h724.66c3.628 0 6.57 3.405 6.57 7.62v24.195H0z" fill="#3EB2FD" fill-rule="nonzero"/><g transform="translate(8.664 10.211)" fill="#FFF" fill-rule="nonzero"><circle cx="4.772" cy="4.772" r="4.772"/><circle cx="19.619" cy="4.772" r="4.772"/><circle cx="33.406" cy="4.772" r="4.772"/></g></g><g transform="translate(280 173)"><mask id="b" fill="#fff"><use xlink:href="#a"/></mask><g mask="url(#b)"><g transform="translate(-65.603 -360.906)"><mask id="d" fill="#fff"><use xlink:href="#c"/></mask><path fill="#3EB0FD" fill-rule="nonzero" mask="url(#d)" d="M62.617 357.816H226.76v135.787H62.617z"/></g></g></g></g></svg>