<svg xmlns="http://www.w3.org/2000/svg" xmlns:xlink="http://www.w3.org/1999/xlink" version="1.1" id="Layer_1" x="0px" y="0px" width="100px" height="100px" viewBox="0 0 100 100" enable-background="new 0 0 100 100" xml:space="preserve">
<g>
	<path d="M61.235,70.901c-8.317,0-16.136-3.238-22.017-9.119c-12.14-12.141-12.14-31.895,0-44.035   c5.881-5.881,13.7-9.12,22.017-9.12c8.316,0,16.136,3.239,22.017,9.12c12.14,12.141,12.14,31.895,0,44.035   C77.371,67.663,69.552,70.901,61.235,70.901z M61.235,12.627c-7.249,0-14.063,2.823-19.189,7.948   c-10.58,10.581-10.58,27.797,0,38.378c5.125,5.125,11.94,7.947,19.189,7.947c7.248,0,14.062-2.822,19.188-7.947   c10.58-10.581,10.58-27.797,0-38.378C75.298,15.45,68.483,12.627,61.235,12.627z"/>
</g>
<g>
	<rect x="19.618" y="58.184" transform="matrix(0.7071 0.7071 -0.7071 0.7071 60.1221 4.8974)" width="9.064" height="33.669"/>
</g>
</svg>