<?xml version="1.0" encoding="utf-8"?>
<!-- Generator: Adobe Illustrator 24.3.0, SVG Export Plug-In . SVG Version: 6.00 Build 0)  -->
<svg version="1.1" id="Layer_1" xmlns="http://www.w3.org/2000/svg" xmlns:xlink="http://www.w3.org/1999/xlink" x="0px" y="0px"
	 viewBox="0 0 498.6 154.9" style="enable-background:new 0 0 498.6 154.9;" xml:space="preserve">
<style type="text/css">
	.st0{opacity:0.38;fill:url(#SVGID_1_);enable-background:new    ;}
</style>
<g id="Layer_2_1_">
	<g id="Layer_1-2">
		<linearGradient id="SVGID_1_" gradientUnits="userSpaceOnUse" x1="249.35" y1="154.9" x2="249.35" y2="-9.094947e-13">
			<stop  offset="0" style="stop-color:#FFFFFF"/>
			<stop  offset="1" style="stop-color:#FF5567;stop-opacity:0.2"/>
		</linearGradient>
		<path class="st0" d="M76.3,23l1.7,9l-8.1-4.1l-8,4.3l1.4-9l-6.6-6.3l9-1.4l3.9-8.2l4.1,8.1l9,1.2L76.3,23z M182.1,16.9l-8.5-3.3
			l-2.1-8.9l-5.7,7.1l-9.1-0.7l5,7.6l-3.5,8.4l8.8-2.4l6.9,5.9l0.5-9.1L182.1,16.9z M60.2,142.2l-8-4.3l-1-9l-6.5,6.3l-8.9-1.8
			l4,8.2l-4.5,7.9l9-1.3l6.2,6.7l1.6-9L60.2,142.2z M224,66.1l-4.2,1.8l-3.8-2.5l0.4,4.6l-3.5,2.9l4.5,1l1.7,4.3l2.4-3.9l4.6-0.3
			l-3-3.5L224,66.1z M260.4,9l-5.7-2.7l-1-6.3l-4.4,4.6l-6.3-1l3,5.6l-2.9,5.7l6.2-1.2l4.5,4.5l0.8-6.3L260.4,9z M326.4,30.5l-5-4
			l0.5-6.3l-5.3,3.5l-5.9-2.4l1.7,6.1l-4.1,4.9l6.4,0.3L318,38l2.3-5.9L326.4,30.5z M297,66l-4.4-4.6l1.2-6.2L288,58l-5.5-3.1
			l0.9,6.3l-4.7,4.3l6.2,1.1l2.6,5.8l3-5.6L297,66z M351.3,64.8l-6.3,0.6l-4-4.9l-1.4,6.2l-6,2.4l5.5,3.3l0.4,6.3l4.8-4.2l6.2,1.6
			l-2.5-5.8L351.3,64.8z M58.8,85.9L55,86.7L52.2,84l-0.4,3.9l-3.5,1.9l3.6,1.6l0.7,3.8l2.6-2.9l3.9,0.5l-2-3.4L58.8,85.9z
			 M228.7,98.9l-3.9-0.1l-2.1-3.3l-1.3,3.7l-3.8,1l3.1,2.4l-0.2,3.9l3.2-2.2l3.7,1.4l-1.1-3.7L228.7,98.9z M165.5,126.2l-3.9-0.6
			l-1.7-3.5l-1.8,3.5l-3.9,0.6l2.8,2.8l-0.7,3.9l3.5-1.8l3.5,1.8l-0.6-3.9L165.5,126.2z M89.8,65.1l-2.9,2.6l-3.8-0.9l1.6,3.6
			l-2,3.3l3.9-0.4l2.6,3l0.8-3.8l3.6-1.5l-3.5-2L89.8,65.1z M259.3,84.4l-2.7-0.3l-1.3-2.4l-1.1,2.5l-2.7,0.5l2,1.8l-0.4,2.7
			l2.4-1.4L258,89l-0.6-2.7L259.3,84.4z M289.1,83.7l-2.6-0.9l-0.7-2.6l-1.7,2.2l-2.7-0.1l1.6,2.3l-1,2.6l2.6-0.8l2.1,1.7l0.1-2.7
			L289.1,83.7z M88.8,99.4l-2.4-1.2L86,95.4l-1.9,2L81.4,97l1.3,2.4l-1.3,2.4l2.7-0.5l1.9,2l0.4-2.7L88.8,99.4z M438,63.4l-2.5,1.1
			l-2.3-1.4l0.3,2.7l-2.1,1.8l2.7,0.5l1.1,2.5l1.4-2.4l2.7-0.2l-1.9-2L438,63.4z M230.2,46.1l-9-1.2l-4.2-8.1l-3.9,8.2l-9,1.4
			l6.6,6.3l-1.4,9l8-4.3l8.1,4.2l-1.6-9L230.2,46.1z M325.3,71.1l-6.8-2.6l-1.7-7.1l-4.6,5.7l-7.3-0.6l4,6.1l-2.8,6.7l7-1.9l5.5,4.7
			l0.4-7.3L325.3,71.1z M460.6,99.9H455l-3.2-4.6l-1.7,5.3l-5.4,1.6l4.6,3.3l-0.1,5.6l4.5-3.3l5.3,1.8l-1.8-5.3L460.6,99.9z
			 M373.6,93.2l-6.1-0.2l-3.3-5.1l-2.1,5.7l-5.9,1.5l4.8,3.7l-0.4,6.1l5.1-3.4l5.7,2.2l-1.7-5.8L373.6,93.2z M407.9,38.5l-5.7-2.7
			l-1-6.3l-4.4,4.6l-6.3-1l3,5.6l-2.9,5.7l6.2-1.2l4.5,4.5l0.8-6.3L407.9,38.5z M473.9,60l-5-4l0.5-6.3l-5.4,3.5l-5.9-2.4l1.7,6.1
			l-4.1,4.8L462,62l3.3,5.4l2.3-5.9L473.9,60z M415.3,92.9l-4.4-4.6l1.1-6.2l-5.7,2.8l-5.5-3.1l0.9,6.3l-4.6,4.3l6.3,1.1l2.6,5.8
			l3-5.6L415.3,92.9z M498.7,94.3l-6.3,0.6l-4-4.9l-1.4,6.2l-5.9,2.3l5.5,3.3l0.4,6.3l4.8-4.2l6.2,1.6l-2.5-5.9L498.7,94.3z
			 M335.8,142.5l-3.8,0.8l-2.8-2.7l-0.4,3.9l-3.5,1.9l3.6,1.6l0.7,3.9l2.6-2.9l3.9,0.5l-2-3.4L335.8,142.5z M376.1,128.4l-3.9-0.1
			L370,125l-1.3,3.7l-3.8,1l3.1,2.4l-0.2,3.9l3.2-2.2l3.7,1.4l-1.1-3.8L376.1,128.4z M372.2,56.2l-3.9-0.6l-1.7-3.5l-1.8,3.5
			l-3.9,0.5l2.8,2.8l-0.7,3.9l3.5-1.8l3.5,1.8l-0.7-3.8L372.2,56.2z M59.5,50.8l-2.9,2.6l-3.8-0.9l1.6,3.6l-2,3.3l3.9-0.4l2.6,3
			l0.8-3.8l3.6-1.5l-3.4-1.9L59.5,50.8z M406.7,113.9l-2.7-0.3l-1.3-2.4l-1.1,2.5l-2.7,0.5l2,1.8l-0.4,2.7l2.4-1.4l2.5,1.2l-0.6-2.7
			L406.7,113.9z M436.5,113.1l-2.6-0.9l-0.7-2.6l-1.7,2.2l-2.7-0.1l1.5,2.2l-1,2.6l2.6-0.8l2.1,1.7l0.1-2.7L436.5,113.1z
			 M429.7,131.8l-2.5-1.2l-0.4-2.7l-1.9,2l-2.7-0.5l1.3,2.4l-1.3,2.4l2.7-0.5l1.9,2l0.4-2.7L429.7,131.8z M451.5,123.5l-2.5,1.1
			l-2.3-1.4l0.3,2.7l-2.1,1.8l2.7,0.5l1.1,2.5l1.4-2.4l2.7-0.2l-1.9-2L451.5,123.5z M303.9,109.9l7.2,0.3l3.8,6.1l2.5-6.7l7-1.7
			l-5.6-4.5l0.5-7.2l-6,4l-6.6-2.7l1.9,6.9L303.9,109.9z M173.1,71.4l8.8,2.5l2.9,8.6l5.1-7.6l9.1-0.1l-5.6-7.2l2.7-8.7l-8.6,3.1
			l-7.4-5.3l0.3,9.1L173.1,71.4z M0,42.3l8.4,3.6l1.8,8.9l6-6.9l9,1l-4.7-7.8l3.8-8.3l-8.9,2l-6.7-6.1l-0.8,9.1L0,42.3z M148.7,83.3
			l4-2.1l4.1,2.1l-0.7-4.5l3.3-3.2l-4.5-0.6l-2-4.1l-2,4.1l-4.5,0.7l3.3,3.2L148.7,83.3z M117.5,143.5l6,2.2l1.6,6.2l4-5l6.3,0.4
			l-3.5-5.3l2.4-5.9l-6.2,1.8l-4.9-4.1l-0.3,6.4L117.5,143.5z M76.9,121.6l4.8,4.2l-0.7,6.3l5.4-3.3l5.8,2.6l-1.4-6.2l4.3-4.7
			l-6.3-0.5l-3.2-5.5l-2.5,5.9L76.9,121.6z M180.1,33.5l3.8-1.1l3.1,2.4l0.1-3.9l3.3-2.2l-3.7-1.3l-1-3.8l-2.4,3.1l-3.9-0.2l2.2,3.2
			L180.1,33.5z M141.2,51.1l3.9-0.2l2.4,3.1l1-3.8l3.7-1.3l-3.3-2.1l-0.1-3.9l-3,2.5l-3.8-1.1l1.4,3.6L141.2,51.1z M105.2,27.9
			l3.9,0.2l2,3.4l1.4-3.6l3.9-0.8l-3-2.5l0.3-3.9l-3.3,2.1l-3.6-1.5l1,3.8L105.2,27.9z M249.3,53.9l2.7-2.8l3.9,0.5l-1.9-3.4
			l1.7-3.5l-3.8,0.8l-2.8-2.7l-0.4,3.9l-3.5,1.8l3.6,1.6L249.3,53.9z M111.9,68.2h2.7l1.5,2.3l0.9-2.6l2.6-0.7l-2.2-1.6l0.1-2.7
			l-2.2,1.6l-2.6-1l0.8,2.6L111.9,68.2z M82.3,71.7l2.7,0.7l0.9,2.6l1.5-2.3l2.7-0.1l-1.8-2.1l0.7-2.6l-2.5,1l-2.3-1.5l0.2,2.8
			L82.3,71.7z M280.4,38.3l2.5,1l0.6,2.7l1.7-2.1l2.7,0.2l-1.5-2.3l1.1-2.5L285,36l-2.1-1.8l-0.2,2.7L280.4,38.3z M144.3,103.9
			l9.1,0.4l4.8,7.7l3.2-8.5l8.8-2.2l-7.1-5.7l0.6-9.1l-7.6,5l-8.4-3.4l2.4,8.8L144.3,103.9z M243.7,76.7l2.6-2.9l3.9,0.6l-1.9-3.4
			l1.7-3.6l-3.8,0.8l-2.8-2.7l-0.4,3.9l-3.5,1.8l3.6,1.6L243.7,76.7z"/>
	</g>
</g>
</svg>
