<svg width="150" height="25" xmlns="http://www.w3.org/2000/svg"><g fill-rule="nonzero" fill="none"><path d="M6.486 19.747v-.997a6.294 6.294 0 00-2.284-.762l1.549-4.175h5.83l1.523 4.175a7.6 7.6 0 00-1.103.315c-.385.14-.744.289-1.077.447v.997h8.22v-.997a4.502 4.502 0 00-.92-.46c-.35-.131-.7-.232-1.05-.302L10.583 1.05H8.639L1.864 17.988a6.04 6.04 0 00-.958.302 5.857 5.857 0 00-.906.46v.997h6.486zm4.543-7.641H6.381l1.812-4.963.578-2.311h.052l.5 2.258 1.706 5.016zm22.01-2.851c-.108-.54-.267-.99-.477-1.35a3.023 3.023 0 00-.88-.986 3.1 3.1 0 00-1.116-.485 5.793 5.793 0 00-1.234-.132c-.998 0-1.851.29-2.56.867-.71.578-1.204 1.278-1.484 2.1h-.026V6.303h-.893l-1.037.132c-.412.052-.836.118-1.274.197-.437.078-.862.17-1.273.275a6.856 6.856 0 00-1.038.342v1.024l1.734.21v9.611c-.316.088-.622.184-.92.289a7.123 7.123 0 00-.814.341v1.024h6.828v-1.024c-.403-.28-.84-.49-1.313-.63V10.74c.193-.7.495-1.265.906-1.693.411-.43.897-.644 1.457-.644.385 0 .7.083.946.25.245.166.437.429.577.787.14.36.232.819.276 1.38.044.56.066 1.242.066 2.047v5.226a4.971 4.971 0 00-.722.302c-.22.114-.416.223-.591.328v1.024h6.565v-1.024a6.48 6.48 0 00-1.47-.63v-7.09c.174-.788.441-1.418.8-1.89.359-.474.854-.71 1.484-.71.84 0 1.387.324 1.641.972.254.648.38 1.654.38 3.02v5.698a5.68 5.68 0 00-1.312.63v1.024h6.827v-1.024a5.452 5.452 0 00-1.733-.63v-6.224c0-1.102-.087-2.013-.262-2.73-.175-.718-.434-1.287-.775-1.707a2.696 2.696 0 00-1.26-.88c-.5-.166-1.073-.25-1.72-.25-1.05 0-1.944.298-2.679.893-.735.595-1.26 1.374-1.576 2.337l-.049-.277zm18.168 15.744v-1.024a4.173 4.173 0 00-1.733-.63v-3.808c.385.193.748.329 1.09.407.34.08.809.119 1.404.119 1.033 0 1.957-.167 2.77-.5a5.764 5.764 0 002.075-1.417c.57-.613 1.007-1.366 1.313-2.259.307-.893.46-1.89.46-2.993 0-1.156-.118-2.15-.355-2.98-.236-.832-.569-1.515-.998-2.05a3.87 3.87 0 00-1.575-1.18c-.622-.255-1.318-.382-2.088-.382-1.138 0-2.026.28-2.665.84A4.926 4.926 0 0049.5 9.244h-.026v-2.94h-.893c-.28.034-.626.078-1.038.13-.411.053-.835.119-1.273.198-.438.078-.862.17-1.274.275a6.856 6.856 0 00-1.037.342v1.024l1.733.21v14.863c-.56.14-1.138.35-1.733.63V25h7.248zm.394-6.433c-.508 0-.92-.048-1.235-.145a2.89 2.89 0 01-.892-.46v-6.984c.192-.876.52-1.523.984-1.944.464-.42.994-.63 1.589-.63.928 0 1.571.39 1.93 1.169s.538 1.886.538 3.322c0 1.855-.236 3.265-.709 4.227-.472.963-1.208 1.445-2.205 1.445zm15.31 1.497c.682 0 1.316-.075 1.903-.224a6.97 6.97 0 001.55-.577 4.676 4.676 0 001.128-.814c.307-.307.53-.609.67-.906l-.499-.526c-.35.28-.836.508-1.457.683a6.626 6.626 0 01-1.8.263c-1.347 0-2.367-.412-3.058-1.234-.692-.823-1.046-1.926-1.064-3.31h8.062c.227-1.312.24-2.424.04-3.334-.202-.91-.561-1.646-1.077-2.206-.517-.56-1.165-.963-1.944-1.208a8.312 8.312 0 00-2.507-.368c-2.084 0-3.712.587-4.885 1.76-1.173 1.173-1.76 2.88-1.76 5.12 0 1.05.145 1.996.434 2.837.289.84.713 1.562 1.274 2.166.56.604 1.26 1.068 2.1 1.392.84.324 1.804.486 2.89.486zm1.68-8.01h-4.228c.052-.84.14-1.536.262-2.087.123-.552.285-.99.486-1.313.202-.324.438-.547.71-.67.27-.123.581-.184.932-.184.787 0 1.321.368 1.601 1.103s.36 1.786.237 3.151zm13.13 7.694v-1.024c-.35-.192-.7-.337-1.05-.433-.35-.096-.701-.162-1.051-.197v-6.722c.227-.56.481-.963.761-1.208.28-.246.526-.42.736-.526h3.597V8.613a14.702 14.702 0 00-.341-1.273c-.14-.447-.306-.793-.5-1.038a2.867 2.867 0 00-1.365.29c-.437.21-.84.49-1.208.84-.367.35-.687.735-.958 1.155-.271.42-.477.823-.617 1.208h-.105V6.302h-.893l-1.037.132c-.412.052-.836.118-1.274.197-.438.078-.862.17-1.273.275a6.856 6.856 0 00-1.038.342v1.024l1.733.21v9.611c-.28.07-.56.149-.84.236-.28.088-.578.22-.893.394v1.024h7.616zm8.77.316c1.646 0 2.959-.346 3.94-1.038.98-.691 1.47-1.641 1.47-2.849 0-.683-.162-1.27-.486-1.76a5.056 5.056 0 00-1.208-1.273 10.07 10.07 0 00-1.575-.958c-.57-.28-1.095-.56-1.576-.84a5.876 5.876 0 01-1.208-.907 1.563 1.563 0 01-.486-1.142c0-.385.136-.73.407-1.037.272-.307.67-.46 1.195-.46.28 0 .534.013.762.04.227.026.446.083.656.17l1.103 2.679h.893a55 55 0 00.604-1.747c.21-.639.35-1.238.42-1.798-.613-.263-1.326-.469-2.14-.617a14.688 14.688 0 00-2.64-.224c-.682 0-1.317.084-1.903.25a4.905 4.905 0 00-1.51.696c-.42.297-.753.66-.998 1.09a2.833 2.833 0 00-.368 1.43c0 .736.162 1.357.486 1.865.324.508.727.95 1.208 1.326a9.01 9.01 0 001.576.985c.569.28 1.094.56 1.575.84.482.28.884.587 1.208.92.324.332.486.726.486 1.181 0 .525-.21.937-.63 1.234-.42.298-.884.447-1.392.447-.21 0-.433-.013-.67-.04a1.325 1.325 0 01-.643-.25l-1.287-2.861h-.892a13.346 13.346 0 00-.84 1.733 5.969 5.969 0 00-.447 1.917c.648.315 1.418.56 2.31.735a13.5 13.5 0 002.6.263zm10.977 0a4.32 4.32 0 001.47-.237 4.07 4.07 0 001.143-.617c.324-.254.59-.543.8-.867.21-.323.36-.66.447-1.01h.132c.017.577.043 1.067.078 1.47s.14.805.315 1.208h.893a25.77 25.77 0 001.024-.144c.386-.062.775-.14 1.169-.237.394-.096.77-.197 1.13-.302.358-.105.642-.21.853-.315v-.919l-1.812-.263a11.303 11.303 0 01-.066-.892c-.009-.28-.013-.613-.013-.998 0-.893.022-1.764.066-2.613a55.8 55.8 0 00.065-2.85 6.1 6.1 0 00-.21-1.627c-.14-.508-.39-.95-.748-1.327-.36-.376-.854-.674-1.484-.892-.63-.22-1.444-.329-2.442-.329-1.173 0-2.285.132-3.335.394-1.05.263-1.908.622-2.574 1.077.035.298.092.604.171.919.079.315.175.626.289.932.114.307.236.595.368.867.13.271.267.512.407.722h1.155l1.234-3.151a4.136 4.136 0 011.497-.263c.875 0 1.444.35 1.707 1.05.263.7.324 1.804.184 3.31-1.436.07-2.657.183-3.664.34-1.006.158-1.829.399-2.468.723-.639.324-1.107.74-1.405 1.247-.297.508-.446 1.156-.446 1.943 0 .56.105 1.064.315 1.51.21.447.499.828.866 1.143.368.315.797.56 1.287.735a4.73 4.73 0 001.602.263zm1.654-2.101c-.56 0-.997-.184-1.313-.552-.315-.367-.472-.884-.472-1.55 0-.437.057-.809.17-1.115.114-.306.32-.56.618-.762.297-.201.709-.345 1.234-.433.525-.087 1.199-.14 2.022-.157v2.626a6.02 6.02 0 01-.223.603 2.09 2.09 0 01-.42.63 2.621 2.621 0 01-.67.5c-.263.14-.578.21-.946.21zm15.756 1.785v-1.024a5.093 5.093 0 00-.696-.38 4.682 4.682 0 00-.748-.25v-7.3c.245-.735.608-1.318 1.09-1.746a2.499 2.499 0 011.72-.644c.805 0 1.365.31 1.68.932.316.622.473 1.484.473 2.587v6.171a9.398 9.398 0 00-1.444.63v1.024h6.959v-1.024c-.455-.297-1.033-.507-1.733-.63v-6.276c0-1.085-.101-1.983-.302-2.692-.202-.709-.49-1.273-.867-1.693a2.995 2.995 0 00-1.379-.88c-.542-.166-1.155-.25-1.838-.25-1.05 0-1.943.267-2.678.801-.736.534-1.287 1.169-1.655 1.904h-.026V6.302h-.893c-.367.035-.774.084-1.22.145a22.445 22.445 0 00-2.508.499 5.52 5.52 0 00-.894.302v1.024l1.734.21v9.611c-.718.193-1.296.403-1.734.63v1.024h6.96zm15.467.316a3.5 3.5 0 001.287-.237 3.704 3.704 0 001.077-.643c.315-.272.586-.582.814-.932.227-.35.385-.718.472-1.103h.105l.237 2.862h.893c.262-.035.59-.083.984-.144.394-.062.801-.136 1.221-.224.42-.087.823-.183 1.208-.288.386-.106.7-.22.946-.342v-.919l-1.733-.21V0h-.893a53.7 53.7 0 01-1.13.184c-.455.07-.918.144-1.391.223a38.08 38.08 0 00-1.353.25 5.404 5.404 0 00-1.01.288V1.97l1.995.21v4.622c-.21-.07-.398-.135-.564-.197a2.563 2.563 0 00-.526-.13 9.84 9.84 0 00-.604-.067 10.286 10.286 0 00-.8-.026c-.98 0-1.874.149-2.679.447a5.395 5.395 0 00-2.061 1.339c-.57.595-1.011 1.326-1.326 2.193-.316.866-.473 1.877-.473 3.033 0 2.258.45 3.934 1.352 5.028.902 1.094 2.22 1.642 3.952 1.642zm1.26-2.101c-.892 0-1.531-.43-1.916-1.287-.385-.858-.578-1.996-.578-3.414 0-1.75.219-3.085.657-4.004.437-.92 1.164-1.379 2.18-1.379.507 0 .931.044 1.273.131.341.088.626.202.853.342v7.064c-.192.927-.499 1.584-.919 1.969-.42.385-.936.578-1.55.578z" fill="#333B45"/><path d="M147.607 19.957c.542 0 .98-.157 1.313-.472.332-.315.498-.727.498-1.234 0-.526-.166-.946-.498-1.26-.333-.316-.77-.474-1.313-.474-.526 0-.955.158-1.287.473-.333.315-.5.735-.5 1.26 0 .508.167.92.5 1.235.332.315.761.472 1.287.472z" fill="#179C62"/></g></svg>