<?xml version="1.0" encoding="utf-8"?>
<!-- Generator: Adobe Illustrator 22.0.1, SVG Export Plug-In . SVG Version: 6.00 Build 0)  -->
<svg version="1.1" xmlns="http://www.w3.org/2000/svg" xmlns:xlink="http://www.w3.org/1999/xlink" x="0px" y="0px"
	 viewBox="0 0 128 128" style="enable-background:new 0 0 128 128;" xml:space="preserve">
<style type="text/css">
	.st0{display:none;}
	.st1{display:inline;fill:#4D4449;}
	.st2{fill:#FFFFFF;}
	.st3{fill:#DC89BA;}
	.st4{fill:#92D8F0;}
	.st5{fill:#FEE994;}
	.st6{fill:#B1D9A4;}
</style>
<g id="Layer_2" class="st0">
	<rect x="-30.4" y="-27.8" class="st1" width="280.1" height="224.3"/>
</g>
<g id="Layer_1">
	<g>
		<path class="st2" d="M123.1,113.1c0,5.5-4.5,10-10,10H14.9c-5.5,0-10-4.5-10-10V14.9c0-5.5,4.5-10,10-10h98.2c5.5,0,10,4.5,10,10
			V113.1z"/>
	</g>
	<g>
		<path class="st3" d="M50.6,24.4v7.4H20.2v-7.4H50.6z M50.6,37.4v7.4H20.2v-7.4H50.6z"/>
	</g>
	<g>
		<path class="st4" d="M48.5,75.6l-8.4,15.7l8.8,16.6h-8.6l-4.8-10.6l-4.8,10.6H22l8.8-16.6l-8.4-15.7H31l4.4,9.7l4.4-9.7H48.5z"/>
	</g>
	<rect x="68.8" y="83.1" class="st5" width="49.1" height="19.7"/>
	<rect x="83.7" y="12.8" class="st6" width="19.2" height="43.6"/>
</g>
</svg>
