<?xml version="1.0" encoding="UTF-8" standalone="no"?>
<!-- Created with Inkscape (http://www.inkscape.org/) -->

<svg
   xmlns:dc="http://purl.org/dc/elements/1.1/"
   xmlns:cc="http://creativecommons.org/ns#"
   xmlns:rdf="http://www.w3.org/1999/02/22-rdf-syntax-ns#"
   xmlns:svg="http://www.w3.org/2000/svg"
   xmlns="http://www.w3.org/2000/svg"
   xmlns:sodipodi="http://sodipodi.sourceforge.net/DTD/sodipodi-0.dtd"
   xmlns:inkscape="http://www.inkscape.org/namespaces/inkscape"
   width="100"
   height="100"
   viewBox="0 0 26.458335 26.458333"
   version="1.1"
   id="svg8"
   inkscape:version="0.92.0 r15299"
   sodipodi:docname="gs.svg">
  <defs
     id="defs2" />
  <sodipodi:namedview
     id="base"
     pagecolor="#3c3c3c"
     bordercolor="#666666"
     borderopacity="1.0"
     inkscape:pageopacity="0"
     inkscape:pageshadow="2"
     inkscape:zoom="5.6568543"
     inkscape:cx="106.99986"
     inkscape:cy="80.625662"
     inkscape:document-units="mm"
     inkscape:current-layer="g4579"
     showgrid="false"
     inkscape:window-width="1920"
     inkscape:window-height="1017"
     inkscape:window-x="1592"
     inkscape:window-y="108"
     inkscape:window-maximized="1"
     inkscape:pagecheckerboard="false"
     showborder="true"
     inkscape:showpageshadow="false"
     borderlayer="false"
     inkscape:snap-grids="true"
     showguides="false"
     units="px"
     inkscape:measure-start="66.1587,55.4195"
     inkscape:measure-end="0,0" />
  <metadata
     id="metadata5">
    <rdf:RDF>
      <cc:Work
         rdf:about="">
        <dc:format>image/svg+xml</dc:format>
        <dc:type
           rdf:resource="http://purl.org/dc/dcmitype/StillImage" />
        <dc:title></dc:title>
      </cc:Work>
    </rdf:RDF>
  </metadata>
  <g
     inkscape:groupmode="layer"
     id="layer2"
     inkscape:label="svg"
     style="display:inline"
     transform="translate(0,-73.541676)">
    <g
       id="g4579"
       transform="translate(0.01157962,-0.03874734)">
      <path
         sodipodi:nodetypes="ccccccccccccsccccccccccccc"
         inkscape:connector-curvature="0"
         id="path3696"
         d="M 13.209057,73.955612 C 6.0860305,73.955591 0.31167132,79.72995 0.31169266,86.852977 c 0.002885,0.06878 0.006329,0.137517 0.0103122,0.206233 0.0772834,-0.109651 0.15885511,-0.214219 0.24528176,-0.313063 C 0.69190398,86.601936 0.82477702,86.471104 0.96531944,86.35279 1.2334145,79.782726 6.6335319,74.592181 13.209057,74.584215 c 4.263089,1.5e-5 8.017801,2.174678 10.216726,5.474843 0.05526,-0.171357 0.215276,-0.376929 0.416275,-0.506695 C 21.516794,76.172158 17.62197,73.955599 13.209057,73.955612 Z M 26.0528,85.680051 c -0.01211,0.01266 -0.02417,0.02578 -0.03629,0.03809 -0.05537,0.05322 -0.111215,0.101864 -0.167737,0.145738 -0.05522,0.04092 -0.109512,0.07168 -0.162788,0.09226 -0.02983,0.01153 -0.07701,0.02232 -0.141614,0.03259 -0.02962,0.0044 -0.06206,0.0064 -0.09679,0.0063 0.01959,0.283496 0.03025,0.569466 0.03025,0.857936 -2.2e-5,6.775839 -5.49292,12.268739 -12.26876,12.268761 -3.9028395,-0.0057 -7.5701343,-1.867956 -9.8774024,-5.015764 -0.041923,0.01 -0.087946,0.01965 -0.1420269,0.02888 -0.071904,0.01225 -0.148225,0.02101 -0.2290579,0.02626 -0.080834,0.0053 -0.1631555,0.0052 -0.2469316,-5.63e-4 -0.050366,-0.0025 -0.098153,-0.0087 -0.1439518,-0.01801 2.4045118,3.509601 6.3850804,5.607678 10.6393706,5.607796 7.123026,2.1e-5 12.897385,-5.774339 12.897364,-12.897364 10e-7,-0.395472 -0.01879,-0.786526 -0.05362,-1.172926 z"
         style="fill:#000000;fill-opacity:0.99497483;stroke-width:0.10143962" />
      <g
         aria-label="Grid"
         transform="rotate(-15.032753)"
         style="font-style:normal;font-weight:normal;font-size:5.77569866px;line-height:3.60981131px;font-family:sans-serif;letter-spacing:0px;word-spacing:0px;fill:#000000;fill-opacity:0.99497483;stroke:none;stroke-width:0.14439246"
         id="text4510">
        <path
           d="m -19.221895,88.025262 q 0,0.327139 -0.03948,0.67966 -0.03666,0.352521 -0.121267,0.69094 -0.0846,0.33842 -0.225614,0.640178 -0.138188,0.301758 -0.34124,0.530191 -0.203052,0.228433 -0.476608,0.360981 -0.270735,0.135368 -0.620436,0.135368 -0.06486,0 -0.155109,-0.0085 -0.09025,-0.0085 -0.188951,-0.0282 -0.09871,-0.01974 -0.197412,-0.05358 -0.09588,-0.03102 -0.17203,-0.07896 -0.07614,-0.04794 -0.124087,-0.112806 -0.04794,-0.06204 -0.04794,-0.143829 0,-0.0423 0.01692,-0.112806 0.01974,-0.06768 0.0564,-0.132548 0.03948,-0.06486 0.09589,-0.112807 0.05922,-0.04794 0.141008,-0.04794 0.09307,0 0.180491,0.03102 0.08742,0.03102 0.18049,0.06768 0.09307,0.03948 0.194592,0.0705 0.101526,0.03102 0.219973,0.03102 0.132548,0 0.259455,-0.135368 0.129728,-0.135368 0.242534,-0.35252 0.115627,-0.217153 0.208692,-0.487889 0.09589,-0.267916 0.16075,-0.538652 -0.135368,0.124088 -0.287657,0.234074 -0.149469,0.112807 -0.34406,0.194591 -0.191771,0.0846 -0.439946,0.132548 -0.248175,0.05076 -0.575314,0.05076 -0.380722,0 -0.68812,-0.155109 -0.304578,-0.152289 -0.521731,-0.411744 -0.217152,-0.262275 -0.335599,-0.606336 -0.115627,-0.34688 -0.115627,-0.727602 0,-0.499169 0.118447,-0.953216 0.121267,-0.456867 0.332779,-0.84605 0.211513,-0.392003 0.49917,-0.707861 0.287656,-0.318679 0.620436,-0.541472 0.33278,-0.225613 0.696581,-0.34688 0.366621,-0.124088 0.733243,-0.124088 0.225613,0 0.417384,0.06768 0.194592,0.06768 0.3356,0.211513 0.143828,0.143828 0.222793,0.363801 0.08179,0.219973 0.08179,0.524551 0,0.118447 -0.0282,0.236894 -0.0282,0.115627 -0.09306,0.234073 -0.09025,0.132548 -0.174851,0.188952 -0.0846,0.05358 -0.160749,0.05358 -0.05922,0 -0.109986,-0.03102 -0.05076,-0.03102 -0.08743,-0.08179 -0.03666,-0.05076 -0.05922,-0.112807 -0.01974,-0.06486 -0.01974,-0.132547 0,-0.05358 0.01692,-0.104346 0.01692,-0.05076 0.03384,-0.101526 0.01974,-0.05076 0.03666,-0.104346 0.01692,-0.0564 0.01692,-0.115627 0,-0.282017 -0.124087,-0.423025 -0.124088,-0.141008 -0.310218,-0.141008 -0.228434,0 -0.482249,0.09588 -0.250994,0.09307 -0.493529,0.273556 -0.242534,0.177671 -0.462507,0.439946 -0.217153,0.259455 -0.383542,0.595055 -0.16639,0.3356 -0.265096,0.741703 -0.09589,0.403284 -0.09589,0.868611 0,0.290477 0.0705,0.50763 0.07332,0.214333 0.205872,0.358161 0.132548,0.143829 0.324319,0.214333 0.191771,0.0705 0.431485,0.0705 0.445586,0 0.820668,-0.118447 0.375082,-0.121267 0.705042,-0.33842 0.02256,-0.0846 0.03948,-0.160749 0.01692,-0.07897 0.01692,-0.143829 0,-0.0846 -0.02256,-0.132548 -0.02256,-0.05076 -0.06204,-0.07332 -0.03666,-0.02538 -0.09024,-0.03102 -0.05076,-0.0056 -0.109987,-0.0056 -0.107166,0 -0.188951,-0.0282 -0.07897,-0.0282 -0.135368,-0.07332 -0.0564,-0.04512 -0.0846,-0.104346 -0.0282,-0.05922 -0.0282,-0.118447 0,-0.05922 0.02538,-0.112807 0.0282,-0.0564 0.0846,-0.0987 0.0564,-0.0423 0.141008,-0.06768 0.08742,-0.0282 0.203052,-0.0282 0.273556,0 0.448406,0.0564 0.177671,0.0564 0.276377,0.16639 0.101526,0.109986 0.138188,0.270736 0.03948,0.157929 0.03948,0.360981 z"
           style="font-style:normal;font-variant:normal;font-weight:normal;font-stretch:normal;font-family:Pacifico;-inkscape-font-specification:Pacifico;fill:#000000;fill-opacity:0.99497483;stroke-width:0.14439246"
           id="path4581" />
        <path
           d="m -18.860914,88.397524 c 0,-0.08273 0.0047,-0.17861 0.0141,-0.287657 0.0094,-0.110927 0.02162,-0.227493 0.03666,-0.3497 0.01692,-0.122207 0.03572,-0.246295 0.0564,-0.372262 0.02256,-0.127848 0.04606,-0.249115 0.0705,-0.363802 0.02444,-0.114687 0.04888,-0.219973 0.07332,-0.315858 0.02444,-0.09589 0.04888,-0.174851 0.07332,-0.236894 0.01504,-0.04136 0.03008,-0.07426 0.04512,-0.09871 0.01504,-0.02444 0.03196,-0.04324 0.05076,-0.0564 0.02068,-0.01504 0.04512,-0.02444 0.07332,-0.0282 0.03008,-0.0057 0.06674,-0.0085 0.109986,-0.0085 0.04889,0 0.08649,0.0028 0.112807,0.0085 0.0282,0.0037 0.04888,0.01501 0.06204,0.03384 0.01316,0.01692 0.02068,0.0423 0.02256,0.07614 0.0037,0.03384 0.0056,0.0799 0.0056,0.138188 v 0.253815 c 0,0.09776 0.0019,0.194591 0.0056,0.290477 h 0.03102 c 0.0376,-0.0752 0.0799,-0.15887 0.126908,-0.250995 0.047,-0.094 0.101523,-0.18143 0.163569,-0.262275 0.06205,-0.08085 0.132551,-0.148529 0.211513,-0.203052 0.07897,-0.05641 0.17015,-0.08461 0.273556,-0.08461 0.03572,0 0.0705,0.0066 0.104346,0.01974 0.03384,0.01128 0.06298,0.0282 0.08742,0.05076 0.02632,0.02256 0.047,0.05076 0.06204,0.08461 0.01504,0.03196 0.02256,0.06862 0.02256,0.109986 0,0.03196 -0.0047,0.07708 -0.0141,0.135368 -0.0094,0.0564 -0.01974,0.116564 -0.03102,0.180491 -0.01128,0.06204 -0.02162,0.123144 -0.03102,0.183311 -0.0094,0.05828 -0.0141,0.107163 -0.0141,0.146648 0,0.06768 0.0066,0.124087 0.01974,0.16921 0.01316,0.04512 0.03008,0.08178 0.05076,0.109987 0.02256,0.02632 0.047,0.04512 0.07332,0.0564 0.0282,0.01128 0.05734,0.01692 0.08742,0.01692 0.0846,0 0.172031,-0.0188 0.262276,-0.0564 0.09024,-0.0376 0.17297,-0.0799 0.248174,-0.126908 0.40098,-0.208153 0.28473,0.430265 0.05076,0.580954 -0.06204,0.03948 -0.128784,0.07708 -0.200231,0.112807 -0.06957,0.03384 -0.142889,0.06298 -0.219973,0.08742 -0.07521,0.02256 -0.152289,0.03384 -0.231254,0.03384 -0.141008,0 -0.254755,-0.0282 -0.34124,-0.0846 -0.08648,-0.05828 -0.155109,-0.133484 -0.205872,-0.225613 -0.05076,-0.09401 -0.08836,-0.198352 -0.112807,-0.313039 -0.02444,-0.116567 -0.04418,-0.234073 -0.05922,-0.35252 l -0.04512,0 -0.504809,1.407262 c -0.02632,0.07333 -0.0517,0.134428 -0.07615,0.183311 -0.02256,0.047 -0.04606,0.08554 -0.0705,0.115627 -0.02444,0.03008 -0.05076,0.0517 -0.07897,0.06486 -0.0282,0.01128 -0.05922,0.01692 -0.09306,0.01692 -0.07709,0 -0.139128,-0.01598 -0.186131,-0.04794 -0.047,-0.03384 -0.08366,-0.07802 -0.109986,-0.132548 -0.02444,-0.0564 -0.04136,-0.119384 -0.05076,-0.188951 -0.0075,-0.07144 -0.01128,-0.144768 -0.01128,-0.219973 z"
           style="font-style:normal;font-variant:normal;font-weight:normal;font-stretch:normal;font-family:Pacifico;-inkscape-font-specification:Pacifico;fill:#000000;fill-opacity:0.99497483;stroke-width:0.14439246"
           id="path4583"
           inkscape:connector-curvature="0"
           sodipodi:nodetypes="ccccscccccscccsscccccscccscccscccssccccscccccccccsccccc" />
        <path
           d="m -14.963446,88.586475 c -0.09965,0.06956 -0.207752,0.134428 -0.324319,0.194591 -0.116567,0.05829 -0.235954,0.10717 -0.358161,0.146649 -0.120327,0.03948 -0.235013,0.05922 -0.34406,0.05922 -0.09777,0 -0.180491,-0.01316 -0.248175,-0.03948 -0.0658,-0.0282 -0.119383,-0.06674 -0.160749,-0.115627 -0.04136,-0.04888 -0.07144,-0.108103 -0.09024,-0.17767 -0.01692,-0.07144 -0.02538,-0.149469 -0.02538,-0.234074 0,-0.118447 0.01316,-0.255695 0.03948,-0.411744 0.0282,-0.157929 0.06204,-0.320559 0.101526,-0.487889 0.03948,-0.169209 0.08084,-0.337479 0.124087,-0.504809 0.04512,-0.16733 0.0846,-0.321499 0.118447,-0.462507 0.01316,-0.04888 0.03948,-0.09024 0.07896,-0.124088 0.03948,-0.03572 0.08366,-0.06392 0.132548,-0.0846 0.05077,-0.02256 0.10247,-0.03854 0.155109,-0.04794 0.05453,-0.01128 0.10341,-0.01692 0.146649,-0.01692 0.07897,0 0.132548,0.01504 0.160749,0.04512 0.0282,0.0282 0.0423,0.06674 0.0423,0.115627 0,0.04136 -0.0094,0.101524 -0.0282,0.180491 -0.0188,0.07708 -0.0423,0.16545 -0.0705,0.265095 -0.0282,0.09777 -0.05828,0.203992 -0.09025,0.318679 -0.03196,0.112807 -0.06204,0.226553 -0.09025,0.34124 -0.0282,0.112807 -0.0517,0.223733 -0.0705,0.332779 -0.0188,0.107167 -0.0282,0.203993 -0.0282,0.290478 0,0.08461 0.0094,0.152288 0.0282,0.203051 0.0188,0.04888 0.05734,0.07332 0.115627,0.07332 0.06768,0 0.142888,-0.0235 0.225613,-0.0705 0.08272,-0.047 0.16639,-0.103403 0.250995,-0.16921 0.346046,-0.240671 0.550271,0.118079 0.208694,0.380718 z m -1.006799,-3.099362 c 0,-0.04324 0.0094,-0.09212 0.0282,-0.146648 0.0188,-0.05452 0.04888,-0.105283 0.09024,-0.152289 0.04324,-0.04888 0.09964,-0.0893 0.16921,-0.121267 0.07144,-0.03384 0.159809,-0.05076 0.265096,-0.05076 0.0658,0 0.127844,0.0075 0.186131,0.02256 0.05828,0.01504 0.109043,0.03854 0.152288,0.0705 0.04324,0.03008 0.07708,0.0705 0.101526,0.121267 0.02632,0.05076 0.03948,0.110924 0.03948,0.180491 0,0.06393 -0.01034,0.12597 -0.03102,0.186131 -0.02068,0.06016 -0.05358,0.113743 -0.09871,0.160749 -0.04512,0.047 -0.102463,0.08554 -0.17203,0.115627 -0.06768,0.0282 -0.149469,0.0423 -0.245354,0.0423 -0.16545,0 -0.287657,-0.03854 -0.366622,-0.115626 -0.07897,-0.07896 -0.118447,-0.183311 -0.118447,-0.313039 z"
           style="font-style:normal;font-variant:normal;font-weight:normal;font-stretch:normal;font-family:Pacifico;-inkscape-font-specification:Pacifico;fill:#000000;fill-opacity:0.99497483;stroke-width:0.14439246"
           id="path4585"
           inkscape:connector-curvature="0"
           sodipodi:nodetypes="cccscccscccccccscscccccscscccccccscccscccsccc" />
        <path
           d="m -13.67181,86.854893 q -0.186131,0.09025 -0.332779,0.239715 -0.143829,0.146648 -0.242534,0.318678 -0.09589,0.17203 -0.146649,0.346881 -0.05076,0.17485 -0.05076,0.315858 0,0.0564 0.01128,0.112807 0.0141,0.0564 0.04794,0.101526 0.03384,0.04512 0.09588,0.07332 0.06204,0.0282 0.16075,0.0282 0.05076,0 0.09871,-0.02538 0.05076,-0.02538 0.09589,-0.06486 0.04512,-0.0423 0.0846,-0.09306 0.0423,-0.05358 0.07614,-0.109987 0.07897,-0.129727 0.143829,-0.293297 -0.0085,-0.03948 -0.0141,-0.124087 -0.0056,-0.08742 -0.0085,-0.191771 -0.0028,-0.107167 -0.0056,-0.219973 -0.0028,-0.112807 -0.0056,-0.205872 0,-0.09307 -0.0028,-0.152289 -0.0028,-0.05922 -0.0056,-0.0564 z m 1.940274,1.579293 q -0.200232,0.155109 -0.394823,0.276376 -0.08179,0.05076 -0.17203,0.101526 -0.09024,0.04794 -0.17767,0.08742 -0.08743,0.03666 -0.172031,0.06204 -0.08178,0.02256 -0.152288,0.02256 -0.03948,0 -0.118447,-0.01692 -0.07615,-0.01692 -0.16921,-0.06768 -0.09025,-0.05358 -0.183311,-0.152289 -0.09025,-0.09871 -0.157929,-0.262275 -0.104346,0.101526 -0.222793,0.194591 -0.115627,0.09025 -0.242535,0.15793 -0.124087,0.06768 -0.253815,0.109986 -0.126907,0.03948 -0.256635,0.03948 -0.18331,0 -0.318678,-0.07896 -0.132548,-0.07896 -0.222793,-0.208692 -0.08742,-0.132548 -0.132548,-0.298938 -0.0423,-0.16639 -0.0423,-0.34406 0,-0.180491 0.04512,-0.363801 0.04794,-0.186131 0.135368,-0.358161 0.09025,-0.174851 0.217153,-0.32714 0.126907,-0.155109 0.287657,-0.273556 0.160749,-0.121267 0.3497,-0.200231 0.188951,-0.07896 0.403284,-0.09871 0.0085,-0.360981 0.06486,-0.713502 0.0564,-0.352521 0.149468,-0.671199 0.09307,-0.318679 0.217153,-0.589415 0.126907,-0.270736 0.276376,-0.468147 0.149469,-0.197412 0.318679,-0.307398 0.16921,-0.112807 0.3497,-0.112807 0.132548,0 0.225614,0.0705 0.09307,0.06768 0.149468,0.183311 0.05922,0.112806 0.0846,0.265095 0.02538,0.149469 0.02538,0.310219 0,0.09871 -0.0085,0.203052 -0.03666,0.397643 -0.135368,0.752984 -0.09871,0.35252 -0.231253,0.68812 -0.132548,0.3356 -0.287657,0.665559 -0.155109,0.329959 -0.301758,0.6853 -0.0141,0.03948 -0.0282,0.09589 -0.0141,0.0564 -0.0282,0.124087 -0.01128,0.06486 -0.01974,0.135368 -0.0085,0.06768 -0.0085,0.132548 0,0.08178 0.0085,0.155109 0.01128,0.07332 0.03384,0.132548 0.02256,0.0564 0.05922,0.09025 0.03948,0.03384 0.09589,0.03384 0.05358,0 0.115627,-0.01974 0.06486,-0.02256 0.135368,-0.05922 0.0705,-0.03666 0.141008,-0.08178 0.07332,-0.04794 0.141008,-0.09589 0.155109,-0.112807 0.324319,-0.256635 z m -0.614796,-3.623912 q 0.01692,-0.197412 0.01692,-0.313039 0,-0.152289 -0.0282,-0.211512 -0.02538,-0.05922 -0.07614,-0.05922 -0.09024,0 -0.16357,0.115627 -0.07332,0.112807 -0.129727,0.290477 -0.0564,0.177671 -0.09871,0.392003 -0.0423,0.214333 -0.0705,0.414564 -0.0282,0.200232 -0.04512,0.360982 -0.01692,0.160749 -0.02256,0.228433 -0.01128,0.138188 -0.01974,0.267916 -0.0056,0.126907 -0.0085,0.234073 -0.0028,0.104347 -0.0028,0.183311 0,0.07896 0,0.121267 v 0.0282 q 0.16075,-0.366622 0.296117,-0.730423 0.0564,-0.155109 0.112807,-0.324319 0.05922,-0.17203 0.107166,-0.34406 0.04794,-0.17203 0.08179,-0.33842 0.03666,-0.16639 0.05076,-0.315858 z"
           style="font-style:normal;font-variant:normal;font-weight:normal;font-stretch:normal;font-family:Pacifico;-inkscape-font-specification:Pacifico;fill:#000000;fill-opacity:0.99497483;stroke-width:0.14439246"
           id="path4587" />
      </g>
      <g
         aria-label="Sound"
         transform="rotate(-15.144804)"
         style="font-style:normal;font-variant:normal;font-weight:normal;font-stretch:normal;font-size:5.74937296px;line-height:3.59335828px;font-family:Pacifico;-inkscape-font-specification:Pacifico;letter-spacing:0px;word-spacing:0px;fill:#000000;fill-opacity:0.99497483;stroke:none;stroke-width:0.14373432"
         id="text4514">
        <path
           d="m -10.718251,85.267965 q 0,0.185282 0.106678,0.331262 0.109485,0.14598 0.286346,0.272309 0.179668,0.123522 0.4042527,0.235815 0.2273922,0.112292 0.4632064,0.233006 0.2386214,0.117907 0.4632063,0.255466 0.2273922,0.134751 0.4042528,0.305997 0.1796679,0.171246 0.2863457,0.387408 0.1094851,0.216163 0.1094851,0.494087 0,0.252658 -0.081412,0.466014 -0.081412,0.210548 -0.2245849,0.378987 -0.1403655,0.168439 -0.33407,0.297575 -0.1937045,0.129136 -0.4182893,0.213355 -0.2245849,0.08422 -0.4716283,0.126329 -0.2470434,0.04492 -0.4968945,0.04492 -0.350913,0 -0.682176,-0.08703 -0.331263,-0.08422 -0.589535,-0.258273 -0.258273,-0.171246 -0.415482,-0.429518 -0.154403,-0.26108 -0.154403,-0.609187 0,-0.179668 0.05615,-0.314419 0.05895,-0.137558 0.143173,-0.227392 0.08703,-0.09264 0.188089,-0.137558 0.101064,-0.04772 0.18809,-0.04772 0.08983,0 0.148788,0.05053 0.06176,0.04772 0.06176,0.151595 0,0.04772 -0.01123,0.101063 -0.01123,0.05334 -0.02527,0.117907 -0.01123,0.06176 -0.02246,0.137558 -0.01123,0.0758 -0.01123,0.165632 0,0.196512 0.08983,0.339684 0.08983,0.143173 0.238621,0.235815 0.148788,0.09264 0.342492,0.137558 0.193705,0.04492 0.401446,0.04492 0.244236,0 0.4884717,-0.05895 0.244236,-0.05895 0.4379405,-0.174053 0.1937044,-0.1151 0.3144188,-0.280731 0.1207144,-0.168439 0.1207144,-0.384602 0,-0.199319 -0.1094851,-0.356528 -0.1066779,-0.15721 -0.2863458,-0.289153 -0.1768605,-0.134751 -0.4042527,-0.252658 -0.2273922,-0.117907 -0.4632068,-0.238622 -0.235814,-0.120714 -0.463206,-0.252658 -0.227392,-0.134751 -0.40706,-0.294767 -0.176861,-0.160017 -0.286346,-0.356529 -0.106678,-0.199319 -0.106678,-0.451977 0,-0.235814 0.112293,-0.463206 0.1151,-0.2302 0.342492,-0.409868 0.230199,-0.182475 0.572691,-0.294767 0.342492,-0.112293 0.8028913,-0.112293 0.2919603,0 0.5698841,0.08703 0.2807311,0.08703 0.4997014,0.247043 0.2189702,0.160017 0.3509138,0.381795 0.134751,0.221777 0.134751,0.491279 0,0.160017 -0.056146,0.328455 -0.053339,0.168439 -0.1740532,0.350914 -0.1179071,0.176861 -0.2582726,0.263887 -0.1375583,0.08422 -0.2498507,0.08422 -0.084219,0 -0.1375583,-0.04772 -0.053339,-0.05053 -0.053339,-0.148788 0,-0.07299 0.033688,-0.171246 0.033688,-0.101063 0.1150997,-0.230199 0.075797,-0.123522 0.1122924,-0.2302 0.036495,-0.109485 0.036495,-0.202126 0,-0.143173 -0.078605,-0.249851 -0.075797,-0.109485 -0.2133557,-0.182475 -0.1347509,-0.07299 -0.325648,-0.109485 -0.1908972,-0.0365 -0.4182894,-0.0365 -0.252658,0 -0.4407478,0.05895 -0.185283,0.05615 -0.311612,0.148788 -0.123521,0.08983 -0.185282,0.202126 -0.05895,0.112292 -0.05895,0.221778 z"
           style="font-style:normal;font-variant:normal;font-weight:normal;font-stretch:normal;font-family:Pacifico;-inkscape-font-specification:Pacifico;fill:#000000;fill-opacity:0.99497483;stroke-width:0.14373432"
           id="path4590" />
        <path
           d="m -5.9317853,86.848481 c 0.054275,0.108549 0.094513,0.223649 0.1207144,0.345299 0.028073,0.119779 0.04211,0.234878 0.04211,0.345299 0,0.110421 -0.012165,0.221778 -0.036495,0.33407 -0.02433,0.112293 -0.059889,0.220842 -0.1066778,0.325648 -0.044917,0.104807 -0.1010629,0.203063 -0.1684387,0.294768 -0.065504,0.0917 -0.1413014,0.171246 -0.2273922,0.238621 -0.084219,0.06738 -0.1768606,0.120715 -0.2779238,0.160017 -0.1010632,0.0393 -0.2086768,0.05895 -0.3228407,0.05895 -0.1646956,0 -0.3059969,-0.03556 -0.423904,-0.106678 -0.1160355,-0.07299 -0.2114841,-0.167503 -0.2863457,-0.283539 -0.074862,-0.116035 -0.1300721,-0.247043 -0.1656314,-0.393023 -0.033688,-0.14598 -0.050532,-0.293832 -0.050532,-0.443555 0,-0.20587 0.03088,-0.397703 0.092641,-0.575499 0.061761,-0.179668 0.1497231,-0.335006 0.2638872,-0.466014 0.1160355,-0.132879 0.2573369,-0.23675 0.423904,-0.311611 0.1665671,-0.07673 0.3537212,-0.1151 0.5614622,-0.1151 0.1777963,0 0.3443634,0.02807 0.4997013,0.08422 0.1553379,0.05427 0.3003824,0.128199 0.4351333,0.221778 0.1366225,0.0917 0.2629514,0.197447 0.3789869,0.317226 0.3452834,0.357059 0.2749533,0.744868 0.070183,0.547426 -0.086091,-0.0786 -0.1777964,-0.155338 -0.2751165,-0.2302 -0.095448,-0.07486 -0.1899613,-0.145044 -0.2835384,-0.210548 -0.093577,-0.06737 -0.1740532,-0.123522 -0.2414287,-0.168439 z m -0.8674591,1.563672 c 0.063633,0 0.1253935,-0.03182 0.1852825,-0.09545 0.059889,-0.06551 0.1122925,-0.146919 0.1572094,-0.244236 0.044917,-0.09919 0.080477,-0.207741 0.1066778,-0.325648 0.028073,-0.119779 0.04211,-0.233943 0.04211,-0.342492 0,-0.08609 -0.00655,-0.165631 -0.019651,-0.238621 -0.013101,-0.07486 -0.032752,-0.13943 -0.058954,-0.193705 -0.026201,-0.05427 -0.059889,-0.09732 -0.1010632,-0.129136 -0.041174,-0.03181 -0.09077,-0.04772 -0.1487875,-0.04772 -0.076733,0 -0.1497232,0.03275 -0.2189702,0.09826 -0.069247,0.06551 -0.1300721,0.149726 -0.1824753,0.252658 -0.052403,0.101063 -0.093577,0.213355 -0.1235216,0.336877 -0.029945,0.123521 -0.044917,0.242364 -0.044917,0.356528 0,0.07861 0.00749,0.152531 0.022458,0.221778 0.014972,0.06925 0.038366,0.130072 0.070183,0.182475 0.031816,0.05053 0.073926,0.09171 0.1263289,0.123522 0.052403,0.02995 0.1151,0.04492 0.1880899,0.04492 z"
           style="font-style:normal;font-variant:normal;font-weight:normal;font-stretch:normal;font-family:Pacifico;-inkscape-font-specification:Pacifico;fill:#000000;fill-opacity:0.99497483;stroke-width:0.14373432"
           id="path4592"
           inkscape:connector-curvature="0"
           sodipodi:nodetypes="ccscccccscccscccsccccccccccccscscssccsccccc" />
        <path
           d="m -3.1076305,86.438613 c 0,0.05053 -0.00561,0.11978 -0.016844,0.207741 -0.011229,0.08609 -0.026202,0.18154 -0.044917,0.286346 -0.016844,0.102935 -0.035559,0.209612 -0.056146,0.320033 -0.020587,0.110421 -0.040238,0.213356 -0.058954,0.308805 -0.016844,0.09545 -0.030881,0.179668 -0.04211,0.252658 -0.011229,0.07112 -0.016844,0.120714 -0.016844,0.148787 0,0.05241 9.367e-4,0.101067 0.00281,0.14598 0.00187,0.04305 0.00749,0.08141 0.016844,0.1151 0.00936,0.03181 0.023395,0.05708 0.04211,0.0758 0.020587,0.01685 0.049596,0.02527 0.087027,0.02527 0.041174,0 0.09077,-0.01029 0.1487875,-0.03088 0.059889,-0.02059 0.1225859,-0.04772 0.1880898,-0.08141 0.067376,-0.03556 0.1356867,-0.07486 0.2049337,-0.117907 0.069247,-0.04492 0.1347509,-0.09171 0.1965118,-0.140366 0.4521286,-0.290884 0.2139464,0.398914 -0.053334,0.611996 -0.07299,0.04679 -0.1515949,0.0917 -0.2358142,0.134751 -0.082348,0.04305 -0.1656313,0.08141 -0.2498506,0.1151 -0.084219,0.03181 -0.1675029,0.05801 -0.2498507,0.0786 -0.082348,0.01871 -0.159081,0.02807 -0.2301995,0.02807 -0.071119,0 -0.1319436,-0.01404 -0.1824752,-0.04211 -0.050531,-0.02807 -0.094513,-0.06738 -0.1319437,-0.117907 -0.035559,-0.05053 -0.06644,-0.110423 -0.092641,-0.179668 -0.02433,-0.07112 -0.045853,-0.149723 -0.064568,-0.235814 -0.067375,0.08796 -0.138494,0.169374 -0.2133556,0.244236 -0.074862,0.07299 -0.1515948,0.136622 -0.2301995,0.190897 -0.076733,0.05427 -0.1553379,0.09732 -0.2358141,0.129136 -0.078605,0.02995 -0.1553379,0.04492 -0.2301995,0.04492 -0.061761,0 -0.1197784,-0.01029 -0.1740533,-0.03088 -0.054275,-0.02059 -0.1029347,-0.05521 -0.1459802,-0.103871 -0.041174,-0.04866 -0.073926,-0.112292 -0.098256,-0.190897 -0.02433,-0.08048 -0.036495,-0.179668 -0.036495,-0.297575 0,-0.144109 0.016844,-0.32752 0.050532,-0.550233 0.035559,-0.222713 0.078605,-0.477243 0.1291363,-0.763588 0.00374,-0.02807 0.01029,-0.0655 0.019651,-0.112293 0.011229,-0.04866 0.025266,-0.101063 0.04211,-0.157209 0.018715,-0.05615 0.041174,-0.113229 0.067375,-0.171246 0.026201,-0.05802 0.057082,-0.110423 0.092641,-0.15721 0.035559,-0.04679 0.076733,-0.08515 0.1235216,-0.115099 0.04866,-0.02995 0.1029347,-0.04585 0.1628241,-0.04772 0.099192,0.0037 0.1703102,0.01683 0.2133556,0.0393 0.043045,0.02059 0.064568,0.04679 0.064568,0.0786 -0.016844,0.09919 -0.035559,0.209613 -0.056146,0.331263 -0.018715,0.12165 -0.038367,0.244236 -0.058954,0.367758 -0.020587,0.123521 -0.040238,0.244236 -0.058954,0.362143 -0.018715,0.116035 -0.035559,0.219906 -0.050532,0.311612 -0.014973,0.09171 -0.027138,0.165631 -0.036495,0.221777 -0.00749,0.05615 -0.011229,0.08516 -0.011229,0.08703 0,0.03369 0.00281,0.06644 0.00842,0.09826 0.00749,0.02995 0.01778,0.05708 0.030881,0.08141 0.013101,0.02433 0.029944,0.04398 0.050531,0.05895 0.020587,0.01497 0.044917,0.02246 0.07299,0.02246 0.041174,0 0.083284,-0.01029 0.126329,-0.03088 0.043045,-0.02246 0.083283,-0.05334 0.1207144,-0.09264 0.039302,-0.04117 0.073925,-0.09077 0.1038705,-0.148788 0.029945,-0.05989 0.052403,-0.127262 0.067376,-0.202126 l 0.2779238,-1.426114 c 0.00936,-0.04491 0.046789,-0.08234 0.1122924,-0.112292 0.067375,-0.03181 0.1431729,-0.04772 0.2273922,-0.04772 0.095449,0 0.171246,0.01684 0.2273922,0.05053 0.056146,0.03369 0.084219,0.07673 0.084219,0.129136 z"
           style="font-style:normal;font-variant:normal;font-weight:normal;font-stretch:normal;font-family:Pacifico;-inkscape-font-specification:Pacifico;fill:#000000;fill-opacity:0.99497483;stroke-width:0.14373432"
           id="path4594"
           inkscape:connector-curvature="0"
           sodipodi:nodetypes="ccccccscccsccccccccscccccccscccscccccscccccccccscccsccccccsccc" />
        <path
           d="m -2.5012513,88.364429 c 0,-0.123522 0.00749,-0.265759 0.022458,-0.426712 0.014972,-0.162824 0.033687,-0.327519 0.056146,-0.494086 0.022459,-0.168439 0.047724,-0.330327 0.075797,-0.485665 0.028073,-0.155338 0.055211,-0.288217 0.081412,-0.398638 0.020587,-0.08609 0.059889,-0.158146 0.1179071,-0.216163 0.059889,-0.05802 0.1403656,-0.08703 0.2414287,-0.08703 0.1010632,0 0.171246,0.03088 0.2105484,0.09264 0.039303,0.06176 0.058954,0.144108 0.058954,0.247044 0,0.02807 -0.00281,0.06644 -0.00842,0.115099 -0.00561,0.04679 -0.013099,0.09919 -0.022458,0.15721 -0.00749,0.05615 -0.015908,0.1151 -0.025266,0.17686 -0.00936,0.05989 -0.018716,0.116033 -0.028073,0.168439 -0.00749,0.05053 -0.014036,0.09545 -0.019651,0.134751 -0.00561,0.03743 -0.00842,0.0627 -0.00842,0.0758 h 0.056146 c 0.011229,-0.02059 0.029009,-0.05334 0.053339,-0.09826 0.02433,-0.04679 0.052403,-0.100126 0.084219,-0.160017 0.031816,-0.05989 0.065504,-0.122583 0.1010632,-0.18809 0.037431,-0.06737 0.072054,-0.131008 0.1038705,-0.190897 0.031816,-0.06176 0.060825,-0.116035 0.087027,-0.162824 0.026201,-0.04679 0.045853,-0.08141 0.058954,-0.103871 0.059889,-0.101063 0.1282006,-0.17031 0.20493368,-0.207741 0.0767332,-0.03743 0.16188827,-0.05615 0.25546531,-0.05615 0.093577,0 0.16750289,0.0393 0.22177757,0.117907 0.0561462,0.0786 0.0842193,0.187154 0.0842193,0.325648 0,0.02059 -0.004679,0.05521 -0.0140366,0.103871 -0.007486,0.04866 -0.0177796,0.106678 -0.0308804,0.174053 -0.0131008,0.06737 -0.0280731,0.141301 -0.044917,0.221778 -0.0149723,0.08048 -0.0290089,0.162824 -0.0421097,0.247043 -0.0131008,0.08422 -0.02433,0.167503 -0.0336877,0.249851 -0.007486,0.08235 -0.0112292,0.158145 -0.0112292,0.227392 0,0.116035 0.0140366,0.211484 0.0421097,0.286346 0.0299447,0.07486 0.0757974,0.112292 0.13755824,0.112292 0.0280731,0 0.0598893,-0.0084 0.0954486,-0.02527 0.0374308,-0.01685 0.0767332,-0.03837 0.11790706,-0.06457 0.0430455,-0.02807 0.0860909,-0.05989 0.12913631,-0.09545 0.39937393,-0.193203 0.44066622,0.243441 0.11509976,0.502509 -0.07860471,0.05802 -0.1609525,0.110423 -0.24704337,0.15721 -0.0860909,0.04491 -0.17592482,0.08234 -0.26950185,0.112292 -0.093577,0.02807 -0.19183292,0.04211 -0.29476766,0.04211 -0.10293474,0 -0.18996138,-0.07393 -0.26107995,-0.221778 -0.069247,-0.149723 -0.1038705,-0.367758 -0.1038705,-0.654103 0,-0.112293 0.00749,-0.233007 0.022458,-0.362144 0.014973,-0.131007 0.033688,-0.271373 0.056146,-0.421096 h -0.044917 l -0.7355155,1.459802 c -0.037431,0.07673 -0.07954,0.129136 -0.126329,0.157209 -0.046789,0.02807 -0.1010633,0.04211 -0.162824,0.04211 -0.076733,0 -0.138494,-0.01591 -0.1852825,-0.04772 -0.046789,-0.03369 -0.083284,-0.07767 -0.1094852,-0.131943 -0.02433,-0.05615 -0.041174,-0.118843 -0.050532,-0.18809 -0.00749,-0.07112 -0.011229,-0.144109 -0.011229,-0.21897 z"
           style="font-style:normal;font-variant:normal;font-weight:normal;font-stretch:normal;font-family:Pacifico;-inkscape-font-specification:Pacifico;fill:#000000;fill-opacity:0.99497483;stroke-width:0.14373432"
           id="path4596"
           inkscape:connector-curvature="0"
           sodipodi:nodetypes="ccccccscsccccccccccccccscscscscscsccccccscsccccssccccc" />
        <path
           d="m 1.3391501,86.828829 q -0.1852825,0.08983 -0.3312627,0.238622 -0.14317287,0.14598 -0.24142876,0.317226 -0.0954486,0.171246 -0.14598017,0.345299 -0.0505316,0.174054 -0.0505316,0.314419 0,0.05615 0.0112292,0.112293 0.0140366,0.05615 0.0477243,0.101063 0.0336877,0.04492 0.0954486,0.07299 0.0617608,0.02807 0.16001673,0.02807 0.0505316,0 0.0982559,-0.02527 0.0505316,-0.02527 0.0954486,-0.06457 0.044917,-0.04211 0.084219,-0.09264 0.04211,-0.05334 0.075797,-0.109485 0.078605,-0.129137 0.1431729,-0.291961 -0.00842,-0.0393 -0.014037,-0.123521 -0.00561,-0.08703 -0.00842,-0.190898 -0.00281,-0.106677 -0.00561,-0.21897 -0.00281,-0.112292 -0.00561,-0.204933 0,-0.09264 -0.00281,-0.151595 -0.00281,-0.05895 -0.00561,-0.05615 z m 1.93143,1.572095 q -0.1993191,0.154402 -0.3930236,0.275116 -0.081412,0.05053 -0.1712459,0.101063 -0.089834,0.04772 -0.1768606,0.08703 -0.087027,0.0365 -0.171246,0.06176 -0.081412,0.02246 -0.1515948,0.02246 -0.039302,0 -0.1179071,-0.01684 -0.075797,-0.01684 -0.1684386,-0.06737 -0.089834,-0.05334 -0.1824752,-0.151595 -0.089834,-0.09826 -0.1572095,-0.26108 -0.1038705,0.101063 -0.2217775,0.193705 -0.1150998,0.08983 -0.2414288,0.157209 -0.12352166,0.06738 -0.25265797,0.109485 -0.126329,0.0393 -0.2554653,0.0393 -0.18247522,0 -0.31722615,-0.0786 -0.13194361,-0.0786 -0.22177757,-0.207741 -0.08702664,-0.131944 -0.13194361,-0.297575 -0.04210967,-0.165631 -0.04210967,-0.342492 0,-0.179668 0.04491698,-0.362143 0.04772428,-0.185283 0.13475092,-0.356529 0.08983396,-0.174053 0.21616295,-0.325648 0.126329,-0.154402 0.28634573,-0.272309 0.16001672,-0.120714 0.34810656,-0.199319 0.18808983,-0.07861 0.40144543,-0.09826 0.00842,-0.359336 0.064568,-0.71025 0.056146,-0.350913 0.1487875,-0.66814 0.092641,-0.317226 0.2161629,-0.586728 0.126329,-0.269501 0.2751165,-0.466013 0.1487875,-0.196512 0.3172262,-0.305997 0.1684386,-0.112293 0.3481065,-0.112293 0.1319436,0 0.2245849,0.07018 0.092641,0.06738 0.1487875,0.182475 0.058954,0.112293 0.084219,0.263888 0.025266,0.148787 0.025266,0.308804 0,0.09826 -0.00842,0.202126 -0.036495,0.395831 -0.1347509,0.749552 -0.098256,0.350914 -0.2301995,0.684984 -0.1319437,0.33407 -0.2863458,0.662526 -0.1544021,0.328455 -0.3003822,0.682176 -0.014037,0.0393 -0.028073,0.09545 -0.014037,0.05615 -0.028073,0.123521 -0.011229,0.06457 -0.019651,0.134751 -0.00842,0.06738 -0.00842,0.131944 0,0.08141 0.00842,0.154402 0.011229,0.07299 0.033688,0.131944 0.022458,0.05615 0.058953,0.08983 0.039302,0.03369 0.095449,0.03369 0.053339,0 0.1150997,-0.01965 0.064568,-0.02246 0.134751,-0.05895 0.070183,-0.03649 0.1403655,-0.08141 0.07299,-0.04772 0.1403656,-0.09545 0.1544021,-0.112292 0.3228407,-0.255465 z M 2.6585863,84.793529 q 0.016844,-0.196512 0.016844,-0.311612 0,-0.151594 -0.028073,-0.210548 -0.025266,-0.05895 -0.075797,-0.05895 -0.089834,0 -0.162824,0.115099 -0.07299,0.112293 -0.1291363,0.289153 -0.056146,0.176861 -0.098256,0.390217 -0.04211,0.213355 -0.070183,0.412674 -0.028073,0.199319 -0.044917,0.359336 -0.016844,0.160017 -0.022458,0.227392 -0.011229,0.137559 -0.019651,0.266695 -0.00561,0.126329 -0.00842,0.233007 -0.00281,0.10387 -0.00281,0.182475 0,0.07861 0,0.120714 v 0.02807 q 0.1600168,-0.36495 0.2947677,-0.727093 0.056146,-0.154402 0.1122924,-0.322841 0.058954,-0.171246 0.1066779,-0.342492 0.047724,-0.171246 0.081412,-0.336877 0.036495,-0.165632 0.050532,-0.314419 z"
           style="font-style:normal;font-variant:normal;font-weight:normal;font-stretch:normal;font-family:Pacifico;-inkscape-font-specification:Pacifico;fill:#000000;fill-opacity:0.99497483;stroke-width:0.14373432"
           id="path4598" />
      </g>
      <path
         sodipodi:nodetypes="ccccccccccccccccccccccccccccccccccccccccccccccccccccccccccccccccccccccccccccccccccccccccccccccccccccccccccccccccccccccccccccccccccccccccccccccccccccccccccccccccccccccccccccccccccccccccccccccccccccccccccccccccccccccccccccccccccccccccccccccccccccccccccccccccccccccccccccccccccccccccccccccccccccccccccccccccccccccccccccccccccccccccccccccccccccccccccccccccccccccccccccccccccccccccccccccccccccccccccccccccccccccccccccccccccccccccccccccccccccccccccccccccccccccccccccccccccccccccccccccccccccccccccccccccccccccccccccccccccccccccccccccccccccccccccccccccccccccccccccccccccccccccccccccccccccccccccccccccccccccccccccccccccccccccccccccccccccccccccccccccccccccccccccccccccccccccccccccccccccccccccccccccccccccccccccccccccccccccccccccccccccccccccccccccccccccccccccccccccccccccccccccccccccccccccccccccccccccccccccccccccccccccccccccccccccccccccccccccccccccccccccccccccccccccccccccccccccccccccccccccccccccccccccccccccccccccccccccccccccccccccccccccccccccccccccccccccccccccccccccccccccccccccccccccccccccc"
         inkscape:connector-curvature="0"
         id="polygon3680"
         d="m 21.916696,87.002428 0.74107,3.026561 -0.01,0.128141 -0.291065,-0.956654 0.193861,0.914583 -0.189599,-0.565221 0.02529,0.264117 -0.100914,-0.223007 -0.0539,-0.04194 0.02653,0.269069 -0.422368,-1.463716 0.309352,1.360461 -0.385934,-1.322927 0.04964,0.357611 -0.202385,-0.614441 0.07342,0.449728 0.185061,0.880485 -0.194823,-0.585294 0.465814,1.964179 -0.03932,0.01485 -0.01581,0.105456 -0.129377,-0.332863 -0.04894,-0.02255 -0.200048,-0.605643 0.05898,0.39377 -0.380295,-1.30079 0.116728,0.616641 0.230569,1.056059 -0.131714,-0.341937 -0.29739,-0.981264 -0.246107,-0.783004 -0.0374,0.02158 0.727457,2.974042 -0.228232,-0.714398 -0.02199,0.08153 -0.01035,0.127041 -0.0748,-0.122228 -0.09446,-0.198123 0.0082,0.197847 -0.0049,0.147526 -0.07974,-0.141476 -0.03657,0.02529 -0.04825,-0.01966 -0.02228,0.08029 -0.157151,-0.439829 0.06201,0.405733 -0.08401,-0.1577 -0.01114,0.123053 -0.08635,-0.166638 -0.04771,-0.01747 0.05609,0.382772 -0.22232,-0.691574 -0.188637,-0.561644 -0.115354,-0.278693 0.05266,0.369435 -0.05115,-0.03066 -0.02461,0.0715 0.06022,0.398857 -0.167462,-0.479976 -0.186024,-0.551472 -0.205822,-0.627778 -0.03796,0.01966 -0.08813,-0.173374 8.23e-4,0.169387 0.06434,0.414669 -0.09555,-0.202522 0.01801,0.23607 0.502663,2.106618 -0.07672,-0.12979 -0.02117,0.08456 -0.03946,0.01415 -0.08373,-0.156876 -0.255457,-0.819163 -0.06092,-0.06861 -0.218745,-0.677961 0.04936,0.356785 0.009,0.201835 0.235381,1.074619 -0.347985,-1.176774 -0.05129,-0.03107 -0.307151,-1.019487 0.683049,2.803005 0.0158,0.22727 -0.189873,-0.566458 -0.06504,-0.0847 -0.0418,0.0054 -0.07328,-0.116317 0.0056,0.188086 -0.06599,-0.08813 -0.05046,-0.02847 -0.05005,-0.02653 -0.02653,0.0638 -0.110542,-0.26027 -0.03492,0.03162 0.0013,0.171174 -0.09226,-0.189598 -0.01608,0.10477 -0.04565,-0.01 -0.109579,-0.256693 -0.03204,0.04289 0.09597,0.536898 -0.03589,0.02806 -0.0078,0.135839 -0.06077,-0.06764 -0.07397,-0.119478 -0.0082,0.134878 -0.02228,0.08029 -0.09789,-0.211323 -0.02997,0.0506 -0.03616,0.02709 -0.03231,0.04153 -0.138727,-0.368748 -0.01512,0.107792 1.41e-4,0.166913 -0.122641,-0.306602 -0.208847,-0.639328 -0.0242,0.07274 0.187812,0.891484 -0.06092,-0.06889 -0.05761,-0.05582 -0.243081,-0.771594 0.179836,0.860137 -0.169387,-0.487401 -0.324201,-1.084657 -0.09638,-0.205547 0.301241,1.329388 -0.555321,-1.976965 0.06696,0.424568 0.0087,0.20046 0.264668,1.188187 -0.490839,-1.727834 -0.115216,-0.278554 -0.04854,-0.0209 0.585844,2.427795 -0.01,0.127866 -0.31059,-1.032137 0.201835,0.945242 -0.182586,-0.537997 0.02323,0.256281 -0.108341,-0.251881 -0.03671,0.02461 0.01347,0.21847 -0.359809,-1.222008 0.326676,1.426731 -0.350187,-1.185025 0.03823,0.314303 -0.152338,-0.421819 -0.02351,0.07575 0.04964,0.358299 -0.272091,-0.883785 0.59918,2.478666 -0.01402,0.112466 -0.0796,-0.140927 -0.03327,0.03823 -0.05211,-0.03492 -0.01526,0.107516 -0.0433,-2.8e-4 -0.06916,-0.100776 -0.126902,-0.323103 0.0062,0.190012 -0.01155,0.121815 -0.104495,-0.236894 0.0017,0.172962 -0.0062,0.142715 -0.12333,-0.309765 -0.209808,-0.64304 0.215171,0.996525 0.04153,0.32654 -0.06174,-0.0715 -0.114804,-0.276767 -0.01114,0.123603 0.03176,0.289004 -0.08977,-0.180113 -0.06366,-0.07946 -0.05953,-0.06352 0.03712,0.309902 -0.141339,-0.379059 -0.02364,0.07548 -0.06242,-0.07494 0.04757,0.350462 -0.09364,-0.195237 -0.290515,-0.954728 -0.141202,-0.37851 0.233458,1.06761 -0.20431,-0.622418 -0.13419,-0.351424 0.09142,0.519299 -0.05129,-0.03121 -0.08703,-0.169388 0.04359,0.334376 -0.161,-0.454817 -0.0356,0.02915 -0.203074,-0.617328 -0.108479,-0.252432 -0.107791,-0.249545 0.09858,0.547072 0.0209,0.246657 -0.267694,-0.866455 0.06298,0.409719 0.36036,1.557072 -0.0086,0.132678 -0.311689,-1.036123 0.189049,0.895745 -0.170763,-0.492488 0.02682,0.269892 -0.106143,-0.242945 -0.05143,-0.03218 0.0176,0.234008 -0.315127,-1.049459 0.29299,1.297216 -0.376447,-1.286492 0.07122,0.441068 -0.147938,-0.404633 -0.04468,-0.0055 0.171175,0.826588 -0.230022,-0.721271 0.447255,1.892684 -0.0418,0.0054 -0.07287,-0.114805 0.0044,0.183 -0.06462,-0.08291 -0.05114,-0.03066 -0.03341,0.0374 -0.04303,4.21e-4 -0.11068,-0.260817 -0.0018,0.159625 -0.0319,0.0433 -0.04743,-0.01663 -0.06269,-0.07548 -0.04303,-1.41e-4 -0.02847,0.05664 -0.113704,-0.271956 0.095,0.532637 -0.02255,0.0796 -0.02117,0.0847 -0.06407,-0.08085 -0.07424,-0.119891 -0.0041,0.150139 -0.02269,0.07892 -0.09308,-0.192486 -0.03177,0.04386 -0.05403,-0.04235 -0.0176,0.09885 -0.139689,-0.373147 -0.01,0.128278 -0.0048,0.147939 -0.113977,-0.273468 -0.218884,-0.678236 -0.01623,0.103671 0.187124,0.88901 -0.0638,-0.08029 -0.05788,-0.05664 -0.186574,-0.553534 0.129652,0.666688 -0.177086,-0.516824 -0.360774,-1.226271 -0.04138,0.0069 0.281167,1.251019 -0.551884,-1.963215 0.06833,0.430205 -0.05376,-0.04111 0.328737,1.43498 -0.495514,-1.745982 -0.249268,-0.795378 0.08676,0.501425 0.578969,2.400846 -0.01114,0.123466 -0.289829,-0.952117 0.19111,0.903995 -0.18671,-0.554358 0.02557,0.265217 -0.101738,-0.22617 -0.04262,0.0015 0.01237,0.214347 -0.324064,-1.084382 0.295329,1.306428 -0.349223,-1.181175 0.01815,0.236207 -0.132816,-0.345924 -0.01127,0.122642 0.163886,0.799364 -0.261642,-0.843637 0.482588,2.028935 -0.03878,0.01678 -0.01608,0.104221 -0.12814,-0.327913 -0.05005,-0.02682 -0.200186,-0.606192 0.0675,0.42718 -0.388546,-1.3331 0.118517,0.623515 0.206509,0.963529 -0.109992,-0.257792 -0.29684,-0.979204 -0.249269,-0.796065 -0.03451,0.03369 0.727047,2.972391 -0.228096,-0.713984 -0.02199,0.0814 -0.01005,0.12759 -0.07521,-0.123603 -0.09391,-0.196061 0.0078,0.196749 -0.0049,0.147525 -0.07933,-0.140238 -0.03671,0.02475 -0.04826,-0.01952 -0.02117,0.08483 -0.15825,-0.444504 0.06255,0.408069 -0.08469,-0.160725 -0.01114,0.123328 -0.08635,-0.166775 -0.04716,-0.01568 0.05569,0.381397 -0.2224593,-0.692124 -0.1857486,-0.550233 -0.1178288,-0.288455 0.054171,0.375623 -0.052933,-0.03796 -0.024335,0.07274 0.057195,0.387171 L 9.5276333,92.778896 9.2987123,92.06175 9.174284,91.748272 9.097841,91.619444 8.9493517,91.212612 l 0.064071,0.413707 0.060633,0.400508 -0.1509637,-0.415908 0.081668,0.481627 0.4908387,2.060422 -0.042759,0.0014 -0.045372,-0.0086 -0.039597,0.01361 -0.03011,0.0506 -0.048946,-0.02255 -0.050596,-0.02888 -0.028324,0.05706 -0.031211,0.04578 -0.051833,-0.03354 -0.043584,-0.0015 -0.039323,0.01429 -0.026948,0.06256 -0.068882,-0.09941 -0.039735,0.01293 -0.04056,0.01 -0.02736,0.06105 -0.057334,-0.055 -0.049909,-0.02584 -0.1359773,-0.358709 0.067782,0.42828 -0.06462,-0.08305 -0.066408,-0.09005 -0.018011,0.09679 -0.043446,-8.23e-4 -0.061734,-0.07218 -0.050596,-0.02847 -0.031485,0.04454 -0.047984,-0.01828 -0.060632,-0.06778 -0.03396,0.03547 -0.04221,0.0033 -0.1109549,-0.261643 0.093769,0.528097 -0.021724,0.08277 -0.019799,0.09005 -0.061733,-0.07191 -0.07287,-0.114667 -0.00825,0.13419 -0.023511,0.07575 -0.096656,-0.20651 -0.027085,0.06187 -0.061321,-0.07025 -0.010175,0.127454 -0.1215407,-0.302753 -0.027773,0.05939 -0.00439,0.149452 -0.098718,-0.214484 -0.2330453,-0.733233 -0.023923,0.07397 0.192348,0.908946 -0.067782,-0.09514 -0.069848,-0.103341 -0.1709208,-0.493846 0.1236034,0.643726 -0.1490391,-0.408894 -0.3818089,-1.307252 -0.056233,-0.05019 0.1713124,0.827689 -0.429793,-1.492314 0.084832,0.493726 -0.065995,-0.08854 0.3206262,1.403909 -0.4922134,-1.733334 -0.2470691,-0.787129 0.092943,0.525488 0.56962,2.36441 -0.00894,0.132128 -0.2943656,-0.969578 0.1986727,0.933418 -0.193448,-0.58062 0.034784,0.301104 -0.107792,-0.249544 -0.046746,-0.01429 0.00866,0.199772 -0.3511489,-1.188598 0.3328628,1.451204 -0.3609107,-1.226547 0.038084,0.313339 -0.1489015,-0.408068 -0.017324,0.0994 0.035197,0.302203 -0.2455567,-0.781354 0.5868062,2.430956 -0.00578,0.144502 -0.1594883,-0.449317 0.027911,0.27443 -0.042897,7.03e-4 -0.015536,0.106279 -0.059532,-0.06298 -0.060495,-0.06737 -0.078094,-0.134603 -0.024748,0.07067 -0.030385,0.04922 -0.050734,-0.02956 -0.032998,0.03905 0.00151,0.172686 -0.091569,-0.187261 -0.2716798,-0.882134 0.2531186,1.143365 0.00179,0.173511 -0.065308,-0.08565 -0.1016046,-0.225759 0.00688,0.193037 -8.249e-4,0.1511 c 0.027827,0.02617 0.055784,0.05221 0.083869,0.07809 l -0.026948,-0.179286 0.102842,0.230845 0.043309,7.04e-4 0.052521,0.03602 0.027223,0.0972 c 0.058364,0.05547 0.1173035,0.110334 0.1768119,0.164575 l -0.017736,-0.20871 0.052246,0.03547 0.1146664,0.27608 0.03836,-0.01815 -0.023785,-0.258207 -0.010042,-0.205409 0.048259,0.01966 0.058571,0.05995 0.014436,-0.110817 0.051284,0.03148 0.04166,-0.0059 0.041247,-0.0069 0.00206,-0.158664 0.3100394,1.10308 c 0.093538,0.07055 0.1881415,0.139664 0.2837789,0.207335 l -0.016498,-0.08098 0.027636,0.08786 c 0.025147,0.01554 0.050354,0.03099 0.075619,0.04633 l -0.09693,-0.442578 0.1425769,0.47049 c 0.021954,0.0136 0.043952,0.02711 0.065995,0.04056 L 6.934273,96.416993 6.913099,96.168962 6.901549,95.957778 6.822904,95.488114 l 0.3430371,1.157251 -0.2960156,-1.30849 0.1337776,0.349774 0.033684,-0.0367 0.3155389,1.150377 c 0.05639,0.03527 0.1130843,0.07006 0.1700752,0.104358 l -0.013887,-0.09995 0.03451,0.112604 c 0.059761,0.03597 0.1198469,0.07139 0.1802491,0.106281 l -0.1171746,-0.507778 0.1674627,0.479839 -0.018837,-0.239095 -0.1429895,-0.718109 0.00398,-0.151239 -0.1299276,-0.668062 -0.025848,-0.265768 0.1515141,0.418244 0.1153538,0.278691 0.039184,-0.01553 0.065721,0.0873 -0.014024,-0.220396 -0.083042,-0.487127 0.077407,0.132403 -0.044959,-0.339737 0.1087543,0.253117 0.026399,-0.06476 -0.021586,-0.249269 0.032173,-0.04248 0.063107,0.0774 0.040559,-0.01035 -0.00357,-0.179974 0.057745,0.05623 0.059946,0.06517 0.041798,-0.0054 -0.00564,-0.188087 0.3540357,1.199874 -0.099131,-0.548723 -0.032173,-0.291065 0.02461,-0.07122 0.098168,0.212284 0.011961,-0.120167 0.03341,-0.03712 0.013475,-0.114666 0.03341,-0.03726 0.052521,0.03629 -0.00646,-0.191661 0.04551,0.0091 0.066682,0.09102 0.022685,-0.07864 0.022961,-0.07795 0.028324,-0.0572 0.048258,0.01994 0.055408,0.04716 0.019249,-0.09199 0.030799,-0.04743 0.048397,0.01993 0.03891,-0.01595 0.021448,-0.08401 0.051284,0.03177 0.043034,-2.81e-4 0.034372,-0.03396 0.037947,-0.01993 0.049359,0.0242 0.042485,-0.0026 0.035197,-0.0308 0.033959,-0.03506 0.049909,0.02598 0.040423,-0.01005 0.6576138,2.371561 -0.3244763,-1.418757 0.4472543,1.559409 0.01347,-0.114529 0.128553,0.329837 -0.05829,-0.391158 -0.08194,-0.482864 0.08429,0.159077 -0.188085,-0.892585 0.07603,0.127178 -0.109029,-0.587631 0.103255,0.232358 0.196059,0.590381 0.0056,-0.144777 -0.136801,-0.694323 -0.04138,-0.326263 0.08167,0.148764 -0.102567,-0.562196 -0.01443,-0.221909 0.199497,0.603169 0.01719,-0.100089 -0.0198,-0.243081 -0.03162,-0.288179 0.180799,0.531399 4.23e-4,-0.16485 -0.06187,-0.405046 0.06008,0.06545 0.100501,0.22122 0.04386,0.0028 -0.05349,-0.373147 0.09761,0.210496 0.05087,0.03012 0.04674,0.01415 0.364073,1.238508 0.533048,1.890484 -0.180112,-0.861098 -0.688686,-2.824727 0.03492,-0.03148 0.556558,1.981502 -0.111916,-0.598218 0.0071,-0.139002 -0.004,-0.181487 0.110679,0.260681 -0.127728,-0.6594 0.04317,-1.41e-4 -0.0015,-0.172 0.03094,-0.04729 0.04881,0.02186 -0.01141,-0.210222 0.552847,1.967479 0.07892,0.137627 0.0275,-0.0598 0.02269,-0.07919 0.06174,0.07191 -0.138041,-0.698999 0.224933,0.701473 -0.231395,-1.059497 0.297941,0.983327 -0.116592,-0.616367 -0.01719,-0.232769 -0.01911,-0.240057 -0.06875,-0.431993 0.333,1.118891 -0.291342,-1.290478 0.130754,0.338087 0.02488,-0.07039 0.794417,2.899522 -0.342488,-1.488053 0.103671,0.233458 -0.06682,-0.424705 0.272915,0.88722 0.133366,0.3484 0.03781,-0.02076 -0.452341,-1.91207 0.270167,0.876084 -0.01815,-0.236207 -0.165262,-0.804452 0.02063,-0.08662 -0.130065,-0.668614 -0.01952,-0.241843 0.147114,0.401607 0.118516,0.290792 0.03932,-0.01444 0.06366,0.07919 -0.02323,-0.256418 -0.07067,-0.439281 0.07191,0.111505 -0.05129,-0.364348 0.114528,0.275392 0.02667,-0.06366 4.23e-4,-0.1643 0.01347,-0.114803 0.0605,0.06737 0.0396,-0.01388 -5.63e-4,-0.168287 0.05913,0.0616 0.05884,0.06036 0.04359,0.0019 -0.0056,-0.188086 0.351286,1.189562 -0.09432,-0.530711 -0.05197,-0.367097 0.04138,-0.0065 0.09432,0.197435 0.01458,-0.109854 0.03519,-0.03066 0.08689,0.168975 -0.04002,-0.320764 0.05252,0.03602 -0.01458,-0.222595 0.05349,0.04015 0.0664,0.08936 0.06091,0.06888 -0.01527,-0.225208 0.03053,-0.04854 0.555734,1.978341 0.06311,0.07699 0.02323,-0.07658 0.01857,-0.09501 0.07603,0.126903 -0.148214,-0.738182 0.208984,0.640014 -0.201835,-0.945379 0.297115,0.980027 -0.149863,-0.744644 -0.01155,-0.211048 0.0097,-0.129239 -0.09047,-0.51545 0.32695,1.09538 -0.271816,-1.215822 0.136115,0.359399 0.003,-0.155226 0.624753,2.244796 -0.547621,-2.279993 0.441066,1.536035 0.0895,0.179288 0.0056,-0.144778 -0.03204,-0.289965 -0.09913,-0.549272 0.272918,0.886671 -0.268518,-1.202348 0.07589,0.126491 -0.05596,-0.382497 0.122916,0.30784 0.07287,0.114667 0.0045,-0.148765 -0.04482,-0.339186 -0.04495,-0.340012 0.376998,1.288141 -0.123878,-0.644415 -0.257931,-1.161788 0.162376,0.460179 0.0098,-0.128553 -0.03768,-0.311691 0.02529,-0.06916 0.20926,0.641253 -0.07946,-0.472965 -0.05527,-0.379884 0.109716,0.256968 0.05403,0.04235 0.03533,-0.03012 -0.02364,-0.257931 0.106692,0.245281 0.02255,-0.07892 0.03768,-0.02158 0.586119,2.096032 -0.383459,-1.646303 -0.0068,-0.192898 -0.0069,-0.193585 0.05019,0.02694 0.07548,0.124978 0.09184,0.188087 0.004,-0.151239 -0.02543,-0.264117 0.0539,0.04152 0.03602,-0.02791 0.01,-0.128002 0.0466,0.01361 0.102151,0.227683 -0.0087,-0.20046 4.23e-4,-0.164849 0.56027,1.995937 0.110678,0.260681 -0.0077,-0.196198 0.004,-0.151101 0.08552,0.163888 -0.14065,-0.709172 0.207746,0.635203 -0.229744,-1.053309 0.308113,1.022786 -0.130339,-0.669437 -0.01388,-0.21971 -0.0098,-0.204309 -0.07795,-0.467465 0.33575,1.129753 -0.294779,-1.304365 0.135703,0.357611 0.03218,-0.04262 0.783554,2.858 -0.25463,-1.149415 0.0209,-0.08565 -0.07067,-0.43928 0.139963,0.373697 0.26948,0.87361 0.03726,-0.02282 -0.455778,-1.925269 0.265217,0.857249 0.04043,-0.01035 -0.212834,-0.988277 0.01952,-0.09074 -0.140514,-0.708898 -0.01567,-0.226583 0.154677,0.430206 0.08291,0.153575 0.06833,0.09706 0.06586,0.08813 -0.02667,-0.269755 -0.07068,-0.438867 0.05362,0.04043 -0.02612,-0.267144 0.113704,0.272369 0.02653,-0.06407 -0.0049,-0.185474 0.01539,-0.106967 0.06943,0.101325 0.03354,-0.03684 -0.0032,-0.178737 0.05706,0.0539 0.06105,0.06943 0.04125,-0.0076 -0.0055,-0.187398 0.35431,1.200698 -0.12649,-0.654588 -0.02364,-0.257382 0.04317,-1.41e-4 0.0605,0.06696 0.05019,0.02736 2.83e-4,-0.1654 0.120028,0.297115 -0.04015,-0.321589 0.03878,-0.0165 -5.64e-4,-0.168973 0.05335,0.03988 0.0385,-0.01787 0.08868,0.175574 -0.01526,-0.225346 0.03025,-0.04964 0.455091,1.589793 0.01746,-0.09885 0.457016,1.597355 -0.711235,-2.911483 -0.103946,-0.567419 0.415082,1.435391 0.128415,0.329151 -0.09514,-0.533735 0.0032,-0.153852 0.06902,0.09968 0.02158,-0.08291 -0.09995,-0.552158 0.02269,-0.07905 0.03451,-0.03327 0.0013,-0.161688 0.02049,-0.08703 0.06063,0.06723 0.635478,2.286043 -0.307703,-1.354 0.430344,1.49479 0.02063,-0.08703 0.06146,0.07068 0.0076,-0.136802 -0.0583,-0.391847 0.08621,0.166362 -0.213658,-0.991024 0.07218,0.112053 -0.107241,-0.580069 0.104358,0.236071 0.195786,0.589417 0.0062,-0.142577 -0.137215,-0.696248 -0.0396,-0.318839 0.07987,0.141615 -0.101737,-0.558895 -0.01512,-0.225072 0.199635,0.603993 0.01774,-0.09748 -0.02063,-0.246106 -0.03177,-0.289004 0.181212,0.532773 4.22e-4,-0.164988 -0.06187,-0.405181 0.06009,0.06558 0.100638,0.22191 0.04331,7.04e-4 -0.05362,-0.373147 0.09803,0.211733 0.05073,0.0297 0.04688,0.01429 0.363935,1.238095 0.408207,1.447769 c 0.0084,-0.01108 0.01689,-0.02217 0.02529,-0.03327 l -0.08029,-0.38442 -0.689923,-2.828852 0.03589,-0.02806 0.556421,1.981226 -0.106417,-0.577318 0.0067,-0.140378 -0.0085,-0.199498 0.109443,0.255869 -0.126766,-0.655414 0.04303,-5.63e-4 -0.0011,-0.170487 0.03053,-0.04866 0.04866,0.02118 -0.01128,-0.209671 0.588594,2.105381 0.08346,0.155637 0.02158,0.04262 c 0.03185,-0.05109 0.06328,-0.102415 0.09432,-0.153989 l -0.161687,-0.731171 0.199636,0.669437 c 0.0069,-0.01136 0.01386,-0.02272 0.02076,-0.0341 l -0.25903,-1.117381 0.306602,1.039835 0.01127,-0.01828 -0.122365,-0.600006 -0.01843,-0.237444 -0.01993,-0.243358 -0.07136,-0.441754 0.335613,1.129066 -0.29148,-1.291579 0.130616,0.337813 0.02475,-0.07109 0.278829,1.016737 c 0.07564,-0.138733 0.148437,-0.279002 0.218335,-0.420719 l -0.01651,-0.0726 0.02007,0.06517 c 0.02721,-0.05524 0.05397,-0.110695 0.08029,-0.166362 l -0.01374,-0.06352 0.0064,-0.14134 -0.118791,-0.625303 -0.01678,-0.230708 0.141477,0.379197 0.09638,0.205822 0.06723,0.09308 0.02612,-0.0069 c 0.0047,-0.0099 0.0094,-0.01961 0.01415,-0.02942 V 91.36305 l -0.07616,-0.460591 0.05802,0.05774 -0.03148,-0.288317 0.107517,0.248445 0.03547,-0.02915 -0.0015,-0.17255 0.01279,-0.116866 0.06228,0.0741 0.03864,-0.0176 0.005,-0.146564 0.05362,0.04042 0.06366,0.07933 0.01155,-0.01073 c 0.0077,-0.02084 0.01528,-0.04169 0.02282,-0.06256 l -0.0015,-0.132815 0.02158,0.07768 c 0.138883,-0.412094 0.25442,-0.831693 0.34606,-1.256795 l -0.09968,-0.283091 -0.161963,-0.458803 0.09254,0.523699 -0.05321,-0.03932 -0.04784,-0.01801 0.07974,0.474064 -0.174474,-0.506513 -0.20046,-0.607429 -0.130478,-0.337124 -0.01182,0.120716 -0.02199,0.08167 -0.107381,-0.24817 0.01388,0.220258 -0.103122,-0.231945 0.03533,0.30289 0.483413,2.032099 -0.03657,0.02516 -0.0085,0.133778 -0.06187,-0.07233 -0.07081,-0.106968 -0.0085,0.133779 -0.01733,0.0994 -0.08594,-0.165399 -0.04386,-0.0024 -0.03946,0.01415 -0.03204,0.04235 -0.139965,-0.373422 -0.01073,0.125116 -0.03245,0.04124 -0.08538,-0.163201 -0.189736,-0.565907 -0.04578,-0.01046 0.185887,0.884196 -0.07616,-0.127453 -0.044,-0.0036 -0.241156,-0.764304 0.203346,0.951428 -0.196609,-0.592581 -0.316089,-1.053308 -0.08538,-0.163201 0.280891,1.250331 -0.691024,-2.500389 0.20761,0.967655 0.0079,0.197022 0.206784,0.964628 -0.435568,-1.514725 -0.113016,-0.26948 z m 2.529261,0.774617 0.177362,0.851061 -0.194135,-0.582818 -0.106418,-0.244594 0.162788,0.794965 -0.04826,-0.01994 0.128142,0.614854 c 0.04105,-0.219848 0.0757,-0.440842 0.103945,-0.662701 z m 0.135015,0.188223 0.101464,0.47654 c 0.0047,-0.03064 0.0094,-0.0613 0.01388,-0.09199 z m -20.2699773,5.816367 0.064483,0.41522 -0.056647,-0.05211 -0.014299,0.04853 c 0.087003,0.102594 0.1757891,0.203668 0.2663176,0.303165 L 4.4339105,94.089886 Z m 0.3237884,0.584332 -0.034922,0.03121 0.012374,0.146426 c 0.043743,0.05066 0.087924,0.100935 0.1325401,0.150826 z m 0.3209011,0.405869 0.025848,0.183137 c 0.019324,0.01812 0.03871,0.03618 0.058158,0.05417 z m 0.1618255,0.292029 -1.409e-4,0.01788 c 0.05571,0.05289 0.1119466,0.105236 0.1686999,0.157013 l -0.073007,-0.139002 -0.035197,0.03053 z"
         style="fill:#000000;fill-opacity:0.99497483;stroke-width:0.04892626" />
      <path
         sodipodi:nodetypes="czccc"
         inkscape:connector-curvature="0"
         id="path4570"
         d="m 26.000227,83.874268 c 0.0637,-0.0751 0.199235,-0.197613 0.328805,-0.06371 0.129569,0.133902 0.09203,0.42165 -0.07698,0.666314 -0.300275,0.03178 -0.324562,-0.05543 -0.324562,-0.05543 0,0 0.06904,-0.398037 0.07274,-0.547172 z"
         style="fill:#000000;fill-opacity:1;stroke:none;stroke-width:0.07039475px;stroke-linecap:butt;stroke-linejoin:miter;stroke-opacity:1" />
    </g>
  </g>
</svg>
