<svg class="gsuiWaveform" preserveAspectRatio="none" viewBox="0 0 528 144">
	<polygon points="0,71.80863501504064 1,22.842957973480225 2,25.891136169433594 3,33.33923578262329 4,25.926429748535156 5,19.499213218688965 6,26.85851240158081 7,28.289400100708008 8,33.55549478530884 9,48.09200119972229 10,56.99236249923706 11,50.126248598098755 12,48.91211771965027 13,50.036843061447144 14,42.743738651275635 15,48.482728242874146 16,58.66780757904053 17,54.39058327674866 18,54.01509869098663 19,64.45488971471786 20,68.71283027529716 21,66.27611124515533 22,68.64928364753723 23,62.25769543647766 24,70.6519949734211 25,67.89213037490845 26,69.27389287948608 27,68.91159752011299 28,72.01661732210778 29,69.27172914147377 30,65.97960430383682 31,70.23275792598724 32,71.96368954516947 33,69.02371573448181 34,48.61225962638855 35,64.69009906053543 36,68.25051400065422 37,65.32605296373367 38,64.80820798873901 39,65.52777546644211 40,64.82620453834534 41,63.73975110054016 42,66.3505243062973 43,67.75004196166992 44,69.07101488113403 45,67.34288156032562 46,67.51849919557571 47,62.76028561592102 48,71.04044864326715 49,68.62399658560753 50,25.017701625823975 51,39.27932667732239 52,34.021400928497314 53,32.41772747039795 54,39.954646825790405 55,34.496302127838135 56,56.77747356891632 57,30.82124662399292 58,52.42005228996277 59,49.00856566429138 60,49.4514799118042 61,54.13377356529236 62,48.89484000205994 63,59.54087519645691 64,42.91406750679016 65,60.56547152996063 66,58.37249207496643 67,15.965349197387695 68,6.683712959289551 69,21.049349784851074 70,52.46148490905762 71,27.358510494232178 72,29.138244152069092 73,20.43037748336792 74,47.50035524368286 75,32.775731563568115 76,33.86683702468872 77,57.602412700653076 78,65.15624552965164 79,53.74550127983093 80,62.828742027282715 81,64.87399882078171 82,66.77571558952332 83,50.58823871612549 84,49.44175100326538 85,62.83597540855408 86,66.88631647825241 87,64.3803151845932 88,63.497024059295654 89,69.13662225008011 90,67.0280025601387 91,68.4796022772789 92,67.55069348216057 93,71.45818472653627 94,70.27939899265766 95,68.04744154214859 96,70.29950067400932 97,71.78105912357569 98,70.34683509171009 99,69.04036206007004 100,59.71350860595703 101,64.614377617836 102,64.73944526910782 103,64.28907072544098 104,65.69515711069107 105,66.21009403467178 106,65.59551519155502 107,66.29361909627914 108,67.78182184696198 109,67.98294541239738 110,66.42410910129547 111,68.23263600468636 112,69.9144627302885 113,62.38740813732147 114,69.03537958860397 115,69.68801468610764 116,70.86407281458378 117,69.95111887156963 118,69.95952907204628 119,69.91232085227966 120,71.8898143088445 121,70.94941668212414 122,70.87763178348541 123,71.09180241823196 124,71.88034489564598 125,71.24356864392757 126,70.4025390446186 127,71.10892882943153 128,71.69976343400776 129,70.97582363709807 130,70.91530653089285 131,71.2591187376529 132,71.41973998304456 133,34.488624572753906 134,26.000123977661133 135,33.67689800262451 136,26.648317337036133 137,19.383208751678467 138,26.8969087600708 139,29.406104564666748 140,35.23940706253052 141,48.34323835372925 142,57.00659430027008 143,50.21793723106384 144,49.09262824058533 145,49.963932037353516 146,43.38255071640015 147,48.76579785346985 148,58.86454653739929 149,71.51979714632034 150,64.83536911010742 151,65.30353206396103 152,68.49322521686554 153,66.45807552337646 154,69.5401973426342 155,62.37451207637787 156,70.5685797482729 157,69.2273034453392 158,69.76624909043312 159,69.50629851222038 160,72.2179304715246 161,69.74850815534592 162,66.39026015996933 163,70.10780601203442 164,72.52059283107519 165,70.40993325412273 166,69.12877947092056 167,82.17738997936249 168,28.817421913146973 169,28.397413730621338 170,42.92330718040466 171,60.74911916255951 172,65.5798408985138 173,48.410194873809814 174,37.36433672904968 175,61.564114809036255 176,54.05444777011871 177,65.16108959913254 178,65.83242344856262 179,71.92503934074193 180,70.235136911273 181,70.11728909611702 182,33.753132820129395 183,49.13811635971069 184,34.92348575592041 185,32.902185916900635 186,39.31984305381775 187,35.250144481658936 188,56.71478819847107 189,33.367289543151855 190,53.08866906166077 191,49.41396760940552 192,49.57171583175659 193,53.832273960113525 194,49.2399845123291 195,59.41461718082428 196,43.31402349472046 197,60.65269589424133 198,58.616342425346375 199,15.551216125488281 200,6.705372333526611 201,21.21946620941162 202,52.85925006866455 203,27.194183349609375 204,28.122081756591797 205,20.559226512908936 206,56.11225998401642 207,33.76097774505615 208,33.81999063491821 209,56.097402691841125 210,65.59371864795685 211,53.77047371864319 212,63.9295694231987 213,65.13520413637161 214,66.76785564422607 215,50.94032907485962 216,49.25825786590576 217,61.6633780002594 218,66.77617532014847 219,64.29694247245789 220,62.17309105396271 221,69.08058875799179 222,67.48713397979736 223,68.43537881970406 224,67.83235359191895 225,71.48453203216195 226,70.25049725174904 227,67.73259526491165 228,70.07780832052231 229,71.72161136381328 230,70.38265572488308 231,69.13426914811134 232,59.724868297576904 233,64.81022447347641 234,63.97662019729614 235,64.16587364673615 236,65.71130347251892 237,66.19615995883942 238,65.60301035642624 239,62.91496753692627 240,67.79788827896118 241,67.97760218381882 242,67.4908504486084 243,68.22835519909859 244,69.90782895684242 245,66.79864418506622 246,69.05375003814697 247,69.14354825019836 248,35.23395252227783 249,48.41411733627319 250,33.70776700973511 251,33.99518823623657 252,41.47000479698181 253,33.7115478515625 254,57.07261097431183 255,33.89071083068848 256,52.982120990753174 257,48.95355463027954 258,49.717379093170166 259,54.282174825668335 260,49.60465121269226 261,58.66381216049194 262,42.71361422538757 263,61.56624984741211 264,59.36235702037811 265,31.497596740722656 266,24.303907871246338 267,40.09980368614197 268,35.84066820144653 269,26.173085689544678 270,30.854381561279297 271,35.589128494262695 272,46.89579176902771 273,46.55673909187317 274,54.93572402000427 275,49.097951889038086 276,52.33599829673767 277,53.0858473777771 278,43.91558504104614 279,50.4342520236969 280,61.83228421211243 281,42.78587079048157 282,49.792588233947754 283,67.17630833387375 284,70.88039003312588 285,64.75311756134033 286,66.2888372540474 287,65.11581927537918 288,72.13190735131502 289,66.7355328798294 290,68.0652562379837 291,69.68321245908737 292,73.11315905302763 293,68.09447407722473 294,66.05282056331635 295,71.22596235573292 296,72.69976110756397 297,67.00290137529373 298,49.237353801727295 299,61.00866901874542 300,66.77642583847046 301,64.39209061861038 302,61.460665225982666 303,65.91639590263367 304,63.90836817026138 305,60.66958522796631 306,66.6774662733078 307,68.67799723148346 308,68.87140595912933 309,67.12037515640259 310,67.9356347322464 311,67.43317651748657 312,70.1587894409895 313,68.31977400183678 314,23.852906227111816 315,39.96076440811157 316,33.69188404083252 317,32.51445007324219 318,40.29811120033264 319,34.821969509124756 320,56.35763704776764 321,30.84052848815918 322,53.04282259941101 323,49.291703939437866 324,49.03645634651184 325,53.75900888442993 326,49.3288471698761 327,59.206175208091736 328,42.36456656455994 329,61.143704295158386 330,59.02696073055267 331,15.478006839752197 332,16.040090560913086 333,21.24575185775757 334,52.557044506073 335,31.34053945541382 336,27.91479206085205 337,20.453701972961426 338,56.25255346298218 339,32.491868019104004 340,36.37982439994812 341,56.1072678565979 342,65.07248765230179 343,49.76380491256714 344,63.84957951307297 345,65.04261749982834 346,66.47057086229324 347,50.596778869628906 348,49.4718132019043 349,61.17519128322601 350,66.88693499565125 351,64.06481444835663 352,62.31082463264465 353,69.14010053873062 354,68.57752731442451 355,68.27681842446327 356,67.55009427666664 357,71.54372218251228 358,70.28265479207039 359,68.04022586345673 360,70.37796588242054 361,71.78437917865813 362,69.52216270565987 363,69.20379602909088 364,59.71781408786774 365,59.13205826282501 366,63.941860377788544 367,64.30714559555054 368,62.606083273887634 369,66.20898360013962 370,63.310993015766144 371,62.92667376995087 372,67.80170774459839 373,66.84054243564606 374,67.50341176986694 375,68.20216664671898 376,69.97802250087261 377,66.77584540843964 378,69.05539181828499 379,69.14703887701035 380,70.85882051289082 381,81.24817728996277 382,77.34173995256424 383,27.033817291259766 384,45.584758043289185 385,46.33086919784546 386,67.71627187728882 387,48.54339337348938 388,45.09506392478943 389,38.85344338417053 390,51.2528235912323 391,52.675615310668945 392,67.61894497275352 393,70.63165806233883 394,70.56125785410404 395,69.22416284680367 396,71.74867584183812 397,33.98669099807739 398,29.918299198150635 399,33.754446029663086 400,26.47130012512207 401,23.60445213317871 402,26.913482666015625 403,26.745662212371826 404,38.241116523742676 405,48.363603830337524 406,57.19659233093262 407,50.19820261001587 408,49.09648847579956 409,49.83527183532715 410,43.36462712287903 411,48.572511434555054 412,58.87649416923523 413,71.52141780406237 414,64.8122586607933 415,65.31345462799072 416,68.50082471966743 417,66.47182989120483 418,69.49899163842201 419,62.3745893239975 420,70.48390348255634 421,69.2237012386322 422,69.76428692042828 423,69.49623996019363 424,72.23198484443128 425,69.75936868786812 426,66.38246190547943 427,70.13804939389229 428,72.52614483609796 429,70.42428924143314 430,69.14165782928467 431,82.19739389419556 432,28.80786895751953 433,28.60421848297119 434,42.8948757648468 435,60.76065480709076 436,67.1064185500145 437,48.26652503013611 438,37.34410858154297 439,60.96479666233063 440,54.0576868057251 441,65.15379667282104 442,65.74624139070511 443,71.92931906506419 444,70.2165396809578 445,70.1345751285553 446,34.93739032745361 447,45.668344259262085 448,29.99210500717163 449,22.077030658721924 450,33.332927227020264 451,27.077166080474854 452,51.09471273422241 453,26.771836280822754 454,53.32780623435974 455,48.6675238609314 456,49.608771085739136 457,53.81102657318115 458,49.239776372909546 459,59.609673857688904 460,43.31878709793091 461,60.74006724357605 462,58.618051528930664 463,4.282007217407227 464,16.17954397201538 465,21.2198224067688 466,48.692264556884766 467,31.50212001800537 468,28.13748836517334 469,10.892940044403076 470,56.123814940452576 471,33.785409450531006 472,36.91233944892883 473,56.07357180118561 474,66.93347722291946 475,49.98018836975098 476,63.93689775466919 477,64.18641775846481 478,66.66892558336258 479,50.927332162857056 480,51.3008759021759 481,61.68310296535492 482,64.80851805210114 483,64.25207877159119 484,62.184253334999084 485,69.09819746017456 486,68.52096542716026 487,68.45258384943008 488,68.68284049630165 489,71.84976868517697 490,70.24415101110935 491,68.02200829982758 492,70.13493883609772 493,71.6244644857943 494,69.40107840299606 495,69.13330972194672 496,32.71167612075806 497,27.441401481628418 498,31.805458545684814 499,28.025015830993652 500,32.6825065612793 501,31.398003101348877 502,29.409048557281494 503,35.66838884353638 504,46.79696202278137 505,56.10728931427002 506,47.75495910644531 507,48.26562809944153 508,49.158801555633545 509,39.91120362281799 510,48.363985776901245 511,56.89935529232025 512,41.75530385971069 513,42.29884171485901 514,28.1655592918396 515,32.75679302215576 516,43.44302701950073 517,28.297197818756104 518,48.656089067459106 519,32.062023639678955 520,51.26038312911987 521,46.76191735267639 522,48.7635018825531 523,54.47614359855652 524,53.184035539627075 525,56.75985145568848 526,43.597487926483154 527,64.4519425034523 527,87.75752305984497 526,81.68274450302124 525,96.60820126533508 524,82.0115168094635 523,94.23798894882202 522,91.23769569396973 521,95.17785859107971 520,115.13468027114868 519,97.56666827201843 518,111.60013818740845 517,96.5597927570343 516,117.19722175598145 515,115.27143430709839 514,110.82204008102417 513,109.49908447265625 512,124.23301219940186 511,81.28918182849884 510,87.44743287563324 509,101.25866460800171 508,104.94459915161133 507,93.70822477340698 506,85.83157789707184 505,100.3234555721283 504,97.28431963920593 503,113.80019760131836 502,106.29019474983215 501,114.39069128036499 500,114.80382871627808 499,113.21723556518555 498,115.27226257324219 497,92.1352915763855 496,113.34739351272583 495,71.90861423872411 494,74.85492047667503 493,75.25070294737816 492,73.6347122490406 491,72.71896820515394 490,75.17354705929756 489,75.30331072211266 488,73.78428000211716 487,75.70326188206673 486,78.62367868423462 485,78.96325063705444 484,74.299834638834 483,79.3077991604805 482,78.08279031515121 481,86.19364392757416 480,89.00528132915497 479,89.01646399497986 478,87.15248644351959 477,83.25894570350647 476,76.24111425876617 475,80.21080935001373 474,91.28766632080078 473,93.64984059333801 472,112.03916645050049 471,112.03916645050049 470,96.05692148208618 469,119.9969630241394 468,130.50698232650757 467,114.49235343933105 466,119.84475946426392 465,115.32871770858765 464,116.81282901763916 463,136.7923378944397 462,85.13735568523407 461,86.23220551013947 460,79.95812809467316 459,103.04047322273254 458,82.51433336734772 457,90.28535056114197 456,94.48446464538574 455,98.57470679283142 454,112.49885416030884 453,90.6073637008667 452,118.96446704864502 451,98.91853380203247 450,119.20443677902222 449,118.51810884475708 448,116.67661142349243 447,113.3517837524414 446,110.36194896697998 445,72.24837054312229 444,75.8395966887474 443,75.26964658498764 442,75.96003457903862 441,78.84547752141953 440,78.66922044754028 439,90.29024934768677 438,85.49438452720642 437,88.90325546264648 436,91.24566507339478 435,101.45888614654541 434,65.5813182592392 433,65.89926946163177 432,116.67475748062134 431,131.96861028671265 430,97.7459557056427 429,75.2565997838974 428,74.81038695573807 427,74.08996666967869 426,70.08970592916012 425,76.62420183420181 424,76.42725956439972 423,72.24359988234937 422,70.87583403289318 421,77.98756331205368 420,80.77415585517883 419,70.9885825663805 418,76.00860697031021 417,80.25565695762634 416,81.8266042470932 415,70.76042126119137 414,74.62851467728615 413,84.50891304016113 412,81.771888256073 411,87.32967531681061 410,99.68631720542908 409,102.06862092018127 408,91.26344704627991 407,86.82553052902222 406,97.08880591392517 405,94.88223838806152 404,112.55059719085693 403,109.36655759811401 402,116.23791790008545 401,118.51604461669922 400,117.0587682723999 399,118.43999004364014 398,91.32510781288147 397,115.53011512756348 396,74.1617681980133 395,72.764180123806 394,74.1455043554306 393,76.87145483493805 392,77.28436321020126 391,78.52193820476532 390,88.28391301631927 389,89.59079253673553 388,87.60972797870636 387,90.19390225410461 386,99.62168025970459 385,93.50588536262512 384,67.4629168510437 383,77.49676358699799 382,129.76093339920044 381,100.79804134368896 380,102.39205884933472 379,73.56683318316936 378,74.27623924612999 377,78.14959985017776 376,74.7993161380291 375,74.93489187955856 374,74.02982953190804 373,76.8868260383606 372,76.99938708543777 371,82.60547804832458 370,77.06794649362564 369,79.85942709445953 368,79.18079978227615 367,77.78953367471695 366,77.60365927219391 365,82.0543645620346 364,93.65978837013245 363,71.8435046877712 362,75.03296095132828 361,74.98492500185966 360,73.54586152732372 359,72.39041573926806 358,75.42262798547745 357,75.89927020668983 356,73.88953323662281 355,75.63022854924202 354,78.78419226408005 353,79.75186836719513 352,74.65815550088882 351,79.28451651334763 350,78.37070935964584 349,86.09167921543121 348,90.76336526870728 347,88.99068582057953 346,87.05400967597961 345,84.10060358047485 344,76.16500416398048 343,80.06044149398804 342,92.64559578895569 341,94.09410238265991 340,111.71064949035645 339,111.71064949035645 338,96.08031034469604 337,130.57746648788452 336,130.8030982017517 335,114.87911939620972 334,107.9600179195404 333,115.68758010864258 332,117.04475212097168 331,137.56273698806763 330,85.89042448997498 329,86.47220849990845 328,79.84367501735687 327,103.15678238868713 326,82.61819171905518 325,90.85300040245056 324,94.34692740440369 323,98.11724853515625 322,109.99108743667603 321,91.38046646118164 320,110.1690788269043 319,98.53875875473022 318,111.1289963722229 317,107.98983550071716 316,110.525306224823 315,113.87265157699585 314,108.98998832702637 313,72.84845868498087 312,75.63289868831635 311,79.05726850032806 310,74.7696176469326 309,74.33733406662941 308,76.457873493433 307,76.77451068162918 306,75.8391447365284 305,80.41110652685165 304,82.9478223323822 303,79.37503355741501 302,76.93589383363724 301,76.26415818929672 300,79.56576758623123 299,82.8552485704422 298,112.32477235794067 297,74.38048169016838 296,74.5820926129818 295,75.81759935617447 294,71.2141619771719 293,75.67381632328033 292,76.0292811691761 291,75.08127343654633 290,70.26362317800522 289,76.9229376912117 288,85.25529992580414 287,73.51764093339443 286,74.57761600613594 285,80.00677317380905 284,82.1362212896347 283,73.65973363816738 282,94.40171957015991 281,105.82481861114502 280,82.4315721988678 279,88.37101185321808 278,94.2961220741272 277,96.78918600082397 276,94.53781056404114 275,88.80596315860748 274,95.50872087478638 273,93.04326009750366 272,114.51702976226807 271,98.3584520816803 270,108.06709814071655 269,113.10376739501953 268,115.52584934234619 267,112.11002397537231 266,84.25332748889923 265,125.139573097229 264,84.51368737220764 263,87.12318170070648 262,80.46365636587143 261,102.17834687232971 260,82.26055669784546 259,91.36031985282898 258,93.50064969062805 257,97.11708498001099 256,110.34426784515381 255,92.5036039352417 254,109.34806966781616 253,97.63230085372925 252,110.74365949630737 251,108.27137088775635 250,109.79603290557861 249,110.9888391494751 248,109.41576433181763 247,73.59135621786118 246,74.27923527359962 245,78.1489759683609 244,76.72355407476425 243,74.92535018920898 242,74.01651652157307 241,77.84031111001968 240,77.0042005777359 239,82.59814274311066 238,79.36623001098633 237,79.73236119747162 236,81.52448451519012 235,77.7833286523819 234,77.71540600061417 233,84.14280116558075 232,93.515878200531 231,71.89997714012861 230,75.10318922996521 229,74.8822709619999 228,73.60703198611736 227,72.31150387600064 226,75.15664565563202 225,75.22081589698792 224,73.8209303766489 223,75.70148250460625 222,78.477323949337 221,79.43618845939636 220,74.2899480164051 219,80.66694205999374 218,78.47255176305771 217,86.19819939136505 216,90.63244128227234 215,89.01842737197876 214,89.09127831459045 213,83.66696333885193 212,76.24671149253845 211,80.41611850261688 210,92.27493166923523 209,93.65031695365906 208,107.95498609542847 207,112.02342081069946 206,96.05573272705078 205,130.31290197372437 204,130.501549243927 203,124.03770446777344 202,107.87060165405273 201,115.33314228057861 200,110.94143056869507 199,137.5615439414978 198,85.1426192522049 197,86.225421667099 196,79.9468258023262 195,103.00962567329407 194,82.66674721240997 193,90.26163339614868 192,94.39998579025269 191,98.40752363204956 190,109.3246636390686 189,91.42315864562988 188,110.32439374923706 187,97.50118589401245 186,109.90534687042236 185,108.4255142211914 184,109.66398239135742 183,110.55602502822876 182,107.88915395736694 181,72.26105425693095 180,75.86256363987923 179,75.28033331036568 178,75.9465594291687 177,78.8594121336937 176,78.67607992887497 175,90.36693263053894 174,85.4842060804367 173,88.56755125522614 172,90.8872983455658 171,101.4771659374237 170,65.59344130754471 169,65.9741798043251 168,116.67393350601196 167,132.00050926208496 166,97.75732398033142 165,75.26051446795464 164,74.81917709112167 163,74.09182047843933 162,70.1131344884634 161,76.64934915304184 160,76.41031846404076 159,72.23794526606798 158,70.87228466570377 157,77.98225951194763 156,80.76697719097137 155,71.00830511748791 154,76.01307874917984 153,80.20618039369583 152,81.82195973396301 151,70.76868313550949 150,74.58145129680634 149,84.52225971221924 148,81.65738475322723 147,87.34647023677826 146,99.6694986820221 145,102.09025454521179 144,91.26854968070984 143,86.89810788631439 142,97.29667282104492 141,94.82001757621765 140,110.7127776145935 139,107.6592607498169 138,116.1719913482666 137,123.03285884857178 136,116.90396404266357 135,118.7811541557312 134,90.50348925590515 133,115.87584972381592 132,72.96669236570597 131,72.96022971719503 130,72.30529635213315 129,72.75172015279531 128,73.12011633068323 127,72.97950105369091 126,72.35737023316324 125,72.52989821881056 124,72.95520966500044 123,72.7754286378622 122,72.01674831658602 121,73.3430967181921 120,73.4455748051405 119,72.89872743934393 118,73.56615753471851 117,75.03855738043785 116,74.00110186636448 115,73.45562826097012 114,74.29961362481117 113,75.5173536837101 112,76.7478404045105 111,74.92343160510063 110,74.57137209177017 109,77.83705544471741 108,76.99686795473099 107,77.48276835680008 106,79.36147606372833 105,79.84291863441467 104,81.82261633872986 103,77.81024515628815 102,78.90883076190948 101,83.96410489082336 100,93.66417002677917 99,71.86183478683233 98,75.06506726145744 97,74.97540584206581 96,73.61287866532803 95,72.41423553228378 94,75.47039008140564 93,75.47039008140564 92,73.88987240195274 91,74.46873414516449 90,78.77362382411957 89,79.75343638658524 88,75.0057703256607 87,80.93949741125107 86,78.3688645362854 85,86.95734286308289 84,90.74099564552307 83,88.98379468917847 82,89.07718813419342 81,83.87062239646912 80,76.14947175979614 79,80.74908953905106 78,92.59738254547119 77,95.1356041431427 76,107.88776779174805 75,112.00885534286499 74,103.17628312110901 73,130.4517331123352 72,122.2440619468689 71,124.11392211914062 70,107.6329128742218 69,113.8773980140686 68,111.02807664871216 67,137.55624389648438 66,86.08590924739838 65,86.56038129329681 64,80.07175290584564 63,103.45948147773743 62,82.42541921138763 61,90.69880771636963 60,94.31614208221436 59,98.59841752052307 58,109.4689793586731 57,91.60358762741089 56,110.79172897338867 55,96.78705096244812 54,110.47757148742676 53,108.64068746566772 52,111.24358463287354 51,113.39529132843018 50,109.20253944396973 49,73.52115999162197 48,76.19280686974525 47,76.13305905461311 46,76.05324000120163 45,75.29929330945015 44,77.10825687646866 43,75.84217402338982 42,75.30319967865944 41,78.81558698415756 40,83.28089261054993 39,83.4221259355545 38,78.26299452781677 37,77.43700236082077 36,81.71721947193146 35,85.69632267951965 34,112.17584323883057 33,75.7350640296936 32,74.89995503425598 31,74.70095872879028 30,70.35782209038734 29,77.28665864467621 28,76.8452399969101 27,72.79247461259365 26,71.35290232300758 25,78.4885425567627 24,84.41073560714722 23,71.37524163722992 22,76.55260026454926 21,80.38569045066833 20,82.22764492034912 19,72.03591681551188 18,98.64764142036438 17,105.34902906417847 16,81.42707097530365 15,87.5473827123642 14,99.89409828186035 13,102.54976201057434 12,91.53559041023254 11,86.78629302978516 10,97.71701788902283 9,96.0690450668335 8,110.6770248413086 7,108.03537940979004 6,117.62441825866699 5,123.01720333099365 4,116.74227619171143 3,120.89770460128784 2,91.35675358772278 1,116.48805856704712 0,71.79079597815871"></polygon>
</svg>