<svg xmlns="http://www.w3.org/2000/svg" viewBox="0 0 24 24"><path d="M21.49,12l2.16,2.11A1,1,0,0,1,24,15.2a1.07,1.07,0,0,1-.81.8l-2.94.75.83,2.9a1,1,0,0,1-.3,1.09,1,1,0,0,1-1.09.3l-2.9-.83L16,23.15a1.1,1.1,0,0,1-.8.81l-.3,0a1,1,0,0,1-.79-.34L12,21.49,9.89,23.65A1.06,1.06,0,0,1,8.8,24a1.05,1.05,0,0,1-.8-.81l-.75-2.94L4.35,21a1,1,0,0,1-1.09-.3A1,1,0,0,1,3,19.65l.83-2.9L.85,16A1.07,1.07,0,0,1,0,15.2a1,1,0,0,1,.31-1.09L2.51,12,.35,9.89A1.05,1.05,0,0,1,0,8.8,1.07,1.07,0,0,1,.85,8l2.94-.75L3,4.35a1,1,0,0,1,.3-1.1A1,1,0,0,1,4.35,3l2.9.83L8,.85a1,1,0,0,1,.8-.8,1,1,0,0,1,1.09.3L12,2.52,14.11.35A1.05,1.05,0,0,1,15.2.05a1,1,0,0,1,.8.8l.75,2.94L19.65,3a1,1,0,0,1,1.09.29,1,1,0,0,1,.3,1.1l-.83,2.9L23.15,8a1.07,1.07,0,0,1,.81.8,1.05,1.05,0,0,1-.31,1.09Z" fill="#333"/></svg>
