<svg xmlns="http://www.w3.org/2000/svg" xmlns:xlink="http://www.w3.org/1999/xlink" preserveAspectRatio="xMidYMid" width="1397" height="220.031" viewBox="0 0 1397 220.031">
  <defs>
    <style>
      .cls-1, .cls-3 {
        fill: #fffeff;
      }

      .cls-1 {
        fill-rule: evenodd;
      }

      .cls-2, .cls-3 {
        font-size: 222px;
      }

      .cls-3 {
        font-family: "Montserrat";
      }
    </style>
  </defs>
  <g>
    <path d="M290.815,22.689 C291.725,18.241 288.894,15.108 284.650,14.602 C266.558,12.480 253.318,22.386 240.381,33.605 C206.220,6.718 157.909,-1.165 115.359,0.148 C54.818,2.170 17.322,38.457 0.140,94.353 C0.039,94.758 -0.062,95.162 0.039,95.566 C0.039,95.970 0.140,96.375 0.342,96.779 C14.997,125.788 44.914,140.849 76.952,148.026 C76.851,151.563 77.256,155.303 77.458,158.740 C77.660,162.278 78.165,165.816 78.671,169.354 C76.751,169.859 74.830,170.465 73.011,171.173 C71.090,171.981 70.181,173.295 69.878,174.811 C69.069,175.519 68.564,176.530 68.766,177.641 C76.447,229.899 137.088,220.701 176.001,216.961 C196.416,214.939 250.185,202.810 224.715,173.295 C224.715,170.768 222.896,168.140 219.864,168.140 C219.662,168.140 219.460,168.140 219.359,168.140 C219.359,160.155 217.439,152.271 215.114,144.690 C213.597,139.636 211.880,133.369 209.757,127.709 C220.875,119.118 231.083,109.010 240.381,97.790 C243.817,111.031 267.669,119.016 278.889,120.128 C282.021,120.431 285.256,117.096 284.953,114.064 C283.639,99.306 265.447,80.000 268.882,66.355 C272.825,50.586 287.480,39.468 290.815,22.689 ZM115.359,13.491 C151.945,10.357 191.868,18.342 223.199,38.457 C190.656,25.620 149.823,25.721 118.997,30.269 C99.289,33.201 59.366,40.681 32.482,56.651 C52.292,32.291 76.144,16.826 115.359,13.491 ZM169.127,168.848 C160.435,168.848 151.744,168.848 142.951,168.343 C133.652,167.837 123.343,166.827 112.933,166.422 C115.359,162.884 116.369,158.942 116.976,154.697 C117.077,154.293 117.077,153.787 117.178,153.382 C124.354,153.787 131.428,153.990 138.200,153.787 C149.823,153.585 160.738,151.665 170.845,148.531 C169.835,153.888 168.824,159.346 167.813,164.603 C167.410,166.321 168.016,167.837 169.127,168.848 ZM106.768,163.895 C106.364,164.805 106.262,165.512 106.465,166.220 C99.289,166.220 92.113,166.523 85.341,167.837 C85.139,164.805 85.038,161.773 84.937,158.740 C84.937,155.708 85.139,152.676 85.139,149.643 C93.123,151.058 101.209,152.069 109.193,152.676 C109.193,156.617 108.486,160.357 106.768,163.895 ZM211.981,168.241 C199.650,168.343 187.421,168.646 175.191,168.747 C175.393,168.444 175.696,168.241 175.899,167.938 C177.920,164.603 178.729,160.257 179.739,156.517 C180.852,152.473 181.761,148.228 182.468,144.084 C188.735,141.355 194.698,138.019 200.358,134.380 C201.874,137.715 203.490,140.950 204.704,143.982 C207.837,151.968 210.162,160.054 211.981,168.241 ZM116.066,119.825 C84.128,119.926 38.647,115.580 13.178,92.736 C58.153,83.134 103.230,75.856 149.116,71.510 C178.223,68.780 213.901,62.311 242.504,72.116 C205.209,99.812 163.468,119.724 116.066,119.825 Z" class="cls-1"/>
    <text transform="translate(360 173.03) scale(1.02)" class="cls-2"><tspan class="cls-3">Springtik</tspan></text>
  </g>
</svg>
