<svg xmlns="http://www.w3.org/2000/svg" xmlns:xlink="http://www.w3.org/1999/xlink" preserveAspectRatio="xMidYMid" width="812.031" height="614.969" viewBox="0 0 812.031 614.969">
  <defs>
    <style>
      .cls-1 {
        fill: #fff;
        fill-rule: evenodd;
      }
    </style>
  </defs>
  <path d="M811.555,63.375 C814.095,50.945 806.195,42.186 794.352,40.774 C743.867,34.842 706.921,62.528 670.818,93.888 C575.491,18.738 440.679,-3.298 321.942,0.374 C153.003,6.024 48.367,107.449 0.421,263.683 C0.139,264.812 -0.142,265.942 0.139,267.072 C0.139,268.202 0.421,269.333 0.986,270.463 C41.881,351.545 125.364,393.642 214.768,413.699 C214.486,423.588 215.615,434.041 216.178,443.648 C216.743,453.536 218.153,463.424 219.563,473.313 C214.205,474.725 208.845,476.419 203.769,478.397 C198.411,480.657 195.873,484.329 195.026,488.567 C192.770,490.545 191.360,493.370 191.923,496.477 C213.358,642.540 382.579,616.832 491.164,606.378 C548.133,600.728 698.176,566.825 627.103,484.329 C627.103,477.266 622.027,469.922 613.566,469.922 C613.001,469.922 612.439,469.922 612.156,469.922 C612.156,447.602 606.799,425.566 600.310,404.377 C596.079,390.251 591.287,372.734 585.362,356.914 C616.386,332.900 644.873,304.648 670.818,273.288 C680.409,310.298 746.968,332.616 778.276,335.725 C787.017,336.572 796.043,327.250 795.198,318.774 C791.532,277.526 740.765,223.564 750.353,185.424 C761.353,141.351 802.249,110.274 811.555,63.375 ZM321.942,37.667 C424.037,28.909 535.441,51.228 622.872,107.449 C532.059,71.570 418.116,71.851 332.095,84.564 C277.098,92.758 165.694,113.665 90.673,158.302 C145.952,90.215 212.512,46.990 321.942,37.667 ZM471.984,471.900 C447.730,471.900 423.476,471.900 398.938,470.487 C372.990,469.075 344.222,466.250 315.173,465.118 C321.942,455.230 324.762,444.211 326.454,432.347 C326.737,431.216 326.737,429.803 327.019,428.672 C347.042,429.803 366.785,430.369 385.682,429.803 C418.116,429.238 448.575,423.872 476.779,415.112 C473.958,430.085 471.138,445.342 468.318,460.034 C467.191,464.837 468.882,469.075 471.984,471.900 ZM297.969,458.055 C296.841,460.599 296.558,462.575 297.123,464.553 C277.098,464.553 257.073,465.400 238.178,469.075 C237.613,460.599 237.331,452.124 237.049,443.648 C237.049,435.172 237.613,426.697 237.613,418.221 C259.894,422.175 282.457,425.000 304.737,426.697 C304.737,437.713 302.764,448.167 297.969,458.055 ZM591.568,470.203 C557.159,470.487 523.034,471.334 488.906,471.616 C489.470,470.769 490.316,470.203 490.880,469.356 C496.521,460.034 498.777,447.886 501.597,437.432 C504.701,426.131 507.238,414.265 509.213,402.683 C526.699,395.054 543.341,385.732 559.134,375.559 C563.364,384.882 567.876,393.923 571.260,402.399 C580.005,424.719 586.492,447.320 591.568,470.203 ZM323.916,334.878 C234.793,335.159 107.877,323.012 36.804,259.162 C162.309,232.323 288.097,211.981 416.141,199.833 C497.367,192.204 596.927,174.123 676.743,201.528 C572.671,278.938 456.191,334.594 323.916,334.878 Z" class="cls-1"/>
</svg>
