<svg viewBox="0 0 284 277"><path d="M141.889.023C63.536.023 0 63.548 0 141.913c0 62.69 40.655 115.875 97.032 134.637 7.091 1.313 9.695-3.078 9.695-6.826 0-3.383-.132-14.56-.193-26.416-39.474 8.583-47.803-16.741-47.803-16.741-6.454-16.4-15.754-20.762-15.754-20.762-12.874-8.806.97-8.625.97-8.625 14.248 1 21.75 14.622 21.75 14.622 12.656 21.691 33.194 15.42 41.29 11.795 1.274-9.171 4.951-15.43 9.009-18.974-31.516-3.587-64.645-15.754-64.645-70.122 0-15.49 5.543-28.148 14.62-38.084-1.474-3.574-6.33-18.006 1.374-37.55 0 0 11.915-3.813 39.03 14.544 11.317-3.143 23.455-4.72 35.514-4.774 12.058.054 24.205 1.63 35.545 4.774 27.081-18.357 38.98-14.544 38.98-14.544 7.723 19.544 2.864 33.976 1.39 37.55 9.099 9.936 14.604 22.593 14.604 38.084 0 54.497-33.193 66.497-64.789 70.01 5.09 4.403 9.624 13.038 9.624 26.275 0 18.985-.164 34.265-.164 38.938 0 3.776 2.554 8.2 9.746 6.807 56.346-18.783 96.95-71.95 96.95-134.619C283.775 63.548 220.248.023 141.889.023"/></svg>