<?xml version="1.0" standalone="no"?>
<!DOCTYPE svg PUBLIC "-//W3C//DTD SVG 20010904//EN"
 "http://www.w3.org/TR/2001/REC-SVG-20010904/DTD/svg10.dtd">
<svg version="1.0" xmlns="http://www.w3.org/2000/svg"
 width="181.000000pt" height="181.000000pt" viewBox="0 0 181.000000 181.000000"
 preserveAspectRatio="xMidYMid meet">
<metadata>
Created by potrace 1.16, written by Peter Selinger 2001-2019
</metadata>
<g transform="translate(0.000000,181.000000) scale(0.100000,-0.100000)"
fill="#000000" stroke="none">
<path d="M784 1472 c-4 -18 -29 -49 -70 -86 -35 -31 -61 -50 -58 -41 14 35
-41 60 -65 31 -17 -20 2 -53 31 -58 20 -4 19 -6 -13 -20 -20 -9 -40 -21 -43
-27 -5 -8 -13 -8 -27 -1 -28 16 -24 -6 6 -34 32 -30 29 -51 -19 -141 -20 -38
-36 -74 -36 -81 0 -7 -10 -14 -22 -16 -17 -2 -24 -11 -26 -32 -2 -16 1 -33 7
-39 13 -13 15 -84 2 -91 -4 -3 -6 -30 -4 -61 4 -57 -6 -71 -25 -32 -9 18 -9
16 -5 -17 5 -30 3 -38 -8 -34 -17 5 -60 79 -53 90 3 4 -2 5 -10 2 -14 -5 -14
-8 0 -21 8 -9 13 -22 10 -29 -3 -8 -1 -14 4 -14 6 0 10 -7 10 -15 0 -8 6 -15
13 -15 6 0 4 -5 -6 -11 -23 -13 -29 -8 -43 39 -8 26 -12 30 -13 15 -1 -12 3
-33 8 -46 8 -21 6 -26 -14 -35 -20 -9 -25 -8 -30 8 -8 25 -44 70 -57 70 -5 0
4 -16 21 -35 47 -54 16 -92 -36 -43 -13 12 -23 17 -23 11 0 -6 7 -16 15 -23
19 -16 19 -30 1 -30 -7 0 -23 21 -34 47 -25 56 -30 44 -6 -13 15 -35 15 -39
-2 -51 -10 -7 -29 -13 -43 -13 -21 0 -29 8 -44 43 -9 23 -17 46 -17 50 0 15
39 6 43 -10 4 -14 5 -12 6 5 1 17 -4 22 -22 22 -13 0 -32 -7 -43 -16 -10 -8
-14 -13 -8 -10 7 4 21 -16 34 -49 12 -30 26 -53 30 -50 5 3 15 -4 23 -15 13
-19 16 -19 148 34 l134 55 23 -25 c43 -46 105 -40 118 11 l6 25 167 0 c126 -1
170 -4 184 -15 11 -7 25 -11 33 -8 16 6 170 -53 196 -74 20 -17 48 -14 59 7 4
8 29 62 55 120 26 58 58 116 71 131 27 29 29 46 8 69 -8 9 -18 32 -22 51 -6
32 -6 33 11 16 20 -20 37 -22 54 -5 9 9 12 9 12 -2 0 -7 2 -11 5 -8 8 8 -5 58
-15 58 -5 0 -6 -8 -3 -19 8 -30 -18 -37 -39 -11 -26 32 -23 44 15 58 47 17 51
16 64 -18 7 -19 18 -30 30 -29 15 1 15 2 2 6 -16 4 -29 31 -29 61 0 26 32 10
46 -24 8 -20 17 -34 20 -32 2 3 -3 21 -11 41 -23 54 12 61 78 15 16 -11 31
-17 34 -14 4 3 4 7 2 9 -2 1 -17 10 -34 19 -36 20 -44 38 -17 38 10 0 24 -10
30 -22 11 -21 11 -21 5 6 -7 32 7 46 50 46 15 0 27 5 27 10 0 25 29 6 44 -27
15 -36 15 -25 0 25 -5 16 -2 22 10 22 9 0 16 -8 16 -19 0 -10 8 -25 18 -32 15
-12 16 -12 6 1 -7 8 -15 34 -19 57 -4 24 -11 45 -15 48 -5 3 -30 -6 -56 -20
-26 -14 -52 -25 -58 -25 -7 0 -73 -25 -149 -55 -75 -30 -139 -55 -141 -55 -11
0 -15 82 -4 100 15 24 2 52 -28 60 -59 16 -139 120 -128 165 5 22 3 25 -19 25
-13 0 -40 6 -59 14 -18 8 -71 24 -117 36 -46 11 -90 28 -98 36 -24 24 -53 17
-59 -14z m93 -28 c13 -4 21 -9 19 -13 -2 -3 15 -7 37 -8 30 -1 47 -8 61 -25
11 -13 17 -16 13 -7 -4 13 -1 16 13 12 27 -7 30 -25 9 -52 -11 -13 -19 -19
-19 -15 0 5 -8 -3 -18 -19 -10 -15 -22 -24 -27 -20 -4 5 -5 2 -1 -5 11 -19
-40 -71 -64 -65 -17 5 -26 30 -35 105 -2 15 -9 36 -14 47 -13 23 -15 71 -3 71
4 0 17 -3 29 -6z m242 -127 c10 -15 11 -22 2 -25 -19 -6 -12 -22 9 -22 11 0
20 -4 20 -10 0 -5 -9 -10 -20 -10 -11 0 -20 -4 -20 -9 0 -5 11 -8 25 -8 16 0
25 5 25 15 0 11 8 8 30 -13 45 -43 40 -55 -22 -54 -29 1 -43 4 -30 6 13 3 22
11 21 21 0 11 -3 12 -6 5 -2 -7 -13 -13 -24 -13 -10 0 -19 -3 -19 -7 0 -10
-68 -9 -77 1 -3 3 -14 6 -24 6 -9 0 -20 6 -22 13 -3 7 -6 6 -6 -5 -1 -11 9
-18 27 -21 19 -3 15 -4 -15 -6 -51 -1 -61 11 -37 47 10 16 19 22 22 14 4 -14
38 -16 47 -2 3 6 -3 10 -14 10 -12 0 -21 5 -21 10 0 10 22 13 78 10 17 -1 32
3 32 9 0 6 -18 11 -40 11 -45 0 -48 5 -20 35 25 26 60 23 79 -8z m-375 -117
c116 -37 122 -48 71 -119 -20 -28 -41 -51 -47 -51 -5 0 -6 -4 -3 -10 3 -5 1
-10 -5 -10 -6 0 -9 -4 -6 -9 8 -12 -21 -34 -34 -26 -17 10 -11 25 8 18 11 -3
9 1 -6 12 -15 11 -22 24 -19 36 3 12 0 19 -9 19 -8 0 -14 8 -14 18 0 9 -6 35
-14 57 -18 55 -27 95 -21 95 2 0 47 -14 99 -30z m476 -50 c0 -6 -21 -47 -46
-91 -42 -72 -70 -99 -103 -99 -9 0 -131 176 -131 189 0 7 49 11 140 11 91 0
140 -4 140 -10z m-289 -42 c9 -17 9 -20 -4 -15 -8 3 -20 0 -26 -6 -8 -8 -11
-8 -11 2 0 28 -26 -8 -28 -38 -2 -24 2 -31 15 -31 15 0 16 2 3 10 -10 6 -11
10 -2 10 6 0 12 8 12 18 1 16 1 16 11 -1 5 -9 7 -22 3 -29 -7 -11 20 -7 59 8
10 3 25 -10 46 -40 17 -24 31 -47 31 -50 0 -13 -76 -28 -114 -21 -22 4 -67 8
-99 11 -32 2 -62 6 -67 9 -5 3 5 26 21 51 25 36 35 43 51 38 18 -5 20 -3 16
20 -3 14 -1 26 3 26 5 0 8 3 8 8 -4 22 4 31 29 35 15 2 28 5 29 6 1 0 7 -9 14
-21z m-299 -5 c10 -9 18 -29 18 -45 0 -16 5 -28 13 -28 9 0 9 -2 -1 -9 -10 -6
-9 -10 7 -14 21 -5 27 -31 13 -54 -12 -19 -150 4 -162 27 -13 24 13 88 48 117
32 27 40 28 64 6z m604 -259 c18 -8 35 -18 38 -23 7 -11 -24 -81 -36 -81 -4 0
-5 -7 -2 -15 4 -8 -1 -17 -10 -21 -9 -3 -13 -11 -10 -16 8 -13 -27 -91 -37
-81 -4 4 -19 59 -34 121 -34 149 -23 164 91 116z m-127 -61 c6 -32 18 -83 26
-113 19 -70 15 -84 -27 -75 -18 4 -39 11 -48 15 -8 4 -34 16 -57 25 -25 10
-43 25 -43 33 0 9 23 51 51 94 64 97 82 101 98 21z m-223 -98 c-1 -5 -32 -11
-68 -13 -63 -3 -66 -2 -61 18 3 11 0 27 -7 35 -13 16 -46 20 -54 7 -2 -4 8 -8
22 -7 22 0 27 -4 27 -25 0 -25 0 -25 -108 -28 -83 -2 -108 0 -105 9 2 7 10 15
18 17 8 3 10 0 5 -8 -6 -10 -4 -12 9 -7 10 4 20 7 22 7 2 0 4 6 4 13 0 18 108
57 158 57 37 0 42 3 42 23 1 19 8 14 50 -33 27 -30 48 -59 46 -65z"/>
</g>
</svg>
