<?xml version="1.0" encoding="UTF-8"?>
<svg width="138px" height="138px" viewBox="0 0 138 138" version="1.1" xmlns="http://www.w3.org/2000/svg" xmlns:xlink="http://www.w3.org/1999/xlink">
    <!-- Generator: Sketch 51.2 (57519) - http://www.bohemiancoding.com/sketch -->
    <title>Icon/Dark Circle/Plans</title>
    <desc>Created with Sketch.</desc>
    <defs>
        <path d="M69,128 C101.5848,128 128,101.5848 128,69 C128,36.4151998 101.5848,10 69,10 C36.4151998,10 10,36.4151998 10,69 C10,101.5848 36.4151998,128 69,128 Z" id="path-1"></path>
        <path d="M35.3394696,0.165707143 C50.8194986,0.165707143 64.0053826,11.3716357 66.4439333,26.6014929 L70.0690638,49.2372786 C72.3196145,63.28235 61.426513,76.0001357 47.1507739,76.0001357 L23.5281652,76.0001357 C9.25242609,76.0001357 -1.64067536,63.28235 0.609875362,49.2372786 L4.23364348,26.6014929 C6.67355652,11.3716357 19.8594406,0.165707143 35.3394696,0.165707143" id="path-3"></path>
        <polygon id="path-5" points="0.167567539 0.991741935 9.99878488 0.991741935 9.99878488 10.7697695 0.167567539 10.7697695"></polygon>
        <path d="M66.265231,54.4133032 C65.9042828,65.3780129 53.2792655,76.9239484 38.1861793,76.4348516 C23.0930931,75.9457548 11.2485414,63.6058839 11.6081276,52.6411742 C11.9677138,41.6778194 12.8734897,32.8090452 39.5863862,33.6747871 C65.0720586,34.5012387 66.6248172,43.4485935 66.265231,54.4133032" id="path-7"></path>
        <path d="M0.35102439,19.2568182 C-0.00956097561,30.2913636 11.8665366,42.7113636 27.001561,43.2036364 C42.1379512,43.6959091 54.7980488,32.075 55.1586341,21.0390909 C55.5192195,10.0045455 53.9635122,0.996363636 28.4070244,0.165909091 C27.1941463,0.126363636 26.0345366,0.107272727 24.9254634,0.107272727 C1.53931707,0.107272727 0.695219512,8.72 0.35102439,19.2568182 Z" id="path-9"></path>
    </defs>
    <g id="Symbols" stroke="none" stroke-width="1" fill="none" fill-rule="evenodd">
        <g id="3-Icon-+-Header-Module" transform="translate(-81.000000, -86.000000)">
            <g id="Icon/Dark-Circle/Plans" transform="translate(91.000000, 96.000000)">
                <g id="Plans-Icon" transform="translate(-10.000000, -10.000000)">
                    <path d="M69,128 C101.5848,128 128,101.5848 128,69 C128,36.4151998 101.5848,10 69,10 C36.4151998,10 10,36.4151998 10,69 C10,101.5848 36.4151998,128 69,128 Z M69,138 C30.8923523,138 0,107.107648 0,69 C0,30.8923523 30.8923523,0 69,0 C107.107648,0 138,30.8923523 138,69 C138,107.107648 107.107648,138 69,138 Z" id="Oval-5-Copy-2" fill="#FFFFFF" fill-rule="nonzero"></path>
                    <mask id="mask-2" fill="white">
                        <use xlink:href="#path-1"></use>
                    </mask>
                    <use id="Path" fill="#1C272B" fill-rule="nonzero" xlink:href="#path-1"></use>
                    <g id="Illustration/Spaceman/Front-facing" mask="url(#mask-2)">
                        <g transform="translate(24.000000, 13.000000)" id="Group-44">
                            <g>
                                <g id="Group-14" transform="translate(0.000000, 70.000000)">
                                    <g id="Group-3" transform="translate(9.536232, 0.000000)" fill="#EDE7E1">
                                        <path d="M35.8032377,0.165707143 C51.2832667,0.165707143 64.4691507,11.3716357 66.9077014,26.6014929 L70.5328319,49.2372786 C72.7833826,63.28235 61.8902812,76.0001357 47.614542,76.0001357 L23.9919333,76.0001357 C9.7161942,76.0001357 -1.17690725,63.28235 1.07364348,49.2372786 L4.69741159,26.6014929 C7.13732464,11.3716357 20.3232087,0.165707143 35.8032377,0.165707143" id="Fill-1"></path>
                                    </g>
                                    <path d="M59.930742,32.1348929 L54.516887,32.1348929 C53.2962493,32.1348929 52.3072058,31.14825 52.3072058,29.9336071 L52.3072058,24.5403214 C52.3072058,23.3243214 53.2962493,22.3390357 54.516887,22.3390357 L59.930742,22.3390357 C61.1513797,22.3390357 62.1404232,23.3243214 62.1404232,24.5403214 L62.1404232,29.9336071 C62.1404232,31.14825 61.1513797,32.1348929 59.930742,32.1348929" id="Fill-4" fill="#F06B38"></path>
                                    <path d="M59.4256725,4.69707143 L52.4369768,11.6361429 C53.7080203,12.0989286 73.3894406,26.6651429 70.494513,57.8807857 C70.3541942,59.3926429 72.9943681,65.4265 78.0730928,65.0899286 C83.1518174,64.7547143 88.4444261,61.9060714 88.1079333,56.8452857 C86.2837884,29.4961429 78.4681652,22.6982143 68.4510348,13.3488571 C61.094513,6.48307143 60.5591217,5.09335714 59.4256725,4.69707143" id="Fill-6" fill="#CCC8C3" style="mix-blend-mode: multiply;"></path>
                                    <path d="M60.7879913,4.35778571 L45.4809768,12.3812143 L45.4237594,12.3622143 C46.7084261,12.7815714 73.502513,19.7396429 72.1429188,53.6573571 C71.9399333,58.7262857 77.1807739,62.3797143 82.244513,61.8667143 C87.3096145,61.3550714 90.900687,56.8588571 90.4851797,51.8035 C88.6896435,29.9915 81.0974406,18.1938571 60.7879913,4.35778571" id="Fill-8" fill="#EDE7E1"></path>
                                    <path d="M31.0923391,4.69707143 L38.0810348,11.6361429 C36.8099913,12.0989286 17.128571,26.6651429 20.0234986,57.8807857 C20.1638174,59.3926429 17.5236435,65.4265 12.4449188,65.0899286 C7.3661942,64.7547143 2.07358551,61.9060714 2.41007826,56.8452857 C4.23422319,29.4961429 12.0498464,22.6982143 22.0669768,13.3488571 C29.4234986,6.48307143 29.9588899,5.09335714 31.0923391,4.69707143" id="Fill-10" fill="#CCC8C3" style="mix-blend-mode: multiply;"></path>
                                    <path d="M29.7300203,4.35778571 L45.0370348,12.3812143 L45.0942522,12.3622143 C43.8095855,12.7815714 17.0154986,19.7396429 18.3750928,53.6573571 C18.5780783,58.7262857 13.3372377,62.3797143 8.27349855,61.8667143 C3.2083971,61.3550714 -0.382675362,56.8588571 0.0328318841,51.8035 C1.82836812,29.9915 9.42057101,18.1938571 29.7300203,4.35778571" id="Fill-12" fill="#EDE7E1"></path>
                                    <g id="Group" transform="translate(10.000000, 0.000000)">
                                        <mask id="mask-4" fill="white">
                                            <use xlink:href="#path-3"></use>
                                        </mask>
                                        <use id="Fill-1" fill="#EDE7E1" opacity="0" xlink:href="#path-3"></use>
                                        <path d="M67.4969692,-16.6275786 C66.9317,1.78885 52.3958154,16.2342786 35.0335846,15.6330643 C17.6699885,15.0332071 4.05300769,-0.383935714 4.61827692,-18.8017214 C5.18354615,-37.2195071 19.7194308,-51.6622214 37.0830269,-51.0637214 C54.4452577,-50.4638643 68.0636038,-35.0453643 67.4969692,-16.6275786" id="Fill-15" fill="#CCC8C3" mask="url(#mask-4)"></path>
                                    </g>
                                </g>
                                <g id="Group-40" transform="translate(6.000000, 0.000000)">
                                    <polygon id="Fill-18" fill="#726B65" points="41.4926017 22.4236645 38.4211362 22.3247613 38.8420155 9.49579355 41.913481 9.59605161"></polygon>
                                    <path d="M7.97031379,60.4729548 L3.52315862,59.4378581 C1.98946897,59.0828903 0.843968966,57.8079871 0.656003448,56.2512774 L0.184727586,52.3344387 C-0.00323793103,50.777729 0.809917241,49.2697935 2.21557241,48.5639226 L6.2936069,46.5154065 L7.97031379,60.4729548 Z" id="Fill-20" fill="#726B65"></path>
                                    <path d="M69.381781,62.4642968 L73.8875052,61.7191355 C75.4416259,61.463071 76.66885,60.2667484 76.9576086,58.7249419 L77.6849534,54.8460387 C77.9737121,53.3055871 77.26135,51.7488774 75.9033672,50.9522323 L71.9697121,48.6449419 L69.381781,62.4642968 Z" id="Fill-22" fill="#726B65"></path>
                                    <path d="M72.5262534,50.9481677 C71.924219,69.333329 56.4497534,83.7528774 37.9664776,83.1540387 C19.4818397,82.5552 4.98533966,67.1642323 5.58737414,48.7763613 C6.18940862,30.3912 21.6625121,15.9730065 40.1485121,16.5704903 C58.6317879,17.169329 73.1282879,32.5616516 72.5262534,50.9481677" id="Fill-24" fill="#EDE7E1"></path>
                                    <g id="Group-28" transform="translate(35.413793, 0.000000)">
                                        <mask id="mask-6" fill="white">
                                            <use xlink:href="#path-5"></use>
                                        </mask>
                                        <g id="Clip-27"></g>
                                        <path d="M9.99611897,6.04000645 C9.90894655,8.73884516 7.63701552,10.8564581 4.92377414,10.7670387 C2.21053276,10.680329 0.0829810345,8.42045806 0.170153448,5.72161935 C0.26005,3.02278065 2.53061897,0.906522581 5.24386034,0.993232258 C7.95710172,1.08265161 10.0846534,3.34116774 9.99611897,6.04000645" id="Fill-26" fill="#F06B38" mask="url(#mask-6)"></path>
                                    </g>
                                    <path d="M42.0220379,2.64884516 C42.0220379,3.10407097 41.410469,3.47394194 40.6545207,3.47394194 C39.8985724,3.47394194 39.2870034,3.10407097 39.2870034,2.64884516 C39.2870034,2.19226452 39.8985724,1.82239355 40.6545207,1.82239355 C41.410469,1.82239355 42.0220379,2.19226452 42.0220379,2.64884516" id="Fill-29" fill="#FFFFFF" style="mix-blend-mode: soft-light;"></path>
                                    <path d="M40.5868259,8.80387742 C38.4279466,8.73478065 36.580981,7.53168387 35.5853086,5.79071613 C35.5362741,8.45839355 37.647481,10.680329 40.3375672,10.7670387 C42.8247052,10.848329 44.9318259,9.0762 45.3377224,6.70387742 C44.1976707,8.03974839 42.4841879,8.8662 40.5868259,8.80387742" id="Fill-31" fill="#DF5B35"></path>
                                    <mask id="mask-8" fill="white">
                                        <use xlink:href="#path-7"></use>
                                    </mask>
                                    <use id="Fill-36" fill="#B2CAD4" xlink:href="#path-7"></use>
                                    <path d="M65.3361756,40.5334091 C65.3361756,40.5334091 65.4782244,81.6893182 18.0885659,70.9929545 L2.79373659,91.7843182 L91.9170537,77.4320455 L65.3361756,40.5334091 Z" id="Fill-41" fill="#A2BAC8" mask="url(#mask-8)"></path>
                                    <path d="M25.0467086,41.1625742 C26.7097948,39.5530258 24.4378638,36.7417355 22.2980534,37.6386387 C15.9317431,40.307671 14.4607086,46.2743806 14.2427776,52.8751548 C14.113381,56.8543161 15.7628466,61.0353484 18.6667776,64.641929 C19.0931052,65.1703161 19.9443983,64.7489613 19.7795879,64.0918645 C17.7487431,55.9750258 17.6615707,48.3134129 25.0467086,41.1625742" id="Fill-38" fill-opacity="0.7" fill="#F0F4F8" style="mix-blend-mode: soft-light;" mask="url(#mask-8)"></path>
                                </g>
                                <g id="Group-43" transform="translate(18.000000, 34.000000)">
                                    <mask id="mask-10" fill="white">
                                        <use xlink:href="#path-9"></use>
                                    </mask>
                                    <g id="Clip-42"></g>
                                </g>
                            </g>
                        </g>
                    </g>
                </g>
            </g>
        </g>
    </g>
</svg>