<svg xmlns="http://www.w3.org/2000/svg" width="138" height="138" viewBox="0 0 138 138">
    <g fill="none" fill-rule="evenodd" transform="translate(10 10)">
        <circle cx="59" cy="59" r="64" fill="#1C272B" stroke="#FFF" stroke-width="10"/>
        <path fill="#F26F40" d="M20.129 82.216l2.826 1.641L62.49 61.045l-2.826-1.642z"/>
        <path fill="#D44F27" d="M59.664 59.403l2.825 1.642-.128-45.404L59.535 14zM20.129 82.216l2.826 1.641-.129-45.403L20 36.813z"/>
        <path fill="#F3815B" d="M59.535 14L20 36.813l2.826 1.641L62.36 15.641z"/>
        <path fill="#F26F40" d="M54.447 28.413l.08 28.09-24.461 14.115-.08-28.09z"/>
        <path fill="#D44F27" d="M30.066 70.618l-2.826-1.641-.08-28.091 2.826 1.641z"/>
        <path fill="#F3815B" d="M29.986 42.527l-2.826-1.641 24.461-14.114 2.826 1.64z"/>
        <path fill="#F26F40" d="M69.65 65.065L30.115 87.878l-2.825-1.642 39.534-22.813z"/>
        <path fill="#D44F27" d="M69.521 19.66l.129 45.405-2.826-1.642-.128-45.403zM30.115 87.877l-2.825-1.641-.13-45.403 2.826 1.641z"/>
        <path fill="#F3815B" d="M29.986 42.474l-2.826-1.641L66.696 18.02l2.825 1.64z"/>
        <path fill="#F26F40" d="M61.663 32.583l.08 28.091-24.46 14.114-.08-28.09z"/>
        <path fill="#D44F27" d="M37.282 74.788l-2.826-1.64-.08-28.092 2.826 1.64z"/>
        <path fill="#F3815B" d="M37.202 46.697l-2.825-1.641 24.46-14.114 2.826 1.64z"/>
        <path fill="#F26F40" d="M76.864 69.286L37.328 92.1l-2.825-1.641 39.535-22.813z"/>
        <path fill="#D44F27" d="M76.735 23.883l.129 45.403-2.826-1.641-.129-45.404zM37.328 92.099l-2.825-1.641-.129-45.404 2.826 1.642z"/>
        <path fill="#F3815B" d="M37.2 46.696l-2.826-1.642L73.91 22.242l2.826 1.64z"/>
        <path fill="#F26F40" d="M68.869 36.753l.08 28.09-24.46 14.115-.08-28.09z"/>
        <path fill="#D44F27" d="M44.488 78.958l-2.825-1.641-.08-28.091 2.825 1.641z"/>
        <path fill="#F3815B" d="M44.409 50.867l-2.826-1.641 24.46-14.114 2.826 1.64z"/>
        <path fill="#F26F40" d="M84.077 73.456L44.542 96.269l-2.826-1.642L81.25 71.814z"/>
        <path fill="#D44F27" d="M83.948 28.052l.129 45.404-2.826-1.642-.129-45.403zM44.542 96.269l-2.826-1.642-.129-45.403 2.826 1.641z"/>
        <path fill="#F3815B" d="M44.413 50.865l-2.826-1.641L81.122 26.41l2.826 1.641z"/>
        <path fill="#F26F40" d="M76.091 40.911l.08 28.092-24.46 14.114-.08-28.091z"/>
        <path fill="#D44F27" d="M51.71 83.117l-2.825-1.641-.08-28.091 2.826 1.64z"/>
        <path fill="#F3815B" d="M51.63 55.026l-2.825-1.641 24.46-14.114 2.826 1.64z"/>
        <path fill="#F26F40" d="M91.321 77.632l-39.535 22.813-2.826-1.641L88.496 75.99z"/>
        <path fill="#D44F27" d="M91.192 32.228l.13 45.404-2.826-1.642-.13-45.403zM51.786 100.445l-2.826-1.641-.128-45.404 2.826 1.641z"/>
        <path fill="#F3815B" d="M51.657 55.041L48.832 53.4l39.535-22.813 2.825 1.641z"/>
        <path fill="#F26F40" d="M83.348 45.205l.08 28.091-24.46 14.115-.08-28.091z"/>
        <path fill="#D44F27" d="M58.967 87.41l-2.825-1.64-.08-28.092 2.826 1.641z"/>
        <path fill="#F3815B" d="M58.888 59.32l-2.826-1.642 24.46-14.114 2.826 1.641z"/>
        <path fill="#F26F40" d="M56.205 103.003l2.825 1.64 39.536-22.812-2.826-1.641z"/>
        <path fill="#D44F27" d="M95.74 80.19l2.826 1.641-.129-45.403-2.826-1.642zM56.205 103.003l2.825 1.64-.128-45.402-2.826-1.642z"/>
        <path fill="#F3815B" d="M58.902 59.24l-2.826-1.64 39.535-22.813 2.826 1.64z"/>
        <path fill="#F26F40" d="M91.187 49.599l.08 28.091-24.46 14.114-.08-28.09z"/>
        <path fill="#D44F27" d="M66.806 91.804l-2.825-1.642-.08-28.09 2.826 1.64z"/>
        <path fill="#F3815B" d="M66.727 63.713L63.9 62.07l24.46-14.114 2.826 1.642z"/>
        <path fill="#D44F27" d="M48.96 98.804L48.805 53.4l-4.392-2.535.129 45.382zM56.207 103.002l-.155-45.403-4.393-2.535.129 45.381zM41.743 94.633l-.155-45.404-4.392-2.535.128 45.382zM34.535 90.442L34.38 45.04l-4.393-2.535.13 45.382zM27.353 86.31l-.193-45.477-4.334-2.379.108 45.3z"/>
        <path fill="#F8AC85" d="M22.826 38.454L62.36 15.641l4.335 2.379L27.16 40.833zM29.986 42.474l39.535-22.813 4.388 2.58L34.4 45.035zM37.202 46.697l39.533-22.815 4.387 2.529-39.54 22.815zM44.409 50.867l39.539-22.815 4.419 2.535-39.562 22.798zM51.63 55.026l39.563-22.798 4.418 2.559L56.076 57.6z"/>
    </g>
</svg>
