<svg xmlns="http://www.w3.org/2000/svg" xmlns:xlink="http://www.w3.org/1999/xlink" width="138" height="138" viewBox="0 0 138 138">
    <defs>
        <path id="a" d="M.076.202h43.073V15H.076z"/>
        <path id="c" d="M0 .19h75.512v55.709H0z"/>
    </defs>
    <g fill="none" fill-rule="evenodd" transform="translate(10 10)">
        <circle cx="59" cy="59" r="64" fill="#1C272B" stroke="#FFF" stroke-width="10"/>
        <g transform="translate(37.75 78.81)">
            <mask id="b" fill="#fff">
                <use xlink:href="#a"/>
            </mask>
            <path fill="#4F485C" d="M34.235 9.756h-1.852V.202h-21.54v9.554H8.99c-3.405 0-6.582 1.71-8.457 4.551L.076 15H43.149l-.457-.693a10.133 10.133 0 0 0-8.457-4.551" mask="url(#b)"/>
        </g>
        <g transform="translate(21 25.06)">
            <mask id="d" fill="#fff">
                <use xlink:href="#c"/>
            </mask>
            <path fill="#7D728E" d="M69.756 44.295h-64V6.689H69.75v8.657h.006v28.949zm5.75-34.388V5.934c0-3.173-2.602-5.744-5.811-5.744H5.812C2.602.19 0 2.76 0 5.934v44.222c0 3.172 2.602 5.743 5.812 5.743H69.7c3.21 0 5.812-2.571 5.812-5.743V9.907h-.005z" mask="url(#d)"/>
        </g>
        <path fill="#494756" d="M26.274 70.738h65.992V31.046H26.273z"/>
        <path fill="#FFF2D9" d="M60.144 75.034a1.487 1.487 0 1 1-2.975 0 1.487 1.487 0 0 1 2.975 0"/>
        <path fill="#F97E53" d="M32.919 63.315h2.64V50.09h-2.64zM37.591 63.315h2.641V52.98h-2.64zM42.365 63.315h2.641v-7.444h-2.64zM47.14 63.315h2.64v-5.232h-2.64zM51.913 63.315h2.642v-4.137h-2.642z"/>
        <path fill="#CEC3AA" d="M32.919 66.391h22.143v-1.145H32.92zM73.456 43.522a.75.75 0 0 1-.749.749h-7.641a.75.75 0 0 1-.752-.75V35.28a.75.75 0 0 1 .752-.749h7.641a.75.75 0 0 1 .75.749v8.243z"/>
        <path fill="#7B7A87" d="M83.295 43.522a.75.75 0 0 1-.75.749h-7.643a.749.749 0 0 1-.75-.75V35.28a.75.75 0 0 1 .75-.749h7.643a.75.75 0 0 1 .75.749v8.243zM73.456 54.142a.75.75 0 0 1-.749.748h-7.641a.75.75 0 0 1-.752-.748v-8.244a.75.75 0 0 1 .752-.75h7.641a.75.75 0 0 1 .75.75v8.244z"/>
        <path fill="#CEC3AA" d="M83.295 54.142a.75.75 0 0 1-.75.748h-7.643a.749.749 0 0 1-.75-.748v-8.244a.75.75 0 0 1 .75-.75h7.643a.75.75 0 0 1 .75.75v8.244z"/>
        <path fill="#F99D78" d="M42.368 68.114a.455.455 0 1 1 .91 0 .455.455 0 0 1-.91 0M43.697 68.114a.454.454 0 1 1 .909-.001.454.454 0 0 1-.91 0M40.978 68.114a.454.454 0 1 1 .909-.001.454.454 0 0 1-.91 0"/>
        <path fill="#CEC3AA" d="M45.141 48.993l-4.006-11.018-3.28 6.953h-4.75a.78.78 0 0 1 0-1.561h3.76l4.457-9.448 4.039 11.108 3.351-6.776 3.38 5.116h2.752a.781.781 0 0 1 0 1.561h-3.592l-2.345-3.549-3.766 7.614z"/>
        <path fill="#7D9199" d="M62.79 59.915h22.144V58.77H62.791zM62.79 62.834h22.144V61.69H62.791zM62.79 65.754h22.144v-1.145H62.791z"/>
    </g>
</svg>
