<svg width="160" height="90" xmlns="http://www.w3.org/2000/svg"><path d="M37.471 45.942c5.7-.31 10.987-.053 13.456 1.29-.173-2.744-5.189-4.224-11.392-4.797 5.95-10.351 10.55-20.516 12.006-27.026C53.93 4.71 47.26.272 41.217.333c-8.242.084-29.986 18.25-33.515 25.78-3.53 7.531-1.689 12.062.205 13.549 1.97 1.162 13.529-7.225 14.65-11.142-2.059 1.78-6.495 6.33-11.687 6.51 4.6-11.174 31.696-31.594 33.88-29.26 3.157 3.375-4.047 19.712-13.85 36.408-6.267.157-12.14 1.004-14.412 2.23-2.887 1.557-3.156 3.913-2.15 5.896.79 1.437 6.837.14 8.506-.9-1.24 0-4.866.364-5.683.01 1.434-.801 5.763-1.793 10.915-2.53C19.506 60.843 7.123 77.637.5 83.011c8.162 3.139 25.695-18.34 36.971-37.07zM64.633 32.65s1.854-2.658 3.903-5.286l.386-.492c1.485-1.879 3.016-3.655 3.977-4.331 2.383-1.675-1.225-5.8-2.973-5.542-2.218 2.363-5.975 7.781-6.66 10.408-.686 2.626.553 4.7 1.367 5.243zM28.36 87.225c11.034-7.084 32.616-43.015 34.101-47.832 1.233-3.997-2.03-7.018-3.174-6.549-.913 4.684-21.938 39.743-32.131 47.308-1.831 1.359-5.51 3.964-8.829 1.997-1.517 4.067 1.56 10.517 10.033 5.076zm33.08-15.48c3.86-2.55 8.166-7.045 11.939-12.177.162.841.48 1.437.841 1.693 1.622 1.146 4.272-.563 6.21-2.554 5.172-5.31 10.096-10.673 10.902-13.682-2.347 3.482-6.688 8.362-11.37 12.872-1.684 1.623-4.043 3.005-4.428 2.264-.621-1.195 1.633-5.91 3.214-9.033v-.002c2.596-4.811 4.37-9.585 4.64-13.422-.275-1.94-1.563-5.048-4.173-4.375-9.446 2.435-23.447 25.121-23.212 31.504.075 2.04 2.197 6.413 5.436 6.913zm-.285-1.43c-.694-8.547 12.32-29.285 21.143-32.32-.7 3.728-2.302 8.3-4.738 12.98-1.011.167-2.401.957-3.37 3.19-.615 1.42-.881 2.736-.92 3.846-3.26 4.608-7.32 8.954-12.115 12.305zm30.803 1.189c2.61-1.064 24.1-20.026 25.892-26.721-4.953 7.347-18.988 20.716-25.27 24.779 5.383-16.178 13.878-25.719 16.761-28.63l.294-.292c.45-.444.702-.666.702-.666.367-2.002-1.745-5.444-3.26-5.85-1.514-.406-12.982 1.69-17.526 4.318.785-.125 4.005 2.015 3.285 3.025-4.898 6.8-3.746 6.968 1.776-.666 2.98-.778 8.246-1.39 8.246-1.39-3.457 3.404-14.464 18.516-15.645 24.122-.783 3.718 2.677 8.096 4.745 7.971zM126.776 71c2.61-1.064 24.1-20.026 25.892-26.721-4.924 7.303-18.815 20.55-25.153 24.702 4.341-10.368 21.866-36.833 30.86-44.972 2.2-1.991 1.567-9.525-1.325-10.495-1.875 3.904-9.84 14.186-17.638 24.799-1.905-3.475-6.422-6.72-9.477-5.543-8.709 3.35-23.939 24.527-24.741 29.908-.473 3.167.225 7.32 3.639 8.322 1.89-.771 13.128-9.873 19.853-17.374-2.89 4.487-5.043 8.372-5.789 11.008-.573 2.026 1.333 5.506 3.88 6.366zm-17.544-1.79c3.485-13.254 19.617-31.567 23.754-33 1.992-.691 4.245 1.305 5.034 4.002-1.495 2.051-2.97 4.1-4.382 6.105l-.01.015c-.192.273-.384.545-.573.816-5.394 7.45-17.977 18.5-23.823 22.061z" fill="#FFF" fill-rule="nonzero"/></svg>