<svg xmlns="http://www.w3.org/2000/svg" xmlns:xlink="http://www.w3.org/1999/xlink" style="enable-background:new 0 0 3593.3 853.9" id="Layer_1" x="0" y="0" version="1.1" viewBox="0 0 3593.3 853.9" xml:space="preserve"><style type="text/css">.st0{fill:#172b4d}.st1{clip-path:url(#SVGID_2_)}.st2{opacity:.5;fill:url(#SVGID_3_)}.st2,.st3,.st4,.st5,.st6{enable-background:new}.st3{opacity:.12;fill:url(#SVGID_4_)}.st4,.st5{opacity:.5;fill:url(#SVGID_5_)}.st5{fill:url(#SVGID_6_)}.st6{opacity:.19;fill:url(#SVGID_7_)}.st10,.st11{opacity:.5;enable-background:new}.st7{fill:url(#SVGID_8_)}.st7,.st8,.st9{opacity:.5;enable-background:new}.st8{fill:url(#SVGID_9_)}.st9{fill:url(#SVGID_10_)}.st10{fill:url(#SVGID_11_)}.st11{fill:url(#SVGID_12_)}.st12{fill:url(#SVGID_13_)}.st12,.st13{opacity:.5;enable-background:new}.st13,.st14{fill:#00a3bf}.st15{fill:none;stroke:#00a3bf;stroke-width:14.98;stroke-miterlimit:10}.st16,.st17{opacity:.5;fill:url(#SVGID_14_);enable-background:new}.st17{fill:url(#SVGID_15_)}.st18{fill:none;stroke:#00a3bf;stroke-width:20;stroke-miterlimit:10}.st19{fill:url(#SVGID_16_)}.st19,.st20,.st21{opacity:.5;enable-background:new}.st20{fill:url(#SVGID_17_)}.st21{fill:url(#SVGID_18_)}.st22{fill:none;stroke:#00a3bf;stroke-width:10.84;stroke-miterlimit:10}</style><title>Artboard 31</title><g id="BG"><rect width="3593.3" height="854" y="0" class="st0"/></g><g id="Layer_3"><g><defs><rect id="SVGID_1_" width="3840" height="854" y="0"/></defs><clipPath id="SVGID_2_"><use style="overflow:visible" xlink:href="#SVGID_1_"/></clipPath><g class="st1"><linearGradient id="SVGID_3_" x1="57.83" x2="625.181" y1="365.204" y2="932.545" gradientTransform="matrix(1 0 0 -1 0 856)" gradientUnits="userSpaceOnUse"><stop style="stop-color:#00a3bf" offset="0"/><stop style="stop-color:#00a3bf;stop-opacity:.3" offset="1"/></linearGradient><path d="M149.6-154.9h383.8c17.9,0,32.4,14.5,32.4,32.4v659.2c0,17.9-14.5,32.4-32.4,32.4H149.6 c-17.9,0-32.4-14.5-32.4-32.4v-659.2C117.2-140.4,131.7-154.9,149.6-154.9z" class="st2"/><linearGradient id="SVGID_4_" x1="599.075" x2="1137.235" y1="186.375" y2="724.545" gradientTransform="matrix(1 0 0 -1 0 856)" gradientUnits="userSpaceOnUse"><stop style="stop-color:#00a3bf" offset="0"/><stop style="stop-color:#00a3bf;stop-opacity:.3" offset="1"/></linearGradient><path d="M674.9,68.5h386.5c17.2,0,31.1,13.9,31.1,31.1v602c0,17.2-13.9,31.1-31.1,31.1H674.9 c-17.2,0-31.1-13.9-31.1-31.1v-602C643.8,82.4,657.8,68.5,674.9,68.5z" class="st3"/><linearGradient id="SVGID_5_" x1="1745.479" x2="2261.871" y1="-346.976" y2="169.416" gradientTransform="matrix(1 0 0 -1 0 856)" gradientUnits="userSpaceOnUse"><stop style="stop-color:#00a3bf" offset="0"/><stop style="stop-color:#00a3bf;stop-opacity:.3" offset="1"/></linearGradient><path d="M1809.4,635.1H2198c16.6,0,30,13.4,30,30v559.3c0,16.6-13.4,30-30,30h-388.6c-16.6,0-30-13.4-30-30V665.1 C1779.4,648.6,1792.8,635.1,1809.4,635.1z" class="st4"/><linearGradient id="SVGID_6_" x1="2799.799" x2="3316.191" y1="-58.806" y2="457.586" gradientTransform="matrix(1 0 0 -1 0 856)" gradientUnits="userSpaceOnUse"><stop style="stop-color:#00a3bf" offset="0"/><stop style="stop-color:#00a3bf;stop-opacity:.3" offset="1"/></linearGradient><path d="M2863.7,347h388.6c16.6,0,30,13.4,30,30v559.3c0,16.6-13.4,30-30,30h-388.6c-16.6,0-30-13.4-30-30V377 C2833.7,360.4,2847.1,347,2863.7,347z" class="st5"/><linearGradient id="SVGID_7_" x1="2026.359" x2="2542.751" y1="423.064" y2="939.456" gradientTransform="matrix(1 0 0 -1 0 856)" gradientUnits="userSpaceOnUse"><stop style="stop-color:#00a3bf" offset="0"/><stop style="stop-color:#00a3bf;stop-opacity:.3" offset="1"/></linearGradient><path d="M2090.2-134.9h388.6c16.6,0,30,13.4,30,30v559.3c0,16.6-13.4,30-30,30h-388.6c-16.6,0-30-13.4-30-30v-559.3 C2060.2-121.5,2073.7-134.9,2090.2-134.9z" class="st6"/><linearGradient id="SVGID_8_" x1="2613.043" x2="2925.227" y1="456.283" y2="768.467" gradientTransform="matrix(1 0 0 -1 0 856)" gradientUnits="userSpaceOnUse"><stop style="stop-color:#00a3bf" offset="0"/><stop style="stop-color:#00a3bf;stop-opacity:.3" offset="1"/></linearGradient><path d="M2551.4,157.4h435.4c11,0,20,9,20,20v132.3c0,11-9,20-20,20h-435.4c-11,0-20-9-20-20V177.4 C2531.4,166.4,2540.4,157.4,2551.4,157.4z" class="st7"/><linearGradient id="SVGID_9_" x1="2613.043" x2="2925.227" y1="211.433" y2="523.617" gradientTransform="matrix(1 0 0 -1 0 856)" gradientUnits="userSpaceOnUse"><stop style="stop-color:#00a3bf" offset="0"/><stop style="stop-color:#00a3bf;stop-opacity:.3" offset="1"/></linearGradient><path d="M2551.4,402.3h435.4c11,0,20,9,20,20v132.4c0,11-9,20-20,20h-435.4c-11,0-20-9-20-20V422.3 C2531.4,411.3,2540.4,402.3,2551.4,402.3z" class="st8"/><linearGradient id="SVGID_10_" x1="3149.309" x2="3461.501" y1="537.914" y2="850.096" gradientTransform="matrix(1 0 0 -1 0 856)" gradientUnits="userSpaceOnUse"><stop style="stop-color:#00a3bf" offset="0"/><stop style="stop-color:#00a3bf;stop-opacity:.3" offset="1"/></linearGradient><path d="M3087.7,75.8h435.4c11,0,20,9,20,20v132.4c0,11-9,20-20,20h-435.4c-11,0-20-9-20-20V95.8 C3067.7,84.8,3076.6,75.8,3087.7,75.8z" class="st9"/><linearGradient id="SVGID_11_" x1="2038.343" x2="2350.527" y1="-55.777" y2="256.407" gradientTransform="matrix(1 0 0 -1 0 856)" gradientUnits="userSpaceOnUse"><stop style="stop-color:#00a3bf" offset="0"/><stop style="stop-color:#00a3bf;stop-opacity:.3" offset="1"/></linearGradient><path d="M1976.7,669.5h435.4c11,0,20,9,20,20v132.3c0,11-9,20-20,20h-435.4c-11,0-20-9-20-20V689.5 C1956.7,678.5,1965.7,669.5,1976.7,669.5z" class="st10"/><linearGradient id="SVGID_12_" x1="823.083" x2="1135.267" y1="449.333" y2="761.517" gradientTransform="matrix(1 0 0 -1 0 856)" gradientUnits="userSpaceOnUse"><stop style="stop-color:#00a3bf" offset="0"/><stop style="stop-color:#00a3bf;stop-opacity:.3" offset="1"/></linearGradient><path d="M761.5,164.4h435.5c11,0,20,9,20,20v132.4c0,11-9,20-20,20H761.5c-11,0-20-9-20-20V184.4 C741.5,173.4,750.4,164.4,761.5,164.4z" class="st11"/><linearGradient id="SVGID_13_" x1="121.803" x2="433.987" y1="390.113" y2="702.297" gradientTransform="matrix(1 0 0 -1 0 856)" gradientUnits="userSpaceOnUse"><stop style="stop-color:#00a3bf" offset="0"/><stop style="stop-color:#00a3bf;stop-opacity:.3" offset="1"/></linearGradient><path d="M60.2,223.6h435.5c11,0,20,9,20,20V376c0,11-9,20-20,20H60.2c-11,0-20-9-20-20V243.6 C40.2,232.6,49.1,223.6,60.2,223.6z" class="st12"/><circle cx="2638.5" cy="235.9" r="51.5" class="st13"/><circle cx="1856.5" cy="732.5" r="51.5" class="st13"/><circle cx="1587.2" cy="119.1" r="51.5" class="st13"/><circle cx="3100.7" cy="854" r="68.7" class="st13"/><circle cx="741.5" cy="330.4" r="51.5" class="st13"/><circle cx="180.9" cy="309.8" r="51.5" class="st14"/><line x1="2725.1" x2="2934.1" y1="470" y2="470" class="st15"/><line x1="2725.1" x2="2934.1" y1="511.1" y2="511.1" class="st15"/><linearGradient id="SVGID_14_" x1="1243.003" x2="1555.187" y1="-93.997" y2="218.187" gradientTransform="matrix(1 0 0 -1 0 856)" gradientUnits="userSpaceOnUse"><stop style="stop-color:#00a3bf" offset="0"/><stop style="stop-color:#00a3bf;stop-opacity:.3" offset="1"/></linearGradient><path d="M1181.4,707.7h435.5c11,0,20,9,20,20v132.3c0,11-9,20-20,20h-435.5c-11,0-20-9-20-20V727.7 C1161.4,716.7,1170.3,707.7,1181.4,707.7z" class="st16"/><line x1="1355.1" x2="1564" y1="775.4" y2="775.4" class="st15"/><line x1="1355.1" x2="1564" y1="816.6" y2="816.6" class="st15"/><linearGradient id="SVGID_15_" x1="1582.783" x2="1894.967" y1="585.313" y2="897.497" gradientTransform="matrix(1 0 0 -1 0 856)" gradientUnits="userSpaceOnUse"><stop style="stop-color:#00a3bf" offset="0"/><stop style="stop-color:#00a3bf;stop-opacity:.3" offset="1"/></linearGradient><path d="M1521.2,28.4h435.5c11,0,20,9,20,20v132.4c0,11-9,20-20,20h-435.5c-11,0-20-9-20-20V48.4 C1501.2,37.4,1510.1,28.4,1521.2,28.4z" class="st17"/><line x1="1694.9" x2="1903.8" y1="96.1" y2="96.1" class="st15"/><line x1="1694.9" x2="1903.8" y1="137.2" y2="137.2" class="st15"/><line x1="2180.8" x2="2389.7" y1="735.1" y2="735.1" class="st15"/><line x1="2180.8" x2="2389.7" y1="776.3" y2="776.3" class="st15"/><line x1="3142.8" x2="3421.8" y1="138.4" y2="138.4" class="st18"/><linearGradient id="SVGID_16_" x1="3149.309" x2="3461.501" y1="77.154" y2="389.336" gradientTransform="matrix(1 0 0 -1 0 856)" gradientUnits="userSpaceOnUse"><stop style="stop-color:#00a3bf" offset="0"/><stop style="stop-color:#00a3bf;stop-opacity:.3" offset="1"/></linearGradient><path d="M3087.7,536.6h435.4c11,0,20,9,20,20v132.4c0,11-9,20-20,20h-435.4c-11,0-20-9-20-20V556.6 C3067.7,545.5,3076.6,536.6,3087.7,536.6z" class="st19"/><line x1="3142.8" x2="3421.8" y1="599.1" y2="599.1" class="st18"/><linearGradient id="SVGID_17_" x1="-76.777" x2="235.407" y1="-98.967" y2="213.217" gradientTransform="matrix(1 0 0 -1 0 856)" gradientUnits="userSpaceOnUse"><stop style="stop-color:#00a3bf" offset="0"/><stop style="stop-color:#00a3bf;stop-opacity:.3" offset="1"/></linearGradient><path d="M-138.4,712.7H297c11,0,20,9,20,20v132.4c0,11-9,20-20,20h-435.5c-11,0-20-9-20-20V732.7 C-158.4,721.7-149.5,712.7-138.4,712.7z" class="st20"/><line x1="-83.2" x2="195.7" y1="775.2" y2="775.2" class="st18"/><line x1="816.6" x2="1141.8" y1="230" y2="230" class="st15"/><line x1="816.6" x2="1008.6" y1="271.1" y2="271.1" class="st15"/><line x1="277.9" x2="603.1" y1="289.2" y2="289.2" class="st15"/><line x1="277.9" x2="440.5" y1="330.4" y2="330.4" class="st15"/><linearGradient id="SVGID_18_" x1="453.413" x2="765.597" y1="81.713" y2="393.897" gradientTransform="matrix(1 0 0 -1 0 856)" gradientUnits="userSpaceOnUse"><stop style="stop-color:#00a3bf" offset="0"/><stop style="stop-color:#00a3bf;stop-opacity:.3" offset="1"/></linearGradient><path d="M391.8,532h435.4c11,0,20,9,20,20v132.3c0,11-9,20-20,20H391.8c-11,0-20-9-20-20V552 C371.8,541,380.7,532,391.8,532z" class="st21"/><circle cx="457.4" cy="619.1" r="45.1" class="st14"/><line x1="540.4" x2="775.7" y1="607.2" y2="607.2" class="st22"/><line x1="540.4" x2="658.1" y1="637" y2="637" class="st22"/></g></g></g></svg>