<?xml version="1.0" encoding="UTF-8" standalone="no"?>
<!-- Created with Inkscape (http://www.inkscape.org/) -->
<svg xmlns:inkscape="http://www.inkscape.org/namespaces/inkscape" xmlns:rdf="http://www.w3.org/1999/02/22-rdf-syntax-ns#" xmlns="http://www.w3.org/2000/svg" xmlns:xlink="http://www.w3.org/1999/xlink" xmlns:ns1="http://sozi.baierouge.fr" xmlns:cc="http://creativecommons.org/ns#" xmlns:sodipodi="http://sodipodi.sourceforge.net/DTD/sodipodi-0.dtd" xmlns:dc="http://purl.org/dc/elements/1.1/" id="svg2" xml:space="preserve" viewBox="0 0 73.901 49.349" version="1.1" inkscape:version="0.91 r13725">
  <g id="g10" transform="matrix(1.25 0 0 -1.25 0 49.349)">
    <g id="g12">
      <path id="path14" style="fill-rule:evenodd;fill:#7c7367" d="m54.961 33.878c0 0.082-0.055 0.269-0.16 0.562-0.133 0.293-0.199 0.52-0.199 0.68v0.078c0.586-0.453 1.171-1.094 1.757-1.918l-1.398 0.598zm-2.883-2.559c-0.398-0.906-0.812-1.602-1.238-2.078-0.774-0.906-1.801-1.109-3.078-0.602h-0.242c1.039-0.375 3.253-0.586 6.64-0.64 0.188-0.746 0.281-1.442 0.281-2.078 0-0.746-0.109-2.016-0.32-3.801l-2.16 1.078c0.32-3.012-0.332-5.559-1.961-7.641-1.547-1.972-3.613-3.117-6.199-3.437-1.442-0.188-2.535-0.879-3.281-2.082-0.641-1.039-2.332-1.559-5.079-1.559-2.132 0-3.75 0.188-4.839 0.559 0.105 0.187 0.597 0.762 1.476 1.722 0.75 0.774 1.121 1.454 1.121 2.04-1.039-0.266-2.172-0.813-3.398-1.641-1.016-0.692-2.629-1.199-4.84-1.52 0.613-0.48 1.184-0.918 1.719-1.32 0.265-0.238 0.398-0.519 0.398-0.84 0-1.172-0.719-1.984-2.156-2.437-1.949-0.617-3.469-1.774-4.563-3.485l-3.359-1.117c0.426 1.067 1.492 3.426 3.199 7.078 0.696 1.469 1.039 2.895 1.039 4.282 0 0.32-0.093 0.746-0.277 1.281-0.215 0.535-0.359 0.894-0.441 1.078 0.265-0.238 0.8-1.426 1.601-3.559l0.32-0.398c0.664 0.957 2.254 2.691 4.758 5.199 1.789 1.813 2.828 3.453 3.121 4.918l0.16 0.16c0.692 0.801 1.508 1.707 2.442 2.723 0.586 0.746 0.797 1.547 0.637 2.398 0.375-0.718 1.652-3.758 3.839-9.121l0.243-0.359c0.05 0.32 0.082 0.75 0.082 1.281 0 3.012-0.254 5.481-0.762 7.402-0.535 2.157-1.441 3.918-2.719 5.278l-1.32-0.043 0.039-1.278 0.48-2.242c-1.281 2.215-2.082 3.496-2.402 3.84-1.117 0.774-2.277 1.359-3.48 1.762l-1.399 0.281 5.039 0.078c2.801 0 5-0.414 6.602-1.238 0.398-0.297 0.812-0.707 1.238-1.242l-0.598 0.039v-10c0.348-0.985 0.68-2.199 1-3.637 0.293-1.336 0.438-2.215 0.438-2.644v-0.477c2.055-0.137 3.414 0.344 4.082 1.437 0.32 0.508 0.613 1.75 0.879 3.723l0.562-0.484c0.453-0.344 0.891-0.625 1.321-0.84 0.504 0.934 0.824 1.84 0.957 2.723 0.054 0.371 0.082 0.972 0.082 1.8l-0.121 2.758c-1.547-0.531-2.586-1.027-3.118-1.48 0.211 0.535 0.665 1.066 1.356 1.601 0.508 0.371 0.762 1.028 0.762 1.961-0.774 1.625-1.215 2.637-1.321 3.039v0.121c0.586 0.028 1.719 0.239 3.403 0.641 1.757 0.426 2.879 0.773 3.355 1.039zm-44.558-18.641c0.187 0.082 0.761 0.426 1.718 1.039 0.668 0.403 1.563 0.708 2.684 0.922-0.297-2.32-0.574-4.535-0.844-6.64-0.156-1.121-0.465-2.426-0.918-3.918-0.453 0.32-1.027 1.492-1.719 3.519-0.746 2.188-1.054 3.879-0.921 5.078z" inkscape:connector-curvature="0"/>
      <path id="path16" style="fill-rule:evenodd;fill:#b3aa9e" d="m0.602 14.401 0.039 0.316h0.039c-0.028-0.105-0.055-0.21-0.078-0.316zm0-0.082c0.023 0.133 0.066 0.266 0.117 0.398l1.203-0.16 0.797-0.398c1.254-0.984 2.32-2.371 3.203-4.16 0.906-1.918 1.359-3.824 1.359-5.719 0-0.348-0.054-0.547-0.16-0.602-0.055-0.023-0.121-0.011-0.199 0.043-0.082 0.024-0.176 0.079-0.281 0.161-0.586 0.398-1.653 1.332-3.2 2.796-1.601 1.547-2.535 2.536-2.8 2.961l-0.161 0.161-0.48 1.601 0.32 2.039c0 0.106 0.028 0.199 0.078 0.281 0 0.106 0.028 0.2 0.082 0.282 0.028 0.078 0.051 0.172 0.079 0.277 0 0.027 0.015 0.039 0.043 0.039zm4.398 9.398c0.055-0.183 0.227-0.304 0.52-0.359 1.066 0.109 1.773 0.336 2.121 0.68l-2.403 0.363-0.238-0.684zm9.238 6.922c-0.504 0.215-1.117 0.321-1.84 0.321-0.718 0-1.32-0.106-1.796-0.321-0.508-0.214-0.762-0.464-0.762-0.761 0-0.293 0.254-0.543 0.762-0.758 0.476-0.215 1.078-0.32 1.796-0.32 0.723 0 1.336 0.105 1.84 0.32 0.481 0.215 0.723 0.465 0.723 0.758 0 0.297-0.242 0.547-0.723 0.761zm16.801-0.281c-0.316-0.426-0.906-2.266-1.758-5.519-0.695-2.614-2.148-4.719-4.359-6.321-1.363-0.984-3.149-1.664-5.363-2.039-1.946-0.347-3.918-0.426-5.918-0.238-1.602 0.16-3.133-0.109-4.602-0.801-1.57-0.773-2.559-1.16-2.961-1.16-0.238 0-0.945 0.266-2.117 0.801-1.176 0.558-2.016 1.051-2.52 1.476 0.266 0.668 0.586 1.442 0.957 2.321 1.575 3.761 2.934 6.269 4.082 7.523 0.985 1.09 2.028 2.703 3.122 4.84 1.011 2.023 1.703 3.211 2.078 3.559 0.613 0.535 1.386 0.757 2.32 0.679 2.32-0.16 4.32-0.199 6-0.121 0.934 0.027 3.348 0.734 7.238 2.121 3.762 1.332 6.989 2 9.684 2 1.492 0 4.531-0.558 9.117-1.679 4.641-1.122 7.492-2.016 8.559-2.68 0-0.16 0.066-0.387 0.203-0.68 0.105-0.293 0.16-0.48 0.16-0.562-0.109-0.161-0.387-0.493-0.84-1-0.43-0.477-0.723-0.774-0.883-0.879-1.414-0.321-2.707-0.68-3.879-1.078-0.535-0.188-1.32-0.282-2.359-0.282-4.32 0.293-7.387 0.493-9.203 0.602-1.598 0.824-3.797 1.238-6.598 1.238l-5.039-0.078 1.399-0.281c1.203-0.403 2.363-0.988 3.48-1.762zm17.68 5.16c0 0.321-0.028 0.508-0.078 0.563l-0.121-0.043v-1l-12-0.078c0.402-0.188 1.214-0.375 2.441-0.559 1.652-0.269 3.453-0.402 5.398-0.402 2.907 0 4.36 0.508 4.36 1.519zm-31.36-10.879-0.32 2.719c-2.691-0.824-4.414-1.504-5.16-2.039-0.133-0.078-0.504-0.547-1.117-1.398 0.343-0.508 0.691-0.868 1.039-1.082 0.48-0.293 1.066-0.438 1.758-0.438 2.535 0 3.8 0.746 3.8 2.238zm0.36-1.922 1.801-0.039c0.48 0 1.16 0.106 2.039 0.321 0.933 0.215 1.64 0.453 2.121 0.718l-5.961-1zm-1.321 7.801c0-0.32 0.176-0.597 0.524-0.84 0.316-0.238 0.703-0.359 1.156-0.359s0.856 0.121 1.203 0.359c0.321 0.243 0.481 0.52 0.481 0.84 0 0.321-0.16 0.602-0.481 0.84-0.347 0.242-0.75 0.359-1.203 0.359s-0.84-0.117-1.156-0.359c-0.348-0.238-0.524-0.519-0.524-0.84zm-2.437-15.84c0.16 0.028 0.293 0.028 0.398 0h0.52c0.082-0.211 0.16-0.425 0.242-0.64 2-5.172 2.531-8.36 1.598-9.559-0.797-1.039-1.574-1.558-2.321-1.558-0.796 0-1.679 0.078-2.636 0.238 0.05 0.187 0.039 1.199-0.043 3.043-0.078 1.89 0.148 3.746 0.679 5.558 0.481 1.52 1 2.493 1.563 2.918z" inkscape:connector-curvature="0"/>
      <path id="path18" style="fill-rule:evenodd;fill:#d2c8ba" d="m0.602 14.319v0.082c0.023 0.106 0.05 0.211 0.078 0.316h0.039c-0.051-0.132-0.094-0.265-0.117-0.398zm30.437 16.039c0.32-0.348 1.121-1.625 2.402-3.84l0.118-0.918c0.16-0.855-0.051-1.652-0.637-2.402-0.934-1.012-1.75-1.918-2.442-2.719l-0.359-0.359c-1.922-1.36-3.359-2.36-4.32-3-1.707-1.149-3.602-2.028-5.68-2.641-0.293-0.027-1.121-0.012-2.48 0.039-0.961 0.028-1.707 0.067-2.243 0.121-0.21 0-0.386 0.012-0.519 0.039h-0.52c-0.105 0.028-0.238 0.028-0.398 0-0.453 0-1.133-0.011-2.039-0.039-1.121-0.214-2.016-0.519-2.684-0.922-0.957-0.613-1.531-0.957-1.718-1.039-0.188 0-1 0.227-2.442 0.68-1.332 0.43-2.117 0.695-2.359 0.801l-0.797 0.398-1.121 0.602c0.238 0.906 0.398 1.426 0.48 1.558l0.16-0.16c0.504-0.425 1.348-0.918 2.52-1.476 1.172-0.535 1.879-0.801 2.117-0.801 0.402 0 1.387 0.387 2.961 1.16 1.469 0.692 3 0.961 4.602 0.801 2-0.188 3.972-0.109 5.918 0.238 2.214 0.375 4 1.055 5.363 2.039 2.211 1.602 3.664 3.707 4.359 6.321 0.852 3.253 1.438 5.093 1.758 5.519zm-16.801 0.281c0.481-0.214 0.723-0.464 0.723-0.761 0-0.293-0.242-0.543-0.723-0.758-0.504-0.215-1.117-0.32-1.84-0.32-0.718 0-1.32 0.105-1.796 0.32-0.508 0.215-0.762 0.465-0.762 0.758 0 0.297 0.254 0.547 0.762 0.761 0.476 0.215 1.078 0.321 1.796 0.321 0.723 0 1.336-0.106 1.84-0.321zm-9.238-6.922 0.238 0.684 2.403-0.363c-0.348-0.348-1.055-0.571-2.121-0.68-0.293 0.055-0.465 0.176-0.52 0.359zm43.719 11.801c0-1.011-1.453-1.519-4.36-1.519-1.945 0-3.746 0.133-5.398 0.402-1.227 0.184-2.039 0.371-2.441 0.559l12 0.078v1l0.121 0.043c0.05-0.055 0.078-0.242 0.078-0.563zm-3.399-6c-1.332-0.105-3.425 0.055-6.281 0.481-0.426 0.535-0.84 0.949-1.238 1.242 1.812-0.109 4.879-0.309 9.199-0.602 1.039 0 1.824 0.094 2.359 0.282 1.172 0.398 2.465 0.757 3.879 1.078l-1.16-0.68c-0.476-0.266-1.598-0.613-3.355-1.039-1.684-0.402-2.817-0.613-3.403-0.641v-0.121zm-28.922 1c0 0.321 0.176 0.602 0.524 0.84 0.316 0.242 0.703 0.359 1.156 0.359s0.856-0.117 1.203-0.359c0.321-0.238 0.481-0.519 0.481-0.84 0-0.32-0.16-0.597-0.481-0.84-0.347-0.238-0.75-0.359-1.203-0.359s-0.84 0.121-1.156 0.359c-0.348 0.243-0.524 0.52-0.524 0.84zm1.321-7.801 5.961 1c-0.481-0.265-1.188-0.503-2.121-0.718-0.879-0.215-1.559-0.321-2.039-0.321l-1.801 0.039zm-0.36 1.922c0-1.492-1.265-2.238-3.8-2.238-0.692 0-1.278 0.145-1.758 0.438-0.348 0.214-0.696 0.574-1.039 1.082 0.613 0.851 0.984 1.32 1.117 1.398 0.746 0.535 2.469 1.215 5.16 2.039l0.32-2.719z" inkscape:connector-curvature="0"/>
      <path id="path20" style="fill-rule:evenodd;fill:#635b52" d="m25.238 3.198-4.879-1.641c1.094 1.707 2.614 2.868 4.563 3.481 1.437 0.453 2.156 1.269 2.156 2.441 0 0.321-0.133 0.602-0.398 0.84-0.535 0.398-1.106 0.84-1.719 1.32 2.211 0.321 3.824 0.828 4.84 1.52 1.226 0.828 2.359 1.375 3.398 1.641 0-0.586-0.371-1.266-1.121-2.043-0.879-0.957-1.371-1.532-1.476-1.719 1.089-0.371 2.707-0.559 4.839-0.559 2.747 0 4.438 0.52 5.079 1.559 0.746 1.203 1.839 1.894 3.281 2.082 2.586 0.32 4.652 1.465 6.199 3.437 1.629 2.082 2.281 4.629 1.961 7.641l2.16-1.078c0.215 1.785 0.32 3.055 0.32 3.801 0 0.636-0.093 1.332-0.281 2.078-3.387 0.054-5.601 0.265-6.64 0.64h0.242c1.277-0.507 2.304-0.304 3.078 0.602 0.426 0.476 0.84 1.172 1.238 2.078l1.16 0.68c0.16 0.105 0.453 0.402 0.883 0.879 0.453 0.507 0.731 0.839 0.84 1l1.398-0.598c0.426-0.613 0.973-1.535 1.641-2.762l0.641-1.84 0.238-1.16c0.16-0.851 0.242-1.437 0.242-1.758 0-1.601-0.973-4.828-2.922-9.679-0.211-0.59-1.051-1.656-2.519-3.203-1.547-1.653-2.731-2.68-3.559-3.078-1.867-0.934-3.973-1.653-6.32-2.161-2.399-0.453-4.028-0.761-4.879-0.922l-13.602-3.476c-0.027 0-0.054-0.016-0.082-0.043zm19.602 15.242c-0.692 1.492-1.039 2.25-1.039 2.277 0 0.75 0.238 1.481 0.719 2.204 0.535 0.453 1.574 0.945 3.121 1.48l0.117-2.762c0-0.828-0.024-1.425-0.078-1.8-0.133-0.879-0.453-1.786-0.961-2.719-0.426 0.215-0.867 0.492-1.321 0.84l-0.558 0.48zm-11.281 7.16-0.118 0.918-0.48 2.242-0.039 1.278 1.316 0.043c1.282-1.364 2.188-3.121 2.723-5.281 0.504-1.922 0.758-4.387 0.758-7.399 0-0.535-0.028-0.961-0.082-1.281l-0.239 0.359c-2.183 5.36-3.464 8.399-3.839 9.121zm-13.039-11.441l-0.399 0.32c2.078 0.613 3.973 1.492 5.68 2.641 0.961 0.64 2.398 1.64 4.32 3l0.199 0.199c-0.293-1.465-1.332-3.105-3.121-4.918-2.504-2.508-4.094-4.242-4.758-5.199l-0.32 0.398c-0.801 2.133-1.336 3.321-1.601 3.559z" inkscape:connector-curvature="0"/>
      <path id="path22" style="fill-rule:evenodd;fill:#9b9286" d="m20.359 1.557 4.879 1.645c-0.398-0.16-1.558-0.574-3.476-1.242-2.082-0.692-3.668-1.2-4.762-1.52-0.988-0.293-1.945-0.441-2.879-0.441-0.293 0-0.828 0.281-1.601 0.84-1.2 0.855-2.653 1.668-4.36 2.441l-0.48 0.16c-0.188 0.078-0.375 0.16-0.559 0.238 0.106 0.055 0.16 0.254 0.16 0.602 0 1.895-0.453 3.801-1.359 5.719-0.883 1.789-1.949 3.176-3.203 4.16 0.242-0.106 1.027-0.371 2.359-0.801 1.442-0.453 2.254-0.68 2.442-0.68-0.133-1.199 0.175-2.89 0.921-5.078 0.692-2.027 1.266-3.199 1.719-3.519 0.453 1.492 0.762 2.797 0.918 3.918 0.27 2.105 0.547 4.32 0.844 6.64 0.906 0.028 1.586 0.039 2.039 0.039-0.563-0.425-1.082-1.398-1.563-2.918-0.531-1.816-0.757-3.668-0.679-5.558 0.082-1.844 0.093-2.856 0.043-3.043 0.957-0.16 1.84-0.238 2.636-0.238 0.747 0 1.524 0.519 2.321 1.558 0.933 1.199 0.402 4.387-1.598 9.559-0.082 0.215-0.16 0.429-0.242 0.64 0.133-0.027 0.309-0.039 0.519-0.039 0.536-0.054 1.282-0.093 2.243-0.121 1.359-0.051 2.187-0.066 2.48-0.039l0.399-0.32c0.082-0.188 0.226-0.547 0.441-1.078 0.184-0.535 0.277-0.961 0.277-1.281 0-1.387-0.343-2.813-1.039-4.282-1.707-3.652-2.773-6.011-3.199-7.078l3.359 1.117zm-19.718 8.082c0.265-0.425 1.199-1.414 2.8-2.961 1.547-1.464 2.614-2.398 3.2-2.8-1.496 0.668-2.563 1.293-3.2 1.882-0.722 0.665-1.656 1.957-2.8 3.879zm0.039 5.078h-0.039l0.121 0.442h0.039l1.121-0.602-1.203 0.16h-0.039zm38.359 15.282c2.856-0.426 4.949-0.586 6.281-0.481 0.106-0.398 0.547-1.414 1.321-3.039 0-0.933-0.254-1.586-0.762-1.961-0.691-0.531-1.145-1.066-1.359-1.597-0.481-0.723-0.719-1.454-0.719-2.204 0-0.023 0.347-0.785 1.039-2.277-0.266-1.973-0.559-3.215-0.879-3.723-0.668-1.089-2.027-1.57-4.082-1.437v0.48c0 0.426-0.145 1.305-0.438 2.641-0.32 1.438-0.652 2.652-1 3.641v9.996l0.598-0.039z" inkscape:connector-curvature="0"/>
    </g>
  </g>
<metadata><rdf:RDF><cc:Work><dc:format>image/svg+xml</dc:format><dc:type rdf:resource="http://purl.org/dc/dcmitype/StillImage"/><cc:license rdf:resource="http://creativecommons.org/licenses/publicdomain/"/><dc:publisher><cc:Agent rdf:about="http://openclipart.org/"><dc:title>Openclipart</dc:title></cc:Agent></dc:publisher></cc:Work><cc:License rdf:about="http://creativecommons.org/licenses/publicdomain/"><cc:permits rdf:resource="http://creativecommons.org/ns#Reproduction"/><cc:permits rdf:resource="http://creativecommons.org/ns#Distribution"/><cc:permits rdf:resource="http://creativecommons.org/ns#DerivativeWorks"/></cc:License></rdf:RDF></metadata></svg>
