<svg width="709" height="727" xmlns="http://www.w3.org/2000/svg">

 <g label="Capa 1" id="imagebot_2">
  <path transform="matrix(1.26448 0 0 1.26448 915.535 -633.883)" label="Capa 1" stroke="#000000" stroke-width="1px" fill="#808080" d="M -184.86 548.3 L -217.185 593.757 L -270.723 646.285 L -299.007 681.64 L -341.433 733.158 L -336.382 747.3 L -294.966 710.935 L -238.397 653.356 L -197.991 606.889 L -177.788 567.493 L -184.859 548.3 L -184.86 548.3 Z" id="imagebot_12"/>
  <path transform="matrix(1.26448 0 0 1.26448 915.535 -633.883)" label="Capa 1" stroke="#000000" stroke-width="0.58017px" fill="#999999" d="M -482.99 739.61 L -545.159 757.849 L -575.817 776.07 L -625.549 757.015 L -680.248 784.356 L -711.759 821.668 L -708.441 873.884 L -675.281 899.575 L -628.033 894.589 L -585.771 871.382 L -631.351 933.551 L -644.622 1004.82 L -633.019 1036.33 L -610.628 1053.74 L -584.121 1061.19 L -545.159 1047.1 L -508.699 1018.09 L -463.101 967.528 L -451.498 921.114 L -464.769 886.304 L -502.063 857.295 L -478.856 843.208 L -429.958 834.088 L -427.474 820.835 L -480.505 805.08 L -552.61 837.407 L -555.112 828.288 L -521.952 805.081 L -482.99 794.312 L -482.99 739.613 L -482.99 739.61 Z M -634.67 790.158 L -606.495 796.794 L -607.329 811.715 L -617.264 845.691 L -642.956 868.898 L -672.798 865.58 L -685.235 844.875 L -686.885 827.47 L -662.028 802.595 L -634.669 790.158 Z M -512.83 905.378 L -496.259 915.313 L -487.139 945.156 L -511.18 973.331 L -547.64 1009.81 L -569.197 1027.21 L -586.602 1020.58 L -602.339 1013.94 L -609.809 999.022 L -607.325 974.165 L -594.054 951.792 L -546.806 908.696 L -512.83 905.378 Z" id="imagebot_11"/>
  <path label="Capa 1" fill="#000000" d="M 143.936 717.848 C 136.019 714.952 119.826 703.749 107.953 692.95 C 79.7951 667.332 78.6849 599.806 105.554 547.098 C 116.109 526.395 124.745 509.175 124.745 508.831 C 124.745 508.489 107.184 509.882 85.7192 511.929 C 32.3973 517.015 -0.00000215244 487.491 -0.00000215244 433.812 C -0.00000215244 401.771 6.54746 389.291 41.9175 353.921 C 87.9586 307.88 122.699 300.12 161.403 327.229 C 180.787 340.806 185.513 340.903 205.014 328.125 C 217.043 320.244 246.005 308.354 269.373 301.705 C 303.821 291.903 335.553 266.375 437.093 166.773 C 565.097 41.2082 626.791 0.0000256025 669.897 11.2792 C 682.19 14.4948 693.712 27.2028 697.304 41.5104 C 709 88.1141 660.586 156.708 514.194 300.944 C 393.658 419.703 372.256 436.838 337.483 442.402 L 297.916 448.729 L 321.329 467.144 C 349.117 489.003 360.288 536.875 346.228 573.855 C 331.947 611.417 250.519 696.136 213.824 711.601 C 181.382 725.283 167.645 726.509 143.947 717.848 L 143.947 717.848 L 143.936 717.848 Z M 275.872 633.304 C 319.125 587.362 326.249 574.43 326.249 541.858 C 326.249 502.088 300.974 465.54 273.472 465.54 C 265.555 465.54 259.078 461.751 259.078 457.12 C 259.078 441.678 282.639 429.399 326.249 422.114 C 365.119 415.62 367.294 413.937 348.036 405.258 C 296.854 382.188 167.67 458.662 126.195 544.338 C 92.5284 613.884 102.742 681.772 153.532 697.907 C 184.092 707.618 227.497 684.706 275.877 633.304 Z M 161.534 663.323 C 146.164 655.711 138.175 642.307 136.081 620.643 C 133.517 594.116 139.836 582.258 175.6 546.495 C 210.182 511.913 224.648 503.924 252.681 503.924 C 287.858 503.924 307.058 522.481 307.058 556.481 C 307.058 576.052 225.95 663.437 201.963 669.709 C 192.047 672.301 173.854 669.431 161.534 663.323 Z M 225.547 628.627 C 290.388 577.098 304.596 542.339 268.676 523.115 C 244.07 509.947 224.549 520.298 179.087 570.618 C 139.552 614.378 137.686 621.052 159.01 642.371 C 179.393 662.754 183.724 661.856 225.546 628.627 Z M 174.818 437.197 C 207.104 405.198 242.139 382.277 260.363 376.013 C 294.107 364.412 297.463 351.391 297.463 326.903 C 297.463 307.803 244.934 319.456 212.15 349.533 L 186.065 365.253 L 160.19 354.515 C 123.583 322.816 102.728 325.131 57.5984 365.902 C 14.8956 404.481 6.59677 445.319 35.0678 476.779 C 66.2171 511.198 110.885 500.563 174.818 437.197 Z M 44.4377 454.843 C 27.6061 430.813 32.5616 412.504 65.5633 376.78 C 92.8331 347.262 125.367 342.801 148.038 365.471 C 170.788 388.221 166.222 420.592 136.204 449.351 C 103.522 480.664 64.1737 483.018 44.4389 454.843 Z M 119.027 437.702 C 169.043 385.496 128.012 344.465 75.8069 394.482 C 43.6739 425.267 42.5928 430.007 63.047 450.462 S 88.2418 469.836 119.027 437.702 Z M 288.063 380.995 C 279.43 377.968 220.685 405.259 220.685 412.297 C 220.685 414.409 237.758 408.899 258.624 400.055 C 279.491 391.212 292.739 382.634 288.063 380.993 Z M 436.311 350.676 C 469.718 316.463 479.744 313.298 470.021 291.956 C 464.065 278.885 440.631 257.691 426.912 248.702 C 402.294 232.571 394.139 232.84 356.766 269.333 C 326.061 299.315 310.516 317.265 310.516 346.268 C 310.516 375.732 332.138 386.962 349.923 390.387 C 394.437 398.962 399.992 387.868 436.309 350.676 Z M 368.063 326.331 C 364.726 317.635 368.297 304.219 375.997 296.518 C 395.197 277.319 423.997 289.741 420.302 315.629 C 416.663 341.136 376.872 349.288 368.063 326.331 Z M 405.402 317.606 C 406.721 312.768 402.402 307.011 395.806 304.812 C 389.209 302.613 383.812 308.01 383.812 316.807 C 383.812 333.056 401.015 333.693 405.402 317.606 L 405.402 317.606 Z M 640.81 149.329 C 651.821 133.496 687.09 82.9387 682.039 88.2166 C 676.986 93.4945 602.973 171.197 561.116 216.056 L 490.253 298.667 L 554.474 241.535 C 590.371 207.231 629.799 165.16 640.812 149.328 Z M 646.058 104.393 C 678.197 55.2149 689.111 17.9443 664.65 17.9443 C 636.851 17.9443 544.808 82.0636 478.872 149.514 L 403.03 223.617 L 452.047 242.999 L 490.585 279.15 L 548.455 208.996 C 582.013 173.87 630.729 127.851 646.062 104.387 Z" id="imagebot_10"/>
  <path transform="matrix(1.26448 0 0 1.26448 915.535 -633.883)" label="Capa 1" fill="none" d="M -603.71 1050.4 C -636.492 1039.3 -647.159 993.901 -628.378 945.41 C -606.24 888.256 -528.972 826.57 -473.238 821.55 C -458.744 820.245 -438.946 824.48 -442.575 828.109 C -443.432 828.966 -453.575 831.572 -465.114 833.9 C -503.308 841.606 -520.697 850.933 -518.466 862.517 C -517.823 865.855 -512.766 868.972 -503.954 871.461 C -482.298 877.577 -467.907 901.111 -467.649 930.83 C -467.453 953.344 -478.248 971.481 -511.689 1004.82 C -552.247 1045.26 -579.302 1058.66 -603.71 1050.4 L -603.71 1050.4 Z M -558.05 1028.8 C -540.494 1019.5 -487.538 962.89 -481.475 946.942 C -478.15 938.196 -483.214 918.515 -490.934 910.179 C -494.1 906.761 -502.72 902.518 -510.09 900.749 C -537.157 894.256 -562.522 906.212 -593.506 940.065 C -618.857 967.764 -623.888 988.423 -611.282 1013.05 C -603.758 1027.74 -573.151 1036.8 -558.05 1028.8 Z" id="imagebot_9"/>
  <path transform="matrix(1.26448 0 0 1.26448 915.535 -633.883)" label="Capa 1" fill="#00bf00" d="M -603.71 1050.4 C -636.492 1039.3 -647.159 993.901 -628.378 945.41 C -606.24 888.256 -528.972 826.57 -473.238 821.55 C -458.744 820.245 -438.946 824.48 -442.575 828.109 C -443.432 828.966 -453.575 831.572 -465.114 833.9 C -503.308 841.606 -520.697 850.933 -518.466 862.517 C -517.823 865.855 -512.766 868.972 -503.954 871.461 C -482.298 877.577 -467.907 901.111 -467.649 930.83 C -467.453 953.344 -478.248 971.481 -511.689 1004.82 C -552.247 1045.26 -579.302 1058.66 -603.71 1050.4 L -603.71 1050.4 Z M -558.05 1028.8 C -540.494 1019.5 -487.538 962.89 -481.475 946.942 C -478.15 938.196 -483.214 918.515 -490.934 910.179 C -494.1 906.761 -502.72 902.518 -510.09 900.749 C -537.157 894.256 -562.522 906.212 -593.506 940.065 C -618.857 967.764 -623.888 988.423 -611.282 1013.05 C -603.758 1027.74 -573.151 1036.8 -558.05 1028.8 Z" id="imagebot_8"/>
  <path transform="matrix(1.26448 0 0 1.26448 915.535 -633.883)" label="Capa 1" fill-rule="evenodd" fill="#00bf00" d="M -683.56 886.88 C -705.909 872.825 -713.366 845.899 -701.494 822.127 C -693.914 806.95 -666.934 780.596 -650.275 772.097 C -634.982 764.295 -625.21 764.994 -609.401 775.019 C -601.959 779.738 -591.424 785.458 -585.988 787.729 C -576.247 791.799 -575.828 791.67 -556.816 778.795 C -530.813 761.186 -516.995 755.148 -502.526 755.073 C -490.984 755.013 -490.383 755.425 -490.383 763.396 C -490.383 780.215 -494.904 785.773 -518.138 797.516 C -544.174 810.676 -560.14 822.247 -595.822 853.818 C -635.805 889.194 -663.366 899.58 -683.558 886.881 L -683.56 886.88 Z M -642.713 874.85 C -600.541 859.032 -580.99 810.635 -607.695 788.164 C -631.436 768.187 -662.703 780.085 -688.677 818.98 C -710.071 851.017 -679.203 888.537 -642.713 874.85 Z" id="imagebot_7"/>
  <path label="Capa 1" fill-rule="evenodd" fill="#ffffff" d="M -246.11 559.76 C -248.922 559.249 -250.254 558.647 -251.764 557.207 C -253.368 555.677 -254.06 553.445 -253.76 550.768 C -253.371 547.289 -252.141 545.146 -248.113 540.934 C -243.818 536.441 -240.669 533.824 -238.916 533.286 C -237.339 532.803 -235.508 533.457 -232.784 535.477 C -228.325 538.783 -225.446 542.359 -225.458 544.576 C -225.466 546.089 -225.87 546.602 -231.603 552.372 C -237.033 557.837 -238.354 558.973 -240.028 559.623 C -241.318 560.123 -243.806 560.179 -246.11 559.76 L -246.11 559.76 Z M -237.721 550.387 C -235.672 549.481 -234.592 547.901 -234.596 545.814 C -234.6 543.211 -236.267 541.532 -238.839 541.542 C -241.627 541.553 -244.051 544.072 -244.077 546.987 C -244.095 548.888 -243.244 550.084 -241.456 550.672 C -240.524 550.979 -238.753 550.844 -237.721 550.387 Z" transform="matrix(5.69344 0 0 5.69344 1756.38 -2796.1)" id="imagebot_5"/>
  <path label="Capa 1" fill-rule="evenodd" fill="#ffffff" d="M -225.77 536.81 L -229.124 533.672 L -233.168 532.103 C -235.392 531.24 -237.27 530.482 -237.342 530.417 C -237.505 530.271 -220.949 514.095 -217.588 511.117 C -212.812 506.885 -208.162 503.266 -203.535 500.179 C -193.872 493.732 -189.573 492.736 -189.57 496.945 C -189.568 499.902 -192.964 506.832 -196.695 511.487 C -197.513 512.508 -201.185 516.406 -204.854 520.149 C -210.797 526.211 -212.105 527.655 -216.817 533.356 C -219.727 536.877 -222.177 539.8 -222.262 539.853 S -223.924 538.536 -225.769 536.81 L -225.77 536.81 Z" transform="matrix(5.69344 0 0 5.69344 1756.38 -2796.1)" id="imagebot_4"/>
  <title>Capa 1</title>
 </g>
 <metadata>image/svg+xmlOpencliparttijera2012-01-26T08:54:59https://openclipart.org/detail/167477/tijera-by-blancagsagastiblancagsagastitijera</metadata>
</svg>