<svg width="1400" height="263" viewBox="0 0 1400 263" xmlns="http://www.w3.org/2000/svg"><g fill="none" fill-rule="evenodd"><path d="M937.424 42.238c-.286-.006-.592.106-.848-.158.132-.53.55-.26.848-.314v.472" fill="#7076F0"/><g fill="#F2F4F9"><path d="M570.445 191.464c-2.796-.202-4.547-.787-6.463-2.16-.514-.046-1.01 0-1.528-.209-4.191-1.7-8.77-2.894-13.131-4.383-3.225-1.102-6.152-2.35-8.547-4.168-2.207-1.673-4.955-2.82-7.943-3.81-2.334-.77-4.571-1.725-6.374-3.056-.696-.515-1.443-.96-2.495-1.263-2.203-.633-3.995-1.691-5.232-3.112h-2.128c-1.515-1.771-5.034-2.03-6.58-3.598-1.61-1.641-4.184-2.63-5.534-4.425 1.665.757 3.715.909 5.298 1.815 1.675.957 2.82 2.224 4.544 3.167 1.62.889 3.303 1.797 4.348 3.078h2.036c3.2.865 4.722 2.417 6.843 3.442 4.623 2.243 9.208 4.54 14.327 6.286 1.261.43 2.68.834 3.595 1.51 3.084 2.293 6.953 3.748 10.938 5.187 2.687.971 5.535 1.894 7.512 3.574 2.402.385 4.581 1.074 6.466 2.16.302.038.658.038.583.369-.456.027-.487-.19-.535-.404zM259.803 74.037c-3.157-.807-6.448-1.475-9.59-2.304-2.934-.775-5.682-1.699-8.3-2.634-3.378-1.202-7.317-1.915-10.554-3.228-.97-.396-2.69-.625-4.098-.85-5.04-.8-9.15-2.376-13.47-3.771-1.285-.416-2.425-.874-4.025-.986-.786-.054-1.637-.217-2.263-.455-5.087-1.937-11.036-2.882-17.123-3.731-3.4-.476-6.734-1.12-9.424-2.461-2.328.107-4.338-.736-6.593-.808-2.607-.084-4.458-.88-6.203-1.486-3.62-1.256-7.578-1.943-11.752-2.272-2.039-.162-3.777-.565-5.32-1.032-2.954-.898-5.991-1.532-9.283-2.099a479.32 479.32 0 01-11.843-2.219c-3.016-.6-5.873-1.36-9.348-1.496-2.596-.101-5.062-.94-7.607-1.42-3.183-.6-6.275-1.252-9.765-1.49-2.625-.18-5.08-.949-8.143-1.562-3.24-.17-7.104-.26-10.8-.869-.258-.042-.573-.03-.848-.01-3.965.284-7.76-.425-11.684-.509-2.484-.051-5.134-.373-7.68-.59-3.58-.307-7.335-.122-11.02-.15-1.598.804-3.853.115-5.682.59 1.865 1.273 4.848.817 7.18 1.245 2.723.5 5.33.048 8.625.407.46.115 1.564.39 2.867.72 1.043 0 2.34.06 3.6-.011 2.849-.16 5.455.412 8.193.584 3.378.213 6.557.874 9.79 1.388 1.003.16 1.973.172 2.904.112 2.183-.14 4.32.112 6.025.599 3.66 1.046 7.657 1.503 11.67 1.883 2.497.236 4.659.734 6.933 1.206 4.522.937 8.534 2.505 13.697 2.678.633.021 1.43.213 1.817.455 2.506 1.547 6.43 1.839 9.79 2.53 2.064.423 4.132.952 6.377 1.247 2.212.288 4.406.693 6.575 1.084 2.737.49 5.264 1.169 7.824 1.794 5.279 1.294 10.772 2.306 16.326 3.246.789.134 1.596.302 2.237.489 5.124 1.478 10.808 2.274 16.3 3.29 3.114.576 6.08 1.13 8.538 2.35 1.782.886 4.211 1.456 6.71 1.883 1.784.303 3.526.69 5.126 1.224 3.83 1.274 7.987 2.281 12.068 3.335 4.04 1.044 7.723 2.35 11.553 3.54 3.031.944 6.058 1.888 9.23 2.7 2.596.662 5.177 1.307 7.19 2.37.695.37 1.677.496 2.397.789 2.249.913 5.323 1.279 7.013 2.55 3.903.618 6.597 2.167 10.055 3.121 6.905 1.903 12.973 4.325 18.473 7.102 1.958.986 4.301 1.732 6.723 2.386 1.01.272 1.84.597 2.676.957 3.07 1.319 5.337 3.069 9.055 4.034 3.759 2.752 9.744 4.338 14.483 6.586 2.09.99 4.78 1.76 6.492 2.912 2.947 1.98 6.611 3.6 10.141 5.284 2.48 1.183 4.87 2.41 7.278 3.626 2.107 1.066 4.577 1.926 6.488 3.113 1.93 1.198 4.327 2.212 6.231 3.163.898.195 1.003-.26 1.753-.066 2.169.561 4.077 1.293 5.08 2.365 1.477 1.572 3.957 2.748 6.593 3.706 2.661.961 4.703 2.196 6.456 3.41 2.378 1.643 5.756 2.508 8.914 3.8.648.368.134 1.077 1.332 1.544 1.88.734 3.251 1.809 5.232 2.447 2.393.769 4.917 1.439 7.321 2.74.253.73 2.1 1.362 3.537 2.112 2.068 1.082 3.744 2.354 6.297 3.209.112.037.213.092.3.145 3.998 2.39 8.737 4.389 13.629 6.315 2.472 2.183 7.132 3.193 10.691 4.792 2.828 1.272 5.45 2.656 8.18 3.98.988.477 2.056.888 3.244 1.272 2.14.689 4.225 1.508 4.833 2.68 1.13.601 2.408.708 3.567 1 .89 1.16 2.965 1.682 5.333 2.135.434 1.325 3.081 1.69 4.957 2.276 2.62.822 4.305 2.135 7.096 2.855 1.043.268 1.474 1.102 2.296 1.766 1.079.107 1.85.618 2.748 1.048 1.202.574 2.252 1.274 3.982 1.475 1.213.14 1.981.542 2.658.963 1.959 1.21 4.674 2 7.082 2.916 1.847.7 4.204 1.215 6.528 1.771 1.492 1.672 5.178 2.47 7.281 3.916 2.071.206 3.85.52 5.254 1.25 2.404 1.25 5.254 2.273 8.208 3.137 4.982 1.455 9.204 3.45 14.457 4.705 1.217.29 2.039.96 3.118 1.414 2.947 1.244 6.651 1.903 9.812 2.995.688.238 1.636.434 2.661.517 1.032.087 2.473.244 2.77 1.011.065.173.5.388.858.441 3.961.593 6.666 2.399 10.934 2.702.605.045 1.123.382 1.673.587 1.108.412 2.1.305 2.937-.123 3.045.68 6.053 1.333 9.022 2.026a67.245 67.245 0 015.732 1.62c3.79 1.244 7.93 2.038 12.632 2.21 1.756.062 3.733.297 5.5.727 1.17.284 1.608.705 2.05 1.189 2.433-.242 4.297.419 6.423.936 1.604.089 3.392-.112 5.159.377 1.017.282 2.462.051 3.461-.366 2.354.517 4.664.938 7.238.84 1.963-.076 3.66.544 5.724.451 1.912-.085 3.961-.268 5.826.178.47.112.677.048 1.043-.04 1.531-.37 2.965-.202 4.03.278 8.432-1.109 16.915-.574 25.38-1.437.497-.26.703-.83 1.8-1.11 1.387-.356 3.121-.223 4.298-.61 1.23-.405 2.379-.551 3.783-.699 2.071-.214 4.128-.684 5.931-1.245 1.409-.437 2.882-.746 4.367-1.084 2.248-.511 4.58-.94 6.405-1.851.829-.416 2.118-.61 3.841-1.082.083-.03-.308-.425-.054-.752.79-.384 2.183-.069 2.925-.643 2.079-1.606 6.018-2.39 7.741-4.188.37-.383 1.612-.582 2.209-.876 3.11-1.53 7.34-2.615 8.425-5.001.34-.752 2.057-1.112 3.158-1.818.691-1.714 2.183-3.31 5.155-4.612 3.675-1.613 5.276-3.9 6.93-6.1 1.137-1.513 2.343-2.98 4.168-4.337 2.024-1.504 3.563-3.121 4.565-4.887.366-.649.779-1.376 1.699-2.033 1.263-.899 1.77-2.075 2.407-3.16 1.597-2.693 3.038-5.406 4.66-8.094.192-.323.808-.734.424-.95-1.097-.613-.214-1.274.192-1.631 1.068-.942 1.06-2.125 2.762-2.905.207-.093.51-.235.482-.333-.424-1.357 1.575-2.466 1.676-3.724.13-1.656 1.31-3.153 2.111-4.715.8-1.555 1.318-3.15 2.288-4.68.848-1.336.351-2.875 2.495-4.001v-3.13c.547-.504 1.06-.985 1.72-1.59-.663-1.696 1.133-3.318 2.129-4.974 1.462-2.44 2.893-4.87 3.877-7.37.652-1.652 1.894-3.255 1.666-4.994 3.103-2.264 4.37-4.892 5.978-7.454 2.28-3.633 4.301-7.314 6.915-10.891 2.126-2.912 4.794-5.739 8.686-8.239.717-.458 1.199-1.025 1.572-1.629.724-1.174 1.22-2.491 3.841-3.136 3.128-2.828 8.606-4.802 11.612-7.677.188-.18.51-.357.858-.46 4.884-1.416 8.092-3.83 13.03-5.226 1.793-.504 3.299-1.288 4.809-1.963 2.596-1.164 5.648-2.06 7.98-3.37 3.44-1.932 7.817-3.243 12.393-4.435 5.225-1.358 10.254-2.903 15.544-4.191 4.16-1.013 8.606-1.76 13.346-1.85 2.089-.04 3.925-.888 5.898-.329 3.838-1.213 7.994-1.355 11.999-1.785 4.866-.524 9.78-.421 14.685-.382 1.108.009 1.753-.405 3.053-.462 1.249.291 2.824.469 4.536.455 4.588-.034 9.244-.251 13.567.81 3.838-.208 7.43.392 10.916.988 2.817.481 5.685.995 8.364 1.624 4.345 1.023 8.994 1.568 13.465 2.38 3.194.58 6.127 1.45 9.573 1.777 4.979.47 9.211 1.992 14.117 2.655 4.881.657 9.41 1.798 14.107 2.709 4.7.911 8.957 2.281 13.794 3.028.388.06.75.33 1.061.305 2.926-.229 5.026.626 7.223 1.304 3.18.98 6.949 1.22 10.24 2.058 4.471 1.142 9.497 1.638 13.994 2.706 2.94.7 5.796 1.508 8.838 2.121 4.28.864 8.476 1.832 12.65 2.791 3.085.708 6.554.969 9.356 1.994 1.123.41 2.669.321 3.94.52 5.706.889 11.448 1.765 16.948 2.914 2.958.619 5.71 1.498 8.711 2.154 5.138 1.12 10.377 2.04 15.758 2.796.525.075 1.278.018 1.578.178 2.516 1.35 5.963 1.585 9.316 1.913.601.06.996.23 1.485.35 3.914.972 8.03 1.669 12.201 2.34 4.012.647 7.9 1.51 11.71 2.417 1.582.376 2.83.46 4.377.01 1.89.741 4.171.91 6.416.711 4.681 1.265 8.248 1.603 13.588 1.773 3.65.12 7.318.487 10.873.937 6.155.778 11.224.833 18.11.314 2.727-.204 5.606-.106 8.437.068 3.31.202 6.644.456 10.011.3.558-.027 1.228.053 1.662-.07 2.933-.834 6.126-.815 9.341-.772 1.85.026 3.476-.364 5.08-.743 3.252-.766 6.575-1.304 10.258-1.388 1.694-.037 3.483-.41 5-.831 4.681-1.294 9.63-2.328 14.294-3.651 2.578-.73 4.457-1.816 7.028-2.521 2.958-.812 5.449-2.005 8.69-2.64.98-.193 1.944-.665 2.454-1.129 1.315-1.189 3.552-1.95 5.232-2.958 3.686-2.214 8.331-4.072 10.76-6.755.385-.42 1.283-.28 1.536-.592.2-.249.217-.531.337-.862.474-.364 1.998-.142 2.14-.826.865-2.342 4.363-4.108 6.057-6.353-.243-.22-.673-.475-1.64-.612-1.861.532-3.32 1.372-4.12 2.394-2.886 3.692-8.306 6.55-13.187 9.553-2.017 1.24-4.196 2.498-6.597 3.582-4.153 1.874-8.378 3.742-13.516 4.982-1.513.366-3.02.705-4.102 1.368-.717.437-1.695.682-2.705.938-4.004 1.02-7.839 2.228-11.966 3.102-3.6.76-7.118 1.642-11.282 1.78-3.91.13-7.77.727-11.604 1.212-3.346.423-6.648.848-10.156.83-7.115-.037-14.23-.007-21.344-.012-3.067-.004-6.26.225-9.1-.45-2.034-.483-4.072-.154-6.104-.321-5.948-.49-11.745-1.239-17.596-1.923-4.917-.574-9.682-1.402-14.624-1.883-1.933-.187-3.338-1-5.402-.935-3.117-1.167-7.1-1.352-10.457-2.214-1.499-.385-2.983-.115-4.478-.385-2.459-.444-4.892-.94-7.108-1.569-4.707-1.33-9.84-1.855-14.997-2.528-5.25-.688-10.326-1.791-14.975-3.259-4.413-1.395-9.294-2.256-14.32-2.95-1.701-.237-3.653-.369-4.97-.873-3.56-1.36-7.67-2.013-11.84-2.67-1.814-.287-3.686-.594-5.287-1.081-5.612-1.706-12.006-2.48-18.02-3.692-2.646-.535-5.025-1.31-7.751-1.786-2.524-.44-5.355-.636-7.437-1.602-3.147-.038-5.873-.729-8.455-1.478-3.794-1.104-7.846-1.862-12.02-2.495-2.111-.32-4.08-.776-6.025-1.28-1.937-.504-3.9-.978-6.025-1.28-1.31-.185-2.47-.487-3.653-.867-3.118-1.004-6.807-1.368-10.384-1.793-2.296-.274-4.392-.55-6.275-1.377-2.161-.949-5.232-1.114-7.936-1.546-7.394-1.18-14.646-2.537-21.873-3.937-1.39-.268-2.817-.595-4.265-.654-1.199-.046-2.154-.307-3.11-.524-4.425-.999-10.301-1.649-14.925-2.084-3.5-.33-7.031-.107-10.41-.425-3.073-.29-6.14-.513-9.141-.309-3.954.268-8.038.084-11.88.771-.507.09-1.133.023-1.698.02-4.884-.032-9.504.69-14.247 1.092-3.918.333-7.662 1.171-11.778 1.02-1.485-.053-2.8.631-4.421.421-2.582 1.068-6.13.974-8.965 1.983-3.823 1.363-8.338 2.289-12.59 3.364-1.607.405-3.095.875-4.608 1.336-3.161.957-6.242 1.975-9.44 2.906-.886.258-1.74.551-2.179.947-2.23 2.017-6.126 3.163-9.67 4.469-.906.332-1.717.698-2.539 1.062-1.452.642-2.763 1.338-4.526 1.823-1.908.524-3.917 1.075-4.638 2.228-2.513.471-3.657 1.61-5.203 2.555-3.678 2.253-7.553 4.42-11.532 6.551-2.19 1.17-4.287 2.457-5.177 4.083-.236.439-.945.823-1.488 1.213-2.879 2.072-4.718 4.362-5.964 6.779-.441.845-1.908 1.505-1.85 2.443-2.683 1.51-3.668 3.482-5.887 5.152.554 1.32-.525 2.543-1.213 3.772-.543.965-1.213 1.912-1.6 2.9-.605 1.537-2.202 2.878-3.509 4.282-1.596 1.713-3.323 3.429-2.98 5.549-1.94.82-1.303 2.18-2.27 3.283-1.02 1.158-1.423 2.345-1.115 3.66-1.676 1.452-2.422 3.06-2.7 4.776-.218 1.311-.66 2.734-1.934 3.852-1.604 1.398-.956 3.093-3.034 4.383-.417.26.115.842-.127 1.224-.373.572-1.043 1.098-1.662 1.718.004 1.415-.282 2.845-1.267 4.328-.91 1.365-1.974 2.868-1.137 4.371-1.416 1.128-2.502 2.239-1.73 3.435-1.03.803-1.63 1.533-2.065 2.334-.952 1.74-2.654 3.353-3.61 5.108-.496.908-.14 1.868-1.187 2.761-.731.622-.844 1.42-2.252 1.868-1.155-1.024.362-1.866.876-2.722.663-1.109 1.343-2.166 1.437-3.351.13-1.69 1.706-3.223 2.995-4.77 1.463-1.747 2.817-3.492 2.943-5.423.073-1.143 1.094-2.246 1.858-3.271 1.205-1.606 1.343-3.284 2.27-4.893.424-.734.988-1.392 1.676-2.141.395-2.673 1.89-5.338 3.053-8.033.452-1.046 1.104-2.066 1.44-3.138.413-1.31 1.916-2.482 2.665-3.78.757-1.31 1.756-2.579 1.489-3.954-.207-1.057 1.368-1.956.894-3.013 1.825-1.427 1.734-3.166 3.668-4.664 1.723-1.334 2.751-3.045 3.15-4.73.08-.334-.134-.678.347-.996 2.104-1.393 2.346-3.131 3.501-4.702.782-1.059.862-2.219 1.659-3.308 1.911-2.601 4.301-5.088 6.897-7.533 1.198-1.127 1.883-2.35 3.961-3.29 1.412-.639 2.35-1.678 2.846-2.62 1.003-1.911 3.773-3.182 6.133-4.62 2.357-1.433 4.917-2.808 6.927-4.352 1.256-.963 2.74-1.832 4.518-2.41 2.046-.667 3.726-1.474 5.33-2.323 2.72-1.441 5.435-2.85 9.2-3.65 2.582-.547 4.015-1.768 6.018-2.642 2.827-1.236 6.043-2.267 8.577-3.667 2.067-1.142 4.682-1.915 7.397-2.619 5.833-1.51 11.318-3.33 17.38-4.646 1.107-.242 1.94-.792 2.9-1.201 1.09-.064 2.121-.014 3.233-.316a26.433 26.433 0 017.075-.915c1.38.012 2.331-.386 3.566-.496 5.637-.494 11.31-.908 16.72-1.938 1.85-.352 4.168-.487 6.061-.457 6.231.103 12.383-.87 18.51-.434 5.064.363 10.083.276 15.438.372 1.991 1.066 5.185 1.018 7.882 1.15 4.102.196 7.871.774 11.427 1.604 6.072 1.416 12.506 2.325 18.766 3.459 3.324.6 6.401 1.494 9.939 1.864 1.926.2 3.885.48 5.67 1.076 1.629.548 3.78.724 5.698 1.065 2.173.385 4.508.355 6.64 1.007 4.28 1.31 9.03 2.189 13.81 2.996.645.108 1.278.25 1.872.415 3.35.94 6.847 1.703 10.645 2.074.583.057 1.01.23 1.513.304 2.031.3 3.454 1.128 5.402 1.464 1.796.309 4.063.273 5.413.813 2.44.978 5.898.795 8.042 1.946 3.378-.167 5.619 1.436 8.983 1.37 1.38-.027 1.875 1.12 3.653.819 3.66 1.51 8.505 1.876 12.473 3.083 3.175.964 6.474 1.734 10.232 1.93 1.126.06 1.481.653 2.386.8 2.712.441 4.99 1.303 8.15 1.388 2.868.076 5.638.922 8.48 1.384 5.127.828 9.602 2.333 14.544 3.34 4.65.947 9.153 2.08 14.345 2.35 2.824.145 5.334 1.001 7.705 1.813.576.196 1.09.597 1.648.606 3.917.064 6.951 1.208 10.351 1.905 1.905.39 4.099.195 6.01.634.359.082.895-.016 1.235.073 2.893.76 5.76 1.544 8.91 2.395 4.635.108 9.35.634 14.078 1.52 3.211.603 6.767.983 10.42 1.15 4.16.19 8.425.349 12.593.95 4.283.617 8.87 1.16 13.469.227 1.701-.347 3.591.149 5.452.115 1.072-.018 2.09.263 3.426-.016 1.194-.25 2.914-.28 4.13-.057 2.785.51 5.32.162 8.086.041 3.465-.151 6.847-.814 10.272-.51 4.13-.93 8.11-1.901 12.715-1.695 7.723-1.66 15.146-3.603 22.12-5.892 3.468-1.138 7.157-2.15 10.188-3.66 1.857-.925 4.406-1.629 5.956-2.672 3.041-2.043 7.43-3.548 9.645-5.902 1.09-1.159 3.165-1.917 5.12-2.96.076-2.452 3.907-4.414 5.406-6.903-2.419-.2-2.814 1.137-4.41.937-2.85 2.489-5.178 4.916-8.962 6.954-4.051 2.182-7.668 4.555-11.94 6.648-2.48 1.216-5.156 2.333-8.205 3.147-6.988 1.865-13.23 4.344-20.555 5.932-2.129.462-4.51.647-6.166 1.287-4.576.37-8.979.414-13.135 1.323-1.966.432-4.396.324-6.496.544-2.802.293-5.674.586-8.284.275-4.638-.549-9.244-.223-13.856-.353-1.543-.043-3.092-.064-4.132.455-1.538-.093-2.505-.516-3.888-.485-4.309.089-8.436-.615-12.654-.928-4.425-.328-8.744-1.013-13.1-1.558-4.754-.593-9.41-1.37-14.27-1.777-.774-.064-1.458-.376-2.19-.568-4.004-1.05-8.316-1.656-12.64-2.314-3.975-.604-8.055-1.14-11.63-2.37-3.584-1.233-7.965-1.679-12.194-2.16-5.358-.608-10.619-1.356-15.116-2.942-3.845-1.358-8.382-1.928-12.517-2.943-.372-.092-.713-.217-1.263-.385h-3.646c-2.582-.63-4.627-1.294-6.579-2.097-1.586-.654-3.867-1.057-5.956-1.226-2.922-.236-5.627-.547-7.976-1.483-1.065-.425-2.618-.457-3.762-.75-2.451-.63-5.207-.889-7.55-1.6-.865-.259-1.716-.513-2.733-.39-1.416.172-2.618-.196-3.498-.535-4.858-1.874-10.655-2.718-16.354-3.62-3.954-.628-7.85-1.25-10.993-2.613-1.4-.607-3.142-.4-4.685-.696-2.538-.489-5.16-.883-7.574-1.525-3.02-.8-6.213-1.384-9.465-1.92a15.64 15.64 0 01-3.218-.905c-2.64-1.032-5.71-1.5-9.12-1.613-3.194-.105-6.174-.707-8.647-1.72-1.662-.682-3.302-1.103-5.543-1.235-2.1-.124-4.088-.705-6.13-1.078-2.046-.373-3.961-.945-6.235-.965-.271-.002-.63.006-.804-.07-3.852-1.707-9.113-1.731-13.599-2.705-5.08-1.103-10.55-1.771-15.826-2.663-2.01-.34-4.03-.455-6.148-.427-4.175.055-8.273-.24-12.303-.783-2.078-.281-4.214.417-6.31-.038-3.368.79-6.942.278-10.414.407-2.603.098-5.264.041-7.325.839-1.097-.052-1.748-.729-2.834-.206-.258.124-.938.241-1.112.172-2.411-.965-4.457.137-6.6.316-3.223.267-6.275.864-9.617 1.027-4.479.219-9.102.508-13.252 1.292-4.127.778-8.642 1.242-12.067 2.944-2.155 1.07-5.482 1.505-8.491 1.965-2.32.357-4.185.912-5.616 1.985-3.095.321-5.612 1.432-8.454 2.222a29.677 29.677 0 00-6.829 2.847c-2.921 1.663-6.202 3.171-10.13 4.3-.717.204-1.29.534-1.908.817-3.063 1.4-6.184 2.766-9.667 3.92-1.474.486-2.086 1.353-3.665 1.858-1.321.42-2.114 1.243-3.099 1.903-.235.156-.192.442-.467.55-3.83 1.523-5.963 3.803-10.102 5.238-1.864.647-3.237 1.866-4.004 2.965-.482.686-1.372 1.21-2.06 1.722-3.382 2.527-5.464 4.47-7.531 8.164-.25.448-.79.857-1.217 1.281-1.578 1.574-3.02 3.188-4.783 4.71-2.9 2.506-3.925 5.256-5.185 8.015-.753 1.656-.988 3.447-3.265 4.91-1.242.799-1.742 1.849-2.361 2.771-.467.693-1.423 1.146-1.937 1.707v2.086c-1.611 3.03-4.41 5.423-4.276 8.205.01.28.126.587-.065.83-2.477 3.12-3.136 6.494-5.602 9.625-.68.863-1.093 1.776-1.828 2.656-.478.565-1.275 1.208-1.054 1.933.576 1.896-.814 3.619-2.22 5.31-.416.505.012.743.396 1.09-1.825.778-.453 2.185-2.495 2.917.5 1.645-.612 3.097-1.716 4.579-1.731 2.318-4.2 4.521-4.284 7.107-.029.824-.735 1.764-1.734 2.437-2.038 1.379-2.719 2.992-3.16 4.542-.613 2.133-2.075 3.983-4.313 5.817-1.586 1.297-3.686 2.585-3.53 4.266-1.586.874-1.56 2.128-3.19 3.05-1.083.611-1.734 1.487-2.48 2.274-1.615 1.702-3.693 3.305-5.706 4.911-1.803 1.44-3.773 2.829-5.66 4.243-.068.053.011.174-.065.2-3.924 1.335-6.18 3.506-10.083 4.851-2.278.784-4.49 1.6-6.575 2.514-2.263.994-4.693 1.932-7.285 2.706-1.575.471-3.585.587-5.384.914a395.65 395.65 0 01-19.023 3.018c-2.484.329-5.359.258-7.542-.778-2.44 0-4.859.016-7.27-.005-2.357-.022-4.682.065-7.039-.356-1.26-.223-3.103-.334-4.41.311-1.151-.604-2.658-.295-4.015-.367-.28-.016-.569-.002-.75-.002-2.969-.826-6.144-1.232-9.298-1.683-3.135-.446-6.238-.95-9.348-1.44-.518-.082-1.13-.162-1.481-.344-2.72-1.421-6.97-1.215-9.993-2.299-1.514.386-2.705-.144-4.037-.321-1.615-.215-2.325-1.034-3.682-1.328-2.13-.458-4.03-1.142-6.384-1.396-3.979-.432-7.241-1.588-10.424-2.766-.807-.299-1.665-.422-2.541-.606-4.363-.914-8.846-1.717-12.948-2.905-.836-.242-1.503-.624-2.216-.958-3.508-1.645-6.557-3.571-11.695-4.156-.952-.108-1.658-.733-2.483-1.115-2.734-1.269-5.786-2.328-8.82-3.419-2.26-.81-4.512-1.599-6.992-2.212-2.744-.679-4.413-1.91-6.63-2.86-.318-.137-.72-.269-.886-.446-1.814-1.934-5.53-2.621-9.219-3.11-2.165-.286-3.381-.916-4.525-1.666-.384-.254-.59-.638-1.155-.823-1.575-.512-2.716-1.34-4.258-1.759-2.904-.787-4.946-2.07-7.749-2.885-1.56-.455-1.4-1.718-3.646-1.846-.908-1.208-3.077-1.65-5.246-2.143-2.64-.6-4.059-1.898-6.148-2.82-1.003-.444-1.9-.91-3.016-1.329-3.675-1.384-7.585-2.69-9.986-4.731-.543-.466-1.683-.49-2.35-.809-3.457-1.655-6.98-3.292-10.127-5.085-.67-.38-1.459-.764-2.11-.8-2.064-.116-3.132-.832-4.461-1.422a80.695 80.695 0 00-3.512-1.438c-2.165-.835-4.164-1.8-5.735-2.999-2.34-1.784-5.283-3.313-8.91-4.582-2.441-.855-4.791-1.917-6.315-3.303-.583-.531-1.575-1.059-2.65-1.336-3.411-.883-5.225-2.503-7.832-3.74-3.498-1.656-6.18-3.738-10.547-4.977-1.427-.406-2.65-1.08-3.64-1.748-2.555-1.732-6.027-3.036-8.765-4.678-.358-.215-.735-.503-1.216-.576-3.606-.542-5.29-2.126-7.571-3.361-1.637-.885-4.026-1.28-5.49-2.23-2.863-1.864-6.759-3.115-10.553-4.46a14.946 14.946 0 01-4.591-2.64c-1.54-1.299-3.675-2.35-6-3.162-3.074-1.079-5.558-2.403-8.157-3.693-1.387-.69-2.788-1.38-4.664-1.707-.88-.155-1.571-.398-1.977-.727-1.495-1.215-4.07-1.913-5.71-3.105-2.447-1.78-6.173-3.046-9.663-4.293-2.99-1.066-5.431-2.413-8.447-3.445-1.886-.647-3.845-1.235-5.065-2.349-.764-.702-2.643-1.325-4.265-1.54-2.937-.388-5.17-1.407-8.078-1.834-1.883-.275-3.291-1.245-4.852-1.905-3.4-1.432-7.397-2.409-10.815-3.812-2.654-1.095-5.601-2.022-7.614-3.005-12.216-2.63-22.626-6.17-33.806-9.559-3.118-.07-4.074-.328-7.832-1.561-1.47-.484-2.994-1.01-4.591-1.35-3.4-.731-6.224-1.985-9.87-2.47-3.302-.441-5.235-1.974-8.422-2.598-.307.09-.659.195-1.108.329-2.049-.729-4.84-.764-7.031-1.603-3.012.2-5.453-.304-7.9-1.338-1.876-.794-4.602-1.384-7.057-1.498-3.251-.15-6.065-.756-8.317-1.648-3.664-1.45-7.925-1.766-12.187-2.163-1.31-.119-2.256-.428-3.364-.65-1.354-.272-2.328-.764-3.432-1.125-2.998-.971-6.423-1.142-9.696-1.599-.648-.09-1.398.059-2.013-.199-2.9-1.208-6.785-1.378-10.022-2.265a27.314 27.314 0 00-6.26-.922c-3.035-.101-5.772-.853-8.437-1.473-3.302-.768-6.8-1.025-10.246-1.379-1.514-.154-2.936-.32-4.294-.654-2.61-.641-5.373-.927-8.284-1.108-3.114-.194-6.315-.196-9.349-.732-.883-.155-1.962-.03-2.947-.071-2.466-.103-5.022.284-7.4-.311-2.564.623-4.653-.283-6.967-.49-1.38-.125-2.846-.075-4.258-.018-1.517.06-3.078-.238-4.551.227-1.358.426-2.444-.48-3.907-.256-2.596.398-5.272.674-7.868 1.072-.554.085-1.202.412-.796.84 1.39-.23 2.578.353 4.033.268 1.333-.076 2.745-.177 4.066.32.826.31 1.861-.027 2.662-.334 1.013-.028 1.61.467 2.733.425 3.773-.148 7.38.295 11.029.753 2.223.277 4.678.334 6.98.405 3.784.12 7.263.745 10.88 1.11.95.096 1.887.162 2.843.224 3.396.219 6.749.372 9.931 1.19 2.495.642 5.366 1.141 8.143 1.255 4.001.162 7.347 1.079 10.87 1.768 3.801.744 7.324 1.839 11.484 2.118.25.018.446.174.695.236 4.146 1.011 7.919 2.381 12.756 2.706 1.568.107 2.886.919 4.66 1.226 5.532.958 11.224 1.734 16.307 3.271 2.434.734 5.37.945 8.02 1.508 9.009 1.916 17.995 3.865 27.43 5.27 3.274.487 5.996 1.638 8.871 2.57 3.194 1.032 6.402 1.972 10.145 2.576 3.187.515 6.05 1.597 8.831 2.58 1.032.362 2.162.843 3.18.918 1.451.107 2.316.439 3.182.887.622.323 1.318.431 2.216.5a8.913 8.913 0 012.57.608c4.562 1.885 9.754 3.257 15.124 4.467 2.68.604 4.794 1.592 7.285 2.317.717.21.666.584.659.936.286.006.619-.034.843.025 3.023.771 5.967 1.626 8.853 2.498 4.576 1.384 8.69 3.134 13.219 4.563 5.416 1.71 10.717 3.457 15.008 5.847.56.313 1.162.634 1.871.85 4.418 1.33 8.661 2.759 12.032 4.724.739.431 2.187.582 2.57.975.594.6 1.576.961 2.361 1.434 3.77 2.267 8.85 3.829 13.448 5.593 4.221 1.617 7.024 3.87 11.397 5.34.8 1.1 2.767 1.724 4.324 2.508 1.354.682 2.679 1.366 4.46 1.86 1.532.425 2.321 1.358 3.516 1.999 3.928 2.109 8.193 4.069 12.281 6.107.63.314 1.369.504 2.136.607 3.958.528 6.485 2.031 8.462 3.527 2.433 1.835 5.764 3.033 9.236 4.309 1.423 2.116 5.113 3.391 8.32 4.799 1.34.588 2.6 1.117 3.643 1.854 1.227.867 2.093 1.962 4.482 2.332.153.023.084.39.116.598.54.018.83.157.858.423 4.124.368 6.938 1.695 9.32 3.232 3.317 2.136 6.63 4.303 10.902 5.966 2.89 1.125 5.395 2.411 8.06 3.628 1.455.665 2.806 1.38 4.228 2.061 1.764.843 3.393 1.775 5.287 2.514 3.606 1.408 7.245 2.783 10.5 4.389 2.802 1.382 5.452 2.855 8.483 4.104 2.527 1.04 4.424 2.584 8.081 2.731 1.883 1.87 5.558 2.743 8.465 3.97 2.785 1.172 5.464 2.37 7.705 3.778.616.388 1.38.619 1.999.926 2.657 1.306 6.387 2.03 8.32 3.71 1.068.01 2.169 0 2.122.764-1.217.066-1.724-.31-2.064-.793-2.3.091-3.997-.454-5.496-1.227-2.89-1.493-6.336-2.662-9.57-3.955-3.023-1.207-5.966-2.534-8.124-4.334-2.694-.307-4.32-1.517-6.583-2.276-2.846-.954-4.757-2.382-7.53-3.285-2.915-.95-5.164-2.189-7.579-3.369-4.428-2.16-8.77-4.363-13.288-6.48-2.1-.984-4.348-1.941-6.821-2.668-3.813-1.121-6.691-2.637-9.338-4.337-2.647-1.693-6.394-2.914-8.7-4.765-3.78-.97-5.859-2.73-8.324-4.31-.536-.018-.826-.155-.858-.422-1.713-.332-3.042-.913-4.418-1.503-1.933-.831-2.81-2.19-4.924-2.779-2.998-.831-4.562-2.295-7.14-3.308-1.839-.725-3.117-1.935-5.043-2.722-2.781-1.139-5.077-2.496-7.59-3.756-4.68-2.345-10.13-4.29-14.62-6.737-.372-.2-.807-.43-1.3-.514-1.72-.291-3.066-.954-3.71-1.62-1.004-1.041-2.879-1.476-4.52-2.017-1.176-.387-2.164-.847-3.243-1.272-2.785-1.092-4.389-2.691-6.992-3.86-2.585-1.164-5.206-2.32-7.734-3.497-2.48-1.16-4.974-2.345-7.484-3.502-1.39-.64-3.128-1.095-4.837-1.677-.575-.89-2.161-1.51-3.4-2.276-2.755-1.704-6.332-2.886-9.775-4.137-2.94-1.07-5.276-2.512-8.61-3.327-.24-.06-.496-.176-.594-.295-1.231-1.5-4.465-2-6.546-3.085-1.061-.55-2.69-1.04-4.494-1.343-2.516-.421-5.098-1.034-7.078-1.963-2.636-1.237-5.699-2.138-8.766-3.067-3.675-1.112-6.702-2.617-9.761-4.093-1.756.266-2.426-.603-3.603-.903z"/><path d="M103.455 62.658l.355.196c-.107.072-.203.197-.319.208-.096.008-.3-.114-.311-.186-.004-.067.175-.147.275-.218zM998.91 88.12c-.1.074-.236.22-.287.21-.471-.104-.483-.26-.036-.4.047-.015.211.123.323.19zm43.58 8.206c-.108-.066-.331-.154-.315-.194.155-.309.39-.32.598-.021.028.034-.18.14-.283.215zm-770.127 10.222c.116.066.236.13.355.196-.107.075-.203.197-.319.208-.096.008-.3-.112-.307-.184-.008-.069.175-.146.271-.22zm910.066 14.806c-.1.077-.196.157-.296.234-.111-.07-.295-.133-.31-.21-.017-.064.167-.2.275-.205.103-.008.219.114.33.18zm-20.294-.176c.116.066.236.13.351.196-.103.075-.2.197-.315.208-.1.008-.3-.112-.307-.184-.008-.069.175-.146.271-.22zm11.005 1.521c-.1.075-.231.224-.291.21-.467-.1-.479-.257-.032-.398.052-.014.211.122.323.188zM671.709 251.693l-.292.235c-.111-.07-.299-.133-.315-.21-.012-.064.172-.2.275-.205.108-.006.224.114.332.18zm504.07-127.68c-.096.08-.196.157-.292.235-.115-.07-.299-.13-.315-.21-.012-.064.172-.2.28-.205.1-.006.219.117.327.18zm39.552 3.815c.12.066.24.13.356.196-.104.075-.2.197-.316.208-.1.01-.299-.112-.307-.184-.012-.069.172-.146.267-.22zm-87.081-13.148c-.176.109-.34.29-.539.311-.367.035-1.017.058-.674-.367.207-.253.798-.22 1.213.056zm184.888 2.762c.18-.109.343-.292.543-.314.367-.034 1.017-.058.674.37-.203.25-.798.22-1.217-.056zm-70.619 11.923c.523-.325 1.033-.38 1.572-.005-.515.353-1.03.34-1.572.005zM141.23 76.207c-.53-.117-1.332.232-1.628-.39.874-.323 1.373-.176 1.568.428.356.045.77.047.687.417-.563.059-.559-.218-.627-.455zm645.008 75.778c-.25 1.87-1.98 3.525-3.09 5.264-1.416 2.213-2.044 4.526-3.834 6.701-.698.852-.586 1.952-.904 2.937-.329 1.015-.699 1.955-2.047 2.77.396.313.695.55 1.132.9-2.145 1.6-1.573 3.619-2.717 5.44-1.132 1.81-1.487 3.78-3.474 5.41-2.216 1.81-2.111 3.904-3.445 5.809-.052.075.332.227.661.444-1.195.496-2.103 1.12-1.666 1.989.332.032.72.032.639.295-.527.041-.523-.154-.583-.322-1.248.06-.886.54-.938.912.915.149 1.244.367.142.865-.037-.38-.06-.635-.086-.891-2.604.915-1.618 2.305-1.872 3.572-1.095 1.26-2.619 2.49-2.608 3.974.004.288-.033.553-.347.833-1.454 1.288-2.687 2.646-4.286 3.885-1.334 1.037-2.163 2.214-2.75 3.318-.69 1.297-2.331 2.436-2.395 3.846-.022.474-.534 1.083-1.614 1.39l-.03.017c-2.697 1.233-4.05 2.8-4.793 4.818-3.169 1.204-4.872 3.283-7.327 5.08-2.324 1.702-4.286 3.524-6.46 5.276-.456.366-1.121.675-1.745.981-2.227 1.096-4.644 2.081-6.852 3.2-2.096 1.064-4.38 2.113-6.591 3.157-.893.417-1.973.643-2.96.863-1.016.223-1.905.517-2.33.925-.841.8-1.936 1.366-3.561 1.752-3.434.818-5.807 2.399-9.177 3.271-1.386.361-2.615.822-4.364.784-1.681-.034-7.592 1.403-9.307 2.032-1.894.698-4.323.93-6.404.96-3.542.052-6.662.639-9.882 1.17.377.574 1.599.065 2.488.595-7.114.007-13.806.91-20.744.434-.07-1.145-2.668-.534-3.527-1.226-3.329.792-6.755.438-10.107.179-2.454-.19-4.782-.324-7.218.07-1.633.263-3.195-.303-4.812-.435-.778-.064-1.603-.233-2.466-.27-1.577-.07-3.169.152-4.753-.153-1.311-.254-2.59-.799-4.158-.357-3.707-1.71-8.923-1.724-13.492-2.991h-3.789c-4.999-1.988-7.274-2.546-12.677-3.136-1.558-.17-7.147-1.497-8.28-1.997-1.752-.77-3.755-1.27-6.011-1.557-1.222-.154-2.38-.438-3.595-.607-1.08-.15-1.924-.893-3.299-.351-.934-1.288-4.076-1.185-5.485-2.245-1.053-.794-2.776-1.273-4.83-1.204-.841.027-1.346-.19-1.895-.445-1.072-.496-2.328-.769-3.803-.916-2.295-.227-3.752-1.316-5.919-1.673-4.607-.761-7.491-2.514-11.28-4.584-3.344-1.237-8.825-1.848-12.064-4.14-.62-.44-1.652-.554-2.481-.832-4.498-1.506-8.66-3.253-13.436-4.57-1.51-.416-3.082-.882-3.956-1.856-1.472-1.64-5.227-2.364-7.01-3.947-.231-.205-.975-.285-1.51-.374-4.33-.709-5.521-.878-7.274-1.976-1.539-.962-4.472-1.147-5.193-2.493-3.415-.338-4.67-2.18-7.745-2.801-1.14-.23-2.317-.767-2.859-1.318-1.352-1.37-3.874-2.166-5.754-3.27-.38-.221-.825-.545-1.3-.573-3.34-.205-5.059-1.338-6.92-2.602-1.875-1.27-4.199-2.48-7.15-3.149-3.871-.874-6.039-2.547-8.389-4.142-.706-.48-1.382-1.05-2.395-1.222-1.39-.237-2.13-.767-3.007-1.226-3.12-1.639-6.139-3.325-9.177-4.984-.43.145-.788.266-1.263.423-2.525-.898-5.41-1.57-6.788-3.147-.389-.442-1.387-.75-2.126-1.109-3.337-1.615-6.453-3.326-8.889-5.319-.594-.483-1.745-.515-2.436-.85-3.168-1.537-6.247-3.122-9.378-4.68-.538-.27-.16-.768-.983-.975-2.548-.376-4.651-.989-5.765-2.324-.422-.507-1.606-.846-2.372-1.293-2.171-1.267-5.04-2.2-6.685-3.738-.825-.772-3.067-.72-4.405-1.364-.455-1.057-1.3-2.02-3.676-2.373-.695-1.279-3.254-1.711-4.753-2.634-1.472-.908-3.172-1.728-4.834-2.557-1.118-.557-2.25-1.08-3.67-1.5-2.174-.649-3.732-1.724-5.44-2.668-1.969-1.089-4.166-2.064-6.665-2.771-1.595-.452-2.623-1.104-3.912-1.655.22-.15.389-.27.568-.396-.25-.536-1.158-.196-1.715-.32-1.024-.141-.639-.754-1.431-1.023-6.094-2.07-9.67-5.426-15.386-7.682-3.456-1.367-6.027-3.158-9.262-4.598-1.868-.831-4.29-1.388-6.36-2.15-.586-.214-1.326-.375-1.614-.69-2.48-2.71-6.83-4.46-11.702-6.017-1.931-.619-3.53-1.53-5.118-2.388-1.992-1.074-4.338-1.88-6.939-2.627.03-.945-1.023-1.594-2.664-2.017-2.91-.754-5.739-1.628-8.81-2.153-1.33-.227-2.372-.485-3.224-.968-2.926-1.658-6.632-2.722-10.671-3.658-.43-.378-.732-.89-1.625-1.175-1.839-.587-3.565-1.238-5.01-2.063-.453-.26-1.084-.162-1.656-.171l-.033.017-.012.447c.333.032.721.032.64.294-.524.041-.524-.154-.584-.322-1.77.104-2.47-.579-3.362-1.137.527-.128 1.027-.248 1.603-.39-1.129-.394-2.414-.389-3.524-.813-1.88-.72-4.184-1.206-6.437-1.617-1.491-.273-3.008-.38-3.576-1.266-.082-.126-.377-.3-.594-.308-2.814-.115-4.114-1.515-6.55-1.935-3.295-.567-5.593-1.95-8.694-2.686-.729-.173-1.17-.65-1.476-.83-4.547-.206-7.764-1.02-10.865-2.468-2.358-1.1-5.545-1.951-8.687-2.527-.493.172-.844.292-1.196.414-3.075-1.955-7.375-3.034-11.821-3.867-2.324-.436-4.686-.884-7.32-1.057-3.202-.21-6.206-1.179-9.31-1.824.22-.172.38-.295.717-.556-5.119-.545-9.86-1.502-14.553-2.525-1.334-.256-1.136-1.137-2.361-1.476-.266-.047-.52-.124-.796-.14-4.79-.296-9.468-.734-13.563-2.163-2.092-.727-4.371-1.32-6.505-2.02-1.632-.539-3.654.054-5.268-.518-.097-.034-.512.233-1.005.041-4.21-1.637-9.602-2.102-14.018-3.532-1.204-.39-2.175-.314-3.12.163-6.479-1.996-13.75-2.89-20.905-3.969-2.832-.428-5.694-.733-8.56-1.054-.134-.015-.246-.124-.362-.119-4.073.149-7.846-.66-11.695-1.084-3.052-.34-6.183-.452-9.213-.694-4.23-.339-8.71-.307-13.074.047-1.11.088-2.241.09-3.31.398-.314.435.874.649.717 1.245 3.363-.23 6.37.904 9.674.363l2.757 1.265c3.03-.665 5.944.45 8.821.141.834.354 1.648.583 1.446 1.295 1.91-.188 3.042.384 3.968.87 3.781.27 7.525-.401 11.004.676l-1.506.41c.026.049.041.14.078.145 2.71.212 4.798 1.175 7.432 1.511 2.712.344 5.302.963 8.03 1.256 1.617.173 2.917.55 4.277.923 1.846.51 3.647 1.059 5.6 1.314 1.249.224 1.865-.457 2.86-.427 2.757 1.343 5.94 2.305 9.168 3.23 1.349.386 2.757.643 4.338.831 2.836.339 5.787.767 8.025 1.84.617.292 1.267.319 2.003.3.717-.607.998-.61 1.711-.002.333.032.725.032.64.293-.524.044-.524-.154-.58-.321h-1.82c.247.645 1.45.882 2.149 1.29.699.142 1.173-.006 1.707-.282 3.864.968 7.757 1.945 12.013 3.013 2.189.087 5.215-.36 6.673 1.288 2.533.2 4.356 1.284 7.009 1.393 1.42.06 2.597.5 3.751.96 1.991.789 4.21 1.407 6.763 1.644l1.236-.462c2.493.725 4.94 1.622 7.667 2.179 2.758.562 5.623 1.056 7.91 1.981a86.36 86.36 0 007.043 2.478c1.278.111 1.685-.663 2.825-.25l-.486.502c.045.038.082.124.164.134 1.992.252 3.348 1.075 5.19 1.45 4.767.964 8.466 2.829 13.137 3.9 1.386.318 2.615.792 4.188.982 2.847.344 4.401 1.6 6.43 2.493 1.678.214 3.468.334 4.61 1.037 1.05.643 2.493 1.029 3.823 1.394 3.56.975 6.789 2.09 9.737 3.528 1.973.957 4.737 1.576 7.334 2.114 2.638.545 5.265.915 6.722 2.35 1.012 1 3.228 1.49 5.044 2.008 3.99 1.145 7.215 2.8 11.126 3.983.968.292 1.996.77 2.365 1.277.968 1.322 3.4 1.752 5.41 2.328 3.169.906 3.621.945 5.784 2.265.927.568 2.134 1.02 3.064 1.585.893.541 2.451.645 3.135 1.39.202.216.986.578 1.517.872 3.52 1.938 7.383 3.683 11.948 4.98 1.185.338 2.171.716 2.71 1.325.743.846 2.092 1.521 3.504 1.912 2.974.826 4.678 2.07 5.9 3.621 2.294.322 3.635 1.219 5.245 2.005 3.535 1.731 6.479 3.792 10.843 5.074.964 1.102 3.254 1.709 4.274 2.713.86.848 2.392 1.231 3.262 2.077.419-.423.669-.673 1.013-1.019l1.083.593c.243.443-.194.66-.523.913.135.092.24.254.407.271.426.045 1.076-.066 1.282.047 2.41 1.325 6.21 1.891 7.839 3.644.231.253.665.49 1.117.665 2.376.914 4.072 2.09 5.862 3.29 1.655 1.113 4.345 1.837 7.043 2.916 1.065 1.899 3.837 3.51 7.865 4.486 2.574.622 3.4 1.938 5.044 2.905 1.102.646 2.342 1.26 3.284 1.978l1.113-.378c1.431.722 2.885 1.498 4.443 2.216 1.046.483 1.939 1.014 3.321 1.373 2.07.534 2.97 1.697 4.077 2.709 1.18 1.075 2.346 2.179 4.913 2.606 2.208 1.874 6.643 2.54 9.064 4.405 2.1 1.62 5.268 2.92 8.736 3.88 1.203.335 2.2.713 2.746 1.309 1.117 1.212 3.045 2.141 5.148 2.739 2.702.767 4.118 2.275 7.1 2.796 2.028 1.85 4.853 3.3 8.567 4.3 1.472 1.94 5.948 2.062 8.373 3.464.683.397 1.894.709 2.53 1.16 1.845 1.307 4.296 2.271 6.579 3.352 2.331 1.104 4.752 2.247 7.375 3.02 2.716.803 4.827 1.985 7.626 2.654.788 1.694 3.146 2.785 5.922 3.544 1.827.5 3.452 1.157 5.548 1.525 2.171.382 3.897 1.448 5.72 2.266 2.037.913 3.703 2.006 6.464 2.508 1.256.227 2.16.943 3.169 1.413l-.602.553c3.598.906 6.927 1.978 10.802 2.504 1.12.15 1.939.861 2.84 1.286.085.53-1.017.154-1.073.675 2.223.662 4.697 1.43 6.587 2.55 4.398.441 7.077 2.337 10.918 3.254 2.783.666 5.742 1.213 7.285 2.762.58.583 2.115.848 3.146 1.07 2.433.522 4.189 1.739 7.275 1.688.956-.015 2.328.46 3.217 1.01 2.029 1.255 4.767 2.071 7.7 2.863h3.483c3.994.73 7.233 1.857 11.186 2.397 3.572.489 6.666 1.86 10.428 2.976.318.043.687-.421 1.401-.474 3.9.624 6.946 2.28 11.35 2.232-.175.476-1.03.265-1.4.632l2.514.673c1.521-.24-.243-.587.55-.888 5.365 1.578 11.758 2.127 16.869 4.005 2.963-.192 5.93.297 8.922-.406 1.67.299 6.901.58 8.19.411.729.085.568.461.9.674.258.054.516.161.766.154 2.481-.064 4.708.475 7.055.725 2.566.275 5.103.395 7.82-.221 1.744.474 3.904.67 5.952.221 1.012-.223 1.935-.229 2.929-.259 2.712-.08 5.459.2 8.13-.406.975-.222 2.402-.182 3.471-.013 4.794.752 8.773-.265 13.01-1.36 2.884.264 5.709-.33 8.395-.973 2.533-.606 5.205-1.087 7.559-1.901 1.147-.397 2.525-.56 3.964-.718 2.97-.328 6.049-.56 8.638-1.58 1.689-.663 3.98-.881 5.829-1.477l-.038-.02c-.31-.035-.717-.044-.594-.276.041-.07.385-.097.594-.146l.038-.019c.07-.156.09-.361.549-.299.138.02.198.196.291.299l.038.019c5.858-2.71 11.922-5.294 18.513-7.55-.332-.032-.721-.032-.639-.294.523-.043.523.154.583.322.837-.015 1.397-.327 1.61-.63.722-1.014 2.29-1.734 3.886-2.228 2.018-.622 3.434-1.485 5.123-2.24v-1.108l-.034-.02c-.31-.035-.721-.044-.598-.276.041-.07.389-.1.594-.146l.038-.019c.074-.154.093-.361.553-.299.138.02.198.196.291.299l.037.019c.99-.055 1.64-.453 1.966-.797 1.397-1.469 3.844-2.522 5.645-3.808 2.085-1.485 3.363-3.26 5.082-4.999 3-.445 3.613-1.983 4.887-3.231.358-.356.512-.634 1.184-.969 2.107-1.054 3.617-2.438 4.043-3.905.373-1.28 1.599-2.26 2.738-3.325 1.674-1.572 4.405-2.896 4.944-4.729.833-2.863 4.434-5.206 5.671-7.98 2.892-1.597 2.335-3.742 3.453-5.618 1.206-2.03 2.294-4.1 2.645-6.225.123-.745 1.05-1.31 1.218-2.044.09-.372.687-.774.598-1.224-.127-.618.254-1.08 1.12-1.571 1.723-.974 1.57-2.443 3.37-3.512-.534-2.023.285-3.96 2.523-5.712-.217-2.852 3.21-5.385 2.652-8.237.598-.347 1.17-.682 1.768-1.03v-3.3c2.466-1.851 2.279-4.081 3.493-6.106.12-.201-.418-.504-.657-.769 2.622-1.214 1.961-3.235 4.274-4.5-.277-1.819.609-3.464 1.379-5.158.717-1.58 1.617-3.16 2.073-4.775.112-.382.292-.677.8-.97 2.993-1.722 3.908-3.772 3.609-6.047 3.053-1.962 4.64-4.209 4.435-6.772 1.382-.753 1.573-1.799 2.447-2.694 2.72-2.793 4.973-5.683 8.46-8.313 1.673-1.262 2.876-2.738 4.614-4.044.814-.613 1.7-1.157 2.667-1.687.867-.477 1.756-.906 2.347-1.54 1.292-1.4 3.41-2.477 6.086-3.282 1.371-.412 2.47-1.002 3.33-1.702 1.707-1.383 3.974-2.468 6.964-3.14 1.976-.441 3.93-.864 4.707-2.041.21-.316.953-.547 1.469-.808 4.905-2.492 10.457-4.543 16.63-6.178 2.888-.766 5.683-1.621 8.53-2.428.243-.067.75-.03.814-.109 1.63-2.01 5.799-1.44 8.713-2.113 1.185-.274 2.806-.022 4.11-.477 1.039-.363 2.26-.589 3.453-.888.859-.079 1.363.705 2.275.36 1.61-.614 4.158-.143 5.332-1.206 1.248.117 2.178-.519 3.22-.462 3.953.214 7.678-.694 11.628-.502 1.52.073 3.052.11 4.651-.322 1.11-.3 2.986-.22 4.23.038 1.15.239 2.2.293 3.344.308 4.001.05 8.122-.321 11.792.874 2.656-.116 4.95.527 7.405.846 1.58.205 2.768.728 4.308.9 2.107.097 4.33-.178 6.318.465.213.07.721-.045.848.03 3.109 1.858 7.85 1.832 11.908 2.563 1.326.24 2.634.487 3.938.761 2.07.437 3.878 1.28 6.374 1.098.81.645 2.466.267 3.482.756 1.494.718 3.512.835 5.466 1.015 2.474.23 4.786.559 7.14 1.177 3.67.963 7.29 2.159 11.646 2.379 1.887.094 3.045 1.162 4.831 1.254 1.913.1 3.565.329 5.276.774 3.355.87 6.748 1.728 10.327 2.365l.037-.018c.075-.155.094-.361.55-.3.142.021.198.196.295.3l.033.018c1.27-.118 2.1.399 3.169.578 1.065.176 2.227.406 2.989.791.945.478 1.939.01 2.914.261 2.22.574 4.872.81 6.826 1.538 2.38.886 5.149 1.147 7.727 1.657 2.406.473 4.857.81 6.662 1.797 1.147.63 2.828.645 4.255.863 1.185.184 2.235.726 3.643.523 1.865 1.353 4.996 1.161 7.63 1.502 2.85.366 5.021 1.291 7.558 1.959.247-.247.497-.49.822-.812 1.18.116 2.317.278 3.027.86.497.083 1.248-.16 1.524.279-.826.23-1.289.118-1.465-.308-.47.016-.8.12-.919.364.079.132.071.335.247.39 2.828.851 6.06 1.208 9.199 1.434 2.918.209 5.365.863 7.94 1.404 2.973.626 5.746 1.493 8.708 2.14.647.14 1.607.81 2.545.11 1.113.584 3.056.326 4.072 1.093 1.084.816 3.191.912 4.734 1.429.927.31 1.898.017 2.754-.293 1.752.945 4.244.695 6.393 1.007 4.483.655 4.487.65 6.564.245 1.129 1.055 2.69 1.93 4.973 2.463 2.03.472 3.748 1.261 6.154 1.485 2.518-.478 3.008-.515 4.958.152 3.516 1.207 7.637 1.69 11.486 2.493.986.205 2.282.03 3.187.03.904.384 1.558.662 2.092.886 1.14.083 1.573-.56 3.123-.318 2.866 1.171 6.984 1.361 10.948 1.794.261.244.527.49.788.731 1.039-.008 2.066.212 2.963-.156-.18-.361-.964-.214-1.465-.517 1.207-.331 2.455-.1 3.62-.164 1.947.848 4.17 1.493 6.386 2.147.108-.041.22-.09.34-.13.24-.08.605-.253.706-.22 2.694.87 6-.039 8.758.75.452-.227 1.177-.39 1.21-.819-.803-.105-1.326-.333-1.576-.823 1.435.062 2.731-.28 3.912.218-.729.364-2.26-.184-2.399.633 2.6.99 5.803.805 9.023 1.422-.478-.46-.661-.64-.934-.897h9.842c2.264.908 5.103 1.19 8.074 1.244.351-.31.627-.552.904-.799 1.745-.197 3.422-.15 4.865.392 1.554-.032 2.641-.662 5.073-.395-1.737-.735-2.854-.527-3.848-.557-1.02-.03-2.051.027-3.075-.015-1.083-.041-2.25.188-3.448-.256 3.086-.423 6.303.34 9.165-.669 2.04.685 4.364.547 6.665.523l.034-.019c.205-.528 1.046-.387 1.722-.41 5.657-.193 11.303-.428 16.743-1.323 1.931.332 2.525-.771 4.18-.957 5.06-.566 9.984-1.442 14.998-2.123.837-.113 1.356-.603 2.283-.447.415.127.77.24 1.12.35.658-.3.202-.719.561-1.078 4.177-1.062 8.736-1.816 12.636-3.232 2.298-.835 4.768-1.543 7.13-2.335 2.491-.835 2.473-.85 3.702-1.816 5.003-1.495 9.722-2.987 12.733-5.501a4.899 4.899 0 011.83-.944c3.083-.814 4.843-2.147 6.446-3.636.59-.547 1.162-1.254 2.765-1.53 1.4-.243 2.324-1.055 2.443-1.706.202-1.096 1.876-1.577 2.91-2.303-.212-.152-.388-.272-.518-.362 2.174-1.574 6.007-2.535 6.067-4.874.019-.838 1.719-1.645 3.206-2.186v-2.051l-2.253.483c-.8.31.041 1.047-1.143 1.478-.848.308-1.734.955-1.712 1.438.071 1.408-1.942 2.177-3.19 3.196-2.414 1.97-5.65 3.627-8.179 5.54-.826.623-1.513 1.196-2.862 1.527-.381.094-.912.188-1.05.352-.702.846-2.447 1.135-3.576 1.752-.993.545-.455 1.408-1.883 1.895-1.016.35-2.14.79-2.436 1.555-1.591.56-4.136.64-4.636 1.942-1.764.312-2.366 1.544-4.831 1.41-.935-.05-2.007.48-3.169.476-2.428 2.391-7.854 2.293-11.343 3.326-.527.513.026.601.273.878-2.022.562-3.976 1.261-6.147 1.667-2.458.46-4.614 1.457-7.528 1.245-.079-.006-.224.233-.337.357.516.079 1.26-.149 1.58.273-.821.225-1.33.148-1.52-.301h-1.266c-.822.325.15.474.164.724-1.255.825-3.572.744-5.1 1.434-.523.237-1.965.179-2.832-.24-.605-.292-1.36-.123-1.932-.117-.754.274.015.385.03.566-1.894.985-4.27.047-6.296.342l-.967.85c-3.598-.438-6.957.571-10.45.432-.363.335-.617.574-.894.831-.295-.282-.553-.532-.956-.914-1.745.653-3.766.512-5.758.512-6.89 0-13.783-.032-20.676.02-2.115.016-4.189-.114-6.404.326-1.6.32-3.826-.3-5.762-.48-1.214-.114-2.87-.16-3.908-.735-1.591.34-3.004.613-4.868.149-1.86-.463-3.983-.794-6.221-.623-.68.051-1.379.023-2.115-.127-1.734-.358-3.59-.363-5.451-.442-1.756-.075-3.624-.248-5.455-.31-4.446-1.298-9.46-1.796-14.213-2.633l-1.603.512c-.699-.713-1.894-.929-3.202-1.153-3.99-.684-7.913-1.51-11.855-2.207-5.298-.936-10.604-1.854-15.834-2.893-1.304-.26-2.769-.271-3.367-1.057-.048-.064-.168-.156-.261-.16-3.18-.116-5.758-1.321-8.792-1.402-2.817-.075-5.361-.557-7.76-1.032-4.174-.828-8.538-1.555-12.154-3.008-2.235-.897-4.985-1.288-7.619-1.777-1.203-.224-2.406-.433-3.628-.895-4.812.186-9.101-.857-13.637-1.839.96-.519 2.1-.118 2.855-.693-1.94-.038-3.423-.756-5.384-.559-.064.167-.064.363-.587.322-.082-.264.306-.264.639-.294-.108-.126-.28-.368-.325-.362-3.225.428-5.571-.444-7.917-1.328-.206-.077-.542-.066-.863-.1-.33.111-.68.234-1.024.352l-2.007-.586.52-.412c-.18-.081-.34-.198-.557-.239-4.584-.897-9.296-1.664-13.738-2.717-2.851-.676-6.363-.535-8.706-1.953-.818-.498-2.817-.714-4.233-.839-2.683-.235-4.928-1.026-7.66-1.21-1.875-.128-3.77-.655-5.223-1.373-.953-.472-2.029-.675-3.314-.885-5.728-.938-11.194-2.228-16.78-3.36-4.192-.848-8.253-1.745-12.157-2.933-2.104-.64-5.086-.974-7.716-.671-1.042-.282-1.883-.583-2.817-.743-.927-.158-1.947-.175-2.888-.25-1.08-.231-1.102-.838-1.749-1.186-.691-.088-1.166.064-1.662.318-2.085-.551-4.293-1.034-6.27-1.689-2.032-.67-4.446-.308-6.594-.814-1.118-.263-2.459-.705-4.077-.558-1.382.124-1.898-.519-2.29-1.158-5.541-.647-10.835-1.826-16.5-2.431-1.206-.128-2.417-.634-3.81-.899-5.35-1.026-10.82-1.256-16.422-1.237-3.228.011-6.463.055-9.684-.013-3.486-.071-6.752.423-10.11.754-2.25.222-4.637.158-6.961.133-2.638-.028-5.067.19-7.413.861-2.07.595-3.8.619-7.588.608-.636-.002-1.256.246-1.91.308-4.442.42-9.101.647-12.811 2.044-6.057 2.278-13.705 3.26-19.111 6.027-1.05.538-2.6.374-3.789.925-2.197 1.02-4.532 1.893-6.326 3.177-1.969 1.412-5.186 2.26-7.883 3.34-.448.18-1.095.295-1.349.524-1.517 1.38-4.323 1.98-6.594 2.918-3.042 1.26-5.833 2.671-8.116 4.356-2.443 1.803-5.429 3.42-8.653 4.909-.941.436-1.991.833-2.544 1.478-1.734 2.036-4.506 3.79-6.229 5.845-1.038 1.24-2.5 2.37-2.865 3.762-.441 1.658-2.485 2.989-4.08 4.4-1.327 1.168-2.795 2.296-3.498 3.73.161.484 1.386.932.516 1.699-2.107 1.863-2.548 4.029-3.807 6.044-.557.891-1.155 1.737-2.096 2.506-1.816 1.48-2.825 3.085-3.445 4.774l.037.017c.306.037.717.047.594.276-.04.073-.388.1-.594.149l-.037.016c.433.835-.467 1.627-1.05 2.243-1.625 1.713-1.79 3.533-2.608 5.308-.84 1.822-1.412 3.726-3.437 5.279.179.34.504.447.971.463.063-.168.063-.363.587-.322.082.261-.307.261-.64.293z"/><path d="M1095.308 110.445c2.84-.206 5.512.354 8.165.994 4.355 1.051 8.859 1.914 13.456 2.656 1.381.223 3.022-.215 4.206.456 4.269-.24 7.692 1.238 11.722 1.518.615.042 1.26.176 1.92.176 3.188.005 6.269.315 9.284.817.245.04.546.032.808.013 3.647-.279 7.118.595 10.748.422.518-.023 1.03-.026 1.55.138 2.643.843 5.627.745 8.539.667 2.78-.074 5.646.384 8.347-.327a3.287 3.287 0 011.9.097c.307.112.815.269 1.053.21 3.364-.815 6.932-.131 10.347-.392 1.503-.116 2.826.442 4.466.064 1.385-.321 3.205.197 4.704-.29 1.382-.448 3.205.133 4.594-.547.424-.21 1.568-.055 2.383-.037 3.343.072 6.527-.368 9.677-.842 3.986-.6 7.954-1.226 11.87-1.93 1.213-.219 2.411.035 3.637-.217.947-.528 2.217-.9 3.599-1.15 2.456-.442 5.011-.757 7.063-1.652.283-.122.715-.162 1.077-.233 8.241-1.594 14.845-4.505 21.96-7.011 3.46-1.22 6.468-2.692 9.67-4.057 2.749-1.173 4.807-2.705 7.843-3.702 4.006-3.332 9.96-5.934 13.528-9.446 1.133-1.116 2.245-2.282 3.965-3.239.339-.188.712-.496.646-.715-.304-.986 1.174-1.54 2.09-2.156 1.868-1.256 2.19-2.83 3.695-4.213l-1.934-1.025c-1.679.247-2.532 1.07-4.438 1.219.811 1.249-1.6 1.795-1.969 2.822-.128.362-.317.808-.656 1.129-.394.377-.535.651-.152 1.007-2.22.425-2.217 1.93-4.424 2.358l.518.61c-3.803 1.24-5.692 3.352-8.51 5.072-3.17 1.938-5.944 4.074-9.484 5.81-2.041 1.003-3.85 2.25-6.604 2.88-.587.136-1.067.422-1.512.677-1.9 1.092-4.169 1.886-6.99 2.186-1.396.148-1.89.997-3.371 1.021-2.062 1.578-5.499 2.183-8.555 3.01-1.893.513-2.995 1.596-5.25 1.776-2.124.169-3.177 1.219-5.156 1.546-2.991.497-5.851 1.168-8.414 2.174-8.465-.162-15.932 1.852-24.573 2.888-.214-.009-.912-.613-1.872-.363-2.183.571-4.704.171-6.918.714-.89.218-2.227.237-3.163.068-1.69-.303-3.457.379-4.794-.03-1.727-.528-3.409-.28-5.108-.336-1.755-.06-3.53.028-5.291-.023-2.687-.081-5.153.588-7.902.46-2.898-.136-5.71-.44-8.524-.756a15.554 15.554 0 00-1.969-.102c-3.34.051-6.576-.178-9.705-.79-.241-.048-.528-.047-.79-.045-6.95.018-13.25-1.437-19.853-2.2-3.55-.41-6.914-1.388-10.388-1.123-4.155-.717-7.291-2.14-11.453-2.52-3.827-.35-7.16-1.642-10.572-1.699-4.172-.967-7.342-2.193-11.663-2.51-3.903-.285-7.774-1-11.525-1.786-2.518-.528-5.17-.905-7.64-1.51-.473-.117-1.084-.179-1.392-.367-2.897-1.786-7.615-1.72-11.131-2.875-1.495.184-2.038-.561-3.108-.834h-4.56a44.111 44.111 0 00-10.689-3.306h-3.857c-4.78-1.476-9.91-2.362-14.7-3.607-.445-.115-1.046-.064-1.536-.147-1.717-.287-3.385-.554-5.022-1.039-2.193-.651-4.442-1.32-7.211-1.54-2.166-.172-4.166-1.07-6.462-1.382-1.634-.222-3.15-.592-4.936-.63-2.48-.057-4.32-.962-6.089-1.735-1.602-.703-3.34-1.029-5.343-1.135-.78-.04-1.53.03-2.327-.206-4.418-1.315-9.36-2.034-13.995-3.112-1.658-.384-2.936-1.035-4.814-1.319-2.28-.343-4.597-.516-6.887-.712-1.74-.148-3.305-.278-4.77-.841-2.839-1.09-5.968-1.751-9.532-2.207-4.096-.527-8.13-1.385-12.07-2.237-1.952-.423-3.986-.657-5.965-.914-1.292-.168-2.539-.353-3.682-.657-4.687-1.247-9.494-2.262-14.892-2.336-.467-.007-.92-.245-1.396-.38-1.001.118-1.806.475-3.001.43-2.431-.092-4.887.014-7.325-.036-6.414-.13-12.59.63-18.75 1.35-3.693.431-7.312.95-11.104 1.194-3.202.207-6.414.753-8.897 1.897a21.655 21.655 0 01-4.656 1.514c-4.58.964-8.265 2.616-12.178 4.095-2.462.928-4.414 2.049-6.006 3.38-.901.754-2.7 1.034-4.1 1.522-4.79 1.67-8.713 3.77-12.422 6.041-1.896 1.16-3.105 2.734-6.245 3.354-.656.13-1.14.569-1.56.91-3.755 3.053-7.264 6.137-9.098 9.69-1.267 2.451-4.14 4.607-6.403 6.921.242 2.131-1.61 4.167-1.696 6.334-.014.363-.653.718-1.001 1.08-2.556 2.63-4.905 5.285-5.516 8.267-.2.969-1.413 1.82-1.81 2.829-.621 1.58-1.537 3.122-1.381 4.91-2.041.824-1.872 2.256-2.2 3.428-.767 2.738-2.66 5.273-4.383 7.837-1.047 1.557-.528 3.107-.819 4.895-2.106 1.506-2.175 3.561-3.256 5.467-.736 1.291-.767 2.624-1.375 3.926-.553 1.19-1.385 2.323-2.39 3.355-1.437 1.475-1.775 3.053-2.728 4.564-.664 1.058-.926 2.106-.715 3.147-.332.425-.46.867-.94 1.154-2.597 1.546-3.308 3.406-4.106 5.337-1.009 2.448-2.166 4.877-5.146 7.05-2.114 1.543-3.209 3.477-4.46 5.291-.91 1.33-1.526 2.656-3.587 3.736-1.116.585-1.24 1.573-2.08 2.344-1.85 1.694-3.664 3.389-5.619 5.059-3.702 3.161-8.368 6-11.625 9.3-.294.295-.774.59-1.316.767-4.71 1.555-8.023 3.863-12.074 5.774-1.568.741-3.005 1.565-4.932 2.064-1.84.475-3.181 1.231-4.607 1.946-1.237.622-2.494 1.2-4.01 1.672-2.362.736-4.8 1.416-6.756 2.488-2.42 1.328-6.116 1.459-9.218 2.096-4.348.895-8.772 1.668-12.8 2.92-5.124.203-10.112.605-14.83 1.783-2.186.544-4.731.768-7.26.766-3.66-.003-7.328 0-11.096 0-.56-.24-1.178-.502-1.965-.837-2.456.14-5.16-.32-7.702.404-.28.079-.774-.023-1.16-.065-4.217-.467-8.604-.398-12.786-1.013-.487-.07-1.14.199-1.737.259-2.712.275-5.323-.245-7.858-.507-1.85-.19-3.66-.22-5.985-.362-5.028-1.704-11.387-2.287-17.445-3.297-1.692-.282-3.598-.426-4.814-1.28-.425-.298-1.285-.537-2.014-.6-3.232-.277-6.168-1.095-9.356-1.373-1.924-.167-3.664-.555-5.011-1.095-4.214-1.686-8.96-2.818-13.94-3.652-3.004-.501-5.197-1.528-7.729-2.339a45.022 45.022 0 00-4.89-1.268c-5.761-1.159-11.418-2.506-16.029-4.621-2.02-.927-3.495-2.253-6.054-2.824-6.7-1.497-11.795-4.156-17.5-6.328-4.977-1.892-10.859-3.272-14.665-5.94-1.955-1.366-4.659-2.356-6.91-3.483-.992-.053-1.78-.014-2.253.266-2.58-.54-4.2-1.573-5.73-2.691-1.716-1.253-4.462-1.948-6.686-2.926-2.877-1.264-6.272-2.16-8.465-3.894-1.471-1.164-3.595-2.239-6.338-2.769-.676-.13-1.188-.308-1.626-.558-4.314-2.475-9.695-4.365-14.154-6.765-3.533-1.904-7.501-3.593-11.165-5.422-2.16-1.077-4.107-2.323-6.183-3.432l-2.645-.074c-3.174-1.91-7.395-3.36-10.113-5.54-2.182-1.754-5.097-3.193-8.099-4.558-2.507-1.141-5.236-2.112-7.145-3.603-1.043-.814-2.473-1.612-4.418-2.058-.815-.188-1.65-.553-2.086-.949-2.127-1.932-6.078-3.058-8.289-4.967-.704-.61-1.913-1.124-3.222-1.529-2.314-.716-4.086-1.752-5.73-2.839-3.056-2.024-6.724-3.746-10.5-5.403-.559-.247-1.609-.42-1.805-.742-.688-1.1-2.722-1.44-4.21-2.054-1.745-.72-3.544-1.328-4.722-2.383-.677-.607-1.889-1.123-3.222-1.518-3.488-1.032-6.086-2.522-8.717-4.09-2.908-1.73-5.16-3.845-9.419-4.958-1.61-.419-2.407-1.345-3.799-1.964-4.165-1.849-8.416-3.652-12.23-5.706-1.125-.604-1.788-1.339-2.852-1.953-1.534-.89-3.471-1.538-5.309-2.156-2.583-.87-4.265-2.255-7.104-2.938-.694-.167-1.33-.525-1.7-.875-1.816-1.725-4.876-2.524-8.302-3.167-2.082-.391-4.155-.877-5.678-1.799-.853-.514-2.09-.838-3.084-1.259-4.093-1.726-8.79-3.031-12.585-4.984-2.038-1.047-4.359-2.105-7.598-2.433-1.392-.139-2.857-.627-4.159-1.122-1.882-.717-3.806-1.442-6.054-1.867-1.589-.3-2.732-.893-4.02-1.414-2.888-1.168-6.559-1.765-9.111-3.19-1.886.044-3.212-1.072-5.274-.662-2.68-1.347-5.799-2.314-9.377-2.876-.815-.088-.521-.583-1.102-.765-3.567-1.107-7.145-2.206-10.72-3.309-3.326.178-5.802-1.21-9.021-1.277-.74-.016-1.585-.197-2.166-.437-3.754-1.557-8.295-2.27-12.734-3.045-2.545-.444-4.7-1.145-6.876-1.883-3.132-1.06-6.458-1.835-10.437-1.657-3.212-1.254-6.731-2.295-10.448-3.167-.597-.14-1.174-.435-1.761-.433-2.784.007-4.908-.772-7.284-1.332-2.259-.532-4.445-1.141-6.724-1.64-1.779-.389-3.675-.757-5.578-.857-1.703-.088-3.008-.469-4.372-.865-2.035-.592-4.117-1.078-6.428-1.38-4.151-.54-7.916-1.653-12.181-2.111-1.603-.173-3.164-.115-4.638-.278-.981-.273-1.917-.53-2.957-.818a42.52 42.52 0 01-9.985-.794 24.609 24.609 0 00-5.44-.458c-2.983.074-5.974.02-8.913.02-2.36.243-3.713 1.645-6.59 1.36 1.982.06 2.763 1.255 4.621 1.15 1.941-.112 3.668.334 5.43.515 3.788.386 7.532.994 11.276 1.53 5.505.79 10.986 1.609 16.391 2.548 6.272 1.088 12.817 1.923 18.657 3.452 6.293 1.65 12.793 3.08 19.05 4.771 6.052 1.635 12.631 2.776 18.772 4.307 5.263 1.312 10.79 2.284 16.039 3.603 3.93.987 7.847 2.038 12.185 2.697 4.317.657 8.375 1.943 12.164 3.242 3.298 1.133 6.728 2.093 10.237 3.017 3.591.948 7.173 1.89 10.523 3.077 4.196 1.487 8.742 2.718 12.955 4.196 3.474 1.219 7.156 2.233 10.79 3.306.224.067.538.091.687.188 3.25 2.07 8.189 2.952 12.174 4.506 4.086 1.592 8.165 3.202 12.44 4.657 4.045 1.375 7.464 3.075 10.994 4.748 2.106.997 4.6 1.84 6.976 2.658 3.147 1.085 5.575 2.492 7.802 3.922 2.639 1.696 6.075 2.822 9.146 4.204.29.13.735.18.994.323 3.682 2.038 8.127 3.691 11.339 5.981.615.437 1.564.923 2.69 1.265 1.468.444 2.812 1.104 3.62 1.907.463.463 1.143.655 1.886.946 2.113.826 3.895 1.835 5.588 2.913a65.411 65.411 0 0011.155 5.698c4.456 1.754 8.904 3.456 12.05 5.883.145.112.363.204.567.296 5.74 2.624 10.243 5.847 15.897 8.512 2.421 1.14 4.393 2.49 6.911 3.598 1.72.756 3.502 1.526 5.35 2.123 1.703.547 2.628 1.301 3.692 2.027 3.75 2.554 8.085 4.792 13.093 6.709 1.067.407 2.207.898 2.753 1.486.56.604 1.416 1.01 2.293 1.397 2.197.972 4.528 1.863 7.311 2.992l1.365 1.378c.621.211 1.478.377 2.144.74 2.287 1.236 4.908 2.282 7.747 3.163 1.168.36 1.174 1.05 2.097 1.467 3.892 1.761 6.9 4.042 11.798 5.212 2.137 1.382 5.398 2.159 7.387 3.653.853.639 2.507.982 3.664 1.532 1.89.895 3.423 2.047 5.55 2.728 2.622.839 3.99 2.237 6.538 3.13 2.473.865 4.86 1.904 7.108 2.99 2.062 1 4.766 1.655 7.208 2.45.321.106.853.092 1.074.226 2.2 1.312 5.281 2.133 7.491 3.406 3.088 1.781 6.666 3.084 10.96 4.03 1.457.32 3.54.698 3.995 1.834.114.283.825.551 1.382.736 3.847 1.286 7.732 2.538 11.58 3.82 3.861 1.286 7.916 2.39 11.338 4.051 2.408 1.168 5.34 2.098 8.607 2.753 2.76.551 5.395 1.416 7.698 2.383 3.786 1.585 8.327 2.179 12.765 2.949.37.063.947-.06 1.185.045 3.043 1.339 7.353 1.32 10.503 2.653 1.713.726 4.051 1.166 6.379 1.492 3.52.491 6.707 1.418 9.93 2.3 2.424.664 5.014 1.263 7.791.933 4.645 1.306 9.429 2.185 14.347 2.854 1.392.188 3.07-.097 4.386.151 1.354.257 2.373.097 3.626-.005 1.375-.111 2.815.067 4.276.245 4.96.602 9.826 1.58 15.083 1.375.915-.035 1.823-.056 2.697.275.456.173 1.399.23 1.92.108 2.974-.7 6.113-.437 9.128-.344 3.406.104 6.576-.55 9.94-.475 3.25.07 6.524.093 9.767-.011 2.328-.074 4.642-.532 6.76-.928 6.465-1.214 13.2-2.096 19.285-3.824 1.112-.315 2.455-.42 3.695-.616 6.155-.981 11.954-2.348 17.359-4.145.328-.109.773-.16 1.008-.303 3.623-2.238 8.507-3.734 12.71-5.629.404-.183.718-.45 1.181-.563 6.044-1.471 9.567-4.375 14.343-6.563 1.12-.513 1.586-1.38 2.487-2.033 2.124-1.539 4.107-3.152 6.583-4.533 1.658-.928 2.069-2.225 4.017-3.007 1.889-2.694 6.11-4.655 8.696-7.156 1.35-1.303 2.6-2.63 3.499-3.99.974-1.479 2.514-2.77 4.016-4.077 1.997-1.74 3.924-3.476 4.2-5.534.062-.454.598-.766.936-1.097.801-.775 1.299-1.596 1.945-2.393 1.426-1.767 3.236-3.468 3.971-5.355.891-2.279 2.78-4.414 3.091-6.797.228-1.75 1.25-3.554 2.674-5.162 2.117-2.388 3.122-4.918 4.43-7.405.391-.732.937-1.379 1.7-2.256-.162-1.002.114-2.203 1.25-3.297.346-.331.498-.65.38-.977-.418-1.186.432-2.317 1.043-3.372 1.371-2.37 2.362-4.752 3.143-7.19.853-2.673 2.49-5.272 4.19-7.848.8-1.206 1.474-2.412 1.46-3.72-.017-1.542.695-3.087 1.82-4.477.94-1.157 1.562-2.41 2.988-3.476 1.295-.976.694-2.228 1.644-3.271.214-.233-.024-.585.231-.79 1.959-1.553 2.736-3.31 3.333-5.079.988-2.948 3.589-5.583 6.417-8.11 2.46-2.2 4.95-4.407 8.047-6.45a105.207 105.207 0 018.324-4.944 32.55 32.55 0 016.22-2.538c.452-.134.96-.261 1.292-.458 2.98-1.788 6.983-3.009 10.095-4.72 2.563-1.413 5.764-2.368 8.976-3.307 1.6-.466 3.298-.833 4.728-1.453 2.891-1.255 6.573-1.618 10.075-2.045 4.179-.507 8.372-.977 12.416-1.719 1.668-.304 3.312-.398 5.056-.413 2.646-.025 5.374.283 7.899-.395.107-.028.273.007.404-.007 1.792-.2 3.24.537 5.05.44 1.73-.09 3.55-.107 5.246.067 4.327.44 8.465 1.392 12.768 1.728 3.281.257 5.733 1.228 8.7 1.687 2.98.464 5.926.999 8.814 1.598 4.58.95 9.435 1.541 13.804 2.76 5.91.053 10.424 2.07 15.767 2.894 4.628.715 8.706 2.085 13.473 2.654 2.075.25 4.023.923 6.092 1.347a793.263 793.263 0 0016.053 3.104c3.06.563 5.982 1.331 8.938 2.038 6.151 1.472 12.634 2.576 18.595 4.257.908.255 1.803.202 2.652.343 2.1.352 4.3.676 6.148 1.266 4.207 1.34 9.052 1.66 13.59 2.457 3.054.538 6.196.944 9.004 1.843 1.748.558 3.765.92 5.727 1.277 3.046.556 5.657 1.66 8.986 1.849 1.93.988 4.694.803 7.022 1.136 1.778.255 3.512.544 5.125.953 3.868.981 7.736 1.937 11.88 2.59.868.136 1.634.441 2.615.714"/><path d="M481.519 122.682c-.096.08-.196.157-.296.237-.111-.072-.295-.133-.311-.213-.012-.064.172-.2.275-.205.1-.005.224.117.332.181zm258.022 11.972c-.104.077-.2.157-.3.234-.111-.07-.295-.133-.31-.21-.017-.064.167-.2.279-.205.1-.008.215.114.33.18zm-154.626 30.414c.12.066.236.13.351.196-.103.075-.2.197-.315.208-.096.01-.3-.112-.307-.184-.008-.069.175-.146.271-.22zm125.385 5.51c-.096.075-.232.224-.292.21-.463-.1-.478-.258-.036-.396.056-.016.216.12.328.186zM424.039 91.006c-.108-.064-.332-.155-.312-.192.152-.311.383-.32.595-.024.024.035-.184.144-.283.216zm18.932 10.415c-.1.074-.235.22-.29.207-.468-.1-.484-.258-.04-.396.055-.016.215.122.33.189zm287.096 47.414c.343.367.439.673-.32.95-.234-.367-.462-.684.32-.95zm.353 3.86c.072-.237.072-.514.626-.455.092.372-.327.37-.686.412-.104.487.315 1.144-.93 1.253-.072.237-.072.514-.626.455-.092-.372.327-.372.682-.415.108-.484-.307-1.141.934-1.25zm-263.866-39.277c.355.046.774.04.678.423-.53.035-.562-.218-.614-.46-.355-.045-.77-.045-.682-.418.558-.058.558.219.618.455zm603.706-67.166c-2.768-.159-5.042-.98-7.395-1.615-1.644-.443-3.312-.708-5.09-.964-.547-.334-.609-.887-1.568-1.105-.318.089-.64.177-.986.272-.137-.189-.27-.378-.418-.588-.603-.244-.794.22-1.582.205-1.237-.315-2.744-.698-3.86-.98-4.976.155-7.127-2.278-11.902-2.593.233-.042-.322.06-.87.164l-.547-.652h-3.073c-.952-.456-1.832-.876-2.78-1.332h-2.843c-1.5-.263-1.196-1.44-3.093-1.217l-.03.017c-.07.147-.086.341-.508.281-.126-.017-.178-.184-.267-.279l-.03-.02c-1.268.108-1.936-.484-3.354-.561l2.442-.654c-4.53.118-7.672-.813-10.89-1.624-.415.168-.799.371-1.415.292-.083-.04-.237-.076-.268-.131-.157-.315-.287-.636-.424-.946-.939-.132-1.88-.424-2.254.317.302.03.658.03.582.282-.455.023-.486-.146-.534-.309-2.332-.827-5.086-1.226-7.59-1.89-1.815-.483-4.144-.727-6.185-.916-2.024-.189-3.277-1.076-5.305-1.083-.449-.002-.15-.535-1.158-.675h-3.4c-2.008-.903-4.888-1.152-7.06-2.073l-.027-.016c-1.78 0-3.586.045-4.819-.816l-.027-.016c-.353.081-.702.165-1.267.297-1.682.094-2.466-.898-4.069-1.216-2.555-.507-5.213-.747-7.795-1.141-1.298-.198-2.394-.521-3.613-.848-4.932.086-7.604-.196-9.56-1.234-3.715-.203-7.322.318-11 .41-.637-.274-1.243-.539-1.96-.85-2.62-.033-5.386.133-7.818-.445-.795.371.24.505-.175.854-2.384 0-4.925.065-7.449-.025-1.74-.06-3.274.503-5.08.261-1.033-.14-2.12-.399-3.63-.16l-2.428 1.122c-.233-.237-.462-.463-.78-.783-1.686.214-3.49.933-5.224.03l-.034-.018c-.76.043-1.603-.166-2.267.175.147.341.877.194 1.192.401-1.428.884-3.833.463-5.473 1.073-3.58-.152-7.086.162-10.94.54-.304.135-.914.4-1.236.541-2.298.645-4.175-.586-6.428-.028.664.173 1.116.293 1.589.417-2.665.88-5.624 1.263-8.71 1.46l-.03.015c-.535.518-1.627.68-2.518.762-1.181.108-1.77.376-2.414.87-.76.582-1.802 1.219-3.463.49-3.175 1.232-6.429 2.398-10.758 2.49-.39.735-.322 1.723-2.623 1.615l-.031.016c-.99 1.149-3.302.86-5.02 1.202-.58.113-1.36-.027-1.45.466.305.03.661.032.586.278-.48.039-.48-.145-.538-.302-1.294.2-1.952.798-2.832 1.247-.603.304-1.21.454-2.02.422l-.032.016c-1.883 1.281-4.305 2.322-5.84 3.88-.458-.452-.69-.678-.992-.978-.843 1.196-3.274 1.703-4.144 2.846-.065.083-.747.04-1.14.059-.063.155-.063.339-.542.3-.075-.247.28-.246.586-.274-.028-.219-.213-.373-.689-.442-.846.011-1.301.31-1.657.672.167.12.318.231.534.383-1.319.175-2.031.728-3 1.174.209.183.383.346.572.51-.374.24-.932.136-1.422.179l-.034.016c-.048.484-1.048.312-1.459.56-.274.166.103.57-.685.537-.257-.09-.473-.164-.723-.253l-6.702 3.333-1.422-.387c-.674.454-2.058.666-1.907 1.323.507.559 1.15-.4 1.64.334-1.455.523-3 1.076-4.555 1.637-.678.408-.202.92-.445 1.454-1.291.578-2.267 1.431-4.02 1.857-.227.055-.58.118-.628.212-.92 1.698-4.027 2.1-6.428 2.905-.373.412.311.622.74 1.004l-2.768 2.078c-.62-.237-.4-.529-.486-.78l-.03-.016c-1.748.82-1.748.82-.977 1.914-1.877.99-2.788 2.24-3.411 3.462-1.014.517-2.185.653-3.33.943l-1.078 1.002c.435.246.887.502 1.34.756-.426.751-2.354.573-2.905 1.246-.627.543.959.799.394 1.673-3.757 1.95-3.96 5.174-6.943 7.747-.352.306-.424.724-.92 1.073-1.09.768-1.614 1.662-1.583 2.63.017.677.003 1.354.003 2.121-.514-.159-.733-.228-1.264-.39-.602.978-.98 2.028-2.736 2.622-.171 1.594.442 3.19-1.134 4.645-.301.281-.904.117-1.425.202-1.801.692-1.486 1.758-1.544 2.64-.59.32-1.576.183-1.565.673l.03.017c.466.022.87.232.723.384-1.25 1.299-.62 2.755-1.394 4.126-.657 1.157-1.404 2.06-3.253 2.748-.148.053-.093.254-.13.39.506.385.828-.021 1.657-.124-1.36 1.746-2.048 3.464-1.685 5.277-.942-.103-.579-.49-1.03-.642-.775-.021-.946.36-1.419.603.233 2.016-.212 4.007-1.579 5.932-.414.58-1.181 1.095-2.442 1.503.507 1.136-.811 2.253-.709 3.51l1.583-.394c.15-.235-.295-.59.692-.753.04.376.123.659-.747.724-.027.338.199.769-.123.997-1.634 1.173-1.583 2.619-2.57 3.887-.424-.099-.862-.2-1.3-.3l-.031.016c-.452.8-.905 1.6-1.353 2.396.794.277 1.236-.074 2.03-.306-.057 1.119-.246 2.09-2.225 2.704.328 1.108-1.703 2.035-.754 3.11-.692.448-1.253.816-1.842 1.201l.729.712c-1.264 1.234-2.212 3.062-2.278 4.4-3.236 1.923-3.236 1.924-2.716 3.237.264-.26.494-.495.799-.797 1.085 1.082-1.874 1.93-.281 2.785-.946.885-2.614 1.251-2.935 2.103-.34-.094-.665-.182-.98-.267-.551.382-.527.458.551 1.634-1.849 1.117-2.329 2.427-.67 3.828-.771.032.033.293-.46.18-.212-.048-.421-.102-.777-.19-2.346.358-2.322 1.584-2.942 2.494-.661.98-2.76 1.757-1.548 2.986-2.21.806-2.994 1.921-3.346 3.15l.027.015c.445.03.699.156.75.555-1.456.77-2.925 1.695-4.01 2.758l.034.016c.921.136.753.387.459.767-.613.802-1.96 1.28-2.888 1.93-.917.646-1.941 1.207-3.329 1.54.411.36.939.524.747.98-3.017 1.201-4.233 3.27-7.086 4.712-.51.256-.832.64-1.531.862-2.75.878-4.833 2.096-6.507 3.483-.853.527-2.11.067-3.021.36-2.555 1.783-2.565 1.759-7.884 2.483-1.805.246-3.018 1.029-4.507 1.7-1.822-.604-3.799-.576-5.823-.52-.63.11-1.051.365-1.37.674.853.436 2.134-.06 3.288.505-2.49-.064-4.558.818-6.71.433-2.958-.528-6.318-.1-9.02-1.104-1.227.11-1.353.719-1.74 1.15l-1.726-.042c-.124-.396.79-.584.42-.976-.701-.433-1.845-.348-2.55-.196-2.59.557-5.015.551-7.635.012-.976-.203-2.408-.252-3.462.156-.874.337-1.802.152-2.686.19-.736-.229-.445-.614-.571-.94-3.008-1.492-7.025-1.553-10.782-1.925-1.432-.142-2.77-.212-3.733-.834l-.034-.018c-2.799-.323-5.71-.53-7.511-1.871-1.031-.589-2.884.309-3.76-.608l-.032-.018c-1.815.074-3.253-.327-4.541-.892-.072-.48.777-.232 1.01-.426-1.462-.965-1.88-1.002-4.89-.444-1.816-.404-3.182-1.159-5.158-1.355-.374-.037-.62-.4-.929-.611l-.03-.018c-1.206-.267-1.911-.829-2.795-1.28-.6-.307-1.206-.448-2.02-.384l-.028.016c-.045.24-.346.355-.767.386-1.528.117-2.781-.219-3.942-.652-.168-.321.274-.515.63-.83-1.37-.307-3.059-.307-4.083-.894-1.16-.666-2.925-.523-4.476-1.143.144-.993-1.65-1.541-2.976-2.243-1.72.136-3.692-.11-5.19-.632.176-.163.354-.324.525-.484-.928-.748-2.743-.748-4.178-1.354-.727-.908-2.004-1.739-4.326-2.05-.15.165-.35.387-.675.74-1.192-1.16-3.569-1.468-5.367-2.162-2.633-1.014-4.264-2.515-7.007-3.409-1.986-.648-3.517-1.61-5.685-2.134-.432-.104-.884-.318-.898-.638-.305-.028-.664-.03-.585-.276.48-.039.48.143.53.302h1.648c-.411-.597-1.247-.876-2.124-1.284-1.459.12-2.935-.06-3.873-.813-.572.223-.949.435-1.668.364-2.267-1.05-4.267-2.327-6.864-3.267l-.027-.016c-.27-.01-.685.033-.784-.04-1.449-1.042-3.518-1.741-5.244-2.612-1.195-.601-2.199-1.034-4.093-1.16-.26-.758-1.709-1.178-2.668-1.8 1.155-.594-.256-.933-.465-1.446-2.394.45-4.305-.205-6.271-.731-1.01-.313-.274-.947-1.182-1.454l-2.432-.767c.045-2.174-4.35-2.07-6.267-3.26-.449.132-.884.26-1.254.367-1.709-.408-2.503-1.058-2.565-1.92-1.007-.259-1.935-.495-2.863-.732.137-.34.89-.15 1.192-.389-.466-1.159-3.83-.947-3.983-2.196-.901-.33-1.905-.083-2.11-.119-2.182-1.104-3.887-1.964-5.57-2.816l1.432-.352c-.462-.947-2.647-.78-3.03-1.615-.75.242-1.08.348-1.347.431-2.842-.528-4.267-2.17-7.514-2.486-1.65-1.975-3.664-3.857-8.24-4.553l.596-.529c-.856-.613-2.02-1.046-3.583-1.332-.15-1.01-1.072-1.931-2.736-2.317-1.76-.406-2.377-1.198-3.223-1.753-.72-.245-.884.046-1.247.092-1.048-.394.14-.63.278-.95-.46-.228-.733-.583-1.52-.601l-.035.016c-.065.145-.082.34-.504.28-.126-.017-.181-.183-.267-.28l-.034-.016c-1.223-.173-1.682-1.089-3.356-.88-.312.039-.774-.322-1.213-.458-1.055-.325-.757-.98-1.294-1.378-.521-.385-1.935-.38-2.13-1.025-.042-.132-.038-.27-.052-.404l-.027-.016-4.771-1.55c-.336-.281.507-.472.657-.81-.335-.19-.698-.392-.883-.498-.966-.122-1.463.092-1.816.306-1.685-.587-1.017-1.781-2.811-2.242-1.377-.354-2.644-.829-3.946-1.246-.486-.498 1.23-.765.414-1.34-.996-.324-2.26.027-3.438-.197-1.346-.727-2.733-1.472-4.144-2.234l.616-.562c-.332-.471-.791-.777-1.657-.865l-.035.017c-.065.145-.082.34-.5.28-.13-.018-.185-.183-.27-.28l-.031-.017c-1.541-.7-3.744-.988-4.846-2.066l.753-.682c-1.524-.127-2.548-1.135-4.463-.691-.73-.663-1.346-1.389-1.116-2.177l-2.449-.645c-.592.08-.791.233-.815.454.305.03.661.03.586.276-.48.04-.476-.143-.535-.302-2.517-.732-3.815-2.128-6.127-2.987-.942-.351-1.764-.79-3.106-1.055-.514-1.636-3.322-2.387-5.607-3.316-1.78-.726-1.952-.617-2.127-1.359l-.034-.016c-.62-.247-1.195-.546-1.884-.726-.558-.143-1.253-.143-1.897-.209.206-.256.387-.486.59-.733-.282-.493-.963-.701-1.926-.885-1.483-.283-3.02-.732-3.723-1.456-1.263-1.303-3.726-1.826-5.705-2.663-3.669-1.553-7.617-2.947-10.457-4.964l-.03-.017c-1.227.042-2.244-.232-2.295-.848-.055-.652-.692-1.082-1.559-1.342-2.445-.733-3.9-2.171-6.956-2.509-.469-.051-2.544-.33-1.524-1.299.158-.15-1.034-.678-1.54-.996-.888.051-.532.438-.953.63-1.308-.229-1.78-1.134-3.346-1.208-.682-.405-.12-.926-.476-1.394-.894-.426-1.452-1.168-3.127-1.023l-.03.016-.011.42c.305.03.657.03.586.276-.48.04-.48-.145-.538-.302-.665 0-1.332.016-1.802-.311-1.627-1.142-3.856-1.887-6.165-2.622-1.89-.603-3.089-1.723-5.586-1.946-.3.117-.67.332-1.435.256-1.445-.844-3.736-1.445-3.935-2.936-1.53-.405-3.13-.827-4.64-1.225-.497.171-.83.283-1.155.396-.503-.537-.74-1.212-2.325-1.191-1.096.016-1.678-.318-2.038-.802l-.034-.018c-.603-.05-1.418.118-1.583-.398l-.03-.017c-3.94-1.1-7.395-2.584-11.272-3.729l-.037-.017h-1.507c-1.942-.324-2.206-1.36-3.408-1.94-1.151-.345-2.415-.004-3.562-.216-.88-.405-1.88-.767-2.22-1.566-1.763.085-3.404-.337-5.243-.572.182-.168.353-.322.53-.484-.934-.781-2.462-1.149-4.12-1.474-.311.103-.64.209-1.023.334-.75-.323-1.658-.599-2.024-1.14l-.035-.017c-2.524-.456-5.452-.379-7.476-1.529-.274-.155-.987-.124-1.504-.145-1.52-.062-2.829-.38-3.747-.984-1.044-.682-2.832-.947-3.596-1.767-3.305-.018-5.312-1.723-8.47-1.795-2.209-.05-2.592-.691-2.822-1.619l-1.335.32c-1.624-.178-3.028-.68-4.658-.928-1.34-.203-2.901-.49-4.234-.888-1.448-.432-3.29-.398-4.503-1.038-.401.14-.73.253-1.206.42-3.322-1.093-7.165-1.743-10.429-2.954-2.801.38-4.832-1.04-7.548-.857-1.624-1.512-4.864-1.496-7.425-2.145-2.733-.69-5.508-.816-8.508-.733l-7.305-2.486-.031-.016c-3.117-.42-6.206-.914-9.364-1.228-1.301-.13-1.842-.693-3-.919-2.264-.442-4.52-.917-6.815-1.31-2.679-.457-5.497-.704-8.19-1.15-2.787-.463-5.647-.726-8.373-1.431-3.083-.799-6.542-1.47-10.296-.924-1.798-1.004-4.312-1.115-6.5-1.288-2.305-.182-4.552-.73-7-.516-1.58.138-2.884-.575-4.604-.438-1.37.107-2.774.042-4.243-.297-1.35-.31-3.175-.036-4.781-.092-3.418-.122-6.864.29-10.282-.359-1.418-.27-3.25-.173-4.791.002-1.257.143-2.346.231-3.555-.018-.538-.111-1.028.04-1.086.396l.034.016c.846.154 1.51.482 2.562.449 3.168-.101 6.25.162 9.213.777.233.05.528.043.788.034 4.394-.15 8.655.84 13.083.334 2.863 1 6.161 1.288 9.347 1.27 3.39-.017 6.647.283 9.548.96 4.326 1.009 8.936 1.337 13.416 1.949 1.304.178 1.983.714 3.051.828 4.476.492 8.398 1.736 12.717 2.391 1.76.269 3.476.527 4.935 1.06 3.356 1.228 7.37 1.631 11.073 2.418 7.01 1.486 14.295 2.65 21.159 4.292 3.98.954 8.196 1.57 12.107 2.627 3.73 1.007 8.031 1.435 11.946 2.283 4.983 1.08 10.388 1.68 14.672 3.578 2.76 1.225 6.312 1.824 9.573 2.605 5.052 1.21 9.757 2.723 14.617 4.1 2.144.605 4.412 1.11 6.45 1.796 4.12 1.393 8.627 2.469 12.607 3.95 1.503.558 3.24.793 4.757 1.346 2.407.878 5.154 1.486 6.89 2.819.326.247 1.083.364 1.682.493 3.13.683 6.148 1.496 8.874 2.53 2.668 1.014 5.466 1.938 8.07 2.984 1.184.48 2.534.668 3.695 1.055 2.414.806 4.62 1.776 6.915 2.679.726.286 1.503.587 2.13.885 4.175 1.99 8.576 3.798 13.258 5.47 2.38.853 4.123 2.173 6.695 3.003 1.254.403 1.388 1.48 3.216 1.652 2.343 2.285 7.12 3.147 10.573 4.785.329.156.911.253 1.284.442 1.624.829 3.258 1.657 4.854 2.502 1.42.753 3.318 1.228 4.562 2.087 2.876 1.991 6.586 3.58 9.911 5.35.997.53 1.867 1.133 3.36 1.42.777.15 1.507.616 1.877 1.031.825.923 2.36 1.495 3.712 2.131 1.237.583 1.922 1.382 3.408 1.886 1.5.507 3.14 1.127 4.09 1.85 1.222.93 2.79 1.115 4.705 1.39 2.083.926 3.929 2.08 5.706 3.285 1.682 1.138 4.213 1.909 5.542 3.24l1.548.1c.592.797 2.062 1.238 2.959 1.9 2.305 1.694 5.267 3.014 8.206 4.397 1.89.891 3.545 2.022 5.418 2.983 1.267.652 2.206 1.626 4.456 1.55 1.997 1.028 4.103 2.007 5.963 3.096 2.733 1.599 4.798 3.518 8.048 4.866 4.49 1.864 8.22 4.152 12.625 6.032 3.308 1.412 6.212 3.01 9.36 4.49.949.447 1.62 1.03 3.257 1.071 1.164.03 2.007.695 2.658 1.188 3.329 2.514 8.096 4.267 12.319 6.31 3.124.438 4.928 1.754 7.107 2.823.685.336 1.233.705 1.53 1.149 3.854.966 7.285 2.13 9.573 4.085 1.25 1.064 3.63 1.548 5.535 2.264.644.242 1.35.468 1.798.784 2.788 1.96 7.031 2.92 10.788 4.199 2.055.7 3.925 1.38 5.6 2.4a28.51 28.51 0 007.57 3.217c3.195.84 6.143 1.811 8.613 3.18 1.976 1.098 4.661 1.707 7.086 2.5 4.64 1.51 9.268 3.031 13.528 4.825.617.26 1.264.46 1.96.659 2.928.846 5.698 1.845 8.658 2.661 1.92.528 3.472 1.444 5.887 1.513.527.015 1.014.425 1.688.73 3.734-.354 6.847.733 10.104 1.52 1.97.48 4.367.601 5.71 1.662 4.27.348 7.342 2.334 11.997 2.276 1.431-.018 2.962.454 4.322.825 4.004 1.097 8.155 1.848 12.758 1.61 2.291-.119 4.397.365 6.586.523 4.466.32 7.213.37 12.473-.053 2.76-.221 5.641-.043 8.467-.046 3.757-.002 7.346-.26 10.1-1.778 1.98-.103 3.147-1.177 5.274-1.145 1.658.025 3.11-.514 4.213-.968 1.856-.758 3.97-1.357 5.582-2.3 2.014-1.174 4.186-2.29 7.011-2.971.754-.182 1.127-.502 1.586-.852 1.764-1.338 3.784-2.587 5.545-3.928 1.894-1.444 3.658-2.935 5.36-4.442.856-.757 1.61-1.527 2.627-2.246 1.596-1.128 2.808-2.387 3.407-3.782.196-.447.497-.941 1.055-1.28 2.675-1.628 4.103-3.535 5.028-5.572.812-1.772 2.956-3.253 4.093-4.967.842-1.272 1.616-2.516 1.966-3.857.287-1.112 1.034-2.192 1.561-3.287.99-2.062 1.34-4.207 3.206-6.153 2.374-2.472 2.507-5.274 4.175-7.831 1.942-2.976 2.497-6.116 4.62-9.052.552-.762.21-1.589.531-2.405.624-1.582 1.908-3.04 2.58-4.593.455-1.042.3-2.129.944-3.184.271-.445.586-.898.956-1.304 1.914-2.087 3.127-4.267 3.117-6.571-.004-.789.774-1.414.917-2.16.35-1.81 1.586-3.5 3.223-5.106 1.644-1.608 2.973-3.248 3.24-5.107.182-1.27 1.51-2.437 2.545-3.532 1.185-1.251 1.418-2.568 2.165-3.831.948-1.594 1.894-3.158 3.188-4.699 1.952-2.327 4.124-4.592 6.312-6.854 1.158-1.194 2.644-2.315 4.206-3.384.65-.445 1.541-1.007 1.534-1.383-.068-2.313 3.573-3.465 5.929-4.877 2.85-1.707 5.291-3.552 7.983-5.306a40.684 40.684 0 014.97-2.776c1.716-.804 3.565-1.497 5.045-2.488 2.49-1.672 6.031-2.805 9.555-3.88 1.322-.404 3.021-.598 3.326-1.573 2.634-.728 4.25-2.085 6.665-2.909 1.013-.346 1.99-.696 2.73-1.148 3.13-1.918 7.257-3.133 11.373-4.333 4.758-1.385 9.645-2.65 14.478-3.969 1.616-.441 3.212-.853 4.644-1.5 2.181-.988 5.178-1.19 7.877-1.581 4.723-.679 9.538-1.197 14.302-1.79 1.867-.234 3.638-.198 5.446-.33 2.425-.18 4.973-.188 6.809-1.146 5.075-.297 10.066-.597 15.13-.581 1.494.005 3.224.155 4.625-.149 1.472-.316 3.26.07 4.24-.694 6.404 1.186 12.798.859 19.37.919.847.23 1.885.51 3.08.836 2.4-.281 4.784.245 7.14.583 7.84 1.125 15.307 2.793 22.828 4.38 1.88.398 3.914.634 5.918.834 2.34.232 4.014 1.295 6.494 1.3 1.058.89 3.007.745 4.568.999 2.603.428 4.63 1.534 7.37 1.712 5.93.382 10.741 2.27 16.32 3.114 1.518 1.147 4.378.715 6.34 1.45 1.76.66 3.86 1.158 5.953 1.483 3.764.585 7.134 1.574 10.665 2.403 3.514.827 7.374 1.272 10.812 2.161 3.47.896 7.1 1.578 10.679 2.303 2.15.434 4.079.88 5.52 1.738 3.265.078 5.864.92 8.32 1.765 1.87.645 4.055.757 5.976 1.333 1.823.548 3.99.894 6.073 1.256 3.52.615 6.747 1.739 10.312 2.193a124.418 124.418 0 0118.002 3.654c4.469 1.257 9.182 2.083 13.908 2.967 2.007.378 4.305-.156 6.031.799 1.685.786 3.644 1.4 6.066 1.662 2.675.288 4.836 1.29 7.572 1.524 2.812.238 5.182 1.231 8.138 1.265.459.005.907.254 1.366.385 2.61.737 5.227 1.468 8.409 2.076 3.921-.313 7.702.78 11.637 1.423 3.758.613 7.453 1.175 11.467 1.106 3.014-.053 5.785.689 8.7.995 1.027.107 2.044.22 3.078.226 3.634.017 7.285-.092 10.895.05 1.72.068 3.11-.5 4.897-.289 1.603.19 3.347.26 5.049.248 1.747-.011 3.497-.007 5.25 0 2.774.012 5.377-.363 7.997-.808 3.436-.583 6.864-1.16 10.539-1.332 1.562-.073 3.12-.656 4.5-1.144 1.52-.54 3.124-.978 4.843-1.28 2.127-.373 3.908-1.011 5.812-1.601 3.312-1.025 5.73-2.67 9.388-3.428 1.267-.264 2.264-.817 2.877-1.396.606-.571 1.469-.864 2.329-1.262.811-.373 1.482-.816 2.407-1.202 3.432-1.44 5.977-3.274 7.672-5.366-.538-.449-1.373-.465-1.565-.113-.367.673-1.425.988-2.216 1.435-1.514.857-2.843 1.896-4.47 2.567-1.73.714-2.579 1.649-3.986 2.402-.88.468-1.918.876-2.983 1.226-2.613.859-5.5 1.534-7.878 2.534-2.493 1.05-5.812 1.438-8.041 2.901-1.333-.17-2.771.051-3.932.452-4.946 1.7-10.583 2.11-16.268 2.44-.956.057-1.75.27-2.6.382-1.747.235-3.459.675-5.39.483-.747-.074-1.6-.104-2.268.242-.541.279-1.449.272-1.894.134-2.778-.866-6.09.104-8.853-.75-.692-.213-1.196.312-1.747.32-2.4.03-4.84.09-7.196-.098-1.48-.117-2.801.426-4.377-.021-1.418-.403-3.188-.589-4.832-.638-1.603-.048-3.08-.354-4.603-.412-1.795-.069-3.34-.304-4.809-.86h-4.545l-1.712-.766c-.442.119-.884.237-1.26.34-1.87-.416-3.384-1.186-5.96-.672.569-.445.712-.562.86-.68-.559-.643-1.117-.187-1.85.06-1.308-.982-3.555-.25-5.353-.733-.98-.264-2.425-.371-3.093-.765-2.096-1.234-5.075-1.34-7.74-1.744-2.123-.324-4.206-.64-6.38-1.18l-1.13.285c-2.09-.335-3.754-1.226-6.083-1.284-1.456-1.7-4.754-1.281-7.922-1.824l-1.336-.913c-1.274-.175-2.048-.196-2.873.258-1.363-.818-3.394-1.082-5.2-1.63l-1.698.407c-3.356-1.023-7.593-1.297-9.823-3.357-2.551.46-3.98-.753-6.161-.972-2.644-.269-5-1.089-7.84-1.106-.948-.007-2.14-.274-2.791-.63-1.952-1.068-4.754-1.365-6.97-2.185-1-.37-2.38-.463-3.726-.544-1.158-.071-1.86-.988-3.473-.778-.565.074-1.01-.099-1.407-.304-1.158-.597-2.782-.703-4.12-1.058-.997-.265-2.72.054-3.213-.924-.213-.416-1.62-.265-2.62.196-.685-.795-2.548-.617-3.572-1.204l-.031-.016z"/><path d="M659.024 41.695c-.717 3.755-1.221 7.542-.875 11.352.11 1.21.562 2.586 1.352 3.524 4.14 4.92 8.33 9.804 12.532 14.68l6.308 7.31a188.036 188.036 0 0021.132 20.906c5.872 4.953 11.961 9.655 18.454 13.892 1.043.68 2.081 1.37 3.118 2.06l3.11 2.072c2.078 1.376 4.169 2.733 6.309 4.019 3.892 2.34 7.927 4.496 12.023 6.521 7.146 3.534 14.337 6.998 21.608 10.298 1.993.905 4.086 1.623 6.19 2.317l1.802.594c.6.198 1.2.398 1.796.604l1.085.379 2.168.762c1.808.631 3.623 1.244 5.467 1.761l3.302.928c4.404 1.233 8.82 2.437 13.29 3.414 11.516 2.521 23.21 4.069 35.011 4.843 11.898.78 23.797.74 35.713.084 11.67-.644 23.259-1.883 34.732-3.878 7.577-1.315 15.11-2.941 22.561-4.779 8.047-1.986 16.077-4.116 23.928-6.672 4.95-1.61 9.802-3.49 14.63-5.423l6.427-2.593c10.672-4.293 20.813-9.527 30.68-15.24 11.518-6.673 22.537-13.966 32.593-22.466l1.412-1.197c3.525-2.998 6.984-6.06 9.886-9.62.387-.473.665-1.023.959-1.486-.304-1.498-1.301-2.158-2.903-2.536l-.275.145-.6.302c-.414.211-.849.444-1.243.726-12.556 8.965-25.538 17.344-39.533 24.264-6.812 3.366-13.751 6.524-20.712 9.62-8.405 3.74-17.074 6.923-25.917 9.631-3.528 1.081-7.1 2.042-10.682 2.974l-6.45 1.667c-.717.186-1.433.373-2.148.562-15.045 3.96-30.397 6.395-45.937 7.824-14.323 1.32-28.676 1.633-43.05.785-9.601-.566-19.14-1.57-28.603-3.244l-2.709-.485c-6.318-1.14-12.605-2.388-18.742-4.226l-3.516-1.075-7.014-2.199c-1.17-.364-2.34-.723-3.515-1.075-6.638-1.993-12.917-4.736-19.12-7.626l-2.186-1.025-4.365-2.064-2.184-1.027c-2.754-1.286-5.39-2.798-7.998-4.357l-3.903-2.351c-.325-.196-.65-.39-.977-.584l-3.931-2.329c-3.054-1.817-6.087-3.666-9.002-5.663-8.018-5.492-15.47-11.61-22.28-18.39-8.32-8.287-15.756-17.237-22.916-26.398-.351-.449-.695-.902-1.037-1.359l-1.529-2.058c-1.192-1.6-2.411-3.176-3.802-4.608-1.48-1.528-3.205-2.857-4.956-4.154l-1.753-1.292c-.194-.144-.388-.288-.58-.433a21.104 21.104 0 00-1.97-1.283l-1.519-.882a36.37 36.37 0 01-.496-.296l-2.71.774c-1.445-.981-2.696-.562-3.87.289l-.281.212-.278.226-.276.236-.646 1.233c-.198.86-.422 1.716-.589 2.583zM318.035 55.72c-.347 2.448-.592 4.915-.424 7.398.054.79.273 1.686.655 2.297a1062.26 1062.26 0 006.074 9.567l3.057 4.763c3.13 4.875 6.538 9.425 10.242 13.625 2.845 3.228 5.796 6.292 8.943 9.053.506.444 1.009.893 1.511 1.343l1.508 1.35a84.185 84.185 0 003.057 2.619 77.66 77.66 0 005.827 4.25c3.463 2.302 6.948 4.56 10.472 6.711.966.59 1.98 1.057 3 1.51l.874.386c.29.13.581.26.87.395l.526.246 1.05.497c.877.411 1.756.81 2.65 1.148l1.6.604c2.134.804 4.275 1.588 6.441 2.225 5.581 1.643 11.249 2.652 16.968 3.156 5.766.508 11.533.483 17.308.055 5.656-.42 11.272-1.227 16.832-2.527 3.673-.857 7.323-1.917 10.934-3.114 3.9-1.295 7.792-2.683 11.597-4.349 2.399-1.048 4.75-2.274 7.09-3.534l3.115-1.69c5.172-2.797 10.087-6.208 14.868-9.932 5.583-4.348 10.923-9.1 15.797-14.64l.684-.78c1.708-1.954 3.385-3.95 4.791-6.27.188-.308.323-.666.465-.968-.147-.976-.63-1.406-1.407-1.653l-.133.095-.29.197c-.202.138-.412.29-.603.473-6.085 5.843-12.377 11.303-19.16 15.812-3.301 2.194-6.664 4.252-10.037 6.27a94.608 94.608 0 01-12.561 6.276c-1.71.705-3.441 1.331-5.177 1.939l-3.126 1.085-1.041.367c-7.291 2.581-14.731 4.167-22.263 5.099-6.941.86-13.898 1.064-20.864.511-4.653-.368-9.276-1.023-13.862-2.114l-1.313-.316c-3.062-.743-6.109-1.556-9.083-2.754l-1.704-.7-3.4-1.433a142.8 142.8 0 00-1.703-.701c-3.217-1.299-6.26-3.086-9.266-4.97l-1.06-.668-2.115-1.345-1.059-.669c-1.334-.838-2.612-1.823-3.876-2.84l-1.891-1.532-.474-.38-1.905-1.518c-1.48-1.184-2.95-2.39-4.363-3.69a87.197 87.197 0 01-10.797-11.986c-4.033-5.4-7.637-11.232-11.107-17.202-.17-.293-.336-.588-.502-.886l-.741-1.341c-.578-1.042-1.169-2.07-1.843-3.003-.717-.996-1.553-1.862-2.402-2.707l-.85-.842a62.794 62.794 0 01-.28-.282 10.513 10.513 0 00-.955-.836l-.736-.575c-.08-.064-.161-.128-.24-.193l-1.314.504c-.7-.64-1.306-.366-1.876.189l-.136.138-.135.147-.133.154-.313.803c-.096.561-.205 1.119-.286 1.684z" opacity=".662"/></g></g></svg>