<svg width="52" height="52" viewBox="0 0 52 52" xmlns="http://www.w3.org/2000/svg"><path d="M26 0C11.64 0 0 11.64 0 26s11.64 26 26 26 26-11.64 26-26S40.36 0 26 0zm0 5.032c11.588 0 20.968 9.378 20.968 20.968 0 11.588-9.378 20.968-20.968 20.968C14.412 46.968 5.032 37.59 5.032 26 5.032 14.412 14.41 5.032 26 5.032M40.699 18.69l-2.363-2.381a1.258 1.258 0 00-1.779-.008L21.737 31l-6.268-6.319a1.258 1.258 0 00-1.779-.007l-2.382 2.363a1.258 1.258 0 00-.007 1.779l9.518 9.594c.489.493 1.286.497 1.779.007l18.094-17.949c.493-.489.496-1.285.007-1.779z" fill="#17DE74" fill-rule="nonzero"/></svg>