<svg width="34" height="50" viewBox="0 0 34 50" xmlns="http://www.w3.org/2000/svg"><path d="M24.193 45.547c-1.51 2.429-4.473 4.007-7.545 4.017l-.038.004c-.277 0-.546-.014-.816-.039-1.96-.17-3.77-.953-5.167-2.252-1.6-1.483-2.474-3.527-2.404-5.603.094-2.67 1.411-4.919 2.909-6.995 1.918-2.664 4.328-5.515 4.164-9.111.006.134.443.409.925.68.495.282 1.041.554 1.212.671 2.833 1.93 4.803 5.05 6.133 8.24 1.33 3.187 2.616 7.192.627 10.388zm9.801-12.296a28.17 28.17 0 00-.12-3.212 77.167 77.167 0 00-1.387-8.929c-.337-1.578-.632-3.198-1.276-4.68-.47-1.082-1.227-2.368-2.294-2.903-.447.867-.404 2.268-.705 3.27a14.306 14.306 0 01-2.495 4.748c-.05.065-.102.133-.156.195-.012-.1-.021-.195-.04-.294-.351-2.422-.52-4.873-.899-7.302a35.065 35.065 0 00-.298-1.66c-.162-.786-.322-1.572-.495-2.356-.52-2.359-1.146-4.736-2.273-6.877-.551-1.048-1.226-2.031-2.048-2.875-.436-.448-.702-.59-.886.107-.113.432-.09.887-.18 1.322a23.59 23.59 0 01-.559 2.198 25.638 25.638 0 01-1.666 4.115c-.55 1.083-1.209 2.104-1.885 3.108-.638.949-1.279 1.795-2.072 2.602-.131.133-.28.275-.465.287-.191.012-.36-.12-.506-.247-.728-.64-1.381-1.376-2.174-1.937-.196-.138-.973-.73-1.218-.606-.256.13-.024.869.012 1.074.426 2.455-.021 4.788-.824 7.094-.569 1.635-1.493 3.091-2.482 4.487-.328.463-.653.93-.969 1.399-1.24 1.842-2.343 3.759-3.011 5.827a13.162 13.162 0 00-.451 1.852C.069 33.663.009 34.277 0 34.89c.003.568.045 1.127.12 1.676a13.954 13.954 0 001.805 5.216c2.38 4.063 6.764 7.051 11.984 7.94a19.13 19.13 0 005.884.092c2.362-.338 4.637-1.108 6.637-2.283 5.344-3.131 7.438-8.481 7.564-14.281z" fill="#F44" fill-rule="evenodd"/></svg>