<svg width="114" height="45" viewBox="0 0 114 45" xmlns="http://www.w3.org/2000/svg"><g fill="none" fill-rule="evenodd"><path d="M33.062 36.146a2.3 2.3 0 01-1.511-.945c-.365-.512-.477-1.091-.344-1.736.134-.645.465-1.13.985-1.461.52-.331 1.093-.437 1.728-.32.46.084.851.264 1.176.542.325.277.541.632.648 1.067-.238-.038-.476-.078-.714-.118-.184-.541-.584-.865-1.204-.979-.484-.089-.912-.009-1.289.243-.378.252-.62.635-.724 1.153-.104.517-.028.967.233 1.346.262.379.638.616 1.122.705.485.088.899.027 1.238-.185.34-.212.569-.538.693-.98a91.897 91.897 0 01-1.875-.331l.084-.456c.831.155 1.662.299 2.495.433l-.074.458a2.106 2.106 0 01-.966 1.289c-.493.3-1.063.393-1.701.275M40.737 35.783c.566.064 1.133.122 1.699.176-.21-.792-.415-1.584-.613-2.377-.356.736-.718 1.47-1.086 2.201zm2.102 1.661l-.273-1.008c-.685-.063-1.369-.134-2.053-.211l-.473.93-.625-.074a159.765 159.765 0 002.166-4.242c.214.022.429.045.645.066.391 1.533.807 3.065 1.247 4.594l-.634-.055zM48.502 33.807l-.064 1.686c.295.011.59.021.886.029.33.01.577-.058.741-.203.164-.144.248-.349.253-.616.011-.562-.304-.849-.945-.867a83.507 83.507 0 01-.871-.029zm-.082 2.149l-.069 1.84-.615-.026.195-4.457c.485.022.97.039 1.456.054.504.015.886.145 1.149.394.261.25.391.549.386.904-.005.354-.107.648-.31.881-.202.232-.504.375-.903.426.407.631.821 1.262 1.243 1.89l-.771-.012c-.397-.623-.787-1.248-1.17-1.873l-.591-.021zM55.97 37.36c.287-.008.573-.02.86-.032.587-.024 1.028-.203 1.319-.527.292-.326.419-.767.386-1.319-.033-.553-.21-.974-.527-1.266-.317-.292-.758-.424-1.325-.4-.277.012-.555.022-.832.032l.119 3.512zm.692-4.039c.725-.031 1.305.14 1.75.518.443.377.692.911.737 1.605.046.694-.134 1.249-.545 1.662-.411.413-.999.64-1.755.672-.493.021-.986.038-1.479.052l-.125-4.46c.473-.013.945-.029 1.417-.049zM65.422 32.575l.059.46c-.594.076-1.19.148-1.785.214l.168 1.51a98.56 98.56 0 001.614-.193l.058.454a98.22 98.22 0 01-1.622.193l.171 1.548c.617-.069 1.232-.142 1.847-.221l.06.46c-.822.105-1.644.201-2.468.288l-.466-4.436c.789-.084 1.577-.175 2.364-.277M72.523 31.406l.58-.119.904 4.369c-.201.041-.403.083-.605.123a106.492 106.492 0 01-3.057-3.025l.616 3.486-.608.107-.751-4.398.582-.101a107.124 107.124 0 003.037 3.029l-.698-3.471M42.02 43.291l.094-.664.464-.287c.199-.122.352-.217.461-.287.108-.07.236-.158.382-.266.146-.106.256-.2.331-.28.197-.206.305-.394.325-.562.034-.297-.081-.461-.348-.493a.377.377 0 00-.32.095c-.086.08-.14.202-.162.37-.295-.038-.59-.078-.884-.12.059-.418.228-.717.502-.897.274-.181.608-.246 1.005-.197.397.049.693.196.891.446.198.25.282.534.249.853-.025.24-.101.447-.229.617-.076.098-.142.182-.197.249a1.738 1.738 0 01-.264.247c-.121.096-.211.166-.267.209a8.4 8.4 0 01-.312.218c-.151.102-.248.169-.289.198.477.06.954.113 1.431.163l-.075.73a72.62 72.62 0 01-2.788-.342M50.032 41.118a.585.585 0 00-.269-.07.572.572 0 00-.274.05.486.486 0 00-.183.143.723.723 0 00-.11.233c-.03.096-.051.191-.062.282a4.68 4.68 0 00-.03.653c.003.093.015.188.036.287.022.1.052.18.091.241a.474.474 0 00.176.16.605.605 0 00.276.071.596.596 0 00.281-.051.505.505 0 00.187-.144.746.746 0 00.109-.235c.029-.097.048-.191.058-.283.01-.092.016-.2.02-.326a4.397 4.397 0 00-.001-.328 1.656 1.656 0 00-.041-.286.74.74 0 00-.092-.241.494.494 0 00-.172-.156zm-.941-.802c.201-.085.435-.122.703-.112.269.01.5.064.693.165.194.101.346.239.457.418.11.179.19.379.24.604.05.224.074.477.069.758a3.113 3.113 0 01-.095.755 1.87 1.87 0 01-.271.595 1.134 1.134 0 01-.497.394 1.718 1.718 0 01-.739.119 1.715 1.715 0 01-.727-.174 1.138 1.138 0 01-.466-.431 1.852 1.852 0 01-.226-.612 3.196 3.196 0 01-.038-.761c.016-.281.058-.531.125-.751.067-.221.162-.415.285-.584.124-.169.286-.297.487-.383zM55.173 44.028l-.108-2.905a70.31 70.31 0 01-.649.021l-.023-.838a69.744 69.744 0 001.58-.063l.189 3.742c-.33.017-.659.032-.989.043M61.48 40.711a.435.435 0 00-.167-.31.461.461 0 00-.342-.079.484.484 0 00-.318.16.427.427 0 00-.092.343.427.427 0 00.172.315.47.47 0 00.343.084.468.468 0 00.312-.166.432.432 0 00.092-.347zm.269 1.577a.513.513 0 00-.186-.349c-.105-.082-.243-.113-.414-.091a.616.616 0 00-.398.184.48.48 0 00-.113.388.512.512 0 00.194.363c.113.086.259.118.437.097.178-.023.308-.088.388-.199a.534.534 0 00.092-.393zm-2.097-1.5c-.029-.287.063-.545.274-.776.211-.232.527-.371.951-.423.424-.051.764.009 1.023.185.259.176.41.407.45.692.051.362-.077.657-.387.884.424.134.67.42.733.863a1.05 1.05 0 01-.301.934c-.254.257-.598.413-1.026.464-.429.053-.8-.017-1.11-.207a1.048 1.048 0 01-.519-.832c-.044-.444.126-.781.505-1.013-.359-.146-.556-.404-.593-.771z" fill="#000"/><path d="M15.986 5.048a4.471 4.471 0 01-.198-.537 44.367 44.367 0 00-.246-.713c-.124-.354-.248-.706-.379-1.116-.279-.86-.699-1.379-1.281-1.548-.54-.057-1.117-.091-1.671.032-2.056.4-4.135 1.387-6.154 2.936C4.746 5.185 3.769 6.37 2.985 7.819c-.651 1.114-.97 2.398-.981 3.924-.002 1.519.498 2.78 1.557 3.981l.019.02c.36.324.758.649 1.23.822l.057.01c.342.003.573.086.619.221.183.538-1.131 2.276-1.903 3.319-.538.725-1.042 1.41-1.27 1.882-.891 1.67-1.375 3.584-1.45 5.682-.104 2.523.475 4.543 1.673 5.995.04.056.088.115.142.179.1.121.214.256.3.441l.051.077c.816.874 1.808 1.358 2.876 1.404.236.007.475-.008.718-.046.585-.088 1.188-.305 1.801-.648l.045-.034c.162-.175.291-.246.38-.239.212.072.378-.093.499-.216.049-.051.118-.12.15-.125h.001l.033-.004a8.476 8.476 0 01.726-.411c.228-.119.457-.238.665-.371.32-.127.625-.325.948-.533.149-.096.302-.195.456-.287.383-.197.779-.401 1.197-.727.704-.541 1.426-1.399 2.046-2.152.46-.515.758-1.144 1.003-1.706.129-.195.249-.319.401-.413l.173-.106a17.534 17.534 0 00-.077-.245c-.204-.654-.505-1.192-.887-1.6-.1-.167-.22-.347-.393-.358-.184-.008-.325.174-.474.403a6.899 6.899 0 01-1.753 1.551c-.298.151-.596.302-.894.455a93.65 93.65 0 00-1.395.72c-.575.369-1.191.711-1.784 1.043a33.83 33.83 0 00-1.395.814c-.701.335-1.54.709-2.446.932-.397.069-.811.108-1.19-.118-.298-.178-.582-1.265-.57-1.77.086-3.971 4.83-10.977 6.827-12.929.389-.423.654-.807.836-1.222.243-.618.472-1.005.788-1.337l.095-.099a7.616 7.616 0 01-.022-.159l-.033-.176c-.168-.456-.384-.651-.767-.672-.674.042-1.224.222-1.665.53-.869.457-1.824.793-2.934 1.037-1.666.517-1.866.219-1.867.218 0-.003-.061-.389 1.091-1.588 1.994-2.08 5.133-4.039 5.547-3.723l.091.148.139-.047a5.676 5.676 0 011.57-.31c.866-.068 1.628-.659 2.231-1.775.386-.674.491-1.378.295-2.127a15.493 15.493 0 00-.125-.306" fill="#272525"/><path d="M35.854 9.189a5.177 5.177 0 01-.291.727c-.08.172-.17.366-.27.644-.108.215-.256.475-.433.553-.278.075-.455.113-.572-.011-.081-.112-.197-.171-.301-.224-.024-.014-.049-.026-.073-.039-.019-.01-.044-.025-.05-.044-.003-.01-.015-.068.058-.222.049-.11.116-.224.173-.321l.045-.078c.079-.114.155-.235.232-.354.208-.321.422-.654.687-.891.333-.326.792-.513.903-.419.04.033.069.215-.108.679zm12.567-.504c.01-.024.024-.048.038-.073a.609.609 0 00.108-.353c.048-.212.122-.397.223-.553.073-.123.147-.24.219-.354l.153-.244-.086.361c-.02.101-.036.203-.053.306a4.411 4.411 0 01-.119.583c-.183.805-.198 1.522-.048 2.135.16.599.498 1.003.904 1.101.096.043.193.074.29.105.127.041.247.08.361.147.119.112.29.113.462-.004a.688.688 0 01.223-.115c.19-.001.329-.066.508-.234.023-.012.058-.029.095-.065l.053-.051.001-.01a.465.465 0 00.059-.049c.029-.027.058-.055.086-.084a.58.58 0 00.283-.315c.025-.043.061-.113.061-.116a.569.569 0 00.248-.432l.007-.076-.041-.062c-.035-.051-.163-.211-.307-.208-.164.001-.269.16-.29.194-.138.161-.269.258-.415.368l-.049.056a.246.246 0 01-.043.046c-.02.021-.044.043-.067.072l-.071-.006c-.038-.004-.08-.011-.118-.008a.517.517 0 00-.052-.072c.027-.188.037-.372.046-.552.006-.105.011-.209.02-.313.01-.113.022-.228.035-.344.039-.367.079-.746.058-1.111-.014-.28-.039-.56-.063-.834-.018-.213-.037-.423-.05-.595l.017-.19-.016-.044c-.151-.416-.396-.891-.948-.89h-.016a3.643 3.643 0 00-.323.024c-.109.011-.223.023-.369.028-.273.053-.529.244-.709.532a8.063 8.063 0 01-.623.911c-.188.342-.41.662-.624.971a.88.88 0 01-.026.039c-.288.452-1.636 3.045-1.802 3.624l-.001.003c-.1.357-.752 1.114-1.001 1.237a2.03 2.03 0 01.115-.476c.215-.689.544-1.338.893-2.023.336-.66.685-1.341.958-2.111.094-.325.138-.361.177-.393.099-.081.178-.168.29-.54.261-.709.242-1.208-.093-1.872-.097-.125-.195-.24-.29-.353-.214-.251-.416-.488-.558-.784-.016-.019-.03-.039-.045-.059-.31-.277-.556-.337-.764-.361-.315-.055-.641-.114-.879-.094-.445-.061-.66.095-.829.6-.29.556-.52 1.116-.762 1.711l-.065.162c-.031.1-.073.188-.115.274-.064.136-.131.277-.151.413-.397 1.058-.426 1.23-.525 1.798-.036.208-.083.471-.154.835-.151.492-.196.732-.226.964-.033.053-.063.106-.092.156-.273.42-.58.815-1.035 1.329-.1.129-.199.25-.297.371-.107.132-.215.262-.315.395l-.09.105a30.83 30.83 0 00-.722.725c-.312.32-.633.651-.955.952-.773.731-1.498 1.245-2.209 1.566-.293.1-1.05.336-1.223.346a.058.058 0 00-.023.001c-.421.022-.932-.449-1.345-.827l-.077-.066a4.905 4.905 0 01-.217-.454c-.115-.261-.193-.434-.255-.524a1.437 1.437 0 01-.125-.525c-.007-.257-.013-.479-.056-.739l-.011-.187-.104.016c.004-.05.01-.1.015-.149l.177-.028.149-.058-.007-.264-.062-.056-.025-.019c.115-.074.17-.167.205-.343l.038-.087c.099-.074.197-.203.194-.355-.002-.082.031-.162.069-.255.018-.044.036-.089.052-.137.114.178.214.375.312.566l.09.171c.01.03.022.057.035.084.007.016.018.039.009.079l-.017.086a.538.538 0 00.133.317l.052.032c.049.019.105.065.166.114.118.097.275.224.465.214h.005c.094.113.211.115.278.117.018 0 .036 0 .081.007.239.012.504-.07.7-.206.299-.131.55-.389.686-.699l.077-.153c.109-.213.213-.417.268-.631.074-.221.171-.407.273-.603l.086-.166c.302-.582.473-1.066.534-1.509.109-.492.084-.903.01-1.37l-.021-.075c-.035-.114-.078-.257-.186-.357-.155-.12-.266-.333-.385-.558a6.926 6.926 0 00-.115-.214c-.076-.147-.162-.315-.311-.4-.203-.116-.722-.224-1.223-.327-.308-.063-.599-.122-.751-.17l-.026-.041c-.042-.07-.099-.165-.172-.2a.357.357 0 00-.22-.077.302.302 0 01-.085-.015c-.211-.28-.541-.097-.676-.019-.061.051-.122.088-.191.13-.044.026-.09.055-.152.097a9.198 9.198 0 00-1.56 1.624c-.47.576-.875 1.193-1.236 1.879a12.615 12.615 0 00-.892 2.023c-.018.054-.038.105-.057.158-.083.222-.169.45-.155.75l.034.735.287-.659.006-.013c-.07.282-.121.561-.162.838-.121.148-.237.284-.355.333-.203.083-.349.18-.489.275-.101.068-.205.139-.327.203-.336.142-.592-.107-.914-.473a2.024 2.024 0 00-.298-.297l-.047-.096c-.374-.747-.513-1.028-.795-2.312a1.09 1.09 0 00-.066-.133l-.016-.067c-.059-.145-.131-.218-.28-.262l-.059-.011c-.093-.02-.221-.048-.338.011l-.036.008a.34.34 0 00-.149-.082c-.158-.075-.827-.074-.997-.033-.304.148-.405.22-.337.589.017.09.041.217.056.405l.02.082c.242.719.264.877.267.886-.073.373-.122.423-.19.49-.122.123-.235.267-.372.75a3.81 3.81 0 00-.282.901 4.552 4.552 0 01-.42 1.146l-.431.875c-.295.702-.635 1.308-.992 1.95l-.195.353-.001.001a.038.038 0 00-.008-.011c.001 0 0-.023.027-.08.024-.052.048-.104.073-.154l-.099-.077-.029-.072a.3.3 0 01-.032-.071l-.026-.069a1.923 1.923 0 00-.126-.558c-.012-.063-.036-.105-.042-.097l-.051-.47-.307.465-.029.08c-.01.06-.018.119-.026.177a2.656 2.656 0 00-.045-.156 8.523 8.523 0 01-.095-.61l.05.12.331.035.039-.15c.079-.297.081-.326.048-.63a3.093 3.093 0 01-.111-.781c-.036-.355-.073-.722-.14-1.06l-.03-.291c-.042-.422-.091-.898-.269-1.314-.007-.046-.018-.098-.03-.157a2.564 2.564 0 01-.048-.277l-.033-.188c-.062-.366-.121-.711-.311-1.002-.063-.113-.06-.189-.034-.323.082.011.149-.024.243-.048l.166-.041-.038-.187c-.056-.287-.209-.448-.345-.589-.06-.063-.122-.125-.173-.202l-.057-.057c-.06-.035-.122-.068-.184-.103-.19-.102-.369-.199-.502-.366a6.4 6.4 0 01-.072-.085c-.07-.056-.22-.121-.335-.093l-.079.018a.982.982 0 00-.123-.128c-.116-.082-.143-.115-.148-.121l-.046-.048c-.184-.13-.408-.113-.556.04l-.036.054a.877.877 0 00-.073.28l-.016.116c-.001.164.004.204.009.253.005.041.01.091.017.215-.055.284-.044.56-.034.827l.007.232a16.263 16.263 0 01-.179 1.72 37.393 37.393 0 00-.17 1.748 71.09 71.09 0 01-.116 1.31c-.019.225-.032.44-.045.651-.015.247-.029.488-.053.731-.03.305-.042.621-.052.928-.011.318-.022.62-.053.924 0 .077-.003.155-.006.234-.008.191-.016.388.01.558-.029.442.496 1.22.766 1.416.067.05.201.119.431.236.266.136.82.421.897.533.129.23.31.378.526.43.084.02.171.025.259.015.185-.018.372-.1.534-.232l.091-.04c.174-.075.324-.142.409-.169.15.004.288-.031.392-.059a.698.698 0 00.451-.375c.443-.475.6-.972.734-1.48.081-.296.195-.562.4-.927.015-.047.032-.092.048-.136.07-.194.15-.414.097-.625 0-.014.003-.037.006-.058a.838.838 0 00.01-.094c.102-.403.203-.684.336-.944.274-.402.43-.741.501-1.094.018-.031.033-.064.049-.098.026-.053.046-.097.081-.133l.039-.057c.175-.402.302-.79.424-1.166.077-.236.154-.468.241-.701.085-.24.128-.393.164-.517.037-.133.064-.225.125-.36.087.12.165.219.242.317.143.184.279.357.462.649l.041.046.168.123c.129.091.43.308.464.339l.039.048c.019.016.04.032.456.26l.001.047.136.02c.022.006.065.024.121.048.51.208 1.017.37 1.307.144.149-.06.575-.239.903-.447v.015c.059.516.118 1.049.319 1.52.136.321.339.594.553.746.144.107.267.227.396.354.347.339.738.723 1.612.961.345.085 1.681.172 2.44.133.184-.011.335-.028.428-.056a5.28 5.28 0 001.199-.422l.27-.136c.337-.112.702-.321 1.092-.626.191-.162.386-.291.595-.434.062-.056.124-.106.186-.155.07-.056.139-.111.196-.165.123-.094.225-.199.334-.312.046-.048.094-.096.166-.167.323-.313.658-.637.966-1.032.162-.222.359-.449.565-.652.14-.16.252-.288.365-.493l.111-.196-.13-.058.015-.018c.06-.074.143-.175.172-.344l.052-.297c.047-.061.095-.125.146-.203.056-.12.122-.224.19-.329a84.569 84.569 0 00-.158 2.273c-.016.593-.032 1.266.056 1.893.139.862.456 1.339.966 1.462.113.104.215.129.306.079.14.026.284.044.43.04.352-.008.711-.147 1.027-.634.018-.021.039-.037.058-.052a.419.419 0 00.145-.177c.287-.365 1.115-2.015 1.181-2.199.043-.111.091-.22.138-.327.08-.185.155-.359.206-.521.175-.514.404-.978.647-1.47.126-.254.253-.51.373-.774.093-.204.192-.397.289-.587.142-.279.29-.568.417-.885.23-.636.514-1.181.912-1.881zM89.455 31.766c.008-.218.131-.402.368-.547.21.003.39.028.611.067l.109.014c.68.085 1.383.176 2.114.212.951-.056 1.46-.023 1.731.017.235.034.291.08.3.074-.043.16-.555.5-1.515 1.02l-.024.016c-1.087.868-2.232.679-2.95.213-.465-.302-.758-.728-.744-1.086zm-40.042-6.382c.203-.069.382-.105.608-.142l.123-.027c.675-.148 1.374-.297 2.085-.508 1.377-.567 1.818-.6 1.945-.599.029.001.042.003.045.001 0 .166-.407.663-1.2 1.482l-.02.023c-.828 1.194-1.985 1.401-2.8 1.199-.528-.13-.921-.437-1.001-.784-.049-.211.024-.427.215-.645zM84.771 5.431a1.17 1.17 0 01-.212.405 19.045 19.045 0 00-1.34 1.512c-.276.289-.584.535-.88.774a7.243 7.243 0 00-.982.915c-.103.109-.206.221-.289.311-.419.274-.598.331-.668.34.025-.247.438-.986.668-1.394.125-.222.245-.437.349-.637.186-.445.46-.815.751-1.208a8.98 8.98 0 00.629-.923c.093-.207.253-.405.435-.632.144-.207.246-.399.269-.622.023-.077.053-.136.272-.209.214-.123.486-.301.677-.56.218-.185.426-.4.468-.691a.49.49 0 01.086-.117 1.3 1.3 0 00.068-.083c.059-.046.122-.09.186-.135.206-.147.439-.314.606-.544.012-.018.056-.034.096-.048.042-.015.083-.031.083-.037.143-.038.187-.02.199-.011.008.006.036.035.055.159a3.437 3.437 0 01-.107.557c-.315.88-.61 1.711-1.17 2.375-.142.152-.204.354-.249.503zm-10.709 8.691a3.031 3.031 0 00-.179.755c-.042.113-.075.221-.108.328-.033.107-.066.214-.117.355-.002.012-.015.038-.024.057-.013.027-.029.06-.042.097a2.984 2.984 0 01-.604.59 38.6 38.6 0 01-.364.289c-.257.202-.521.41-.739.612l-.091.069c-.131.1-.266.203-.421.266-.163-.654.037-1.258.259-1.774l.227-.314c.146-.203.286-.395.431-.576a1.85 1.85 0 00.13-.159c.033-.043.064-.086.104-.128l.012-.013c.117-.149.222-.297.324-.44.22-.31.428-.602.753-.858.714-.806.98-.819 1.02-.816l.006.001c.053.068.015.582-.577 1.659zm38.993 10.18c.092-.179.185-.357.278-.534l-.355.114-.026-.029-.11.083a3.215 3.215 0 01-.33.209c-.398.24-.713.422-1.057.592-.991.466-1.79.82-2.587 1.141l-.445.158c-4.427 1.607-5.528 1.697-5.703 1.449-.015-.022.001-.092.031-.159.142-.239 1.088-1.273 1.787-2.026.523-.565.977-1.051 1.129-1.24.516-.677 1.803-1.797 2.102-2.035.057-.056.117-.108.178-.16.169-.144.36-.307.468-.54.068-.093.55-.457.709-.577l.107-.082a.747.747 0 00.44-.35c.281-.299.344-.807.357-1.015.009-.141.025-.615-.165-.854-.186-.197-.323-.22-.599-.095-.212.032-.364.152-.525.28a1.358 1.358 0 01-.039.034c-.099.056-.197.111-.293.167-.311.179-.604.348-.913.466l-.041.022c-.361.273-.454.371-.529.451-.074.079-.123.129-.542.401-.47.272-2.35.985-4.15 1.554-2.667.843-3.544.827-3.64.697 0-.034.024-.39 1.765-1.645.162-.101.292-.204.41-.295.096-.075.181-.142.288-.207.173-.138.359-.26.539-.381.288-.19.56-.369.762-.583l.274-.223c.325-.262.661-.533.895-.767.206-.13.373-.274.52-.403.125-.109.234-.201.343-.269l.036-.028c.314-.331.526-.629.605-1.07.13-.435.26-1.081-.105-1.705-.002-.012-.002-.028-.003-.043-.003-.057-.006-.125-.022-.207a2.998 2.998 0 00-.153-.456l-.167-.25c-.229-.32-.616-.854-.641-1.098l-.006-.053-.028-.041a5.918 5.918 0 01-.117-.181c-.04-.062-.079-.124-.114-.174a4.51 4.51 0 00-.069-.102l-.11.034c-.267.083-.39.156-.57.263a6.84 6.84 0 00-1.066.789c-.322.172-.71.61-1.084 1.034-.241.274-.467.531-.645.682a3.352 3.352 0 01-.053.073c-.088.213-.375.519-.605.764a4 4 0 00-.365.422c-.291.467-.538.782-.777 1.087-.19.241-.373.478-.557.772l-.006.003a.335.335 0 00-.108.029c-.312.147-.747.448-1.166.74-.388.27-.786.55-1.056.685-.105.053-.215.094-.325.136a3.053 3.053 0 00-.326.14c-.296.075-.554.129-.808.185l-.054.012a3.77 3.77 0 01-.529.101l-.168.027c-.236.024-.452-.012-.665-.045-.062-.02-.097-.059-.107-.098a4.375 4.375 0 01.008-.856c.044-.206.145-.4.287-.562.271-.25.555-.533.794-.791l.036-.032a.443.443 0 00.141-.206c.091-.349.195-.745.051-1.199-.041-.089-.081-.177-.116-.249-.15-.404-.466-.517-.755-.574l-.073-.014-.06.052c-.329.29-.647.555-.963.818l-.12.1c-.239.203-.505.371-.777.546a2.47 2.47 0 00-.399.249 2.115 2.115 0 01-.625.391 9.865 9.865 0 00-1.075.493c.139-.198.303-.39.491-.575a.66.66 0 01.173-.143l.096-.071a5.11 5.11 0 00.388-.305l.291-.225c.28-.22.545-.426.834-.6a5.95 5.95 0 00.566-.331c.303-.234.665-.405 1.016-.57.148-.07.296-.139.44-.212l.054-.047c.3-.105.611-.208.93-.242.412-.082.623-.307.686-.754a2.768 2.768 0 000-.158c-.002-.044-.002-.087-.003-.181-.038-.23-.144-.43-.247-.622a3.791 3.791 0 01-.108-.21.42.42 0 00-.244-.214c-.042-.014-.083-.058-.13-.11a.712.712 0 00-.225-.185c-.052-.171-.194-.244-.31-.305l-.098-.048c-.03-.01-.072-.052-.135-.111-.087-.058-.186-.107-.282-.156a1.365 1.365 0 01-.334-.206l-.166-.07a3.623 3.623 0 00-.66-.125 1.025 1.025 0 00-.406-.026 6.118 6.118 0 00-1.676.693c-.682.446-1.451.954-2.086 1.505-.045.025-.101.056-.143.111-.418.268-.769.618-1.087.945-.13-.174-.287-.349-.478-.35-.195.001-.325.172-.489.39a4.108 4.108 0 01-.386.459c-.365.358-.712.724-1.058 1.092-.6.637-1.217 1.297-1.93 1.913-.497.573-.753.97-.958 1.288-.174.269-.299.463-.494.651a5.735 5.735 0 00-.626.666c-.22.219-.28.312-.275.428-.03.029-.075.072-.145.133-.045.045-.106.079-.164.113l-.068.04c-.11.025-.195.057-.28.089-.164.063-.318.121-.704.109l-.126-.205c-.249-.401-.463-.745-.554-1.225l-.023-.062a.427.427 0 01-.057-.148l.132.028-.103-.181c.05-.106.048-.251-.007-.436a.707.707 0 00-.107-.424c-.013-.451-.023-.879.062-1.342.007-.067.026-.131.044-.197.039-.144.084-.307.046-.5l-.006-.033a.049.049 0 00.006-.015l.219-.864c.1-.235.199-.488.194-.761a1.23 1.23 0 01.072-.292l.037-.116a.454.454 0 00.157-.33c.023-.078.051-.151.079-.222.045-.118.093-.238.114-.372a4.78 4.78 0 00.409-.781c.086-.219.215-.489.386-.804.067-.127.114-.208.219-.257l.058-.046c.135-.159.182-.286.221-.389.043-.114.071-.189.235-.319l.039-.03c.399-.31.852-.66 1.114-1.1.14-.163.341-.286.527-.403.225-.086.54-.253.771-.576.197-.311.444-.553.777-.755.231-.191.473-.466.713-.82.07-.141.153-.26.25-.397l.065-.096c.229-.25.42-.504.598-.74.189-.224.419-.48.686-.693.162-.148.306-.341.419-.559a.316.316 0 00.066-.159c.299-.264.409-.612.489-.87.119-.261.229-.489.337-.708.165-.312.23-.639.293-.956l.052-.253v-.026c-.004-.128-.008-.271-.084-.4a.365.365 0 00-.029-.037 2.901 2.901 0 01-.324-.415 2.56 2.56 0 00-.369-.454C85.978.533 85.436.408 84.91.616a9.29 9.29 0 01-1.061.344 7.76 7.76 0 01-.169.063 2.448 2.448 0 00-.371.159c-.372.212-.766.413-1.158.586-.431.253-.796.589-1.164.931-.355.419-.766.869-1.242 1.364a4.84 4.84 0 00-.093.149c-.078.125-.145.234-.266.361-.186.284-.408.567-.637.862-.127.216-.258.439-.406.615-.059.07-.112.151-.163.231a1.963 1.963 0 01-.124.181c-.27.302-.49.791-.702 1.264-.202.45-.476 1.065-.658 1.065-.037-.001-.174-.04-.391-.551l-.022-.053-.046-.03a5.264 5.264 0 01-.163-.11 4.198 4.198 0 00-.371-.238l-.051-.03c-.072-.042-.147-.086-.281-.106-.052 0-.106-.003-.16-.005-.183-.009-.372-.018-.516.042-1.095.163-2.1.585-2.895 1.213-.615.439-1.134.97-1.631 1.537l.011-.067-.427.319-.003.032c-.075.097-.147.175-.233.269-.308.346-.573.635-.865.917a54.253 54.253 0 01-2.202 1.955l-.38.293c-3.87 3.023-4.914 3.483-5.152 3.305-.021-.015-.024-.089-.012-.162.073-.274.715-1.577 1.189-2.526.356-.714.666-1.33.762-1.562.321-.826 1.252-2.302 1.486-2.641.039-.073.084-.142.128-.211.124-.195.266-.414.307-.672.041-.112.409-.621.531-.789l.081-.111a.837.837 0 00.33-.481c.19-.379.111-.883.067-1.085-.03-.137-.145-.593-.395-.757-.232-.124-.372-.1-.606.112-.197.1-.31.265-.43.44l-.03.047-.238.257c-.252.274-.489.534-.756.75a1.124 1.124 0 00-.033.035c-.275.381-.338.506-.389.606-.05.1-.083.164-.416.565-.378.415-2.003 1.724-3.592 2.871-2.352 1.699-3.203 1.98-3.332 1.888-.01-.033-.082-.378 1.262-2.159.128-.15.227-.291.316-.418.073-.103.137-.196.223-.294.13-.191.277-.37.419-.543.226-.278.441-.54.578-.811l.207-.31c.241-.357.491-.725.652-1.024.164-.193.286-.388.394-.559.091-.144.169-.269.257-.37l.027-.039c.213-.42.336-.773.29-1.22.006-.458-.047-1.117-.571-1.586l-.015-.04a1.392 1.392 0 00-.078-.189 2.798 2.798 0 00-.279-.389l-.228-.178c-.309-.226-.828-.603-.921-.826l-.019-.047-.039-.03c-.046-.036-.101-.082-.155-.127-.058-.047-.117-.096-.167-.134l-.095-.074-.097.07a2.349 2.349 0 00-.477.44 7.67 7.67 0 00-.809 1.11c-.263.27-.516.816-.759 1.343-.157.342-.305.665-.436.867l-.031.089c-.026.233-.22.618-.374.928a4.206 4.206 0 00-.236.524c-.153.544-.307.926-.455 1.296-.173.433-.336.84-.456 1.446-.039.58-.061.623-.134.765a3.06 3.06 0 00-.18.412c-.175.425.245 1.358 1.066 2.933.125.24.223.429.267.532.215.443 1.263 1.212 1.692 1.305l.037.008.037-.011c.957-.295 1.713-.704 2.215-.974.095-.05.192-.103.275-.145-.167.3-.503.827-.943 1.523l-.695 1.108c-.28.425-.959 1.671-1.467 2.632-.182.294-.582.649-.816.77-.82.406-1.44.647-2.157.927l-.213.084c-1.267.596-2.441.982-3.509 1.15l-.208.051c-.266.065-.568.14-.839.234-.413.109-.723.678-.703 1.098.127.929.677 1.841 1.504 2.507.728.587 1.563.902 2.326.903.225 0 .445-.028.654-.084h.163c.492-.001 1.167.001 1.625-.266.667-.349 1.199-.73 1.87-1.347.154-.223.345-.397.531-.566.148-.132.301-.27.415-.412.392-.353.647-.693.842-1.119.224-.37.457-.753.761-1.142l.051-.078c.407-.627.829-1.275 1.18-1.984.094-.301.288-.533.553-.671.072-.033.12-.084.171-.137.025-.027.054-.057.07-.076.07-.046.579-.26 1.029-.449 1.083-.453 1.867-.78 2.036-.921l.037-.043c.117-.183.301-.34.418-.441.186-.121.441-.46.712-.818.188-.247.382-.501.495-.596.345-.323.508-.493.694-.688.134-.138.279-.29.504-.51.259-.212.475-.454.608-.676l.097-.114a3.26 3.26 0 01.471-.487 13.485 13.485 0 00.78-.779c.163-.261.29-.427.422-.554.034-.03.081-.068.133-.109-.136.374-.23.782-.303 1.159-.041.093-.052.195-.062.286-.005.041-.01.084-.017.126l-.006.025.005.096c.006.105.01.181-.004.256-.12.439-.11.915.023 1.36.158.749.493 1.306 1.014 1.699.348.302.766.505 1.17.682.346.138.757.095 1.026-.111.103-.079.195-.101.323-.132.026-.006.051-.013.077-.018.624-.098 1.093-.49 1.393-1.163a1.84 1.84 0 01.422-.599 2.52 2.52 0 00-.038.378 8.778 8.778 0 00-.06 1.005c-.013.119-.01.241-.008.36.003.154.007.301-.04.434-.049.214-.087.384.031.646l.03.049v.006c.002.017.003.037.006.055-.025.368.045.696.113 1.014.021.103.043.204.066.328.158.54.359 1.157.764 1.66.285.604.411.703.727.896.084.051.184.112.31.201.328.232.604.31.853.358l.06.012.053-.038a.76.76 0 00.15-.151l.014-.017c.23-.059.44-.142.644-.224.16-.063.324-.127.524-.191.069-.033.143-.066.218-.1.208-.091.423-.187.591-.319.306-.128.564-.335.817-.536a9.61 9.61 0 00.546-.514c.257-.266.459-.521.643-.816a.743.743 0 01.243-.275c.168-.132.318-.269.481-.418l.193-.175v-.002l.018-.005.072-.02.037-.075c.035-.073.066-.138.092-.197.144-.314.203-.442.857-.994l.531-.41-.083-.158a11.78 11.78 0 00-.036-.066.764.764 0 00.164-.214c.256-.321.506-.48.796-.665.205-.13.434-.274.685-.493.096.04.182.041.263.008.169-.07.237-.269.298-.445.047-.135.096-.276.169-.302l.042-.024c.063-.047.161-.122.241-.227-.168 1.068.152 1.944.959 2.608.135.108.264.212.386.352.341.351.807.524 1.397.515.057-.005.114-.008.17-.01.228-.011.463-.023.715-.202a.084.084 0 00.017.005l.047-.018c.165-.065.27-.097.435-.134.182-.081.384-.143.657-.199.136.313.367.555.557.733.03.029.079.079.1.117.189.31.459.5.719.684.077.055.156.11.233.17l.366.122c.103.005.203.02.3.036.163.023.332.052.499.033.162-.01.319.018.484.046.109.02.222.038.35.05a1.85 1.85 0 00.794-.145c.102-.05.213-.098.326-.148.184-.079.373-.161.583-.292.017-.017.07-.024.13-.033a1.17 1.17 0 00.624-.323c.026-.032.089-.058.146-.082l.075-.033c.061-.03.118-.068.175-.101.002.552.143 1.389.365 2.501.054.271.096.483.11.596.086.496.871 1.582 1.25 1.814l.033.02.037.001c.979.036 1.799-.103 2.342-.194.104-.018.209-.035.299-.048-.237.231-.694.625-1.292 1.147-.315.275-.63.55-.944.828-.296.248-1 .931-2.069 2.032-.248.222-.718.43-.97.467-.865.113-1.503.137-2.241.167l-.256.01c-1.349.148-2.559.124-3.611-.071a15.897 15.897 0 00-.217-.02 8.963 8.963 0 00-.847-.057c-.417-.033-.858.409-.948.817-.119.933.169 1.992.781 2.908.698 1.046 1.692 1.715 2.605 1.783l.15.053c.303.107.678.241 1.041.293.196.028.389.033.564-.003.717-.112 1.317-.299 2.108-.668.201-.162.427-.265.646-.365a3.38 3.38 0 00.495-.256c.46-.208.788-.45 1.081-.793.306-.28.623-.57 1.011-.842l.046-.039c.551-.472 1.124-.957 1.645-1.529a1 1 0 01.695-.459c.076-.006.134-.039.196-.074l.087-.049c.077-.02.613-.057 1.087-.088 1.135-.074 1.956-.126 2.151-.205l.046-.028c.158-.137.371-.226.508-.284.206-.055.535-.294.883-.547.241-.174.491-.354.622-.407.411-.196.609-.305.836-.43.16-.089.336-.185.602-.321.299-.116.567-.277.751-.446l.122-.078a2.99 2.99 0 01.569-.308 10.3 10.3 0 00.729-.369c.07-.039.141-.078.21-.118.222-.196.385-.313.543-.39.072-.033.183-.071.307-.113.413-.141.715-.253.817-.404.081-.082.401-.254.953-.509l.066-.031c.361-.215.336-.458.263-.667-.036-.103-.043-.123.041-.229z" fill="#272525"/></g></svg>