<svg width="249" height="37" viewBox="0 0 249 37" xmlns="http://www.w3.org/2000/svg"><g fill="none" fill-rule="evenodd"><g fill-rule="nonzero"><path d="M63.76 33V22.08l10.2-15.76h-6.44L60.92 17l-6.6-10.68h-6.48l10.24 15.76V33h5.68zm21.76.48c8.04 0 13.92-5.76 13.92-13.8 0-8.04-5.88-13.8-13.92-13.8-8.08 0-13.96 5.76-13.96 13.8 0 8.04 5.88 13.8 13.96 13.8zm0-5.04c-4.96 0-8.12-3.8-8.12-8.76 0-5 3.16-8.76 8.12-8.76 4.92 0 8.08 3.76 8.08 8.76 0 4.96-3.16 8.76-8.08 8.76zm27.96 5.04c8.12 0 12.04-4.56 12.04-11.16v-16h-5.8v15.84c0 3.72-2.12 6.28-6.24 6.28s-6.28-2.56-6.28-6.28V6.32h-5.76v16c0 6.6 3.92 11.16 12.04 11.16zm21-.48v-9.48h4.16l5.24 9.48h6.56l-6.04-10.16c2.88-.68 5.88-3.24 5.88-7.92 0-4.96-3.44-8.6-9-8.6H128.8V33h5.68zm6-14.48h-6v-7.2h6c2.24 0 3.96 1.36 3.96 3.56 0 2.28-1.72 3.64-3.96 3.64z" fill="#31394D"/><path d="M165.48 33.48c4.8 0 8.6-1.96 11.32-5V18.24h-12.72v4.96h7.04v3.2c-1.08 1-3.28 2.04-5.64 2.04-4.88 0-8.4-3.72-8.4-8.76 0-5.04 3.52-8.76 8.4-8.76 2.8 0 5.08 1.6 6.32 3.48l4.68-2.56c-2-3.16-5.48-5.96-11-5.96-7.84 0-14.24 5.36-14.24 13.8 0 8.4 6.4 13.8 14.24 13.8zm26.52 0c8.04 0 13.92-5.76 13.92-13.8 0-8.04-5.88-13.8-13.92-13.8-8.08 0-13.96 5.76-13.96 13.8 0 8.04 5.88 13.8 13.96 13.8zm0-5.04c-4.96 0-8.12-3.8-8.12-8.76 0-5 3.16-8.76 8.12-8.76 4.92 0 8.08 3.76 8.08 8.76 0 4.96-3.16 8.76-8.08 8.76zM210.2 33l1.68-4.52h11.44L225 33h6.44L221.16 6.32h-7.12L203.76 33h6.44zm11.56-9.52h-8.32L217.6 12l4.16 11.48zM248.68 33v-5H237.4V6.32h-5.72V33h17z" fill="#7076F0"/></g><path d="M44.976 20.713c0 7.68-6.212 13.893-13.884 13.893-7.672 0-13.889-6.213-13.889-13.893 0-7.656 6.217-13.88 13.89-13.88 7.671 0 13.883 6.224 13.883 13.88" stroke="#7076F0" stroke-width="3"/><path d="M31.092 27.647c-3.825 0-6.924-3.105-6.924-6.934 0-3.816 3.099-6.916 6.924-6.916s6.93 3.1 6.93 6.916a6.933 6.933 0 01-6.93 6.934z" fill="#C9CCFA"/><g fill="#0A0B09"><path d="M14.868 11.211l-.749.048-.272-4.286L6.858 2.93l.18 2.89 8.205 4.74-.375.65-.749.048.749-.048-.375.65L5.94 6.918a.75.75 0 01-.373-.602l-.293-4.688a.746.746 0 01.354-.684.747.747 0 01.77-.012l8.548 4.943a.75.75 0 01.373.602l.297 4.687a.748.748 0 01-1.124.697l.376-.65"/><path d="M14.617 11.11l.335.672-4.207 2.096a.753.753 0 01-.71-.022l-8.543-4.94a.752.752 0 01.042-1.32l4.203-2.089a.751.751 0 01.708.022l8.547 4.932a.752.752 0 01-.04 1.32l-.335-.67-.375.65L6.044 7.03 3.452 8.317l6.985 4.039 3.846-1.916.334.67-.375.65.375-.65"/><path d="M30.636 21.255a.912.912 0 001.26-.338.916.916 0 00-.338-1.262L2.296 2.758a.935.935 0 00-1.268.34.924.924 0 00.34 1.267l29.268 16.89"/></g></g></svg>