<svg width="97" height="51" viewBox="0 0 97 51" xmlns="http://www.w3.org/2000/svg"><g fill="none" fill-rule="evenodd"><path d="M2.106 17.958V5.268c0-2.032.133-2.931-1.333-2.931v-.3h9.526v.3c-1.432 0-1.365.533-1.365 2.931v12.923c0 3.931 2.065 5.596 5.229 5.596 3.564 0 5.362-2.465 5.362-5.596v-8.66c0-2.731-.866-7.194-4.03-7.194v-.3h8.727l.033.3c-3.731 0-4.43 4.463-4.43 7.194v8.66c0 4.397-2.931 7.594-8.793 7.594-4.53 0-8.926-2.398-8.926-7.827M39.208 14.961c-1.132 1.299-3.064 1.432-4.397.333-.632-.601-1.065-1.3-1.065-2.066 0-.433-1.066-.2-2.432 1.866v6.628c0 1.832.166 3.164 1.366 3.497v.266h-8.327v-.266c1.266-.367 1.299-1.799 1.299-3.497v-8.127c0-1.166-.4-1.632-1.765-2.131v-.267l7.427-1.399v4.663c2.365-3.565 3.364-3.963 4.363-4.43.933-.433 2.332-.233 3.198.533 1.299 1.132 1.465 3.13.333 4.397M52.962 17.991c0-3.896-.933-7.194-3.331-7.194-2.231 0-2.731 2.731-2.731 5.296v3.53c0 3.797.766 5.862 2.765 5.862 1.865 0 3.297-2.165 3.297-7.494zm6.695-.467c0 6.596-4.397 8.261-8.66 8.261-2.631 0-4.197-.633-5.096-1.466-1.066.7-4.63 1.533-4.63.999V4.435c0-1.132-.333-1.631-1.698-2.131v-.267L46.9.639v11.69c.966-1.665 2.631-2.531 5.729-2.531 4.596 0 7.028 3.597 7.028 7.726zM69.78 17.358c-2.731.6-2.697 2.632-2.697 4.197 0 0-.034 2.199 1.299 2.199.566 0 1.032-.467 1.398-1.267v-5.129zm8.327 5.995c-.466 1.466-2.198 2.432-4.296 2.432 0 0-3.698 0-3.997-2.997-.433 1.731-2.132 2.997-4.497 2.997-1.265 0-4.163-.566-4.163-3.397 0-3.33 2.698-3.964 8.626-5.363v-2.132c0-3.462-1.965-5.329-4.263-4.129 0 0-.733.433.4.832.566.2.933.667 1.199 1.266.499 1.233-.067 2.565-1.299 3.098a2.385 2.385 0 01-3.065-1.3c-.333-.865-.166-1.865.4-2.464.4-.433.999-1.032 2.232-1.698 1.499-.8 3.131-.7 3.131-.7 4.363 0 6.794 2.731 6.794 6.661v4.963s0 2.398 1.599 2.332c0 0 .833 0 .999-.567l.2.166z" fill="#272525"/><path d="M96.191 25.219v.266h-8.327v-.266c1.266-.367 1.333-1.832 1.333-3.531v-6.694c0-1.898-.699-2.798-2.299-2.798-.732 0-1.498.599-1.964 1.299v8.227c0 1.832.166 3.164 1.365 3.497v.266h-8.327v-.266c1.266-.367 1.299-1.766 1.299-3.497v-8.127c0-1.166-.366-1.632-1.732-2.131v-.267l7.395-1.399v3.23c.865-1.764 2.63-3.23 4.429-3.23 2.665 0 5.463 1.065 5.463 5.062v6.828c0 1.832.199 3.232 1.365 3.531" fill="#272525"/><path d="M16.582 47.321c.187.383.526.428.846.499-.239-.369-.498-.533-.846-.499M17.434 47.829a.012.012 0 01.005-.005.049.049 0 01-.011-.004l.006.009M80.225 32.394l-.266.018a.502.502 0 00.266-.018" fill="#EFC5CD"/><path d="M79.776 32.699l-.049.487c-.503.16-.11-.293-.598-.271-.016-.4.434-.475.83-.503-.354-.056-.701-.355-.856.078-.331-.174.049-.486-.35-.668-.289.112-.675.492-.998.248l.007-.07c-.79-.432-1.24.575-1.961.15l.082-.132c-.252-.237-.769.061-1.229-.197.131.084.24.376-.042.416-.53-.264-.902-.021-1.286-.343l-.386.382c-1.865-.122-9.253.253-11.129.27l.075-.061c-2.863.125-8.727-.049-11.693.417-.447-.395-1.08-.32-1.553-.44.261.167.163.438-.043.417-1.451-.08-.105.264-1.577.392-1.7.317-8.16-.25-9.652-.615-.821.548-1.816.094-2.615.434l.083-.132c-.854.192-5.642-.451-6.633-.273l.13.085c-.868.332-.736-.287-1.408-.497.073.639-.673.983-.954 1.024l.013-.139c-.425.097-1.399.626-2.101.694l.036-.347c-.592.359-1.686.177-2.106.203-.956-.167-2.419-.81-3.713-.381l-.804-1.014-.124.096s-1.628 11.956.002 14.551l-.035.347.336-.037c.398.181.593-.217.558.129l-.55-.056c.401.111.115.288-.044.481.168.037.331.083.462.194.083-.132-.055-.146-.116-.223.22-.117.53-.437.791-.27.413.043.012.564.494.614 2.537.331 4.992.794 7.565.779.055.145-.014.139-.09.201.778-.131 1.465-.059 2.174-.198.193.161.24.376.295.522-.109-.292 3.903-.219 3.964-.142l.065-.627c.763.01.205.723.913.586.298-.881 1.169.121 1.425-.345-.008.07.337.105.309.383.117-.48.357-.104.578-.221.083-.132-.054-.145-.11-.293l.503-.157c.191.159.233.444.02.491 1.299.205 7.547.82 8.957.614-.172-.368-.612-.132-.762-.71.379-.311.544.126.716-.207.121.855.811.224 1.071 1.093l.118-.479.177.299c1.646-.461.379-.235 1.824-.086.84-.054 1.254-.713 1.714-.456-.069-.006-.246-.306-.026-.424.026.424.585-.289.68.141.214-.049.901.023.683-.562.109.292.721.426.349.668.207.021.405.112.558-.013l-.262-.168c.702-.066 1.072.392 1.541-.121l-.253-.237c.419-.027.77-.061.921.515l-.435.166c.695.002 1.115-.025 1.701-.315l-.206-.022c.751-.553 4.618-.932 5.315-1.632l-.302-.453.593-.36c-.069-.007-.317 1.438-.372 1.291 1.252-.011 7.77-.196 8.919.132.46.258.066.709.059.779.572-.152.257-.466.738-.416.13.083-.035.348-.111.409.213-.046.405.113.426-.095-.26-.168-.135-.717-.238-1.078l.62.063-.037.348c.139.013.375-.945.98-.742 1.025.176 2.145.082 3.177.187-.021.209-.241.327-.462.444.138.014.351-.034.475.119-.24-.375.44-.235.249-.395.778-.833 1.74-.031 2.422-.593.077-.764 1.755-13.121 1.778-14.032.207.021.413.043.474.12-.048-.216-.453-.328-.674-.211" fill="#C7C9CD"/><path fill="#FFF" d="M28.411 37.593v.972h-1.9v1.129h1.675v.973h-1.675v1.219h1.9v.972h-3.179v-5.265h3.179M34.417 41.004h1.242l-.621-1.87-.621 1.87zm1.855 1.854l-.292-.882h-1.885l-.291.882h-1.362l1.825-5.265h1.556l1.818 5.265h-1.369zM41.335 38.58v-.972h4.144v.972h-1.436v4.278h-1.279V38.58h-1.429M52.847 37.593v.972h-1.9v1.129h1.675v.973h-1.675v1.219h1.9v.972h-3.18v-5.265h3.18M58.65 38.58v1.264h.793c.195 0 .348-.057.46-.172a.614.614 0 00.169-.452.637.637 0 00-.173-.46.601.601 0 00-.456-.18h-.793zm0 2.236v2.042h-1.278v-5.25h2.071c.608 0 1.082.157 1.421.471.339.314.509.693.509 1.137 0 .304-.092.601-.277.89-.184.289-.486.495-.905.614l1.287 2.138h-1.497L58.8 40.816h-.15zM68.441 42.858h-1.279v-1.69l-1.817-3.56h1.451l1.009 2.371 1.003-2.371h1.451l-1.818 3.56v1.69"/></g></svg>