<svg height="96" viewBox="0 0 96 96" width="96" xmlns="http://www.w3.org/2000/svg"><g fill="none" fill-rule="evenodd"><circle cx="48" cy="48" fill="#7975f4" r="48"/><g fill="#fff" fill-rule="nonzero" transform="translate(22 22)"><path d="m25.6 51.2526c-6.5429 0-11.866-5.323-11.866-11.866v-13.6815c0-6.5429 5.323-11.8659 11.866-11.8659s11.866 5.323 11.866 11.8659v13.6814c0 6.543-5.3231 11.8661-11.866 11.8661zm0-34.4134c-4.8887 0-8.866 3.9772-8.866 8.8659v13.6814c0 4.8888 3.9772 8.866 8.866 8.866s8.866-3.9772 8.866-8.866v-13.6814c0-4.8886-3.9773-8.8659-8.866-8.8659z"/><path d="m25.6 51.2526c-6.5429 0-11.866-5.323-11.866-11.866v-13.6815c0-6.5429 5.323-11.8659 11.866-11.8659s11.866 5.323 11.866 11.8659v13.6814c0 6.543-5.3231 11.8661-11.866 11.8661zm0-34.4134c-4.8887 0-8.866 3.9772-8.866 8.8659v13.6814c0 4.8888 3.9772 8.866 8.866 8.866s8.866-3.9772 8.866-8.866v-13.6814c0-4.8886-3.9773-8.8659-8.866-8.8659z"/><path d="m24.1 22.4021h3v4.0032h-3z"/><path d="m0 24.2051h7.0278v3h-7.0278z"/><path d="m44.2773 24.2052h7.0279v3h-7.0279z"/><path d="m2.96571401 35.273675h7.02774538v2.999934h-7.02774538z" transform="matrix(.86601905 -.500011 .500011 .86601905 -17.519084 8.166832)"/><path d="m41.3103438 13.1357974h7.0277454v2.999934h-7.0277454z" transform="matrix(.86601905 -.500011 .500011 .86601905 -1.312452 24.373515)"/><path d="m33.2077339 5.0334243h7.0277454v2.999934h-7.0277454z" transform="matrix(.500011 -.86601905 .86601905 .500011 12.702358 35.068235)"/><path d="m24.1526.0526h3v7.0278h-3z"/><path d="m13.0829208 3.01857231h2.999934v7.02764539h-2.999934z" transform="matrix(.86601905 -.500011 .500011 .86601905 -1.31244 8.166821)"/><path d="m43.3241933 33.2614791h2.999934v7.0277454h-2.999934z" transform="matrix(.500011 -.86601905 .86601905 .500011 -9.436569 57.205848)"/><path d="m4.9796791 11.1219723h2.999934v7.0277454h-2.999934z" transform="matrix(.500011 -.86601905 .86601905 .500011 -9.435169 12.929258)"/></g></g></svg>