<svg height="96" viewBox="0 0 96 96" width="96" xmlns="http://www.w3.org/2000/svg"><g fill="none" fill-rule="evenodd"><circle cx="48" cy="48" fill="#f4757c" r="48"/><g fill="#fff" fill-rule="nonzero" transform="translate(17 19)"><path d="m58.517415 33.147224c-.657272-.126808-1.290828.303105-1.417152.959167-2.405238 12.482481-13.392159 21.542235-26.124263 21.542235-12.463847 0-23.255111-8.682113-25.960792-20.757913l.31581.31581c.236313.236313.545952.35453.855591.35453s.619278-.118217.85547-.354409c.472626-.472505.472626-1.238556.000121-1.711182l-2.488365-2.488486c-.226875-.226996-.534699-.35453-.855591-.35453s-.628716.127534-.855591.35453l-2.488244 2.488486c-.472505.472505-.472505 1.238556.000121 1.711182.472384.472626 1.238677.472505 1.711182-.000121l.447942-.447942c2.700357 13.518846 14.638459 23.310045 28.462346 23.310045 13.889953 0 25.876213-9.884974 28.500582-23.50425.126445-.656183-.302984-1.290707-.959167-1.417152z"/><path d="m61.59747 22.873356c-.472384-.472626-1.238677-.472505-1.711182.000121l-.447942.447942c-2.700357-13.518846-14.638459-23.310045-28.462346-23.310045-13.889953 0-25.876213 9.884974-28.500582 23.50425-.126445.656304.302984 1.290707.959167 1.417152.65703.126203 1.290707-.303226 1.417152-.959167 2.405359-12.482481 13.39228-21.542235 26.124263-21.542235 12.463847 0 23.255111 8.682113 25.960792 20.757913l-.31581-.31581c-.472384-.472505-1.238435-.472626-1.711182-.000121-.472626.472505-.472626 1.238556-.000121 1.711182l2.488244 2.488486c.226875.226996.534699.35453.855591.35453s.628716-.127534.855591-.35453l2.488244-2.488486c.472868-.472505.472868-1.238677.000121-1.711182z"/><path d="m32.252792 34.373922c.146652.058443.297902.086031.446732.086031.481096 0 .936056-.288948 1.124695-.763268l3.348675-8.419059c.246961-.620972-.056265-1.324587-.677116-1.571548-.62073-.24684-1.324587.056144-1.571548.677237l-3.348675 8.419059c-.246961.620972.056265 1.324587.677237 1.571548z"/><path d="m39.090623 26.04041h2.77816l-2.955183 6.722276c-.268983.611776.008954 1.325676.62073 1.594659.15851.069696.323675.102729.48642.102729.465366-.000121.909073-.270072 1.108239-.723338l3.701148-8.41918c.164439-.374253.128986-.806102-.09438-1.14829-.223487-.342309-.604516-.548614-1.013254-.548614h-4.631759c-.668162 0-1.21.541838-1.21 1.21-.000121.66792.541596 1.209758 1.209879 1.209758z"/><path d="m23.602018 31.379898c.217679.368687.613833.594836 1.041931.594836h2.992088c-.003388.446006-.006897.873257-.010285 1.26445-.005687.668283.531432 1.214598 1.199594 1.220406h.010648c.663322 0 1.20395-.534941 1.209758-1.199594.002783-.316657.006413-.766051.010527-1.291675.609356-.062799 1.084765-.577654 1.084765-1.203587 0-.620488-.466939-1.131834-1.068672-1.201893.01089-1.969517.015004-3.952344-.00968-4.249278-.064735-.778151-.540023-1.414974-1.210847-1.622852-.669856-.207152-1.374197.042834-1.884454.668888-.47916.587697-2.52527 4.266339-3.382797 5.820584-.20691.374979-.200255.831028.017424 1.199715zm4.057493-3.514808c-.001815.522599-.004356 1.097712-.007623 1.689644h-.94985c.336259-.599071.66308-1.176362.957473-1.689644z"/><path d="m22.870089 34.52251c.668162-.008349 1.202982-.556963 1.194633-1.225125-.008228-.662959-.548372-1.194754-1.209516-1.194754-.005203 0-.010406 0-.015609.000121-.662475.008228-1.358467.014399-1.987304.017424.435358-.589391.994257-1.361734 1.700292-2.370511.556963-.795696.921052-1.552188 1.082466-2.248301.039688-.154396.0726-.372801.072963-.59895.002662-1.855172-1.509233-3.364405-3.364405-3.364405-1.603976 0-2.992209 1.141272-3.301243 2.713546-.128744.655699.298265 1.291675.954085 1.42054.656183.129107 1.291796-.298265 1.42054-.954085.086515-.44044.476256-.760001.926618-.760001.500093 0 .910525.39083.942348.882937l-.021175.165649c-.072237.276001-.252406.723217-.694782 1.355321-1.330637 1.901152-2.124397 2.940421-2.550801 3.498715-.546799.715957-.847968 1.110296-.646745 1.765148.118459.384901.420717.691999.80949.821711.161535.053845.290884.096921 1.943381.096921.648802-.000121 1.532344-.006655 2.744764-.021901z"/></g></g></svg>