<svg height="96" viewBox="0 0 96 96" width="96" xmlns="http://www.w3.org/2000/svg"><g fill="none" fill-rule="evenodd"><circle cx="48" cy="48" fill="#34d789" r="48"/><g fill="#fff" fill-rule="nonzero"><g transform="translate(22 25)"><path d="m47.5294.0481h-43.8588c-2.024 0-3.6706 1.6501-3.6706 3.6784v38.7818c0 1.6782 1.3601 3.0436 3.0317 3.0436h45.1365c1.6717 0 3.0317-1.3653 3.0317-3.0436v-38.7818c0-2.0283-1.6465-3.6784-3.6705-3.6784zm-45.5294 3.6784c0-.9254.7494-1.6783 1.6706-1.6783h43.8588c.9212 0 1.6706.7529 1.6706 1.6783v5.9432h-47.2zm47.2 38.7818c0 .5754-.4628 1.0436-1.0317 1.0436h-45.1366c-.569 0-1.0317-.4682-1.0317-1.0436v-30.8387h47.2z"/><path d="m32.8973 4.8589h-1.3434c-.5522 0-1 .4478-1 1s.4478 1 1 1h1.3434c.5522 0 1-.4478 1-1 0-.5523-.4478-1-1-1z"/><path d="m39.1104 4.8589h-1.3433c-.5522 0-1 .4478-1 1s.4478 1 1 1h1.3433c.5523 0 1-.4478 1-1 0-.5523-.4477-1-1-1z"/><path d="m45.3236 4.8589h-1.3433c-.5522 0-1 .4478-1 1s.4478 1 1 1h1.3433c.5522 0 1-.4478 1-1 0-.5523-.4477-1-1-1z"/><path d="m16.8216 4.8589h-9.6949c-.5522 0-1 .4478-1 1s.4478 1 1 1h9.6949c.5522 0 1-.4478 1-1 0-.5523-.4478-1-1-1z"/></g><path d="m16.8989 12.8207c.7207-.8864 1.1531-2.0161 1.1531-3.2449 0-2.8408-2.3111-5.1521-5.152-5.1521s-5.152 2.3112-5.152 5.1521c0 1.2285.4322 2.3579 1.1525 3.2442-1.4076.7646-2.3601 2.2597-2.3601 3.9504v3.4274c0 .5522.4478 1 1 1h10.7191c.5522 0 1-.4478 1-1v-3.4274c0-1.6874-.9533-3.1839-2.3606-3.9497zm-3.9989-6.397c1.738 0 3.152 1.414 3.152 3.1521 0 1.738-1.414 3.152-3.152 3.152s-3.152-1.414-3.152-3.152c0-1.7381 1.414-3.1521 3.152-3.1521zm4.3596 12.7741h-8.7191v-2.4274c0-1.2898.9987-2.3742 2.2789-2.4816.6366.2822 1.3407.439 2.0807.439s1.4441-.1568 2.0807-.439c1.2791.1072 2.2789 1.1943 2.2789 2.4816v2.4274z" transform="translate(34.7 39.8)"/></g></g></svg>