<svg width="156" height="100" xmlns="http://www.w3.org/2000/svg"><path d="M35.47 77.64c9.5 0 28-10.92 39.22-27.6C85.24 45.75 93.68 42 95.4 40c.2-.2.1-.38 0-.58-.19-.1-.48-.1-.57 0-1.54 1.82-9.6 5.37-19.37 9.49 5.08-8.05 8.34-17.15 8.34-27.02 0-8.9-3.55-13.98-6.52-16.57A16.45 16.45 0 0072 2.05c-.1-.1-.2-.1-.3-.1a14.08 14.08 0 00-4.7-.95c-6.6 0-16.2 11.02-28.47 32.76A340.3 340.3 0 0028.18 53.4c3.64-9.1 8.92-22.8 15.54-40.71.67-1.73.19-4.03-1.06-6.13-1.53-2.02-3.74-3.26-5.85-3.26-1.53 0-3.45.48-5.66 1.34 0 .1-.1.1-.19.1C26.55 6.56 21 9.9 15.81 14.32 11.59 17.86 2 26.77 2 35.1c0 3.36 1.15 5.75 2.59 7.57.1.2.29.38.48.67 2.59 2.5 5.66 3.36 5.66 3.36.28.1.86 0 .96-.39.1-.1.28-.48-.3-.86-.09 0-.47-.2-1.14-.48a17.91 17.91 0 01-4.51-2.2 10.83 10.83 0 01-2.97-7.67c0-5.55 5.08-13.02 13.61-20.2 5.09-4.22 10.46-7.67 14.87-9.4 1.25-.48 2.68-.48 3.45 0 .48.29.67.77.67 1.34 0 5.56-5.94 19.64-11.12 32.1-4.32 10.25-8.06 19.15-8.06 22.12 0 3.17 2.2 6.8 4.22 7.19h.39c.57 0 1.34-.29 1.91-1.63.3-.67 29.25-64.85 44.3-64.85 1.06 0 2.7.28 4.42.95 5.08 6.9 4.6 18.4-1.53 32.38-3.07 7.28-7.68 14.66-12.66 21.08-19.57 7.95-31.17 13.03-31.17 15.61 0 2.59 1.63 5.85 9.4 5.85zm-8.54-4.89v-.96c0-.67 1.44-2.2 11.32-6.7 5.08-2.4 11.41-4.98 17.93-7.67a73 73 0 01-9.5 9.97c-8.43 7.47-15.72 9.39-19.75 5.36zm75.93-38.5c.1 0 .38-.1.48-.2.96-.96 3.07-3.54 2.97-6.23-.29-3.16-2.2-3.35-3.36-3.45-1.43 0-3.64 3.17-3.64 6.04 0 1.53.86 2.4 1.44 2.87a3.4 3.4 0 002.1.96zM92.79 64.8l.1-.1c.1-.1.28-.1.38-.19.96-1.05 19.85-17.53 20.04-17.81.1-.1.1-.39 0-.48-.2-.2-.38-.2-.57-.1-.77.67-19 16.57-20.05 17.72-2.68-2.58 1.44-9.29 4.51-14.18 1.73-2.77 3.07-4.98 3.07-6.03 0-3.16-2.69-4.89-4.12-4.89-.2 0-.58 0-2.21 2.5a68.99 68.99 0 00-3.07 5.55c-.96 1.92-4.12 8.34-4.12 11.02 0 4.88 2.5 6.42 3.55 6.8.57.2 1.05.29 1.53.29.38 0 .77 0 .96-.1zM114.53 99c7.1 0 15.25-21.75 20.72-40.04 9.87-4.5 18.22-8.43 19.75-12.26 0-.2-.1-.48-.29-.48-.29-.1-.48 0-.57.19-1.25 3.45-9.3 7.18-18.6 11.59 1.81-6.04 3.25-11.6 4.4-15.71 0-.29 0-.48.1-.58.77-2.77-2.01-4.5-3.55-5.07h-.38c-.1 0-.1 0-.1.1-5.46 7.94-14.29 20.3-16.59 22.4-.19-.09-.29-.18-.48-.28l-.04-.08c-.23-.47-.87-1.86-.15-5.28 1.92-7 4.6-11.3 6.14-13.51.67-1.25 1.05-1.82 1.05-2.2 0 0-.1 0-.1-.1a5.4 5.4 0 00-4.79-3.07c-3.55 0-8.15 15.62-8.15 18.88 0 3.45 4.41 6.7 6.23 6.7 0 0 .2 0 .58-.19.1-.1.2-.2.29-.38.96-.86 3.26-3.55 8.63-11.02 2.5-3.54 5.08-7.09 6.62-9.3-1.35 4.13-3.94 12.75-7.3 22.14-5.65 2.78-11.4 5.75-16.2 8.9-7.58 5.18-11.32 10.26-11.32 15.33 0 7 3.46 11.5 9.69 12.84h.2c1.24.29 2.68.48 4.21.48zm-4.22-1.25c-7.77-1.72-9.01-8.04-9.01-12.07 0-9.2 13.23-16.86 26.37-23.08-.58 1.72-1.25 3.54-1.92 5.46-9.59 26.53-13.71 29.98-15.44 29.7z" fill="#4e5a6a" fill-rule="nonzero"/></svg>