<?xml version="1.0" encoding="UTF-8"?>
<svg width="173px" height="37px" viewBox="0 0 173 37" version="1.1" xmlns="http://www.w3.org/2000/svg" xmlns:xlink="http://www.w3.org/1999/xlink">
    <title>Artboard</title>
    <g id="Artboard" stroke="none" stroke-width="1" fill="none" fill-rule="evenodd">
        <g id="adobe-stock-logo-lockup-2020_dark" transform="translate(-0.000000, 0.000000)" fill-rule="nonzero">
            <g id="Group">
                <path d="M0,30.0933333 L0,6.75866667 C0,6.31466667 0.0246666667,5.87066667 0.123333333,5.45133333 C0.222,5.032 0.345333333,4.588 0.518,4.19333333 C0.690666667,3.79866667 0.888,3.404 1.13466667,3.00933333 C1.38133333,2.61466667 1.67733333,2.294 1.97333333,1.97333333 C2.294,1.65266667 2.63933333,1.38133333 3.00933333,1.13466667 C3.37933333,0.888 3.774,0.666 4.19333333,0.518 C4.61266667,0.345333333 5.032,0.222 5.45133333,0.123333333 C5.89533333,0.0246666667 6.31466667,0 6.75866667,0 L31.4746667,0 C31.9186667,0 32.3626667,0.0246666667 32.782,0.123333333 C33.226,0.222 33.6453333,0.345333333 34.04,0.518 C34.4346667,0.690666667 34.8293333,0.888 35.224,1.13466667 C35.6186667,1.38133333 35.9393333,1.67733333 36.26,1.97333333 C36.5806667,2.294 36.852,2.63933333 37.0986667,3.00933333 C37.3453333,3.37933333 37.5673333,3.774 37.7153333,4.19333333 C37.888,4.61266667 38.0113333,5.032 38.11,5.45133333 C38.2086667,5.89533333 38.2333333,6.31466667 38.2333333,6.75866667 L38.2333333,30.0933333 C38.2333333,30.5373333 38.2086667,30.9813333 38.11,31.4006667 C38.0113333,31.8446667 37.888,32.264 37.7153333,32.6586667 C37.5426667,33.078 37.3453333,33.448 37.0986667,33.8426667 C36.852,34.2373333 36.556,34.558 36.26,34.8786667 C35.9393333,35.1993333 35.594,35.4706667 35.224,35.7173333 C34.854,35.964 34.4593333,36.186 34.04,36.334 C33.6206667,36.5066667 33.2013333,36.63 32.782,36.7286667 C32.338,36.8273333 31.9186667,36.852 31.4746667,36.852 L6.78333333,36.852 C6.33933333,36.852 5.89533333,36.8273333 5.476,36.7286667 C5.032,36.63 4.61266667,36.5066667 4.218,36.334 C3.79866667,36.1613333 3.42866667,35.964 3.034,35.7173333 C2.63933333,35.4706667 2.31866667,35.1746667 1.998,34.8786667 C1.67733333,34.558 1.406,34.2126667 1.15933333,33.8426667 C0.912666667,33.4726667 0.690666667,33.078 0.542666667,32.6586667 C0.37,32.2393333 0.246666667,31.82 0.148,31.4006667 C0.0493333333,31.006 0,30.562 0,30.0933333 Z" id="Path" fill="#0C131F"></path>
                <path d="M13.542,27.0346667 C12.6046667,27.0346667 11.7413333,26.936 10.9766667,26.788 C10.212,26.64 9.57066667,26.418 9.028,26.1713333 C8.88,26.0973333 8.83066667,25.9493333 8.83066667,25.752 L8.83066667,22.7426667 C8.83066667,22.6686667 8.85533333,22.644 8.90466667,22.5946667 C8.92933333,22.57 9.00333333,22.57 9.05266667,22.6193333 C9.768,23.0633333 10.508,23.384 11.2973333,23.606 C12.0866667,23.828 12.8513333,23.9266667 13.616,23.9266667 C14.578,23.9266667 15.2686667,23.7786667 15.688,23.4826667 C16.1073333,23.1866667 16.3046667,22.8166667 16.3046667,22.3726667 C16.3046667,22.0766667 16.2306667,21.83 16.1073333,21.608 C15.9593333,21.386 15.7373333,21.164 15.392,20.942 C15.0466667,20.72 14.6026667,20.498 14.0106667,20.276 L12.7526667,19.7333333 C11.7166667,19.2893333 10.9273333,18.8206667 10.3353333,18.3273333 C9.74333333,17.834 9.34866667,17.2913333 9.15133333,16.724 C8.92933333,16.1566667 8.806,15.54 8.806,14.874 C8.806,13.9613333 9.028,13.1226667 9.472,12.4073333 C9.94066667,11.6673333 10.582,11.0753333 11.4946667,10.656 C12.3826667,10.2366667 13.5173333,10.0146667 14.8493333,10.0146667 C15.6386667,10.0146667 16.4033333,10.064 17.1186667,10.1626667 C17.8093333,10.2613333 18.3766667,10.434 18.796,10.6313333 C18.9193333,10.7053333 18.9686667,10.804 18.9686667,10.952 L18.9686667,13.8133333 C18.9686667,13.838 18.944,13.8873333 18.8946667,13.912 C18.87,13.9366667 18.796,13.9366667 18.7466667,13.8873333 C18.2533333,13.616 17.6366667,13.4186667 16.9953333,13.246 C16.3293333,13.1473333 15.614,13.0733333 14.8986667,13.0733333 C14.43,13.0733333 13.986,13.098 13.6653333,13.1966667 C13.32,13.2953333 13.0486667,13.394 12.8513333,13.5173333 C12.654,13.6406667 12.4813333,13.8133333 12.3826667,13.986 C12.284,14.1833333 12.2346667,14.3806667 12.2346667,14.578 C12.2346667,14.8493333 12.3086667,15.096 12.4566667,15.2933333 C12.6046667,15.5153333 12.876,15.7126667 13.2213333,15.9346667 C13.5666667,16.1566667 14.06,16.4033333 14.6766667,16.6746667 L15.614,17.02 C16.724,17.4886667 17.5873333,17.9573333 18.204,18.4753333 C18.8206667,18.9933333 19.2646667,19.536 19.5113333,20.1526667 C19.758,20.7693333 19.8813333,21.386 19.8813333,22.1013333 C19.8813333,23.088 19.61,23.976 19.092,24.716 C18.5493333,25.456 17.834,26.048 16.8966667,26.4426667 C15.9593333,26.8373333 14.8246667,27.0346667 13.542,27.0346667 Z" id="Path" fill="#FFFFFF"></path>
                <path d="M28.416,24.2966667 L28.416,26.3686667 C28.416,26.5413333 28.342,26.6646667 28.2186667,26.6893333 C27.898,26.788 27.5526667,26.862 27.2073333,26.936 C26.862,27.01 26.4426667,27.0346667 25.9986667,27.0346667 C24.8886667,27.0346667 24.05,26.7386667 23.4086667,26.1713333 C22.792,25.604 22.4713333,24.6666667 22.4713333,23.4086667 L22.4713333,17.168 L20.9666667,17.168 C20.8186667,17.168 20.7693333,17.094 20.7693333,16.946 L20.7693333,14.43 C20.7693333,14.282 20.8433333,14.2326667 20.9913333,14.2326667 L22.496,14.2326667 C22.5206667,13.9366667 22.5206667,13.616 22.57,13.246 C22.5946667,12.876 22.6193333,12.4813333 22.6686667,12.1113333 C22.6933333,11.7413333 22.7426667,11.4206667 22.7673333,11.174 C22.792,11.1246667 22.792,11.0753333 22.8413333,11.026 C22.866,11.0013333 22.9153333,10.952 22.9646667,10.9273333 L25.974,10.5573333 C26.0233333,10.5326667 26.0726667,10.5326667 26.0973333,10.5573333 C26.122,10.582 26.1466667,10.6313333 26.1466667,10.7053333 C26.122,11.1 26.0973333,11.618 26.0726667,12.284 C26.048,12.95 26.048,13.5913333 26.0233333,14.2326667 L28.3666667,14.2326667 C28.4653333,14.2326667 28.5146667,14.3066667 28.5146667,14.43 L28.5146667,16.9953333 C28.5146667,17.094 28.49,17.1433333 28.3913333,17.168 L25.9986667,17.168 L25.9986667,22.57 C25.9986667,23.1373333 26.0973333,23.5566667 26.2946667,23.8033333 C26.492,24.05 26.8373333,24.1733333 27.3553333,24.1733333 C27.5033333,24.1733333 27.6513333,24.1733333 27.7746667,24.1486667 C27.9226667,24.1486667 28.046,24.124 28.194,24.124 C28.2433333,24.0993333 28.2926667,24.0993333 28.342,24.1486667 C28.3913333,24.1733333 28.416,24.2226667 28.416,24.2966667 Z" id="Path" fill="#FFFFFF"></path>
            </g>
            <g id="Group" transform="translate(47.360000, 9.373333)" fill="#0C131F">
                <path d="M5.22933333,10.2613333 L8.954,10.2613333 C8.88,9.94066667 8.75666667,9.59533333 8.60866667,9.20066667 C8.46066667,8.806 8.362,8.38666667 8.214,7.94266667 C8.066,7.49866667 7.94266667,7.05466667 7.79466667,6.586 C7.64666667,6.142 7.52333333,5.698 7.4,5.30333333 C7.252,4.884 7.178,4.514 7.07933333,4.16866667 L7.05466667,4.16866667 C6.90666667,4.71133333 6.734,5.328 6.56133333,6.01866667 C6.33933333,6.75866667 6.142,7.474 5.89533333,8.214 C5.67333333,8.92933333 5.45133333,9.62 5.22933333,10.2613333 Z M9.86666667,13.1966667 L4.39066667,13.1966667 L3.23133333,16.6993333 C3.20666667,16.8473333 3.08333333,16.8966667 2.96,16.8966667 L0.246666667,16.8966667 C0.074,16.8966667 0.0246666667,16.8226667 0.0493333333,16.6746667 L4.78533333,3.00933333 C4.83466667,2.86133333 4.85933333,2.738 4.93333333,2.54066667 C4.98266667,2.34333333 5.00733333,2.04733333 5.00733333,1.554 C5.00733333,1.43066667 5.05666667,1.38133333 5.15533333,1.38133333 L8.954,1.38133333 C9.07733333,1.38133333 9.12666667,1.43066667 9.15133333,1.52933333 L14.5286667,16.724 C14.578,16.872 14.5286667,16.946 14.4053333,16.946 L11.322,16.946 C11.174,16.946 11.1,16.8966667 11.0753333,16.7733333 L9.86666667,13.1966667 Z" id="Shape"></path>
                <path d="M22.6686667,14.1833333 L22.6686667,7.77 C22.5453333,7.72066667 22.422,7.696 22.274,7.696 C22.1013333,7.67133333 21.9533333,7.67133333 21.8053333,7.67133333 C21.2133333,7.67133333 20.646,7.79466667 20.128,8.04133333 C19.6346667,8.288 19.1906667,8.658 18.8946667,9.12666667 C18.5986667,9.59533333 18.426,10.212 18.426,10.9766667 C18.426,11.5686667 18.5,12.062 18.648,12.4813333 C18.8206667,12.9006667 19.0426667,13.2706667 19.314,13.5173333 C19.5853333,13.7886667 19.9306667,13.986 20.3006667,14.134 C20.6953333,14.282 21.09,14.3313333 21.5586667,14.3313333 C21.756,14.3313333 21.9533333,14.3313333 22.1506667,14.3066667 C22.3233333,14.3066667 22.496,14.2326667 22.6686667,14.1833333 Z M21.1886667,17.168 C20.0046667,17.168 18.9686667,16.946 18.0066667,16.502 C17.0446667,16.058 16.3293333,15.3673333 15.7866667,14.504 C15.244,13.616 14.9726667,12.4813333 14.9726667,11.1246667 C14.9726667,9.96533333 15.244,8.92933333 15.7866667,8.01666667 C16.3293333,7.05466667 17.094,6.33933333 18.1546667,5.74733333 C19.1906667,5.18 20.424,4.90866667 21.8546667,4.90866667 C21.978,4.90866667 22.0766667,4.90866667 22.2,4.90866667 C22.3233333,4.90866667 22.4466667,4.93333333 22.644,4.93333333 L22.644,0.271333333 C22.644,0.148 22.6933333,0.0986666667 22.8166667,0.0986666667 L25.8013333,0.0986666667 C25.8753333,0.0986666667 25.9493333,0.148 25.9493333,0.246666667 L25.9493333,14.2573333 C25.9493333,14.5286667 25.9493333,14.8246667 25.974,15.1453333 C25.9986667,15.4906667 25.9986667,15.762 26.048,15.984 C26.048,16.1073333 25.9986667,16.1566667 25.8753333,16.206 C25.0613333,16.5513333 24.2473333,16.798 23.458,16.946 C22.6933333,17.0693333 21.9286667,17.168 21.1886667,17.168 Z" id="Shape"></path>
                <path d="M33.596,7.64666667 C33.152,7.64666667 32.7326667,7.79466667 32.3626667,8.04133333 C31.9926667,8.288 31.7213333,8.68266667 31.4993333,9.20066667 C31.2773333,9.694 31.1786667,10.286 31.1786667,11.026 C31.1786667,11.7166667 31.302,12.3086667 31.4993333,12.8266667 C31.6966667,13.32 31.9926667,13.7146667 32.3873333,14.0106667 C32.782,14.3066667 33.226,14.43 33.7686667,14.43 C34.2126667,14.43 34.632,14.282 35.002,14.0353333 C35.372,13.7886667 35.668,13.394 35.8653333,12.876 C36.0626667,12.358 36.186,11.7413333 36.186,11.026 C36.186,10.3846667 36.112,9.81733333 35.9393333,9.324 C35.7666667,8.83066667 35.4953333,8.38666667 35.1253333,8.09066667 C34.7306667,7.79466667 34.2126667,7.64666667 33.596,7.64666667 Z M33.744,4.90866667 C34.706,4.90866667 35.5446667,5.08133333 36.26,5.402 C36.9506667,5.74733333 37.5673333,6.19133333 38.0606667,6.75866667 C38.5293333,7.326 38.924,7.96733333 39.146,8.70733333 C39.3926667,9.44733333 39.516,10.1873333 39.516,11.0013333 C39.516,12.2346667 39.2693333,13.2953333 38.7513333,14.2326667 C38.258,15.17 37.5673333,15.8853333 36.704,16.4033333 C35.8406667,16.946 34.8293333,17.1926667 33.67,17.1926667 C32.6586667,17.1926667 31.7953333,17.02 31.0553333,16.65 C30.3153333,16.3046667 29.6986667,15.836 29.23,15.244 C28.7613333,14.652 28.3913333,14.0106667 28.1693333,13.2706667 C27.9473333,12.5306667 27.7993333,11.8153333 27.7993333,11.026 C27.7993333,9.89133333 28.046,8.90466667 28.5393333,7.96733333 C29.008,7.03 29.6986667,6.31466667 30.5866667,5.74733333 C31.4993333,5.18 32.5353333,4.90866667 33.744,4.90866667 Z" id="Shape"></path>
                <path d="M49.0373333,10.8533333 C49.0373333,10.1626667 48.8893333,9.57066667 48.6426667,9.07733333 C48.396,8.60866667 48.0506667,8.26333333 47.6066667,8.04133333 C47.1626667,7.81933333 46.6446667,7.696 46.1266667,7.696 C45.732,7.696 45.4606667,7.72066667 45.2633333,7.74533333 C45.066,7.77 44.8933333,7.81933333 44.7206667,7.89333333 L44.7206667,14.3313333 C44.8686667,14.356 44.992,14.3806667 45.1646667,14.4053333 C45.3126667,14.43 45.4853333,14.43 45.6086667,14.43 C46.2253333,14.43 46.7926667,14.282 47.286,14.0353333 C47.7793333,13.7886667 48.2233333,13.394 48.544,12.876 C48.8646667,12.3333333 49.0373333,11.6673333 49.0373333,10.8533333 Z M41.588,0.0986666667 L44.474,0.0986666667 C44.6466667,0.0986666667 44.696,0.148 44.696,0.296 L44.696,5.15533333 C45.0166667,5.08133333 45.3373333,5.00733333 45.6826667,4.958 C46.028,4.90866667 46.3486667,4.884 46.694,4.884 C47.878,4.884 48.8893333,5.13066667 49.728,5.64866667 C50.5666667,6.142 51.208,6.83266667 51.7013333,7.67133333 C52.17,8.51 52.392,9.472 52.392,10.5326667 C52.392,11.618 52.1946667,12.6046667 51.8,13.4186667 C51.4053333,14.2573333 50.8626667,14.9233333 50.1966667,15.466 C49.5306667,16.0086667 48.766,16.428 47.9026667,16.6993333 C47.064,16.9706667 46.2006667,17.1186667 45.288,17.1186667 C44.6466667,17.1186667 44.03,17.0693333 43.4133333,16.9706667 C42.7966667,16.8966667 42.18,16.7486667 41.588,16.5513333 C41.514,16.5266667 41.44,16.428 41.44,16.3293333 L41.44,0.271333333 C41.44,0.148 41.4893333,0.0986666667 41.588,0.0986666667 Z" id="Shape"></path>
                <path d="M57.054,9.59533333 L60.1866667,9.59533333 C60.5813333,9.59533333 60.8526667,9.59533333 61.0253333,9.59533333 C61.198,9.59533333 61.346,9.57066667 61.3706667,9.57066667 C61.3706667,9.546 61.3706667,9.52133333 61.3706667,9.49666667 C61.3706667,9.472 61.3706667,9.44733333 61.3706667,9.42266667 C61.3706667,9.27466667 61.346,9.102 61.2966667,8.88 C61.2473333,8.68266667 61.124,8.46066667 60.9513333,8.26333333 C60.7786667,8.04133333 60.5813333,7.86866667 60.3346667,7.72066667 C60.088,7.57266667 59.7426667,7.52333333 59.348,7.52333333 C58.8793333,7.52333333 58.4846667,7.64666667 58.1393333,7.844 C57.794,8.066 57.572,8.31266667 57.3993333,8.63333333 C57.2266667,8.92933333 57.128,9.25 57.054,9.59533333 Z M61.716,11.8893333 L57.054,11.8893333 C57.1033333,12.3333333 57.2513333,12.7526667 57.498,13.1226667 C57.7446667,13.4926667 58.1146667,13.7886667 58.5833333,14.0106667 C59.052,14.2326667 59.718,14.356 60.458,14.356 C61.0006667,14.356 61.494,14.3066667 61.9626667,14.208 C62.4313333,14.134 62.9246667,13.986 63.3686667,13.7886667 C63.4426667,13.7393333 63.5166667,13.764 63.5166667,13.912 L63.5166667,16.1566667 C63.5166667,16.2306667 63.5166667,16.3046667 63.492,16.3293333 C63.4673333,16.354 63.4426667,16.4033333 63.344,16.4526667 C62.9,16.6746667 62.3573333,16.8473333 61.79,16.946 C61.2226667,17.0693333 60.532,17.1186667 59.718,17.1186667 C58.5833333,17.1186667 57.6706667,16.946 56.8813333,16.576 C56.1166667,16.2306667 55.5,15.762 55.0313333,15.1946667 C54.5626667,14.6026667 54.2173333,13.9613333 53.9953333,13.246 C53.7733333,12.5553333 53.6746667,11.8153333 53.6746667,11.0753333 C53.6746667,10.2613333 53.8226667,9.472 54.0693333,8.70733333 C54.316,7.94266667 54.686,7.27666667 55.1546667,6.70933333 C55.6233333,6.11733333 56.2153333,5.67333333 56.9553333,5.328 C57.646,4.98266667 58.5093333,4.83466667 59.422,4.83466667 C60.31,4.83466667 61.0746667,4.98266667 61.716,5.27866667 C62.3573333,5.59933333 62.8753333,5.96933333 63.2946667,6.512 C63.6893333,7.00533333 63.9853333,7.57266667 64.158,8.16466667 C64.3306667,8.75666667 64.4293333,9.37333333 64.4293333,9.94066667 C64.4293333,10.3106667 64.4293333,10.6066667 64.4046667,10.9273333 C64.38,11.248 64.3553333,11.396 64.3306667,11.544 C64.306,11.6673333 64.2566667,11.7166667 64.1333333,11.7413333 C64.01,11.766 63.862,11.766 63.64,11.7906667 C63.418,11.8153333 63.1466667,11.8153333 62.8013333,11.8153333 C62.5053333,11.8893333 62.1353333,11.8893333 61.716,11.8893333 Z" id="Shape"></path>
                <path d="M75.2826667,17.168 C74.4193333,17.168 73.63,17.094 72.89,16.946 C72.15,16.798 71.5826667,16.576 71.0646667,16.3293333 C70.9413333,16.28 70.892,16.132 70.892,15.9346667 L70.892,13.098 C70.892,13.0486667 70.9166667,12.9746667 70.9413333,12.95 C70.966,12.9253333 71.0153333,12.9253333 71.0893333,12.95 C71.7553333,13.3693333 72.4706667,13.69 73.186,13.8873333 C73.926,14.0846667 74.6413333,14.208 75.3813333,14.208 C76.2693333,14.208 76.9353333,14.06 77.33,13.7886667 C77.7246667,13.5173333 77.922,13.172 77.922,12.7526667 C77.922,12.506 77.8726667,12.284 77.7246667,12.062 C77.5766667,11.84 77.3546667,11.6426667 77.0586667,11.4206667 C76.738,11.1986667 76.3186667,11.0013333 75.776,10.7793333 L74.592,10.286 C73.63,9.86666667 72.89,9.44733333 72.3226667,8.97866667 C71.78,8.51 71.3853333,8.01666667 71.1633333,7.474 C70.9413333,6.93133333 70.8426667,6.33933333 70.8426667,5.72266667 C70.8426667,4.884 71.0646667,4.09466667 71.484,3.404 C71.9033333,2.71333333 72.5446667,2.17066667 73.3833333,1.75133333 C74.222,1.332 75.258,1.13466667 76.516,1.13466667 C77.256,1.13466667 77.9466667,1.184 78.6126667,1.28266667 C79.2786667,1.35666667 79.7966667,1.52933333 80.216,1.75133333 C80.29,1.80066667 80.364,1.924 80.364,2.072 L80.364,4.736 C80.364,4.78533333 80.3393333,4.81 80.3146667,4.884 C80.29,4.90866667 80.2406667,4.90866667 80.1666667,4.884 C79.698,4.61266667 79.1306667,4.41533333 78.514,4.292 C77.8726667,4.144 77.2313333,4.09466667 76.516,4.09466667 C76.072,4.09466667 75.702,4.11933333 75.3566667,4.218 C75.036,4.292 74.7893333,4.39066667 74.592,4.53866667 C74.3946667,4.68666667 74.2466667,4.81 74.1726667,4.98266667 C74.0986667,5.15533333 74.0246667,5.35266667 74.0246667,5.52533333 C74.0246667,5.772 74.074,5.994 74.222,6.19133333 C74.37,6.38866667 74.592,6.586 74.9126667,6.808 C75.258,7.00533333 75.702,7.22733333 76.294,7.474 L77.1573333,7.844 C78.218,8.26333333 79.032,8.732 79.5993333,9.22533333 C80.1913333,9.694 80.586,10.2366667 80.8326667,10.804 C81.0546667,11.3713333 81.2026667,11.9633333 81.2026667,12.58 C81.2026667,13.542 80.956,14.356 80.4626667,15.0466667 C79.9693333,15.7373333 79.2786667,16.28 78.4153333,16.6746667 C77.5766667,16.9706667 76.516,17.168 75.2826667,17.168 Z" id="Path"></path>
                <path d="M88.9973333,14.5533333 L88.9973333,16.5266667 C88.9973333,16.6993333 88.948,16.798 88.8246667,16.8473333 C88.4793333,16.9706667 88.1586667,17.0446667 87.838,17.094 C87.4926667,17.1433333 87.1473333,17.168 86.7033333,17.168 C85.6673333,17.168 84.8533333,16.8966667 84.286,16.354 C83.7186667,15.8113333 83.4473333,14.948 83.4473333,13.764 L83.4473333,7.86866667 L82.0166667,7.86866667 C81.8686667,7.844 81.8193333,7.79466667 81.8193333,7.64666667 L81.8193333,5.328 C81.8193333,5.18 81.8933333,5.106 82.0413333,5.106 L83.472,5.106 C83.4966667,4.83466667 83.4966667,4.514 83.5213333,4.144 C83.546,3.774 83.546,3.404 83.5953333,3.08333333 C83.62,2.738 83.6693333,2.442 83.7186667,2.24466667 C83.7433333,2.19533333 83.7433333,2.12133333 83.7926667,2.09666667 C83.8173333,2.072 83.8666667,2.04733333 83.9406667,2.02266667 L86.728,1.65266667 C86.7773333,1.628 86.8513333,1.628 86.876,1.65266667 C86.9006667,1.67733333 86.9253333,1.702 86.9253333,1.80066667 C86.9006667,2.17066667 86.876,2.664 86.8513333,3.28066667 C86.8266667,3.89733333 86.802,4.514 86.802,5.106 L89.022,5.106 C89.17,5.106 89.2193333,5.15533333 89.2193333,5.30333333 L89.2193333,7.696 C89.2193333,7.77 89.17,7.844 89.0466667,7.86866667 L86.8266667,7.86866667 L86.8266667,12.95 C86.8266667,13.4926667 86.9006667,13.838 87.098,14.1093333 C87.2706667,14.356 87.5913333,14.4793333 88.1093333,14.4793333 C88.2573333,14.4793333 88.3806667,14.4793333 88.504,14.4546667 C88.6273333,14.43 88.7506667,14.43 88.8986667,14.3806667 C88.948,14.3806667 88.9726667,14.3806667 89.022,14.4053333 C89.0466667,14.3806667 88.9973333,14.4793333 88.9973333,14.5533333 Z" id="Path"></path>
                <path d="M95.7313333,7.64666667 C95.2873333,7.64666667 94.868,7.79466667 94.498,8.04133333 C94.128,8.288 93.8566667,8.68266667 93.6346667,9.20066667 C93.4126667,9.694 93.314,10.286 93.314,11.026 C93.314,11.7166667 93.4373333,12.3086667 93.6346667,12.8266667 C93.832,13.3446667 94.128,13.7146667 94.5226667,14.0106667 C94.9173333,14.3066667 95.3613333,14.43 95.904,14.43 C96.348,14.43 96.7673333,14.282 97.1373333,14.0353333 C97.5073333,13.7886667 97.8033333,13.394 98.0006667,12.876 C98.198,12.3826667 98.3213333,11.7413333 98.3213333,11.026 C98.3213333,10.3846667 98.2473333,9.81733333 98.0746667,9.324 C97.902,8.83066667 97.6306667,8.38666667 97.2606667,8.09066667 C96.866,7.79466667 96.348,7.64666667 95.7313333,7.64666667 Z M95.8793333,4.90866667 C96.8413333,4.90866667 97.68,5.08133333 98.3953333,5.402 C99.086,5.74733333 99.7026667,6.19133333 100.196,6.75866667 C100.664667,7.326 101.059333,7.96733333 101.281333,8.70733333 C101.528,9.44733333 101.651333,10.1873333 101.651333,11.0013333 C101.651333,12.2346667 101.404667,13.2953333 100.886667,14.2326667 C100.393333,15.17 99.7026667,15.8853333 98.8393333,16.4033333 C97.976,16.946 96.9646667,17.1926667 95.8053333,17.1926667 C94.794,17.1926667 93.9306667,17.02 93.1906667,16.65 C92.4506667,16.3046667 91.834,15.836 91.3653333,15.244 C90.8966667,14.652 90.5266667,14.0106667 90.3046667,13.2706667 C90.0826667,12.5306667 89.9346667,11.8153333 89.9346667,11.026 C89.9346667,9.89133333 90.1813333,8.90466667 90.6746667,7.96733333 C91.168,7.03 91.834,6.31466667 92.722,5.74733333 C93.6346667,5.18 94.6706667,4.90866667 95.8793333,4.90866667 Z" id="Shape"></path>
                <path d="M112.011333,14.1093333 L112.011333,16.576 C112.011333,16.65 111.986667,16.7486667 111.888,16.7733333 C111.493333,16.946 111.098667,17.02 110.63,17.094 C110.186,17.1433333 109.692667,17.168 109.224,17.168 C108.262,17.168 107.398667,17.02 106.634,16.724 C105.869333,16.4033333 105.203333,15.984 104.660667,15.4413333 C104.118,14.8986667 103.698667,14.2326667 103.402667,13.4926667 C103.131333,12.7526667 102.958667,11.9386667 102.958667,11.0753333 C102.958667,9.89133333 103.23,8.83066667 103.797333,7.89333333 C104.364667,6.956 105.104667,6.24066667 106.116,5.67333333 C107.127333,5.13066667 108.311333,4.85933333 109.643333,4.85933333 C110.235333,4.85933333 110.679333,4.884 111.024667,4.93333333 C111.37,4.98266667 111.641333,5.05666667 111.814,5.13066667 C111.888,5.15533333 111.962,5.254 111.962,5.37733333 L111.937333,7.81933333 C111.937333,7.96733333 111.888,8.01666667 111.74,7.992 C111.518,7.918 111.246667,7.81933333 110.901333,7.77 C110.556,7.72066667 110.161333,7.696 109.742,7.696 C109.076,7.696 108.484,7.81933333 107.966,8.066 C107.472667,8.288 107.028667,8.658 106.732667,9.12666667 C106.412,9.59533333 106.288667,10.1873333 106.288667,10.9273333 C106.288667,11.7413333 106.461333,12.3826667 106.831333,12.876 C107.176667,13.3446667 107.620667,13.69 108.188,13.912 C108.730667,14.1093333 109.273333,14.2326667 109.816,14.2326667 C110.235333,14.2326667 110.63,14.208 110.975333,14.1833333 C111.320667,14.1586667 111.592,14.1093333 111.789333,14.0353333 C111.937333,13.9613333 112.011333,13.986 112.011333,14.1093333 Z" id="Path"></path>
                <path d="M117.216,0.320666667 L117.216,16.6746667 C117.216,16.8473333 117.142,16.8966667 116.994,16.8966667 L114.132667,16.8966667 C113.96,16.8966667 113.910667,16.8226667 113.910667,16.6746667 L113.910667,0.296 C113.910667,0.246666667 113.935333,0.222 113.96,0.148 C113.984667,0.123333333 114.034,0.0986666667 114.157333,0.0986666667 L116.994,0.0986666667 C117.117333,0.0986666667 117.216,0.172666667 117.216,0.320666667 Z M121.483333,5.13066667 L124.542,5.13066667 C124.616,5.13066667 124.69,5.15533333 124.714667,5.20466667 C124.739333,5.254 124.714667,5.328 124.69,5.37733333 C124.517333,5.57466667 124.295333,5.82133333 124.024,6.142 C123.752667,6.48733333 123.407333,6.808 123.037333,7.22733333 C122.667333,7.622 122.297333,8.04133333 121.952,8.436 C121.582,8.83066667 121.261333,9.22533333 120.940667,9.57066667 C120.62,9.916 120.373333,10.1873333 120.200667,10.3846667 C120.176,10.4093333 120.176,10.4093333 120.176,10.434 C120.176,10.4586667 120.176,10.4586667 120.200667,10.4833333 C120.546,10.9026667 120.940667,11.3713333 121.36,11.9386667 C121.779333,12.4813333 122.223333,13.024 122.716667,13.5913333 C123.21,14.1586667 123.654,14.726 124.098,15.244 C124.542,15.7866667 124.936667,16.28 125.306667,16.6993333 C125.356,16.7486667 125.356,16.7733333 125.331333,16.8473333 C125.306667,16.8966667 125.257333,16.9213333 125.183333,16.9213333 L121.434,16.9213333 C121.36,16.9213333 121.286,16.9213333 121.261333,16.8966667 C121.236667,16.872 121.187333,16.8473333 121.113333,16.7486667 C120.916,16.4773333 120.62,16.1073333 120.225333,15.5893333 C119.830667,15.096 119.411333,14.5286667 118.942667,13.9366667 C118.498667,13.3446667 118.079333,12.7773333 117.684667,12.2593333 C117.29,11.7166667 116.994,11.322 116.747333,11.0506667 C116.698,10.9766667 116.624,10.878 116.624,10.8286667 C116.599333,10.7793333 116.648667,10.6806667 116.747333,10.6066667 C116.944667,10.36 117.216,10.0393333 117.536667,9.64466667 C117.882,9.25 118.202667,8.85533333 118.572667,8.41133333 C118.942667,7.96733333 119.312667,7.548 119.633333,7.12866667 C119.978667,6.70933333 120.274667,6.33933333 120.570667,5.994 C120.866667,5.64866667 121.014667,5.42666667 121.138,5.30333333 C121.187333,5.22933333 121.261333,5.15533333 121.286,5.15533333 C121.335333,5.15533333 121.384667,5.13066667 121.483333,5.13066667 Z" id="Shape"></path>
            </g>
        </g>
    </g>
</svg>