<svg xmlns="http://www.w3.org/2000/svg" xmlns:xlink="http://www.w3.org/1999/xlink" width="191" height="27" viewBox="0 0 191 27"><defs><path id="1s3ua" d="M344.413 4960.81a11.263 11.263 0 0 0-1.714 2.307l-.724-.378a.95.95 0 0 0-1.024-.74c-.512.055-.883.541-.812 1.064a.928.928 0 0 0 1.042.83.746.746 0 0 0 .282-.091l.707.378a11.534 11.534 0 0 0-.83 2.758l1.165.216c.353-2.072 1.325-3.965 2.773-5.497z"/><path id="1s3ub" d="M352.927 4957.17c-.265 0-.53.018-.795.018l-.106-.992c.283-.234.46-.612.407-1.027a1.107 1.107 0 0 0-1.237-.991c-.618.072-1.042.63-.971 1.261.053.397.3.74.636.884l.106.991c-1.113.18-2.173.523-3.197 1.027l.512 1.082a10.58 10.58 0 0 1 4.645-1.064c.777 0 1.537.09 2.296.253l.247-1.172a11.95 11.95 0 0 0-2.543-.27z"/><path id="1s3uc" d="M363.171 4961.193a.948.948 0 0 0 .813-1.064c-.071-.522-.53-.9-1.042-.829-.477.054-.83.487-.83.956l-.654.576a11.894 11.894 0 0 0-2.19-1.802l-.618 1.01a10.657 10.657 0 0 1 3.974 4.631l1.077-.486a11.79 11.79 0 0 0-1.466-2.451l.618-.56a.646.646 0 0 0 .318.019z"/><path id="1s3ud" d="M352.08 4973.322c-.6.036-1.201.054-1.802.054-1.36 0-2.684-.09-3.85-.288-.6-.09-1.307-.253-1.978-.47 1.625 2.939 4.768 4.94 8.354 4.94 4.433 0 8.16-3.029 9.236-7.138-1.06.703-2.33 1.298-3.814 1.784-1.802.613-3.939.992-6.146 1.118z"/><path id="1s3ue" d="M356.94 4968.438c-1.166 0-2.102-.974-2.102-2.145 0-1.19.954-2.145 2.102-2.145 1.166 0 2.102.973 2.102 2.145 0 1.19-.936 2.145-2.102 2.145zm-7.347 1.442c-1.59 0-2.861-1.316-2.861-2.92 0-1.622 1.29-2.92 2.861-2.92 1.59 0 2.861 1.316 2.861 2.92 0 1.604-1.29 2.92-2.861 2.92zm3.338-10.31c-5.192 0-9.431 4.218-9.431 9.408a9.5 9.5 0 0 0 .212 2.001c1.042.757 4.203 1.406 8.3 1.154 4.469-.27 8.213-1.514 10.35-3.425 0-.306-.035-.613-.07-.92-.583-4.685-4.61-8.218-9.361-8.218z"/><path id="1s3uf" d="M449.69 4966.587l-1.104 1.178c-.82-.816-1.8-1.287-2.975-1.287-2.19 0-3.848 1.74-3.848 4.13 0 2.41 1.657 4.13 3.848 4.13 1.194 0 2.245-.543 3.01-1.304l1.07 1.196c-.998 1.141-2.423 1.739-4.044 1.739-3.35 0-5.647-2.482-5.647-5.779 0-3.278 2.298-5.76 5.647-5.76 1.603.018 3.064.634 4.043 1.757z"/><path id="1s3ug" d="M452.102 4970.6c0 2.41 1.71 4.13 3.992 4.13 2.263 0 3.991-1.739 3.991-4.13 0-2.39-1.728-4.13-3.991-4.13-2.281.018-3.992 1.74-3.992 4.13zm9.727 0c0 3.297-2.458 5.779-5.753 5.779-3.296 0-5.736-2.482-5.736-5.779 0-3.278 2.458-5.76 5.736-5.76 3.277 0 5.753 2.482 5.753 5.76z"/><path id="1s3uh" d="M481.351 4969.286v6.884h-1.71v-6.304c0-2.101-1.157-3.351-3.152-3.351-1.835 0-3.35 1.286-3.35 3.405v6.25h-1.71v-6.304c0-2.101-1.157-3.351-3.152-3.351-1.835 0-3.35 1.286-3.35 3.405v6.25H463.2v-11.105h1.71v1.576c.89-1.322 2.334-1.811 3.67-1.811 1.906 0 3.384.888 4.097 2.337.872-1.721 2.582-2.337 4.114-2.337 2.708.018 4.56 1.775 4.56 4.456z"/><path id="1s3ui" d="M484.821 4970.599c0 2.353 1.605 4.128 3.888 4.128 2.337 0 3.906-1.847 3.906-4.128s-1.587-4.128-3.906-4.128c-2.283.018-3.888 1.793-3.888 4.128zm9.53.001c0 3.333-2.387 5.779-5.45 5.779-1.8 0-3.118-.743-3.973-1.866v6.322H483.2v-15.778h1.728v1.649c.855-1.123 2.173-1.866 3.972-1.866 3.064 0 5.451 2.445 5.451 5.76z"/><path id="1s3uj" d="M497.216 4970.6c0 2.3 1.585 4.13 3.9 4.13 2.263 0 3.884-1.775 3.884-4.13 0-2.336-1.603-4.112-3.883-4.112-2.334 0-3.901 1.83-3.901 4.112zm9.405 5.561h-1.71v-1.648c-.873 1.141-2.191 1.866-3.99 1.866-3.064 0-5.451-2.446-5.451-5.779 0-3.333 2.387-5.76 5.45-5.76 1.8 0 3.118.743 3.99 1.866v-1.649h1.71z"/><path id="1s3uk" d="M518.54 4969.286v6.884h-1.71v-6.304c0-2.101-1.158-3.351-3.153-3.351-1.835 0-3.35 1.286-3.35 3.405v6.25H508.6v-11.105h1.71v1.576c.89-1.322 2.334-1.811 3.67-1.811 2.707.018 4.56 1.775 4.56 4.456z"/><path id="1s3ul" d="M521.5 4980.892h-1.906l4.061-7.137-5.005-8.695h1.924l4.061 6.956 3.848-6.956h1.888z"/><path id="1s3um" d="M378.274 4962.347c-.462-.18-1.262-.485-2.15-.378-.853.108-1.315.54-1.315 1.582v1.366h3.483v2.713h-3.483v8.608h-3.022v-8.608h-2.097v-2.713h2.097v-1.402c0-2.66 1.404-4.385 4.017-4.385.995 0 1.813.198 2.488.485z"/><path id="1s3un" d="M385.623 4967.593a4.314 4.314 0 0 0-.818-.072c-1.404 0-2.364.863-2.364 2.552v6.164h-3.021v-11.321h2.915v1.24c.71-1.06 1.777-1.546 3.146-1.546.64 0 1.315.198 1.706.54z"/><path id="1s3uo" d="M389.598 4969.522h4.959c-.285-1.457-1.138-2.266-2.435-2.266-1.422 0-2.257.863-2.524 2.266zm7.98 1.039c0 .341-.018.772-.053 1.024h-7.945c.32 1.635 1.458 2.354 2.88 2.354.977 0 2.026-.395 2.825-1.078l1.76 1.959c-1.28 1.186-2.897 1.725-4.763 1.725-3.43 0-5.812-2.354-5.812-5.93 0-3.559 2.31-5.985 5.67-5.985 3.217-.018 5.438 2.408 5.438 5.93z"/><path id="1s3up" d="M401.538 4969.522h4.959c-.285-1.457-1.138-2.266-2.435-2.266-1.422 0-2.257.863-2.524 2.266zm7.98 1.039c0 .341-.018.772-.053 1.024h-7.945c.32 1.635 1.458 2.354 2.88 2.354.977 0 2.026-.395 2.825-1.078l1.76 1.959c-1.28 1.186-2.897 1.725-4.763 1.725-3.43 0-5.812-2.354-5.812-5.93 0-3.559 2.31-5.985 5.67-5.985 3.234-.018 5.438 2.408 5.438 5.93z"/><path id="1s3uq" d="M413.701 4970.586c0 1.782 1.173 3.132 2.88 3.132 1.777 0 2.897-1.386 2.897-3.132 0-1.746-1.102-3.132-2.897-3.132-1.724 0-2.88 1.35-2.88 3.132zm8.851-.005c0 3.396-2.328 5.966-5.42 5.966-1.511 0-2.56-.593-3.288-1.473v5.858h-3.004v-15.994h2.95v1.258c.729-.917 1.795-1.546 3.342-1.546 3.092-.036 5.42 2.534 5.42 5.93z"/><path id="1s3ur" d="M426.999 4976.243h-3.024v-11.322H427zm.408-15.024c0 1.096-.836 1.94-1.938 1.94-1.084 0-1.919-.844-1.919-1.94s.835-1.959 1.92-1.959c1.084 0 1.937.863 1.937 1.959z"/><path id="1s3us" d="M432.02 4968.963l4.23-4.044h3.696l-5.439 5.32 5.457 5.984h-3.715l-4.248-4.583v4.583h-3.021v-16.803h3.021v9.543z"/></defs><g><g transform="translate(-340 -4954)"><g><g><g><use fill="#bac8d3" xlink:href="#1s3ua"/></g><g><use fill="#bac8d3" xlink:href="#1s3ub"/></g><g><use fill="#bac8d3" xlink:href="#1s3uc"/></g><g><use fill="#bac8d3" xlink:href="#1s3ud"/></g><g><use fill="#bac8d3" xlink:href="#1s3ue"/></g></g></g><g><g><use fill="#bac8d3" xlink:href="#1s3uf"/></g><g><use fill="#bac8d3" xlink:href="#1s3ug"/></g><g><use fill="#bac8d3" xlink:href="#1s3uh"/></g><g><use fill="#bac8d3" xlink:href="#1s3ui"/></g><g><use fill="#bac8d3" xlink:href="#1s3uj"/></g><g><use fill="#bac8d3" xlink:href="#1s3uk"/></g><g><use fill="#bac8d3" xlink:href="#1s3ul"/></g></g><g><g><g><use fill="#bac8d3" xlink:href="#1s3um"/></g><g><use fill="#bac8d3" xlink:href="#1s3un"/></g><g><use fill="#bac8d3" xlink:href="#1s3uo"/></g><g><use fill="#bac8d3" xlink:href="#1s3up"/></g><g><use fill="#bac8d3" xlink:href="#1s3uq"/></g><g><use fill="#bac8d3" xlink:href="#1s3ur"/></g><g><use fill="#bac8d3" xlink:href="#1s3us"/></g></g></g></g></g></svg>