<svg xmlns="http://www.w3.org/2000/svg" xmlns:xlink="http://www.w3.org/1999/xlink" width="602" height="480" viewBox="0 0 602 480">
    <defs>
        <path id="a" d="M205.275 57.606h-11.126V.216H64.764v57.39H53.64a60.865 60.865 0 0 0-50.801 27.34L.092 89.11h258.726l-2.746-4.163a60.864 60.864 0 0 0-50.797-27.34"/>
        <path id="c" d="M.14.14h453.572v334.656H.14z"/>
        <path id="e" d="M453.537 58.374v-23.87c0-19.056-15.63-34.504-34.91-34.504H34.91C15.63 0 0 15.448 0 34.504v265.651c0 19.057 15.63 34.501 34.91 34.501h383.752c19.28 0 34.91-15.444 34.91-34.5V58.373h-.035z"/>
        <path id="g" d="M4 238.437h388.386a4 4 0 0 0 4-4V4a4 4 0 0 0-4-4H4a4 4 0 0 0-4 4v230.437a4 4 0 0 0 4 4z"/>
        <path id="j" d="M0 0h243v11.25H0z"/>
        <filter id="i" width="101.6%" height="135.6%" x="-.8%" y="-8.9%" filterUnits="objectBoundingBox">
            <feOffset dy="1" in="SourceAlpha" result="shadowOffsetOuter1"/>
            <feGaussianBlur in="shadowOffsetOuter1" result="shadowBlurOuter1" stdDeviation=".5"/>
            <feColorMatrix in="shadowBlurOuter1" values="0 0 0 0 0 0 0 0 0 0 0 0 0 0 0 0 0 0 0.135558197 0"/>
        </filter>
        <path id="k" d="M0 0h249v184.8H0z"/>
        <path id="n" d="M0 2.4h78.6v191.4H0z"/>
        <filter id="m" width="105.1%" height="102.1%" x="-1.3%" y="-1%" filterUnits="objectBoundingBox">
            <feOffset dx="1" in="SourceAlpha" result="shadowOffsetOuter1"/>
            <feGaussianBlur in="shadowOffsetOuter1" result="shadowBlurOuter1" stdDeviation=".5"/>
            <feColorMatrix in="shadowBlurOuter1" values="0 0 0 0 0 0 0 0 0 0 0 0 0 0 0 0 0 0 0.0309103261 0"/>
        </filter>
        <path id="p" d="M0 0h324v12.6H0z"/>
        <filter id="o" width="101.2%" height="131.7%" x="-.6%" y="-7.9%" filterUnits="objectBoundingBox">
            <feOffset dy="1" in="SourceAlpha" result="shadowOffsetOuter1"/>
            <feGaussianBlur in="shadowOffsetOuter1" result="shadowBlurOuter1" stdDeviation=".5"/>
            <feColorMatrix in="shadowBlurOuter1" values="0 0 0 0 0 0 0 0 0 0 0 0 0 0 0 0 0 0 0.135558197 0"/>
        </filter>
        <filter id="q" width="110.5%" height="107.3%" x="-2.6%" y="-2.8%" filterUnits="objectBoundingBox">
            <feOffset dx="11" dy="3" in="SourceAlpha" result="shadowOffsetOuter1"/>
            <feColorMatrix in="shadowOffsetOuter1" result="shadowMatrixOuter1" values="0 0 0 0 0 0 0 0 0 0 0 0 0 0 0 0 0 0 0.0884850543 0"/>
            <feMerge>
                <feMergeNode in="shadowMatrixOuter1"/>
                <feMergeNode in="SourceGraphic"/>
            </feMerge>
        </filter>
        <path id="r" d="M121.385 21.268l21.111 1.852c1.382-.123 26.96-2.233 26.96-2.233 3.312-.295 6.269 2.168 6.571 5.473l.81 8.853c.3 3.305-2.162 6.25-5.473 6.545 0 0-25.629 2.245-26.95 2.362l-31.57 8.63s-.064.006-.182.008L34.738 99.15a7.765 7.765 0 0 1-10.646-2.55l-5.842-9.452a7.783 7.783 0 0 1 1.51-9.958L55.7 48.669l-41.915 7.435a7.767 7.767 0 0 1-8.951-4.597L.592 41.236A7.782 7.782 0 0 1 4.75 31.098L101.944.627s22.4 7 22.314 7.722c-.03.257-1.279 5.841-2.873 12.92z"/>
        <path id="t" d="M52.612 29.667c-1.68 14.386-14.72 24.688-29.124 23.009C9.084 50.998-1.23 37.974.451 23.59 2.13 9.203 15.17-1.098 29.574.58c14.404 1.679 24.718 14.702 23.038 29.087"/>
        <path id="v" d="M3.538.525c4.602 5.36 7.036 12.55 6.153 20.116-.834 7.14-4.467 13.276-9.676 17.438V.525h3.523z"/>
        <path id="x" d="M18.788 21.247c-1.266 10.832-6.43 19.13-11.538 18.535-5.106-.595-8.22-9.858-6.953-20.69C1.562 8.26 6.727-.04 11.833.555c5.106.595 8.22 9.858 6.955 20.692"/>
        <path id="z" d="M3.213 37.244c-3.535-3.333-3.671-8.932-.272-12.399l21.76-22.13c3.399-3.467 9.11-3.6 12.646-.267l18.631 17.598c3.536 3.333 3.672 8.932.272 12.399l-21.758 22.13c-3.536 3.467-9.112 3.6-12.648.267L3.214 37.244z"/>
        <ellipse id="B" cx="12.708" cy="13.263" rx="9.791" ry="7.599"/>
    </defs>
    <g fill="none" fill-rule="evenodd">
        <g fill-rule="nonzero" transform="rotate(45 295.308 625.825)">
            <ellipse cx="69.968" cy="4.969" fill="#F16B39" rx="4.973" ry="4.969"/>
            <ellipse cx="69.968" cy="4.905" fill="#E66037" rx="4.973" ry="1.992"/>
            <path fill="#516070" d="M67.91 20.049h4.116v39.756H67.91z"/>
            <path fill="#5C6E80" d="M67.91 20.049h4.116v3.783H67.91z" opacity=".5" style="mix-blend-mode:multiply"/>
            <path fill="#516070" d="M34.641 44.04h70.653v3.77H34.641z"/>
            <path fill="#5C6E80" d="M83 47.81H55.563l1.373-3.77h27.438zM49.275 47.81h-1.487v-3.77h2.858zM89.29 47.81h2.857v-3.77h-1.486z" opacity=".5" style="mix-blend-mode:multiply"/>
            <path fill="#E66037" d="M66.197 63.199h7.54v7.953a3.769 3.769 0 0 1-3.77 3.767 3.769 3.769 0 0 1-3.77-3.767v-7.953z"/>
            <path fill="#F16B39" d="M71.742 73.529a3.109 3.109 0 0 1-1.848.552c-1.716-.037-3.058-1.501-3.058-3.215v-1.667c0-.54.439-.977.979-.977h1.536c.252 0 .456.204.456.455 0 1.459.585 2.856 1.625 3.88l.357.353a.403.403 0 0 1-.047.619z"/>
            <path fill="#FFF" d="M69.749 73.233a2.575 2.575 0 0 1-1.255-.476 2.33 2.33 0 0 1-.763-1.055.315.315 0 0 1 .566-.272v.004c.15.267.374.486.645.629.265.122.558.172.85.145a.515.515 0 1 1 .065 1.026.494.494 0 0 1-.088 0l-.02-.001z" opacity=".3" style="mix-blend-mode:screen"/>
            <path fill="#66798F" d="M62.422 27.59h15.092c.757 0 1.371.613 1.371 1.37v34.273a4.114 4.114 0 0 1-4.115 4.112h-9.604a4.117 4.117 0 0 1-4.116-4.112V28.96a1.37 1.37 0 0 1 1.372-1.37z"/>
            <path fill="#5C6E80" d="M61.05 59.89h17.835v2.534a2.776 2.776 0 0 1-2.78 2.78H63.829a2.779 2.779 0 0 1-2.78-2.778V59.89h.002z" opacity=".4" style="mix-blend-mode:multiply"/>
            <path fill="#66798F" d="M58.992 29.988h21.95a1.372 1.372 0 0 1 1.372 1.37v24.678a6.171 6.171 0 0 1-6.173 6.169H63.794a6.171 6.171 0 0 1-6.17-6.17V31.36c0-.756.612-1.37 1.368-1.372z"/>
            <path fill="#7992A8" d="M59.907 29.988h20.121a1.372 1.372 0 0 1 1.372 1.37v23.65a6.171 6.171 0 0 1-6.174 6.17H64.71a6.171 6.171 0 0 1-6.174-6.17V31.36a1.37 1.37 0 0 1 1.372-1.372z"/>
            <path fill="#7992A8" d="M69.967 59.006c-3.56 0-6.593-2.446-7.165-5.775l-1.951-11.37c-.914-5.325 3.424-10.157 9.117-10.157 5.693 0 10.033 4.834 9.116 10.157l-1.951 11.37c-.572 3.33-3.606 5.775-7.166 5.775z" opacity=".1" style="mix-blend-mode:screen"/>
            <path fill="#1D2429" d="M76.137 38.894v14.06a.686.686 0 0 1-.686.685H63.8V38.21H75.45c.379 0 .686.306.686.685z"/>
            <path fill="#90A8BD" d="M63.74 53.636V38.214l9.403-3.737a.686.686 0 0 1 .94.636V49.06c0 .28-.17.533-.43.637l-9.912 3.94z"/>
            <path fill="#5F5278" d="M86.184 3.856c1.295 0 2.316 1.132 2.148 2.415-1.184 9.08-8.954 16.093-18.364 16.093s-17.18-7.012-18.365-16.093c-.167-1.283.854-2.415 2.148-2.415h32.433z"/>
            <path fill="#5F5278" d="M69.967 18.25c-8.143 0-15.14-4.555-18.218-11.073 1.567 8.635 9.125 15.186 18.218 15.186s16.65-6.551 18.218-15.186C85.108 13.695 78.11 18.25 69.967 18.25z" opacity=".3" style="mix-blend-mode:multiply"/>
            <ellipse cx="68.009" cy="1.399" fill="#FFF" opacity=".3" rx="1.116" ry="1" style="mix-blend-mode:screen" transform="rotate(-26.57 68.01 1.399)"/>
            <ellipse cx="70.849" cy="42.489" fill="#66798F" rx="1" ry="1" transform="rotate(-47.82 70.85 42.489)"/>
            <path fill="#5F5278" d="M6.98 34.1h34.744c2.426 0 3.306.253 4.194.727a4.945 4.945 0 0 1 2.058 2.057c.474.887.727 1.766.727 4.191v9.7c0 2.424-.253 3.304-.727 4.19a4.945 4.945 0 0 1-2.058 2.057c-.888.474-1.768.727-4.194.727H6.979c-2.426 0-3.307-.253-4.194-.727a4.945 4.945 0 0 1-2.058-2.057C.253 54.08 0 53.2 0 50.775v-9.7c0-2.425.253-3.304.727-4.191a4.945 4.945 0 0 1 2.058-2.057c.887-.474 1.768-.726 4.194-.726z"/>
            <path fill="#5F5278" d="M48.703 41.298V40.27h-7.031V34.1h-1.03v6.17h-7.375V34.1H32.24v6.17h-7.374V34.1h-1.029v6.17h-7.374V34.1h-1.029v6.17H8.06V34.1H7.031v6.17H0v1.027h7.031v8.227H0v1.028h7.031v7.197h1.03v-7.197h7.373v7.197h1.029v-7.197h7.374v7.197h1.029v-7.197h7.374v7.197h1.027v-7.197h7.376v7.197h1.029v-7.197h7.031v-1.028h-7.031v-8.226h7.031zm-33.267 8.226H8.06v-8.226h7.374l.002 8.226zm8.402 0h-7.375v-8.226h7.374l.001 8.226zm8.404 0h-7.376v-8.226h7.374l.002 8.226zm8.402 0h-7.377v-8.226h7.376l.001 8.226z" opacity=".3" style="mix-blend-mode:multiply"/>
            <path fill="#5F5278" d="M14.405 57.75H5.488A5.486 5.486 0 0 1 0 52.265v-8.568l14.405 14.051zM40.643 57.75h-7.241L11.833 34.1h7.24zM39.274 34.1h3.944a5.486 5.486 0 0 1 5.488 5.484v3.1L39.274 34.1z" opacity=".2" style="mix-blend-mode:screen"/>
            <path fill="#5F5278" d="M96.677 34.1h37.814a5.442 5.442 0 0 1 5.444 5.441v12.767a5.442 5.442 0 0 1-5.444 5.44H96.677a5.442 5.442 0 0 1-5.445-5.44V39.541a5.442 5.442 0 0 1 5.445-5.44z"/>
            <path fill="#5F5278" d="M139.934 41.298V40.27h-7.03V34.1h-1.029v6.17h-7.373V34.1h-1.03v6.17h-7.374V34.1h-1.029v6.17h-7.373V34.1h-1.03v6.17h-7.374V34.1h-1.029v6.17h-7.03v1.027h7.03v8.227h-7.03v1.028h7.03v7.197h1.03v-7.197h7.374v7.197h1.029v-7.197h7.373v7.197h1.03v-7.197h7.374v7.197h1.029v-7.197h7.373v7.197h1.03v-7.197h7.029v-1.028h-7.03v-8.226h7.03zm-33.267 8.226h-7.375v-8.226h7.375v8.226zm8.402 0h-7.373v-8.226h7.373v8.226zm8.404 0h-7.375v-8.226h7.375v8.226zm8.402 0h-7.373v-8.226h7.373v8.226z" opacity=".3" style="mix-blend-mode:multiply"/>
            <path fill="#5F5278" d="M125.53 57.75h8.918a5.486 5.486 0 0 0 5.486-5.484v-8.568l-14.403 14.051zM99.292 57.75h7.241l21.57-23.65h-7.242zM100.664 34.1H96.72a5.486 5.486 0 0 0-5.488 5.484v3.1l9.432-8.584z" opacity=".2" style="mix-blend-mode:screen"/>
            <rect width="14.863" height="1.714" x="62.537" y="3.856" fill="#F16B39" opacity=".05" rx=".857" style="mix-blend-mode:screen"/>
        </g>
        <path fill="#DBE9F2" d="M283.251 361.803c155.81-27.473 290.11-22.765 295.141-152.765 2.884-74.506-111.03-133.035-193.599-121.36-47.974 6.782-71.896 42.988-151.585 40.51C93.868 123.855-11.857 238.347 1.775 315.66c13.633 77.314 125.668 73.616 281.476 46.143z"/>
        <g transform="translate(67 67)">
            <g transform="translate(101.112 323.25)">
                <mask id="b" fill="#fff">
                    <use xlink:href="#a"/>
                </mask>
                <use fill="#6D7F91" xlink:href="#a"/>
                <path fill="#6D7F91" d="M55.561 8.011h156.172v13.516H55.561z" mask="url(#b)" opacity=".5" style="mix-blend-mode:multiply"/>
            </g>
            <g transform="translate(0 .362)">
                <mask id="d" fill="#fff">
                    <use xlink:href="#c"/>
                </mask>
                <path fill="#A9BBBF" d="M419.137 265.09H34.713V39.18h384.386v52.008h.038V265.09zm34.54-206.576v-23.87c0-19.056-15.63-34.504-34.91-34.504H35.051C15.77.14.14 15.588.14 34.644v265.651c0 19.057 15.629 34.501 34.91 34.501H418.8c19.28 0 34.911-15.444 34.911-34.5V58.513h-.034z" mask="url(#d)"/>
                <g mask="url(#d)">
                    <g transform="translate(.502 .502)">
                        <mask id="f" fill="#fff">
                            <use xlink:href="#e"/>
                        </mask>
                        <use fill="#6D7F91" opacity=".5" xlink:href="#e"/>
                        <path fill="#6D7F91" fill-opacity=".5" d="M-10.512 319.859h477.525v43.552H-10.512z" mask="url(#f)" style="mix-blend-mode:multiply"/>
                    </g>
                </g>
            </g>
            <g transform="translate(29.535 35.043)">
                <mask id="h" fill="#fff">
                    <use xlink:href="#g"/>
                </mask>
                <use fill="#1C272B" xlink:href="#g"/>
                <g mask="url(#h)">
                    <path fill="#FFF" d="M130.142 25.53h243v153h-243z"/>
                    <g transform="translate(130.142 25.53)">
                        <use fill="#000" filter="url(#i)" xlink:href="#j"/>
                        <use fill="#333" xlink:href="#j"/>
                        <circle cx="235.8" cy="5.85" r="2.7" fill="#F4815B"/>
                        <circle cx="229.5" cy="5.85" r="2.7" fill="#545454"/>
                        <path fill="#FFF" fill-opacity=".1" d="M21.6 9V2.25h-7.422a.678.678 0 0 0-.678.678v5.394c0 .375.303.678.678.678H21.6zM60.75 9V2.25h7.422c.375 0 .678.303.678.678v5.394a.678.678 0 0 1-.678.678H60.75zM60.3 2.25H22.05V9H60.3zM216.9 9V2.25h-50.622a.678.678 0 0 0-.678.678v5.394c0 .375.303.678.678.678H216.9z"/>
                        <path fill="#999" d="M169.203 6.237c0 .17-.062.302-.185.397-.123.095-.29.142-.5.142-.23 0-.405-.03-.528-.088v-.216a1.388 1.388 0 0 0 .535.108c.15 0 .262-.028.338-.085a.28.28 0 0 0 .113-.237.304.304 0 0 0-.04-.164.374.374 0 0 0-.135-.118 1.881 1.881 0 0 0-.287-.122c-.179-.065-.307-.14-.384-.229a.504.504 0 0 1-.115-.344c0-.148.056-.266.167-.354a.696.696 0 0 1 .443-.132c.192 0 .368.035.529.105l-.07.195c-.16-.066-.314-.1-.464-.1a.45.45 0 0 0-.278.077.252.252 0 0 0-.1.212c0 .067.012.121.036.164a.348.348 0 0 0 .125.117c.058.036.148.075.268.118.202.073.342.15.418.232.076.083.114.19.114.322zm.971.54c-.213 0-.382-.066-.505-.196-.124-.13-.186-.31-.186-.542 0-.233.058-.418.172-.555a.571.571 0 0 1 .463-.205c.18 0 .324.06.43.178.105.12.158.277.158.472v.138h-.996c.005.17.047.298.129.386a.445.445 0 0 0 .343.132c.156 0 .31-.032.462-.097v.195c-.078.033-.15.057-.22.072a1.234 1.234 0 0 1-.25.021zm-.06-1.315a.357.357 0 0 0-.277.113.523.523 0 0 0-.122.314h.756a.481.481 0 0 0-.092-.317.325.325 0 0 0-.264-.11zm1.853 1.288l-.043-.206h-.01a.608.608 0 0 1-.216.184.657.657 0 0 1-.269.048.483.483 0 0 1-.336-.11c-.082-.074-.122-.18-.122-.315 0-.292.233-.445.7-.46l.245-.007v-.09c0-.113-.025-.197-.073-.251-.05-.054-.127-.081-.234-.081a.953.953 0 0 0-.409.11l-.067-.167a1.028 1.028 0 0 1 .489-.124c.172 0 .3.039.383.115.083.077.124.2.124.368v.986h-.162zm-.494-.154a.444.444 0 0 0 .32-.112.415.415 0 0 0 .118-.314v-.13l-.22.009c-.173.006-.299.033-.376.08-.077.049-.115.123-.115.224 0 .08.024.14.072.18a.298.298 0 0 0 .2.063zm1.766-1.317c.065 0 .122.005.173.016l-.03.203a.745.745 0 0 0-.158-.02.385.385 0 0 0-.3.142.52.52 0 0 0-.125.355v.775h-.219V5.305h.18l.026.268h.01a.635.635 0 0 1 .194-.218.436.436 0 0 1 .25-.076zm.967 1.497c-.21 0-.371-.064-.486-.193-.115-.129-.172-.31-.172-.546 0-.242.058-.429.175-.56.116-.132.282-.198.497-.198a.988.988 0 0 1 .372.075l-.067.186a1.029 1.029 0 0 0-.31-.067c-.294 0-.44.187-.44.561 0 .178.036.314.107.409.072.095.178.142.319.142.12 0 .243-.026.37-.078v.194a.79.79 0 0 1-.365.075zm1.697-.026v-.935c0-.117-.027-.205-.08-.263-.054-.058-.138-.087-.253-.087-.152 0-.263.04-.333.124-.07.082-.104.217-.104.406v.755h-.22V4.699h.22v.62c0 .075-.004.137-.01.186h.012a.446.446 0 0 1 .184-.164c.08-.04.17-.06.272-.06.177 0 .31.042.398.126.088.084.132.218.132.4v.943h-.218zm2.624-1.366a.54.54 0 0 1-.2.45c-.132.105-.323.158-.57.158h-.228v.758h-.224V4.823h.5c.482 0 .722.187.722.561zm-.998.415h.202c.199 0 .342-.032.431-.096.089-.064.133-.167.133-.308 0-.128-.041-.223-.125-.285-.083-.062-.213-.094-.39-.094h-.25V5.8zm2.616.227c0 .236-.06.42-.178.552-.119.132-.283.198-.492.198a.651.651 0 0 1-.344-.09.6.6 0 0 1-.232-.262.91.91 0 0 1-.082-.398c0-.235.06-.419.177-.55.118-.132.281-.197.49-.197.203 0 .363.067.482.201.12.135.179.317.179.546zm-1.1 0c0 .185.036.325.11.422.074.097.182.145.326.145.143 0 .252-.048.326-.144.074-.096.111-.237.111-.423 0-.183-.037-.323-.111-.418-.074-.096-.184-.143-.33-.143-.142 0-.25.047-.323.14-.073.095-.11.235-.11.421zm2.416.33c0 .134-.05.238-.15.31-.1.074-.241.11-.422.11-.192 0-.341-.03-.449-.09v-.204a1.084 1.084 0 0 0 .454.114.522.522 0 0 0 .264-.055.18.18 0 0 0 .092-.167.181.181 0 0 0-.073-.144 1.15 1.15 0 0 0-.286-.142 1.548 1.548 0 0 1-.287-.131.392.392 0 0 1-.126-.127.332.332 0 0 1-.042-.17c0-.118.048-.211.144-.28a.67.67 0 0 1 .394-.101c.156 0 .308.031.456.095l-.077.178a1.047 1.047 0 0 0-.395-.09.454.454 0 0 0-.234.049.15.15 0 0 0-.08.134c0 .039.01.072.03.1.02.026.052.052.096.077.044.024.128.06.253.107.171.062.287.125.347.188s.09.143.09.239zm.822.24a.715.715 0 0 0 .198-.027v.168a.4.4 0 0 1-.105.028.787.787 0 0 1-.124.011c-.28 0-.42-.147-.42-.441v-.86h-.206V5.37l.207-.091.092-.309h.126v.335h.42v.17h-.42v.85c0 .088.021.154.062.2.042.047.098.07.17.07zm2.329.154v-.94c0-.115-.025-.201-.074-.259-.05-.058-.126-.086-.23-.086-.136 0-.236.039-.302.117-.065.078-.097.199-.097.361v.807h-.219v-.94c0-.115-.025-.201-.074-.259-.049-.058-.126-.086-.23-.086-.138 0-.238.04-.302.123-.063.082-.095.217-.095.404v.758h-.22V5.305h.179l.035.198h.011a.43.43 0 0 1 .175-.165c.075-.04.159-.06.252-.06.226 0 .374.082.443.246h.01a.46.46 0 0 1 .188-.18.58.58 0 0 1 .28-.065c.163 0 .285.042.367.126.08.084.121.218.121.402v.943h-.218zm1.558 0l-.044-.206h-.01a.608.608 0 0 1-.216.184.657.657 0 0 1-.268.048.483.483 0 0 1-.337-.11c-.081-.074-.122-.18-.122-.315 0-.292.234-.445.7-.46l.246-.007v-.09c0-.113-.025-.197-.074-.251-.048-.054-.126-.081-.234-.081a.953.953 0 0 0-.408.11l-.068-.167a1.028 1.028 0 0 1 .49-.124c.172 0 .3.039.382.115.084.077.125.2.125.368v.986h-.162zm-.494-.154a.444.444 0 0 0 .32-.112.415.415 0 0 0 .117-.314v-.13l-.219.009c-.174.006-.3.033-.376.08-.077.049-.115.123-.115.224 0 .08.024.14.071.18a.298.298 0 0 0 .202.063zm2.096.154v-.935c0-.117-.027-.205-.08-.263-.054-.058-.138-.087-.252-.087-.152 0-.262.04-.333.122-.07.082-.105.217-.105.405v.758h-.219V5.305h.178l.036.198h.01a.447.447 0 0 1 .189-.166c.08-.039.17-.058.27-.058.174 0 .305.042.393.126.088.084.132.218.132.402v.943h-.22zm.636-.14c0-.059.014-.103.04-.134.028-.03.066-.045.116-.045.051 0 .09.015.12.045.028.03.042.075.042.134 0 .057-.014.101-.043.132a.155.155 0 0 1-.119.046.156.156 0 0 1-.111-.041c-.03-.028-.045-.073-.045-.137zm.719 0c0-.059.013-.103.04-.134.027-.03.065-.045.116-.045.05 0 .09.015.119.045.028.03.043.075.043.134 0 .057-.015.101-.044.132a.155.155 0 0 1-.118.046.156.156 0 0 1-.112-.041c-.03-.028-.044-.073-.044-.137zm.719 0c0-.059.013-.103.04-.134.027-.03.065-.045.115-.045.051 0 .09.015.12.045.028.03.042.075.042.134 0 .057-.014.101-.043.132a.155.155 0 0 1-.119.046.156.156 0 0 1-.111-.041c-.03-.028-.044-.073-.044-.137z"/>
                        <path fill="#FFF" fill-opacity=".1" d="M224.548 8.322V2.928a.678.678 0 0 0-.678-.678h-6.07V9h6.07a.678.678 0 0 0 .678-.678z"/>
                        <path fill="#FFF" fill-rule="nonzero" d="M220.64 6.2a1.11 1.11 0 1 0 0-2.22 1.11 1.11 0 0 0 0 2.22zm0 .38a1.49 1.49 0 1 1 0-2.98 1.49 1.49 0 0 1 0 2.98zm1.95.65a.135.135 0 1 0 .19-.19l-.935-.936-.19.19.935.936zm-.745-1.664l1.204 1.205a.515.515 0 0 1-.728.728l-1.205-1.204.729-.729z" opacity=".2"/>
                        <g fill="#FFF">
                            <g transform="translate(15.3 3.6)">
                                <rect width="1.8" height="1.8" x=".335" y=".211" rx=".407"/>
                                <rect width="1.8" height="1.8" x=".335" y="2.47" rx=".407"/>
                                <rect width="1.8" height="1.8" x="2.595" y="2.47" rx=".407"/>
                                <rect width="1.8" height="1.8" x="2.595" y=".211" rx=".407"/>
                            </g>
                            <path d="M24.262 6.75h-.225V5.014h-.613v-.2h1.45v.2h-.612V6.75zm1.295.026c-.215 0-.384-.065-.508-.195-.124-.131-.186-.312-.186-.545 0-.234.058-.42.173-.557a.574.574 0 0 1 .464-.207c.182 0 .326.06.431.18.106.12.16.277.16.473v.14h-1c.004.17.047.299.129.387a.446.446 0 0 0 .345.133c.156 0 .31-.033.463-.098v.195a1.163 1.163 0 0 1-.22.073c-.07.014-.153.021-.251.021zm-.06-1.32a.359.359 0 0 0-.279.114.525.525 0 0 0-.122.315h.759a.483.483 0 0 0-.093-.318.326.326 0 0 0-.265-.11zm1.86 1.294l-.043-.207h-.01a.61.61 0 0 1-.217.185.66.66 0 0 1-.27.048.485.485 0 0 1-.338-.11c-.082-.075-.123-.18-.123-.317 0-.293.235-.447.703-.46l.247-.009v-.09c0-.114-.025-.198-.074-.252-.049-.054-.127-.082-.235-.082a.958.958 0 0 0-.41.112l-.068-.168a1.033 1.033 0 0 1 .491-.125c.173 0 .302.038.385.115.083.077.125.2.125.37v.99h-.163zm-.496-.155a.446.446 0 0 0 .322-.112.416.416 0 0 0 .117-.316v-.13l-.22.009c-.174.006-.3.033-.377.081-.078.048-.116.123-.116.224 0 .08.024.14.072.182a.3.3 0 0 0 .202.062zm2.962.155v-.944c0-.116-.025-.202-.075-.26-.049-.058-.126-.087-.23-.087-.137 0-.238.04-.303.118-.065.079-.098.2-.098.363v.81h-.22v-.944c0-.116-.025-.202-.074-.26-.05-.058-.127-.087-.232-.087-.137 0-.238.041-.302.124-.064.082-.096.218-.096.406v.761h-.22V5.299h.179l.035.199h.011c.042-.071.1-.126.175-.166.076-.04.16-.06.254-.06.227 0 .375.083.445.247h.01a.463.463 0 0 1 .188-.18.583.583 0 0 1 .281-.067c.164 0 .287.043.369.127.082.084.122.219.122.404v.947h-.22zm3.099 0H32.7l-.391-1.296a4.184 4.184 0 0 1-.098-.375c-.02.117-.05.244-.093.383L31.74 6.75h-.223l-.515-1.936h.239l.305 1.196c.043.168.074.32.093.455.024-.161.06-.32.106-.474l.347-1.177h.238l.364 1.188c.043.137.078.291.108.463a3.97 3.97 0 0 1 .095-.458l.304-1.193h.239l-.518 1.936zm1.986-.727c0 .237-.06.421-.179.554-.119.133-.284.2-.494.2a.654.654 0 0 1-.345-.092.603.603 0 0 1-.233-.262.914.914 0 0 1-.082-.4c0-.236.059-.42.177-.553.118-.132.283-.198.493-.198.203 0 .364.068.484.203s.179.318.179.548zm-1.106 0c0 .185.037.327.112.424.074.097.183.145.327.145.144 0 .253-.048.327-.145.075-.096.112-.238.112-.424 0-.184-.037-.324-.112-.42-.074-.096-.184-.144-.33-.144-.144 0-.252.047-.326.142-.073.094-.11.235-.11.422zm2.153-.75a.86.86 0 0 1 .174.015l-.03.204a.749.749 0 0 0-.16-.02.387.387 0 0 0-.3.143.521.521 0 0 0-.126.357v.778h-.22V5.299h.182l.025.269h.01a.638.638 0 0 1 .195-.219.438.438 0 0 1 .25-.077zm.662.734c.038-.054.096-.124.174-.212l.468-.496h.261l-.588.618.63.833h-.267l-.512-.686-.166.143v.543H36.4V4.69h.217v1.092c0 .049-.003.124-.01.225h.01zm2.142.347c0 .135-.05.24-.15.313-.101.073-.242.11-.424.11-.193 0-.343-.031-.45-.092v-.204a1.089 1.089 0 0 0 .455.114.524.524 0 0 0 .265-.055.182.182 0 0 0 .093-.167.182.182 0 0 0-.074-.145 1.156 1.156 0 0 0-.287-.143 1.554 1.554 0 0 1-.288-.131.393.393 0 0 1-.127-.128.333.333 0 0 1-.041-.17c0-.12.048-.213.144-.28a.672.672 0 0 1 .396-.104c.156 0 .309.032.458.096l-.078.179a1.052 1.052 0 0 0-.396-.09.455.455 0 0 0-.236.048.151.151 0 0 0-.08.136c0 .038.01.071.03.099.02.027.052.053.097.078.044.025.128.06.254.107.172.063.288.126.349.19.06.063.09.143.09.24zm1.033.422a.628.628 0 0 1-.259-.052.487.487 0 0 1-.196-.16h-.016c.01.084.016.164.016.24v.597h-.22V5.3h.179l.03.199h.01a.51.51 0 0 1 .456-.226c.192 0 .341.066.446.198.104.131.156.316.156.553 0 .238-.053.424-.16.556a.537.537 0 0 1-.442.197zM39.76 5.46c-.148 0-.255.041-.321.123-.067.082-.1.213-.102.392v.05c0 .203.034.349.102.437.068.088.177.131.327.131a.34.34 0 0 0 .294-.152c.071-.101.107-.241.107-.42 0-.18-.036-.32-.107-.416a.35.35 0 0 0-.3-.145zm1.91 1.291l-.043-.207h-.01a.61.61 0 0 1-.217.185.66.66 0 0 1-.27.048.485.485 0 0 1-.338-.11c-.081-.075-.122-.18-.122-.317 0-.293.234-.447.703-.46l.246-.009v-.09c0-.114-.024-.198-.073-.252-.05-.054-.128-.082-.235-.082a.958.958 0 0 0-.41.112l-.068-.168a1.033 1.033 0 0 1 .49-.125c.174 0 .302.038.386.115.083.077.125.2.125.37v.99h-.163zm-.496-.155a.446.446 0 0 0 .323-.112.416.416 0 0 0 .117-.316v-.13l-.22.009c-.175.006-.3.033-.378.081-.077.048-.116.123-.116.224 0 .08.024.14.072.182a.3.3 0 0 0 .202.062zm1.692.181c-.21 0-.372-.064-.488-.193-.115-.13-.172-.313-.172-.55 0-.242.058-.43.175-.562.117-.132.284-.199.5-.199a.992.992 0 0 1 .373.076l-.067.187a1.033 1.033 0 0 0-.311-.068c-.295 0-.443.188-.443.564 0 .178.036.315.108.41.072.096.179.144.32.144.12 0 .245-.027.372-.079v.195a.793.793 0 0 1-.367.075zm1.324 0c-.214 0-.383-.065-.507-.195-.124-.131-.186-.312-.186-.545 0-.234.057-.42.172-.557a.574.574 0 0 1 .464-.207c.182 0 .326.06.432.18.106.12.159.277.159.473v.14h-1c.005.17.048.299.13.387a.446.446 0 0 0 .344.133c.156 0 .31-.033.464-.098v.195a1.163 1.163 0 0 1-.22.073c-.07.014-.154.021-.252.021zm-.06-1.32a.359.359 0 0 0-.278.114.525.525 0 0 0-.122.315h.758a.483.483 0 0 0-.092-.318.326.326 0 0 0-.265-.11z"/>
                        </g>
                        <path fill="#FFF" d="M65.52 5.4l-.81.9-.81-.9z"/>
                        <g>
                            <path fill="#F26B3A" d="M7.87 2.725a2.99 2.99 0 1 0-.761 5.93 2.99 2.99 0 0 0 .762-5.93"/>
                            <path fill="#FFF" d="M5.664 7.782a.118.118 0 0 1-.11-.073.118.118 0 0 1 .026-.129l.291-.29a.092.092 0 0 1 .055-.026.092.092 0 0 1 .022-.042l.927-1a.093.093 0 0 1 .037-.024l-.001-.002a.12.12 0 0 1 .024-.13l.111-.114-.49.105a.12.12 0 0 1-.116-.195l.303-.355a.093.093 0 0 1 .04-.028.094.094 0 0 1 .025-.043c.849-.85 1.187-1.108 1.45-1.108.014 0 .029 0 .043.002a.575.575 0 0 1 .91-.61.094.094 0 0 1 .035.07v.002a.091.091 0 0 1 .035.021.518.518 0 0 1 .153.362v.027l-.003.033-.004.03-.005.027-.008.029-.009.028-.01.028-.014.03-.013.024-.093-.027.08.049a.38.38 0 0 1-.01.016l-.017.022a.532.532 0 0 1-.066.07l-.02.018a.512.512 0 0 1-.057.04.106.106 0 0 1-.05.014v.004a.093.093 0 0 1-.055.067.571.571 0 0 1-.406.017.385.385 0 0 1-.043.19l.002.002c.041.018.064.062.053.105-.019.078-.04.133-.04.133-.003.012-.152.526-.945 1.187a.093.093 0 0 1-.032.017.092.092 0 0 1-.03.049c-.062.051-.128.108-.197.168-.264.231-.59.517-.997.736l.067.29a.117.117 0 0 1-.022.1.12.12 0 0 1-.093.045.124.124 0 0 1-.044-.01.093.093 0 0 1-.081.047l-.608.002"/>
                            <path fill="#F26B3A" d="M8.855 3.504a.669.669 0 0 0-.666.735c-.282.038-.634.317-1.448 1.13a.188.188 0 0 0-.032.044.187.187 0 0 0-.037.033l-.303.357a.214.214 0 0 0 .162.35.245.245 0 0 0 .045-.005l.238-.05a.22.22 0 0 0-.006.059l-.002.002-.926.999a.19.19 0 0 0-.023.03.182.182 0 0 0-.052.036l-.29.29a.211.211 0 0 0 .149.362l.608-.003c.041 0 .08-.013.11-.037h.015a.211.211 0 0 0 .206-.26l-.051-.22c.387-.22.698-.491.952-.713.068-.06.133-.116.195-.168a.188.188 0 0 0 .042-.051.174.174 0 0 0 .02-.014c.762-.636.948-1.15.974-1.233.008-.019.026-.07.042-.137a.187.187 0 0 0-.033-.158.478.478 0 0 0 .013-.046l.024.003a.668.668 0 0 0 .335-.05.188.188 0 0 0 .088-.075.249.249 0 0 0 .018-.01l.011-.006a.658.658 0 0 0 .166-.146l.016-.022.007-.009.011-.017.007-.012.01-.015.008-.017.005-.01a.553.553 0 0 0 .027-.061l.004-.01.007-.022.003-.012.006-.021.002-.01.006-.025a.613.613 0 0 0-.189-.558.186.186 0 0 0-.061-.084.668.668 0 0 0-.413-.143M5.937 7.357l.335.33-.608.002a.025.025 0 0 1-.018-.043l.291-.29m1.506-1.16l.136.136c-.063.052-.129.11-.198.17-.27.236-.607.53-1.025.747a.027.027 0 0 0-.014.03l.08.34a.025.025 0 0 1-.025.031.024.024 0 0 1-.017-.007l-.363-.358.926-.999.5-.09m-.255-.256l.175.176-.337.06a.02.02 0 0 1-.005 0c-.022 0-.035-.028-.019-.045l.186-.19m-.374-.374l.28.28-.557.119H6.53c-.021 0-.034-.025-.02-.042l.303-.357m1.781-.571c-.017.07-.037.12-.037.12s-.137.5-.917 1.15l-.002-.002-.129-.128s1.04-1.067 1.085-1.14m-.077-.41c.107.107.086.274-.113.473l-.978.992-.18-.178 1.27-1.287m-.26-.165a.24.24 0 0 1 .176.077h.002L7.161 5.785l-.288-.282c.756-.755 1.143-1.08 1.384-1.08m.924-.073a.042.042 0 0 0 .032-.014c.093-.106.024-.238.021-.243-.006-.012-.02-.019-.035-.019a.05.05 0 0 0-.015.002c-.02.007-.029.024-.02.039 0 0 .055.109-.015.189-.011.014-.007.032.011.04a.046.046 0 0 0 .021.006m.035-.47c.08.08.124.186.125.297v.026a.331.331 0 0 1-.006.046l-.001.007-.004.016-.001.008a.367.367 0 0 1-.005.015l-.002.008-.005.015-.002.007-.007.016a.398.398 0 0 1-.016.033l-.006.012-.006.01a.24.24 0 0 1-.026.038c0 .002-.001.002-.002.003a.42.42 0 0 1-.068.07l-.002.001a.452.452 0 0 1-.045.031l-.004.003-.004.002-.295-.312.382-.351m-.36-.189l.052.003c.09.01.175.045.245.1l-.455.419a.027.027 0 0 0-.009.019c0 .007.003.014.007.02l.347.366a.478.478 0 0 1-.241.036.483.483 0 0 1 .053-.963"/>
                        </g>
                    </g>
                    <g transform="translate(161.642 46.68)">
                        <rect width="27" height="7.65" x="153" y="15.75" fill="#F26B3A" rx=".678" transform="matrix(-1 0 0 1 333 0)"/>
                        <rect width="47.25" height="7.2" y="27.45" fill="#FFF" stroke="#282828" stroke-opacity=".2" stroke-width=".5" rx=".678" transform="matrix(-1 0 0 1 47.25 0)"/>
                        <path fill="#F4F4F4" d="M180 45.9H0v5.4h180z"/>
                        <path fill="#282828" d="M2.608 4.05l-.256-.841H1.063l-.256.841H0L1.247.502h.916L3.415 4.05h-.807zm-.435-1.47c-.237-.762-.37-1.193-.4-1.293a3.65 3.65 0 0 1-.064-.236c-.053.206-.206.716-.457 1.53h.92zm2.366 1.47h-.737V.29h.737v3.76zm1.51 0h-.736V.29h.737v3.76zm5.56 0h-.853l-.479-1.856a9.036 9.036 0 0 1-.09-.41 4.676 4.676 0 0 1-.074-.417c-.01.087-.034.227-.073.42-.038.192-.068.33-.09.412L9.476 4.05h-.851L7.722.516h.737l.452 1.93c.08.355.137.664.172.925.01-.092.032-.234.067-.427.034-.192.067-.342.097-.448l.515-1.98h.708l.515 1.98a9.958 9.958 0 0 1 .162.875c.016-.126.042-.283.078-.47.035-.188.067-.34.096-.456l.45-1.929h.737l-.9 3.534zm1.774-1.356c0 .268.044.47.132.607.087.137.23.205.429.205.196 0 .338-.068.424-.204.086-.136.13-.339.13-.608 0-.267-.044-.468-.131-.602-.087-.134-.23-.2-.428-.2-.197 0-.339.066-.426.199-.087.133-.13.334-.13.603zm1.868 0c0 .44-.116.784-.348 1.032-.232.248-.555.372-.969.372-.26 0-.488-.056-.686-.17a1.134 1.134 0 0 1-.457-.49 1.645 1.645 0 0 1-.16-.744c0-.441.115-.785.346-1.03.23-.244.554-.367.971-.367.26 0 .489.056.687.17.198.112.35.274.457.485.106.211.16.458.16.742zm2.118-1.397c.1 0 .182.007.248.022l-.055.691a.844.844 0 0 0-.218-.024c-.235 0-.418.06-.55.181-.13.121-.197.29-.197.508V4.05h-.737V1.348h.559l.108.454h.037c.083-.151.197-.273.34-.366a.837.837 0 0 1 .465-.139zm1.447 1.283l.322-.41.756-.822h.832L19.653 2.52l1.138 1.53h-.85l-.78-1.095-.316.254v.841h-.737V.29h.737v1.677l-.038.613h.01zm4.247.668c0 .277-.096.488-.289.633-.192.145-.48.217-.864.217-.197 0-.364-.013-.503-.04a1.902 1.902 0 0 1-.389-.117v-.609c.137.065.291.119.463.162.172.044.323.065.453.065.268 0 .401-.077.401-.232a.194.194 0 0 0-.053-.141.77.77 0 0 0-.183-.123 4.64 4.64 0 0 0-.348-.161 2.186 2.186 0 0 1-.459-.242.68.68 0 0 1-.212-.255.842.842 0 0 1-.067-.354c0-.24.093-.426.28-.557.186-.131.45-.197.791-.197.326 0 .642.07.95.213l-.222.531a4.09 4.09 0 0 0-.38-.142 1.192 1.192 0 0 0-.36-.056c-.218 0-.326.06-.326.177 0 .066.035.123.105.171.07.049.223.12.46.215.211.086.366.166.464.24.099.074.171.16.218.256.047.097.07.212.07.346zm2.06.85c-.318 0-.567-.115-.748-.345h-.038c.025.225.038.356.038.391V5.24h-.737V1.348h.6l.104.35h.033c.173-.267.428-.401.767-.401.319 0 .568.123.749.37.18.246.27.589.27 1.027 0 .288-.042.54-.126.752a1.054 1.054 0 0 1-.362.486.926.926 0 0 1-.55.166zm-.218-2.211c-.182 0-.315.056-.4.168-.083.112-.126.297-.13.554v.08c0 .29.043.498.13.624.086.126.222.188.41.188.33 0 .495-.272.495-.817 0-.265-.04-.465-.122-.598-.082-.133-.21-.2-.383-.2zm3.582 2.163l-.143-.367h-.02a1.089 1.089 0 0 1-.382.325c-.132.06-.303.09-.514.09-.26 0-.464-.074-.613-.222-.149-.148-.223-.36-.223-.633 0-.287.1-.499.3-.635.201-.136.504-.211.908-.226l.47-.014v-.119c0-.274-.141-.41-.421-.41-.216 0-.47.065-.762.195l-.244-.498a2.197 2.197 0 0 1 1.035-.244c.362 0 .64.08.833.237.194.158.29.398.29.72V4.05h-.514zm-.218-1.252l-.285.01c-.214.006-.374.045-.479.116-.104.07-.157.179-.157.324 0 .207.12.311.358.311.17 0 .307-.049.41-.147a.518.518 0 0 0 .153-.392v-.222zm2.589 1.3c-.841 0-1.262-.461-1.262-1.385 0-.459.114-.81.343-1.052.23-.243.557-.364.984-.364.313 0 .593.061.841.184l-.217.57a3.72 3.72 0 0 0-.324-.115c-.1-.03-.2-.044-.3-.044-.383 0-.575.272-.575.817 0 .528.192.792.575.792.142 0 .273-.019.394-.056.12-.038.242-.098.363-.178v.63c-.12.076-.24.129-.362.158a2.032 2.032 0 0 1-.46.043zm2.567-2.276a.468.468 0 0 0-.368.148c-.088.1-.14.24-.152.422h1.034c-.003-.182-.05-.323-.142-.422a.483.483 0 0 0-.372-.148zm.104 2.276c-.436 0-.776-.12-1.02-.36-.245-.24-.368-.58-.368-1.02 0-.453.113-.803.34-1.05.226-.247.54-.371.939-.371.382 0 .679.109.892.326.212.218.319.518.319.902v.358h-1.743c.008.21.07.373.186.49.116.118.279.177.488.177a2.027 2.027 0 0 0 .916-.213v.57a1.731 1.731 0 0 1-.413.144 2.606 2.606 0 0 1-.536.047zm3.586-.85c0 .277-.096.488-.288.633-.193.145-.481.217-.865.217-.196 0-.364-.013-.502-.04a1.902 1.902 0 0 1-.39-.117v-.609c.138.065.292.119.463.162.172.044.323.065.454.065.267 0 .4-.077.4-.232a.194.194 0 0 0-.052-.141.77.77 0 0 0-.184-.123 4.64 4.64 0 0 0-.348-.161 2.186 2.186 0 0 1-.458-.242.68.68 0 0 1-.213-.255.842.842 0 0 1-.066-.354c0-.24.093-.426.279-.557.186-.131.45-.197.791-.197.326 0 .643.07.95.213l-.222.531a4.09 4.09 0 0 0-.38-.142 1.192 1.192 0 0 0-.36-.056c-.217 0-.326.06-.326.177 0 .066.035.123.105.171.07.049.224.12.46.215.212.086.366.166.465.24.098.074.17.16.217.256.047.097.07.212.07.346zM17.8 18.9h-.476v-1.852h-.61v-.397h1.697v.397h-.61V18.9zm1.412-1.418c-.099 0-.177.031-.233.094a.438.438 0 0 0-.097.269h.658a.391.391 0 0 0-.09-.269.307.307 0 0 0-.238-.094zm.067 1.449c-.277 0-.494-.077-.65-.23-.155-.152-.233-.369-.233-.648 0-.289.072-.511.216-.669.144-.157.343-.236.597-.236.243 0 .433.07.568.208.135.138.203.33.203.573v.228h-1.109a.452.452 0 0 0 .118.312.417.417 0 0 0 .311.113 1.29 1.29 0 0 0 .583-.136v.363c-.082.041-.17.072-.263.092-.093.02-.207.03-.341.03zm2.174-.031l-.09-.234h-.013a.693.693 0 0 1-.243.207.788.788 0 0 1-.327.058.529.529 0 0 1-.39-.142c-.095-.094-.142-.228-.142-.403 0-.182.063-.317.191-.403.128-.087.32-.135.578-.144l.298-.01v-.075c0-.174-.09-.261-.268-.261a1.22 1.22 0 0 0-.484.124l-.155-.317c.197-.103.417-.155.658-.155.23 0 .407.05.53.15.124.101.185.254.185.46V18.9h-.328zm-.138-.797l-.181.006a.581.581 0 0 0-.305.074c-.067.045-.1.114-.1.206 0 .133.076.199.228.199a.36.36 0 0 0 .26-.094.33.33 0 0 0 .098-.25v-.14zm2.489.797h-.47v-1.004a.506.506 0 0 0-.062-.28c-.041-.062-.107-.093-.196-.093-.12 0-.207.045-.261.133-.055.088-.082.233-.082.435v.809h-.469v-1.72h.358l.063.22h.027a.477.477 0 0 1 .2-.185.65.65 0 0 1 .3-.067c.257 0 .431.084.522.252h.042a.465.465 0 0 1 .204-.186.68.68 0 0 1 .304-.066c.194 0 .342.05.442.15.1.1.15.26.15.48V18.9h-.471v-1.004a.506.506 0 0 0-.062-.28c-.042-.062-.107-.093-.196-.093-.115 0-.201.041-.258.123-.057.082-.085.213-.085.391v.863zM1.086 42.435a4.253 4.253 0 0 1-.073.373l-.216.842H.41L0 42.044h.335l.206.877c.035.161.061.302.078.42a3.035 3.035 0 0 1 .074-.397l.234-.9h.322l.234.9a4.527 4.527 0 0 1 .074.398 3.82 3.82 0 0 1 .079-.421l.204-.877h.335l-.408 1.606h-.388l-.218-.844a4.107 4.107 0 0 1-.074-.375l-.001.004zm-.467.906v-.002.002zm.938 0v-.002.002zm1.016-.307c0 .121.02.213.06.275.04.063.105.094.195.094.09 0 .154-.031.193-.093a.523.523 0 0 0 .058-.276.507.507 0 0 0-.059-.274c-.04-.06-.104-.091-.194-.091-.09 0-.154.03-.194.09a.507.507 0 0 0-.059.275zm.85 0c0 .2-.053.356-.159.469-.105.113-.252.169-.44.169a.616.616 0 0 1-.313-.077.515.515 0 0 1-.207-.223.748.748 0 0 1-.073-.338c0-.201.053-.357.157-.468.105-.112.252-.167.442-.167a.62.62 0 0 1 .312.077c.09.05.16.124.208.22a.74.74 0 0 1 .072.338zm.962-.635a.54.54 0 0 1 .113.01l-.025.314a.384.384 0 0 0-.1-.011.355.355 0 0 0-.25.082.298.298 0 0 0-.089.23v.626H3.7v-1.228h.254l.05.206h.016a.462.462 0 0 1 .154-.166.38.38 0 0 1 .212-.063zm.658.583l.146-.187.344-.373h.378l-.488.533.517.695h-.386l-.354-.498-.144.116v.382H4.72v-1.71h.335v.763l-.018.279h.005zm1.93.303a.338.338 0 0 1-.131.288c-.088.066-.219.099-.393.099-.09 0-.166-.006-.229-.018a.864.864 0 0 1-.176-.053v-.277a1.168 1.168 0 0 0 .416.103c.122 0 .182-.035.182-.105a.088.088 0 0 0-.024-.065.35.35 0 0 0-.083-.056 2.109 2.109 0 0 0-.159-.073.994.994 0 0 1-.208-.11.31.31 0 0 1-.096-.116.383.383 0 0 1-.03-.16c0-.11.042-.194.126-.254a.618.618 0 0 1 .36-.09c.148 0 .292.033.432.097l-.101.242a1.86 1.86 0 0 0-.173-.065.542.542 0 0 0-.163-.025c-.1 0-.149.027-.149.08 0 .03.016.056.048.078a1.3 1.3 0 0 0 .21.098.972.972 0 0 1 .21.109.322.322 0 0 1 .1.116.358.358 0 0 1 .031.157zm.936.387a.407.407 0 0 1-.34-.157h-.017c.012.102.018.162.018.178v.498h-.336v-1.77h.273l.047.16h.016a.388.388 0 0 1 .348-.182c.145 0 .258.056.34.168.082.112.123.267.123.467 0 .13-.019.245-.057.341a.48.48 0 0 1-.164.221.42.42 0 0 1-.25.076zm-.099-1.005c-.083 0-.143.025-.181.076-.038.051-.058.135-.06.252v.036c0 .132.02.227.06.284.039.057.1.086.186.086.15 0 .225-.124.225-.372a.53.53 0 0 0-.056-.272c-.037-.06-.095-.09-.174-.09zm1.628.983l-.064-.167h-.01a.495.495 0 0 1-.173.148.563.563 0 0 1-.234.041.378.378 0 0 1-.278-.101c-.068-.067-.102-.163-.102-.288 0-.13.046-.226.137-.288.091-.062.229-.096.412-.103l.213-.007v-.053c0-.125-.063-.187-.19-.187a.871.871 0 0 0-.347.089l-.11-.227a.999.999 0 0 1 .47-.11c.164 0 .29.035.379.107.087.072.131.181.131.328v.818h-.234zm-.099-.57l-.13.005a.415.415 0 0 0-.217.053c-.047.032-.071.081-.071.147 0 .095.054.142.162.142.078 0 .14-.022.187-.067a.235.235 0 0 0 .07-.178v-.101zm1.177.592c-.382 0-.573-.21-.573-.63 0-.208.052-.368.156-.478.104-.11.253-.165.447-.165.142 0 .27.027.382.083l-.099.26a1.691 1.691 0 0 0-.147-.053.474.474 0 0 0-.136-.02c-.175 0-.262.124-.262.371 0 .24.087.36.262.36a.596.596 0 0 0 .344-.106v.287a.54.54 0 0 1-.165.071.924.924 0 0 1-.209.02zm1.167-1.035a.213.213 0 0 0-.167.068.313.313 0 0 0-.07.191h.47a.28.28 0 0 0-.064-.191.22.22 0 0 0-.17-.068zm.047 1.035c-.198 0-.352-.055-.464-.164-.11-.109-.167-.263-.167-.463 0-.206.052-.365.155-.478a.55.55 0 0 1 .427-.168c.173 0 .308.05.405.148a.561.561 0 0 1 .145.41v.162h-.792c.004.096.032.17.085.223.052.054.126.08.221.08a.921.921 0 0 0 .417-.096v.26a.787.787 0 0 1-.188.065 1.184 1.184 0 0 1-.244.021zm1.63-.387a.338.338 0 0 1-.13.288c-.088.066-.22.099-.394.099-.089 0-.165-.006-.228-.018a.864.864 0 0 1-.177-.053v-.277a1.168 1.168 0 0 0 .416.103c.122 0 .183-.035.183-.105a.088.088 0 0 0-.024-.065.35.35 0 0 0-.084-.056 2.109 2.109 0 0 0-.158-.073.994.994 0 0 1-.208-.11.31.31 0 0 1-.097-.116.383.383 0 0 1-.03-.16c0-.11.042-.194.127-.254a.618.618 0 0 1 .36-.09c.147 0 .291.033.431.097l-.1.242a1.86 1.86 0 0 0-.173-.065.542.542 0 0 0-.164-.025c-.099 0-.148.027-.148.08 0 .03.016.056.048.078a1.3 1.3 0 0 0 .209.098.972.972 0 0 1 .21.109.322.322 0 0 1 .1.116.358.358 0 0 1 .031.157zm.67-.863h.368l.231.69c.02.06.034.132.041.214h.007a.942.942 0 0 1 .047-.213l.227-.691h.36l-.52 1.385a.6.6 0 0 1-.204.288.514.514 0 0 1-.31.096.778.778 0 0 1-.17-.02v-.265c.04.01.085.014.132.014.06 0 .112-.018.156-.054a.353.353 0 0 0 .104-.164l.02-.06-.488-1.22zm1.723.612c0 .121.02.213.06.275.04.063.105.094.195.094.09 0 .154-.031.193-.093a.523.523 0 0 0 .059-.276.507.507 0 0 0-.06-.274c-.04-.06-.104-.091-.194-.091-.09 0-.154.03-.193.09a.507.507 0 0 0-.06.275zm.85 0c0 .2-.053.356-.159.469-.105.113-.252.169-.44.169a.616.616 0 0 1-.312-.077.515.515 0 0 1-.208-.223.748.748 0 0 1-.072-.338c0-.201.052-.357.157-.468.104-.112.252-.167.441-.167a.62.62 0 0 1 .312.077c.09.05.16.124.208.22a.74.74 0 0 1 .073.338zm1.147.616l-.046-.157h-.017a.354.354 0 0 1-.153.132.521.521 0 0 1-.225.047c-.144 0-.253-.039-.326-.116-.074-.077-.11-.188-.11-.333v-.801h.335v.717c0 .089.016.155.047.2.032.044.082.066.15.066.094 0 .162-.031.204-.094.042-.063.063-.166.063-.311v-.578h.335v1.228h-.257zm1.876-1.251c.145 0 .259.056.34.17.083.113.124.268.124.465 0 .203-.043.36-.127.471a.41.41 0 0 1-.346.167.407.407 0 0 1-.34-.157h-.022l-.056.135h-.256v-1.71h.335v.398c0 .05-.005.132-.013.243h.013a.388.388 0 0 1 .348-.182zm-.108.268c-.082 0-.143.025-.181.076-.038.051-.058.135-.06.252v.036c0 .132.02.227.06.284.039.057.1.086.186.086a.187.187 0 0 0 .164-.095.514.514 0 0 0 .06-.277c0-.12-.02-.211-.06-.272a.193.193 0 0 0-.169-.09zm1.357-.03a.213.213 0 0 0-.167.068.313.313 0 0 0-.07.191h.471a.28.28 0 0 0-.065-.191.22.22 0 0 0-.169-.068zm.047 1.035c-.197 0-.352-.055-.463-.164-.112-.109-.167-.263-.167-.463 0-.206.051-.365.154-.478a.55.55 0 0 1 .427-.168c.174 0 .309.05.405.148a.561.561 0 0 1 .145.41v.162h-.792c.004.096.032.17.085.223.053.054.127.08.222.08a.921.921 0 0 0 .416-.096v.26a.787.787 0 0 1-.188.065 1.184 1.184 0 0 1-.244.021zm1.109-.022h-.335v-1.71h.335v1.71zm.618-.616c0 .121.02.213.06.275.04.063.105.094.195.094.09 0 .154-.031.193-.093a.523.523 0 0 0 .059-.276.507.507 0 0 0-.06-.274c-.039-.06-.104-.091-.194-.091-.09 0-.154.03-.193.09a.507.507 0 0 0-.06.275zm.85 0c0 .2-.053.356-.159.469-.105.113-.252.169-.44.169a.616.616 0 0 1-.312-.077.515.515 0 0 1-.208-.223.748.748 0 0 1-.072-.338c0-.201.052-.357.157-.468.105-.112.252-.167.441-.167a.62.62 0 0 1 .313.077c.09.05.159.124.207.22a.74.74 0 0 1 .073.338zm1.41.616h-.335v-.717a.345.345 0 0 0-.047-.2c-.032-.044-.082-.066-.15-.066-.094 0-.162.031-.204.094-.042.062-.062.166-.062.311v.578h-.335v-1.228h.255l.046.157h.018a.354.354 0 0 1 .155-.135.526.526 0 0 1 .223-.045c.143 0 .251.038.325.116.074.077.111.188.111.334v.801zm1.414-1.228v.17l-.192.05a.335.335 0 0 1 .053.184.373.373 0 0 1-.138.308.597.597 0 0 1-.383.11l-.06-.003-.05-.005c-.034.026-.052.055-.052.088 0 .048.062.072.185.072h.209c.135 0 .237.03.308.087.07.058.106.143.106.255 0 .143-.06.255-.18.334-.12.079-.291.119-.515.119-.172 0-.303-.03-.393-.09a.284.284 0 0 1-.136-.251c0-.074.023-.136.07-.186a.393.393 0 0 1 .203-.106.224.224 0 0 1-.09-.072.171.171 0 0 1-.039-.106c0-.047.014-.086.04-.117a.47.47 0 0 1 .118-.092.33.33 0 0 1-.153-.134.408.408 0 0 1-.057-.218c0-.134.044-.237.131-.31.087-.074.212-.11.374-.11a1.401 1.401 0 0 1 .213.023h.428zm-.948 1.402c0 .046.022.082.067.108.044.027.106.04.186.04a.66.66 0 0 0 .282-.05c.068-.032.102-.078.102-.135 0-.046-.02-.078-.06-.095a.495.495 0 0 0-.187-.027h-.173a.263.263 0 0 0-.155.044.134.134 0 0 0-.062.115zm.122-1c0 .066.015.12.046.158.03.039.076.058.139.058.063 0 .109-.02.138-.058a.257.257 0 0 0 .044-.158c0-.148-.06-.222-.182-.222-.123 0-.185.074-.185.222zm2.13.581a.726.726 0 0 0 .211-.038v.249a.752.752 0 0 1-.307.056c-.134 0-.232-.034-.293-.102-.061-.067-.092-.169-.092-.305v-.592h-.16v-.141l.184-.112.097-.26h.214v.262h.344v.251h-.344v.592c0 .048.014.083.04.106a.158.158 0 0 0 .106.034zm.727-.371c0 .121.02.213.06.275.04.063.104.094.194.094.09 0 .154-.031.193-.093a.523.523 0 0 0 .059-.276.507.507 0 0 0-.06-.274c-.039-.06-.104-.091-.194-.091-.09 0-.154.03-.193.09a.507.507 0 0 0-.06.275zm.849 0c0 .2-.053.356-.158.469-.106.113-.253.169-.441.169a.616.616 0 0 1-.312-.077.515.515 0 0 1-.208-.223.748.748 0 0 1-.072-.338c0-.201.052-.357.157-.468.105-.112.252-.167.442-.167a.62.62 0 0 1 .312.077c.09.05.159.124.207.22a.74.74 0 0 1 .073.338z"/>
                        <path fill="#666" d="M1.735 17.307c0 .227-.078.402-.233.525-.155.122-.378.184-.667.184H.571v.884H.309v-2.249h.583c.562 0 .843.219.843.656zm-1.164.484h.235c.232 0 .4-.037.503-.112.103-.075.155-.195.155-.36 0-.149-.048-.26-.146-.332-.097-.073-.249-.11-.455-.11H.57v.914zm2.308 1.14c-.249 0-.445-.076-.59-.228-.144-.152-.216-.362-.216-.632 0-.272.067-.488.201-.648a.667.667 0 0 1 .54-.24c.21 0 .378.07.5.209.124.139.185.322.185.55v.161H2.338c.005.198.055.348.15.45a.519.519 0 0 0 .4.155c.182 0 .361-.038.539-.114v.228c-.09.039-.176.066-.256.083a1.44 1.44 0 0 1-.292.026zm-.069-1.534a.417.417 0 0 0-.324.133.61.61 0 0 0-.142.366h.881c0-.161-.036-.285-.107-.37a.379.379 0 0 0-.308-.129zm1.893-.214a1 1 0 0 1 .202.019l-.035.237a.87.87 0 0 0-.185-.023.45.45 0 0 0-.35.166.606.606 0 0 0-.145.414v.904h-.256v-1.686h.211l.03.312h.012a.741.741 0 0 1 .226-.253.509.509 0 0 1 .29-.09zm1.605 1.257a.422.422 0 0 1-.176.363c-.117.085-.28.128-.492.128-.223 0-.398-.036-.523-.106v-.237a1.265 1.265 0 0 0 .53.132.609.609 0 0 0 .307-.064.211.211 0 0 0 .108-.194.211.211 0 0 0-.086-.169 1.343 1.343 0 0 0-.333-.165 1.806 1.806 0 0 1-.334-.153.457.457 0 0 1-.148-.149.387.387 0 0 1-.048-.198c0-.137.055-.246.167-.325.112-.08.265-.12.46-.12.182 0 .359.037.532.111l-.09.208a1.222 1.222 0 0 0-.46-.105.53.53 0 0 0-.274.057.176.176 0 0 0-.092.157c0 .045.011.084.034.115.023.032.06.062.112.091.051.029.15.07.295.125.2.073.335.146.405.22.07.074.106.166.106.278zm1.87-.384c0 .274-.07.489-.208.643-.138.155-.33.232-.573.232a.76.76 0 0 1-.402-.106.7.7 0 0 1-.27-.305 1.061 1.061 0 0 1-.096-.464c0-.275.069-.49.206-.643.138-.153.328-.23.572-.23.236 0 .424.079.563.236.139.157.208.369.208.637zm-1.284 0c0 .215.043.379.129.492.086.113.213.169.38.169s.294-.056.38-.168c.087-.113.13-.277.13-.493 0-.215-.043-.377-.13-.489-.086-.111-.214-.167-.383-.167-.167 0-.294.055-.379.165-.085.11-.127.273-.127.49zm2.885.844v-1.09c0-.138-.031-.24-.094-.308-.062-.068-.16-.102-.293-.102-.177 0-.306.048-.388.143-.082.096-.123.253-.123.473v.884h-.255v-1.686h.207l.042.231h.012a.521.521 0 0 1 .22-.193.715.715 0 0 1 .315-.069c.203 0 .356.05.459.147.102.098.153.255.153.47v1.1H9.78zm1.817 0l-.051-.24h-.012a.71.71 0 0 1-.252.215.767.767 0 0 1-.313.056.563.563 0 0 1-.393-.13c-.095-.086-.142-.208-.142-.367 0-.34.272-.519.817-.535l.286-.01v-.104c0-.132-.029-.23-.086-.293-.057-.063-.148-.095-.273-.095-.14 0-.3.043-.477.13l-.078-.196a1.2 1.2 0 0 1 .57-.144c.202 0 .35.044.447.133.097.09.146.233.146.43v1.15h-.19zm-.577-.18a.518.518 0 0 0 .374-.13.484.484 0 0 0 .136-.367v-.152l-.255.01c-.203.008-.35.04-.439.095-.09.056-.135.143-.135.261 0 .092.028.163.084.21a.348.348 0 0 0 .235.073zm1.547.18h-.255v-2.393h.255V18.9z"/>
                        <g transform="translate(0 56.25)">
                            <rect width="27" height="5.4" x="145.35" fill="#E3E3E3" rx=".678" transform="matrix(-1 0 0 1 317.7 0)"/>
                            <rect width="5.4" height="5.4" x="173.25" fill="#E3E3E3" rx=".678" transform="matrix(-1 0 0 1 351.9 0)"/>
                            <path fill="#F26B3A" d="M.113.35h22.95V1.7H.113z"/>
                            <path fill="#999" d="M.113 2.6h9.45v1.35H.113z"/>
                            <circle cx="75.263" cy="2.6" r="2.25" fill="#325065"/>
                            <circle cx="81.563" cy="2.6" r="2.25" fill="#EB816F"/>
                            <circle cx="87.863" cy="2.6" r="2.25" fill="#4F485C"/>
                            <circle cx="94.163" cy="2.6" r="2.25" fill="#E66161"/>
                        </g>
                        <g transform="translate(0 66.15)">
                            <rect width="27" height="5.4" x="145.35" fill="#E3E3E3" rx=".678" transform="matrix(-1 0 0 1 317.7 0)"/>
                            <rect width="5.4" height="5.4" x="173.25" fill="#E3E3E3" rx=".678" transform="matrix(-1 0 0 1 351.9 0)"/>
                            <path fill="#F26B3A" d="M.113.35h22.95V1.7H.113z"/>
                            <path fill="#999" d="M.113 2.6h9.45v1.35H.113z"/>
                            <circle cx="75.263" cy="2.6" r="2.25" fill="#325065"/>
                            <circle cx="81.563" cy="2.6" r="2.25" fill="#EB816F"/>
                            <circle cx="87.863" cy="2.6" r="2.25" fill="#4F485C"/>
                            <circle cx="94.163" cy="2.6" r="2.25" fill="#E66161"/>
                        </g>
                        <g transform="translate(0 76.05)">
                            <rect width="27" height="5.4" x="145.35" fill="#E3E3E3" rx=".678" transform="matrix(-1 0 0 1 317.7 0)"/>
                            <rect width="5.4" height="5.4" x="173.25" fill="#E3E3E3" rx=".678" transform="matrix(-1 0 0 1 351.9 0)"/>
                            <path fill="#F26B3A" d="M.113.35h22.95V1.7H.113z"/>
                            <path fill="#999" d="M.113 2.6h9.45v1.35H.113z"/>
                            <circle cx="75.263" cy="2.6" r="2.25" fill="#325065"/>
                            <circle cx="81.563" cy="2.6" r="2.25" fill="#EB816F"/>
                            <circle cx="87.863" cy="2.6" r="2.25" fill="#4F485C"/>
                            <circle cx="94.163" cy="2.6" r="2.25" fill="#E66161"/>
                        </g>
                        <g transform="translate(0 85.95)">
                            <rect width="27" height="5.4" x="145.35" fill="#E3E3E3" rx=".678" transform="matrix(-1 0 0 1 317.7 0)"/>
                            <rect width="5.4" height="5.4" x="173.25" fill="#E3E3E3" rx=".678" transform="matrix(-1 0 0 1 351.9 0)"/>
                            <path fill="#F26B3A" d="M.113.35h22.95V1.7H.113z"/>
                            <path fill="#999" d="M.113 2.6h9.45v1.35H.113z"/>
                            <circle cx="75.263" cy="2.6" r="2.25" fill="#325065"/>
                            <circle cx="81.563" cy="2.6" r="2.25" fill="#EB816F"/>
                            <circle cx="87.863" cy="2.6" r="2.25" fill="#4F485C"/>
                            <circle cx="94.163" cy="2.6" r="2.25" fill="#E66161"/>
                        </g>
                        <path fill="#F26B3A" d="M16.65 20.7h9v1h-9z"/>
                    </g>
                </g>
                <g mask="url(#h)">
                    <path fill="#F4F4F4" d="M16.017 70.585h324v204h-324z"/>
                    <g transform="translate(91.017 80.785)">
                        <mask id="l" fill="#fff">
                            <use xlink:href="#k"/>
                        </mask>
                        <use fill="#FFF" xlink:href="#k"/>
                        <path fill="#E6E6E6" d="M2.4 87.6H249v1H2.4zM2.4 75H249v1H2.4zM2.4 62.4H249v1H2.4z" mask="url(#l)"/>
                        <path fill="#DCDCDC" d="M2.4 49.8H249v1H2.4z" mask="url(#l)"/>
                        <path stroke="#E6E6E6" stroke-width=".6" d="M65.7 10.2v6.9h25.2v-6.9a1.5 1.5 0 0 0-1.5-1.5H67.2a1.5 1.5 0 0 0-1.5 1.5zM93.3 10.2v6.9h9.6v-6.9a1.5 1.5 0 0 0-1.5-1.5h-6.6a1.5 1.5 0 0 0-1.5 1.5z"/>
                        <path fill="#FAFAFA" stroke="#DCDCDC" stroke-width=".6" d="M9.9 10.2v7.5h25.2v-7.5a1.5 1.5 0 0 0-1.5-1.5H11.4a1.5 1.5 0 0 0-1.5 1.5z"/>
                        <path stroke="#E6E6E6" stroke-width=".6" d="M37.5 10.2v6.9h25.2v-6.9a1.5 1.5 0 0 0-1.5-1.5H39a1.5 1.5 0 0 0-1.5 1.5z"/>
                        <path fill="#FAFAFA" d="M3.6 16.8H249v33H3.6z"/>
                        <path fill="#DCDCDC" d="M3.6 16.8h6.6v1H3.6zM34.8 16.8H249v1H34.8z"/>
                        <path fill="#505050" d="M10.2 45h19.2v2.4H10.2z"/>
                        <path fill="#B3B3B3" d="M57.6 45h10.8v2.4H57.6z"/>
                        <path fill="gray" d="M100.2 45H111v2.4h-10.8z"/>
                        <path fill="#F26B3A" d="M229.8 44.4h10.8v3h-10.8zM209.4 44.4h13.2v3h-13.2z"/>
                        <path fill="gray" d="M75 45h18v2.4H75zM37.2 45h13.2v2.4H37.2z"/>
                        <path fill="#F26B3A" d="M34.2 48.6h19.2v1.2H34.2z"/>
                        <path fill="#F4F4F4" d="M3.6 103.8H249v12.6H3.6zM3.6 129H249v47.4H3.6z"/>
                        <path fill="#F0F0F0" stroke="#DCDCDC" stroke-width=".6" d="M182.7 33.3h14.1a1.5 1.5 0 0 0 1.5-1.5v-6a1.5 1.5 0 0 0-1.5-1.5h-14.1v9z"/>
                        <path fill="#F0F0F0" stroke="#DCDCDC" stroke-width=".6" d="M182.7 33.3H30.3v-9h152.4v9zM30.3 33.3v-9H12a1.5 1.5 0 0 0-1.5 1.5v6a1.5 1.5 0 0 0 1.5 1.5h18.3z"/>
                        <path fill="gray" d="M28.2 28.2L27 29.4l-1.2-1.2z"/>
                        <text fill="gray" font-family="OpenSans-Bold, Open Sans" font-size="4.2" font-weight="bold">
                            <tspan x="13.8" y="31.6">GET</tspan>
                        </text>
                        <rect width="23.4" height="9.6" x="201.6" y="24" fill="#097BED" rx=".6" transform="matrix(-1 0 0 1 426.6 0)"/>
                        <text fill="#FFF" font-family="OpenSans-Semibold, Open Sans" font-size="3.6" font-weight="500">
                            <tspan x="204" y="30.4">Send</tspan>
                        </text>
                        <path fill="#FFF" d="M222.6 28.2l-1.2 1.2-1.2-1.2z"/>
                        <path fill="#0460BB" d="M217.2 24h1v9.6h-1z"/>
                        <rect width="18" height="9.6" x="228" y="24" fill="#F0F0F0" rx=".6" transform="matrix(-1 0 0 1 474 0)"/>
                        <rect width="35.4" height="7.2" x="191.1" y="5.1" fill="#F0F0F0" stroke="#DCDCDC" stroke-width=".6" rx=".6"/>
                        <rect width="7.8" height="7.8" x="228.6" y="4.8" fill="#F0F0F0" rx=".6"/>
                        <rect width="7.8" height="7.8" x="238.2" y="4.8" fill="#F0F0F0" rx=".6"/>
                    </g>
                    <g transform="translate(16.017 80.785)">
                        <use fill="#000" filter="url(#m)" xlink:href="#n"/>
                        <use fill="#FAFAFA" xlink:href="#n"/>
                        <path fill="#F0F0F0" d="M0 0h78.6v38.4H0z"/>
                        <path fill="#E5E5E5" d="M0 28.2h77.4v1H0z"/>
                        <path fill="#505050" d="M49.2 20.4H69v2.4H49.2z"/>
                        <path fill="gray" d="M9.6 20.4h19.8v2.4H9.6zM4.2 32.4h6v2.4h-6z"/>
                        <path fill="#999" d="M13.2 32.4h6v2.4h-6zM22.2 32.4h6v2.4h-6z"/>
                        <rect width="6" height="4.8" x="67.8" y="31.2" fill="#999" rx=".6"/>
                        <rect width="6" height="4.8" x="60.6" y="31.2" fill="#999" rx=".6"/>
                        <rect width="69" height="7.8" x="4.8" y="7.2" fill="#F0F0F0" stroke="#E5E5E5" stroke-width=".6" rx="3.9"/>
                        <path fill="#F26B3A" d="M38.4 27h40.2v1.2H38.4z"/>
                        <g>
                            <g transform="translate(4.2 44.4)">
                                <path fill="#505050" d="M10.2 0H42v2.4H10.2z"/>
                                <path fill="gray" d="M10.2 3.6h12v1.2h-12z" opacity=".8"/>
                                <rect width="6" height="4.8" fill="#F26B3A" rx=".6"/>
                            </g>
                            <g transform="translate(4.2 61.2)">
                                <path fill="#505050" d="M10.2 0H54v2.4H10.2z"/>
                                <path fill="gray" d="M10.2 3.6h12v1.2h-12z"/>
                                <rect width="6" height="4.8" fill="#E5E5E5" rx=".6"/>
                            </g>
                            <g transform="translate(4.2 78)">
                                <path fill="#505050" d="M10.2 0H42v2.4H10.2z"/>
                                <path fill="gray" d="M10.2 3.6h12v1.2h-12z"/>
                                <rect width="6" height="4.8" fill="#E5E5E5" rx=".6"/>
                            </g>
                            <g transform="translate(0 44.4)">
                                <path fill="#F0F0F0" d="M0 0h79.2v17.4H0z"/>
                                <path fill="#505050" d="M14.4 6h37.8v2.4H14.4z"/>
                                <path fill="gray" d="M14.4 9.6h12v1.2h-12z"/>
                                <rect width="6" height="4.8" x="4.2" y="6" fill="#F26B3A" rx=".6"/>
                            </g>
                            <g transform="translate(4.2 112.2)">
                                <path fill="#505050" d="M10.2 0H36v2.4H10.2z"/>
                                <path fill="gray" d="M10.2 3.6h12v1.2h-12z"/>
                                <rect width="6" height="4.8" fill="#E5E5E5" rx=".6"/>
                            </g>
                            <g transform="translate(4.2 129)">
                                <path fill="#505050" d="M10.2 0h33.6v2.4H10.2z"/>
                                <path fill="gray" d="M10.2 3.6h12v1.2h-12z"/>
                                <rect width="6" height="4.8" fill="#E5E5E5" rx=".6"/>
                            </g>
                            <g transform="translate(4.2 145.8)">
                                <path fill="#505050" d="M10.2 0H42v2.4H10.2z"/>
                                <path fill="gray" d="M10.2 3.6h12v1.2h-12z"/>
                                <rect width="6" height="4.8" fill="#E5E5E5" rx=".6"/>
                            </g>
                            <g transform="translate(4.2 162.6)">
                                <path fill="#505050" d="M10.2 0H42v2.4H10.2z"/>
                                <path fill="gray" d="M10.2 3.6h12v1.2h-12z"/>
                                <rect width="6" height="4.8" fill="#E5E5E5" rx=".6"/>
                            </g>
                        </g>
                    </g>
                    <g transform="translate(16.017 70.585)">
                        <use fill="#000" filter="url(#o)" xlink:href="#p"/>
                        <use fill="#333" xlink:href="#p"/>
                        <circle cx="317.7" cy="6.3" r="3.3" fill="#7D728E"/>
                        <circle cx="305.1" cy="6.3" r="3.3" fill="#545454"/>
                        <circle cx="297.3" cy="6.3" r="3.3" fill="#545454"/>
                        <circle cx="289.5" cy="6.3" r="3.3" fill="#545454"/>
                        <circle cx="260.1" cy="6.3" r="3.3" fill="#F26B3A"/>
                        <circle cx="252.3" cy="6.3" r="3.3" fill="#545454"/>
                        <rect width="21" height="7.8" x="3.6" y="2.4" fill="#F26B3A" rx=".6" transform="matrix(-1 0 0 1 28.2 0)"/>
                        <rect width="15.6" height="7.8" x="25.8" y="2.4" fill="#FFF" fill-opacity=".1" rx=".6" transform="matrix(-1 0 0 1 67.2 0)"/>
                        <rect width="15.6" height="7.8" x="42.6" y="2.4" fill="#FFF" fill-opacity=".1" rx=".6" transform="matrix(-1 0 0 1 100.8 0)"/>
                        <rect width="9" height="7.8" x="59.4" y="2.4" fill="#FFF" fill-opacity=".1" rx=".6" transform="matrix(-1 0 0 1 127.8 0)"/>
                        <g fill="#FFF">
                            <g transform="translate(141.6 3)">
                                <rect width="3" height="3" rx=".6"/>
                                <rect width="3" height="3" y="3.6" rx=".6"/>
                                <rect width="3" height="3" x="3.6" rx=".6"/>
                                <rect width="3" height="3" x="3.6" y="3.6" rx=".6"/>
                            </g>
                            <path d="M152.612 7.8l-.62-2.016h-.015c.022.41.033.684.033.82V7.8h-.487V5.23h.742l.608 1.965h.011l.645-1.965h.742V7.8h-.508V6.584c0-.058 0-.124.003-.199.001-.075.01-.274.023-.598h-.016l-.662 2.013h-.5zm1.982-1.965h.587l.371 1.105c.032.097.054.21.065.341h.01c.014-.12.039-.234.077-.34l.363-1.106h.575l-.831 2.216a.96.96 0 0 1-.326.46.823.823 0 0 1-.495.154c-.093 0-.184-.01-.273-.03V8.21a.916.916 0 0 0 .211.022.38.38 0 0 0 .25-.087.564.564 0 0 0 .165-.262l.032-.097-.78-1.951zm5.81 1.965h-.62l-.349-1.35a6.572 6.572 0 0 1-.066-.298 3.4 3.4 0 0 1-.053-.303 6.805 6.805 0 0 1-.118.605l-.346 1.346h-.619l-.656-2.57h.536l.33 1.403c.057.259.098.483.124.673.007-.067.023-.17.048-.31.026-.14.05-.249.072-.326l.374-1.44h.515l.374 1.44a7.243 7.243 0 0 1 .118.636c.012-.091.03-.205.056-.342a6.05 6.05 0 0 1 .07-.331l.328-1.403h.536l-.654 2.57zm1.29-.986c0 .194.032.341.096.441.064.1.168.15.312.15.143 0 .246-.05.308-.149.063-.1.094-.246.094-.442 0-.195-.031-.34-.094-.438-.064-.097-.167-.146-.312-.146-.143 0-.246.049-.309.145-.063.097-.095.243-.095.439zm1.359 0c0 .32-.084.57-.253.75-.169.18-.404.271-.705.271a.986.986 0 0 1-.5-.124.825.825 0 0 1-.332-.356 1.196 1.196 0 0 1-.116-.541c0-.321.084-.57.252-.749.167-.178.403-.267.706-.267.19 0 .356.04.5.123.144.082.255.2.332.353.077.154.116.334.116.54zm1.54-1.016c.072 0 .133.005.18.016l-.04.502a.614.614 0 0 0-.158-.017c-.17 0-.304.044-.4.132a.477.477 0 0 0-.143.369v1h-.536V5.835h.406l.08.33h.025a.739.739 0 0 1 .247-.266.609.609 0 0 1 .339-.101zm1.053.933l.233-.299.55-.597h.605l-.78.852.828 1.113h-.619l-.566-.796-.23.184V7.8h-.536V5.065h.536v1.22l-.028.446h.007zm3.088.485c0 .202-.07.355-.21.461-.14.105-.35.158-.628.158-.143 0-.265-.01-.366-.029-.1-.02-.195-.048-.283-.085v-.443c.1.047.212.086.337.118.124.031.234.047.33.047.194 0 .291-.056.291-.169a.14.14 0 0 0-.039-.102.56.56 0 0 0-.133-.09 3.374 3.374 0 0 0-.253-.117 1.59 1.59 0 0 1-.333-.176.495.495 0 0 1-.155-.185.612.612 0 0 1-.048-.258c0-.174.067-.31.203-.405.135-.095.327-.143.575-.143.237 0 .467.051.691.155l-.162.386a2.975 2.975 0 0 0-.276-.103.867.867 0 0 0-.262-.04c-.158 0-.237.042-.237.127 0 .048.026.09.077.125.05.035.162.088.334.157.154.062.267.12.338.174a.515.515 0 0 1 .158.186c.034.07.051.154.051.251zm1.498.62a.652.652 0 0 1-.543-.252h-.028c.018.164.028.259.028.285v.796h-.536v-2.83h.435l.076.255h.025a.62.62 0 0 1 .557-.292c.232 0 .414.09.545.269.131.18.197.428.197.747 0 .21-.031.392-.093.547a.767.767 0 0 1-.262.353.673.673 0 0 1-.401.121zm-.158-1.61c-.133 0-.23.041-.29.123-.061.081-.093.216-.095.403v.058c0 .211.031.362.094.454.062.091.162.137.298.137.24 0 .36-.198.36-.594 0-.194-.03-.339-.089-.435-.059-.097-.152-.145-.278-.145zm2.605 1.574l-.104-.267h-.014a.792.792 0 0 1-.279.236.9.9 0 0 1-.373.066c-.189 0-.337-.054-.446-.162-.108-.107-.162-.26-.162-.46 0-.209.073-.363.218-.462.146-.099.366-.153.66-.164l.342-.01V6.49c0-.199-.102-.298-.306-.298-.157 0-.342.047-.554.142l-.178-.362c.227-.118.477-.178.753-.178.263 0 .466.058.606.173.14.114.211.29.211.523V7.8h-.374zm-.158-.91l-.208.006c-.156.005-.272.033-.348.085-.076.051-.114.13-.114.235 0 .152.086.227.26.227a.412.412 0 0 0 .298-.107.377.377 0 0 0 .112-.285V6.89zm1.882.945c-.612 0-.917-.336-.917-1.007 0-.334.083-.59.25-.766.166-.176.404-.264.715-.264.227 0 .43.044.611.133l-.158.415a2.706 2.706 0 0 0-.235-.083.759.759 0 0 0-.218-.033c-.28 0-.419.198-.419.594 0 .385.14.577.419.577a.954.954 0 0 0 .55-.17v.458a.864.864 0 0 1-.263.115c-.088.02-.2.031-.335.031zm1.867-1.656a.34.34 0 0 0-.267.108.5.5 0 0 0-.111.307h.752a.447.447 0 0 0-.103-.307.351.351 0 0 0-.271-.108zm.076 1.656c-.317 0-.564-.087-.742-.262-.178-.174-.267-.422-.267-.742 0-.329.082-.583.246-.763.165-.18.393-.27.683-.27.278 0 .494.079.649.237.155.158.232.377.232.656v.26h-1.267a.516.516 0 0 0 .135.357.476.476 0 0 0 .355.128 1.474 1.474 0 0 0 .666-.155v.415a1.259 1.259 0 0 1-.3.105 1.895 1.895 0 0 1-.39.034zM183 6l-1.8 1.8-1.8-1.8z"/>
                        </g>
                    </g>
                    <g transform="translate(16.017 264.985)">
                        <path fill="#FAFAFA" d="M0 .6h324v9H0z"/>
                        <path fill="#B3B3B3" d="M295.2 4.8l-.9 1.2-.9-1.2z"/>
                        <text fill="#B3B3B3" font-family="OpenSans-Semibold, Open Sans" font-size="3" font-weight="500">
                            <tspan x="279.84" y="6.6">BROWSE</tspan>
                        </text>
                        <ellipse cx="7.5" cy="5.1" fill="#666" opacity=".229" rx="1.5" ry="1.5"/>
                        <circle cx="18.3" cy="5.1" r="1.5" fill="#666" opacity=".229"/>
                        <circle cx="316.5" cy="5.1" r="1.5" fill="#666" opacity=".229"/>
                        <circle cx="300.3" cy="5.1" r="1.5" fill="#666" opacity=".229"/>
                        <path fill="#666" d="M11.4 3.6h3v3h-3zM309 4.2h4.8V6H309zM303 3.6h4.8v3H303z" opacity=".229"/>
                        <path fill="#E6E6E6" d="M0 0h324v1H0z"/>
                    </g>
                </g>
            </g>
            <path fill="#CDDCE6" d="M390.5 247l-2.01 5.49-5.49 2.008 5.49 2.01L390.5 262l2.008-5.492L398 254.5v-.002l-5.492-2.007-2.006-5.491z"/>
            <path fill="#7D728E" d="M377 219l-1.34 3.66L372 224l3.66 1.34L377 229l1.339-3.661L382 224v-.001l-3.661-1.339L377 219z"/>
            <path fill="#F99D78" d="M436 242l-1.072 2.928L432 246l2.928 1.072L436 250l1.07-2.93L440 246l-2.93-1.072L436 242z"/>
            <path fill="#CDDCE6" d="M43 62l-1.072 2.928L39 66l2.928 1.072L43 70l1.07-2.93L47 66l-2.93-1.072L43 62z"/>
            <path fill="#7D728E" d="M71.5 42l-2.01 5.49L64 49.5l5.49 2.009L71.5 57l2.008-5.492L79 49.5v-.001l-5.492-2.008L71.502 42z"/>
            <path fill="#F99D78" d="M105 77l-1.34 3.66L100 82l3.66 1.34L105 87l1.339-3.661L110 82v-.001l-3.661-1.339L105 77z"/>
            <ellipse cx="227.251" cy="300.863" fill="#6D7F91" rx="9.01" ry="9.011" style="mix-blend-mode:multiply"/>
        </g>
        <g filter="url(#q)" transform="rotate(-29 387.27 169.5)">
            <g transform="rotate(13 -221.97 130.932)">
                <mask id="s" fill="#fff">
                    <use xlink:href="#r"/>
                </mask>
                <use fill="#EDE7E2" xlink:href="#r"/>
                <path fill="#CDC9C5" fill-opacity=".3" d="M177.238 31.712c-.787 5.633-4.358 8.391-10.715 8.274-17.445-.323-43.478 6.258-58.3 12.833-9.882 4.383-37.632 20.531-83.25 48.445l19.553 8.526L189.85 45.5l-12.612-13.788zM-9.678 55.822l66.974-8.76-1.689 1.674-44.68 12.994z" mask="url(#s)" style="mix-blend-mode:multiply"/>
            </g>
            <g transform="rotate(13 -144.101 594.324)">
                <mask id="u" fill="#fff">
                    <use xlink:href="#t"/>
                </mask>
                <use fill="#EDE7E2" xlink:href="#t"/>
                <path fill="#BAB099" d="M32.728 7.906c-1.197-.344-1.982-1.27-1.754-2.068.23-.798 1.386-1.167 2.583-.823 1.197.343 1.982 1.269 1.753 2.067-.228.798-1.385 1.167-2.582.824z" mask="url(#u)"/>
            </g>
            <path fill="#DBD1BF" d="M160.23 60.496l5.638-22.617 1.459.363-5.638 22.618a.752.752 0 1 1-1.46-.364z"/>
            <path fill="#FF6C37" d="M169.57 41.791a4.5 4.5 0 0 1-6.35-.286 4.487 4.487 0 0 1 .287-6.344 4.5 4.5 0 0 1 6.35.288 4.485 4.485 0 0 1-.287 6.342"/>
            <path fill="#F4815B" d="M164.988 37.922a2 2 0 1 1 2.954-2.698 2 2 0 0 1-2.954 2.698z"/>
            <g fill="#F26B3A">
                <path d="M127.1 107.642s6.747-8.815 23.872-1.968c0 0-8.807-9.978-23.019-4.709M98.323 116.24s-7.995 8.405-.6 22.997l-3.147 1.008s-7.75-9.834-.417-25.492"/>
            </g>
            <g transform="rotate(13 -204.733 778.215)">
                <mask id="w" fill="#fff">
                    <use xlink:href="#v"/>
                </mask>
                <g mask="url(#w)">
                    <mask id="y" fill="#fff">
                        <use xlink:href="#x"/>
                    </mask>
                    <use fill="#B3CBD5" xlink:href="#x"/>
                    <ellipse cx="4.925" cy="10.585" fill="#FFF" mask="url(#y)" opacity=".3" rx="1.504" ry="1.504"/>
                    <path fill="#3D545E" fill-opacity=".22" d="M-4.106-1.5c.115-.002.23-.004.347-.004 4.264 0 7.192.79 8.983 2.892 5.864 3.765 9.812 10.825 9.812 18.914 0 12.044-8.751 21.807-19.547 21.807-10.795 0-19.547-9.763-19.547-21.807 0-12.043 8.752-21.806 19.547-21.806.135 0 .27.002.405.005zm0 0c-7.729.205-13.937 7.194-13.937 15.787 0 8.72 3.317 11.424 11.206 11.424 7.889 0 14.284-7.07 14.284-15.79 0-4.008-.7-6.745-2.223-8.533-2.757-1.77-5.938-2.81-9.33-2.887z" mask="url(#y)"/>
                    <ellipse cx="6.785" cy="14.818" fill="#CDDCE6" mask="url(#y)" opacity=".3" rx="3.007" ry="2.256" transform="rotate(-77 6.785 14.818)"/>
                </g>
            </g>
            <g transform="rotate(23 -96.376 249.4)">
                <mask id="A" fill="#fff">
                    <use xlink:href="#z"/>
                </mask>
                <use fill="#F4815B" xlink:href="#z"/>
                <rect width="8.208" height="42.203" x="37.063" y="17.826" fill="#F26B3A" mask="url(#A)" rx="4.104" transform="rotate(44 41.167 38.927)"/>
                <g mask="url(#A)">
                    <ellipse cx="16.871" cy="17.25" fill="#7C2303" opacity=".18" rx="13.191" ry="10.399" transform="rotate(-42.572 30.846 10.136)"/>
                    <g transform="translate(12.664 11.566)">
                        <mask id="C" fill="#fff">
                            <use xlink:href="#B"/>
                        </mask>
                        <use fill="#CDDCE6" transform="rotate(-42.572 12.708 13.263)" xlink:href="#B"/>
                        <g fill="#E7EDF1" mask="url(#C)" opacity=".5">
                            <path d="M12.017 22.943l-1.496-.133 5.983-19.198L18 3.745zM9.025 22.676l-1.496-.133 5.984-19.064h1.496z"/>
                        </g>
                    </g>
                </g>
            </g>
        </g>
    </g>
</svg>
