<svg xmlns="http://www.w3.org/2000/svg" xmlns:xlink="http://www.w3.org/1999/xlink" width="1411" height="925" viewBox="0 0 1411 925">
    <defs>
        <path id="a" d="M0 909h1410.671V.243H0z"/>
        <path id="c" d="M.411 5.791v11.922l43.982 41.518 15.064-29.202L33.707 3.17 9.138.826z"/>
        <path id="e" d="M.411 5.791v11.922l43.982 41.518 15.064-29.202L33.707 3.17 9.138.826z"/>
        <path id="g" d="M.411 5.791v11.922l43.982 41.518 15.064-29.202L33.707 3.17 9.138.826z"/>
        <path id="i" d="M9.701 40.235L.708 92.378a48.25 48.25 0 0 0-.679 6.926c-.627 24.251 16.673 44.366 38.64 44.93l40.443 1.074a36.127 36.127 0 0 0 6.3-.379c21.793-3.235 37.177-25.346 34.361-49.387l-6.175-52.548c-2.79-23.606-20.71-41.389-42.282-41.959L54.154.537c-.358-.01-.713-.014-1.07-.014C31.951.524 13.658 17.182 9.701 40.235"/>
        <path id="k" d="M143.716 67.831a7.092 7.092 0 0 1 3.171 7.457l-1.573 7.373a7.084 7.084 0 0 1-5.963 5.541l-7.166.996a63.416 63.416 0 0 1-39.87 35.421c-33.539 10.097-68.912-8.907-79.009-42.446L6.3 80.335a7.084 7.084 0 0 1-5.236-6.273l-.703-7.434a7.106 7.106 0 0 1 4.043-7.043l6.705-3.169C14.729 24.201 42.075-.089 74.491.116c35.002.222 63.196 28.777 62.974 63.778l6.251 3.937z"/>
        <path id="m" d="M.96 35.816c-1.231 20.836 20.555 44.91 49.091 46.601 28.534 1.69 53.02-19.64 54.253-40.486 1.231-20.836-1.25-37.914-49.457-40.794A185.388 185.388 0 0 0 43.931.793C4.04.794 2.096 16.601.96 35.816z"/>
    </defs>
    <g fill="none" fill-rule="evenodd">
        <path fill="#283E4E" d="M675.035 789.655H319.883c-14.924 0-27.022-12.098-27.022-27.021v-45.5h409.196v45.5c0 14.923-12.098 27.021-27.022 27.021"/>
        <path fill="#325065" d="M0 720h1073V0H0z"/>
        <path fill="#283E4E" d="M70 656h933V65H70z"/>
        <g transform="translate(0 15)">
            <path fill="#59808E" d="M193.27 679.93h-59.794a3.886 3.886 0 0 1-3.875-3.875v-4.71a3.886 3.886 0 0 1 3.875-3.875h59.793a3.887 3.887 0 0 1 3.875 3.875v4.71a3.887 3.887 0 0 1-3.875 3.875M241.671 673.404a6.146 6.146 0 0 1-6.148 6.147 6.147 6.147 0 1 1 0-12.294 6.146 6.146 0 0 1 6.148 6.147M219.898 673.404a6.146 6.146 0 0 1-6.148 6.147 6.147 6.147 0 1 1 0-12.294 6.146 6.146 0 0 1 6.148 6.147M263.916 672.927a6.146 6.146 0 0 1-6.147 6.147 6.147 6.147 0 1 1 0-12.294 6.146 6.146 0 0 1 6.147 6.147"/>
            <path fill="#4D7287" d="M334.446 738.637a6.147 6.147 0 1 1-12.295.001 6.147 6.147 0 0 1 12.295-.001"/>
            <path fill="#59808E" d="M1073.796 513.803v64.104c15.632 0 32.052-14.35 32.052-32.052 0-17.701-16.42-32.052-32.052-32.052"/>
            <path fill="#4D7287" d="M377.009 745.032h-29.425a3.988 3.988 0 0 1-3.976-3.979v-4.832a3.988 3.988 0 0 1 3.976-3.977h29.425a3.988 3.988 0 0 1 3.977 3.976v4.833a3.989 3.989 0 0 1-3.977 3.979M426.847 745.032h-29.424a3.989 3.989 0 0 1-3.977-3.979v-4.832a3.988 3.988 0 0 1 3.977-3.977h29.424a3.988 3.988 0 0 1 3.977 3.976v4.833a3.989 3.989 0 0 1-3.977 3.979"/>
            <path fill="#F26F40" d="M531.226 305.077l-71.926 41.57-5.14-2.992 71.925-41.569z"/>
            <path fill="#D44E27" d="M530.992 222.343l.234 82.734-5.141-2.991-.234-82.733zM459.3 346.647l-5.141-2.991-.234-82.734 5.14 2.99z"/>
            <path fill="#F4815B" d="M459.065 263.912l-5.14-2.99 71.925-41.57 5.141 2.991z"/>
            <path stroke="#8CA6A8" stroke-dasharray="3,6" stroke-linecap="round" stroke-width="2" d="M546.68 247.384l35.032 20.046"/>
            <path fill="#8CA6A8" d="M548.13 243.72l-4.285 6.726-1.232-5.58z"/>
            <path stroke="#8CA6A8" stroke-dasharray="3,6" stroke-linecap="round" stroke-width="2" d="M489.399 348.109l35.033 21.312"/>
            <path fill="#8CA6A8" d="M490.85 344.446l-4.285 6.725-1.232-5.581z"/>
            <path fill="#F99D78" d="M865.609 165.433c-.328 1.622-1.381 5.042-4.556 6.514-.114.053-.11.214.01.25.942.287 3.396 1.426 4.672 5.684.04.136.236.122.262-.016.256-1.424 1.236-4.76 4.854-5.645.13-.032.13-.217.003-.258-1.24-.401-4.171-1.833-4.983-6.521-.026-.148-.233-.154-.262-.008"/>
            <path fill="#8CA6A8" d="M771.224 198.425c-.328 1.622-1.38 5.042-4.557 6.514-.114.053-.11.214.011.25.942.287 3.396 1.426 4.672 5.684.04.136.236.122.262-.016.256-1.424 1.236-4.76 4.853-5.645.131-.032.132-.217.004-.258-1.24-.401-4.172-1.833-4.983-6.521-.026-.148-.233-.154-.262-.008"/>
            <path fill="#5E7C8C" d="M538.89 220.95l-9.197-11.09 27.452-22.808 9.195 11.09z"/>
            <path fill="#5E7C8C" d="M558.55 190.427l-27.636-28.16 11.671-11.477 27.635 28.159z"/>
            <path fill="#5E7C8C" d="M504.859 136.31c1.108 11.414 10.717 20.337 22.41 20.337 11.694 0 21.302-8.923 22.409-20.337h-44.82z"/>
            <path fill="#4D7287" d="M578.225 186.654c0 7.29-5.904 13.2-13.186 13.2s-13.185-5.91-13.185-13.2c0-7.29 5.903-13.198 13.185-13.198 7.282 0 13.186 5.909 13.186 13.198"/>
            <path fill="#C6BAA3" d="M571.775 186.654a6.739 6.739 0 0 1-6.736 6.743 6.739 6.739 0 0 1-6.736-6.743 6.739 6.739 0 0 1 6.736-6.742 6.739 6.739 0 0 1 6.736 6.742"/>
            <path fill="#4D7287" d="M568.336 186.654a3.297 3.297 0 0 1-6.593 0 3.297 3.297 0 1 1 6.593 0M546.483 153.157c0 7.29-5.903 13.2-13.185 13.2-7.282 0-13.185-5.91-13.185-13.2 0-7.288 5.903-13.198 13.185-13.198 7.282 0 13.185 5.91 13.185 13.198"/>
            <path fill="#C6BAA3" d="M540.035 153.157a6.74 6.74 0 0 1-6.736 6.743 6.739 6.739 0 0 1-6.736-6.743 6.739 6.739 0 0 1 6.736-6.742 6.74 6.74 0 0 1 6.736 6.743"/>
            <path fill="#4D7287" d="M536.595 153.157c0 1.823-1.476 3.3-3.297 3.3a3.298 3.298 0 0 1-3.296-3.3 3.298 3.298 0 1 1 6.593 0"/>
            <mask id="b" fill="#fff">
                <use xlink:href="#a"/>
            </mask>
            <path fill="#4D7287" d="M504.334 136.31h45.786v-4.913h-45.786z" mask="url(#b)"/>
            <path fill="#5E7C8C" d="M505.379 222.438c-.034-.565-.642-12.98 8.47-17.638 7.416-3.79 14.322.096 16.936 2.68l-3.666 3.74c-.203-.195-5.03-4.747-10.888-1.753-6.054 3.095-5.32 13.067-5.314 13.17l-5.538-.2zM526.833 242.3c-4.788 0-8.87-1.513-9.168-1.627l1.856-4.899c.095.034 9.827 3.608 14.577-1.259 4.659-4.772 1.601-10.855 1.57-10.915l4.65-2.406c1.688 3.267 3.342 11.023-2.476 16.985-3.13 3.204-7.281 4.121-11.009 4.121" mask="url(#b)"/>
            <path fill="#5E7C8C" d="M533.804 226.57c-3.982 2.999-9.639 2.196-12.632-1.791-2.995-3.985-2.193-9.647 1.79-12.645 3.982-2.998 9.637-2.195 12.632 1.79 2.994 3.989 2.192 9.649-1.79 12.647" mask="url(#b)"/>
            <path fill="#4D7287" d="M531.978 227.944l-10.843-14.435 9.038-6.802 10.843 14.436z" mask="url(#b)"/>
            <path fill="#59808E" d="M534.317 228.22l-12.797-17.037 1.361-1.025 12.797 17.039zM537.004 226.2l-12.797-17.04 1.36-1.025 12.798 17.04zM668.018 131.397H374.487c-5.936 0-10.793-4.856-10.793-10.793 0-5.936 4.857-10.793 10.793-10.793h293.53c5.937 0 10.794 4.857 10.794 10.793 0 5.937-4.857 10.793-10.793 10.793" mask="url(#b)"/>
            <path fill="#E8E0CB" d="M400.648 122.558H381.55a2.32 2.32 0 0 1-2.313-2.313 2.32 2.32 0 0 1 2.313-2.314h19.098a2.32 2.32 0 0 1 2.313 2.314 2.32 2.32 0 0 1-2.313 2.313" mask="url(#b)"/>
            <path fill="#8CA6A8" d="M412.307 120.244a2.312 2.312 0 0 1-2.31 2.313 2.312 2.312 0 0 1 0-4.626 2.312 2.312 0 0 1 2.31 2.313M420.318 120.244a2.312 2.312 0 0 1-2.311 2.313 2.312 2.312 0 0 1 0-4.626 2.312 2.312 0 0 1 2.31 2.313M428.329 120.244a2.312 2.312 0 0 1-2.311 2.313 2.312 2.312 0 0 1 0-4.626 2.312 2.312 0 0 1 2.31 2.313" mask="url(#b)"/>
            <path fill="#E8E0CB" d="M441.718 124.42h-5.127a3.804 3.804 0 0 1 0-7.609h5.127a3.804 3.804 0 1 1 0 7.608M457.432 124.161h-5.127a3.804 3.804 0 1 1 0-7.607h5.127a3.804 3.804 0 1 1 0 7.607" mask="url(#b)"/>
            <path stroke="#8CA6A8" stroke-dasharray="3,6" stroke-linecap="round" stroke-width="2" d="M855.345 127.28H787.75" mask="url(#b)"/>
            <path stroke="#8CA6A8" stroke-linecap="round" stroke-width="2" d="M788.78 122.887v9.593M855.752 122.887v9.593" mask="url(#b)"/>
            <path stroke="#8CA6A8" stroke-dasharray="3,6" stroke-linecap="round" stroke-width="2" d="M855.345 249.288H787.75" mask="url(#b)"/>
            <path stroke="#8CA6A8" stroke-linecap="round" stroke-width="2" d="M788.78 244.896v9.592M855.752 244.896v9.592" mask="url(#b)"/>
            <path fill="#F26F40" d="M549.846 267.43l.145 51.188-44.5 25.718-.146-51.187z" mask="url(#b)"/>
            <path fill="#D44E27" d="M505.49 344.336l-5.14-2.99-.146-51.188 5.141 2.99z" mask="url(#b)"/>
            <path fill="#F4815B" d="M505.346 293.149l-5.141-2.99 44.5-25.72 5.142 2.99z" mask="url(#b)"/>
            <path stroke="#8CA6A8" stroke-dasharray="3,6" stroke-linecap="round" stroke-width="2" d="M269.13 137.907h-96.05" mask="url(#b)"/>
            <path stroke="#8CA6A8" stroke-linecap="round" stroke-width="2" d="M174.545 131.666v13.63M269.71 131.666v13.63" mask="url(#b)"/>
            <path stroke="#8CA6A8" stroke-dasharray="3,6" stroke-linecap="round" stroke-width="2" d="M269.13 326.765h-96.05" mask="url(#b)"/>
            <path stroke="#8CA6A8" stroke-linecap="round" stroke-width="2" d="M173.08 320.25v13.63M269.71 320.524v13.63" mask="url(#b)"/>
            <path fill="#F26F40" d="M265.346 256.357l-78.573 43.8-5.516-3.324 78.573-43.8z" mask="url(#b)"/>
            <path fill="#D44E27" d="M266.478 166.775l-1.132 89.582-5.516-3.324 1.132-89.582zM186.773 300.158l-5.516-3.326 1.133-89.58 5.516 3.323z" mask="url(#b)"/>
            <path fill="#F4815B" d="M187.906 210.575l-5.516-3.324 78.572-43.8 5.516 3.323z" mask="url(#b)"/>
            <path fill="#F26F40" d="M851.42 202.244l-55.592 32.13-3.973-2.312 55.591-32.13z" mask="url(#b)"/>
            <path fill="#D44E27" d="M851.24 138.3l.18 63.944-3.973-2.31-.181-63.947zM795.829 234.374l-3.974-2.312-.181-63.946 3.973 2.312z" mask="url(#b)"/>
            <path fill="#F4815B" d="M795.647 170.428l-3.974-2.312 55.593-32.128 3.974 2.311z" mask="url(#b)"/>
            <path fill="#F26F40" d="M839.542 158.597l.106 37.405-32.52 18.795-.107-37.406z" mask="url(#b)"/>
            <path fill="#D44E27" d="M807.128 214.797l-3.757-2.186-.106-37.406 3.757 2.186z" mask="url(#b)"/>
            <path fill="#F4815B" d="M807.022 177.39l-3.757-2.185 32.52-18.793 3.757 2.185z" mask="url(#b)"/>
            <path fill="#5E7C8C" d="M768 356.211h104.727V282H768z" mask="url(#b)"/>
            <path fill="#ABC1C9" d="M783 347.422h75.074V293H783zM751 282.021h137.801V267H751z" mask="url(#b)"/>
            <g mask="url(#b)">
                <path stroke="#4E687A" stroke-width="2" d="M849.532 307.217H791.87a4.284 4.284 0 0 1-4.271-4.271 4.283 4.283 0 0 1 4.27-4.269h57.663a4.282 4.282 0 0 1 4.27 4.269 4.283 4.283 0 0 1-4.27 4.271z"/>
                <path fill="#F5F8FB" d="M801.029 319.021a6.018 6.018 0 0 1-6.015 6.021 6.017 6.017 0 0 1-6.014-6.021 6.017 6.017 0 0 1 6.014-6.021 6.018 6.018 0 0 1 6.015 6.021"/>
                <path stroke="#4E687A" stroke-width="2" d="M817.476 319.072a6.018 6.018 0 0 1-6.015 6.021 6.017 6.017 0 0 1-6.014-6.02 6.017 6.017 0 0 1 6.014-6.021 6.018 6.018 0 0 1 6.015 6.02z"/>
                <path fill="#4E687A" d="M824.813 324.24a1.625 1.625 0 0 1-1.621-1.621v-7.092c0-.891.729-1.621 1.621-1.621.891 0 1.62.73 1.62 1.62v7.093c0 .892-.729 1.62-1.62 1.62"/>
                <path fill="#F5F8FB" d="M801.028 335.021a6.017 6.017 0 0 1-6.014 6.021 6.017 6.017 0 0 1-6.014-6.021 6.017 6.017 0 0 1 6.014-6.021 6.017 6.017 0 0 1 6.014 6.021"/>
                <path stroke="#4E687A" stroke-width="2" d="M818.158 334.786a6.017 6.017 0 0 1-6.014 6.021 6.017 6.017 0 0 1-6.014-6.02 6.017 6.017 0 0 1 6.014-6.022 6.017 6.017 0 0 1 6.014 6.021z"/>
                <path fill="#4E687A" d="M824.948 339.995c-.892 0-1.62-.729-1.62-1.62v-7.092c0-.892.728-1.62 1.62-1.62.892 0 1.62.728 1.62 1.62v7.091c0 .892-.728 1.621-1.62 1.621M834.486 325.742h5.853v-5.858h-5.853zM844.98 325.597h5.853v-5.858h-5.853zM834.486 334.871h5.853v-5.858h-5.853zM844.98 334.727h5.853v-5.859h-5.853z"/>
            </g>
            <path fill="#A7B5B7" d="M575.67 511.577c-.52 2.564-2.182 7.97-7.202 10.298-.181.084-.175.337.016.394 1.489.454 5.367 2.255 7.385 8.988.065.214.374.192.414-.028.405-2.25 1.955-7.524 7.674-8.923.207-.05.208-.342.005-.408-1.961-.634-6.594-2.897-7.877-10.309-.041-.233-.368-.243-.415-.012" mask="url(#b)"/>
            <path fill="#F99D78" d="M639.508 386.27c-.519 2.564-2.182 7.97-7.203 10.298-.18.084-.174.337.016.395 1.49.453 5.368 2.254 7.386 8.987.065.215.374.193.414-.028.405-2.25 1.955-7.524 7.674-8.923.207-.05.208-.341.005-.407-1.96-.634-6.594-2.898-7.878-10.31-.04-.233-.368-.243-.414-.012M802.178 469.997c-.519 2.564-2.183 7.971-7.203 10.298-.18.084-.174.337.016.395 1.49.453 5.368 2.254 7.386 8.987.065.215.374.193.413-.028.406-2.249 1.956-7.524 7.674-8.923.207-.049.21-.34.006-.407-1.96-.634-6.595-2.898-7.878-10.309-.04-.234-.368-.244-.414-.013" mask="url(#b)"/>
            <path fill="#F26F40" d="M690.235 497.625l-63.017 36.421-4.504-2.62 63.017-36.42z" mask="url(#b)"/>
            <path fill="#D44E27" d="M690.03 425.139l.206 72.486-4.505-2.62-.205-72.486zM627.218 534.046l-4.504-2.62-.205-72.486 4.504 2.62z" mask="url(#b)"/>
            <path fill="#F4815B" d="M627.013 461.56l-4.504-2.62 63.017-36.421 4.504 2.62z" mask="url(#b)"/>
            <path fill="#F26F40" d="M677.415 445.53l.127 44.847-38.988 22.532-.128-44.846z" mask="url(#b)"/>
            <path fill="#D44E27" d="M638.554 512.91l-4.504-2.62-.127-44.848 4.504 2.62z" mask="url(#b)"/>
            <path fill="#F4815B" d="M638.426 468.063l-4.504-2.62 38.99-22.533 4.503 2.62z" mask="url(#b)"/>
            <path fill="#F26F40" d="M701.649 504.043l-63.017 36.42-4.504-2.62 63.017-36.42z" mask="url(#b)"/>
            <path fill="#D44E27" d="M701.443 431.557l.206 72.486-4.505-2.62-.205-72.486zM638.632 540.463l-4.504-2.62-.205-72.485 4.503 2.62z" mask="url(#b)"/>
            <path fill="#F4815B" d="M638.426 467.978l-4.504-2.62 63.017-36.421 4.504 2.62z" mask="url(#b)"/>
            <path fill="#F26F40" d="M688.918 452.187l.126 44.847-38.987 22.533-.128-44.847z" mask="url(#b)"/>
            <path fill="#D44E27" d="M650.056 519.567l-4.504-2.62-.127-44.847 4.504 2.62z" mask="url(#b)"/>
            <path fill="#F4815B" d="M649.93 474.72l-4.505-2.62 38.988-22.533 4.504 2.62z" mask="url(#b)"/>
            <path fill="#F26F40" d="M713.146 510.783l-63.016 36.42-4.505-2.62 63.018-36.42z" mask="url(#b)"/>
            <path fill="#D44E27" d="M712.941 438.297l.205 72.486-4.504-2.62-.205-72.486zM650.13 547.203l-4.505-2.62-.205-72.486 4.504 2.62z" mask="url(#b)"/>
            <path fill="#F4815B" d="M649.924 474.717l-4.504-2.62 63.017-36.42 4.504 2.62z" mask="url(#b)"/>
            <path fill="#F26F40" d="M700.403 458.844l.127 44.847-38.988 22.533-.127-44.847z" mask="url(#b)"/>
            <path fill="#D44E27" d="M661.542 526.224l-4.504-2.62-.127-44.847 4.504 2.62z" mask="url(#b)"/>
            <path fill="#F4815B" d="M661.415 481.377l-4.504-2.62 38.988-22.533 4.504 2.62z" mask="url(#b)"/>
            <path fill="#F26F40" d="M724.644 517.44l-63.017 36.42-4.504-2.62 63.017-36.42z" mask="url(#b)"/>
            <path fill="#D44E27" d="M724.438 444.953l.207 72.486-4.505-2.62-.206-72.486zM661.627 553.86l-4.504-2.62-.205-72.485 4.504 2.62z" mask="url(#b)"/>
            <path fill="#F4815B" d="M661.422 481.374l-4.504-2.62 63.017-36.42 4.504 2.62z" mask="url(#b)"/>
            <path fill="#F26F40" d="M711.916 465.484l.127 44.847-38.989 22.533-.127-44.847z" mask="url(#b)"/>
            <path fill="#D44E27" d="M673.054 532.864l-4.504-2.62-.127-44.848 4.504 2.62z" mask="url(#b)"/>
            <path fill="#F4815B" d="M672.927 488.017l-4.504-2.62 38.988-22.533 4.505 2.62z" mask="url(#b)"/>
            <path fill="#F26F40" d="M736.191 524.107l-63.017 36.42-4.504-2.62 63.017-36.42z" mask="url(#b)"/>
            <path fill="#D44E27" d="M735.986 451.62l.206 72.486-4.505-2.62-.205-72.486zM673.174 560.528l-4.504-2.621-.205-72.485 4.504 2.62z" mask="url(#b)"/>
            <path fill="#F4815B" d="M672.97 488.041l-4.505-2.62 63.017-36.42 4.504 2.62z" mask="url(#b)"/>
            <path fill="#F26F40" d="M723.483 472.338l.127 44.847-38.99 22.534-.126-44.848z" mask="url(#b)"/>
            <path fill="#D44E27" d="M684.621 539.719l-4.504-2.621-.127-44.847 4.504 2.62z" mask="url(#b)"/>
            <path fill="#F4815B" d="M684.494 494.871l-4.504-2.62 38.988-22.533 4.505 2.62z" mask="url(#b)"/>
            <path fill="#F26F40" d="M747.739 530.81l-63.017 36.422-4.504-2.62 63.017-36.421z" mask="url(#b)"/>
            <path fill="#D44E27" d="M747.534 458.325l.205 72.486-4.504-2.62-.205-72.487zM684.722 567.232l-4.504-2.62-.205-72.486 4.504 2.62z" mask="url(#b)"/>
            <path fill="#F4815B" d="M684.517 494.745l-4.504-2.62 63.017-36.42 4.504 2.62z" mask="url(#b)"/>
            <path fill="#F26F40" d="M735.977 479.352l.128 44.848-38.989 22.533-.126-44.848z" mask="url(#b)"/>
            <path fill="#D44E27" d="M697.116 546.733l-4.504-2.62-.127-44.848 4.504 2.62z" mask="url(#b)"/>
            <path fill="#F4815B" d="M696.99 501.885l-4.505-2.62 38.988-22.533 4.504 2.62z" mask="url(#b)"/>
            <path fill="#D44E27" d="M668.67 557.907l-.247-72.486-7.002-4.046.206 72.45zM680.22 564.61l-.246-72.486-7.002-4.047.206 72.45zM657.166 551.248l-.247-72.486-7.002-4.047.206 72.451zM645.677 544.558l-.248-72.485-7.001-4.047.206 72.45zM634.23 537.962l-.308-72.604-6.909-3.798.173 72.32z" mask="url(#b)"/>
            <path fill="#F8AC86" d="M627.013 461.56l63.017-36.421 6.91 3.798-63.018 36.42zM638.426 467.978l63.017-36.421 6.994 4.12-62.975 36.388zM649.93 474.72l63.011-36.423 6.993 4.036-63.024 36.424zM661.415 481.377l63.023-36.424 7.044 4.047-63.059 36.397zM672.927 488.017l63.06-36.396 7.042 4.083-63.017 36.42z" mask="url(#b)"/>
            <path fill="#F26F40" d="M369.37 474.929l.026 9.12-7.93 4.582-.025-9.12z" mask="url(#b)"/>
            <path fill="#90A2A5" d="M361.467 488.631l-67.991-41.02-.026-9.122 67.99 41.022z" mask="url(#b)"/>
            <path fill="#A7BDC1" d="M361.44 479.511l-67.99-41.021 7.928-4.583 67.992 41.022z" mask="url(#b)"/>
            <path fill="#F26F40" d="M377.047 486.18l-70.466 40.727-5.037-2.93 70.466-40.726z" mask="url(#b)"/>
            <path fill="#D44E27" d="M376.817 405.126l.23 81.055-5.037-2.93-.229-81.055zM306.581 526.907l-5.037-2.93-.229-81.054 5.036 2.928z" mask="url(#b)"/>
            <path fill="#F4815B" d="M306.351 445.852l-5.036-2.93 70.466-40.725 5.036 2.929z" mask="url(#b)"/>
            <path fill="#F26F40" d="M361.99 430.855l.134 47.414-41.22 23.823-.134-47.414z" mask="url(#b)"/>
            <path fill="#D44E27" d="M320.904 502.092l-4.762-2.771-.134-47.414 4.762 2.771z" mask="url(#b)"/>
            <path fill="#F4815B" d="M320.77 454.678l-4.762-2.771 41.22-23.822 4.762 2.77z" mask="url(#b)"/>
            <path fill="#F26F40" d="M285.479 438.228h5.175v-5.181h-5.175zM276.782 433.047h5.175v-5.18h-5.175z" mask="url(#b)"/>
            <path stroke="#F26F40" stroke-dasharray="3,6" stroke-linecap="round" stroke-width="2" d="M348.816 553.081l-38.028-22.852" mask="url(#b)"/>
            <path fill="#F26F40" d="M347.179 558.036l5.372-9.039 1.853 7.305zM413.709 501.336l.024 9.12-7.928 4.583-.026-9.12z" mask="url(#b)"/>
            <path fill="#90A2A5" d="M405.806 515.04l-67.991-41.022-.026-9.12 67.99 41.021z" mask="url(#b)"/>
            <path fill="#A7BDC1" d="M405.78 505.92l-67.991-41.022 7.928-4.583 67.992 41.021z" mask="url(#b)"/>
            <path fill="#F26F40" d="M448.277 533.185l-70.467 40.727-5.036-2.931 70.466-40.726z" mask="url(#b)"/>
            <path fill="#D44E27" d="M448.047 452.13l.23 81.055-5.037-2.93-.23-81.055zM377.81 573.911l-5.036-2.93-.23-81.055 5.037 2.93z" mask="url(#b)"/>
            <path fill="#F4815B" d="M377.58 492.856l-5.036-2.93L443.01 449.2l5.036 2.929z" mask="url(#b)"/>
            <path fill="#F26F40" d="M433.22 477.86l.133 47.413-41.219 23.823-.135-47.414z" mask="url(#b)"/>
            <path fill="#D44E27" d="M392.134 549.096l-4.762-2.771-.134-47.413 4.762 2.77z" mask="url(#b)"/>
            <path fill="#F4815B" d="M392 501.682l-4.762-2.77 41.22-23.823 4.761 2.77z" mask="url(#b)"/>
        </g>
        <g transform="translate(410 518)">
            <mask id="d" fill="#fff">
                <use xlink:href="#c"/>
            </mask>
            <path fill="#6A6475" d="M43.438 22.258l.026 9.12-7.93 4.582-.026-9.12z" mask="url(#d)"/>
        </g>
        <g transform="translate(410 518)">
            <mask id="f" fill="#fff">
                <use xlink:href="#e"/>
            </mask>
            <path fill="#90A2A5" d="M35.535 35.96L-32.456-5.06l-.026-9.122 67.99 41.022z" mask="url(#f)"/>
        </g>
        <g transform="translate(410 518)">
            <mask id="h" fill="#fff">
                <use xlink:href="#g"/>
            </mask>
            <path fill="#A7BDC1" d="M35.509 26.84l-67.991-41.02 7.928-4.584 67.992 41.022z" mask="url(#h)"/>
        </g>
        <path fill="#F26F40" d="M464.106 560.979h5.175v-5.18h-5.175zM455.41 555.799h5.175v-5.181h-5.175z"/>
        <path stroke="#F26F40" stroke-dasharray="3,6" stroke-linecap="round" stroke-width="2" d="M460.97 597.86l-38.028-22.852"/>
        <path fill="#F26F40" d="M459.332 602.814l5.372-9.038 1.853 7.304z"/>
        <path fill="#1C272B" fill-opacity=".295" d="M1100.157 578.276l-19.512-206.895c5.787-9.42 8.835-20.694 8.005-32.715-1.768-25.624-21.431-46.66-46.347-50.742l2.208-29.982a11.372 11.372 0 0 0 7.514-4.373c3.829-5.011 2.872-12.175-2.14-16.004-5.008-3.828-12.172-2.871-16 2.14-3.83 5.009-2.872 12.175 2.138 16.003 1.063.81 2.233 1.363 3.437 1.75l-2.201 29.884c-.318-.021-.624-.077-.943-.093-32.158-1.654-58.526 24.077-58.137 55.76a55.19 55.19 0 0 0 1.65 12.672c-.09.028-.187.033-.276.062-1.273-2.823-3.438-5.267-6.373-6.824l-11.533-6.125c-3.78-2.01-8.071-2.148-11.822-.773-.831-3.802-3.252-7.233-6.941-9.192l-9.037-4.8c-6.67-3.54-15.03-.992-18.581 5.664l-9.511 17.827c-3.553 6.656-1.003 14.999 5.664 18.54l9.036 4.799c3.69 1.96 7.896 2.047 11.52.612.952 3.87 3.463 7.344 7.245 9.352l11.534 6.126a14.454 14.454 0 0 0 9.575 1.41c.868 2.664 2.719 5.014 5.378 6.426l15.55 8.259.97-1.593-12.098 175.408c-.474 7.748 5.395 14.439 13.145 14.987l20.167 1.426c6.912.487 13.152-4.1 14.737-10.836l16.725-83.192 17.354 81.595a14.174 14.174 0 0 0 14.999 10.53l20.127-1.84c7.734-.707 13.437-7.518 12.774-15.253"/>
        <path fill="#F26F40" d="M938.68 364.6l2.11-4.403-84.253-38.93-.984 2.054z"/>
        <path fill="#ECE5E0" d="M1054.058 425.418c-8.367 1.378-21.693 2.668-37.666.988-26.409-2.736-65.306-14.382-100.6-54.295-.182-.198-.36-.4-.535-.606-7.486-8.822-6.399-22.089 2.422-29.574a20.951 20.951 0 0 1 10.148-4.704c7.226-1.19 14.656 1.53 19.4 7.097 16.945 19.157 36.456 31.791 57.991 37.554 17.435 4.666 32.281 3.802 41.666 2.255a76.267 76.267 0 0 0 4.103-.787l-.117-.35 3.96-.653 2.96-.91 13.182 39.751-3.37 1.1c-1.309.428-6.152 1.916-13.543 3.133v.001z"/>
        <path fill="#ECE5E0" d="M1061.9 365.74c-7.208-2.29-12.156-3.146-13.5-3.354l-3.497-.54-6.288 41.398 3.05.532 3.826 1.216.055-.366c1.12.29 2.468.669 4.013 1.16 9.066 2.88 22.688 8.847 36.108 20.914 16.576 14.905 28.23 35.017 34.64 59.777 1.7 7.116 7.088 12.91 14.069 15.127a20.948 20.948 0 0 0 11.176.412c11.258-2.67 18.245-13.998 15.578-25.254-.063-.263-.13-.525-.203-.785-13.311-51.482-42.7-79.555-65.011-94.038-13.47-8.735-25.932-13.631-34.015-16.198"/>
        <path fill="#EDE7E2" d="M1119.159 593.977l-13.19-151.388-3.36-28.594c-2.791-23.607-20.715-41.39-42.292-41.96l-17.165-.498c-21.59-.575-40.437 16.254-44.461 39.697l-23.73 183.529c-2.341 13.773 6.925 26.836 20.697 29.178 13.773 2.343 26.837-6.924 29.179-20.696l13.474-74.03a10.022 10.022 0 0 1 9.916-7.32 10.021 10.021 0 0 1 9.513 7.837l11.163 70.067c1.608 13.877 14.16 23.824 28.039 22.217 13.877-1.607 23.824-14.161 22.217-28.04"/>
        <path fill="#FF6C37" d="M1071.886 410l10.236.272a4.185 4.185 0 0 1 4.071 4.292l-.273 10.237a4.182 4.182 0 0 1-4.292 4.07l-10.236-.27a4.183 4.183 0 0 1-4.07-4.294l.271-10.237a4.184 4.184 0 0 1 4.293-4.07"/>
        <g transform="translate(989 371)">
            <mask id="j" fill="#fff">
                <use xlink:href="#i"/>
            </mask>
            <path fill="#CBC6C1" d="M65.65-96.508c32.79.871 58.62 29.946 57.69 64.942-.93 34.996-28.265 62.66-61.057 61.788C29.49 29.352 3.662.275 4.59-34.72 5.52-69.716 32.858-97.38 65.65-96.508" mask="url(#j)"/>
        </g>
        <g>
            <path fill="#726B65" d="M1053.244 282.496l1.445-24.387 5.804.344-1.445 24.387zM993.716 353.529l-8.416-2.193a7.086 7.086 0 0 1-5.259-6.21l-.703-7.434a7.106 7.106 0 0 1 4.044-7.075l7.863-3.721 2.471 26.633zM1109.793 360.404l8.559-1.19a7.085 7.085 0 0 0 5.961-5.542l1.574-7.373a7.097 7.097 0 0 0-3.17-7.5l-7.293-4.59-5.631 26.195z"/>
            <path fill="#ECE5E0" d="M1054.728 271.538c34.996.93 62.611 30.054 61.682 65.05-.93 34.995-30.053 62.61-65.049 61.68-34.995-.929-62.612-30.052-61.682-65.048.93-34.995 30.054-62.612 65.049-61.682"/>
            <path fill="#EF6A37" d="M1058.246 242.003a9.309 9.309 0 1 1-.496 18.611 9.309 9.309 0 0 1 .496-18.61"/>
            <path fill="#FFF" fill-opacity=".3" d="M1058.5 243.599c1.427.038 2.564.77 2.542 1.636-.023.865-1.198 1.536-2.625 1.498-1.426-.038-2.563-.771-2.541-1.636.023-.865 1.198-1.536 2.625-1.498"/>
            <path fill="#DF5B36" d="M1058.02 256.88a11.296 11.296 0 0 1-9.311-5.988c-.207 5.131 3.786 9.457 8.916 9.663a9.299 9.299 0 0 0 9.489-7.458 11.286 11.286 0 0 1-9.094 3.783"/>
            <g transform="translate(979 271)">
                <mask id="l" fill="#fff">
                    <use xlink:href="#k"/>
                </mask>
                <path fill="#ECE5E0" d="M148.894 68.72s-71.053 46.84-152.23-.865l5.334 72.333 168.894-22.663-21.998-48.804z" mask="url(#l)"/>
            </g>
            <path fill="#B2CAD4" d="M1104.303 344.93c-1.232 20.847-25.718 42.177-54.253 40.486-28.535-1.69-50.32-25.763-49.09-46.6 1.232-20.835 3.405-37.662 53.887-34.68 48.207 2.88 50.687 19.959 49.456 40.795"/>
            <path fill="#EFF3F7" d="M1026.977 317.707c3.257-2.985-.93-8.499-5.03-6.839-12.182 4.75-15.257 16.035-16.014 28.578-.444 7.563 2.467 15.595 7.778 22.601a1.21 1.21 0 0 0 1.69.258c.391-.289.572-.786.456-1.26-3.442-15.579-3.213-30.159 11.12-43.338"/>
        </g>
        <g transform="translate(1000 303)">
            <mask id="n" fill="#fff">
                <use xlink:href="#m"/>
            </mask>
            <path fill="#A2B9C7" d="M101.591 14.423S99.788 92.223 10.9 69.63L-19 108.155l168.894-22.662-48.302-71.07z" mask="url(#n)"/>
        </g>
        <g>
            <path fill="#3D545E" d="M1070.437 324.486c.071.254.122.49.191.743a4.954 4.954 0 0 0-.186-.732l-.005-.011"/>
            <path fill="#564871" d="M950.955 797.991h156.887v-12.867H950.955z"/>
            <path fill="#1C272B" fill-opacity=".3" d="M1297.452 599.272H742.254c-11.21 0-20.294 9.086-20.294 20.294s9.085 20.294 20.294 20.294h9.165v97.309c0 18.419 14.93 33.35 33.35 33.35h463.873c18.419 0 33.35-14.931 33.35-33.35v-97.31h15.46c11.208 0 20.294-9.085 20.294-20.293 0-11.208-9.086-20.294-20.294-20.294"/>
            <path fill="#E8E0CB" d="M1011.253 663.331c.86 4.245 3.616 13.194 11.936 17.048.3.14.29.557-.027.653-2.467.751-8.894 3.733-12.239 14.878-.107.356-.619.32-.686-.045-.67-3.724-3.24-12.457-12.717-14.77-.342-.085-.345-.569-.009-.677 3.25-1.05 10.93-4.797 13.055-17.067.067-.386.61-.404.687-.02"/>
            <path fill="#564871" d="M1286.887 632.389v99.886c0 18.419-14.932 33.349-33.35 33.349H789.662c-18.419 0-33.35-14.93-33.35-33.35V632.39h530.574z"/>
            <path fill="#493E5E" d="M747.148 594.377h555.198c11.209 0 20.295 9.086 20.295 20.294s-9.087 20.294-20.295 20.294H747.149c-11.208 0-20.293-9.086-20.293-20.294s9.085-20.294 20.293-20.294"/>
            <path fill="#7D728E" d="M883.023 742.36h140.913v-93.516H883.023z"/>
            <path fill="#493E5E" d="M901.223 660.985h101.221c5.06 0 9.201 4.14 9.201 9.2 0 5.063-4.14 9.203-9.2 9.203H901.222c-5.062 0-9.202-4.14-9.202-9.202 0-5.06 4.14-9.201 9.202-9.201"/>
            <path fill="#F99D78" d="M993.122 695.254h9.219v-9.22h-9.219z"/>
            <path fill="#493E5E" d="M993.122 712.073h9.219v-9.22h-9.219zM993.122 728.89h9.219v-9.219h-9.219zM977.759 695.254h9.219v-9.22h-9.219zM977.759 712.073h9.219v-9.22h-9.219z"/>
            <path fill="#F99D78" d="M977.759 728.89h9.219v-9.219h-9.219z"/>
            <path fill="#493E5E" d="M962.397 695.254h9.219v-9.22h-9.219zM962.397 712.073h9.219v-9.22h-9.219zM962.397 728.89h9.219v-9.219h-9.219zM947.341 695.254h9.219v-9.22h-9.219z"/>
            <path fill="#F99D78" d="M947.341 712.073h9.219v-9.22h-9.219z"/>
            <path fill="#493E5E" d="M947.341 728.89h9.219v-9.219h-9.219zM931.979 695.254h9.219v-9.22h-9.219zM931.979 712.073h9.219v-9.22h-9.219zM931.979 728.89h9.219v-9.219h-9.219zM901.326 695.055h9.219v-9.219h-9.219z"/>
            <path fill="#F99D78" d="M901.326 711.873h9.219v-9.219h-9.219z"/>
            <path fill="#493E5E" d="M901.326 728.692h9.219v-9.22h-9.219z"/>
            <path fill="#F99D78" d="M916.617 695.254h9.219v-9.22h-9.219z"/>
            <path fill="#493E5E" d="M916.617 712.073h9.219v-9.22h-9.219zM916.617 728.89h9.219v-9.219h-9.219z"/>
            <path fill="#7D728E" d="M1046.793 648.844h15.764c3.922 0 7.13 3.209 7.13 7.13v82.574c0 3.922-3.208 7.13-7.13 7.13h-15.764c-3.921 0-7.13-3.208-7.13-7.13v-82.574c0-3.921 3.208-7.13 7.13-7.13"/>
            <path fill="#F99D78" d="M1047.698 670.226a6.818 6.818 0 0 0 6.818 6.818 6.818 6.818 0 1 0 0-13.637 6.819 6.819 0 0 0-6.818 6.819"/>
            <path fill="#493E5E" d="M1047.909 695.73a6.818 6.818 0 0 0 6.819 6.819 6.818 6.818 0 1 0 0-13.637 6.819 6.819 0 0 0-6.82 6.819M1048.12 721.236a6.818 6.818 0 0 0 6.819 6.818 6.818 6.818 0 1 0 0-13.637 6.819 6.819 0 0 0-6.818 6.819"/>
            <path fill="#7D728E" d="M1086.377 648.844h15.764c3.921 0 7.13 3.209 7.13 7.13v82.574c0 3.922-3.209 7.13-7.13 7.13h-15.764c-3.922 0-7.13-3.208-7.13-7.13v-82.574c0-3.921 3.208-7.13 7.13-7.13"/>
            <path fill="#493E5E" d="M1087.282 670.226a6.818 6.818 0 0 0 6.819 6.818 6.818 6.818 0 1 0 0-13.637 6.819 6.819 0 0 0-6.82 6.819"/>
            <path fill="#F99D78" d="M1087.494 695.73a6.818 6.818 0 0 0 6.818 6.819 6.818 6.818 0 1 0 0-13.637 6.819 6.819 0 0 0-6.818 6.819"/>
            <path fill="#493E5E" d="M1087.705 721.236a6.818 6.818 0 0 0 6.819 6.818 6.818 6.818 0 1 0 0-13.637 6.819 6.819 0 0 0-6.82 6.819"/>
            <path fill="#7D728E" d="M1127.108 747.1h14.507c4.267 0 7.758-3.49 7.758-7.757v-81.317c0-4.268-3.491-7.76-7.758-7.76h-14.507c-4.267 0-7.758 3.492-7.758 7.76v81.317c0 4.267 3.49 7.758 7.758 7.758"/>
            <path fill="#493E5E" d="M1127.384 671.649a6.819 6.819 0 1 0 13.638 0 6.819 6.819 0 0 0-13.638 0M1127.595 697.154a6.82 6.82 0 1 0 13.64-.002 6.82 6.82 0 0 0-13.64.002"/>
            <path fill="#F99D78" d="M1127.807 722.658a6.819 6.819 0 1 0 13.638 0 6.819 6.819 0 0 0-13.638 0"/>
            <path fill="#7D728E" d="M1166.064 650.267h15.764c3.922 0 7.13 3.209 7.13 7.13v82.574c0 3.922-3.208 7.13-7.13 7.13h-15.764c-3.921 0-7.13-3.208-7.13-7.13v-82.574c0-3.921 3.209-7.13 7.13-7.13"/>
            <path fill="#F99D78" d="M1166.968 671.649a6.82 6.82 0 1 0 13.64-.002 6.82 6.82 0 0 0-13.64.002"/>
            <path fill="#493E5E" d="M1167.18 697.154a6.819 6.819 0 1 0 13.638 0 6.819 6.819 0 0 0-13.638 0M1167.391 722.658a6.82 6.82 0 1 0 13.64-.001 6.82 6.82 0 0 0-13.64.001M921.153 785.362h210.093v-20.547H921.153z"/>
            <path fill="#FF6C37" d="M1000.904 865.531L1034.712 913a.727.727 0 0 0 1.181.007l34.347-47.079c13.91-19.068 9.73-45.802-9.338-59.713-19.067-13.91-45.802-9.73-59.713 9.337-11.112 15.234-10.63 35.408-.285 49.98"/>
            <path fill="#F99D78" d="M1013.17 844.16l22.106 31.042a.475.475 0 0 0 .773.005l22.461-30.787c9.097-12.47 6.362-29.951-6.107-39.048-12.468-9.097-29.95-6.363-39.047 6.105-7.268 9.962-6.953 23.155-.187 32.684"/>
            <path fill="#F7E3B1" d="M1023.907 826.84l12.436 17.46a.266.266 0 0 0 .373.062.264.264 0 0 0 .061-.06l12.634-17.316c5.116-7.014 3.58-16.847-3.435-21.964-7.013-5.117-16.847-3.58-21.964 3.434-4.087 5.604-3.91 13.025-.105 18.384"/>
        </g>
    </g>
</svg>
