<svg width="195" height="220" viewBox="0 0 195 220" fill="none" xmlns="http://www.w3.org/2000/svg">
<rect width="195" height="220" fill="white"/>
<line x1="18.5" y1="192" x2="18.5" y2="20" stroke="black" stroke-width="3"/>
<line x1="134.5" y1="192" x2="134.5" y2="20" stroke="black" stroke-width="3"/>
<path d="M128.835 53.5871C129.061 53.4287 129.116 53.1169 128.958 52.8907L126.377 49.2045C126.218 48.9783 125.907 48.9234 125.68 49.0818C125.454 49.2401 125.399 49.5519 125.558 49.7781L127.852 53.0547L124.575 55.349C124.349 55.5074 124.294 55.8192 124.453 56.0454C124.611 56.2716 124.923 56.3266 125.149 56.1682L128.835 53.5871ZM24.3649 35.3149L128.461 53.6699L128.635 52.6851L24.5385 34.3301L24.3649 35.3149Z" fill="black"/>
<path d="M128.835 179.587C129.061 179.429 129.116 179.117 128.958 178.891L126.377 175.205C126.218 174.978 125.907 174.923 125.68 175.082C125.454 175.24 125.399 175.552 125.558 175.778L127.852 179.055L124.575 181.349C124.349 181.507 124.294 181.819 124.453 182.045C124.611 182.272 124.923 182.327 125.149 182.168L128.835 179.587ZM24.3649 161.315L128.461 179.67L128.635 178.685L24.5385 160.33L24.3649 161.315Z" fill="black"/>
<path d="M22.7866 152.118C22.7626 152.393 22.9661 152.635 23.2411 152.659L27.724 153.051C27.9991 153.076 28.2416 152.872 28.2657 152.597C28.2898 152.322 28.0863 152.079 27.8112 152.055L23.8264 151.707L24.175 147.722C24.1991 147.447 23.9956 147.204 23.7205 147.18C23.4454 147.156 23.2029 147.36 23.1788 147.635L22.7866 152.118ZM129.38 62.4837L22.9633 151.778L23.6061 152.544L130.023 63.2498L129.38 62.4837Z" fill="black"/>
<path d="M71.9831 37.5517C72.0408 37.2247 71.9695 36.9543 71.7692 36.7405C71.5696 36.5228 71.1867 36.2649 70.6205 35.9667C70.0549 35.6647 69.6138 35.3886 69.2969 35.1384C68.4338 34.4547 68.0792 33.6762 68.2332 32.8029C68.3132 32.349 68.5114 31.9675 68.8277 31.6583C69.1485 31.346 69.5651 31.1319 70.0774 31.016C70.5935 30.9007 71.1497 30.8957 71.746 31.0008C72.3461 31.1066 72.8615 31.3105 73.2921 31.6126C73.7235 31.9107 74.0331 32.2807 74.221 32.7223C74.4127 33.1647 74.4641 33.6379 74.3753 34.1418L72.6442 33.8366C72.712 33.4519 72.6434 33.1324 72.4383 32.8781C72.234 32.6199 71.9125 32.4521 71.474 32.3748C71.0508 32.3002 70.7059 32.3326 70.4394 32.472C70.1735 32.6076 70.0148 32.8216 69.9633 33.114C69.9151 33.3871 70.0113 33.6401 70.2519 33.8729C70.4963 34.1064 70.8716 34.351 71.3779 34.6069C72.3105 35.0767 72.9631 35.5706 73.3359 36.0885C73.7086 36.6065 73.8374 37.1924 73.722 37.8464C73.5938 38.5734 73.2181 39.0962 72.5947 39.4147C71.972 39.7293 71.1952 39.8045 70.2642 39.6404C69.618 39.5264 69.0501 39.3053 68.5606 38.977C68.0718 38.6449 67.7232 38.2483 67.515 37.7872C67.3106 37.3267 67.2562 36.8253 67.3519 36.2828L69.0887 36.5891C68.9253 37.5162 69.3975 38.0774 70.5054 38.2728C70.917 38.3454 71.2528 38.3193 71.5128 38.1946C71.7734 38.066 71.9302 37.8517 71.9831 37.5517ZM78.2192 36.1642L80.6351 32.6872L82.5277 33.0209L78.8253 37.8894L78.2881 40.9362L76.5281 40.6259L77.0653 37.5791L75.2513 31.7379L77.1498 32.0726L78.2192 36.1642ZM88.6459 42.7626L86.9148 42.4573L84.5196 36.3351L83.5449 41.8631L81.8138 41.5579L83.2952 33.1562L85.0263 33.4615L87.4252 39.5962L88.402 34.0567L90.1273 34.3609L88.6459 42.7626Z" fill="black"/>
<path d="M71.2863 164.093L68.2511 163.558L67.3688 165.187L65.5281 164.863L70.1371 157.012L71.7412 157.295L73.4046 166.251L71.5639 165.927L71.2863 164.093ZM68.9658 162.238L71.0662 162.608L70.5647 159.277L68.9658 162.238ZM81.1514 164.732C80.9266 165.624 80.4665 166.277 79.7709 166.69C79.0792 167.103 78.241 167.223 77.2562 167.05C76.1791 166.86 75.3946 166.348 74.9027 165.516C74.4154 164.68 74.2834 163.63 74.5065 162.364L74.5971 161.851C74.7395 161.043 75.0074 160.356 75.4006 159.791C75.7938 159.226 76.2827 158.826 76.8674 158.592C77.4566 158.355 78.1013 158.298 78.8014 158.421C79.7708 158.592 80.506 158.989 81.0068 159.613C81.5077 160.237 81.7215 161.026 81.6483 161.981L79.9172 161.676C79.9705 161.126 79.8878 160.707 79.6689 160.419C79.4546 160.127 79.082 159.934 78.5511 159.841C77.9741 159.739 77.5047 159.87 77.1429 160.235C76.7856 160.596 76.5265 161.211 76.3655 162.079L76.2536 162.714C76.0935 163.622 76.1131 164.309 76.3123 164.777C76.5153 165.245 76.913 165.531 77.5055 165.636C78.0402 165.73 78.4597 165.679 78.764 165.483C79.0729 165.283 79.2916 164.931 79.4203 164.427L81.1514 164.732ZM85.0202 164.825L83.9491 165.636L83.5258 168.036L81.7947 167.731L83.2762 159.329L85.0073 159.634L84.3357 163.443L85.2816 162.533L87.9098 160.146L90.039 160.522L86.3974 163.729L88.6441 168.939L86.5841 168.575L85.0202 164.825Z" fill="black"/>
<path d="M56.0379 116.456C55.8245 116.202 55.5715 116.083 55.2789 116.099C54.9839 116.112 54.5402 116.239 53.9478 116.481C53.353 116.721 52.8579 116.881 52.4625 116.963C51.384 117.185 50.5597 116.956 49.9897 116.277C49.6935 115.923 49.5286 115.526 49.4951 115.085C49.462 114.639 49.5658 114.182 49.8062 113.715C50.0497 113.246 50.4034 112.816 50.8672 112.427C51.334 112.036 51.8215 111.772 52.3297 111.636C52.8354 111.497 53.3178 111.498 53.7769 111.638C54.239 111.775 54.6345 112.04 54.9634 112.432L53.6168 113.562C53.3658 113.263 53.0769 113.11 52.7503 113.104C52.4212 113.094 52.086 113.233 51.7449 113.519C51.4157 113.795 51.2189 114.08 51.1544 114.374C51.0873 114.665 51.1492 114.924 51.3401 115.151C51.5183 115.364 51.774 115.453 52.1069 115.418C52.4429 115.381 52.8716 115.25 53.393 115.027C54.3524 114.615 55.1502 114.432 55.7866 114.48C56.4229 114.527 56.9545 114.805 57.3814 115.314C57.856 115.879 58.0149 116.503 57.8581 117.185C57.6989 117.865 57.2572 118.508 56.533 119.116C56.0303 119.538 55.4959 119.83 54.9298 119.994C54.3612 120.155 53.8333 120.167 53.3462 120.031C52.8621 119.891 52.443 119.61 52.089 119.189L53.44 118.055C54.0452 118.776 54.7786 118.775 55.6404 118.052C55.9606 117.783 56.1565 117.509 56.2281 117.23C56.2971 116.948 56.2337 116.69 56.0379 116.456ZM58.9835 110.787L57.8728 106.702L59.3451 105.466L60.6947 111.432L62.6833 113.802L61.3143 114.951L59.3257 112.581L53.685 110.216L55.1617 108.977L58.9835 110.787ZM70.7403 107.041L69.3937 108.171L63.1642 106.071L66.7724 110.371L65.4258 111.501L59.942 104.965L61.2886 103.836L67.5301 105.941L63.9144 101.632L65.2565 100.506L70.7403 107.041ZM73.6674 98.3515L75.2878 96.9918L76.2708 98.1633L74.6504 99.523L76.1871 101.354L74.9527 102.39L73.4161 100.559L71.7912 101.922L70.8082 100.751L72.433 99.3872L70.9604 97.6322L72.1948 96.5965L73.6674 98.3515ZM84.0724 93.5598L81.7115 95.5409L82.3925 97.2641L80.9607 98.4655L77.9097 89.8889L79.1575 88.8418L87.0875 93.3245L85.6557 94.5259L84.0724 93.5598ZM81.1598 94.1451L82.7936 92.7741L79.9196 91.0171L81.1598 94.1451ZM90.903 86.4133C91.4421 87.1591 91.6463 87.9312 91.5155 88.7294C91.3876 89.525 90.9407 90.2443 90.1747 90.887C89.3368 91.5901 88.441 91.8625 87.4871 91.7041C86.5338 91.5403 85.6441 90.9662 84.818 89.9817L84.4828 89.5822C83.9555 88.9538 83.6017 88.3073 83.4214 87.6427C83.2411 86.9782 83.2492 86.3467 83.4458 85.7484C83.6428 85.1445 84.0136 84.6141 84.5582 84.1571C85.3123 83.5244 86.0892 83.2166 86.889 83.2339C87.6888 83.2512 88.4309 83.5948 89.1154 84.2647L87.7688 85.3946C87.3819 85.0003 87.0076 84.7942 86.6459 84.7765C86.2847 84.7532 85.8976 84.9148 85.4847 85.2613C85.0358 85.6379 84.8348 86.082 84.8815 86.5935C84.9288 87.0995 85.2331 87.6931 85.7946 88.3744L86.2089 88.8682C86.8015 89.5743 87.3408 90.0014 87.827 90.1493C88.3161 90.2947 88.7911 90.174 89.2519 89.7873C89.6679 89.4383 89.8985 89.0842 89.9438 88.7249C89.9895 88.3602 89.8604 87.9662 89.5564 87.5432L90.903 86.4133ZM93.4611 83.5095L93.3936 84.8511L94.9604 86.7183L93.6139 87.8482L88.1301 81.3129L89.4766 80.183L91.9624 83.1455L91.8732 81.8359L91.7344 78.2885L93.3907 76.8988L93.5069 81.7501L98.9418 83.3776L97.3394 84.7222L93.4611 83.5095Z" fill="black"/>
<path d="M9.70801 13.7344C9.57129 14.4701 9.23763 15.0527 8.70703 15.4824C8.17969 15.9121 7.54655 16.1172 6.80762 16.0977C6.36816 16.0879 5.98405 15.9805 5.65527 15.7754C5.3265 15.5671 5.07096 15.2692 4.88867 14.8818C4.70638 14.4912 4.60547 14.0599 4.58594 13.5879C4.57292 13.321 4.58431 13.0605 4.62012 12.8066L4.70312 12.2207C4.85612 11.153 5.23047 10.3115 5.82617 9.69629C6.42513 9.0778 7.15267 8.77669 8.00879 8.79297C8.67611 8.80599 9.20508 9.02246 9.5957 9.44238C9.98633 9.85905 10.193 10.4385 10.2158 11.1807H9.30273C9.26042 10.1846 8.86979 9.64746 8.13086 9.56934L7.96973 9.55957C7.35449 9.54329 6.84017 9.77279 6.42676 10.248C6.0166 10.7201 5.7513 11.3662 5.63086 12.1865L5.52344 12.9238L5.49414 13.3535C5.47461 13.9525 5.5804 14.4294 5.81152 14.7842C6.0459 15.1357 6.39258 15.318 6.85156 15.3311C7.34635 15.3473 7.75488 15.2285 8.07715 14.9746C8.40267 14.7207 8.65007 14.3122 8.81934 13.749L9.70801 13.7344ZM11.4756 16H10.5967L11.8955 8.5H12.7793L11.4756 16ZM13.8779 16H12.999L13.917 10.7168H14.7959L13.8779 16ZM14.6055 8.78809C14.7552 8.78158 14.8789 8.82715 14.9766 8.9248C15.0775 9.01921 15.1279 9.14453 15.1279 9.30078C15.1247 9.45378 15.0742 9.5791 14.9766 9.67676C14.8822 9.77441 14.7585 9.8265 14.6055 9.83301C14.4525 9.83952 14.3271 9.79557 14.2295 9.70117C14.1318 9.60677 14.0846 9.48307 14.0879 9.33008C14.0911 9.17708 14.14 9.05013 14.2344 8.94922C14.3288 8.84831 14.4525 8.7946 14.6055 8.78809ZM17.6084 16.0977C16.9508 16.0846 16.4365 15.8421 16.0654 15.3701C15.6943 14.8981 15.5381 14.2943 15.5967 13.5586L15.6211 13.3486C15.6764 12.8245 15.8311 12.346 16.085 11.9131C16.3421 11.4801 16.6546 11.1546 17.0225 10.9365C17.3903 10.7152 17.7874 10.6094 18.2139 10.6191C18.7575 10.6322 19.1839 10.8128 19.4932 11.1611C19.8024 11.5094 19.9717 11.9814 20.001 12.5771C20.0107 12.7887 20.0042 13.0003 19.9814 13.2119L19.9277 13.6172H16.4756C16.417 14.0957 16.4951 14.5026 16.71 14.8379C16.9281 15.1732 17.252 15.3473 17.6816 15.3604C18.2025 15.3734 18.6842 15.139 19.127 14.6572L19.6348 15.0869C19.4134 15.4059 19.127 15.6566 18.7754 15.8389C18.4271 16.0179 18.0381 16.1042 17.6084 16.0977ZM18.1699 11.3564C17.8053 11.3467 17.4863 11.4704 17.2129 11.7275C16.9427 11.9847 16.7279 12.3672 16.5684 12.875L19.1367 12.8799L19.1562 12.8018C19.2083 12.3916 19.1416 12.0514 18.9561 11.7812C18.7738 11.5078 18.5117 11.3662 18.1699 11.3564ZM22.2617 10.7119L22.1348 11.3809C22.61 10.86 23.1504 10.6061 23.7559 10.6191C24.2539 10.6322 24.6217 10.8047 24.8594 11.1367C25.097 11.4688 25.1849 11.9359 25.123 12.5381L24.5469 16H23.6631L24.2441 12.5234C24.2637 12.3639 24.2653 12.2158 24.249 12.0791C24.1937 11.6234 23.9251 11.3906 23.4434 11.3809C22.9128 11.3711 22.4473 11.6543 22.0469 12.2305L21.3926 16H20.5088L21.4268 10.7168L22.2617 10.7119ZM28.2432 9.4375L28.0186 10.7168H28.9805L28.8584 11.415H27.9014L27.3496 14.7012C27.3398 14.7858 27.3382 14.8639 27.3447 14.9355C27.3675 15.1895 27.5059 15.3164 27.7598 15.3164C27.8672 15.3164 28.0104 15.3001 28.1895 15.2676L28.1211 16.0049C27.9095 16.0635 27.6947 16.0928 27.4766 16.0928C27.125 16.0863 26.8613 15.9577 26.6855 15.707C26.5098 15.4531 26.4414 15.113 26.4805 14.6865L27.0176 11.415H26.085L26.207 10.7168H27.1396L27.3643 9.4375H28.2432Z" fill="black"/>
<path d="M126.282 14.1689C126.354 13.6481 126.084 13.2673 125.472 13.0264L124.627 12.7188L124.344 12.5967C123.393 12.1637 122.949 11.555 123.011 10.7705C123.043 10.3766 123.178 10.0283 123.416 9.72559C123.654 9.42285 123.968 9.1901 124.358 9.02734C124.752 8.86133 125.171 8.7832 125.613 8.79297C126.043 8.80273 126.425 8.89876 126.761 9.08105C127.099 9.26335 127.356 9.51888 127.532 9.84766C127.708 10.1732 127.786 10.541 127.767 10.9512L126.844 10.9463C126.876 10.5101 126.779 10.1732 126.551 9.93555C126.323 9.69466 125.997 9.57096 125.574 9.56445C125.128 9.55794 124.756 9.66211 124.456 9.87695C124.157 10.0918 123.984 10.3848 123.938 10.7559C123.873 11.2409 124.171 11.6087 124.832 11.8594L125.56 12.1182L125.926 12.2744C126.844 12.6976 127.269 13.3258 127.2 14.1592C127.164 14.5596 127.029 14.9062 126.795 15.1992C126.561 15.4889 126.242 15.7135 125.838 15.873C125.438 16.0326 125.006 16.1074 124.544 16.0977C124.098 16.0944 123.689 16 123.318 15.8145C122.951 15.6257 122.671 15.3685 122.479 15.043C122.286 14.7174 122.202 14.348 122.225 13.9346L123.143 13.9395C123.113 14.3626 123.227 14.6995 123.484 14.9502C123.745 15.1976 124.111 15.3245 124.583 15.3311C125.055 15.3376 125.444 15.235 125.75 15.0234C126.056 14.8118 126.233 14.527 126.282 14.1689ZM130.247 16.0977C129.59 16.0846 129.075 15.8421 128.704 15.3701C128.333 14.8981 128.177 14.2943 128.235 13.5586L128.26 13.3486C128.315 12.8245 128.47 12.346 128.724 11.9131C128.981 11.4801 129.293 11.1546 129.661 10.9365C130.029 10.7152 130.426 10.6094 130.853 10.6191C131.396 10.6322 131.823 10.8128 132.132 11.1611C132.441 11.5094 132.61 11.9814 132.64 12.5771C132.649 12.7887 132.643 13.0003 132.62 13.2119L132.566 13.6172H129.114C129.056 14.0957 129.134 14.5026 129.349 14.8379C129.567 15.1732 129.891 15.3473 130.32 15.3604C130.841 15.3734 131.323 15.139 131.766 14.6572L132.273 15.0869C132.052 15.4059 131.766 15.6566 131.414 15.8389C131.066 16.0179 130.677 16.1042 130.247 16.0977ZM130.809 11.3564C130.444 11.3467 130.125 11.4704 129.852 11.7275C129.581 11.9847 129.367 12.3672 129.207 12.875L131.775 12.8799L131.795 12.8018C131.847 12.3916 131.78 12.0514 131.595 11.7812C131.412 11.5078 131.15 11.3662 130.809 11.3564ZM136.434 11.5225L136.019 11.4785C135.452 11.4785 135.006 11.734 134.681 12.2451L134.031 16H133.147L134.065 10.7168L134.92 10.7119L134.788 11.3271C135.162 10.8356 135.604 10.5964 136.111 10.6094C136.219 10.6094 136.359 10.6338 136.531 10.6826L136.434 11.5225ZM138.484 14.7646L140.389 10.7168H141.321L138.66 16H137.986L136.951 10.7168H137.82L138.484 14.7646ZM143.528 16.0977C142.871 16.0846 142.356 15.8421 141.985 15.3701C141.614 14.8981 141.458 14.2943 141.517 13.5586L141.541 13.3486C141.596 12.8245 141.751 12.346 142.005 11.9131C142.262 11.4801 142.575 11.1546 142.942 10.9365C143.31 10.7152 143.707 10.6094 144.134 10.6191C144.677 10.6322 145.104 10.8128 145.413 11.1611C145.722 11.5094 145.892 11.9814 145.921 12.5771C145.931 12.7887 145.924 13.0003 145.901 13.2119L145.848 13.6172H142.396C142.337 14.0957 142.415 14.5026 142.63 14.8379C142.848 15.1732 143.172 15.3473 143.602 15.3604C144.122 15.3734 144.604 15.139 145.047 14.6572L145.555 15.0869C145.333 15.4059 145.047 15.6566 144.695 15.8389C144.347 16.0179 143.958 16.1042 143.528 16.0977ZM144.09 11.3564C143.725 11.3467 143.406 11.4704 143.133 11.7275C142.863 11.9847 142.648 12.3672 142.488 12.875L145.057 12.8799L145.076 12.8018C145.128 12.3916 145.062 12.0514 144.876 11.7812C144.694 11.5078 144.432 11.3662 144.09 11.3564ZM149.715 11.5225L149.3 11.4785C148.733 11.4785 148.287 11.734 147.962 12.2451L147.312 16H146.429L147.347 10.7168L148.201 10.7119L148.069 11.3271C148.444 10.8356 148.885 10.5964 149.393 10.6094C149.5 10.6094 149.64 10.6338 149.812 10.6826L149.715 11.5225Z" fill="black"/>
<path d="M168.157 9.66211H165.945L164.847 16H163.934L165.032 9.66211H162.82L162.957 8.89062H168.294L168.157 9.66211ZM168.948 16H168.069L168.987 10.7168H169.866L168.948 16ZM169.676 8.78809C169.826 8.78158 169.949 8.82715 170.047 8.9248C170.148 9.01921 170.198 9.14453 170.198 9.30078C170.195 9.45378 170.145 9.5791 170.047 9.67676C169.952 9.77441 169.829 9.8265 169.676 9.83301C169.523 9.83952 169.397 9.79557 169.3 9.70117C169.202 9.60677 169.155 9.48307 169.158 9.33008C169.161 9.17708 169.21 9.05013 169.305 8.94922C169.399 8.84831 169.523 8.7946 169.676 8.78809ZM172.137 10.7119L172.024 11.3027C172.467 10.834 173.003 10.6061 173.631 10.6191C173.966 10.6257 174.249 10.7021 174.48 10.8486C174.715 10.9951 174.876 11.2018 174.964 11.4688C175.459 10.8893 176.043 10.6061 176.717 10.6191C177.244 10.6322 177.633 10.8096 177.884 11.1514C178.134 11.4932 178.227 11.9521 178.162 12.5283L177.581 16H176.702L177.278 12.5186C177.298 12.3493 177.298 12.1947 177.278 12.0547C177.216 11.612 176.927 11.3857 176.409 11.376C176.087 11.3695 175.794 11.4704 175.53 11.6787C175.27 11.8838 175.102 12.154 175.027 12.4893L174.427 16H173.538L174.124 12.5234C174.166 12.1621 174.111 11.8838 173.958 11.6885C173.808 11.4932 173.574 11.3923 173.255 11.3857C172.705 11.3727 172.267 11.6234 171.941 12.1377L171.272 16H170.389L171.307 10.7168L172.137 10.7119ZM181.233 16.0977C180.576 16.0846 180.062 15.8421 179.69 15.3701C179.319 14.8981 179.163 14.2943 179.222 13.5586L179.246 13.3486C179.301 12.8245 179.456 12.346 179.71 11.9131C179.967 11.4801 180.28 11.1546 180.647 10.9365C181.015 10.7152 181.412 10.6094 181.839 10.6191C182.382 10.6322 182.809 10.8128 183.118 11.1611C183.427 11.5094 183.597 11.9814 183.626 12.5771C183.636 12.7887 183.629 13.0003 183.606 13.2119L183.553 13.6172H180.101C180.042 14.0957 180.12 14.5026 180.335 14.8379C180.553 15.1732 180.877 15.3473 181.307 15.3604C181.827 15.3734 182.309 15.139 182.752 14.6572L183.26 15.0869C183.038 15.4059 182.752 15.6566 182.4 15.8389C182.052 16.0179 181.663 16.1042 181.233 16.0977ZM181.795 11.3564C181.43 11.3467 181.111 11.4704 180.838 11.7275C180.568 11.9847 180.353 12.3672 180.193 12.875L182.762 12.8799L182.781 12.8018C182.833 12.3916 182.767 12.0514 182.581 11.7812C182.399 11.5078 182.137 11.3662 181.795 11.3564Z" fill="black"/>
<path d="M172.305 30.0977C171.706 30.0846 171.257 29.873 170.957 29.4629C170.658 29.0495 170.521 28.4554 170.547 27.6807C170.553 27.4398 170.571 27.2021 170.601 26.9678L170.776 25.7812C170.933 24.7689 171.23 24.0137 171.67 23.5156C172.109 23.0176 172.689 22.7767 173.408 22.793C174.014 22.806 174.465 23.0143 174.761 23.418C175.06 23.8184 175.199 24.401 175.176 25.166C175.166 25.4102 175.146 25.6494 175.117 25.8838L174.946 27.0312C174.774 28.1022 174.469 28.8851 174.033 29.3799C173.597 29.8747 173.021 30.1139 172.305 30.0977ZM174.263 25.7227C174.308 25.3288 174.329 25.0228 174.326 24.8047C174.31 23.9779 173.989 23.5531 173.364 23.5303C172.909 23.514 172.539 23.6833 172.256 24.0381C171.976 24.3896 171.781 24.943 171.67 25.6982L171.46 27.1143C171.414 27.4919 171.393 27.7995 171.396 28.0371C171.413 28.8997 171.732 29.3424 172.354 29.3652C172.786 29.3848 173.143 29.2253 173.423 28.8867C173.706 28.5482 173.908 28.0111 174.028 27.2754L174.263 25.7227Z" fill="black" fill-opacity="0.4"/>
<path d="M172.823 205.177C172.921 205.274 173.079 205.274 173.177 205.177L174.768 203.586C174.865 203.488 174.865 203.33 174.768 203.232C174.67 203.135 174.512 203.135 174.414 203.232L173 204.646L171.586 203.232C171.488 203.135 171.33 203.135 171.232 203.232C171.135 203.33 171.135 203.488 171.232 203.586L172.823 205.177ZM172.75 35V38.5417H173.25V35H172.75ZM172.75 45.625V52.7083H173.25V45.625H172.75ZM172.75 59.7917V66.875H173.25V59.7917H172.75ZM172.75 73.9583V81.0417H173.25V73.9583H172.75ZM172.75 88.125V95.2083H173.25V88.125H172.75ZM172.75 102.292V109.375H173.25V102.292H172.75ZM172.75 116.458V123.542H173.25V116.458H172.75ZM172.75 130.625V137.708H173.25V130.625H172.75ZM172.75 144.792V151.875H173.25V144.792H172.75ZM172.75 158.958V166.042H173.25V158.958H172.75ZM172.75 173.125V180.208H173.25V173.125H172.75ZM172.75 187.292V194.375H173.25V187.292H172.75ZM172.75 201.458V205H173.25V201.458H172.75ZM172.646 205.354C172.842 205.549 173.158 205.549 173.354 205.354L176.536 202.172C176.731 201.976 176.731 201.66 176.536 201.464C176.34 201.269 176.024 201.269 175.828 201.464L173 204.293L170.172 201.464C169.976 201.269 169.66 201.269 169.464 201.464C169.269 201.66 169.269 201.976 169.464 202.172L172.646 205.354ZM172.5 35V38.5417H173.5V35H172.5ZM172.5 45.625V52.7083H173.5V45.625H172.5ZM172.5 59.7917V66.875H173.5V59.7917H172.5ZM172.5 73.9583V81.0417H173.5V73.9583H172.5ZM172.5 88.125V95.2083H173.5V88.125H172.5ZM172.5 102.292V109.375H173.5V102.292H172.5ZM172.5 116.458V123.542H173.5V116.458H172.5ZM172.5 130.625V137.708H173.5V130.625H172.5ZM172.5 144.792V151.875H173.5V144.792H172.5ZM172.5 158.958V166.042H173.5V158.958H172.5ZM172.5 173.125V180.208H173.5V173.125H172.5ZM172.5 187.292V194.375H173.5V187.292H172.5ZM172.5 201.458V205H173.5V201.458H172.5Z" fill="black" fill-opacity="0.4"/>
<path d="M174.763 215.103C174.3 215.09 173.897 214.922 173.552 214.6C173.207 214.274 172.969 213.853 172.839 213.335C172.432 213.989 172.03 214.451 171.633 214.722C171.236 214.989 170.821 215.117 170.388 215.107C169.857 215.094 169.419 214.902 169.074 214.531C168.729 214.157 168.527 213.672 168.469 213.076C168.407 212.516 168.495 211.955 168.732 211.392C168.97 210.828 169.305 210.389 169.738 210.073C170.174 209.757 170.65 209.606 171.164 209.619C171.623 209.632 172.025 209.8 172.37 210.122C172.718 210.444 172.958 210.868 173.088 211.392C173.485 210.754 173.884 210.296 174.284 210.02C174.685 209.74 175.109 209.604 175.559 209.614C175.979 209.627 176.34 209.754 176.643 209.995C176.949 210.233 177.173 210.557 177.316 210.967C177.463 211.374 177.512 211.807 177.463 212.266C177.365 213.109 177.062 213.797 176.555 214.331C176.047 214.862 175.45 215.119 174.763 215.103ZM169.333 212.881C169.333 213.327 169.429 213.687 169.621 213.96C169.816 214.23 170.087 214.368 170.432 214.375C170.705 214.382 170.98 214.295 171.257 214.116C171.537 213.937 171.787 213.69 172.009 213.374C172.233 213.058 172.391 212.749 172.482 212.446L172.517 212.241C172.533 212 172.489 211.743 172.385 211.47C172.284 211.196 172.142 210.965 171.96 210.776C171.706 210.513 171.426 210.374 171.12 210.361C170.778 210.348 170.472 210.449 170.202 210.664C169.935 210.876 169.722 211.183 169.562 211.587C169.403 211.987 169.326 212.419 169.333 212.881ZM176.584 212.261L176.604 211.855C176.594 211.39 176.494 211.027 176.306 210.767C176.12 210.503 175.856 210.365 175.515 210.352C175.241 210.345 174.968 210.428 174.694 210.601C174.421 210.77 174.169 211.014 173.938 211.333C173.706 211.649 173.544 211.963 173.449 212.275L173.415 212.476C173.396 212.733 173.448 213.016 173.571 213.325C173.698 213.631 173.871 213.879 174.089 214.067C174.31 214.253 174.549 214.352 174.807 214.365C175.266 214.382 175.655 214.202 175.974 213.828C176.293 213.451 176.49 212.97 176.564 212.388L176.584 212.261Z" fill="black" fill-opacity="0.4"/>
<line x1="18.5" y1="212" x2="18.5" y2="192" stroke="black" stroke-width="3" stroke-dasharray="3 3"/>
<line x1="134.5" y1="212" x2="134.5" y2="192" stroke="black" stroke-width="3" stroke-dasharray="3 3"/>
</svg>
