<svg width="106" height="20" viewBox="0 0 106 20" fill="none" xmlns="http://www.w3.org/2000/svg">
<rect width="106" height="20" fill="white"/>
<rect width="106" height="20" rx="2" fill="#2F80ED"/>
<ellipse cx="99.8601" cy="4" rx="2.01905" ry="2" fill="#6FCF97"/>
<rect x="26.2476" width="79.7524" height="18.8889" rx="2" fill="#2F80ED"/>
<ellipse cx="101.38" cy="3.77777" rx="1.51909" ry="1.88889" fill="#6FCF97"/>
<ellipse cx="101.38" cy="9.44445" rx="1.51909" ry="1.88889" fill="white"/>
<ellipse cx="101.38" cy="15.1111" rx="1.51909" ry="1.88889" fill="#6FCF97"/>
<rect x="84.8" y="2.22223" width="5.04762" height="5.55556" rx="1" fill="white"/>
<rect x="85.8095" y="5.55556" width="3.02857" height="3.33333" rx="1" fill="white"/>
<rect x="78.7429" y="2.22223" width="5.04762" height="5.55556" rx="1" fill="white"/>
<rect x="79.7524" y="5.55556" width="3.02857" height="3.33333" rx="1" fill="white"/>
<rect x="72.6857" y="2.22223" width="5.04762" height="5.55556" rx="1" fill="white"/>
<rect x="73.6953" y="5.55556" width="3.02857" height="3.33333" rx="1" fill="white"/>
<rect x="66.6285" y="2.22223" width="5.04762" height="5.55556" rx="1" fill="white"/>
<rect x="67.6381" y="5.55556" width="3.02857" height="3.33333" rx="1" fill="white"/>
<rect x="84.8" y="11.1111" width="5.04762" height="5.55556" rx="1" fill="white"/>
<rect x="85.8095" y="14.4444" width="3.02857" height="3.33333" rx="1" fill="white"/>
<rect x="78.7429" y="11.1111" width="5.04762" height="5.55556" rx="1" fill="white"/>
<rect x="79.7524" y="14.4444" width="3.02857" height="3.33333" rx="1" fill="white"/>
<rect x="72.6857" y="11.1111" width="5.04762" height="5.55556" rx="1" fill="white"/>
<rect x="73.6953" y="14.4444" width="3.02857" height="3.33333" rx="1" fill="white"/>
<rect x="66.6285" y="11.1111" width="5.04762" height="5.55556" rx="1" fill="white"/>
<rect x="67.6381" y="14.4444" width="3.02857" height="3.33333" rx="1" fill="white"/>
<rect x="57.5428" y="2.22223" width="5.04762" height="5.55556" rx="1" fill="white"/>
<rect x="58.5524" y="5.55556" width="3.02857" height="3.33333" rx="1" fill="white"/>
<rect x="51.4857" y="2.22223" width="5.04762" height="5.55556" rx="1" fill="white"/>
<rect x="52.4952" y="5.55556" width="3.02857" height="3.33333" rx="1" fill="white"/>
<rect x="45.4286" y="2.22223" width="5.04762" height="5.55556" rx="1" fill="white"/>
<rect x="46.4381" y="5.55556" width="3.02857" height="3.33333" rx="1" fill="white"/>
<rect x="39.3715" y="2.22223" width="5.04762" height="5.55556" rx="1" fill="white"/>
<rect x="40.381" y="5.55556" width="3.02857" height="3.33333" rx="1" fill="white"/>
<rect x="57.5428" y="11.1111" width="5.04762" height="5.55556" rx="1" fill="white"/>
<rect x="58.5524" y="14.4444" width="3.02857" height="3.33333" rx="1" fill="white"/>
<rect x="51.4857" y="11.1111" width="5.04762" height="5.55556" rx="1" fill="white"/>
<rect x="52.4952" y="14.4444" width="3.02857" height="3.33333" rx="1" fill="white"/>
<rect x="45.4286" y="11.1111" width="5.04762" height="5.55556" rx="1" fill="white"/>
<rect x="46.4381" y="14.4444" width="3.02857" height="3.33333" rx="1" fill="white"/>
<rect x="39.3715" y="11.1111" width="5.04762" height="5.55556" rx="1" fill="white"/>
<rect x="40.381" y="14.4444" width="3.02857" height="3.33333" rx="1" fill="white"/>
</svg>
