<?xml version="1.0" encoding="utf-8"?>
<!-- Generator: Adobe Illustrator 22.0.1, SVG Export Plug-In . SVG Version: 6.00 Build 0)  -->
<svg version="1.1" id="Layer_1" xmlns="http://www.w3.org/2000/svg" xmlns:xlink="http://www.w3.org/1999/xlink" x="0px" y="0px"
	 viewBox="0 0 60 76" enable-background="new 0 0 60 76" xml:space="preserve">
<title>UIButtons</title>
<g opacity="0.1">
	<path d="M12,0h36c6.63,0,12,5.37,12,12v52c0,6.63-5.37,12-12,12H12C5.37,76,0,70.63,0,64V12C0,5.37,5.37,0,12,0z"/>
</g>
<g opacity="0.2">
	<path d="M48,4c4.42,0,8,3.58,8,8v52c0,4.42-3.58,8-8,8H12c-4.42,0-8-3.58-8-8V12c0-4.42,3.58-8,8-8H48 M48,0H12C5.37,0,0,5.37,0,12
		v52c0,6.63,5.37,12,12,12h36c6.63,0,12-5.37,12-12V12C60,5.37,54.63,0,48,0z"/>
</g>
<g opacity="0.7">
	<path d="M23.18,63.84v-3.48h-3.91v3.48h-1.76v-8.28h1.76v3.25h3.91v-3.25H25v8.28H23.18z"/>
	<path d="M26.16,60.83c-0.01-1.76,1.41-3.18,3.17-3.19c1.76-0.01,3.18,1.41,3.19,3.17c0.01,1.76-1.41,3.18-3.17,3.19
		c-0.01,0-0.01,0-0.02,0c-1.65,0.1-3.07-1.17-3.17-2.82C26.15,61.06,26.15,60.95,26.16,60.83z M30.87,60.83
		c-0.11-0.85-0.89-1.45-1.74-1.34s-1.45,0.89-1.34,1.74c0.1,0.77,0.76,1.35,1.53,1.35c0.88-0.02,1.57-0.75,1.55-1.63
		C30.88,60.91,30.87,60.87,30.87,60.83z"/>
	<path d="M33.68,63.84v-8.28h1.57v8.28H33.68z"/>
	<path d="M40.94,63.84v-0.77c-0.44,0.58-1.12,0.92-1.85,0.92c-1.51,0-2.66-1.14-2.66-3.14s1.13-3.16,2.66-3.16
		c0.73,0,1.41,0.34,1.85,0.92v-3h1.59v8.28L40.94,63.84z M40.94,61.9v-2.12c-0.32-0.43-0.82-0.69-1.36-0.69
		c-0.87,0.02-1.55,0.74-1.53,1.61c0,0.05,0,0.1,0.01,0.15c-0.1,0.85,0.51,1.62,1.36,1.72c0.05,0.01,0.11,0.01,0.16,0.01
		C40.12,62.58,40.62,62.33,40.94,61.9z"/>
</g>
<path fill="none" d="M24,20.5c-0.04-2.95,2.33-5.38,5.29-5.41s5.38,2.33,5.41,5.29c0.02,1.34-0.47,2.63-1.36,3.63v2.21
	c3.16-2.22,3.93-6.59,1.71-9.75c-2.22-3.16-6.59-3.93-9.75-1.71s-3.93,6.59-1.71,9.75c0.55,0.78,1.25,1.44,2.06,1.94v-2.05
	C24.59,23.38,23.99,21.97,24,20.5z"/>
<path opacity="0.2" enable-background="new    " d="M22.36,20.55c-0.02-3.87,3.1-7.02,6.97-7.03s7.02,3.1,7.03,6.97
	c0.01,2.3-1.11,4.46-3,5.78v0.57h0.32c0.44-0.05,0.89-0.05,1.33,0l0,0c3.47-3.14,3.73-8.5,0.59-11.96
	c-3.14-3.47-8.5-3.73-11.96-0.59s-3.73,8.5-0.59,11.96c0.74,0.81,1.62,1.48,2.61,1.95v-1.7C23.61,25.21,22.36,22.96,22.36,20.55z"/>
<path opacity="0.2" enable-background="new    " d="M29.5,18.03c2.12-0.01,3.84,1.71,3.85,3.83c0,0,0,0.01,0,0.01v2.31
	c1.93-2.23,1.7-5.6-0.53-7.53c-2.23-1.93-5.6-1.7-7.53,0.53c-1.88,2.16-1.71,5.43,0.37,7.39v-2.7
	C25.66,19.75,27.38,18.03,29.5,18.03z"/>
<path opacity="0.5" enable-background="new    " d="M42.87,31.69c-0.59-1.28-1.74-2.2-3.12-2.49c-0.24-0.07-0.48-0.16-0.7-0.28l0,0
	c-0.25-0.17-0.49-0.37-0.74-0.57c-0.27-0.24-0.55-0.45-0.85-0.65c-0.47-0.3-0.98-0.53-1.52-0.7c-0.31-0.09-0.62-0.15-0.94-0.17l0,0
	c-0.44-0.05-0.89-0.05-1.33,0h-0.32v-5.14c-0.11-2.12-1.92-3.76-4.04-3.65c-1.97,0.1-3.55,1.68-3.65,3.65V33.2
	c0,0.71-0.23,1.54-0.92,1.6c-0.8-0.02-1.59-0.27-2.25-0.72c-0.84-0.53-1.81-0.82-2.8-0.85c-1.87,0.12-3.31,1.72-3.22,3.59
	c0.02,0.7,0.2,1.38,0.53,2c0.76,1.32,5.1,7,11,8.69c3.72,1.17,7.78,0.5,10.92-1.81c2.98-2.29,4.7-5.85,4.64-9.61v-0.2
	C43.59,34.46,43.36,33.04,42.87,31.69z M41,36.15c0.06,2.97-1.29,5.79-3.63,7.61c-2.51,1.82-5.74,2.34-8.69,1.39
	c-5.14-1.4-8.93-6.51-9.47-7.45c-0.13-0.24-0.2-0.51-0.2-0.79c0-0.16,0-1,0.8-1c0.51,0.08,1,0.27,1.44,0.56
	c1.09,0.69,2.37,1.04,3.66,1c1.95-0.16,3.28-1.85,3.28-4.15l0,0V21.78c0.06-0.71,0.69-1.23,1.4-1.17c0.62,0.05,1.12,0.55,1.17,1.17
	v6.81l0.33,0.18l0,0l0.3,0.16c0.77,0.43,1.66,0.57,2.53,0.41c0.42-0.07,0.84-0.05,1.25,0.06l0.17,0.09c0.48,0.2,0.91,0.47,1.29,0.82
	c0.15,0.13,0.31,0.24,0.47,0.36s0.29,0.24,0.45,0.34c0.43,0.28,0.9,0.48,1.39,0.61c0.68,0.1,1.26,0.53,1.56,1.14
	C40.85,33.8,41.02,34.9,41,36V36.15z"/>
</svg>
