<svg xmlns="http://www.w3.org/2000/svg" viewBox="0 0 60 76"><defs><style>.cls-1{opacity:0.7;}.cls-1,.cls-5{isolation:isolate;}.cls-2,.cls-6{fill:#fff;}.cls-3{opacity:0.1;}.cls-4{opacity:0.2;}.cls-5{opacity:0.5;}.cls-6{opacity:0.3;}</style></defs><title>Button_Follow_White</title><g id="Layer_11" data-name="Layer 11"><g class="cls-1"><path class="cls-2" d="M13.1,63.84V55.56H19v1.55h-4.1v1.75h4v1.55h-4v3.43Z"/><path class="cls-2" d="M19.77,60.83a3,3,0,0,1,3.16-3.14,3.15,3.15,0,1,1,0,6.3A3,3,0,0,1,19.77,60.83Zm4.7,0a1.54,1.54,0,1,0-1.54,1.75A1.58,1.58,0,0,0,24.47,60.83Z"/><path class="cls-2" d="M27.28,63.84V55.56h1.58v8.28Z"/><path class="cls-2" d="M30.42,63.84V55.56H32v8.28Z"/><path class="cls-2" d="M33.18,60.83A3.18,3.18,0,1,1,36.35,64,3,3,0,0,1,33.18,60.83Zm4.71,0a1.55,1.55,0,1,0-1.54,1.75A1.59,1.59,0,0,0,37.89,60.83Z"/><path class="cls-2" d="M46,63.84l-1.27-4.09-1.26,4.09H41.74l-1.83-6h1.64l1.12,4,1.32-4h1.4l1.32,4,1.11-4h1.64l-1.82,6Z"/></g><g class="cls-3"><rect class="cls-2" width="60" height="76" rx="12" ry="12"/></g><g class="cls-4"><path class="cls-2" d="M48,4a8,8,0,0,1,8,8V64a8,8,0,0,1-8,8H12a8,8,0,0,1-8-8V12a8,8,0,0,1,8-8H48m0-4H12A12,12,0,0,0,0,12V64A12,12,0,0,0,12,76H48A12,12,0,0,0,60,64V12A12,12,0,0,0,48,0Z"/></g><g class="cls-5"><path class="cls-2" d="M20.35,41.33c-3.09-5.49-2.06-12.75-1.64-14.25a4,4,0,0,1,3.69-3,3.37,3.37,0,0,1,2.27.9A5.41,5.41,0,0,1,26,27.6a4.36,4.36,0,0,0,1.1,2.15c.44.38,1.16.15,1.8-.48l7.65-7.73.55-.56a3.85,3.85,0,0,1,5.51,0,3.94,3.94,0,0,1,0,5.51L39,30.16c.07.07.16.13.26.21a5.24,5.24,0,0,1,1.53,1.76,6.51,6.51,0,0,1,.71,2.7,7.64,7.64,0,0,0,.13,1,2.78,2.78,0,0,0,.31.7,4.6,4.6,0,0,1,.42,4,12.61,12.61,0,0,1-2.69,3.74A12.25,12.25,0,0,1,31,48C26.62,48,22.73,45.57,20.35,41.33Zm.88-13.55c-.31,1.08-1.28,7.53,1.38,12.28,1.91,3.39,5,5.35,8.4,5.35a9.66,9.66,0,0,0,6.86-3,9.31,9.31,0,0,0,2.07-2.76,2,2,0,0,0-.27-2,4.75,4.75,0,0,1-.57-1.43A8.52,8.52,0,0,1,39,35.09a4.41,4.41,0,0,0-.41-1.73,2.34,2.34,0,0,0-.85-.93,3.91,3.91,0,0,1-1.51-2.12L36,29.56l4.86-4.89a1.34,1.34,0,0,0,0-1.86,1.32,1.32,0,0,0-1.83,0l-.54.55s-6.5,6.57-7.66,7.73a4.48,4.48,0,0,1-3.13,1.45,3.31,3.31,0,0,1-2.19-.81,6.55,6.55,0,0,1-1.9-3.38,3.45,3.45,0,0,0-.64-1.45.71.71,0,0,0-.52-.21A1.38,1.38,0,0,0,21.23,27.78Z"/></g><path class="cls-6" d="M37,21.15A12.13,12.13,0,0,1,36.51,20c-.46-1.31-1-2.8-2.88-3.51s-3.26.06-4.47.74-2,1.11-3.2.64-1.57-1.4-2-2.59-1-2.8-2.87-3.51a.75.75,0,0,0-.53,1.4c1.24.47,1.57,1.41,2,2.6s1,2.79,2.87,3.51,3.26-.06,4.47-.74,2-1.11,3.2-.65,1.58,1.41,2,2.6a9.4,9.4,0,0,0,.79,1.79c.43-.44.71-.71.71-.71Z"/></g></svg>