<?xml version="1.0" encoding="utf-8"?>
<!-- Generator: Adobe Illustrator 22.0.1, SVG Export Plug-In . SVG Version: 6.00 Build 0)  -->
<svg version="1.1" id="Layer_1" xmlns="http://www.w3.org/2000/svg" xmlns:xlink="http://www.w3.org/1999/xlink" x="0px" y="0px"
	 viewBox="0 0 60 76" style="enable-background:new 0 0 60 76;" xml:space="preserve">
<style type="text/css">
	.st0{opacity:0.1;}
	.st1{fill:#FFFFFF;}
	.st2{opacity:0.2;}
	.st3{opacity:0.55;fill:#FFFFFF;enable-background:new    ;}
	.st4{opacity:0.3;fill:#FFFFFF;enable-background:new    ;}
	.st5{opacity:0.7;}
</style>
<title>UIButtons_Drag</title>
<g class="st0">
	<path class="st1" d="M12,0h36c6.6,0,12,5.4,12,12v52c0,6.6-5.4,12-12,12H12C5.4,76,0,70.6,0,64V12C0,5.4,5.4,0,12,0z"/>
</g>
<g class="st2">
	<path class="st1" d="M48,4c4.4,0,8,3.6,8,8v52c0,4.4-3.6,8-8,8H12c-4.4,0-8-3.6-8-8V12c0-4.4,3.6-8,8-8H48 M48,0H12
		C5.4,0,0,5.4,0,12v52c0,6.6,5.4,12,12,12h36c6.6,0,12-5.4,12-12V12C60,5.4,54.6,0,48,0z"/>
</g>
<path class="st3" d="M41.5,31.6c-0.6-1.3-1.7-2.2-3.1-2.5c-0.2-0.1-0.5-0.2-0.7-0.3c-0.3-0.2-0.5-0.4-0.8-0.6
	c-0.7-0.6-1.5-1.1-2.3-1.4c-0.3-0.1-0.7-0.2-1-0.2c-0.4,0-0.9,0-1.3,0H32v-5.1c0-2.1-1.7-3.8-3.8-3.8s-3.8,1.7-3.8,3.8V33
	c0,0.7-0.2,1.5-0.9,1.6c-0.8,0-1.6-0.3-2.2-0.7c-0.8-0.5-1.8-0.8-2.8-0.8c-1.9,0.1-3.3,1.7-3.2,3.6c0,0.7,0.2,1.4,0.5,2
	c0.8,1.3,5.1,7,11,8.7c3.7,1.2,7.8,0.5,10.9-1.8c3-2.3,4.7-5.8,4.7-9.6v-0.2C42.2,34.4,42,32.9,41.5,31.6z M39.6,36
	c0.1,3-1.3,5.8-3.6,7.6c-2.5,1.8-5.7,2.3-8.7,1.4c-5.1-1.4-8.9-6.5-9.5-7.5c-0.1-0.2-0.2-0.5-0.2-0.8c0-0.2,0-1,0.8-1
	c0.5,0.1,1,0.3,1.5,0.6c1.1,0.7,2.4,1,3.7,1c1.9-0.2,3.3-1.8,3.3-4.2V21.7c0-0.7,0.6-1.3,1.3-1.3c0.7,0,1.3,0.6,1.3,1.3l0,0v6.8
	l0.3,0.2l0.3,0.2c0.8,0.4,1.7,0.6,2.5,0.4c0.4-0.1,0.8,0,1.3,0.1c0.5,0.2,1,0.5,1.5,0.9c0.3,0.3,0.6,0.5,0.9,0.7
	c0.4,0.3,0.9,0.5,1.4,0.6c0.7,0.1,1.3,0.5,1.5,1.1C39.5,33.7,39.7,34.8,39.6,36L39.6,36z"/>
<path class="st4" d="M28.2,17.7c2.1,0,3.8,1.7,3.8,3.8l0,0v4.6c1.7-1.2,2.8-3,3-5h4.8v2.2l5.2-3l-5.2-3v2.2h-4.7
	c-0.4-3.8-3.9-6.6-7.7-6.2c-3.8,0.4-6.6,3.9-6.2,7.7c0.2,2.1,1.4,4,3.2,5.2v-4.7C24.4,19.4,26.1,17.7,28.2,17.7z"/>
<g class="st5">
	<path class="st1" d="M17.1,64v-8.3h3.3c2.3-0.2,4.3,1.6,4.4,3.9c0.2,2.3-1.6,4.3-3.9,4.4c-0.2,0-0.4,0-0.6,0H17.1z M23,59.9
		c0.1-1.3-0.9-2.5-2.2-2.6c-0.1,0-0.2,0-0.4,0h-1.5v5.2h1.5c1.4,0.1,2.5-1,2.6-2.3C23,60,23,59.9,23,59.9z"/>
	<path class="st1" d="M26,64v-6h1.6v0.8c0.5-0.6,1.2-1,1.9-1v1.5c-0.1,0-0.3,0-0.4,0c-0.6,0-1.1,0.3-1.5,0.7v4H26z"/>
	<path class="st1" d="M34.1,64v-0.6c-0.5,0.5-1.2,0.8-1.9,0.8c-1.1,0-2-0.8-2.1-1.9v-0.1c0-1.1,0.8-1.9,1.9-1.9c0.1,0,0.1,0,0.2,0
		c0.7,0,1.4,0.2,1.9,0.7v-0.8c0-0.6-0.5-1-1.3-1c-0.7,0-1.3,0.3-1.8,0.7l-0.6-1c0.7-0.6,1.6-1,2.6-1c1.4,0,2.6,0.5,2.6,2.3V64H34.1z
		 M34.1,62.6v-0.8c-0.3-0.4-0.8-0.5-1.3-0.5c-0.6,0-1.1,0.3-1.1,0.9s0.5,0.9,1.1,0.9C33.3,63.1,33.8,62.9,34.1,62.6z"/>
	<path class="st1" d="M37.1,65.5l0.7-1.1c0.5,0.5,1.2,0.8,1.9,0.7c0.8,0.1,1.5-0.5,1.6-1.3c0-0.1,0-0.2,0-0.2V63
		c-0.4,0.6-1.1,0.9-1.8,0.9c-1.5,0-2.7-1-2.7-3s1.1-3.1,2.7-3.1c0.7,0,1.4,0.3,1.8,0.9V58h1.6v5.6c0,2.3-1.8,2.8-3.2,2.8
		C38.7,66.5,37.8,66.2,37.1,65.5z M41.3,61.9V60c-0.3-0.4-0.8-0.7-1.3-0.7c-0.9,0.1-1.6,0.9-1.5,1.8c0.1,0.8,0.7,1.5,1.5,1.5
		C40.5,62.5,41,62.3,41.3,61.9z"/>
</g>
</svg>
