<?xml version="1.0" encoding="utf-8"?>
<!-- Generator: Adobe Illustrator 22.0.1, SVG Export Plug-In . SVG Version: 6.00 Build 0)  -->
<svg version="1.1" id="Layer_1" xmlns="http://www.w3.org/2000/svg" xmlns:xlink="http://www.w3.org/1999/xlink" x="0px" y="0px"
	 viewBox="0 0 60 76" style="enable-background:new 0 0 60 76;" xml:space="preserve">
<style type="text/css">
	.st0{opacity:0.3;}
	.st1{opacity:0.5;}
	.st2{opacity:0.9;}
	.st3{opacity:0.5;enable-background:new    ;}
	.st4{opacity:0.9;enable-background:new    ;}
</style>
<title>Button_Click_Black_HighOpc</title>
<g class="st0">
	<path d="M12,0h36c6.6,0,12,5.4,12,12v52c0,6.6-5.4,12-12,12H12C5.4,76,0,70.6,0,64V12C0,5.4,5.4,0,12,0z"/>
</g>
<g class="st1">
	<path d="M48,4c4.4,0,8,3.6,8,8v52c0,4.4-3.6,8-8,8H12c-4.4,0-8-3.6-8-8V12c0-4.4,3.6-8,8-8H48 M48,0H12C5.4,0,0,5.4,0,12v52
		c0,6.6,5.4,12,12,12h36c6.6,0,12-5.4,12-12V12C60,5.4,54.6,0,48,0z"/>
</g>
<g class="st2">
	<path d="M16.6,59.7c0-2.3,1.8-4.2,4.1-4.3c0.1,0,0.2,0,0.3,0c1.4,0,2.8,0.7,3.5,2L23,58.2c-0.4-0.7-1.2-1.2-2-1.2
		c-1.5,0-2.7,1.2-2.7,2.7c0,1.5,1.2,2.7,2.7,2.7c0.8,0,1.6-0.5,2-1.2l1.5,0.7c-0.7,1.3-2.1,2.1-3.5,2c-2.3,0.1-4.3-1.7-4.4-4
		C16.6,59.9,16.6,59.8,16.6,59.7z"/>
	<path d="M25.5,63.8v-8.3h1.6v8.3H25.5z"/>
	<path d="M28.5,56.2c0-0.5,0.4-0.9,0.9-0.9s0.9,0.4,0.9,0.9c0,0.5-0.4,0.9-0.9,0.9l0,0C28.9,57.2,28.5,56.8,28.5,56.2z M28.6,63.8
		v-6h1.6v6H28.6z"/>
	<path d="M31.4,60.8c-0.1-1.7,1.2-3.1,2.9-3.1c0.1,0,0.2,0,0.3,0c0.9,0,1.8,0.4,2.4,1.1l-1,1c-0.3-0.4-0.8-0.7-1.3-0.7
		c-1,0.1-1.7,0.9-1.6,1.9c0.1,0.9,0.8,1.5,1.6,1.6c0.5,0,1-0.2,1.3-0.6l1,1c-0.6,0.7-1.5,1.1-2.4,1c-1.7,0.1-3.1-1.2-3.2-2.9
		C31.4,61,31.4,60.9,31.4,60.8z"/>
	<path d="M41.8,63.8l-1.6-2.3l-0.7,0.8v1.5H38v-8.3h1.6v5l2.3-2.7h1.9l-2.4,2.7l2.5,3.3L41.8,63.8z"/>
</g>
<path class="st3" d="M29.4,17.7c2.1,0,3.8,1.7,3.8,3.8v5.1h0.3c0.4-0.1,0.9-0.1,1.3,0c3.5-3.1,3.8-8.5,0.7-12
	c-3.1-3.5-8.5-3.8-12-0.7s-3.8,8.5-0.7,12c0.7,0.8,1.7,1.5,2.7,2v-6.4C25.6,19.5,27.3,17.8,29.4,17.7z"/>
<path class="st4" d="M42.9,31.6c-0.6-1.3-1.7-2.2-3.1-2.5c-0.2-0.1-0.5-0.2-0.7-0.3c-0.3-0.2-0.5-0.4-0.8-0.6
	c-0.7-0.6-1.5-1.1-2.3-1.4c-0.3-0.1-0.7-0.2-1-0.2c-0.4,0-0.9,0-1.3,0h-0.3v-5.1c0-2.1-1.7-3.8-3.8-3.8s-3.8,1.7-3.8,3.8v11.5
	c0,0.7-0.2,1.5-0.9,1.6c-0.8,0-1.6-0.3-2.2-0.7c-0.8-0.5-1.8-0.8-2.8-0.8c-1.9,0.1-3.3,1.7-3.2,3.6c0,0.7,0.2,1.4,0.5,2
	c0.8,1.3,5.1,7,11,8.7c3.7,1.2,7.8,0.5,10.9-1.8c3-2.3,4.7-5.8,4.6-9.6v-0.2C43.6,34.4,43.3,32.9,42.9,31.6z M41,36
	c0.1,3-1.3,5.8-3.6,7.6c-2.5,1.8-5.7,2.3-8.7,1.4c-5.1-1.4-8.9-6.5-9.5-7.5c-0.1-0.2-0.2-0.5-0.2-0.8c0-0.2,0-1,0.8-1
	c0.5,0.1,1,0.3,1.5,0.6c1.1,0.7,2.4,1,3.7,1c1.9-0.2,3.3-1.8,3.3-4.2V21.7c0-0.7,0.6-1.3,1.3-1.3c0.7,0,1.3,0.6,1.3,1.3l0,0v6.8
	l0.3,0.2l0.3,0.2c0.8,0.4,1.7,0.6,2.5,0.4c0.4-0.1,0.8,0,1.3,0.1c0.5,0.2,1,0.5,1.5,0.9c0.3,0.3,0.6,0.5,0.9,0.7
	c0.4,0.3,0.9,0.5,1.4,0.6c0.7,0.1,1.3,0.5,1.5,1.1c0.3,1,0.5,2.1,0.5,3.2V36z"/>
</svg>
