<svg width="103" height="64" viewBox="0 0 103 64" xmlns="http://www.w3.org/2000/svg"><g fill="none" fill-rule="evenodd"><path d="M77.958 51.334c-2.118.009-4.232 1.254-5.83-1.21-.531.002.514-4.944-.025-7.416l-2.131.008c-.551-3.701.5-7.41-.052-11.116-.016-.104-.037-.186-.055-.28l8.093-.136c-2.707 0-5.414-.003-8.12-.005-.652-3.067-2.629-.905-3.157-3.271-1.632-2.462 1.05-3.708 2.666-3.715-.55-2.469 1.077-.004 1.066-2.475-.023-4.941-.039-9.885-2.232-13.58-.551-1.235-.029-4.942-.042-7.411C61.6.756 54.474.773 48.046 5.759c-5.315 3.787-11.919-1.428-17.171 2.732-.794.63-1.888-.281-2.902-.575-.521-.147-.937-.138-1.38.294-.438.433-.834 1.29-1.1 2.841l1.696-.033c-1.491 3.738-3.519.051-5.818 1.449.179 2.467.253 3.697-.378 4.989 1.484-.133 3.446-1.441 4.641-.227l.085 3.701c-.562.633-1.307.344-2.109.071-.796-.274-1.665-.529-2.303.144l.42 4.927c.1 1.23-.496 1.28-1.108 1.352a43.08 43.08 0 012.397-.208l.271 4.55c-1.227.073-2.44.189-3.62.397l3.64-.061.003.045c.071 1.237-.443 1.267-.955 1.31.188 2.462-.012 4.962.523 6.153.426-.035.867-.065 1.327-.087-.895.664-1.362 2.569-1.443 4.753-.09 2.185.167 4.645.41 6.482.047-1.252.468 2.431.525 1.181-.071.94-.038 1.947.018 2.953.052 1.005.154 2.007.279 2.924.081.456.095.903.141 1.316.051.412.134.79.253 1.122l.284 1.517c-.132.466 1.088.702 3.575.889 2.425.175 4.73.244 7.105.217 4.718-.052 9.446-.471 14.172-1.083 9.333-1.122 18.668-3.006 27.908-4.28 1.056-1.241.53-3.707.526-6.18" fill="#ECEEF1"/><path d="M12.736 30.926c.168.112.336.224.504.28 1.286.671 2.294 1.567 3.357 2.461 1.51 1.343 2.573 3.077 3.132 5.203.336 1.455.112 3.077-.838 4.755-.281.56-.616 1.175-1.064 1.679-.167.223-.447.559-.727.783-1.063 1.007-2.238 1.678-3.524 2.182-.616.335-1.287.392-1.903.335-.503 0-.95.057-1.454.336-.448.224-.839.335-1.343.504-1.174.279-2.182.335-3.189.167-1.51-.224-2.964-.671-3.916-1.678-.839-.895-1.063-2.07-.559-3.636.391-.951.895-1.902 1.623-2.854.615-.895 1.342-1.79 2.237-2.573.168-.112.28-.335.392-.504.447-.839.671-1.007 1.51-.894.336-.113.56-.616 1.007-.448-.223.112-.392.224-.727.392.28.056.448.111.56.111 0 .28 0 .504.055.784.056.168 0 .335-.167.559-.336.448-.616.895-1.008 1.399-.559.727-.95 1.398-1.062 2.238-.112.503-.112.951-.168 1.51-.056.392.111.672.503.783a2.922 2.922 0 001.567.112c1.006-.168 2.069-.392 3.077-.839 1.007-.448 2.07-.84 3.076-1.343.728-.335 1.511-.783 2.182-1.398.504-.392.671-.839.504-1.175-.392-1.287-.896-2.405-1.958-3.245-1.734-1.399-3.749-2.63-5.762-3.804a24.785 24.785 0 01-3.413-2.406c-1.231-.95-2.126-2.181-2.797-3.468-1.287-2.126-.112-5.035 1.678-7.217 1.623-2.014 3.804-3.356 6.042-4.587.672-.28 1.343-.448 1.958-.727 3.413-1.231 6.601-1.343 9.678-1.12.951.112 1.847.281 2.798.392 1.006.112 1.958.336 2.685.896.279.223.447.447.279.894-.055.112-.055.28-.055.392-.056.28-.056.559-.168.839-.448.951-.783 1.902-.839 2.853-.056.392-.336.951-.616 1.399-.223.447-.559.783-.783 1.175a2.292 2.292 0 01-.895.895c-.616.28-1.119.559-1.734.727-.336.168-.672.168-.895 0-.84-.335-1.735-.504-2.63-.615-1.79-.224-3.58-.504-5.538-.448-.56.056-1.175.112-1.735.28-.671.112-1.286.279-1.902.391-4.027 1.008-1.678 3.916.336 5.371.895.559 1.79 1.231 2.629 1.902M32.596 37.359c-.056-.055-.224-.055-.28.113-.056 0-.056.055-.056.111-.224.56-.503.896-1.007.783-.279.28-.392.56-.615.783-.224.113-.504.337-.56.728 0 .112-.056.168-.112.28-.28.391-.559.671-.783 1.007-.224.56-.615.895-1.007 1.231-.168.223-.448.392-.615.783 0 .055-.112.223-.28.223-.28.057-.559.28-.839.504-.616.336-1.231.615-1.902.672-.616 0-1.175-.057-1.734-.336-.895-.504-1.231-1.454-1.343-2.685 0-.28 0-.56.112-.84.111-1.734.447-3.468.895-5.203.279-.95.615-1.79.951-2.629.727-1.51 1.343-3.132 2.07-4.643 0-.168.056-.224.112-.392.335-1.286 1.006-2.517 1.678-3.692.224-.336.336-.672.559-1.119.28-.056.56-.056.783.168.616.392 1.231.839 1.903 1.231.112.056.28.167.28.279.391.839.895 1.622 1.118 2.574.112.559.168 1.063.28 1.622.112.616.056 1.287-.224 1.846-.223.448-.335.951-.559 1.399-.056.28-.168.559-.224.839-.336 1.119-.671 2.237-1.175 3.357 0 0-.056.056-.056.111 0 0 0 .057-.112.169a4.21 4.21 0 01-.391 1.286c.112-.056.223-.056.28-.112a65.797 65.797 0 001.734-2.014c1.006-1.119 1.902-2.237 2.853-3.356.392-.448.727-.784 1.063-1.287 1.063-1.455 2.238-2.742 3.413-4.028.223-.224.447-.392.615-.448.503-.223 1.007-.279 1.398-.223.224.112.392.167.504.279.447.448.839.952 1.287 1.343.28.224.447.559.615 1.007.112.392.224.727.28 1.175.112.56.112 1.119-.056 1.734-.392 1.286-.728 2.462-1.231 3.636-.112.504-.336 1.008-.448 1.623a1.19 1.19 0 00.392-.224c1.119-.615 2.126-1.511 3.077-2.518.895-.839 1.846-1.622 2.853-2.181.168-.056.28-.168.448-.336.335-.28.615-.223.839 0 .28.223.392.615.783.784.28.111.447.391.671.67a5.946 5.946 0 000 1.399c0 .391-.111.783-.279 1.231-.336.168-.112.615-.336.895a20.54 20.54 0 01-.28 1.958 9.557 9.557 0 000 1.79c0 .392.112.56.392.671.839.169 3.748-1.901 4.308-2.629 1.007-1.118 1.845-2.405 2.629-3.748.056-.28.168-.559.336-.728.111.169.168.169.111.224-.168.84.113.336 0 1.287 0-.224-.279.951-.447.84-.112 0-.112.167-.224.279-.335.615-.671 1.175-.951 1.846 0 .224-.168.391-.224.504-.503.335-.839.727-1.23 1.118 0 .168-.168.224-.28.28-.28.616-2.629 2.294-3.245 2.294-.28 0-1.622-.112-1.902-.336-.559-.503-1.455-1.118-1.79-1.902-.28-.671-.28-1.51-.056-2.35.28-1.398.615-2.741 1.119-4.084.056-.167.112-.391.112-.559.056-.112 0-.167 0-.335-.336.055-.56.447-.84.503-.279.112-.559.224-.783.391-.055.56-.055.56-.391 1.064-.224.223-.336.504-.56.783-.279-.168-.559 0-.839.224-.448.391-.839.727-1.343 1.119-.112.111-.28.168-.391.391-.504.616-1.119 1.063-1.79 1.567-.056.112-.168.112-.28.28-.336.67-1.007 1.006-1.511 1.566a5.725 5.725 0 01-.559.671c-.895.727-1.902 1.007-2.853.895-.448-.055-.839-.335-1.175-.727-.392-.391-.559-.895-.504-1.679 0-.615.112-1.174.336-1.79.895-2.796 2.238-5.258 3.86-7.608.392-.727.895-1.399 1.287-2.182.224-.224.391-.503.28-.839-.168-.168-.392-.168-.616.056-.111.168-.279.28-.503.448-.56.559-1.119 1.118-1.678 1.566-.336.392-.616.728-.84 1.231-.279.671-.615 1.231-1.063 1.734-.503.504-.951.951-1.286 1.511-.336.447-.56.95-.84 1.398-.112.28-.335.672-.503.951-.112.168-.28.392-.392.56-.055 0-.167-.113-.223-.113" fill="#000"/><path d="M62.636 23.821c-.112.168-.223.28-.279.503 0 .057 0 .169-.112.28-.168.168-.336.392-.559.671-.112.169-.56.393-.84.448-.112-.055-.28.056-.391.169-.336.223-.559.167-.784.055-.168-.112-.279-.112-.447-.112-.224 0-.392 0-.616-.056.057-.056.112-.167.168-.224 0-.167.112-.335.168-.559.112-.28.224-.448.392-.727 0-.112.167-.224.167-.28 0-.336.28-.615.448-.951l.336-.504c.112-.111.223-.223.336-.223.111-.057.223-.057.279 0 0 .112.112.112.224.056s.167-.113.224-.056c.224.112.503.168.727.223.392.168.672.448.895.84-.168.167-.223.336-.336.447zm-5.146 6.098l.055-.056c.168-.224.28-.28.448-.391.615-.113 2.014-1.119 2.573-.784.168.224.727.504.952.728.223.279.279.671.111 1.23-.336.728-.727 1.399-1.174 2.294-.112.335-.224.616-.28.839-.224.503-.448 1.175-.727 1.679-.224.671.783-1.455.671-.895 0 .167-.112.335-.168.447-.448 1.119-.448.895-.503 1.902 0 .56-.224 3.413-.168 3.916.056.392.28.615.447.839.224.112.504.336.839.448.28.224.56.112.895.055 4.644-1.677 2.966-2.293 5.651-5.146.503-.728 1.119-1.399 1.399-2.294 0-.056 0-.056.167-.335.28.559-.335 1.342.448 1.51-1.175 2.126-2.014 5.203-3.916 6.322-.56.727-4.364 4.084-6.825 3.133-.783.28-1.511-.504-2.35-.84-.559-.223-1.119-.671-1.622-1.23-.28-.727-.56-1.511-.56-2.238-.112-.336-.112-.727-.112-1.007.168-.671.056-1.958.28-2.405.056-.281.168-.56.168-.896.112-.056 0-.335.392-.391.055 0 .111-.224.167-.28.28-.391.336-.727.616-1.119 0 0-1.175 1.175-.504.056.448-1.119 1.455-2.35 1.79-3.133 0-.111.112-.279.112-.279.168-.336.336-.56.224-.952-.056-.224 0-.447.168-.783.112.056.168.112.336.056z" fill="#000"/><path d="M75.223 27.234c1.79-2.853 2.07-3.301 3.693-6.378.615-1.175 1.118-2.349 1.734-3.524.279-.839.447-1.678.559-2.518.112-.279.112-.447-.168-.335-.28.056-.447.167-.615.279-.728.28-1.399.839-1.902 1.622-.392.448-.671.952-1.119 1.399-.504.616-.783 1.231-1.007 1.959-.28.559-.56 1.23-.839 1.79-.392 1.174-.952 2.349-1.511 3.524-.224.56-.391 1.175-.615 1.734-.671 1.902-.392.951-1.007 2.853-.168.448-.056 1.735.671.951.84-1.231 1.399-2.069 2.126-3.356zm8.951 10.07c-.279.559-1.231 1.79-1.231 2.406-.056.055-.223.223-.336.279a2.022 2.022 0 00-.447.671c-.112.28-.28.392-.391.616-.784 1.398-1.288 2.182-2.574 3.413-.336.279-3.301 3.132-3.524 3.412-1.623 1.343-3.805.727-5.427.783-.448 0-.895-.056-1.175-.223-.504-.28-1.622-.728-1.958-1.231-.503-1.231-1.79-2.07-1.902-3.805-.056-.447-.28-.727-.335-1.175.055-1.79.335-3.58.559-5.426.336-1.287.615-2.685.839-3.972.559-2.406.728-2.685 1.79-4.867.56-1.455 1.063-1.567 1.623-3.021.391-.783.838-1.566 1.286-2.238.336-.839.895-1.622 1.399-2.462 1.063-1.846 2.237-3.468 3.468-4.81.839-.84 1.735-1.735 2.574-2.462.504-.392 1.007-.839 1.51-1.007.168-.112.336-.168.504-.224.783-.056 1.511.056 2.07.616.559.504.727 1.287.559 2.349-.112.671-.168 1.343-.335 1.958-.056.503-.28.951-.56 1.511-.391.951-.839 1.846-1.454 2.741-.392.727-.84 1.455-1.231 2.182-.672 1.006-1.231 2.07-1.902 3.02-1.175 1.567-2.182 3.245-3.245 4.812-1.735 2.965-1.566 3.469-2.182 6.433-.224 1.175-.112 1.847-.167 3.021.055.336.223 2.518.279 2.742.168.783.335 1.063.671 1.79.112.224.895.391 1.175.504.392.279 3.357-1.735 3.749-2.015.895-.503 1.622-1.342 2.405-2.125.839-.784 1.231-1.679 1.958-2.742 1.007-1.342 1.343-2.462 2.406-3.916.783-.112.335 1.063-.448 2.462z" fill="#000"/><path d="M88.704 31.766c-.112.167-.279.391-.392.615-.223.392-.167.671.113.839.167.112.391.223.503.391.336.392.783.336 1.231.28.392-.112.672-.503.895-.895.392-.951.615-1.119.951-2.07.895-2.126-.895-1.622-1.734-.951-.615.447-1.063 1.175-1.567 1.791zm-3.077 5.874v0zm-3.972-1.399c-.279.895-.223 1.734-.112 2.573 0 .056.057.056.112.112.056-.615.113-1.174.168-1.734.056-.392.112-.783-.055-1.119-.057.056-.113.112-.113.168zm0 3.58c.056.168.113.28.168.448 0 .167.168.279.056.503-.056-.056-.111-.056-.111-.112-.28-.559-.392-1.286-.504-2.014-.056-.056 0-.111 0-.167 0-.839 0-1.623.224-2.462.055-.167.112-.335.112-.504v-.391c-.168.336-.28.56-.336.783-.056.28-.112.504-.168.783-.224 1.455-.168 2.798.447 3.972.112.224.28.392.448.616a.923.923 0 00.392.224c0 .056.055 0 .167 0-.167-.28-.335-.504-.447-.784-.168-.336-.168-.671-.335-.951-.057 0-.113.056-.113.056zm5.315-5.035c0 .112-.112.224-.223.279-.057.057-.168.113-.168.281-.057.223-.112.279-.28.336-.112.055-.112.111-.168.447.112 0 .168 0 .224.056v.056h-.392c.056-.168.056-.336.056-.448h-.112c-.055.392-.112.783-.168 1.175.113.056.168.112.224.112.056.392.056.727.056 1.119 0 .391.112.727.224 1.007.168.224.615 1.454.783 1.678.783.783 1.734 1.79 2.63 1.846.279.057 1.902-.223 2.181-.28 1.343-.391 2.629-1.118 3.86-2.07.951-.727 1.846-1.566 2.798-2.349l.167-.168c.336-.391.671-.727 1.007-1.119.616-.615 1.175-1.231 1.679-1.958.168-.28.336-.559.671-.671-.112.504-.224.95-.447 1.398a1.203 1.203 0 01-.28.448c-.336.392-.616.727-.839 1.175-.168.223-.392.447-.56.671-.056.056-.112.168-.224.336.168-.056.28-.112.448-.168-.056.336-.336.391-.392.671.056.057.056.112.168.168-.168.28-.335.448-.56.672a7.612 7.612 0 00-.95.95c-.504.56-1.063 1.007-1.623 1.455-.28.224-.503.448-.783.616-.224.167-.447.28-.671.447a9.049 9.049 0 00-1.007.56c-.56.335-1.175.615-1.79.727l-.504.168a8.578 8.578 0 01-2.014.391c-.783.112-4.084-.503-4.811-.783-1.958-.784-2.35-1.734-3.245-2.517-.335-.28-.615-.728-.783-1.175-.28-.728-.336-1.511-.392-2.35 0-1.734.448-3.412 1.175-4.979.168-.336.168-.336.112-.839-.279.168-.447.28-.559.616-.168.502-.392.95-.672 1.454 0-.504.224-.839.392-1.231.447-1.007.951-1.958 1.566-2.853a15.533 15.533 0 012.07-2.574c.783-.839 1.623-1.566 2.518-2.125.223-.112.391-.169.559-.28.28-.112.56-.168.727.111.168.169.392.113.504.225.168.112.223.335.335.447.56.28 2.686.839 3.189 1.175.168.112.28.336.392.56.28.503.503 1.063.895 1.398.112.112.168.336.224.503.112.672.167 1.287 0 2.015-.112.783-.448 1.51-.839 2.181-.224.392-.448.727-.616 1.175-.111.392-.336.728-.559 1.119a1.631 1.631 0 01-1.007.839 1.784 1.784 0 01-1.063.168c-.168-.056-.335 0-.447-.224 0-.056-.056-.056-.056-.056-.448.056-.727-.447-1.063-.615a.591.591 0 01-.112-.28c.112-.223 0-.336-.056-.503-.224-.448-.448-.951-.727-1.399-.057-.168-.225-.224-.392-.056-.056.28-.28.504-.28.839z" fill="#000"/></g></svg>