<svg width="130" height="67" viewBox="0 0 130 67" xmlns="http://www.w3.org/2000/svg"><g fill="none" fill-rule="evenodd"><path d="M1.927 59.342l-.395.207c.024.046.052.09.079.136.118-.121.221-.234.316-.343M1.425 57.441l-.124.066c.034.031.056.066.084.101.011-.055.022-.111.04-.167M1.614 59.689c.301.502.736.933.806 1.557l-.875.459c-.071.397.296.564.444.849-.219.114-.437.228-.363.37.051.446.417.568.887.434.112-2.08 2.216-3.902-.899-3.669M2.766 57.641l-1.152.603c.05.388.058.797.344 1.061.472-.551.692-1.015.808-1.664M91.72 10.272c-.045-.086-.049-.142.215-.119-.077.04-.144.081-.215.119.04.083.114.195.042.298.678-.56 1.491-1.179 2.333-1.677.034-.21.063-.419.083-.623-2.099 1.207-4.242 2.329-5.6 4.001 1.24-.649 1.963-1.343 3.142-1.999M93.897 7.33c.074-.04.142-.081.215-.12-.262-.024-.259.032-.215.12M57.382 30.525c-1.259.816-2.163 1.912-3.088 3 2.28-1.706 4.729-3.245 6.347-4.78a113.143 113.143 0 01-3.259 1.78M49.436 38.447c1.775-.593 2.94-1.653 3.977-2.807a368.695 368.695 0 01-3.721 2.404c-.085.134-.179.267-.256.403M50.79 36.612c1.501-.777 2.516-1.926 3.504-3.087-1.29.964-2.512 1.984-3.504 3.087M73.645 8.084c.77-.925 1.274-1.417 1.589-1.642.047-.276.119-.623.229-1.067a5.829 5.829 0 00-.175.092 85.155 85.155 0 01-2.726 2.319c-.332.402-.638.808-.856 1.22a41.52 41.52 0 001.939-.922M75.234 6.442c-.397 2.363 1.233-.873 0 0M73.516 18.661l-.151.08c-.128.109-.261.217-.387.326.183-.137.356-.27.538-.406M59.223 21.043a31.263 31.263 0 002.429-1.646c-1.677 1.07-3.37 2.144-4.617 3.332.218-.114.513-.087.732-.202.29-.511.797-1.138 1.456-1.484" fill="#ECEEF1"/><path d="M55.004 25.776c2.328-2.479 5.319-4.228 7.87-6.284 1.968-1.571 4.747-2.126 6.199-4.148l-.222-.424-.144.256c-.812.319-1.551.417-2.257.636.029-.032.064-.063.093-.096l-.183.125a4.02 4.02 0 00-1.381.746c-.2.191-.405.383-.613.572-2.607 1.685-5.317 3.383-7.331 5.57-1.31 1.227-2.253 2.623-3.564 3.851.437-.229 1.169-.433 1.533-.804zm6.312-10.647c-.801.702-1.584 1.367-2.626 1.913.873-.642 1.749-1.277 2.626-1.913zM44.409 27.296c-1.994 1.81-4.409 3.425-6.651 4.448-1.753.918-6.344 4.403-4.578 5.643.554-4.219 14.449-7.646 11.229-10.091zm.764 7.415c-1.382 1.624-3.573 2.771-5.614 4.202-.657.344-1.017 1.253-1.893 1.712-1.022.714-1.53 1.342-2.333 1.941l.807-.061c-1.608.663-2.04 1.97-3.721 2.488.075.143.004.54-.215.655-1.02.714-2.265 1.006-2.993 1.747-1.02.715-2.114 1.288-2.843 2.03-.22.115-.434.768-.798 1.14-.505.336-1.021.653-1.534.972.044.025.085.052.124.078.438-.222.873-.468 1.264-.794 1.167-.971 2.551-2.057 3.79-2.886 3.139-2.004 5.908-4.176 8.676-6.347.583-.485 1.093-1.112 1.675-1.597 1.675-1.598 4.159-2.72 4.953-4.396.145-.257.583-.487.655-.884zm-31.869 18.69c-1.631.544-3.44 1.906-5.238 3.127a.442.442 0 00.039.118c1.674-.71 3.466-2.089 5.199-3.245zM8.11 55.947c.194-.176.39-.367.582-.563a2.25 2.25 0 01-.155-.044c-.212.11-.353.352-.427.607zm71.546-42.18a113.82 113.82 0 00-6.291 4.974c-4.568 2.459-8.823 5.118-12.198 8.359-2.91 2.967-9.19 5.895-11.509 9.993a7.78 7.78 0 001.132-.481c-.413.462-.782.939-1.098 1.432-5.528 3.521-11.047 6.799-16.957 9.893-.877.459-1.311 1.229-2.187 1.688-.876.486-1.734.971-2.587 1.456.013.034.04.06.08.077-3.513 2.069-6.917 4.206-10.409 6.628-1.678 1.059-3.506 1.836-5.257 2.753-.656.344-.953-.222-1.465-.134-2.122.21-3.732.332-5.85 1.081l-.223-.424c-.276.206-.55.344-.796.415.111-2.081 2.215-3.903-.901-3.668l-.002-.005a7.8 7.8 0 00.316-.344l.042-.022-.011-.014c.472-.551.691-1.014.807-1.663l-1.152.602c-.031-.236-.088-.459-.231-.636.013-.055.024-.11.042-.167.171-.088.314-.164.314-.164a1.837 1.837 0 00-.047-.392c.686-1.134 2.104-2.279 1.492-2.707-.392-.18-.99.466-1.729 1.084a1.023 1.023 0 00-.24-.053c1.021-.715-.519-.99.064-1.475.876-.459 1.675-1.06 2.551-1.518 3.566-1.868 6.498-3.582 9.778-5.841.145-.099.291-.194.436-.291a32.597 32.597 0 014.914-2.696 5.35 5.35 0 01-.187.448c1.385-.61 2.742-1.28 3.969-2.197 2.988-2.287 5.976-4.572 9.405-6.548 3.612-2.036 6.992-4.184 10.47-6.609-1.358 1.112-2.729 2.195-4.24 3.111-.709.352-1.412.711-2.075 1.095a18.406 18.406 0 002.075-1.095c2.728-1.357 5.59-2.639 6.974-5.055.287-.001.361.141.579.027 1.534-.803 3.14-1.464 4.157-2.718-.074-.142.584-.487.217-.655 1.24-.83 2.774-1.632 3.939-2.603.521-.39.945-.958 1.339-1.588 4.305-3.22 8.552-6.418 13.242-9.788 1.187-.795 2.636-1.561 3.91-2.228-1.627 1.454-3.354 2.857-5.13 4.236-1.957.891-3.778 1.847-4.898 3.358-.279.319-.559.627-.846.929a239.552 239.552 0 005.744-4.287c1.154-.529 2.356-1.034 3.487-1.619-.017.022-.033.044-.053.065-.789.646-1.591 1.284-2.407 1.916-1.74.794-3.371 1.638-4.499 2.878-.14.154-.277.315-.399.482-.277.317-.56.626-.846.927a292.157 292.157 0 003.571-2.634c.73-.546 1.456-1.097 2.173-1.653.512-.232 1.032-.463 1.551-.696-.035.062-.073.127-.101.191-.367.371-.722 2.675.157 2.756 3.352-1.801 7.732-4.951 7.806-4.809.514.452-4.875 4.22-4.582 4.248.357-.106.709-.223 1.056-.345-.247.275-.485.551-.691.83-.583.484-1.534.803-1.825 1.315-1.087 1.652-2.988 2.286-4.443 3.768-.874 1-1.891 2.252-2.907 3.507.147.282-.585.486-.217.654-1.236.648-2.666 1.397-2.763 2.5-.026.024-.052.045-.078.068-.087.046-.186.159-.285.292-2.132.932-3.156 2.468-4.735 3.989-.604.408-1.231.797-1.902 1.148.438-.229 1.168-.432 1.533-.804.126-.114.249-.229.369-.344 1.564-1.058 2.949-2.264 4.368-3.398.086-.151.223-.394.367-.591.118-.052.237-.103.359-.15a1.818 1.818 0 01.004-.21c1.3-1.198 2.933-2.239 4.003-3.33 2.177-1.756 4.893-2.875 7.413-4.092a119.541 119.541 0 00-3.242 2.674 162.148 162.148 0 003.882-2.989c.215-.107.424-.212.633-.323l1.315-.688c-.442.152-.873.317-1.298.486.732-.59 1.45-1.183 2.148-1.788 4.044-2.961 8.396-5.677 12.956-7.787a6.32 6.32 0 01-.029.67c-2.099 1.206-4.241 2.328-5.598 4.001 1.236-.647 1.961-1.344 3.139-1.998.042.082.115.193.042.297.679-.561 1.491-1.18 2.334-1.678-.085.512-.207 1.037-.327 1.563-.291.512-.947.857-1.531 1.342-2.714 1.734-5.431 3.064-8.051 4.872-2.52 1.252-5.038 2.503-7.469 3.808 2.218-1.67 4.237-3.245 6.14-4.894z" fill="#ECEEF1"/><path d="M75.441 15.552c.856-.668 1.723-1.331 2.609-1.981a66.319 66.319 0 001.918-1.725c3.119-2.598 7.36-4.494 10.958-6.813a2.546 2.546 0 00-.682-1.272c-4.342 1.686-8.045 4.592-12.267 6.503-.024.031-.05.061-.073.094-1.308 1.767-4.303 2.976-6.123 4.829-1.745 1.996-3.787 3.426-5.605 5.28 3.164-1.657 6.012-3.537 9.265-4.915M53.413 35.64a488.1 488.1 0 002.452-1.618 83.206 83.206 0 006.094-4.809 120.604 120.604 0 01-4.8 2.666c-1.555 1.006-2.567 2.444-3.746 3.761" fill="#ECEEF1"/><path d="M63.516 27.853c-.523.464-1.039.915-1.557 1.36 2.331-1.36 4.611-2.771 6.88-4.193 3.586-2.613 7.213-5.151 10.71-7.932.402-.308.807-.6 1.216-.88-7.319 3.63-14.616 7.247-19.821 12.246-.093.097-.202.194-.303.291 2.872-1.627 5.654-3.346 8.42-5.079-1.868 1.36-3.725 2.739-5.545 4.187M74.612 16.199c.216-.104.428-.209.64-.315.221-.175.435-.349.65-.525-.154.065-.309.128-.461.193-.277.217-.556.429-.829.647M66.45 15.812l-.09.029a95.73 95.73 0 01-1.994 1.318 35.617 35.617 0 01-2.714 2.238c1.811-1.154 3.599-2.301 4.798-3.585M58.603 15.601c-.219.114-.655.342-.875.459l-.265.463c.208-.1.42-.199.633-.296l.507-.626M46.875 24.657c3.593-2.584 6.929-5.067 10.231-7.537.122-.194.241-.394.357-.597-2.466 1.181-4.778 2.623-6.589 4.567-.363.371-.799 1.139-1.236 1.368-2.003 1.221-3.742 2.703-5.497 4.143.879-.613 1.762-1.239 2.659-1.891.026-.017.05-.035.075-.053M128.101 4.422l.444-.235c-.024-.045-.054-.089-.081-.135a8.794 8.794 0 00-.363.37M128.56 6.346l.139-.074c-.036-.03-.058-.066-.087-.1-.015.057-.029.115-.052.174M128.461 4.048c-.306-.5-.763-.919-.81-1.556l.983-.517c.096-.413-.297-.565-.446-.848.245-.13.491-.259.416-.399-.035-.457-.43-.562-.953-.399-.222 2.141-2.62 4.125.81 3.719M127.099 6.213l1.293-.682c-.038-.394-.026-.814-.328-1.069-.543.59-.808 1.078-.965 1.751M27.224 59.627c.045.087.047.144-.242.135.086-.046.162-.091.242-.135-.04-.082-.116-.192-.032-.303-.772.612-1.693 1.291-2.641 1.848a9.751 9.751 0 00-.12.643c2.36-1.351 4.765-2.619 6.336-4.409-1.393.734-2.219 1.486-3.543 2.221M24.693 62.766c-.083.044-.159.09-.242.134.287.011.286-.046.242-.134M65.872 36.987c1.421-.904 2.465-2.079 3.532-3.246-2.584 1.875-5.344 3.586-7.193 5.25a149.017 149.017 0 013.661-2.004M74.972 28.427c-1.977.705-3.305 1.856-4.498 3.096a461.401 461.401 0 014.198-2.669c.098-.141.209-.282.3-.427M73.398 30.384c-1.685.879-2.853 2.112-3.994 3.357 1.462-1.058 2.853-2.171 3.994-3.357M46.948 60.904c-.89.991-1.467 1.524-1.823 1.771-.065.286-.161.646-.303 1.108l.197-.103a102.18 102.18 0 013.101-2.529c.384-.43.739-.863 1-1.299-.732.338-1.463.684-2.172 1.052M45.125 62.675c.55-2.448-1.395.962 0 0M47.6 50.036l.169-.09.441-.355c-.208.151-.405.297-.61.445M63.395 46.823a39.544 39.544 0 00-2.745 1.821c1.891-1.189 3.802-2.382 5.226-3.67-.245.129-.567.118-.812.247-.343.541-.93 1.213-1.669 1.602" fill="#ECEEF1"/><path d="M68.251 41.736c-2.673 2.672-6.038 4.627-8.936 6.875-2.236 1.719-5.311 2.438-7.002 4.592l.224.425.17-.271c.907-.372 1.722-.511 2.507-.775-.034.035-.073.069-.107.104l.206-.138a5.08 5.08 0 001.552-.84c.228-.208.463-.415.7-.621 2.941-1.869 5.996-3.759 8.311-6.113 1.497-1.329 2.599-2.814 4.097-4.145-.491.259-1.304.507-1.722.907zm-7.438 11.272c.913-.764 1.803-1.49 2.973-2.106-.989.706-1.98 1.406-2.973 2.106zm19.135-13.401c2.275-1.966 5.002-3.753 7.511-4.924 1.969-1.038 7.173-4.863 5.296-6.039-.813 4.36-16.221 8.626-12.807 10.963zm-.479-7.573c1.593-1.741 4.052-3.037 6.361-4.615.737-.389 1.176-1.342 2.159-1.86 1.155-.789 1.743-1.459 2.654-2.12l-.888.108c1.796-.768 2.332-2.133 4.201-2.756-.074-.142.021-.554.268-.683 1.154-.789 2.533-1.155 3.367-1.955 1.154-.789 2.383-1.435 3.218-2.236.247-.13.513-.813.931-1.214.57-.373 1.151-.725 1.73-1.08a2.036 2.036 0 01-.133-.074c-.491.252-.98.527-1.425.883-1.327 1.06-2.897 2.25-4.297 3.168-3.54 2.225-6.683 4.604-9.825 6.982-.663.528-1.252 1.201-1.915 1.729-1.914 1.732-4.693 3.016-5.646 4.781-.171.271-.663.53-.76.942zm35.863-20.902c1.816-.647 3.867-2.141 5.898-3.492a.403.403 0 00-.038-.12c-1.869.82-3.903 2.333-5.86 3.612zm5.821-2.894c-.22.192-.445.399-.666.611.058.009.114.021.169.037.239-.125.405-.382.497-.648zM40.627 55.392a142.477 142.477 0 007.142-5.446c5.13-2.77 9.926-5.729 13.785-9.238 3.337-3.203 10.367-6.546 13.109-10.878a9.839 9.839 0 00-1.265.554 13.52 13.52 0 001.274-1.53c6.234-3.912 12.447-7.573 19.08-11.068.983-.518 1.497-1.332 2.48-1.85.986-.546 1.95-1.09 2.91-1.634a.137.137 0 00-.085-.075c3.955-2.313 7.791-4.691 11.74-7.365 1.891-1.177 3.934-2.074 5.898-3.108.739-.39 1.036.176 1.603.058 2.338-.33 4.11-.542 6.47-1.424l.223.423c.314-.227.62-.382.894-.468-.222 2.141-2.618 4.126.811 3.718l.002.004a8.78 8.78 0 00-.362.37l-.048.025.011.014c-.544.591-.807 1.079-.965 1.752l1.292-.681c.023.24.075.467.224.641-.018.057-.033.114-.055.172l-.352.186c-.005.142.006.275.032.4-.807 1.201-2.418 2.454-1.767 2.861.421.163 1.108-.533 1.948-1.207.084.024.175.039.262.042-1.154.789.521.989-.142 1.517-.983.519-1.889 1.179-2.873 1.696-4.001 2.11-7.3 4.028-11.009 6.523-.163.11-.327.215-.491.322a40.892 40.892 0 01-5.521 3.032c.068-.16.144-.316.226-.469-1.548.701-3.069 1.462-4.46 2.469-3.388 2.508-6.776 5.015-10.633 7.228-4.061 2.285-7.872 4.672-11.806 7.349 1.543-1.216 3.1-2.402 4.802-3.422a47.708 47.708 0 002.329-1.237c-.814.371-1.584.788-2.329 1.237-3.059 1.539-6.26 3.009-7.896 5.564-.314.016-.388-.125-.634.004-1.72.907-3.515 1.672-4.691 3.014.074.141-.664.53-.27.683-1.4.918-3.122 1.826-4.446 2.885-.591.428-1.084 1.034-1.547 1.702-4.877 3.537-9.691 7.049-14.999 10.762-1.341.88-2.968 1.743-4.397 2.497 1.855-1.58 3.817-3.113 5.833-4.624 2.189-1.021 4.234-2.1 5.535-3.712.321-.342.644-.674.973-.999a303.823 303.823 0 00-6.508 4.711c-1.293.605-2.635 1.188-3.904 1.85.02-.024.038-.047.06-.071.898-.705 1.809-1.404 2.733-2.096 1.948-.909 3.778-1.863 5.076-3.197.161-.166.318-.338.461-.516.319-.341.645-.674.973-.998a379.277 379.277 0 00-4.046 2.896c-.826.602-1.65 1.205-2.464 1.815-.571.266-1.154.531-1.733.797.04-.066.085-.133.119-.201.42-.4.921-2.785-.039-2.821-3.765 2.028-8.722 5.499-8.796 5.357-.542-.436 5.551-4.594 5.232-4.608-.397.128-.789.267-1.176.412.285-.297.56-.593.8-.89.662-.53 1.72-.907 2.064-1.449 1.273-1.754 3.388-2.508 5.057-4.107 1.007-1.073 2.182-2.414 3.358-3.757-.148-.282.665-.53.269-.684 1.387-.73 2.992-1.576 3.152-2.714l.089-.076c.098-.051.212-.171.327-.314 2.384-1.071 3.581-2.704 5.388-4.35a25.075 25.075 0 012.141-1.281c-.491.259-1.302.507-1.721.907-.143.124-.283.249-.42.374-1.767 1.17-3.345 2.483-4.957 3.724-.101.159-.263.417-.431.626a7.937 7.937 0 01-.401.173c0 .074-.006.146-.015.217-1.483 1.299-3.326 2.456-4.552 3.634-2.473 1.919-5.506 3.214-8.33 4.599 1.259-.965 2.489-1.94 3.685-2.919a202.992 202.992 0 00-4.402 3.276c-.241.122-.475.242-.71.366l-1.477.778c.493-.18.973-.372 1.448-.569a102.77 102.77 0 00-2.442 1.951c-4.58 3.258-9.485 6.281-14.589 8.691a5.97 5.97 0 01.064-.688c2.361-1.352 4.764-2.619 6.334-4.409-1.388.731-2.217 1.485-3.541 2.219-.041-.082-.116-.191-.031-.302-.772.612-1.693 1.291-2.642 1.848.119-.53.277-1.076.434-1.622.344-.542 1.081-.931 1.744-1.461 3.062-1.925 6.106-3.437 9.068-5.435 2.826-1.42 5.649-2.84 8.379-4.311-2.515 1.834-4.806 3.56-6.973 5.356z" fill="#ECEEF1"/><path d="M45.337 53.332c-.97.732-1.954 1.46-2.957 2.174a81.01 81.01 0 00-2.188 1.875c-3.547 2.835-8.291 5.01-12.35 7.583.094.481.303.913.686 1.27 4.845-1.966 9.048-5.147 13.772-7.336.028-.034.058-.065.084-.101 1.521-1.884 4.865-3.286 6.95-5.287 2.012-2.143 4.321-3.721 6.405-5.722-3.552 1.871-6.767 3.955-10.402 5.544M70.474 31.523c-.918.591-1.841 1.187-2.768 1.792a103.82 103.82 0 00-6.919 5.267 152.88 152.88 0 015.395-2.996c1.754-1.116 2.933-2.648 4.292-4.063M59.014 40.062c.596-.506 1.184-.996 1.773-1.48a315.034 315.034 0 00-7.749 4.675c-4.06 2.874-8.163 5.676-12.133 8.719-.456.336-.915.659-1.377.968 8.204-4.12 16.384-8.225 22.337-13.638.106-.104.231-.21.346-.315-3.229 1.824-6.365 3.739-9.482 5.667 2.114-1.498 4.218-3.013 6.285-4.596" fill="#ECEEF1"/><path d="M46.278 52.623c-.242.119-.48.237-.717.357-.25.192-.495.383-.739.575l.515-.223c.315-.237.631-.471.941-.709M55.214 52.582l.099-.034c.734-.49 1.489-.976 2.252-1.461a44.321 44.321 0 013.085-2.443c-2.042 1.281-4.059 2.556-5.436 3.938M63.811 52.379l.984-.519c.104-.165.207-.328.312-.491-.233.114-.471.228-.708.339l-.588.671M77.115 42.449c-4.066 2.846-7.845 5.575-11.588 8.288-.142.206-.282.418-.42.632 2.762-1.345 5.37-2.949 7.449-5.043.416-.399.931-1.213 1.422-1.471 2.256-1.36 4.236-2.976 6.231-4.548a197.81 197.81 0 00-3.008 2.084c-.029.018-.057.039-.086.058" fill="#ECEEF1"/><path d="M27.542 26.094v4.758h2.985c.732 0 1.309-.215 1.731-.647.422-.433.634-1 .634-1.704s-.216-1.281-.648-1.732c-.432-.451-1.005-.675-1.717-.675h-2.985zm0 8.418v7.686h-4.814V22.434h7.799c2.289 0 4.072.591 5.349 1.774 1.276 1.182 1.914 2.609 1.914 4.279 0 1.145-.347 2.262-1.041 3.351-.695 1.088-1.83 1.857-3.407 2.307l4.843 8.053h-5.632l-4.448-7.686h-.563zM53.219 22.378v3.659h-7.151v4.251h6.306v3.66h-6.306v4.59h7.151v3.66H41.253v-19.82h11.966M55.725 26.094v-3.66h15.597v3.66h-5.406v16.104h-4.813V26.094h-5.378M78.726 26.094v4.758h2.985c.731 0 1.308-.215 1.731-.647.422-.433.633-1 .633-1.704s-.216-1.281-.646-1.732c-.433-.451-1.005-.675-1.718-.675h-2.985zm0 8.418v7.686h-4.814V22.434h7.799c2.289 0 4.072.591 5.349 1.774 1.276 1.182 1.915 2.609 1.915 4.279 0 1.145-.348 2.262-1.042 3.351-.695 1.088-1.831 1.857-3.408 2.307l4.843 8.053h-5.63l-4.449-7.686h-.563zM105.205 36.398c.947-1.032 1.422-2.411 1.422-4.138 0-1.727-.475-3.107-1.422-4.139-.948-1.032-2.216-1.549-3.801-1.549-1.587 0-2.853.517-3.801 1.549s-1.421 2.412-1.421 4.139c0 1.727.473 3.106 1.421 4.138.948 1.033 2.214 1.548 3.801 1.548 1.585 0 2.853-.515 3.801-1.548zm-10.98 3.124c-1.962-1.914-2.943-4.334-2.943-7.262s.981-5.345 2.943-7.25c1.96-1.906 4.364-2.858 7.207-2.858s5.237.952 7.179 2.858c1.944 1.905 2.914 4.322 2.914 7.25s-.976 5.348-2.927 7.262c-1.953 1.915-4.346 2.873-7.18 2.873-2.834 0-5.233-.958-7.193-2.873zM51.8 10.027V7.969h8.772v2.058h-3.041v9.057h-2.707v-9.057H51.8M69.026 7.969h2.708v11.115h-2.708v-4.607h-4.29v4.607h-2.708V7.969h2.708v4.449h4.29V7.969M80.68 7.937v2.059h-4.022v2.391h3.547v2.058h-3.547v2.581h4.022v2.058h-6.73V7.937h6.73" fill="#272525"/><path d="M37.166 52.231a.667.667 0 00-.445.145c-.116.096-.174.234-.174.414 0 .181.055.326.161.437.108.11.248.195.419.253.173.06.365.117.577.17.211.054.421.118.63.195.209.076.4.171.572.283.172.114.312.273.419.479.108.206.161.453.161.741 0 .503-.205.932-.614 1.292-.409.358-.948.537-1.618.537-.669 0-1.207-.161-1.616-.483-.41-.322-.614-.779-.614-1.372h1.541c.039.475.282.712.728.712.208 0 .372-.056.491-.166a.543.543 0 00.178-.419.565.565 0 00-.161-.415 1.154 1.154 0 00-.419-.254 6.717 6.717 0 00-.576-.173 5.683 5.683 0 01-.631-.199 3.112 3.112 0 01-.572-.284 1.198 1.198 0 01-.418-.474 1.556 1.556 0 01-.161-.732c0-.554.205-.996.618-1.33.411-.333.938-.499 1.579-.499.64 0 1.159.145 1.554.436.394.29.601.749.618 1.375h-1.575c-.023-.214-.092-.379-.208-.495a.598.598 0 00-.444-.174M45.642 52.274v-1.1h4.69v1.1h-1.625v4.843h-1.448v-4.843h-1.617M56.591 54.722v-3.548h1.447v3.548c0 .355.087.629.262.82.176.192.433.289.771.289.339 0 .598-.097.779-.289.181-.191.271-.465.271-.82v-3.548h1.448v3.548c0 .524-.123.977-.368 1.358a2.212 2.212 0 01-.931.834 2.85 2.85 0 01-1.224.263c-.689 0-1.271-.214-1.745-.644-.474-.429-.71-1.032-.71-1.811M69.673 56.017h.643c.553 0 .989-.169 1.304-.508.316-.339.475-.793.475-1.364 0-.57-.159-1.024-.475-1.363-.315-.339-.751-.508-1.304-.508h-.643v3.743zm.643-4.843c.949 0 1.728.274 2.337.825.61.551.915 1.265.915 2.143 0 .876-.305 1.592-.915 2.146-.609.553-1.388.829-2.337.829h-2.091v-5.943h2.091zM79.901 57.117h1.449v-5.943h-1.449zM91.879 55.373c.285-.311.428-.726.428-1.245 0-.519-.143-.934-.428-1.244-.285-.311-.666-.466-1.143-.466s-.858.155-1.143.466c-.285.31-.428.725-.428 1.244s.143.934.428 1.245c.285.311.666.466 1.143.466s.858-.155 1.143-.466zm-3.303.94c-.59-.576-.885-1.304-.885-2.185 0-.88.295-1.607.885-2.18.59-.572 1.313-.859 2.168-.859.856 0 1.575.287 2.159.859.585.573.877 1.3.877 2.18 0 .881-.294 1.609-.881 2.185-.587.576-1.307.864-2.159.864-.852 0-1.574-.288-2.164-.864z" fill="#000"/></g></svg>