<svg width="230" height="61" viewBox="0 0 230 61" xmlns="http://www.w3.org/2000/svg"><g fill="none" fill-rule="evenodd"><path d="M60.84 25V8.71h.06L66.27 25h3.57l5.58-16.29h.06V25h4.68V3.76h-7.05l-4.92 13.86h-.06L63.24 3.76h-7.08V25h4.68zm25.728 0l1.77-4.5h8.25l1.83 4.5h5.28l-9.24-21.24h-3.87L81.408 25h5.16zm8.43-8.46h-5.19l2.58-6.6 2.61 6.6zM109.625 25v-8.49h2.31l4.44 8.49h5.61l-5.4-8.97c1.5-.28 2.64-.945 3.42-1.995.78-1.05 1.17-2.325 1.17-3.825 0-1.24-.215-2.275-.645-3.105-.43-.83-1.01-1.49-1.74-1.98s-1.58-.84-2.55-1.05c-.97-.21-1.995-.315-3.075-.315h-8.22V25h4.68zm2.76-12.45h-2.76V7.72h3.06c.42 0 .85.03 1.29.09.44.06.83.175 1.17.345.34.17.62.415.84.735.22.32.33.75.33 1.29 0 .58-.125 1.03-.375 1.35-.25.32-.565.555-.945.705-.38.15-.805.24-1.275.27-.47.03-.915.045-1.335.045zM128.363 25V14.92l8.64 10.08h6.54l-10.26-11.37 9.45-9.87h-6.12l-8.25 8.82V3.76h-4.68V25h4.68zm31.068 0v-4.32h-10.29v-4.32h9.21v-4.32h-9.21V8.08h9.75V3.76h-14.43V25h14.97zm11.657 0V7.9h6.06V3.76h-16.8V7.9h6.06V25h4.68zm12.168 0V3.76h-4.68V25h4.68zm8.058 0V9.88h.06l9.27 15.12h6.12V3.76h-4.68v14.76h-.06l-9.03-14.76h-6.36V25h4.68zm29.207.54c1.56 0 3.09-.16 4.59-.48 1.5-.32 2.94-.84 4.32-1.56V12.4h-8.31v4.32h3.81v3.45c-.44.24-1.03.475-1.77.705-.74.23-1.62.345-2.64.345-1 0-1.905-.17-2.715-.51a6.093 6.093 0 01-2.085-1.425 6.287 6.287 0 01-1.335-2.16c-.31-.83-.465-1.745-.465-2.745 0-.98.155-1.89.465-2.73a6.26 6.26 0 011.335-2.175 6.093 6.093 0 012.085-1.425c.81-.34 1.715-.51 2.715-.51 1.2 0 2.2.17 3 .51.8.34 1.52.84 2.16 1.5l3.3-3.6a9.192 9.192 0 00-3.765-2.115c-1.43-.41-2.995-.615-4.695-.615-1.66 0-3.19.26-4.59.78s-2.61 1.265-3.63 2.235-1.815 2.145-2.385 3.525c-.57 1.38-.855 2.92-.855 4.62 0 1.7.285 3.24.855 4.62.57 1.38 1.365 2.555 2.385 3.525 1.02.97 2.23 1.715 3.63 2.235 1.4.52 2.93.78 4.59.78zM60.84 55v-8.28h3.42c1.12 0 2.16-.105 3.12-.315.96-.21 1.79-.565 2.49-1.065.7-.5 1.25-1.17 1.65-2.01.4-.84.6-1.88.6-3.12 0-1.26-.215-2.305-.645-3.135-.43-.83-1.01-1.49-1.74-1.98s-1.585-.835-2.565-1.035c-.98-.2-2.02-.3-3.12-.3h-7.89V55h4.68zm3.12-12.24h-3.12v-5.04h2.4c.44 0 .9.025 1.38.075.48.05.915.165 1.305.345.39.18.71.435.96.765s.375.765.375 1.305c0 .5-.095.915-.285 1.245-.19.33-.44.59-.75.78-.31.19-.66.325-1.05.405-.39.08-.795.12-1.215.12zM87.708 55v-4.32h-8.67V33.76h-4.68V55h13.35zm4.667 0l1.77-4.5h8.25l1.83 4.5h5.28l-9.24-21.24h-3.87L87.215 55h5.16zm8.43-8.46h-5.19l2.58-6.6 2.61 6.6zM118.433 55v-9.06l7.98-12.18h-5.55l-4.77 7.95-4.5-7.95h-5.82l7.98 12.18V55h4.68zm17.358 0c.94 0 1.885-.1 2.835-.3.95-.2 1.805-.53 2.565-.99a5.66 5.66 0 001.86-1.815c.48-.75.72-1.685.72-2.805 0-.68-.11-1.32-.33-1.92a4.728 4.728 0 00-.945-1.575c-.41-.45-.9-.82-1.47-1.11a6.06 6.06 0 00-1.905-.585v-.06c1.1-.34 1.985-.905 2.655-1.695.67-.79 1.005-1.785 1.005-2.985 0-1.16-.23-2.09-.69-2.79a4.797 4.797 0 00-1.8-1.635c-.74-.39-1.575-.65-2.505-.78-.93-.13-1.855-.195-2.775-.195h-7.92V55h8.7zm-.63-12.75h-3.39v-4.53h3.18c.36 0 .73.035 1.11.105.38.07.72.185 1.02.345.3.16.545.385.735.675.19.29.285.655.285 1.095 0 .42-.085.78-.255 1.08-.17.3-.395.54-.675.72-.28.18-.595.31-.945.39-.35.08-.705.12-1.065.12zm.81 8.79h-4.2v-4.83h3.54c.38 0 .79.03 1.23.09.44.06.85.17 1.23.33s.695.395.945.705c.25.31.375.715.375 1.215 0 .46-.095.85-.285 1.17-.19.32-.435.58-.735.78-.3.2-.635.34-1.005.42-.37.08-.735.12-1.095.12zm19.997 4.5c1.66 0 3.19-.26 4.59-.78s2.61-1.265 3.63-2.235 1.815-2.145 2.385-3.525c.57-1.38.855-2.92.855-4.62 0-1.7-.285-3.24-.855-4.62-.57-1.38-1.365-2.555-2.385-3.525-1.02-.97-2.23-1.715-3.63-2.235-1.4-.52-2.93-.78-4.59-.78-1.66 0-3.19.26-4.59.78s-2.61 1.265-3.63 2.235-1.815 2.145-2.385 3.525c-.57 1.38-.855 2.92-.855 4.62 0 1.7.285 3.24.855 4.62.57 1.38 1.365 2.555 2.385 3.525 1.02.97 2.23 1.715 3.63 2.235 1.4.52 2.93.78 4.59.78zm0-4.32c-1 0-1.905-.17-2.715-.51a6.093 6.093 0 01-2.085-1.425 6.287 6.287 0 01-1.335-2.16c-.31-.83-.465-1.745-.465-2.745 0-.98.155-1.89.465-2.73a6.26 6.26 0 011.335-2.175 6.093 6.093 0 012.085-1.425c.81-.34 1.715-.51 2.715-.51 1 0 1.905.17 2.715.51.81.34 1.505.815 2.085 1.425a6.26 6.26 0 011.335 2.175c.31.84.465 1.75.465 2.73 0 1-.155 1.915-.465 2.745-.31.83-.755 1.55-1.335 2.16a6.093 6.093 0 01-2.085 1.425c-.81.34-1.715.51-2.715.51zm24.078 4.32c1.66 0 3.19-.26 4.59-.78s2.61-1.265 3.63-2.235S190.08 50.38 190.65 49c.57-1.38.855-2.92.855-4.62 0-1.7-.285-3.24-.855-4.62-.57-1.38-1.365-2.555-2.385-3.525-1.02-.97-2.23-1.715-3.63-2.235-1.4-.52-2.93-.78-4.59-.78-1.66 0-3.19.26-4.59.78s-2.61 1.265-3.63 2.235-1.815 2.145-2.385 3.525c-.57 1.38-.855 2.92-.855 4.62 0 1.7.285 3.24.855 4.62.57 1.38 1.365 2.555 2.385 3.525 1.02.97 2.23 1.715 3.63 2.235 1.4.52 2.93.78 4.59.78zm0-4.32c-1 0-1.905-.17-2.715-.51a6.093 6.093 0 01-2.085-1.425 6.287 6.287 0 01-1.335-2.16c-.31-.83-.465-1.745-.465-2.745 0-.98.155-1.89.465-2.73a6.26 6.26 0 011.335-2.175 6.093 6.093 0 012.085-1.425c.81-.34 1.715-.51 2.715-.51 1 0 1.905.17 2.715.51.81.34 1.505.815 2.085 1.425a6.26 6.26 0 011.335 2.175c.31.84.465 1.75.465 2.73 0 1-.155 1.915-.465 2.745-.31.83-.755 1.55-1.335 2.16a6.093 6.093 0 01-2.085 1.425c-.81.34-1.715.51-2.715.51zM198.664 55V44.92l8.64 10.08h6.54l-10.26-11.37 9.45-9.87h-6.12l-8.25 8.82v-8.82h-4.68V55h4.68z" fill="#1E1608" fill-rule="nonzero"/><path d="M40.573 43.85H37.43c-.092 0-.18.014-.267.027V9.16a.86.86 0 00-.677-.84l-22.7-4.883h26.786V43.85zm-5.123 8.097l-4.3-.926v-35.59c0-.654-.37-1.251-.956-1.54L11.71 4.746l23.74 5.106v42.094zm-7.727 4.571L3.427 44.501V4.48L27.723 16.5v40.018zM42.286 0H1.714l-.026.002a1.694 1.694 0 00-.301.03L1.33.048a1.723 1.723 0 00-.244.075c-.02.008-.039.014-.058.023a1.67 1.67 0 00-.22.114L.78.28C.759.294.739.309.72.323.654.37.591.422.533.477.52.491.504.503.491.517a1.772 1.772 0 00-.181.22c-.014.02-.026.04-.038.06a1.7 1.7 0 00-.118.217l-.023.05a1.7 1.7 0 00-.1.348c-.018.1-.031.202-.031.306v43.85c0 .655.37 1.252.956 1.542l27.722 13.713a1.71 1.71 0 001.663-.082 1.72 1.72 0 00.809-1.46V52.78l4.977 1.07a.845.845 0 00.718-.171.86.86 0 00.32-.669V47.26c.087.014.174.027.266.027h4.855c.947 0 1.714-.77 1.714-1.718V1.719C44 .768 43.233 0 42.286 0z" fill="#FECC0B"/></g></svg>