<svg width="129" height="81" viewBox="0 0 129 81" xmlns="http://www.w3.org/2000/svg"><g fill="none" fill-rule="evenodd"><path d="M25.869 54.266l.339 1.014c-1.259-3.227-2.023-6.82-2.275-10.374.039 1.941.185 3.99.578 6.028.413 2.027.957 4.072 1.786 5.947 1.559 3.796 4.021 6.935 6.476 8.756-.08.483 1.092 2.228 2.496 3.691.349.366.7.725 1.034 1.057l.967.835c.577.479.978.792 1.041.77l2.054 1.225 2.116 1.14c-.957-.55-1.952-1.036-2.873-1.636.921.6 1.916 1.086 2.873 1.636a66.655 66.655 0 007.079 3.083 62.472 62.472 0 007.66 2.161c2.645.528 5.37.867 8.148.99 2.784.137 5.606-.109 8.44-.479l2.79-.57c.539-.095 1.089-.271 1.67-.442l1.813-.539c.628-.184 1.245-.462 1.895-.701.638-.264 1.32-.474 1.961-.8 1.296-.624 2.653-1.234 3.916-2.02 1.311-.707 2.517-1.584 3.713-2.403.598-.409 1.132-.888 1.684-1.317.542-.443 1.094-.851 1.564-1.321.968-.909 1.902-1.737 2.636-2.587l1.074-1.161c.337-.36.602-.734.868-1.051.59-.757 1.219-1.48 1.733-2.309l-.548.785-.413.507-1.017 1.243a37.49 37.49 0 005.047-9.955c-.322.54-.467.604-1.159 1.891l.751-1.614c.104-.394.18-.94.333-1.525.129-.595.347-1.23.463-1.899l.355-1.948c.13-.608.127-1.169.167-1.603.054.196.133-.044.22-.486.041-.221.093-.491.13-.783l.072-.904-.131.47c.233-2.284.116-4.754-.119-7.135-.182-1.181-.298-2.359-.549-3.463l-.323-1.629-.378-1.522a7.183 7.183 0 01-.199-1.232c-.427-1.221-.809-2.456-1.321-3.642.15.104-.084-.666-.261-1.253-.189-.581-.337-.973.084-.142-1.313-2.602-2.503-5.306-4.143-7.552-2.6-4.181-5.878-8.188-9.95-11.362-4.003-3.241-8.817-5.541-13.778-6.665.075.04.147.091.221.14-.872-.175-1.731-.284-2.578-.41-.85-.116-1.713-.109-2.585-.177l-.66-.041c-.221-.005-.446.006-.671.007L66.8.994c-.946-.046-1.932.054-2.999.072-.376.062-.775.098-1.178.181l-1.232.269c-.83.191-1.676.324-2.435.597a43.76 43.76 0 00-2.049.687 5.074 5.074 0 00-1.265.662 76.67 76.67 0 00-2.126.745c-.612.256-1.15.527-1.689.78l-1.664.792-1.942 1.056c.436-.091-.266.324-.88.688-.613.353-1.145.723-.364.396 2.125-.68 2.103-1.008 3.905-1.543l-.081-.046c4.04-1.597 8.258-2.666 12.505-2.934 4.244-.278 8.498.259 12.505 1.626 2.706.817 5.392 2.136 7.87 3.832 2.481 1.694 4.762 3.747 6.763 5.978 2.179 2.38 4.173 5.13 5.818 7.964a52.275 52.275 0 013.907 8.381c.226.631.369 1.192.483 1.733.104.543.149 1.075.242 1.637a39.297 39.297 0 011.275 8.348c.127 2.975-.124 6.029-.787 8.764l.065-.269c-.06.371-.174.719-.288 1.056l-.331.99c-.116.32-.203.643-.344.944l-.415.898c-.506 1.21-1.188 2.326-1.862 3.637.061.019-.183.408-.274.613-.066.036-.253.297-.531.729l-.482.77-.672.938-.782 1.102c-.273.394-.619.762-.945 1.17-.334.4-.668.824-1.027 1.239l-1.155 1.202c-1.547 1.623-3.317 3.052-4.749 4.101-1.45 1.022-2.57 1.656-2.808 1.771-.265.168-.558.312-.85.47-2.848 1.455-5.997 2.363-9.046 2.916-3.053.582-6.036.731-8.734.748-1.174.178-2.506.16-3.517.274-.948-.234-1.157-.018-2.316-.183-2.834-1.017-4.521-1.259-3.093-.697-2.41-.403-4.725-1.245-6.755-1.986-.942-.348-1.896-.661-2.824-1.076-.798-.331-1.203-.601-1.513-.941-.983-.492-1.317-.69-1.652-.91-.323-.24-.647-.501-1.606-1.13-.095-.11-.445-.353-.922-.671-.472-.325-1.115-.668-1.697-1.097-.588-.421-1.216-.807-1.667-1.181-.459-.365-.805-.649-.915-.769l.298.229-.689-.66-.582-.674c-.363-.45-.732-.85-1.034-1.31-.314-.448-.625-.892-.961-1.345-.312-.473-.64-.961-1.021-1.473-.984-1.472-1.943-3.012-2.715-4.663-.427-.806-.743-1.665-1.111-2.501-.297-.863-.65-1.708-.882-2.589-1.072-3.481-1.488-7.087-1.425-10.381-.211-.067.058 1.453-.222 1.537-.036-1.957.154-3.921.464-5.86.319-1.943.823-3.841 1.37-5.722.271-.657.619-1.45.794-1.728.511-1.138.164-.723.509-1.569l.22-.045c.39-1.279.941-1.705 1.447-2.839-.038-.093.156-.506.362-.898.189.078.669-1.189.797-1.041l-.006-.018c.137-.228.214-.403.413-.662l.461-.94.388-.789.481-.853c.628-1.178 1.405-2.272 1.527-2.512l.18-.165c.475-.54.585-.861.267-.578l.618-.645-.061.085.614-.642c.131-.1.332-.16.213.076.312-.393.695-.81 1.083-1.129a55.696 55.696 0 00-3.551 2.982c.317-.529 1.159-1.25 1.59-1.745.307-.25.781-.623 1.3-1.029.51-.416 1.063-.867 1.58-1.22.201-.185.202-.48.742-.806.323-.082.553-.435 1.034-.657a6.19 6.19 0 01-.678.569l-.691.56c.098.038.397-.173.72-.427.337-.235.704-.507.909-.628.143-.181 1.098-.83 1.694-1.249-.168.32.552-.226.962-.381.413-.257.665-.447.455-.41.019-.276-1.702.959-1.241.411.203-.02.986-.585 1.445-.831-.048-.094-.35.107-.107-.147.515-.266.99-.682 1.332-.752-.081.079-.298.182-.447.264.332-.183-.477.476-1.251 1.102-.743.676-1.452 1.324-1.066 1.035-.123.043.65-.707 1.482-1.343.827-.637 1.647-1.26 1.427-1.138-.426.183.2-.331-.235-.126l-.401.375c-.586.289-.914.264-.748.087.484-.265-.112.277-.716.813-.58.576-1.175 1.141-.815.844l-.344.164c.296-.264 1.135-.916 1.551-1.012-.051-.09.394-.385.761-.637l.145-.062c.371-.272.939-.569.616-.542-1.164.674-.914.227-.646-.24.267-.466.554-.955-.628-.316 1.089-.354-.217.386-1.214 1-.136-.005-.634.184-1.378.599-.605.417-.315.306-.399.43-.37.179-1.009.623-1.001.46-.372.461-.796.468-1.31.932-.423.442.07.022-.215.353l-1.182.96c-.407.328-.762.681-1.038.915-.279.109-1.044.56-.713.002 1.028-.943-.185.571.837-.453-.633.234.88-.932.976-1.227-.212.108-.51.303-.804.561-.292.262-.6.565-.874.848l.138-.084c-.234.257-.613.613-.969 1-.36.385-.739.76-1.047.988.055-.19-.221.004.113-.385l-.666.692c-.057.113-.115.228.078.029a4.172 4.172 0 01-.818.949c-.035.005-.237.269-.519.659-.273.396-.595.941-.923 1.467-.654 1.055-1.17 2.148-1.168 2.058-.379.57-.565.653-.82 1.279.009.025.199-.327.474-.859l1.085-1.872c.824-1.301 1.635-2.499 1.37-2.125-.218.201-1.339 1.819-2.264 3.515-.481.837-.879 1.713-1.235 2.363-.311.675-.545 1.148-.634 1.223-.229.454-.472 1.016-.329.951-.386.766-.065-.313-.393.209.008.019.064-.025-.018.152l-.349.491c-.416 1.274-1.252 3.065-1.463 4.466.022-.416-.023-.915.171-1.81l.104-.132c.016-.13.247-.842.149-.856-.179.394-.341.764-.463 1.152a14.91 14.91 0 00-.303 1.243c-.075.152-.16.332-.224.45.013 0 .027-.01.041-.003-.148.267-.148.235-.152.12-.002-.015-.005-.034-.002-.066-.223.218-.381 1.064-.568 2.029-.145.976-.308 2.074-.487 2.846-.029.467.041.051.01.633-.189.788-.296 1.464-.405 2.151-.125.685-.185 1.387-.256 2.235.098.547.146.587.303-.059-.039.423-.063.848-.066 1.273-.335-1.171-.294 2.401-.63 1.12-.088.381-.031 1.16.058 1.883.099.066.197.173.308 1.077.048 1.27.017.97.084 2.024-.064.263-.171-.112-.248-.056.416 1.588-.013 1.454.364 2.966.208.952.821 2.778.994 2.769.417 1.235.297 1.28.107 1.21" fill="#ECEEF1"/><path d="M9.488 38.24c0-5.246-.076-6.836-2.336-6.836-2.279 0-2.375 1.59-2.375 6.836 0 5.267.096 6.645 2.375 6.645 2.26 0 2.336-1.378 2.336-6.645zm4.654 0c0 3.811-2.777 6.818-6.99 6.818S.162 42.051.162 38.24c0-3.791 2.777-7.008 6.99-7.008s6.99 3.217 6.99 7.008zM28.795 35.062c0-3.658-.498-3.485-2.738-3.485h-.594v6.913h.594c2.489 0 2.738.038 2.738-3.428zm6.167 9.651v.172h-3.811c-1.36 0-1.781-.862-2.24-4.423-.25-1.915-2.547-1.8-2.547-1.8h-.901v4.06c0 1.876.077 1.991.881 1.991v.172h-5.726v-.172c.824 0 .996-.038.996-1.991v-9.46c0-1.188-.153-1.705-.996-1.705v-.153h5.439c3.811 0 7.239.46 7.239 3.658 0 2.872-2.643 3.466-4.481 3.466 2.202 0 3.312.479 4.251 3.926.383 1.455 1.398 2.221 1.896 2.259zM54.575 39.849v.172c-1.321 0-1.225.115-1.225 3.945-.958.67-2.853 1.092-4.903 1.092-4.136 0-7.353-2.853-7.353-6.913 0-4.079 3.217-6.913 7.353-6.913 2.624 0 3.657.287 4.845 1.072l-.364 3.773h-.153c0-4.443-3.083-4.673-4.328-4.673-2.182 0-2.642 1.475-2.642 6.741s.497 6.74 2.642 6.74c1.475 0 2.068-.727 2.068-2.585 0-2.087-.287-2.279-1.34-2.279v-.172h5.4M65.82 36.69l-1.704 4.308h3.618L65.82 36.69zm1.934-5.286h.096c4.845 11.107 5.17 11.739 5.17 11.739.69 1.532 1.341 1.551 1.723 1.589v.153h-6.701v-.153c1.531 0 .383-2.24.383-2.24l-.614-1.322h-3.753c-.383.881-.038 3.562 2.26 3.562v.153h-5.515v-.153c.574-.038 1.608-.191 3.083-3.562l3.868-9.766zM91.159 44.885L83.94 34.602v5.975c0 1.532.096 4.136 2.892 4.136v.172h-6.09v-.172c2.643 0 3.026-2.624 3.026-4.136v-6.204l-.901-1.284c-1.148-1.512-1.895-1.493-2.392-1.532v-.153h6.108l6.511 9.403v-5.113c0-1.781-.614-4.137-2.739-4.137v-.153h5.802v.153c-2.374 0-2.891 2.356-2.891 4.137v9.191h-2.107M108.858 31.404v.153c-.804 0-1.245.02-1.245 1.705v9.46c0 1.819.441 1.991 1.245 1.991v.172h-6.32v-.172c.805 0 1.245-.172 1.245-1.991v-9.46c0-1.685-.421-1.705-1.245-1.705v-.153h6.32M127.646 40.29l.192 3.868c-.517.344-2.451.9-4.481.9-4.098 0-7.737-2.585-7.737-6.913s3.639-6.913 7.737-6.913c2.471 0 4.022.517 4.481.881l-.192 3.868h-.152c-.575-3.964-2.739-4.577-4.137-4.577-2.126 0-3.025 1.494-3.025 6.741 0 5.266.957 6.74 3.025 6.74 1.302 0 3.485-.785 4.137-4.595h.152" fill="#272525"/><path d="M28.281 48.629v1.2h-.098c-.169-1.148-1.622-1.103-1.874-1.103h-.286v2.108h.318c.09 0 .941.02 1.025-.655h.097v1.427h-.097c-.084-.681-.935-.661-1.025-.661h-.318v1.414c0 .688.24.74.525.74v.097h-1.693v-.097c.279 0 .363-.286.363-.727V49.42c0-.402-.077-.694-.363-.694v-.097h3.426M34.647 48.668c-.772 0-1.246.499-1.246 2.277 0 1.784.474 2.212 1.246 2.212.765 0 1.233-.428 1.233-2.212 0-1.778-.468-2.277-1.233-2.277zm0 4.586c-1.427 0-2.173-1.019-2.173-2.309 0-1.285.746-2.375 2.173-2.375 1.428 0 2.173 1.09 2.173 2.375 0 1.29-.745 2.309-2.173 2.309zM43.355 48.668c-.772 0-1.246.499-1.246 2.277 0 1.784.474 2.212 1.246 2.212.765 0 1.233-.428 1.233-2.212 0-1.778-.468-2.277-1.233-2.277zm0 4.586c-1.427 0-2.173-1.019-2.173-2.309 0-1.285.746-2.375 2.173-2.375s2.173 1.09 2.173 2.375c0 1.29-.746 2.309-2.173 2.309zM51.446 48.726h-.285v4.373h.285c.662 0 1.687-.085 1.687-2.174 0-2.056-1.012-2.199-1.687-2.199zm0 4.47h-1.557v-.097c.279 0 .462-.292.462-.734V49.46c0-.403-.176-.734-.462-.734v-.097h1.557c1.291 0 2.647.395 2.647 2.296 0 1.933-1.356 2.271-2.647 2.271zM60.07 49.648l.468.687c.849-.558.7-1.246.415-1.603-.189-.188-.461-.272-.694-.188-.338.118-.5.643-.189 1.104zm.967 2.653l-1.058-1.525-.324.208c-.364.259-.616.902-.111 1.531.351.434 1.175.466 1.493-.214zm2.082.142c0 .526-.39.772-.746.811 0 0-.643.059-.901-.324l-.364-.532c-.246.739-1.576 1.291-2.225.389-.649-.889.201-1.602.713-1.9l.325-.195-.344-.519c-.61-.843-.202-1.654.526-1.777.435-.079.739.039.94.266.253.298.539 1.063-.447 1.764l.817 1.213c.247-.545.577-.668.746-.707.136-.033.318-.02.434.078a.358.358 0 01.039.525.377.377 0 01-.531.046.35.35 0 01-.123-.253c0-.137-.351-.033-.513.389l.513.739c.2.299.538.299.538.299.227 0 .454-.072.506-.312h.097zM69.089 48.726h-.285v4.373h.285c.662 0 1.686-.085 1.686-2.174 0-2.056-1.011-2.199-1.686-2.199zm0 4.47h-1.557v-.097c.279 0 .461-.292.461-.734V49.46c0-.403-.175-.734-.461-.734v-.097h1.557c1.292 0 2.647.395 2.647 2.296 0 1.933-1.355 2.271-2.647 2.271zM77.421 48.726h-.201v2.284h.201c.687 0 1.22 0 1.22-1.142 0-1.155-.559-1.142-1.22-1.142zm2.835 4.47h-.546c-.999-.007-.862-.007-1.277-1.414-.195-.675-.825-.675-.909-.675h-.304v1.356c0 .448.181.636.454.636v.097H76v-.097c.278 0 .435-.182.435-.675v-3.159c0-.403-.15-.539-.435-.539v-.097h1.421c1.29 0 2.108.156 2.108 1.239 0 .837-.507 1.116-1.239 1.18.428-.012.908.15 1.232 1.447.129.493.565.59.734.604v.097zM86.227 48.629v.097c-.28 0-.507.143-.507.545v3.185c0 .442.233.643.507.643v.097h-1.811v-.097c.279 0 .506-.201.506-.643v-3.185c0-.402-.221-.545-.506-.545v-.097h1.811M95.48 48.629v.097c-.96-.006-.941 1.233-.941 1.531v2.939h-.278l-2.796-3.562v1.921c0 .292-.007 1.544.869 1.544v.097h-1.92v-.097c.953 0 .953-1.252.953-1.544v-2.024l-.26-.331c-.415-.519-.602-.461-.771-.474v-.097h1.394l2.712 3.419v-1.791c0-.298 0-1.537-.869-1.531v-.097h1.907M104.331 53.196h-.856c-.689 0-.837-.195-1.525-1.174-.37-.532-.688-.948-.688-.948l.856-1.037c.189-.214 1.122-1.291.059-1.311v-.097h1.965v.097c-.454 0-.862.085-2.264 1.881a679.197 679.197 0 011.57 2.102c.305.402.752.39.883.39v.097zm-2.894-4.567v.097c-.286 0-.532.072-.532.545v3.185c0 .442.182.643.461.643v.097h-1.7v-.097c.272 0 .435-.201.435-.643v-3.185c0-.402-.156-.545-.435-.545v-.097h1.771z" fill="#000"/></g></svg>