<svg xmlns="http://www.w3.org/2000/svg" xmlns:xlink="http://www.w3.org/1999/xlink" width="100%" height="100%" version="1.1" viewBox="0 0 700 400" xml:space="preserve" style="fill-rule:evenodd;clip-rule:evenodd;stroke-linejoin:round;stroke-miterlimit:2"><g id="box-model" transform="matrix(0.591216,0,0,0.595238,0,0)"><rect width="1184" height="672" x="0" y="0" style="fill:none"/><clipPath id="_clip1"><rect width="1184" height="672" x="0" y="0"/></clipPath><g clip-path="url(#_clip1)"><g transform="matrix(1.69143,0,0,1.68,0,0)"><rect width="700" height="400" x="0" y="0" style="fill:#e8e8e8"/></g><g id="margin" transform="matrix(0.962553,0,0,1.24837,96.9084,-74.917)"><rect width="912.369" height="449.181" x="199.442" y="135.675" style="fill:#f5cc00"/></g><g id="border" transform="matrix(0.77921,0,0,0.878483,217.113,58.3407)"><rect width="912.369" height="449.181" x="199.442" y="135.675"/></g><g id="padding" transform="matrix(0.687538,0,0,0.69354,277.216,124.969)"><rect width="912.369" height="449.181" x="199.442" y="135.675" style="fill:#0009d7"/></g><g id="content" transform="matrix(0.572948,0,0,0.46236,352.344,208.256)"><rect width="912.369" height="449.181" x="199.442" y="135.675" style="fill:#ebebeb"/></g><g><text x="329.597" y="217.559" transform="matrix(1.69143,0,0,1.68,-90.8755,-76.4619)" style="font-family:'ArialMT','Arial',sans-serif;font-size:15px">This is the content of this block element. It has</text><text x="329.597" y="233.05" transform="matrix(1.69143,0,0,1.68,-90.8755,-76.4619)" style="font-family:'ArialMT','Arial',sans-serif;font-size:15px">a speciﬁc width set. When the text reaches</text><text x="329.597" y="248.54" transform="matrix(1.69143,0,0,1.68,-90.8755,-76.4619)" style="font-family:'ArialMT','Arial',sans-serif;font-size:15px">the total width of the element, the browser</text><text x="329.597" y="264.031" transform="matrix(1.69143,0,0,1.68,-90.8755,-76.4619)" style="font-family:'ArialMT','Arial',sans-serif;font-size:15px">wraps the content to the next line within the</text><text x="329.597" y="279.522" transform="matrix(1.69143,0,0,1.68,-90.8755,-76.4619)" style="font-family:'ArialMT','Arial',sans-serif;font-size:15px">element.</text></g><g><text x="566.276" y="217.559" transform="matrix(1.69143,0,0,1.68,-268.607,-218.34)" style="font-family:'ArialMT','Arial',sans-serif;font-size:15px">margin</text></g><g><text x="562.508" y="217.559" transform="matrix(1.69143,0,0,1.68,-268.607,-113.528)" style="font-family:'ArialMT','Arial',sans-serif;font-size:15px;fill:#fff">padding</text></g><g><text x="567.521" y="217.559" transform="matrix(1.69143,0,0,1.68,-268.607,-159.007)" style="font-family:'ArialMT','Arial',sans-serif;font-size:15px;fill:#fff">border</text></g><g><text x="329.597" y="241.197" transform="matrix(1.69143,0,0,1.68,-540.575,-330.648)" style="font-family:'ArialMT','Arial',sans-serif;font-size:48px">The Box Model</text></g></g></g></svg>