<?xml version="1.0" encoding="utf-8"?>
<!-- Generator: Adobe Illustrator 18.1.0, SVG Export Plug-In . SVG Version: 6.00 Build 0)  -->
<!DOCTYPE svg PUBLIC "-//W3C//DTD SVG 1.1//EN" "http://www.w3.org/Graphics/SVG/1.1/DTD/svg11.dtd">
<svg version="1.1" id="Layer_1" xmlns="http://www.w3.org/2000/svg" xmlns:xlink="http://www.w3.org/1999/xlink" x="0px" y="0px"
	 viewBox="0 0 256 256" enable-background="new 0 0 256 256" xml:space="preserve">
<g>
	<polygon fill="#FFFFFF" points="26,66.2 130,5.6 234,66.2 234,187.5 130,248.1 26,187.5 	"/>
	<path fill="#CC0000" d="M136.6,6.5c-4.6-2.7-12.2-2.7-16.8,0l-92.3,53c-4.6,2.7-8.4,9.2-8.4,14.5v106c0,5.3,3.8,11.9,8.4,14.5
		l92.3,53c4.6,2.7,12.2,2.7,16.8,0l92.3-53c4.6-2.7,8.4-9.2,8.4-14.5v-106c0-5.3-3.8-11.9-8.4-14.5L136.6,6.5z M218.4,62
		c4.6,2.7,4.6,7,0,9.7l-80.7,46.4c-4.6,2.7-12.2,2.7-16.8,0L38.9,71c-4.6-2.7-4.6-7,0-9.7l80.7-46.4c4.6-2.7,12.2-2.7,16.8,0
		L218.4,62z M26.4,81.8c0-5.3,3.8-7.5,8.4-4.9l82.6,47.5c4.6,2.7,8.4,9.2,8.4,14.5V233c0,5.3-3.8,7.5-8.4,4.9l-82.6-47.5
		c-4.6-2.7-8.4-9.2-8.4-14.5V81.8z M141.4,236.5c-4.6,2.7-8.4,0.5-8.4-4.9v-92.7c0-5.3,3.8-11.9,8.4-14.5l80.1-46.1
		c4.6-2.7,8.4-0.5,8.4,4.9v92.7c0,5.3-3.8,11.9-8.4,14.5L141.4,236.5z"/>
	<g>
		<path fill="#CC0000" d="M231.2,67.7l-0.3,119.1l-101,58.6l-0.5-117L231.2,67.7z M146.2,138l0.3,78.3l33.6-19.6l-0.1-59l17-10
			l0,59.1l17-9.9l0.1-79.2L146.2,138z"/>
	</g>
</g>
</svg>
