<?xml version="1.0" encoding="utf-8"?>
<!-- Generator: Adobe Illustrator 18.1.0, SVG Export Plug-In . SVG Version: 6.00 Build 0)  -->
<!DOCTYPE svg PUBLIC "-//W3C//DTD SVG 1.1//EN" "http://www.w3.org/Graphics/SVG/1.1/DTD/svg11.dtd">
<svg version="1.1" id="Layer_1" xmlns="http://www.w3.org/2000/svg" xmlns:xlink="http://www.w3.org/1999/xlink" x="0px" y="0px"
	 viewBox="0 0 227 50.3" enable-background="new 0 0 227 50.3" xml:space="preserve">
<path fill="#CB3837" d="M168.3,7.7c-4.2-1.7-8.8-0.1-11.2,3.5c-2.4-3.6-7-5.2-11.2-3.5c-4.7,1.9-7,7.3-5.1,12
	c1.8,4.5,16.3,15.9,16.3,15.9l0,0l0,0c0,0,14.5-11.3,16.3-15.9C175.4,15,173.1,9.6,168.3,7.7z"/>
<polygon fill="#FFFFFF" points="36,36 36,7 7,7 7,36 22,36 22,14 29,14 29,36 "/>
<path fill="#FFFFFF" d="M58,36h15V7H44v36h14V36z M58,14h7v15h-7V14z"/>
<path fill="#CB3837" d="M80-0.4v43.7H65.5v7.3H36.4V-0.4H80z M43.7,6.8v36.4h14.6V36h14.6V6.8H43.7z M58.2,14.1h7.3v14.6h-7.3V14.1z
	"/>
<polygon fill="#FFFFFF" points="124,36 124,7 80,7 80,36 95,36 95,14 102,14 102,36 109,36 109,14 116,14 116,36 "/>
<polygon fill="#FFFFFF" points="191,7 191,36 220,36 220,7 212,7 212,29 205,29 205,7 "/>
<path fill="#CB3837" d="M43.7-0.4v43.7H0V-0.4H43.7z M7.3,6.8V36h14.6V14.1h7.3V36h7.3V6.8H7.3z"/>
<path fill="#CB3837" d="M72.8,43.2V-0.4H131v43.7H72.8z M80,6.8V36h14.6V14.1h7.3V36h7.3V14.1h7.3V36h7.3V6.8H80z"/>
<g>
	<path fill="#CB3837" d="M226.9-0.4v43.7h-43.7V-0.4H226.9z M190.6,6.8V36h29.1V6.8h-7.3v21.8h-7.3V6.8H190.6z"/>
</g>
</svg>
