<?xml version="1.0" encoding="UTF-8" standalone="no"?>
<svg width="180px" height="70px" viewBox="0 0 180 70" version="1.1" xmlns="http://www.w3.org/2000/svg" xmlns:xlink="http://www.w3.org/1999/xlink" xmlns:sketch="http://www.bohemiancoding.com/sketch/ns">
    <!-- Generator: Sketch 3.1 (8751) - http://www.bohemiancoding.com/sketch -->
    <title>npm-logo-pixels 2</title>
    <desc>Created with Sketch.</desc>
    <defs></defs>
    <g id="Page-1" stroke="none" stroke-width="1" fill="none" fill-rule="evenodd" sketch:type="MSPage">
        <rect id="Rectangle-1" fill="#CB0000" sketch:type="MSShapeGroup" x="0" y="0" width="10" height="10"></rect>
        <rect id="Rectangle-2" fill="#CB0000" sketch:type="MSShapeGroup" x="10" y="0" width="10" height="10"></rect>
        <rect id="Rectangle-4" fill="#CB0000" sketch:type="MSShapeGroup" x="20" y="0" width="10" height="10"></rect>
        <rect id="Rectangle-3" fill="#CB0000" sketch:type="MSShapeGroup" x="30" y="0" width="10" height="10"></rect>
        <rect id="Rectangle-8" fill="#CB0000" sketch:type="MSShapeGroup" x="40" y="0" width="10" height="10"></rect>
        <rect id="Rectangle-7" fill="#CB0000" sketch:type="MSShapeGroup" x="50" y="0" width="10" height="10"></rect>
        <rect id="Rectangle-6" fill="#CB0000" sketch:type="MSShapeGroup" x="60" y="0" width="10" height="10"></rect>
        <rect id="Rectangle-5" fill="#CB0000" sketch:type="MSShapeGroup" x="70" y="0" width="10" height="10"></rect>
        <rect id="Rectangle-16" fill="#CB0000" sketch:type="MSShapeGroup" x="80" y="0" width="10" height="10"></rect>
        <rect id="Rectangle-15" fill="#CB0000" sketch:type="MSShapeGroup" x="90" y="0" width="10" height="10"></rect>
        <rect id="Rectangle-14" fill="#CB0000" sketch:type="MSShapeGroup" x="100" y="0" width="10" height="10"></rect>
        <rect id="Rectangle-13" fill="#CB0000" sketch:type="MSShapeGroup" x="110" y="0" width="10" height="10"></rect>
        <rect id="Rectangle-12" fill="#CB0000" sketch:type="MSShapeGroup" x="120" y="0" width="10" height="10"></rect>
        <rect id="Rectangle-11" fill="#CB0000" sketch:type="MSShapeGroup" x="130" y="0" width="10" height="10"></rect>
        <rect id="Rectangle-10" fill="#CB0000" sketch:type="MSShapeGroup" x="140" y="0" width="10" height="10"></rect>
        <rect id="Rectangle-9" fill="#CB0000" sketch:type="MSShapeGroup" x="150" y="0" width="10" height="10"></rect>
        <rect id="Rectangle-18" fill="#CB0000" sketch:type="MSShapeGroup" x="160" y="0" width="10" height="10"></rect>
        <rect id="Rectangle-17" fill="#CB0000" sketch:type="MSShapeGroup" x="170" y="0" width="10" height="10"></rect>
        <rect id="Rectangle-74" fill="#CB0000" sketch:type="MSShapeGroup" x="50" y="60" width="10" height="10"></rect>
        <rect id="Rectangle-73" fill="#CB0000" sketch:type="MSShapeGroup" x="60" y="60" width="10" height="10"></rect>
        <rect id="Rectangle-72" fill="#CB0000" sketch:type="MSShapeGroup" x="70" y="60" width="10" height="10"></rect>
        <rect id="Rectangle-71" fill="#CB0000" sketch:type="MSShapeGroup" x="80" y="60" width="10" height="10"></rect>
        <rect id="Rectangle-63" fill="#CB0000" sketch:type="MSShapeGroup" x="0" y="50" width="10" height="10"></rect>
        <rect id="Rectangle-62" fill="#CB0000" sketch:type="MSShapeGroup" x="10" y="50" width="10" height="10"></rect>
        <rect id="Rectangle-61" fill="#CB0000" sketch:type="MSShapeGroup" x="20" y="50" width="10" height="10"></rect>
        <rect id="Rectangle-60" fill="#CB0000" sketch:type="MSShapeGroup" x="30" y="50" width="10" height="10"></rect>
        <rect id="Rectangle-59" fill="#CB0000" sketch:type="MSShapeGroup" x="40" y="50" width="10" height="10"></rect>
        <rect id="Rectangle-58" fill="#CB0000" sketch:type="MSShapeGroup" x="50" y="50" width="10" height="10"></rect>
        <rect id="Rectangle-54" fill="#CB0000" sketch:type="MSShapeGroup" x="80" y="50" width="10" height="10"></rect>
        <rect id="Rectangle-52" fill="#CB0000" sketch:type="MSShapeGroup" x="90" y="50" width="10" height="10"></rect>
        <rect id="Rectangle-50" fill="#CB0000" sketch:type="MSShapeGroup" x="100" y="50" width="10" height="10"></rect>
        <rect id="Rectangle-49" fill="#CB0000" sketch:type="MSShapeGroup" x="110" y="50" width="10" height="10"></rect>
        <rect id="Rectangle-47" fill="#CB0000" sketch:type="MSShapeGroup" x="120" y="50" width="10" height="10"></rect>
        <rect id="Rectangle-46" fill="#CB0000" sketch:type="MSShapeGroup" x="130" y="50" width="10" height="10"></rect>
        <rect id="Rectangle-42" fill="#CB0000" sketch:type="MSShapeGroup" x="140" y="50" width="10" height="10"></rect>
        <rect id="Rectangle-41" fill="#CB0000" sketch:type="MSShapeGroup" x="150" y="50" width="10" height="10"></rect>
        <rect id="Rectangle-33" fill="#CB0000" sketch:type="MSShapeGroup" x="160" y="50" width="10" height="10"></rect>
        <rect id="Rectangle-27" fill="#CB0000" sketch:type="MSShapeGroup" x="170" y="50" width="10" height="10"></rect>
        <rect id="Rectangle-56" fill="#CB0000" sketch:type="MSShapeGroup" x="0" y="40" width="10" height="10"></rect>
        <rect id="Rectangle-53" fill="#CB0000" sketch:type="MSShapeGroup" x="30" y="40" width="10" height="10"></rect>
        <rect id="Rectangle-51" fill="#CB0000" sketch:type="MSShapeGroup" x="50" y="40" width="10" height="10"></rect>
        <rect id="Rectangle-44" fill="#CB0000" sketch:type="MSShapeGroup" x="100" y="40" width="10" height="10"></rect>
        <rect id="Rectangle-38" fill="#CB0000" sketch:type="MSShapeGroup" x="130" y="40" width="10" height="10"></rect>
        <rect id="Rectangle-32" fill="#CB0000" sketch:type="MSShapeGroup" x="150" y="40" width="10" height="10"></rect>
        <rect id="Rectangle-23" fill="#CB0000" sketch:type="MSShapeGroup" x="170" y="40" width="10" height="10"></rect>
        <rect id="Rectangle-48" fill="#CB0000" sketch:type="MSShapeGroup" x="0" y="30" width="10" height="10"></rect>
        <rect id="Rectangle-45" fill="#CB0000" sketch:type="MSShapeGroup" x="30" y="30" width="10" height="10"></rect>
        <rect id="Rectangle-43" fill="#CB0000" sketch:type="MSShapeGroup" x="50" y="30" width="10" height="10"></rect>
        <rect id="Rectangle-39" fill="#CB0000" sketch:type="MSShapeGroup" x="80" y="30" width="10" height="10"></rect>
        <rect id="Rectangle-35" fill="#CB0000" sketch:type="MSShapeGroup" x="100" y="30" width="10" height="10"></rect>
        <rect id="Rectangle-29" fill="#CB0000" sketch:type="MSShapeGroup" x="130" y="30" width="10" height="10"></rect>
        <rect id="Rectangle-25" fill="#CB0000" sketch:type="MSShapeGroup" x="150" y="30" width="10" height="10"></rect>
        <rect id="Rectangle-21" fill="#CB0000" sketch:type="MSShapeGroup" x="170" y="30" width="10" height="10"></rect>
        <rect id="Rectangle-40" fill="#CB0000" sketch:type="MSShapeGroup" x="0" y="20" width="10" height="10"></rect>
        <rect id="Rectangle-37" fill="#CB0000" sketch:type="MSShapeGroup" x="30" y="20" width="10" height="10"></rect>
        <rect id="Rectangle-34" fill="#CB0000" sketch:type="MSShapeGroup" x="50" y="20" width="10" height="10"></rect>
        <rect id="Rectangle-30" fill="#CB0000" sketch:type="MSShapeGroup" x="80" y="20" width="10" height="10"></rect>
        <rect id="Rectangle-28" fill="#CB0000" sketch:type="MSShapeGroup" x="100" y="20" width="10" height="10"></rect>
        <rect id="Rectangle-24" fill="#CB0000" sketch:type="MSShapeGroup" x="130" y="20" width="10" height="10"></rect>
        <rect id="Rectangle-22" fill="#CB0000" sketch:type="MSShapeGroup" x="150" y="20" width="10" height="10"></rect>
        <rect id="Rectangle-20" fill="#CB0000" sketch:type="MSShapeGroup" x="170" y="20" width="10" height="10"></rect>
        <rect id="Rectangle-36" fill="#CB0000" sketch:type="MSShapeGroup" x="0" y="10" width="10" height="10"></rect>
        <rect id="Rectangle-55" fill="#FFFFFF" sketch:type="MSShapeGroup" x="10" y="10" width="10" height="10"></rect>
        <rect id="Rectangle-55" fill="#FFFFFF" sketch:type="MSShapeGroup" x="60" y="10" width="10" height="10"></rect>
        <rect id="Rectangle-55" fill="#FFFFFF" sketch:type="MSShapeGroup" x="110" y="10" width="10" height="10"></rect>
        <rect id="Rectangle-55" fill="#FFFFFF" sketch:type="MSShapeGroup" x="150" y="10" width="10" height="10"></rect>
        <rect id="Rectangle-55" fill="#FFFFFF" sketch:type="MSShapeGroup" x="10" y="20" width="10" height="10"></rect>
        <rect id="Rectangle-55" fill="#FFFFFF" sketch:type="MSShapeGroup" x="60" y="20" width="10" height="10"></rect>
        <rect id="Rectangle-55" fill="#FFFFFF" sketch:type="MSShapeGroup" x="110" y="20" width="10" height="10"></rect>
        <rect id="Rectangle-55" fill="#FFFFFF" sketch:type="MSShapeGroup" x="10" y="30" width="10" height="10"></rect>
        <rect id="Rectangle-55" fill="#FFFFFF" sketch:type="MSShapeGroup" x="60" y="30" width="10" height="10"></rect>
        <rect id="Rectangle-55" fill="#FFFFFF" sketch:type="MSShapeGroup" x="110" y="30" width="10" height="10"></rect>
        <rect id="Rectangle-55" fill="#FFFFFF" sketch:type="MSShapeGroup" x="10" y="40" width="10" height="10"></rect>
        <rect id="Rectangle-55" fill="#FFFFFF" sketch:type="MSShapeGroup" x="60" y="40" width="10" height="10"></rect>
        <rect id="Rectangle-55" fill="#FFFFFF" sketch:type="MSShapeGroup" x="60" y="50" width="10" height="10"></rect>
        <rect id="Rectangle-55" fill="#FFFFFF" sketch:type="MSShapeGroup" x="110" y="40" width="10" height="10"></rect>
        <rect id="Rectangle-55" fill="#FFFFFF" sketch:type="MSShapeGroup" x="20" y="10" width="10" height="10"></rect>
        <rect id="Rectangle-55" fill="#FFFFFF" sketch:type="MSShapeGroup" x="70" y="10" width="10" height="10"></rect>
        <rect id="Rectangle-55" fill="#FFFFFF" sketch:type="MSShapeGroup" x="120" y="10" width="10" height="10"></rect>
        <rect id="Rectangle-55" fill="#FFFFFF" sketch:type="MSShapeGroup" x="160" y="10" width="10" height="10"></rect>
        <rect id="Rectangle-55" fill="#FFFFFF" sketch:type="MSShapeGroup" x="20" y="20" width="10" height="10"></rect>
        <rect id="Rectangle-55" fill="#FFFFFF" sketch:type="MSShapeGroup" x="70" y="20" width="10" height="10"></rect>
        <rect id="Rectangle-55" fill="#FFFFFF" sketch:type="MSShapeGroup" x="120" y="20" width="10" height="10"></rect>
        <rect id="Rectangle-55" fill="#FFFFFF" sketch:type="MSShapeGroup" x="160" y="20" width="10" height="10"></rect>
        <rect id="Rectangle-55" fill="#FFFFFF" sketch:type="MSShapeGroup" x="20" y="30" width="10" height="10"></rect>
        <rect id="Rectangle-55" fill="#FFFFFF" sketch:type="MSShapeGroup" x="70" y="30" width="10" height="10"></rect>
        <rect id="Rectangle-55" fill="#FFFFFF" sketch:type="MSShapeGroup" x="120" y="30" width="10" height="10"></rect>
        <rect id="Rectangle-55" fill="#FFFFFF" sketch:type="MSShapeGroup" x="160" y="30" width="10" height="10"></rect>
        <rect id="Rectangle-55" fill="#FFFFFF" sketch:type="MSShapeGroup" x="20" y="40" width="10" height="10"></rect>
        <rect id="Rectangle-55" fill="#FFFFFF" sketch:type="MSShapeGroup" x="70" y="40" width="10" height="10"></rect>
        <rect id="Rectangle-55" fill="#FFFFFF" sketch:type="MSShapeGroup" x="70" y="50" width="10" height="10"></rect>
        <rect id="Rectangle-55" fill="#FFFFFF" sketch:type="MSShapeGroup" x="120" y="40" width="10" height="10"></rect>
        <rect id="Rectangle-55" fill="#FFFFFF" sketch:type="MSShapeGroup" x="160" y="40" width="10" height="10"></rect>
        <rect id="Rectangle-55" fill="#FFFFFF" sketch:type="MSShapeGroup" x="30" y="10" width="10" height="10"></rect>
        <rect id="Rectangle-55" fill="#FFFFFF" sketch:type="MSShapeGroup" x="80" y="10" width="10" height="10"></rect>
        <rect id="Rectangle-55" fill="#FFFFFF" sketch:type="MSShapeGroup" x="130" y="10" width="10" height="10"></rect>
        <rect id="Rectangle-55" fill="#F8E81C" sketch:type="MSShapeGroup" x="170" y="10" width="10" height="10"></rect>
        <rect id="Rectangle-55" fill="#FFFFFF" sketch:type="MSShapeGroup" x="80" y="40" width="10" height="10"></rect>
        <rect id="Rectangle-55" fill="#FFFFFF" sketch:type="MSShapeGroup" x="40" y="10" width="10" height="10"></rect>
        <rect id="Rectangle-55" fill="#FFFFFF" sketch:type="MSShapeGroup" x="90" y="10" width="10" height="10"></rect>
        <rect id="Rectangle-55" fill="#FFFFFF" sketch:type="MSShapeGroup" x="140" y="10" width="10" height="10"></rect>
        <rect id="Rectangle-55" fill="#FFFFFF" sketch:type="MSShapeGroup" x="40" y="20" width="10" height="10"></rect>
        <rect id="Rectangle-55" fill="#FFFFFF" sketch:type="MSShapeGroup" x="90" y="20" width="10" height="10"></rect>
        <rect id="Rectangle-55" fill="#FFFFFF" sketch:type="MSShapeGroup" x="140" y="20" width="10" height="10"></rect>
        <rect id="Rectangle-55" fill="#FFFFFF" sketch:type="MSShapeGroup" x="40" y="30" width="10" height="10"></rect>
        <rect id="Rectangle-55" fill="#FFFFFF" sketch:type="MSShapeGroup" x="90" y="30" width="10" height="10"></rect>
        <rect id="Rectangle-55" fill="#FFFFFF" sketch:type="MSShapeGroup" x="140" y="30" width="10" height="10"></rect>
        <rect id="Rectangle-55" fill="#FFFFFF" sketch:type="MSShapeGroup" x="40" y="40" width="10" height="10"></rect>
        <rect id="Rectangle-55" fill="#FFFFFF" sketch:type="MSShapeGroup" x="90" y="40" width="10" height="10"></rect>
        <rect id="Rectangle-55" fill="#FFFFFF" sketch:type="MSShapeGroup" x="140" y="40" width="10" height="10"></rect>
        <rect id="Rectangle-31" fill="#CB0000" sketch:type="MSShapeGroup" x="50" y="10" width="10" height="10"></rect>
        <rect id="Rectangle-26" fill="#CB0000" sketch:type="MSShapeGroup" x="100" y="10" width="10" height="10"></rect>
        <rect id="Rectangle-19" fill="#CB0000" sketch:type="MSShapeGroup" x="170" y="10" width="10" height="10"></rect>
    </g>
</svg>
