<?xml version="1.0" encoding="UTF-8" standalone="no"?>
<svg width="512px" height="416px" viewBox="0 0 512 416" version="1.1" xmlns="http://www.w3.org/2000/svg" xmlns:xlink="http://www.w3.org/1999/xlink" xmlns:sketch="http://www.bohemiancoding.com/sketch/ns">
    <!-- Generator: Sketch 3.1 (8751) - http://www.bohemiancoding.com/sketch -->
    <title>Shape</title>
    <desc>Created with Sketch.</desc>
    <defs></defs>
    <g id="Page-1" stroke="none" stroke-width="1" fill="none" fill-rule="evenodd" sketch:type="MSPage">
        <path d="M511.45,49.3615173 C492.608296,57.6995126 472.467165,63.3303666 451.243177,65.9292223 C472.900307,52.9349438 489.575215,32.3606696 497.372865,7.88811189 C477.123448,19.9078195 454.708317,28.6789574 430.777188,33.3352405 C411.610627,12.869252 384.322643,0.0915448188 354.219231,0.0915448188 C296.286406,0.0915448188 249.398718,47.0875185 249.398718,105.020343 C249.398718,113.250053 250.265003,121.263191 252.105859,128.951473 C164.935908,124.620047 87.6199513,82.8217843 35.9676944,19.2581055 C26.9799852,34.742954 21.7822738,52.8266582 21.7822738,71.9932189 C21.7822738,108.377199 40.2991206,140.538038 68.4533905,159.379741 C51.2359716,158.946599 34.9931235,154.18203 20.9159886,146.277177 L20.9159886,147.576605 C20.9159886,198.470862 57.0833969,240.810553 105.053942,250.447976 C96.2828036,252.830261 86.9702373,254.128606 77.4410998,254.128606 C70.7273893,254.128606 64.1219644,253.478892 57.7331108,252.179464 C71.0522462,293.869441 109.81851,324.189424 155.731627,325.055709 C119.889076,353.209979 74.6256728,369.994255 25.463986,369.994255 C17.017705,369.994255 8.67970968,369.452827 0.45,368.479339 C46.7962598,398.582751 101.913658,415.908455 161.037624,415.908455 C354.002659,415.908455 459.472886,255.970545 459.472886,117.256622 C459.472886,112.708625 459.364601,108.160627 459.148029,103.720915 C479.614018,88.8857809 497.372865,70.3689341 511.45,49.3615173 L511.45,49.3615173 Z" id="Shape" fill="#000000" sketch:type="MSShapeGroup"></path>
    </g>
</svg>