<?xml version="1.0" encoding="UTF-8" standalone="no"?>
<svg width="196px" height="197px" viewBox="0 0 196 197" version="1.1" xmlns="http://www.w3.org/2000/svg" xmlns:xlink="http://www.w3.org/1999/xlink" xmlns:sketch="http://www.bohemiancoding.com/sketch/ns">
    <title>Slice 1</title>
    <description>Created with Sketch (http://www.bohemiancoding.com/sketch)</description>
    <defs></defs>
    <g id="Page-1" stroke="none" stroke-width="1" fill="none" fill-rule="evenodd" sketch:type="MSPage">
        <text id="SWT" sketch:type="MSTextLayer" font-family="Montserrat" font-size="60" font-weight="normal" letter-spacing="1.20000005" fill="#F7F7F7">
            <tspan x="27" y="196">SWT</tspan>
        </text>
        <g id="noun_3067" sketch:type="MSLayerGroup" fill="#99D954">
            <path d="M189.183052,35.3944954 C192.948249,35.3944954 196,32.3315858 196,28.5550459 C196,24.7804718 192.948249,21.7175623 189.183052,21.7175623 C185.417854,21.7175623 182.366104,24.7804718 182.366104,28.5550459 C182.366104,29.3846658 182.520945,30.1769332 182.791428,30.9141547 L162.891349,47.9174312 L137.677657,33.0412844 C137.820738,32.457405 137.905019,31.8479685 137.905019,31.2188729 C137.905019,27.0078637 134.502425,23.5950197 130.304063,23.5950197 C128.600806,23.5950197 127.03475,24.1631717 125.768578,25.112713 L102.98727,6.96920052 C103.093111,6.53669725 103.155832,6.08846658 103.155832,5.62450852 C103.155832,2.5163827 100.645046,0 97.5482155,0 C94.4513845,0 91.9405994,2.51834862 91.9405994,5.62450852 C91.9405994,7.0576671 92.4796048,8.36304063 93.3596536,9.35583224 L81.9229392,33.906291 C81.4133341,33.8178244 80.8919689,33.7608126 80.3549235,33.7608126 C78.6693067,33.7608126 77.097371,34.2306684 75.7469175,35.0327654 L45.4881349,21.438401 C45.5586956,20.9960682 45.6057361,20.5458716 45.6057361,20.0838794 C45.6057361,15.4049803 41.8248582,11.612713 37.1600116,11.612713 C32.497125,11.612713 28.7142871,15.4049803 28.7142871,20.0838794 C28.7142871,24.7627785 32.495165,28.5550459 37.1600116,28.5550459 C39.8099581,28.5550459 42.1698217,27.3302752 43.7182372,25.4174312 L72.495245,38.3453473 C71.7425974,39.6703801 71.3055131,41.1998689 71.3055131,42.8355177 C71.3055131,44.5104849 71.8797988,45.9908257 72.6657667,47.3374836 L56.5289253,63.5307995 C54.302343,61.9364351 51.6171162,60.9868938 48.6829668,60.9868938 C43.504595,60.9868938 39.0494705,63.9377457 36.7621276,68.2293578 L36.5739657,68.1664482 C36.5720057,68.1900393 36.5661257,68.2116645 36.5641656,68.2352556 L14.0670607,57.9809961 C14.098421,57.7175623 14.1160612,57.4482307 14.1160612,57.1769332 C14.1160612,53.2667104 10.9565096,50.0976409 7.05803058,50.0976409 C3.1595516,50.0976409 0,53.2667104 0,57.1769332 C0,61.087156 3.1595516,64.2562254 7.05803058,64.2562254 C9.12389124,64.2562254 10.9761098,63.36173 12.2658027,61.9423329 L35.2431124,72.4187418 C35.2333123,72.4442988 35.2254723,72.4678899 35.2137121,72.491481 L35.3234732,72.5288336 C35.2176322,73.2129751 35.1117911,73.8931848 35.1117911,74.6028834 C35.1117911,78.4442988 36.7052871,81.9082569 39.2572326,84.3833552 L39.2239122,84.4089122 C39.2317523,84.4187418 39.2395924,84.4285714 39.2474325,84.4364351 L27.5402354,101.740498 C27.2364324,101.687418 26.9247892,101.653997 26.603346,101.653997 C23.704477,101.653997 21.3544135,104.009174 21.3544135,106.918742 C21.3544135,109.826343 23.704477,112.183486 26.603346,112.183486 C29.502215,112.183486 31.8522785,109.826343 31.8522785,106.918742 C31.8522785,105.933814 31.5778758,105.013761 31.1074711,104.225426 L41.6210162,88.6867628 L43.0126301,86.9626474 C44.7394074,87.7627785 46.6563066,88.2228047 48.6849268,88.2228047 C52.4128841,88.2228047 55.797838,86.7070773 58.2557026,84.259502 L71.9621196,94.0714286 C71.5720757,95.0819135 71.3074731,96.155308 71.3074731,97.2975098 C71.3074731,102.306684 75.3549135,106.374181 80.3568836,106.374181 C84.5885659,106.374181 88.1283613,103.458716 89.1201312,99.5288336 L120.315803,89.8505898 C122.230742,93.4187418 125.98614,95.8466579 130.309943,95.8466579 C132.805048,95.8466579 135.106111,95.0268676 136.97989,93.6566186 L150.935229,106.653342 C150.860749,107.032765 150.819588,107.42595 150.819588,107.826999 C150.819588,111.235911 153.575376,114 156.97405,114 C160.372724,114 163.126551,111.237877 163.126551,107.826999 C163.126551,104.420052 160.372724,101.655963 156.97405,101.655963 C155.588316,101.655963 154.312343,102.119921 153.283333,102.896461 L139.933639,90.465924 C141.01557,88.7221494 141.683937,86.6716907 141.683937,84.4698558 C141.683937,78.9357798 138.428344,74.3256881 132.548285,73.3093054 L132.548285,38.5222805 C134.508305,38.1841415 134.669027,37.5825688 135.513795,36.7961992 L161.644776,52.2247706 L183.555836,83.0013106 C183.375514,83.4534731 183.269673,83.9469201 183.269673,84.465924 C183.269673,86.6775885 185.053291,88.4705111 187.258313,88.4705111 C189.463335,88.4705111 191.250873,86.6775885 191.250873,84.465924 C191.250873,82.2542595 189.461375,80.4613368 187.256353,80.4613368 C187.197552,80.4613368 187.138751,80.4672346 187.079951,80.4711664 L166.04894,50.9429882 L185.513895,34.3132372 C186.572306,34.9954128 187.830638,35.3944954 189.183052,35.3944954 L189.183052,35.3944954 Z M119.215751,85.3342204 C119.215751,85.7533472 119.241222,86.1644906 119.284328,86.5716424 L89.355118,96 C88.3323326,92.0582121 84.8172424,89.1442827 80.6202952,89.1442827 C78.4199349,89.1442827 76.47821,90.0444075 74.9126821,91.3656549 L61.1227128,81.3425364 C61.9985463,79.5063617 62.5275732,77.4905613 62.5275732,75.3210811 C62.5275732,72.3432848 61.5733654,69.5910187 60,67.3397089 L76.1314035,50.8999584 C77.4755238,51.7002911 78.9489619,52.2850728 80.6202952,52.2850728 C83.8375628,52.2850728 86.6531618,50.5746362 88.2559176,48 L122,77.7659875 C120.271845,79.7957588 119.215751,82.4362578 119.215751,85.3342204 L119.215751,85.3342204 Z M128,74.0104109 C126.072068,74.2075402 125.811797,74.5485739 124.92302,75 L89.5261877,43.7628904 C89.5300436,43.6603832 89.4818453,43.5618185 89.4818453,43.4593113 C89.4818453,40.5319411 88.0975901,37.9357482 86,36.2719768 L97.180078,11.7727469 C97.2687629,11.7766895 97.3497361,11.7865459 97.4384209,11.7865459 C98.4602249,11.7865459 99.4106954,11.4967658 100.231994,11 L122.636493,29.1930635 C122.345375,30.0111501 122.418637,30.8903468 122.418637,31.8109407 C122.418637,35.2745026 124.144136,38.1939876 128,39.1342943 L128,74.0104109 L128,74.0104109 Z" id="Shape" sketch:type="MSShapeGroup"></path>
        </g>
    </g>
</svg>