<svg width="512" height="512" viewBox="0 0 512 512" xmlns="http://www.w3.org/2000/svg" xmlns:xlink="http://www.w3.org/1999/xlink" xmlns:figma="http://www.figma.com/figma/ns"><title>Component</title><desc>Created using Figma</desc><g style="mix-blend-mode:normal" figma:type="symbol"><g style="mix-blend-mode:normal;isolation:isolate" figma:type="ellipse" transform="translate(-837 419)"><use xlink:href="#a" transform="translate(837 -419)" fill="#DD4A68" style="mix-blend-mode:normal"/><mask id="b"><use xlink:href="#a" fill="#fff" transform="translate(837 -419)"/></mask><g mask="url(#b)"><use xlink:href="#c" transform="translate(837 -419)" fill="#FFF" style="mix-blend-mode:normal"/></g></g><use xlink:href="#d" transform="translate(289.91 158.003)" fill="#FFF" style="mix-blend-mode:normal" figma:type="vector"/><use xlink:href="#e" transform="translate(80.738 158.003)" fill="#FFF" style="mix-blend-mode:normal" figma:type="vector"/></g><defs><path id="a" d="M512 256c0 141.385-114.615 256-256 256S0 397.385 0 256 114.615 0 256 0s256 114.615 256 256z"><animate dur="1s" values="0;1;0" begin=".3"/></path><path id="c" d="M492 256c0 130.339-105.661 236-236 236v40c152.431 0 276-123.569 276-276h-40zM256 492C125.661 492 20 386.339 20 256h-40c0 152.431 123.569 276 276 276v-40zM20 256C20 125.661 125.661 20 256 20v-40C103.569-20-20 103.569-20 256h40zM256 20c130.339 0 236 105.661 236 236h40c0-152.431-123.569-276-276-276v40z"><animate attributeName="opacity" values="0;1;0" dur="1s" repeatCount="indefinite"/></path><path id="d" d="M79.461 0H0v56.324h79.461c11.011 4.426 15.845 13.478 16.886 17.45 5.676 18.387-8.892 29.226-16.886 32.347H0v55.757h79.461c28.947-3.973 48.86-19.532 55.198-26.815 25.427-26.331 20.811-67.153 15.324-84.272C136.816 16.174 97.483 2.506 79.461 0z"/><path id="e" d="M122.03 11.834L0 205.491h60.407l61.623-95.81v95.81h58.257V11.834c-24.066-18.84-50.595-12.39-58.257 0z"><animate dur="1s" values="0;1;0" begin=".3"/></path></defs></svg>