<svg xmlns="http://www.w3.org/2000/svg" xmlns:xlink="http://www.w3.org/1999/xlink" viewBox="0 0 3579.3 854"><defs><style>.cls-1{fill:none}.cls-2{fill:#282660}.cls-3{clip-path:url(#clip-path)}.cls-4{opacity:.45}.cls-5{fill:url(#linear-gradient)}.cls-6{fill:#79e2f2;opacity:.9}.cls-7{fill:url(#linear-gradient-2)}.cls-8{fill:url(#linear-gradient-3)}.cls-9{fill:url(#linear-gradient-4)}.cls-10{fill:url(#linear-gradient-5)}.cls-11{fill:url(#linear-gradient-6)}.cls-12{fill:url(#linear-gradient-7)}.cls-13{fill:url(#linear-gradient-8)}.cls-14{fill:url(#linear-gradient-9)}.cls-15{fill:url(#linear-gradient-10)}.cls-16{fill:url(#linear-gradient-11)}.cls-17{fill:url(#linear-gradient-12)}.cls-18{fill:url(#linear-gradient-13)}.cls-19{fill:url(#linear-gradient-14)}.cls-20{fill:url(#linear-gradient-15)}.cls-21{fill:url(#linear-gradient-16)}.cls-22{clip-path:url(#clip-path-2)}.cls-23{opacity:.7}.cls-24{fill:#6554c0}.cls-25{opacity:.6}.cls-26{fill:#5e4db7;opacity:.9}</style><clipPath id="clip-path"><rect id="_Rectangle_" width="3840" height="854" y="-4.98" class="cls-1" data-name="&lt;Rectangle&gt;" transform="translate(-0.66 3.02) rotate(-0.09)"/></clipPath><linearGradient id="linear-gradient" x1="-4419.89" x2="-4467.79" y1="678.41" y2="486.3" gradientTransform="matrix(-1, 0, 0, 1, -3991.5, 2.65)" gradientUnits="userSpaceOnUse"><stop offset="0" stop-color="#00a3bf" stop-opacity="0"/><stop offset="1" stop-color="#00a3bf"/></linearGradient><linearGradient id="linear-gradient-2" x1="-6436.42" x2="-6484.32" y1="609.1" y2="416.99" xlink:href="#linear-gradient"/><linearGradient id="linear-gradient-3" x1="-6296.41" x2="-6344.31" y1="1045.23" y2="853.11" xlink:href="#linear-gradient"/><linearGradient id="linear-gradient-4" x1="-7300.06" x2="-7347.96" y1="558.63" y2="366.51" xlink:href="#linear-gradient"/><linearGradient id="linear-gradient-5" x1="-6898.49" x2="-6993.25" y1="498.25" y2="118.21" xlink:href="#linear-gradient"/><linearGradient id="linear-gradient-6" x1="-5445.33" x2="-5493.23" y1="199.94" y2="7.83" xlink:href="#linear-gradient"/><linearGradient id="linear-gradient-7" x1="-6437.05" x2="-6484.95" y1="709.49" y2="517.37" xlink:href="#linear-gradient"/><linearGradient id="linear-gradient-8" x1="-7078.54" x2="-7153.2" y1="821.46" y2="522.01" xlink:href="#linear-gradient"/><linearGradient id="linear-gradient-9" x1="-4849.42" x2="-4897.32" y1="975.15" y2="783.03" xlink:href="#linear-gradient"/><linearGradient id="linear-gradient-10" x1="-3952.65" x2="-4027.7" y1="989.11" y2="688.09" xlink:href="#linear-gradient"/><linearGradient id="linear-gradient-11" x1="-6191.81" x2="-6239.71" y1="293.25" y2="101.14" xlink:href="#linear-gradient"/><linearGradient id="linear-gradient-12" x1="-5408.68" x2="-5456.58" y1="1069.04" y2="876.92" xlink:href="#linear-gradient"/><linearGradient id="linear-gradient-13" x1="-5408.68" x2="-5456.58" y1="967.73" y2="775.61" xlink:href="#linear-gradient"/><linearGradient id="linear-gradient-14" x1="-4402.11" x2="-4485.56" y1="926.75" y2="592.04" xlink:href="#linear-gradient"/><linearGradient id="linear-gradient-15" x1="-4777.7" x2="-4847.11" y1="364.21" y2="85.81" xlink:href="#linear-gradient"/><linearGradient id="linear-gradient-16" x1="-4153.06" x2="-4226.05" y1="559.69" y2="266.96" xlink:href="#linear-gradient"/><clipPath id="clip-path-2"><rect width="3840" height="855.11" y="1092.73" class="cls-1"/></clipPath></defs><title>Artboard 34</title><g id="BG"><rect width="3840" height="873.08" y="-16.73" class="cls-2"/></g><g id="Layer_3" data-name="Layer 3"><g class="cls-3"><g class="cls-4"><polygon points="349.3 654.26 557.52 704.78 557.2 501.77 348.98 451.24 349.3 654.26" class="cls-5"/><polygon points="557.24 400.34 349.65 451.38 557.4 501.77 764.99 450.73 557.24 400.34" class="cls-6"/><polygon points="2365.73 581.77 2573.95 632.3 2573.63 429.28 2365.41 378.76 2365.73 581.77" class="cls-7"/><polygon points="2573.67 327.46 2366.08 378.5 2573.83 428.89 2781.41 377.85 2573.67 327.46" class="cls-6"/><polygon points="2226.4 1018.12 2434.62 1068.65 2434.3 865.63 2226.08 815.1 2226.4 1018.12" class="cls-8"/><polygon points="2434.34 764.2 2226.75 815.24 2434.5 865.63 2642.09 814.59 2434.34 764.2" class="cls-6"/><polygon points="3229.29 529.94 3437.51 580.46 3437.19 377.45 3228.97 326.92 3229.29 529.94" class="cls-9"/><polygon points="3436.04 276.02 3228.46 327.06 3436.2 377.45 3643.79 326.41 3436.04 276.02" class="cls-6"/><polygon points="2851.06 476 3059.28 526.52 3058.65 123.9 2850.43 73.38 2851.06 476" class="cls-10"/><polygon points="3058.68 22.48 2851.1 73.52 3058.84 123.9 3266.43 72.86 3058.68 22.48" class="cls-6"/><polygon points="1373.99 174.17 1582.21 224.7 1581.89 21.68 1373.67 -28.84 1373.99 174.17" class="cls-11"/><polygon points="1581.93 -79.75 1374.35 -28.71 1582.09 21.68 1789.68 -29.36 1581.93 -79.75" class="cls-6"/><polygon points="2642.17 814.73 2434.58 865.77 2642.33 916.15 2849.92 865.11 2642.17 814.73" class="cls-6"/><polygon points="2573.67 428.24 2366.08 479.28 2573.83 529.67 2781.41 478.63 2573.67 428.24" class="cls-6"/><polygon points="2366.52 682.16 2574.74 732.69 2574.42 529.67 2366.2 479.14 2366.52 682.16" class="cls-12"/><polygon points="3228.54 428.51 3020.95 479.55 3228.7 529.94 3436.28 478.9 3228.54 428.51" class="cls-6"/><polygon points="3436.2 377.33 3228.62 428.37 3436.36 478.76 3643.95 427.72 3436.2 377.33" class="cls-6"/><polygon points="3021.56 796.43 3229.79 846.96 3229.29 529.94 3021.07 479.41 3021.56 796.43" class="cls-13"/><polygon points="987.24 696.4 779.65 747.44 987.4 797.82 1194.99 746.78 987.24 696.4" class="cls-6"/><polygon points="779.3 950.32 987.52 1000.84 987.2 797.82 778.98 747.3 779.3 950.32" class="cls-14"/><polygon points="103.89 599.46 -103.69 650.5 104.05 700.89 311.64 649.85 103.89 599.46" class="cls-6"/><polygon points="-103.86 969.05 104.36 1019.58 103.86 700.89 -104.37 650.37 -103.86 969.05" class="cls-15"/><polygon points="2327.77 12.39 2120.18 63.43 2327.93 113.82 2535.52 62.77 2327.77 12.39" class="cls-6"/><polygon points="2120.62 266.31 2328.84 316.83 2328.52 113.81 2120.3 63.29 2120.62 266.31" class="cls-16"/><polygon points="1338.71 1043.33 1546.93 1093.85 1546.61 890.83 1338.39 840.31 1338.71 1043.33" class="cls-17"/><polygon points="1338.55 942.01 1546.77 992.54 1546.45 789.52 1338.23 739 1338.55 942.01" class="cls-18"/><polygon points="1546.65 789.4 1339.06 840.45 1546.81 890.83 1754.39 839.79 1546.65 789.4" class="cls-6"/><polygon points="1546.49 688.09 1338.9 739.13 1546.65 789.52 1754.23 738.48 1546.49 688.09" class="cls-6"/><polygon points="1754.32 738.62 1546.73 789.66 1754.47 840.05 1962.06 789.01 1754.32 738.62" class="cls-6"/><polygon points="-113.52 26.07 -321.11 77.11 -113.36 127.5 94.22 76.46 -113.52 26.07" class="cls-6"/><polygon points="-113.68 -75.24 -321.27 -24.2 -113.52 26.19 94.06 -24.86 -113.68 -75.24" class="cls-6"/><polygon points="94.15 -24.72 -113.44 26.32 94.31 76.71 301.89 25.67 94.15 -24.72" class="cls-6"/><polygon points="349.7 907.03 557.92 957.56 557.36 603.08 349.14 552.55 349.7 907.03" class="cls-19"/><polygon points="557.4 501.65 349.81 552.69 557.56 603.08 765.15 552.04 557.4 501.65" class="cls-6"/><polygon points="765.07 450.86 557.48 501.9 765.23 552.29 972.82 501.25 765.07 450.86" class="cls-6"/><polygon points="925.17 -3.42 717.59 47.63 925.33 98.01 1132.92 46.97 925.17 -3.42" class="cls-6"/><polygon points="717.38 342.16 925.6 392.69 925.14 98.01 716.91 47.49 717.38 342.16" class="cls-20"/><polygon points="302.61 178.28 95.02 229.32 302.77 279.71 510.36 228.67 302.61 178.28" class="cls-6"/><polygon points="94.84 539.06 303.06 589.58 302.57 279.71 94.35 229.18 94.84 539.06" class="cls-21"/></g></g><g class="cls-22"><g class="cls-23"><polygon points="2071.11 964.16 1810.66 964.16 2001.74 810.4 2262.2 810.4 2071.11 964.16" class="cls-24"/></g><g class="cls-25"><polygon points="1354.58 967.02 1094.13 967.02 1285.21 813.26 1545.67 813.26 1354.58 967.02" class="cls-26"/><polygon points="1354.58 901.66 1094.13 901.66 1285.21 747.91 1545.67 747.91 1354.58 901.66" class="cls-24"/></g></g></g></svg>