<?xml version="1.0" encoding="UTF-8" standalone="no"?>
<!DOCTYPE svg PUBLIC "-//W3C//DTD SVG 1.1//EN" "http://www.w3.org/Graphics/SVG/1.1/DTD/svg11.dtd">
<svg width="100%" height="100%" viewBox="0 0 500 50" version="1.1" xmlns="http://www.w3.org/2000/svg" xmlns:xlink="http://www.w3.org/1999/xlink" xml:space="preserve" xmlns:serif="http://www.serif.com/" style="fill-rule:evenodd;clip-rule:evenodd;stroke-linejoin:round;stroke-miterlimit:1.41421;">
    <g transform="matrix(0.283514,0,0,0.283514,-65.644,-166.451)">
        <path d="M306.183,633.282C306.871,633.43 307.644,634.008 307.644,634.008L308.154,635.619L308.712,636.331C309.279,639.651 309.613,643.011 309.898,646.53L310.153,649.976C310.228,651.305 310.326,653.167 310.326,653.167C310.607,662.692 309.337,671.849 310.276,681.494C310.462,683.459 310.592,685.432 310.637,687.406C310.744,692.102 310.804,696.816 310.819,701.514C310.84,703.146 311.036,704.701 310.84,706.418C310.84,706.418 309.946,705.052 309.946,705.052L310.562,706.803L309.642,709.069C308.042,710.551 304.971,709.954 304.143,706.288C304.014,705.751 304.267,706.857 304.121,704.545C303.397,694.384 302.46,683.693 302.056,674.932C301.54,663.747 302.557,652.658 303.325,641.827C303.393,640.874 303.348,640.564 303.331,639.972C303.172,634.387 303.235,635.534 303.525,634.825C303.898,633.915 304.326,633.193 306.183,633.282ZM304.146,704.854C304.146,704.854 304.161,704.667 304.146,704.854ZM307.82,703.882C307.82,703.882 305.646,704.667 305.646,704.667L308.106,704.215L309.623,704.698C309.623,704.698 307.677,703.805 307.82,703.882Z" style="fill-rule:nonzero;"/>
    </g>
    <g transform="matrix(0.283514,0,0,0.283514,-65.644,-166.451)">
        <path d="M309.89,707.743C309.89,707.743 309.695,707.308 309.695,707.308L307.123,706.992C307.123,706.992 305.626,705.989 305.577,705.889L305.549,703.755L307.123,701.711C308.259,700.985 310.224,700.617 310.224,700.617C311.496,700.633 313.217,701.078 313.217,701.078C323.518,702.918 334.69,700.581 343.628,694.426C346.618,692.393 349.762,690.599 351.711,686.858C356.038,678.555 355.056,668.253 352.342,658.969C351.219,655.181 349.566,651.389 346.461,648.867C341.522,644.855 334.875,643.594 328.857,641.392C327.835,641.023 326.804,640.675 325.754,640.389C321.99,639.361 316.902,640.597 311.907,639.986C310.661,639.852 309.12,640.423 309.12,640.423C307.678,640.878 306.313,640.614 306.313,640.614C303.501,640.39 302.583,635.772 306.15,635.224C306.15,635.224 309.686,633.145 312.325,632.875L313.353,632.702C313.563,632.683 313.772,632.661 313.981,632.638C318.709,632.096 323.331,631.24 328.202,632.654C339.875,636.042 352.044,639.912 357.168,649.888C364.887,664.915 364.693,684.856 354.5,695.675C351.365,699.003 347.286,701.163 343.155,703.504C333.895,708.751 322.591,710.972 311.944,708.537C311.662,708.472 309.961,707.781 309.961,707.781C309.707,707.709 310.016,707.771 309.89,707.743Z" style="fill-rule:nonzero;"/>
    </g>
    <g transform="matrix(0.283514,0,0,0.283514,-65.644,-166.451)">
        <path d="M412.592,660.68C412.592,660.679 408.984,659.955 406.768,660.144C406.113,660.196 405.458,660.245 404.803,660.292C399.27,660.688 393.795,661.903 389.639,665.805L387.904,667.192C386.295,668.285 386.878,668.095 386.536,668.28C385.462,668.861 385.792,668.843 384.543,668.533C383.776,668.342 383.292,668.161 382.651,666.91C382.651,666.91 382.207,664.876 383.394,663.749C383.394,663.749 384.874,661.096 384.874,661.096C390.699,655.004 399.161,652.849 407.665,651.929C414.35,651.254 420.963,654.408 423.557,663.35C426.853,674.709 427.524,686.762 427.868,698.11C427.935,700.076 427.865,700.085 427.88,700.728L427.575,703.21L427.584,703.358L427.014,706.155C427.014,706.155 425.349,707.789 425.349,707.789L422.971,707.476L420.948,705.525C420.134,704.085 419.308,701.908 419.308,701.908C419.11,700.857 418.916,699.335 418.916,699.335C418.425,690.049 417.68,680.869 416.087,671.439C415.446,667.648 414.991,663.484 412.713,660.819C412.364,660.42 412.617,660.708 412.592,660.68ZM386.835,667.493C386.835,667.493 387.965,666.129 387.965,666.129L387.779,666.609C387.779,666.609 386.05,667.671 386.05,667.671C386.05,667.671 386.572,667.6 386.835,667.493Z" style="fill-rule:nonzero;"/>
    </g>
    <g transform="matrix(0.283514,0,0,0.283514,-65.644,-166.451)">
        <path d="M415.435,676.352C416.637,676.378 415.692,676.267 417.14,676.568C418.143,676.776 418.823,676.858 419.838,678.115C419.838,678.115 420.366,679.04 420.287,679.805C420.287,679.805 415.23,680.086 415.23,680.086C415.23,680.086 416.704,682.677 416.704,682.677C411.999,684.521 411.619,683.988 409.159,684.343C403.256,685.228 397.553,687.146 392.148,689.561C388.368,691.3 386.997,698.216 391.766,700.706C394.845,702.314 397.84,701.157 402.591,699.51C406.791,698.055 410.663,695.802 414.536,693.617C416.447,692.539 418.01,690.984 419.994,690.127C419.994,690.127 422.041,690.032 422.041,690.032L423.542,691.271L423.551,691.289L423.655,693.206L422.393,694.824C419.138,696.857 416.31,700.293 412.069,703.611C409.331,705.741 406.511,707.783 403.455,709.435C403.455,709.435 399.496,710.924 397.367,711.276C388.836,712.686 379.698,705.42 379.962,696.586C380.142,690.545 383.897,684.647 389.459,682.418C395.898,679.839 402.453,677.536 409.553,677.119C410.915,677.039 412.832,676.565 412.832,676.565C413.695,676.434 414.563,676.344 415.435,676.352Z" style="fill-rule:nonzero;"/>
    </g>
    <g transform="matrix(0.283514,0,0,0.283514,-65.644,-166.451)">
        <path d="M454.935,643.681C454.935,643.681 455.093,644.803 455.093,644.803C455.089,645.076 455.088,645.348 455.088,645.62C455.099,648.236 455.508,650.772 455.519,653.34C455.519,653.34 455.275,656.763 455.748,659.702C455.917,660.833 455.911,660.894 455.96,661.397C456.988,671.946 456.159,682.818 458.809,695.932C459.334,698.528 459.954,701.557 462.057,703.01C462.057,703.01 461.907,704.143 463.311,703.272C463.363,703.24 463.434,703.19 463.434,703.19L465.742,702.495L467.693,703.209L467.707,703.223L468.435,705.237L467.649,707.483C467.149,708.127 466.575,708.718 465.931,709.221C463.783,710.899 460.684,711.301 458.302,710.055C452.019,706.766 450.743,697.81 449.896,691.656C449.186,686.497 448.774,681.295 448.472,676.096C448.399,674.629 448.413,674.394 448.42,673.593C448.458,669.045 449.147,664.464 448.676,659.981C448.579,658.948 448.583,658.822 448.577,658.29C448.557,656.628 448.702,654.97 448.849,653.316C448.849,653.316 449.026,648.833 449.525,644.609L449.879,643.263C450.543,638.59 454.888,640.299 454.959,643.113C454.959,643.113 454.786,644.085 454.786,644.085C454.786,644.085 454.946,643.248 454.935,643.681ZM449.994,643.766C449.994,643.766 449.831,642.555 449.994,643.766Z" style="fill-rule:nonzero;"/>
    </g>
    <g transform="matrix(0.283514,0,0,0.283514,-65.644,-166.451)">
        <path d="M464.982,653.695C465.298,653.779 465.766,653.9 465.766,653.9L468.046,655.175C468.046,655.175 469,657.075 469,657.075L468.052,658.943L465.777,660.24C464.907,660.478 464.912,660.497 464.912,660.497C464.553,660.501 464.194,660.508 463.835,660.517C459.095,660.645 454.363,661.266 449.688,662.218C447.829,662.572 445.946,662.336 444.07,662.03L441.815,661.636C441.079,661.298 441.403,661.399 440.536,661.145L438.819,659.713C438.819,659.713 438.218,659.285 438.829,657.605C438.829,657.605 438.98,656.996 440.041,656.384C440.041,656.384 441.101,656.147 441.101,656.147L442.725,656.804C442.725,656.804 441.024,656.1 443.371,656.064C444.347,656.05 442.483,656.089 446.012,655.892C446.82,655.847 447.84,655.703 450.531,655.136C455.188,654.155 459.952,653.726 464.719,653.656C464.719,653.656 464.831,653.654 464.982,653.695ZM442.997,660.19C442.997,660.19 441.218,661.188 441.218,661.188C441.218,661.188 441.258,661.364 442.557,660.749L443.414,659.735L443.379,659.307C443.252,659.601 443.125,659.896 442.997,660.19ZM443.242,657.621C443.242,657.621 442.572,656.183 443.242,657.621Z" style="fill-rule:nonzero;"/>
    </g>
    <g transform="matrix(0.283514,0,0,0.283514,-65.644,-166.451)">
        <path d="M506.682,652.34C510.167,652.407 513.551,653.576 516.307,655.775C522.867,661.011 524.449,670.237 525.997,678.759C527.206,684.874 526.513,691.156 527.954,697.564C528.546,700.299 528.419,702.954 527.802,707.321C527.649,708.431 527.66,708.052 527.544,708.294C527.371,708.668 527.142,709.234 527.142,709.234L525.514,711.837L523.464,712.919L521.359,711.825C520.593,710.519 519.858,709.307 519.383,707.662C519.383,707.662 519.359,702.284 519.291,700.782C519.195,699.062 518.625,697.396 518.467,695.662C518.045,691.002 519.093,686.478 518.026,681.631C516.901,676.379 517.295,670.843 514.946,665.802C513.93,663.621 512.549,661.554 510.342,660.346C505.164,657.511 498.592,660.844 495.021,662.964C493.119,664.093 491.43,665.575 489.949,667.231C489.363,667.71 489.479,667.608 489.479,667.608L487.982,668.237C488.645,668.104 489.465,667.74 489.465,667.74C486.988,669.803 487.492,669.31 486.661,669.258C483.355,669.05 484.246,665.163 484.246,665.163C484.535,664.399 485.184,663.375 485.184,663.375C490.117,656.897 497.936,652.266 506.682,652.34ZM485.771,664.231C485.771,664.231 484.842,664.985 485.758,664.251C485.758,664.251 485.822,664.217 485.771,664.231Z" style="fill-rule:nonzero;"/>
    </g>
    <g transform="matrix(0.283514,0,0,0.283514,-65.644,-166.451)">
        <path d="M521.734,694.013C521.734,694.013 522.422,696.104 522.422,696.104L521.49,698.222C519.868,699.884 518.343,701.661 516.762,703.37C516.762,703.37 514.979,705.152 513.663,706.268C511.085,708.454 508.123,710.151 504.926,711.174C497.502,713.551 488.049,712.11 483.548,705.435C481.424,702.285 481.024,698.154 481.641,694.389C481.641,694.389 481.88,691.734 482.919,689.377C482.919,689.377 488.454,681.984 492.083,680.453C498.935,677.564 506.662,677.038 513.669,677.078C513.669,677.078 516.564,677.172 516.564,677.172C516.784,677.186 516.864,677.2 516.864,677.2C518.441,677.431 519.775,678.339 519.775,678.339L520.456,680.093C520.456,680.093 520.227,681.6 519.106,682.297C519.106,682.297 518.417,682.539 518.417,682.539C518.083,682.604 517.987,682.585 517.987,682.585L516.28,681.936C516.28,681.936 518.29,682.283 516.464,682.487C516.427,682.603 516.54,682.51 516.54,682.51C516.54,682.51 514.058,682.586 512.549,682.623C506.33,682.805 499.865,683.347 494.377,685.98C492.116,687.064 490.807,689.355 490.165,691.835L489.721,694.49C489.73,695.758 489.647,697.501 489.647,697.501C491.072,704.652 503.253,703.924 508.725,700.498C511.835,698.55 514.616,696.051 517.516,693.786C517.516,693.786 519.731,693.09 519.731,693.09C520.399,693.396 521.245,693.464 521.734,694.013ZM516.095,681.786C516.095,681.786 515.559,680.405 516.095,681.786ZM515.415,680.035C515.415,680.035 515.619,679.64 515.415,680.035ZM517.448,677.593L516.298,678.325C516.298,678.325 518.646,677.457 517.448,677.593Z" style="fill-rule:nonzero;"/>
    </g>
    <g transform="matrix(0.283514,0,0,0.283514,-65.644,-166.451)">
        <path d="M578.606,692.738C578.645,692.778 581.104,695.281 582.644,697.442C584.464,699.971 586.854,702.17 590.384,703.301C596.294,705.196 604.601,703.257 609.662,700.373C615.855,696.844 618.315,686.492 611.3,679.037C609.762,677.402 607.808,676.483 605.236,676.067C604.253,675.901 604.186,675.879 603.74,675.771C602.026,675.358 599.864,673.965 599.641,673.899C597.716,673.38 595.537,673.707 593.015,672.57C582.738,667.937 571.168,661.704 572.854,649.491C573.778,642.797 578.512,636.548 583.756,633.992C590.218,630.843 597.6,630.015 603.177,632.505C604.989,633.314 606.745,634.212 608.636,634.84C609.6,635.17 609.642,635.197 610.038,635.35C614.618,637.119 619.089,639.871 621.568,643.905C622.557,645.512 622.777,648.208 622.777,648.208C622.749,648.8 622.648,649.678 622.648,649.678L621.773,651.455C621.773,651.455 620.147,652.212 620.147,652.212L618.595,651.488L617.587,649.602C617.119,648.208 617.419,649.121 616.133,647.234C613.365,643.294 607.763,642.086 603.63,640.408C599.96,638.919 596.811,637.93 591.531,639.16C588.193,639.954 585.107,641.511 583.205,644.842C582.671,645.777 582.175,646.732 581.664,647.678C580.796,649.269 580.063,647.695 580.31,652.013C580.333,652.429 580.392,652.843 580.486,653.25C582.169,660.548 591.388,663.231 595.922,665.299C597.275,665.908 598.329,665.734 600.658,666.08C603.02,666.431 604.714,667.964 607.735,668.431C608.724,668.59 608.789,668.611 609.237,668.715C618.187,670.783 623.568,682.071 623.531,690.25C623.509,695.089 621.928,699.999 618.698,703.56C611.508,711.49 599.195,713.047 589.559,711.485C584.311,710.635 579.683,706.968 575.607,700.79C574.472,699.127 572.934,697.773 572.085,695.907C570.841,693.17 572.057,689.315 574.525,686.883C574.525,686.883 576.746,685.854 576.746,685.854L578.923,686.48L578.938,686.493L579.933,688.535L579.3,690.886C577.216,693.862 578.584,692.288 578.606,692.738ZM580.41,650.186C580.41,650.186 580.41,650.182 580.41,650.186Z" style="fill-rule:nonzero;"/>
    </g>
    <g transform="matrix(0.283514,0,0,0.283514,-65.644,-166.451)">
        <path d="M662,700.545C662,700.545 663.482,702.11 663.482,702.11C663.482,702.11 663.921,704.682 663.921,704.682C664.33,707.785 660.928,710.545 657.619,709.059C656.631,708.616 656.15,708.078 654.942,706.811C654.702,706.56 655.283,707.16 654.51,706.383C648.376,700.121 648.241,690.107 647.004,680.116L646.968,679.812C645.887,669.608 645.922,659.315 646.056,648.901C646.065,648.196 646.171,647.225 646.171,647.225C646.273,645.307 645.623,647.15 646.423,643.773C646.704,642.588 646.306,640.93 649.501,640.826C650.526,640.793 651.736,641.799 651.736,641.799L652.448,643.602L652.339,646.849C653.889,664.857 655.218,681.505 657.559,695.614C657.884,697.471 658.714,699.21 659.954,700.667C660.777,700.616 662.007,700.527 662,700.545ZM657.336,703.427C657.336,703.427 656.694,705.458 657.545,703.223C657.545,703.223 657.229,703.515 657.336,703.427ZM648.234,645.422C648.234,645.422 649.82,645.947 649.82,645.947C649.82,645.947 647.991,645.191 648.234,645.422ZM649.802,645.951C649.802,645.951 649.846,645.942 649.802,645.951Z" style="fill-rule:nonzero;"/>
    </g>
    <g transform="matrix(0.283514,0,0,0.283514,-65.644,-166.451)">
        <path d="M655.559,653.881C657.754,653.979 659.226,653.689 662.298,653.785C663.528,653.823 665.049,654.757 665.124,654.826C665.497,655.167 665.947,655.769 665.947,655.769L666.632,657.969C666.373,658.744 666.001,659.827 666.001,659.827L664.243,660.414C664.243,660.414 661.689,660.219 662.1,660.241C663.026,660.291 656.363,660.124 654.152,660.333C651.455,660.589 648.801,661.224 646.058,661.208C646.058,661.208 643.372,661.181 642.323,661.241C641.643,661.271 641.088,661.201 641.088,661.201C641.088,661.201 640.49,660.911 640.49,660.911L638.72,659.672C638.72,659.672 637.98,658.397 637.98,658.397L640.499,655.879L642.307,655.347C643.749,655.046 645.856,654.959 645.856,654.959C646.155,654.954 646.454,654.949 646.752,654.939C649.697,654.821 652.59,653.788 655.559,653.881Z" style="fill-rule:nonzero;"/>
    </g>
    <g transform="matrix(0.283514,0,0,0.283514,-65.644,-166.451)">
        <path d="M683.549,655.165C685.44,654.49 686.027,654.856 686.903,656.371C686.903,656.371 687.125,657.866 687.125,657.866L686.74,658.651C686.74,658.651 687.108,657.424 687.192,657.931C687.192,657.931 687.434,660.091 687.434,660.091C687.432,661.665 687.526,661.918 687.601,662.607C687.833,664.643 688.126,667.594 688.126,667.594C690.286,663.759 695.374,655.737 702.647,654.381C703.458,654.23 704.961,654.514 704.961,654.514L707.258,655.72C707.665,656.554 708.229,657.731 708.229,657.731L707.288,659.645C707.288,659.645 704.926,661.02 704.926,661.02C704.173,661.667 703.917,661.744 703.513,661.937C694.972,666.178 690.739,677.597 689.796,687.356C689.796,687.356 690.648,692.045 690.939,693.847C691.461,697.232 691.77,700.506 692.449,704.131C692.606,704.969 692.995,705.692 692.102,707.149C691.51,708.114 692.109,707.801 690.41,708.706C690.41,708.706 690.228,708.934 688.915,709.038C688.915,709.038 687.156,709.243 685.796,707.455C683.699,704.697 683.758,701.289 682.81,696.939C682.122,693.775 682.195,690.486 682.453,687.213C682.453,687.213 681.938,680.684 681.888,675.487C681.841,670.53 681.376,665.563 681.54,660.617C681.556,660.139 681.96,657.656 681.96,657.656C682.198,656.503 681.218,656.922 683.174,655.372C683.299,655.303 683.413,655.21 683.549,655.165ZM691.95,703.468C692.008,703.626 691.945,703.453 691.95,703.468ZM691.948,703.46C691.975,703.522 691.943,703.448 691.948,703.46ZM684.362,702.982C684.347,702.905 684.357,702.962 684.362,702.982ZM682.048,657.747C682.048,657.747 682.664,658.998 682.664,658.998C682.664,658.998 682.032,657.446 682.048,657.747Z" style="fill-rule:nonzero;"/>
    </g>
    <g transform="matrix(0.283514,0,0,0.283514,-65.644,-166.451)">
        <path d="M749.334,701.22C749.334,701.22 752.491,698.713 754.834,697.184C756.936,695.784 757.504,695.26 758.976,693.842C761.004,691.89 761.933,689.065 763.328,686.689C763.328,686.689 764.909,685.462 764.909,685.462L766.849,685.658L766.867,685.668L768.065,687.199L767.885,689.185C767.836,689.282 767.789,689.38 767.742,689.478C765.584,694.17 763.227,698.709 758.336,702.238C755.381,704.372 752.9,707.363 749.314,707.866C747.903,708.064 746.056,708.279 746.056,708.279C745.757,708.398 745.718,708.439 745.563,708.523C740.02,711.526 732.537,710.509 729.586,705.788C729.198,705.168 728.833,704.533 728.492,703.885C728.073,703.091 727.691,702.279 727.345,701.451C724.57,694.824 724.288,687.963 723.498,681.082C722.85,675.434 723.102,669.687 723.211,664.013C723.211,664.013 723.424,660.596 723.424,660.596C723.479,659.709 723.439,659.761 723.458,659.368C723.583,657.431 724.71,655.313 726.93,655.296C726.93,655.296 728.765,656.021 728.765,656.021C728.765,656.021 729.569,657.803 729.569,657.803L728.827,659.594C728.939,660.615 728.936,660.722 728.966,661.136C729.417,666.64 729.297,668.841 729.878,673.884C731.073,684.249 732.279,695.231 736.887,702.159C735.845,700.673 736.724,702.049 736.724,702.049C738.105,702.987 740.518,703.138 740.518,703.138C740.839,703.095 739.828,703.493 741.239,702.916C743.709,701.863 746.612,702.058 749.334,701.218C749.334,701.218 749.194,701.266 749.334,701.22ZM727.58,660.346C727.58,660.346 728.444,659.778 728.444,659.778C728.444,659.778 726.65,660.509 727.288,660.415C727.288,660.415 727.398,660.404 727.58,660.346Z" style="fill-rule:nonzero;"/>
    </g>
    <g transform="matrix(0.283514,0,0,0.283514,-65.644,-166.451)">
        <path d="M767.013,657.886C767.013,657.886 768.224,655.856 768.406,656.498C768.406,656.498 768.499,657.298 768.572,658.676L768.766,662.118C769.214,673.923 768.068,685.829 769.097,697.464C769.293,699.582 769.686,701.682 770.005,703.779C770.005,703.779 770.392,704.856 770.392,704.856C770.312,705.909 770.371,705.771 770.309,706.355L768.961,709.011C768.297,709.356 767.714,710.029 766.965,710.042C766.938,708.448 764.68,707.82 763.537,706.709C763.537,706.709 763.221,707.575 763.221,707.575C762.64,706.583 762.157,704.955 762.157,704.955C759.799,694.308 760.873,682.88 762,673.384C762.2,671.648 762.369,669.907 762.45,668.16L762.679,662.137C762.786,660.256 762.843,658.369 762.937,656.493C762.937,656.493 763.241,653.22 765.66,653.062C765.66,653.062 767.516,653.69 767.516,653.69C767.516,653.69 768.394,655.443 768.394,655.443L767.759,657.119C767.759,657.119 766.016,658.168 766.016,658.168C766.016,658.168 766.59,658.074 767.013,657.886Z" style="fill-rule:nonzero;"/>
    </g>
    <g transform="matrix(0.283514,0,0,0.283514,-65.644,-166.451)">
        <path d="M833.118,670.997C831.845,671.625 830.467,671.927 829.282,670.884L828.4,670.169C827.912,669.62 827.867,669.53 827.643,669.218C825.004,665.533 825.267,663.993 823.187,662.696C816.403,658.465 806.641,659.85 801.643,666.153C795.904,673.391 794.476,684.499 798.356,692.069C800.02,695.314 802.114,698.591 804.935,700.494C809,703.236 814.442,702.419 818.919,702.067C820.251,701.953 820.958,701.135 822.582,699.574C823.722,698.479 825.197,697.813 825.93,696.427C825.93,696.427 826.591,693.784 828.033,691.984C828.033,691.984 829.952,690.808 829.952,690.808L832.015,691.15L832.031,691.161L833.096,692.877L832.844,695.139C832.453,696.006 832.729,695.559 832.64,697.102C832.64,697.102 831.958,700.067 830.375,701.968C829.565,702.942 828.936,703.478 827.8,704.686C825.565,707.062 822.699,709.273 817.344,709.652C817.143,709.668 816.941,709.684 816.74,709.703C808.955,710.495 801.115,708.999 795.876,702.456C789.378,694.343 786.893,683.459 790.057,672.31C792.463,663.831 798.556,656 807.229,653.67C816.232,651.253 827.815,654.113 831.577,663.166C831.953,664.092 832.499,665.451 832.499,665.451C832.546,665.6 832.595,665.748 832.647,665.895C832.697,666.034 832.765,666.208 832.765,666.208L834.183,666.767C834.183,666.767 834.967,668.528 834.967,668.528L834.271,670.271C834.271,670.271 832.49,671.196 833.073,671.01C833.073,671.01 833.017,671.038 833.118,670.997ZM827.586,704.9C827.586,704.9 827.588,704.897 827.586,704.9ZM827.629,704.856C827.629,704.856 827.638,704.847 827.629,704.856ZM827.662,704.822C827.662,704.822 827.668,704.816 827.662,704.822ZM827.652,704.833C827.652,704.833 827.654,704.83 827.652,704.833ZM821.016,701.619C821.089,701.524 821.035,701.594 821.016,701.619ZM821.063,701.557C821.01,701.627 821.071,701.547 821.063,701.557ZM821.025,701.602C821.09,701.526 821.042,701.582 821.025,701.602ZM821.059,701.557C821.059,701.557 821.095,701.519 821.059,701.557ZM830.689,666.452C830.689,666.452 830.578,666.466 830.689,666.452Z" style="fill-rule:nonzero;"/>
    </g>
    <g transform="matrix(0.283514,0,0,0.283514,-65.644,-166.451)">
        <path d="M856.02,646.172C856.02,646.172 856.282,647.05 856.282,647.05L856.013,645.076L857.686,643.521C859.068,643.178 860.031,643.901 860.031,643.901C860.797,644.578 860.698,644.668 860.698,644.668L860.995,646.262C861.421,647.429 861.324,647.457 861.324,647.457C861.535,653.871 862.76,660.363 862.932,666.135C863.189,673.936 863.674,681.722 863.864,689.654C863.927,692.271 864.14,694.928 865.233,697.288C865.233,697.288 866.794,700.58 868.994,702.305C870.42,703.406 866.808,701.66 872.213,702.47C872.213,702.47 874.35,703.529 874.35,703.529C874.727,704.326 875.251,705.453 875.251,705.453L874.38,707.311C874.38,707.311 872.115,708.534 872.115,708.534C871.716,708.795 872.369,708.404 871.594,708.888C871.594,708.888 867.533,710.014 864.979,708.315C862.005,706.337 859.719,703.442 858.199,700.727C858.199,700.727 856.49,695.922 856.316,692.026C856.077,686.685 856.842,681.345 856.5,676.002C856.333,673.285 856.24,670.563 856.222,667.841C856.176,660.828 855.478,653.774 855.75,647.442C856.045,645.705 856.042,646.413 856.02,646.172ZM869.07,702.362C869.07,702.362 869.066,702.359 869.07,702.362ZM869.066,702.361C869.066,702.361 869.063,702.359 869.066,702.361ZM869.064,702.36C869.062,702.359 869.063,702.36 869.064,702.36ZM869.047,702.347C869.047,702.347 869.047,702.347 869.047,702.347ZM869.044,702.343C869.044,702.343 869.043,702.342 869.044,702.343ZM869.041,702.343C869.041,702.343 869.039,702.342 869.041,702.343ZM869.034,702.341C869.034,702.341 869.034,702.341 869.034,702.341ZM869.041,702.341C869.041,702.341 869.038,702.339 869.041,702.341ZM869.036,702.34C869.036,702.34 869.034,702.339 869.036,702.34ZM869.038,702.339C869.038,702.339 869.037,702.338 869.038,702.339ZM869.024,702.339C869.024,702.339 869.024,702.339 869.024,702.339ZM869.033,702.338C869.033,702.338 869.033,702.338 869.033,702.338ZM869.001,702.331C869.001,702.331 869,702.33 869.001,702.331ZM868.991,702.328C868.991,702.328 868.99,702.328 868.991,702.328ZM868.989,702.328C868.989,702.328 868.986,702.327 868.989,702.328ZM868.994,702.327C868.994,702.327 868.993,702.327 868.994,702.327ZM868.971,702.32C868.971,702.32 868.909,702.293 868.971,702.32ZM868.943,702.311C868.943,702.311 868.938,702.309 868.943,702.311ZM868.887,702.29C868.887,702.29 868.859,702.279 868.887,702.29ZM856.476,647.393L857.707,648.248C857.707,648.248 856.035,646.611 856.476,647.393Z" style="fill-rule:nonzero;"/>
    </g>
    <g transform="matrix(0.283514,0,0,0.283514,-65.644,-166.451)">
        <path d="M871.468,653.175C872.58,653.188 874.209,653.948 874.209,653.948L875.625,655.739C875.608,656.606 875.575,657.829 875.575,657.829L874.041,659.05C874.041,659.05 871.539,659.364 871.683,659.429C872.091,659.613 868.817,659.666 867.109,659.719C861.898,659.912 856.799,661.031 851.479,661.303C850.453,661.362 848.952,661.341 848.952,661.341C845.016,661.559 849.643,659.745 849.643,659.745C849.718,658.625 848.733,661.354 848.733,661.354C848.733,661.354 847.04,662.038 847.04,662.038L845.326,661.241L844.617,659.326C844.795,657.193 848.125,655.844 848.386,655.78C848.535,655.743 848.684,655.708 848.834,655.675C850.327,655.346 852.677,655.21 852.677,655.21C857.937,654.712 863.095,653.522 868.451,653.423C869.49,653.374 870.215,653.173 871.468,653.175ZM868.46,653.423C868.461,653.423 868.461,653.423 868.46,653.423Z" style="fill-rule:nonzero;"/>
    </g>
    <g transform="matrix(0.283514,0,0,0.283514,-65.644,-166.451)">
        <path d="M928.387,699.269C926.77,703.945 923.541,706.89 916.979,707.721C911.769,708.381 905.928,710.459 899.927,707.868C893.832,705.236 892.528,696.093 892.1,689.987C891.796,685.436 891.13,681.234 891.773,675.629C891.797,675.406 891.82,675.183 891.841,674.959C892.209,670.77 891.336,666.527 891.563,661.881L891.979,658.471C892.96,655.73 893.644,655.505 894.372,655.313C895.427,655.035 896.882,655.976 896.882,655.976L897.661,657.73L897.29,658.951C898.127,663.406 897.628,667.775 898.451,672.544C898.711,674.22 898.624,675.92 898.58,677.615C898.534,679.976 898.739,680.12 898.976,681.345C899.28,682.965 899.624,685.323 899.624,685.323C900.211,690.403 900.436,695.649 902.459,700.068C903.243,701.779 900.942,700.239 904.083,701.022C909.051,702.26 914.14,700.145 918.605,699.606C919.661,699.478 921.074,698.169 921.074,698.169C922.129,696.124 923.392,694.401 925.781,691.794C925.781,691.794 927.691,690.713 927.691,690.713C927.691,690.713 929.625,691.028 929.625,691.028L930.648,692.696C930.415,694.461 930.793,693.982 929.93,695.736C929.93,695.736 928.447,699.109 928.447,699.109C928.327,699.367 928.475,699.031 928.387,699.269ZM921.011,698.239C921.001,698.243 920.97,698.271 921.011,698.239ZM893.54,659.74C894.219,660.252 894.307,660.27 895.163,660.268C895.163,660.268 893.103,659.357 893.54,659.74ZM895.362,660.248C895.804,660.189 896.094,660.12 896.617,659.695C896.199,659.88 895.781,660.064 895.362,660.248Z" style="fill-rule:nonzero;"/>
    </g>
    <g transform="matrix(0.283514,0,0,0.283514,-65.644,-166.451)">
        <path d="M934.485,653.168C935.611,653.984 935.679,655.42 935.679,655.42L934.869,657.158C934.869,657.158 935.748,654.725 935.709,656.765L935.594,659.193C935.632,660.092 935.618,660.991 935.591,661.889C935.354,669.781 936.222,677.004 936.57,686.226C936.638,688.005 936.732,689.782 936.922,691.552C937.319,695.249 936.803,699.171 937.722,702.244C937.722,702.244 937.966,703.761 938.057,705.268C938.057,705.268 938.01,707.626 938.01,707.626C938.01,707.626 937.743,707.642 937.743,707.642C937.743,707.642 937.326,710.968 934.773,711.277C932.75,711.522 930.892,709.882 930.681,707.689C930.681,707.689 929.551,703.79 929.322,700.445C928.589,689.701 930.003,678.97 929.273,667.998C929.018,664.159 929.451,660.673 930.15,656.402L930.517,655.146C931.234,653.199 931.254,653.636 931.254,653.636L932.723,652.825C933.199,652.778 933.861,652.845 934.485,653.168ZM930.074,704.459C929.957,703.943 929.988,703.976 930.074,704.459ZM930.638,655.499C930.638,655.499 931.241,657.007 931.241,657.007L932.772,657.766L931.621,657.231C931.621,657.231 930.629,655.136 930.638,655.499ZM933.839,657.661L934.764,657.237C934.456,657.379 934.147,657.52 933.839,657.661Z" style="fill-rule:nonzero;"/>
    </g>
    <g transform="matrix(0.283514,0,0,0.283514,-65.644,-166.451)">
        <path d="M975.286,654.62C975.768,654.634 976.475,654.73 976.475,654.73L978.587,655.836C978.964,656.594 979.485,657.66 979.485,657.66L978.629,659.368C978.629,659.368 976.3,661.007 976.3,661.007C968.671,665.702 963.386,674.09 963.02,680.998C962.918,682.933 962.723,685.742 962.723,685.742C962.805,690.854 962.791,695.94 963.441,701.076C963.551,702.003 963.602,702.04 963.684,702.438C964.055,704.298 964.256,706.813 964.194,707.369C964.024,708.887 962.275,710.266 962.275,710.266C961.357,710.682 960.843,711.001 959.119,710.446C959.119,710.446 956.326,707.75 956.24,703.75C956.13,698.686 954.884,693.79 955.522,687.906C955.522,687.906 955.52,684.685 955.554,682.119C955.661,675.177 956.34,668.251 956.748,661.264C956.748,661.264 956.941,659.133 956.941,659.133C956.941,659.133 957.288,657.084 957.288,657.084L958.202,655.316C958.202,655.316 959.815,654.576 959.815,654.576L961.408,655.316L962.322,657.084L962.669,659.136C962.847,661.108 962.95,663.087 962.99,665.068L962.987,665.304C963.685,664.351 964.388,663.404 965.117,662.477C967.465,659.492 970.059,656.482 973.471,655.035C974.049,654.79 974.644,654.611 975.286,654.62Z" style="fill-rule:nonzero;"/>
    </g>
    <g transform="matrix(0.283514,0,0,0.283514,-65.644,-166.451)">
        <path d="M1037.65,700.871C1037.65,700.871 1036.78,702.105 1036.78,702.105C1036.1,702.65 1035.94,702.859 1034.72,703.913C1025.49,711.746 1008.69,710.769 1000.21,699.673C996.539,694.872 993.387,689.505 992.747,683.269C991.484,670.976 999.056,657.454 1010.2,653.609C1018.75,650.659 1028.35,654.066 1035.41,659.665C1036,660.137 1036.02,660.167 1036.25,660.382C1040.72,664.512 1041.08,672.778 1038.51,676.529C1034.18,682.864 1023.97,681.321 1017.81,682.266C1013.13,683.015 1008.47,683.206 1003.75,683.379C1003.51,683.388 1004.22,683.284 1003.1,683.435C1002.35,683.543 1001.09,683.253 1001.38,684.212C1003.38,690.758 1008.17,696.837 1013.56,699.13C1018.72,701.325 1025.27,700.555 1029.77,697.295C1030.72,696.594 1032.13,695.566 1032.13,695.566C1033.89,694.761 1035.81,694.12 1037.7,694.354C1037.7,694.354 1040,695.463 1040,695.463C1040.41,696.337 1040.97,697.576 1040.97,697.576L1040.04,699.615C1040.04,699.615 1037.73,700.843 1037.73,700.843C1037.69,700.856 1037.69,700.856 1037.65,700.871ZM1001.08,682.329L1001.26,682.069C1001.26,682.069 1000.93,682.523 1001.08,682.329ZM1001.28,682.029C1001.28,682.029 1001.78,680.583 1001.28,682.029ZM1017.55,659.489C1008.76,659.623 1001.73,668.678 1000.85,678.184C1000.85,678.184 1002.31,677.829 1003.89,677.615L1003.95,677.607C1010.93,676.968 1017.94,676.382 1024.9,676.055C1027.91,675.901 1031.25,675.419 1033.25,673.436C1034.1,672.597 1033.35,673.344 1033.46,673.193C1034.33,671.939 1033.42,673.51 1033.5,672.903C1033.87,669.643 1033.06,666.168 1031.37,664.937C1027.2,661.953 1022.79,659.46 1017.55,659.489Z" style="fill-rule:nonzero;"/>
    </g>
    <g transform="matrix(0.283514,0,0,0.283514,-65.644,-166.451)">
        <path d="M1065.18,692.071C1065.45,691.918 1065.58,691.874 1065.58,691.874L1067.97,691.605C1067.97,691.605 1069.75,692.624 1069.75,692.624C1069.75,692.624 1069.94,696.206 1069.94,696.206C1069.99,696.27 1070.03,696.339 1070.07,696.407C1070.69,697.447 1070.59,697.585 1070.8,698.076C1072.51,702.123 1075.54,706.038 1081.71,706.332C1088.25,706.643 1094.14,697.983 1093.3,692.823C1093.2,692.251 1094.85,693.585 1091.93,690.751C1089.37,688.26 1085.65,688.043 1082.19,687.143C1075.99,685.55 1068.91,685.465 1064.65,680.634C1057.63,672.659 1061.7,657.93 1074.5,653.897C1081.86,651.576 1090.32,653.22 1096.28,658.742C1096.28,658.742 1098.47,660.927 1098.34,663.427C1098.05,669.288 1097.39,664.406 1097.39,664.406L1097.42,664.446L1097.99,666.333L1097.28,668.004L1095.51,668.639L1093.63,667.778C1093.21,667.284 1093.22,667.22 1093.11,666.992C1092.62,665.997 1092.48,664.408 1092.48,664.408C1091.58,660.239 1092.24,664.202 1092.24,664.202C1088.28,662.105 1083.33,659.067 1076.93,661.324C1071.62,663.196 1067.08,668.884 1069.93,674.371C1071.98,678.326 1078.27,678.175 1082.93,679.266C1090.92,681.139 1100.29,682.803 1101.36,692.399C1102.26,700.444 1096.86,708.625 1089.39,712.8C1083.6,716.035 1075.46,715.169 1069.25,709.992C1065.94,707.234 1063.86,702.894 1062.95,698.777C1062.78,698.024 1062.41,695.802 1063.23,693.983C1063.23,693.983 1065.11,692.131 1065.11,692.131C1065.13,692.111 1065.16,692.091 1065.18,692.071Z" style="fill-rule:nonzero;"/>
    </g>
    <g transform="matrix(0.283514,0,0,0.283514,-65.644,-166.451)">
        <path d="M1172.79,661.056C1171.1,657.986 1166.29,658.766 1163.36,659.493C1158.75,660.634 1154.28,663.011 1150.79,665.806C1147.28,668.696 1149.65,665.446 1149.65,665.446L1148.38,667.189C1148.38,667.189 1147.07,667.901 1147.07,667.901L1145.55,667.129C1145.55,667.129 1144.6,665.233 1144.6,665.233C1144.37,662.687 1144.67,662.967 1144.84,662.684C1146.59,659.803 1149.93,658.153 1152.85,656.368C1158.49,652.962 1164.91,650.446 1171.47,651.644C1180.89,653.365 1184.73,666.811 1184.91,677.116C1185.06,685.637 1183.72,694.091 1184.76,703.48C1184.86,704.48 1185.35,705.021 1184.91,706.598C1184.91,706.598 1184.59,704.648 1184.59,704.648L1184.15,703.883L1184.51,705.982L1184.52,706.073C1184.52,706.073 1184.01,708.988 1182.76,709.749C1182.39,709.97 1180.94,710.257 1180.94,710.257C1180.94,710.257 1178.94,709.858 1178.94,709.858C1178.12,709.386 1177.9,709.145 1177.9,709.145C1177.9,709.145 1176.9,707.882 1176.72,707.263C1176.02,704.766 1176.72,708.624 1176.2,704.26C1175.01,694.525 1176.77,684.59 1176.21,674.688C1175.95,670.046 1174.47,665.561 1172.89,661.32C1172.72,660.844 1172.79,661.069 1172.79,661.056ZM1176.55,705.325C1176.55,705.325 1176.59,706.973 1176.53,705.703C1176.53,705.703 1176.59,704.997 1176.55,705.325ZM1184.8,703.981C1184.8,703.981 1184.79,703.928 1184.8,703.981ZM1177.88,703.886C1177.88,703.886 1178.69,703.158 1178.69,703.158L1180.25,702.087C1180.25,702.087 1177.6,703.999 1177.88,703.886Z" style="fill-rule:nonzero;"/>
    </g>
    <g transform="matrix(0.283514,0,0,0.283514,-65.644,-166.451)">
        <path d="M1175.17,697.144C1175.17,697.144 1176.6,696.323 1177.98,696.341C1177.98,696.341 1179.81,697.087 1179.81,697.087C1180.14,697.813 1180.6,698.844 1180.6,698.844L1179.89,700.506C1179.89,700.506 1177.63,701.529 1178.36,701.435C1178.36,701.435 1179.21,701.024 1178.22,701.934L1177.34,702.457C1176.38,703.027 1175.09,703.972 1175.09,703.972C1174.33,704.461 1173.59,704.961 1172.83,705.442C1170.45,706.955 1167.79,707.923 1165.15,708.912C1165.15,708.912 1156.65,712.464 1151.51,711.734C1147.85,711.214 1144.44,709.012 1142.45,705.843C1138.12,698.975 1140.1,688.83 1146.05,683.646C1150.78,679.528 1158.15,679.628 1163.65,678.04C1166.08,677.365 1168.64,677.348 1171.19,677.345L1174.44,677.588L1175.58,678.012C1175.86,678.017 1176.28,678.022 1176.28,678.022L1178.05,678.778C1178.05,678.778 1178.79,680.556 1178.79,680.556L1178.04,682.312L1176.27,683.059C1175.65,683.064 1175.15,683.244 1175.15,683.244L1172.83,683.59C1169.69,683.865 1166.73,683.916 1163.54,684.961C1162.68,685.233 1162.63,685.24 1162.23,685.341C1156.89,686.707 1149.68,686.031 1148.03,693.808C1147.33,697.062 1147.96,701.002 1151.14,702.587C1154.42,704.221 1158.74,702.121 1162.69,701.128C1162.69,701.128 1166.66,700.483 1168.54,699.806C1170.01,699.274 1171.99,698.298 1171.99,698.298C1173.41,697.741 1175.02,697.186 1175.17,697.144Z" style="fill-rule:nonzero;"/>
    </g>
    <g transform="matrix(0.283514,0,0,0.283514,-65.644,-166.451)">
        <path d="M1209.26,658.22C1209.26,658.22 1210.2,657.43 1210.2,657.43C1210.53,655.775 1210.21,657.007 1210.48,657.8C1211.03,659.58 1211.33,662.277 1211.33,662.277C1211.35,662.518 1211.37,662.759 1211.39,663C1211.6,664.894 1211.06,667.311 1212.32,665.496C1217.17,658.633 1224.96,653.585 1233.1,653.276C1235.43,653.188 1241.83,652.822 1245.38,657.259C1246.3,658.398 1246.77,659.171 1248.05,661.037C1255.31,671.85 1251.24,686.078 1251.11,699.992C1251.11,699.992 1250.92,702.962 1250.87,705.013L1249.91,706.426C1249.91,706.426 1246.64,704.938 1246.64,704.938C1247.77,706.065 1248.87,707.228 1249.98,708.373C1249.98,708.373 1248.95,710.348 1248.95,710.348C1248.95,710.348 1246.45,711.678 1246.45,711.678C1245.95,711.724 1245.85,711.703 1245.61,711.674C1244.16,711.501 1242.65,709.963 1242.65,709.963C1241.75,708.874 1241.81,708.827 1241.81,708.827C1240.94,706.684 1241.41,704.113 1241.39,704.861C1240.77,695.609 1241.93,686.489 1242.98,678.083C1243.64,672.708 1243.08,667.579 1240.23,662.381C1239.74,661.505 1238.95,660.556 1238.95,660.556C1237.76,659.68 1241.68,660.728 1235.17,659.685C1226.39,658.34 1217.79,666.409 1215.18,673.97C1214.44,676.118 1213.91,678.331 1213.46,680.557C1213.68,682.687 1213.99,685.622 1213.99,685.622C1214.5,691.323 1215.18,696.99 1214.39,702.669C1214.17,704.329 1214.26,705.695 1214.02,708.069C1214.02,708.069 1213.57,710.772 1211.65,711.678C1209.19,712.839 1205.98,710.988 1205.77,707.835C1205.27,700.535 1204.39,693.085 1205.4,685.887L1205.42,685.755C1205.1,678.451 1204.72,671.145 1204.29,663.87C1204.17,661.559 1204.43,660.543 1204.2,658.33C1204.06,656.743 1203.98,655.71 1205.16,654.955L1205.58,654.717L1209.25,658.169C1209.25,658.186 1209.26,658.203 1209.26,658.22Z" style="fill-rule:nonzero;"/>
    </g>
    <g transform="matrix(0.283514,0,0,0.283514,-65.644,-166.451)">
        <path d="M1319.58,707.477C1319.58,707.477 1320.26,709.95 1318.48,711.498C1318.44,711.528 1318.03,711.905 1317.43,712.137C1316.05,712.678 1316.36,712.402 1315.65,712.396C1315.65,712.396 1314.4,712.082 1314.4,712.082C1314.4,712.082 1313.16,711.565 1312.12,709.764C1311.88,709.367 1312.2,709.58 1311.39,708.57C1311.39,708.57 1311.96,710.098 1311.17,708.585C1311.17,708.585 1310.72,704.878 1310.74,703.03C1310.72,694.032 1312.46,685.181 1310.92,676.714C1309.75,670.248 1309.65,663.727 1309.31,657.215C1309.31,657.215 1309.02,653.09 1309.06,649.465C1309.09,647.595 1309.17,645.727 1309.25,643.859C1309.25,643.859 1309.51,641.039 1309.7,638.581C1309.81,637.436 1309.87,637.235 1310,636.604C1310.21,635.628 1310.59,634.306 1310.59,634.306C1312.49,630.317 1311.31,634.202 1311.31,634.202L1311.66,634.69C1311.66,634.69 1310.22,632.816 1311.63,631.317C1312.09,630.823 1311.7,631.009 1312.76,630.574L1313.63,630.45C1314.81,630.581 1314.57,629.827 1315.75,631.67C1316.56,632.94 1316.33,635.377 1316.33,635.377C1316.29,635.67 1316.26,635.964 1316.22,636.257C1316.19,636.495 1316.17,636.733 1316.14,636.972C1315.9,639.803 1316.48,643.813 1316.48,643.813C1316.71,652.542 1317.9,661.241 1318.91,670.197C1319.38,674.145 1320.5,677.979 1320.69,682.244C1321.03,689.798 1320.22,697.317 1320.02,704.782C1320.02,704.94 1320.01,705.098 1320.01,705.256C1320.02,705.379 1320.02,705.501 1320.02,705.624C1320.06,706.398 1319.8,705.382 1319.8,705.382C1319.8,705.382 1319.65,706.763 1319.65,706.763C1319.65,706.763 1318.81,705.601 1318.81,705.601L1318.17,705.088L1316.34,704.558C1316.34,704.558 1319.49,707.405 1319.49,707.405C1319.53,707.442 1319.53,707.441 1319.58,707.477ZM1312.59,706.831C1312.59,706.831 1312.69,708.179 1312.69,708.179C1312.69,708.179 1312.81,707.675 1312.81,707.675L1314.13,705.289L1315.48,704.551C1315.48,704.551 1312.32,706.977 1312.59,706.831ZM1320.04,705.803C1320.04,705.803 1320.03,705.741 1320.04,705.803ZM1320.03,705.779C1320.03,705.779 1320.03,705.766 1320.03,705.779ZM1314.19,635.447L1314.99,635.096C1314.72,635.213 1314.45,635.33 1314.19,635.447ZM1312.68,635.398C1312.68,635.398 1312.54,635.323 1312.68,635.398ZM1316.03,633.262C1316.03,633.262 1315.19,634.926 1315.19,634.926C1315.19,634.926 1316.07,632.967 1316.03,633.262Z" style="fill-rule:nonzero;"/>
    </g>
    <g transform="matrix(0.283514,0,0,0.283514,-65.644,-166.451)">
        <path d="M1294.08,653.97C1299.52,654.085 1304.17,658.871 1308.46,662.609C1308.46,662.609 1309.21,663.306 1309.69,663.883C1312.18,666.829 1313.31,670.221 1315.73,673.925C1315.73,673.925 1317.24,676.977 1317.39,680.015L1317.37,680.733C1317.38,681.599 1317.62,680.454 1317.22,682.517C1316.83,684.381 1316.79,681.973 1316.79,681.973L1317.28,683.349C1317.28,683.349 1316.46,685.246 1316.46,685.246C1315.87,685.756 1315.51,685.879 1314.99,685.943L1315.86,687.016C1315.84,687.987 1315.81,689.433 1315.8,689.452C1313.65,695.055 1313.31,695.259 1311.63,697.587C1305.35,706.347 1295.26,713.773 1284.91,711.168C1277.8,709.376 1273.88,701.015 1271.74,694.525C1267.87,682.784 1267.35,668.814 1277.41,660.553C1280.61,657.921 1284.7,656.65 1288.54,655.062C1288.54,655.062 1291.82,653.953 1294.08,653.97ZM1293.94,663.431C1291.76,663.486 1289.65,664.842 1287.43,665.765C1278.57,669.5 1277.51,681.569 1281.75,693.44C1282.94,696.783 1284.41,700.412 1287.35,701.907C1287.97,702.224 1288.08,702.07 1288.47,702.114C1295.9,702.949 1302.88,696.571 1307.65,690.14C1308.6,689.054 1309.48,687.889 1310.27,686.668C1310.27,686.668 1312.2,685.172 1312.2,685.172C1312.2,685.172 1312.65,685.081 1312.65,685.081L1311.58,681.707C1311.43,680.997 1311.55,681.895 1311.55,681.895C1311.27,681.046 1312.05,681.233 1310.57,678.993C1310.36,678.68 1310.43,678.819 1310.43,678.819C1307.74,675.689 1305.86,671.048 1302.82,669.512C1302.82,669.512 1297.3,664.838 1294.13,663.439C1294.08,663.416 1294.01,663.43 1293.94,663.431ZM1314.62,680.844C1314.62,680.844 1313.1,681.484 1313.1,681.484L1315.07,680.996L1316.35,681.481C1316.35,681.481 1314.31,680.763 1314.62,680.844ZM1294.12,663.434C1294.12,663.434 1294.06,663.424 1294.12,663.434ZM1294.11,663.43C1294.11,663.43 1294.08,663.423 1294.11,663.43ZM1294.09,663.425C1294.09,663.425 1294.07,663.417 1294.09,663.425ZM1294.08,663.418C1294.08,663.418 1294.03,663.405 1294.08,663.418ZM1294.06,663.408C1294.06,663.408 1293.98,663.383 1294.06,663.408Z" style="fill-rule:nonzero;"/>
    </g>
    <g transform="matrix(0.283514,0,0,0.283514,-65.644,-166.451)">
        <path d="M1361.97,705.461C1361.97,705.461 1361.93,705.801 1361.96,705.754C1363.45,703.82 1363.31,703.638 1365.36,702.303C1365.36,702.303 1362.19,703.939 1362.19,703.939C1361.75,704.589 1361.93,704.35 1361.93,704.35C1361.93,704.35 1361.63,705.356 1361.61,705.053C1361.61,705.053 1362.04,703.222 1362.49,702.172C1363.3,700.216 1363.79,698.15 1364.44,696.125C1369.46,680.458 1374.95,665.114 1380.97,650.082C1380.97,650.082 1382.54,646.302 1383.71,643.597C1384.33,642.179 1385.22,640.206 1385.22,640.206C1385.93,638.857 1386.68,637.53 1387.31,636.14C1387.31,636.14 1388.23,634.476 1388.4,634.274C1388.97,633.616 1389.88,632.822 1389.88,632.822L1391.73,632.167C1391.73,632.167 1393.44,632.808 1393.44,632.808L1394.04,634.44C1394.04,634.44 1393.61,636.143 1393.42,636.421C1392.55,638.032 1392.36,640.028 1391.55,642.698C1391.55,642.698 1389.78,647.942 1388.17,652.64C1384.2,663.296 1380.17,673.8 1377.11,684.927C1375.44,690.891 1373.28,696.708 1371.54,702.635C1370.35,706.622 1369.24,711.005 1365.3,710.721C1362.62,710.529 1360.73,707.866 1361.77,705.785C1361.84,705.645 1361.95,705.556 1361.97,705.461ZM1370.24,706.067C1370.11,706.623 1370.32,705.72 1370.24,706.067ZM1369.41,706.069C1369.41,706.069 1368.9,704.041 1368.9,704.041C1368.9,704.041 1367.66,702.886 1367.66,702.886L1365.65,702.318L1367.1,703.261C1368.2,704.685 1369.13,706.125 1369.13,706.125C1369.58,706.489 1369.41,706.221 1369.41,706.069Z" style="fill-rule:nonzero;"/>
    </g>
    <g transform="matrix(0.283514,0,0,0.283514,-65.644,-166.451)">
        <path d="M1396.18,634.258C1397.34,635.718 1398.3,636.881 1398.98,638.302C1399.6,639.56 1399.75,639.801 1400.16,640.499C1404.91,648.551 1410.58,655.811 1413.44,665.297C1415.6,672.417 1416.94,679.763 1419.84,686.665C1420.09,687.268 1421.52,690.766 1422.5,693.313C1423.82,696.77 1425.11,700.102 1425.92,704.088C1426.2,705.434 1425.38,702.009 1426.49,705.867C1426.51,705.962 1426.95,708.025 1425.8,709.425C1425.34,709.982 1425.13,710.094 1425.13,710.094L1423.8,710.734C1423.04,710.868 1421.51,711.2 1420.18,709.333C1420.11,709.235 1419.73,708.102 1419.73,708.102L1419.66,705.938C1419.66,705.938 1419.96,709.25 1419,707.563C1419,707.563 1417.99,704.393 1417.01,702.683C1416.99,702.647 1414.44,697.322 1412.42,693.18C1411.81,691.878 1411.03,690.232 1410.87,689.852C1410.75,689.567 1410.63,689.281 1410.51,688.994C1406.03,677.931 1404.95,665.638 1399.16,655.368C1397.6,652.627 1395.95,649.918 1394.49,647.12C1394.49,647.12 1393.48,644.901 1392.88,643.28C1391.78,640.324 1391.99,640.193 1391.52,639.246C1390.71,637.667 1389.94,635.483 1389.96,635.245C1390.19,632.794 1390.75,632.794 1390.8,632.712C1391.64,631.546 1392.03,631.772 1392.03,631.772C1393.34,631.387 1392.8,631.278 1394.06,631.812C1398.4,633.651 1395.06,633.032 1395.06,633.032C1394.82,632.917 1394.77,632.846 1394.16,632.792L1395.89,633.633C1395.89,633.633 1396.03,634.065 1396.18,634.258ZM1425.43,705.416C1425.43,705.416 1425.18,704.958 1425.18,704.958C1425.18,704.958 1423.39,703.829 1423.39,703.829L1424.93,704.827L1424.99,704.907C1425.84,706.238 1425.52,705.595 1425.43,705.416ZM1391.11,635.946C1391.11,635.946 1391.93,637.03 1391.11,635.927C1391.11,635.927 1391.04,635.854 1391.11,635.946Z" style="fill-rule:nonzero;"/>
    </g>
    <g transform="matrix(0.283514,0,0,0.283514,-65.644,-166.451)">
        <path d="M1377.67,681.283C1377.67,681.283 1378.81,681.608 1378.81,681.608C1382.25,682.614 1381.53,681.882 1384.24,681.46C1390.13,680.57 1396.08,681.715 1402.38,681.54L1402.67,681.532C1406.06,681.35 1409.78,681.248 1409.78,681.248L1410.01,681.648L1410.03,688.432L1409.57,688.922C1409.04,688.899 1408.51,688.879 1407.99,688.86C1405.81,688.786 1402.78,688.732 1402.78,688.732C1397.59,688.754 1392.32,688.541 1387.22,688.09C1383.94,687.851 1380.66,688.971 1376.5,686.939C1376.5,686.939 1373.26,684.525 1375.2,682.227C1375.8,681.527 1376.46,681.205 1377.67,681.283ZM1378.33,686.294C1378.33,686.294 1379.17,685.674 1379.17,685.674C1379.17,685.674 1377.8,686.513 1378.33,686.294Z" style="fill-rule:nonzero;"/>
    </g>
    <g transform="matrix(0.283514,0,0,0.283514,-65.644,-166.451)">
        <path d="M1448.2,633.945C1448.3,634.419 1448.41,634.893 1448.51,635.368C1450.78,646.306 1449.79,657.017 1450.06,667.472C1450.23,674.019 1450.66,680.538 1450.98,687.085C1450.98,687.085 1451.07,689.498 1451.08,691.046C1451.1,694.882 1451.61,698.362 1451.41,702.579C1451.41,702.579 1449.44,701.442 1449.44,701.442C1449.44,701.442 1444.13,706.367 1444.13,706.367C1441.42,704.716 1441.51,702.24 1441.51,702.24C1441.64,697.972 1441.18,693.043 1441.22,688.305C1441.22,688.305 1441.35,682.001 1441.45,676.844C1441.74,664.797 1444.41,652.497 1442.62,641.73L1442.48,638.975C1442.51,638.518 1442.55,638.06 1442.58,637.603C1442.66,636.182 1442.59,634.464 1442.59,634.464C1442.59,634.464 1442.56,632.771 1443.6,631.946C1444.94,630.886 1447.06,631.485 1447.82,633.154C1447.82,633.154 1448.13,633.621 1448.2,633.945ZM1442.84,634.96C1442.84,634.96 1442.84,634.956 1442.84,634.96ZM1442.89,634.947C1442.89,634.947 1442.89,634.945 1442.89,634.947ZM1442.92,634.941C1442.92,634.941 1442.9,634.893 1442.92,634.941ZM1442.91,634.774C1442.91,634.774 1442.88,634.377 1442.91,634.774Z" style="fill-rule:nonzero;"/>
    </g>
    <g transform="matrix(0.283514,0,0,0.283514,-65.644,-166.451)">
        <path d="M1479.23,719.429C1479.23,719.429 1478.9,718.846 1480.47,720.282C1482.34,722.231 1484.62,723.654 1486.85,725.264C1486.85,725.264 1489.31,725.592 1490.71,725.764C1494.58,726.19 1498.22,724.621 1502.63,724.33C1507.32,723.986 1509.06,717.256 1509.39,712.113C1510.04,702.092 1509.15,692.009 1509.18,681.6L1509.26,678.249C1509.34,676.8 1509.41,675.653 1509.57,673.099C1509.65,671.655 1509.76,669.587 1509.76,669.587C1509.91,667.764 1510.06,665.942 1510.28,664.127C1510.41,663.048 1510.65,661.452 1510.65,661.452C1510.96,660.46 1511.15,660.06 1511.3,657.455C1511.3,657.455 1512.75,653.151 1515.48,654.088C1516.36,654.392 1517.12,655.647 1517.12,655.647L1517.06,657.767C1518.14,664.358 1518.52,671.077 1518.83,678.276C1518.96,681.415 1518.85,684.599 1518.81,687.78C1518.81,687.78 1518.76,691.263 1518.72,693.9C1518.56,704.662 1520.04,715.896 1514.73,725.213C1512.33,729.42 1508.04,732.579 1503.07,732.773C1502.48,732.796 1501.9,732.803 1501.31,732.824C1501.15,732.831 1501,732.839 1500.84,732.849C1496.18,733.187 1486.35,735.096 1481.76,731.332C1479.44,729.43 1476.94,727.769 1474.91,725.581C1474.91,725.581 1473.14,723.379 1472.6,721.572C1472.6,721.572 1472.63,720.163 1472.84,719.479C1472.84,719.479 1479.14,719.371 1479.14,719.371C1479.18,719.401 1479.18,719.401 1479.23,719.429ZM1486.96,725.343C1487.33,725.57 1486.94,725.33 1486.96,725.343ZM1486.95,725.336C1486.95,725.336 1486.95,725.332 1486.95,725.336ZM1515.17,659.073L1514.3,659.11C1514.3,659.11 1514.79,659.142 1515.17,659.073ZM1514.27,659.107C1514.27,659.107 1514.27,659.107 1514.27,659.107ZM1512.65,657.999C1512.65,657.999 1514.27,659.103 1514.27,659.103C1514.27,659.103 1512.46,657.643 1512.65,657.999ZM1515.19,659.072C1515.19,659.072 1515.2,659.072 1515.19,659.072ZM1516.99,657.851C1516.94,657.825 1517.04,657.786 1516.99,657.851ZM1516.98,657.866C1516.98,657.866 1517.01,657.832 1516.98,657.866ZM1516.97,657.882C1516.97,657.882 1516.97,657.873 1516.97,657.882ZM1517.01,657.821C1517.01,657.821 1517.03,657.808 1517.01,657.821Z" style="fill-rule:nonzero;"/>
    </g>
    <g transform="matrix(0.283514,0,0,0.283514,-65.644,-166.451)">
        <path d="M1490.32,652.138C1497.28,652.229 1503.84,655.769 1507.88,662.421C1510.2,666.241 1512.57,670.04 1514.44,673.873C1514.44,673.873 1513.14,673.891 1514.07,674.288C1514.07,674.288 1515.75,675.108 1515.92,676.647C1515.93,676.711 1515.93,676.803 1515.93,676.803L1515.25,678.663C1515.25,678.663 1513.46,679.52 1513.46,679.52L1511.84,678.842C1511.84,678.842 1510.74,677.056 1510.74,677.056C1510.74,677.056 1513.95,682.482 1509.72,677.994C1509.72,677.994 1508.91,677.055 1508.91,677.055C1508.29,676.14 1508.21,676.178 1507.9,675.824C1505.51,673.125 1503.17,670.621 1500.96,667.262C1497.75,662.446 1491.1,659.809 1485.37,662.27C1476.41,666.114 1474.1,679.927 1476.6,689.528C1477.86,694.356 1481.4,698.572 1486.17,700.22C1486.86,700.455 1484.69,700.981 1488.49,700.224C1490.95,699.733 1493.36,698.947 1495.56,697.883L1495.65,697.841C1500.14,695.365 1503.77,691.539 1506.65,687.273C1506.65,687.273 1507.3,685.773 1508.3,684.039C1508.3,684.039 1510.08,682.569 1510.08,682.569L1512.26,682.655L1512.28,682.664L1513.64,684.297L1513.64,686.624C1512.78,689.108 1512.01,691.726 1510.09,694.379C1503.22,703.855 1491.18,711.904 1482.25,709.018C1472.93,706.008 1467.02,696.154 1466.16,686.075C1464.86,670.648 1471.96,652.624 1489.58,652.144C1489.83,652.139 1490.08,652.137 1490.32,652.138Z" style="fill-rule:nonzero;"/>
    </g>
    <g transform="matrix(0.283514,0,0,0.283514,-65.644,-166.451)">
        <path d="M1557.3,653.039C1558.26,653.28 1559.51,653.266 1559.51,653.266L1561.34,654.13L1561.88,655.322C1561.88,655.322 1564.44,655.215 1564.44,655.215C1564.44,655.215 1563.23,652.144 1563.23,652.144C1563.23,652.144 1562.01,651.369 1562.24,651.317C1562.56,651.313 1562.87,651.303 1563.19,651.292C1565.25,651.213 1565.19,651.34 1565.73,651.466C1568.77,652.182 1571.19,654.538 1573.59,655.928C1579.02,659.122 1582.94,664.385 1585.06,670.427C1587.74,677.637 1586.41,690.691 1579.96,699.954C1576.38,705.081 1573.09,709.587 1566.75,709.889C1556.56,710.375 1545.48,710.988 1539.56,702.352C1531.31,690.308 1531.35,671.177 1541.75,661.414C1545.18,658.188 1549.44,655.489 1553.55,653.77C1553.55,653.77 1555.29,653.2 1557.04,652.996C1557.04,652.996 1557.18,653.01 1557.3,653.039ZM1561.18,700.593C1563.5,700.607 1565.9,701.134 1568.01,700.6C1568.01,700.6 1574.89,693.891 1576.65,688.577C1577.95,684.658 1578.81,680.488 1578.33,676.389C1578.23,675.53 1578.3,676.213 1578.29,676.165C1576.77,671.333 1573.88,666.157 1568.66,663.53C1566.95,662.669 1565.45,661.416 1563.79,660.574C1563.79,660.574 1561.74,660.467 1559.94,659.948L1558.71,659.219C1558.26,658.748 1558.62,658.95 1558.01,659.227C1550.52,662.698 1544.93,668.77 1543.61,675.483C1542.63,680.487 1542.94,685.714 1544.57,690.536C1545.92,694.515 1547.81,698.954 1551.74,700C1554.77,700.806 1557.98,700.583 1561.18,700.593ZM1567.94,700.636C1568.06,700.612 1567.59,700.88 1568,700.61C1567.98,700.619 1567.96,700.628 1567.94,700.636ZM1567.99,700.614C1567.99,700.614 1568.04,700.592 1567.99,700.614ZM1563.65,660.509C1563.65,660.509 1563.61,660.5 1563.65,660.509ZM1563.64,660.505C1563.62,660.496 1563.54,660.48 1563.64,660.505ZM1563.58,660.483C1563.24,660.367 1563.85,660.571 1563.55,660.468C1563.52,660.458 1563.55,660.472 1563.58,660.483Z" style="fill-rule:nonzero;"/>
    </g>
    <g transform="matrix(0.283514,0,0,0.283514,-65.644,-166.451)">
        <path d="M1623.07,655.47C1623.07,655.47 1622.06,656.114 1622.55,655.801L1625.3,655.403L1627.47,656.586C1627.47,656.586 1628.4,658.332 1628.4,658.332C1628.4,658.332 1626.91,661.523 1626.91,661.523C1626.25,662.21 1624.93,662.636 1624.9,662.642C1624.01,662.84 1622.96,662.484 1622.36,662.806C1617.16,665.697 1613.41,670.342 1611.5,675.732C1611.5,675.732 1611.68,680.595 1611.64,684.566C1611.55,692.797 1612.34,701.308 1611.65,709.409C1611.59,710.144 1611.26,711.191 1611.26,711.191C1610.21,713.558 1610.28,713.18 1608.27,713.909C1608.27,713.909 1607.03,714.097 1607.01,714.096C1604.09,713.931 1604.62,714.057 1603.25,712.204C1602.16,710.727 1602.2,707.804 1602.2,707.804C1602.34,705.101 1602.26,704.442 1602.26,702.714C1602.26,702.714 1602.06,698.543 1602.04,695.304C1602.01,691.556 1602.16,687.804 1602.6,684.085C1602.6,684.085 1602.97,677.867 1602.69,673.686C1602.41,669.398 1602.33,665.092 1602.12,660.89C1602.12,660.89 1602.44,658.178 1602.44,658.178C1602.47,658.022 1602.73,659.079 1602.32,657.149C1602.12,656.181 1602.2,654.749 1602.2,654.749C1602.63,653.345 1603.86,652.302 1605.31,652.32C1605.4,652.321 1605.54,652.338 1605.54,652.338L1607.33,653.198C1607.33,653.198 1608.1,654.808 1608.1,654.808C1608.1,654.808 1608.59,654.477 1608.86,657.649C1608.97,658.232 1608.84,657.7 1609.09,658.912C1609.56,661.194 1610.14,664.443 1610.14,664.443C1613.71,660.042 1617.93,654.504 1623.71,655.335C1623.71,655.335 1622.9,655.493 1623.07,655.47ZM1611,707.503C1611,707.503 1610.63,707.016 1611.08,707.971C1610.89,707.932 1611.08,707.683 1611,707.503ZM1623.11,662.451C1623.11,662.451 1623.12,662.451 1623.11,662.451ZM1623.21,662.413C1623.21,662.413 1623.23,662.408 1623.21,662.413ZM1605.7,657.393C1605.7,657.393 1607.78,655.512 1607.78,655.512L1607.4,656.318C1607.4,656.318 1605.36,657.418 1605.7,657.393ZM1607.78,655.495C1607.78,655.495 1607.78,655.491 1607.78,655.495ZM1623.84,655.355C1624.15,655.4 1623.76,655.355 1623.84,655.355Z" style="fill-rule:nonzero;"/>
    </g>
    <g transform="matrix(0.283514,0,0,0.283514,-65.644,-166.451)">
        <path d="M1647.75,631.73L1647.84,631.733L1649.62,632.496C1649.62,632.496 1650.38,634.234 1650.38,634.234C1650.38,634.234 1649.95,635.365 1649.95,635.365L1649.54,637.604L1647.49,640.036C1646.58,640.654 1645.16,640.872 1645.16,640.872C1644.17,640.763 1642.87,640.095 1642.87,640.095C1641.34,639.031 1640.89,636.321 1640.89,636.321C1640.99,634.976 1642.13,633.665 1642.13,633.665C1644.48,632.511 1642.19,633.045 1646.02,631.969C1646.59,631.81 1646.91,631.728 1647.75,631.73ZM1647.63,636.928C1648.03,636.923 1648.87,636.286 1648.87,636.286C1648.87,636.286 1647.9,636.764 1647.63,636.928ZM1648.16,634.021C1648.16,634.021 1644.63,632.826 1645.31,633.03L1648.55,634.654C1648.55,634.654 1648.37,634.31 1648.16,634.021Z" style="fill-rule:nonzero;"/>
    </g>
    <g transform="matrix(0.283514,0,0,0.283514,-65.644,-166.451)">
        <path d="M1647.95,652.697C1650.54,653.069 1650.43,654.371 1650.43,654.371C1650.43,654.371 1651.21,656.111 1651.21,656.111C1651.21,656.111 1650.68,657.444 1650.68,657.444C1649.99,661.669 1651.51,666.139 1651.93,672.027C1652.25,676.306 1652.68,680.568 1652.7,684.861C1652.71,687.041 1652.11,694.93 1651.93,699.946L1651.57,701.757C1651.06,703.197 1651.57,701.639 1650.79,704.002C1650.79,704.002 1649.39,706.446 1649.39,706.446C1649.39,706.446 1647.61,707.461 1647.61,707.461L1645.84,706.441C1645.84,706.441 1644.45,703.992 1644.45,703.992L1644,702.622C1643.51,701.306 1643.79,702.395 1643.47,700.75C1643.47,700.75 1643.38,696.512 1643.53,693.919C1643.63,692.098 1643.79,690.28 1643.97,688.469C1644.21,686.014 1644.17,685.535 1644.19,684.147C1644.31,675.968 1643.47,668.001 1643.75,658.97C1643.79,657.598 1643.69,658.187 1643.91,657.389C1644.61,655.151 1644.7,655.336 1644.81,654.974C1645.17,653.77 1646.19,652.651 1647.95,652.697ZM1650.49,658.635C1650.3,659.805 1650.53,658.379 1650.49,658.635ZM1647.5,653.732C1647.83,653.774 1647.33,653.738 1647.5,653.732ZM1647.81,653.711C1647.81,653.711 1647.81,653.71 1647.81,653.711Z" style="fill-rule:nonzero;"/>
    </g>
    <g transform="matrix(0.283514,0,0,0.283514,-65.644,-166.451)">
        <path d="M1681.11,643.686C1681.23,644.165 1681.29,644.338 1681.29,644.338C1681.27,644.707 1681.25,645.076 1681.24,645.445C1681.13,648.509 1681.07,652.048 1681.07,652.048C1681.03,652.68 1680.98,653.312 1680.94,653.943C1680.05,667.845 1680.73,681.81 1683.5,695.227C1684.03,697.789 1684.35,700.892 1687.74,702.047C1692.74,703.695 1687.68,703.088 1688.2,702.82C1688.2,702.82 1690.5,701.283 1690.5,701.283L1692.4,701.098L1692.42,701.105L1693.85,702.651L1694.06,705.038C1693.44,707.806 1690.81,709.965 1687.36,709.973C1681.97,709.986 1677.17,705.745 1675.94,700.451C1672.89,687.299 1673.31,673.607 1673.6,660.443C1673.67,657.566 1673.96,654.692 1674.28,651.826C1674.28,651.826 1674.53,650.065 1674.74,648.842C1674.92,647.701 1674.93,647.607 1675.01,647.168C1675.37,645.146 1675.87,643.212 1675.87,643.212C1676.3,642.219 1675.25,642.315 1677.16,641.011C1678.06,640.392 1677.99,640.555 1678.64,640.568C1681.57,640.625 1681.11,643.137 1681.11,643.137L1680.38,644.784C1680.38,644.784 1680.96,643.282 1681.11,643.686ZM1679.41,645.327L1680.14,644.998C1679.9,645.108 1679.66,645.217 1679.41,645.327ZM1676.08,643.28C1676.08,643.28 1676.24,644.044 1676.24,644.044L1677.02,645.084L1677.44,645.127L1677.09,644.961C1677.09,644.961 1676.06,642.802 1676.08,643.28Z" style="fill-rule:nonzero;"/>
    </g>
    <g transform="matrix(0.283514,0,0,0.283514,-65.644,-166.451)">
        <path d="M1689.63,653.128C1690.21,653.21 1690.43,653.426 1690.43,653.426L1693.73,656.534L1690.12,659.896C1689.04,660.084 1688.97,660.004 1688.49,660.014C1683.29,660.142 1678.11,660.697 1672.9,660.61C1672.9,660.61 1669.35,660.237 1669.35,660.237C1668.72,660.26 1669.18,660.148 1669.18,660.148C1669.18,660.148 1667.52,660.86 1667.52,660.86L1665.81,660.076L1665.04,658.176C1665.06,657.634 1665.11,657.463 1665.22,657.153C1665.7,655.768 1667.66,654.801 1667.92,654.726C1668.43,654.58 1668.94,654.48 1669.46,654.404C1673.75,653.776 1680.74,653.348 1689.36,653.105C1689.36,653.105 1689.49,653.109 1689.63,653.128ZM1670.12,658.373C1670.12,658.373 1670.14,658.31 1670.12,658.373Z" style="fill-rule:nonzero;"/>
    </g>
    <g transform="matrix(0.283514,0,0,0.283514,-65.644,-166.451)">
        <path d="M1713.54,633.685C1714.47,633.778 1715.53,634.679 1715.53,634.679L1716.23,636.5C1716.23,636.5 1716.86,640.585 1717.24,643.898L1717.45,645.741C1717.49,646.225 1717.52,646.71 1717.56,647.195C1718.02,652.866 1718.52,658.545 1718.59,664.246C1718.59,664.246 1717.83,665.639 1719.33,663.595C1722.77,658.985 1728.48,656.831 1733.74,654.389C1736.52,653.121 1739.45,653.125 1742.93,653.679C1747.26,654.401 1750.79,656.809 1753.09,661.546C1755.06,665.49 1756.89,669.516 1757.29,674.301C1757.82,680.624 1757.03,686.999 1757.43,693.248C1757.43,693.248 1757.64,697.43 1757.36,701.754C1757.34,702.119 1757.34,702.119 1757.33,702.484C1757.28,703.956 1757.25,706.121 1757.25,706.121C1756.01,706.935 1756.64,706.278 1756.64,706.278L1755.79,704.925L1756.56,706.336C1757.03,708.287 1756.28,708.613 1756.28,708.613C1754.83,710.73 1753.71,710.261 1753.71,710.261C1751.62,710.292 1751.42,710.033 1750.48,708.489C1750.48,708.489 1750.08,707.155 1750.08,707.155C1749.96,706.711 1750.06,706.908 1749.48,706.539C1749.05,702.442 1748.67,698.333 1748.1,694.238C1748.07,693.985 1748.05,693.73 1748.03,693.474C1747.52,685.167 1749.73,676.579 1747.03,669.219C1746.34,667.403 1745.63,665.845 1744.74,663.566C1743.5,660.437 1745.39,662.483 1742.73,661.601C1740.42,660.834 1738.2,660.374 1735.26,661.586C1733.97,662.111 1734.33,661.904 1732.75,662.529C1729.3,663.913 1726.14,665.931 1724.03,669.517C1722.14,672.722 1721.02,676.313 1720.28,679.971C1720.28,679.971 1720.71,683.97 1720.83,687.156C1721.03,692.893 1720.91,698.116 1720.2,704.459C1719.93,707.061 1720.87,710.051 1717.41,711.534C1714.29,712.869 1711.4,709.353 1711.27,704.595C1711.18,698.027 1711.02,690.171 1712.18,682.631C1712.18,682.631 1711.75,679.002 1711.53,677.013C1710.56,668.09 1711.52,659.159 1710.88,650.372C1710.76,648.618 1710.68,646.077 1710.68,646.077C1710.7,645.241 1710.71,644.406 1710.72,643.57C1710.73,643.245 1710.73,642.92 1710.73,642.595C1710.73,642.273 1710.73,641.951 1710.72,641.628C1710.72,641.522 1710.72,641.415 1710.72,641.308C1710.7,640.411 1710.78,641.448 1710.68,640.508C1710.51,639.036 1710.02,637.649 1710.58,636.034L1711.16,634.855C1711.9,633.888 1712.05,633.683 1713.54,633.685ZM1750.56,705.335C1750.56,705.335 1750,707.424 1750.31,706.326C1750.31,706.326 1751.91,704.463 1750.56,705.335ZM1719.52,706.362C1719.52,706.362 1719.52,706.334 1719.52,706.362ZM1711.28,704.662C1711.28,704.611 1711.28,704.649 1711.28,704.662ZM1712.01,638.287C1712.01,638.296 1713.69,638.823 1713.69,638.823C1713.69,638.823 1711.79,638.073 1712.01,638.287ZM1713.69,638.827C1713.69,638.826 1713.69,638.826 1713.69,638.827Z" style="fill-rule:nonzero;"/>
    </g>
    <g transform="matrix(0.283514,0,0,0.283514,-65.644,-166.451)">
        <path d="M1838.94,654.815C1844.6,654.958 1848.56,660.21 1849.68,665.906C1850.97,672.463 1852.13,678.951 1854.6,685.235C1856.88,691.192 1856.05,697.787 1856.73,704.059C1856.73,704.059 1856.43,704.363 1856.43,704.363L1856.83,705.268L1856.5,708.232C1855.35,711.016 1851.21,711.487 1849,708.781C1849,708.781 1848.03,706.823 1847.7,705.097C1847.7,705.097 1847.54,697.988 1847.39,691.434C1847.25,687.556 1845.17,684.059 1844.49,679.854C1843.51,673.743 1844.93,666.544 1841.5,661.951C1840.43,660.506 1840.94,660.665 1838.94,660.619C1836.3,660.56 1833.34,662.683 1830.71,664.651C1824.4,669.38 1820.52,676.828 1819.16,684.527C1819.16,684.56 1820.85,688.983 1821.37,692.088C1821.83,694.853 1821.75,697.671 1821.58,700.458L1821.27,703.912C1821.49,704.701 1821.46,704.708 1821.5,705.118C1821.83,708.915 1816.32,712.808 1813.11,708.306C1809.63,703.43 1810.75,696.567 1811.06,689.586C1811.06,689.586 1809.69,682.5 1809.5,678.626C1809.37,676.515 1809.29,676.163 1809.22,674.872C1809.02,670.909 1809.13,666.812 1807.29,663.204C1804.72,658.166 1794.02,663.883 1788.39,675.964C1786.75,679.495 1785.89,683.233 1785.42,687.381C1785.42,687.381 1786.04,690.584 1786.09,693.308C1786.12,696.935 1786.45,700.532 1785.76,703.773C1785.35,705.7 1784.94,705.718 1784.52,706.129C1783.78,706.847 1782.23,707.243 1782.23,707.243C1780.99,707.309 1780.24,707.451 1778.62,705.909L1777.94,704.844C1776.46,701.301 1777.44,697.341 1777.94,692.938C1777.94,692.938 1777.09,687.126 1776.99,683.583C1776.92,680.956 1776.95,678.321 1777,675.688C1777,675.688 1777.17,665.948 1777.19,661.486C1777.19,661.341 1777.43,658.418 1778.06,656.307C1778.06,656.307 1778.67,655.138 1778.79,655.024C1779.99,653.881 1780.21,654.133 1781.03,654.206C1782.62,654.348 1783.79,656.093 1783.84,657.734C1783.84,657.734 1783.35,659.03 1783.35,659.03C1783.38,659.832 1783.55,660.994 1783.55,660.994C1783.56,661.211 1783.58,661.429 1783.6,661.646C1783.62,661.886 1783.64,662.125 1783.66,662.364C1783.92,664.836 1784.28,667.287 1784.39,669.768C1784.6,669.359 1784.82,668.952 1785.03,668.545C1788.4,662.266 1793.35,656.692 1800.8,654.739C1805.78,653.435 1811.39,655.707 1813.97,660.334C1815.61,663.284 1816.41,666.643 1817.01,669.988C1817.01,669.988 1822.57,662.018 1828.49,658.605C1831.8,656.723 1835,654.755 1838.94,654.815ZM1851.25,703.511C1851.25,703.511 1851.28,704.007 1851.28,704.007L1854.05,703.127C1854.05,703.127 1854.99,703.208 1854.99,703.208C1854.99,703.208 1850.88,703.536 1851.25,703.511ZM1820.68,703.732C1820.68,703.732 1820.42,703.201 1820.64,703.671C1820.64,703.671 1820.62,703.618 1820.68,703.732ZM1821.12,703.402C1821.28,704.054 1821.09,703.239 1821.12,703.402ZM1820.56,703.465C1820.56,703.465 1820.56,703.452 1820.56,703.465ZM1785.38,701.505C1785.38,701.505 1785.12,701.028 1785.34,701.514C1785.24,701.559 1785.31,701.405 1785.38,701.505ZM1778.82,658.112C1778.82,658.112 1779.48,659.298 1779.48,659.298C1779.48,659.298 1778.76,657.427 1778.82,658.112Z" style="fill-rule:nonzero;"/>
    </g>
    <g transform="matrix(0.283514,0,0,0.283514,-65.644,-166.451)">
        <path d="M1883.42,692.626C1883.42,692.626 1884.64,694.4 1884.64,694.4L1884.49,696.815C1882.6,701.559 1884.19,698.91 1884.58,699.454C1886.36,701.826 1890.01,702.486 1893.39,703.551C1894.17,703.807 1894.21,703.834 1894.54,703.965C1895,704.145 1895.45,704.338 1895.91,704.52C1899.99,706.12 1904.22,703.452 1907.07,699.577C1908.25,698.02 1908.73,697.817 1909.6,696.484C1909.6,696.484 1908.2,690.143 1903.81,688.025C1897.45,684.959 1889.4,686.626 1883.15,682.427C1879.73,680.127 1877.63,675.525 1876.85,672.458C1875.33,666.5 1878.99,659.505 1883.96,656.767C1892.74,651.922 1904.8,651.017 1912.41,657.851C1913.68,659.03 1914.73,661.121 1915.07,663.209C1915.07,663.209 1915.03,663.933 1915.03,663.933L1915.03,663.976C1915.03,663.976 1914.83,664.028 1914.83,664.028C1914.83,664.028 1915.52,665.748 1915.52,665.748L1914.72,667.474C1914.72,667.474 1912.82,668.176 1912.82,668.176C1910.27,667.964 1909.19,664.936 1909.19,664.936C1908.48,662.876 1908.45,663.467 1907.8,663.037C1901.43,659.002 1892.14,660.044 1886.54,663.74C1884.46,665.163 1883.41,669.167 1883.98,670.872C1884.14,671.328 1884.17,671.316 1884.28,671.512C1885.12,673.025 1885.6,674.768 1886.65,676.114C1887.15,676.759 1886.6,676.134 1887.06,676.473C1894.06,681.478 1905.75,676.971 1913,686.313C1915.99,690.164 1918.3,695.424 1916.83,699.164C1916,701.27 1914.33,702.912 1913.02,704.775C1911.96,706.254 1911.68,706.576 1910.94,707.387C1906.7,712.065 1899.68,714.421 1893.61,712.039C1892.54,711.62 1891.03,710.937 1891.03,710.937C1886.14,709.149 1880.61,707.656 1878.11,702.854C1876.63,700.014 1877.18,696.36 1879.23,693.704C1879.23,693.704 1881.24,692.378 1881.24,692.378C1881.97,692.459 1882.79,692.252 1883.42,692.626ZM1909.66,696.737C1909.71,695.973 1909.66,696.534 1909.66,696.737ZM1909.65,696.692C1909.66,696.675 1909.66,696.599 1909.65,696.692ZM1913.08,663.143C1913.08,663.143 1914.69,663.917 1914.69,663.917C1914.34,663.474 1914.29,663.517 1914.39,663.62C1912.85,662.389 1913,663.134 1913.08,663.143ZM1908.49,663.218C1907.93,663.178 1909.04,663.962 1908.51,663.215C1908.51,663.215 1908.41,663.05 1908.49,663.218Z" style="fill-rule:nonzero;"/>
    </g>
</svg>
