{
	"asset":{
		"version":"2.0",
		"generator":"Created using the official Cinema 4D glTF Exporter 1.000x283854"
	},
	"scenes":[{
		"nodes":[0]
	}],
	"nodes":[{
		"name":"Model",
		"translation":[0,
		0,
		0],
		"rotation":[0,
		0,
		0,
		-1],
		"scale":[1,
		1,
		-1],
		"children":[1,
		2,
		6,
		9,
		12]
	},
	{
		"name":"Tubes",
		"translation":[-23.403,
		3.043,
		0.365],
		"rotation":[0,
		0,
		0,
		-1],
		"scale":[1,
		1,
		1],
		"mesh":0
	},
	{
		"name":"Themes",
		"translation":[0.212,
		8.751,
		59.694],
		"rotation":[0,
		0,
		0,
		-1],
		"scale":[1,
		1,
		1],
		"children":[3,
		4,
		5]
	},
	{
		"name":"Block Above",
		"translation":[-0.277,
		0.23,
		0.6],
		"rotation":[0,
		0,
		0,
		-1],
		"scale":[1,
		1,
		1],
		"mesh":1
	},
	{
		"name":"Logos",
		"translation":[0.277,
		5.759,
		-0.6],
		"rotation":[0,
		0,
		0,
		-1],
		"scale":[1,
		1,
		1],
		"mesh":2
	},
	{
		"name":"base",
		"translation":[-0.053,
		-5.759,
		0.01],
		"rotation":[0,
		0,
		0,
		-1],
		"scale":[1,
		1,
		1],
		"mesh":3
	},
	{
		"name":"Config",
		"translation":[-59.449,
		4.97,
		0.075],
		"rotation":[0,
		0,
		0,
		-1],
		"scale":[1,
		1,
		1],
		"children":[7,
		8]
	},
	{
		"name":"Braces",
		"translation":[0.093,
		1.978,
		0.07],
		"rotation":[0,
		0,
		0,
		-1],
		"scale":[1,
		1,
		1],
		"mesh":4
	},
	{
		"name":"base",
		"translation":[-0.093,
		-1.978,
		-0.07],
		"rotation":[0,
		0,
		0,
		-1],
		"scale":[1,
		1,
		1],
		"mesh":5
	},
	{
		"name":"Data",
		"translation":[0.006,
		7.393,
		-59.995],
		"rotation":[0,
		0,
		0,
		-1],
		"scale":[1,
		1,
		1],
		"children":[10,
		11]
	},
	{
		"name":"Database",
		"translation":[-0.153,
		4.401,
		-0.299],
		"rotation":[0,
		0,
		0,
		-1],
		"scale":[1,
		1,
		1],
		"mesh":6
	},
	{
		"name":"base",
		"translation":[0.153,
		-4.401,
		0.299],
		"rotation":[0,
		0,
		0,
		-1],
		"scale":[1,
		1,
		1],
		"mesh":7
	},
	{
		"name":"Middle",
		"translation":[31.407,
		27.549,
		-1.559],
		"rotation":[0,
		0,
		0,
		-1],
		"scale":[1,
		1,
		1],
		"children":[13,
		25,
		26]
	},
	{
		"name":"Belt",
		"translation":[10.818,
		-19.574,
		0],
		"rotation":[0,
		0,
		0,
		-1],
		"scale":[1,
		1,
		1],
		"children":[14,
		18,
		24]
	},
	{
		"name":"Single Shapes",
		"translation":[-8.664,
		2.098,
		0.646],
		"rotation":[0.707,
		0,
		0,
		-0.707],
		"scale":[1,
		1,
		1],
		"children":[15,
		16,
		17]
	},
	{
		"name":"Triangle.1",
		"translation":[11.766,
		-0.07,
		-0.027],
		"rotation":[-0.707,
		0,
		0,
		-0.707],
		"scale":[1,
		1,
		1],
		"mesh":8
	},
	{
		"name":"Hexagon.1",
		"translation":[0.036,
		-0.071,
		-0.027],
		"rotation":[-0.707,
		0,
		0,
		-0.707],
		"scale":[1,
		1,
		1],
		"mesh":9
	},
	{
		"name":"Rectangle.1",
		"translation":[-11.766,
		0.071,
		0.027],
		"rotation":[-0.707,
		0,
		0,
		-0.707],
		"scale":[1,
		1,
		1],
		"mesh":10
	},
	{
		"name":"Plate",
		"translation":[17.449,
		2.373,
		0],
		"rotation":[0,
		0,
		0,
		-1],
		"scale":[1,
		1,
		1],
		"children":[19,
		20,
		21,
		22,
		23]
	},
	{
		"name":"Triangle",
		"translation":[2.718,
		0.608,
		-3.314],
		"rotation":[0,
		0,
		0,
		-1],
		"scale":[1,
		1,
		1],
		"mesh":11
	},
	{
		"name":"Triangle.1",
		"translation":[-2.982,
		0.608,
		3.314],
		"rotation":[0,
		0,
		0,
		-1],
		"scale":[1,
		1,
		1],
		"mesh":12
	},
	{
		"name":"Hexagon.1",
		"translation":[2.982,
		0.699,
		2.264],
		"rotation":[0,
		0,
		0,
		-1],
		"scale":[1,
		1,
		1],
		"mesh":13
	},
	{
		"name":"Rectangle",
		"translation":[-2.784,
		0.672,
		-2.023],
		"rotation":[0,
		0,
		0,
		-1],
		"scale":[1,
		1,
		1],
		"mesh":14
	},
	{
		"name":"Rectangle-Base.1",
		"translation":[0.267,
		-0.699,
		0.498],
		"rotation":[0,
		0,
		0,
		-1],
		"scale":[1,
		1,
		1],
		"mesh":15
	},
	{
		"name":"Belt",
		"translation":[-1.722,
		-3.072,
		0.844],
		"rotation":[0,
		0,
		0,
		-1],
		"scale":[1,
		1,
		1],
		"mesh":16
	},
	{
		"name":"Logo",
		"translation":[-30.288,
		22.646,
		3.109],
		"rotation":[0,
		0,
		0,
		-1],
		"scale":[1,
		1,
		1],
		"mesh":17
	},
	{
		"name":"Block",
		"translation":[-31.248,
		-12.057,
		1.564],
		"rotation":[0,
		0,
		0,
		-1],
		"scale":[1,
		1,
		1],
		"mesh":18
	}],
	"meshes":[{
		"primitives":[{
			"attributes":{
				"POSITION":1,
				"NORMAL":2,
				"TEXCOORD_0":3
			},
			"indices":0,
			"material":0
		}]
	},
	{
		"primitives":[{
			"attributes":{
				"POSITION":5,
				"NORMAL":6,
				"TEXCOORD_0":7
			},
			"indices":4,
			"material":0
		}]
	},
	{
		"primitives":[{
			"attributes":{
				"POSITION":9,
				"NORMAL":10,
				"TEXCOORD_0":11
			},
			"indices":8,
			"material":1
		}]
	},
	{
		"primitives":[{
			"attributes":{
				"POSITION":13,
				"NORMAL":14,
				"TEXCOORD_0":15
			},
			"indices":12,
			"material":2
		}]
	},
	{
		"primitives":[{
			"attributes":{
				"POSITION":17,
				"NORMAL":18,
				"TEXCOORD_0":19
			},
			"indices":16,
			"material":3
		}]
	},
	{
		"primitives":[{
			"attributes":{
				"POSITION":21,
				"NORMAL":22,
				"TEXCOORD_0":23
			},
			"indices":20,
			"material":2
		}]
	},
	{
		"primitives":[{
			"attributes":{
				"POSITION":25,
				"NORMAL":26,
				"TEXCOORD_0":27
			},
			"indices":24,
			"material":4
		}]
	},
	{
		"primitives":[{
			"attributes":{
				"POSITION":29,
				"NORMAL":30,
				"TEXCOORD_0":31
			},
			"indices":28,
			"material":2
		}]
	},
	{
		"primitives":[{
			"attributes":{
				"POSITION":33,
				"NORMAL":34,
				"TEXCOORD_0":35
			},
			"indices":32,
			"material":5
		}]
	},
	{
		"primitives":[{
			"attributes":{
				"POSITION":37,
				"NORMAL":38,
				"TEXCOORD_0":39
			},
			"indices":36,
			"material":6
		}]
	},
	{
		"primitives":[{
			"attributes":{
				"POSITION":41,
				"NORMAL":42,
				"TEXCOORD_0":43
			},
			"indices":40,
			"material":7
		}]
	},
	{
		"primitives":[{
			"attributes":{
				"POSITION":45,
				"NORMAL":46,
				"TEXCOORD_0":47
			},
			"indices":44,
			"material":5
		}]
	},
	{
		"primitives":[{
			"attributes":{
				"POSITION":49,
				"NORMAL":50,
				"TEXCOORD_0":51
			},
			"indices":48,
			"material":5
		}]
	},
	{
		"primitives":[{
			"attributes":{
				"POSITION":53,
				"NORMAL":54,
				"TEXCOORD_0":55
			},
			"indices":52,
			"material":6
		}]
	},
	{
		"primitives":[{
			"attributes":{
				"POSITION":57,
				"NORMAL":58,
				"TEXCOORD_0":59
			},
			"indices":56,
			"material":7
		}]
	},
	{
		"primitives":[{
			"attributes":{
				"POSITION":61,
				"NORMAL":62,
				"TEXCOORD_0":63
			},
			"indices":60,
			"material":0
		}]
	},
	{
		"primitives":[{
			"attributes":{
				"POSITION":65,
				"NORMAL":66,
				"TEXCOORD_0":67
			},
			"indices":64,
			"material":2
		}]
	},
	{
		"primitives":[{
			"attributes":{
				"POSITION":69,
				"NORMAL":70,
				"TEXCOORD_0":71
			},
			"indices":68,
			"material":1
		}]
	},
	{
		"primitives":[{
			"attributes":{
				"POSITION":73,
				"NORMAL":74,
				"TEXCOORD_0":75
			},
			"indices":72,
			"material":0
		}]
	}],
	"accessors":[{
		"bufferView":0,
		"type":"SCALAR",
		"componentType":5123,
		"count":3888,
		"byteOffset":0,
		"min":[0],
		"max":[1319]
	},
	{
		"bufferView":1,
		"type":"VEC3",
		"componentType":5126,
		"count":1320,
		"byteOffset":0,
		"min":[-24.766,
		-0.81,
		-48.722],
		"max":[24.766,
		0.81,
		48.722]
	},
	{
		"bufferView":1,
		"type":"VEC3",
		"componentType":5126,
		"count":1320,
		"byteOffset":12,
		"min":[-1,
		-1,
		-1],
		"max":[1,
		1,
		1]
	},
	{
		"bufferView":1,
		"type":"VEC2",
		"componentType":5126,
		"count":1320,
		"byteOffset":24,
		"min":[0,
		0],
		"max":[1,
		1]
	},
	{
		"bufferView":2,
		"type":"SCALAR",
		"componentType":5123,
		"count":24600,
		"byteOffset":0,
		"min":[0],
		"max":[5562]
	},
	{
		"bufferView":3,
		"type":"VEC3",
		"componentType":5126,
		"count":5563,
		"byteOffset":0,
		"min":[-10.109,
		-3.646,
		-10.119],
		"max":[10.109,
		3.646,
		10.119]
	},
	{
		"bufferView":3,
		"type":"VEC3",
		"componentType":5126,
		"count":5563,
		"byteOffset":12,
		"min":[-1,
		-1,
		-1],
		"max":[1,
		1,
		1]
	},
	{
		"bufferView":3,
		"type":"VEC2",
		"componentType":5126,
		"count":5563,
		"byteOffset":24,
		"min":[0,
		0],
		"max":[1,
		1]
	},
	{
		"bufferView":4,
		"type":"SCALAR",
		"componentType":5123,
		"count":5832,
		"byteOffset":0,
		"min":[0],
		"max":[2015]
	},
	{
		"bufferView":5,
		"type":"VEC3",
		"componentType":5126,
		"count":2016,
		"byteOffset":0,
		"min":[-8.353,
		-5.68,
		-7.021],
		"max":[8.353,
		5.68,
		7.021]
	},
	{
		"bufferView":5,
		"type":"VEC3",
		"componentType":5126,
		"count":2016,
		"byteOffset":12,
		"min":[-1,
		-1,
		-1],
		"max":[1,
		1,
		1]
	},
	{
		"bufferView":5,
		"type":"VEC2",
		"componentType":5126,
		"count":2016,
		"byteOffset":24,
		"min":[0,
		0],
		"max":[1,
		1]
	},
	{
		"bufferView":6,
		"type":"SCALAR",
		"componentType":5123,
		"count":4740,
		"byteOffset":0,
		"min":[0],
		"max":[1036]
	},
	{
		"bufferView":7,
		"type":"VEC3",
		"componentType":5126,
		"count":1037,
		"byteOffset":0,
		"min":[-12.5,
		-2.5,
		-12.5],
		"max":[12.5,
		2.5,
		12.5]
	},
	{
		"bufferView":7,
		"type":"VEC3",
		"componentType":5126,
		"count":1037,
		"byteOffset":12,
		"min":[-1,
		-1,
		-1],
		"max":[1,
		1,
		1]
	},
	{
		"bufferView":7,
		"type":"VEC2",
		"componentType":5126,
		"count":1037,
		"byteOffset":24,
		"min":[0,
		0],
		"max":[1,
		1]
	},
	{
		"bufferView":8,
		"type":"SCALAR",
		"componentType":5123,
		"count":18024,
		"byteOffset":0,
		"min":[0],
		"max":[4381]
	},
	{
		"bufferView":9,
		"type":"VEC3",
		"componentType":5126,
		"count":4382,
		"byteOffset":0,
		"min":[-9.723,
		-1.71,
		-8.118],
		"max":[9.723,
		1.71,
		8.118]
	},
	{
		"bufferView":9,
		"type":"VEC3",
		"componentType":5126,
		"count":4382,
		"byteOffset":12,
		"min":[-1,
		-1,
		-1],
		"max":[1,
		1,
		1]
	},
	{
		"bufferView":9,
		"type":"VEC2",
		"componentType":5126,
		"count":4382,
		"byteOffset":24,
		"min":[0,
		0],
		"max":[1,
		1]
	},
	{
		"bufferView":10,
		"type":"SCALAR",
		"componentType":5123,
		"count":4740,
		"byteOffset":0,
		"min":[0],
		"max":[1036]
	},
	{
		"bufferView":11,
		"type":"VEC3",
		"componentType":5126,
		"count":1037,
		"byteOffset":0,
		"min":[-12.5,
		-2.5,
		-12.5],
		"max":[12.5,
		2.5,
		12.5]
	},
	{
		"bufferView":11,
		"type":"VEC3",
		"componentType":5126,
		"count":1037,
		"byteOffset":12,
		"min":[-1,
		-1,
		-1],
		"max":[1,
		1,
		1]
	},
	{
		"bufferView":11,
		"type":"VEC2",
		"componentType":5126,
		"count":1037,
		"byteOffset":24,
		"min":[0,
		0],
		"max":[1,
		1]
	},
	{
		"bufferView":12,
		"type":"SCALAR",
		"componentType":5123,
		"count":26880,
		"byteOffset":0,
		"min":[0],
		"max":[5887]
	},
	{
		"bufferView":13,
		"type":"VEC3",
		"componentType":5126,
		"count":5888,
		"byteOffset":0,
		"min":[-10.039,
		-6.485,
		-10.423],
		"max":[10.039,
		6.485,
		10.423]
	},
	{
		"bufferView":13,
		"type":"VEC3",
		"componentType":5126,
		"count":5888,
		"byteOffset":12,
		"min":[-1,
		-1,
		-1],
		"max":[1,
		1,
		1]
	},
	{
		"bufferView":13,
		"type":"VEC2",
		"componentType":5126,
		"count":5888,
		"byteOffset":24,
		"min":[0,
		0],
		"max":[1,
		1]
	},
	{
		"bufferView":14,
		"type":"SCALAR",
		"componentType":5123,
		"count":4740,
		"byteOffset":0,
		"min":[0],
		"max":[1036]
	},
	{
		"bufferView":15,
		"type":"VEC3",
		"componentType":5126,
		"count":1037,
		"byteOffset":0,
		"min":[-12.5,
		-2.5,
		-12.5],
		"max":[12.5,
		2.5,
		12.5]
	},
	{
		"bufferView":15,
		"type":"VEC3",
		"componentType":5126,
		"count":1037,
		"byteOffset":12,
		"min":[-1,
		-1,
		-1],
		"max":[1,
		1,
		1]
	},
	{
		"bufferView":15,
		"type":"VEC2",
		"componentType":5126,
		"count":1037,
		"byteOffset":24,
		"min":[0,
		0],
		"max":[1,
		1]
	},
	{
		"bufferView":16,
		"type":"SCALAR",
		"componentType":5123,
		"count":204,
		"byteOffset":0,
		"min":[0],
		"max":[77]
	},
	{
		"bufferView":17,
		"type":"VEC3",
		"componentType":5126,
		"count":78,
		"byteOffset":0,
		"min":[-4.05,
		-1.2,
		-4.677],
		"max":[4.05,
		1.2,
		4.677]
	},
	{
		"bufferView":17,
		"type":"VEC3",
		"componentType":5126,
		"count":78,
		"byteOffset":12,
		"min":[-1,
		-1,
		-0.866],
		"max":[0.5,
		1,
		0.866]
	},
	{
		"bufferView":17,
		"type":"VEC2",
		"componentType":5126,
		"count":78,
		"byteOffset":24,
		"min":[0,
		0],
		"max":[1,
		1]
	},
	{
		"bufferView":18,
		"type":"SCALAR",
		"componentType":5123,
		"count":420,
		"byteOffset":0,
		"min":[0],
		"max":[117]
	},
	{
		"bufferView":19,
		"type":"VEC3",
		"componentType":5126,
		"count":118,
		"byteOffset":0,
		"min":[-5.231,
		-1.2,
		-4.53],
		"max":[5.231,
		1.2,
		4.53]
	},
	{
		"bufferView":19,
		"type":"VEC3",
		"componentType":5126,
		"count":118,
		"byteOffset":12,
		"min":[-0.982,
		-1,
		-1],
		"max":[0.982,
		1,
		1]
	},
	{
		"bufferView":19,
		"type":"VEC2",
		"componentType":5126,
		"count":118,
		"byteOffset":24,
		"min":[0,
		0],
		"max":[1,
		1]
	},
	{
		"bufferView":20,
		"type":"SCALAR",
		"componentType":5123,
		"count":5172,
		"byteOffset":0,
		"min":[0],
		"max":[1280]
	},
	{
		"bufferView":21,
		"type":"VEC3",
		"componentType":5126,
		"count":1281,
		"byteOffset":0,
		"min":[-4.2,
		-1.2,
		-4.2],
		"max":[4.2,
		1.2,
		4.2]
	},
	{
		"bufferView":21,
		"type":"VEC3",
		"componentType":5126,
		"count":1281,
		"byteOffset":12,
		"min":[-1,
		-1,
		-1],
		"max":[1,
		1,
		1]
	},
	{
		"bufferView":21,
		"type":"VEC2",
		"componentType":5126,
		"count":1281,
		"byteOffset":24,
		"min":[0,
		0],
		"max":[1,
		1]
	},
	{
		"bufferView":22,
		"type":"SCALAR",
		"componentType":5123,
		"count":204,
		"byteOffset":0,
		"min":[0],
		"max":[77]
	},
	{
		"bufferView":23,
		"type":"VEC3",
		"componentType":5126,
		"count":78,
		"byteOffset":0,
		"min":[-1.868,
		-0.48,
		-1.67],
		"max":[1.868,
		0.48,
		1.67]
	},
	{
		"bufferView":23,
		"type":"VEC3",
		"componentType":5126,
		"count":78,
		"byteOffset":12,
		"min":[-0.836,
		-1,
		-0.998],
		"max":[0.893,
		1,
		0.548]
	},
	{
		"bufferView":23,
		"type":"VEC2",
		"componentType":5126,
		"count":78,
		"byteOffset":24,
		"min":[0,
		0],
		"max":[1,
		1]
	},
	{
		"bufferView":24,
		"type":"SCALAR",
		"componentType":5123,
		"count":204,
		"byteOffset":0,
		"min":[0],
		"max":[77]
	},
	{
		"bufferView":25,
		"type":"VEC3",
		"componentType":5126,
		"count":78,
		"byteOffset":0,
		"min":[-1.859,
		-0.48,
		-1.715],
		"max":[1.859,
		0.48,
		1.715]
	},
	{
		"bufferView":25,
		"type":"VEC3",
		"componentType":5126,
		"count":78,
		"byteOffset":12,
		"min":[-0.917,
		-1,
		-0.594],
		"max":[0.804,
		1,
		0.994]
	},
	{
		"bufferView":25,
		"type":"VEC2",
		"componentType":5126,
		"count":78,
		"byteOffset":24,
		"min":[0,
		0],
		"max":[1,
		1]
	},
	{
		"bufferView":26,
		"type":"SCALAR",
		"componentType":5123,
		"count":420,
		"byteOffset":0,
		"min":[0],
		"max":[115]
	},
	{
		"bufferView":27,
		"type":"VEC3",
		"componentType":5126,
		"count":116,
		"byteOffset":0,
		"min":[-3.137,
		-0.756,
		-3.222],
		"max":[3.137,
		0.756,
		3.222]
	},
	{
		"bufferView":27,
		"type":"VEC3",
		"componentType":5126,
		"count":116,
		"byteOffset":12,
		"min":[-0.978,
		-1,
		-1],
		"max":[0.978,
		1,
		1]
	},
	{
		"bufferView":27,
		"type":"VEC2",
		"componentType":5126,
		"count":116,
		"byteOffset":24,
		"min":[0,
		0],
		"max":[1,
		1]
	},
	{
		"bufferView":28,
		"type":"SCALAR",
		"componentType":5123,
		"count":5172,
		"byteOffset":0,
		"min":[0],
		"max":[1280]
	},
	{
		"bufferView":29,
		"type":"VEC3",
		"componentType":5126,
		"count":1281,
		"byteOffset":0,
		"min":[-2.939,
		-0.72,
		-2.939],
		"max":[2.939,
		0.72,
		2.939]
	},
	{
		"bufferView":29,
		"type":"VEC3",
		"componentType":5126,
		"count":1281,
		"byteOffset":12,
		"min":[-1,
		-1,
		-1],
		"max":[1,
		1,
		1]
	},
	{
		"bufferView":29,
		"type":"VEC2",
		"componentType":5126,
		"count":1281,
		"byteOffset":24,
		"min":[0,
		0],
		"max":[1,
		1]
	},
	{
		"bufferView":30,
		"type":"SCALAR",
		"componentType":5123,
		"count":5172,
		"byteOffset":0,
		"min":[0],
		"max":[1277]
	},
	{
		"bufferView":31,
		"type":"VEC3",
		"componentType":5126,
		"count":1278,
		"byteOffset":0,
		"min":[-6.72,
		-0.82,
		-6.72],
		"max":[6.72,
		0.82,
		6.72]
	},
	{
		"bufferView":31,
		"type":"VEC3",
		"componentType":5126,
		"count":1278,
		"byteOffset":12,
		"min":[-1,
		-1,
		-1],
		"max":[1,
		1,
		1]
	},
	{
		"bufferView":31,
		"type":"VEC2",
		"componentType":5126,
		"count":1278,
		"byteOffset":24,
		"min":[0,
		0],
		"max":[1,
		1]
	},
	{
		"bufferView":32,
		"type":"SCALAR",
		"componentType":5123,
		"count":3840,
		"byteOffset":0,
		"min":[0],
		"max":[1307]
	},
	{
		"bufferView":33,
		"type":"VEC3",
		"componentType":5126,
		"count":1308,
		"byteOffset":0,
		"min":[-30.501,
		-3.5,
		-7.5],
		"max":[30.501,
		3.5,
		7.5]
	},
	{
		"bufferView":33,
		"type":"VEC3",
		"componentType":5126,
		"count":1308,
		"byteOffset":12,
		"min":[-1,
		-1,
		-1],
		"max":[1,
		1,
		1]
	},
	{
		"bufferView":33,
		"type":"VEC2",
		"componentType":5126,
		"count":1308,
		"byteOffset":24,
		"min":[0,
		0],
		"max":[1,
		1]
	},
	{
		"bufferView":34,
		"type":"SCALAR",
		"componentType":5123,
		"count":1944,
		"byteOffset":0,
		"min":[0],
		"max":[671]
	},
	{
		"bufferView":35,
		"type":"VEC3",
		"componentType":5126,
		"count":672,
		"byteOffset":0,
		"min":[-11.448,
		-11.448,
		-0.756],
		"max":[11.448,
		11.448,
		0.756]
	},
	{
		"bufferView":35,
		"type":"VEC3",
		"componentType":5126,
		"count":672,
		"byteOffset":12,
		"min":[-1,
		-1,
		-1],
		"max":[1,
		1,
		1]
	},
	{
		"bufferView":35,
		"type":"VEC2",
		"componentType":5126,
		"count":672,
		"byteOffset":24,
		"min":[0,
		0],
		"max":[1,
		1]
	},
	{
		"bufferView":36,
		"type":"SCALAR",
		"componentType":5123,
		"count":18276,
		"byteOffset":0,
		"min":[0],
		"max":[4096]
	},
	{
		"bufferView":37,
		"type":"VEC3",
		"componentType":5126,
		"count":4097,
		"byteOffset":0,
		"min":[-20.5,
		-15.5,
		-20.5],
		"max":[20.5,
		15.5,
		20.5]
	},
	{
		"bufferView":37,
		"type":"VEC3",
		"componentType":5126,
		"count":4097,
		"byteOffset":12,
		"min":[-1,
		-1,
		-1],
		"max":[1,
		1,
		1]
	},
	{
		"bufferView":37,
		"type":"VEC2",
		"componentType":5126,
		"count":4097,
		"byteOffset":24,
		"min":[0,
		0],
		"max":[1,
		1]
	}],
	"bufferViews":[{
		"buffer":0,
		"byteOffset":0,
		"byteLength":7776,
		"target":34963
	},
	{
		"buffer":0,
		"byteOffset":7776,
		"byteLength":42240,
		"target":34962,
		"byteStride":32
	},
	{
		"buffer":1,
		"byteOffset":0,
		"byteLength":49200,
		"target":34963
	},
	{
		"buffer":1,
		"byteOffset":49200,
		"byteLength":178016,
		"target":34962,
		"byteStride":32
	},
	{
		"buffer":2,
		"byteOffset":0,
		"byteLength":11664,
		"target":34963
	},
	{
		"buffer":2,
		"byteOffset":11664,
		"byteLength":64512,
		"target":34962,
		"byteStride":32
	},
	{
		"buffer":3,
		"byteOffset":0,
		"byteLength":9480,
		"target":34963
	},
	{
		"buffer":3,
		"byteOffset":9480,
		"byteLength":33184,
		"target":34962,
		"byteStride":32
	},
	{
		"buffer":4,
		"byteOffset":0,
		"byteLength":36048,
		"target":34963
	},
	{
		"buffer":4,
		"byteOffset":36048,
		"byteLength":140224,
		"target":34962,
		"byteStride":32
	},
	{
		"buffer":5,
		"byteOffset":0,
		"byteLength":9480,
		"target":34963
	},
	{
		"buffer":5,
		"byteOffset":9480,
		"byteLength":33184,
		"target":34962,
		"byteStride":32
	},
	{
		"buffer":6,
		"byteOffset":0,
		"byteLength":53760,
		"target":34963
	},
	{
		"buffer":6,
		"byteOffset":53760,
		"byteLength":188416,
		"target":34962,
		"byteStride":32
	},
	{
		"buffer":7,
		"byteOffset":0,
		"byteLength":9480,
		"target":34963
	},
	{
		"buffer":7,
		"byteOffset":9480,
		"byteLength":33184,
		"target":34962,
		"byteStride":32
	},
	{
		"buffer":8,
		"byteOffset":0,
		"byteLength":408,
		"target":34963
	},
	{
		"buffer":8,
		"byteOffset":408,
		"byteLength":2496,
		"target":34962,
		"byteStride":32
	},
	{
		"buffer":9,
		"byteOffset":0,
		"byteLength":840,
		"target":34963
	},
	{
		"buffer":9,
		"byteOffset":840,
		"byteLength":3776,
		"target":34962,
		"byteStride":32
	},
	{
		"buffer":10,
		"byteOffset":0,
		"byteLength":10344,
		"target":34963
	},
	{
		"buffer":10,
		"byteOffset":10344,
		"byteLength":40992,
		"target":34962,
		"byteStride":32
	},
	{
		"buffer":11,
		"byteOffset":0,
		"byteLength":408,
		"target":34963
	},
	{
		"buffer":11,
		"byteOffset":408,
		"byteLength":2496,
		"target":34962,
		"byteStride":32
	},
	{
		"buffer":12,
		"byteOffset":0,
		"byteLength":408,
		"target":34963
	},
	{
		"buffer":12,
		"byteOffset":408,
		"byteLength":2496,
		"target":34962,
		"byteStride":32
	},
	{
		"buffer":13,
		"byteOffset":0,
		"byteLength":840,
		"target":34963
	},
	{
		"buffer":13,
		"byteOffset":840,
		"byteLength":3712,
		"target":34962,
		"byteStride":32
	},
	{
		"buffer":14,
		"byteOffset":0,
		"byteLength":10344,
		"target":34963
	},
	{
		"buffer":14,
		"byteOffset":10344,
		"byteLength":40992,
		"target":34962,
		"byteStride":32
	},
	{
		"buffer":15,
		"byteOffset":0,
		"byteLength":10344,
		"target":34963
	},
	{
		"buffer":15,
		"byteOffset":10344,
		"byteLength":40896,
		"target":34962,
		"byteStride":32
	},
	{
		"buffer":16,
		"byteOffset":0,
		"byteLength":7680,
		"target":34963
	},
	{
		"buffer":16,
		"byteOffset":7680,
		"byteLength":41856,
		"target":34962,
		"byteStride":32
	},
	{
		"buffer":17,
		"byteOffset":0,
		"byteLength":3888,
		"target":34963
	},
	{
		"buffer":17,
		"byteOffset":3888,
		"byteLength":21504,
		"target":34962,
		"byteStride":32
	},
	{
		"buffer":18,
		"byteOffset":0,
		"byteLength":36552,
		"target":34963
	},
	{
		"buffer":18,
		"byteOffset":36552,
		"byteLength":131104,
		"target":34962,
		"byteStride":32
	}],
	"buffers":[{
		"uri":"data:application/octet-stream;base64,",
		"byteLength":50016
	},
	{
		"uri":"data:application/octet-stream;base64,",
		"byteLength":227216
	},
	{
		"uri":"data:application/octet-stream;base64,",
		"byteLength":76176
	},
	{
		"uri":"data:application/octet-stream;base64,",
		"byteLength":42664
	},
	{
		"uri":"data:application/octet-stream;base64,",
		"byteLength":176272
	},
	{
		"uri":"data:application/octet-stream;base64,",
		"byteLength":42664
	},
	{
		"uri":"data:application/octet-stream;base64,",
		"byteLength":242176
	},
	{
		"uri":"data:application/octet-stream;base64,",
		"byteLength":42664
	},
	{
		"uri":"data:application/octet-stream;base64,",
		"byteLength":2904
	},
	{
		"uri":"data:application/octet-stream;base64,",
		"byteLength":4616
	},
	{
		"uri":"data:application/octet-stream;base64,",
		"byteLength":51336
	},
	{
		"uri":"data:application/octet-stream;base64,",
		"byteLength":2904
	},
	{
		"uri":"data:application/octet-stream;base64,",
		"byteLength":2904
	},
	{
		"uri":"data:application/octet-stream;base64,",
		"byteLength":4552
	},
	{
		"uri":"data:application/octet-stream;base64,",
		"byteLength":51336
	},
	{
		"uri":"data:application/octet-stream;base64,",
		"byteLength":51240
	},
	{
		"uri":"data:application/octet-stream;base64,",
		"byteLength":49536
	},
	{
		"uri":"data:application/octet-stream;base64,",
		"byteLength":25392
	},
	{
		"uri":"data:application/octet-stream;base64,",
		"byteLength":167656
	}],
	"materials":[{
		"pbrMetallicRoughness":{
			"baseColorFactor":[0.162,
			0.147,
			0.183,
			1],
			"metallicFactor":0,
			"roughnessFactor":0.5
		},
		"emissiveFactor":[0,
		0,
		0],
		"alphaMode":"OPAQUE",
		"doubleSided":false,
		"name":"Gray"
	},
	{
		"pbrMetallicRoughness":{
			"baseColorFactor":[0.4,
			0.2,
			0.6,
			1],
			"metallicFactor":0,
			"roughnessFactor":0.5
		},
		"emissiveFactor":[0,
		0,
		0],
		"alphaMode":"OPAQUE",
		"doubleSided":false,
		"name":"Gatsby"
	},
	{
		"pbrMetallicRoughness":{
			"baseColorFactor":[0.284,
			0.261,
			0.334,
			1],
			"metallicFactor":0,
			"roughnessFactor":0.5
		},
		"emissiveFactor":[0,
		0,
		0],
		"alphaMode":"OPAQUE",
		"doubleSided":false,
		"name":"Plurble"
	},
	{
		"pbrMetallicRoughness":{
			"baseColorFactor":[0.216,
			0.714,
			0.208,
			1],
			"metallicFactor":0,
			"roughnessFactor":0.5
		},
		"emissiveFactor":[0,
		0,
		0],
		"alphaMode":"OPAQUE",
		"doubleSided":false,
		"name":"Green"
	},
	{
		"pbrMetallicRoughness":{
			"baseColorFactor":[1,
			0.698,
			0.22,
			1],
			"metallicFactor":0,
			"roughnessFactor":0.5
		},
		"emissiveFactor":[0,
		0,
		0],
		"alphaMode":"OPAQUE",
		"doubleSided":false,
		"name":"Orange"
	},
	{
		"pbrMetallicRoughness":{
			"baseColorFactor":[0.737,
			0.008,
			0.498,
			1],
			"metallicFactor":0,
			"roughnessFactor":0.5
		},
		"emissiveFactor":[0,
		0,
		0],
		"alphaMode":"OPAQUE",
		"doubleSided":false,
		"name":"Magenta"
	},
	{
		"pbrMetallicRoughness":{
			"baseColorFactor":[0.98,
			0.161,
			0.082,
			1],
			"metallicFactor":0,
			"roughnessFactor":0.5
		},
		"emissiveFactor":[0,
		0,
		0],
		"alphaMode":"OPAQUE",
		"doubleSided":false,
		"name":"Red"
	},
	{
		"pbrMetallicRoughness":{
			"baseColorFactor":[0.051,
			0.588,
			0.949,
			1],
			"metallicFactor":0,
			"roughnessFactor":0.5
		},
		"emissiveFactor":[0,
		0,
		0],
		"alphaMode":"OPAQUE",
		"doubleSided":false,
		"name":"Blue"
	}]
}