<svg xmlns="http://www.w3.org/2000/svg" xmlns:xlink="http://www.w3.org/1999/xlink" viewBox="0 0 3838.08 854"><defs><style>.cls-1{fill:none}.cls-2{fill:#172b4d}.cls-3{clip-path:url(#clip-path)}.cls-4{opacity:.6}.cls-5{fill:url(#linear-gradient)}.cls-6{fill:#57d9a3;opacity:.9}.cls-7{fill:url(#linear-gradient-2)}.cls-8{fill:url(#linear-gradient-3)}.cls-9{fill:url(#linear-gradient-4)}.cls-10{fill:url(#linear-gradient-5)}.cls-11{fill:url(#linear-gradient-6)}.cls-12{fill:url(#linear-gradient-7)}.cls-13{fill:url(#linear-gradient-8)}.cls-14{fill:url(#linear-gradient-9)}.cls-15{fill:url(#linear-gradient-10)}.cls-16{fill:url(#linear-gradient-11)}.cls-17{fill:url(#linear-gradient-12)}.cls-18{fill:url(#linear-gradient-13)}.cls-19{fill:url(#linear-gradient-14)}.cls-20{fill:url(#linear-gradient-15)}.cls-21{fill:url(#linear-gradient-16)}</style><clipPath id="clip-path"><rect id="_Rectangle_" width="3840" height="854" y="1.67" class="cls-1" data-name="&lt;Rectangle&gt;" transform="translate(-0.67 3.02) rotate(-0.09)"/></clipPath><linearGradient id="linear-gradient" x1="3862.7" x2="3814.8" y1="658.67" y2="466.55" gradientTransform="matrix(-1, 0, 0, 1, 4451.12, -3.99)" gradientUnits="userSpaceOnUse"><stop offset="0" stop-color="#36b37e" stop-opacity="0"/><stop offset="1" stop-color="#36b37e"/></linearGradient><linearGradient id="linear-gradient-2" x1="2826.2" x2="2778.3" y1="607.81" y2="415.7" xlink:href="#linear-gradient"/><linearGradient id="linear-gradient-3" x1="1164.21" x2="1116.31" y1="658.67" y2="466.55" xlink:href="#linear-gradient"/><linearGradient id="linear-gradient-4" x1="2202.56" x2="2154.66" y1="556.96" y2="364.84" xlink:href="#linear-gradient"/><linearGradient id="linear-gradient-5" x1="2434.13" x2="2339.37" y1="496.85" y2="116.81" xlink:href="#linear-gradient"/><linearGradient id="linear-gradient-6" x1="1164.21" x2="1116.31" y1="759.98" y2="567.86" xlink:href="#linear-gradient"/><linearGradient id="linear-gradient-7" x1="2826.2" x2="2778.3" y1="709.12" y2="517.01" xlink:href="#linear-gradient"/><linearGradient id="linear-gradient-8" x1="2424.08" x2="2349.42" y1="819.79" y2="520.34" xlink:href="#linear-gradient"/><linearGradient id="linear-gradient-9" x1="955.68" x2="907.78" y1="405.19" y2="213.07" xlink:href="#linear-gradient"/><linearGradient id="linear-gradient-10" x1="1592.1" x2="1517.05" y1="872.26" y2="571.24" xlink:href="#linear-gradient"/><linearGradient id="linear-gradient-11" x1="3241.3" x2="3193.4" y1="601.69" y2="409.58" xlink:href="#linear-gradient"/><linearGradient id="linear-gradient-12" x1="3033.94" x2="2986.04" y1="1069.04" y2="876.92" xlink:href="#linear-gradient"/><linearGradient id="linear-gradient-13" x1="3033.94" x2="2986.04" y1="967.73" y2="775.61" xlink:href="#linear-gradient"/><linearGradient id="linear-gradient-14" x1="3880.48" x2="3797.03" y1="907.01" y2="572.29" xlink:href="#linear-gradient"/><linearGradient id="linear-gradient-15" x1="3664.92" x2="3595.51" y1="364.21" y2="85.81" xlink:href="#linear-gradient"/><linearGradient id="linear-gradient-16" x1="4289.56" x2="4216.57" y1="559.69" y2="266.96" xlink:href="#linear-gradient"/><clipPath id="clip-path-2"><rect width="3840" height="855.11" x="4221.31" y="1092.73" class="cls-1"/></clipPath></defs><title>Artboard 1 copy 4</title><g id="BG"><rect width="3840" height="854" class="cls-2"/></g><g id="Layer_3" data-name="Layer 3"><g class="cls-3"><g class="cls-4"><polygon points="509.3 640.9 717.52 691.43 717.2 488.41 508.98 437.89 509.3 640.9" class="cls-5"/><polygon points="717.24 386.99 509.65 438.03 717.4 488.41 924.99 437.37 717.24 386.99" class="cls-6"/><polygon points="1545.73 588.42 1753.95 638.95 1753.63 435.93 1545.41 385.4 1545.73 588.42" class="cls-7"/><polygon points="1753.67 334.11 1546.08 385.15 1753.83 435.53 1961.41 384.49 1753.67 334.11" class="cls-6"/><polygon points="3207.79 636.66 3416.01 687.18 3415.7 484.16 3207.47 433.64 3207.79 636.66" class="cls-8"/><polygon points="3415.73 382.74 3208.14 433.78 3415.89 484.16 3623.48 433.12 3415.73 382.74" class="cls-6"/><polygon points="2169.29 536.59 2377.51 587.11 2377.19 384.09 2168.97 333.57 2169.29 536.59" class="cls-9"/><polygon points="2376.04 282.67 2168.46 333.71 2376.2 384.1 2583.79 333.05 2376.04 282.67" class="cls-6"/><polygon points="1961.06 482.64 2169.28 533.17 2168.65 130.55 1960.42 80.03 1961.06 482.64" class="cls-10"/><polygon points="2168.68 29.12 1961.1 80.16 2168.84 130.55 2376.43 79.51 2168.68 29.12" class="cls-6"/><polygon points="3207.95 737.97 3416.17 788.49 3415.86 585.48 3207.63 534.95 3207.95 737.97" class="cls-11"/><polygon points="3415.89 484.05 3208.3 535.09 3416.05 585.48 3623.64 534.43 3415.89 484.05" class="cls-6"/><polygon points="3623.56 433.26 3415.97 484.3 3623.72 534.69 3831.31 483.65 3623.56 433.26" class="cls-6"/><polygon points="1753.04 435.81 1545.45 486.85 1753.2 537.24 1960.79 486.2 1753.04 435.81" class="cls-6"/><polygon points="1545.89 689.73 1754.11 740.26 1753.79 537.24 1545.57 486.71 1545.89 689.73" class="cls-12"/><polygon points="2168.54 435.16 1960.95 486.2 2168.7 536.59 2376.28 485.55 2168.54 435.16" class="cls-6"/><polygon points="2376.2 383.98 2168.62 435.02 2376.36 485.41 2583.95 434.37 2376.2 383.98" class="cls-6"/><polygon points="1961.56 803.08 2169.79 853.61 2169.29 536.59 1961.07 486.06 1961.56 803.08" class="cls-13"/><polygon points="3623.87 128.93 3416.28 179.97 3624.03 230.36 3831.62 179.32 3623.87 128.93" class="cls-6"/><polygon points="3415.93 382.85 3624.15 433.38 3623.83 230.36 3415.61 179.84 3415.93 382.85" class="cls-14"/><polygon points="3001.58 484.7 2793.99 535.74 3001.74 586.13 3209.33 535.09 3001.58 484.7" class="cls-6"/><polygon points="2793.82 854.29 3002.04 904.82 3001.54 586.13 2793.32 535.6 2793.82 854.29" class="cls-15"/><polygon points="1337.77 329.04 1130.18 380.08 1337.93 430.46 1545.52 379.42 1337.77 329.04" class="cls-6"/><polygon points="1130.62 582.95 1338.84 633.48 1338.52 430.46 1130.3 379.94 1130.62 582.95" class="cls-16"/><polygon points="1338.71 1049.97 1546.93 1100.5 1546.61 897.48 1338.39 846.95 1338.71 1049.97" class="cls-17"/><polygon points="1338.55 948.66 1546.77 999.18 1546.45 796.17 1338.23 745.64 1338.55 948.66" class="cls-18"/><polygon points="1546.65 796.05 1339.06 847.09 1546.81 897.48 1754.39 846.44 1546.65 796.05" class="cls-6"/><polygon points="1546.49 694.74 1338.9 745.78 1546.65 796.17 1754.23 745.13 1546.49 694.74" class="cls-6"/><polygon points="1754.32 745.27 1546.73 796.31 1754.47 846.69 1962.06 795.65 1754.32 745.27" class="cls-6"/><polygon points="-113.52 32.72 -321.11 83.76 -113.36 134.14 94.22 83.1 -113.52 32.72" class="cls-6"/><polygon points="-113.68 -68.59 -321.27 -17.55 -113.52 32.83 94.06 -18.21 -113.68 -68.59" class="cls-6"/><polygon points="94.15 -18.07 -113.44 32.97 94.31 83.36 301.89 32.32 94.15 -18.07" class="cls-6"/><polygon points="509.7 893.68 717.92 944.2 717.36 589.73 509.14 539.2 509.7 893.68" class="cls-19"/><polygon points="717.4 488.3 509.81 539.34 717.56 589.72 925.15 538.68 717.4 488.3" class="cls-6"/><polygon points="925.07 437.51 717.48 488.55 925.23 538.94 1132.82 487.9 925.07 437.51" class="cls-6"/><polygon points="925.17 3.23 717.59 54.27 925.33 104.66 1132.92 53.62 925.17 3.23" class="cls-6"/><polygon points="717.38 348.81 925.6 399.33 925.14 104.66 716.91 54.13 717.38 348.81" class="cls-20"/><polygon points="302.61 184.93 95.02 235.97 302.77 286.36 510.36 235.31 302.61 184.93" class="cls-6"/><polygon points="94.84 545.7 303.06 596.23 302.57 286.36 94.35 235.83 94.84 545.7" class="cls-21"/></g></g></g></svg>