<svg width="740" height="519" xmlns="http://www.w3.org/2000/svg" xmlns:xlink="http://www.w3.org/1999/xlink"><defs><path d="M49.808 1.392L5.325 27.147C1.76 29.19-.309 33.179.038 37.346v17.17c-.302 4.219 1.847 8.226 5.489 10.233l44.482 24.895a10.284 10.284 0 0010.147 0L103.8 64.75c3.587-2.047 5.676-6.046 5.347-10.234v-17.17c.31-4.147-1.75-8.105-5.288-10.156L60.215 1.435A10.302 10.302 0 0054.975 0a10.3 10.3 0 00-5.167 1.392zm3.525 63.855L8.85 39.492a3.39 3.39 0 01-1.312-1.343c-.898-1.66-.31-3.748 1.312-4.667L53.333 7.727a3.294 3.294 0 013.357 0l43.643 25.815c1.606.949 2.156 3.049 1.23 4.692-.927 1.643-2.98 2.206-4.587 1.258L54.994 14.69l-37.65 21.797 39.295 22.75c1.623.934 2.198 3.037 1.285 4.695a3.356 3.356 0 01-2.94 1.76c-.56 0-1.128-.145-1.651-.445zm.067 18.028L8.917 58.38a3.219 3.219 0 01-.37-.208c-1.567-1.016-2.032-3.138-1.039-4.74.991-1.6 3.067-2.077 4.632-1.062l42.854 23.978L97.018 52.37c1.622-.924 3.67-.329 4.574 1.33.904 1.661.321 3.755-1.301 4.68L56.648 83.275a3.293 3.293 0 01-3.248 0z" id="a"/><path d="M49.808 1.392L5.325 27.147C1.76 29.19-.309 33.179.038 37.346v17.17c-.302 4.219 1.847 8.226 5.489 10.233l44.482 24.895a10.284 10.284 0 0010.147 0L103.8 64.75c3.587-2.047 5.676-6.046 5.347-10.234v-17.17c.31-4.147-1.75-8.105-5.288-10.156L60.215 1.435A10.302 10.302 0 0054.975 0a10.3 10.3 0 00-5.167 1.392zm3.525 63.855L8.85 39.492a3.39 3.39 0 01-1.312-1.343c-.898-1.66-.31-3.748 1.312-4.667L53.333 7.727a3.294 3.294 0 013.357 0l43.643 25.815c1.606.949 2.156 3.049 1.23 4.692-.927 1.643-2.98 2.206-4.587 1.258L54.994 14.69l-37.65 21.797 39.295 22.75c1.623.934 2.198 3.037 1.285 4.695a3.356 3.356 0 01-2.94 1.76c-.56 0-1.128-.145-1.651-.445zm.067 18.028L8.917 58.38a3.219 3.219 0 01-.37-.208c-1.567-1.016-2.032-3.138-1.039-4.74.991-1.6 3.067-2.077 4.632-1.062l42.854 23.978L97.018 52.37c1.622-.924 3.67-.329 4.574 1.33.904 1.661.321 3.755-1.301 4.68L56.648 83.275a3.293 3.293 0 01-3.248 0z" id="c"/></defs><g fill="none" fill-rule="evenodd"><g transform="translate(329 52)"><rect stroke="#207BEA" stroke-width="1.98" fill="#FFF" fill-rule="nonzero" width="409.86" height="465.3" rx="5.94"/><path d="M0 7.171C0 3.4 3.063.342 6.814.342h396.232c3.763 0 6.814 3.051 6.814 6.83v21.682H0V7.171z" fill="#207BEA" fill-rule="nonzero"/><g transform="translate(10.087 9.491)" fill="#FFF" fill-rule="nonzero"><circle cx="4.752" cy="4.752" r="4.752"/><circle cx="19.008" cy="4.752" r="4.752"/><circle cx="33.264" cy="4.752" r="4.752"/></g><rect fill="#EFF3F5" fill-rule="nonzero" x="23" y="78" width="366.778" height="182.021" rx="5.94"/><g transform="translate(151 124)"><mask id="b" fill="#fff"><use xlink:href="#a"/></mask><path fill="#207BEA" fill-rule="nonzero" mask="url(#b)" d="M-2.022 93.005h113.223V-2.022H-2.022z"/></g><g transform="translate(21.78 281.16)" fill="#EEF2F4" fill-rule="nonzero"><rect x="1.98" y="1.98" width="100.044" height="95.04" rx="5.94"/><rect x="116.82" width="138.6" height="9.9" rx="4.95"/><rect opacity=".76" x="116.82" y="21.78" width="53.46" height="9.9" rx="4.95"/><rect x="116.82" y="43.56" width="237.6" height="9.9" rx="4.95"/><rect x="116.82" y="65.34" width="227.7" height="9.9" rx="4.95"/><rect x="116.82" y="87.12" width="245.52" height="9.9" rx="4.95"/><rect y="108.9" width="368.28" height="9.9" rx="4.95"/><rect y="128.7" width="368.28" height="9.9" rx="4.95"/><rect y="150.48" width="237.6" height="9.9" rx="4.95"/></g></g><g transform="translate(1 1)"><rect stroke="#207BEA" stroke-width="1.98" fill="#FFF" fill-rule="nonzero" width="409.86" height="465.3" rx="5.94"/><path d="M0 7.171C0 3.4 3.063.342 6.814.342h396.232c3.763 0 6.814 3.051 6.814 6.83v21.682H0V7.171z" fill="#207BEA" fill-rule="nonzero"/><g transform="translate(10.087 9.491)" fill="#FFF" fill-rule="nonzero"><circle cx="4.752" cy="4.752" r="4.752"/><circle cx="19.008" cy="4.752" r="4.752"/><circle cx="33.264" cy="4.752" r="4.752"/></g><rect fill="#EFF3F5" fill-rule="nonzero" x="23" y="78" width="366.778" height="182.021" rx="5.94"/><rect fill="#EFF3F5" fill-rule="nonzero" x="22.81" y="49.896" width="78.408" height="11.405" rx="4.752"/><g transform="translate(151 124)"><mask id="d" fill="#fff"><use xlink:href="#c"/></mask><path fill="#207BEA" fill-rule="nonzero" mask="url(#d)" d="M-2.022 93.005h113.223V-2.022H-2.022z"/></g><g transform="translate(21.78 281.16)" fill="#EEF2F4" fill-rule="nonzero"><rect x="1.98" y="1.98" width="100.044" height="95.04" rx="5.94"/><rect x="116.82" width="138.6" height="9.9" rx="4.95"/><rect opacity=".76" x="116.82" y="21.78" width="53.46" height="9.9" rx="4.95"/><rect x="116.82" y="43.56" width="237.6" height="9.9" rx="4.95"/><rect x="116.82" y="65.34" width="227.7" height="9.9" rx="4.95"/><rect x="116.82" y="87.12" width="245.52" height="9.9" rx="4.95"/><rect y="108.9" width="368.28" height="9.9" rx="4.95"/><rect y="128.7" width="368.28" height="9.9" rx="4.95"/><rect y="150.48" width="237.6" height="9.9" rx="4.95"/></g></g></g></svg>