<?xml version="1.0" encoding="UTF-8"?>
<svg width="741px" height="490px" viewBox="0 0 741 490" version="1.1" xmlns="http://www.w3.org/2000/svg" xmlns:xlink="http://www.w3.org/1999/xlink">
    <title>hero</title>
    <defs>
        <path d="M62.2595454,1.73953123 L6.65650032,33.9332 C2.19881467,36.4883042 -0.386202376,41.4740305 0.0470817298,46.6818927 L0.0470817298,46.6818927 L0.0470817298,68.1443388 C-0.33059933,73.4187348 2.35618178,78.42807 6.90828768,80.9359566 L6.90828768,80.9359566 L62.511333,112.05543 C66.4581,114.286451 71.2494036,114.286451 75.1951218,112.05543 L75.1951218,112.05543 L129.749053,80.9359566 C134.231917,78.3776328 136.844211,73.3790292 136.43191,68.1443388 L136.43191,68.1443388 L136.43191,46.6818927 C136.820082,41.4976391 134.244506,36.5505453 129.822491,33.9868561 L129.822491,33.9868561 L75.2685594,1.79318735 C73.2427206,0.597729114 70.9797816,0 68.717892,0 L68.717892,0 C66.4906224,0 64.2633534,0.579486037 62.2595454,1.73953123 L62.2595454,1.73953123 Z M66.6658242,81.5583678 L11.0627794,49.3646984 C10.3724623,48.9740819 9.8038425,48.3924496 9.4230141,47.6863354 L9.4230141,47.6863354 C8.30046204,45.61199 9.03484188,43.0010835 11.0627794,41.8528426 L11.0627794,41.8528426 L66.6658242,9.6591738 C67.964628,8.89296444 69.5634774,8.89296444 70.8622806,9.6591738 L70.8622806,9.6591738 L125.416212,41.9279609 C127.423167,43.1137612 128.111386,45.7386184 126.953164,47.7925746 L126.953164,47.7925746 C125.794942,49.8465304 123.22776,50.5504987 121.219756,49.3646984 L121.219756,49.3646984 L68.7430704,18.3621956 L21.6798136,45.6087706 L70.799334,74.0465112 C72.8272716,75.2140686 73.5459144,77.8421448 72.4044786,79.9154172 L72.4044786,79.9154172 C71.6302326,81.3233538 70.2013386,82.114245 68.7294318,82.114245 L68.7294318,82.114245 C68.0296728,82.114245 67.3194228,81.93396 66.6658242,81.5583678 L66.6658242,81.5583678 Z M66.749754,104.093935 L11.1467085,72.973389 C10.9872431,72.8971974 10.8309251,72.8102742 10.6830001,72.7136934 L10.6830001,72.7136934 C8.72535324,71.44419 8.14414404,68.7914316 9.38524596,66.7889856 L9.38524596,66.7889856 C10.6242497,64.7876124 13.2187088,64.192029 15.1753064,65.461533 L15.1753064,65.461533 L68.7430704,95.4338388 L121.272211,65.461533 C123.300149,64.30578 125.859987,65.050527 126.989883,67.1248728 L126.989883,67.1248728 C128.119779,69.2002914 127.391693,71.8176366 125.363756,72.973389 L125.363756,72.973389 L70.809825,104.093935 C70.1782584,104.451286 69.4784994,104.629423 68.7797892,104.629423 L68.7797892,104.629423 C68.0800302,104.629423 67.3813206,104.451286 66.749754,104.093935 L66.749754,104.093935 Z" id="path-1"></path>
    </defs>
    <g id="Page-1" stroke="none" stroke-width="1" fill="none" fill-rule="evenodd">
        <g id="browser" transform="translate(1.000000, 1.000000)">
            <rect id="Rectangle" stroke="#207BEA" stroke-width="1.909" fill="#FFFFFF" fill-rule="nonzero" x="0" y="0" width="738.108" height="487.83" rx="5.727"></rect>
            <path d="M0,31.815 L0,7.62 C0,3.412 2.954,0 6.57,0 L731.23,0 C734.858,0 737.8,3.405 737.8,7.62 L737.8,31.815 L0,31.815 Z" id="Path" fill="#207BEA" fill-rule="nonzero"></path>
            <g id="dots" transform="translate(8.664000, 10.211000)" fill="#FFFFFF" fill-rule="nonzero">
                <circle id="Oval" cx="4.772" cy="4.772" r="4.772"></circle>
                <circle id="Oval" cx="19.619" cy="4.772" r="4.772"></circle>
                <circle id="Oval" cx="33.406" cy="4.772" r="4.772"></circle>
            </g>
            <g id="stackbit-monogram" transform="translate(301.000000, 187.000000)">
                <mask id="mask-2" fill="white">
                    <use xlink:href="#path-1"></use>
                </mask>
                <g id="path-1"></g>
                <polygon id="Fill-19" fill="#207BEA" fill-rule="nonzero" mask="url(#mask-2)" points="-2.52730435 116.256 139.001739 116.256 139.001739 -2.52730435 -2.52730435 -2.52730435"></polygon>
            </g>
        </g>
    </g>
</svg>