<?xml version="1.0" encoding="UTF-8"?>
<svg width="222px" height="222px" viewBox="0 0 222 222" version="1.1" xmlns="http://www.w3.org/2000/svg" xmlns:xlink="http://www.w3.org/1999/xlink">
    <!-- Generator: Sketch 51.3 (57544) - http://www.bohemiancoding.com/sketch -->
    <title>art</title>
    <desc>Created with Sketch.</desc>
    <defs></defs>
    <g id="Page-1" stroke="none" stroke-width="1" fill="none" fill-rule="evenodd">
        <g id="Artboard-Copy-5">
            <g id="art" transform="translate(0.000000, -51.000000)">
                <rect id="Rectangle" fill="#3DAEFB" fill-rule="nonzero" x="0" y="51" width="222" height="222"></rect>
                <g id="Group-2" transform="translate(22.000000, 0.000000)">
                    <circle id="Oval" fill="#011D37" cx="80.5" cy="135.5" r="44.5"></circle>
                    <circle id="Oval-Copy" fill="#FFFFFF" cx="94.5" cy="189.5" r="44.5"></circle>
                    <g id="Group" transform="translate(90.000000, 160.000000) rotate(23.000000) translate(-90.000000, -160.000000) translate(61.000000, -1.000000)">
                        <rect id="Rectangle-2" fill="#011D37" x="0" y="0" width="57" height="322"></rect>
                        <rect id="Rectangle-2-Copy-10" fill="#FFFFFF" x="29" y="0" width="28.3" height="322"></rect>
                        <rect id="Rectangle-2-Copy" fill="#3DAEFB" x="3" y="0" width="3" height="322"></rect>
                        <rect id="Rectangle-2-Copy-2" fill="#3DAEFB" x="9" y="0" width="3" height="322"></rect>
                        <rect id="Rectangle-2-Copy-3" fill="#3DAEFB" x="15" y="0" width="3" height="322"></rect>
                        <rect id="Rectangle-2-Copy-4" fill="#3DAEFB" x="21" y="0" width="3" height="322"></rect>
                        <rect id="Rectangle-2-Copy-5" fill="#3DAEFB" x="27" y="0" width="3" height="322"></rect>
                        <rect id="Rectangle-2-Copy-6" fill="#3DAEFB" x="33" y="0" width="3" height="322"></rect>
                        <rect id="Rectangle-2-Copy-7" fill="#3DAEFB" x="39" y="0" width="3" height="322"></rect>
                        <rect id="Rectangle-2-Copy-8" fill="#3DAEFB" x="45" y="0" width="3" height="322"></rect>
                        <rect id="Rectangle-2-Copy-9" fill="#3DAEFB" x="51" y="0" width="3" height="322"></rect>
                    </g>
                </g>
            </g>
        </g>
    </g>
</svg>