<svg xmlns="http://www.w3.org/2000/svg" width="400" height="146" viewBox="0 0 400 146">
  <g fill="none" fill-rule="evenodd">
    <path fill="#292A2E" d="M222.387993 66.7346253C222.151809 71.821253 220.768466 76.3138156 218.237922 80.212448 215.707378 84.1110804 212.156235 87.1312203 207.584386 89.2729582 203.012536 91.4146962 197.791259 92.4855491 191.920397 92.4855491 182.236849 92.4855491 174.611591 89.3566508 169.044395 83.0987601 163.477198 76.8408695 160.693642 68.0063329 160.693642 56.5948853L160.693642 52.9807206C160.693642 45.8192843 161.95046 39.5531215 164.464133 34.1820442 166.977807 28.810967 170.59643 24.6614119 175.320112 21.7332546 180.043794 18.8050972 185.509687 17.3410405 191.717955 17.3410405 200.65921 17.3410405 207.845847 19.6751652 213.278081 24.3434847 218.710315 29.0118041 221.797532 35.4452877 222.539825 43.6441283L204.826106 43.6441283C204.691144 39.1933291 203.560852 35.9975024 201.435195 34.0565524 199.309538 32.1156024 196.07049 31.1451419 191.717955 31.1451419 187.297938 31.1451419 184.05889 32.7848855 182.000715 36.0644217 179.942539 39.343958 178.862856 44.581098 178.761635 51.775999L178.761635 56.9462625C178.761635 64.7435272 179.748532 70.3153088 181.722356 73.6617744 183.69618 77.00824 187.095493 78.6814477 191.920397 78.6814477 196.003008 78.6814477 199.123965 77.7277193 201.283363 75.8202339 203.44276 73.9127485 204.589923 70.8842426 204.724885 66.7346253L222.387993 66.7346253zM268.797936 72.055479C268.797936 69.4787005 267.878519 67.4708513 266.039657 66.0318711 264.200795 64.5928909 260.970183 63.103736 256.347723 61.5643619 251.725262 60.0249877 247.946374 58.5358329 245.010943 57.0968527 235.462357 52.4452655 230.688136 46.0536122 230.688136 37.9217008 230.688136 33.8724775 231.877474 30.3001791 234.256185 27.2046984 236.634896 24.1092178 240.000469 21.6997987 244.353005 19.9763689 248.70554 18.2529392 253.597851 17.3912372 259.030086 17.3912372 264.327358 17.3912372 269.076274 18.3282335 273.276977 20.2022542 277.477679 22.0762749 280.742032 24.7450412 283.070133 28.2086331 285.398233 31.6722249 286.562266 35.6293611 286.562266 40.0801603L268.848547 40.0801603C268.848547 37.101806 267.92913 34.7927794 266.090268 33.1530112 264.251406 31.5132431 261.763075 30.6933713 258.625201 30.6933713 255.453586 30.6933713 252.948385 31.3877525 251.109523 32.7765357 249.270661 34.1653189 248.351244 35.9305531 248.351244 38.072291 248.351244 39.9463117 249.363446 41.6446175 251.387881 43.1672594 253.412316 44.6899012 256.971895 46.2627164 262.066723 47.8857522 267.161552 49.508788 271.345321 51.2572901 274.618158 53.1313108 282.580936 57.682504 286.562266 63.9570328 286.562266 71.9550855 286.562266 78.3468347 284.13298 83.3664578 279.274336 87.0141053 274.415691 90.6617528 267.752026 92.4855491 259.283139 92.4855491 253.311055 92.4855491 247.904208 91.4230623 243.062434 89.2980566 238.22066 87.173051 234.576731 84.2616696 232.130539 80.5638251 229.684346 76.8659807 228.461268 72.6076671 228.461268 67.7887567L246.276208 67.7887567C246.276208 71.7041214 247.296846 74.5904047 249.338151 76.4476931 251.379456 78.3049815 254.694419 79.2336117 259.283139 79.2336117 262.21857 79.2336117 264.5382 78.6061588 266.2421 77.3512343 267.945999 76.0963097 268.797936 74.3310756 268.797936 72.055479zM333.680757 72.055479C333.680757 69.4787005 332.76134 67.4708513 330.922478 66.0318711 329.083616 64.5928909 325.853004 63.103736 321.230544 61.5643619 316.608083 60.0249877 312.829195 58.5358329 309.893764 57.0968527 300.345178 52.4452655 295.570957 46.0536122 295.570957 37.9217008 295.570957 33.8724775 296.760295 30.3001791 299.139006 27.2046984 301.517717 24.1092178 304.88329 21.6997987 309.235826 19.9763689 313.588361 18.2529392 318.480673 17.3912372 323.912907 17.3912372 329.210179 17.3912372 333.959095 18.3282335 338.159798 20.2022542 342.360501 22.0762749 345.624853 24.7450412 347.952954 28.2086331 350.281054 31.6722249 351.445087 35.6293611 351.445087 40.0801603L333.731368 40.0801603C333.731368 37.101806 332.811951 34.7927794 330.973089 33.1530112 329.134227 31.5132431 326.645896 30.6933713 323.508022 30.6933713 320.336407 30.6933713 317.831206 31.3877525 315.992344 32.7765357 314.153482 34.1653189 313.234065 35.9305531 313.234065 38.072291 313.234065 39.9463117 314.246267 41.6446175 316.270702 43.1672594 318.295138 44.6899012 321.854716 46.2627164 326.949544 47.8857522 332.044373 49.508788 336.228142 51.2572901 339.500979 53.1313108 347.463757 57.682504 351.445087 63.9570328 351.445087 71.9550855 351.445087 78.3468347 349.015801 83.3664578 344.157157 87.0141053 339.298512 90.6617528 332.634847 92.4855491 324.16596 92.4855491 318.193876 92.4855491 312.787029 91.4230623 307.945255 89.2980566 303.103481 87.173051 299.459552 84.2616696 297.01336 80.5638251 294.567167 76.8659807 293.344089 72.6076671 293.344089 67.7887567L311.159029 67.7887567C311.159029 71.7041214 312.179667 74.5904047 314.220972 76.4476931 316.262278 78.3049815 319.57724 79.2336117 324.16596 79.2336117 327.101391 79.2336117 329.421021 78.6061588 331.124921 77.3512343 332.82882 76.0963097 333.680757 74.3310756 333.680757 72.055479zM180.175496 113.144415L171.004952 113.144415 171.004952 122.230055 165.317919 122.230055 165.317919 99.4219653 181.099031 99.4219653 181.099031 103.667152 171.004952 103.667152 171.004952 108.914893 180.175496 108.914893 180.175496 113.144415zM192.230062 114.178298L189.151611 114.178298 189.151611 122.230055 183.464578 122.230055 183.464578 99.4219653 192.748538 99.4219653C195.546161 99.4219653 197.73346 100.022447 199.310499 101.223428 200.887538 102.42441 201.676046 104.121423 201.676046 106.31452 201.676046 107.901904 201.3439 109.217742 200.6796 110.262074 200.015299 111.306405 198.975657 112.152301 197.560643 112.799787L202.486164 121.995081 202.486164 122.230055 196.394072 122.230055 192.230062 114.178298zM189.151611 109.933111L192.748538 109.933111C193.828701 109.933111 194.641512 109.658978 195.186995 109.110704 195.732478 108.56243 196.005215 107.797468 196.005215 106.815796 196.005215 105.834125 195.729777 105.063942 195.178894 104.505224 194.62801 103.946507 193.8179 103.667152 192.748538 103.667152L189.151611 103.667152 189.151611 109.933111zM218.510312 117.969203L210.71697 117.969203 209.355971 122.230055 203.280081 122.230055 211.932148 99.4219653 217.278931 99.4219653 225.995808 122.230055 219.887514 122.230055 218.510312 117.969203zM212.077969 113.724016L217.149312 113.724016 214.60554 105.813243 212.077969 113.724016zM247.415346 122.230055L241.760718 122.230055 233.400293 108.037658 233.400293 122.230055 227.71326 122.230055 227.71326 99.4219653 233.400293 99.4219653 241.744516 113.614362 241.744516 99.4219653 247.415346 99.4219653 247.415346 122.230055zM259.032448 113.739681L256.699306 116.214734 256.699306 122.230055 251.012273 122.230055 251.012273 99.4219653 256.699306 99.4219653 256.699306 109.478829 258.675996 106.580823 263.763541 99.4219653 270.795372 99.4219653 262.823804 109.510159 270.795372 122.230055 264.055184 122.230055 259.032448 113.739681zM287.094959 113.144415L277.924416 113.144415 277.924416 122.230055 272.237383 122.230055 272.237383 99.4219653 288.018495 99.4219653 288.018495 103.667152 277.924416 103.667152 277.924416 108.914893 287.094959 108.914893 287.094959 113.144415zM308.887152 99.4219653L308.887152 114.350612C308.887152 116.042429 308.514501 117.507082 307.769188 118.744615 307.023875 119.982148 305.954529 120.924643 304.561118 121.572129 303.167707 122.219615 301.520482 122.543353 299.619394 122.543353 296.746159 122.543353 294.48325 121.822775 292.8306 120.381597 291.177949 118.940419 290.335434 116.966662 290.303029 114.460266L290.303029 99.4219653 296.022467 99.4219653 296.022467 114.56992C296.087277 117.065873 297.286241 118.313831 299.619394 118.313831 300.796773 118.313831 301.687894 118.000536 302.292786 117.373937 302.897678 116.747338 303.200119 115.72913 303.200119 114.319282L303.200119 99.4219653 308.887152 99.4219653zM321.200956 114.178298L318.122505 114.178298 318.122505 122.230055 312.435472 122.230055 312.435472 99.4219653 321.719432 99.4219653C324.517056 99.4219653 326.704354 100.022447 328.281393 101.223428 329.858432 102.42441 330.64694 104.121423 330.64694 106.31452 330.64694 107.901904 330.314794 109.217742 329.650494 110.262074 328.986193 111.306405 327.946551 112.152301 326.531537 112.799787L331.457058 121.995081 331.457058 122.230055 325.364966 122.230055 321.200956 114.178298zM318.122505 109.933111L321.719432 109.933111C322.799596 109.933111 323.612406 109.658978 324.157889 109.110704 324.703372 108.56243 324.976109 107.797468 324.976109 106.815796 324.976109 105.834125 324.700671 105.063942 324.149788 104.505224 323.598904 103.946507 322.788794 103.667152 321.719432 103.667152L318.122505 103.667152 318.122505 109.933111zM352.601156 103.667152L345.520719 103.667152 345.520719 122.230055 339.833686 122.230055 339.833686 103.667152 332.882867 103.667152 332.882867 99.4219653 352.601156 99.4219653 352.601156 103.667152z"/>
    <path fill="#FF8282" d="M41.8002204 145.66474C33.5723679 143.238195 27.3770837 139.282987 23.2141821 133.798996 19.0512806 128.315006 16.969861 121.035481 16.969861 111.960205L16.969861 95.8722951C16.969861 83.1086708 11.3132972 76.7269544 0 76.7269544L0 69.1561734C11.3132972 69.1561734 16.969861 62.8229871 16.969861 50.1564247L16.969861 33.4861471C17.0188363 24.6049941 19.1002559 17.42253 23.2141821 11.9385394 27.3281084 6.45454876 33.5233925 2.47507542 41.8002204 0L43.710248 5.75088178C31.7602717 9.53629125 25.7853732 19.0239381 25.7853732 34.2141068L25.7853732 49.7196488C25.7853732 61.6582479 21.279712 69.3988089 12.2682545 72.9415639 21.279712 76.6784425 25.7853732 84.3947383 25.7853732 96.090683L25.7853732 112.688165C25.9812745 126.859185 32.0296349 135.91006 43.9306358 139.841062L41.8002204 145.66474zM356.069364 139.841062C367.970365 135.91006 374.018726 126.859185 374.214627 112.688165L374.214627 96.3818669C374.214627 84.1035515 378.940674 76.3144604 388.392909 73.0143599 378.940674 69.7142593 374.214627 61.9736984 374.214627 49.7924448L374.214627 34.2869028C374.214627 18.9511414 368.239728 9.43922947 356.289752 5.75088178L358.19978 0C366.574558 2.47507542 372.806573 6.49094638 376.896012 12.0477334 380.98545 17.6045203 383.030139 24.8961773 383.030139 33.9229229L383.030139 50.1564247C383.030139 62.8229871 388.686703 69.1561734 400 69.1561734L400 76.7269544C388.686703 76.7269544 383.030139 83.1086708 383.030139 95.8722951L383.030139 111.960205C383.030139 121.035481 380.948719 128.315006 376.785818 133.798996 372.622916 139.282987 366.427632 143.238195 358.19978 145.66474L356.069364 139.841062z"/>
    <g transform="translate(38.15 11.56)">
      <path fill="#292A2E" d="M120,56.1949552 L111.122258,60.9607002 L117.132541,67.6868058 L108.575821,68.9298351 L115.66914,78.4182957 L105.002501,79.0290758 C104.46513,80.2137769 100.118079,85.1411794 100.118079,85.2364742 C97.6104309,88.75417 96.3566067,91.6785478 96.3566067,94.0096077 C96.3566067,105.217895 91.3145597,113.594306 80.0793581,113.594306 L40.2794012,113.594306 C29.0441997,113.594306 24.0177269,105.217895 24.0177269,94.0096077 C24.0177269,91.7416179 22.3923558,88.7854752 19.1416135,85.1411794 C17.6293082,82.9776673 16.0879578,80.6089946 15.3593278,78.9991535 L4.55732331,78.3806222 L11.4782676,69.1227401 L2.98714287,67.8892397 L8.95862656,61.2065546 L0,56.3973892 L11.8149372,50.0549006 C12.0218108,45.450339 12.9977165,41.0454424 14.6175956,36.96497 L14.6175965,3.35527715 C14.6175965,1.56195125 16.0748654,0.108173367 17.8724976,0.108173367 C18.7349014,0.108173367 19.5620549,0.449606706 20.1723257,1.05749892 L34.5965745,15.4255282 C48.8235166,8.11775945 71.6078244,8.11775945 85.6487162,15.3622932 L100.118079,0.949325551 C100.72835,0.341433339 101.555504,0 102.417907,0 C104.21554,0 105.672808,1.45377788 105.672808,3.24710378 L105.672808,36.7526607 C107.343428,40.8922218 108.349848,45.3697694 108.560407,50.0539585 L120,56.1949552 Z"/>
      <g transform="translate(18.712 84.79)">
        <path fill="#FFF" d="M7.27006712,2.85773836 C11.4426508,3.58184997 13.8736618,3.41741033 19.4714626,3.41741033 C26.6436449,3.41741033 31.8186176,4.50804225 34.9965357,6.6893388 C38.1744539,8.87063535 41.333091,11.7887935 41.6676922,15.6988122 C42.2245416,11.7887935 44.7780447,8.94238831 47.985118,6.73239049 C51.1921914,4.52239267 56.3817415,3.41741033 63.5539238,3.41741033 C69.3849663,3.41741033 69.5445148,3.6657975 76.1489127,2.85773836 C78.1154271,2.61713203 80.1296938,1.56015127 81.7301478,0.405989052 C79.5091091,3.83191463 78.9398394,5.33813344 77.9512724,9.02445463 C77.3599697,9.34539894 76.6973079,9.60437663 76.1051801,9.78906051 C73.1605036,10.7075012 68.9767933,11.1667146 63.5539238,11.1667146 C57.9561229,11.1667146 53.6849483,11.3532701 50.7402719,11.7263866 C47.7955954,12.0995031 45.6964516,12.745272 44.4427774,13.6637126 C43.1891033,14.5821533 42.6970133,15.9310928 42.5220821,17.7105715 L42.5220821,18.1410884 L40.8272148,18.1410884 L40.8272148,17.7105715 C40.710594,15.9310928 39.9237483,14.5821533 38.6700742,13.6637126 C37.4164,12.745272 35.3172562,12.0995031 32.3725797,11.7263866 C29.4279032,11.3532701 25.1275739,11.1667146 19.4714626,11.1667146 C14.2818348,11.1667146 10.2438984,10.7075012 7.35753233,9.78906051 C6.59679165,9.5469931 5.90328419,9.30537429 5.32318795,9.08265606 C4.88391761,6.83219281 3.92871495,4.91086192 0.374215606,0.290554633 C2.04860323,1.59475636 4.48834469,2.37499729 7.27006712,2.85773836 Z"/>
        <path fill="#FF8282" d="M40.5152542,12.2543458 L40.5152542,9.49323843 C40.5152542,8.95549784 40.9523457,8.51957295 41.4915254,8.51957295 C42.0307051,8.51957295 42.4677966,8.95549784 42.4677966,9.49323843 L42.4677966,12.2543458 L44.4254193,10.3019481 C44.8066769,9.92170804 45.4248177,9.92170804 45.8060753,10.3019481 C46.1873329,10.6821881 46.1873329,11.298679 45.8060753,11.678919 L43.8484526,13.6313167 L46.6169492,13.6313167 C47.1561288,13.6313167 47.5932203,14.0672416 47.5932203,14.6049822 C47.5932203,15.1427228 47.1561288,15.5786477 46.6169492,15.5786477 L43.8484526,15.5786477 L45.8060753,17.5310454 C46.1873329,17.9112854 46.1873329,18.5277763 45.8060753,18.9080164 C45.4248177,19.2882564 44.8066769,19.2882564 44.4254193,18.9080164 L42.4677966,16.9556186 L42.4677966,19.716726 C42.4677966,20.2544666 42.0307051,20.6903915 41.4915254,20.6903915 C40.9523457,20.6903915 40.5152542,20.2544666 40.5152542,19.716726 L40.5152542,16.9556186 L38.5576315,18.9080164 C38.1763739,19.2882564 37.5582332,19.2882564 37.1769756,18.9080164 C36.795718,18.5277763 36.795718,17.9112854 37.1769756,17.5310454 L39.1345983,15.5786477 L36.3661017,15.5786477 C35.826922,15.5786477 35.3898305,15.1427228 35.3898305,14.6049822 C35.3898305,14.0672416 35.826922,13.6313167 36.3661017,13.6313167 L39.1345983,13.6313167 L37.1769756,11.678919 C36.795718,11.298679 36.795718,10.6821881 37.1769756,10.3019481 C37.5582332,9.92170804 38.1763739,9.92170804 38.5576315,10.3019481 L40.5152542,12.2543458 Z"/>
      </g>
      <g transform="translate(28.475 36.107)">
        <ellipse cx="14.237" cy="14.199" fill="#FFF" rx="14.237" ry="14.199"/>
        <ellipse cx="48.814" cy="14.199" fill="#FFF" rx="14.237" ry="14.199"/>
        <ellipse cx="18.102" cy="15.214" fill="#292A2E" rx="7.119" ry="7.1"/>
        <ellipse cx="44.949" cy="15.214" fill="#292A2E" rx="7.119" ry="7.1"/>
      </g>
      <path fill="#FF8282" d="M56.9409341,65.7224199 L63.4511257,65.7224199 C64.5780074,65.7224199 65.4915254,66.6429308 65.4915254,67.7784385 C65.4915254,68.3954512 65.2165272,68.9798449 64.7424279,69.370332 L62.0762078,71.5663376 C61.0456774,72.4151236 59.5688857,72.4305709 58.5210914,71.6035242 L55.6918366,69.370332 C54.8111586,68.6751938 54.656468,67.3922773 55.3463255,66.5048579 C55.7302731,66.0109551 56.3183078,65.7224199 56.9409341,65.7224199 Z"/>
    </g>
  </g>
</svg>
