<svg xmlns="http://www.w3.org/2000/svg" width="104" height="99" viewBox="0 0 104 99">
  <g fill="none" fill-rule="evenodd">
    <path fill="#292A2E" d="M104,48.8008822 L96.305957,52.9395554 L101.514869,58.7806471 L94.0990451,59.8601199 L100.246588,68.1000989 L91.0021671,68.6305132 C90.5364459,69.6593326 86.769002,73.9383927 86.769002,74.0211487 C84.5957067,77.0759897 83.5090591,79.615581 83.5090591,81.6399224 C83.5090591,91.3734347 79.139285,98.6476868 69.4021104,98.6476868 L34.9088144,98.6476868 C25.1716397,98.6476868 20.8153633,91.3734347 20.8153633,81.6399224 C20.8153633,79.6703524 19.4067083,77.1031758 16.5893984,73.9383927 C15.2787338,72.0595531 13.9428967,70.0025479 13.3114174,68.604528 L3.9496802,68.0673824 L9.94783196,60.0276427 L2.58885715,58.956445 L7.76414302,53.1530605 L0,48.9766801 L10.2396123,43.4687295 C10.4189027,39.4700312 11.2646877,35.6447263 12.6685829,32.1011582 L12.6685836,2.91379331 C12.6685836,1.35643135 13.93155,0.0939400295 15.4894979,0.0939400295 C16.2369145,0.0939400295 16.9537809,0.390447929 17.4826822,0.918354324 L29.9836979,13.3958535 C42.3137144,7.04963321 62.0601144,7.04963321 74.2288874,13.3409388 L86.769002,0.824414294 C87.2979033,0.296507899 88.0147697,0 88.7621863,0 C90.3201342,0 91.5831006,1.26249132 91.5831006,2.81985328 L91.5831006,31.9167843 C93.0309707,35.5116663 93.9032012,39.4000629 94.0856857,43.4679113 L104,48.8008822 Z"/>
    <g transform="translate(16.217 73.633)">
      <path fill="#FFF" d="M6.30072484,2.48172015 C9.91696401,3.11055392 12.0238402,2.96775108 16.8752676,2.96775108 C23.0911589,2.96775108 27.5761352,3.9148788 30.330331,5.80916264 C33.0845267,7.70344649 35.8220122,10.2376365 36.1119999,13.633179 C36.5946028,10.2376365 38.8076387,7.76575827 41.5871023,5.84654964 C44.3665659,3.927341 48.8641759,2.96775108 55.0800673,2.96775108 C60.1336375,2.96775108 60.2719128,3.18345573 65.9957243,2.48172015 C67.7000368,2.27277255 69.4457347,1.35486821 70.8327948,0.35256944 C68.9078946,3.32771534 68.4145275,4.63574746 67.5577694,7.83702639 C67.0453071,8.11574119 66.4710002,8.34064286 65.9578227,8.50102623 C63.4057698,9.29861943 59.7798875,9.69741005 55.0800673,9.69741005 C50.2286399,9.69741005 46.5269552,9.85941874 43.9749023,10.183441 C41.4228493,10.5074632 39.6035914,11.0682625 38.5170738,11.8658557 C37.4305562,12.6634489 37.0040782,13.8348964 36.8524711,15.3802332 L36.8524711,15.7541031 L35.3835862,15.7541031 L35.3835862,15.3802332 C35.2825148,13.8348964 34.6005819,12.6634489 33.5140643,11.8658557 C32.4275467,11.0682625 30.6082887,10.5074632 28.0562358,10.183441 C25.5041828,9.85941874 21.7772307,9.69741005 16.8752676,9.69741005 C12.3775901,9.69741005 8.87804526,9.29861943 6.37652802,8.50102623 C5.71721943,8.29080979 5.11617963,8.08098293 4.61342956,7.88756974 C4.23272859,5.93322008 3.40488629,4.26469588 0.324320192,0.252323761 C1.77545614,1.38492 3.88989873,2.06249764 6.30072484,2.48172015 Z"/>
      <path fill="#FF8282" d="M35.1132203,10.6419319 L35.1132203,8.24412811 C35.1132203,7.77714286 35.492033,7.39857651 35.959322,7.39857651 C36.4266111,7.39857651 36.8054237,7.77714286 36.8054237,8.24412811 L36.8054237,10.6419319 L38.5020301,8.94642858 C38.8324533,8.61622014 39.3681753,8.61622014 39.6985986,8.94642858 C40.0290218,9.27663702 40.0290218,9.81201068 39.6985986,10.1422191 L38.0019922,11.8377224 L40.4013559,11.8377224 C40.868645,11.8377224 41.2474576,12.2162888 41.2474576,12.683274 C41.2474576,13.1502593 40.868645,13.5288256 40.4013559,13.5288256 L38.0019922,13.5288256 L39.6985986,15.2243289 C40.0290218,15.5545374 40.0290218,16.089911 39.6985986,16.4201195 C39.3681753,16.7503279 38.8324533,16.7503279 38.5020301,16.4201195 L36.8054237,14.7246162 L36.8054237,17.1224199 C36.8054237,17.5894052 36.4266111,17.9679715 35.959322,17.9679715 C35.492033,17.9679715 35.1132203,17.5894052 35.1132203,17.1224199 L35.1132203,14.7246162 L33.416614,16.4201195 C33.0861907,16.7503279 32.5504688,16.7503279 32.2200455,16.4201195 C31.8896222,16.089911 31.8896222,15.5545374 32.2200455,15.2243289 L33.9166518,13.5288256 L31.5172881,13.5288256 C31.0499991,13.5288256 30.6711864,13.1502593 30.6711864,12.683274 C30.6711864,12.2162888 31.0499991,11.8377224 31.5172881,11.8377224 L33.9166518,11.8377224 L32.2200455,10.1422191 C31.8896222,9.81201068 31.8896222,9.27663702 32.2200455,8.94642858 C32.5504688,8.61622014 33.0861907,8.61622014 33.416614,8.94642858 L35.1132203,10.6419319 Z"/>
    </g>
    <g transform="translate(24.678 31.356)">
      <ellipse cx="12.339" cy="12.331" fill="#FFF" rx="12.339" ry="12.331"/>
      <ellipse cx="42.305" cy="12.331" fill="#FFF" rx="12.339" ry="12.331"/>
      <ellipse cx="15.688" cy="13.212" fill="#292A2E" rx="6.169" ry="6.165"/>
      <ellipse cx="38.956" cy="13.212" fill="#292A2E" rx="6.169" ry="6.165"/>
    </g>
    <path fill="#FF8282" d="M49.3488096,57.0747331 L54.9909756,57.0747331 C55.9676064,57.0747331 56.759322,57.8741241 56.759322,58.8602229 C56.759322,59.3960497 56.5209903,59.9035495 56.1101042,60.2426568 L53.7993801,62.1497142 C52.9062537,62.8868179 51.6263676,62.9002326 50.7182792,62.1820078 L48.2662584,60.2426568 C47.5030041,59.6389841 47.3689389,58.5248724 47.9668154,57.7542187 C48.29957,57.3253031 48.8092001,57.0747331 49.3488096,57.0747331 Z"/>
  </g>
</svg>
