<svg xmlns="http://www.w3.org/2000/svg" xmlns:xlink="http://www.w3.org/1999/xlink" width="231" height="90" viewBox="0 0 231 90">
  <defs>
    <path id="vue.js-frankfurt-sticker-a" d="M84.1025641,39.5758958 L76.0850713,35.2510334 C75.9375,31.9521433 75.2321459,28.7987828 74.0612845,25.8834528 L74.0612845,2.28680742 C74.0612845,1.02383856 73.0399508,0 71.7800718,0 C71.175652,0 70.5959376,0.240458066 70.1682265,0.668572631 L60.0273054,10.8190586 C50.1866803,5.71701856 34.2181911,5.71701856 24.2471719,10.8635926 L14.1378693,0.744754877 C13.7101581,0.316640312 13.1304437,0.0761822462 12.526024,0.0761822462 C11.266145,0.0761822462 10.2448112,1.1000208 10.2448112,2.36298967 L10.2448106,26.0329739 C9.10951074,28.90669 8.4255426,32.0088854 8.2805543,35.2516969 L0,39.7184621 L6.27869554,43.105368 L2.09355312,47.8117202 L8.04459783,48.680426 L3.19402146,55.2003881 L10.7646571,55.6359953 C11.2753208,56.7697431 12.3555836,58.437906 13.4154898,59.9615825 C15.6937878,62.5281166 16.8329368,64.6100116 16.8329368,66.2072675 C16.8329368,74.100823 20.3557639,80 28.2300077,80 L56.1239946,80 C63.9982384,80 67.5319808,74.100823 67.5319808,66.2072675 C67.5319808,64.5655938 68.4107293,62.5060696 70.1682265,60.0286949 C70.1682265,59.9615825 73.2148773,56.4914068 73.5914961,55.6570684 L81.0672604,55.22692 L76.0958748,48.5445706 L82.0928921,47.6691539 L77.8805569,42.9322224 L84.1025641,39.5758958 Z"/>
  </defs>
  <g fill="none" fill-rule="evenodd">
    <path fill="#FFF" fill-rule="nonzero" d="M88.9323828,17.728 L99.674239,17.728 C101.921834,17.728 103.894434,19.2214997 104.499721,21.3814791 C105.130029,19.2283487 107.105881,17.728 109.358722,17.728 L113.174793,17.728 C116.106452,17.728 118.309508,20.1892229 118.183722,22.944 L118.914934,22.944 C120.024997,22.944 121.050749,23.3042152 121.881208,23.9138982 C122.711667,23.3042152 123.737419,22.944 124.847482,22.944 L128.535282,22.944 C130.132052,22.944 131.554371,23.689335 132.471916,24.8503816 C133.17386,24.3414009 133.928237,23.9092191 134.730434,23.5577798 C136.235383,22.8984684 137.818249,22.56 139.438342,22.56 C143.720901,22.56 146.857573,24.0878783 148.848358,27.1436349 C149.711096,27.8161297 150.599498,27.9041267 151.513565,27.4076259 C152.427631,26.9111252 152.854718,26.1085832 152.794826,25 C152.392227,21.6763915 153.197244,19.3030696 155.209877,17.8800344 C156.590775,16.6364945 158.331915,16 160.186225,16 C162.051896,16 163.804637,16.6282939 165.194641,17.8800344 C166.700754,19.2363347 167.505706,21.0975239 167.505706,23.112 C168.792842,22.7739962 170.200214,22.56 171.698574,22.56 C173.460658,22.56 175.128977,22.8857197 176.663025,23.5577798 C177.893364,24.0967863 178.999174,24.734002 179.974236,25.4799682 C182.161012,27.1529511 182.583691,30.2739989 180.92037,32.4661919 L180.229061,33.3773106 C180.644544,33.8852504 181.005439,34.4384945 181.30871,35.0316483 C181.957421,36.3004329 182.256906,37.6990583 182.256906,39.176 C182.256906,40.5620999 181.974689,41.902609 181.40694,43.1490147 C181.073868,43.8802233 180.651665,44.5577803 180.148042,45.1749778 C181.230501,44.8359266 182.392229,44.68 183.627805,44.68 C184.527426,44.68 185.405642,44.768521 186.257906,44.9494704 C187.039381,45.1153899 187.757668,45.3277657 188.421694,45.6006095 C190.730452,46.5492641 191.986986,49.0493524 191.36819,51.4631662 L191.244925,51.944 C192.562418,51.944 193.58817,52.3042152 194.418628,52.9138982 C195.249087,52.3042152 196.274839,51.944 197.384902,51.944 L201.072702,51.944 C201.918294,51.944 202.714963,52.1530202 203.413653,52.5221084 C204.112344,52.1530202 204.909013,51.944 205.754605,51.944 L208.801048,51.944 C209.34303,51.944 209.866325,52.0302539 210.357187,52.1902484 C211.403021,51.7774377 212.505378,51.56 213.64329,51.56 C214.515967,49.3063625 216.532317,47.656 218.902413,47.656 L221.980924,47.656 C224.537974,47.656 226.647652,49.5673711 226.953435,52.0364573 C229.259462,52.4849302 231,54.5116328 231,56.944 L231,59.856 C231,62.2749579 229.278599,64.2927116 226.991522,64.7559819 C229.773871,64.7559819 235.505645,78.04 223.263637,78.04 C222.104659,78.04 219.702389,77.463211 216.056829,76.309633 C213.420238,77.4365443 211.212348,78 209.433157,78 L192.637445,78 C190.937908,78 188.811395,77.4365443 186.257906,76.309633 C184.551482,77.4365443 183.159206,78 182.081079,78 L178.395365,78 C178.019868,78 177.484956,77.7974167 176.790629,77.3922501 C176.099479,77.7974167 175.560747,78 175.174434,78 L160.987053,78 C160.444772,78 159.702157,77.7064402 158.759207,77.1193207 C157.785355,77.7064402 157.027289,78 156.485009,78 L143.112035,78 C142.582517,78 141.828281,77.7144355 140.849327,77.1433065 C139.899773,77.7144355 139.160237,78 138.630719,78 L130.357627,78 C128.585466,78 126.352812,77.4365443 123.659665,76.309633 C121.375725,77.4365443 119.550411,78 118.183722,78 L114.528083,78 C112.683232,78 110.960112,77.4365443 109.358722,76.309633 C106.453563,77.4365443 104.078558,78 102.233707,78 L98.5211999,78 C96.5549584,78 86.8233491,78.656277 84.0816138,76.6163545 C80.7353432,83.7447498 78.9438485,84.9394176 77.6091815,86.1489415 C75.7495224,87.9002835 73.2007412,89.414687 69.8115883,89.7722869 C68.8536313,89.9225983 67.8483191,90 66.7969265,90 L38.8438172,90 C28.3607105,90 22.4692871,82.3076354 22.4124079,71.3673949 C22.3711389,71.2455358 22.2925018,71.0698951 22.1708082,70.8479596 C21.8000637,70.1718246 21.1600798,69.3031564 20.2507104,68.2809059 L19.8846198,67.8168276 C19.2988198,66.9764873 18.7749724,66.1950211 18.3179459,65.4706638 L4.18542989,64.659212 L9.58413049,57.4178303 L2.73162997,56.41965 L8.89309482,49.5055026 L0,44.7184621 L14.1019911,37.1275385 C14.4184883,34.7268407 14.991903,32.380464 15.8099022,30.120911 L15.8099028,7.36298967 C15.8099028,3.34133503 19.0739711,0.0761822462 23.1065484,0.0761822462 C25.0424184,0.0761822462 26.898408,0.844394487 28.2665073,2.21088794 L35.9679532,9.90329349 C46.0844756,6.04538056 59.5354407,6.02926238 69.5941061,9.85775155 L77.3262283,2.13470569 C78.6943277,0.768212241 80.5503172,0 82.4861873,0 C86.5187645,0 89.7828328,3.26515279 89.7828328,7.28680742 L88.9323828,17.728 Z"/>
    <g transform="translate(11 5)">
      <mask id="vue.js-frankfurt-sticker-b" fill="#fff">
        <use xlink:href="#vue.js-frankfurt-sticker-a"/>
      </mask>
      <use fill="#292A2E" fill-rule="nonzero" xlink:href="#vue.js-frankfurt-sticker-a"/>
      <g mask="url(#vue.js-frankfurt-sticker-b)">
        <g transform="translate(7 55.5)">
          <polygon fill="#41B883" fill-rule="nonzero" points="43.083 0 70 0 35 61.877 0 0 26.917 0 35 14.29"/>
          <polygon fill="#34495E" fill-rule="nonzero" points="43.083 0 56 0 35 37.125 14 0 26.917 0 35 14.29"/>
        </g>
      </g>
      <g mask="url(#vue.js-frankfurt-sticker-b)">
        <g transform="translate(22 -3)">
          <polygon fill="#41B883" fill-rule="nonzero" points="24.619 0 40 0 20 34.931 0 0 15.381 0 20 8.067"/>
          <polygon fill="#34495E" fill-rule="nonzero" points="24.619 0 32 0 20 20.958 8 0 15.381 0 20 8.067"/>
        </g>
      </g>
      <path fill="#FFF" d="M17.9161675,61.9088636 C20.8908719,62.4472864 22.6239802,62.3250151 26.6147457,62.3250151 C31.727914,62.3250151 35.4172382,63.1359689 37.6828291,64.757901 C39.9484199,66.379833 42.2002649,68.5496682 42.4388077,71.4570146 C42.8357949,68.5496682 44.6562298,66.4331858 46.9426059,64.7899126 C49.2289819,63.1466394 52.9286986,62.3250151 58.0418669,62.3250151 C62.1989144,62.3250151 62.3126591,62.5097067 67.0210444,61.9088636 C68.4230053,61.7299575 69.8590097,60.9440254 71,60.0858328 C69.4165845,62.6332253 69.0107426,63.7531943 68.3059768,66.4942073 C67.8844272,66.7328498 67.4120045,66.9254161 66.9898667,67.0627402 C64.8905578,67.745659 61.907921,68.0871132 58.0418669,68.0871132 C54.0511014,68.0871132 51.0061099,68.225829 48.9068009,68.5032647 C46.807492,68.7807005 45.3109774,69.2608705 44.4172122,69.9437893 C43.7804702,70.4303186 43.4193013,71.0793168 43.2191389,71.8907947 C43.1383427,72.2183507 41.7631731,72.2810554 41.6782944,71.9781508 C41.4394438,71.1257699 40.9611845,70.4476534 40.3017558,69.9437893 C39.4079906,69.2608705 37.911476,68.7807005 35.8121671,68.5032647 C33.7128581,68.225829 30.6470817,68.0871132 26.6147457,68.0871132 C22.9149735,68.0871132 20.0362613,67.745659 17.9785229,67.0627402 C17.4361782,66.8827478 16.9417651,66.7030889 16.5282049,66.5374838 C16.2150417,64.864122 15.5340618,63.4354909 13,60 C14.1936988,60.9697565 15.9330312,61.549915 17.9161675,61.9088636 Z"/>
      <path fill="#41B883" d="M41.6004592,68.77704 L41.6004592,66.7239819 C41.6004592,66.3241377 41.9075031,66 42.286261,66 C42.6650189,66 42.9720628,66.3241377 42.9720628,66.7239819 L42.9720628,68.77704 L44.3472351,67.3253087 C44.6150573,67.0425762 45.049283,67.0425762 45.3171052,67.3253087 C45.5849275,67.6080412 45.5849275,68.0664412 45.3171052,68.3491737 L43.9419329,69.800905 L45.8867202,69.800905 C46.2654781,69.800905 46.572522,70.1250427 46.572522,70.5248869 C46.572522,70.924731 46.2654781,71.2488688 45.8867202,71.2488688 L43.9419329,71.2488688 L45.3171052,72.7006001 C45.5849275,72.9833326 45.5849275,73.4417326 45.3171052,73.7244651 C45.049283,74.0071976 44.6150573,74.0071976 44.3472351,73.7244651 L42.9720628,72.2727338 L42.9720628,74.3257919 C42.9720628,74.725636 42.6650189,75.0497738 42.286261,75.0497738 C41.9075031,75.0497738 41.6004592,74.725636 41.6004592,74.3257919 L41.6004592,72.2727338 L40.2252869,73.7244651 C39.9574647,74.0071976 39.523239,74.0071976 39.2554168,73.7244651 C38.9875945,73.4417326 38.9875945,72.9833326 39.2554168,72.7006001 L40.6305891,71.2488688 L38.6858018,71.2488688 C38.3070439,71.2488688 38,70.924731 38,70.5248869 C38,70.1250427 38.3070439,69.800905 38.6858018,69.800905 L40.6305891,69.800905 L39.2554168,68.3491737 C38.9875945,68.0664412 38.9875945,67.6080412 39.2554168,67.3253087 C39.523239,67.0425762 39.9574647,67.0425762 40.2252869,67.3253087 L41.6004592,68.77704 Z"/>
      <ellipse cx="30.471" cy="34.872" fill="#FFF" rx="9.959" ry="10.256"/>
      <ellipse cx="54.657" cy="34.872" fill="#FFF" rx="9.959" ry="10.256"/>
      <ellipse cx="33.175" cy="35.604" fill="#292A2E" rx="4.979" ry="5.128"/>
      <ellipse cx="51.954" cy="35.604" fill="#292A2E" rx="4.979" ry="5.128"/>
      <path fill="#FF8282" d="M40.3494507,46.1538462 L44.7687622,46.1538462 C45.5337229,46.1538462 46.1538462,46.7356355 46.1538462,47.4533091 C46.1538462,47.8432789 45.9671692,48.2126325 45.6453365,48.4594316 L43.835427,49.8473704 C43.1358724,50.3838276 42.1333823,50.3935907 41.4221084,49.8708733 L39.5015261,48.4594316 C38.9036957,48.0200842 38.7986872,47.2092441 39.266983,46.6483695 C39.527618,46.3362087 39.9267934,46.1538462 40.3494507,46.1538462 Z"/>
    </g>
    <path fill="#41B883" d="M151.516779,44 C150.800891,44 150.202463,43.7649596 149.721477,43.2948718 C149.24049,42.824784 149,42.2264994 149,41.5 C149,40.7735006 149.24049,40.175216 149.721477,39.7051282 C150.202463,39.2350404 150.800891,39 151.516779,39 C152.232666,39 152.825501,39.2350404 153.295302,39.7051282 C153.765103,40.175216 154,40.7735006 154,41.5 C154,42.2264994 153.765103,42.824784 153.295302,43.2948718 C152.825501,43.7649596 152.232666,44 151.516779,44 Z"/>
    <path fill="#292A2E" d="M102.504783,43.6385857 L96,22.7266718 L99.9220015,22.7266718 L102.855531,33.2465796 C103.195652,34.4403339 103.498568,35.5701202 103.764287,36.6359723 C104.030007,37.7018244 104.343551,38.8422691 104.70493,40.0573405 L104.832475,40.0573405 C105.193853,38.8422691 105.507398,37.7018244 105.773117,36.6359723 C106.038837,35.5701202 106.331124,34.4403339 106.649988,33.2465796 L109.551631,22.7266718 L113.346088,22.7266718 L106.873191,43.6385857 L102.504783,43.6385857 Z M120.201619,44.0222905 C118.522271,44.0222905 117.299979,43.4840433 116.534707,42.4075327 C115.769434,41.331022 115.386804,39.7908888 115.386804,37.7870869 L115.386804,27.9386626 L119.053716,27.9386626 L119.053716,37.3074558 C119.053716,38.6077954 119.245031,39.5244145 119.627667,40.0573405 C120.010304,40.5902666 120.626764,40.8567256 121.477066,40.8567256 C122.157309,40.8567256 122.757826,40.6861918 123.278636,40.3451191 C123.799447,40.0040465 124.357449,39.4498117 124.952661,38.6823982 L124.952661,27.9386626 L128.619573,27.9386626 L128.619573,43.6385857 L125.622271,43.6385857 L125.335296,41.3363566 L125.239637,41.3363566 C124.559395,42.1464043 123.820705,42.7965643 123.023547,43.2868563 C122.226388,43.7771482 121.285755,44.0222905 120.201619,44.0222905 Z M139.971057,44.0222905 C138.886921,44.0222905 137.877202,43.8357692 136.941869,43.462721 C136.006536,43.0896727 135.188132,42.5514255 134.486632,41.8479631 C133.785133,41.1445007 133.237758,40.2865026 132.844494,39.2739431 C132.451229,38.2613836 132.254599,37.1049514 132.254599,35.8046118 C132.254599,34.5255893 132.456543,33.3744863 132.860437,32.3512683 C133.26433,31.3280502 133.801076,30.464723 134.470689,29.7612606 C135.140303,29.0577982 135.910878,28.5142217 136.782438,28.130515 C137.653998,27.7468082 138.546803,27.5549577 139.460878,27.5549577 C140.523756,27.5549577 141.459075,27.7361499 142.266863,28.0985396 C143.07465,28.4609293 143.749568,28.9725306 144.291636,29.633359 C144.833704,30.2941873 145.242906,31.082906 145.519254,31.9995388 C145.795603,32.9161716 145.933775,33.9180576 145.933775,35.0052267 C145.933775,35.3676165 145.917832,35.708684 145.885946,36.0284397 C145.854059,36.3481953 145.816859,36.603996 145.774344,36.7958493 L135.825852,36.7958493 C135.995913,38.2027741 136.490144,39.2845978 137.30856,40.0413528 C138.126977,40.7981078 139.173896,41.1764796 140.44935,41.1764796 C141.129592,41.1764796 141.761995,41.0752252 142.346578,40.8727133 C142.931161,40.6702014 143.510421,40.3877548 144.084376,40.0253651 L145.327937,42.3275942 C144.583922,42.8178861 143.75489,43.2229039 142.840814,43.5426595 C141.926739,43.8624151 140.970163,44.0222905 139.971057,44.0222905 Z M135.793966,34.3017679 L142.745156,34.3017679 C142.745156,33.0866965 142.484754,32.1327731 141.963944,31.4399693 C141.443134,30.7471654 140.640673,30.4007686 139.556537,30.4007686 C138.621204,30.4007686 137.8028,30.7311778 137.1013,31.3920061 C136.3998,32.0528345 135.964027,33.0227453 135.793966,34.3017679 Z M156.966397,50.2255188 C156.392443,50.2255188 155.898212,50.1828854 155.483689,50.0976172 C155.069166,50.012349 154.713108,49.9164238 154.415502,49.8098386 L155.116998,47.0599539 C155.329573,47.123905 155.54746,47.182526 155.770665,47.2358186 C155.993869,47.2891112 156.222385,47.3157571 156.456218,47.3157571 C157.157718,47.3157571 157.630691,47.075944 157.875153,46.5963105 C158.119615,46.1166771 158.241844,45.4185544 158.241844,44.5019216 L158.241844,27.9386626 L161.940643,27.9386626 L161.940643,44.4379708 C161.940643,45.2693354 161.855614,46.0367375 161.685553,46.7401998 C161.515493,47.4436622 161.233834,48.056518 160.840569,48.5787855 C160.447304,49.1010531 159.931816,49.5060708 159.294089,49.7938509 C158.656362,50.081631 157.880472,50.2255188 156.966397,50.2255188 Z M160.091244,25.1887779 C159.453517,25.1887779 158.916771,24.9969274 158.480991,24.6132206 C158.045211,24.2295138 157.827324,23.7285709 157.827324,23.1103766 C157.827324,22.4921824 158.045211,21.9859102 158.480991,21.591545 C158.916771,21.1971797 159.453517,21 160.091244,21 C160.750228,21 161.297602,21.1971797 161.733382,21.591545 C162.169163,21.9859102 162.387049,22.4921824 162.387049,23.1103766 C162.387049,23.7285709 162.169163,24.2295138 161.733382,24.6132206 C161.297602,24.9969274 160.750228,25.1887779 160.091244,25.1887779 Z M170.964435,44.0222905 C169.880299,44.0222905 168.812122,43.8144525 167.759872,43.3987702 C166.707623,42.9830879 165.798876,42.4661573 165.033603,41.8479631 L166.755457,39.4817832 C167.456957,40.0360263 168.153132,40.46769 168.844003,40.7767871 C169.534874,41.0858842 170.284192,41.2404304 171.091979,41.2404304 C171.942282,41.2404304 172.569371,41.0645675 172.973265,40.7128363 C173.377158,40.3611051 173.579102,39.9081247 173.579102,39.3538816 C173.579102,39.034126 173.483445,38.7516794 173.292127,38.5065334 C173.100808,38.2613874 172.845721,38.042891 172.526858,37.8510377 C172.207994,37.6591843 171.846621,37.4833213 171.442727,37.3234435 C171.038834,37.1635657 170.634946,36.9983611 170.231052,36.8278248 C169.720871,36.6359714 169.200068,36.4121458 168.668629,36.1563413 C168.13719,35.9005368 167.664216,35.5914443 167.249693,35.2290546 C166.835171,34.8666649 166.495055,34.4456596 166.229335,33.9660261 C165.963616,33.4863927 165.830758,32.9161704 165.830758,32.255342 C165.830758,30.8697343 166.340932,29.739948 167.361295,28.8659493 C168.381658,27.9919505 169.774008,27.5549577 171.538386,27.5549577 C172.622522,27.5549577 173.600355,27.7468082 174.471916,28.130515 C175.343476,28.5142217 176.098108,28.9512146 176.735835,29.4415065 L175.045867,31.6797848 C174.49317,31.274761 173.935168,30.949681 173.371842,30.704535 C172.808517,30.459389 172.218628,30.3368178 171.602158,30.3368178 C170.815628,30.3368178 170.236368,30.5020224 169.864361,30.8324366 C169.492354,31.1628507 169.306353,31.5731977 169.306353,32.0634896 C169.306353,32.3832453 169.396696,32.6550335 169.577385,32.8788624 C169.758075,33.1026914 169.997219,33.299871 170.294825,33.4704074 C170.592431,33.6409437 170.937861,33.8008191 171.331126,33.9500384 C171.724391,34.0992577 172.133593,34.2484748 172.558744,34.3976941 C173.090183,34.5895475 173.621615,34.8080439 174.153054,35.0531899 C174.684493,35.2983358 175.168095,35.6020991 175.603875,35.9644889 C176.039656,36.3268786 176.3904,36.7692006 176.65612,37.2914681 C176.921839,37.8137356 177.054697,38.4372498 177.054697,39.1620292 C177.054697,39.8441746 176.921839,40.4783471 176.65612,41.0645657 C176.3904,41.6507844 176.002455,42.1623857 175.492274,42.5993851 C174.982092,43.0363845 174.344375,43.3827812 173.579102,43.6385857 C172.81383,43.8943902 171.942283,44.0222905 170.964435,44.0222905 Z M98.7740986,72.6162952 L98.7740986,51.7043812 L111.369144,51.7043812 L111.369144,54.8379708 L102.472897,54.8379708 L102.472897,60.7534204 L110.06181,60.7534204 L110.06181,63.88701 L102.472897,63.88701 L102.472897,72.6162952 L98.7740986,72.6162952 Z M114.717194,72.6162952 L114.717194,56.916372 L117.746382,56.916372 L118.001472,59.6982321 L118.129016,59.6982321 C118.681713,58.6750141 119.351316,57.8916245 120.137846,57.34804 C120.924376,56.8044554 121.732152,56.5326672 122.561197,56.5326672 C123.305212,56.5326672 123.900415,56.6392508 124.346824,56.8524212 L123.7091,60.0499616 C123.432751,59.9646934 123.177664,59.9007432 122.943831,59.8581091 C122.709998,59.8154751 122.423025,59.7941583 122.082904,59.7941583 C121.466435,59.7941583 120.818089,60.0339715 120.137846,60.5136049 C119.457604,60.9932384 118.87303,61.8299197 118.384106,63.0236741 L118.384106,72.6162952 L114.717194,72.6162952 Z M130.4052,73 C129.023458,73 127.907453,72.5789947 127.05715,71.7369716 C126.206847,70.8949484 125.781702,69.7811496 125.781702,68.3955419 C125.781702,67.5641772 125.957075,66.8234211 126.307824,66.1732513 C126.658574,65.5230816 127.211263,64.9635176 127.965906,64.4945427 C128.72055,64.0255677 129.677126,63.6312084 130.835663,63.3114527 C131.994201,62.9916971 133.381236,62.7465548 134.996811,62.5760184 C134.975554,62.1709946 134.917096,61.7819645 134.821437,61.4089162 C134.725778,61.035868 134.566349,60.7054588 134.343144,60.4176787 C134.11994,60.1298986 133.827653,59.9060731 133.466274,59.7461952 C133.104896,59.5863174 132.658493,59.5063797 132.127054,59.5063797 C131.361782,59.5063797 130.612464,59.6555968 129.879078,59.9540354 C129.145692,60.2524739 128.42826,60.6148582 127.72676,61.0411991 L126.38754,58.579093 C127.2591,58.0248499 128.236934,57.5452236 129.321069,57.1401998 C130.405205,56.735176 131.574354,56.5326672 132.82855,56.5326672 C134.784247,56.5326672 136.245682,57.1135479 137.212902,58.2753267 C138.180121,59.4371055 138.663723,61.1157974 138.663723,63.3114527 L138.663723,72.6162952 L135.634535,72.6162952 L135.379446,70.8896234 L135.251901,70.8896234 C134.550401,71.4865006 133.801083,71.9874435 133.003924,72.3924673 C132.206766,72.7974911 131.340533,73 130.4052,73 Z M131.584989,70.1222137 C132.222716,70.1222137 132.801976,69.9729966 133.322786,69.674558 C133.843597,69.3761194 134.4016,68.949785 134.996811,68.3955419 L134.996811,64.8782475 C133.933933,65.0061498 133.041129,65.1766835 132.318371,65.389854 C131.595614,65.6030244 131.01104,65.8428375 130.564631,66.1093005 C130.118222,66.3757636 129.799363,66.6795269 129.608045,67.0205995 C129.416727,67.3616722 129.321069,67.7240565 129.321069,68.1077633 C129.321069,68.8112257 129.533642,69.322827 129.958793,69.6425826 C130.383945,69.9623383 130.926004,70.1222137 131.584989,70.1222137 Z M143.064018,72.6162952 L143.064018,56.916372 L146.093206,56.916372 L146.348295,59.0267487 L146.47584,59.0267487 C147.17734,58.3446033 147.937286,57.7583934 148.755703,57.2681015 C149.574119,56.7778095 150.525381,56.5326672 151.609517,56.5326672 C153.288865,56.5326672 154.511156,57.0709144 155.276429,58.1474251 C156.041701,59.2239357 156.424332,60.7640689 156.424332,62.7678709 L156.424332,72.6162952 L152.75742,72.6162952 L152.75742,63.2475019 C152.75742,61.9471623 152.566104,61.0305433 152.183468,60.4976172 C151.800832,59.9646912 151.173743,59.6982321 150.302183,59.6982321 C149.621941,59.6982321 149.021424,59.8634367 148.500613,60.1938509 C147.979803,60.524265 147.389914,61.0092205 146.73093,61.6487317 L146.73093,72.6162952 L143.064018,72.6162952 Z M160.920285,72.6162952 L160.920285,50.0416603 L164.523424,50.0416603 L164.523424,64.1428132 L164.619083,64.1428132 L170.422369,56.916372 L174.440029,56.916372 L169.083149,63.3114527 L174.982095,72.6162952 L170.996321,72.6162952 L166.978661,65.8055342 L164.523424,68.6193697 L164.523424,72.6162952 L160.920285,72.6162952 Z M178.2026,72.6162952 L178.2026,59.8261337 L176.098111,59.8261337 L176.098111,57.076249 L178.2026,56.916372 L178.2026,55.2856264 C178.2026,54.4755788 178.298258,53.7241644 178.489576,53.0313605 C178.680894,52.3385566 178.989124,51.7416884 179.414275,51.2407379 C179.839427,50.7397874 180.376172,50.3507572 181.024528,50.0736357 C181.672884,49.7965141 182.464716,49.6579554 183.400049,49.6579554 C183.952746,49.6579554 184.478863,49.7112472 184.978416,49.8178324 C185.477968,49.9244176 185.908428,50.052318 186.269806,50.2015373 L185.56831,52.951422 C184.994356,52.6956175 184.42041,52.5677171 183.846456,52.5677171 C182.528487,52.5677171 181.869512,53.4523611 181.869512,55.2216756 L181.869512,56.916372 L184.930586,56.916372 L184.930586,59.8261337 L181.869512,59.8261337 L181.869512,72.6162952 L178.2026,72.6162952 Z M192.328182,73 C190.648835,73 189.426543,72.4617528 188.661271,71.3852421 C187.895998,70.3087315 187.513368,68.7685983 187.513368,66.7647963 L187.513368,56.916372 L191.18028,56.916372 L191.18028,66.2851653 C191.18028,67.5855048 191.371595,68.5021239 191.754231,69.03505 C192.136867,69.567976 192.753327,69.834435 193.60363,69.834435 C194.283872,69.834435 194.88439,69.6639013 195.4052,69.3228286 C195.92601,68.9817559 196.484013,68.4275211 197.079225,67.6601076 L197.079225,56.916372 L200.746137,56.916372 L200.746137,72.6162952 L197.748835,72.6162952 L197.461859,70.3140661 L197.366201,70.3140661 C196.685958,71.1241137 195.947269,71.7742737 195.15011,72.2645657 C194.352952,72.7548577 193.412318,73 192.328182,73 Z M205.401521,72.6162952 L205.401521,56.916372 L208.430709,56.916372 L208.685798,59.6982321 L208.813343,59.6982321 C209.36604,58.6750141 210.035643,57.8916245 210.822173,57.34804 C211.608703,56.8044554 212.416479,56.5326672 213.245524,56.5326672 C213.989539,56.5326672 214.584741,56.6392508 215.03115,56.8524212 L214.393427,60.0499616 C214.117078,59.9646934 213.861991,59.9007432 213.628158,59.8581091 C213.394325,59.8154751 213.107352,59.7941583 212.767231,59.7941583 C212.150761,59.7941583 211.502415,60.0339715 210.822173,60.5136049 C210.141931,60.9932384 209.557357,61.8299197 209.068433,63.0236741 L209.068433,72.6162952 L205.401521,72.6162952 Z M222.811381,73 C221.897306,73 221.12673,72.8614413 220.499632,72.5843198 C219.872534,72.3071982 219.36236,71.918168 218.969095,71.4172175 C218.57583,70.916267 218.288857,70.3193988 218.108168,69.6265949 C217.927478,68.9337911 217.837135,68.1610599 217.837135,67.3083782 L217.837135,59.8261337 L215.605102,59.8261337 L215.605102,57.076249 L218.028452,56.916372 L218.474859,52.6316679 L221.535933,52.6316679 L221.535933,56.916372 L225.521707,56.916372 L225.521707,59.8261337 L221.535933,59.8261337 L221.535933,67.3083782 C221.535933,69.1416438 222.269308,70.0582629 223.73608,70.0582629 C224.012429,70.0582629 224.294087,70.0262878 224.581065,69.9623367 C224.868042,69.8983855 225.128443,69.8131186 225.362276,69.7065334 L226,72.4244427 C225.574849,72.573662 225.091246,72.7068915 224.549178,72.8241353 C224.00711,72.941379 223.42785,73 222.811381,73 Z"/>
  </g>
</svg>
