<svg xmlns="http://www.w3.org/2000/svg" xmlns:xlink="http://www.w3.org/1999/xlink" xmlns:fi="http://pattern.flaticon.com/" x="0" y="0" width="350" height="350" viewBox="0 0 350 350"><rect x="0px" y="0px" width="100%" height="100%" opacity="1" fill="#f4f4f4"/><defs><path d="M510.686,474.86L265.353,26.462c-3.75-6.839-14.958-6.839-18.708,0L1.311,474.86c-1.813,3.305-1.74,7.329,0.177,10.572    c1.917,3.242,5.406,5.234,9.177,5.234h490.667c3.771,0,7.26-1.991,9.177-5.234C512.426,482.189,512.499,478.165,510.686,474.86z     M28.666,469.332l71.741-131.003c1.257,55.884,32.025,104.507,77.346,131.003H28.666z M245.332,468.788    c-69.155-5.509-123.771-63.428-123.771-133.977s54.616-128.477,123.771-133.987V468.788z M245.332,179.491    c-25.596,1.76-49.46,9.704-70.199,22.383l70.199-128.189V179.491z M266.666,73.685l70.116,128.036    c-20.727-12.617-44.559-20.509-70.116-22.238V73.685z M266.666,200.815c69.233,5.431,123.938,63.392,123.938,133.996    s-54.704,128.555-123.938,133.986V200.815z M334.412,469.332c45.246-26.452,75.979-74.957,77.332-130.724l71.589,130.724H334.412z    " transform="matrix(0.11718795448541641 0 0 0.11718795448541641 92 328)" id="L1_0" fill="#e7e7e7"/><path d="M18.933,189.273c-0.528,0-1.038-0.209-1.414-0.586L0.586,171.755c-0.418-0.418-0.63-1.001-0.578-1.59  c0.052-0.59,0.362-1.126,0.848-1.465l16.651-11.617c-0.379-4.644,1.283-9.278,4.575-12.615c0,0,0,0,0,0  c0.009-0.009,0.018-0.018,0.026-0.026c0.002-0.002,0.004-0.004,0.006-0.006c0-0.001,0.005-0.005,0.008-0.008  c0.001-0.001,0.001-0.002,0.001-0.002l0,0c0.002-0.002,0.003-0.003,0.005-0.005h0c0.002-0.002,0.005-0.005,0.005-0.005  c0.002-0.002,0.003-0.004,0.005-0.006c0,0,0.001-0.001,0.001-0.001c0.002-0.003,0.005-0.005,0.007-0.008  c0,0,0.001-0.001,0.003-0.003c0.003-0.003,0.007-0.007,0.007-0.007h0c0.002-0.002,0.004-0.004,0.006-0.007  c0.006-0.005,0.015-0.014,0.019-0.019l0,0c0,0,0,0,0.001-0.001h0c0-0.001,0-0.001,0.001-0.001l0,0c0-0.001,0.013-0.013,0.014-0.014  c0,0,0,0,0-0.001l0,0h0c0.002-0.002,0.003-0.004,0.005-0.005c3.029-3.005,7.048-4.659,11.315-4.659c0.747,0,1.494,0.052,2.234,0.155  l26.104-24.991c-0.799-4.817,0.727-9.673,4.196-13.186c0.002-0.002,0.004-0.004,0.007-0.006c0.001-0.002,0.003-0.004,0.005-0.005  l0,0l0,0c0-0.001,0-0.001,0-0.001s0,0,0.001,0l0,0c0-0.002,0.001-0.002,0.001-0.002c0.003-0.002,0.006-0.005,0.008-0.009  c0,0,0.003-0.003,0.006-0.006c0.002-0.002,0.005-0.005,0.005-0.005l0-0.001c0,0,0,0,0.001-0.001  c0.007-0.005,0.011-0.011,0.013-0.013c0.002-0.002,0.006-0.006,0.006-0.006v-0.001c0.001,0,0.002-0.001,0.002-0.002h0l0,0l0-0.001  l0,0c0,0,0.01-0.01,0.01-0.01c2.878-2.879,6.706-4.464,10.777-4.464c1,0,1.995,0.098,2.971,0.291c0.1-0.24,0.246-0.457,0.426-0.639  c0.271-0.274,0.62-0.472,1.011-0.554l19.498-18.665c0.008-2.854,1.135-5.593,3.169-7.635c0.001,0.001,0.013-0.012,0.014-0.014  c0.036-0.036,0.072-0.072,0.108-0.107c2.144-2.086,4.997-3.193,8.013-3.066l15.31-14.656c-0.31-3.186,0.796-6.358,3.065-8.667  c0.002-0.002,0.004-0.005,0.006-0.007s0.004-0.004,0.006-0.006c0.001-0.001,0.02-0.02,0.021-0.021l0,0c0,0,0.001-0.001,0.001-0.001  h0c0.001-0.002,0.003-0.003,0.004-0.005c0.001,0.001,0.003-0.002,0.004-0.004h0c0,0,0.001-0.002,0.003-0.003  c0.002-0.003,0.006-0.006,0.006-0.007c0.002-0.002,0.004-0.004,0.006-0.006c0.003-0.003,0.007-0.007,0.007-0.008l0,0l0,0  c0,0,0,0,0,0l0,0l0,0c0-0.001,0.001-0.001,0.001-0.002c2.052-2.051,4.78-3.181,7.682-3.181c0.509,0,1.017,0.036,1.521,0.106  l15.427-14.767c-0.311-2.833,0.636-5.646,2.637-7.731c0.037-0.038,0.074-0.077,0.111-0.114c0-0.001,0.003-0.004,0.004-0.004l0,0  c0.001-0.001,0.005-0.008,0.007-0.007c0,0,0,0,0-0.001c0.002-0.002,0.004-0.004,0.006-0.006c0.001-0.001,0.002-0.003,0.004-0.004  c0.002-0.003,0.008-0.008,0.008-0.009l0,0h0l0,0c0.031-0.031,0.062-0.062,0.093-0.092c1.815-1.769,4.206-2.74,6.745-2.74  c0.488,0,0.974,0.036,1.455,0.109l13.093-12.533c2.051-1.964,3.941-2.376,5.166-2.376c1.958,0,3.631,1.069,4.366,2.791  c0.936,2.191,0.194,4.857-1.984,7.132l-12.534,13.093c0.452,2.994-0.526,6.069-2.682,8.252c-0.001,0.001-0.003,0.003-0.004,0.004h0  l0,0c-0.001,0.001-0.002-0.001-0.003,0.004c-0.001,0.001-0.002,0.002-0.003,0.003l0,0c-0.001,0.001-0.003,0.002-0.004,0.004h0l0,0  c-0.002,0.002-0.004,0.004-0.006,0.007c-0.002,0.002-0.004,0.004-0.007,0.007l0,0l0,0c-0.001,0.001-0.002,0.002-0.003,0.003  c-0.003,0.004-0.006,0.007-0.01,0.01l0,0c0,0.001-0.001,0.001-0.001,0.002c-2.07,2.069-4.96,3.083-7.872,2.775l-7.495,7.828  c0.321-0.219,0.709-0.347,1.127-0.347c1.104,0,2,0.895,2,2c0,1.104-0.896,2-2,2c-1.105,0-2-0.896-2-2  c0-0.387,0.109-0.748,0.299-1.054l-6.699,6.998c0.474,3.299-0.575,6.599-2.91,9.035c-0.041,0.043-0.083,0.086-0.125,0.128  c0,0.001-0.001-0.003-0.002,0.003l0,0l0,0c-0.002,0.003-0.004,0.004-0.006,0.006l0,0l0,0h0c-0.001,0.002-0.003,0.004-0.005,0.006  l0,0l0,0c-0.002,0.002-0.004,0.004-0.006,0.006l0,0.001l0,0c-0.002,0.002-0.004,0.004-0.006,0.006c0,0-0.001,0.001-0.001,0.001l0,0  c-0.001,0.002-0.002,0.003-0.004,0.004l0,0l0,0c-0.003,0.004-0.007,0.008-0.011,0.011l0,0c0,0.001-0.001,0.001-0.001,0.002  c-2.3,2.299-5.491,3.439-8.732,3.13l-14.656,15.309c0.124,2.94-0.933,5.772-2.979,7.923c-0.107,0.14-0.232,0.265-0.371,0.372  c-2.023,1.936-4.666,3.002-7.473,3.011l-19.891,20.777c0.878,4.222-0.077,8.692-2.646,12.171c-0.003,0.004-0.006,0.008-0.009,0.012  c0,0.001,0,0.001,0,0.001c-0.001,0-0.003,0.004-0.004,0.005l0,0l0,0c-0.001,0.002-0.002,0.003-0.003,0.005  c-0.394,0.53-0.826,1.041-1.288,1.52c-0.104,0.135-0.226,0.257-0.36,0.361c-2.858,2.772-6.616,4.297-10.607,4.297  c-0.83,0-1.658-0.067-2.476-0.201l-2.798,2.923c-0.15,0.245-0.352,0.456-0.59,0.616l-21.603,22.566  c0.652,4.681-0.793,9.458-3.967,12.981c-0.021,0.023-0.042,0.047-0.063,0.07l0,0c-0.002,0.002-0.004,0.004-0.006,0.006  c-0.002,0.003-0.003,0.005-0.005,0.007l0,0l0,0c-0.003,0.003-0.007,0.007-0.01,0.011l0,0l0,0c-0.002,0.002-0.004,0.004-0.006,0.007  h0l0,0c-0.001,0.001-0.001,0.002-0.002,0.003l0,0l0,0c-0.003,0.003-0.006,0.006-0.008,0.009c-0.096,0.104-0.193,0.208-0.292,0.311  c-0.104,0.135-0.225,0.255-0.359,0.359c-3.332,3.237-7.87,4.873-12.522,4.484l-11.617,16.65c-0.338,0.485-0.875,0.796-1.464,0.848  C19.05,189.27,18.992,189.273,18.933,189.273z M5.103,170.615l13.557,13.556l9.304-13.334c-2.168-0.796-4.14-2.055-5.805-3.721  c-1.666-1.666-2.925-3.638-3.721-5.806L5.103,170.615z M31.354,167.628c0.072,0.004,0.143,0.012,0.215,0.023  c0.647,0.105,1.309,0.159,1.965,0.159c3.151,0,6.114-1.196,8.368-3.373c0.051-0.05,0.102-0.1,0.152-0.149l0,0  c0.002-0.002,0.004-0.004,0.006-0.006c0-0.001,0.001-0.001,0.001-0.002l0,0l0,0l0,0l0,0l0,0l0,0l0,0h0  c0.001-0.002,0.003-0.003,0.004-0.005l0,0c0,0,0.001-0.001,0.002-0.002c0.12-0.12,0.236-0.241,0.349-0.365c0,0,0,0,0.001-0.001  v0.001v-0.001c0.001-0.002,0.003-0.004,0.005-0.006l0,0l0,0l0,0l0,0l0,0l0,0l0,0c0,0,0.001-0.001,0.002-0.002l0,0  c0,0,0.001-0.001,0.001-0.001l0,0l0,0l0,0c0.003,0,0.002-0.002,0.004-0.004l0,0l0,0l0,0l0,0l0,0l0,0l0,0  c0.002-0.003,0.005-0.006,0.007-0.008l0,0l0,0l0,0c0-0.001,0-0.001,0-0.001h0l0,0l0,0c0.001-0.001,0.002-0.002,0.003-0.004  c0.001-0.001,0.003-0.003,0.004-0.005l0,0h0c2.592-2.845,3.668-6.806,2.879-10.596c-0.011-0.056-0.021-0.11-0.027-0.166  c-0.498-2.232-1.617-4.268-3.244-5.896c-1.627-1.627-3.663-2.747-5.895-3.244c-0.056-0.007-0.111-0.016-0.167-0.027  c-0.814-0.17-1.65-0.256-2.483-0.256c-3.203,0-6.218,1.24-8.488,3.492c-0.001,0.001-0.001,0.004-0.004,0.004  c0,0.001,0,0.001,0,0.001c-0.001-0.001-0.002,0.002-0.004,0.004c-0.002,0.002-0.004,0.004-0.006,0.006  c-0.003,0.003-0.007,0.007-0.01,0.01c-0.004,0.004-0.007,0.007-0.011,0.011c-0.001,0.002-0.003,0.003-0.004,0.005  c-0.001,0.001-0.002,0.002-0.003,0.003l0,0l0,0.001l-0.001,0.001c0,0,0,0,0,0.001l0,0c0,0,0,0,0,0  c-0.001,0.002-0.004,0.004-0.005,0.005c-0.002,0.003-0.004,0.006-0.005,0.005c-0.002,0.002-0.003,0.004-0.005,0.006  s-0.004,0.004-0.006,0.006c0,0-0.001,0.001-0.001,0.002c-0.008,0.008-0.016,0.016-0.024,0.024c-2.69,2.727-3.925,6.621-3.305,10.427  c0.012,0.072,0.02,0.145,0.023,0.218c0.438,2.419,1.59,4.616,3.339,6.365C26.736,166.037,28.934,167.189,31.354,167.628z   M40.191,141.131c1.734,0.791,3.322,1.891,4.691,3.261s2.469,2.957,3.261,4.691l22.041-23.024c-1.496-0.735-2.869-1.716-4.062-2.908  c-1.192-1.192-2.172-2.565-2.907-4.062L40.191,141.131z M74.003,123.237c0.075,0.01,0.15,0.023,0.225,0.041  c0.879,0.215,1.785,0.323,2.691,0.323c2.999,0,5.814-1.165,7.93-3.279l0,0l0,0l0,0l0,0c0.002-0.002,0.004-0.005,0.006-0.007h0l0,0  l0,0l0,0l0,0l0,0l0,0l0,0c0.005-0.002,0.004-0.004,0.005-0.006l0,0l0,0l0,0l0,0l0,0l0,0l0,0l0.001-0.001l0,0l0,0  c0.391-0.392,0.753-0.813,1.08-1.253c0-0.001,0-0.001,0-0.001l0,0c0.001-0.001,0.001-0.002,0.002-0.002l0,0l0,0v-0.001l0,0l0,0  c0.002,0,0.002-0.002,0.003-0.004c2.069-2.796,2.72-6.471,1.742-9.829c-0.009-0.031-0.018-0.063-0.025-0.094  c-0.531-1.765-1.503-3.388-2.815-4.7c-1.311-1.311-2.931-2.281-4.692-2.813c-0.034-0.009-0.068-0.018-0.102-0.027  c-1.025-0.299-2.088-0.45-3.159-0.45c-2.934,0-5.695,1.116-7.8,3.148c-0.049,0.047-0.097,0.094-0.145,0.142  c-0.001,0.002-0.003,0.004-0.005,0.006s-0.004,0.003-0.006,0.006c-0.001,0.001-0.003,0.003-0.004,0.004  c-0.002,0.004-0.005,0.005-0.007,0.008c-0.001,0-0.002,0.001-0.003,0.002c-0.001,0.002-0.003,0.004-0.005,0.006  c-0.001,0.001-0.002,0.002-0.003,0.004c0,0-0.001,0.001-0.001,0.001c-0.002,0.003-0.004,0.005-0.007,0.007  c-2.76,2.789-3.849,6.743-2.914,10.578c0.018,0.074,0.032,0.148,0.042,0.224c0.506,1.905,1.511,3.648,2.915,5.053  S72.098,122.731,74.003,123.237z M84.205,98.996c1.27,0.694,2.442,1.57,3.472,2.601c1.03,1.03,1.906,2.202,2.601,3.472  l16.848-17.599c-1.158-0.534-2.223-1.271-3.137-2.186c-0.914-0.913-1.65-1.978-2.185-3.136L84.205,98.996z M110.967,84.432  c0.033,0.001,0.065,0.003,0.098,0.006c2.037,0.18,4.023-0.543,5.462-1.981c0.002-0.002,0.004-0.004,0.006-0.006  c0.001-0.001,0.002-0.002,0.003-0.003l0,0v-0.001l0,0c0,0,0,0,0,0c1.51-1.516,2.214-3.609,1.933-5.746  c-0.007-0.058-0.013-0.114-0.015-0.172c-0.226-1.439-0.89-2.744-1.927-3.782c-1.039-1.039-2.345-1.703-3.786-1.928  c-0.057-0.003-0.113-0.008-0.168-0.015c-2.12-0.282-4.251,0.438-5.756,1.942c0,0.003-0.002,0.002-0.003,0.004  c-0.002,0.002-0.003,0.003-0.005,0.005c-1.432,1.438-2.151,3.426-1.973,5.454c0.003,0.03,0.005,0.062,0.006,0.092  c0.16,1.566,0.859,3.039,1.976,4.155C107.933,83.571,109.403,84.27,110.967,84.432z M116.65,67.935  c0.988,0.51,1.898,1.175,2.706,1.982s1.472,1.718,1.982,2.705l11.587-12.104c-0.863-0.484-1.661-1.087-2.372-1.799  c-0.711-0.711-1.315-1.509-1.799-2.372L116.65,67.935z M136.76,57.743c0.033,0.005,0.065,0.011,0.098,0.018  c2.247,0.461,4.611-0.245,6.234-1.868c0.002-0.002,0.004-0.005,0.006-0.007l0,0l0,0l0,0l0,0l0,0l0,0l0,0  c0.001-0.001,0.002-0.002,0.002-0.002h0l0,0l0,0l0,0l0,0l0,0l0,0c0.001-0.002,0.003-0.004,0.005-0.005l0,0l0,0l0,0l0,0l0,0l0,0l0,0  c0.001-0.002,0.003-0.003,0.004-0.005l0,0l0,0l0,0l0,0l0,0l0,0l0,0c0.001-0.001,0.002-0.002,0.003-0.003l0,0l0,0l0,0l0,0l0,0l0,0  l0,0c0.002-0.002,0.003-0.004,0.005-0.006c1.694-1.714,2.356-4.142,1.77-6.494c-0.015-0.058-0.026-0.115-0.036-0.174  c-0.314-1.136-0.921-2.175-1.761-3.016c-0.841-0.841-1.883-1.448-3.021-1.763c-0.056-0.009-0.112-0.02-0.168-0.034  c-2.323-0.575-4.832,0.107-6.522,1.797c-0.001,0.004-0.002,0.003-0.003,0.004c-0.001,0.001-0.002,0.002-0.003,0.003l0,0  c-0.001,0.001-0.003,0.001-0.002,0.002c-0.002,0.002-0.004,0.004-0.006,0.006c0.001,0.003-0.002,0.003-0.003,0.004  c-0.001,0-0.002,0.001-0.003,0.003c-0.002,0.002-0.004,0.004-0.006,0.007c-0.002,0.002-0.005,0.005-0.007,0.007  c-1.607,1.63-2.292,3.947-1.833,6.199c0.007,0.034,0.013,0.068,0.018,0.103c0.28,1.277,0.919,2.442,1.85,3.374  C134.314,56.824,135.48,57.464,136.76,57.743z M143.955,41.797c0.709,0.438,1.369,0.961,1.965,1.557  c0.596,0.596,1.118,1.256,1.557,1.965l12.139-12.681c-0.594-0.378-1.149-0.821-1.653-1.326c-0.504-0.504-0.949-1.059-1.327-1.653  L143.955,41.797z M163.357,29.958c0.051,0.008,0.102,0.018,0.153,0.029c1.895,0.443,3.926-0.129,5.3-1.504  c0.002-0.002,0.003-0.004,0.005-0.006l0,0l0,0l0,0c0,0,0.001-0.001,0.002-0.002l0,0l0,0l0,0l0,0l0,0l0,0l0,0  c0.001-0.001,0.002-0.002,0.003-0.003l0,0l0,0l0,0c0-0.001,0,0,0-0.001l0,0l0,0l0,0c0.001-0.001,0.003-0.003,0.004-0.004l0,0  c0,0,0,0,0,0l0,0l0,0l0,0l0-0.001l0,0c0,0,0,0,0.001-0.001c0,0,0,0,0,0c0,0,0,0,0-0.001l0,0l0,0l0,0l0,0l0,0l0,0l0,0  c0.001,0,0.002-0.001,0.004-0.003l0,0l0,0l0,0c0-0.001,0.001-0.002,0.002-0.003c0.005-0.005,0.01-0.01,0.016-0.016  c1.414-1.442,1.954-3.548,1.407-5.503c-0.01-0.037-0.02-0.075-0.028-0.113c-0.268-0.888-0.757-1.703-1.418-2.364  c-0.66-0.66-1.475-1.148-2.361-1.417c-0.039-0.009-0.078-0.019-0.116-0.029c-1.95-0.544-4.104,0.01-5.542,1.447  c-0.001,0-0.001,0.001-0.002,0.002c0,0,0,0-0.001,0.001l-0.001,0.001l0,0h0l0,0.001l0,0c0,0-0.001,0.001-0.002,0.002l0,0  c0,0-0.002,0.002-0.004,0.004c-0.001,0-0.003,0.004-0.006,0.006c-1.377,1.39-1.934,3.365-1.487,5.283  c0.012,0.052,0.022,0.104,0.03,0.157c0.254,0.967,0.762,1.85,1.475,2.563C161.504,29.196,162.389,29.704,163.357,29.958z   M170.336,16.543c0.464,0.324,0.9,0.689,1.303,1.092c0.403,0.402,0.768,0.839,1.092,1.304L184.006,7.16  c1.141-1.191,1.422-2.263,1.195-2.795c-0.103-0.24-0.334-0.362-0.688-0.362c-0.324,0-1.207,0.123-2.399,1.265L170.336,16.543z" transform="matrix(0.3169974088668823 0 0 0.3169974088668823 209 147)" id="L1_1" fill="#e7e7e7"/><path d="M52.735,201.711c-12.136,0-46.873-1.7-51.938-20.902c-1.613-6.117-0.775-10.956,2.489-14.382  c7.58-7.956,25.203-4.482,27.188-4.06c7.789,1.657,22.872,3.607,28.572,4.318c2.004-2.537,5.619-7.678,6.023-10.913  c0.103-0.824,0.175-1.735,0.252-2.716c0.415-5.205,0.982-12.334,6.485-19.107c5.95-7.323,8.593-18.135,10.172-24.596  c0.347-1.417,0.886-4.076,1.568-7.442c3.687-18.174,8.009-38.066,12.667-44.072c4.8-6.19,8.396-8.034,10.143-8.583  c1.718-2.503,8.075-11.806,11.015-16.617c0.527-0.862,0.974-1.69,1.406-2.491c2.717-5.034,4.903-8.148,15.168-8.71  c13.25-0.727,18.285-0.358,20.72,1.515c1.122,0.863,1.814,2.053,2.484,3.203c0.846,1.455,1.577,2.71,3.044,3.311  c0.97,0.396,3.065,0.954,5.493,1.6c5.82,1.548,13.79,3.668,18.899,6.734c5.777,3.466,8.348,6.574,7.64,9.238  c-0.534,2.011-2.641,3.07-6.262,3.147c-4.405,0.094-9.266-0.451-13.55-0.933c-2.947-0.331-5.73-0.644-7.618-0.644l-0.476,0  c-4.814,0.006-5.326,0.214-5.753,2.608c-0.871,4.878-3.909,8.942-7.741,10.354c-1.27,0.468-2.53,0.905-3.572,1.256  c0.811,1.393,1.913,3.503,3.292,6.621c2.6,5.885,3.274,16.531,3.435,20.259c1.944,0.935,5.249,3.144,5.249,7.35  c0,2.942-1.076,3.933-2.178,4.694c-0.231,0.16-0.42,0.291-0.562,0.638c-0.017,0.054-0.036,0.107-0.057,0.159  c-0.094,0.303-0.163,0.74-0.203,1.408c-0.186,3.063,0.681,5.793,1.52,8.432c0.461,1.452,0.897,2.824,1.134,4.189l0.285,1.657  c0.51,2.988,0.95,5.569,1.724,8.407c0.886,3.249,1.779,5.836,3.958,10.194c1.919,3.839,4.323,12.271,5.097,15.074  c1.282,0.688,3.344,2.209,4.18,5.136c0.948,3.317-0.518,6.513-1.203,7.749l-0.042,1.239c2.486-0.172,4.596-0.339,6.485-0.499  c8.931-0.756,18.686-0.767,25.237-0.706c9.472-0.14,15.309,1.774,17.414,5.694c1.391,2.589,0.911,5.795-1.353,9.029  c-5.448,7.781-39.537,9.344-51.576,8.627c-13.907-0.831-29.009-1.489-29.16-1.496c-0.353-0.015-0.681-0.121-0.961-0.294  c-2.281,0.627-4.523,1.211-6.707,1.738c-24.344,5.876-65.735,13.066-75.421,13.507C56.52,201.65,55.03,201.711,52.735,201.711z   M19.559,165.22c-5.196,0-10.503,0.951-13.377,3.967c-2.242,2.353-2.752,5.919-1.517,10.602c4.322,16.387,39,18.445,51.997,17.851  c9.316-0.423,50.987-7.684,74.664-13.399c9.359-2.259,19.88-5.611,30.055-8.853c6.665-2.124,13.182-4.2,19.255-5.941  c-0.311,0.024-0.621,0.05-0.93,0.076c-9.072,0.768-23.194,1.688-59.153,2.687c-33.777,0.94-59.409-1.246-59.664-1.268  c-0.116-0.014-0.534-0.064-1.195-0.145c-0.026-0.002-0.053-0.006-0.079-0.009c-4.769-0.584-21.392-2.681-29.973-4.507  C26.97,165.711,23.293,165.22,19.559,165.22z M150.031,183.152c5.479,0.268,12.531,0.632,19.299,1.036  c15.627,0.935,44.554-1.918,48.06-6.928c0.957-1.367,1.926-3.317,1.106-4.842c-0.434-0.808-2.438-3.211-10.872-3.553  c-0.897-0.011-1.906-0.023-3.007-0.033c-0.221,0.003-0.444,0.008-0.672,0.014c-9.642,0.25-25.044,5.158-41.351,10.353  C158.433,180.524,154.212,181.869,150.031,183.152z M63.714,167.145c7.105,0.505,29.18,1.829,56.727,1.064  c24.605-0.684,38.942-1.329,48.432-1.913l0.073-2.147c0.013-0.372,0.129-0.732,0.335-1.041c0.012-0.018,1.675-2.607,1.002-4.962  c-0.633-2.215-2.601-2.894-2.621-2.899c-0.651-0.206-1.153-0.73-1.33-1.39c-0.029-0.11-2.969-11.048-5.06-15.23  c-2.328-4.656-3.286-7.434-4.24-10.931c-0.825-3.026-1.302-5.825-1.808-8.787l-0.282-1.644c-0.136-0.783-0.377-1.642-0.655-2.548  c-0.586,0.842-1.28,1.617-2.07,2.127c-2.302,1.487-3.438,1.608-6.185,1.9l-0.229,0.024c-0.101,0.57,0.109,1.904,0.482,2.935  c0.295,0.816,0.031,1.732-0.656,2.264c-0.686,0.532-1.636,0.562-2.354,0.07c-0.009-0.006-1.772-1.214-5.416-3.623  c-0.284-0.188-1.36-0.893-2.219-1.455l-0.325-0.213c-0.214-0.141-0.431-0.256-0.647-0.346c-0.923,1.373-2.99,1.717-7.047,2.282  c-0.722,0.101-1.464,0.204-2.195,0.317c-3.961,0.617-17.593,3.322-17.73,3.349c-1,0.198-1.985-0.385-2.295-1.354  c-0.309-0.969,0.159-2.016,1.087-2.433c0.03-0.013,3.024-1.357,5.181-2.474c1.138-0.589,3.962-1.952,6.515-3.174  c-5.333-1.762-14.976-11.56-17.86-18.167c-2.491-5.707,0-11.018,1.273-13.154c-1.627,0.213-2.69,0.541-2.72,0.55  c-1.049,0.333-2.175-0.247-2.511-1.297c-0.335-1.051,0.24-2.173,1.29-2.512c0.42-0.136,10.392-3.251,18.074,2.686  c4.096,3.165,6.595,7.875,9.011,12.431c1.953,3.682,3.973,7.489,6.82,10.472c4.929,5.164,7.575,3.218,10.639,0.964  c0.243-0.179,0.479-0.353,0.71-0.518c2.849-2.032,8.255-5,10.102-5.999c0.481-0.94,1.122-1.465,1.766-1.91  c0.107-0.074,0.271-0.187,0.305-0.228c0,0,0.147-0.25,0.147-1.176c0-2.855-3.754-4.068-3.792-4.08  c-0.817-0.257-1.391-1.009-1.41-1.866c-0.003-0.137-0.342-13.714-3.141-20.047c-2.742-6.207-4.229-7.983-4.244-8  c-0.436-0.51-0.596-1.216-0.411-1.861c0.185-0.645,0.67-1.166,1.31-1.368c0.03-0.009,2.988-0.946,5.902-2.019  c2.069-0.762,4.475-3.316,5.187-7.304c1.056-5.915,5.249-5.899,9.696-5.905l0.471,0c2.112,0,4.87,0.31,8.064,0.668  c4.16,0.468,8.878,0.996,13.019,0.909c1.28-0.027,1.975-0.186,2.325-0.308c-0.424-0.73-1.9-2.383-5.676-4.648  c-4.625-2.775-12.281-4.812-17.87-6.298c-2.666-0.709-4.771-1.269-5.979-1.763c-2.726-1.115-3.979-3.27-4.987-5  c-0.497-0.854-0.967-1.661-1.466-2.045c-2.04-1.568-13.267-0.954-18.062-0.691c-8.549,0.468-9.658,2.522-11.867,6.616  c-0.436,0.808-0.93,1.724-1.513,2.678c-3.457,5.657-11.239,16.955-11.568,17.433c-0.34,0.494-0.884,0.809-1.481,0.858c0,0,0,0,0,0  c0.029,0-3.201,0.62-8.36,7.273c-4.475,5.77-9.495,30.521-11.908,42.416c-0.691,3.41-1.238,6.103-1.603,7.597  c-1.66,6.788-4.437,18.147-10.954,26.168c-2.225,2.739-3.51,5.554-4.288,8.283c0.431,0.566,1.295,1.172,2.941,0.72  c1.931-0.531,3.499-1.446,5.016-2.331c1.556-0.907,3.025-1.764,4.658-2.025c2.058-0.329,4.051-0.658,4.813-0.785  c1.559-0.833,8.665-4.618,10.827-5.502c0.183-0.075,0.44-0.188,0.768-0.332c11.304-4.954,22.594-7.339,33.564-7.069  c17.031,0.408,23.427,9.484,25.835,12.9c0.197,0.279,0.362,0.516,0.503,0.699c2.015,2.606,2.842,5.739,2.876,5.871  c0.22,0.849-0.139,1.743-0.886,2.204c-0.748,0.461-1.707,0.38-2.367-0.197c-0.041-0.036-4.668-3.968-11.51-4.343  c-3.058-0.167-5.568-0.2-7.586-0.227c-3.146-0.042-5.418-0.071-7.398-0.566c-0.651-0.163-1.342-0.365-2.068-0.578  c-2.441-0.715-5.21-1.525-8.018-1.166c-1.797,0.23-3.21,0.689-4.577,1.133c-1.554,0.504-3.16,1.025-5.071,1.089l0,0  c-3.04,0.1-21.934,0.011-24.08,0.002c-0.606,0.101-2.762,0.458-4.994,0.815c-0.895,0.143-1.998,0.786-3.274,1.531  c-1.575,0.919-3.536,2.062-5.97,2.731c-2.006,0.551-3.627,0.309-4.882-0.29c-0.21,1.515-0.326,2.969-0.434,4.333  c-0.083,1.045-0.162,2.016-0.271,2.895C68.592,159.831,65.803,164.257,63.714,167.145z M124.017,137.94  c2.885,0,5.521,0.772,7.716,1.416c0.671,0.197,1.311,0.385,1.914,0.535c1.528,0.382,3.605,0.409,6.48,0.447  c2.055,0.027,4.612,0.061,7.753,0.232c2.937,0.161,5.516,0.855,7.631,1.691c-2.28-3.203-7.973-10.487-22.397-10.833  c-10.384-0.244-21.099,2.017-31.863,6.733c-0.367,0.161-0.655,0.287-0.859,0.37c-0.689,0.282-2.058,0.955-3.622,1.751  c6.28,0.02,14.229,0.03,16.041-0.031l0,0c1.346-0.044,2.561-0.439,3.968-0.896c1.47-0.477,3.136-1.018,5.303-1.296  C122.738,137.977,123.384,137.94,124.017,137.94z M133.714,114.176c0.209,0,0.43,0.015,0.661,0.043  c1.088,0.135,2.143,0.533,3.133,1.181l0.325,0.213c0.866,0.567,1.951,1.277,2.235,1.466c0.652,0.431,1.245,0.824,1.778,1.179  c0.088-0.625,0.275-1.23,0.607-1.764c0.597-0.96,1.574-1.558,2.752-1.684l0.406-0.043c2.544-0.271,2.936-0.312,4.437-1.282  c0.948-0.613,2.116-2.978,2.624-4.419c-0.245-1.165-0.418-2.39-0.458-3.685c-2.286,1.283-5.221,2.991-6.982,4.247  c-0.215,0.153-0.435,0.315-0.662,0.482c-2.986,2.197-8.544,6.287-15.903-1.424c-3.229-3.382-5.38-7.438-7.46-11.359  c-2.32-4.374-4.511-8.504-7.923-11.141c-2.345-1.812-5.048-2.523-7.475-2.715c0.091,0.524-0.025,1.083-0.369,1.542  c-0.099,0.136-3.648,5.098-1.45,10.134c2.598,5.952,11.583,14.739,15.484,15.98c3.258,1.037,4.26,1.236,4.486,1.272  c0.809,0.019,1.55,0.53,1.835,1.325c0.347,0.968-0.097,2.042-1.026,2.482c-0.032,0.016-1.202,0.57-2.792,1.329  c1.147-0.208,2.131-0.378,2.834-0.487c0.752-0.117,1.516-0.224,2.259-0.327c1.251-0.174,3.002-0.417,3.978-0.667  c0.07-0.323,0.209-0.627,0.417-0.9C131.96,114.503,132.715,114.176,133.714,114.176z" transform="matrix(0.26929861307144165 0 0 0.26929861307144165 39 145.00000078896073)" id="L1_2" fill="#e7e7e7"/><g transform="matrix(0.1171875 0 0 0.1171875 274 -16)" id="L1_3"><path d="M256,448c-23.521,0-42.667-19.135-42.667-42.667c0-5.896-4.771-10.667-10.667-10.667     c-5.896,0-10.667,4.771-10.667,10.667c0,35.292,28.708,64,64,64c5.896,0,10.667-4.771,10.667-10.667     C266.667,452.77,261.896,448,256,448z" fill="#e7e7e7"/><path d="M512,64c0-23.875-20.75-55.698-23.125-59.25C486.167,0.666,481-1,476.458,0.604c-4.604,1.625-7.521,6.167-7.083,11.031     c5.167,56.771-28.083,73.635-63.271,91.49c-30.354,15.406-64.771,32.854-64.771,78.208c0,22.417,5.438,34.594,10.708,46.354     c5.458,12.229,10.625,23.771,10.625,49.646c0,33.223-16.763,50.956-26.438,58.477c-19.573-22.557-48.092-37.143-80.229-37.143     c-32.132,0-60.648,14.583-80.221,37.134c-9.615-7.492-26.445-25.241-26.445-58.467c0-25.875,5.167-37.417,10.625-49.646     c5.271-11.76,10.708-23.938,10.708-46.354c0-45.354-34.417-62.802-64.771-78.208C70.708,85.27,37.458,68.406,42.625,11.635     c0.438-4.865-2.479-9.406-7.083-11.031C30.938-0.98,25.833,0.687,23.125,4.75C20.75,8.302,0,40.125,0,64     c0,20.906,0.375,24.24,9,41.802c-4.063,7.26-9,20.781-9,43.531c0,28.594,20.729,49.333,31.083,57.896     c-2,18.427,3.167,48.167,33.604,66.146c3.105,14.852,19.409,47.967,97.827,81.676c-8.135,15.052-13.181,32.007-13.181,50.283     C149.333,464.145,197.188,512,256,512s106.667-47.854,106.667-106.667c0-18.279-5.048-35.236-13.185-50.289     c78.405-33.704,94.725-66.819,97.831-81.669c30.417-17.979,35.604-47.719,33.604-66.146C491.271,198.666,512,177.927,512,149.333     c0-22.75-4.938-36.271-9-43.531C511.625,88.239,512,84.906,512,64z M136.167,318.427c-49.979-28.521-50.854-50.792-50.875-50.792     c0.396-4.375-1.917-8.542-5.854-10.51c-34.229-17.104-26.75-50.521-26.417-51.875c1.083-4.344-0.688-8.927-4.417-11.438     c-0.271-0.188-27.271-18.719-27.271-44.479c0-25.833,7.583-35.146,7.542-35.146v0.01c3.25-3.25,4.042-8.208,2-12.313     C21.333,82.812,21.333,82.812,21.333,64c0-4.021,1.042-8.75,2.667-13.677c10.417,40.469,44.021,57.51,72.25,71.833     c32.917,16.698,53.083,28.49,53.083,59.177c0,17.865-4.104,27.031-8.854,37.646C134.625,232.073,128,246.906,128,277.333     C128,293.802,131.333,307.385,136.167,318.427z M256,490.666c-47.063,0-85.333-38.281-85.333-85.333     C170.667,358.281,208.938,320,256,320s85.333,38.281,85.333,85.333C341.333,452.385,303.063,490.666,256,490.666z      M482.854,113.927c0.083,0.083,7.813,9.323,7.813,35.406c0,25.76-27,44.292-27.271,44.479c-3.729,2.51-5.5,7.094-4.417,11.438     c0.354,1.406,8.208,34.573-26.417,51.875c-3.604,1.802-5.875,6-5.875,10.031c0,0.281-0.771,22.656-50.854,51.26     c4.854-11.052,8.167-24.625,8.167-41.083c0-30.427-6.625-45.26-12.479-58.354c-4.75-10.615-8.854-19.781-8.854-37.646     c0-30.688,20.167-42.479,53.083-59.177c28.229-14.323,61.833-31.365,72.25-71.833c1.625,4.927,2.667,9.656,2.667,13.677     c0,18.813,0,18.813-9.542,37.885C479.208,105.739,480.042,110.666,482.854,113.927z" fill="#e7e7e7"/></g></defs><g fi:class="KUsePattern"><pattern id="pattern_L1_0" width="350" height="350" patternUnits="userSpaceOnUse"><use xlink:href="#L1_0" x="-350" y="-350"/><use xlink:href="#L1_0" x="0" y="-350"/><use xlink:href="#L1_0" x="350" y="-350"/><use xlink:href="#L1_0" x="-350" y="0"/><use xlink:href="#L1_0" x="0" y="0"/><use xlink:href="#L1_0" x="350" y="0"/><use xlink:href="#L1_0" x="-350" y="350"/><use xlink:href="#L1_0" x="0" y="350"/><use xlink:href="#L1_0" x="350" y="350"/></pattern><rect x="0" y="0" width="100%" height="100%" fill="url(#pattern_L1_0)"/></g><g fi:class="KUsePattern"><pattern id="pattern_L1_1" width="350" height="350" patternUnits="userSpaceOnUse"><use xlink:href="#L1_1" x="-350" y="-350"/><use xlink:href="#L1_1" x="0" y="-350"/><use xlink:href="#L1_1" x="350" y="-350"/><use xlink:href="#L1_1" x="-350" y="0"/><use xlink:href="#L1_1" x="0" y="0"/><use xlink:href="#L1_1" x="350" y="0"/><use xlink:href="#L1_1" x="-350" y="350"/><use xlink:href="#L1_1" x="0" y="350"/><use xlink:href="#L1_1" x="350" y="350"/></pattern><rect x="0" y="0" width="100%" height="100%" fill="url(#pattern_L1_1)"/></g><g fi:class="KUsePattern"><pattern id="pattern_L1_2" width="350" height="350" patternUnits="userSpaceOnUse"><use xlink:href="#L1_2" x="-350" y="-350"/><use xlink:href="#L1_2" x="0" y="-350"/><use xlink:href="#L1_2" x="350" y="-350"/><use xlink:href="#L1_2" x="-350" y="0"/><use xlink:href="#L1_2" x="0" y="0"/><use xlink:href="#L1_2" x="350" y="0"/><use xlink:href="#L1_2" x="-350" y="350"/><use xlink:href="#L1_2" x="0" y="350"/><use xlink:href="#L1_2" x="350" y="350"/></pattern><rect x="0" y="0" width="100%" height="100%" fill="url(#pattern_L1_2)"/></g><g fi:class="KUsePattern"><pattern id="pattern_L1_3" width="350" height="350" patternUnits="userSpaceOnUse"><use xlink:href="#L1_3" x="-350" y="-350"/><use xlink:href="#L1_3" x="0" y="-350"/><use xlink:href="#L1_3" x="350" y="-350"/><use xlink:href="#L1_3" x="-350" y="0"/><use xlink:href="#L1_3" x="0" y="0"/><use xlink:href="#L1_3" x="350" y="0"/><use xlink:href="#L1_3" x="-350" y="350"/><use xlink:href="#L1_3" x="0" y="350"/><use xlink:href="#L1_3" x="350" y="350"/></pattern><rect x="0" y="0" width="100%" height="100%" fill="url(#pattern_L1_3)"/></g></svg>