<svg xmlns="http://www.w3.org/2000/svg" xmlns:svg="http://www.w3.org/2000/svg" id="svg2" width="100%" height="100%" version="1.1" viewBox="0 0 630 630"><rect id="background" width="630" height="630" x="0" y="0" style="fill:#f7df1e"/><g id="g1" transform="matrix(3.7968163,0,0,3.7968163,304.37489,337.95712)"><polygon id="polygon1" points="6 28.606 6 47.699 21.989 47.699 39.389 62.75 39.389 13.769 39.389 13.769 22.235 28.606" style="fill:#111;stroke:#111;stroke-width:5;stroke-linejoin:round"/><path id="path1" d="m 48.128,49.03 c 1.929,-3.096 3.062,-6.739 3.062,-10.653 0,-3.978 -1.164,-7.674 -3.147,-10.8" style="fill:none;stroke:#111;stroke-width:5;stroke-linecap:round"/><path id="path2" d="m 55.082,20.537 c 3.695,4.986 5.884,11.157 5.884,17.84 0,6.621 -2.151,12.738 -5.788,17.699" style="fill:none;stroke:#111;stroke-width:5;stroke-linecap:round"/><path id="path8" d="m 61.71,62.611 c 5.267,-6.666 8.418,-15.08 8.418,-24.233 0,-9.217 -3.192,-17.682 -8.519,-24.368" style="fill:none;stroke:#111;stroke-width:5;stroke-linecap:round"/></g><metadata id="metadata12"/></svg>