<svg width="331" height="340" viewBox="0 0 331 340" fill="none" xmlns="http://www.w3.org/2000/svg">
<g clip-path="url(#clip0)">
<rect width="331" height="340" fill="white"/>
<rect width="331" height="60" fill="#EEEEEE"/>
<path d="M152.188 43.7373C152.089 45.1143 151.579 46.1982 150.659 46.9893C149.745 47.7803 148.538 48.1758 147.038 48.1758C145.397 48.1758 144.105 47.625 143.162 46.5234C142.225 45.416 141.756 43.8984 141.756 41.9707V41.1885C141.756 39.958 141.973 38.874 142.406 37.9365C142.84 36.999 143.458 36.2812 144.261 35.7832C145.069 35.2793 146.007 35.0273 147.073 35.0273C148.55 35.0273 149.739 35.4229 150.642 36.2139C151.544 37.0049 152.065 38.1152 152.206 39.5449H149.569C149.505 38.7188 149.273 38.1211 148.875 37.752C148.482 37.377 147.882 37.1895 147.073 37.1895C146.194 37.1895 145.535 37.5059 145.096 38.1387C144.662 38.7656 144.439 39.7412 144.428 41.0654V42.0322C144.428 43.415 144.636 44.4258 145.052 45.0645C145.474 45.7031 146.136 46.0225 147.038 46.0225C147.853 46.0225 148.459 45.8379 148.857 45.4688C149.262 45.0938 149.493 44.5166 149.552 43.7373H152.188ZM156.434 48H153.885V34.5H156.434V48ZM161.215 48H158.666V38.4902H161.215V48ZM158.517 36.0293C158.517 35.6484 158.643 35.335 158.895 35.0889C159.152 34.8428 159.501 34.7197 159.94 34.7197C160.374 34.7197 160.72 34.8428 160.978 35.0889C161.235 35.335 161.364 35.6484 161.364 36.0293C161.364 36.416 161.232 36.7324 160.969 36.9785C160.711 37.2246 160.368 37.3477 159.94 37.3477C159.513 37.3477 159.167 37.2246 158.903 36.9785C158.646 36.7324 158.517 36.416 158.517 36.0293ZM167.692 48.1758C166.298 48.1758 165.161 47.748 164.282 46.8926C163.409 46.0371 162.973 44.8975 162.973 43.4736V43.2275C162.973 42.2725 163.157 41.4199 163.526 40.6699C163.896 39.9141 164.417 39.334 165.091 38.9297C165.771 38.5195 166.544 38.3145 167.411 38.3145C168.712 38.3145 169.734 38.7246 170.479 39.5449C171.229 40.3652 171.604 41.5283 171.604 43.0342V44.0713H165.548C165.63 44.6924 165.876 45.1904 166.286 45.5654C166.702 45.9404 167.227 46.1279 167.859 46.1279C168.838 46.1279 169.603 45.7734 170.153 45.0645L171.401 46.4619C171.021 47.001 170.505 47.4229 169.854 47.7275C169.204 48.0264 168.483 48.1758 167.692 48.1758ZM167.402 40.3711C166.898 40.3711 166.488 40.541 166.172 40.8809C165.861 41.2207 165.662 41.707 165.574 42.3398H169.107V42.1377C169.096 41.5752 168.943 41.1416 168.65 40.8369C168.357 40.5264 167.941 40.3711 167.402 40.3711ZM175.392 38.4902L175.471 39.5889C176.15 38.7393 177.062 38.3145 178.204 38.3145C179.212 38.3145 179.962 38.6104 180.454 39.2021C180.946 39.7939 181.198 40.6787 181.21 41.8564V48H178.67V41.918C178.67 41.3789 178.553 40.9893 178.318 40.749C178.084 40.5029 177.694 40.3799 177.149 40.3799C176.435 40.3799 175.898 40.6846 175.541 41.2939V48H173.001V38.4902H175.392ZM186.185 36.1523V38.4902H187.811V40.3535H186.185V45.0996C186.185 45.4512 186.252 45.7031 186.387 45.8555C186.521 46.0078 186.779 46.084 187.16 46.084C187.441 46.084 187.69 46.0635 187.907 46.0225V47.9473C187.409 48.0996 186.896 48.1758 186.369 48.1758C184.588 48.1758 183.68 47.2764 183.645 45.4775V40.3535H182.256V38.4902H183.645V36.1523H186.185Z" fill="black"/>
<path d="M46.7344 15C46.6719 14.875 46.6211 14.6523 46.582 14.332C46.0781 14.8555 45.4766 15.1172 44.7773 15.1172C44.1523 15.1172 43.6387 14.9414 43.2363 14.5898C42.8379 14.2344 42.6387 13.7852 42.6387 13.2422C42.6387 12.582 42.8887 12.0703 43.3887 11.707C43.8926 11.3398 44.5996 11.1562 45.5098 11.1562H46.5645V10.6582C46.5645 10.2793 46.4512 9.97852 46.2246 9.75586C45.998 9.5293 45.6641 9.41602 45.2227 9.41602C44.8359 9.41602 44.5117 9.51367 44.25 9.70898C43.9883 9.9043 43.8574 10.1406 43.8574 10.418H42.7676C42.7676 10.1016 42.8789 9.79688 43.1016 9.50391C43.3281 9.20703 43.6328 8.97266 44.0156 8.80078C44.4023 8.62891 44.8262 8.54297 45.2871 8.54297C46.0176 8.54297 46.5898 8.72656 47.0039 9.09375C47.418 9.45703 47.6328 9.95898 47.6484 10.5996V13.5176C47.6484 14.0996 47.7227 14.5625 47.8711 14.9062V15H46.7344ZM44.9355 14.1738C45.2754 14.1738 45.5977 14.0859 45.9023 13.9102C46.207 13.7344 46.4277 13.5059 46.5645 13.2246V11.9238H45.7148C44.3867 11.9238 43.7227 12.3125 43.7227 13.0898C43.7227 13.4297 43.8359 13.6953 44.0625 13.8867C44.2891 14.0781 44.5801 14.1738 44.9355 14.1738ZM49.5645 15.7324H48.6328L52.1953 6.46875H53.1211L49.5645 15.7324ZM59.1738 12.7734H55.5996L54.7969 15H53.6367L56.8945 6.46875H57.8789L61.1426 15H59.9883L59.1738 12.7734ZM55.9395 11.8477H58.8398L57.3867 7.85742L55.9395 11.8477ZM68.4609 10.7227L68.8945 6.46875H73.2656V7.4707H69.8145L69.5566 9.79688C69.9746 9.55078 70.4492 9.42773 70.9805 9.42773C71.7578 9.42773 72.375 9.68555 72.832 10.2012C73.2891 10.7129 73.5176 11.4062 73.5176 12.2812C73.5176 13.1602 73.2793 13.8535 72.8027 14.3613C72.3301 14.8652 71.668 15.1172 70.8164 15.1172C70.0625 15.1172 69.4473 14.9082 68.9707 14.4902C68.4941 14.0723 68.2227 13.4941 68.1562 12.7559H69.1816C69.248 13.2441 69.4219 13.6133 69.7031 13.8633C69.9844 14.1094 70.3555 14.2324 70.8164 14.2324C71.3203 14.2324 71.7148 14.0605 72 13.7168C72.2891 13.373 72.4336 12.8984 72.4336 12.293C72.4336 11.7227 72.2773 11.2656 71.9648 10.9219C71.6562 10.5742 71.2441 10.4004 70.7285 10.4004C70.2559 10.4004 69.8848 10.5039 69.6152 10.7109L69.3281 10.9453L68.4609 10.7227ZM81.2812 13.8809C80.9922 14.2949 80.5879 14.6055 80.0684 14.8125C79.5527 15.0156 78.9512 15.1172 78.2637 15.1172C77.5684 15.1172 76.9512 14.9551 76.4121 14.6309C75.873 14.3027 75.4551 13.8379 75.1582 13.2363C74.8652 12.6348 74.7148 11.9375 74.707 11.1445V10.4004C74.707 9.11523 75.0059 8.11914 75.6035 7.41211C76.2051 6.70508 77.0488 6.35156 78.1348 6.35156C79.0254 6.35156 79.7422 6.58008 80.2852 7.03711C80.8281 7.49023 81.1602 8.13477 81.2812 8.9707H80.1562C79.9453 7.8418 79.2734 7.27734 78.1406 7.27734C77.3867 7.27734 76.8145 7.54297 76.4238 8.07422C76.0371 8.60156 75.8418 9.36719 75.8379 10.3711V11.0684C75.8379 12.0254 76.0566 12.7871 76.4941 13.3535C76.9316 13.916 77.5234 14.1973 78.2695 14.1973C78.6914 14.1973 79.0605 14.1504 79.377 14.0566C79.6934 13.9629 79.9551 13.8047 80.1621 13.582V11.666H78.1875V10.752H81.2812V13.8809Z" fill="black"/>
<path d="M262.863 11.25C262.637 11.5195 262.365 11.7363 262.049 11.9004C261.736 12.0645 261.393 12.1465 261.018 12.1465C260.525 12.1465 260.096 12.0254 259.729 11.7832C259.365 11.541 259.084 11.2012 258.885 10.7637C258.686 10.3223 258.586 9.83594 258.586 9.30469C258.586 8.73438 258.693 8.2207 258.908 7.76367C259.127 7.30664 259.436 6.95703 259.834 6.71484C260.232 6.47266 260.697 6.35156 261.229 6.35156C262.072 6.35156 262.736 6.66797 263.221 7.30078C263.709 7.92969 263.953 8.78906 263.953 9.87891V10.1953C263.953 11.8555 263.625 13.0684 262.969 13.834C262.312 14.5957 261.322 14.9863 259.998 15.0059H259.787V14.0918H260.016C260.91 14.0762 261.598 13.8438 262.078 13.3945C262.559 12.9414 262.82 12.2266 262.863 11.25ZM261.193 11.25C261.557 11.25 261.891 11.1387 262.195 10.916C262.504 10.6934 262.729 10.418 262.869 10.0898V9.65625C262.869 8.94531 262.715 8.36719 262.406 7.92188C262.098 7.47656 261.707 7.25391 261.234 7.25391C260.758 7.25391 260.375 7.4375 260.086 7.80469C259.797 8.16797 259.652 8.64844 259.652 9.24609C259.652 9.82812 259.791 10.3086 260.068 10.6875C260.35 11.0625 260.725 11.25 261.193 11.25ZM269.602 11.25C269.375 11.5195 269.104 11.7363 268.787 11.9004C268.475 12.0645 268.131 12.1465 267.756 12.1465C267.264 12.1465 266.834 12.0254 266.467 11.7832C266.104 11.541 265.822 11.2012 265.623 10.7637C265.424 10.3223 265.324 9.83594 265.324 9.30469C265.324 8.73438 265.432 8.2207 265.646 7.76367C265.865 7.30664 266.174 6.95703 266.572 6.71484C266.971 6.47266 267.436 6.35156 267.967 6.35156C268.811 6.35156 269.475 6.66797 269.959 7.30078C270.447 7.92969 270.691 8.78906 270.691 9.87891V10.1953C270.691 11.8555 270.363 13.0684 269.707 13.834C269.051 14.5957 268.061 14.9863 266.736 15.0059H266.525V14.0918H266.754C267.648 14.0762 268.336 13.8438 268.816 13.3945C269.297 12.9414 269.559 12.2266 269.602 11.25ZM267.932 11.25C268.295 11.25 268.629 11.1387 268.934 10.916C269.242 10.6934 269.467 10.418 269.607 10.0898V9.65625C269.607 8.94531 269.453 8.36719 269.145 7.92188C268.836 7.47656 268.445 7.25391 267.973 7.25391C267.496 7.25391 267.113 7.4375 266.824 7.80469C266.535 8.16797 266.391 8.64844 266.391 9.24609C266.391 9.82812 266.529 10.3086 266.807 10.6875C267.088 11.0625 267.463 11.25 267.932 11.25ZM272.092 8.10938C272.092 7.59766 272.254 7.17578 272.578 6.84375C272.906 6.51172 273.326 6.3457 273.838 6.3457C274.357 6.3457 274.777 6.51367 275.098 6.84961C275.422 7.18164 275.584 7.61328 275.584 8.14453V8.56055C275.584 9.07617 275.42 9.49805 275.092 9.82617C274.768 10.1504 274.354 10.3125 273.85 10.3125C273.342 10.3125 272.922 10.1504 272.59 9.82617C272.258 9.49805 272.092 9.0625 272.092 8.51953V8.10938ZM272.9 8.56055C272.9 8.86523 272.986 9.11719 273.158 9.31641C273.33 9.51172 273.561 9.60938 273.85 9.60938C274.127 9.60938 274.35 9.51367 274.518 9.32227C274.689 9.13086 274.775 8.86914 274.775 8.53711V8.10938C274.775 7.80469 274.691 7.55273 274.523 7.35352C274.355 7.1543 274.127 7.05469 273.838 7.05469C273.549 7.05469 273.32 7.1543 273.152 7.35352C272.984 7.55273 272.9 7.8125 272.9 8.13281V8.56055ZM276.246 12.9082C276.246 12.3965 276.408 11.9766 276.732 11.6484C277.061 11.3164 277.48 11.1504 277.992 11.1504C278.504 11.1504 278.924 11.3145 279.252 11.6426C279.58 11.9707 279.744 12.4062 279.744 12.9492V13.3652C279.744 13.877 279.58 14.2988 279.252 14.6309C278.928 14.959 278.512 15.123 278.004 15.123C277.496 15.123 277.076 14.9609 276.744 14.6367C276.412 14.3086 276.246 13.873 276.246 13.3301V12.9082ZM277.055 13.3652C277.055 13.6738 277.141 13.9277 277.312 14.127C277.484 14.3223 277.715 14.4199 278.004 14.4199C278.285 14.4199 278.51 14.3242 278.678 14.1328C278.846 13.9375 278.93 13.6738 278.93 13.3418V12.9082C278.93 12.5996 278.844 12.3477 278.672 12.1523C278.504 11.957 278.277 11.8594 277.992 11.8594C277.715 11.8594 277.488 11.957 277.312 12.1523C277.141 12.3438 277.055 12.6035 277.055 12.9316V13.3652ZM274.096 14.3555L273.48 13.9688L277.646 7.30078L278.262 7.6875L274.096 14.3555Z" fill="black"/>
<rect x="286" y="6" width="24" height="9" fill="#010101"/>
<rect x="286.5" y="6.5" width="27" height="8" stroke="black"/>
<path d="M148.141 9.73633C148.141 10.1504 148.037 10.5176 147.83 10.8379C147.623 11.1582 147.338 11.4141 146.975 11.6055C147.389 11.8047 147.717 12.0801 147.959 12.4316C148.201 12.7793 148.322 13.1895 148.322 13.6621C148.322 14.4199 148.064 15.0195 147.549 15.4609C147.033 15.8984 146.332 16.1172 145.445 16.1172C144.559 16.1172 143.855 15.8965 143.336 15.4551C142.816 15.0137 142.557 14.416 142.557 13.6621C142.557 13.1895 142.678 12.7773 142.92 12.4258C143.162 12.0742 143.488 11.8008 143.898 11.6055C143.535 11.4141 143.25 11.1582 143.043 10.8379C142.84 10.5176 142.738 10.1504 142.738 9.73633C142.738 9.00977 142.98 8.43164 143.465 8.00195C143.949 7.56836 144.607 7.35156 145.439 7.35156C146.268 7.35156 146.924 7.56641 147.408 7.99609C147.896 8.42188 148.141 9.00195 148.141 9.73633ZM146.623 13.5391C146.623 13.168 146.516 12.8711 146.301 12.6484C146.086 12.4258 145.797 12.3145 145.434 12.3145C145.074 12.3145 144.787 12.4258 144.572 12.6484C144.357 12.8672 144.25 13.1641 144.25 13.5391C144.25 13.9023 144.355 14.1953 144.566 14.418C144.777 14.6406 145.07 14.752 145.445 14.752C145.812 14.752 146.1 14.6445 146.307 14.4297C146.518 14.2148 146.623 13.918 146.623 13.5391ZM146.447 9.81836C146.447 9.48633 146.359 9.2207 146.184 9.02148C146.008 8.81836 145.76 8.7168 145.439 8.7168C145.123 8.7168 144.877 8.81445 144.701 9.00977C144.525 9.20508 144.438 9.47461 144.438 9.81836C144.438 10.1582 144.525 10.4316 144.701 10.6387C144.877 10.8457 145.125 10.9492 145.445 10.9492C145.766 10.9492 146.012 10.8457 146.184 10.6387C146.359 10.4316 146.447 10.1582 146.447 9.81836ZM149.623 15.168C149.623 14.8984 149.713 14.6797 149.893 14.5117C150.076 14.3438 150.305 14.2598 150.578 14.2598C150.855 14.2598 151.084 14.3438 151.264 14.5117C151.447 14.6797 151.539 14.8984 151.539 15.168C151.539 15.4336 151.449 15.6504 151.27 15.8184C151.09 15.9824 150.859 16.0645 150.578 16.0645C150.301 16.0645 150.072 15.9824 149.893 15.8184C149.713 15.6504 149.623 15.4336 149.623 15.168ZM149.623 10.3691C149.623 10.0996 149.713 9.88086 149.893 9.71289C150.076 9.54492 150.305 9.46094 150.578 9.46094C150.855 9.46094 151.084 9.54492 151.264 9.71289C151.447 9.88086 151.539 10.0996 151.539 10.3691C151.539 10.6348 151.449 10.8516 151.27 11.0195C151.09 11.1836 150.859 11.2656 150.578 11.2656C150.301 11.2656 150.072 11.1836 149.893 11.0195C149.713 10.8516 149.623 10.6348 149.623 10.3691ZM158.6 12.4727C158.6 13.6523 158.355 14.5547 157.867 15.1797C157.379 15.8047 156.664 16.1172 155.723 16.1172C154.793 16.1172 154.082 15.8105 153.59 15.1973C153.098 14.584 152.846 13.7051 152.834 12.5605V10.9902C152.834 9.79883 153.08 8.89453 153.572 8.27734C154.068 7.66016 154.781 7.35156 155.711 7.35156C156.641 7.35156 157.352 7.6582 157.844 8.27148C158.336 8.88086 158.588 9.75781 158.6 10.9023V12.4727ZM156.906 10.75C156.906 10.043 156.809 9.5293 156.613 9.20898C156.422 8.88477 156.121 8.72266 155.711 8.72266C155.312 8.72266 155.018 8.87695 154.826 9.18555C154.639 9.49023 154.539 9.96875 154.527 10.6211V12.6953C154.527 13.3906 154.621 13.9082 154.809 14.248C155 14.584 155.305 14.752 155.723 14.752C156.137 14.752 156.436 14.5898 156.619 14.2656C156.803 13.9414 156.898 13.4453 156.906 12.7773V10.75ZM164.758 12.7891H165.725V14.1543H164.758V16H163.064V14.1543H159.566L159.49 13.0879L163.047 7.46875H164.758V12.7891ZM161.178 12.7891H163.064V9.77734L162.953 9.9707L161.178 12.7891ZM171.566 12.9941V16H169.809V7.46875H173.137C173.777 7.46875 174.34 7.58594 174.824 7.82031C175.312 8.05469 175.688 8.38867 175.949 8.82227C176.211 9.25195 176.342 9.74219 176.342 10.293C176.342 11.1289 176.055 11.7891 175.48 12.2734C174.91 12.7539 174.119 12.9941 173.107 12.9941H171.566ZM171.566 11.5703H173.137C173.602 11.5703 173.955 11.4609 174.197 11.2422C174.443 11.0234 174.566 10.7109 174.566 10.3047C174.566 9.88672 174.443 9.54883 174.197 9.29102C173.951 9.0332 173.611 8.90039 173.178 8.89258H171.566V11.5703ZM179.852 7.46875L182.043 13.6562L184.223 7.46875H186.531V16H184.768V13.668L184.943 9.64258L182.641 16H181.434L179.137 9.64844L179.312 13.668V16H177.555V7.46875H179.852Z" fill="black"/>
<path d="M20.665 35.2031L24.8486 45.6445L29.0322 35.2031H31.2207V48H29.5332V43.0166L29.6914 37.6377L25.4902 48H24.1982L20.0059 37.6641L20.1729 43.0166V48H18.4854V35.2031H20.665ZM37.8916 48.1758C36.6025 48.1758 35.5537 47.7539 34.7451 46.9102C33.9365 46.0605 33.5322 44.9268 33.5322 43.5088V43.21C33.5322 42.2666 33.7109 41.4258 34.0684 40.6875C34.4316 39.9434 34.9355 39.3633 35.5801 38.9473C36.2305 38.5254 36.9336 38.3145 37.6895 38.3145C38.9258 38.3145 39.8867 38.7217 40.5723 39.5361C41.2578 40.3506 41.6006 41.5166 41.6006 43.0342V43.7109H35.1582C35.1816 44.6484 35.4541 45.4072 35.9756 45.9873C36.5029 46.5615 37.1709 46.8486 37.9795 46.8486C38.5537 46.8486 39.04 46.7314 39.4385 46.4971C39.8369 46.2627 40.1855 45.9521 40.4844 45.5654L41.4775 46.3389C40.6807 47.5635 39.4854 48.1758 37.8916 48.1758ZM37.6895 39.6504C37.0332 39.6504 36.4824 39.8906 36.0371 40.3711C35.5918 40.8457 35.3164 41.5137 35.2109 42.375H39.9746V42.252C39.9277 41.4258 39.7051 40.7871 39.3066 40.3359C38.9082 39.8789 38.3691 39.6504 37.6895 39.6504ZM49.0273 45.4775C49.0273 45.0381 48.8604 44.6982 48.5264 44.458C48.1982 44.2119 47.6211 44.001 46.7949 43.8252C45.9746 43.6494 45.3213 43.4385 44.835 43.1924C44.3545 42.9463 43.9971 42.6533 43.7627 42.3135C43.5342 41.9736 43.4199 41.5693 43.4199 41.1006C43.4199 40.3213 43.748 39.6621 44.4043 39.123C45.0664 38.584 45.9102 38.3145 46.9355 38.3145C48.0137 38.3145 48.8867 38.5928 49.5547 39.1494C50.2285 39.7061 50.5654 40.418 50.5654 41.2852H48.9307C48.9307 40.8398 48.7402 40.4561 48.3594 40.1338C47.9844 39.8115 47.5098 39.6504 46.9355 39.6504C46.3438 39.6504 45.8809 39.7793 45.5469 40.0371C45.2129 40.2949 45.0459 40.6318 45.0459 41.0479C45.0459 41.4404 45.2012 41.7363 45.5117 41.9355C45.8223 42.1348 46.3818 42.3252 47.1904 42.5068C48.0049 42.6885 48.6641 42.9053 49.168 43.1572C49.6719 43.4092 50.0439 43.7139 50.2842 44.0713C50.5303 44.4229 50.6533 44.8535 50.6533 45.3633C50.6533 46.2129 50.3135 46.8955 49.6338 47.4111C48.9541 47.9209 48.0723 48.1758 46.9883 48.1758C46.2266 48.1758 45.5527 48.041 44.9668 47.7715C44.3809 47.502 43.9209 47.127 43.5869 46.6465C43.2588 46.1602 43.0947 45.6357 43.0947 45.0732H44.7207C44.75 45.6182 44.9668 46.0518 45.3711 46.374C45.7812 46.6904 46.3203 46.8486 46.9883 46.8486C47.6035 46.8486 48.0957 46.7256 48.4648 46.4795C48.8398 46.2275 49.0273 45.8936 49.0273 45.4775ZM58.3086 45.4775C58.3086 45.0381 58.1416 44.6982 57.8076 44.458C57.4795 44.2119 56.9023 44.001 56.0762 43.8252C55.2559 43.6494 54.6025 43.4385 54.1162 43.1924C53.6357 42.9463 53.2783 42.6533 53.0439 42.3135C52.8154 41.9736 52.7012 41.5693 52.7012 41.1006C52.7012 40.3213 53.0293 39.6621 53.6855 39.123C54.3477 38.584 55.1914 38.3145 56.2168 38.3145C57.2949 38.3145 58.168 38.5928 58.8359 39.1494C59.5098 39.7061 59.8467 40.418 59.8467 41.2852H58.2119C58.2119 40.8398 58.0215 40.4561 57.6406 40.1338C57.2656 39.8115 56.791 39.6504 56.2168 39.6504C55.625 39.6504 55.1621 39.7793 54.8281 40.0371C54.4941 40.2949 54.3271 40.6318 54.3271 41.0479C54.3271 41.4404 54.4824 41.7363 54.793 41.9355C55.1035 42.1348 55.6631 42.3252 56.4717 42.5068C57.2861 42.6885 57.9453 42.9053 58.4492 43.1572C58.9531 43.4092 59.3252 43.7139 59.5654 44.0713C59.8115 44.4229 59.9346 44.8535 59.9346 45.3633C59.9346 46.2129 59.5947 46.8955 58.915 47.4111C58.2354 47.9209 57.3535 48.1758 56.2695 48.1758C55.5078 48.1758 54.834 48.041 54.248 47.7715C53.6621 47.502 53.2021 47.127 52.8682 46.6465C52.54 46.1602 52.376 45.6357 52.376 45.0732H54.002C54.0312 45.6182 54.248 46.0518 54.6523 46.374C55.0625 46.6904 55.6016 46.8486 56.2695 46.8486C56.8848 46.8486 57.377 46.7256 57.7461 46.4795C58.1211 46.2275 58.3086 45.8936 58.3086 45.4775ZM67.9238 48C67.8301 47.8125 67.7539 47.4785 67.6953 46.998C66.9395 47.7832 66.0371 48.1758 64.9883 48.1758C64.0508 48.1758 63.2803 47.9121 62.6768 47.3848C62.0791 46.8516 61.7803 46.1777 61.7803 45.3633C61.7803 44.373 62.1553 43.6055 62.9053 43.0605C63.6611 42.5098 64.7217 42.2344 66.0869 42.2344H67.6689V41.4873C67.6689 40.9189 67.499 40.4678 67.1592 40.1338C66.8193 39.7939 66.3184 39.624 65.6562 39.624C65.0762 39.624 64.5898 39.7705 64.1973 40.0635C63.8047 40.3564 63.6084 40.7109 63.6084 41.127H61.9736C61.9736 40.6523 62.1406 40.1953 62.4746 39.7559C62.8145 39.3105 63.2715 38.959 63.8457 38.7012C64.4258 38.4434 65.0615 38.3145 65.7529 38.3145C66.8486 38.3145 67.707 38.5898 68.3281 39.1406C68.9492 39.6855 69.2715 40.4385 69.2949 41.3994V45.7764C69.2949 46.6494 69.4062 47.3438 69.6289 47.8594V48H67.9238ZM65.2256 46.7607C65.7354 46.7607 66.2188 46.6289 66.6758 46.3652C67.1328 46.1016 67.4639 45.7588 67.6689 45.3369V43.3857H66.3945C64.4023 43.3857 63.4062 43.9688 63.4062 45.1348C63.4062 45.6445 63.5762 46.043 63.916 46.3301C64.2559 46.6172 64.6924 46.7607 65.2256 46.7607ZM71.457 43.166C71.457 41.6836 71.7998 40.5059 72.4854 39.6328C73.1709 38.7539 74.0791 38.3145 75.21 38.3145C76.3701 38.3145 77.2754 38.7246 77.9258 39.5449L78.0049 38.4902H79.4902V47.7715C79.4902 49.002 79.124 49.9717 78.3916 50.6807C77.665 51.3896 76.6865 51.7441 75.4561 51.7441C74.7705 51.7441 74.0996 51.5977 73.4434 51.3047C72.7871 51.0117 72.2861 50.6104 71.9404 50.1006L72.7842 49.125C73.4814 49.9863 74.334 50.417 75.3418 50.417C76.1328 50.417 76.748 50.1943 77.1875 49.749C77.6328 49.3037 77.8555 48.6768 77.8555 47.8682V47.0508C77.2051 47.8008 76.3174 48.1758 75.1924 48.1758C74.0791 48.1758 73.1768 47.7275 72.4854 46.8311C71.7998 45.9346 71.457 44.7129 71.457 43.166ZM73.0918 43.3506C73.0918 44.4229 73.3115 45.2666 73.751 45.8818C74.1904 46.4912 74.8057 46.7959 75.5967 46.7959C76.6221 46.7959 77.375 46.3301 77.8555 45.3984V41.0566C77.3574 40.1484 76.6104 39.6943 75.6143 39.6943C74.8232 39.6943 74.2051 40.002 73.7598 40.6172C73.3145 41.2324 73.0918 42.1436 73.0918 43.3506ZM85.8975 48.1758C84.6084 48.1758 83.5596 47.7539 82.751 46.9102C81.9424 46.0605 81.5381 44.9268 81.5381 43.5088V43.21C81.5381 42.2666 81.7168 41.4258 82.0742 40.6875C82.4375 39.9434 82.9414 39.3633 83.5859 38.9473C84.2363 38.5254 84.9395 38.3145 85.6953 38.3145C86.9316 38.3145 87.8926 38.7217 88.5781 39.5361C89.2637 40.3506 89.6064 41.5166 89.6064 43.0342V43.7109H83.1641C83.1875 44.6484 83.46 45.4072 83.9814 45.9873C84.5088 46.5615 85.1768 46.8486 85.9854 46.8486C86.5596 46.8486 87.0459 46.7314 87.4443 46.4971C87.8428 46.2627 88.1914 45.9521 88.4902 45.5654L89.4834 46.3389C88.6865 47.5635 87.4912 48.1758 85.8975 48.1758ZM85.6953 39.6504C85.0391 39.6504 84.4883 39.8906 84.043 40.3711C83.5977 40.8457 83.3223 41.5137 83.2168 42.375H87.9805V42.252C87.9336 41.4258 87.7109 40.7871 87.3125 40.3359C86.9141 39.8789 86.375 39.6504 85.6953 39.6504ZM97.0332 45.4775C97.0332 45.0381 96.8662 44.6982 96.5322 44.458C96.2041 44.2119 95.627 44.001 94.8008 43.8252C93.9805 43.6494 93.3271 43.4385 92.8408 43.1924C92.3604 42.9463 92.0029 42.6533 91.7686 42.3135C91.54 41.9736 91.4258 41.5693 91.4258 41.1006C91.4258 40.3213 91.7539 39.6621 92.4102 39.123C93.0723 38.584 93.916 38.3145 94.9414 38.3145C96.0195 38.3145 96.8926 38.5928 97.5605 39.1494C98.2344 39.7061 98.5713 40.418 98.5713 41.2852H96.9365C96.9365 40.8398 96.7461 40.4561 96.3652 40.1338C95.9902 39.8115 95.5156 39.6504 94.9414 39.6504C94.3496 39.6504 93.8867 39.7793 93.5527 40.0371C93.2188 40.2949 93.0518 40.6318 93.0518 41.0479C93.0518 41.4404 93.207 41.7363 93.5176 41.9355C93.8281 42.1348 94.3877 42.3252 95.1963 42.5068C96.0107 42.6885 96.6699 42.9053 97.1738 43.1572C97.6777 43.4092 98.0498 43.7139 98.29 44.0713C98.5361 44.4229 98.6592 44.8535 98.6592 45.3633C98.6592 46.2129 98.3193 46.8955 97.6396 47.4111C96.96 47.9209 96.0781 48.1758 94.9941 48.1758C94.2324 48.1758 93.5586 48.041 92.9727 47.7715C92.3867 47.502 91.9268 47.127 91.5928 46.6465C91.2646 46.1602 91.1006 45.6357 91.1006 45.0732H92.7266C92.7559 45.6182 92.9727 46.0518 93.377 46.374C93.7871 46.6904 94.3262 46.8486 94.9941 46.8486C95.6094 46.8486 96.1016 46.7256 96.4707 46.4795C96.8457 46.2275 97.0332 45.8936 97.0332 45.4775Z" fill="#2D9CDB"/>
<path d="M254.485 48V35.2031H258.098C259.211 35.2031 260.195 35.4492 261.051 35.9414C261.906 36.4336 262.565 37.1338 263.028 38.042C263.497 38.9502 263.734 39.9932 263.74 41.1709V41.9883C263.74 43.1953 263.506 44.2529 263.037 45.1611C262.574 46.0693 261.909 46.7666 261.042 47.2529C260.181 47.7393 259.176 47.9883 258.027 48H254.485ZM256.173 36.5918V46.6201H257.948C259.249 46.6201 260.26 46.2158 260.98 45.4072C261.707 44.5986 262.07 43.4473 262.07 41.9531V41.2061C262.07 39.7529 261.728 38.625 261.042 37.8223C260.362 37.0137 259.396 36.6035 258.142 36.5918H256.173ZM269.989 48.1758C268.7 48.1758 267.651 47.7539 266.843 46.9102C266.034 46.0605 265.63 44.9268 265.63 43.5088V43.21C265.63 42.2666 265.809 41.4258 266.166 40.6875C266.529 39.9434 267.033 39.3633 267.678 38.9473C268.328 38.5254 269.031 38.3145 269.787 38.3145C271.023 38.3145 271.984 38.7217 272.67 39.5361C273.355 40.3506 273.698 41.5166 273.698 43.0342V43.7109H267.256C267.279 44.6484 267.552 45.4072 268.073 45.9873C268.601 46.5615 269.269 46.8486 270.077 46.8486C270.651 46.8486 271.138 46.7314 271.536 46.4971C271.935 46.2627 272.283 45.9521 272.582 45.5654L273.575 46.3389C272.778 47.5635 271.583 48.1758 269.989 48.1758ZM269.787 39.6504C269.131 39.6504 268.58 39.8906 268.135 40.3711C267.689 40.8457 267.414 41.5137 267.309 42.375H272.072V42.252C272.025 41.4258 271.803 40.7871 271.404 40.3359C271.006 39.8789 270.467 39.6504 269.787 39.6504ZM277.794 36.1875V38.4902H279.569V39.7471H277.794V45.6445C277.794 46.0254 277.873 46.3125 278.031 46.5059C278.189 46.6934 278.459 46.7871 278.84 46.7871C279.027 46.7871 279.285 46.752 279.613 46.6816V48C279.186 48.1172 278.77 48.1758 278.365 48.1758C277.639 48.1758 277.091 47.9561 276.722 47.5166C276.353 47.0771 276.168 46.4531 276.168 45.6445V39.7471H274.437V38.4902H276.168V36.1875H277.794ZM287.348 48C287.254 47.8125 287.178 47.4785 287.119 46.998C286.363 47.7832 285.461 48.1758 284.412 48.1758C283.475 48.1758 282.704 47.9121 282.101 47.3848C281.503 46.8516 281.204 46.1777 281.204 45.3633C281.204 44.373 281.579 43.6055 282.329 43.0605C283.085 42.5098 284.146 42.2344 285.511 42.2344H287.093V41.4873C287.093 40.9189 286.923 40.4678 286.583 40.1338C286.243 39.7939 285.742 39.624 285.08 39.624C284.5 39.624 284.014 39.7705 283.621 40.0635C283.229 40.3564 283.032 40.7109 283.032 41.127H281.397C281.397 40.6523 281.564 40.1953 281.898 39.7559C282.238 39.3105 282.695 38.959 283.27 38.7012C283.85 38.4434 284.485 38.3145 285.177 38.3145C286.272 38.3145 287.131 38.5898 287.752 39.1406C288.373 39.6855 288.695 40.4385 288.719 41.3994V45.7764C288.719 46.6494 288.83 47.3438 289.053 47.8594V48H287.348ZM284.649 46.7607C285.159 46.7607 285.643 46.6289 286.1 46.3652C286.557 46.1016 286.888 45.7588 287.093 45.3369V43.3857H285.818C283.826 43.3857 282.83 43.9688 282.83 45.1348C282.83 45.6445 283 46.043 283.34 46.3301C283.68 46.6172 284.116 46.7607 284.649 46.7607ZM293.034 48H291.408V38.4902H293.034V48ZM291.276 35.9678C291.276 35.7041 291.355 35.4814 291.514 35.2998C291.678 35.1182 291.918 35.0273 292.234 35.0273C292.551 35.0273 292.791 35.1182 292.955 35.2998C293.119 35.4814 293.201 35.7041 293.201 35.9678C293.201 36.2314 293.119 36.4512 292.955 36.627C292.791 36.8027 292.551 36.8906 292.234 36.8906C291.918 36.8906 291.678 36.8027 291.514 36.627C291.355 36.4512 291.276 36.2314 291.276 35.9678ZM297.411 48H295.785V34.5H297.411V48ZM305.559 45.4775C305.559 45.0381 305.392 44.6982 305.058 44.458C304.729 44.2119 304.152 44.001 303.326 43.8252C302.506 43.6494 301.853 43.4385 301.366 43.1924C300.886 42.9463 300.528 42.6533 300.294 42.3135C300.065 41.9736 299.951 41.5693 299.951 41.1006C299.951 40.3213 300.279 39.6621 300.936 39.123C301.598 38.584 302.441 38.3145 303.467 38.3145C304.545 38.3145 305.418 38.5928 306.086 39.1494C306.76 39.7061 307.097 40.418 307.097 41.2852H305.462C305.462 40.8398 305.271 40.4561 304.891 40.1338C304.516 39.8115 304.041 39.6504 303.467 39.6504C302.875 39.6504 302.412 39.7793 302.078 40.0371C301.744 40.2949 301.577 40.6318 301.577 41.0479C301.577 41.4404 301.732 41.7363 302.043 41.9355C302.354 42.1348 302.913 42.3252 303.722 42.5068C304.536 42.6885 305.195 42.9053 305.699 43.1572C306.203 43.4092 306.575 43.7139 306.815 44.0713C307.062 44.4229 307.185 44.8535 307.185 45.3633C307.185 46.2129 306.845 46.8955 306.165 47.4111C305.485 47.9209 304.604 48.1758 303.52 48.1758C302.758 48.1758 302.084 48.041 301.498 47.7715C300.912 47.502 300.452 47.127 300.118 46.6465C299.79 46.1602 299.626 45.6357 299.626 45.0732H301.252C301.281 45.6182 301.498 46.0518 301.902 46.374C302.312 46.6904 302.852 46.8486 303.52 46.8486C304.135 46.8486 304.627 46.7256 304.996 46.4795C305.371 46.2275 305.559 45.8936 305.559 45.4775Z" fill="#2D9CDB"/>
<circle cx="7.5" cy="12.5" r="2.5" fill="#020202"/>
<circle cx="13.5" cy="12.5" r="2.5" fill="#020202"/>
<circle cx="19.5" cy="12.5" r="2.5" fill="#020202"/>
<circle cx="25.5" cy="12.5" r="2.5" fill="#020202"/>
<circle cx="31.5" cy="12.5" r="2.5" fill="#020202"/>
<line x1="2.75736" y1="42.8284" x2="9.82842" y2="35.7574" stroke="#2D9CDB" stroke-width="2"/>
<line x1="3.17157" y1="41.7574" x2="10.2426" y2="48.8284" stroke="#2D9CDB" stroke-width="2"/>
<rect x="14" y="82" width="189" height="54" rx="15" fill="#EEEEEE"/>
<path d="M10.4289 140.071L16.4427 124.872L25.6283 134.057L10.4289 140.071Z" fill="#EEEEEE"/>
<path d="M31.9297 105H30.4297V93.625H31.9297V105ZM34.5547 96.8281L33.7344 96.2656C34.2188 95.5885 34.4688 94.875 34.4844 94.125V93H35.9141V94.0156C35.9089 94.5365 35.7786 95.0573 35.5234 95.5781C35.2734 96.0938 34.9505 96.5104 34.5547 96.8281ZM38.8594 96.5469L38.8984 97.4844C39.5182 96.7552 40.3542 96.3906 41.4062 96.3906C42.5885 96.3906 43.3932 96.8438 43.8203 97.75C44.1016 97.3438 44.4661 97.0156 44.9141 96.7656C45.3672 96.5156 45.901 96.3906 46.5156 96.3906C48.3698 96.3906 49.3125 97.3724 49.3438 99.3359V105H47.8984V99.4219C47.8984 98.8177 47.7604 98.3672 47.4844 98.0703C47.2083 97.7682 46.7448 97.6172 46.0938 97.6172C45.5573 97.6172 45.112 97.7786 44.7578 98.1016C44.4036 98.4193 44.1979 98.849 44.1406 99.3906V105H42.6875V99.4609C42.6875 98.2318 42.0859 97.6172 40.8828 97.6172C39.9349 97.6172 39.2865 98.0208 38.9375 98.8281V105H37.4922V96.5469H38.8594ZM60.4219 102.758C60.4219 102.367 60.2734 102.065 59.9766 101.852C59.6849 101.633 59.1719 101.445 58.4375 101.289C57.7083 101.133 57.1276 100.945 56.6953 100.727C56.2682 100.508 55.9505 100.247 55.7422 99.9453C55.5391 99.6432 55.4375 99.2839 55.4375 98.8672C55.4375 98.1745 55.7292 97.5885 56.3125 97.1094C56.901 96.6302 57.651 96.3906 58.5625 96.3906C59.5208 96.3906 60.2969 96.638 60.8906 97.1328C61.4896 97.6276 61.7891 98.2604 61.7891 99.0312H60.3359C60.3359 98.6354 60.1667 98.2943 59.8281 98.0078C59.4948 97.7214 59.0729 97.5781 58.5625 97.5781C58.0365 97.5781 57.625 97.6927 57.3281 97.9219C57.0312 98.151 56.8828 98.4505 56.8828 98.8203C56.8828 99.1693 57.0208 99.4323 57.2969 99.6094C57.5729 99.7865 58.0703 99.9557 58.7891 100.117C59.513 100.279 60.099 100.471 60.5469 100.695C60.9948 100.919 61.3255 101.19 61.5391 101.508C61.7578 101.82 61.8672 102.203 61.8672 102.656C61.8672 103.411 61.5651 104.018 60.9609 104.477C60.3568 104.93 59.5729 105.156 58.6094 105.156C57.9323 105.156 57.3333 105.036 56.8125 104.797C56.2917 104.557 55.8828 104.224 55.5859 103.797C55.2943 103.365 55.1484 102.898 55.1484 102.398H56.5938C56.6198 102.883 56.8125 103.268 57.1719 103.555C57.5365 103.836 58.0156 103.977 58.6094 103.977C59.1562 103.977 59.5938 103.867 59.9219 103.648C60.2552 103.424 60.4219 103.128 60.4219 102.758ZM67.2578 105.156C66.112 105.156 65.1797 104.781 64.4609 104.031C63.7422 103.276 63.3828 102.268 63.3828 101.008V100.742C63.3828 99.9036 63.5417 99.1562 63.8594 98.5C64.1823 97.8385 64.6302 97.3229 65.2031 96.9531C65.7812 96.5781 66.4062 96.3906 67.0781 96.3906C68.1771 96.3906 69.0312 96.7526 69.6406 97.4766C70.25 98.2005 70.5547 99.237 70.5547 100.586V101.188H64.8281C64.849 102.021 65.0911 102.695 65.5547 103.211C66.0234 103.721 66.6172 103.977 67.3359 103.977C67.8464 103.977 68.2786 103.872 68.6328 103.664C68.987 103.456 69.2969 103.18 69.5625 102.836L70.4453 103.523C69.737 104.612 68.6745 105.156 67.2578 105.156ZM67.0781 97.5781C66.4948 97.5781 66.0052 97.7917 65.6094 98.2188C65.2135 98.6406 64.9688 99.2344 64.875 100H69.1094V99.8906C69.0677 99.1562 68.8698 98.5885 68.5156 98.1875C68.1615 97.7812 67.6823 97.5781 67.0781 97.5781ZM73.6016 96.5469L73.6484 97.6094C74.2943 96.7969 75.138 96.3906 76.1797 96.3906C77.9661 96.3906 78.8672 97.3984 78.8828 99.4141V105H77.4375V99.4062C77.4323 98.7969 77.2917 98.3464 77.0156 98.0547C76.7448 97.763 76.3203 97.6172 75.7422 97.6172C75.2734 97.6172 74.862 97.7422 74.5078 97.9922C74.1536 98.2422 73.8776 98.5703 73.6797 98.9766V105H72.2344V96.5469H73.6016ZM80.7109 100.703C80.7109 99.4062 81.0182 98.3646 81.6328 97.5781C82.2474 96.7865 83.0521 96.3906 84.0469 96.3906C85.0365 96.3906 85.8203 96.7292 86.3984 97.4062V93H87.8438V105H86.5156L86.4453 104.094C85.8672 104.802 85.0625 105.156 84.0312 105.156C83.0521 105.156 82.2526 104.755 81.6328 103.953C81.0182 103.151 80.7109 102.104 80.7109 100.812V100.703ZM82.1562 100.867C82.1562 101.826 82.3542 102.576 82.75 103.117C83.1458 103.659 83.6927 103.93 84.3906 103.93C85.3073 103.93 85.9766 103.518 86.3984 102.695V98.8125C85.9661 98.0156 85.3021 97.6172 84.4062 97.6172C83.6979 97.6172 83.1458 97.8906 82.75 98.4375C82.3542 98.9844 82.1562 99.7943 82.1562 100.867ZM91.6641 105H90.2188V96.5469H91.6641V105ZM90.1016 94.3047C90.1016 94.0703 90.1719 93.8724 90.3125 93.7109C90.4583 93.5495 90.6719 93.4688 90.9531 93.4688C91.2344 93.4688 91.4479 93.5495 91.5938 93.7109C91.7396 93.8724 91.8125 94.0703 91.8125 94.3047C91.8125 94.5391 91.7396 94.7344 91.5938 94.8906C91.4479 95.0469 91.2344 95.125 90.9531 95.125C90.6719 95.125 90.4583 95.0469 90.3125 94.8906C90.1719 94.7344 90.1016 94.5391 90.1016 94.3047ZM95.3516 96.5469L95.3984 97.6094C96.0443 96.7969 96.888 96.3906 97.9297 96.3906C99.7161 96.3906 100.617 97.3984 100.633 99.4141V105H99.1875V99.4062C99.1823 98.7969 99.0417 98.3464 98.7656 98.0547C98.4948 97.763 98.0703 97.6172 97.4922 97.6172C97.0234 97.6172 96.612 97.7422 96.2578 97.9922C95.9036 98.2422 95.6276 98.5703 95.4297 98.9766V105H93.9844V96.5469H95.3516ZM102.469 100.703C102.469 99.3854 102.773 98.3385 103.383 97.5625C103.992 96.7812 104.799 96.3906 105.805 96.3906C106.836 96.3906 107.641 96.7552 108.219 97.4844L108.289 96.5469H109.609V104.797C109.609 105.891 109.284 106.753 108.633 107.383C107.987 108.013 107.117 108.328 106.023 108.328C105.414 108.328 104.818 108.198 104.234 107.938C103.651 107.677 103.206 107.32 102.898 106.867L103.648 106C104.268 106.766 105.026 107.148 105.922 107.148C106.625 107.148 107.172 106.951 107.562 106.555C107.958 106.159 108.156 105.602 108.156 104.883V104.156C107.578 104.823 106.789 105.156 105.789 105.156C104.799 105.156 103.997 104.758 103.383 103.961C102.773 103.164 102.469 102.078 102.469 100.703ZM103.922 100.867C103.922 101.82 104.117 102.57 104.508 103.117C104.898 103.659 105.445 103.93 106.148 103.93C107.06 103.93 107.729 103.516 108.156 102.688V98.8281C107.714 98.0208 107.049 97.6172 106.164 97.6172C105.461 97.6172 104.911 97.8906 104.516 98.4375C104.12 98.9844 103.922 99.7943 103.922 100.867ZM118.531 102.883L120.5 96.5469H122.047L118.648 106.305C118.122 107.711 117.286 108.414 116.141 108.414L115.867 108.391L115.328 108.289V107.117L115.719 107.148C116.208 107.148 116.589 107.049 116.859 106.852C117.135 106.654 117.362 106.292 117.539 105.766L117.859 104.906L114.844 96.5469H116.422L118.531 102.883ZM122.836 100.695C122.836 99.8672 122.997 99.1224 123.32 98.4609C123.648 97.7995 124.102 97.2891 124.68 96.9297C125.263 96.5703 125.927 96.3906 126.672 96.3906C127.823 96.3906 128.753 96.7891 129.461 97.5859C130.174 98.3828 130.531 99.4427 130.531 100.766V100.867C130.531 101.69 130.372 102.43 130.055 103.086C129.742 103.737 129.292 104.245 128.703 104.609C128.12 104.974 127.448 105.156 126.688 105.156C125.542 105.156 124.612 104.758 123.898 103.961C123.19 103.164 122.836 102.109 122.836 100.797V100.695ZM124.289 100.867C124.289 101.805 124.505 102.557 124.938 103.125C125.375 103.693 125.958 103.977 126.688 103.977C127.422 103.977 128.005 103.69 128.438 103.117C128.87 102.539 129.086 101.732 129.086 100.695C129.086 99.7682 128.865 99.0182 128.422 98.4453C127.984 97.8672 127.401 97.5781 126.672 97.5781C125.958 97.5781 125.383 97.862 124.945 98.4297C124.508 98.9974 124.289 99.8099 124.289 100.867ZM137.562 104.164C137 104.826 136.174 105.156 135.086 105.156C134.185 105.156 133.497 104.896 133.023 104.375C132.555 103.849 132.318 103.073 132.312 102.047V96.5469H133.758V102.008C133.758 103.289 134.279 103.93 135.32 103.93C136.424 103.93 137.159 103.518 137.523 102.695V96.5469H138.969V105H137.594L137.562 104.164ZM150.062 102.758C150.062 102.367 149.914 102.065 149.617 101.852C149.326 101.633 148.812 101.445 148.078 101.289C147.349 101.133 146.768 100.945 146.336 100.727C145.909 100.508 145.591 100.247 145.383 99.9453C145.18 99.6432 145.078 99.2839 145.078 98.8672C145.078 98.1745 145.37 97.5885 145.953 97.1094C146.542 96.6302 147.292 96.3906 148.203 96.3906C149.161 96.3906 149.938 96.638 150.531 97.1328C151.13 97.6276 151.43 98.2604 151.43 99.0312H149.977C149.977 98.6354 149.807 98.2943 149.469 98.0078C149.135 97.7214 148.714 97.5781 148.203 97.5781C147.677 97.5781 147.266 97.6927 146.969 97.9219C146.672 98.151 146.523 98.4505 146.523 98.8203C146.523 99.1693 146.661 99.4323 146.938 99.6094C147.214 99.7865 147.711 99.9557 148.43 100.117C149.154 100.279 149.74 100.471 150.188 100.695C150.635 100.919 150.966 101.19 151.18 101.508C151.398 101.82 151.508 102.203 151.508 102.656C151.508 103.411 151.206 104.018 150.602 104.477C149.997 104.93 149.214 105.156 148.25 105.156C147.573 105.156 146.974 105.036 146.453 104.797C145.932 104.557 145.523 104.224 145.227 103.797C144.935 103.365 144.789 102.898 144.789 102.398H146.234C146.26 102.883 146.453 103.268 146.812 103.555C147.177 103.836 147.656 103.977 148.25 103.977C148.797 103.977 149.234 103.867 149.562 103.648C149.896 103.424 150.062 103.128 150.062 102.758ZM153.008 100.695C153.008 99.8672 153.169 99.1224 153.492 98.4609C153.82 97.7995 154.273 97.2891 154.852 96.9297C155.435 96.5703 156.099 96.3906 156.844 96.3906C157.995 96.3906 158.924 96.7891 159.633 97.5859C160.346 98.3828 160.703 99.4427 160.703 100.766V100.867C160.703 101.69 160.544 102.43 160.227 103.086C159.914 103.737 159.464 104.245 158.875 104.609C158.292 104.974 157.62 105.156 156.859 105.156C155.714 105.156 154.784 104.758 154.07 103.961C153.362 103.164 153.008 102.109 153.008 100.797V100.695ZM154.461 100.867C154.461 101.805 154.677 102.557 155.109 103.125C155.547 103.693 156.13 103.977 156.859 103.977C157.594 103.977 158.177 103.69 158.609 103.117C159.042 102.539 159.258 101.732 159.258 100.695C159.258 99.7682 159.036 99.0182 158.594 98.4453C158.156 97.8672 157.573 97.5781 156.844 97.5781C156.13 97.5781 155.555 97.862 155.117 98.4297C154.68 98.9974 154.461 99.8099 154.461 100.867ZM163.875 96.5469L163.914 97.4844C164.534 96.7552 165.37 96.3906 166.422 96.3906C167.604 96.3906 168.409 96.8438 168.836 97.75C169.117 97.3438 169.482 97.0156 169.93 96.7656C170.383 96.5156 170.917 96.3906 171.531 96.3906C173.385 96.3906 174.328 97.3724 174.359 99.3359V105H172.914V99.4219C172.914 98.8177 172.776 98.3672 172.5 98.0703C172.224 97.7682 171.76 97.6172 171.109 97.6172C170.573 97.6172 170.128 97.7786 169.773 98.1016C169.419 98.4193 169.214 98.849 169.156 99.3906V105H167.703V99.4609C167.703 98.2318 167.102 97.6172 165.898 97.6172C164.951 97.6172 164.302 98.0208 163.953 98.8281V105H162.508V96.5469H163.875ZM180.055 105.156C178.909 105.156 177.977 104.781 177.258 104.031C176.539 103.276 176.18 102.268 176.18 101.008V100.742C176.18 99.9036 176.339 99.1562 176.656 98.5C176.979 97.8385 177.427 97.3229 178 96.9531C178.578 96.5781 179.203 96.3906 179.875 96.3906C180.974 96.3906 181.828 96.7526 182.438 97.4766C183.047 98.2005 183.352 99.237 183.352 100.586V101.188H177.625C177.646 102.021 177.888 102.695 178.352 103.211C178.82 103.721 179.414 103.977 180.133 103.977C180.643 103.977 181.076 103.872 181.43 103.664C181.784 103.456 182.094 103.18 182.359 102.836L183.242 103.523C182.534 104.612 181.471 105.156 180.055 105.156ZM179.875 97.5781C179.292 97.5781 178.802 97.7917 178.406 98.2188C178.01 98.6406 177.766 99.2344 177.672 100H181.906V99.8906C181.865 99.1562 181.667 98.5885 181.312 98.1875C180.958 97.7812 180.479 97.5781 179.875 97.5781ZM30.8047 124V116.664H29.4688V115.547H30.8047V114.68C30.8047 113.773 31.0469 113.073 31.5312 112.578C32.0156 112.083 32.7005 111.836 33.5859 111.836C33.9193 111.836 34.25 111.88 34.5781 111.969L34.5 113.141C34.2552 113.094 33.9948 113.07 33.7188 113.07C33.25 113.07 32.888 113.208 32.6328 113.484C32.3776 113.755 32.25 114.146 32.25 114.656V115.547H34.0547V116.664H32.25V124H30.8047ZM39.7422 116.844C39.5234 116.807 39.2865 116.789 39.0312 116.789C38.0833 116.789 37.4401 117.193 37.1016 118V124H35.6562V115.547H37.0625L37.0859 116.523C37.5599 115.768 38.2318 115.391 39.1016 115.391C39.3828 115.391 39.5964 115.427 39.7422 115.5V116.844ZM46.2969 123.164C45.7344 123.826 44.9089 124.156 43.8203 124.156C42.9193 124.156 42.2318 123.896 41.7578 123.375C41.2891 122.849 41.0521 122.073 41.0469 121.047V115.547H42.4922V121.008C42.4922 122.289 43.013 122.93 44.0547 122.93C45.1589 122.93 45.8932 122.518 46.2578 121.695V115.547H47.7031V124H46.3281L46.2969 123.164ZM51.4766 124H50.0312V115.547H51.4766V124ZM49.9141 113.305C49.9141 113.07 49.9844 112.872 50.125 112.711C50.2708 112.549 50.4844 112.469 50.7656 112.469C51.0469 112.469 51.2604 112.549 51.4062 112.711C51.5521 112.872 51.625 113.07 51.625 113.305C51.625 113.539 51.5521 113.734 51.4062 113.891C51.2604 114.047 51.0469 114.125 50.7656 114.125C50.4844 114.125 50.2708 114.047 50.125 113.891C49.9844 113.734 49.9141 113.539 49.9141 113.305ZM55.7578 113.5V115.547H57.3359V116.664H55.7578V121.906C55.7578 122.245 55.8281 122.5 55.9688 122.672C56.1094 122.839 56.349 122.922 56.6875 122.922C56.8542 122.922 57.0833 122.891 57.375 122.828V124C56.9948 124.104 56.625 124.156 56.2656 124.156C55.6198 124.156 55.1328 123.961 54.8047 123.57C54.4766 123.18 54.3125 122.625 54.3125 121.906V116.664H52.7734V115.547H54.3125V113.5H55.7578ZM63.9531 121.758C63.9531 121.367 63.8047 121.065 63.5078 120.852C63.2161 120.633 62.7031 120.445 61.9688 120.289C61.2396 120.133 60.6589 119.945 60.2266 119.727C59.7995 119.508 59.4818 119.247 59.2734 118.945C59.0703 118.643 58.9688 118.284 58.9688 117.867C58.9688 117.174 59.2604 116.589 59.8438 116.109C60.4323 115.63 61.1823 115.391 62.0938 115.391C63.0521 115.391 63.8281 115.638 64.4219 116.133C65.0208 116.628 65.3203 117.26 65.3203 118.031H63.8672C63.8672 117.635 63.6979 117.294 63.3594 117.008C63.026 116.721 62.6042 116.578 62.0938 116.578C61.5677 116.578 61.1562 116.693 60.8594 116.922C60.5625 117.151 60.4141 117.451 60.4141 117.82C60.4141 118.169 60.5521 118.432 60.8281 118.609C61.1042 118.786 61.6016 118.956 62.3203 119.117C63.0443 119.279 63.6302 119.471 64.0781 119.695C64.526 119.919 64.8568 120.19 65.0703 120.508C65.2891 120.82 65.3984 121.203 65.3984 121.656C65.3984 122.411 65.0964 123.018 64.4922 123.477C63.888 123.93 63.1042 124.156 62.1406 124.156C61.4635 124.156 60.8646 124.036 60.3438 123.797C59.8229 123.557 59.4141 123.224 59.1172 122.797C58.8255 122.365 58.6797 121.898 58.6797 121.398H60.125C60.151 121.883 60.3438 122.268 60.7031 122.555C61.0677 122.836 61.5469 122.977 62.1406 122.977C62.6875 122.977 63.125 122.867 63.4531 122.648C63.7865 122.424 63.9531 122.128 63.9531 121.758ZM67.2344 126.266L66.4141 125.703C66.9036 125.021 67.1589 124.318 67.1797 123.594V122.289H68.5938V123.422C68.5938 123.948 68.4635 124.474 68.2031 125C67.9479 125.526 67.625 125.948 67.2344 126.266ZM79.3125 121.758C79.3125 121.367 79.1641 121.065 78.8672 120.852C78.5755 120.633 78.0625 120.445 77.3281 120.289C76.599 120.133 76.0182 119.945 75.5859 119.727C75.1589 119.508 74.8411 119.247 74.6328 118.945C74.4297 118.643 74.3281 118.284 74.3281 117.867C74.3281 117.174 74.6198 116.589 75.2031 116.109C75.7917 115.63 76.5417 115.391 77.4531 115.391C78.4115 115.391 79.1875 115.638 79.7812 116.133C80.3802 116.628 80.6797 117.26 80.6797 118.031H79.2266C79.2266 117.635 79.0573 117.294 78.7188 117.008C78.3854 116.721 77.9635 116.578 77.4531 116.578C76.9271 116.578 76.5156 116.693 76.2188 116.922C75.9219 117.151 75.7734 117.451 75.7734 117.82C75.7734 118.169 75.9115 118.432 76.1875 118.609C76.4635 118.786 76.9609 118.956 77.6797 119.117C78.4036 119.279 78.9896 119.471 79.4375 119.695C79.8854 119.919 80.2161 120.19 80.4297 120.508C80.6484 120.82 80.7578 121.203 80.7578 121.656C80.7578 122.411 80.4557 123.018 79.8516 123.477C79.2474 123.93 78.4635 124.156 77.5 124.156C76.8229 124.156 76.224 124.036 75.7031 123.797C75.1823 123.557 74.7734 123.224 74.4766 122.797C74.1849 122.365 74.0391 121.898 74.0391 121.398H75.4844C75.5104 121.883 75.7031 122.268 76.0625 122.555C76.4271 122.836 76.9062 122.977 77.5 122.977C78.0469 122.977 78.4844 122.867 78.8125 122.648C79.1458 122.424 79.3125 122.128 79.3125 121.758ZM84.6016 113.5V115.547H86.1797V116.664H84.6016V121.906C84.6016 122.245 84.6719 122.5 84.8125 122.672C84.9531 122.839 85.1927 122.922 85.5312 122.922C85.6979 122.922 85.9271 122.891 86.2188 122.828V124C85.8385 124.104 85.4688 124.156 85.1094 124.156C84.4635 124.156 83.9766 123.961 83.6484 123.57C83.3203 123.18 83.1562 122.625 83.1562 121.906V116.664H81.6172V115.547H83.1562V113.5H84.6016ZM93.0938 124C93.0104 123.833 92.9427 123.536 92.8906 123.109C92.2188 123.807 91.4167 124.156 90.4844 124.156C89.651 124.156 88.9661 123.922 88.4297 123.453C87.8984 122.979 87.6328 122.38 87.6328 121.656C87.6328 120.776 87.9661 120.094 88.6328 119.609C89.3047 119.12 90.2474 118.875 91.4609 118.875H92.8672V118.211C92.8672 117.706 92.7161 117.305 92.4141 117.008C92.112 116.706 91.6667 116.555 91.0781 116.555C90.5625 116.555 90.1302 116.685 89.7812 116.945C89.4323 117.206 89.2578 117.521 89.2578 117.891H87.8047C87.8047 117.469 87.9531 117.062 88.25 116.672C88.5521 116.276 88.9583 115.964 89.4688 115.734C89.9844 115.505 90.5495 115.391 91.1641 115.391C92.138 115.391 92.901 115.635 93.4531 116.125C94.0052 116.609 94.2917 117.279 94.3125 118.133V122.023C94.3125 122.799 94.4115 123.417 94.6094 123.875V124H93.0938ZM90.6953 122.898C91.1484 122.898 91.5781 122.781 91.9844 122.547C92.3906 122.312 92.6849 122.008 92.8672 121.633V119.898H91.7344C89.9635 119.898 89.0781 120.417 89.0781 121.453C89.0781 121.906 89.2292 122.26 89.5312 122.516C89.8333 122.771 90.2214 122.898 90.6953 122.898ZM100.664 116.844C100.445 116.807 100.208 116.789 99.9531 116.789C99.0052 116.789 98.362 117.193 98.0234 118V124H96.5781V115.547H97.9844L98.0078 116.523C98.4818 115.768 99.1536 115.391 100.023 115.391C100.305 115.391 100.518 115.427 100.664 115.5V116.844ZM104.352 113.5V115.547H105.93V116.664H104.352V121.906C104.352 122.245 104.422 122.5 104.562 122.672C104.703 122.839 104.943 122.922 105.281 122.922C105.448 122.922 105.677 122.891 105.969 122.828V124C105.589 124.104 105.219 124.156 104.859 124.156C104.214 124.156 103.727 123.961 103.398 123.57C103.07 123.18 102.906 122.625 102.906 121.906V116.664H101.367V115.547H102.906V113.5H104.352ZM109.195 124H107.75V115.547H109.195V124ZM107.633 113.305C107.633 113.07 107.703 112.872 107.844 112.711C107.99 112.549 108.203 112.469 108.484 112.469C108.766 112.469 108.979 112.549 109.125 112.711C109.271 112.872 109.344 113.07 109.344 113.305C109.344 113.539 109.271 113.734 109.125 113.891C108.979 114.047 108.766 114.125 108.484 114.125C108.203 114.125 107.99 114.047 107.844 113.891C107.703 113.734 107.633 113.539 107.633 113.305ZM112.883 115.547L112.93 116.609C113.576 115.797 114.419 115.391 115.461 115.391C117.247 115.391 118.148 116.398 118.164 118.414V124H116.719V118.406C116.714 117.797 116.573 117.346 116.297 117.055C116.026 116.763 115.602 116.617 115.023 116.617C114.555 116.617 114.143 116.742 113.789 116.992C113.435 117.242 113.159 117.57 112.961 117.977V124H111.516V115.547H112.883ZM120 119.703C120 118.385 120.305 117.339 120.914 116.562C121.523 115.781 122.331 115.391 123.336 115.391C124.367 115.391 125.172 115.755 125.75 116.484L125.82 115.547H127.141V123.797C127.141 124.891 126.815 125.753 126.164 126.383C125.518 127.013 124.648 127.328 123.555 127.328C122.945 127.328 122.349 127.198 121.766 126.938C121.182 126.677 120.737 126.32 120.43 125.867L121.18 125C121.799 125.766 122.557 126.148 123.453 126.148C124.156 126.148 124.703 125.951 125.094 125.555C125.49 125.159 125.688 124.602 125.688 123.883V123.156C125.109 123.823 124.32 124.156 123.32 124.156C122.331 124.156 121.529 123.758 120.914 122.961C120.305 122.164 120 121.078 120 119.703ZM121.453 119.867C121.453 120.82 121.648 121.57 122.039 122.117C122.43 122.659 122.977 122.93 123.68 122.93C124.591 122.93 125.26 122.516 125.688 121.688V117.828C125.245 117.021 124.581 116.617 123.695 116.617C122.992 116.617 122.443 116.891 122.047 117.438C121.651 117.984 121.453 118.794 121.453 119.867ZM140.781 122.008L142.406 115.547H143.852L141.391 124H140.219L138.164 117.594L136.164 124H134.992L132.539 115.547H133.977L135.641 121.875L137.609 115.547H138.773L140.781 122.008ZM146.898 124H145.453V115.547H146.898V124ZM145.336 113.305C145.336 113.07 145.406 112.872 145.547 112.711C145.693 112.549 145.906 112.469 146.188 112.469C146.469 112.469 146.682 112.549 146.828 112.711C146.974 112.872 147.047 113.07 147.047 113.305C147.047 113.539 146.974 113.734 146.828 113.891C146.682 114.047 146.469 114.125 146.188 114.125C145.906 114.125 145.693 114.047 145.547 113.891C145.406 113.734 145.336 113.539 145.336 113.305ZM151.18 113.5V115.547H152.758V116.664H151.18V121.906C151.18 122.245 151.25 122.5 151.391 122.672C151.531 122.839 151.771 122.922 152.109 122.922C152.276 122.922 152.505 122.891 152.797 122.828V124C152.417 124.104 152.047 124.156 151.688 124.156C151.042 124.156 150.555 123.961 150.227 123.57C149.898 123.18 149.734 122.625 149.734 121.906V116.664H148.195V115.547H149.734V113.5H151.18ZM155.898 116.57C156.539 115.784 157.372 115.391 158.398 115.391C160.185 115.391 161.086 116.398 161.102 118.414V124H159.656V118.406C159.651 117.797 159.51 117.346 159.234 117.055C158.964 116.763 158.539 116.617 157.961 116.617C157.492 116.617 157.081 116.742 156.727 116.992C156.372 117.242 156.096 117.57 155.898 117.977V124H154.453V112H155.898V116.57ZM172.117 120.797H170.055L169.43 124H168.312L168.938 120.797H167.07V119.727H169.141L169.68 116.961H167.664V115.875H169.891L170.531 112.625H171.648L171.008 115.875H173.07L173.711 112.625H174.836L174.195 115.875H175.789V116.961H173.984L173.445 119.727H175.203V120.797H173.242L172.617 124H171.492L172.117 120.797ZM170.258 119.727H172.32L172.859 116.961H170.797L170.258 119.727ZM181.695 124H180.242V114.367L177.328 115.438V114.125L181.469 112.57H181.695V124ZM186.031 123.242C186.031 122.992 186.104 122.784 186.25 122.617C186.401 122.451 186.625 122.367 186.922 122.367C187.219 122.367 187.443 122.451 187.594 122.617C187.75 122.784 187.828 122.992 187.828 123.242C187.828 123.482 187.75 123.682 187.594 123.844C187.443 124.005 187.219 124.086 186.922 124.086C186.625 124.086 186.401 124.005 186.25 123.844C186.104 123.682 186.031 123.482 186.031 123.242ZM186.039 116.344C186.039 116.094 186.112 115.885 186.258 115.719C186.409 115.552 186.633 115.469 186.93 115.469C187.227 115.469 187.451 115.552 187.602 115.719C187.758 115.885 187.836 116.094 187.836 116.344C187.836 116.583 187.758 116.784 187.602 116.945C187.451 117.107 187.227 117.188 186.93 117.188C186.633 117.188 186.409 117.107 186.258 116.945C186.112 116.784 186.039 116.583 186.039 116.344Z" fill="black"/>
<rect x="14" y="149" width="101" height="38" rx="15" fill="#EEEEEE"/>
<path d="M10.4289 190.071L16.4427 174.872L25.6283 184.057L10.4289 190.071Z" fill="#EEEEEE"/>
<path d="M34.9766 170.797H32.9141L32.2891 174H31.1719L31.7969 170.797H29.9297V169.727H32L32.5391 166.961H30.5234V165.875H32.75L33.3906 162.625H34.5078L33.8672 165.875H35.9297L36.5703 162.625H37.6953L37.0547 165.875H38.6484V166.961H36.8438L36.3047 169.727H38.0625V170.797H36.1016L35.4766 174H34.3516L34.9766 170.797ZM33.1172 169.727H35.1797L35.7188 166.961H33.6562L33.1172 169.727ZM44.5547 174H43.1016V164.367L40.1875 165.438V164.125L44.3281 162.57H44.5547V174ZM48.8906 173.242C48.8906 172.992 48.9635 172.784 49.1094 172.617C49.2604 172.451 49.4844 172.367 49.7812 172.367C50.0781 172.367 50.3021 172.451 50.4531 172.617C50.6094 172.784 50.6875 172.992 50.6875 173.242C50.6875 173.482 50.6094 173.682 50.4531 173.844C50.3021 174.005 50.0781 174.086 49.7812 174.086C49.4844 174.086 49.2604 174.005 49.1094 173.844C48.9635 173.682 48.8906 173.482 48.8906 173.242ZM48.8984 166.344C48.8984 166.094 48.9714 165.885 49.1172 165.719C49.2682 165.552 49.4922 165.469 49.7891 165.469C50.0859 165.469 50.3099 165.552 50.4609 165.719C50.6172 165.885 50.6953 166.094 50.6953 166.344C50.6953 166.583 50.6172 166.784 50.4609 166.945C50.3099 167.107 50.0859 167.188 49.7891 167.188C49.4922 167.188 49.2682 167.107 49.1172 166.945C48.9714 166.784 48.8984 166.583 48.8984 166.344ZM63.2891 171.031H58.5234L57.4531 174H55.9062L60.25 162.625H61.5625L65.9141 174H64.375L63.2891 171.031ZM58.9766 169.797H62.8438L60.9062 164.477L58.9766 169.797ZM74.3594 169.867C74.3594 171.154 74.0651 172.19 73.4766 172.977C72.888 173.763 72.0911 174.156 71.0859 174.156C70.0599 174.156 69.2526 173.831 68.6641 173.18V177.25H67.2188V165.547H68.5391L68.6094 166.484C69.1979 165.755 70.0156 165.391 71.0625 165.391C72.0781 165.391 72.8802 165.773 73.4688 166.539C74.0625 167.305 74.3594 168.37 74.3594 169.734V169.867ZM72.9141 169.703C72.9141 168.75 72.7109 167.997 72.3047 167.445C71.8984 166.893 71.3411 166.617 70.6328 166.617C69.7578 166.617 69.1016 167.005 68.6641 167.781V171.82C69.0964 172.591 69.7578 172.977 70.6484 172.977C71.3411 172.977 71.8906 172.703 72.2969 172.156C72.7083 171.604 72.9141 170.786 72.9141 169.703ZM83.3438 169.867C83.3438 171.154 83.0495 172.19 82.4609 172.977C81.8724 173.763 81.0755 174.156 80.0703 174.156C79.0443 174.156 78.237 173.831 77.6484 173.18V177.25H76.2031V165.547H77.5234L77.5938 166.484C78.1823 165.755 79 165.391 80.0469 165.391C81.0625 165.391 81.8646 165.773 82.4531 166.539C83.0469 167.305 83.3438 168.37 83.3438 169.734V169.867ZM81.8984 169.703C81.8984 168.75 81.6953 167.997 81.2891 167.445C80.8828 166.893 80.3255 166.617 79.6172 166.617C78.7422 166.617 78.0859 167.005 77.6484 167.781V171.82C78.0807 172.591 78.7422 172.977 79.6328 172.977C80.3255 172.977 80.875 172.703 81.2812 172.156C81.6927 171.604 81.8984 170.786 81.8984 169.703ZM86.7578 174H85.3125V162H86.7578V174ZM92.5859 174.156C91.4401 174.156 90.5078 173.781 89.7891 173.031C89.0703 172.276 88.7109 171.268 88.7109 170.008V169.742C88.7109 168.904 88.8698 168.156 89.1875 167.5C89.5104 166.839 89.9583 166.323 90.5312 165.953C91.1094 165.578 91.7344 165.391 92.4062 165.391C93.5052 165.391 94.3594 165.753 94.9688 166.477C95.5781 167.201 95.8828 168.237 95.8828 169.586V170.188H90.1562C90.1771 171.021 90.4193 171.695 90.8828 172.211C91.3516 172.721 91.9453 172.977 92.6641 172.977C93.1745 172.977 93.6068 172.872 93.9609 172.664C94.3151 172.456 94.625 172.18 94.8906 171.836L95.7734 172.523C95.0651 173.612 94.0026 174.156 92.5859 174.156ZM92.4062 166.578C91.8229 166.578 91.3333 166.792 90.9375 167.219C90.5417 167.641 90.2969 168.234 90.2031 169H94.4375V168.891C94.3958 168.156 94.1979 167.589 93.8438 167.188C93.4896 166.781 93.0104 166.578 92.4062 166.578Z" fill="black"/>
<rect x="14" y="199" width="101" height="38" rx="15" fill="#EEEEEE"/>
<path d="M10.4289 240.071L16.4427 224.872L25.6283 234.057L10.4289 240.071Z" fill="#EEEEEE"/>
<path d="M34.9766 220.797H32.9141L32.2891 224H31.1719L31.7969 220.797H29.9297V219.727H32L32.5391 216.961H30.5234V215.875H32.75L33.3906 212.625H34.5078L33.8672 215.875H35.9297L36.5703 212.625H37.6953L37.0547 215.875H38.6484V216.961H36.8438L36.3047 219.727H38.0625V220.797H36.1016L35.4766 224H34.3516L34.9766 220.797ZM33.1172 219.727H35.1797L35.7188 216.961H33.6562L33.1172 219.727ZM47.2578 224H39.8047V222.961L43.7422 218.586C44.3255 217.924 44.7266 217.388 44.9453 216.977C45.1693 216.56 45.2812 216.13 45.2812 215.688C45.2812 215.094 45.1016 214.607 44.7422 214.227C44.3828 213.846 43.9036 213.656 43.3047 213.656C42.5859 213.656 42.026 213.862 41.625 214.273C41.2292 214.68 41.0312 215.247 41.0312 215.977H39.5859C39.5859 214.93 39.9219 214.083 40.5938 213.438C41.2708 212.792 42.1745 212.469 43.3047 212.469C44.362 212.469 45.1979 212.747 45.8125 213.305C46.4271 213.857 46.7344 214.594 46.7344 215.516C46.7344 216.635 46.0208 217.969 44.5938 219.516L41.5469 222.82H47.2578V224ZM48.8906 223.242C48.8906 222.992 48.9635 222.784 49.1094 222.617C49.2604 222.451 49.4844 222.367 49.7812 222.367C50.0781 222.367 50.3021 222.451 50.4531 222.617C50.6094 222.784 50.6875 222.992 50.6875 223.242C50.6875 223.482 50.6094 223.682 50.4531 223.844C50.3021 224.005 50.0781 224.086 49.7812 224.086C49.4844 224.086 49.2604 224.005 49.1094 223.844C48.9635 223.682 48.8906 223.482 48.8906 223.242ZM48.8984 216.344C48.8984 216.094 48.9714 215.885 49.1172 215.719C49.2682 215.552 49.4922 215.469 49.7891 215.469C50.0859 215.469 50.3099 215.552 50.4609 215.719C50.6172 215.885 50.6953 216.094 50.6953 216.344C50.6953 216.583 50.6172 216.784 50.4609 216.945C50.3099 217.107 50.0859 217.188 49.7891 217.188C49.4922 217.188 49.2682 217.107 49.1172 216.945C48.9714 216.784 48.8984 216.583 48.8984 216.344ZM58.5078 219.547V224H57.0078V212.625H61.2031C62.4479 212.625 63.4219 212.943 64.125 213.578C64.8333 214.214 65.1875 215.055 65.1875 216.102C65.1875 217.206 64.8411 218.057 64.1484 218.656C63.4609 219.25 62.474 219.547 61.1875 219.547H58.5078ZM58.5078 218.32H61.2031C62.0052 218.32 62.6198 218.133 63.0469 217.758C63.474 217.378 63.6875 216.831 63.6875 216.117C63.6875 215.44 63.474 214.898 63.0469 214.492C62.6198 214.086 62.0339 213.875 61.2891 213.859H58.5078V218.32ZM70.2734 224.156C69.1276 224.156 68.1953 223.781 67.4766 223.031C66.7578 222.276 66.3984 221.268 66.3984 220.008V219.742C66.3984 218.904 66.5573 218.156 66.875 217.5C67.1979 216.839 67.6458 216.323 68.2188 215.953C68.7969 215.578 69.4219 215.391 70.0938 215.391C71.1927 215.391 72.0469 215.753 72.6562 216.477C73.2656 217.201 73.5703 218.237 73.5703 219.586V220.188H67.8438C67.8646 221.021 68.1068 221.695 68.5703 222.211C69.0391 222.721 69.6328 222.977 70.3516 222.977C70.862 222.977 71.2943 222.872 71.6484 222.664C72.0026 222.456 72.3125 222.18 72.5781 221.836L73.4609 222.523C72.7526 223.612 71.6901 224.156 70.2734 224.156ZM70.0938 216.578C69.5104 216.578 69.0208 216.792 68.625 217.219C68.2292 217.641 67.9844 218.234 67.8906 219H72.125V218.891C72.0833 218.156 71.8854 217.589 71.5312 217.188C71.1771 216.781 70.6979 216.578 70.0938 216.578ZM80.4688 224C80.3854 223.833 80.3177 223.536 80.2656 223.109C79.5938 223.807 78.7917 224.156 77.8594 224.156C77.026 224.156 76.3411 223.922 75.8047 223.453C75.2734 222.979 75.0078 222.38 75.0078 221.656C75.0078 220.776 75.3411 220.094 76.0078 219.609C76.6797 219.12 77.6224 218.875 78.8359 218.875H80.2422V218.211C80.2422 217.706 80.0911 217.305 79.7891 217.008C79.487 216.706 79.0417 216.555 78.4531 216.555C77.9375 216.555 77.5052 216.685 77.1562 216.945C76.8073 217.206 76.6328 217.521 76.6328 217.891H75.1797C75.1797 217.469 75.3281 217.062 75.625 216.672C75.9271 216.276 76.3333 215.964 76.8438 215.734C77.3594 215.505 77.9245 215.391 78.5391 215.391C79.513 215.391 80.276 215.635 80.8281 216.125C81.3802 216.609 81.6667 217.279 81.6875 218.133V222.023C81.6875 222.799 81.7865 223.417 81.9844 223.875V224H80.4688ZM78.0703 222.898C78.5234 222.898 78.9531 222.781 79.3594 222.547C79.7656 222.312 80.0599 222.008 80.2422 221.633V219.898H79.1094C77.3385 219.898 76.4531 220.417 76.4531 221.453C76.4531 221.906 76.6042 222.26 76.9062 222.516C77.2083 222.771 77.5964 222.898 78.0703 222.898ZM88.0391 216.844C87.8203 216.807 87.5833 216.789 87.3281 216.789C86.3802 216.789 85.737 217.193 85.3984 218V224H83.9531V215.547H85.3594L85.3828 216.523C85.8568 215.768 86.5286 215.391 87.3984 215.391C87.6797 215.391 87.8932 215.427 88.0391 215.5V216.844Z" fill="black"/>
<rect x="14" y="249" width="113" height="38" rx="15" fill="#EEEEEE"/>
<path d="M10.4289 290.071L16.4427 274.872L25.6283 284.057L10.4289 290.071Z" fill="#EEEEEE"/>
<path d="M34.9766 270.797H32.9141L32.2891 274H31.1719L31.7969 270.797H29.9297V269.727H32L32.5391 266.961H30.5234V265.875H32.75L33.3906 262.625H34.5078L33.8672 265.875H35.9297L36.5703 262.625H37.6953L37.0547 265.875H38.6484V266.961H36.8438L36.3047 269.727H38.0625V270.797H36.1016L35.4766 274H34.3516L34.9766 270.797ZM33.1172 269.727H35.1797L35.7188 266.961H33.6562L33.1172 269.727ZM41.9062 267.609H42.9922C43.6745 267.599 44.2109 267.419 44.6016 267.07C44.9922 266.721 45.1875 266.25 45.1875 265.656C45.1875 264.323 44.5234 263.656 43.1953 263.656C42.5703 263.656 42.0703 263.836 41.6953 264.195C41.3255 264.549 41.1406 265.021 41.1406 265.609H39.6953C39.6953 264.708 40.0234 263.961 40.6797 263.367C41.3411 262.768 42.1797 262.469 43.1953 262.469C44.2682 262.469 45.1094 262.753 45.7188 263.32C46.3281 263.888 46.6328 264.677 46.6328 265.688C46.6328 266.182 46.4714 266.661 46.1484 267.125C45.8307 267.589 45.3958 267.935 44.8438 268.164C45.4688 268.362 45.9505 268.69 46.2891 269.148C46.6328 269.607 46.8047 270.167 46.8047 270.828C46.8047 271.849 46.4714 272.659 45.8047 273.258C45.138 273.857 44.2708 274.156 43.2031 274.156C42.1354 274.156 41.2656 273.867 40.5938 273.289C39.9271 272.711 39.5938 271.948 39.5938 271H41.0469C41.0469 271.599 41.2422 272.078 41.6328 272.438C42.0234 272.797 42.5469 272.977 43.2031 272.977C43.901 272.977 44.4349 272.794 44.8047 272.43C45.1745 272.065 45.3594 271.542 45.3594 270.859C45.3594 270.198 45.1562 269.69 44.75 269.336C44.3438 268.982 43.7578 268.799 42.9922 268.789H41.9062V267.609ZM48.8906 273.242C48.8906 272.992 48.9635 272.784 49.1094 272.617C49.2604 272.451 49.4844 272.367 49.7812 272.367C50.0781 272.367 50.3021 272.451 50.4531 272.617C50.6094 272.784 50.6875 272.992 50.6875 273.242C50.6875 273.482 50.6094 273.682 50.4531 273.844C50.3021 274.005 50.0781 274.086 49.7812 274.086C49.4844 274.086 49.2604 274.005 49.1094 273.844C48.9635 273.682 48.8906 273.482 48.8906 273.242ZM48.8984 266.344C48.8984 266.094 48.9714 265.885 49.1172 265.719C49.2682 265.552 49.4922 265.469 49.7891 265.469C50.0859 265.469 50.3099 265.552 50.4609 265.719C50.6172 265.885 50.6953 266.094 50.6953 266.344C50.6953 266.583 50.6172 266.784 50.4609 266.945C50.3099 267.107 50.0859 267.188 49.7891 267.188C49.4922 267.188 49.2682 267.107 49.1172 266.945C48.9714 266.784 48.8984 266.583 48.8984 266.344ZM57.0078 274V262.625H60.7266C61.9609 262.625 62.888 262.88 63.5078 263.391C64.1328 263.901 64.4453 264.656 64.4453 265.656C64.4453 266.188 64.2943 266.659 63.9922 267.07C63.6901 267.477 63.2786 267.792 62.7578 268.016C63.3724 268.188 63.8568 268.516 64.2109 269C64.5703 269.479 64.75 270.052 64.75 270.719C64.75 271.74 64.4193 272.542 63.7578 273.125C63.0964 273.708 62.1615 274 60.9531 274H57.0078ZM58.5078 268.68V272.773H60.9844C61.6823 272.773 62.2318 272.594 62.6328 272.234C63.0391 271.87 63.2422 271.37 63.2422 270.734C63.2422 269.365 62.4974 268.68 61.0078 268.68H58.5078ZM58.5078 267.477H60.7734C61.4297 267.477 61.9531 267.312 62.3438 266.984C62.7396 266.656 62.9375 266.211 62.9375 265.648C62.9375 265.023 62.7552 264.57 62.3906 264.289C62.026 264.003 61.4714 263.859 60.7266 263.859H58.5078V267.477ZM71.9688 274C71.8854 273.833 71.8177 273.536 71.7656 273.109C71.0938 273.807 70.2917 274.156 69.3594 274.156C68.526 274.156 67.8411 273.922 67.3047 273.453C66.7734 272.979 66.5078 272.38 66.5078 271.656C66.5078 270.776 66.8411 270.094 67.5078 269.609C68.1797 269.12 69.1224 268.875 70.3359 268.875H71.7422V268.211C71.7422 267.706 71.5911 267.305 71.2891 267.008C70.987 266.706 70.5417 266.555 69.9531 266.555C69.4375 266.555 69.0052 266.685 68.6562 266.945C68.3073 267.206 68.1328 267.521 68.1328 267.891H66.6797C66.6797 267.469 66.8281 267.062 67.125 266.672C67.4271 266.276 67.8333 265.964 68.3438 265.734C68.8594 265.505 69.4245 265.391 70.0391 265.391C71.013 265.391 71.776 265.635 72.3281 266.125C72.8802 266.609 73.1667 267.279 73.1875 268.133V272.023C73.1875 272.799 73.2865 273.417 73.4844 273.875V274H71.9688ZM69.5703 272.898C70.0234 272.898 70.4531 272.781 70.8594 272.547C71.2656 272.312 71.5599 272.008 71.7422 271.633V269.898H70.6094C68.8385 269.898 67.9531 270.417 67.9531 271.453C67.9531 271.906 68.1042 272.26 68.4062 272.516C68.7083 272.771 69.0964 272.898 69.5703 272.898ZM76.8203 265.547L76.8672 266.609C77.513 265.797 78.3568 265.391 79.3984 265.391C81.1849 265.391 82.0859 266.398 82.1016 268.414V274H80.6562V268.406C80.651 267.797 80.5104 267.346 80.2344 267.055C79.9635 266.763 79.5391 266.617 78.9609 266.617C78.4922 266.617 78.0807 266.742 77.7266 266.992C77.3724 267.242 77.0964 267.57 76.8984 267.977V274H75.4531V265.547H76.8203ZM89.5 274C89.4167 273.833 89.349 273.536 89.2969 273.109C88.625 273.807 87.8229 274.156 86.8906 274.156C86.0573 274.156 85.3724 273.922 84.8359 273.453C84.3047 272.979 84.0391 272.38 84.0391 271.656C84.0391 270.776 84.3724 270.094 85.0391 269.609C85.7109 269.12 86.6536 268.875 87.8672 268.875H89.2734V268.211C89.2734 267.706 89.1224 267.305 88.8203 267.008C88.5182 266.706 88.0729 266.555 87.4844 266.555C86.9688 266.555 86.5365 266.685 86.1875 266.945C85.8385 267.206 85.6641 267.521 85.6641 267.891H84.2109C84.2109 267.469 84.3594 267.062 84.6562 266.672C84.9583 266.276 85.3646 265.964 85.875 265.734C86.3906 265.505 86.9557 265.391 87.5703 265.391C88.5443 265.391 89.3073 265.635 89.8594 266.125C90.4115 266.609 90.6979 267.279 90.7188 268.133V272.023C90.7188 272.799 90.8177 273.417 91.0156 273.875V274H89.5ZM87.1016 272.898C87.5547 272.898 87.9844 272.781 88.3906 272.547C88.7969 272.312 89.0911 272.008 89.2734 271.633V269.898H88.1406C86.3698 269.898 85.4844 270.417 85.4844 271.453C85.4844 271.906 85.6354 272.26 85.9375 272.516C86.2396 272.771 86.6276 272.898 87.1016 272.898ZM94.3516 265.547L94.3984 266.609C95.0443 265.797 95.888 265.391 96.9297 265.391C98.7161 265.391 99.6172 266.398 99.6328 268.414V274H98.1875V268.406C98.1823 267.797 98.0417 267.346 97.7656 267.055C97.4948 266.763 97.0703 266.617 96.4922 266.617C96.0234 266.617 95.612 266.742 95.2578 266.992C94.9036 267.242 94.6276 267.57 94.4297 267.977V274H92.9844V265.547H94.3516ZM107.031 274C106.948 273.833 106.88 273.536 106.828 273.109C106.156 273.807 105.354 274.156 104.422 274.156C103.589 274.156 102.904 273.922 102.367 273.453C101.836 272.979 101.57 272.38 101.57 271.656C101.57 270.776 101.904 270.094 102.57 269.609C103.242 269.12 104.185 268.875 105.398 268.875H106.805V268.211C106.805 267.706 106.654 267.305 106.352 267.008C106.049 266.706 105.604 266.555 105.016 266.555C104.5 266.555 104.068 266.685 103.719 266.945C103.37 267.206 103.195 267.521 103.195 267.891H101.742C101.742 267.469 101.891 267.062 102.188 266.672C102.49 266.276 102.896 265.964 103.406 265.734C103.922 265.505 104.487 265.391 105.102 265.391C106.076 265.391 106.839 265.635 107.391 266.125C107.943 266.609 108.229 267.279 108.25 268.133V272.023C108.25 272.799 108.349 273.417 108.547 273.875V274H107.031ZM104.633 272.898C105.086 272.898 105.516 272.781 105.922 272.547C106.328 272.312 106.622 272.008 106.805 271.633V269.898H105.672C103.901 269.898 103.016 270.417 103.016 271.453C103.016 271.906 103.167 272.26 103.469 272.516C103.771 272.771 104.159 272.898 104.633 272.898Z" fill="black"/>
<rect x="127" y="295" width="190" height="38" rx="15" fill="#2D9CDB"/>
<path d="M321.571 338.071L306.372 332.057L315.557 322.872L321.571 338.071Z" fill="#2D9CDB"/>
<path d="M152.719 318.508C152.333 319.06 151.794 319.474 151.102 319.75C150.414 320.021 149.612 320.156 148.695 320.156C147.768 320.156 146.945 319.94 146.227 319.508C145.508 319.07 144.951 318.451 144.555 317.648C144.164 316.846 143.964 315.917 143.953 314.859V313.867C143.953 312.154 144.352 310.826 145.148 309.883C145.951 308.94 147.076 308.469 148.523 308.469C149.711 308.469 150.667 308.773 151.391 309.383C152.115 309.987 152.557 310.846 152.719 311.961H151.219C150.938 310.456 150.042 309.703 148.531 309.703C147.526 309.703 146.763 310.057 146.242 310.766C145.727 311.469 145.466 312.49 145.461 313.828V314.758C145.461 316.034 145.753 317.049 146.336 317.805C146.919 318.555 147.708 318.93 148.703 318.93C149.266 318.93 149.758 318.867 150.18 318.742C150.602 318.617 150.951 318.406 151.227 318.109V315.555H148.594V314.336H152.719V318.508ZM154.617 315.695C154.617 314.867 154.779 314.122 155.102 313.461C155.43 312.799 155.883 312.289 156.461 311.93C157.044 311.57 157.708 311.391 158.453 311.391C159.604 311.391 160.534 311.789 161.242 312.586C161.956 313.383 162.312 314.443 162.312 315.766V315.867C162.312 316.69 162.154 317.43 161.836 318.086C161.523 318.737 161.073 319.245 160.484 319.609C159.901 319.974 159.229 320.156 158.469 320.156C157.323 320.156 156.393 319.758 155.68 318.961C154.971 318.164 154.617 317.109 154.617 315.797V315.695ZM156.07 315.867C156.07 316.805 156.286 317.557 156.719 318.125C157.156 318.693 157.74 318.977 158.469 318.977C159.203 318.977 159.786 318.69 160.219 318.117C160.651 317.539 160.867 316.732 160.867 315.695C160.867 314.768 160.646 314.018 160.203 313.445C159.766 312.867 159.182 312.578 158.453 312.578C157.74 312.578 157.164 312.862 156.727 313.43C156.289 313.997 156.07 314.81 156.07 315.867ZM166.086 309.5V311.547H167.664V312.664H166.086V317.906C166.086 318.245 166.156 318.5 166.297 318.672C166.438 318.839 166.677 318.922 167.016 318.922C167.182 318.922 167.411 318.891 167.703 318.828V320C167.323 320.104 166.953 320.156 166.594 320.156C165.948 320.156 165.461 319.961 165.133 319.57C164.805 319.18 164.641 318.625 164.641 317.906V312.664H163.102V311.547H164.641V309.5H166.086ZM174.898 320H173.453V311.547H174.898V320ZM173.336 309.305C173.336 309.07 173.406 308.872 173.547 308.711C173.693 308.549 173.906 308.469 174.188 308.469C174.469 308.469 174.682 308.549 174.828 308.711C174.974 308.872 175.047 309.07 175.047 309.305C175.047 309.539 174.974 309.734 174.828 309.891C174.682 310.047 174.469 310.125 174.188 310.125C173.906 310.125 173.693 310.047 173.547 309.891C173.406 309.734 173.336 309.539 173.336 309.305ZM179.18 309.5V311.547H180.758V312.664H179.18V317.906C179.18 318.245 179.25 318.5 179.391 318.672C179.531 318.839 179.771 318.922 180.109 318.922C180.276 318.922 180.505 318.891 180.797 318.828V320C180.417 320.104 180.047 320.156 179.688 320.156C179.042 320.156 178.555 319.961 178.227 319.57C177.898 319.18 177.734 318.625 177.734 317.906V312.664H176.195V311.547H177.734V309.5H179.18ZM184.07 316.789H182.766L182.664 308.625H184.18L184.07 316.789ZM182.609 319.273C182.609 319.039 182.68 318.844 182.82 318.688C182.966 318.526 183.18 318.445 183.461 318.445C183.742 318.445 183.956 318.526 184.102 318.688C184.247 318.844 184.32 319.039 184.32 319.273C184.32 319.508 184.247 319.703 184.102 319.859C183.956 320.01 183.742 320.086 183.461 320.086C183.18 320.086 182.966 320.01 182.82 319.859C182.68 319.703 182.609 319.508 182.609 319.273ZM192.383 320H190.883V308.625H192.383V320ZM195.008 311.828L194.188 311.266C194.672 310.589 194.922 309.875 194.938 309.125V308H196.367V309.016C196.362 309.536 196.232 310.057 195.977 310.578C195.727 311.094 195.404 311.51 195.008 311.828ZM199.312 311.547L199.352 312.484C199.971 311.755 200.807 311.391 201.859 311.391C203.042 311.391 203.846 311.844 204.273 312.75C204.555 312.344 204.919 312.016 205.367 311.766C205.82 311.516 206.354 311.391 206.969 311.391C208.823 311.391 209.766 312.372 209.797 314.336V320H208.352V314.422C208.352 313.818 208.214 313.367 207.938 313.07C207.661 312.768 207.198 312.617 206.547 312.617C206.01 312.617 205.565 312.779 205.211 313.102C204.857 313.419 204.651 313.849 204.594 314.391V320H203.141V314.461C203.141 313.232 202.539 312.617 201.336 312.617C200.388 312.617 199.74 313.021 199.391 313.828V320H197.945V311.547H199.312ZM220.039 312.844C219.82 312.807 219.583 312.789 219.328 312.789C218.38 312.789 217.737 313.193 217.398 314V320H215.953V311.547H217.359L217.383 312.523C217.857 311.768 218.529 311.391 219.398 311.391C219.68 311.391 219.893 311.427 220.039 311.5V312.844ZM224.727 320.156C223.581 320.156 222.648 319.781 221.93 319.031C221.211 318.276 220.852 317.268 220.852 316.008V315.742C220.852 314.904 221.01 314.156 221.328 313.5C221.651 312.839 222.099 312.323 222.672 311.953C223.25 311.578 223.875 311.391 224.547 311.391C225.646 311.391 226.5 311.753 227.109 312.477C227.719 313.201 228.023 314.237 228.023 315.586V316.188H222.297C222.318 317.021 222.56 317.695 223.023 318.211C223.492 318.721 224.086 318.977 224.805 318.977C225.315 318.977 225.747 318.872 226.102 318.664C226.456 318.456 226.766 318.18 227.031 317.836L227.914 318.523C227.206 319.612 226.143 320.156 224.727 320.156ZM224.547 312.578C223.964 312.578 223.474 312.792 223.078 313.219C222.682 313.641 222.438 314.234 222.344 315H226.578V314.891C226.536 314.156 226.339 313.589 225.984 313.188C225.63 312.781 225.151 312.578 224.547 312.578ZM234.922 320C234.839 319.833 234.771 319.536 234.719 319.109C234.047 319.807 233.245 320.156 232.312 320.156C231.479 320.156 230.794 319.922 230.258 319.453C229.727 318.979 229.461 318.38 229.461 317.656C229.461 316.776 229.794 316.094 230.461 315.609C231.133 315.12 232.076 314.875 233.289 314.875H234.695V314.211C234.695 313.706 234.544 313.305 234.242 313.008C233.94 312.706 233.495 312.555 232.906 312.555C232.391 312.555 231.958 312.685 231.609 312.945C231.26 313.206 231.086 313.521 231.086 313.891H229.633C229.633 313.469 229.781 313.062 230.078 312.672C230.38 312.276 230.786 311.964 231.297 311.734C231.812 311.505 232.378 311.391 232.992 311.391C233.966 311.391 234.729 311.635 235.281 312.125C235.833 312.609 236.12 313.279 236.141 314.133V318.023C236.141 318.799 236.24 319.417 236.438 319.875V320H234.922ZM232.523 318.898C232.977 318.898 233.406 318.781 233.812 318.547C234.219 318.312 234.513 318.008 234.695 317.633V315.898H233.562C231.792 315.898 230.906 316.417 230.906 317.453C230.906 317.906 231.057 318.26 231.359 318.516C231.661 318.771 232.049 318.898 232.523 318.898ZM238.055 315.703C238.055 314.406 238.362 313.365 238.977 312.578C239.591 311.786 240.396 311.391 241.391 311.391C242.38 311.391 243.164 311.729 243.742 312.406V308H245.188V320H243.859L243.789 319.094C243.211 319.802 242.406 320.156 241.375 320.156C240.396 320.156 239.596 319.755 238.977 318.953C238.362 318.151 238.055 317.104 238.055 315.812V315.703ZM239.5 315.867C239.5 316.826 239.698 317.576 240.094 318.117C240.49 318.659 241.036 318.93 241.734 318.93C242.651 318.93 243.32 318.518 243.742 317.695V313.812C243.31 313.016 242.646 312.617 241.75 312.617C241.042 312.617 240.49 312.891 240.094 313.438C239.698 313.984 239.5 314.794 239.5 315.867ZM250.203 317.883L252.172 311.547H253.719L250.32 321.305C249.794 322.711 248.958 323.414 247.812 323.414L247.539 323.391L247 323.289V322.117L247.391 322.148C247.88 322.148 248.26 322.049 248.531 321.852C248.807 321.654 249.034 321.292 249.211 320.766L249.531 319.906L246.516 311.547H248.094L250.203 317.883ZM259.695 320V312.664H258.359V311.547H259.695V310.68C259.695 309.773 259.938 309.073 260.422 308.578C260.906 308.083 261.591 307.836 262.477 307.836C262.81 307.836 263.141 307.88 263.469 307.969L263.391 309.141C263.146 309.094 262.885 309.07 262.609 309.07C262.141 309.07 261.779 309.208 261.523 309.484C261.268 309.755 261.141 310.146 261.141 310.656V311.547H262.945V312.664H261.141V320H259.695ZM264.164 315.695C264.164 314.867 264.326 314.122 264.648 313.461C264.977 312.799 265.43 312.289 266.008 311.93C266.591 311.57 267.255 311.391 268 311.391C269.151 311.391 270.081 311.789 270.789 312.586C271.503 313.383 271.859 314.443 271.859 315.766V315.867C271.859 316.69 271.701 317.43 271.383 318.086C271.07 318.737 270.62 319.245 270.031 319.609C269.448 319.974 268.776 320.156 268.016 320.156C266.87 320.156 265.94 319.758 265.227 318.961C264.518 318.164 264.164 317.109 264.164 315.797V315.695ZM265.617 315.867C265.617 316.805 265.833 317.557 266.266 318.125C266.703 318.693 267.286 318.977 268.016 318.977C268.75 318.977 269.333 318.69 269.766 318.117C270.198 317.539 270.414 316.732 270.414 315.695C270.414 314.768 270.193 314.018 269.75 313.445C269.312 312.867 268.729 312.578 268 312.578C267.286 312.578 266.711 312.862 266.273 313.43C265.836 313.997 265.617 314.81 265.617 315.867ZM277.758 312.844C277.539 312.807 277.302 312.789 277.047 312.789C276.099 312.789 275.456 313.193 275.117 314V320H273.672V311.547H275.078L275.102 312.523C275.576 311.768 276.247 311.391 277.117 311.391C277.398 311.391 277.612 311.427 277.758 311.5V312.844ZM287.945 316.797H285.883L285.258 320H284.141L284.766 316.797H282.898V315.727H284.969L285.508 312.961H283.492V311.875H285.719L286.359 308.625H287.477L286.836 311.875H288.898L289.539 308.625H290.664L290.023 311.875H291.617V312.961H289.812L289.273 315.727H291.031V316.797H289.07L288.445 320H287.32L287.945 316.797ZM286.086 315.727H288.148L288.688 312.961H286.625L286.086 315.727ZM298.875 316.18H300.453V317.359H298.875V320H297.422V317.359H292.242V316.508L297.336 308.625H298.875V316.18ZM293.883 316.18H297.422V310.602L297.25 310.914L293.883 316.18Z" fill="white"/>
</g>
<defs>
<clipPath id="clip0">
<rect width="331" height="340" fill="white"/>
</clipPath>
</defs>
</svg>
