<svg width="669" height="214" viewBox="0 0 669 214" fill="none" xmlns="http://www.w3.org/2000/svg">
<rect width="669" height="214" fill="white"/>
<rect x="9.5" y="50.5" width="54" height="99" fill="#EB5757" stroke="black"/>
<rect x="63.5" y="50.5" width="54" height="99" fill="#EB5757" stroke="black"/>
<rect x="117.5" y="50.5" width="54" height="99" fill="#EB5757" stroke="black"/>
<rect x="171.5" y="50.5" width="54" height="99" fill="#F2C94C" stroke="black"/>
<rect x="225.5" y="50.5" width="54" height="99" fill="#F2C94C" stroke="black"/>
<rect x="279.5" y="50.5" width="54" height="99" fill="#F2C94C" stroke="black"/>
<rect x="333.5" y="50.5" width="54" height="99" fill="#6FCF97" stroke="black"/>
<rect x="387.5" y="50.5" width="54" height="99" fill="#6FCF97" stroke="black"/>
<rect x="441.5" y="50.5" width="54" height="99" fill="#6FCF97" stroke="black"/>
<rect x="495.5" y="50.5" width="54" height="99" fill="#6FCF97" stroke="black"/>
<rect x="549.5" y="50.5" width="54" height="99" fill="#6FCF97" stroke="black"/>
<rect x="603.5" y="50.5" width="54" height="99" fill="#6FCF97" stroke="black"/>
<path d="M9.95242 39C-11.0365 -27.5217 321.714 62.1594 334 5" stroke="black" stroke-opacity="0.3"/>
<path d="M655.053 39C675.913 -27.5217 345.211 62.1594 333 5" stroke="black" stroke-opacity="0.3"/>
<path d="M174.226 161C169.253 196.217 248.089 148.739 251 179" stroke="black" stroke-opacity="0.3"/>
<path d="M327.774 161C332.747 196.217 253.911 148.739 251 179" stroke="black" stroke-opacity="0.3"/>
<path d="M341.451 161C331.506 196.217 489.178 148.739 495 179" stroke="black" stroke-opacity="0.3"/>
<path d="M648.549 161C658.494 196.217 500.822 148.739 495 179" stroke="black" stroke-opacity="0.3"/>
<path d="M320.539 39H319.473L320.727 31.8047L318.459 32.6016L318.641 31.5703L321.805 30.4277H321.992L320.539 39ZM329.164 39H323.732L323.861 38.1738L327.008 35.1152L327.582 34.5469C328.242 33.8867 328.607 33.2773 328.678 32.7188C328.729 32.2891 328.645 31.9395 328.426 31.6699C328.207 31.3965 327.898 31.252 327.5 31.2363C326.988 31.2207 326.561 31.3711 326.217 31.6875C325.873 32 325.664 32.4297 325.59 32.9766L324.541 32.9824C324.592 32.459 324.752 31.9961 325.021 31.5938C325.295 31.1875 325.652 30.877 326.094 30.6621C326.539 30.4434 327.021 30.3398 327.541 30.3516C328.248 30.3672 328.809 30.582 329.223 30.9961C329.641 31.4062 329.82 31.9395 329.762 32.5957C329.695 33.3457 329.264 34.1348 328.467 34.9629L327.928 35.5078L325.186 38.1152H329.305L329.164 39ZM333.482 39L334.965 30.4688L337.467 30.4746C338.338 30.4746 338.99 30.6699 339.424 31.0605C339.857 31.4512 340.047 31.9961 339.992 32.6953C339.922 33.5117 339.408 34.127 338.451 34.541C338.834 34.6895 339.119 34.9434 339.307 35.3027C339.498 35.6621 339.576 36.0586 339.541 36.4922C339.482 37.2617 339.174 37.873 338.615 38.3262C338.057 38.7754 337.334 39 336.447 39H333.482ZM335.275 35.0098L334.742 38.0801L336.482 38.0859C337.014 38.0859 337.459 37.9434 337.818 37.6582C338.178 37.373 338.387 36.9883 338.445 36.5039C338.5 36.043 338.42 35.6836 338.205 35.4258C337.99 35.168 337.652 35.0312 337.191 35.0156L335.275 35.0098ZM335.434 34.1074L337.021 34.1133C337.518 34.1133 337.936 33.9863 338.275 33.7324C338.619 33.4785 338.82 33.1289 338.879 32.6836C338.93 32.2695 338.848 31.957 338.633 31.7461C338.422 31.5352 338.07 31.4199 337.578 31.4004L335.902 31.3945L335.434 34.1074ZM341.779 39H340.725L341.826 32.6602H342.881L341.779 39ZM342.652 30.3457C342.832 30.3379 342.98 30.3926 343.098 30.5098C343.219 30.623 343.279 30.7734 343.279 30.9609C343.275 31.1445 343.215 31.2949 343.098 31.4121C342.984 31.5293 342.836 31.5918 342.652 31.5996C342.469 31.6074 342.318 31.5547 342.201 31.4414C342.084 31.3281 342.027 31.1797 342.031 30.9961C342.035 30.8125 342.094 30.6602 342.207 30.5391C342.32 30.418 342.469 30.3535 342.652 30.3457ZM346.314 31.125L346.045 32.6602H347.199L347.053 33.498H345.904L345.242 37.4414C345.23 37.543 345.229 37.6367 345.236 37.7227C345.264 38.0273 345.43 38.1797 345.734 38.1797C345.863 38.1797 346.035 38.1602 346.25 38.1211L346.168 39.0059C345.914 39.0762 345.656 39.1113 345.395 39.1113C344.973 39.1035 344.656 38.9492 344.445 38.6484C344.234 38.3438 344.152 37.9355 344.199 37.4238L344.844 33.498H343.725L343.871 32.6602H344.99L345.26 31.125H346.314ZM351.307 37.2832C351.365 36.8457 351.125 36.5371 350.586 36.3574L349.484 36.0352C348.555 35.7148 348.105 35.1836 348.137 34.4414C348.164 33.8828 348.418 33.4258 348.898 33.0703C349.383 32.7109 349.951 32.5352 350.604 32.543C351.244 32.5508 351.764 32.7383 352.162 33.1055C352.564 33.4688 352.758 33.9434 352.742 34.5293L351.688 34.5234C351.695 34.207 351.596 33.9492 351.389 33.75C351.182 33.5508 350.906 33.4473 350.562 33.4395C350.195 33.4316 349.879 33.5215 349.613 33.709C349.367 33.8848 349.225 34.1152 349.186 34.4004C349.135 34.7676 349.359 35.0352 349.859 35.2031L350.393 35.3496C351.119 35.5371 351.635 35.7812 351.939 36.082C352.244 36.3828 352.385 36.7559 352.361 37.2012C352.338 37.5957 352.209 37.9395 351.975 38.2324C351.74 38.5254 351.428 38.75 351.037 38.9062C350.646 39.0586 350.23 39.1289 349.789 39.1172C349.117 39.1094 348.562 38.9141 348.125 38.5312C347.688 38.1445 347.477 37.6484 347.492 37.043L348.553 37.0488C348.553 37.4043 348.666 37.6895 348.893 37.9043C349.119 38.1191 349.43 38.2266 349.824 38.2266C350.211 38.2344 350.545 38.1543 350.826 37.9863C351.107 37.8145 351.268 37.5801 351.307 37.2832Z" fill="black" fill-opacity="0.5"/>
<path d="M207.209 193H206.143L203.096 186.379L201.947 193H200.84L202.322 184.469H203.389L206.441 191.119L207.596 184.469H208.691L207.209 193ZM211.773 193.117C210.984 193.102 210.367 192.811 209.922 192.244C209.477 191.678 209.289 190.953 209.359 190.07L209.389 189.818C209.455 189.189 209.641 188.615 209.945 188.096C210.254 187.576 210.629 187.186 211.07 186.924C211.512 186.658 211.988 186.531 212.5 186.543C213.152 186.559 213.664 186.775 214.035 187.193C214.406 187.611 214.609 188.178 214.645 188.893C214.656 189.146 214.648 189.4 214.621 189.654L214.557 190.141H210.414C210.344 190.715 210.438 191.203 210.695 191.605C210.957 192.008 211.346 192.217 211.861 192.232C212.486 192.248 213.064 191.967 213.596 191.389L214.205 191.904C213.939 192.287 213.596 192.588 213.174 192.807C212.756 193.021 212.289 193.125 211.773 193.117ZM212.447 187.428C212.01 187.416 211.627 187.564 211.299 187.873C210.975 188.182 210.717 188.641 210.525 189.25L213.607 189.256L213.631 189.162C213.693 188.67 213.613 188.262 213.391 187.938C213.172 187.609 212.857 187.439 212.447 187.428ZM218.055 185.125L217.785 186.66H218.939L218.793 187.498H217.645L216.982 191.441C216.971 191.543 216.969 191.637 216.977 191.723C217.004 192.027 217.17 192.18 217.475 192.18C217.604 192.18 217.775 192.16 217.99 192.121L217.908 193.006C217.654 193.076 217.396 193.111 217.135 193.111C216.713 193.104 216.396 192.949 216.186 192.648C215.975 192.344 215.893 191.936 215.939 191.424L216.584 187.498H215.465L215.611 186.66H216.73L217 185.125H218.055ZM224.811 191.5L226.832 186.66H227.928L225.039 193H224.178L223.521 188.207L221.236 193H220.375L219.689 186.66H220.703L221.09 191.383L223.34 186.66H224.195L224.811 191.5ZM231.455 186.543C231.986 186.551 232.441 186.695 232.82 186.977C233.199 187.258 233.479 187.646 233.658 188.143C233.842 188.635 233.904 189.174 233.846 189.76L233.834 189.889C233.76 190.506 233.576 191.064 233.283 191.564C232.99 192.061 232.611 192.447 232.146 192.725C231.682 193.002 231.172 193.133 230.617 193.117C230.09 193.109 229.635 192.965 229.252 192.684C228.873 192.402 228.596 192.02 228.42 191.535C228.244 191.051 228.182 190.518 228.232 189.936C228.291 189.279 228.469 188.689 228.766 188.166C229.062 187.643 229.443 187.238 229.908 186.953C230.377 186.664 230.893 186.527 231.455 186.543ZM229.299 189.941C229.271 190.188 229.271 190.443 229.299 190.709C229.338 191.17 229.475 191.537 229.709 191.811C229.947 192.084 230.264 192.227 230.658 192.238C231.01 192.25 231.334 192.164 231.631 191.98C231.928 191.793 232.178 191.512 232.381 191.137C232.584 190.762 232.715 190.346 232.773 189.889C232.805 189.529 232.811 189.227 232.791 188.98C232.744 188.508 232.602 188.135 232.363 187.861C232.125 187.588 231.809 187.443 231.414 187.428C230.867 187.416 230.402 187.631 230.02 188.072C229.637 188.514 229.4 189.092 229.311 189.807L229.299 189.941ZM238.58 187.627L238.082 187.574C237.402 187.574 236.867 187.881 236.477 188.494L235.697 193H234.637L235.738 186.66L236.764 186.654L236.605 187.393C237.055 186.803 237.584 186.516 238.193 186.531C238.322 186.531 238.49 186.561 238.697 186.619L238.58 187.627ZM240.906 190.076L240.074 190.82L239.699 193H238.639L240.203 184H241.264L240.326 189.379L240.977 188.723L243.227 186.66H244.604L241.691 189.361L243.695 193H242.535L240.906 190.076ZM250.217 192.238C250.596 192.246 250.938 192.137 251.242 191.91C251.547 191.68 251.746 191.379 251.84 191.008L252.842 191.002C252.783 191.4 252.623 191.764 252.361 192.092C252.104 192.42 251.777 192.676 251.383 192.859C250.988 193.043 250.584 193.129 250.17 193.117C249.643 193.109 249.195 192.973 248.828 192.707C248.465 192.438 248.197 192.064 248.025 191.588C247.854 191.107 247.795 190.568 247.85 189.971L247.879 189.678C247.953 189.068 248.131 188.523 248.412 188.043C248.693 187.562 249.061 187.189 249.514 186.924C249.967 186.654 250.467 186.527 251.014 186.543C251.678 186.559 252.209 186.781 252.607 187.211C253.006 187.641 253.205 188.186 253.205 188.846L252.215 188.84C252.207 188.426 252.092 188.092 251.869 187.838C251.646 187.58 251.346 187.443 250.967 187.428C250.416 187.416 249.957 187.621 249.59 188.043C249.227 188.465 249 189.055 248.91 189.812L248.893 189.965C248.869 190.215 248.865 190.473 248.881 190.738C248.908 191.195 249.037 191.557 249.268 191.822C249.498 192.088 249.814 192.227 250.217 192.238ZM257.213 186.543C257.744 186.551 258.199 186.695 258.578 186.977C258.957 187.258 259.236 187.646 259.416 188.143C259.6 188.635 259.662 189.174 259.604 189.76L259.592 189.889C259.518 190.506 259.334 191.064 259.041 191.564C258.748 192.061 258.369 192.447 257.904 192.725C257.439 193.002 256.93 193.133 256.375 193.117C255.848 193.109 255.393 192.965 255.01 192.684C254.631 192.402 254.354 192.02 254.178 191.535C254.002 191.051 253.939 190.518 253.99 189.936C254.049 189.279 254.227 188.689 254.523 188.166C254.82 187.643 255.201 187.238 255.666 186.953C256.135 186.664 256.65 186.527 257.213 186.543ZM255.057 189.941C255.029 190.188 255.029 190.443 255.057 190.709C255.096 191.17 255.232 191.537 255.467 191.811C255.705 192.084 256.021 192.227 256.416 192.238C256.768 192.25 257.092 192.164 257.389 191.98C257.686 191.793 257.936 191.512 258.139 191.137C258.342 190.762 258.473 190.346 258.531 189.889C258.562 189.529 258.568 189.227 258.549 188.98C258.502 188.508 258.359 188.135 258.121 187.861C257.883 187.588 257.566 187.443 257.172 187.428C256.625 187.416 256.16 187.631 255.777 188.072C255.395 188.514 255.158 189.092 255.068 189.807L255.057 189.941ZM262.498 186.654L262.346 187.457C262.916 186.832 263.564 186.527 264.291 186.543C264.889 186.559 265.33 186.766 265.615 187.164C265.9 187.562 266.006 188.123 265.932 188.846L265.24 193H264.18L264.877 188.828C264.9 188.637 264.902 188.459 264.883 188.295C264.816 187.748 264.494 187.469 263.916 187.457C263.279 187.445 262.721 187.785 262.24 188.477L261.455 193H260.395L261.496 186.66L262.498 186.654ZM267.186 189.818C267.279 189.127 267.465 188.527 267.742 188.02C268.023 187.508 268.363 187.131 268.762 186.889C269.164 186.643 269.604 186.525 270.08 186.537C270.814 186.553 271.369 186.83 271.744 187.369L271.955 186.66H272.928L271.873 192.865C271.76 193.674 271.432 194.32 270.889 194.805C270.346 195.293 269.676 195.525 268.879 195.502C268.449 195.494 268.037 195.393 267.643 195.197C267.252 195.002 266.943 194.734 266.717 194.395L267.32 193.744C267.703 194.311 268.209 194.602 268.838 194.617C269.342 194.633 269.768 194.492 270.115 194.195C270.467 193.898 270.699 193.477 270.812 192.93L270.93 192.367C270.414 192.883 269.811 193.133 269.119 193.117C268.725 193.105 268.381 193 268.088 192.801C267.799 192.598 267.574 192.307 267.414 191.928C267.254 191.545 267.166 191.119 267.15 190.65C267.143 190.42 267.154 190.143 267.186 189.818ZM268.211 190.422C268.199 190.98 268.295 191.414 268.498 191.723C268.705 192.027 269.016 192.188 269.43 192.203C270.062 192.219 270.607 191.908 271.064 191.271L271.562 188.359C271.328 187.781 270.904 187.48 270.291 187.457C269.717 187.441 269.244 187.676 268.873 188.16C268.506 188.645 268.289 189.299 268.223 190.123L268.211 190.422ZM276.215 193.117C275.426 193.102 274.809 192.811 274.363 192.244C273.918 191.678 273.73 190.953 273.801 190.07L273.83 189.818C273.896 189.189 274.082 188.615 274.387 188.096C274.695 187.576 275.07 187.186 275.512 186.924C275.953 186.658 276.43 186.531 276.941 186.543C277.594 186.559 278.105 186.775 278.477 187.193C278.848 187.611 279.051 188.178 279.086 188.893C279.098 189.146 279.09 189.4 279.062 189.654L278.998 190.141H274.855C274.785 190.715 274.879 191.203 275.137 191.605C275.398 192.008 275.787 192.217 276.303 192.232C276.928 192.248 277.506 191.967 278.037 191.389L278.646 191.904C278.381 192.287 278.037 192.588 277.615 192.807C277.197 193.021 276.73 193.125 276.215 193.117ZM276.889 187.428C276.451 187.416 276.068 187.564 275.74 187.873C275.416 188.182 275.158 188.641 274.967 189.25L278.049 189.256L278.072 189.162C278.135 188.67 278.055 188.262 277.832 187.938C277.613 187.609 277.299 187.439 276.889 187.428ZM283.621 191.283C283.68 190.846 283.439 190.537 282.9 190.357L281.799 190.035C280.869 189.715 280.42 189.184 280.451 188.441C280.479 187.883 280.732 187.426 281.213 187.07C281.697 186.711 282.266 186.535 282.918 186.543C283.559 186.551 284.078 186.738 284.477 187.105C284.879 187.469 285.072 187.943 285.057 188.529L284.002 188.523C284.01 188.207 283.91 187.949 283.703 187.75C283.496 187.551 283.221 187.447 282.877 187.439C282.51 187.432 282.193 187.521 281.928 187.709C281.682 187.885 281.539 188.115 281.5 188.4C281.449 188.768 281.674 189.035 282.174 189.203L282.707 189.35C283.434 189.537 283.949 189.781 284.254 190.082C284.559 190.383 284.699 190.756 284.676 191.201C284.652 191.596 284.523 191.939 284.289 192.232C284.055 192.525 283.742 192.75 283.352 192.906C282.961 193.059 282.545 193.129 282.104 193.117C281.432 193.109 280.877 192.914 280.439 192.531C280.002 192.145 279.791 191.648 279.807 191.043L280.867 191.049C280.867 191.404 280.98 191.689 281.207 191.904C281.434 192.119 281.744 192.227 282.139 192.227C282.525 192.234 282.859 192.154 283.141 191.986C283.422 191.814 283.582 191.58 283.621 191.283ZM288.555 185.125L288.285 186.66H289.439L289.293 187.498H288.145L287.482 191.441C287.471 191.543 287.469 191.637 287.477 191.723C287.504 192.027 287.67 192.18 287.975 192.18C288.104 192.18 288.275 192.16 288.49 192.121L288.408 193.006C288.154 193.076 287.896 193.111 287.635 193.111C287.213 193.104 286.896 192.949 286.686 192.648C286.475 192.344 286.393 191.936 286.439 191.424L287.084 187.498H285.965L286.111 186.66H287.23L287.5 185.125H288.555ZM290.77 193H289.715L290.816 186.66H291.871L290.77 193ZM291.643 184.346C291.822 184.338 291.971 184.393 292.088 184.51C292.209 184.623 292.27 184.773 292.27 184.961C292.266 185.145 292.205 185.295 292.088 185.412C291.975 185.529 291.826 185.592 291.643 185.6C291.459 185.607 291.309 185.555 291.191 185.441C291.074 185.328 291.018 185.18 291.021 184.996C291.025 184.812 291.084 184.66 291.197 184.539C291.311 184.418 291.459 184.354 291.643 184.346ZM296.025 186.543C296.557 186.551 297.012 186.695 297.391 186.977C297.77 187.258 298.049 187.646 298.229 188.143C298.412 188.635 298.475 189.174 298.416 189.76L298.404 189.889C298.33 190.506 298.146 191.064 297.854 191.564C297.561 192.061 297.182 192.447 296.717 192.725C296.252 193.002 295.742 193.133 295.188 193.117C294.66 193.109 294.205 192.965 293.822 192.684C293.443 192.402 293.166 192.02 292.99 191.535C292.814 191.051 292.752 190.518 292.803 189.936C292.861 189.279 293.039 188.689 293.336 188.166C293.633 187.643 294.014 187.238 294.479 186.953C294.947 186.664 295.463 186.527 296.025 186.543ZM293.869 189.941C293.842 190.188 293.842 190.443 293.869 190.709C293.908 191.17 294.045 191.537 294.279 191.811C294.518 192.084 294.834 192.227 295.229 192.238C295.58 192.25 295.904 192.164 296.201 191.98C296.498 191.793 296.748 191.512 296.951 191.137C297.154 190.762 297.285 190.346 297.344 189.889C297.375 189.529 297.381 189.227 297.361 188.98C297.314 188.508 297.172 188.135 296.934 187.861C296.695 187.588 296.379 187.443 295.984 187.428C295.438 187.416 294.973 187.631 294.59 188.072C294.207 188.514 293.971 189.092 293.881 189.807L293.869 189.941ZM301.311 186.654L301.158 187.457C301.729 186.832 302.377 186.527 303.104 186.543C303.701 186.559 304.143 186.766 304.428 187.164C304.713 187.562 304.818 188.123 304.744 188.846L304.053 193H302.992L303.689 188.828C303.713 188.637 303.715 188.459 303.695 188.295C303.629 187.748 303.307 187.469 302.729 187.457C302.092 187.445 301.533 187.785 301.053 188.477L300.268 193H299.207L300.309 186.66L301.311 186.654ZM226.902 200.654L226.768 201.363C227.299 200.801 227.941 200.527 228.695 200.543C229.098 200.551 229.438 200.643 229.715 200.818C229.996 200.994 230.189 201.242 230.295 201.562C230.889 200.867 231.59 200.527 232.398 200.543C233.031 200.559 233.498 200.771 233.799 201.182C234.1 201.592 234.211 202.143 234.133 202.834L233.436 207H232.381L233.072 202.822C233.096 202.619 233.096 202.434 233.072 202.266C232.998 201.734 232.65 201.463 232.029 201.451C231.643 201.443 231.291 201.564 230.975 201.814C230.662 202.061 230.461 202.385 230.371 202.787L229.65 207H228.584L229.287 202.828C229.338 202.395 229.271 202.061 229.088 201.826C228.908 201.592 228.627 201.471 228.244 201.463C227.584 201.447 227.059 201.748 226.668 202.365L225.865 207H224.805L225.906 200.66L226.902 200.654ZM238.598 200.543C239.129 200.551 239.584 200.695 239.963 200.977C240.342 201.258 240.621 201.646 240.801 202.143C240.984 202.635 241.047 203.174 240.988 203.76L240.977 203.889C240.902 204.506 240.719 205.064 240.426 205.564C240.133 206.061 239.754 206.447 239.289 206.725C238.824 207.002 238.314 207.133 237.76 207.117C237.232 207.109 236.777 206.965 236.395 206.684C236.016 206.402 235.738 206.02 235.562 205.535C235.387 205.051 235.324 204.518 235.375 203.936C235.434 203.279 235.611 202.689 235.908 202.166C236.205 201.643 236.586 201.238 237.051 200.953C237.52 200.664 238.035 200.527 238.598 200.543ZM236.441 203.941C236.414 204.188 236.414 204.443 236.441 204.709C236.48 205.17 236.617 205.537 236.852 205.811C237.09 206.084 237.406 206.227 237.801 206.238C238.152 206.25 238.477 206.164 238.773 205.98C239.07 205.793 239.32 205.512 239.523 205.137C239.727 204.762 239.857 204.346 239.916 203.889C239.947 203.529 239.953 203.227 239.934 202.98C239.887 202.508 239.744 202.135 239.506 201.861C239.268 201.588 238.951 201.443 238.557 201.428C238.01 201.416 237.545 201.631 237.162 202.072C236.779 202.514 236.543 203.092 236.453 203.807L236.441 203.941ZM243.883 200.654L243.73 201.457C244.301 200.832 244.949 200.527 245.676 200.543C246.273 200.559 246.715 200.766 247 201.164C247.285 201.562 247.391 202.123 247.316 202.846L246.625 207H245.564L246.262 202.828C246.285 202.637 246.287 202.459 246.268 202.295C246.201 201.748 245.879 201.469 245.301 201.457C244.664 201.445 244.105 201.785 243.625 202.477L242.84 207H241.779L242.881 200.66L243.883 200.654ZM249.408 207H248.354L249.455 200.66H250.51L249.408 207ZM250.281 198.346C250.461 198.338 250.609 198.393 250.727 198.51C250.848 198.623 250.908 198.773 250.908 198.961C250.904 199.145 250.844 199.295 250.727 199.412C250.613 199.529 250.465 199.592 250.281 199.6C250.098 199.607 249.947 199.555 249.83 199.441C249.713 199.328 249.656 199.18 249.66 198.996C249.664 198.812 249.723 198.66 249.836 198.539C249.949 198.418 250.098 198.354 250.281 198.346ZM253.943 199.125L253.674 200.66H254.828L254.682 201.498H253.533L252.871 205.441C252.859 205.543 252.857 205.637 252.865 205.723C252.893 206.027 253.059 206.18 253.363 206.18C253.492 206.18 253.664 206.16 253.879 206.121L253.797 207.006C253.543 207.076 253.285 207.111 253.023 207.111C252.602 207.104 252.285 206.949 252.074 206.648C251.863 206.344 251.781 205.936 251.828 205.424L252.473 201.498H251.354L251.5 200.66H252.619L252.889 199.125H253.943ZM258.414 200.543C258.945 200.551 259.4 200.695 259.779 200.977C260.158 201.258 260.438 201.646 260.617 202.143C260.801 202.635 260.863 203.174 260.805 203.76L260.793 203.889C260.719 204.506 260.535 205.064 260.242 205.564C259.949 206.061 259.57 206.447 259.105 206.725C258.641 207.002 258.131 207.133 257.576 207.117C257.049 207.109 256.594 206.965 256.211 206.684C255.832 206.402 255.555 206.02 255.379 205.535C255.203 205.051 255.141 204.518 255.191 203.936C255.25 203.279 255.428 202.689 255.725 202.166C256.021 201.643 256.402 201.238 256.867 200.953C257.336 200.664 257.852 200.527 258.414 200.543ZM256.258 203.941C256.23 204.188 256.23 204.443 256.258 204.709C256.297 205.17 256.434 205.537 256.668 205.811C256.906 206.084 257.223 206.227 257.617 206.238C257.969 206.25 258.293 206.164 258.59 205.98C258.887 205.793 259.137 205.512 259.34 205.137C259.543 204.762 259.674 204.346 259.732 203.889C259.764 203.529 259.77 203.227 259.75 202.98C259.703 202.508 259.561 202.135 259.322 201.861C259.084 201.588 258.768 201.443 258.373 201.428C257.826 201.416 257.361 201.631 256.979 202.072C256.596 202.514 256.359 203.092 256.27 203.807L256.258 203.941ZM265.539 201.627L265.041 201.574C264.361 201.574 263.826 201.881 263.436 202.494L262.656 207H261.596L262.697 200.66L263.723 200.654L263.564 201.393C264.014 200.803 264.543 200.516 265.152 200.531C265.281 200.531 265.449 200.561 265.656 200.619L265.539 201.627ZM266.74 207H265.686L266.787 200.66H267.842L266.74 207ZM267.613 198.346C267.793 198.338 267.941 198.393 268.059 198.51C268.18 198.623 268.24 198.773 268.24 198.961C268.236 199.145 268.176 199.295 268.059 199.412C267.945 199.529 267.797 199.592 267.613 199.6C267.43 199.607 267.279 199.555 267.162 199.441C267.045 199.328 266.988 199.18 266.992 198.996C266.996 198.812 267.055 198.66 267.168 198.539C267.281 198.418 267.43 198.354 267.613 198.346ZM270.578 200.654L270.426 201.457C270.996 200.832 271.645 200.527 272.371 200.543C272.969 200.559 273.41 200.766 273.695 201.164C273.98 201.562 274.086 202.123 274.012 202.846L273.32 207H272.26L272.957 202.828C272.98 202.637 272.982 202.459 272.963 202.295C272.896 201.748 272.574 201.469 271.996 201.457C271.359 201.445 270.801 201.785 270.32 202.477L269.535 207H268.475L269.576 200.66L270.578 200.654ZM275.266 203.818C275.359 203.127 275.545 202.527 275.822 202.02C276.104 201.508 276.443 201.131 276.842 200.889C277.244 200.643 277.684 200.525 278.16 200.537C278.895 200.553 279.449 200.83 279.824 201.369L280.035 200.66H281.008L279.953 206.865C279.84 207.674 279.512 208.32 278.969 208.805C278.426 209.293 277.756 209.525 276.959 209.502C276.529 209.494 276.117 209.393 275.723 209.197C275.332 209.002 275.023 208.734 274.797 208.395L275.4 207.744C275.783 208.311 276.289 208.602 276.918 208.617C277.422 208.633 277.848 208.492 278.195 208.195C278.547 207.898 278.779 207.477 278.893 206.93L279.01 206.367C278.494 206.883 277.891 207.133 277.199 207.117C276.805 207.105 276.461 207 276.168 206.801C275.879 206.598 275.654 206.307 275.494 205.928C275.334 205.545 275.246 205.119 275.23 204.65C275.223 204.42 275.234 204.143 275.266 203.818ZM276.291 204.422C276.279 204.98 276.375 205.414 276.578 205.723C276.785 206.027 277.096 206.188 277.51 206.203C278.143 206.219 278.688 205.908 279.145 205.271L279.643 202.359C279.408 201.781 278.984 201.48 278.371 201.457C277.797 201.441 277.324 201.676 276.953 202.16C276.586 202.645 276.369 203.299 276.303 204.123L276.291 204.422Z" fill="black" fill-opacity="0.5"/>
<path d="M433.551 190.395H430.896L429.578 198H428.482L429.801 190.395H427.146L427.311 189.469H433.715L433.551 190.395ZM439.855 195.281C439.691 196.164 439.291 196.863 438.654 197.379C438.021 197.895 437.262 198.141 436.375 198.117C435.848 198.105 435.387 197.977 434.992 197.73C434.598 197.48 434.291 197.123 434.072 196.658C433.854 196.189 433.732 195.672 433.709 195.105C433.693 194.785 433.707 194.473 433.75 194.168L433.85 193.465C434.033 192.184 434.482 191.174 435.197 190.436C435.916 189.693 436.789 189.332 437.816 189.352C438.617 189.367 439.252 189.627 439.721 190.131C440.189 190.631 440.438 191.326 440.465 192.217H439.369C439.318 191.021 438.85 190.377 437.963 190.283L437.77 190.271C437.031 190.252 436.414 190.527 435.918 191.098C435.426 191.664 435.107 192.439 434.963 193.424L434.834 194.309L434.799 194.824C434.775 195.543 434.902 196.115 435.18 196.541C435.461 196.963 435.877 197.182 436.428 197.197C437.021 197.217 437.512 197.074 437.898 196.77C438.289 196.465 438.586 195.975 438.789 195.299L439.855 195.281ZM442.674 194.66L442.094 198H440.992L442.475 189.469L445.322 189.475C446.201 189.475 446.879 189.709 447.355 190.178C447.832 190.643 448.037 191.262 447.971 192.035C447.9 192.852 447.574 193.494 446.992 193.963C446.414 194.432 445.65 194.666 444.701 194.666L442.674 194.66ZM442.832 193.74L444.73 193.746C445.328 193.746 445.818 193.596 446.201 193.295C446.584 192.994 446.809 192.576 446.875 192.041C446.938 191.561 446.838 191.172 446.576 190.875C446.314 190.574 445.934 190.416 445.434 190.4L443.412 190.395L442.832 193.74ZM457.844 195.281C457.68 196.164 457.279 196.863 456.643 197.379C456.01 197.895 455.25 198.141 454.363 198.117C453.836 198.105 453.375 197.977 452.98 197.73C452.586 197.48 452.279 197.123 452.061 196.658C451.842 196.189 451.721 195.672 451.697 195.105C451.682 194.785 451.695 194.473 451.738 194.168L451.838 193.465C452.021 192.184 452.471 191.174 453.186 190.436C453.904 189.693 454.777 189.332 455.805 189.352C456.605 189.367 457.24 189.627 457.709 190.131C458.178 190.631 458.426 191.326 458.453 192.217H457.357C457.307 191.021 456.838 190.377 455.951 190.283L455.758 190.271C455.02 190.252 454.402 190.527 453.906 191.098C453.414 191.664 453.096 192.439 452.951 193.424L452.822 194.309L452.787 194.824C452.764 195.543 452.891 196.115 453.168 196.541C453.449 196.963 453.865 197.182 454.416 197.197C455.01 197.217 455.5 197.074 455.887 196.77C456.277 196.465 456.574 195.975 456.777 195.299L457.844 195.281ZM462.338 191.543C462.869 191.551 463.324 191.695 463.703 191.977C464.082 192.258 464.361 192.646 464.541 193.143C464.725 193.635 464.787 194.174 464.729 194.76L464.717 194.889C464.643 195.506 464.459 196.064 464.166 196.564C463.873 197.061 463.494 197.447 463.029 197.725C462.564 198.002 462.055 198.133 461.5 198.117C460.973 198.109 460.518 197.965 460.135 197.684C459.756 197.402 459.479 197.02 459.303 196.535C459.127 196.051 459.064 195.518 459.115 194.936C459.174 194.279 459.352 193.689 459.648 193.166C459.945 192.643 460.326 192.238 460.791 191.953C461.26 191.664 461.775 191.527 462.338 191.543ZM460.182 194.941C460.154 195.188 460.154 195.443 460.182 195.709C460.221 196.17 460.357 196.537 460.592 196.811C460.83 197.084 461.146 197.227 461.541 197.238C461.893 197.25 462.217 197.164 462.514 196.98C462.811 196.793 463.061 196.512 463.264 196.137C463.467 195.762 463.598 195.346 463.656 194.889C463.688 194.529 463.693 194.227 463.674 193.98C463.627 193.508 463.484 193.135 463.246 192.861C463.008 192.588 462.691 192.443 462.297 192.428C461.75 192.416 461.285 192.631 460.902 193.072C460.52 193.514 460.283 194.092 460.193 194.807L460.182 194.941ZM467.623 191.654L467.471 192.457C468.041 191.832 468.689 191.527 469.416 191.543C470.014 191.559 470.455 191.766 470.74 192.164C471.025 192.562 471.131 193.123 471.057 193.846L470.365 198H469.305L470.002 193.828C470.025 193.637 470.027 193.459 470.008 193.295C469.941 192.748 469.619 192.469 469.041 192.457C468.404 192.445 467.846 192.785 467.365 193.477L466.58 198H465.52L466.621 191.66L467.623 191.654ZM474.104 191.654L473.951 192.457C474.521 191.832 475.17 191.527 475.896 191.543C476.494 191.559 476.936 191.766 477.221 192.164C477.506 192.562 477.611 193.123 477.537 193.846L476.846 198H475.785L476.482 193.828C476.506 193.637 476.508 193.459 476.488 193.295C476.422 192.748 476.1 192.469 475.521 192.457C474.885 192.445 474.326 192.785 473.846 193.477L473.061 198H472L473.102 191.66L474.104 191.654ZM481.223 198.117C480.434 198.102 479.816 197.811 479.371 197.244C478.926 196.678 478.738 195.953 478.809 195.07L478.838 194.818C478.904 194.189 479.09 193.615 479.395 193.096C479.703 192.576 480.078 192.186 480.52 191.924C480.961 191.658 481.438 191.531 481.949 191.543C482.602 191.559 483.113 191.775 483.484 192.193C483.855 192.611 484.059 193.178 484.094 193.893C484.105 194.146 484.098 194.4 484.07 194.654L484.006 195.141H479.863C479.793 195.715 479.887 196.203 480.145 196.605C480.406 197.008 480.795 197.217 481.311 197.232C481.936 197.248 482.514 196.967 483.045 196.389L483.654 196.904C483.389 197.287 483.045 197.588 482.623 197.807C482.205 198.021 481.738 198.125 481.223 198.117ZM481.896 192.428C481.459 192.416 481.076 192.564 480.748 192.873C480.424 193.182 480.166 193.641 479.975 194.25L483.057 194.256L483.08 194.162C483.143 193.67 483.062 193.262 482.84 192.938C482.621 192.609 482.307 192.439 481.896 192.428ZM487.381 197.238C487.76 197.246 488.102 197.137 488.406 196.91C488.711 196.68 488.91 196.379 489.004 196.008L490.006 196.002C489.947 196.4 489.787 196.764 489.525 197.092C489.268 197.42 488.941 197.676 488.547 197.859C488.152 198.043 487.748 198.129 487.334 198.117C486.807 198.109 486.359 197.973 485.992 197.707C485.629 197.438 485.361 197.064 485.189 196.588C485.018 196.107 484.959 195.568 485.014 194.971L485.043 194.678C485.117 194.068 485.295 193.523 485.576 193.043C485.857 192.562 486.225 192.189 486.678 191.924C487.131 191.654 487.631 191.527 488.178 191.543C488.842 191.559 489.373 191.781 489.771 192.211C490.17 192.641 490.369 193.186 490.369 193.846L489.379 193.84C489.371 193.426 489.256 193.092 489.033 192.838C488.811 192.58 488.51 192.443 488.131 192.428C487.58 192.416 487.121 192.621 486.754 193.043C486.391 193.465 486.164 194.055 486.074 194.812L486.057 194.965C486.033 195.215 486.029 195.473 486.045 195.738C486.072 196.195 486.201 196.557 486.432 196.822C486.662 197.088 486.979 197.227 487.381 197.238ZM493.656 190.125L493.387 191.66H494.541L494.395 192.498H493.246L492.584 196.441C492.572 196.543 492.57 196.637 492.578 196.723C492.605 197.027 492.771 197.18 493.076 197.18C493.205 197.18 493.377 197.16 493.592 197.121L493.51 198.006C493.256 198.076 492.998 198.111 492.736 198.111C492.314 198.104 491.998 197.949 491.787 197.648C491.576 197.344 491.494 196.936 491.541 196.424L492.186 192.498H491.066L491.213 191.66H492.332L492.602 190.125H493.656ZM495.871 198H494.816L495.918 191.66H496.973L495.871 198ZM496.744 189.346C496.924 189.338 497.072 189.393 497.189 189.51C497.311 189.623 497.371 189.773 497.371 189.961C497.367 190.145 497.307 190.295 497.189 190.412C497.076 190.529 496.928 190.592 496.744 190.6C496.561 190.607 496.41 190.555 496.293 190.441C496.176 190.328 496.119 190.18 496.123 189.996C496.127 189.812 496.186 189.66 496.299 189.539C496.412 189.418 496.561 189.354 496.744 189.346ZM501.127 191.543C501.658 191.551 502.113 191.695 502.492 191.977C502.871 192.258 503.15 192.646 503.33 193.143C503.514 193.635 503.576 194.174 503.518 194.76L503.506 194.889C503.432 195.506 503.248 196.064 502.955 196.564C502.662 197.061 502.283 197.447 501.818 197.725C501.354 198.002 500.844 198.133 500.289 198.117C499.762 198.109 499.307 197.965 498.924 197.684C498.545 197.402 498.268 197.02 498.092 196.535C497.916 196.051 497.854 195.518 497.904 194.936C497.963 194.279 498.141 193.689 498.438 193.166C498.734 192.643 499.115 192.238 499.58 191.953C500.049 191.664 500.564 191.527 501.127 191.543ZM498.971 194.941C498.943 195.188 498.943 195.443 498.971 195.709C499.01 196.17 499.146 196.537 499.381 196.811C499.619 197.084 499.936 197.227 500.33 197.238C500.682 197.25 501.006 197.164 501.303 196.98C501.6 196.793 501.85 196.512 502.053 196.137C502.256 195.762 502.387 195.346 502.445 194.889C502.477 194.529 502.482 194.227 502.463 193.98C502.416 193.508 502.273 193.135 502.035 192.861C501.797 192.588 501.48 192.443 501.086 192.428C500.539 192.416 500.074 192.631 499.691 193.072C499.309 193.514 499.072 194.092 498.982 194.807L498.971 194.941ZM506.412 191.654L506.26 192.457C506.83 191.832 507.479 191.527 508.205 191.543C508.803 191.559 509.244 191.766 509.529 192.164C509.814 192.562 509.92 193.123 509.846 193.846L509.154 198H508.094L508.791 193.828C508.814 193.637 508.816 193.459 508.797 193.295C508.73 192.748 508.408 192.469 507.83 192.457C507.193 192.445 506.635 192.785 506.154 193.477L505.369 198H504.309L505.41 191.66L506.412 191.654ZM515.16 197.08H519.086L518.922 198H513.895L515.377 189.469H516.484L515.16 197.08ZM521.207 198H520.152L521.254 191.66H522.309L521.207 198ZM522.08 189.346C522.26 189.338 522.408 189.393 522.525 189.51C522.646 189.623 522.707 189.773 522.707 189.961C522.703 190.145 522.643 190.295 522.525 190.412C522.412 190.529 522.264 190.592 522.08 190.6C521.896 190.607 521.746 190.555 521.629 190.441C521.512 190.328 521.455 190.18 521.459 189.996C521.463 189.812 521.521 189.66 521.635 189.539C521.748 189.418 521.896 189.354 522.08 189.346ZM523.457 198L524.418 192.498H523.439L523.586 191.66H524.559L524.664 190.91C524.766 190.273 525.012 189.775 525.402 189.416C525.812 189.041 526.336 188.857 526.973 188.865C527.172 188.865 527.424 188.898 527.729 188.965L527.6 189.85C527.412 189.811 527.223 189.787 527.031 189.779C526.664 189.779 526.365 189.895 526.135 190.125C525.908 190.352 525.768 190.654 525.713 191.033L525.619 191.66H526.932L526.785 192.498H525.473L524.518 198H523.457ZM529.645 198.117C528.855 198.102 528.238 197.811 527.793 197.244C527.348 196.678 527.16 195.953 527.23 195.07L527.26 194.818C527.326 194.189 527.512 193.615 527.816 193.096C528.125 192.576 528.5 192.186 528.941 191.924C529.383 191.658 529.859 191.531 530.371 191.543C531.023 191.559 531.535 191.775 531.906 192.193C532.277 192.611 532.48 193.178 532.516 193.893C532.527 194.146 532.52 194.4 532.492 194.654L532.428 195.141H528.285C528.215 195.715 528.309 196.203 528.566 196.605C528.828 197.008 529.217 197.217 529.732 197.232C530.357 197.248 530.936 196.967 531.467 196.389L532.076 196.904C531.811 197.287 531.467 197.588 531.045 197.807C530.627 198.021 530.16 198.125 529.645 198.117ZM530.318 192.428C529.881 192.416 529.498 192.564 529.17 192.873C528.846 193.182 528.588 193.641 528.396 194.25L531.479 194.256L531.502 194.162C531.564 193.67 531.484 193.262 531.262 192.938C531.043 192.609 530.729 192.439 530.318 192.428ZM535.803 197.238C536.182 197.246 536.523 197.137 536.828 196.91C537.133 196.68 537.332 196.379 537.426 196.008L538.428 196.002C538.369 196.4 538.209 196.764 537.947 197.092C537.689 197.42 537.363 197.676 536.969 197.859C536.574 198.043 536.17 198.129 535.756 198.117C535.229 198.109 534.781 197.973 534.414 197.707C534.051 197.438 533.783 197.064 533.611 196.588C533.439 196.107 533.381 195.568 533.436 194.971L533.465 194.678C533.539 194.068 533.717 193.523 533.998 193.043C534.279 192.562 534.646 192.189 535.1 191.924C535.553 191.654 536.053 191.527 536.6 191.543C537.264 191.559 537.795 191.781 538.193 192.211C538.592 192.641 538.791 193.186 538.791 193.846L537.801 193.84C537.793 193.426 537.678 193.092 537.455 192.838C537.232 192.58 536.932 192.443 536.553 192.428C536.002 192.416 535.543 192.621 535.176 193.043C534.812 193.465 534.586 194.055 534.496 194.812L534.479 194.965C534.455 195.215 534.451 195.473 534.467 195.738C534.494 196.195 534.623 196.557 534.854 196.822C535.084 197.088 535.4 197.227 535.803 197.238ZM541.551 196.4L543.807 191.66H544.979L541.217 199.055C540.693 200.082 540.021 200.59 539.201 200.578C539.057 200.574 538.844 200.539 538.562 200.473L538.656 199.594L538.932 199.623C539.268 199.639 539.557 199.562 539.799 199.395C540.045 199.23 540.262 198.963 540.449 198.592L540.83 197.865L539.734 191.66H540.842L541.551 196.4ZM547.439 197.238C547.818 197.246 548.16 197.137 548.465 196.91C548.77 196.68 548.969 196.379 549.062 196.008L550.064 196.002C550.006 196.4 549.846 196.764 549.584 197.092C549.326 197.42 549 197.676 548.605 197.859C548.211 198.043 547.807 198.129 547.393 198.117C546.865 198.109 546.418 197.973 546.051 197.707C545.688 197.438 545.42 197.064 545.248 196.588C545.076 196.107 545.018 195.568 545.072 194.971L545.102 194.678C545.176 194.068 545.354 193.523 545.635 193.043C545.916 192.562 546.283 192.189 546.736 191.924C547.189 191.654 547.689 191.527 548.236 191.543C548.9 191.559 549.432 191.781 549.83 192.211C550.229 192.641 550.428 193.186 550.428 193.846L549.438 193.84C549.43 193.426 549.314 193.092 549.092 192.838C548.869 192.58 548.568 192.443 548.189 192.428C547.639 192.416 547.18 192.621 546.812 193.043C546.449 193.465 546.223 194.055 546.133 194.812L546.115 194.965C546.092 195.215 546.088 195.473 546.104 195.738C546.131 196.195 546.26 196.557 546.49 196.822C546.721 197.088 547.037 197.227 547.439 197.238ZM552.062 198H551.008L552.566 189H553.627L552.062 198ZM556.539 198.117C555.75 198.102 555.133 197.811 554.688 197.244C554.242 196.678 554.055 195.953 554.125 195.07L554.154 194.818C554.221 194.189 554.406 193.615 554.711 193.096C555.02 192.576 555.395 192.186 555.836 191.924C556.277 191.658 556.754 191.531 557.266 191.543C557.918 191.559 558.43 191.775 558.801 192.193C559.172 192.611 559.375 193.178 559.41 193.893C559.422 194.146 559.414 194.4 559.387 194.654L559.322 195.141H555.18C555.109 195.715 555.203 196.203 555.461 196.605C555.723 197.008 556.111 197.217 556.627 197.232C557.252 197.248 557.83 196.967 558.361 196.389L558.971 196.904C558.705 197.287 558.361 197.588 557.939 197.807C557.521 198.021 557.055 198.125 556.539 198.117ZM557.213 192.428C556.775 192.416 556.393 192.564 556.064 192.873C555.74 193.182 555.482 193.641 555.291 194.25L558.373 194.256L558.396 194.162C558.459 193.67 558.379 193.262 558.156 192.938C557.938 192.609 557.623 192.439 557.213 192.428Z" fill="black" fill-opacity="0.5"/>
<path d="M20.7998 74.5757L19.8662 72.9587L16.26 75.0407L15.0881 73.011L24.9391 67.3235L27.0524 70.9838C27.7243 72.1475 27.9832 73.1948 27.829 74.1258C27.6749 75.0567 27.1242 75.7957 26.177 76.3425C25.505 76.7306 24.8588 76.9082 24.2384 76.8754C23.6252 76.8446 23.015 76.6105 22.4077 76.1733L19.6125 80.6287L19.5178 80.6834L18.26 78.5048L20.7998 74.5757ZM21.5103 72.0095L22.4556 73.6468C22.7498 74.1565 23.1063 74.4769 23.5248 74.6082C23.9479 74.7368 24.3872 74.6696 24.8428 74.4065C25.3074 74.1383 25.5959 73.7943 25.7084 73.3745C25.8235 72.9593 25.7234 72.4788 25.4083 71.933L24.4669 70.3024L21.5103 72.0095ZM21.9333 85.1796C21.3135 84.1061 21.1375 83.041 21.4054 81.9842C21.676 80.9319 22.3593 80.0893 23.4553 79.4565L23.6448 79.3472C24.38 78.9227 25.1183 78.6858 25.8597 78.6367C26.6056 78.5849 27.284 78.7285 27.8947 79.0676C28.5125 79.4085 29.0141 79.9127 29.3995 80.5803C29.9776 81.5816 30.1163 82.551 29.8156 83.4884C29.5174 84.4304 28.7888 85.236 27.6296 85.9053L26.8312 86.3662L24.1398 81.7045C23.6981 82.0437 23.4241 82.4545 23.3177 82.9369C23.2139 83.4238 23.3027 83.9109 23.5839 84.398C24.0188 85.1513 24.6315 85.5823 25.4221 85.6912L24.901 87.2731C24.3168 87.2195 23.7629 87.01 23.2393 86.6448C22.7202 86.2769 22.2848 85.7885 21.9333 85.1796ZM27.8124 81.4876C27.5884 81.0997 27.2754 80.8595 26.8731 80.7669C26.4735 80.6789 26.0106 80.7417 25.4844 80.9553L27.0547 83.6752L27.2103 83.5853C27.6381 83.3263 27.9042 83.0163 28.0085 82.6554C28.1174 82.2918 28.052 81.9026 27.8124 81.4876ZM28.7634 92.0254C29.0025 91.8874 29.1207 91.6598 29.118 91.3426C29.1224 91.0274 29.0277 90.5769 28.8338 89.9911C28.194 88.0391 28.4311 86.7415 29.5452 86.0983C30.1947 85.7233 30.8909 85.6792 31.6339 85.9659C32.3839 86.2546 33.0102 86.8342 33.5128 87.7047C34.0493 88.6339 34.2589 89.5022 34.1417 90.3096C34.0271 91.1215 33.6202 91.7293 32.9211 92.1329L31.7922 90.1776C32.0718 90.0161 32.2498 89.7931 32.326 89.5085C32.4068 89.2213 32.3365 88.886 32.1151 88.5026C31.925 88.1734 31.7035 87.9615 31.4505 87.867C31.1974 87.7725 30.9559 87.7917 30.7259 87.9245C30.5094 88.0495 30.3921 88.2525 30.3739 88.5336C30.3629 88.8166 30.4484 89.2304 30.6304 89.7748C30.817 90.3166 30.9457 90.7896 31.0166 91.1937C31.2341 92.4453 30.876 93.3407 29.9423 93.8798C29.2747 94.2652 28.5681 94.2913 27.8224 93.958C27.0812 93.6221 26.4489 93.0009 25.9255 92.0943C25.5713 91.4809 25.3644 90.8726 25.3049 90.2695C25.2525 89.6682 25.3376 89.123 25.5602 88.6336C25.7874 88.1416 26.122 87.768 26.564 87.5128L27.6343 89.3666C27.2974 89.5852 27.1055 89.8674 27.0586 90.2132C27.0117 90.559 27.1041 90.9327 27.3359 91.3341C27.552 91.7085 27.7847 91.95 28.0339 92.0587C28.2902 92.1694 28.5334 92.1583 28.7634 92.0254ZM30.3786 99.8073C29.7588 98.7338 29.5828 97.6687 29.8508 96.6119C30.1213 95.5596 30.8046 94.717 31.9006 94.0842L32.0901 93.9749C32.8253 93.5504 33.5636 93.3136 34.305 93.2644C35.0509 93.2126 35.7293 93.3562 36.34 93.6953C36.9578 94.0362 37.4594 94.5404 37.8448 95.208C38.423 96.2094 38.5616 97.1787 38.2609 98.1162C37.9628 99.0581 37.2341 99.8637 36.0749 100.533L35.2765 100.994L32.5851 96.3322C32.1434 96.6714 31.8694 97.0822 31.763 97.5646C31.6592 98.0516 31.748 98.5386 32.0292 99.0257C32.4641 99.779 33.0769 100.21 33.8674 100.319L33.3463 101.901C32.7621 101.847 32.2082 101.638 31.6846 101.273C31.1655 100.905 30.7301 100.416 30.3786 99.8073ZM36.2577 96.1153C36.0338 95.7274 35.7207 95.4872 35.3184 95.3947C34.9188 95.3066 34.4559 95.3694 33.9297 95.583L35.5 98.3029L35.6556 98.213C36.0834 97.954 36.3495 97.644 36.4538 97.2831C36.5627 96.9195 36.4973 96.5303 36.2577 96.1153ZM40.7588 104.802C40.6412 104.515 40.5239 104.27 40.4067 104.067C39.9796 103.327 39.4493 102.987 38.8158 103.046L34.0256 105.812L32.8967 103.856L40.2173 99.6298L41.2837 101.477L40.4422 102.035C41.3408 102.039 41.9907 102.389 42.3917 103.083C42.5167 103.3 42.6046 103.52 42.6553 103.743L40.7588 104.802ZM39.8593 110.4L45.5767 108.913L46.7564 110.956L38.01 112.713L36.9319 110.845L42.8267 104.149L44.0064 106.193L39.8593 110.4ZM41.6911 119.401C41.0713 118.328 40.8953 117.262 41.1633 116.206C41.4338 115.153 42.1171 114.311 43.2131 113.678L43.4026 113.569C44.1378 113.144 44.8761 112.907 45.6175 112.858C46.3634 112.806 47.0418 112.95 47.6525 113.289C48.2703 113.63 48.7719 114.134 49.1573 114.802C49.7355 115.803 49.8741 116.773 49.5734 117.71C49.2753 118.652 48.5466 119.458 47.3874 120.127L46.589 120.588L43.8976 115.926C43.4559 116.265 43.1819 116.676 43.0755 117.158C42.9717 117.645 43.0605 118.132 43.3417 118.62C43.7766 119.373 44.3894 119.804 45.1799 119.913L44.6588 121.495C44.0746 121.441 43.5207 121.232 42.9971 120.866C42.478 120.498 42.0426 120.01 41.6911 119.401ZM47.5702 115.709C47.3463 115.321 47.0332 115.081 46.6309 114.988C46.2313 114.9 45.7684 114.963 45.2422 115.177L46.8125 117.897L46.9681 117.807C47.3959 117.548 47.662 117.238 47.7663 116.877C47.8752 116.513 47.8098 116.124 47.5702 115.709ZM47.7479 121.001C48.889 120.342 49.945 120.072 50.9159 120.192C51.8894 120.315 52.6326 120.821 53.1456 121.71C53.5571 122.422 53.6308 123.165 53.3668 123.937L57.1015 121.78L58.2343 123.742L47.842 129.742L46.8225 127.977L47.5459 127.433C46.6557 127.297 45.9893 126.846 45.5465 126.079C45.0491 125.218 44.9877 124.33 45.3622 123.416C45.7438 122.504 46.539 121.699 47.7479 121.001ZM48.7347 123.039C48.0491 123.434 47.5926 123.857 47.3653 124.307C47.1379 124.757 47.1558 125.21 47.4188 125.666C47.7678 126.27 48.2687 126.549 48.9216 126.503L51.8106 124.835C52.1797 124.297 52.1911 123.728 51.8447 123.128C51.3004 122.186 50.2638 122.156 48.7347 123.039Z" fill="black"/>
<path d="M74.7998 74.5757L73.8662 72.9587L70.26 75.0407L69.0881 73.011L78.9391 67.3235L81.0524 70.9838C81.7243 72.1475 81.9832 73.1948 81.829 74.1258C81.6749 75.0567 81.1242 75.7957 80.177 76.3425C79.505 76.7306 78.8588 76.9082 78.2384 76.8754C77.6252 76.8446 77.015 76.6105 76.4077 76.1733L73.6125 80.6287L73.5178 80.6834L72.26 78.5048L74.7998 74.5757ZM75.5103 72.0095L76.4556 73.6468C76.7498 74.1565 77.1063 74.4769 77.5248 74.6082C77.9479 74.7368 78.3872 74.6696 78.8428 74.4065C79.3074 74.1383 79.5959 73.7943 79.7084 73.3745C79.8235 72.9593 79.7234 72.4788 79.4083 71.933L78.4669 70.3024L75.5103 72.0095ZM75.9333 85.1796C75.3135 84.1061 75.1375 83.041 75.4054 81.9842C75.676 80.9319 76.3593 80.0893 77.4553 79.4565L77.6448 79.3472C78.38 78.9227 79.1183 78.6858 79.8597 78.6367C80.6056 78.5849 81.284 78.7285 81.8947 79.0676C82.5125 79.4085 83.0141 79.9127 83.3995 80.5803C83.9776 81.5816 84.1163 82.551 83.8156 83.4884C83.5174 84.4304 82.7888 85.236 81.6296 85.9053L80.8312 86.3662L78.1398 81.7045C77.6981 82.0437 77.4241 82.4545 77.3177 82.9369C77.2139 83.4238 77.3027 83.9109 77.5839 84.398C78.0188 85.1513 78.6315 85.5823 79.4221 85.6912L78.901 87.2731C78.3168 87.2195 77.7629 87.01 77.2393 86.6448C76.7202 86.2769 76.2848 85.7885 75.9333 85.1796ZM81.8124 81.4876C81.5884 81.0997 81.2754 80.8595 80.8731 80.7669C80.4735 80.6789 80.0106 80.7417 79.4844 80.9553L81.0547 83.6752L81.2103 83.5853C81.6381 83.3263 81.9042 83.0163 82.0085 82.6554C82.1174 82.2918 82.052 81.9026 81.8124 81.4876ZM82.7634 92.0254C83.0025 91.8874 83.1207 91.6598 83.118 91.3426C83.1224 91.0274 83.0277 90.5769 82.8338 89.9911C82.194 88.0391 82.4311 86.7415 83.5452 86.0983C84.1947 85.7233 84.8909 85.6792 85.6339 85.9659C86.3839 86.2546 87.0102 86.8342 87.5128 87.7047C88.0493 88.6339 88.2589 89.5022 88.1417 90.3096C88.0271 91.1215 87.6202 91.7293 86.9211 92.1329L85.7922 90.1776C86.0718 90.0161 86.2498 89.7931 86.326 89.5085C86.4068 89.2213 86.3365 88.886 86.1151 88.5026C85.925 88.1734 85.7035 87.9615 85.4505 87.867C85.1974 87.7725 84.9559 87.7917 84.7259 87.9245C84.5094 88.0495 84.3921 88.2525 84.3739 88.5336C84.3629 88.8166 84.4484 89.2304 84.6304 89.7748C84.817 90.3166 84.9457 90.7896 85.0166 91.1937C85.2341 92.4453 84.876 93.3407 83.9423 93.8798C83.2747 94.2652 82.5681 94.2913 81.8224 93.958C81.0812 93.6221 80.4489 93.0009 79.9255 92.0943C79.5713 91.4809 79.3644 90.8726 79.3049 90.2695C79.2525 89.6682 79.3376 89.123 79.5602 88.6336C79.7874 88.1416 80.122 87.768 80.564 87.5128L81.6343 89.3666C81.2974 89.5852 81.1055 89.8674 81.0586 90.2132C81.0117 90.559 81.1041 90.9327 81.3359 91.3341C81.552 91.7085 81.7847 91.95 82.0339 92.0587C82.2902 92.1694 82.5334 92.1583 82.7634 92.0254ZM84.3786 99.8073C83.7588 98.7338 83.5828 97.6687 83.8508 96.6119C84.1213 95.5596 84.8046 94.717 85.9006 94.0842L86.0901 93.9749C86.8253 93.5504 87.5636 93.3136 88.305 93.2644C89.0509 93.2126 89.7293 93.3562 90.34 93.6953C90.9578 94.0362 91.4594 94.5404 91.8448 95.208C92.423 96.2094 92.5616 97.1787 92.2609 98.1162C91.9628 99.0581 91.2341 99.8637 90.0749 100.533L89.2765 100.994L86.5851 96.3322C86.1434 96.6714 85.8694 97.0822 85.763 97.5646C85.6592 98.0516 85.748 98.5386 86.0292 99.0257C86.4641 99.779 87.0769 100.21 87.8674 100.319L87.3463 101.901C86.7621 101.847 86.2082 101.638 85.6846 101.273C85.1655 100.905 84.7301 100.416 84.3786 99.8073ZM90.2577 96.1153C90.0338 95.7274 89.7207 95.4872 89.3184 95.3947C88.9188 95.3066 88.4559 95.3694 87.9297 95.583L89.5 98.3029L89.6556 98.213C90.0834 97.954 90.3495 97.644 90.4538 97.2831C90.5627 96.9195 90.4973 96.5303 90.2577 96.1153ZM94.7588 104.802C94.6412 104.515 94.5239 104.27 94.4067 104.067C93.9796 103.327 93.4493 102.987 92.8158 103.046L88.0256 105.812L86.8967 103.856L94.2173 99.6298L95.2837 101.477L94.4422 102.035C95.3408 102.039 95.9907 102.389 96.3917 103.083C96.5167 103.3 96.6046 103.52 96.6553 103.743L94.7588 104.802ZM93.8593 110.4L99.5767 108.913L100.756 110.956L92.01 112.713L90.9319 110.845L96.8267 104.149L98.0064 106.193L93.8593 110.4ZM95.6911 119.401C95.0713 118.328 94.8953 117.262 95.1633 116.206C95.4338 115.153 96.1171 114.311 97.2131 113.678L97.4026 113.569C98.1378 113.144 98.8761 112.907 99.6175 112.858C100.363 112.806 101.042 112.95 101.652 113.289C102.27 113.63 102.772 114.134 103.157 114.802C103.735 115.803 103.874 116.773 103.573 117.71C103.275 118.652 102.547 119.458 101.387 120.127L100.589 120.588L97.8976 115.926C97.4559 116.265 97.1819 116.676 97.0755 117.158C96.9717 117.645 97.0605 118.132 97.3417 118.62C97.7766 119.373 98.3894 119.804 99.1799 119.913L98.6588 121.495C98.0746 121.441 97.5207 121.232 96.9971 120.866C96.478 120.498 96.0426 120.01 95.6911 119.401ZM101.57 115.709C101.346 115.321 101.033 115.081 100.631 114.988C100.231 114.9 99.7684 114.963 99.2422 115.177L100.812 117.897L100.968 117.807C101.396 117.548 101.662 117.238 101.766 116.877C101.875 116.513 101.81 116.124 101.57 115.709ZM101.748 121.001C102.889 120.342 103.945 120.072 104.916 120.192C105.889 120.315 106.633 120.821 107.146 121.71C107.557 122.422 107.631 123.165 107.367 123.937L111.102 121.78L112.234 123.742L101.842 129.742L100.822 127.977L101.546 127.433C100.656 127.297 99.9893 126.846 99.5465 126.079C99.0491 125.218 98.9877 124.33 99.3622 123.416C99.7438 122.504 100.539 121.699 101.748 121.001ZM102.735 123.039C102.049 123.434 101.593 123.857 101.365 124.307C101.138 124.757 101.156 125.21 101.419 125.666C101.768 126.27 102.269 126.549 102.922 126.503L105.811 124.835C106.18 124.297 106.191 123.728 105.845 123.128C105.3 122.186 104.264 122.156 102.735 123.039Z" fill="black"/>
<path d="M128.8 74.5757L127.866 72.9587L124.26 75.0407L123.088 73.011L132.939 67.3235L135.052 70.9838C135.724 72.1475 135.983 73.1948 135.829 74.1258C135.675 75.0567 135.124 75.7957 134.177 76.3425C133.505 76.7306 132.859 76.9082 132.238 76.8754C131.625 76.8446 131.015 76.6105 130.408 76.1733L127.613 80.6287L127.518 80.6834L126.26 78.5048L128.8 74.5757ZM129.51 72.0095L130.456 73.6468C130.75 74.1565 131.106 74.4769 131.525 74.6082C131.948 74.7368 132.387 74.6696 132.843 74.4065C133.307 74.1383 133.596 73.7943 133.708 73.3745C133.823 72.9593 133.723 72.4788 133.408 71.933L132.467 70.3024L129.51 72.0095ZM129.933 85.1796C129.313 84.1061 129.138 83.041 129.405 81.9842C129.676 80.9319 130.359 80.0893 131.455 79.4565L131.645 79.3472C132.38 78.9227 133.118 78.6858 133.86 78.6367C134.606 78.5849 135.284 78.7285 135.895 79.0676C136.512 79.4085 137.014 79.9127 137.4 80.5803C137.978 81.5816 138.116 82.551 137.816 83.4884C137.517 84.4304 136.789 85.236 135.63 85.9053L134.831 86.3662L132.14 81.7045C131.698 82.0437 131.424 82.4545 131.318 82.9369C131.214 83.4238 131.303 83.9109 131.584 84.398C132.019 85.1513 132.632 85.5823 133.422 85.6912L132.901 87.2731C132.317 87.2195 131.763 87.01 131.239 86.6448C130.72 86.2769 130.285 85.7885 129.933 85.1796ZM135.812 81.4876C135.588 81.0997 135.275 80.8595 134.873 80.7669C134.473 80.6789 134.011 80.7417 133.484 80.9553L135.055 83.6752L135.21 83.5853C135.638 83.3263 135.904 83.0163 136.009 82.6554C136.117 82.2918 136.052 81.9026 135.812 81.4876ZM136.763 92.0254C137.002 91.8874 137.121 91.6598 137.118 91.3426C137.122 91.0274 137.028 90.5769 136.834 89.9911C136.194 88.0391 136.431 86.7415 137.545 86.0983C138.195 85.7233 138.891 85.6792 139.634 85.9659C140.384 86.2546 141.01 86.8342 141.513 87.7047C142.049 88.6339 142.259 89.5022 142.142 90.3096C142.027 91.1215 141.62 91.7293 140.921 92.1329L139.792 90.1776C140.072 90.0161 140.25 89.7931 140.326 89.5085C140.407 89.2213 140.336 88.886 140.115 88.5026C139.925 88.1734 139.703 87.9615 139.45 87.867C139.197 87.7725 138.956 87.7917 138.726 87.9245C138.509 88.0495 138.392 88.2525 138.374 88.5336C138.363 88.8166 138.448 89.2304 138.63 89.7748C138.817 90.3166 138.946 90.7896 139.017 91.1937C139.234 92.4453 138.876 93.3407 137.942 93.8798C137.275 94.2652 136.568 94.2913 135.822 93.958C135.081 93.6221 134.449 93.0009 133.925 92.0943C133.571 91.4809 133.364 90.8726 133.305 90.2695C133.252 89.6682 133.338 89.123 133.56 88.6336C133.787 88.1416 134.122 87.768 134.564 87.5128L135.634 89.3666C135.297 89.5852 135.106 89.8674 135.059 90.2132C135.012 90.559 135.104 90.9327 135.336 91.3341C135.552 91.7085 135.785 91.95 136.034 92.0587C136.29 92.1694 136.533 92.1583 136.763 92.0254ZM138.379 99.8073C137.759 98.7338 137.583 97.6687 137.851 96.6119C138.121 95.5596 138.805 94.717 139.901 94.0842L140.09 93.9749C140.825 93.5504 141.564 93.3136 142.305 93.2644C143.051 93.2126 143.729 93.3562 144.34 93.6953C144.958 94.0362 145.459 94.5404 145.845 95.208C146.423 96.2094 146.562 97.1787 146.261 98.1162C145.963 99.0581 145.234 99.8637 144.075 100.533L143.276 100.994L140.585 96.3322C140.143 96.6714 139.869 97.0822 139.763 97.5646C139.659 98.0516 139.748 98.5386 140.029 99.0257C140.464 99.779 141.077 100.21 141.867 100.319L141.346 101.901C140.762 101.847 140.208 101.638 139.685 101.273C139.165 100.905 138.73 100.416 138.379 99.8073ZM144.258 96.1153C144.034 95.7274 143.721 95.4872 143.318 95.3947C142.919 95.3066 142.456 95.3694 141.93 95.583L143.5 98.3029L143.656 98.213C144.083 97.954 144.349 97.644 144.454 97.2831C144.563 96.9195 144.497 96.5303 144.258 96.1153ZM148.759 104.802C148.641 104.515 148.524 104.27 148.407 104.067C147.98 103.327 147.449 102.987 146.816 103.046L142.026 105.812L140.897 103.856L148.217 99.6298L149.284 101.477L148.442 102.035C149.341 102.039 149.991 102.389 150.392 103.083C150.517 103.3 150.605 103.52 150.655 103.743L148.759 104.802ZM147.859 110.4L153.577 108.913L154.756 110.956L146.01 112.713L144.932 110.845L150.827 104.149L152.006 106.193L147.859 110.4ZM149.691 119.401C149.071 118.328 148.895 117.262 149.163 116.206C149.434 115.153 150.117 114.311 151.213 113.678L151.403 113.569C152.138 113.144 152.876 112.907 153.618 112.858C154.363 112.806 155.042 112.95 155.652 113.289C156.27 113.63 156.772 114.134 157.157 114.802C157.735 115.803 157.874 116.773 157.573 117.71C157.275 118.652 156.547 119.458 155.387 120.127L154.589 120.588L151.898 115.926C151.456 116.265 151.182 116.676 151.076 117.158C150.972 117.645 151.06 118.132 151.342 118.62C151.777 119.373 152.389 119.804 153.18 119.913L152.659 121.495C152.075 121.441 151.521 121.232 150.997 120.866C150.478 120.498 150.043 120.01 149.691 119.401ZM155.57 115.709C155.346 115.321 155.033 115.081 154.631 114.988C154.231 114.9 153.768 114.963 153.242 115.177L154.812 117.897L154.968 117.807C155.396 117.548 155.662 117.238 155.766 116.877C155.875 116.513 155.81 116.124 155.57 115.709ZM155.748 121.001C156.889 120.342 157.945 120.072 158.916 120.192C159.889 120.315 160.633 120.821 161.146 121.71C161.557 122.422 161.631 123.165 161.367 123.937L165.102 121.78L166.234 123.742L155.842 129.742L154.822 127.977L155.546 127.433C154.656 127.297 153.989 126.846 153.547 126.079C153.049 125.218 152.988 124.33 153.362 123.416C153.744 122.504 154.539 121.699 155.748 121.001ZM156.735 123.039C156.049 123.434 155.593 123.857 155.365 124.307C155.138 124.757 155.156 125.21 155.419 125.666C155.768 126.27 156.269 126.549 156.922 126.503L159.811 124.835C160.18 124.297 160.191 123.728 159.845 123.128C159.3 122.186 158.264 122.156 156.735 123.039Z" fill="black"/>
<path d="M205.926 96H202.41L195.566 84.7734V96H192.051V78.9375H195.566L202.422 90.1875V78.9375H205.926V96ZM201.988 119.523C201.988 118.859 201.754 118.352 201.285 118C200.816 117.641 199.973 117.266 198.754 116.875C197.535 116.477 196.57 116.086 195.859 115.703C193.922 114.656 192.953 113.246 192.953 111.473C192.953 110.551 193.211 109.73 193.727 109.012C194.25 108.285 194.996 107.719 195.965 107.312C196.941 106.906 198.035 106.703 199.246 106.703C200.465 106.703 201.551 106.926 202.504 107.371C203.457 107.809 204.195 108.43 204.719 109.234C205.25 110.039 205.516 110.953 205.516 111.977H202C202 111.195 201.754 110.59 201.262 110.16C200.77 109.723 200.078 109.504 199.188 109.504C198.328 109.504 197.66 109.688 197.184 110.055C196.707 110.414 196.469 110.891 196.469 111.484C196.469 112.039 196.746 112.504 197.301 112.879C197.863 113.254 198.688 113.605 199.773 113.934C201.773 114.535 203.23 115.281 204.145 116.172C205.059 117.062 205.516 118.172 205.516 119.5C205.516 120.977 204.957 122.137 203.84 122.98C202.723 123.816 201.219 124.234 199.328 124.234C198.016 124.234 196.82 123.996 195.742 123.52C194.664 123.035 193.84 122.375 193.27 121.539C192.707 120.703 192.426 119.734 192.426 118.633H195.953C195.953 120.516 197.078 121.457 199.328 121.457C200.164 121.457 200.816 121.289 201.285 120.953C201.754 120.609 201.988 120.133 201.988 119.523Z" fill="black"/>
<path d="M260.066 76.3164C259.934 78.1523 259.254 79.5977 258.027 80.6523C256.809 81.707 255.199 82.2344 253.199 82.2344C251.012 82.2344 249.289 81.5 248.031 80.0312C246.781 78.5547 246.156 76.5312 246.156 73.9609V72.918C246.156 71.2773 246.445 69.832 247.023 68.582C247.602 67.332 248.426 66.375 249.496 65.7109C250.574 65.0391 251.824 64.7031 253.246 64.7031C255.215 64.7031 256.801 65.2305 258.004 66.2852C259.207 67.3398 259.902 68.8203 260.09 70.7266H256.574C256.488 69.625 256.18 68.8281 255.648 68.3359C255.125 67.8359 254.324 67.5859 253.246 67.5859C252.074 67.5859 251.195 68.0078 250.609 68.8516C250.031 69.6875 249.734 70.9883 249.719 72.7539V74.043C249.719 75.8867 249.996 77.2344 250.551 78.0859C251.113 78.9375 251.996 79.3633 253.199 79.3633C254.285 79.3633 255.094 79.1172 255.625 78.625C256.164 78.125 256.473 77.3555 256.551 76.3164H260.066ZM257.312 105.078L259.609 92.9375H263.113L259.328 110H255.789L253.012 98.5859L250.234 110H246.695L242.91 92.9375H246.414L248.723 105.055L251.535 92.9375H254.512L257.312 105.078ZM253.176 131.754H250.375V138H246.859V120.938H253.199C255.215 120.938 256.77 121.387 257.863 122.285C258.957 123.184 259.504 124.453 259.504 126.094C259.504 127.258 259.25 128.23 258.742 129.012C258.242 129.785 257.48 130.402 256.457 130.863L260.148 137.836V138H256.375L253.176 131.754ZM250.375 128.906H253.211C254.094 128.906 254.777 128.684 255.262 128.238C255.746 127.785 255.988 127.164 255.988 126.375C255.988 125.57 255.758 124.938 255.297 124.477C254.844 124.016 254.145 123.785 253.199 123.785H250.375V128.906Z" fill="black"/>
<path d="M312.039 74.6055H305.289V79.1758H313.211V82H301.773V64.9375H313.188V67.7852H305.289V71.8516H312.039V74.6055ZM314.066 104.316C313.934 106.152 313.254 107.598 312.027 108.652C310.809 109.707 309.199 110.234 307.199 110.234C305.012 110.234 303.289 109.5 302.031 108.031C300.781 106.555 300.156 104.531 300.156 101.961V100.918C300.156 99.2773 300.445 97.832 301.023 96.582C301.602 95.332 302.426 94.375 303.496 93.7109C304.574 93.0391 305.824 92.7031 307.246 92.7031C309.215 92.7031 310.801 93.2305 312.004 94.2852C313.207 95.3398 313.902 96.8203 314.09 98.7266H310.574C310.488 97.625 310.18 96.8281 309.648 96.3359C309.125 95.8359 308.324 95.5859 307.246 95.5859C306.074 95.5859 305.195 96.0078 304.609 96.8516C304.031 97.6875 303.734 98.9883 303.719 100.754V102.043C303.719 103.887 303.996 105.234 304.551 106.086C305.113 106.938 305.996 107.363 307.199 107.363C308.285 107.363 309.094 107.117 309.625 106.625C310.164 106.125 310.473 105.355 310.551 104.316H314.066ZM312.039 130.605H305.289V135.176H313.211V138H301.773V120.938H313.188V123.785H305.289V127.852H312.039V130.605Z" fill="black"/>
<path d="M367.539 64.9375V76.1758C367.539 78.043 366.953 79.5195 365.781 80.6055C364.617 81.6914 363.023 82.2344 361 82.2344C359.008 82.2344 357.426 81.707 356.254 80.6523C355.082 79.5977 354.484 78.1484 354.461 76.3047V64.9375H357.977V76.1992C357.977 77.3164 358.242 78.1328 358.773 78.6484C359.312 79.1562 360.055 79.4102 361 79.4102C362.977 79.4102 363.98 78.3711 364.012 76.293V64.9375H367.539ZM361.176 103.754H358.375V110H354.859V92.9375H361.199C363.215 92.9375 364.77 93.3867 365.863 94.2852C366.957 95.1836 367.504 96.4531 367.504 98.0938C367.504 99.2578 367.25 100.23 366.742 101.012C366.242 101.785 365.48 102.402 364.457 102.863L368.148 109.836V110H364.375L361.176 103.754ZM358.375 100.906H361.211C362.094 100.906 362.777 100.684 363.262 100.238C363.746 99.7852 363.988 99.1641 363.988 98.375C363.988 97.5703 363.758 96.9375 363.297 96.4766C362.844 96.0156 362.145 95.7852 361.199 95.7852H358.375V100.906ZM367.844 135.844C367.211 136.602 366.316 137.191 365.16 137.613C364.004 138.027 362.723 138.234 361.316 138.234C359.84 138.234 358.543 137.914 357.426 137.273C356.316 136.625 355.457 135.688 354.848 134.461C354.246 133.234 353.938 131.793 353.922 130.137V128.977C353.922 127.273 354.207 125.801 354.777 124.559C355.355 123.309 356.184 122.355 357.262 121.699C358.348 121.035 359.617 120.703 361.07 120.703C363.094 120.703 364.676 121.188 365.816 122.156C366.957 123.117 367.633 124.52 367.844 126.363H364.422C364.266 125.387 363.918 124.672 363.379 124.219C362.848 123.766 362.113 123.539 361.176 123.539C359.98 123.539 359.07 123.988 358.445 124.887C357.82 125.785 357.504 127.121 357.496 128.895V129.984C357.496 131.773 357.836 133.125 358.516 134.039C359.195 134.953 360.191 135.41 361.504 135.41C362.824 135.41 363.766 135.129 364.328 134.566V131.625H361.129V129.035H367.844V135.844Z" fill="black"/>
<path d="M418.211 78.4844H412.047L410.875 82H407.137L413.488 64.9375H416.746L423.133 82H419.395L418.211 78.4844ZM412.996 75.6367H417.262L415.117 69.25L412.996 75.6367ZM422.066 104.316C421.934 106.152 421.254 107.598 420.027 108.652C418.809 109.707 417.199 110.234 415.199 110.234C413.012 110.234 411.289 109.5 410.031 108.031C408.781 106.555 408.156 104.531 408.156 101.961V100.918C408.156 99.2773 408.445 97.832 409.023 96.582C409.602 95.332 410.426 94.375 411.496 93.7109C412.574 93.0391 413.824 92.7031 415.246 92.7031C417.215 92.7031 418.801 93.2305 420.004 94.2852C421.207 95.3398 421.902 96.8203 422.09 98.7266H418.574C418.488 97.625 418.18 96.8281 417.648 96.3359C417.125 95.8359 416.324 95.5859 415.246 95.5859C414.074 95.5859 413.195 96.0078 412.609 96.8516C412.031 97.6875 411.734 98.9883 411.719 100.754V102.043C411.719 103.887 411.996 105.234 412.551 106.086C413.113 106.938 413.996 107.363 415.199 107.363C416.285 107.363 417.094 107.117 417.625 106.625C418.164 106.125 418.473 105.355 418.551 104.316H422.066ZM414.25 131.156L412.422 133.125V138H408.906V120.938H412.422V128.672L413.969 126.551L418.316 120.938H422.641L416.582 128.52L422.816 138H418.633L414.25 131.156Z" fill="black"/>
<path d="M466.293 75.9883V82H462.777V64.9375H469.434C470.715 64.9375 471.84 65.1719 472.809 65.6406C473.785 66.1094 474.535 66.7773 475.059 67.6445C475.582 68.5039 475.844 69.4844 475.844 70.5859C475.844 72.2578 475.27 73.5781 474.121 74.5469C472.98 75.5078 471.398 75.9883 469.375 75.9883H466.293ZM466.293 73.1406H469.434C470.363 73.1406 471.07 72.9219 471.555 72.4844C472.047 72.0469 472.293 71.4219 472.293 70.6094C472.293 69.7734 472.047 69.0977 471.555 68.582C471.062 68.0664 470.383 67.8008 469.516 67.7852H466.293V73.1406ZM471.988 105.523C471.988 104.859 471.754 104.352 471.285 104C470.816 103.641 469.973 103.266 468.754 102.875C467.535 102.477 466.57 102.086 465.859 101.703C463.922 100.656 462.953 99.2461 462.953 97.4727C462.953 96.5508 463.211 95.7305 463.727 95.0117C464.25 94.2852 464.996 93.7188 465.965 93.3125C466.941 92.9062 468.035 92.7031 469.246 92.7031C470.465 92.7031 471.551 92.9258 472.504 93.3711C473.457 93.8086 474.195 94.4297 474.719 95.2344C475.25 96.0391 475.516 96.9531 475.516 97.9766H472C472 97.1953 471.754 96.5898 471.262 96.1602C470.77 95.7227 470.078 95.5039 469.188 95.5039C468.328 95.5039 467.66 95.6875 467.184 96.0547C466.707 96.4141 466.469 96.8906 466.469 97.4844C466.469 98.0391 466.746 98.5039 467.301 98.8789C467.863 99.2539 468.688 99.6055 469.773 99.9336C471.773 100.535 473.23 101.281 474.145 102.172C475.059 103.062 475.516 104.172 475.516 105.5C475.516 106.977 474.957 108.137 473.84 108.98C472.723 109.816 471.219 110.234 469.328 110.234C468.016 110.234 466.82 109.996 465.742 109.52C464.664 109.035 463.84 108.375 463.27 107.539C462.707 106.703 462.426 105.734 462.426 104.633H465.953C465.953 106.516 467.078 107.457 469.328 107.457C470.164 107.457 470.816 107.289 471.285 106.953C471.754 106.609 471.988 106.133 471.988 105.523ZM475.926 138H472.41V130.688H465.555V138H462.039V120.938H465.555V127.852H472.41V120.938H475.926V138Z" fill="black"/>
<path d="M523.176 75.7539H520.375V82H516.859V64.9375H523.199C525.215 64.9375 526.77 65.3867 527.863 66.2852C528.957 67.1836 529.504 68.4531 529.504 70.0938C529.504 71.2578 529.25 72.2305 528.742 73.0117C528.242 73.7852 527.48 74.4023 526.457 74.8633L530.148 81.8359V82H526.375L523.176 75.7539ZM520.375 72.9062H523.211C524.094 72.9062 524.777 72.6836 525.262 72.2383C525.746 71.7852 525.988 71.1641 525.988 70.375C525.988 69.5703 525.758 68.9375 525.297 68.4766C524.844 68.0156 524.145 67.7852 523.199 67.7852H520.375V72.9062ZM525.988 105.523C525.988 104.859 525.754 104.352 525.285 104C524.816 103.641 523.973 103.266 522.754 102.875C521.535 102.477 520.57 102.086 519.859 101.703C517.922 100.656 516.953 99.2461 516.953 97.4727C516.953 96.5508 517.211 95.7305 517.727 95.0117C518.25 94.2852 518.996 93.7188 519.965 93.3125C520.941 92.9062 522.035 92.7031 523.246 92.7031C524.465 92.7031 525.551 92.9258 526.504 93.3711C527.457 93.8086 528.195 94.4297 528.719 95.2344C529.25 96.0391 529.516 96.9531 529.516 97.9766H526C526 97.1953 525.754 96.5898 525.262 96.1602C524.77 95.7227 524.078 95.5039 523.188 95.5039C522.328 95.5039 521.66 95.6875 521.184 96.0547C520.707 96.4141 520.469 96.8906 520.469 97.4844C520.469 98.0391 520.746 98.5039 521.301 98.8789C521.863 99.2539 522.688 99.6055 523.773 99.9336C525.773 100.535 527.23 101.281 528.145 102.172C529.059 103.062 529.516 104.172 529.516 105.5C529.516 106.977 528.957 108.137 527.84 108.98C526.723 109.816 525.219 110.234 523.328 110.234C522.016 110.234 520.82 109.996 519.742 109.52C518.664 109.035 517.84 108.375 517.27 107.539C516.707 106.703 516.426 105.734 516.426 104.633H519.953C519.953 106.516 521.078 107.457 523.328 107.457C524.164 107.457 524.816 107.289 525.285 106.953C525.754 106.609 525.988 106.133 525.988 105.523ZM529.938 123.785H524.711V138H521.195V123.785H516.039V120.938H529.938V123.785Z" fill="black"/>
<path d="M579.988 77.5234C579.988 76.8594 579.754 76.3516 579.285 76C578.816 75.6406 577.973 75.2656 576.754 74.875C575.535 74.4766 574.57 74.0859 573.859 73.7031C571.922 72.6562 570.953 71.2461 570.953 69.4727C570.953 68.5508 571.211 67.7305 571.727 67.0117C572.25 66.2852 572.996 65.7188 573.965 65.3125C574.941 64.9062 576.035 64.7031 577.246 64.7031C578.465 64.7031 579.551 64.9258 580.504 65.3711C581.457 65.8086 582.195 66.4297 582.719 67.2344C583.25 68.0391 583.516 68.9531 583.516 69.9766H580C580 69.1953 579.754 68.5898 579.262 68.1602C578.77 67.7227 578.078 67.5039 577.188 67.5039C576.328 67.5039 575.66 67.6875 575.184 68.0547C574.707 68.4141 574.469 68.8906 574.469 69.4844C574.469 70.0391 574.746 70.5039 575.301 70.8789C575.863 71.2539 576.688 71.6055 577.773 71.9336C579.773 72.5352 581.23 73.2812 582.145 74.1719C583.059 75.0625 583.516 76.1719 583.516 77.5C583.516 78.9766 582.957 80.1367 581.84 80.9805C580.723 81.8164 579.219 82.2344 577.328 82.2344C576.016 82.2344 574.82 81.9961 573.742 81.5195C572.664 81.0352 571.84 80.375 571.27 79.5391C570.707 78.7031 570.426 77.7344 570.426 76.6328H573.953C573.953 78.5156 575.078 79.457 577.328 79.457C578.164 79.457 578.816 79.2891 579.285 78.9531C579.754 78.6094 579.988 78.1328 579.988 77.5234ZM576.988 100.625L580.539 92.9375H584.383L578.781 103.812V110H575.207V103.812L569.605 92.9375H573.461L576.988 100.625ZM583.926 138H580.41L573.566 126.773V138H570.051V120.938H573.566L580.422 132.188V120.938H583.926V138Z" fill="black"/>
<path d="M636.215 75.0273H629.465V82H625.949V64.9375H637.059V67.7852H629.465V72.1914H636.215V75.0273ZM632.758 110H629.242V92.9375H632.758V110ZM637.926 138H634.41L627.566 126.773V138H624.051V120.938H627.566L634.422 132.188V120.938H637.926V138Z" fill="black"/>
</svg>
