<svg width="160" height="160" xmlns="http://www.w3.org/2000/svg"><g fill="none" fill-rule="evenodd"><circle fill="#FFF" fill-rule="nonzero" cx="80.492" cy="80.492" r="66.492"/><path d="M115.604 76.704l-32.31-32.308a4.766 4.766 0 00-6.739 0l-6.708 6.71 8.51 8.51a5.658 5.658 0 017.167 7.216l8.202 8.202a5.66 5.66 0 015.86 1.346 5.67 5.67 0 010 8.019 5.67 5.67 0 01-9.256-6.168l-7.65-7.65v20.13a5.672 5.672 0 011.5 9.094 5.67 5.67 0 11-6.163-9.258V70.23a5.67 5.67 0 01-3.078-7.437l-8.39-8.392-22.154 22.154a4.77 4.77 0 000 6.741l32.31 32.309a4.768 4.768 0 006.741 0l32.158-32.16a4.766 4.766 0 000-6.74" fill="#DE4C36"/></g></svg>