<svg width="160" height="160" xmlns="http://www.w3.org/2000/svg"><g fill="none" fill-rule="nonzero"><circle fill="#FFF" cx="80.492" cy="80.492" r="66.492"/><path d="M96.298 109.81c-.257.137-.236.18.01.055a.67.67 0 00.206-.132c0-.045 0-.045-.216.078zm.518-.28c-.123.102-.123.102.024.035.078-.046.147-.089.147-.102 0-.058-.035-.045-.17.067zm.337-.203c-.123.101-.123.101.024.035a.532.532 0 00.147-.104c0-.054-.035-.043-.17.069zm.341-.2c-.123.1-.123.1.02.031.08-.043.147-.088.147-.101 0-.054-.035-.043-.167.07zm.46-.305c-.235.157-.317.259-.101.146.145-.088.391-.283.348-.283-.093.035-.17.093-.249.137h.003zM77.299 45.024c-.157.01-.63.054-1.045.088-9.824.89-19.014 6.178-24.84 14.323a34.189 34.189 0 00-6.1 15.097c-.278 1.9-.313 2.462-.313 5.039 0 2.575.035 3.127.313 5.028 1.882 12.984 11.118 23.883 23.637 27.923 2.253.719 4.614 1.216 7.303 1.52 1.045.113 5.566.113 6.612 0 4.648-.518 8.573-1.665 12.457-3.646.596-.302.708-.382.628-.45a736.323 736.323 0 01-5.635-7.548l-5.523-7.459-6.919-10.249a899.414 899.414 0 00-6.975-10.247c-.023 0-.054 4.555-.067 10.11-.023 9.732-.023 10.127-.146 10.352-.124.27-.327.494-.597.62-.213.101-.406.123-1.427.123h-1.169l-.304-.19a1.285 1.285 0 01-.45-.495l-.147-.305.011-13.545.024-13.545.214-.27c.136-.167.304-.303.494-.404.283-.136.396-.158 1.564-.158 1.372 0 1.599.054 1.96.45 2.799 4.172 5.59 8.356 8.335 12.553 4.49 6.809 10.62 16.099 13.634 20.656l5.48 8.293.27-.18a35.308 35.308 0 007.095-6.231 34.419 34.419 0 008.137-17.663c.279-1.9.313-2.464.313-5.039 0-2.577-.034-3.128-.313-5.028-1.881-12.984-11.118-23.883-23.637-27.925a36.684 36.684 0 00-7.188-1.505c-.655-.067-5.122-.147-5.683-.089l-.003-.004zM91.44 65.926c.326.156.572.45.685.786.058.182.069 3.938.058 12.399l-.024 12.148-2.136-3.284-2.15-3.285v-8.82c0-5.717.025-8.922.055-9.08.101-.36.348-.663.676-.853.268-.136.371-.147 1.44-.147 1 0 1.17.01 1.394.136h.002z" fill="#000"/></g></svg>