<svg width="160" height="160" xmlns="http://www.w3.org/2000/svg"><defs><radialGradient cx="50%" cy="-50%" fx="50%" fy="-50%" r="100%" id="a"><stop stop-color="#20C6B7" offset="0%"/><stop stop-color="#4D9ABF" offset="100%"/></radialGradient></defs><g fill="none" fill-rule="nonzero"><circle fill="#FFF" cx="80.492" cy="80.492" r="66.492"/><path d="M98.979 67.762l-.03-.012c-.016-.007-.033-.013-.048-.028a.23.23 0 01-.058-.194l1.614-9.86 7.572 7.565-7.874 3.347a.174.174 0 01-.07.013h-.03a.22.22 0 01-.042-.036 3.584 3.584 0 00-1.034-.795zm10.982-.6l8.096 8.086c1.681 1.682 2.523 2.52 2.83 3.493.046.144.084.288.113.436l-19.348-8.185a1.523 1.523 0 00-.031-.013c-.077-.03-.167-.066-.167-.146 0-.079.092-.117.169-.148l.025-.01 8.313-3.514zm10.709 14.61c-.418.785-1.232 1.599-2.61 2.978l-9.129 9.115-11.805-2.455-.063-.013c-.104-.017-.215-.035-.215-.13a3.558 3.558 0 00-1.368-2.488c-.048-.048-.035-.123-.02-.192 0-.01 0-.021.003-.03l2.22-13.616.009-.045c.013-.105.031-.226.125-.226a3.614 3.614 0 002.423-1.387c.019-.021.032-.044.057-.057.066-.03.146 0 .215.03l20.156 8.516h.002zm-13.838 14.19l-15.01 14.993 2.57-15.773.004-.021a.283.283 0 01.013-.06c.02-.05.075-.071.127-.092l.025-.01c.563-.24 1.06-.61 1.452-1.08.05-.058.11-.114.188-.125a.188.188 0 01.06 0l10.57 2.17.001-.002zM88.646 114.13l-1.692 1.69-18.705-27.003a.885.885 0 00-.02-.029c-.03-.04-.061-.08-.055-.125 0-.034.023-.063.046-.088l.021-.027c.056-.083.105-.167.157-.257l.041-.073.007-.006c.029-.05.056-.098.106-.125.044-.02.105-.013.153-.002l20.722 4.269a.343.343 0 01.159.069c.027.027.033.056.04.09a3.667 3.667 0 002.147 2.45c.058.03.033.095.006.164a.496.496 0 00-.031.093c-.262 1.586-2.5 15.227-3.102 18.91zm-3.534 3.528c-1.247 1.233-1.983 1.886-2.814 2.149-.82.259-1.7.259-2.519 0-.973-.309-1.815-1.148-3.496-2.83L57.499 98.214l4.906-7.6a.312.312 0 01.084-.098c.052-.038.127-.021.19 0a5.09 5.09 0 003.421-.174c.057-.02.113-.035.157.005.022.02.041.042.058.066l18.797 27.247v-.002zM55.688 96.405l-4.31-4.305 8.51-3.626a.176.176 0 01.07-.015c.07 0 .112.071.15.136.085.131.176.26.271.384l.027.033c.025.036.009.071-.016.105l-4.7 7.288h-.002zm-6.216-6.21L44.02 84.75c-.927-.927-1.6-1.598-2.068-2.176l16.577 3.434.062.01c.103.017.215.036.215.132 0 .104-.123.152-.227.192l-.048.02-9.06 3.833zM41 79.774c.019-.351.082-.698.188-1.033.31-.972 1.149-1.811 2.832-3.493l6.977-6.968c3.212 4.656 6.433 9.307 9.662 13.951.056.076.12.159.054.222-.305.336-.61.703-.825 1.101a.334.334 0 01-.104.13c-.027.016-.057.01-.088.004h-.004L41 79.772v.002zm11.864-13.36l9.376-9.37c.884.386 4.094 1.74 6.962 2.95 2.172.918 4.152 1.753 4.775 2.024.062.025.119.05.146.113.017.037.008.085 0 .125a4.176 4.176 0 001.092 3.814c.063.063 0 .152-.054.23l-.03.043-9.524 14.737a.289.289 0 01-.09.104c-.05.031-.12.017-.18.002a4.755 4.755 0 00-1.133-.154c-.343 0-.715.062-1.09.131h-.003c-.042.006-.08.015-.113-.01a.438.438 0 01-.094-.107L52.862 66.414h.002zm11.275-11.262l12.144-12.13c1.681-1.68 2.523-2.521 3.496-2.828.82-.259 1.7-.259 2.52 0 .972.307 1.814 1.148 3.496 2.827l2.631 2.63-8.636 13.36a.323.323 0 01-.086.1c-.052.036-.125.022-.188 0a4.384 4.384 0 00-4.01.773c-.057.058-.14.025-.211-.007-1.128-.49-9.9-4.193-11.156-4.725zm26.121-7.67l7.975 7.966-1.922 11.888v.032a.281.281 0 01-.016.079c-.021.042-.063.05-.105.063-.41.124-.798.316-1.144.57a.322.322 0 00-.042.035c-.023.025-.046.048-.084.052a.24.24 0 01-.09-.015L82.68 62.995l-.023-.01c-.077-.032-.169-.07-.169-.149a4.583 4.583 0 00-.647-1.909c-.059-.096-.124-.196-.073-.294l8.492-13.15zm-8.213 17.956l11.392 4.82c.063.029.132.056.16.12a.22.22 0 010 .12 2.825 2.825 0 00-.064.548v.32c0 .079-.081.112-.156.143l-.023.009c-1.805.77-25.336 10.793-25.372 10.793-.035 0-.073 0-.108-.036-.063-.062 0-.15.056-.23l.03-.041 9.36-14.48.018-.025c.054-.087.116-.185.217-.185l.094.014c.213.03.4.056.59.056a4.23 4.23 0 003.53-1.871.334.334 0 01.072-.084c.056-.041.14-.02.204.009zM69.001 84.602l25.65-10.927s.037 0 .073.035c.14.14.259.234.374.322l.056.035c.052.03.105.063.109.117 0 .021 0 .033-.004.052L93.06 87.72l-.008.054c-.015.104-.03.223-.127.223a3.612 3.612 0 00-2.868 1.767l-.01.017c-.03.048-.057.094-.105.119-.044.02-.1.013-.146.002l-20.455-4.214c-.021-.005-.318-1.083-.34-1.085z" fill="url(#a)"/></g></svg>