<svg width="160" height="160" xmlns="http://www.w3.org/2000/svg"><g transform="translate(14 14)" fill-rule="nonzero" fill="none"><circle fill="#FFF" cx="66.672" cy="66.78" r="66.492"/><path d="M54.396 81.972c-3.924-3.96-6.372-9.36-6.372-15.372 0-6.012 2.448-11.412 6.372-15.372 3.348-3.348 3.348-8.748 0-12.06a8.54 8.54 0 00-12.096 0c-7.02 7.056-11.34 16.74-11.34 27.468 0 10.728 4.356 20.412 11.376 27.432a8.54 8.54 0 0012.096 0 8.572 8.572 0 00-.036-12.096z" fill="#FFD75F"/><path d="M54.396 51.264c3.96-3.924 9.396-6.372 15.372-6.372a21.684 21.684 0 0115.372 6.372 8.54 8.54 0 0012.096 0c3.348-3.348 3.348-8.748 0-12.06-7.02-7.02-16.74-11.376-27.468-11.376-10.728 0-20.448 4.356-27.468 11.376-3.348 3.348-3.348 8.748 0 12.06 3.348 3.348 8.784 3.348 12.096 0z" fill="#4FB5E1"/><path d="M85.176 81.972c-3.96 3.924-9.396 6.372-15.372 6.372a21.684 21.684 0 01-15.372-6.372 8.54 8.54 0 00-12.096 0c-3.348 3.348-3.348 8.748 0 12.06 7.02 7.02 16.74 11.376 27.468 11.376 10.728 0 20.448-4.356 27.468-11.376 3.348-3.348 3.348-8.748 0-12.06-3.348-3.312-8.748-3.312-12.096 0z" fill="#F05751"/><path d="M54.396 51.264a8.54 8.54 0 01-12.096 0c-3.348-3.348-3.348-8.748 0-12.06a8.54 8.54 0 0112.096 0c3.348 3.312 3.348 8.712 0 12.06z" fill="#0681B6"/><path d="M54.396 94.068a8.54 8.54 0 01-12.096 0c-3.348-3.312-3.348-8.748 0-12.06a8.54 8.54 0 0112.096 0c3.348 3.312 3.348 8.712 0 12.06z" fill="#CD4739"/></g></svg>