<svg width="160" height="160" xmlns="http://www.w3.org/2000/svg"><g fill="none" fill-rule="nonzero"><circle fill="#FFF" cx="80.492" cy="80.492" r="66.492"/><g transform="translate(43 43)"><circle fill="#639" cx="36.96" cy="36.96" r="36.96"/><g fill="#FFF"><path d="M16.368 57.552C10.824 52.008 7.92 44.616 7.92 37.488L36.696 66c-7.392-.264-14.784-2.904-20.328-8.448zM43.296 65.208L8.712 30.624C11.616 17.688 23.232 7.92 36.96 7.92c9.768 0 18.216 4.752 23.496 11.88l-3.96 3.432C52.008 17.16 44.88 13.2 36.96 13.2c-10.296 0-19.008 6.6-22.44 15.84L44.88 59.4c7.656-2.64 13.464-9.24 15.312-17.16H47.52v-5.28H66c0 13.728-9.768 25.344-22.704 28.248z"/></g></g></g></svg>