<svg width="160" height="160" xmlns="http://www.w3.org/2000/svg"><g fill="none" fill-rule="nonzero"><circle fill="#FFF" cx="80.492" cy="80.492" r="66.492"/><g fill="#FA1607"><path d="M59.476 55.431c0 8.91 5.6 14.212 16.813 17.008l11.882 2.706c10.611 2.395 17.073 8.342 17.073 18.032a18.2 18.2 0 01-3.956 11.672c0-9.667-5.09-14.89-17.369-18.032l-11.666-2.606c-9.342-2.094-16.552-6.983-16.552-17.508a18.109 18.109 0 013.775-11.272"/><path d="M93.987 90.805c5.067 3.185 7.29 7.64 7.29 14.033-4.195 5.28-11.565 8.242-20.226 8.242-14.58 0-24.784-7.05-27.051-19.302h14.002c1.802 5.625 6.575 8.231 12.947 8.231 7.777 0 12.947-4.076 13.049-11.227M66.754 68.64a14.765 14.765 0 01-5.494-5.618 14.436 14.436 0 01-1.784-7.59C63.523 50.196 70.563 47 79.146 47c14.851 0 23.445 7.707 25.565 18.555H91.243c-1.486-4.276-5.204-7.607-11.984-7.607-7.244 0-12.187 4.144-12.47 10.693" opacity=".7"/></g></g></svg>