<svg width="160" height="160" xmlns="http://www.w3.org/2000/svg"><defs><linearGradient x1="50%" y1="0%" x2="50%" y2="100%" id="a"><stop stop-color="#00583E" offset="0%"/><stop stop-color="#00835C" offset="100%"/></linearGradient></defs><g fill="none" fill-rule="evenodd"><circle fill="#FFF" fill-rule="nonzero" cx="80.492" cy="80.492" r="66.492"/><path d="M66.448 30.414c3.534-.17 6.662 2.572 6.967 6.109 1.322 17.111-14.338 36.28-36.405 36.892C18.413 73.875.02 58.985.02 36.474c0-3.548 2.932-6.424 6.47-6.424s6.406 2.876 6.406 6.424c0 14.808 11.906 24.39 23.799 24.098 14.64-.407 24.157-13.084 23.662-23.434-.17-3.543 2.557-6.554 6.091-6.724z" fill="url(#a)" fill-rule="nonzero" transform="translate(43 43)"/><path d="M93.445 79.972c0-3.632 2.963-6.577 6.617-6.577h9.644c3.655 0 6.71 2.945 6.71 6.577s-3.055 6.577-6.71 6.577h-9.644c-3.654 0-6.617-2.945-6.617-6.577zM73.21 79.982c0-3.638 2.944-6.587 6.571-6.587 3.628 0 6.572 2.95 6.572 6.587 0 3.637-2.944 6.586-6.572 6.586-3.627 0-6.571-2.949-6.571-6.586z" fill="#00A672" fill-rule="nonzero"/><path d="M86.17 49.209c.148 3.545-2.6 6.537-6.134 6.685-15.26.635-24.576 12.629-24.122 24.017.141 3.545-2.553 6.533-6.088 6.675-3.535.141-6.644-2.72-6.785-6.265-.74-18.558 14.713-36.904 36.463-37.264 3.535-.147 6.52 2.607 6.667 6.152z" fill="#00A672"/></g></svg>