<svg xmlns="http://www.w3.org/2000/svg" viewBox="0 0 60 76"><defs><style>.cls-1{opacity:0.1;}.cls-2{opacity:0.2;}.cls-3{opacity:0.7;}.cls-3,.cls-4{isolation:isolate;}.cls-4{opacity:0.5;}</style></defs><title>UIButtons</title><g id="Layer_2" data-name="Layer 2"><g class="cls-1"><rect width="60" height="76" rx="12" ry="12"/></g><g class="cls-2"><path d="M48,4a8,8,0,0,1,8,8V64a8,8,0,0,1-8,8H12a8,8,0,0,1-8-8V12a8,8,0,0,1,8-8H48m0-4H12A12,12,0,0,0,0,12V64A12,12,0,0,0,12,76H48A12,12,0,0,0,60,64V12A12,12,0,0,0,48,0Z"/></g><g class="cls-3"><path d="M12.14,62.67l1-1.34a3.62,3.62,0,0,0,2.63,1.12c1,0,1.44-.45,1.44-.92,0-1.47-4.77-.46-4.77-3.58,0-1.38,1.19-2.52,3.14-2.52a4.6,4.6,0,0,1,3.23,1.16l-1,1.29A3.56,3.56,0,0,0,15.38,57c-.76,0-1.18.34-1.18.83,0,1.32,4.76.44,4.76,3.53C19,62.85,17.88,64,15.64,64A4.69,4.69,0,0,1,12.14,62.67Z"/><path d="M19.73,60.83a3,3,0,0,1,3.17-3.14,3.15,3.15,0,1,1,0,6.3A3,3,0,0,1,19.73,60.83Zm4.71,0a1.55,1.55,0,1,0-1.54,1.75A1.59,1.59,0,0,0,24.44,60.83Z"/><path d="M31.29,63.84v-.76a2.81,2.81,0,0,1-2.11.91,1.72,1.72,0,0,1-1.94-1.89V57.84h1.58v3.64c0,.83.43,1.1,1.11,1.1a1.75,1.75,0,0,0,1.36-.68V57.84h1.58v6Z"/><path d="M38.48,63.84V60.21c0-.83-.43-1.12-1.1-1.12A1.72,1.72,0,0,0,36,59.8v4H34.43v-6H36v.78a2.76,2.76,0,0,1,2.1-.93,1.74,1.74,0,0,1,2,1.91v4.24Z"/><path d="M45.75,63.84v-.77A2.32,2.32,0,0,1,43.9,64c-1.52,0-2.66-1.14-2.66-3.14s1.13-3.16,2.66-3.16a2.3,2.3,0,0,1,1.85.92v-3h1.59v8.28Zm0-1.94V59.78a1.71,1.71,0,0,0-1.37-.69,1.57,1.57,0,0,0-1.51,1.76,1.55,1.55,0,0,0,1.51,1.73A1.7,1.7,0,0,0,45.75,61.9Z"/></g><path class="cls-4" d="M46.75,28.35a16.75,16.75,0,0,0-33.5,0h0V39a9,9,0,0,0,9.07,9h1.44V30H22.32a9.07,9.07,0,0,0-6.2,2.45V28.38h0a13.88,13.88,0,0,1,27.76,0h0v4.07A9.07,9.07,0,0,0,37.68,30H36.24V48h1.44a9,9,0,0,0,9.07-9V28.35ZM20.89,33V45a6.15,6.15,0,0,1,0-12ZM39.11,45V33a6.15,6.15,0,0,1,0,12Z"/></g></svg>