<svg xmlns="http://www.w3.org/2000/svg" viewBox="0 0 60 76"><defs><style>.cls-1{opacity:0.1;}.cls-2,.cls-5,.cls-6{fill:#fff;}.cls-3,.cls-5{opacity:0.2;}.cls-4{opacity:0.7;}.cls-4,.cls-5,.cls-6{isolation:isolate;}.cls-6{opacity:0.5;}</style></defs><title>UIButtons</title><g id="Layer_6" data-name="Layer 6"><g class="cls-1"><rect class="cls-2" width="60" height="76" rx="12" ry="12"/></g><g class="cls-3"><path class="cls-2" d="M48,4a8,8,0,0,1,8,8V64a8,8,0,0,1-8,8H12a8,8,0,0,1-8-8V12a8,8,0,0,1,8-8H48m0-4H12A12,12,0,0,0,0,12V64A12,12,0,0,0,12,76H48A12,12,0,0,0,60,64V12A12,12,0,0,0,48,0Z"/></g><g class="cls-4"><path class="cls-2" d="M16.59,59.7A4.21,4.21,0,0,1,21,55.42a3.8,3.8,0,0,1,3.47,2L23,58.19A2.25,2.25,0,0,0,21,57a2.72,2.72,0,0,0,0,5.44A2.22,2.22,0,0,0,23,61.22l1.52.73A3.83,3.83,0,0,1,21,64,4.21,4.21,0,0,1,16.59,59.7Z"/><path class="cls-2" d="M25.49,63.84V55.56h1.57v8.28Z"/><path class="cls-2" d="M28.47,56.25a.94.94,0,1,1,.94.94A.94.94,0,0,1,28.47,56.25Zm.16,7.59v-6h1.58v6Z"/><path class="cls-2" d="M31.38,60.83a3,3,0,0,1,3.18-3.14,2.83,2.83,0,0,1,2.38,1.08l-1,1a1.47,1.47,0,0,0-1.27-.65,1.75,1.75,0,0,0,0,3.49,1.51,1.51,0,0,0,1.27-.64l1,1A2.78,2.78,0,0,1,34.56,64,3.05,3.05,0,0,1,31.38,60.83Z"/><path class="cls-2" d="M41.85,63.84l-1.59-2.31-.72.77v1.54H38V55.56h1.57v4.95l2.28-2.67h1.93l-2.37,2.72,2.45,3.28Z"/></g><path class="cls-5" d="M29.48,17.84a3.85,3.85,0,0,1,3.84,3.84v5.1h.33a4.86,4.86,0,0,1,1.32,0,8.49,8.49,0,1,0-9.33,1.34V21.68A3.86,3.86,0,0,1,29.48,17.84Z"/><path class="cls-6" d="M42.86,31.59a4.46,4.46,0,0,0-3.12-2.49,3.53,3.53,0,0,1-.7-.28,9.4,9.4,0,0,1-.76-.57,6.6,6.6,0,0,0-2.35-1.39,5.09,5.09,0,0,0-1-.18,5.83,5.83,0,0,0-1.32,0h-.33V21.59a3.84,3.84,0,0,0-7.68,0V33.1c0,.7-.23,1.54-.93,1.6A4.23,4.23,0,0,1,22.46,34a5.53,5.53,0,0,0-2.79-.85,3.44,3.44,0,0,0-3.22,3.59,4.31,4.31,0,0,0,.53,2c.76,1.32,5.1,7,11,8.69A12.22,12.22,0,0,0,38.9,45.6,11.86,11.86,0,0,0,43.55,36v-.2A11.79,11.79,0,0,0,42.86,31.59ZM41,36.05a9.38,9.38,0,0,1-3.62,7.61,9.76,9.76,0,0,1-8.69,1.39c-5.15-1.4-8.94-6.51-9.48-7.46a1.64,1.64,0,0,1-.19-.78c0-.16,0-1,.79-1a3.63,3.63,0,0,1,1.45.56,6.49,6.49,0,0,0,3.66,1c1.94-.16,3.28-1.85,3.28-4.15V21.68a1.28,1.28,0,0,1,2.56,0h0v6.81l.34.18.34.18a3.75,3.75,0,0,0,2.52.41,3,3,0,0,1,1.26.06,4.23,4.23,0,0,1,1.45.91,8.7,8.7,0,0,0,.93.7,4.79,4.79,0,0,0,1.39.61,2.06,2.06,0,0,1,1.55,1.14,9.2,9.2,0,0,1,.46,3.2Z"/></g></svg>