<svg width="718" height="802" xmlns="http://www.w3.org/2000/svg" xmlns:xlink="http://www.w3.org/1999/xlink"><defs><filter x="0%" y="0%" width="100%" height="100%" filterUnits="objectBoundingBox" id="h"><feGaussianBlur in="SourceGraphic"/></filter><filter x="0%" y="0%" width="100%" height="100%" filterUnits="objectBoundingBox" id="i"><feGaussianBlur in="SourceGraphic"/></filter><filter x="0%" y="0%" width="100%" height="100%" filterUnits="objectBoundingBox" id="j"><feGaussianBlur in="SourceGraphic"/></filter><filter x="0%" y="0%" width="100%" height="100%" filterUnits="objectBoundingBox" id="k"><feGaussianBlur in="SourceGraphic"/></filter><filter x="0%" y="0%" width="100%" height="100%" filterUnits="objectBoundingBox" id="l"><feGaussianBlur in="SourceGraphic"/></filter><filter x="0%" y="0%" width="100%" height="100%" filterUnits="objectBoundingBox" id="m"><feGaussianBlur in="SourceGraphic"/></filter><filter x="-90.9%" y="-2.1%" width="281.9%" height="104.2%" filterUnits="objectBoundingBox" id="o"><feOffset dx="1" in="SourceAlpha" result="shadowOffsetInner1"/><feComposite in="shadowOffsetInner1" in2="SourceAlpha" operator="arithmetic" k2="-1" k3="1" result="shadowInnerInner1"/><feColorMatrix values="0 0 0 0 0.407843137 0 0 0 0 0.529411765 0 0 0 0 0.603921569 0 0 0 1 0" in="shadowInnerInner1" result="shadowMatrixInner1"/><feGaussianBlur stdDeviation=".5" in="SourceAlpha" result="shadowBlurInner2"/><feOffset dy="-3" in="shadowBlurInner2" result="shadowOffsetInner2"/><feComposite in="shadowOffsetInner2" in2="SourceAlpha" operator="arithmetic" k2="-1" k3="1" result="shadowInnerInner2"/><feColorMatrix values="0 0 0 0 0.168627451 0 0 0 0 0.250980392 0 0 0 0 0.31372549 0 0 0 1 0" in="shadowInnerInner2" result="shadowMatrixInner2"/><feGaussianBlur stdDeviation=".5" in="SourceAlpha" result="shadowBlurInner3"/><feOffset dy="3" in="shadowBlurInner3" result="shadowOffsetInner3"/><feComposite in="shadowOffsetInner3" in2="SourceAlpha" operator="arithmetic" k2="-1" k3="1" result="shadowInnerInner3"/><feColorMatrix values="0 0 0 0 0.168627451 0 0 0 0 0.250980392 0 0 0 0 0.31372549 0 0 0 1 0" in="shadowInnerInner3" result="shadowMatrixInner3"/><feOffset dy="-1" in="SourceAlpha" result="shadowOffsetInner4"/><feComposite in="shadowOffsetInner4" in2="SourceAlpha" operator="arithmetic" k2="-1" k3="1" result="shadowInnerInner4"/><feColorMatrix values="0 0 0 0 0.298039216 0 0 0 0 0.364705882 0 0 0 0 0.396078431 0 0 0 1 0" in="shadowInnerInner4" result="shadowMatrixInner4"/><feMerge><feMergeNode in="shadowMatrixInner1"/><feMergeNode in="shadowMatrixInner2"/><feMergeNode in="shadowMatrixInner3"/><feMergeNode in="shadowMatrixInner4"/></feMerge></filter><filter x="-90.9%" y="-3.4%" width="281.9%" height="106.7%" filterUnits="objectBoundingBox" id="q"><feGaussianBlur stdDeviation=".5" in="SourceAlpha" result="shadowBlurInner1"/><feOffset dy="-3" in="shadowBlurInner1" result="shadowOffsetInner1"/><feComposite in="shadowOffsetInner1" in2="SourceAlpha" operator="arithmetic" k2="-1" k3="1" result="shadowInnerInner1"/><feColorMatrix values="0 0 0 0 0.168627451 0 0 0 0 0.250980392 0 0 0 0 0.31372549 0 0 0 1 0" in="shadowInnerInner1" result="shadowMatrixInner1"/><feGaussianBlur stdDeviation=".5" in="SourceAlpha" result="shadowBlurInner2"/><feOffset dx="-1" dy="3" in="shadowBlurInner2" result="shadowOffsetInner2"/><feComposite in="shadowOffsetInner2" in2="SourceAlpha" operator="arithmetic" k2="-1" k3="1" result="shadowInnerInner2"/><feColorMatrix values="0 0 0 0 0.031372549 0 0 0 0 0.101960784 0 0 0 0 0.145098039 0 0 0 1 0" in="shadowInnerInner2" result="shadowMatrixInner2"/><feOffset dy="2" in="SourceAlpha" result="shadowOffsetInner3"/><feComposite in="shadowOffsetInner3" in2="SourceAlpha" operator="arithmetic" k2="-1" k3="1" result="shadowInnerInner3"/><feColorMatrix values="0 0 0 0 0.435230792 0 0 0 0 0.513756692 0 0 0 0 0.5567922 0 0 0 1 0" in="shadowInnerInner3" result="shadowMatrixInner3"/><feOffset dy="-2" in="SourceAlpha" result="shadowOffsetInner4"/><feComposite in="shadowOffsetInner4" in2="SourceAlpha" operator="arithmetic" k2="-1" k3="1" result="shadowInnerInner4"/><feColorMatrix values="0 0 0 0 0.435294118 0 0 0 0 0.51372549 0 0 0 0 0.556862745 0 0 0 1 0" in="shadowInnerInner4" result="shadowMatrixInner4"/><feOffset dy="-1" in="SourceAlpha" result="shadowOffsetInner5"/><feComposite in="shadowOffsetInner5" in2="SourceAlpha" operator="arithmetic" k2="-1" k3="1" result="shadowInnerInner5"/><feColorMatrix values="0 0 0 0 0.031372549 0 0 0 0 0.101960784 0 0 0 0 0.145098039 0 0 0 1 0" in="shadowInnerInner5" result="shadowMatrixInner5"/><feOffset dy="1" in="SourceAlpha" result="shadowOffsetInner6"/><feComposite in="shadowOffsetInner6" in2="SourceAlpha" operator="arithmetic" k2="-1" k3="1" result="shadowInnerInner6"/><feColorMatrix values="0 0 0 0 0.031372549 0 0 0 0 0.101960784 0 0 0 0 0.145098039 0 0 0 1 0" in="shadowInnerInner6" result="shadowMatrixInner6"/><feMerge><feMergeNode in="shadowMatrixInner1"/><feMergeNode in="shadowMatrixInner2"/><feMergeNode in="shadowMatrixInner3"/><feMergeNode in="shadowMatrixInner4"/><feMergeNode in="shadowMatrixInner5"/><feMergeNode in="shadowMatrixInner6"/></feMerge></filter><filter x="-90.9%" y="-6.5%" width="281.9%" height="113%" filterUnits="objectBoundingBox" id="s"><feGaussianBlur stdDeviation=".5" in="SourceAlpha" result="shadowBlurInner1"/><feOffset dy="-3" in="shadowBlurInner1" result="shadowOffsetInner1"/><feComposite in="shadowOffsetInner1" in2="SourceAlpha" operator="arithmetic" k2="-1" k3="1" result="shadowInnerInner1"/><feColorMatrix values="0 0 0 0 0.168627451 0 0 0 0 0.250980392 0 0 0 0 0.31372549 0 0 0 1 0" in="shadowInnerInner1" result="shadowMatrixInner1"/><feGaussianBlur stdDeviation=".5" in="SourceAlpha" result="shadowBlurInner2"/><feOffset dx="-1" dy="3" in="shadowBlurInner2" result="shadowOffsetInner2"/><feComposite in="shadowOffsetInner2" in2="SourceAlpha" operator="arithmetic" k2="-1" k3="1" result="shadowInnerInner2"/><feColorMatrix values="0 0 0 0 0.031372549 0 0 0 0 0.101960784 0 0 0 0 0.145098039 0 0 0 1 0" in="shadowInnerInner2" result="shadowMatrixInner2"/><feOffset dy="2" in="SourceAlpha" result="shadowOffsetInner3"/><feComposite in="shadowOffsetInner3" in2="SourceAlpha" operator="arithmetic" k2="-1" k3="1" result="shadowInnerInner3"/><feColorMatrix values="0 0 0 0 0.435230792 0 0 0 0 0.513756692 0 0 0 0 0.5567922 0 0 0 1 0" in="shadowInnerInner3" result="shadowMatrixInner3"/><feOffset dy="-2" in="SourceAlpha" result="shadowOffsetInner4"/><feComposite in="shadowOffsetInner4" in2="SourceAlpha" operator="arithmetic" k2="-1" k3="1" result="shadowInnerInner4"/><feColorMatrix values="0 0 0 0 0.435294118 0 0 0 0 0.51372549 0 0 0 0 0.556862745 0 0 0 1 0" in="shadowInnerInner4" result="shadowMatrixInner4"/><feOffset dy="-1" in="SourceAlpha" result="shadowOffsetInner5"/><feComposite in="shadowOffsetInner5" in2="SourceAlpha" operator="arithmetic" k2="-1" k3="1" result="shadowInnerInner5"/><feColorMatrix values="0 0 0 0 0.031372549 0 0 0 0 0.101960784 0 0 0 0 0.145098039 0 0 0 1 0" in="shadowInnerInner5" result="shadowMatrixInner5"/><feOffset dy="1" in="SourceAlpha" result="shadowOffsetInner6"/><feComposite in="shadowOffsetInner6" in2="SourceAlpha" operator="arithmetic" k2="-1" k3="1" result="shadowInnerInner6"/><feColorMatrix values="0 0 0 0 0.031372549 0 0 0 0 0.101960784 0 0 0 0 0.145098039 0 0 0 1 0" in="shadowInnerInner6" result="shadowMatrixInner6"/><feMerge><feMergeNode in="shadowMatrixInner1"/><feMergeNode in="shadowMatrixInner2"/><feMergeNode in="shadowMatrixInner3"/><feMergeNode in="shadowMatrixInner4"/><feMergeNode in="shadowMatrixInner5"/><feMergeNode in="shadowMatrixInner6"/></feMerge></filter><filter x="-90.9%" y="-3.4%" width="281.9%" height="106.7%" filterUnits="objectBoundingBox" id="u"><feGaussianBlur stdDeviation=".5" in="SourceAlpha" result="shadowBlurInner1"/><feOffset dy="-3" in="shadowBlurInner1" result="shadowOffsetInner1"/><feComposite in="shadowOffsetInner1" in2="SourceAlpha" operator="arithmetic" k2="-1" k3="1" result="shadowInnerInner1"/><feColorMatrix values="0 0 0 0 0.168627451 0 0 0 0 0.250980392 0 0 0 0 0.31372549 0 0 0 1 0" in="shadowInnerInner1" result="shadowMatrixInner1"/><feGaussianBlur stdDeviation=".5" in="SourceAlpha" result="shadowBlurInner2"/><feOffset dx="-1" dy="3" in="shadowBlurInner2" result="shadowOffsetInner2"/><feComposite in="shadowOffsetInner2" in2="SourceAlpha" operator="arithmetic" k2="-1" k3="1" result="shadowInnerInner2"/><feColorMatrix values="0 0 0 0 0.031372549 0 0 0 0 0.101960784 0 0 0 0 0.145098039 0 0 0 1 0" in="shadowInnerInner2" result="shadowMatrixInner2"/><feOffset dy="2" in="SourceAlpha" result="shadowOffsetInner3"/><feComposite in="shadowOffsetInner3" in2="SourceAlpha" operator="arithmetic" k2="-1" k3="1" result="shadowInnerInner3"/><feColorMatrix values="0 0 0 0 0.435230792 0 0 0 0 0.513756692 0 0 0 0 0.5567922 0 0 0 1 0" in="shadowInnerInner3" result="shadowMatrixInner3"/><feOffset dy="-2" in="SourceAlpha" result="shadowOffsetInner4"/><feComposite in="shadowOffsetInner4" in2="SourceAlpha" operator="arithmetic" k2="-1" k3="1" result="shadowInnerInner4"/><feColorMatrix values="0 0 0 0 0.435294118 0 0 0 0 0.51372549 0 0 0 0 0.556862745 0 0 0 1 0" in="shadowInnerInner4" result="shadowMatrixInner4"/><feOffset dy="-1" in="SourceAlpha" result="shadowOffsetInner5"/><feComposite in="shadowOffsetInner5" in2="SourceAlpha" operator="arithmetic" k2="-1" k3="1" result="shadowInnerInner5"/><feColorMatrix values="0 0 0 0 0.031372549 0 0 0 0 0.101960784 0 0 0 0 0.145098039 0 0 0 1 0" in="shadowInnerInner5" result="shadowMatrixInner5"/><feOffset dy="1" in="SourceAlpha" result="shadowOffsetInner6"/><feComposite in="shadowOffsetInner6" in2="SourceAlpha" operator="arithmetic" k2="-1" k3="1" result="shadowInnerInner6"/><feColorMatrix values="0 0 0 0 0.031372549 0 0 0 0 0.101960784 0 0 0 0 0.145098039 0 0 0 1 0" in="shadowInnerInner6" result="shadowMatrixInner6"/><feMerge><feMergeNode in="shadowMatrixInner1"/><feMergeNode in="shadowMatrixInner2"/><feMergeNode in="shadowMatrixInner3"/><feMergeNode in="shadowMatrixInner4"/><feMergeNode in="shadowMatrixInner5"/><feMergeNode in="shadowMatrixInner6"/></feMerge></filter><filter x="-1.2%" y="-7.6%" width="102.3%" height="115.1%" filterUnits="objectBoundingBox" id="A"><feGaussianBlur stdDeviation=".5" in="SourceAlpha" result="shadowBlurInner1"/><feOffset in="shadowBlurInner1" result="shadowOffsetInner1"/><feComposite in="shadowOffsetInner1" in2="SourceAlpha" operator="arithmetic" k2="-1" k3="1" result="shadowInnerInner1"/><feColorMatrix values="0 0 0 0 0 0 0 0 0 0 0 0 0 0 0 0 0 0 1 0" in="shadowInnerInner1" result="shadowMatrixInner1"/><feOffset dx="1" in="SourceAlpha" result="shadowOffsetInner2"/><feComposite in="shadowOffsetInner2" in2="SourceAlpha" operator="arithmetic" k2="-1" k3="1" result="shadowInnerInner2"/><feColorMatrix values="0 0 0 0 1 0 0 0 0 1 0 0 0 0 1 0 0 0 0.05 0" in="shadowInnerInner2" result="shadowMatrixInner2"/><feOffset dx="-1" in="SourceAlpha" result="shadowOffsetInner3"/><feComposite in="shadowOffsetInner3" in2="SourceAlpha" operator="arithmetic" k2="-1" k3="1" result="shadowInnerInner3"/><feColorMatrix values="0 0 0 0 1 0 0 0 0 1 0 0 0 0 1 0 0 0 0.05 0" in="shadowInnerInner3" result="shadowMatrixInner3"/><feMerge><feMergeNode in="shadowMatrixInner1"/><feMergeNode in="shadowMatrixInner2"/><feMergeNode in="shadowMatrixInner3"/></feMerge></filter><filter x="0%" y="0%" width="100%" height="100%" filterUnits="objectBoundingBox" id="E"><feGaussianBlur in="SourceGraphic"/></filter><filter x="0%" y="0%" width="100%" height="100%" filterUnits="objectBoundingBox" id="F"><feGaussianBlur in="SourceGraphic"/></filter><path d="M79.757 0h237.486c26.968 0 36.748 2.808 46.607 8.08 9.86 5.274 17.597 13.011 22.87 22.87 5.273 9.86 8.08 19.64 8.08 46.608v645.884c0 26.969-2.807 36.748-8.08 46.608-5.273 9.859-13.01 17.596-22.87 22.87-9.86 5.272-19.639 8.08-46.607 8.08H79.757c-26.968 0-36.748-2.808-46.607-8.08-9.86-5.274-17.597-13.011-22.87-22.87-5.273-9.86-8.08-19.64-8.08-46.608V77.558c0-26.969 2.807-36.748 8.08-46.608 5.273-9.859 13.01-17.596 22.87-22.87C43.01 2.809 52.789 0 79.757 0z" id="a"/><path d="M79.757 0h237.486c26.968 0 36.748 2.808 46.607 8.08 9.86 5.274 17.597 13.011 22.87 22.87 5.273 9.86 8.08 19.64 8.08 46.608v645.884c0 26.969-2.807 36.748-8.08 46.608-5.273 9.859-13.01 17.596-22.87 22.87-9.86 5.272-19.639 8.08-46.607 8.08H79.757c-26.968 0-36.748-2.808-46.607-8.08-9.86-5.274-17.597-13.011-22.87-22.87-5.273-9.86-8.08-19.64-8.08-46.608V77.558c0-26.969 2.807-36.748 8.08-46.608 5.273-9.859 13.01-17.596 22.87-22.87C43.01 2.809 52.789 0 79.757 0z" id="c"/><path d="M79.447 1.1h238.106c26.479 0 36.08 2.757 45.76 7.934s17.277 12.774 22.454 22.454c5.177 9.68 7.934 19.282 7.934 45.76v646.504c0 26.478-2.757 36.08-7.934 45.76s-12.774 17.277-22.454 22.454c-9.68 5.177-19.281 7.934-45.76 7.934H79.447c-26.479 0-36.08-2.757-45.76-7.934s-17.277-12.774-22.454-22.454c-5.177-9.68-7.934-19.282-7.934-45.76V77.248c0-26.478 2.757-36.08 7.934-45.76S24.007 14.211 33.687 9.034C43.367 3.857 52.968 1.1 79.447 1.1z" id="d"/><path d="M79.757 0h237.486c26.968 0 36.748 2.808 46.607 8.08 9.86 5.274 17.597 13.011 22.87 22.87 5.273 9.86 8.08 19.64 8.08 46.608v645.884c0 26.969-2.807 36.748-8.08 46.608-5.273 9.859-13.01 17.596-22.87 22.87-9.86 5.272-19.639 8.08-46.607 8.08H79.757c-26.968 0-36.748-2.808-46.607-8.08-9.86-5.274-17.597-13.011-22.87-22.87-5.273-9.86-8.08-19.64-8.08-46.608V77.558c0-26.969 2.807-36.748 8.08-46.608 5.273-9.859 13.01-17.596 22.87-22.87C43.01 2.809 52.789 0 79.757 0z" id="f"/><path d="M78.205 5.501h240.59c24.517 0 33.407 2.553 42.37 7.347 8.963 4.793 15.997 11.827 20.79 20.79 4.794 8.963 7.347 17.853 7.347 42.37v648.984c0 24.517-2.553 33.407-7.346 42.37-4.794 8.963-11.828 15.997-20.79 20.79-8.964 4.794-17.854 7.347-42.37 7.347H78.204c-24.517 0-33.407-2.553-42.37-7.347-8.963-4.793-15.997-11.827-20.79-20.79-4.794-8.963-7.347-17.853-7.347-42.37V76.008c0-24.517 2.553-33.407 7.346-42.37 4.794-8.963 11.828-15.997 20.79-20.79C44.799 8.054 53.689 5.5 78.205 5.5z" id="g"/><path d="M395.9 75.919h1.1v94.624h-1.1a1.1 1.1 0 01-1.1-1.1V77.019a1.1 1.1 0 011.1-1.1z" id="n"/><path d="M1.1 59.415h1.1v59.415H1.1a1.1 1.1 0 01-1.1-1.1V60.515a1.1 1.1 0 011.1-1.1z" id="p"/><path d="M1.1 0h1.1v30.808H1.1a1.1 1.1 0 01-1.1-1.1V1.1A1.1 1.1 0 011.1 0z" id="r"/><path d="M1.1 135.334h1.1v59.415H1.1a1.1 1.1 0 01-1.1-1.1v-57.215a1.1 1.1 0 011.1-1.1z" id="t"/><path d="M56.405 0h242.4c19.613 0 26.726 2.042 33.896 5.877 7.17 3.835 12.798 9.462 16.633 16.632 3.834 7.17 5.877 14.283 5.877 33.896v650.78c0 19.614-2.043 26.726-5.877 33.896-3.835 7.17-9.462 12.798-16.633 16.633-7.17 3.834-14.283 5.877-33.896 5.877h-242.4c-19.613 0-26.725-2.043-33.896-5.877-7.17-3.835-12.797-9.462-16.632-16.633C2.042 733.911 0 726.8 0 707.185V56.405C0 36.792 2.042 29.68 5.877 22.51c3.835-7.17 9.462-12.797 16.632-16.632C29.68 2.042 36.792 0 56.405 0z" id="v"/><path d="M254.426 157.119H15.836c-8.747 0-15.835-7.093-15.835-15.844V15.844C0 7.094 7.089 0 15.837 0h238.589c8.745 0 15.836 7.094 15.836 15.844v125.43c0 8.752-7.09 15.845-15.836 15.845" id="x"/><radialGradient cx="50%" cy="0%" fx="50%" fy="0%" r="204.024%" gradientTransform="matrix(0 .49014 -1 0 .5 -.245)" id="b"><stop stop-color="#203C47" offset="0%"/><stop stop-color="#1E3645" offset="100%"/></radialGradient><radialGradient cx="50%" cy="50%" fx="50%" fy="50%" r="91.42%" gradientTransform="matrix(0 .74962 -.60538 0 .803 .125)" id="C"><stop stop-color="#0C3C6E" offset="0%"/><stop offset="100%"/></radialGradient><radialGradient cx="50%" cy="52.077%" fx="50%" fy="52.077%" r="88.649%" gradientTransform="matrix(0 .74962 -.60538 0 .815 .146)" id="D"><stop stop-color="#2D455D" offset="0%"/><stop offset="100%"/></radialGradient><linearGradient x1="50%" y1="0%" x2="50%" y2="100%" id="e"><stop stop-color="#C3D8DF" offset="0%"/><stop stop-color="#7FA0B2" offset="51.23%"/><stop stop-color="#A2B7C8" offset="100%"/></linearGradient><linearGradient x1="-30.857%" y1="50%" x2="100%" y2="50%" id="B"><stop offset="0%"/><stop stop-color="#1B1B1B" offset="100%"/></linearGradient><rect id="z" x="76.981" y="7.702" width="42.889" height="6.602" rx="3.3"/></defs><g fill="none" fill-rule="evenodd"><path d="M575.625 84.479c-28.92-6.775-60.692-5.499-89.467-1.444-64.878 9.148-157.192 30.787-165.059 109.123-4.115 40.98 31.726 87.682 58.402 115.863 35.555 37.564 68.362 73.05 114.769 97.306 46.002 24.047 106.56 17.518 151.821-3.36 33.688-15.54 54.211-51.406 65.544-86.009 15.712-47.987-.617-97.778-27.65-138.241-15.01-22.468-32.753-44.768-52.049-63.678-15.772-15.457-35.286-24.636-56.311-29.56M255.625 404.479c-28.92-6.775-60.692-5.499-89.467-1.444C101.28 412.183 8.966 433.822 1.099 512.158c-4.115 40.98 31.726 87.682 58.402 115.863 35.555 37.564 68.362 73.05 114.769 97.306 46.002 24.047 106.56 17.518 151.821-3.36 33.688-15.54 54.211-51.406 65.544-86.009 15.712-47.987-.617-97.778-27.65-138.241-15.01-22.468-32.753-44.768-52.049-63.678-15.772-15.457-35.286-24.636-56.311-29.56" fill="#0084FF"/><circle fill="#FEB801" cx="371.5" cy="399.5" r="301.5"/><g transform="translate(173)"><use fill="url(#b)" xlink:href="#a"/><path stroke="#375161" stroke-width="3.3" d="M318.033 1.65c25.904.054 35.441 2.753 45.039 7.886 9.567 5.116 17.076 12.625 22.193 22.193.207.387.41.775.61 1.164l.296.584c4.593 9.163 6.98 19.17 6.98 44.08h0v645.885c0 24.912-2.387 34.918-6.98 44.081l-.296.584c-.2.389-.403.777-.61 1.164-5.117 9.568-12.626 17.077-22.193 22.193-9.695 5.185-19.328 7.886-45.829 7.886h0H79.757c-26.501 0-36.134-2.701-45.829-7.886-9.567-5.116-17.076-12.625-22.193-22.193-.207-.387-.41-.775-.61-1.164l-.296-.584c-4.593-9.163-6.98-19.17-6.98-44.08h0V77.557c0-24.912 2.387-34.918 6.98-44.081l.296-.584c.2-.389.403-.777.61-1.164 5.117-9.568 12.626-17.077 22.193-22.193 9.596-5.132 19.13-7.83 45.025-7.885h0z"/><path stroke="url(#e)" stroke-width="1.1" d="M317.553 1.65c26.323 0 35.876 2.722 45.5 7.87 9.584 5.124 17.104 12.645 22.229 22.227l.152.286.3.572c.248.477.49.955.725 1.436l.28.579c4.156 8.71 6.362 18.685 6.411 41.838h0v648.079c-.054 25.729-2.772 35.187-7.868 44.716-5.125 9.582-12.645 17.103-22.228 22.228-9.625 5.147-19.178 7.869-45.5 7.869h0H79.446c-26.323 0-35.876-2.722-45.5-7.87-9.584-5.124-17.104-12.645-22.229-22.227l-.152-.286-.3-.572c-.248-.477-.49-.955-.725-1.436l-.28-.579c-4.156-8.71-6.362-18.685-6.411-41.838h0V76.463c.054-25.729 2.772-35.187 7.868-44.716 5.125-9.582 12.645-17.103 22.228-22.228 9.625-5.147 19.178-7.869 45.5-7.869h0z"/><path stroke="#081A25" stroke-width="1.1" d="M317.243.55c22.523 0 32.992 1.956 41.577 5.69l.61.27a67.017 67.017 0 014.16 2.056c9.763 5.22 17.424 12.882 22.645 22.644 5.243 9.804 8.016 19.535 8.016 46.348h0v645.884c0 26.813-2.773 36.544-8.016 46.348-5.221 9.762-12.882 17.423-22.644 22.644a67.017 67.017 0 01-4.16 2.056l-.611.27c-8.585 3.734-19.054 5.69-41.577 5.69h0H79.757c-22.523 0-32.992-1.956-41.577-5.69l-.61-.27a67.017 67.017 0 01-4.16-2.056c-9.763-5.22-17.424-12.882-22.645-22.644-5.243-9.804-8.016-19.535-8.016-46.348h0V77.558c0-26.813 2.773-36.544 8.016-46.348 5.221-9.762 12.882-17.423 22.644-22.644C43.115 3.376 52.75.606 78.953.55h0z"/><use fill="#000" xlink:href="#g"/><path fill="#3D4C53" opacity=".8" d="M2.2 712.978h5.498v4.401H2.2z"/><path fill="#202D34" filter="url(#h)" d="M0 712.978h1.1v4.401H0z" transform="translate(2.2)"/><path fill="#3D4C53" opacity=".8" d="M81.38 801v-5.501h4.398V801z"/><path fill="#202D34" filter="url(#i)" transform="rotate(-90 82.48 799.35)" d="M80.83 798.25h1.1v4.4h-1.1z"/><path fill="#47555E" opacity=".8" d="M2.2 80.32h5.498v4.401H2.2zM389.301 80.32h5.5v4.401h-5.5z"/><path fill="#414B52" filter="url(#j)" d="M391.501 80.32h1.1v4.401h-1.1z" transform="translate(2.2)"/><path fill="#414B52" filter="url(#k)" d="M0 80.32h1.1v4.401H0z" transform="translate(2.2)"/><path fill="#47555E" opacity=".8" d="M311.222 5.501V0h4.398v5.501z"/><path fill="#414B52" filter="url(#l)" transform="rotate(-90 312.321 -.55)" d="M310.671-1.65h1.1v4.4h-1.1z"/><path fill="#3D4C53" opacity=".8" d="M394.801 712.978h-5.499v4.401h5.499z"/><path fill="#202D34" filter="url(#m)" transform="matrix(-1 0 0 1 786.302 0)" d="M391.501 712.978h1.1v4.401h-1.1z"/><g><g transform="matrix(-1 0 0 1 791.8 126.532)"><use fill="#91ADBE" xlink:href="#n"/><use fill="#000" filter="url(#o)" xlink:href="#n"/></g><g transform="translate(0 126.532)"><use fill="#91ADBE" xlink:href="#p"/><use fill="#000" filter="url(#q)" xlink:href="#p"/></g><g transform="translate(0 126.532)"><use fill="#91ADBE" xlink:href="#r"/><use fill="#000" filter="url(#s)" xlink:href="#r"/></g><g transform="translate(0 126.532)"><use fill="#91ADBE" xlink:href="#t"/><use fill="#000" filter="url(#u)" xlink:href="#t"/></g></g></g><g transform="translate(193.895 18.705)"><mask id="w" fill="#fff"><use xlink:href="#v"/></mask><use fill="#FFF" xlink:href="#v"/><g mask="url(#w)"><path d="M359.855 45.758v671.148c0 25.88-20.967 46.857-46.835 46.857H43.188c-25.868 0-46.837-20.978-46.837-46.857V45.758C-3.649 19.88 17.321-1.1 43.188-1.1H313.02c25.868 0 46.835 20.98 46.835 46.858" fill="#FDFDFE"/><path d="M277.48 70.43h-.99a5.751 5.751 0 01-5.74 5.743 5.749 5.749 0 01-5.74-5.744 5.75 5.75 0 015.74-5.743 5.751 5.751 0 015.74 5.743h1.98a7.723 7.723 0 00-7.72-7.724 7.722 7.722 0 00-7.72 7.724 7.722 7.722 0 007.72 7.724 7.723 7.723 0 007.72-7.724h-.99" fill="#091E4A"/><path d="M274.883 75.81l3.619 3.619a.987.987 0 001.4 0 .991.991 0 000-1.4l-3.62-3.619a.989.989 0 10-1.399 1.4M313.986 64.325v8.926a.743.743 0 001.485 0v-8.926a.743.743 0 00-1.485 0" fill="#091E4A"/><path d="M316.45 74.974h.743a2.467 2.467 0 00-2.465-2.465 2.467 2.467 0 00-2.464 2.465 2.465 2.465 0 004.929 0h-1.485a.98.98 0 01-1.96 0c.003-.54.44-.98.98-.98s.978.438.98.98h.743" fill="#091E4A"/><path d="M313.986 76.696V78.1a.743.743 0 001.485 0v-1.404a.743.743 0 00-1.485 0M321.574 78.1v-8.924a.742.742 0 10-1.485 0V78.1a.743.743 0 001.485 0" fill="#091E4A"/><path d="M322.555 67.45h-.742a.984.984 0 01-.982.983.982.982 0 01-.978-.982.979.979 0 011.96 0h1.483a2.464 2.464 0 10-4.927 0c0 1.362 1.1 2.465 2.462 2.467a2.467 2.467 0 002.465-2.467h-.74" fill="#091E4A"/><path d="M321.574 65.73v-1.405a.743.743 0 00-1.485 0v1.405a.743.743 0 001.485 0M326.192 64.325v8.926a.743.743 0 001.484 0v-8.926a.743.743 0 00-1.484 0" fill="#091E4A"/><path d="M328.658 74.974h.74a2.464 2.464 0 10-4.928-.003 2.464 2.464 0 004.928.003h-1.482a.982.982 0 01-.982.979.983.983 0 01-.978-.979.983.983 0 01.978-.98c.542 0 .98.44.982.98h.742" fill="#091E4A"/><path d="M326.192 76.696V78.1a.743.743 0 001.484 0v-1.404a.743.743 0 00-1.484 0M33.178 75.464l-4.248-4.252 4.248-4.25a.99.99 0 00-1.4-1.4l-4.948 4.95a.991.991 0 000 1.4l4.948 4.952a.99.99 0 001.4-1.4" fill="#091E4A"/><path d="M27.528 72.202h17.693a.99.99 0 100-1.98H27.528a.99.99 0 000 1.98" fill="#091E4A"/><path d="M31.625 147.159v-12.066h3.959v-2.275h-10.76v2.275h3.938v12.066h2.863zm10.74.142c1.096 0 2.08-.234 2.954-.7a5.14 5.14 0 002.06-2.002c.501-.866.752-1.889.752-3.067 0-1.178-.25-2.204-.751-3.077a5.053 5.053 0 00-2.061-2c-.873-.461-1.858-.692-2.954-.692s-2.081.23-2.954.691a5.053 5.053 0 00-2.06 2c-.502.874-.752 1.9-.752 3.078s.25 2.2.751 3.067a5.14 5.14 0 002.06 2.001c.874.467 1.859.701 2.955.701zm0-2.478a2.745 2.745 0 01-2.03-.843c-.555-.562-.833-1.378-.833-2.448s.278-1.885.833-2.447a2.745 2.745 0 012.03-.843c.798 0 1.475.28 2.03.843.555.562.833 1.377.833 2.447s-.278 1.886-.833 2.448a2.745 2.745 0 01-2.03.843zm12.202 2.478c.947 0 1.756-.227 2.426-.68a3.841 3.841 0 001.451-1.818v2.356h2.843v-15.031h-2.843v6.114a3.784 3.784 0 00-1.451-1.808c-.67-.447-1.479-.67-2.426-.67-.948 0-1.8.23-2.558.69-.758.46-1.35 1.127-1.777 2-.426.874-.64 1.9-.64 3.078s.214 2.204.64 3.078c.426.873 1.019 1.54 1.777 2 .757.46 1.61.691 2.558.691zm.893-2.519c-.893 0-1.61-.287-2.152-.863-.542-.576-.812-1.371-.812-2.387 0-1.015.27-1.814.812-2.397.541-.582 1.259-.873 2.152-.873.866 0 1.58.294 2.142.884.562.589.842 1.384.842 2.386 0 .989-.28 1.778-.842 2.367-.562.589-1.276.883-2.142.883zm12.831 2.519c.947 0 1.76-.227 2.436-.68a3.704 3.704 0 001.442-1.818v2.356h2.842v-11.253H72.17v2.336a3.65 3.65 0 00-1.442-1.808c-.676-.447-1.489-.67-2.436-.67-.947 0-1.8.23-2.558.69-.758.46-1.35 1.127-1.777 2-.426.874-.64 1.9-.64 3.078s.214 2.204.64 3.078c.427.873 1.019 1.54 1.777 2 .758.46 1.61.691 2.558.691zm.893-2.519c-.893 0-1.61-.287-2.152-.863-.541-.576-.812-1.371-.812-2.387 0-1.015.27-1.814.812-2.397.542-.582 1.259-.873 2.152-.873.867 0 1.58.294 2.142.884.562.589.843 1.384.843 2.386 0 .989-.281 1.778-.843 2.367-.561.589-1.275.883-2.142.883zm12.527 7.74l6.882-16.616h-3.146l-2.843 7.637-3.065-7.637H76.35l4.73 10.928-2.537 5.687h3.167z" fill="#091E4A" fill-rule="nonzero"/><path d="M25.835 124.815l.653-1.806h3.433l.654 1.806h1.085l-2.88-7.667h-1.14l-2.89 7.667h1.085zm3.799-2.592h-2.858l1.429-3.945 1.429 3.945zm5.238 2.692c.524 0 .983-.131 1.378-.393.395-.262.67-.641.825-1.136v1.43h1.008v-6.083h-1.008v3.235c0 .687-.166 1.21-.498 1.568-.332.358-.775.537-1.329.537-.531 0-.952-.164-1.262-.493-.31-.329-.465-.796-.465-1.402v-3.445h-1.008v3.545c0 .85.218 1.501.653 1.956.436.454 1.004.681 1.706.681zm9.601-4.837c-.17-.4-.43-.726-.78-.98-.41-.295-.91-.443-1.501-.443-.54 0-1.02.126-1.44.377-.42.251-.751.613-.991 1.086-.24.472-.36 1.026-.36 1.662 0 .635.12 1.187.36 1.656.24.469.57.83.991 1.08.42.251.9.377 1.44.377.59 0 1.09-.148 1.5-.443.41-.296.696-.69.858-1.186v1.651c0 .628-.179 1.117-.537 1.468-.358.351-.81.526-1.356.526-.517 0-.94-.116-1.268-.349a1.727 1.727 0 01-.67-.958h-.997c.14.672.469 1.206.986 1.601.516.395 1.185.593 2.004.593.569 0 1.067-.122 1.495-.366.428-.244.76-.583.997-1.02.236-.435.354-.934.354-1.495v-6.182H44.55v1.55l-.077-.205zm-1.993 3.929c-.62 0-1.117-.198-1.49-.593-.373-.395-.56-.94-.56-1.634 0-.695.187-1.24.56-1.635.373-.395.87-.592 1.49-.592a2.1 2.1 0 011.068.271c.314.181.56.441.737.781.177.34.265.731.265 1.175 0 .443-.088.832-.265 1.168a1.928 1.928 0 01-.737.782c-.314.184-.67.277-1.068.277zm4.274 2.249c.384 0 .672-.117.864-.35.192-.232.288-.54.288-.924 0-.281-.052-.584-.155-.909h-1.03v1.03h.565v.1c0 .214-.043.371-.128.471-.085.1-.22.15-.404.15v.432zm6.656-1.44v-7.812h-2.237v.942h1.174v6.87h1.063zm4.152.077c.805 0 1.422-.203 1.85-.61.428-.406.642-.93.642-1.573 0-.546-.16-.975-.482-1.285-.32-.31-.766-.54-1.334-.687v-.066c.546-.067.962-.266 1.246-.599.284-.332.426-.742.426-1.23 0-.391-.092-.742-.277-1.052a1.89 1.89 0 00-.82-.731c-.36-.178-.793-.266-1.295-.266-.797 0-1.427.208-1.888.626-.461.417-.718.995-.77 1.734h.986c.052-.495.229-.87.532-1.125.302-.255.675-.382 1.118-.382.443 0 .79.118 1.041.354.251.237.377.554.377.953 0 .909-.68 1.363-2.038 1.363h-.266v.842h.266c.701 0 1.242.128 1.622.382.38.255.57.626.57 1.114 0 .406-.132.737-.398.992-.266.254-.646.382-1.14.382-.525 0-.94-.144-1.247-.432-.306-.288-.492-.676-.559-1.164h-.997c.09.805.383 1.417.88 1.834.5.417 1.15.626 1.955.626zm11.739-.122v-.83h-3.964a11.071 11.071 0 001.766-1.325 8.07 8.07 0 001.428-1.695c.38-.61.57-1.21.57-1.8 0-.717-.213-1.271-.642-1.662-.428-.392-1.007-.588-1.738-.588-.768 0-1.396.235-1.883.704-.487.469-.757 1.14-.808 2.01h.996c.03-.575.178-1.028.443-1.356.266-.33.657-.494 1.174-.494.502 0 .866.135 1.091.405.225.27.338.626.338 1.07 0 .716-.377 1.49-1.13 2.32-.753.831-1.757 1.668-3.012 2.51v.731h5.371zm3.843.078c1.019 0 1.737-.351 2.154-1.053.417-.702.625-1.68.625-2.936 0-1.241-.208-2.212-.625-2.914-.417-.702-1.135-1.053-2.154-1.053-1.02 0-1.735.35-2.149 1.047-.413.698-.62 1.672-.62 2.92 0 1.256.207 2.234.62 2.936.414.702 1.13 1.053 2.149 1.053zm0-.953c-.48 0-.85-.13-1.108-.388-.258-.259-.433-.604-.526-1.036-.092-.432-.138-.97-.138-1.612 0-.635.046-1.167.138-1.596.093-.428.268-.77.526-1.024.259-.255.628-.383 1.108-.383.487 0 .86.128 1.118.383.259.254.434.596.526 1.024.093.429.139.96.139 1.596 0 .643-.046 1.18-.139 1.612-.092.432-.267.777-.526 1.036-.258.259-.631.388-1.118.388zm9.236.875v-.83h-3.965a11.071 11.071 0 001.766-1.325 8.07 8.07 0 001.429-1.695c.38-.61.57-1.21.57-1.8 0-.717-.214-1.271-.642-1.662-.428-.392-1.008-.588-1.739-.588-.767 0-1.395.235-1.882.704-.488.469-.757 1.14-.809 2.01h.997c.03-.575.177-1.028.443-1.356.266-.33.657-.494 1.174-.494.502 0 .865.135 1.09.405.226.27.338.626.338 1.07 0 .716-.376 1.49-1.13 2.32-.752.831-1.756 1.668-3.011 2.51v.731h5.37zm3.842.078c1.02 0 1.737-.351 2.154-1.053.417-.702.626-1.68.626-2.936 0-1.241-.209-2.212-.626-2.914-.417-.702-1.135-1.053-2.154-1.053s-1.735.35-2.148 1.047c-.414.698-.62 1.672-.62 2.92 0 1.256.206 2.234.62 2.936.413.702 1.13 1.053 2.148 1.053zm0-.953c-.48 0-.849-.13-1.107-.388-.259-.259-.434-.604-.526-1.036-.092-.432-.139-.97-.139-1.612 0-.635.047-1.167.139-1.596.092-.428.267-.77.526-1.024.258-.255.627-.383 1.107-.383.488 0 .86.128 1.119.383.258.254.434.596.526 1.024.092.429.138.96.138 1.596 0 .643-.046 1.18-.138 1.612-.092.432-.268.777-.526 1.036-.259.259-.631.388-1.119.388z" fill="#5C6B8A" fill-rule="nonzero"/><path d="M27.8 202.526v-6.382l2.659 6.382h.697l2.647-6.404v6.404h.775v-7.645h-.908l-2.857 6.681-2.88-6.68h-.918v7.644h.786zm12.016.089c.724 0 1.373-.17 1.95-.51a3.6 3.6 0 001.356-1.424c.328-.61.493-1.298.493-2.066 0-.768-.165-1.455-.493-2.06a3.61 3.61 0 00-1.357-1.42c-.576-.339-1.225-.509-1.949-.509-.723 0-1.373.17-1.949.51a3.61 3.61 0 00-1.356 1.418c-.329.606-.493 1.293-.493 2.06 0 .77.164 1.458.493 2.067a3.6 3.6 0 001.356 1.424c.576.34 1.226.51 1.95.51zm0-.732c-.568 0-1.08-.133-1.534-.398a2.814 2.814 0 01-1.074-1.142c-.262-.495-.393-1.07-.393-1.728 0-.657.131-1.234.393-1.729.262-.494.62-.875 1.074-1.14a2.978 2.978 0 011.534-.4c.569 0 1.08.133 1.534.4.454.265.812.646 1.074 1.14.262.495.393 1.072.393 1.729s-.13 1.233-.393 1.728c-.262.495-.62.876-1.074 1.142a2.978 2.978 0 01-1.534.398zm6.002.643V196l4.275 6.526h.786v-7.8h-.786v6.537l-4.275-6.537h-.786v7.8h.786z" fill="#C7CEDE" fill-rule="nonzero"/><path d="M36.362 221.685v-7.822H33.55v1.462h1.174v6.36h1.64zm4.22 0c1.055 0 1.816-.355 2.28-1.064.466-.709.698-1.68.698-2.914 0-1.226-.232-2.193-.697-2.902-.465-.71-1.226-1.064-2.282-1.064-1.993 0-2.99 1.322-2.99 3.966 0 2.652.997 3.978 2.99 3.978zm0-1.474c-.576 0-.962-.216-1.158-.648-.195-.432-.293-1.05-.293-1.856 0-.797.098-1.412.293-1.844.196-.432.582-.648 1.157-.648.569 0 .95.216 1.147.648.195.432.293 1.047.293 1.844 0 .806-.098 1.424-.293 1.856-.196.432-.578.648-1.147.648z" fill="#091E4A" fill-rule="nonzero"/><path d="M79.466 202.526v-7.18h2.226v-.631h-5.216v.631h2.215v7.18h.775zm6.035.078c.857 0 1.54-.263 2.049-.787.51-.524.764-1.315.764-2.371v-4.731h-.775v4.73c0 .836-.18 1.449-.537 1.84-.358.392-.855.587-1.49.587s-1.135-.195-1.5-.587c-.366-.391-.548-1.004-.548-1.84v-4.73h-.776v4.73c0 1.057.255 1.848.764 2.372.51.524 1.193.787 2.05.787zm8.616-.078v-.643h-3.378v-2.98h3.045v-.61H90.74v-2.947h3.378v-.631h-4.164v7.811h4.164z" fill="#C7CEDE" fill-rule="nonzero"/><path d="M84.537 221.685v-7.822h-2.813v1.462h1.174v6.36h1.639zm3.654 0v-7.822h-2.813v1.462h1.174v6.36h1.64z" fill="#091E4A" fill-rule="nonzero"/><path d="M123.545 202.526l1.96-6.692 1.95 6.692h.93l2.015-7.811h-.852l-1.64 6.858-1.97-6.858h-.875l-1.972 6.847-1.628-6.847h-.863l2.015 7.811h.93zm12.237 0v-.643h-3.377v-2.98h3.045v-.61h-3.045v-2.947h3.377v-.631h-4.164v7.811h4.164zm3.71 0c.87 0 1.615-.157 2.231-.47a3.2 3.2 0 001.401-1.353c.318-.587.476-1.283.476-2.088 0-1.219-.356-2.174-1.068-2.864-.713-.69-1.726-1.036-3.04-1.036h-2.359v7.811h2.359zm-.056-.698h-1.517v-6.426h1.517c1.1 0 1.938.282 2.514.847.576.565.864 1.354.864 2.366s-.288 1.8-.864 2.365c-.576.566-1.414.848-2.514.848z" fill="#C7CEDE" fill-rule="nonzero"/><path d="M129.966 221.685v-7.822h-2.813v1.462h1.174v6.36h1.64zm6.623-.066v-1.275h-3.422a9.609 9.609 0 001.561-1.19 6.679 6.679 0 001.224-1.519c.32-.55.481-1.098.481-1.645 0-.694-.215-1.25-.647-1.667-.432-.418-1.05-.626-1.855-.626-.79 0-1.444.238-1.96.714-.517.477-.798 1.177-.842 2.1h1.517c.044-.997.432-1.496 1.163-1.496.354 0 .615.1.78.3.167.199.25.472.25.82 0 1.144-1.252 2.584-3.754 4.32v1.164h5.504z" fill="#091E4A" fill-rule="nonzero"/><path d="M171.636 202.526v-6.991h2.204v-.82h-5.416v.82h2.204v6.991h1.008zm4.208 0v-3.612h3.964v3.612h1.02v-7.811h-1.02v3.38h-3.964v-3.38h-1.008v7.811h1.008zm9.446.078c.886 0 1.593-.268 2.12-.804.528-.535.792-1.335.792-2.398v-4.687h-1.007v4.687c0 .76-.166 1.325-.499 1.695-.332.37-.793.554-1.384.554-.598 0-1.067-.183-1.406-.549-.34-.365-.51-.932-.51-1.7v-4.687h-1.008v4.687c0 1.063.264 1.863.792 2.398.528.536 1.231.804 2.11.804zM176.664 221.685v-7.833h-3.168v1.772h1.174v6.061h1.994zm4.108.078c.554 0 1.028-.098 1.423-.294.395-.196.696-.47.903-.82.206-.35.31-.751.31-1.202 0-.938-.506-1.57-1.517-1.895v-.055c.39-.081.718-.277.98-.587.262-.31.393-.72.393-1.23 0-.414-.102-.785-.305-1.114a2.07 2.07 0 00-.891-.775c-.392-.189-.86-.283-1.407-.283-.863 0-1.535.222-2.015.665-.48.443-.738 1.078-.775 1.906h1.849c.022-.303.11-.545.266-.726.155-.181.365-.271.631-.271.244 0 .437.072.581.216.144.144.216.349.216.615 0 .613-.417.912-1.251.897h-.343v1.54h.354c.93 0 1.395.321 1.395.964 0 .259-.079.469-.238.632-.158.162-.374.243-.648.243-.34 0-.598-.1-.775-.299-.177-.2-.273-.473-.288-.82h-1.849c.044.909.33 1.585.858 2.028.528.443 1.242.665 2.143.665z" fill="#0084FF" fill-rule="nonzero"/><path d="M219.79 202.526v-3.59h2.99v-.61h-2.99v-2.98h3.456v-.631h-4.242v7.811h.787zm5.494 0v-3.257h1.262l2.137 3.257h.886l-2.203-3.28c.693-.073 1.223-.302 1.589-.686.365-.385.548-.902.548-1.552 0-.701-.216-1.259-.648-1.673-.432-.413-1.087-.62-1.966-.62h-2.392v7.811h.787zm1.55-3.845h-1.55v-3.29h1.55c1.255 0 1.883.554 1.883 1.662 0 1.086-.628 1.628-1.883 1.628zm4.751 3.845v-7.811h-.786v7.811h.786z" fill="#C7CEDE" fill-rule="nonzero"/><path d="M222.692 221.685v-7.822h-2.813v1.462h1.174v6.36h1.639zm6.556 0v-1.573h1.019v-1.352h-1.02v-4.986h-1.671l-3.743 5.041v1.297h3.842v1.573h1.573zm-1.45-2.925h-2.37l2.37-3.158v3.158z" fill="#091E4A" fill-rule="nonzero"/><path d="M265.646 202.604c.517 0 .949-.098 1.296-.294.347-.196.604-.45.77-.764.166-.314.249-.649.249-1.003 0-.488-.107-.88-.321-1.175a2.066 2.066 0 00-.781-.664 9.13 9.13 0 00-1.202-.455 10.86 10.86 0 01-1.013-.376 1.694 1.694 0 01-.626-.477c-.17-.207-.254-.476-.254-.809 0-.42.136-.75.41-.986.273-.236.638-.354 1.096-.354.494 0 .884.129 1.168.387.284.259.46.554.526.887h.83a2.128 2.128 0 00-.769-1.352c-.432-.362-1.017-.543-1.755-.543-.724 0-1.292.185-1.706.554-.413.37-.62.85-.62 1.44 0 .466.104.839.31 1.12.207.28.46.493.759.637.299.144.692.293 1.18.448.442.14.791.27 1.046.388s.469.286.642.504c.174.218.26.5.26.848 0 .406-.13.742-.393 1.008-.262.266-.64.4-1.135.4-.376 0-.698-.077-.963-.228a1.655 1.655 0 01-.61-.57 1.74 1.74 0 01-.254-.688h-.82c.037.4.172.76.405 1.08.232.322.544.575.935.76.392.184.838.277 1.34.277zm3.976-.078l.709-1.906h3.554l.698 1.906h.842l-2.88-7.634h-.874l-2.88 7.634h.831zm4.03-2.526h-3.1l1.562-4.21 1.539 4.21zm5.206 2.526v-7.18h2.226v-.631h-5.216v.631h2.215v7.18h.775z" fill="#C7CEDE" fill-rule="nonzero"/><path d="M269.39 221.685v-7.822h-2.812v1.462h1.174v6.36h1.639zm4.497.033c.87 0 1.54-.25 2.01-.753.468-.502.703-1.17.703-2.006 0-.472-.087-.903-.26-1.29a2.122 2.122 0 00-.798-.931c-.358-.233-.806-.35-1.345-.35-.362 0-.692.062-.991.184a1.789 1.789 0 00-.704.482v-1.972h3.71v-1.374h-5.127v4.62h1.517c.096-.214.247-.386.454-.515.207-.13.458-.194.753-.194.406 0 .72.114.941.343.222.23.333.55.333.964 0 .436-.106.785-.316 1.047-.21.262-.53.394-.958.394-.354 0-.639-.098-.853-.294-.214-.196-.35-.46-.41-.792h-1.517c.023.487.152.914.388 1.28.236.365.565.65.986.853.42.203.915.304 1.484.304z" fill="#091E4A" fill-rule="nonzero"/><path d="M311.28 202.604c.516 0 .948-.098 1.295-.294.347-.196.604-.45.77-.764.166-.314.249-.649.249-1.003 0-.488-.107-.88-.321-1.175a2.066 2.066 0 00-.78-.664 9.13 9.13 0 00-1.202-.455 10.86 10.86 0 01-1.014-.376 1.694 1.694 0 01-.625-.477c-.17-.207-.255-.476-.255-.809 0-.42.136-.75.41-.986.273-.236.638-.354 1.096-.354.495 0 .884.129 1.168.387.285.259.46.554.526.887h.83a2.128 2.128 0 00-.769-1.352c-.432-.362-1.017-.543-1.755-.543-.724 0-1.292.185-1.705.554-.414.37-.62.85-.62 1.44 0 .466.103.839.31 1.12.206.28.459.493.758.637.299.144.692.293 1.18.448.442.14.791.27 1.046.388s.469.286.642.504c.174.218.26.5.26.848 0 .406-.13.742-.393 1.008-.262.266-.64.4-1.135.4-.376 0-.697-.077-.963-.228a1.655 1.655 0 01-.61-.57 1.74 1.74 0 01-.254-.688h-.82c.037.4.172.76.405 1.08.232.322.544.575.936.76.39.184.837.277 1.34.277zm6.5 0c.856 0 1.54-.263 2.049-.787.509-.524.764-1.315.764-2.371v-4.731h-.776v4.73c0 .836-.179 1.449-.537 1.84-.358.392-.854.587-1.49.587-.634 0-1.134-.195-1.5-.587-.365-.391-.548-1.004-.548-1.84v-4.73h-.775v4.73c0 1.057.255 1.848.764 2.372.51.524 1.192.787 2.049.787zm5.238-.078V196l4.274 6.526h.787v-7.8h-.787v6.537l-4.274-6.537h-.787v7.8h.787z" fill="#C7CEDE" fill-rule="nonzero"/><path d="M316.016 221.685v-7.822h-2.813v1.462h1.174v6.36h1.639zm4.352.078c.583 0 1.08-.115 1.49-.344a2.25 2.25 0 00.924-.942c.207-.399.31-.856.31-1.374 0-.834-.216-1.479-.648-1.933-.431-.454-1.024-.681-1.777-.681-.458 0-.858.105-1.202.315-.343.211-.574.493-.692.848-.03-.968.074-1.679.31-2.133.237-.454.613-.681 1.13-.681.664 0 1.056.384 1.174 1.152h1.462c-.06-.702-.3-1.278-.72-1.728-.421-.45-1.026-.676-1.816-.676-1.034 0-1.781.343-2.243 1.03-.461.687-.692 1.743-.692 3.169 0 1.24.214 2.214.642 2.92.428.705 1.211 1.058 2.348 1.058zm-.044-1.341c-.465 0-.818-.135-1.058-.404-.24-.27-.36-.612-.36-1.025 0-.414.137-.732.41-.953.273-.222.602-.333.986-.333.406 0 .729.119.969.355s.36.576.36 1.02c0 .42-.119.749-.355.985-.236.237-.554.355-.952.355z" fill="#091E4A" fill-rule="nonzero"/><path d="M180.277 238.866a1.47 1.47 0 10-2.942-.001 1.47 1.47 0 002.942.001" fill="#0084FF"/><path d="M294.595 401.946a1.565 1.565 0 11-3.132 0 1.566 1.566 0 113.132 0M303.473 401.946a1.568 1.568 0 11-3.135-.002 1.568 1.568 0 013.135.002M312.347 401.946a1.566 1.566 0 11-3.132.002 1.566 1.566 0 013.132-.002" fill="#FFF"/><path d="M315.87 699.072H74.194c-7.894 0-14.292-6.401-14.292-14.297v-51.212c0-7.896 6.398-14.3 14.292-14.3h241.678c7.894 0 14.292 6.404 14.292 14.3v51.212c0 7.896-6.398 14.297-14.292 14.297" fill="#F1F4FD"/><path d="M81.768 641.312c.651 0 1.201-.119 1.65-.356.448-.238.783-.553 1.003-.944.22-.392.33-.817.33-1.274 0-.59-.13-1.066-.39-1.426a2.618 2.618 0 00-.95-.826 9.678 9.678 0 00-1.445-.56 13.86 13.86 0 01-1.102-.417 1.835 1.835 0 01-.666-.488c-.176-.207-.264-.469-.264-.786 0-.405.127-.715.383-.93.255-.216.593-.324 1.016-.324.466 0 .833.125 1.102.376.268.251.433.553.494.905h1.624c-.08-.74-.398-1.338-.957-1.796-.559-.458-1.313-.687-2.263-.687-.599 0-1.126.104-1.584.31-.457.208-.81.5-1.056.879-.246.378-.37.818-.37 1.32 0 .572.128 1.034.384 1.386.255.352.565.62.93.806.365.185.838.37 1.419.554.475.159.849.3 1.121.423.273.123.502.292.686.508.185.216.278.49.278.825 0 .388-.126.705-.377.951-.25.246-.604.37-1.062.37-.51 0-.917-.146-1.22-.436a1.653 1.653 0 01-.522-1.043h-1.61c.044.528.216.995.515 1.4.299.404.7.719 1.2.943.502.225 1.07.337 1.703.337zm8.142-.092v-1.307h-.725c-.387 0-.658-.08-.812-.238-.154-.158-.23-.445-.23-.858v-3.592h1.754v-1.28h-1.755v-1.81h-1.517v1.81h-1.043v1.28h1.043v3.565c0 .872.2 1.495.6 1.869.4.374.988.56 1.762.56h.923zm4.329.092c.66 0 1.223-.163 1.69-.488.465-.326.795-.757.989-1.294v1.69h1.504v-7.275h-1.504v1.69a2.629 2.629 0 00-.99-1.294c-.466-.326-1.03-.489-1.689-.489-.633 0-1.199.15-1.696.45-.497.299-.886.73-1.168 1.293-.281.563-.422 1.224-.422 1.98 0 .766.14 1.431.422 1.994.282.564.671.995 1.168 1.294.497.3 1.063.45 1.696.45zm.462-1.333c-.669 0-1.203-.214-1.604-.64-.4-.428-.6-1.015-.6-1.763 0-.749.2-1.336.6-1.763.4-.427.935-.64 1.604-.64.422 0 .8.099 1.135.297a2.1 2.1 0 01.792.845c.193.365.29.785.29 1.26 0 .485-.097.907-.29 1.268a2.11 2.11 0 01-.792.839 2.184 2.184 0 01-1.135.297zm8.762 1.333c.942 0 1.72-.25 2.336-.752.616-.502.999-1.18 1.148-2.034h-1.596c-.088.458-.302.819-.64 1.083-.34.264-.764.396-1.274.396-.58 0-1.064-.207-1.452-.62-.387-.414-.58-1.017-.58-1.81 0-.792.193-1.392.58-1.802.388-.409.871-.614 1.452-.614.51 0 .935.13 1.274.39.338.26.552.618.64 1.076h1.596c-.15-.854-.532-1.53-1.148-2.027-.616-.497-1.394-.746-2.336-.746-.703 0-1.326.15-1.867.45-.54.299-.965.73-1.273 1.293-.308.563-.462 1.224-.462 1.98 0 .766.154 1.431.462 1.994.308.564.732.995 1.273 1.294.541.3 1.164.45 1.867.45zm6.44-.092v-3.235l2.613 3.235h1.861l-3.246-3.658 3.167-3.617h-1.808l-2.587 3.103v-5.599H108.4v9.77h1.504zm6.955 0v-3.869c0-.74.18-1.3.541-1.683.36-.383.84-.575 1.439-.575.58 0 1.038.179 1.372.535.334.357.502.86.502 1.512v4.08h1.504v-4.239c0-1.012-.255-1.79-.765-2.336-.51-.546-1.188-.82-2.033-.82-.598 0-1.126.15-1.583.45a2.44 2.44 0 00-.977 1.267v-4.093h-1.504v9.77h1.504zm10.439.092c.703 0 1.337-.15 1.9-.449.563-.299 1.003-.73 1.32-1.294.316-.563.475-1.228.475-1.993 0-.757-.159-1.418-.475-1.98a3.221 3.221 0 00-1.32-1.295c-.563-.299-1.197-.449-1.9-.449-.704 0-1.335.15-1.894.45-.559.299-.999.73-1.32 1.293-.32.563-.481 1.224-.481 1.98 0 .758.16 1.42.481 1.988a3.264 3.264 0 001.32 1.3c.559.3 1.19.45 1.894.45zm0-1.32c-.387 0-.744-.088-1.07-.264a1.953 1.953 0 01-.784-.806c-.198-.36-.297-.81-.297-1.346 0-.528.099-.975.297-1.34.197-.366.46-.636.785-.812a2.211 2.211 0 011.069-.265c.387 0 .743.088 1.069.265.325.176.587.446.785.812.198.365.297.812.297 1.34 0 .537-.1.985-.297 1.346-.198.361-.46.63-.785.806a2.211 2.211 0 01-1.07.264zm6.65 1.228v-9.77h-1.504v9.77h1.505zm4.738.092c.66 0 1.223-.163 1.69-.488.466-.326.791-.757.976-1.294v1.69h1.518v-9.77h-1.518v4.185a2.555 2.555 0 00-.976-1.294c-.467-.326-1.03-.489-1.69-.489-.633 0-1.198.15-1.695.45-.497.299-.887.73-1.168 1.293-.282.563-.423 1.224-.423 1.98 0 .766.141 1.431.423 1.994.281.564.67.995 1.168 1.294.497.3 1.062.45 1.695.45zm.462-1.333c-.668 0-1.203-.214-1.603-.64-.4-.428-.6-1.015-.6-1.763 0-.749.2-1.336.6-1.763.4-.427.935-.64 1.603-.64.423 0 .8.099 1.135.297a2.1 2.1 0 01.792.845c.194.365.29.785.29 1.26 0 .485-.096.907-.29 1.268a2.11 2.11 0 01-.792.839 2.184 2.184 0 01-1.135.297zm8.763 1.333c.607 0 1.157-.112 1.65-.337a3.138 3.138 0 001.2-.93c.308-.396.51-.85.607-1.36h-1.61a1.58 1.58 0 01-.64 1.016c-.347.256-.772.383-1.273.383-.572 0-1.051-.18-1.439-.541-.387-.361-.593-.915-.62-1.664h5.596c.035-.185.052-.4.052-.647 0-.633-.143-1.208-.428-1.723a3.076 3.076 0 00-1.228-1.214c-.532-.295-1.154-.443-1.867-.443-.704 0-1.326.15-1.867.45-.542.299-.966.73-1.274 1.293-.308.563-.462 1.224-.462 1.98 0 .766.154 1.431.462 1.994.308.564.732.995 1.274 1.294.54.3 1.163.45 1.867.45zm2.006-4.12h-4.13c.034-.703.25-1.236.646-1.597.396-.36.888-.541 1.478-.541.37 0 .71.077 1.023.23.312.155.558.393.739.714.18.321.261.72.244 1.195zm4.473 4.028v-3.684c0-.74.2-1.27.6-1.591.401-.321.931-.482 1.591-.482h.449v-1.637c-.598 0-1.126.139-1.584.416-.457.277-.81.653-1.056 1.129v-1.426h-1.504v7.275h1.504zm8.354 0v-9.322h-1.504v9.322h1.504zm3.326 0v-3.869c0-.74.18-1.3.54-1.683.361-.383.84-.575 1.439-.575.58 0 1.038.179 1.372.535.335.357.502.86.502 1.512v4.08h1.504v-4.239c0-1.012-.255-1.79-.765-2.336-.51-.546-1.188-.82-2.032-.82-.599 0-1.126.15-1.584.45a2.44 2.44 0 00-.976 1.267v-1.597h-1.505v7.275h1.505zm10.768 0v-1.307h-.726c-.387 0-.657-.08-.811-.238-.154-.158-.231-.445-.231-.858v-3.592h1.755v-1.28h-1.755v-1.81h-1.518v1.81h-1.043v1.28h1.043v3.565c0 .872.2 1.495.6 1.869.4.374.988.56 1.762.56h.924zm4.645.092c.607 0 1.157-.112 1.65-.337a3.138 3.138 0 001.2-.93c.309-.396.511-.85.608-1.36h-1.61a1.58 1.58 0 01-.64 1.016c-.348.256-.772.383-1.274.383-.572 0-1.051-.18-1.438-.541-.387-.361-.594-.915-.62-1.664h5.595c.035-.185.053-.4.053-.647 0-.633-.143-1.208-.43-1.723a3.076 3.076 0 00-1.226-1.214c-.533-.295-1.155-.443-1.868-.443-.704 0-1.326.15-1.867.45-.541.299-.966.73-1.274 1.293-.308.563-.461 1.224-.461 1.98 0 .766.153 1.431.461 1.994.308.564.733.995 1.274 1.294.541.3 1.163.45 1.867.45zm2.006-4.12h-4.13c.035-.703.25-1.236.646-1.597.396-.36.889-.541 1.478-.541.37 0 .71.077 1.023.23.312.155.559.393.739.714.18.321.262.72.244 1.195zm4.474 4.028v-3.684c0-.74.2-1.27.6-1.591.4-.321.93-.482 1.59-.482h.45v-1.637c-.6 0-1.127.139-1.584.416-.458.277-.81.653-1.056 1.129v-1.426h-1.505v7.275h1.505zm7.64 0l2.772-7.275h-1.61l-2.059 5.717-2.085-5.717h-1.61l2.772 7.275h1.82zm4.633-8.53c.29 0 .525-.079.706-.237a.787.787 0 00.27-.62.827.827 0 00-.27-.635c-.18-.167-.416-.25-.706-.25s-.524.083-.7.25a.837.837 0 00-.264.634c0 .255.088.462.264.62.176.16.41.238.7.238zm.752 8.53v-7.275h-1.505v7.275h1.505zm5.054.092c.607 0 1.157-.112 1.65-.337a3.138 3.138 0 001.2-.93c.309-.396.511-.85.608-1.36h-1.61a1.58 1.58 0 01-.64 1.016c-.348.256-.772.383-1.274.383-.572 0-1.051-.18-1.438-.541-.387-.361-.594-.915-.62-1.664h5.595c.035-.185.053-.4.053-.647 0-.633-.143-1.208-.43-1.723a3.076 3.076 0 00-1.226-1.214c-.533-.295-1.155-.443-1.868-.443-.704 0-1.326.15-1.867.45-.541.299-.966.73-1.274 1.293-.307.563-.461 1.224-.461 1.98 0 .766.154 1.431.461 1.994.308.564.733.995 1.274 1.294.541.3 1.163.45 1.867.45zm2.006-4.12h-4.13c.035-.703.25-1.236.646-1.597.396-.36.889-.541 1.478-.541.37 0 .71.077 1.023.23.312.155.559.393.739.714.18.321.262.72.244 1.195zm5.86 4.028l1.82-5.625 1.795 5.625h1.663l2.02-7.275h-1.426l-1.386 5.888-1.847-5.888h-1.584l-1.82 5.888-1.387-5.888h-1.517l2.019 7.275h1.65zM288.767 641.46v-8.39h-2.685v1.272h1.26v7.118h1.425zm7.102-.06v-1.104h-3.979c.618-.38 1.216-.834 1.794-1.361a7.718 7.718 0 001.43-1.729c.377-.626.565-1.244.565-1.854 0-.76-.232-1.356-.695-1.788-.463-.432-1.102-.648-1.918-.648-.831 0-1.514.254-2.049.76-.534.508-.83 1.24-.885 2.2h1.319c.031-.58.17-1.025.415-1.338.246-.313.61-.469 1.093-.469.467 0 .806.127 1.016.38.21.254.314.594.314 1.022 0 .721-.386 1.503-1.158 2.347-.772.844-1.799 1.705-3.082 2.585v.998h5.82zm5.297-4.978v-1.497h-1.532v1.497h1.532zm0 5.038v-1.497h-1.532v1.497h1.532zm6.9.083c.872 0 1.54-.22 2.008-.66.467-.439.7-1.011.7-1.716 0-.579-.164-1.032-.492-1.36-.329-.33-.782-.577-1.36-.744v-.059c.538-.071.956-.283 1.253-.636.297-.352.445-.794.445-1.325 0-.42-.1-.8-.303-1.14-.201-.341-.5-.608-.896-.803-.396-.194-.871-.29-1.426-.29-.878 0-1.567.227-2.066.683-.499.455-.776 1.095-.832 1.919h1.33c.056-.476.222-.838.5-1.088.277-.25.621-.374 1.033-.374.412 0 .736.111.974.333.237.222.356.527.356.915 0 .895-.645 1.335-1.936 1.319h-.32v1.117h.32c.681 0 1.202.123 1.562.368.36.246.54.602.54 1.07 0 .388-.124.705-.374.95-.25.246-.608.369-1.075.369-.498 0-.894-.14-1.187-.422-.293-.281-.464-.66-.511-1.135h-1.342c.079.895.392 1.57.938 2.026.546.456 1.267.683 2.162.683zm7.127-.06c1.108 0 1.9-.38 2.375-1.14.475-.76.713-1.806.713-3.137 0-1.323-.238-2.363-.713-3.12-.475-.756-1.267-1.134-2.375-1.134-1.109 0-1.9.376-2.375 1.129-.476.752-.713 1.794-.713 3.125 0 1.339.237 2.387.713 3.143.475.757 1.266 1.135 2.375 1.135zm0-1.282c-.689 0-1.152-.258-1.39-.773-.237-.515-.356-1.255-.356-2.222 0-.958.119-1.691.356-2.198.238-.507.701-.76 1.39-.76.68 0 1.14.255 1.378.766.237.51.356 1.241.356 2.192 0 .967-.119 1.707-.356 2.222-.238.515-.697.773-1.378.773z" fill="#5C6B8A" fill-rule="nonzero"/><path d="M296.822 684.331a1.568 1.568 0 11-3.135-.002 1.568 1.568 0 013.135.002M305.696 684.331a1.567 1.567 0 11-3.134-.001 1.567 1.567 0 013.134.001M314.57 684.331a1.566 1.566 0 11-3.132.002 1.566 1.566 0 013.132-.002" fill="#5C6B8A"/><path d="M42.515 272.394h-.99a7.194 7.194 0 01-7.181 7.185 7.195 7.195 0 01-7.182-7.185 7.195 7.195 0 017.182-7.185 7.193 7.193 0 017.182 7.185h1.979c-.002-5.062-4.101-9.166-9.161-9.166s-9.161 4.104-9.161 9.166a9.165 9.165 0 009.16 9.166c5.06 0 9.16-4.104 9.162-9.166h-.99" fill="#C7CEDE"/><path d="M39.421 272.394a5.078 5.078 0 11-10.156 0 5.08 5.08 0 1110.156 0M33.354 284.85v136.487a.99.99 0 001.98 0V284.85a.99.99 0 10-1.98 0M39.257 436.775a4.914 4.914 0 11-9.828 0 4.914 4.914 0 119.828 0M33.354 447.296v71.535a.99.99 0 001.98 0v-71.535a.99.99 0 00-1.98 0M39.257 530.476a4.914 4.914 0 11-9.828 0 4.914 4.914 0 119.828 0M33.354 540.999v71.533a.99.99 0 001.98 0V541a.99.99 0 00-1.98 0M39.257 624.18a4.914 4.914 0 11-9.828 0 4.914 4.914 0 119.828 0M33.354 634.7v62.138a.99.99 0 101.98 0V634.7a.99.99 0 00-1.98 0" fill="#C7CEDE"/><path d="M315.87 511.668H74.194c-7.894 0-14.292-6.401-14.292-14.298V446.16c0-7.896 6.398-14.3 14.292-14.3h241.678c7.894 0 14.292 6.404 14.292 14.3v51.211c0 7.897-6.398 14.298-14.292 14.298" fill="#F1F4FD"/><path d="M296.822 496.927a1.568 1.568 0 11-3.135-.002 1.568 1.568 0 013.135.002M305.696 496.927a1.567 1.567 0 11-3.134-.001 1.567 1.567 0 013.134 0M314.57 496.927a1.566 1.566 0 11-3.132.001 1.566 1.566 0 013.132-.001" fill="#5C6B8A"/><path d="M315.87 605.37H74.194c-7.894 0-14.292-6.402-14.292-14.298v-51.21c0-7.898 6.398-14.301 14.292-14.301h241.678c7.894 0 14.292 6.403 14.292 14.3v51.21c0 7.897-6.398 14.3-14.292 14.3" fill="#F1F4FD"/><path d="M290.966 547.937v-8.39h-2.684v1.272h1.259v7.118h1.425zm3.646 0v-8.39h-2.684v1.272h1.259v7.118h1.425zm5.666-5.039v-1.497h-1.533v1.497h1.533zm0 5.039v-1.497h-1.533v1.497h1.533zm6.971.024c1.109 0 1.9-.38 2.376-1.141.475-.76.712-1.806.712-3.137 0-1.323-.237-2.363-.712-3.12-.475-.756-1.267-1.134-2.376-1.134-1.108 0-1.9.376-2.375 1.128-.475.753-.713 1.795-.713 3.126 0 1.339.238 2.386.713 3.143.475.756 1.267 1.135 2.375 1.135zm0-1.284c-.688 0-1.152-.257-1.39-.772-.237-.515-.356-1.256-.356-2.222 0-.959.12-1.692.357-2.199.237-.507.7-.76 1.39-.76.68 0 1.14.255 1.377.766.238.511.356 1.242.356 2.193 0 .966-.118 1.707-.356 2.222-.237.515-.697.772-1.378.772zm7.4 1.284c1.108 0 1.9-.38 2.375-1.141.475-.76.713-1.806.713-3.137 0-1.323-.238-2.363-.713-3.12-.475-.756-1.267-1.134-2.375-1.134-1.109 0-1.9.376-2.376 1.128-.475.753-.712 1.795-.712 3.126 0 1.339.237 2.386.712 3.143.475.756 1.267 1.135 2.376 1.135zm0-1.284c-.69 0-1.152-.257-1.39-.772-.237-.515-.356-1.256-.356-2.222 0-.959.119-1.692.356-2.199.238-.507.7-.76 1.39-.76.68 0 1.14.255 1.378.766.237.511.356 1.242.356 2.193 0 .966-.119 1.707-.356 2.222-.238.515-.697.772-1.378.772zM287.667 458.815v-8.39h-2.684v1.272h1.259v7.118h1.425zm4.513.023c1.109 0 1.9-.38 2.376-1.14.475-.76.712-1.807.712-3.138 0-1.323-.237-2.362-.712-3.119-.476-.756-1.267-1.135-2.376-1.135-1.108 0-1.9.377-2.375 1.13-.475.752-.713 1.794-.713 3.124 0 1.34.238 2.387.713 3.144.475.756 1.267 1.134 2.375 1.134zm0-1.283c-.689 0-1.152-.257-1.39-.772-.237-.515-.356-1.256-.356-2.223 0-.958.119-1.69.357-2.198.237-.507.7-.76 1.39-.76.68 0 1.14.255 1.377.766.237.511.356 1.242.356 2.192 0 .967-.119 1.708-.356 2.223-.238.515-.697.772-1.378.772zm8.552-3.779v-1.497h-1.533v1.497h1.533zm0 5.039v-1.498h-1.533v1.498h1.533zm6.971.023c1.109 0 1.9-.38 2.376-1.14.475-.76.712-1.807.712-3.138 0-1.323-.237-2.362-.712-3.119-.475-.756-1.267-1.135-2.376-1.135-1.108 0-1.9.377-2.375 1.13-.475.752-.713 1.794-.713 3.124 0 1.34.238 2.387.713 3.144.475.756 1.267 1.134 2.375 1.134zm0-1.283c-.688 0-1.152-.257-1.39-.772-.237-.515-.356-1.256-.356-2.223 0-.958.12-1.69.357-2.198.237-.507.7-.76 1.39-.76.68 0 1.14.255 1.377.766.238.511.356 1.242.356 2.192 0 .967-.118 1.708-.356 2.223-.237.515-.697.772-1.378.772zm7.4 1.283c1.108 0 1.9-.38 2.375-1.14.475-.76.713-1.807.713-3.138 0-1.323-.238-2.362-.713-3.119-.475-.756-1.267-1.135-2.375-1.135-1.109 0-1.9.377-2.376 1.13-.475.752-.712 1.794-.712 3.124 0 1.34.237 2.387.712 3.144.475.756 1.267 1.134 2.376 1.134zm0-1.283c-.69 0-1.152-.257-1.39-.772-.237-.515-.356-1.256-.356-2.223 0-.958.119-1.69.356-2.198.238-.507.7-.76 1.39-.76.68 0 1.14.255 1.377.766.238.511.357 1.242.357 2.192 0 .967-.119 1.708-.357 2.223-.237.515-.696.772-1.377.772z" fill="#5C6B8A" fill-rule="nonzero"/><path d="M296.822 590.63a1.567 1.567 0 11-3.133-.001 1.567 1.567 0 013.133 0M305.696 590.63a1.568 1.568 0 11-3.132-.002 1.568 1.568 0 013.132.002M314.57 590.63a1.567 1.567 0 11-1.566-1.569c.865 0 1.566.703 1.566 1.569" fill="#5C6B8A"/><path d="M79.884 566.641v-3.168h1.089l2.023 3.168h1.133l-2.112-3.201c.668-.096 1.177-.336 1.529-.721.352-.385.528-.893.528-1.524 0-.697-.22-1.256-.66-1.678-.44-.422-1.1-.632-1.98-.632h-2.55v7.756h1zm1.463-3.894h-1.463v-2.993h1.463c1.136 0 1.704.499 1.704 1.496 0 .998-.568 1.497-1.704 1.497zm6.62 3.972c.506 0 .96-.092 1.363-.276a2.54 2.54 0 00.985-.77c.253-.33.416-.704.49-1.122h-1.068c-.073.41-.273.739-.599.985-.326.245-.731.368-1.215.368-.535 0-.988-.172-1.358-.517-.37-.345-.567-.862-.589-1.551h4.828c.03-.154.044-.338.044-.55a2.82 2.82 0 00-.346-1.387 2.575 2.575 0 00-1.001-1.001c-.436-.25-.948-.374-1.534-.374-.58 0-1.093.125-1.54.374-.447.25-.797.609-1.05 1.078-.253.47-.38 1.02-.38 1.65 0 .632.127 1.18.38 1.646.253.465.603.823 1.05 1.072.447.25.96.375 1.54.375zm1.87-3.367h-3.86c.029-.66.23-1.161.604-1.502.374-.341.836-.512 1.386-.512.344 0 .663.074.957.22.293.147.524.37.692.671.17.301.242.675.22 1.123zm7.06-1.415a2.27 2.27 0 00-.776-.973c-.407-.293-.903-.44-1.49-.44-.535 0-1.012.125-1.43.374a2.58 2.58 0 00-.984 1.078c-.238.47-.357 1.02-.357 1.65 0 .632.119 1.18.357 1.646.239.465.567.823.985 1.072.417.25.894.375 1.43.375.586 0 1.082-.147 1.49-.44.406-.294.69-.686.852-1.178v1.64c0 .623-.178 1.109-.534 1.457-.355.349-.804.523-1.347.523-.513 0-.933-.116-1.26-.347a1.715 1.715 0 01-.664-.951h-.99c.14.667.465 1.197.979 1.59.513.392 1.176.588 1.99.588.565 0 1.06-.12 1.485-.363.425-.242.755-.58.99-1.012.234-.433.351-.928.351-1.485v-6.14h-1v1.54l-.077-.204zm-1.98 3.901c-.616 0-1.109-.196-1.479-.588-.37-.393-.555-.934-.555-1.623 0-.69.185-1.23.555-1.623.37-.393.863-.589 1.48-.589.395 0 .749.09 1.06.27.312.18.556.438.732.775.176.338.264.727.264 1.167 0 .44-.088.827-.264 1.16-.176.334-.42.593-.732.776a2.053 2.053 0 01-1.06.275zm9.392-3.901a2.27 2.27 0 00-.776-.973c-.406-.293-.903-.44-1.49-.44-.535 0-1.011.125-1.43.374a2.58 2.58 0 00-.984 1.078c-.238.47-.357 1.02-.357 1.65 0 .632.12 1.18.357 1.646.239.465.567.823.985 1.072.418.25.894.375 1.43.375.586 0 1.083-.147 1.49-.44.406-.294.69-.686.852-1.178v1.54h1v-6.04h-1v1.54l-.077-.204zm-1.98 3.901c-.616 0-1.109-.196-1.479-.588-.37-.393-.555-.934-.555-1.623 0-.69.185-1.23.555-1.623.37-.393.863-.589 1.48-.589.395 0 .749.09 1.06.27.312.18.556.438.732.775.176.338.264.727.264 1.167 0 .44-.088.827-.264 1.16-.176.334-.42.593-.732.776a2.053 2.053 0 01-1.06.275zm5.653.803v-3.18c0-.667.18-1.145.539-1.435.359-.29.82-.435 1.385-.435h.308v-1.09c-.528 0-.982.116-1.363.348-.382.23-.671.555-.87.973v-1.221h-1v6.04h1zm7.962-4.704a2.27 2.27 0 00-.776-.973c-.406-.293-.903-.44-1.49-.44-.535 0-1.011.125-1.43.374a2.58 2.58 0 00-.984 1.078c-.238.47-.357 1.02-.357 1.65 0 .632.12 1.18.357 1.646.239.465.567.823.985 1.072.418.25.894.375 1.43.375.586 0 1.083-.147 1.49-.44.406-.294.69-.686.852-1.178v1.54h1V558.5h-1v3.641l-.077-.203zm-1.98 3.901c-.616 0-1.109-.196-1.479-.588-.37-.393-.555-.934-.555-1.623 0-.69.185-1.23.555-1.623.37-.393.863-.589 1.48-.589.395 0 .749.09 1.06.27.312.18.556.438.732.775.176.338.264.727.264 1.167 0 .44-.088.827-.264 1.16-.176.334-.42.593-.731.776a2.053 2.053 0 01-1.062.275zm5.158-6.392c.205 0 .37-.057.495-.17a.575.575 0 00.187-.446.575.575 0 00-.187-.446.706.706 0 00-.495-.17.706.706 0 00-.495.17.575.575 0 00-.187.446c0 .183.062.331.187.445.125.114.29.17.495.17zm.495 7.195v-6.04h-1v6.04h1zm2.606 0v-3.201c0-.682.165-1.201.495-1.557.33-.356.77-.534 1.32-.534.528 0 .946.162 1.253.484.308.323.462.785.462 1.387v3.421h1.001v-3.51c0-.85-.216-1.501-.649-1.952-.432-.451-1-.677-1.704-.677-.514 0-.966.132-1.358.396-.393.264-.666.642-.82 1.133v-1.43h-1v6.04h1zm10.81-4.704a2.27 2.27 0 00-.775-.973c-.407-.293-.903-.44-1.49-.44-.535 0-1.012.125-1.43.374a2.58 2.58 0 00-.984 1.078c-.238.47-.357 1.02-.357 1.65 0 .632.119 1.18.357 1.646.238.465.567.823.984 1.072.418.25.895.375 1.43.375.587 0 1.083-.147 1.49-.44.407-.294.691-.686.852-1.178v1.64c0 .623-.177 1.109-.533 1.457-.355.349-.805.523-1.347.523-.513 0-.933-.116-1.26-.347a1.715 1.715 0 01-.665-.951h-.99c.14.667.466 1.197.98 1.59.513.392 1.176.588 1.99.588.564 0 1.06-.12 1.485-.363.425-.242.755-.58.99-1.012.234-.433.351-.928.351-1.485v-6.14h-1v1.54l-.077-.204zm-1.979 3.901c-.616 0-1.109-.196-1.48-.588-.37-.393-.554-.934-.554-1.623 0-.69.185-1.23.555-1.623.37-.393.863-.589 1.479-.589.396 0 .75.09 1.061.27.312.18.556.438.732.775.175.338.263.727.263 1.167 0 .44-.088.827-.263 1.16-.176.334-.42.593-.732.776a2.053 2.053 0 01-1.061.275zm10.128.803l1.793-6.337 1.793 6.337h1.22l1.969-7.756h-1.1l-1.496 6.568-1.836-6.568h-1.11l-1.837 6.59-1.485-6.59h-1.11l1.979 7.756h1.22zm10.624.078c.506 0 .96-.092 1.363-.276a2.54 2.54 0 00.985-.77c.253-.33.416-.704.489-1.122h-1.067c-.073.41-.273.739-.599.985-.326.245-.731.368-1.215.368-.535 0-.988-.172-1.358-.517-.37-.345-.567-.862-.589-1.551h4.828c.03-.154.044-.338.044-.55a2.82 2.82 0 00-.346-1.387 2.575 2.575 0 00-1.001-1.001c-.436-.25-.948-.374-1.534-.374-.58 0-1.093.125-1.54.374-.447.25-.797.609-1.05 1.078-.253.47-.38 1.02-.38 1.65 0 .632.127 1.18.38 1.646.253.465.603.823 1.05 1.072.447.25.96.375 1.54.375zm1.87-3.367h-3.86c.029-.66.23-1.161.604-1.502.374-.341.836-.512 1.386-.512.344 0 .663.074.957.22.293.147.524.37.692.671.169.301.242.675.22 1.123zm3.32-4.853h-1v8.142h1v-1.54c.154.484.435.875.842 1.172.407.297.903.446 1.49.446.535 0 1.012-.125 1.43-.375.417-.249.745-.607.984-1.072.238-.466.357-1.014.357-1.645s-.119-1.181-.357-1.65a2.58 2.58 0 00-.984-1.079 2.736 2.736 0 00-1.43-.374c-.587 0-1.083.148-1.49.446a2.264 2.264 0 00-.842 1.171v-3.642zm2.046 7.34c-.389 0-.74-.092-1.056-.276a1.903 1.903 0 01-.737-.775 2.453 2.453 0 01-.264-1.161c0-.44.088-.83.264-1.167a1.86 1.86 0 01.737-.775c.315-.18.667-.27 1.056-.27.623 0 1.12.196 1.49.589.37.392.555.933.555 1.623s-.185 1.23-.555 1.623c-.37.392-.867.588-1.49.588zm6.675.88c.616 0 1.11-.155 1.48-.463.37-.308.555-.707.555-1.199 0-.396-.097-.711-.292-.946a1.697 1.697 0 00-.704-.512 8.154 8.154 0 00-1.083-.313 8.436 8.436 0 01-.83-.226 1.305 1.305 0 01-.506-.308.722.722 0 01-.203-.534c0-.293.1-.526.302-.698.202-.173.482-.259.841-.259.426 0 .765.116 1.018.347.253.23.401.526.445.885h.957c-.088-.601-.34-1.08-.754-1.435-.414-.356-.962-.534-1.644-.534-.645 0-1.154.156-1.528.468-.374.311-.561.72-.561 1.226 0 .382.093.684.28.908.187.224.415.387.682.49a8.26 8.26 0 001.072.308c.36.08.642.158.847.23.205.074.378.18.517.32.14.14.209.326.209.561a.891.891 0 01-.291.693c-.195.176-.464.264-.809.264-.462 0-.834-.113-1.116-.34a1.26 1.26 0 01-.478-.892h-.968c.08.616.348 1.097.803 1.441.454.345 1.04.518 1.76.518zm3.882-7.273c.206 0 .37-.057.495-.17a.575.575 0 00.187-.446.575.575 0 00-.187-.446.706.706 0 00-.495-.17.706.706 0 00-.495.17.575.575 0 00-.187.446c0 .183.063.331.187.445.125.114.29.17.495.17zm.495 7.195v-6.04h-1v6.04h1zm4.487 0v-.88h-.616c-.352 0-.6-.071-.742-.214-.143-.143-.215-.41-.215-.798v-3.279h1.562v-.869h-1.562v-1.507h-1.011v1.507h-.902v.87h.902v3.256c0 .69.152 1.181.456 1.474.304.294.764.44 1.38.44h.748zm3.893.078c.506 0 .96-.092 1.364-.276a2.54 2.54 0 00.984-.77c.253-.33.416-.704.49-1.122h-1.067c-.074.41-.274.739-.6.985-.326.245-.731.368-1.215.368-.535 0-.988-.172-1.358-.517-.37-.345-.566-.862-.588-1.551h4.827c.03-.154.044-.338.044-.55a2.82 2.82 0 00-.346-1.387 2.575 2.575 0 00-1-1.001c-.437-.25-.948-.374-1.535-.374-.58 0-1.092.125-1.54.374-.447.25-.797.609-1.05 1.078-.253.47-.38 1.02-.38 1.65 0 .632.127 1.18.38 1.646.253.465.603.823 1.05 1.072.448.25.96.375 1.54.375zm1.87-3.367h-3.86c.029-.66.23-1.161.604-1.502.374-.341.836-.512 1.386-.512.345 0 .664.074.957.22.293.147.524.37.693.671.168.301.242.675.22 1.123zM79.884 659.065v-6.129l4.025 6.129h1v-7.757h-1v6.14l-4.025-6.14h-1v7.757h1zm9.37.077c.579 0 1.097-.125 1.556-.375.458-.249.817-.606 1.077-1.072.26-.466.39-1.014.39-1.645s-.13-1.181-.39-1.65c-.26-.47-.62-.83-1.077-1.079a3.202 3.202 0 00-1.556-.374c-.58 0-1.098.125-1.557.374-.458.25-.819.609-1.083 1.078-.264.47-.396 1.02-.396 1.65 0 .632.132 1.18.396 1.646.264.466.625.823 1.083 1.072.459.25.977.375 1.557.375zm0-.88c-.36 0-.691-.081-.996-.243a1.82 1.82 0 01-.737-.742c-.186-.334-.28-.743-.28-1.227 0-.492.094-.904.28-1.238a1.82 1.82 0 01.737-.743c.305-.161.636-.242.996-.242.359 0 .69.08.995.242.304.162.55.41.737.743.187.334.28.746.28 1.238 0 .484-.093.893-.28 1.227a1.82 1.82 0 01-.737.742 2.091 2.091 0 01-.995.242zm7.214.803v-.88h-.616c-.352 0-.6-.072-.742-.215-.143-.143-.215-.41-.215-.798v-3.279h1.562v-.869h-1.562v-1.507h-1.012v1.507h-.901v.87h.901v3.256c0 .69.152 1.181.457 1.474.304.294.764.44 1.38.44h.748zm3.893.077c.506 0 .96-.092 1.363-.275a2.54 2.54 0 00.985-.77c.253-.33.416-.705.489-1.123h-1.067c-.073.41-.273.74-.6.985-.325.246-.73.368-1.214.368-.535 0-.988-.172-1.358-.517-.37-.345-.567-.862-.589-1.551h4.828c.03-.154.044-.338.044-.55a2.82 2.82 0 00-.346-1.387 2.575 2.575 0 00-1.001-1c-.436-.25-.948-.375-1.534-.375-.58 0-1.093.125-1.54.374-.447.25-.797.609-1.05 1.078-.253.47-.38 1.02-.38 1.65 0 .632.127 1.18.38 1.646.253.466.603.823 1.05 1.072.447.25.96.375 1.54.375zm1.87-3.367h-3.86c.029-.66.23-1.161.604-1.502.374-.341.836-.512 1.386-.512.344 0 .663.074.956.22.294.147.525.37.693.671.169.301.242.675.22 1.123zm4.63 3.367c.615 0 1.108-.154 1.478-.463.37-.308.556-.707.556-1.199 0-.396-.098-.711-.292-.946a1.697 1.697 0 00-.704-.512 8.153 8.153 0 00-1.083-.313 8.436 8.436 0 01-.83-.226 1.305 1.305 0 01-.506-.308.722.722 0 01-.204-.534c0-.293.101-.526.303-.698.202-.173.482-.259.841-.259.425 0 .765.116 1.017.347.253.23.402.526.446.886h.957c-.088-.602-.34-1.08-.754-1.436-.414-.356-.962-.534-1.644-.534-.645 0-1.155.156-1.528.468-.374.311-.561.72-.561 1.226 0 .382.093.684.28.908.187.224.414.387.682.49a8.26 8.26 0 001.072.308c.36.08.642.158.847.23.205.074.378.18.517.32.14.14.209.326.209.561a.891.891 0 01-.292.693c-.194.176-.463.264-.808.264-.462 0-.834-.113-1.116-.34a1.26 1.26 0 01-.479-.892h-.967c.08.616.348 1.097.803 1.441.454.345 1.04.518 1.76.518z" fill="#5C6B8A" fill-rule="nonzero"/><path d="M42.434 763.763c-25.866 0-46.833-20.978-46.833-46.857v-26.594c0-6.175 5-11.18 11.172-11.18H347.93c6.172 0 11.172 5.005 11.172 11.18v26.594c0 25.88-20.967 46.857-46.833 46.857H42.434z" fill="#FFF"/><path d="M44.408 702.304l-.525-.525-7.548 7.552a.742.742 0 00-.217.525v9.16c0 .194.079.386.217.524.139.139.33.218.525.218h15.094a.741.741 0 00.742-.743v-9.16a.734.734 0 00-.218-.524l-7.546-7.552a.743.743 0 00-1.049 0l.525.525-.525.525 7.328 7.334v8.11H37.602v-8.11l7.33-7.334-.524-.525-.525.525.525-.525" fill="#7966E4"/><path d="M117.897 719.015v-.742h-11.26a1.243 1.243 0 01-1.237-1.238V706.76a1.242 1.242 0 011.237-1.238h11.26a1.238 1.238 0 011.237 1.238v10.275a1.242 1.242 0 01-1.237 1.238v1.485a2.723 2.723 0 002.721-2.723V706.76a2.721 2.721 0 00-2.721-2.723h-11.26a2.723 2.723 0 00-2.722 2.723v10.275a2.726 2.726 0 002.722 2.723h11.26v-.743" fill="#C7CEDE"/><path d="M107.813 702.86v3.839a.743.743 0 001.485 0v-3.838a.743.743 0 00-1.485 0M115.236 702.86v3.839a.743.743 0 001.485 0v-3.838a.743.743 0 00-1.485 0M104.658 712.084h15.218a.743.743 0 000-1.486h-15.218a.743.743 0 000 1.486M108.639 715.383h1.154a.743.743 0 000-1.485h-1.154a.743.743 0 000 1.485M112.495 715.383h3.402a.743.743 0 000-1.485h-3.402a.743.743 0 000 1.485" fill="#C7CEDE"/><path d="M187.571 735.046h-21.444c-7.54 0-13.652-6.114-13.652-13.66v-21.455c0-7.545 6.112-13.661 13.652-13.661h21.444c7.542 0 13.655 6.116 13.655 13.661v21.455c0 7.546-6.113 13.66-13.655 13.66" fill="#0084FF"/><path d="M175.86 702.219v16.88a.99.99 0 001.98 0v-16.88a.99.99 0 00-1.98 0" fill="#FFF"/><path d="M185.285 709.67h-16.871a.99.99 0 000 1.98h16.87a.99.99 0 000-1.98" fill="#FFF"/><path d="M249.37 719.015v-.742h-11.63v-14.67h5.651l5.236 5.239v10.173h.742v-.742.742h.743v-10.48a.734.734 0 00-.218-.525l-5.67-5.674a.748.748 0 00-.524-.218h-6.703a.741.741 0 00-.742.743v16.154a.741.741 0 00.742.743h12.372a.745.745 0 00.743-.743h-.743" fill="#C7CEDE"/><path d="M243.7 708.535v.742h5.67a.744.744 0 00.524-1.267l-5.67-5.674a.742.742 0 00-1.267.525v5.674c0 .194.08.386.216.525a.75.75 0 00.527.217v-.742h.742v-3.88l3.136 3.137H243.7v.743h.742-.742M240.42 712.743h2.763a.743.743 0 000-1.485h-2.763a.743.743 0 000 1.485M240.42 716.21h5.525a.743.743 0 000-1.486h-5.525a.743.743 0 000 1.485M314.693 707.503h-.743a2.604 2.604 0 01-2.599 2.6 2.605 2.605 0 01-2.597-2.6 2.6 2.6 0 012.597-2.599 2.601 2.601 0 012.6 2.599h1.484a4.083 4.083 0 10-8.165 0 4.085 4.085 0 004.081 4.086 4.086 4.086 0 004.084-4.086h-.742M311.351 712.963v-.743a7.23 7.23 0 00-7.229 7.233c0 .196.08.388.218.527a.751.751 0 00.525.216h12.977c.194 0 .386-.08.525-.216a.75.75 0 00.217-.527 7.234 7.234 0 00-7.233-7.233v1.486a5.756 5.756 0 015.749 5.747h.742v-.743h-12.977v.743h.742a5.755 5.755 0 015.744-5.747v-.743M122.915 757.079h108.872a1.98 1.98 0 100-3.961H122.915a1.98 1.98 0 000 3.96" fill="#C7CEDE"/><path d="M314.327 421.337H75.737c-8.747 0-15.836-7.092-15.836-15.844v-125.43c0-8.75 7.089-15.844 15.836-15.844h238.59c8.745 0 15.836 7.094 15.836 15.844v125.43c0 8.752-7.091 15.844-15.836 15.844" fill="#0084FF"/><g transform="translate(59.9 264.219)"><mask id="y" fill="#fff"><use xlink:href="#x"/></mask><path d="M210.752 157.119h-20.71a62.27 62.27 0 01-1.066-11.51c0-34.204 27.717-61.935 61.905-61.935 6.77 0 13.284 1.087 19.381 3.095v21.851a41.538 41.538 0 00-19.381-4.767c-23.05 0-41.734 18.696-41.734 41.757 0 3.99.56 7.853 1.605 11.509M8.041 35.483c-2.765 0-5.457-.315-8.04-.915V22.534c2.512.9 5.22 1.388 8.04 1.388 13.206 0 23.913-10.71 23.913-23.922H43.51c0 19.597-15.88 35.483-35.469 35.483M148.352 119.72c-5.81 0-10.523-4.713-10.523-10.527 0-5.817 4.714-10.53 10.523-10.53 5.814 0 10.527 4.713 10.527 10.53 0 5.814-4.713 10.528-10.527 10.528m0-17.628a7.098 7.098 0 00-7.094 7.1 7.097 7.097 0 007.094 7.098 7.098 7.098 0 007.097-7.098c0-3.922-3.177-7.1-7.097-7.1M169.628 33.95a5.266 5.266 0 010-10.53 5.265 5.265 0 110 10.53m0-8.816a3.549 3.549 0 10.003 7.098 3.549 3.549 0 00-.003-7.098" fill="#1F8DF4" mask="url(#y)"/></g><path d="M80.047 395.275v-6.67l2.686 6.67h.98l2.673-6.693v6.693h1.1v-8.388h-1.318l-2.927 7.044-2.976-7.044h-1.319v8.388h1.101zm11.928.084c.645 0 1.191-.16 1.639-.484.447-.322.76-.754.937-1.295v1.695h1.101v-6.645h-1.1v1.695a2.523 2.523 0 00-.938-1.295c-.448-.323-.994-.485-1.64-.485-.588 0-1.112.138-1.572.412-.46.274-.82.67-1.083 1.186-.262.516-.393 1.122-.393 1.815 0 .694.131 1.298.393 1.81s.623.906 1.083 1.18c.46.274.984.411 1.573.411zm.314-.968c-.677 0-1.22-.216-1.627-.647-.407-.432-.61-1.027-.61-1.786 0-.758.203-1.353.61-1.785.407-.431.95-.647 1.627-.647.436 0 .825.099 1.168.296.342.198.61.482.804.854.194.37.29.798.29 1.282 0 .485-.096.91-.29 1.277a2.106 2.106 0 01-.804.854 2.258 2.258 0 01-1.168.302zm6.218.884v-2.99l2.54 2.99h1.38l-3.049-3.34 2.976-3.305h-1.343l-2.504 2.893v-5.205h-1.1v8.957h1.1zm7.827.084c.556 0 1.056-.1 1.5-.302a2.794 2.794 0 001.082-.847c.279-.363.458-.775.539-1.235h-1.174c-.08.452-.3.813-.659 1.083-.359.27-.804.406-1.337.406-.588 0-1.086-.19-1.494-.569-.407-.38-.623-.948-.647-1.707h5.31c.033-.169.05-.37.05-.605 0-.556-.128-1.065-.382-1.525a2.833 2.833 0 00-1.1-1.101c-.48-.274-1.043-.412-1.688-.412-.637 0-1.202.138-1.694.412-.492.274-.877.67-1.155 1.186-.278.516-.417 1.122-.417 1.815 0 .694.139 1.298.417 1.81.278.512.663.906 1.155 1.18.492.274 1.057.411 1.694.411zm2.056-3.703h-4.246c.032-.726.254-1.277.666-1.652.41-.375.919-.563 1.524-.563.379 0 .73.08 1.052.242.323.161.577.408.762.738.186.331.266.743.242 1.235zm8.262 3.703c.646 0 1.192-.16 1.64-.484.447-.322.76-.754.937-1.295v1.695h1.1v-6.645h-1.1v1.695a2.523 2.523 0 00-.937-1.295c-.448-.323-.994-.485-1.64-.485-.588 0-1.112.138-1.572.412-.46.274-.82.67-1.083 1.186-.262.516-.393 1.122-.393 1.815 0 .694.131 1.298.393 1.81s.623.906 1.083 1.18c.46.274.984.411 1.572.411zm.315-.968c-.677 0-1.22-.216-1.627-.647-.407-.432-.611-1.027-.611-1.786 0-.758.204-1.353.61-1.785.408-.431.95-.647 1.628-.647.435 0 .825.099 1.167.296.343.198.611.482.805.854.193.37.29.798.29 1.282 0 .485-.097.91-.29 1.277a2.106 2.106 0 01-.805.854 2.258 2.258 0 01-1.167.302zm9.206.884v-8.957h-1.101v8.957h1.1zm4.488.084c.645 0 1.191-.16 1.639-.484.447-.322.76-.754.937-1.295v1.695h1.101v-6.645h-1.1v1.695a2.523 2.523 0 00-.938-1.295c-.448-.323-.994-.485-1.64-.485-.588 0-1.112.138-1.572.412-.46.274-.82.67-1.083 1.186-.262.516-.393 1.122-.393 1.815 0 .694.131 1.298.393 1.81.263.512.623.906 1.083 1.18.46.274.984.411 1.573.411zm.314-.968c-.677 0-1.22-.216-1.627-.647-.407-.432-.61-1.027-.61-1.786 0-.758.203-1.353.61-1.785.407-.431.95-.647 1.627-.647.436 0 .825.099 1.168.296.342.198.61.482.804.854.194.37.29.798.29 1.282 0 .485-.096.91-.29 1.277a2.106 2.106 0 01-.804.854 2.258 2.258 0 01-1.168.302zm6.218.884v-3.522c0-.75.182-1.322.544-1.713.363-.391.847-.587 1.452-.587.58 0 1.04.178 1.38.533.338.355.507.863.507 1.525v3.764h1.101v-3.861c0-.936-.238-1.652-.714-2.148-.476-.497-1.1-.745-1.875-.745-.564 0-1.062.145-1.494.436-.431.29-.732.706-.9 1.247v-1.574h-1.102v6.645h1.101zm9.4.084c.645 0 1.191-.16 1.639-.484.447-.322.76-.754.937-1.295v1.695h1.1v-8.957h-1.1v4.007a2.523 2.523 0 00-.937-1.295c-.448-.323-.994-.485-1.64-.485-.588 0-1.113.138-1.572.412-.46.274-.82.67-1.083 1.186-.262.516-.393 1.122-.393 1.815 0 .694.131 1.298.393 1.81s.623.906 1.083 1.18c.46.274.984.411 1.572.411zm.314-.968c-.677 0-1.22-.216-1.627-.647-.407-.432-.611-1.027-.611-1.786 0-.758.204-1.353.61-1.785.408-.431.95-.647 1.628-.647.435 0 .825.099 1.167.296.343.198.611.482.805.854.193.37.29.798.29 1.282 0 .485-.097.91-.29 1.277a2.106 2.106 0 01-.805.854 2.258 2.258 0 01-1.167.302zm5.673-7.032c.226 0 .408-.062.545-.187a.632.632 0 00.205-.49.632.632 0 00-.205-.49c-.137-.126-.319-.188-.545-.188-.225 0-.407.062-.544.187a.632.632 0 00-.206.49c0 .202.069.366.206.49.137.126.319.188.544.188zm.545 7.916v-6.645h-1.101v6.645h1.1zm2.867 0v-3.522c0-.75.181-1.322.544-1.713.363-.391.847-.587 1.452-.587.58 0 1.04.178 1.379.533.339.355.508.863.508 1.525v3.764h1.1v-3.861c0-.936-.237-1.652-.713-2.148-.476-.497-1.1-.745-1.875-.745-.565 0-1.063.145-1.494.436-.431.29-.732.706-.901 1.247v-1.574h-1.101v6.645h1.1zm9.968 3.255c.62 0 1.165-.133 1.633-.399.467-.266.83-.637 1.088-1.113.259-.477.388-1.021.388-1.634v-6.754h-1.101v1.695a2.523 2.523 0 00-.938-1.295c-.447-.323-.994-.485-1.639-.485-.589 0-1.113.138-1.573.412-.46.274-.82.67-1.082 1.186-.262.516-.393 1.122-.393 1.815 0 .694.13 1.298.393 1.81.262.512.623.906 1.082 1.18.46.274.984.411 1.573.411.645 0 1.192-.16 1.64-.484.447-.322.76-.754.937-1.295v1.804c0 .685-.196 1.22-.587 1.603-.391.384-.885.575-1.482.575-.564 0-1.026-.127-1.385-.381a1.887 1.887 0 01-.732-1.047h-1.089c.154.734.513 1.317 1.077 1.749.565.432 1.294.647 2.19.647zm-.254-4.139c-.678 0-1.22-.216-1.627-.647-.408-.432-.611-1.027-.611-1.786 0-.758.203-1.353.61-1.785.408-.431.95-.647 1.628-.647.435 0 .824.099 1.167.296.343.198.61.482.804.854.194.37.29.798.29 1.282 0 .485-.096.91-.29 1.277a2.106 2.106 0 01-.804.854 2.258 2.258 0 01-1.167.302zm9.205 4.03v-4.84c.17.532.478.961.926 1.288.447.327.994.49 1.639.49.589 0 1.113-.137 1.573-.411.46-.274.82-.668 1.082-1.18.262-.512.393-1.116.393-1.81 0-.693-.13-1.299-.393-1.815a2.838 2.838 0 00-1.082-1.186c-.46-.274-.984-.412-1.573-.412-.645 0-1.192.164-1.64.49a2.49 2.49 0 00-.925 1.29v-1.695h-1.1v9.791h1.1zm2.25-4.03c-.427 0-.814-.1-1.16-.302a2.094 2.094 0 01-.811-.854c-.194-.367-.29-.792-.29-1.277 0-.484.096-.911.29-1.282.193-.372.463-.656.81-.854a2.303 2.303 0 011.161-.296c.686 0 1.232.216 1.64.647.407.432.61 1.027.61 1.785 0 .759-.203 1.354-.61 1.786-.408.431-.954.647-1.64.647zm7.525.968c.645 0 1.191-.16 1.639-.484.447-.322.76-.754.937-1.295v1.695h1.101v-6.645h-1.1v1.695a2.523 2.523 0 00-.938-1.295c-.448-.323-.994-.485-1.64-.485-.588 0-1.112.138-1.572.412-.46.274-.82.67-1.083 1.186-.262.516-.393 1.122-.393 1.815 0 .694.131 1.298.393 1.81.263.512.623.906 1.083 1.18.46.274.984.411 1.573.411zm.314-.968c-.677 0-1.22-.216-1.627-.647-.407-.432-.61-1.027-.61-1.786 0-.758.203-1.353.61-1.785.407-.431.95-.647 1.627-.647.436 0 .825.099 1.168.296.342.198.61.482.804.854.194.37.29.798.29 1.282 0 .485-.096.91-.29 1.277a2.106 2.106 0 01-.804.854 2.258 2.258 0 01-1.168.302zm8.408 4.14c.62 0 1.165-.134 1.633-.4.467-.266.83-.637 1.088-1.113.259-.477.388-1.021.388-1.634v-6.754h-1.101v1.695a2.523 2.523 0 00-.938-1.295c-.447-.323-.994-.485-1.639-.485-.589 0-1.113.138-1.573.412-.46.274-.82.67-1.082 1.186-.262.516-.393 1.122-.393 1.815 0 .694.13 1.298.393 1.81.262.512.623.906 1.082 1.18.46.274.984.411 1.573.411.645 0 1.192-.16 1.64-.484.447-.322.76-.754.937-1.295v1.804c0 .685-.196 1.22-.587 1.603-.391.384-.885.575-1.482.575-.564 0-1.026-.127-1.385-.381a1.887 1.887 0 01-.732-1.047h-1.089c.154.734.513 1.317 1.077 1.749.565.432 1.294.647 2.19.647zm-.254-4.14c-.678 0-1.22-.216-1.627-.647-.408-.432-.611-1.027-.611-1.786 0-.758.203-1.353.61-1.785.408-.431.95-.647 1.628-.647.435 0 .824.099 1.167.296.343.198.61.482.804.854.194.37.29.798.29 1.282 0 .485-.096.91-.29 1.277a2.106 2.106 0 01-.804.854 2.258 2.258 0 01-1.167.302zm8.056.968c.557 0 1.057-.1 1.5-.302a2.794 2.794 0 001.083-.847c.278-.363.458-.775.538-1.235h-1.173c-.08.452-.3.813-.66 1.083-.358.27-.804.406-1.336.406-.589 0-1.087-.19-1.494-.569-.407-.38-.623-.948-.647-1.707h5.31c.032-.169.049-.37.049-.605 0-.556-.127-1.065-.381-1.525a2.833 2.833 0 00-1.101-1.101c-.48-.274-1.043-.412-1.688-.412-.637 0-1.201.138-1.693.412-.492.274-.877.67-1.156 1.186-.278.516-.417 1.122-.417 1.815 0 .694.14 1.298.417 1.81.279.512.664.906 1.156 1.18.492.274 1.056.411 1.693.411zm2.057-3.703h-4.246c.032-.726.254-1.277.665-1.652.411-.375.92-.563 1.524-.563.38 0 .73.08 1.053.242.322.161.576.408.762.738.185.331.266.743.242 1.235zm8.262 3.703c.645 0 1.191-.16 1.639-.484.448-.322.76-.754.938-1.295v1.695h1.1v-6.645h-1.1v1.695a2.523 2.523 0 00-.938-1.295c-.448-.323-.994-.485-1.64-.485-.588 0-1.112.138-1.572.412-.46.274-.82.67-1.082 1.186-.263.516-.394 1.122-.394 1.815 0 .694.131 1.298.394 1.81.262.512.623.906 1.082 1.18.46.274.984.411 1.573.411zm.314-.968c-.677 0-1.22-.216-1.627-.647-.407-.432-.61-1.027-.61-1.786 0-.758.203-1.353.61-1.785.408-.431.95-.647 1.627-.647.436 0 .825.099 1.168.296.342.198.61.482.804.854.194.37.29.798.29 1.282 0 .485-.096.91-.29 1.277a2.106 2.106 0 01-.804.854 2.258 2.258 0 01-1.168.302zm6.218 4.03v-4.84c.17.532.478.961.926 1.288.447.327.994.49 1.639.49.588 0 1.113-.137 1.572-.411.46-.274.82-.668 1.083-1.18.262-.512.393-1.116.393-1.81 0-.693-.13-1.299-.393-1.815a2.838 2.838 0 00-1.083-1.186c-.46-.274-.984-.412-1.572-.412-.645 0-1.192.164-1.64.49a2.49 2.49 0 00-.925 1.29v-1.695h-1.1v9.791h1.1zm2.25-4.03c-.427 0-.814-.1-1.161-.302a2.094 2.094 0 01-.81-.854c-.194-.367-.29-.792-.29-1.277 0-.484.096-.911.29-1.282.193-.372.463-.656.81-.854a2.303 2.303 0 011.161-.296c.686 0 1.232.216 1.64.647.407.432.61 1.027.61 1.785 0 .759-.203 1.354-.61 1.786-.408.431-.954.647-1.64.647zm5.904 4.03v-4.84c.169.532.477.961.925 1.288.448.327.994.49 1.64.49.588 0 1.112-.137 1.572-.411.46-.274.82-.668 1.082-1.18.262-.512.394-1.116.394-1.81 0-.693-.132-1.299-.394-1.815a2.838 2.838 0 00-1.082-1.186c-.46-.274-.984-.412-1.573-.412-.645 0-1.191.164-1.639.49a2.49 2.49 0 00-.925 1.29v-1.695h-1.101v9.791h1.1zm2.25-4.03c-.428 0-.815-.1-1.162-.302a2.094 2.094 0 01-.81-.854c-.194-.367-.29-.792-.29-1.277 0-.484.096-.911.29-1.282.193-.372.464-.656.81-.854a2.303 2.303 0 011.162-.296c.685 0 1.231.216 1.639.647.407.432.61 1.027.61 1.785 0 .759-.203 1.354-.61 1.786-.408.431-.954.647-1.64.647zM80.047 318.255v-3.522c0-.742.175-1.305.526-1.688.351-.383.82-.575 1.41-.575.548 0 .983.174 1.306.52.323.348.484.848.484 1.501v3.764h1.1v-3.522c0-.742.176-1.305.527-1.688.35-.383.817-.575 1.397-.575.557 0 .994.174 1.313.52.318.348.478.848.478 1.501v3.764h1.1v-3.86c0-.936-.236-1.652-.707-2.149-.472-.496-1.095-.744-1.87-.744-.548 0-1.04.147-1.475.442-.436.294-.746.712-.932 1.252-.177-.556-.473-.978-.889-1.264-.415-.287-.905-.43-1.47-.43-.54 0-1.018.14-1.433.418-.415.278-.704.68-.865 1.204v-1.513h-1.1v6.644h1.1zm15.459.085c.637 0 1.208-.137 1.712-.411.504-.275.899-.668 1.185-1.18.286-.513.43-1.116.43-1.81s-.144-1.299-.43-1.815a2.944 2.944 0 00-1.185-1.186c-.504-.275-1.075-.412-1.712-.412s-1.208.137-1.712.412c-.504.274-.901.67-1.191 1.186-.29.516-.436 1.121-.436 1.815s.145 1.297.436 1.81c.29.512.687.905 1.191 1.18.504.274 1.075.411 1.712.411zm0-.968a2.3 2.3 0 01-1.095-.266 2.001 2.001 0 01-.81-.817c-.206-.367-.309-.817-.309-1.35 0-.54.103-.994.309-1.361.205-.367.475-.64.81-.817a2.3 2.3 0 011.095-.267 2.3 2.3 0 011.095.267c.334.177.605.45.81.817.206.367.309.82.309 1.361 0 .533-.103.983-.309 1.35-.205.367-.476.64-.81.817a2.3 2.3 0 01-1.095.266zm9.531.968c.589 0 1.113-.137 1.573-.411.46-.275.82-.668 1.082-1.18.263-.513.394-1.116.394-1.81s-.131-1.299-.394-1.815a2.838 2.838 0 00-1.082-1.186c-.46-.275-.984-.412-1.573-.412-.645 0-1.191.164-1.639.49a2.49 2.49 0 00-.925 1.29v-4.007h-1.101v8.956h1.1v-1.694c.17.533.478.962.926 1.289.448.327.994.49 1.64.49zm-.314-.968c-.428 0-.815-.1-1.162-.303a2.094 2.094 0 01-.81-.853c-.194-.367-.29-.793-.29-1.277 0-.484.096-.912.29-1.283.193-.37.464-.655.81-.853a2.303 2.303 0 011.162-.296c.685 0 1.232.215 1.639.647.407.432.61 1.027.61 1.785 0 .759-.203 1.354-.61 1.785-.407.432-.954.648-1.64.648zm6.458-7.032c.226 0 .408-.062.545-.188a.632.632 0 00.205-.49.632.632 0 00-.205-.49c-.137-.125-.319-.187-.545-.187-.225 0-.407.062-.544.187a.632.632 0 00-.206.49c0 .202.069.365.206.49.137.126.319.188.544.188zm.545 7.915v-6.644h-1.101v6.644h1.1zm3.966 0V309.3h-1.1v8.956h1.1zm5.806.085c.556 0 1.056-.1 1.5-.302a2.794 2.794 0 001.083-.848c.278-.363.457-.774.538-1.234h-1.174c-.08.452-.3.813-.659 1.083-.359.27-.804.406-1.337.406-.588 0-1.086-.19-1.494-.57-.407-.378-.623-.947-.647-1.706h5.31c.033-.17.05-.371.05-.605 0-.557-.128-1.065-.382-1.525a2.833 2.833 0 00-1.1-1.101c-.48-.275-1.043-.412-1.688-.412-.637 0-1.202.137-1.694.412-.492.274-.877.67-1.155 1.186-.278.516-.417 1.121-.417 1.815s.139 1.297.417 1.81c.278.512.663.905 1.155 1.18.492.274 1.057.411 1.694.411zm2.056-3.703h-4.246c.033-.727.254-1.277.666-1.652.41-.376.919-.563 1.524-.563.379 0 .73.08 1.052.242.323.161.577.407.762.738.186.331.267.742.242 1.235z" fill="#FFF" fill-rule="nonzero"/></g><path d="M270.937 300.406c1.437 0 2.463-.493 3.079-1.479.616-.986.924-2.341.924-4.067 0-1.715-.308-3.062-.924-4.043-.616-.98-1.642-1.471-3.08-1.471-1.436 0-2.463.488-3.079 1.463-.616.976-.923 2.326-.923 4.051 0 1.736.307 3.094.923 4.075.616.98 1.643 1.47 3.08 1.47zm0-1.664c-.893 0-1.494-.334-1.802-1.001-.308-.668-.462-1.628-.462-2.88 0-1.243.154-2.193.462-2.85.308-.658.909-.986 1.802-.986.882 0 1.478.331 1.786.993.307.663.461 1.61.461 2.842 0 1.253-.154 2.213-.461 2.88-.308.668-.904 1.002-1.786 1.002zm9.437 1.756c1.396 0 2.394-.503 2.995-1.51.6-1.006.9-2.47.9-4.39 0-1.694-.294-3.021-.885-3.981-.59-.96-1.67-1.44-3.24-1.44-.811 0-1.494.161-2.048.485-.555.323-.97.762-1.247 1.317-.277.554-.416 1.18-.416 1.879 0 1.15.303 2.046.908 2.688.606.642 1.442.963 2.51.963.688 0 1.29-.167 1.809-.501.518-.334.86-.778 1.024-1.332l.015.523c0 1.335-.192 2.313-.577 2.935-.385.621-.968.932-1.748.932-.554 0-.993-.16-1.316-.478-.323-.318-.526-.77-.608-1.355h-1.663c.092.955.444 1.738 1.055 2.349.61.61 1.455.916 2.532.916zm-.123-5.36c-.667 0-1.193-.195-1.578-.586-.385-.39-.577-.95-.577-1.679 0-.688.192-1.222.577-1.602.385-.38.896-.57 1.532-.57.77 0 1.347.224 1.732.67.385.447.577 1.004.577 1.672 0 .452-.107.834-.323 1.147-.215.314-.495.55-.839.709-.344.16-.71.239-1.1.239zm11.1-1.294v-1.941h-1.985v1.94h1.986zm0 6.531v-1.94h-1.985v1.94h1.986zm8.946.108c1.129 0 1.996-.285 2.602-.855.605-.57.908-1.312.908-2.226 0-.75-.213-1.338-.639-1.764-.426-.426-1.013-.747-1.763-.962v-.077c.698-.093 1.24-.368 1.625-.825.385-.457.577-1.029.577-1.717 0-.544-.13-1.037-.392-1.479-.262-.441-.65-.788-1.163-1.04-.513-.251-1.129-.377-1.847-.377-1.14 0-2.033.295-2.68.886-.646.59-1.005 1.42-1.077 2.487h1.724c.072-.616.288-1.086.647-1.409.36-.323.806-.485 1.34-.485.533 0 .954.144 1.262.431.308.288.462.683.462 1.186 0 1.16-.837 1.73-2.51 1.71h-.416v1.448h.416c.883 0 1.558.16 2.025.477.467.319.7.78.7 1.387 0 .503-.161.914-.485 1.232-.323.318-.787.478-1.393.478-.647 0-1.16-.183-1.54-.547-.38-.365-.6-.855-.662-1.471h-1.74c.103 1.16.509 2.036 1.217 2.626.708.59 1.642.886 2.802.886zm9.238-.077c1.437 0 2.463-.493 3.079-1.479.616-.986.924-2.341.924-4.067 0-1.715-.308-3.062-.924-4.043-.616-.98-1.642-1.471-3.08-1.471-1.436 0-2.463.488-3.079 1.463-.615.976-.923 2.326-.923 4.051 0 1.736.308 3.094.923 4.075.616.98 1.643 1.47 3.08 1.47zm0-1.664c-.893 0-1.494-.334-1.802-1.001-.308-.668-.462-1.628-.462-2.88 0-1.243.154-2.193.462-2.85.308-.658.909-.986 1.802-.986.882 0 1.478.331 1.786.993.308.663.461 1.61.461 2.842 0 1.253-.153 2.213-.461 2.88-.308.668-.904 1.002-1.786 1.002zM82.307 298.174c1.071 0 1.993-.203 2.764-.61a4.17 4.17 0 001.76-1.712c.402-.734.602-1.596.602-2.585 0-.99-.2-1.849-.602-2.579a4.138 4.138 0 00-1.76-1.698c-.771-.402-1.693-.603-2.764-.603h-3.27v9.787h3.27zm-.125-1.427h-1.566v-6.96h1.566c1.173 0 2.074.305 2.702.915.628.61.942 1.465.942 2.565 0 1.1-.314 1.955-.942 2.565-.628.61-1.529.915-2.702.915zm10.24 1.524a4.13 4.13 0 001.732-.353 3.295 3.295 0 001.26-.977c.324-.416.537-.892.638-1.428h-1.69a1.66 1.66 0 01-.672 1.067c-.365.268-.81.402-1.337.402-.6 0-1.104-.19-1.51-.568-.407-.38-.624-.961-.652-1.747h5.875a3.67 3.67 0 00.056-.68c0-.665-.15-1.268-.45-1.808a3.23 3.23 0 00-1.29-1.276c-.558-.31-1.212-.464-1.96-.464-.74 0-1.393.157-1.96.471a3.352 3.352 0 00-1.338 1.359c-.323.591-.485 1.284-.485 2.08 0 .803.162 1.501.485 2.093a3.352 3.352 0 001.337 1.358c.568.314 1.222.471 1.96.471zm2.106-4.325h-4.337c.037-.74.263-1.298.679-1.677.416-.38.933-.569 1.552-.569.388 0 .746.081 1.074.243.328.162.586.411.776.748.189.338.274.756.256 1.255zm6.166 4.325c.822 0 1.476-.198 1.96-.596.486-.397.728-.915.728-1.552 0-.518-.127-.927-.38-1.227-.255-.3-.56-.52-.915-.659-.356-.138-.82-.272-1.393-.402a10.137 10.137 0 01-1.004-.277 1.644 1.644 0 01-.59-.347.763.763 0 01-.235-.582c0-.323.109-.58.326-.77.217-.189.524-.284.921-.284.48 0 .866.128 1.157.382.291.254.469.589.534 1.005h1.496c-.12-.767-.45-1.38-.99-1.837-.541-.458-1.26-.686-2.155-.686-.86 0-1.531.2-2.016.603-.485.402-.728.926-.728 1.573 0 .5.123.894.367 1.186.245.29.54.5.887.63s.797.26 1.351.388c.434.093.776.183 1.026.27.249.089.457.211.623.368.166.157.25.37.25.638a.98.98 0 01-.326.755c-.217.2-.515.299-.894.299-.526 0-.951-.13-1.275-.389a1.453 1.453 0 01-.554-1.012h-1.538c.12.795.473 1.414 1.06 1.858.587.444 1.356.665 2.307.665zm5.058-9.052c.305 0 .552-.084.741-.25a.826.826 0 00.284-.651.869.869 0 00-.284-.666c-.19-.176-.436-.263-.741-.263s-.55.087-.735.263a.879.879 0 00-.277.666c0 .268.093.485.277.651.185.166.43.25.735.25zm.79 8.955v-7.638h-1.58v7.638h1.58zm5.736 3.744c.748 0 1.395-.158 1.94-.472a3.195 3.195 0 001.254-1.296c.291-.55.437-1.18.437-1.892v-7.722h-1.58v1.774a2.76 2.76 0 00-1.04-1.358c-.489-.342-1.08-.513-1.773-.513-.665 0-1.259.157-1.78.471-.522.314-.931.767-1.227 1.359-.295.591-.443 1.284-.443 2.08 0 .803.148 1.501.443 2.093.296.591.705 1.044 1.227 1.358.521.314 1.115.471 1.78.471.693 0 1.284-.17 1.774-.512a2.76 2.76 0 001.039-1.36v1.859c0 .739-.203 1.303-.61 1.691-.406.388-.923.582-1.552.582-.572 0-1.044-.127-1.413-.381a1.865 1.865 0 01-.748-1.06h-1.566c.166.868.58 1.557 1.24 2.065s1.527.763 2.598.763zm-.277-5.047c-.702 0-1.263-.224-1.683-.672-.42-.448-.631-1.065-.631-1.85 0-.786.21-1.403.63-1.852.42-.448.982-.672 1.684-.672.443 0 .84.104 1.192.312.35.208.628.504.831.887.203.384.305.825.305 1.324 0 .508-.102.952-.305 1.331s-.48.672-.831.88a2.293 2.293 0 01-1.192.312zm7.386 1.303v-4.062c0-.776.189-1.365.568-1.767.378-.402.882-.603 1.51-.603.61 0 1.09.187 1.441.561.351.375.527.904.527 1.588v4.283h1.58v-4.45c0-1.063-.269-1.88-.804-2.454-.536-.573-1.247-.86-2.134-.86-.628 0-1.183.158-1.663.472-.48.315-.822.758-1.025 1.331v-1.677h-1.58v7.638h1.58zm12.29 0v-7.222l2.8 7.222h1.385l2.785-7.222v7.222h1.594v-9.635h-1.913l-3.131 7.695-3.187-7.695h-1.912v9.635h1.58zm13.857.097a4.13 4.13 0 001.732-.353 3.295 3.295 0 001.26-.977c.324-.416.537-.892.638-1.428h-1.69a1.66 1.66 0 01-.672 1.067c-.365.268-.81.402-1.337.402-.6 0-1.104-.19-1.51-.568-.407-.38-.624-.961-.652-1.747h5.875a3.67 3.67 0 00.056-.68c0-.665-.15-1.268-.45-1.808a3.23 3.23 0 00-1.29-1.276c-.558-.31-1.212-.464-1.96-.464-.74 0-1.393.157-1.96.471a3.352 3.352 0 00-1.338 1.359c-.323.591-.485 1.284-.485 2.08 0 .803.162 1.501.485 2.093a3.352 3.352 0 001.337 1.358c.568.314 1.222.471 1.96.471zm2.106-4.325h-4.337c.037-.74.263-1.298.679-1.677.416-.38.933-.569 1.552-.569.388 0 .746.081 1.074.243.328.162.586.411.776.748.189.338.274.756.256 1.255zm6.513 4.325a4.13 4.13 0 001.732-.353 3.295 3.295 0 001.26-.977c.324-.416.536-.892.638-1.428h-1.69a1.66 1.66 0 01-.673 1.067c-.364.268-.81.402-1.337.402-.6 0-1.104-.19-1.51-.568-.407-.38-.624-.961-.651-1.747h5.875a3.67 3.67 0 00.055-.68c0-.665-.15-1.268-.45-1.808a3.23 3.23 0 00-1.289-1.276c-.559-.31-1.212-.464-1.96-.464-.74 0-1.393.157-1.961.471a3.352 3.352 0 00-1.337 1.359c-.324.591-.485 1.284-.485 2.08 0 .803.161 1.501.485 2.093a3.352 3.352 0 001.337 1.358c.568.314 1.222.471 1.96.471zm2.106-4.325h-4.337c.037-.74.263-1.298.679-1.677.415-.38.933-.569 1.552-.569.388 0 .746.081 1.073.243.328.162.587.411.776.748.19.338.275.756.257 1.255zm6.956 4.228v-1.372h-.762c-.407 0-.69-.083-.853-.25-.161-.166-.242-.466-.242-.9v-3.772h1.843v-1.344h-1.843v-1.9h-1.594v1.9h-1.094v1.344h1.094v3.744c0 .915.21 1.568.63 1.961.421.393 1.038.59 1.85.59h.97zm2.272-8.955c.305 0 .552-.084.742-.25a.826.826 0 00.284-.651.869.869 0 00-.284-.666c-.19-.176-.437-.263-.742-.263s-.55.087-.734.263a.879.879 0 00-.277.666c0 .268.092.485.277.651.185.166.43.25.734.25zm.79 8.955v-7.638h-1.58v7.638h1.58zm3.492 0v-4.062c0-.776.19-1.365.568-1.767.379-.402.882-.603 1.51-.603.61 0 1.09.187 1.441.561.351.375.527.904.527 1.588v4.283h1.58v-4.45c0-1.063-.268-1.88-.804-2.454-.536-.573-1.247-.86-2.134-.86-.628 0-1.182.158-1.663.472-.48.315-.822.758-1.025 1.331v-1.677h-1.58v7.638h1.58zm11.293 3.744c.748 0 1.395-.158 1.94-.472a3.195 3.195 0 001.254-1.296c.29-.55.436-1.18.436-1.892v-7.722h-1.58v1.774a2.76 2.76 0 00-1.039-1.358c-.49-.342-1.08-.513-1.773-.513-.665 0-1.259.157-1.78.471-.523.314-.931.767-1.227 1.359-.296.591-.443 1.284-.443 2.08 0 .803.147 1.501.443 2.093.296.591.704 1.044 1.226 1.358.522.314 1.116.471 1.78.471.694 0 1.285-.17 1.774-.512a2.76 2.76 0 001.04-1.36v1.859c0 .739-.204 1.303-.61 1.691-.406.388-.924.582-1.552.582-.573 0-1.044-.127-1.413-.381a1.865 1.865 0 01-.749-1.06h-1.565c.166.868.58 1.557 1.24 2.065s1.526.763 2.598.763zm-.277-5.047c-.702 0-1.263-.224-1.684-.672-.42-.448-.63-1.065-.63-1.85 0-.786.21-1.403.63-1.852.42-.448.982-.672 1.684-.672.443 0 .84.104 1.191.312.351.208.629.504.832.887.203.384.305.825.305 1.324 0 .508-.102.952-.305 1.331s-.48.672-.832.88a2.293 2.293 0 01-1.191.312z" fill="#FFF" fill-rule="nonzero" mask="url(#w)"/><path d="M83.148 549.116c1.144 0 2.094-.288 2.85-.865.757-.576 1.267-1.362 1.531-2.356h-1.597c-.22.554-.57.997-1.049 1.327-.48.33-1.067.495-1.762.495-.554 0-1.049-.137-1.484-.41a2.814 2.814 0 01-1.03-1.168c-.25-.506-.376-1.094-.376-1.763 0-.677.126-1.27.376-1.776.251-.506.594-.895 1.03-1.168.435-.273.93-.41 1.484-.41.695 0 1.283.166 1.762.496.48.33.83.777 1.05 1.34h1.596c-.264-.995-.774-1.782-1.53-2.363-.757-.581-1.707-.872-2.851-.872-.88 0-1.659.203-2.336.607-.677.405-1.2.967-1.57 1.684-.37.717-.555 1.538-.555 2.462 0 .925.185 1.745.555 2.463.37.717.893 1.276 1.57 1.677.677.4 1.456.6 2.336.6zm7.39-.079v-9.77h-1.504v9.77h1.504zm2.573-8.53c.29 0 .526-.078.706-.237a.787.787 0 00.27-.62.827.827 0 00-.27-.634c-.18-.167-.415-.251-.706-.251-.29 0-.523.084-.7.25a.837.837 0 00-.263.635c0 .255.088.462.264.62.176.159.409.238.7.238zm.753 8.53v-7.275h-1.505v7.275h1.505zm5.054.093c.607 0 1.157-.113 1.65-.337a3.138 3.138 0 001.2-.931c.308-.396.51-.85.607-1.36h-1.61a1.58 1.58 0 01-.64 1.017c-.347.255-.772.383-1.273.383-.572 0-1.051-.18-1.439-.542-.387-.36-.593-.915-.62-1.663h5.596c.035-.185.052-.4.052-.647 0-.634-.143-1.208-.428-1.723a3.076 3.076 0 00-1.228-1.215c-.532-.295-1.154-.442-1.867-.442-.704 0-1.326.15-1.867.449-.542.299-.966.73-1.274 1.293-.308.564-.462 1.224-.462 1.981 0 .766.154 1.43.462 1.994.308.563.732.994 1.274 1.294.54.299 1.163.449 1.867.449zm2.006-4.12h-4.13c.034-.704.25-1.237.646-1.598.396-.36.888-.54 1.478-.54.37 0 .71.076 1.023.23.312.154.558.392.739.713.18.321.261.72.244 1.195zm4.473 4.027v-3.868c0-.74.18-1.301.542-1.684.36-.383.84-.574 1.438-.574.58 0 1.038.178 1.372.534.335.357.502.86.502 1.512v4.08h1.504V544.8c0-1.012-.255-1.791-.765-2.337-.51-.546-1.188-.819-2.032-.819-.599 0-1.127.15-1.584.45a2.44 2.44 0 00-.977 1.267v-1.598h-1.504v7.275h1.504zm10.769 0v-1.307h-.726c-.387 0-.658-.08-.811-.238-.154-.158-.231-.444-.231-.858v-3.591h1.755v-1.28h-1.755v-1.81h-1.518v1.81h-1.043v1.28h1.043v3.565c0 .871.2 1.494.6 1.868.4.374.988.561 1.762.561h.924zm7.997.093c1.082 0 1.953-.328 2.613-.984.66-.656.99-1.622.99-2.898v-5.532h-1.505v5.532c0 .827-.182 1.443-.547 1.848-.365.405-.873.608-1.524.608-.66 0-1.173-.203-1.538-.608-.365-.405-.548-1.02-.548-1.848v-5.532H120.6v5.532c0 1.276.326 2.242.977 2.898.65.656 1.513.984 2.586.984zm6.862 3.366v-5.149c.185.537.51.968.977 1.294.466.326 1.03.489 1.69.489.633 0 1.198-.15 1.695-.45.497-.299.886-.73 1.168-1.293.281-.564.422-1.228.422-1.994 0-.757-.14-1.417-.422-1.98-.282-.564-.671-.995-1.168-1.294-.497-.3-1.062-.45-1.696-.45-.66 0-1.223.163-1.69.49a2.555 2.555 0 00-.976 1.293v-1.69h-1.504v10.734h1.504zm2.204-4.7c-.422 0-.8-.099-1.135-.297a2.11 2.11 0 01-.791-.839c-.194-.36-.29-.783-.29-1.267 0-.475.096-.896.29-1.26a2.1 2.1 0 01.791-.846 2.184 2.184 0 011.135-.297c.669 0 1.206.216 1.61.647.405.431.607 1.017.607 1.756 0 .748-.202 1.336-.607 1.763-.404.427-.941.64-1.61.64zm8.116 1.334c.66 0 1.223-.163 1.69-.489.466-.326.791-.757.976-1.294v1.69h1.518v-9.77h-1.518v4.185a2.555 2.555 0 00-.977-1.294c-.466-.326-1.029-.488-1.689-.488-.633 0-1.199.15-1.696.449-.497.299-.886.73-1.167 1.293-.282.564-.423 1.224-.423 1.981 0 .766.141 1.43.423 1.994.281.563.67.994 1.167 1.294.497.299 1.063.449 1.696.449zm.462-1.334c-.669 0-1.203-.213-1.603-.64-.4-.427-.6-1.015-.6-1.763s.2-1.336.6-1.763c.4-.427.934-.64 1.603-.64.422 0 .8.099 1.135.297a2.1 2.1 0 01.792.845c.193.365.29.786.29 1.261 0 .484-.097.907-.29 1.267a2.11 2.11 0 01-.792.839 2.184 2.184 0 01-1.135.297zm8.446 1.334c.66 0 1.223-.163 1.69-.489.465-.326.795-.757.989-1.294v1.69h1.504v-7.275h-1.504v1.69a2.629 2.629 0 00-.99-1.294c-.466-.326-1.03-.488-1.689-.488-.633 0-1.199.15-1.696.449-.497.299-.886.73-1.168 1.293-.281.564-.422 1.224-.422 1.981 0 .766.14 1.43.422 1.994.282.563.671.994 1.168 1.294.497.299 1.063.449 1.696.449zm.462-1.334c-.669 0-1.203-.213-1.604-.64-.4-.427-.6-1.015-.6-1.763s.2-1.336.6-1.763c.4-.427.935-.64 1.604-.64.422 0 .8.099 1.135.297a2.1 2.1 0 01.792.845c.193.365.29.786.29 1.261 0 .484-.097.907-.29 1.267a2.11 2.11 0 01-.792.839 2.184 2.184 0 01-1.135.297zm9.185 1.241v-1.307h-.726c-.387 0-.658-.08-.812-.238-.154-.158-.23-.444-.23-.858v-3.591h1.755v-1.28h-1.756v-1.81h-1.517v1.81h-1.043v1.28h1.043v3.565c0 .871.2 1.494.6 1.868.4.374.988.561 1.762.561h.924zm4.645.093c.607 0 1.157-.113 1.65-.337a3.138 3.138 0 001.2-.931c.308-.396.51-.85.607-1.36h-1.61a1.58 1.58 0 01-.64 1.017c-.347.255-.772.383-1.273.383-.572 0-1.051-.18-1.438-.542-.388-.36-.594-.915-.62-1.663h5.595c.035-.185.052-.4.052-.647 0-.634-.142-1.208-.428-1.723a3.076 3.076 0 00-1.228-1.215c-.532-.295-1.154-.442-1.867-.442-.704 0-1.326.15-1.867.449-.541.299-.966.73-1.274 1.293-.308.564-.462 1.224-.462 1.981 0 .766.154 1.43.462 1.994.308.563.733.994 1.274 1.294.54.299 1.163.449 1.867.449zm2.006-4.12h-4.13c.034-.704.25-1.237.646-1.598.396-.36.889-.54 1.478-.54.37 0 .71.076 1.023.23.312.154.558.392.739.713.18.321.261.72.244 1.195zM82.413 473.195c.682 0 1.29-.147 1.826-.44a3.43 3.43 0 001.275-1.188 3.854 3.854 0 00.572-1.673v-.924h-3.893v.748h3.047a3.053 3.053 0 01-.457 1.381 2.534 2.534 0 01-.973.897 2.799 2.799 0 01-1.309.308c-.557 0-1.05-.123-1.479-.369a2.567 2.567 0 01-1.006-1.056c-.242-.458-.363-1.003-.363-1.634 0-.616.12-1.151.357-1.606.239-.455.567-.805.985-1.051.417-.246.89-.369 1.418-.369.587 0 1.094.143 1.523.43.43.286.735.663.919 1.133h1.055c-.212-.77-.625-1.38-1.237-1.827-.612-.447-1.369-.67-2.27-.67-.741 0-1.397.168-1.97.505a3.517 3.517 0 00-1.335 1.403c-.32.598-.479 1.282-.479 2.052s.16 1.454.479 2.052a3.48 3.48 0 001.336 1.398c.572.333 1.231.5 1.98.5zm7.588-.077v-6.943h2.189v-.814h-5.378v.814h2.189v6.943h1zm4.18 0v-6.062l2.44 6.062h.891l2.43-6.084v6.084h1.002v-7.625h-1.2l-2.66 6.404-2.706-6.404H93.18v7.625h1zM83.148 455.593c1.144 0 2.094-.288 2.85-.865.757-.576 1.267-1.362 1.531-2.357h-1.597c-.22.555-.57.997-1.049 1.327-.48.33-1.067.495-1.762.495-.554 0-1.049-.136-1.484-.409a2.814 2.814 0 01-1.03-1.168c-.25-.507-.376-1.094-.376-1.763 0-.678.126-1.27.376-1.776.251-.506.594-.895 1.03-1.168.435-.273.93-.41 1.484-.41.695 0 1.283.165 1.762.495.48.33.83.777 1.05 1.34h1.596c-.264-.994-.774-1.782-1.53-2.363-.757-.58-1.707-.871-2.851-.871-.88 0-1.659.202-2.336.607-.677.405-1.2.966-1.57 1.684-.37.717-.555 1.538-.555 2.462 0 .924.185 1.745.555 2.462.37.718.893 1.277 1.57 1.677.677.4 1.456.601 2.336.601zm7.39-.08v-9.77h-1.504v9.77h1.504zm2.573-8.529c.29 0 .526-.079.706-.237a.787.787 0 00.27-.62.827.827 0 00-.27-.635c-.18-.167-.415-.25-.706-.25-.29 0-.523.083-.7.25a.837.837 0 00-.263.634c0 .255.088.462.264.62.176.16.409.238.7.238zm.753 8.53v-7.275h-1.505v7.275h1.505zm5.054.092c.607 0 1.157-.112 1.65-.337a3.138 3.138 0 001.2-.93c.308-.396.51-.85.607-1.36h-1.61a1.58 1.58 0 01-.64 1.016c-.347.256-.772.383-1.273.383-.572 0-1.051-.18-1.439-.541-.387-.361-.593-.916-.62-1.664h5.596c.035-.185.052-.4.052-.647 0-.633-.143-1.208-.428-1.723a3.076 3.076 0 00-1.228-1.214c-.532-.295-1.154-.443-1.867-.443-.704 0-1.326.15-1.867.45-.542.298-.966.73-1.274 1.293-.308.563-.462 1.224-.462 1.98 0 .766.154 1.431.462 1.994.308.564.732.995 1.274 1.294.54.3 1.163.45 1.867.45zm2.006-4.12h-4.13c.034-.703.25-1.236.646-1.597.396-.36.888-.541 1.478-.541.37 0 .71.077 1.023.23.312.155.558.393.739.714.18.321.261.72.244 1.195zm4.473 4.028v-3.869c0-.74.18-1.3.542-1.683.36-.383.84-.575 1.438-.575.58 0 1.038.179 1.372.535.335.357.502.86.502 1.512v4.08h1.504v-4.239c0-1.012-.255-1.79-.765-2.337-.51-.545-1.188-.818-2.032-.818-.599 0-1.127.15-1.584.449a2.44 2.44 0 00-.977 1.267v-1.597h-1.504v7.275h1.504zm10.769 0v-1.307h-.726c-.387 0-.658-.08-.811-.238-.154-.158-.231-.445-.231-.858v-3.592h1.755v-1.28h-1.755v-1.81h-1.518v1.81h-1.043v1.28h1.043v3.565c0 .872.2 1.495.6 1.869.4.374.988.56 1.762.56h.924zm6.004 0v-6.88l2.666 6.88h1.32l2.652-6.88v6.88h1.518v-9.177h-1.821l-2.983 7.328-3.035-7.328h-1.821v9.177h1.504zm13.197.092c.607 0 1.157-.112 1.65-.337a3.138 3.138 0 001.2-.93c.309-.396.51-.85.608-1.36h-1.61a1.58 1.58 0 01-.64 1.016c-.348.256-.772.383-1.274.383-.572 0-1.051-.18-1.438-.541-.387-.361-.594-.916-.62-1.664h5.595c.035-.185.053-.4.053-.647 0-.633-.143-1.208-.43-1.723a3.076 3.076 0 00-1.227-1.214c-.532-.295-1.154-.443-1.867-.443-.704 0-1.326.15-1.867.45-.541.298-.966.73-1.274 1.293-.308.563-.462 1.224-.462 1.98 0 .766.154 1.431.462 1.994.308.564.733.995 1.274 1.294.54.3 1.163.45 1.867.45zm2.006-4.12h-4.13c.035-.703.25-1.236.646-1.597.396-.36.889-.541 1.478-.541.37 0 .71.077 1.023.23.312.155.559.393.739.714.18.321.262.72.244 1.195zm6.202 4.12c.607 0 1.157-.112 1.65-.337a3.138 3.138 0 001.2-.93c.309-.396.511-.85.608-1.36h-1.61a1.58 1.58 0 01-.64 1.016c-.348.256-.772.383-1.274.383-.571 0-1.05-.18-1.438-.541-.387-.361-.594-.916-.62-1.664h5.595c.035-.185.053-.4.053-.647 0-.633-.143-1.208-.429-1.723a3.076 3.076 0 00-1.227-1.214c-.533-.295-1.155-.443-1.868-.443-.703 0-1.326.15-1.867.45-.541.298-.965.73-1.273 1.293-.308.563-.462 1.224-.462 1.98 0 .766.154 1.431.462 1.994.308.564.732.995 1.273 1.294.541.3 1.164.45 1.867.45zm2.006-4.12h-4.13c.035-.703.25-1.236.646-1.597.396-.36.889-.541 1.478-.541.37 0 .71.077 1.023.23.312.155.559.393.74.714.18.321.26.72.243 1.195zm6.625 4.028v-1.307h-.726c-.387 0-.657-.08-.811-.238-.154-.158-.231-.445-.231-.858v-3.592h1.755v-1.28h-1.755v-1.81h-1.518v1.81h-1.042v1.28h1.042v3.565c0 .872.2 1.495.6 1.869.4.374.988.56 1.762.56h.924zm2.164-8.53c.29 0 .526-.079.706-.237a.787.787 0 00.27-.62.827.827 0 00-.27-.635c-.18-.167-.415-.25-.706-.25-.29 0-.523.083-.7.25a.837.837 0 00-.263.634c0 .255.088.462.264.62.176.16.409.238.7.238zm.753 8.53v-7.275h-1.505v7.275h1.505zm3.325 0v-3.869c0-.74.18-1.3.541-1.683.36-.383.84-.575 1.439-.575.58 0 1.038.179 1.372.535.334.357.502.86.502 1.512v4.08h1.504v-4.239c0-1.012-.255-1.79-.765-2.337-.51-.545-1.188-.818-2.033-.818-.598 0-1.126.15-1.583.449a2.44 2.44 0 00-.977 1.267v-1.597h-1.504v7.275h1.504zm10.755 3.565c.713 0 1.329-.15 1.848-.45.519-.299.917-.71 1.194-1.234.277-.524.416-1.124.416-1.802v-7.354h-1.505v1.69a2.629 2.629 0 00-.99-1.294c-.466-.326-1.029-.489-1.688-.489-.634 0-1.2.15-1.696.45-.497.298-.887.73-1.168 1.293-.282.563-.422 1.224-.422 1.98 0 .766.14 1.431.422 1.994.281.564.67.995 1.168 1.294.497.3 1.062.45 1.696.45.66 0 1.222-.164 1.689-.49.466-.325.796-.756.99-1.293v1.769c0 .704-.194 1.241-.581 1.61-.387.37-.88.555-1.478.555-.546 0-.994-.12-1.346-.363a1.776 1.776 0 01-.713-1.01h-1.491c.158.828.552 1.483 1.181 1.967.629.485 1.454.727 2.474.727zm-.264-4.806c-.668 0-1.203-.214-1.603-.64-.4-.428-.6-1.015-.6-1.763 0-.749.2-1.336.6-1.763.4-.427.935-.64 1.603-.64.423 0 .801.099 1.135.297a2.1 2.1 0 01.792.845c.194.365.29.785.29 1.26 0 .485-.096.907-.29 1.268a2.11 2.11 0 01-.792.839 2.184 2.184 0 01-1.135.297z" fill="#5C6B8A" fill-rule="nonzero" mask="url(#w)"/></g><path d="M273.075 18.705h197.95c-2.206 0-3.306 1.192-3.3 3.576-.002.92-.003 2.666-.004 5.235-.002 10.934-8.866 19.796-19.8 19.796H296.094c-10.935 0-19.8-8.865-19.8-19.8v-.083c.011-2.555.038-4.272.08-5.148-.113-2.33-1.213-3.522-3.3-3.576z" fill="#000"/><g transform="translate(273.075 18.705)"><use fill="#131313" xlink:href="#z"/><use fill="#000" filter="url(#A)" xlink:href="#z"/></g><g transform="translate(403.942 22.005)"><ellipse stroke="url(#B)" stroke-width="1.1" fill="#000" cx="7.148" cy="7.152" rx="6.598" ry="6.602"/><ellipse fill="url(#C)" cx="9.293" cy="7.152" rx="2.144" ry="2.861"/><ellipse fill="url(#D)" cx="5.004" cy="7.152" rx="2.144" ry="2.861"/><path fill="#3367A1" filter="url(#E)" d="M8.578 7.152h1.43v1.43h-1.43z"/><path fill="#213E60" filter="url(#F)" d="M4.289 7.152h1.43v1.43h-1.43z"/></g></g></svg>