<svg width="150" height="150" xmlns="http://www.w3.org/2000/svg"><g fill="none" fill-rule="evenodd"><path d="M27.5 116.217c0-.2.098-.4.288-.541.349-.26.876-.228 1.18.07a49.463 49.463 0 005.243 4.494c.349.259.388.712.085 1.012-.302.3-.83.332-1.178.073a50.805 50.805 0 01-5.412-4.637.661.661 0 01-.206-.47zM14 82.791c0-7.677 1.805-15.61 5.385-23.471 5.354-11.754 14.471-22.674 25.674-30.75 18.535-13.362 41.441-16.31 59.776-7.693 16.385 7.7 28.358 22.917 31.248 39.712 2.48 14.439-.11 29.123-7.3 41.349-7.736 13.155-20.195 22.773-36.03 27.816-14.956 4.762-31.941 4.266-46.602-1.364a50.763 50.763 0 01-9.592-4.91c-.373-.242-.442-.694-.156-1.01.285-.315.817-.374 1.188-.132a49.097 49.097 0 009.258 4.739c14.255 5.474 30.77 5.957 45.31 1.327 30.072-9.577 47.442-37.38 42.247-67.606-2.814-16.36-14.46-31.173-30.39-38.66-17.704-8.32-39.875-5.435-57.862 7.531-23.616 17.025-35.315 44.41-28.445 66.597 1.407 4.546 3.55 8.901 6.368 12.945.24.343.106.785-.297.988-.403.202-.922.09-1.161-.253-2.9-4.16-5.103-8.639-6.55-13.313C14.688 92.17 14 87.528 14 82.791z" fill="#FEB801"/><path d="M88.031 135.91c28.217-11.791 40.876-44.953 36.685-76.933-2.352-17.942-12.053-35.222-26.422-44.084C81.46 4.512 62.02 10.07 47.867 23.457c-18.84 17.823-31.093 48.308-24.62 75.745 3.522 14.934 12.597 28.75 25.386 35.194 12.294 6.194 26.717 6.813 39.398 1.514" fill="#0084FF"/><g fill="#FFF" fill-rule="nonzero"><path d="M80.82 63.94a13 13 0 104.24 4.24l-1.46 1.46A10.89 10.89 0 0185 75c0 6.075-4.925 11-11 11s-11-4.925-11-11 4.925-11 11-11a10.89 10.89 0 015.36 1.4l1.46-1.46z"/><path d="M74.7 70.06A4.001 4.001 0 0074 70a5 5 0 105 5c0-.235-.02-.469-.06-.7l-2.82 2.82a3 3 0 01-1.56.83 3.16 3.16 0 01-1.12 0 3 3 0 01-1.56-.83 3 3 0 010-4.24l2.82-2.82z"/><path d="M73.29 75.71a1 1 0 001.42 0L94.5 55.92l3.23-.65a1 1 0 00.51-.27l2.12-2.12a1 1 0 00-.39-1.66l-1.64-.55-.55-1.64a1 1 0 00-1.66-.39L94 50.76a1 1 0 00-.27.51l-.65 3.23-19.79 19.79a1 1 0 000 1.42zM95.63 52l.76-.77.2.59a1 1 0 00.63.63l.59.2-.77.76-1.76.36.35-1.77zM55.62 58a1 1 0 101.41-1.41l-1.41-1.42a1.004 1.004 0 10-1.42 1.42L55.62 58zM92.38 92a1 1 0 00-1.41 1.41l1.41 1.42a1.004 1.004 0 101.42-1.42L92.38 92zM55.62 92l-1.42 1.41a1.004 1.004 0 101.42 1.42l1.41-1.42A1 1 0 1055.62 92z"/><path d="M101 74h-6a21 21 0 00-4.15-11.57l-1.43 1.43A18.85 18.85 0 0193 74h-1.28a1 1 0 000 2H93c-.5 9.727-8.273 17.5-18 18v-1.27a1 1 0 00-2 0V94c-9.708-.497-17.476-8.243-18-17.95h1.27a1 1 0 000-2H55c.524-9.707 8.292-17.453 18-17.95v1.27a1 1 0 002 0V56a18.85 18.85 0 0110.14 3.58l1.43-1.43A21 21 0 0075 54v-6a1 1 0 00-2 0v6.05c-10.812.502-19.47 9.14-20 19.95h-6a1 1 0 000 2h6c.505 10.83 9.17 19.495 20 20v6a1 1 0 002 0v-6c10.83-.505 19.495-9.17 20-20h6a1 1 0 000-2z"/></g></g></svg>