<svg width="150" height="150" xmlns="http://www.w3.org/2000/svg"><g fill="none" fill-rule="evenodd"><path d="M15.465 89a.845.845 0 01-.7-.37 51.883 51.883 0 01-2.958-4.879c-2.433-4.575-5.94-13.446-2.105-21.449 2.569-5.36 7.512-8.772 12.291-12.072 1.278-.882 2.484-1.715 3.65-2.586 16.99-12.691 35.367-25.563 54.634-33.75a54.51 54.51 0 018.682-2.872.84.84 0 11.392 1.636 52.692 52.692 0 00-8.41 2.782c-19.102 8.117-37.378 20.921-54.284 33.55-1.191.89-2.467 1.77-3.7 2.621-4.599 3.176-9.354 6.458-11.73 11.415-3.517 7.34-.21 15.643 2.073 19.939a50.402 50.402 0 002.863 4.722.839.839 0 01-.225 1.168.84.84 0 01-.473.145zm95.924 34a.824.824 0 01-.375-.09.855.855 0 01-.37-1.139c4.83-9.754 6.87-21.92 8.402-32.559.778-5.403 1.398-10.954 1.997-16.321.54-4.818 1.096-9.8 1.767-14.686 1.696-12.34 4.019-29.243-5.92-39.544a22 22 0 00-3.996-3.279c-6.955-4.44-15.207-4.067-20.904-2.97a.834.834 0 01-.975-.676.847.847 0 01.665-.99c8.593-1.653 16.234-.545 22.102 3.2 1.552.991 3 2.178 4.301 3.527 10.513 10.898 8.124 28.277 6.38 40.967-.668 4.865-1.223 9.836-1.761 14.643-.6 5.38-1.222 10.945-2.005 16.374-1.551 10.77-3.62 23.096-8.563 33.076a.83.83 0 01-.745.467zm-25.904 16c-5.49 0-10.965-1.182-15.578-3.106-11.205-4.673-20.593-13.153-29.671-21.355-1.693-1.529-3.37-3.045-5.042-4.52-5.218-4.599-11.131-9.813-15.997-15.63a.848.848 0 01.105-1.192.843.843 0 011.187.105c4.784 5.719 10.645 10.887 15.818 15.447 1.677 1.48 3.36 3 5.058 4.534 8.973 8.106 18.25 16.488 29.189 21.05 10.67 4.449 26.121 4.79 34.837-4.975a32.702 32.702 0 003.058-4.048.843.843 0 111.416.918 34.207 34.207 0 01-3.218 4.258C101.2 136.59 93.324 139 85.485 139z" fill="#0084FF"/><path d="M136.872 32.473c-6.546-9.414-19.218-12.73-30.486-12.705-21.344.047-43.736 4.915-64.379 10.03-6.876 1.705-14.857 2.36-20.401 7.275-5.623 4.985-6.911 13.18-6.302 20.321.991 11.617 6.117 22.419 11.16 32.928 6.192 12.905 11.951 27.452 22.112 37.838 8.749 8.943 23.475 15.113 35.606 9.4 12.586-5.928 22.394-21.293 29.338-32.724 5.46-8.988 10.405-18.37 15.836-27.446 6.927-11.576 15.522-26.225 10.1-40.067a23.498 23.498 0 00-2.584-4.85" fill="#FEB801"/><g fill="#FFF" fill-rule="nonzero"><path d="M87.45 83.11H54a2 2 0 01-2-2V56.75a2 2 0 012-2h42.57a2 2 0 012 2v8.79a1 1 0 002 0v-8.79a4 4 0 00-4-4H54a4 4 0 00-4 4v24.38a4 4 0 004 4h13.2a4.06 4.06 0 010 8.11 1 1 0 000 2h16.17a1 1 0 000-2 4.06 4.06 0 010-8.11h4.1a1 1 0 000-2l-.02-.02zM79 93.22h-7.51a6.22 6.22 0 000-8.11H79a6.21 6.21 0 00-1.51 4.06A6.11 6.11 0 0079 93.22z"/><path d="M103.43 69h-10a2.57 2.57 0 00-2.57 2.57v2.66a1.53 1.53 0 00-1.1.51H85v-4a1 1 0 00-1-1h-9.5v-2.72a2.34 2.34 0 00-2.34-2.34h-7.43a2.34 2.34 0 00-2.34 2.34v7.43a2.34 2.34 0 002.34 2.34h7.43a2.34 2.34 0 002.34-2.34v-2.71H83v4a1 1 0 001 1h5.81a1.49 1.49 0 001.1.51v15.44a2.57 2.57 0 002.57 2.57h10a2.57 2.57 0 002.57-2.57V71.53a2.57 2.57 0 00-2.62-2.53zM72.5 70.43a1.19 1.19 0 000 .26 1 1 0 000 .25v3.46a.34.34 0 01-.34.34h-7.43a.34.34 0 01-.34-.34v-7.43a.35.35 0 01.34-.34h7.43a.34.34 0 01.34.34v3.46zM104 92.65a.58.58 0 01-.57.57h-10a.57.57 0 01-.57-.57V71.53a.56.56 0 01.57-.57h10a.57.57 0 01.57.57v21.12z"/><path d="M98.43 90a1 1 0 100 2 1 1 0 000-2zM57.86 58.34a1 1 0 100 2h3.54a1 1 0 000-2h-3.54zM69.72 58.34a1 1 0 000 2h3.53a1 1 0 000-2h-3.53zM80.63 58.34a1 1 0 000 2H91.7a1 1 0 000-2H80.63z"/></g></g></svg>