<svg width="150" height="150" xmlns="http://www.w3.org/2000/svg"><g fill="none" fill-rule="evenodd"><path d="M42.878 18.765a.752.752 0 01.046-.085 38.982 38.982 0 013.693-4.914c3.003-3.37 6.739-5.17 11.105-5.349 7-.286 14.753 3.535 21.881 8.512l.907.642c.3.216.6.433.899.652l.89.663.883.67.438.34.917.719.905.725.448.365.887.73 1.09.916 1.066.915.836.729.82.725 1.199 1.076.776.708 1.13 1.043 1.086 1.015 1.373 1.302 2.183 2.1 1.604 1.55 4.412 4.22 1.35 1.303 1.38 1.347.931.92.94.939.943.956.945.973.473.492.944.997.367.393.732.793.365.4.726.807.36.406.717.82.355.412.705.832c.584.696 1.157 1.4 1.719 2.112l.667.857.654.865c8.52 11.426 13.292 24.57 2.556 36.707-12.888 14.57-34.56 25.125-59.458 28.96a123.98 123.98 0 01-8.266.991.702.702 0 01-.759-.648.714.714 0 01.65-.768c2.696-.23 5.445-.56 8.171-.98 24.577-3.784 45.94-14.17 58.61-28.494 9.145-10.337 6.501-21.364-.142-31.499l-.57-.854a74.354 74.354 0 00-4.103-5.434l-.68-.816-.344-.406-.695-.806a107.99 107.99 0 00-.351-.4l-.708-.798-.714-.79-.721-.783-.726-.776-.935-.984-.47-.487-.941-.966-.943-.952-.94-.938-1.405-1.381-1.389-1.348-1.366-1.313-3.48-3.326-3.851-3.712-1.294-1.23-1.035-.971-1.086-1.007-.75-.687-1.166-1.052-.801-.713-.82-.72-.836-.724-.854-.727-.869-.73-.884-.729-.852-.691-.864-.688-.875-.683-.885-.677-.895-.669-.903-.66c-7.256-5.238-15.26-9.447-22.217-9.162-3.968.162-7.366 1.802-10.103 4.873a37.58 37.58 0 00-3.556 4.733.706.706 0 01-.976.218.709.709 0 01-.256-.896zm-2.993 6.418l.257-.545a.709.709 0 011.319.507l-.04.103c-2.528 5.273-4.394 11.022-6.097 16.738l-.632 2.141-1.266 4.333a330.063 330.063 0 01-.948 3.177l-.317 1.034c-5.217 16.79-8.179 31.66-9.053 45.461-.696 10.952 5.78 19.099 17.324 21.792 2.861.668 5.894.958 9.013.863.705-.022 1.414-.05 2.128-.086a.707.707 0 11.07 1.415c-.722.036-1.44.065-2.155.087-3.242.1-6.397-.203-9.378-.899-12.275-2.863-19.16-11.56-18.417-23.261.863-13.598 3.73-28.213 8.759-44.643l.354-1.15c.318-1.022.63-2.061.946-3.123l.634-2.158 1.002-3.429c1.824-6.21 3.78-12.53 6.497-18.357z" fill="#FEB801"/><path d="M65.346 139.395c2.896-.922 5.764-2.348 8.48-4.196 21.7-14.765 44.169-41.73 50.124-71.339 6.256-31.108-28.685-40.063-47.129-46.137C63.396 13.3 26.623.733 21.559 25.513c-3.08 15.078 1.4 33.418 3.879 48.347 2.964 17.858 7.127 35.605 13.594 52.18 5.26 13.48 15.96 16.648 26.314 13.355" fill="#0084FF"/><g fill="#FDFDFE" fill-rule="nonzero"><path d="M107 63.67h-5a1 1 0 000 1.93h5a1 1 0 000-1.93zM102 61.85a1 1 0 00.69-.28l2.48-2.57a1 1 0 000-1.36 1 1 0 00-1.37 0l-2.5 2.57a1 1 0 000 1.37 1 1 0 00.7.27zM102.73 67.77a1 1 0 00-1.36 1.38l2.51 2.47a.94.94 0 00.68.28 1 1 0 00.68-1.65l-2.51-2.48zM97.76 61.38v-5.47a1 1 0 00-.47-.82.93.93 0 00-.94 0l-2.83 1.46a20.37 20.37 0 01-9.21 2.28l-7.47.05a6 6 0 00-4.17 10.26 6.14 6.14 0 004.25 1.73h1.77l1.94 5.69a2.7 2.7 0 002.56 1.82h2.56a1 1 0 00.86-1.38l-2.48-6.21h.31a20.22 20.22 0 019.08 2.13l2.92 1.46a.91.91 0 00.43.1.94.94 0 00.51-.14 1 1 0 00.46-.83v-5.47a3.46 3.46 0 002.5-3.35 3.49 3.49 0 00-2.58-3.31zm-20.88 7.53a4.08 4.08 0 01-4.09-4 4.05 4.05 0 013.78-4.07 7.91 7.91 0 00-.57 4.37 7.29 7.29 0 002 3.69l-1.12.01zm7.41 7.5h-1.13a.78.78 0 01-.73-.52l-1.74-5.08h1.36l2.24 5.6zm10.1-5.22a21.94 21.94 0 00-9.83-2.33H80.9a6.42 6.42 0 01-3-4 6.41 6.41 0 01.8-4.12h5.56a22.27 22.27 0 0010.09-2.49l1.42-.74V71.93l-1.38-.74zm3.53-5.39a.63.63 0 01-.13.11v-2.4a1.52 1.52 0 01.15 2.29h-.02z"/><path d="M76.27 75.14a1 1 0 00-1 1v7.66A3.28 3.28 0 0172 87.07H57.2a3.28 3.28 0 01-3.27-3.27V54.2a3.28 3.28 0 013.27-3.27h6.34a.8.8 0 000 .15 1.11 1.11 0 102.22 0 .8.8 0 000-.15H72a3.28 3.28 0 013.28 3.27 1 1 0 101.93 0A5.21 5.21 0 0072 49H57.2a5.2 5.2 0 00-5.2 5.2v29.6a5.2 5.2 0 005.2 5.2H72a5.21 5.21 0 005.21-5.2v-7.69a1 1 0 00-.94-.97z"/><path d="M60.39 56.88a1 1 0 000-1.93h-2a1 1 0 100 1.93h2zM72.79 55.91a1 1 0 00-1-1h-7.2a1 1 0 100 1.93h7.2a1 1 0 001-.93zM71 75.11a1 1 0 00-.77-.66L66.9 74l-1.49-3a1 1 0 00-1.73 0l-1.49 3-3.33.48a1 1 0 00-.53 1.65l2.41 2.34-.57 3.32a1 1 0 00.38.94 1 1 0 001 .08l3-1.57 3 1.57a1 1 0 00.45.11 1 1 0 00.57-.19 1 1 0 00.38-.94l-.57-3.32 2.41-2.34a1 1 0 00.21-1.02zm-4.36 2.31a1 1 0 00-.28.85l.33 1.89-1.69-.89a.94.94 0 00-.89 0l-1.7.89.33-1.89a1 1 0 00-.28-.85l-1.38-1.34L63 75.8a1 1 0 00.73-.52l.84-1.72.85 1.72a1 1 0 00.73.52l1.89.28-1.4 1.34zM60.69 68.24a3.42 3.42 0 100-6.84 3.42 3.42 0 000 6.84zm0-4.9a1.49 1.49 0 11-1.48 1.48 1.48 1.48 0 011.48-1.48z"/></g></g></svg>