<?xml version="1.0" encoding="UTF-8"?>
<svg width="160px" height="43px" viewBox="0 0 160 43" version="1.1" xmlns="http://www.w3.org/2000/svg" xmlns:xlink="http://www.w3.org/1999/xlink">
    <title>Artboard</title>
    <g id="Artboard" stroke="none" stroke-width="1" fill="none" fill-rule="evenodd">
        <g id="appland" transform="translate(3.656000, 3.360000)" fill-rule="nonzero">
            <path d="M9.072,26.892 C10.992,26.892 12.618,26.412 13.95,25.452 C15.282,24.492 16.212,23.208 16.74,21.6 L16.74,21.6 L16.74,26.64 L20.016,26.64 L20.016,6.876 L16.74,6.876 L16.74,11.916 C16.212,10.308 15.282,9.024 13.95,8.064 C12.618,7.104 10.992,6.624 9.072,6.624 C7.32,6.624 5.76,7.032 4.392,7.848 C3.024,8.664 1.95,9.84 1.17,11.376 C0.39,12.912 -5.68434189e-14,14.712 -5.68434189e-14,16.776 C-5.68434189e-14,18.84 0.39,20.634 1.17,22.158 C1.95,23.682 3.024,24.852 4.392,25.668 C5.76,26.484 7.32,26.892 9.072,26.892 Z M10.008,24.012 C7.992,24.012 6.378,23.37 5.166,22.086 C3.954,20.802 3.348,19.032 3.348,16.776 C3.348,14.52 3.954,12.75 5.166,11.466 C6.378,10.182 7.992,9.54 10.008,9.54 C11.304,9.54 12.462,9.834 13.482,10.422 C14.502,11.01 15.3,11.856 15.876,12.96 C16.452,14.064 16.74,15.336 16.74,16.776 C16.74,18.216 16.452,19.482 15.876,20.574 C15.3,21.666 14.502,22.512 13.482,23.112 C12.462,23.712 11.304,24.012 10.008,24.012 Z M28.5113565,36 L28.5113565,21.6 C29.0153565,23.184 29.9333565,24.462 31.2653565,25.434 C32.5973565,26.406 34.2233565,26.892 36.1433565,26.892 C37.8953565,26.892 39.4553565,26.484 40.8233565,25.668 C42.1913565,24.852 43.2653565,23.682 44.0453565,22.158 C44.8253565,20.634 45.2153565,18.84 45.2153565,16.776 C45.2153565,14.712 44.8253565,12.912 44.0453565,11.376 C43.2653565,9.84 42.1913565,8.664 40.8233565,7.848 C39.4553565,7.032 37.8953565,6.624 36.1433565,6.624 C34.2233565,6.624 32.5973565,7.11 31.2653565,8.082 C29.9333565,9.054 29.0153565,10.332 28.5113565,11.916 L28.5113565,11.916 L28.5113565,6.876 L25.2353565,6.876 L25.2353565,36 L28.5113565,36 Z M35.2073565,24.012 C33.9353565,24.012 32.7833565,23.712 31.7513565,23.112 C30.7193565,22.512 29.9153565,21.666 29.3393565,20.574 C28.7633565,19.482 28.4753565,18.216 28.4753565,16.776 C28.4753565,15.336 28.7633565,14.064 29.3393565,12.96 C29.9153565,11.856 30.7193565,11.01 31.7513565,10.422 C32.7833565,9.834 33.9353565,9.54 35.2073565,9.54 C37.2473565,9.54 38.8733565,10.182 40.0853565,11.466 C41.2973565,12.75 41.9033565,14.52 41.9033565,16.776 C41.9033565,19.032 41.2973565,20.802 40.0853565,22.086 C38.8733565,23.37 37.2473565,24.012 35.2073565,24.012 Z M52.774713,36 L52.774713,21.6 C53.278713,23.184 54.196713,24.462 55.528713,25.434 C56.860713,26.406 58.486713,26.892 60.406713,26.892 C62.158713,26.892 63.718713,26.484 65.086713,25.668 C66.454713,24.852 67.528713,23.682 68.308713,22.158 C69.088713,20.634 69.478713,18.84 69.478713,16.776 C69.478713,14.712 69.088713,12.912 68.308713,11.376 C67.528713,9.84 66.454713,8.664 65.086713,7.848 C63.718713,7.032 62.158713,6.624 60.406713,6.624 C58.486713,6.624 56.860713,7.11 55.528713,8.082 C54.196713,9.054 53.278713,10.332 52.774713,11.916 L52.774713,11.916 L52.774713,6.876 L49.498713,6.876 L49.498713,36 L52.774713,36 Z M59.470713,24.012 C58.198713,24.012 57.046713,23.712 56.014713,23.112 C54.982713,22.512 54.178713,21.666 53.602713,20.574 C53.026713,19.482 52.738713,18.216 52.738713,16.776 C52.738713,15.336 53.026713,14.064 53.602713,12.96 C54.178713,11.856 54.982713,11.01 56.014713,10.422 C57.046713,9.834 58.198713,9.54 59.470713,9.54 C61.510713,9.54 63.136713,10.182 64.348713,11.466 C65.560713,12.75 66.166713,14.52 66.166713,16.776 C66.166713,19.032 65.560713,20.802 64.348713,22.086 C63.136713,23.37 61.510713,24.012 59.470713,24.012 Z" id="app" fill="#0084FF"></path>
            <path d="M78.5140695,26.64 L78.5140695,2.84217094e-14 L73.4380695,2.84217094e-14 L73.4380695,26.64 L78.5140695,26.64 Z M90.933426,26.892 C92.613426,26.892 94.053426,26.49 95.253426,25.686 C96.453426,24.882 97.305426,23.808 97.809426,22.464 L97.809426,22.464 L97.809426,26.64 L102.849426,26.64 L102.849426,6.696 L97.809426,6.696 L97.809426,10.836 C97.305426,9.492 96.453426,8.424 95.253426,7.632 C94.053426,6.84 92.613426,6.444 90.933426,6.444 C89.253426,6.444 87.741426,6.852 86.397426,7.668 C85.053426,8.484 84.003426,9.666 83.247426,11.214 C82.491426,12.762 82.113426,14.58 82.113426,16.668 C82.113426,18.756 82.491426,20.574 83.247426,22.122 C84.003426,23.67 85.053426,24.852 86.397426,25.668 C87.741426,26.484 89.253426,26.892 90.933426,26.892 Z M92.517426,22.428 C90.933426,22.428 89.661426,21.918 88.701426,20.898 C87.741426,19.878 87.261426,18.468 87.261426,16.668 C87.261426,14.868 87.741426,13.452 88.701426,12.42 C89.661426,11.388 90.933426,10.872 92.517426,10.872 C94.053426,10.872 95.319426,11.394 96.315426,12.438 C97.311426,13.482 97.809426,14.892 97.809426,16.668 C97.809426,18.42 97.311426,19.818 96.315426,20.862 C95.319426,21.906 94.053426,22.428 92.517426,22.428 Z M112.532782,26.64 L112.532782,16.056 C112.532782,14.304 112.964782,12.96 113.828782,12.024 C114.692782,11.088 115.844782,10.62 117.284782,10.62 C118.700782,10.62 119.816782,11.058 120.632782,11.934 C121.448782,12.81 121.856782,14.04 121.856782,15.624 L121.856782,15.624 L121.856782,26.64 L126.896782,26.64 L126.896782,15.048 C126.896782,12.312 126.212782,10.188 124.844782,8.676 C123.476782,7.164 121.640782,6.408 119.336782,6.408 C117.752782,6.408 116.354782,6.786 115.142782,7.542 C113.930782,8.298 113.060782,9.348 112.532782,10.692 L112.532782,10.692 L112.532782,6.696 L107.456782,6.696 L107.456782,26.64 L112.532782,26.64 Z M139.172139,26.892 C140.852139,26.892 142.286139,26.49 143.474139,25.686 C144.662139,24.882 145.520139,23.808 146.048139,22.464 L146.048139,22.464 L146.048139,26.64 L151.088139,26.64 L151.088139,2.84217094e-14 L146.048139,2.84217094e-14 L146.048139,10.836 C145.520139,9.492 144.662139,8.424 143.474139,7.632 C142.286139,6.84 140.852139,6.444 139.172139,6.444 C137.492139,6.444 135.980139,6.852 134.636139,7.668 C133.292139,8.484 132.242139,9.666 131.486139,11.214 C130.730139,12.762 130.352139,14.58 130.352139,16.668 C130.352139,18.756 130.730139,20.574 131.486139,22.122 C132.242139,23.67 133.292139,24.852 134.636139,25.668 C135.980139,26.484 137.492139,26.892 139.172139,26.892 Z M140.756139,22.428 C139.172139,22.428 137.900139,21.918 136.940139,20.898 C135.980139,19.878 135.500139,18.468 135.500139,16.668 C135.500139,14.868 135.980139,13.452 136.940139,12.42 C137.900139,11.388 139.172139,10.872 140.756139,10.872 C142.292139,10.872 143.558139,11.394 144.554139,12.438 C145.550139,13.482 146.048139,14.892 146.048139,16.668 C146.048139,18.42 145.550139,19.818 144.554139,20.862 C143.558139,21.906 142.292139,22.428 140.756139,22.428 Z" id="land" fill="#2C343C"></path>
        </g>
    </g>
</svg>