<svg width="176" height="50" viewBox="0 0 176 50" fill="none" xmlns="http://www.w3.org/2000/svg">
<path d="M63.8 39C63.5333 39 63.2933 38.9067 63.08 38.72C62.8933 38.5067 62.8 38.2667 62.8 38V12C62.8 11.7067 62.8933 11.4667 63.08 11.28C63.2933 11.0933 63.5333 11 63.8 11H69.08C69.3733 11 69.6133 11.0933 69.8 11.28C69.9867 11.4667 70.08 11.7067 70.08 12V32.96H82.2C82.4933 32.96 82.7333 33.0667 82.92 33.28C83.1067 33.4667 83.2 33.7067 83.2 34V38C83.2 38.2667 83.1067 38.5067 82.92 38.72C82.7333 38.9067 82.4933 39 82.2 39H63.8ZM99.7556 39.4C95.9956 39.4 93.0356 38.48 90.8756 36.64C88.7156 34.8 87.569 32.0933 87.4356 28.52C87.409 27.7467 87.3956 26.6 87.3956 25.08C87.3956 23.5333 87.409 22.3733 87.4356 21.6C87.569 18.08 88.729 15.3733 90.9156 13.48C93.129 11.56 96.0756 10.6 99.7556 10.6C103.436 10.6 106.382 11.56 108.596 13.48C110.809 15.3733 111.969 18.08 112.076 21.6C112.129 23.1467 112.156 24.3067 112.156 25.08C112.156 25.8267 112.129 26.9733 112.076 28.52C111.942 32.0933 110.796 34.8 108.636 36.64C106.476 38.48 103.516 39.4 99.7556 39.4ZM99.7556 33.64C101.222 33.64 102.382 33.2 103.236 32.32C104.116 31.44 104.582 30.0933 104.636 28.28C104.689 26.7333 104.716 25.64 104.716 25C104.716 24.3067 104.689 23.2133 104.636 21.72C104.582 19.9067 104.116 18.56 103.236 17.68C102.356 16.8 101.196 16.36 99.7556 16.36C98.3156 16.36 97.1556 16.8 96.2756 17.68C95.4223 18.56 94.9556 19.9067 94.8756 21.72C94.849 22.4667 94.8356 23.56 94.8356 25C94.8356 26.4133 94.849 27.5067 94.8756 28.28C94.9556 30.0933 95.4223 31.44 96.2756 32.32C97.129 33.2 98.289 33.64 99.7556 33.64ZM130.352 39.4C126.512 39.4 123.512 38.4667 121.352 36.6C119.192 34.7067 118.046 32.0267 117.912 28.56C117.886 27.7867 117.872 26.56 117.872 24.88C117.872 23.2 117.886 21.9733 117.912 21.2C118.046 17.8133 119.206 15.2 121.392 13.36C123.606 11.52 126.592 10.6 130.352 10.6C132.886 10.6 135.086 11.0133 136.952 11.84C138.846 12.6667 140.286 13.72 141.272 15C142.286 16.28 142.819 17.6 142.872 18.96C142.872 19.2 142.779 19.4 142.592 19.56C142.432 19.72 142.232 19.8 141.992 19.8H136.152C135.886 19.8 135.672 19.76 135.512 19.68C135.352 19.6 135.219 19.4533 135.112 19.24C134.766 18.4667 134.219 17.8 133.472 17.24C132.726 16.6533 131.686 16.36 130.352 16.36C127.179 16.36 125.512 18.04 125.352 21.4C125.326 22.1467 125.312 23.3067 125.312 24.88C125.312 26.4267 125.326 27.5867 125.352 28.36C125.512 31.88 127.219 33.64 130.472 33.64C132.046 33.64 133.299 33.24 134.232 32.44C135.192 31.6133 135.672 30.36 135.672 28.68V27.92H131.912C131.619 27.92 131.379 27.8267 131.192 27.64C131.006 27.4267 130.912 27.1733 130.912 26.88V23.92C130.912 23.6267 131.006 23.3867 131.192 23.2C131.379 22.9867 131.619 22.88 131.912 22.88H141.992C142.286 22.88 142.526 22.9867 142.712 23.2C142.899 23.3867 142.992 23.6267 142.992 23.92V28.48C142.992 30.7467 142.472 32.7067 141.432 34.36C140.392 35.9867 138.912 37.24 136.992 38.12C135.099 38.9733 132.886 39.4 130.352 39.4ZM161.021 39.4C157.261 39.4 154.301 38.48 152.141 36.64C149.981 34.8 148.835 32.0933 148.701 28.52C148.675 27.7467 148.661 26.6 148.661 25.08C148.661 23.5333 148.675 22.3733 148.701 21.6C148.835 18.08 149.995 15.3733 152.181 13.48C154.395 11.56 157.341 10.6 161.021 10.6C164.701 10.6 167.648 11.56 169.861 13.48C172.075 15.3733 173.235 18.08 173.341 21.6C173.395 23.1467 173.421 24.3067 173.421 25.08C173.421 25.8267 173.395 26.9733 173.341 28.52C173.208 32.0933 172.061 34.8 169.901 36.64C167.741 38.48 164.781 39.4 161.021 39.4ZM161.021 33.64C162.488 33.64 163.648 33.2 164.501 32.32C165.381 31.44 165.848 30.0933 165.901 28.28C165.955 26.7333 165.981 25.64 165.981 25C165.981 24.3067 165.955 23.2133 165.901 21.72C165.848 19.9067 165.381 18.56 164.501 17.68C163.621 16.8 162.461 16.36 161.021 16.36C159.581 16.36 158.421 16.8 157.541 17.68C156.688 18.56 156.221 19.9067 156.141 21.72C156.115 22.4667 156.101 23.56 156.101 25C156.101 26.4133 156.115 27.5067 156.141 28.28C156.221 30.0933 156.688 31.44 157.541 32.32C158.395 33.2 159.555 33.64 161.021 33.64Z" fill="#5C5C70"/>
<path fill-rule="evenodd" clip-rule="evenodd" d="M25 40C33.2843 40 40 33.2843 40 25C40 16.7157 33.2843 10 25 10C16.7157 10 10 16.7157 10 25C10 33.2843 16.7157 40 25 40ZM25 50C38.8071 50 50 38.8071 50 25C50 11.1929 38.8071 0 25 0C11.1929 0 0 11.1929 0 25C0 38.8071 11.1929 50 25 50Z" fill="#5C5C70"/>
</svg>
