<?xml version="1.0" encoding="utf-8"?>
<!-- Generator: Adobe Illustrator 16.0.4, SVG Export Plug-In . SVG Version: 6.00 Build 0)  -->
<!DOCTYPE svg PUBLIC "-//W3C//DTD SVG 1.1//EN" "http://www.w3.org/Graphics/SVG/1.1/DTD/svg11.dtd">
<svg version="1.1" xmlns="http://www.w3.org/2000/svg" xmlns:xlink="http://www.w3.org/1999/xlink" x="0px" y="0px"
	 width="301.175px" height="337.838px" viewBox="0 0 301.175 337.838" enable-background="new 0 0 301.175 337.838"
	 xml:space="preserve">
<g id="svg2" xmlns:dc="http://purl.org/dc/elements/1.1/" xmlns:cc="http://creativecommons.org/ns#" xmlns:rdf="http://www.w3.org/1999/02/22-rdf-syntax-ns#" xmlns:svg="http://www.w3.org/2000/svg" display="none">
	<g id="g10" transform="matrix(1.25,0,0,-1.25,0,337.8375)" display="inline">
		<g id="g12" transform="scale(0.1,0.1)">
			<path id="path14" fill="#D5D7D4" d="M1320.183-0.001c-156.273,0-283.734,125.75-286.523,281.352h-70.715
				c-77.418,0-140.402,62.992-140.402,140.414v40.859c-50.41,4.727-94.734,38.188-112.617,86.234l-1.715,4.602l-77.582,444.914
				l-3.707,3.43c-44.156-7.836-90.238-14.172-135.461-14.172c-45.66,0-85.625,6.336-122.168,19.367
				c-101.301,36.125-173.895,124-221.441,268.32l-118.254,52.672L0,1649.194l152.289,43.219l131.379,37.266l143.508-288.875
				l-49.828-73.016h215c2.664,5.195,5.672,10.211,9.004,15.016c24.902,35.859,65.844,57.258,109.508,57.258h183.996
				c-45.801,25.906-76.785,75.07-76.785,131.352v34.961c-57.832,21.312-99.18,76.977-99.18,142.125v15.344H689
				c-23.062-21.594-53.551-33.883-86.027-33.883c-69.602,0-126.227,56.633-126.227,126.227c0,69.617,56.625,126.242,126.227,126.242
				c32.477,0,62.965-12.289,86.027-33.875h29.891v15.336c0,65.148,41.348,120.812,99.18,142.141v15.102
				c0,83.141,67.641,150.781,150.777,150.781h194.621c-54.098,45.516-87.199,113.539-87.199,186.844
				c0,134.5,109.422,243.922,243.93,243.922c134.5,0,243.922-109.422,243.922-243.922c0-73.305-33.102-141.328-87.211-186.844
				h194.633c83.141,0,150.781-67.641,150.781-150.781v-15.102c57.828-21.328,99.172-76.992,99.172-142.141v-15.336h29.891
				c23.062,21.586,53.555,33.875,86.031,33.875c69.602,0,126.219-56.625,126.219-126.242c0-69.594-56.617-126.227-126.219-126.227
				c-32.477,0-62.969,12.289-86.031,33.883h-29.891v-15.344c0-65.148-41.344-120.805-99.172-142.141v-34.945
				c0-56.281-30.984-105.445-76.797-131.352h185.492c43.672,0,84.609-21.414,109.523-57.273c3.328-4.797,6.328-9.805,8.984-15
				h359.922l-223.203-207.07c23.094-14.844,43.094-31.18,60.359-49.211c74.281-77.656,99.75-188.742,77.555-339.063l82.133-100.18
				L2288.73,371.897l-134.148,25.594l-155.5,29.656l1.273,322.562l111,61.664c15.484,110.336-11.422,139.875-20.672,150.023
				c-14.133,15.5-37.188,29.102-73.102,42.844l-6.336-5.883l-77.578-444.898l-1.703-4.602
				c-17.094-45.898-58.312-78.5-105.922-85.438v-41.656c0-77.422-62.992-140.414-140.414-140.414h-78.93
				C1603.902,125.749,1476.441-0.001,1320.183-0.001"/>
			<path id="path16" fill="#243C48" d="M1076.781,1304.139h486.793v234.164h-486.793V1304.139z"/>
			<path id="path18" fill="#243C48" d="M1320.199,2336.256c-67.656,0-122.5,54.852-122.5,122.5
				c0,67.656,54.844,122.492,122.5,122.492s122.492-54.836,122.492-122.492C1442.691,2391.108,1387.855,2336.256,1320.199,2336.256z
				 M1320.199,2649.342c-105.258,0-190.59-85.336-190.59-190.586c0-105.258,85.332-190.586,190.59-190.586
				c105.25,0,190.578,85.328,190.578,190.586C1510.777,2564.006,1425.449,2649.342,1320.199,2649.342"/>
			<path id="path20" fill="#243C48" d="M1320.199,2449.389L1320.199,2449.389c-35.547,0-64.359-28.82-64.359-64.352v-251
				c0-20.211,16.375-36.586,36.594-36.586h55.531c20.203,0,36.586,16.375,36.586,36.586v251
				C1384.551,2420.569,1355.738,2449.389,1320.199,2449.389"/>
			<path id="path22" fill="#C3327A" d="M1319.933,2139.358c-12.383,0-22.445,10.07-22.445,22.445v223.227
				c0,12.383,10.062,22.438,22.445,22.438c12.367,0,22.422-10.055,22.422-22.438v-223.227
				C1342.355,2149.428,1332.301,2139.358,1319.933,2139.358"/>
			<path id="path24" fill="#F2F2F1" d="M1335.379,2366.342v18.688c0,8.523-6.93,15.461-15.445,15.461
				c-8.523,0-15.469-6.938-15.469-15.461v-18.688H1335.379"/>
			<path id="path26" fill="#C34D84" d="M1335.379,2281.28v39.773h-30.914v-39.703
				C1314.402,2281.342,1325.496,2281.311,1335.379,2281.28"/>
			<path id="path28" fill="#97205D" d="M1304.465,2263.147v-101.344c0-8.516,6.945-15.453,15.469-15.453
				c8.516,0,15.445,6.938,15.445,15.453v101.344H1304.465"/>
			<path id="path30" fill="#243C48" d="M1654.551,1817.178h382.867v78.039h-382.867V1817.178z"/>
			<path id="path32" fill="#243C48" d="M1964.527,1856.202c0,40.25,32.633,72.891,72.891,72.891
				c40.25,0,72.891-32.641,72.891-72.891c0-40.258-32.641-72.898-72.891-72.898
				C1997.16,1783.303,1964.527,1815.944,1964.527,1856.202"/>
			<path id="path34" fill="#243C48" d="M602.973,1817.178h382.871v78.039H602.973V1817.178z"/>
			<path id="path36" fill="#A4DBDC" d="M936.383,1672.592h-85.59c-31.012,0-56.383,25.375-56.383,56.391v254.43
				c0,31.016,25.371,56.391,56.383,56.391h85.59c31.012,0,56.383-25.375,56.383-56.391v-254.43
				C992.766,1697.967,967.394,1672.592,936.383,1672.592"/>
			<path id="path38" fill="#243C48" d="M870.316,2017.624c-29.625,0-53.727-24.102-53.727-53.734v-215.391
				c0-29.617,24.102-53.727,53.727-53.727h46.543c29.625,0,53.727,24.109,53.727,53.727v215.391
				c0,29.633-24.102,53.734-53.727,53.734H870.316z M916.859,1650.413h-46.543c-54.082,0-98.086,44.008-98.086,98.086v215.391
				c0,54.094,44.004,98.094,98.086,98.094h46.543c54.082,0,98.09-44,98.09-98.094v-215.391
				C1014.949,1694.42,970.941,1650.413,916.859,1650.413"/>
			<path id="path40" fill="#243C48" d="M675.863,1856.202c0,40.25-32.633,72.891-72.891,72.891
				c-40.254,0-72.887-32.641-72.887-72.891c0-40.258,32.633-72.898,72.887-72.898
				C643.23,1783.303,675.863,1815.944,675.863,1856.202"/>
			<path id="path42" fill="#C3327A" d="M647.055,1856.202c0,24.336-19.734,44.078-44.082,44.078
				c-24.344,0-44.078-19.742-44.078-44.078c0-24.352,19.734-44.094,44.078-44.094C627.32,1812.108,647.055,1831.85,647.055,1856.202
				"/>
			<path id="path44" fill="#C9E5DC" d="M836.324,1830.522h114.527v51.484H836.324V1830.522z"/>
			<path id="path46" fill="#FFFFFF" d="M950.851,1941.069v22.82c0,18.75-15.25,33.992-33.992,33.992h-46.543
				c-18.742,0-33.992-15.242-33.992-33.992v-22.82H950.851"/>
			<path id="path48" fill="#85CBDD" d="M836.324,1806.499v-58c0-18.742,15.25-33.992,33.992-33.992h46.543
				c18.742,0,33.992,15.25,33.992,33.992v58H836.324"/>
			<path id="path50" fill="#A4DBDC" d="M1789.605,1672.592h-85.594c-31.016,0-56.391,25.375-56.391,56.391v254.43
				c0,31.016,25.375,56.391,56.391,56.391h85.594c31,0,56.375-25.375,56.375-56.391v-254.43
				C1845.98,1697.967,1820.605,1672.592,1789.605,1672.592"/>
			<path id="path52" fill="#C9E5DC" d="M1689.543,1830.522h114.531v51.484h-114.531V1830.522z"/>
			<path id="path54" fill="#FFFFFF" d="M1804.074,1941.069v22.82c0,18.75-15.25,33.992-34,33.992h-46.547
				c-18.734,0-33.984-15.242-33.984-33.992v-22.82H1804.074"/>
			<path id="path56" fill="#85CBDD" d="M1689.543,1806.499v-58c0-18.742,15.25-33.992,33.984-33.992h46.547
				c18.75,0,34,15.25,34,33.992v58H1689.543"/>
			<path id="path58" fill="#243C48" d="M1723.527,2017.624c-29.617,0-53.719-24.102-53.719-53.734v-215.391
				c0-29.617,24.102-53.727,53.719-53.727h46.547c29.625,0,53.727,24.109,53.727,53.727v215.391
				c0,29.633-24.102,53.734-53.727,53.734H1723.527z M1770.074,1650.413h-46.547c-54.078,0-98.086,44.008-98.086,98.086v215.391
				c0,54.094,44.008,98.094,98.086,98.094h46.547c54.086,0,98.086-44,98.086-98.094v-215.391
				C1868.16,1694.42,1824.16,1650.413,1770.074,1650.413"/>
			<path id="path60" fill="#A4DBDC" d="M1651.027,1502.03H989.359c-52.895,0-95.77,42.883-95.77,95.781v508.695
				c0,52.906,42.875,95.781,95.77,95.781h661.668c52.891,0,95.773-42.875,95.773-95.781v-508.695
				C1746.801,1544.913,1703.918,1502.03,1651.027,1502.03"/>
			<path id="path62" fill="#FFFFFF" d="M957.941,1555.108v549.734c0,41.57,33.695,75.258,75.258,75.258h691.687
				c-13.625,13.703-32.5,22.188-53.344,22.188H968.851c-41.566,0-75.262-33.695-75.262-75.266v-549.719
				c0-41.57,33.695-75.273,75.262-75.273h11.008C966.316,1515.639,957.941,1534.397,957.941,1555.108"/>
			<path id="path64" fill="#85CBDD" d="M1671.543,1502.03h-367.094l38.375,354.172h-38.375l34.359,346.086h332.734
				c41.562,0,75.258-33.695,75.258-75.266v-549.719C1746.801,1535.733,1713.105,1502.03,1671.543,1502.03"/>
			<path id="path66" fill="#243C48" d="M968.848,2174.209c-29.266,0-53.078-23.812-53.078-53.078v-549.719
				c0-29.273,23.812-53.086,53.078-53.086h702.695c29.266,0,53.078,23.812,53.078,53.086v549.719
				c0,29.266-23.812,53.078-53.078,53.078H968.848z M1671.543,1473.967H968.848c-53.727,0-97.438,43.711-97.438,97.445v549.719
				c0,53.727,43.711,97.438,97.438,97.438h702.695c53.727,0,97.438-43.711,97.438-97.438v-549.719
				C1768.98,1517.678,1725.269,1473.967,1671.543,1473.967"/>
			<path id="path68" fill="#F2F2F1" d="M607.762,1870.858c0-9.195-7.457-16.656-16.656-16.656c-9.203,0-16.66,7.461-16.66,16.656
				c0,9.203,7.457,16.664,16.66,16.664C600.305,1887.522,607.762,1880.061,607.762,1870.858"/>
			<path id="path70" fill="#F2F2F1" d="M624.855,1844.538c0-5.609-4.543-10.148-10.152-10.148c-5.605,0-10.152,4.539-10.152,10.148
				s4.547,10.156,10.152,10.156C620.312,1854.694,624.855,1850.147,624.855,1844.538"/>
			<path id="path72" fill="#C3327A" d="M2081.496,1856.202c0,24.336-19.734,44.078-44.078,44.078s-44.094-19.742-44.094-44.078
				c0-24.352,19.75-44.094,44.094-44.094S2081.496,1831.85,2081.496,1856.202"/>
			<path id="path74" fill="#F2F2F1" d="M2042.199,1870.858c0-9.195-7.453-16.656-16.648-16.656s-16.664,7.461-16.664,16.656
				c0,9.203,7.469,16.664,16.664,16.664S2042.199,1880.061,2042.199,1870.858"/>
			<path id="path76" fill="#F2F2F1" d="M2059.301,1844.538c0-5.609-4.555-10.148-10.148-10.148c-5.609,0-10.164,4.539-10.164,10.148
				s4.555,10.156,10.164,10.156C2054.746,1854.694,2059.301,1850.147,2059.301,1844.538"/>
			<path id="path78" fill="#243C48" d="M1257.418,1863.17c-11.594,0-20.977,9.391-20.977,20.977
				c0,61.086-49.691,110.781-110.77,110.781c-61.082,0-110.773-49.695-110.773-110.781c0-11.586-9.398-20.977-20.984-20.977
				c-11.594,0-20.988,9.391-20.988,20.977c0,84.234,68.523,152.75,152.746,152.75c84.215,0,152.738-68.516,152.738-152.75
				C1278.41,1872.561,1269.012,1863.17,1257.418,1863.17"/>
			<path id="path80" fill="#243C48" d="M1645.715,1863.17c-11.586,0-20.984,9.391-20.984,20.977
				c0,61.086-49.68,110.781-110.766,110.781c-61.078,0-110.766-49.695-110.766-110.781c0-11.586-9.398-20.977-20.984-20.977
				c-11.594,0-21,9.391-21,20.977c0,84.234,68.523,152.75,152.75,152.75s152.75-68.516,152.75-152.75
				C1666.715,1872.561,1657.308,1863.17,1645.715,1863.17"/>
			<path id="path82" fill="#243C48" d="M1540.59,1669.194c0-31.312-25.375-56.695-56.68-56.695s-56.68,25.383-56.68,56.695
				c0,31.297,25.375,56.68,56.68,56.68S1540.59,1700.491,1540.59,1669.194"/>
			<path id="path84" fill="#243C48" d="M185.543,1335.17c41.809-153.476,107.922-244.508,201.664-277.929
				c87.402-31.172,189.348-11.367,288.035,8.016l-20.891,107.742c-93.402-18.359-173.996-34.047-232.125-11.711
				c-36.645,14.086-89.074,50.352-130.062,199.914L185.543,1335.17"/>
			<path id="path86" fill="#243C48" d="M57.176,1609.983l58.363,16.547l58.758-207.086l81.711,23.18l-58.762,207.094l58.363,16.562
				l109.895-221.219l-68.918-101l-105.055-29.812l-111.691,49.75L57.176,1609.983"/>
			<path id="path88" fill="#243C48" d="M2263.691,735.78c31.445,155.93,13.164,266.938-55.633,338.852
				c-64.148,67.047-164.148,95.055-261.047,121.977l-29.641-105.656c91.719-25.484,170.789-47.594,212.734-93.617
				c26.438-29.023,57.031-84.953,26.609-237.016L2263.691,735.78"/>
			<path id="path90" fill="#243C48" d="M2255.199,432.592l-59.594,11.367l40.344,211.453l-83.43,15.922l-40.336-211.461
				l-59.594,11.367l0.969,247.008l106.891,59.375l107.266-20.461l77.523-94.555L2255.199,432.592"/>
			<path id="path92" fill="#243C48" d="M368.348,1314.452h292.656l88.828-8.414l128.762-345.867l-74.582-49.898L368.348,1314.452"/>
			<path id="path94" fill="#A4DBDC" d="M658.906,1269.999H481.609l357.781-331.914L717.898,1264.42L658.906,1269.999"/>
			<path id="path96" fill="#FFFFFF" d="M658.906,1233.452l58.992-5.57l100.711-270.523l20.781-19.273L717.898,1264.42l-58.992,5.578
				H481.609l39.395-36.547H658.906"/>
			<path id="path98" fill="#243C48" d="M1763.277,960.171l128.773,345.867l88.82,8.414h292.656l-435.656-404.18L1763.277,960.171"/>
			<path id="path100" fill="#85CBDD" d="M1982.965,1269.999h177.305L1802.48,938.085l121.5,326.336L1982.965,1269.999"/>
			<path id="path102" fill="#FFFFFF" d="M1922.988,1227.882l59,5.57h138.883l39.398,36.547h-177.305l-58.984-5.578l-121.5-326.336
				l19.289,17.883L1922.988,1227.882"/>
			<path id="path104" fill="#243C48" d="M974.141,432.952v171.031h-98.258V421.764c0-48.094,38.977-87.07,87.062-87.07h182.227
				v98.258H974.141"/>
			<path id="path106" fill="#243C48" d="M1674.441,432.952v171.031h98.258V421.764c0-48.094-38.984-87.07-87.07-87.07H1503.41
				v98.258H1674.441"/>
			<path id="path108" fill="#243C48" d="M1333.902,53.343h-27.438c-120.734,0-219.516,98.781-219.516,219.508v333.242
				c0,120.727,98.781,219.508,219.516,219.508h27.438c120.727,0,219.5-98.781,219.5-219.508V272.85
				C1553.402,152.124,1454.629,53.343,1333.902,53.343"/>
			<path id="path110" fill="#0F2833" d="M1320.183,106.678c-99.195,0-179.895,80.703-179.895,179.891v305.805
				c0,99.188,80.699,179.891,179.895,179.891c99.188,0,179.891-80.703,179.891-179.891V286.569
				C1500.074,187.382,1419.371,106.678,1320.183,106.678"/>
			<path id="path112" fill="#243C48" d="M1524.933,398.624l-63.883,71.539c-6.477,7.258-18.992,7.258-25.477,0l-51.141-57.281
				l-51.141,57.281c-6.484,7.258-18.992,7.258-25.469,0l-51.156-57.281l-51.148,57.281c-6.48,7.258-18.988,7.258-25.469,0
				l-63.879-71.539c-6.281-7.039-5.672-17.82,1.359-24.102c7.027-6.305,17.828-5.68,24.109,1.359l51.141,57.281l51.152-57.281
				c0.203-0.242,0.453-0.398,0.672-0.609c0.25-0.25,0.438-0.523,0.695-0.75c0.227-0.211,0.5-0.352,0.742-0.555
				c0.445-0.344,0.891-0.68,1.359-0.984c0.539-0.352,1.078-0.648,1.648-0.945c0.461-0.227,0.914-0.445,1.391-0.625
				c0.617-0.25,1.25-0.445,1.883-0.609c0.469-0.125,0.914-0.242,1.375-0.32c0.68-0.125,1.359-0.172,2.039-0.211
				c0.312-0.023,0.617-0.102,0.93-0.102c0.164,0,0.312,0.039,0.461,0.047c0.5,0.016,0.992,0.07,1.492,0.133
				c0.547,0.062,1.094,0.133,1.648,0.25c0.492,0.109,0.961,0.25,1.445,0.391c0.531,0.172,1.062,0.352,1.586,0.578
				c0.469,0.203,0.93,0.422,1.383,0.664c0.484,0.266,0.969,0.555,1.438,0.867c0.453,0.297,0.867,0.609,1.289,0.953
				c0.211,0.164,0.43,0.289,0.633,0.469c0.234,0.211,0.406,0.461,0.625,0.688c0.242,0.234,0.516,0.414,0.734,0.672l51.148,57.281
				l51.148-57.281c0.211-0.242,0.461-0.398,0.68-0.609c0.242-0.25,0.422-0.523,0.68-0.75c0.242-0.211,0.516-0.352,0.75-0.555
				c0.438-0.344,0.891-0.68,1.359-0.984c0.531-0.352,1.078-0.648,1.641-0.945c0.461-0.227,0.922-0.445,1.391-0.625
				c0.633-0.25,1.266-0.445,1.906-0.609c0.445-0.125,0.891-0.242,1.359-0.32c0.672-0.125,1.359-0.172,2.047-0.211
				c0.312-0.023,0.617-0.102,0.93-0.102c0.148,0,0.305,0.039,0.461,0.047c0.5,0.016,0.984,0.07,1.477,0.133
				c0.562,0.062,1.117,0.133,1.664,0.25c0.484,0.109,0.953,0.25,1.438,0.391c0.531,0.172,1.062,0.352,1.594,0.578
				c0.469,0.203,0.922,0.422,1.375,0.664c0.492,0.266,0.969,0.555,1.438,0.867c0.438,0.297,0.875,0.609,1.297,0.953
				c0.195,0.164,0.422,0.289,0.617,0.469c0.242,0.211,0.414,0.461,0.641,0.688c0.227,0.234,0.5,0.414,0.727,0.672l51.156,57.281
				l51.141-57.281c3.375-3.781,8.047-5.711,12.75-5.711c4.031,0,8.094,1.43,11.359,4.352
				C1530.605,380.803,1531.215,391.585,1524.933,398.624"/>
			<path id="path114" fill="#243C48" d="M1524.933,236.139l-63.883,71.539c-6.477,7.266-18.992,7.266-25.477,0l-51.141-57.281
				l-51.141,57.281c-6.484,7.266-18.992,7.266-25.469,0l-51.156-57.281l-51.148,57.281c-6.48,7.266-18.988,7.266-25.469,0
				l-63.879-71.539c-6.281-7.039-5.672-17.82,1.359-24.102c7.027-6.297,17.828-5.68,24.109,1.359l51.141,57.281l51.152-57.281
				c0.203-0.234,0.453-0.398,0.672-0.609c0.25-0.25,0.438-0.516,0.695-0.75c0.227-0.203,0.5-0.344,0.742-0.547
				c0.445-0.352,0.891-0.68,1.359-0.992c0.539-0.352,1.078-0.648,1.648-0.938c0.461-0.227,0.914-0.453,1.391-0.633
				c0.617-0.25,1.25-0.438,1.883-0.609c0.469-0.117,0.914-0.234,1.375-0.32c0.68-0.117,1.359-0.164,2.039-0.211
				c0.312-0.016,0.617-0.094,0.93-0.094c0.164,0,0.312,0.039,0.461,0.047c0.5,0.008,0.992,0.07,1.492,0.133
				c0.547,0.055,1.094,0.125,1.648,0.25c0.492,0.109,0.961,0.25,1.445,0.391c0.531,0.164,1.062,0.344,1.586,0.578
				c0.469,0.195,0.93,0.422,1.383,0.656c0.484,0.273,0.969,0.562,1.438,0.875c0.453,0.297,0.867,0.609,1.289,0.945
				c0.211,0.172,0.43,0.289,0.633,0.469c0.234,0.211,0.406,0.461,0.625,0.695c0.242,0.227,0.516,0.406,0.734,0.664l51.148,57.281
				l51.148-57.281c0.211-0.234,0.461-0.398,0.68-0.609c0.242-0.25,0.422-0.516,0.68-0.75c0.242-0.203,0.516-0.344,0.75-0.547
				c0.438-0.352,0.891-0.68,1.359-0.992c0.531-0.352,1.078-0.648,1.641-0.938c0.461-0.227,0.922-0.453,1.391-0.633
				c0.633-0.25,1.266-0.438,1.906-0.609c0.445-0.117,0.891-0.234,1.359-0.32c0.672-0.117,1.359-0.164,2.047-0.211
				c0.312-0.016,0.617-0.094,0.93-0.094c0.148,0,0.305,0.039,0.461,0.047c0.5,0.008,0.984,0.07,1.477,0.133
				c0.562,0.055,1.117,0.125,1.664,0.25c0.484,0.109,0.953,0.25,1.438,0.391c0.531,0.164,1.062,0.344,1.594,0.578
				c0.469,0.195,0.922,0.422,1.375,0.656c0.492,0.273,0.969,0.562,1.438,0.875c0.438,0.297,0.875,0.609,1.297,0.945
				c0.195,0.172,0.422,0.289,0.617,0.469c0.242,0.211,0.414,0.461,0.641,0.695c0.227,0.227,0.5,0.406,0.727,0.664l51.156,57.281
				l51.141-57.281c3.375-3.773,8.047-5.703,12.75-5.703c4.031,0,8.094,1.43,11.359,4.344
				C1530.605,218.319,1531.215,229.1,1524.933,236.139"/>
			<path id="path116" fill="#243C48" d="M834.887,515.374c-33.246,0-63.379,20.938-74.98,52.094l-124.035,711.336
				c-9.137,24.547-5.668,52.047,9.281,73.57c14.945,21.508,39.508,34.359,65.703,34.359h1220.164
				c26.195,0,50.773-12.852,65.711-34.375c14.953-21.516,18.406-49.008,9.258-73.555l-124.023-711.336
				c-11.594-31.156-41.734-52.094-74.977-52.094H834.887"/>
			<path id="path118" fill="#A4DBDC" d="M677.531,1294.311l124.031-711.344c5.184-13.914,18.473-23.148,33.324-23.148h972.101
				c14.852,0,28.141,9.234,33.32,23.148l124.031,711.344c8.648,23.242-8.531,47.969-33.32,47.969H710.855
				C686.066,1342.28,668.883,1317.553,677.531,1294.311"/>
			<path id="path120" fill="#FFFFFF" d="M848.301,582.967l-124.031,711.344c-8.652,23.242,8.531,47.969,33.324,47.969h-46.738
				c-24.789,0-41.973-24.727-33.324-47.969l124.031-711.344c5.184-13.914,18.473-23.148,33.324-23.148h46.738
				C866.769,559.819,853.48,569.053,848.301,582.967"/>
			<path id="path122" fill="#85CBDD" d="M1321.465,559.819h485.523c14.852,0,28.141,9.234,33.32,23.148l124.031,711.344
				c8.648,23.242-8.531,47.969-33.32,47.969h-610.851L1321.465,559.819"/>
			<path id="path124" fill="#C3327A" d="M1874.519,1144.389c0,39.383-31.914,71.312-71.305,71.312s-71.312-31.93-71.312-71.312
				c0-39.391,31.922-71.32,71.312-71.32S1874.519,1104.999,1874.519,1144.389"/>
			<path id="path126" fill="#F2F2F1" d="M1810.965,1168.124c0-14.891-12.078-26.953-26.953-26.953
				c-14.891,0-26.953,12.062-26.953,26.953c0,14.875,12.062,26.945,26.953,26.945
				C1798.886,1195.069,1810.965,1182.999,1810.965,1168.124"/>
			<path id="path128" fill="#F2F2F1" d="M1838.605,1125.53c0-9.07-7.344-16.43-16.422-16.43s-16.422,7.359-16.422,16.43
				s7.344,16.43,16.422,16.43S1838.605,1134.6,1838.605,1125.53"/>
			<path id="path130" fill="#C3327A" d="M1831.73,902.811c0,39.391-31.93,71.32-71.32,71.32c-39.383,0-71.305-31.93-71.305-71.32
				c0-39.383,31.922-71.312,71.305-71.312C1799.801,831.499,1831.73,863.428,1831.73,902.811"/>
			<path id="path132" fill="#F2F2F1" d="M1768.16,926.538c0-14.875-12.07-26.945-26.945-26.945
				c-14.891,0-26.953,12.07-26.953,26.945c0,14.883,12.062,26.953,26.953,26.953C1756.09,953.491,1768.16,941.421,1768.16,926.538"
				/>
			<path id="path134" fill="#F2F2F1" d="M1795.824,883.952c0-9.07-7.359-16.422-16.438-16.422c-9.062,0-16.422,7.352-16.422,16.422
				c0,9.078,7.359,16.43,16.422,16.43C1788.465,900.382,1795.824,893.03,1795.824,883.952"/>
			<path id="path136" fill="#F2F2F1" d="M1092.058,1110.327H849.109c0,67.094,54.387,121.484,121.477,121.484
				C1037.672,1231.811,1092.058,1177.421,1092.058,1110.327"/>
			<path id="path138" fill="#C9E5DC" d="M970.586,1204.733c48.086,0,90.324-21.922,114.836-55.055
				c-16.371,47.75-61.543,82.133-114.836,82.133c-53.297,0-98.469-34.383-114.832-82.125
				C880.266,1182.811,922.504,1204.733,970.586,1204.733"/>
			<path id="path140" fill="#85CBDD" d="M833.281,1034.921h274.609v51.797H833.281V1034.921z"/>
			<path id="path142" fill="#243C48" d="M833.281,1058.538h274.609v51.797H833.281V1058.538z"/>
			<path id="path144" fill="#243C48" d="M970.59,1063.663c-3.793,0-7.363,2.305-8.793,6.047l-38.641,101.25
				c-1.855,4.859,0.582,10.297,5.434,12.148c4.863,1.852,10.297-0.578,12.145-5.43l38.641-101.25
				c1.852-4.859-0.582-10.297-5.438-12.148C972.836,1063.858,971.703,1063.663,970.59,1063.663"/>
		</g>
	</g>
</g>
<g id="Layer_2">
	<g>
		<path fill="#FFFFFF" d="M96.058,212.865v17.85c0.187,0.376,0.187,0.941-0.188,1.315c-6.203,9.773-17.101,16.161-29.504,16.161
			c-19.168,0.189-34.578-15.408-34.578-34.765c0-19.354,15.41-34.766,34.766-34.766c12.402,0,23.302,6.58,29.504,16.351
			c0.375,0.562,0.187,1.5-0.564,1.88l-10.336,6.014c-0.751,0.374-1.503,0.187-1.879-0.565c-3.57-5.448-9.772-9.021-16.725-9.021
			c-11.275,0-20.108,9.207-20.108,20.107c0,10.899,9.021,20.109,20.108,20.109c5.825,0,11.086-2.445,14.846-6.767v-14.096
			c0-0.752,0.563-1.312,1.315-1.312h11.839C95.494,211.547,96.058,212.112,96.058,212.865L96.058,212.865z M117.48,220.755v12.403
			h32.134c0.75,0,1.315,0.565,1.315,1.315v11.838c0,0.753-0.75,1.318-1.315,1.318l-45.289-0.191c-0.751,0-1.316-0.75-1.316-1.313
			v-65.396c0-0.749,0.564-1.317,1.316-1.317h45.289c0.75,0,1.315,0.568,1.315,1.317v11.838c0,0.753-0.75,1.318-1.315,1.318H117.48
			v12.027h23.114c0.751,0,1.315,0.563,1.315,1.313v11.838c0,0.751-0.751,1.318-1.315,1.318H117.48V220.755z M172.726,220.755v12.403
			h32.137c0.753,0,1.313,0.565,1.313,1.315v11.838c0,0.753-0.751,1.318-1.313,1.318l-45.288-0.191c-0.753,0-1.317-0.75-1.317-1.313
			v-65.396c0-0.749,0.564-1.317,1.317-1.317h45.288c0.753,0,1.313,0.568,1.313,1.317v11.838c0,0.753-0.751,1.318-1.313,1.318
			h-32.137v12.027h23.116c0.751,0,1.313,0.563,1.313,1.313v11.838c0,0.751-0.75,1.318-1.313,1.318h-23.116V220.755z M228.73,180.728
			v29.504l21.421-29.504c0.565-0.749,1.315-1.317,2.066-1.317h13.907c0.751,0,1.128,0.754,0.562,1.317l-23.679,32.884l23.679,32.699
			c0.565,0.753,0.188,1.318-0.562,1.318h-13.907c-0.751,0-1.501-0.753-2.066-1.318l-21.611-29.504v29.695
			c0,0.747-0.563,1.312-1.314,1.312h-11.84c-0.753,0-1.314-0.751-1.314-1.312v-65.774c0-0.749,0.562-1.317,1.314-1.317h11.84
			C227.976,179.411,228.73,179.979,228.73,180.728L228.73,180.728z"/>
	</g>
	<g>
		<path fill="#FFFFFF" d="M73.883,318.288v-50.74c0-0.374,0.189-0.563,0.563-0.563h3.947c0.377,0,0.564,0.189,0.564,0.563v58.444
			c0,0.375-0.187,0.563-0.564,0.563h-4.321c-0.377,0-0.565-0.188-0.94-0.563l-36.457-50.738v50.548c0,0.378-0.188,0.565-0.563,0.565
			h-3.57c-0.375,0-0.564-0.188-0.564-0.565v-58.44c0-0.377,0.188-0.565,0.564-0.565h4.51c0,0,0.376,0,0.563,0.188L73.883,318.288z
			 M95.118,266.984c0.188,0,0.376,0.189,0.376,0.377v58.818c0,0.188-0.188,0.376-0.376,0.376h-4.323
			c-0.188,0-0.375-0.188-0.375-0.376v-58.818c0-0.188,0.187-0.377,0.375-0.377H95.118z M160.89,294.983
			c0.188,0,0.374,0.189,0.374,0.376v16.539c-5.261,8.643-14.845,14.657-25.744,14.657c-16.536,0-29.879-13.343-29.879-29.88
			s13.343-29.88,29.879-29.88c10.899,0,20.483,5.824,25.744,14.657c0.189,0.19,0,0.563-0.187,0.563l-3.573,2.068
			c-0.186,0-0.374,0-0.562-0.188c-4.32-7.328-12.402-12.215-21.233-12.215c-13.907,0-24.995,11.466-24.995,24.994
			c0,13.53,10.9,24.992,24.995,24.992c8.456,0,16.16-4.321,20.668-11.086v-15.223c0-0.187,0.19-0.376,0.379-0.376H160.89
			L160.89,294.983z M211.063,266.984c0.188,0,0.376,0.189,0.376,0.377v58.818c0,0.188-0.188,0.376-0.376,0.376h-4.319
			c-0.192,0-0.382-0.188-0.382-0.376v-26.873h-32.504v26.873c0,0.188-0.19,0.376-0.378,0.376h-4.51c-0.19,0-0.378-0.188-0.378-0.376
			v-58.818c0-0.188,0.188-0.377,0.378-0.377h4.321c0.188,0,0.376,0.189,0.376,0.377v26.871h32.509v-26.871
			c0-0.188,0.186-0.377,0.375-0.377H211.063z M220.834,267.361c0-0.188,0-0.377,0.19-0.377h45.851c0.188,0,0.188,0.189,0.188,0.377
			v4.32c0,0.189,0,0.375-0.188,0.375h-20.295v54.123c0,0.188-0.187,0.376-0.375,0.376h-4.323c-0.188,0-0.376-0.188-0.376-0.376
			v-54.123h-20.481c-0.19,0-0.19-0.186-0.19-0.375V267.361z"/>
	</g>
	<g>
		<path fill="#FFFFFF" d="M157.883,11.788v147.894l-11.651-11.462V48.058l-51.491,72.536L43.439,48.058V148.22l-11.463,11.462
			V11.788l62.765,88.699L157.883,11.788L157.883,11.788z M132.89,159.682V89.588l-38.148,53.745L56.594,89.588v70.281
			l-11.462-11.463V53.32l49.609,70.094l49.799-70.094v94.9L132.89,159.682z M192.648,23.253V148.22l-11.464,11.462V11.602
			L192.648,23.253z M194.337,83.574V23.44l11.651-11.838v44.16l43.6-43.598v16.161L194.337,83.574L194.337,83.574z M210.876,86.018
			l56.188,56.188h-16.348l-56.379-56.188l56.191-56.189h16.347L210.876,86.018z M249.588,143.333v16.349l-43.6-43.597v43.597
			l-11.46-11.462V88.272L249.588,143.333L249.588,143.333z"/>
	</g>
</g>
</svg>
