<?xml version="1.0" encoding="utf-8"?>
<!-- Generator: Adobe Illustrator 16.0.4, SVG Export Plug-In . SVG Version: 6.00 Build 0)  -->
<!DOCTYPE svg PUBLIC "-//W3C//DTD SVG 1.1//EN" "http://www.w3.org/Graphics/SVG/1.1/DTD/svg11.dtd">
<svg version="1.1" xmlns="http://www.w3.org/2000/svg" xmlns:xlink="http://www.w3.org/1999/xlink" x="0px" y="0px" width="280px"
	 height="330px" viewBox="0 0 280 330" enable-background="new 0 0 280 330" xml:space="preserve">
<g id="Layer_2">
	<rect fill="#FFFFFF" width="280" height="330"/>
</g>
<g id="Layer_1">
	<title>logo-main</title>
	<path d="M100.767,202.258l-40.858-88.607l25.142-8.196l-8.233-52.586l54.149,21.094l17.229-28.576l14.769,42.359l-31.444-12.307
		l-12.023,19.863L100.767,202.258z M86.429,106.267l14.104,90.134l17.611-100.422L86.429,106.267z M61.607,114.401l37.609,81.544
		l-13.968-89.248L61.607,114.401z M78.369,54.788l7.876,50.285l32.268-10.522l11.765-19.531L78.369,54.788z M132.075,74.417
		l28.76,11.224l-13.021-37.363L132.075,74.417z"/>
	<path d="M59.663,115.657l17.451-62.395l72.941-7.249L59.663,115.657z M78.123,54.407l-16.27,58.013l84.042-64.757L78.123,54.407z"
		/>
	<rect x="118.51" y="90.261" transform="matrix(-0.9815 0.1915 -0.1915 -0.9815 295.5735 153.1869)" width="43.75" height="1.231"/>
	<circle cx="77.593" cy="53.828" r="5.193"/>
	<circle cx="60.758" cy="114.032" r="5.193"/>
	<circle cx="100.508" cy="200.215" r="5.193"/>
	<circle cx="147.975" cy="46.838" r="5.193"/>
	<circle cx="161.856" cy="86.699" r="5.193"/>
	<circle cx="118.919" cy="95.08" r="5.193"/>
	<g>
		<path d="M152.061,201.938l-0.222-0.296l-25.77-33.535l43.234-15.568l-32.982-42.015l55.207-8.849l-20.096-59.601l43.762,25.93
			v0.333l3.113,89.752l-0.061,0.135l-17.537,37.314l-0.111-1.575L152.061,201.938z M128.075,168.711l24.527,31.837l47.849-7.803
			l-8.614-89.912l-53.264,8.529l32.748,41.707L128.075,168.711z M192.968,102.255l8.528,88.693l15.592-33.104l-3.039-87.586
			L192.968,102.255z M173.658,44.82l18.854,55.896l21.205-32.157L173.658,44.82z"/>
		<polygon points="152.897,201.422 151.74,201.003 169.732,152.564 192.328,100.605 218.27,157.708 217.15,158.225 192.34,103.633 
			170.877,153.02 		"/>
		<polygon points="202.801,194.48 126.364,168.76 136.837,110.808 138.043,111.029 127.767,167.936 199.404,192.031 
			169.818,153.155 170.803,152.404 		"/>
		<path d="M170.311,152.773"/>
		
			<rect x="193.395" y="131.528" transform="matrix(-0.1087 0.9941 -0.9941 -0.1087 369.543 -20.6079)" width="1.231" height="47.676"/>
		<circle cx="192.34" cy="102.119" r="5.194"/>
		<circle cx="201.103" cy="193.25" r="5.193"/>
		<circle cx="127.066" cy="168.342" r="5.194"/>
		<circle cx="137.44" cy="110.918" r="5.193"/>
		<circle cx="152.318" cy="201.212" r="5.194"/>
		<circle cx="172.551" cy="43.454" r="5.193"/>
		<circle cx="214.59" cy="68.362" r="5.193"/>
		<circle cx="217.704" cy="157.967" r="5.193"/>
		<circle cx="170.311" cy="152.773" r="5.193"/>
	</g>
	<path d="M27.76,255.527c-1.208-1.177-2.812-1.858-4.498-1.912c-3.036,0-5.004,1.294-5.004,6.41v15.967H10.5v-29.517h7.758v1.968
		c1.571-1.677,3.775-2.616,6.072-2.586c2.023-0.066,3.989,0.683,5.454,2.079L27.76,255.527z"/>
	<path d="M57.142,263.736H39.489c-0.011,3.104,2.499,5.63,5.604,5.64c0.156,0,0.312-0.005,0.468-0.018
		c1.908,0.072,3.754-0.687,5.061-2.08l5.51,4.61c-2.648,3.069-6.515,4.818-10.57,4.778c-8.489,0-13.887-6.016-13.887-15.349
		c0-9.052,5.678-15.405,13.156-15.405c7.871,0,12.425,6.972,12.425,15.405C57.258,262.126,57.22,262.933,57.142,263.736z
		 M44.436,252.604c-2.811,0-4.498,2.305-4.835,5.285h10.12C49.496,255.246,47.922,252.604,44.436,252.604z"/>
	<path d="M66.397,256.427c-2.919,0-5.285-2.365-5.285-5.284c0-2.92,2.366-5.285,5.285-5.285c2.918,0,5.285,2.365,5.285,5.285l0,0
		C71.646,254.046,69.3,256.391,66.397,256.427z M66.397,276.667c-2.919,0-5.285-2.365-5.285-5.284c0-2.921,2.366-5.284,5.285-5.284
		c2.918,0,5.285,2.363,5.285,5.284l0,0c-0.066,2.881-2.403,5.193-5.285,5.229V276.667z"/>
	<path d="M93.271,275.992v-1.854c-1.689,1.59-3.921,2.475-6.241,2.474c-6.296,0-11.469-4.723-11.469-15.742
		c0-8.828,4.16-15.012,11.469-15.012c2.292-0.022,4.514,0.799,6.241,2.305v-9.276l7.759-3.88v40.986H93.271z M93.271,255.696
		c-1.199-1.657-3.14-2.613-5.184-2.552c-2.98,0-4.61,2.586-4.61,7.532c0,6.073,2.023,8.603,5.06,8.603
		c1.919,0.078,3.735-0.863,4.779-2.474v-11.133L93.271,255.696z"/>
	<path d="M131.941,263.736h-17.666c-0.01,3.104,2.5,5.63,5.604,5.64c0.156,0,0.312-0.005,0.468-0.018
		c1.909,0.072,3.754-0.687,5.06-2.08l5.51,4.61c-2.648,3.069-6.515,4.818-10.57,4.778c-8.49,0-13.887-6.016-13.887-15.349
		c0-9.052,5.679-15.405,13.157-15.405c7.871,0,12.425,6.972,12.425,15.405C132.049,262.126,132.015,262.933,131.941,263.736z
		 M119.235,252.604c-2.812,0-4.498,2.305-4.836,5.285h10.121c-0.236-2.644-1.81-5.285-5.296-5.285H119.235z"/>
	<path d="M152.294,275.992h-7.983l-10.627-29.517h8.547l4.329,13.663c0.73,2.248,1.518,5.059,1.855,6.465
		c0.337-1.461,1.124-4.161,1.854-6.465l4.329-13.663h8.322L152.294,275.992z"/>
	<path d="M189.896,263.736h-17.655c0.024,3.135,2.585,5.659,5.722,5.635c0.117,0,0.234-0.005,0.352-0.013
		c1.907,0.072,3.754-0.687,5.059-2.08l5.511,4.61c-2.648,3.069-6.516,4.818-10.569,4.778c-8.489,0-13.888-6.016-13.888-15.349
		c0-9.052,5.623-15.405,13.155-15.405c7.873,0,12.427,6.972,12.427,15.405C190.011,262.126,189.974,262.933,189.896,263.736z
		 M177.189,252.604c-2.812,0-4.498,2.305-4.836,5.285h10.12C182.249,255.246,180.675,252.604,177.189,252.604L177.189,252.604z"/>
	<path d="M195.597,275.992v-37.106l7.758-3.88v40.986H195.597z"/>
	<path d="M222.123,276.611c-7.703,0-13.324-6.298-13.324-15.349c0-9.052,5.621-15.405,13.324-15.405s13.382,6.354,13.382,15.405
		C235.505,270.313,229.769,276.611,222.123,276.611z M222.123,253.335c-3.712,0-5.454,3.373-5.454,7.928
		c0,4.554,1.742,7.872,5.454,7.872s5.51-3.768,5.51-7.872C227.633,256.765,225.835,253.335,222.123,253.335z"/>
	<path d="M254.867,276.611c-2.285,0.038-4.505-0.762-6.241-2.249v8.657l-7.759,3.88v-40.367h7.759v1.854
		c1.689-1.59,3.922-2.473,6.241-2.473c6.297,0,11.469,4.723,11.469,15.743C266.336,270.426,262.177,276.611,254.867,276.611z
		 M253.382,253.145c-1.918-0.079-3.735,0.862-4.779,2.473v11.133c1.215,1.661,3.175,2.61,5.229,2.529
		c2.981,0,4.612-2.587,4.612-7.533C258.465,255.696,256.441,253.145,253.382,253.145z"/>
</g>
</svg>
