<svg id="Layer_1" data-name="Layer 1" xmlns="http://www.w3.org/2000/svg" viewBox="0 0 283.46 283.47"><defs><style>.cls-1{fill:#fff100;}.cls-2{fill:#231f20;}</style></defs><title>logo</title><rect class="cls-1" width="283.46" height="283.47"/><path class="cls-2" d="M55.06,254.93H41.29L25.06,162.09h16.4l7,48.25,0.33,3h1.31l0.49-3,7.54-48.25H71l7.54,48.25,0.49,3h1.31l0.33-3,7-48.25h16.4L87.85,254.93H74.08l-8.2-44-1-5.44H64.25l-1,5.44Z"/><path class="cls-2" d="M123.28,254.93H109.34V162.09h13.93c32.79,0.12,35.25,10.1,35.25,46.48S156.06,254.8,123.28,254.93ZM127,241.28c12.46,0,13.28-2.4,13.12-32.84,0.16-30.32-.66-32.71-13.12-32.71v65.55Z"/><path class="cls-2" d="M213.12,223.09v12.76s0.17,20.08-23.61,20.08-23.61-20.08-23.61-20.08V181.16s-0.16-20.08,23.61-20.08,23.61,20.08,23.61,20.08v12.75H196.56V181.16s0.66-6.82-6.72-6.82c-6.23,0-6.23,6.82-6.23,6.82v54.69s0,6.82,6.23,6.82c7.38,0,6.72-6.82,6.72-6.82V223.09h16.56Z"/><path class="cls-2" d="M218.21,240.91h17.22v14H218.21v-14Z"/></svg>