<svg xmlns="http://www.w3.org/2000/svg" width="300" height="300" viewBox="0 0 300 300"><svg xmlns:figma="http://www.figma.com/figma/ns" xmlns:xlink="http://www.w3.org/1999/xlink" height="300" width="300" viewBox="0 0 512 512"><g style="mix-blend-mode:normal" figma:type="symbol"><g style="isolation:isolate;mix-blend-mode:normal" figma:type="ellipse" transform="translate(-837 419)"><use style="mix-blend-mode:normal" xlink:href="#a" fill="#DD4A68" transform="translate(837 -419)"/><mask id="b"><use xlink:href="#a" transform="translate(837 -419)" fill="#fff"/></mask><g mask="url(#b)"><use style="mix-blend-mode:normal" xlink:href="#c" transform="translate(837 -419)" fill="#FFF"/></g></g><use style="mix-blend-mode:normal" xlink:href="#d" transform="translate(289.9 158)" fill="#FFF" figma:type="vector"/><use style="mix-blend-mode:normal" xlink:href="#e" transform="translate(80.74 158)" fill="#FFF" figma:type="vector"/></g><defs><path id="a" d="M512 256c0 141.38-114.62 256-256 256S0 397.38 0 256 114.62 0 256 0s256 114.62 256 256z"/><path id="c" d="M492 256c0 130.34-105.66 236-236 236v40c152.43 0 276-123.57 276-276h-40zM256 492C125.66 492 20 386.34 20 256h-40c0 152.43 123.57 276 276 276v-40zM20 256C20 125.66 125.66 20 256 20v-40C103.57-20-20 103.57-20 256h40zM256 20c130.34 0 236 105.66 236 236h40c0-152.43-123.57-276-276-276v40z"/><path id="d" d="M79.461 0H0v56.324h79.461c11.011 4.426 15.845 13.478 16.886 17.45C102.02 92.161 87.455 103 79.461 106.12H0v55.76h79.461c28.949-3.98 48.859-19.53 55.199-26.82 25.43-26.33 20.81-67.15 15.32-84.269C136.82 16.174 97.482 2.506 79.461 0z"/><path id="e" d="M122.03 11.834L0 205.494h60.407l61.623-95.81v95.81h58.26V11.834c-24.07-18.837-50.6-12.386-58.26.004z"/></defs></svg></svg>