<?xml version="1.0" standalone="no"?>
<!DOCTYPE svg PUBLIC "-//W3C//DTD SVG 20010904//EN"
 "http://www.w3.org/TR/2001/REC-SVG-20010904/DTD/svg10.dtd">
<svg version="1.0" xmlns="http://www.w3.org/2000/svg"
 width="1200.000000pt" height="1200.000000pt" viewBox="0 0 1200.000000 1200.000000"
 preserveAspectRatio="xMidYMid meet">
<metadata>
Created by potrace 1.11, written by Peter Selinger 2001-2013
</metadata>
<g transform="translate(0.000000,1200.000000) scale(0.100000,-0.100000)"
fill="#000000" stroke="none">
<path d="M10143 11696 c-23 -7 -56 -23 -75 -34 -18 -12 -363 -351 -767 -755
l-733 -734 -112 53 c-497 236 -1095 389 -1796 461 -222 22 -994 26 -1215 5
-732 -69 -1349 -224 -1868 -470 l-118 -56 -742 741 c-835 832 -781 787 -932
788 -67 0 -89 -4 -136 -28 -66 -32 -132 -99 -162 -165 l-22 -47 -5 -1735 -5
-1735 -58 -160 c-115 -323 -178 -634 -212 -1055 l-6 -75 -585 -314 c-321 -173
-584 -317 -584 -321 0 -3 192 -109 426 -235 235 -127 433 -234 441 -240 11 -8
-49 -80 -281 -340 -233 -261 -291 -331 -278 -337 9 -4 197 -32 417 -64 220
-31 402 -58 404 -60 3 -3 -197 -275 -527 -714 l-153 -205 43 -7 c24 -4 264
-19 533 -34 330 -17 493 -30 498 -38 4 -6 39 -67 78 -134 84 -150 271 -434
306 -466 105 -98 395 -204 695 -256 258 -43 392 -52 828 -51 662 1 967 -18
1273 -80 194 -38 371 -97 515 -169 243 -122 544 -387 679 -596 9 -15 12 6 12
109 1 175 21 217 101 217 83 0 100 -38 100 -222 l0 -143 43 46 c23 25 61 74
85 107 127 180 367 381 581 488 357 177 904 256 1651 239 318 -8 522 2 853 40
279 32 388 65 567 170 74 44 91 60 256 258 159 191 292 361 335 426 l16 25
479 27 c263 16 501 28 528 29 36 0 47 3 43 13 -3 7 -161 222 -351 478 -191
255 -343 465 -339 466 4 1 188 27 408 58 220 31 408 59 418 63 14 6 -39 70
-278 337 -162 182 -294 333 -295 336 0 3 196 111 435 239 239 129 434 238 433
242 -2 4 -255 143 -563 309 -308 166 -562 303 -564 305 -2 2 -8 59 -13 127
-24 347 -108 736 -225 1052 l-48 130 -5 1730 -5 1730 -28 56 c-32 67 -100 132
-165 162 -59 25 -171 32 -229 13z m-5663 -3617 c444 -60 859 -360 1064 -769
105 -209 150 -401 149 -640 0 -392 -140 -729 -417 -1005 -277 -276 -613 -415
-1000 -415 -243 0 -418 40 -631 144 -418 204 -699 581 -780 1041 -21 120 -21
346 0 472 98 578 544 1042 1116 1158 165 34 318 38 499 14z m3490 -6 c589 -94
1064 -569 1165 -1166 21 -126 21 -352 0 -472 -81 -460 -362 -837 -780 -1041
-213 -104 -388 -144 -631 -144 -387 0 -723 139 -1000 415 -277 276 -417 613
-417 1005 -1 392 135 721 413 1001 336 338 773 479 1250 402z m-1572 -2955
c91 -23 164 -132 149 -224 -12 -72 -41 -107 -198 -237 -179 -150 -228 -177
-315 -177 -98 0 -135 19 -319 165 -174 139 -208 177 -220 248 -16 90 54 202
141 225 57 15 702 15 762 0z"/>
<path d="M4505 7264 c-232 -51 -442 -236 -520 -461 -36 -102 -46 -290 -21
-396 75 -320 362 -547 690 -547 125 0 214 21 325 76 166 82 300 239 356 418
119 372 -88 772 -460 892 -103 33 -265 41 -370 18z"/>
<path d="M7195 7265 c-292 -64 -506 -290 -555 -585 -26 -152 8 -334 87 -470
21 -36 74 -102 119 -146 135 -137 300 -203 500 -204 328 0 615 227 690 547 25
106 15 294 -21 396 -36 102 -105 207 -193 289 -161 151 -413 220 -627 173z"/>
<path d="M2400 2248 c0 -90 20 -328 36 -438 62 -423 224 -790 456 -1036 205
-216 477 -358 803 -417 l120 -22 2195 0 c2378 0 2250 -3 2476 55 614 158 1005
662 1119 1443 14 100 38 447 31 454 -2 2 -37 -10 -79 -27 -196 -79 -573 -140
-947 -155 -80 -3 -383 -10 -675 -15 -291 -6 -591 -15 -665 -20 -436 -33 -700
-87 -875 -178 l-70 -37 127 -5 c146 -6 165 -15 175 -88 5 -36 2 -45 -25 -72
l-30 -30 -159 0 -158 0 102 -102 c107 -109 123 -132 123 -172 0 -31 -42 -82
-74 -90 -42 -10 -78 12 -178 112 l-98 97 -1 -35 c0 -19 -4 -88 -8 -153 -6
-109 -9 -119 -33 -144 -37 -36 -99 -36 -136 1 -26 26 -27 30 -32 181 l-5 155
-100 -100 c-104 -105 -143 -128 -187 -111 -33 13 -68 58 -68 88 0 39 17 62
123 171 l102 102 -156 0 c-142 0 -159 2 -182 20 -52 41 -40 138 19 160 14 6
77 10 140 10 63 0 113 4 110 9 -10 16 -152 79 -236 105 -281 84 -581 111
-1390 126 -923 16 -1176 43 -1534 161 -82 27 -151 49 -153 49 -2 0 -3 -24 -3
-52z"/>
</g>
</svg>
