<svg id="splitsvg" version="1.1" xmlns="http://www.w3.org/2000/svg" xmlns:xlink="http://www.w3.org/1999/xlink" width="1380" height="400"><g id="svgg"><path id="path0" d="M165.714 1.963 C 145.820 5.289,142.215 7.270,155.714 7.455 C 167.947 7.624,169.239 8.652,165.647 15.363 C 164.040 18.367,161.599 19.048,152.426 19.048 C 146.239 19.048,140.605 19.974,139.905 21.107 C 139.205 22.239,136.662 22.671,134.253 22.067 C 111.988 16.479,66.120 51.486,49.621 86.660 C 23.342 142.683,48.877 215.170,104.135 241.412 C 116.422 247.247,118.047 248.605,116.982 252.142 C 114.859 259.190,113.497 259.166,98.875 251.820 C 42.754 223.627,14.579 154.769,34.806 95.238 C 41.025 76.935,40.396 76.740,29.836 93.697 C -14.318 164.596,-9.949 254.966,40.885 322.236 C 101.538 402.500,216.421 424.283,303.365 372.005 L 314.349 365.400 304.943 356.944 C 281.583 335.941,281.696 309.672,305.236 288.507 C 322.385 273.088,322.193 273.017,321.750 294.634 L 321.366 313.333 334.016 313.897 L 346.667 314.460 346.988 305.325 C 347.165 300.301,347.379 288.943,347.464 280.085 L 347.619 263.979 358.309 260.718 C 364.189 258.924,371.903 257.172,375.452 256.824 L 381.905 256.190 382.865 269.524 L 383.826 282.857 389.982 264.346 C 398.668 238.224,400.641 222.784,399.422 190.476 C 397.449 138.224,394.605 142.101,390.338 202.857 C 389.161 219.619,387.639 235.173,386.956 237.422 L 385.714 241.511 365.714 236.470 L 345.714 231.429 339.978 194.898 C 334.528 160.194,331.429 148.161,331.429 161.707 C 331.429 171.034,327.380 223.712,326.603 224.499 C 325.380 225.738,294.484 209.933,286.412 203.939 C 276.070 196.259,275.362 191.423,282.199 175.151 C 286.813 164.170,287.836 158.785,288.377 142.639 C 289.344 113.814,293.730 112.746,296.885 140.568 C 304.353 206.424,304.699 206.727,308.571 150.795 L 311.429 109.524 325.714 102.528 C 349.118 91.067,346.198 87.138,355.485 142.581 C 359.934 169.143,363.938 191.239,364.381 191.683 C 365.325 192.627,367.043 165.736,368.780 122.824 L 370.014 92.314 358.142 76.558 C 315.859 20.444,237.301 -10.009,165.714 1.963 M198.133 13.386 C 200.391 16.558,206.664 21.393,212.072 24.131 C 297.714 67.488,292.521 208.571,203.681 252.102 C 172.940 267.165,132.874 270.050,136.171 256.962 C 137.277 252.576,138.061 252.368,154.591 252.071 C 164.088 251.901,172.789 250.830,173.929 249.690 C 175.068 248.551,178.210 247.619,180.911 247.619 C 199.502 247.619,238.299 215.726,250.948 190.047 C 267.590 156.258,267.887 112.663,251.671 83.810 C 250.788 82.238,248.516 77.952,246.622 74.286 C 241.024 63.444,228.405 49.387,218.147 42.566 C 212.880 39.064,206.673 34.826,204.354 33.150 C 202.034 31.473,196.496 29.284,192.048 28.284 C 182.060 26.040,179.048 23.657,179.048 17.998 C 179.048 7.110,191.518 4.097,198.133 13.386 M175.238 18.869 C 175.238 23.518,174.610 24.241,171.321 23.381 C 168.873 22.741,167.801 21.320,168.464 19.594 C 169.047 18.074,169.524 16.044,169.524 15.082 C 169.524 14.120,170.810 13.333,172.381 13.333 C 174.265 13.333,175.238 15.218,175.238 18.869 M139.048 45.714 C 139.048 47.831,137.778 49.524,136.190 49.524 C 134.603 49.524,133.333 47.831,133.333 45.714 C 133.333 43.598,134.603 41.905,136.190 41.905 C 137.778 41.905,139.048 43.598,139.048 45.714 M154.198 45.030 C 162.640 46.718,171.593 59.699,167.286 64.006 C 164.733 66.559,163.875 66.160,159.452 60.361 C 156.458 56.435,152.177 53.388,148.671 52.687 C 144.486 51.850,142.857 50.443,142.857 47.667 C 142.857 43.532,144.638 43.118,154.198 45.030 M125.436 57.039 C 128.046 58.486,113.145 72.551,109.328 72.243 C 104.728 71.873,96.716 59.000,99.213 55.991 C 101.763 52.918,119.262 53.617,125.436 57.039 M143.810 61.905 C 143.810 62.952,141.189 64.667,137.987 65.714 C 134.785 66.762,128.015 71.172,122.943 75.515 L 113.722 83.410 121.623 92.780 C 129.495 102.116,133.608 126.775,127.883 130.313 C 126.977 130.873,127.095 135.639,128.146 140.956 C 130.091 150.792,129.448 153.736,125.841 151.507 C 124.584 150.730,123.810 141.515,123.810 127.348 L 123.810 104.445 106.367 84.522 C 87.867 63.391,83.751 51.032,101.453 69.768 L 110.050 78.867 121.003 68.856 C 131.573 59.196,143.810 55.466,143.810 61.905 M201.490 62.563 C 202.036 64.202,201.120 64.889,198.949 64.468 C 197.081 64.106,195.170 62.656,194.700 61.247 C 194.155 59.607,195.070 58.921,197.242 59.342 C 199.109 59.704,201.021 61.153,201.490 62.563 M224.762 70.943 C 224.762 72.005,223.499 71.799,221.905 70.476 C 220.333 69.172,219.048 67.248,219.048 66.200 C 219.048 65.138,220.311 65.344,221.905 66.667 C 223.476 67.971,224.762 69.895,224.762 70.943 M163.417 80.847 C 163.029 83.561,161.196 84.952,157.445 85.381 C 152.585 85.938,152.163 85.550,153.311 81.572 C 154.013 79.136,155.026 75.580,155.562 73.670 C 156.963 68.673,164.212 75.295,163.417 80.847 M142.455 80.952 C 153.113 90.535,158.517 91.581,165.155 85.345 C 169.229 81.518,169.858 81.422,172.646 84.210 C 176.028 87.592,174.705 91.429,170.157 91.429 C 167.950 91.429,167.511 92.645,168.417 96.255 C 169.387 100.120,167.912 103.188,161.005 111.667 C 156.262 117.490,152.381 123.791,152.381 125.669 C 152.381 128.516,150.798 129.060,142.857 128.940 L 133.333 128.796 133.333 113.720 C 133.333 99.897,132.936 98.331,128.559 94.888 C 119.816 88.011,118.989 84.121,124.948 77.901 C 131.661 70.894,131.173 70.809,142.455 80.952 M222.857 83.810 C 222.857 85.781,222.000 87.924,220.952 88.571 C 219.838 89.260,219.048 87.284,219.048 83.810 C 219.048 80.335,219.838 78.359,220.952 79.048 C 222.000 79.695,222.857 81.838,222.857 83.810 M110.000 93.718 L 120.000 105.256 119.937 126.437 L 119.873 147.619 116.127 143.122 C 113.136 139.532,112.381 135.751,112.381 124.367 C 112.381 110.444,112.201 109.904,104.762 101.453 C 99.668 95.665,97.143 90.992,97.143 87.351 C 97.143 79.818,98.561 80.520,110.000 93.718 M229.958 90.952 C 229.199 94.127,229.092 94.127,227.710 90.952 C 226.912 89.119,226.912 86.119,227.710 84.286 C 229.536 80.091,231.303 85.330,229.958 90.952 M236.345 99.258 L 234.703 107.619 234.552 96.190 C 234.447 88.201,234.941 85.685,236.194 87.830 C 237.269 89.668,237.329 94.249,236.345 99.258 M108.435 120.952 C 108.436 130.159,108.346 130.318,105.714 125.714 C 104.217 123.095,102.962 119.074,102.925 116.779 C 102.888 114.484,102.000 112.076,100.952 111.429 C 99.905 110.781,99.052 107.945,99.057 105.126 L 99.067 100.000 103.750 105.714 C 107.339 110.092,108.435 113.656,108.435 120.952 M230.476 105.827 C 230.476 111.318,227.654 110.646,226.123 104.792 C 225.467 102.286,226.049 100.952,227.797 100.952 C 229.401 100.952,230.476 102.908,230.476 105.827 M240.000 118.935 C 240.000 121.492,240.857 124.114,241.905 124.762 C 247.121 127.986,242.453 139.048,235.877 139.048 C 229.457 139.048,228.245 132.564,232.884 123.039 C 237.623 113.312,240.000 111.941,240.000 118.935 M247.619 120.225 C 247.619 122.320,246.762 123.505,245.714 122.857 C 244.667 122.210,243.810 119.966,243.810 117.870 C 243.810 115.775,244.667 114.591,245.714 115.238 C 246.762 115.886,247.619 118.130,247.619 120.225 M248.360 147.331 L 247.099 158.057 239.264 156.880 C 229.674 155.440,229.355 155.137,227.716 145.935 C 226.531 139.281,226.747 138.680,229.866 139.961 C 237.409 143.058,239.441 142.968,243.919 139.338 C 249.844 134.534,249.860 134.563,248.360 147.331 M139.901 151.855 C 141.738 155.914,151.382 161.747,160.000 164.012 C 163.700 164.985,162.909 165.314,156.450 165.489 C 144.487 165.813,133.333 159.243,133.333 151.871 C 133.333 145.551,137.043 145.542,139.901 151.855 M169.524 150.476 C 165.770 152.902,158.095 152.902,158.095 150.476 C 158.095 149.429,161.310 148.585,165.238 148.601 C 170.551 148.622,171.649 149.103,169.524 150.476 M188.864 175.238 C 192.515 178.889,193.578 180.952,191.808 180.952 C 190.285 180.952,187.971 179.667,186.667 178.095 C 184.885 175.948,180.093 175.238,167.386 175.238 C 153.625 175.238,150.476 174.706,150.476 172.381 C 150.476 166.159,182.143 168.516,188.864 175.238 M185.793 182.131 C 189.767 184.735,191.395 184.844,196.263 182.827 C 204.111 179.576,204.832 181.078,200.801 192.288 C 196.630 203.887,194.787 204.170,187.508 194.331 L 181.905 186.757 165.351 186.712 C 149.583 186.669,145.005 185.182,147.619 180.952 C 149.651 177.665,180.427 178.616,185.793 182.131 M185.712 198.092 C 191.724 204.249,192.682 206.165,190.712 208.092 C 188.750 210.011,187.096 209.082,182.233 203.333 C 176.857 196.979,175.218 196.190,167.376 196.190 C 161.865 196.190,157.673 195.120,156.190 193.333 C 149.583 185.372,177.719 189.908,185.712 198.092 M178.432 204.286 C 185.037 211.622,184.876 212.605,176.041 218.950 L 167.441 225.126 162.759 220.074 C 158.242 215.201,157.971 212.382,161.052 202.381 C 162.320 198.263,174.180 199.562,178.432 204.286 M161.282 228.956 C 158.199 230.862,155.821 227.941,157.306 224.072 C 158.460 221.063,158.716 221.073,161.015 224.218 C 162.855 226.733,162.923 227.942,161.282 228.956 M321.905 349.524 C 321.905 360.069,322.450 360.070,334.286 349.558 L 343.810 341.099 332.857 341.026 L 321.905 340.952 321.905 349.524  M -25 0 L -5 0 L -5 20 L -25 20 Z M 405 0 L 425 0 L 425 20 L 405 20 Z" stroke="none" fill="#000000" fill-rule="evenodd" transform="translate(30,0)"></path></g></svg>