 <svg version="1.0" xmlns="http://www.w3.org/2000/svg" width="700.000000pt" height="700.000000pt" viewBox="0 0 700.000000 700.000000" preserveAspectRatio="xMidYMid meet">
<metadata>
Created by potrace 1.12, written by Peter Selinger 2001-2015
</metadata>
<g transform="translate(0.000000,700.000000) scale(0.100000,-0.100000)" fill="#000000" stroke="none">
<path d="M1 5433 c0 -863 4 -1559 9 -1548 4 11 15 79 24 150 22 169 77 397
149 615 57 172 189 458 286 619 28 46 51 87 51 91 0 4 9 15 20 25 11 10 20 23
20 29 0 18 182 259 279 371 103 118 326 335 446 434 164 134 244 192 392 282
112 67 450 239 471 239 6 0 47 16 92 35 44 19 131 49 193 66 62 17 121 35 132
39 65 27 342 84 465 96 41 3 82 10 90 15 8 5 -690 9 -1552 9 l-1568 0 1 -1567z"></path>
<path d="M3884 6991 c3 -4 40 -11 83 -15 91 -8 358 -60 423 -82 25 -9 77 -24
115 -34 123 -33 188 -56 292 -101 24 -11 48 -19 54 -19 20 0 371 -176 439
-221 36 -23 84 -52 107 -64 69 -37 221 -152 408 -310 79 -67 305 -296 380
-386 107 -129 137 -229 139 -459 0 -139 -2 -161 -22 -212 -60 -149 -185 -287
-329 -360 -111 -58 -203 -81 -318 -81 -75 -1 -104 4 -178 30 -191 67 -281 150
-472 434 -107 160 -197 285 -292 407 -7 8 -15 13 -18 11 -2 -3 16 -30 41 -59
59 -71 158 -210 274 -385 146 -220 239 -314 382 -386 32 -16 58 -36 58 -44 0
-9 7 -18 15 -21 8 -4 15 -18 15 -33 0 -14 1 -71 1 -126 1 -74 -4 -122 -20
-185 -13 -47 -26 -102 -30 -122 -5 -20 -17 -50 -27 -65 -38 -57 -77 -150 -99
-238 -32 -123 -29 -119 -88 -146 l-52 -23 -595 -7 c-562 -6 -546 -6 295 -5
783 0 906 -2 1020 -16 163 -22 230 -39 325 -85 137 -67 254 -214 280 -354 11
-58 14 -1525 4 -1554 -4 -11 -19 -38 -33 -60 -14 -22 -30 -48 -36 -57 -105
-172 -362 -464 -601 -682 -281 -257 -640 -483 -979 -616 -11 -4 -45 -19 -75
-33 -31 -14 -121 -44 -200 -67 -80 -23 -154 -46 -165 -51 -59 -26 -397 -84
-595 -103 -19 -1 691 -4 1578 -4 l1612 -2 0 1632 c0 1126 -3 1629 -10 1622 -6
-6 -11 -37 -11 -70 -1 -32 -5 -63 -9 -69 -4 -5 -10 -39 -14 -75 -13 -144 -38
-284 -64 -365 -10 -33 -24 -85 -31 -115 -34 -150 -68 -248 -121 -352 -16 -32
-27 -64 -24 -71 3 -8 -2 -17 -12 -21 -15 -6 -16 -1 -10 46 4 29 13 62 20 73 9
15 10 45 4 120 -8 103 -11 187 -8 240 6 93 -2 405 -11 410 -5 4 -9 18 -8 33 1
46 -17 142 -29 154 -14 14 -16 54 -3 62 14 9 21 89 9 103 -6 7 -21 32 -33 55
-12 22 -39 53 -61 67 -29 20 -40 35 -42 57 -2 19 -11 33 -25 39 -12 6 -21 18
-21 28 1 9 -2 17 -6 17 -5 0 -11 9 -15 19 -3 12 -17 21 -33 23 -16 2 -27 9
-27 18 0 10 -12 16 -37 18 -22 2 -38 -1 -38 -7 0 -6 -9 -11 -20 -11 -13 0 -20
7 -20 18 0 10 -7 27 -15 38 -13 17 -14 17 -15 2 0 -10 -5 -18 -11 -18 -5 0 -7
-4 -4 -10 3 -5 1 -10 -4 -10 -6 0 -11 5 -11 11 0 6 -8 8 -19 4 -22 -7 -53 4
-46 15 3 5 -7 18 -21 29 -16 13 -24 27 -20 36 3 10 -3 17 -19 21 -19 5 -25 13
-25 34 0 30 -26 48 -44 30 -5 -5 -19 -10 -30 -9 -12 0 -16 3 -9 5 8 4 6 15 -9
39 l-20 35 27 10 c44 17 85 9 85 -16 0 -12 4 -13 22 -3 12 7 29 20 38 30 14
17 17 18 47 3 22 -11 44 -14 68 -10 35 7 49 26 19 26 -9 0 -14 6 -11 13 2 6
11 11 18 9 11 -3 11 -1 2 9 -9 9 -15 9 -26 0 -16 -12 -67 1 -67 18 0 13 42 22
56 10 6 -5 19 -7 28 -3 18 7 22 24 6 24 -12 0 -13 33 -1 46 21 22 21 49 0 63
-30 18 -39 0 -32 -62 6 -48 6 -49 -16 -38 -12 7 -24 18 -27 26 -3 8 -12 11
-20 8 -8 -3 -23 4 -33 16 -15 17 -29 21 -60 20 -49 -3 -76 15 -37 25 24 6 26
11 26 60 l0 53 61 18 c54 17 59 20 44 32 -10 7 -23 10 -28 6 -6 -3 -21 7 -33
23 -21 25 -30 29 -78 29 -30 0 -58 3 -62 7 -4 5 -1 20 6 35 7 16 13 31 12 36
-1 4 3 7 8 7 6 0 9 12 8 27 -3 23 2 28 34 38 21 6 47 18 58 28 11 9 25 17 30
17 5 0 14 9 20 19 5 11 26 25 45 32 19 7 35 16 35 19 0 3 -11 17 -25 32 -14
15 -25 36 -25 48 0 22 -28 39 -39 23 -13 -19 -113 -93 -127 -93 -8 0 -14 -4
-14 -8 0 -14 -79 -44 -100 -37 -27 9 -14 28 16 22 13 -2 25 1 28 9 3 7 34 29
70 49 80 45 212 172 253 245 17 30 41 96 53 145 12 50 26 104 31 121 5 17 9
40 9 51 0 11 7 36 15 56 13 33 13 35 -5 40 -13 3 -20 14 -20 30 0 30 9 57 19
57 15 0 75 -104 63 -108 -14 -4 -16 -68 -3 -77 5 -3 13 4 16 15 7 22 26 23 33
2 2 -7 -3 -12 -12 -12 -22 0 -20 -23 4 -45 14 -12 20 -31 21 -59 0 -79 3 -95
15 -85 16 13 23 78 13 106 -17 47 11 31 43 -24 33 -56 108 -208 108 -218 0 -2
14 -35 31 -72 42 -91 66 -153 95 -243 13 -41 28 -89 34 -106 5 -17 10 -40 10
-52 0 -12 4 -30 10 -40 19 -33 58 -195 80 -337 24 -149 30 -192 36 -263 4 -40
11 -75 15 -78 5 -3 9 705 9 1620 l0 1626 -1561 0 c-867 0 -1558 -4 -1555 -9z
m2633 -1753 c-3 -8 -6 -5 -6 6 -1 11 2 17 5 13 3 -3 4 -12 1 -19z m-358 -547
c17 -11 -2 -51 -24 -51 -9 0 -24 -5 -35 -12 -30 -19 -36 -1 -7 23 15 11 27 27
27 35 0 16 18 18 39 5z m-99 -71 c0 -5 -4 -10 -10 -10 -5 0 -10 5 -10 10 0 6
5 10 10 10 6 0 10 -4 10 -10z m-170 -10 c0 -5 -7 -10 -15 -10 -8 0 -15 5 -15
10 0 6 7 10 15 10 8 0 15 -4 15 -10z m247 -936 c-3 -3 -12 -4 -19 -1 -8 3 -5
6 6 6 11 1 17 -2 13 -5z m150 -49 c37 -19 85 -40 106 -45 27 -8 37 -16 37 -30
0 -11 7 -20 15 -20 8 0 15 -4 15 -10 0 -5 -7 -10 -15 -10 -8 0 -15 5 -15 10 0
6 -7 10 -15 10 -21 0 -19 -11 10 -42 14 -15 25 -32 25 -39 0 -18 -70 63 -76
88 -4 16 -14 23 -29 23 -12 0 -28 7 -35 15 -15 19 -98 65 -116 65 -8 0 -14 5
-14 10 0 19 39 10 107 -25z m264 -182 c23 -29 53 -93 46 -99 -4 -4 -14 -1 -23
7 -16 13 -17 12 -10 -11 24 -75 43 -567 27 -665 -5 -27 -9 -42 -10 -33 0 9 -9
21 -18 27 -17 9 -18 34 -18 309 0 242 -3 298 -13 294 -10 -3 -11 2 -6 22 4 19
2 27 -10 32 -9 3 -16 12 -16 20 0 7 -11 25 -26 39 -27 27 -25 45 7 45 14 0 19
-7 19 -30 0 -23 4 -30 20 -30 24 0 26 26 5 56 -23 33 1 48 26 17z m89 -378 c0
-58 -14 -58 -18 0 -2 26 2 45 8 45 5 0 10 -20 10 -45z m-48 -626 l-10 -34 -1
45 c-1 31 2 41 10 33 7 -7 7 -21 1 -44z m-1 -300 c1 -198 3 -182 -20 -169 -17
8 -20 21 -19 86 0 55 4 77 14 81 10 4 14 26 14 86 0 44 2 78 5 75 4 -3 6 -75
6 -159z m-17 -283 c-9 -15 -21 -26 -26 -26 -15 0 -2 56 19 84 l18 24 3 -28 c2
-16 -4 -40 -14 -54z"></path>
<path d="M3150 6035 c-180 -15 -266 -30 -398 -66 -100 -28 -256 -88 -249 -96
2 -2 36 10 76 27 146 62 324 99 616 125 227 21 412 11 668 -36 148 -27 221
-51 367 -121 136 -65 240 -133 334 -218 102 -92 126 -109 54 -38 -103 103
-219 184 -369 258 -216 107 -337 139 -629 165 -189 17 -268 17 -470 0z"></path>
<path d="M2385 5822 c-413 -218 -695 -531 -885 -982 -17 -41 -35 -84 -40 -95
-76 -172 -147 -487 -174 -777 -18 -191 -22 -678 -6 -859 14 -154 46 -369 58
-381 5 -5 3 20 -4 54 -32 158 -47 341 -51 653 -8 515 24 783 138 1167 42 144
140 359 243 538 157 272 418 511 746 684 47 25 81 45 75 45 -5 0 -50 -21 -100
-47z"></path>
<path d="M2335 5149 c-11 -7 -23 -17 -27 -23 -12 -18 -9 -69 7 -123 20 -68 35
-602 24 -862 -8 -171 -12 -206 -35 -274 l-26 -78 23 -25 c36 -39 83 -46 221
-35 222 18 759 39 1068 42 129 1 230 18 230 39 0 16 130 92 180 105 91 24 123
53 176 159 25 53 53 101 60 107 8 6 14 17 14 25 0 7 17 44 38 81 36 66 37 71
37 168 0 95 -2 104 -38 174 -20 41 -37 80 -37 87 0 6 -6 17 -14 23 -8 6 -33
48 -55 92 -23 45 -50 90 -60 100 -9 10 -66 34 -127 53 -60 19 -148 50 -195 70
-149 62 -279 76 -794 86 -242 5 -487 12 -545 15 -74 4 -111 2 -125 -6z m950
-345 c64 -2 122 1 140 7 26 10 37 8 70 -10 26 -14 43 -17 49 -11 16 16 55 11
76 -10 11 -11 26 -17 35 -14 16 7 75 -49 75 -71 0 -10 -9 -9 -42 3 -49 17
-230 23 -265 8 -13 -5 -23 -15 -23 -22 0 -21 34 -34 122 -46 87 -12 168 -40
168 -58 0 -16 -48 -12 -52 4 -2 12 -8 11 -27 -5 -19 -15 -21 -22 -11 -33 6 -8
24 -16 38 -18 23 -2 27 -8 27 -33 0 -24 7 -34 32 -47 18 -10 40 -18 49 -18 30
0 7 -25 -29 -31 -20 -3 -45 -13 -55 -22 -10 -10 -22 -17 -27 -17 -9 0 -34 -31
-35 -44 0 -4 13 -6 30 -4 22 3 27 2 19 -8 -7 -8 -5 -16 5 -27 30 -30 -23 -38
-64 -10 -21 15 -110 27 -110 15 0 -2 11 -13 25 -24 14 -11 25 -23 25 -27 0 -4
-28 -6 -62 -4 -94 5 -107 4 -129 -8 -11 -6 -27 -8 -35 -5 -8 3 -31 -1 -51 -9
-43 -18 -80 -19 -85 -3 -3 9 -88 14 -116 6 -7 -3 -85 16 -139 33 -33 10 -84 0
-165 -34 -34 -14 -38 -14 -59 4 -12 10 -32 19 -44 19 -16 0 -25 8 -29 26 -5
19 -11 24 -26 19 -18 -6 -20 -2 -20 52 0 56 12 94 25 81 4 -3 1 -16 -5 -28 -9
-16 -9 -25 -1 -33 11 -11 12 -8 15 33 1 9 13 16 34 18 17 2 32 7 32 13 0 5 5
9 11 9 16 0 99 86 99 103 0 27 57 65 107 72 30 4 60 16 80 33 l33 27 -20 44
c-36 79 -30 87 74 98 34 3 68 9 76 14 8 5 22 6 30 3 8 -4 64 -8 125 -10z m497
-25 c20 -11 21 -12 4 -25 -27 -19 -81 7 -59 29 10 10 32 8 55 -4z m48 -269 c0
-5 -4 -10 -10 -10 -5 0 -10 5 -10 10 0 6 5 10 10 10 6 0 10 -4 10 -10z m-29
-199 c-7 -5 -11 -13 -7 -19 3 -6 2 -13 -4 -17 -5 -3 -10 -15 -10 -25 0 -10 -5
-20 -11 -22 -8 -3 -7 -8 2 -18 21 -22 17 -72 -7 -95 -40 -38 -57 -43 -88 -25
-39 21 -45 40 -12 40 13 0 28 5 31 10 3 6 -3 10 -14 10 -11 0 -23 5 -26 10 -4
6 6 10 23 10 31 0 68 32 57 49 -3 6 -16 11 -29 11 -14 0 -23 6 -23 16 0 11 7
14 24 11 19 -4 23 0 23 23 0 35 6 40 49 40 24 0 32 -3 22 -9z m-275 -158 c-11
-11 -17 4 -9 23 7 18 8 18 11 1 2 -10 1 -21 -2 -24z m-93 -97 c6 -16 -2 -28
-14 -20 -12 7 -11 34 0 34 5 0 11 -6 14 -14z"></path>
<path d="M3038 4663 c7 -3 16 -2 19 1 4 3 -2 6 -13 5 -11 0 -14 -3 -6 -6z"></path>
<path d="M6350 5036 c0 -2 7 -9 15 -16 12 -10 15 -10 15 4 0 9 -7 16 -15 16
-8 0 -15 -2 -15 -4z"></path>
<path d="M6425 4980 c-8 -13 4 -50 16 -50 5 0 9 14 9 30 0 30 -13 40 -25 20z"></path>
<path d="M6316 4924 c-9 -22 -8 -24 9 -24 8 0 15 9 15 20 0 24 -15 27 -24 4z"></path>
<path d="M6351 4873 c-45 -61 -48 -68 -26 -77 21 -8 45 3 45 20 0 8 6 14 13
14 13 0 37 45 37 71 0 38 -29 26 -69 -28z"></path>
<path d="M6275 4870 c-8 -13 4 -32 16 -25 12 8 12 35 0 35 -6 0 -13 -4 -16
-10z"></path>
<path d="M6248 4826 c-24 -18 -23 -46 2 -46 16 0 20 7 20 30 0 34 1 34 -22 16z"></path>
<path d="M6320 4755 c0 -9 5 -15 11 -13 6 2 11 8 11 13 0 5 -5 11 -11 13 -6 2
-11 -4 -11 -13z"></path>
<path d="M6220 4731 c0 -11 59 -20 65 -11 3 4 2 10 -2 14 -10 9 -63 7 -63 -3z"></path>
<path d="M6212 4170 c0 -19 2 -27 5 -17 2 9 2 25 0 35 -3 9 -5 1 -5 -18z"></path>
<path d="M3845 3670 l-30 -8 30 0 c17 0 41 4 55 8 l25 8 -25 0 c-14 0 -38 -4
-55 -8z"></path>
<path d="M3543 3556 c-56 -43 -109 -100 -146 -158 -28 -44 -19 -46 9 -3 38 58
122 143 173 176 25 16 40 29 34 29 -6 0 -37 -20 -70 -44z"></path>
<path d="M3346 3285 c-3 -9 -6 -24 -5 -33 0 -9 5 -4 10 12 9 32 6 48 -5 21z"></path>
<path d="M3333 3120 c0 -47 2 -66 4 -42 2 23 2 61 0 85 -2 23 -4 4 -4 -43z"></path>
<path d="M0 1561 l0 -1561 1618 2 c889 1 1599 3 1577 4 -126 10 -368 48 -485
76 -139 33 -419 118 -479 145 -31 14 -65 29 -76 33 -137 54 -358 165 -505 255
-101 62 -300 208 -413 303 -180 151 -447 439 -582 628 -31 44 -63 86 -70 94
-7 8 -24 35 -38 60 -13 25 -48 83 -77 130 -52 86 -201 384 -215 430 -4 14 -13
39 -20 55 -41 99 -65 170 -123 370 -41 140 -92 415 -92 494 0 17 -4 33 -10 36
-7 4 -10 -517 -10 -1554z"></path>
<path d="M3341 2994 c0 -11 3 -14 6 -6 3 7 2 16 -1 19 -3 4 -6 -2 -5 -13z"></path>
<path d="M3350 2965 c0 -5 5 -17 10 -25 5 -8 10 -10 10 -5 0 6 -5 17 -10 25
-5 8 -10 11 -10 5z"></path>
<path d="M3403 2850 c8 -14 16 -36 19 -50 4 -25 3 -25 -46 -23 -28 2 -73 6
-101 8 -27 3 -203 12 -390 21 -187 9 -383 19 -435 23 l-95 6 -34 -30 c-28 -26
-32 -35 -23 -51 19 -36 33 -198 42 -479 12 -368 11 -691 -1 -790 -6 -44 -10
-93 -10 -110 1 -68 71 -108 162 -94 26 4 253 8 504 8 517 1 623 10 730 64 49
25 138 44 267 57 55 5 117 18 139 27 21 10 79 55 127 100 77 70 91 89 102 130
20 77 31 103 57 123 73 57 96 140 84 296 -8 107 -25 146 -90 209 -17 17 -31
37 -31 46 0 9 -7 22 -15 29 -8 7 -15 19 -15 26 0 26 -55 92 -86 103 -18 6 -34
20 -37 30 -2 11 -15 21 -28 23 -13 1 -24 10 -24 18 0 11 15 17 55 21 44 5 36
6 -46 7 -247 4 -478 46 -610 112 -76 37 -117 72 -167 140 l-19 25 15 -25z
m252 -230 c3 -5 18 -10 33 -10 25 0 82 -17 107 -31 6 -3 30 -7 55 -8 79 -5 69
-21 -12 -21 -42 0 -80 5 -83 10 -3 6 -14 10 -24 10 -18 0 -111 47 -111 56 0 8
29 4 35 -6z m-126 -146 c2 -2 2 -7 -2 -10 -9 -9 -57 5 -57 16 0 9 47 4 59 -6z
m-395 -61 c8 -16 15 -23 16 -16 0 8 23 2 65 -17 36 -16 65 -26 65 -22 1 4 10
-4 20 -17 14 -16 25 -21 37 -16 10 4 41 8 69 9 29 1 58 7 66 14 11 8 45 10
119 6 166 -9 172 -9 208 9 46 23 51 22 45 -12 -4 -21 -2 -30 11 -35 14 -5 15
-9 5 -21 -7 -8 -22 -15 -35 -15 -44 0 -85 -21 -85 -43 0 -19 71 -97 89 -97 3
0 13 -4 21 -10 12 -7 12 -11 -3 -28 -15 -17 -16 -21 -3 -31 11 -9 12 -20 5
-43 -4 -17 -10 -33 -13 -35 -2 -2 -21 7 -41 22 -42 28 -90 33 -99 10 -3 -8
-12 -15 -21 -15 -8 0 -15 -6 -15 -12 0 -9 16 -12 57 -10 39 3 55 0 48 -6 -5
-6 -21 -12 -35 -14 -32 -4 -34 -39 -2 -53 30 -13 28 -28 -6 -41 -21 -8 -31 -8
-40 3 -10 10 -10 13 0 14 7 0 2 4 -12 8 -14 5 -45 5 -70 1 -44 -6 -44 -7 -16
-15 18 -5 36 -4 47 3 22 14 32 -6 15 -31 -10 -12 -22 -15 -49 -10 -25 4 -48
-1 -80 -16 -50 -24 -65 -25 -89 -7 -25 18 -23 23 12 30 17 3 29 11 28 18 -2 9
8 12 35 10 28 -3 37 0 37 12 0 23 -17 29 -81 27 -68 -1 -99 -16 -99 -48 0 -12
-12 -31 -26 -42 l-26 -21 22 -18 22 -17 -21 -19 c-17 -15 -23 -17 -36 -6 -9 8
-55 14 -118 17 -177 7 -245 18 -270 42 -15 14 -36 21 -60 21 -30 0 -40 5 -49
25 -6 13 -14 22 -19 20 -4 -3 -11 0 -15 6 -4 8 -3 9 4 5 7 -4 12 -1 12 8 0 9
-6 16 -14 16 -9 0 -12 7 -9 20 8 29 26 40 67 42 20 1 39 5 41 9 8 12 -45 20
-65 9 -25 -13 -40 -5 -40 21 0 10 -4 19 -10 19 -5 0 -10 6 -10 14 0 8 -7 16
-15 20 -8 3 -15 12 -15 21 0 9 -7 27 -16 40 -15 23 -15 25 0 31 9 3 30 4 46 2
38 -6 56 12 41 41 -16 29 -14 31 27 31 31 0 41 5 55 30 10 16 17 32 17 35 -1
6 69 65 76 65 2 0 20 -8 40 -17 36 -17 36 -17 56 7 12 15 17 32 13 47 -4 18 0
26 17 33 34 13 36 12 52 -17z m506 12 c0 -16 -9 -19 -34 -9 -25 9 -19 24 9 24
16 0 25 -6 25 -15z m319 -319 l22 -23 -26 -17 c-37 -24 -75 -12 -75 24 0 45
44 54 79 16z m-1369 -204 c0 -20 -4 -31 -10 -27 -5 3 -10 25 -10 48 0 31 3 38
10 27 5 -8 10 -30 10 -48z m31 -107 c35 -19 57 -64 37 -77 -7 -4 -26 -7 -43
-6 -28 3 -30 6 -33 51 -2 26 0 47 3 47 3 0 19 -7 36 -15z"></path>
<path d="M2846 2212 c-3 -6 -1 -14 5 -17 15 -10 25 3 12 16 -7 7 -13 7 -17 1z"></path>
<path d="M2827 2150 c-10 -12 -23 -18 -29 -14 -8 5 -9 2 -5 -9 5 -13 1 -17
-17 -17 -22 0 -23 -2 -13 -24 11 -23 12 -23 25 -5 7 11 25 19 41 19 31 0 51
16 51 41 0 13 -18 29 -34 29 -1 0 -9 -9 -19 -20z"></path>
<path d="M3625 2163 c-42 -6 -97 -32 -90 -44 7 -10 53 -2 72 13 7 6 20 8 28 4
8 -3 27 -1 42 5 22 8 24 12 13 19 -8 6 -19 9 -25 8 -5 0 -23 -3 -40 -5z"></path>
<path d="M2923 2034 c-7 -7 -13 -23 -13 -34 0 -12 -4 -19 -8 -16 -15 9 -30
-28 -21 -52 12 -33 29 -27 27 10 -3 26 1 33 22 39 14 4 18 8 10 8 -12 1 -12 3
-2 9 8 6 10 16 5 29 -7 17 -10 19 -20 7z"></path>
<path d="M1340 2702 c0 -21 72 -297 82 -312 11 -17 13 -26 -38 175 -33 129
-44 165 -44 137z"></path>
<path d="M4450 2603 c422 -7 778 -7 773 0 -2 4 -214 6 -471 5 -257 -1 -393 -4
-302 -5z"></path>
<path d="M5238 2104 c1 -258 4 -500 5 -539 2 -38 4 155 4 430 1 275 -1 518 -5
539 -4 22 -6 -172 -4 -430z"></path>
<path d="M1431 2360 c0 -8 4 -22 9 -30 12 -18 12 -2 0 25 -6 13 -9 15 -9 5z"></path>
<path d="M1450 2304 c0 -6 14 -44 31 -85 17 -41 35 -85 40 -98 5 -13 12 -22
14 -19 3 3 -5 29 -18 59 -14 30 -34 77 -45 104 -12 28 -21 45 -22 39z"></path>
<path d="M1540 2081 c0 -6 4 -13 10 -16 6 -3 7 1 4 9 -7 18 -14 21 -14 7z"></path>
<path d="M1564 2036 c9 -26 115 -206 122 -206 6 0 -39 82 -94 170 -19 30 -31
47 -28 36z"></path>
<path d="M1700 1801 c5 -11 15 -23 21 -27 6 -3 3 5 -6 20 -20 30 -30 35 -15 7z"></path>
<path d="M1730 1756 c0 -2 8 -10 18 -17 15 -13 16 -12 3 4 -13 16 -21 21 -21
13z"></path>
<path d="M1779 1694 c11 -17 60 -72 108 -121 48 -49 61 -60 28 -24 -33 36 -82
91 -109 121 -26 30 -39 41 -27 24z"></path>
<path d="M2020 1447 c25 -28 160 -132 160 -122 0 2 -26 23 -57 46 -32 23 -74
56 -93 73 -33 29 -33 29 -10 3z"></path>
<path d="M5070 1370 c-85 -43 -152 -79 -147 -79 10 -1 289 137 301 149 16 16
8 13 -154 -70z"></path>
<path d="M2205 1305 c11 -9 29 -21 40 -26 l20 -10 -20 16 c-11 9 -29 21 -40
26 l-20 10 20 -16z"></path>
<path d="M4840 1266 c-30 -12 -64 -25 -74 -29 -10 -4 -17 -10 -14 -13 5 -5
143 48 155 59 11 12 -10 6 -67 -17z"></path>
<path d="M2330 1226 c0 -2 7 -7 16 -10 8 -3 12 -2 9 4 -6 10 -25 14 -25 6z"></path>
<path d="M4710 1210 c-8 -5 -10 -10 -5 -10 6 0 17 5 25 10 8 5 11 10 5 10 -5
0 -17 -5 -25 -10z"></path>
<path d="M2370 1205 c0 -7 121 -67 126 -63 2 2 -26 18 -61 36 -36 17 -65 30
-65 27z"></path>
<path d="M4660 1191 c-8 -5 -73 -28 -145 -52 -71 -23 -125 -44 -119 -46 6 -2
68 17 138 41 122 44 172 65 151 65 -5 0 -17 -3 -25 -8z"></path>
<path d="M2515 1130 c3 -5 11 -10 16 -10 6 0 7 5 4 10 -3 6 -11 10 -16 10 -6
0 -7 -4 -4 -10z"></path>
<path d="M2560 1110 c8 -5 20 -10 25 -10 6 0 3 5 -5 10 -8 5 -19 10 -25 10 -5
0 -3 -5 5 -10z"></path>
<path d="M2624 1086 c11 -9 27 -16 35 -15 14 0 14 1 1 6 -8 3 -24 10 -35 15
-20 9 -20 9 -1 -6z"></path>
<path d="M4340 1080 c-21 -7 -21 -8 -5 -9 11 0 27 4 35 9 18 11 5 11 -30 0z"></path>
<path d="M4150 1040 c-74 -16 -182 -34 -240 -40 -122 -14 -189 -31 -90 -23
118 9 474 74 489 89 8 7 -20 3 -159 -26z"></path>
<path d="M2708 1053 c7 -3 16 -2 19 1 4 3 -2 6 -13 5 -11 0 -14 -3 -6 -6z"></path>
<path d="M2778 1033 c7 -3 16 -2 19 1 4 3 -2 6 -13 5 -11 0 -14 -3 -6 -6z"></path>
<path d="M2868 1013 c7 -3 16 -2 19 1 4 3 -2 6 -13 5 -11 0 -14 -3 -6 -6z"></path>
<path d="M2928 1003 c7 -3 16 -2 19 1 4 3 -2 6 -13 5 -11 0 -14 -3 -6 -6z"></path>
<path d="M2988 993 c6 -2 18 -2 25 0 6 3 1 5 -13 5 -14 0 -19 -2 -12 -5z"></path>
<path d="M3078 983 c7 -3 16 -2 19 1 4 3 -2 6 -13 5 -11 0 -14 -3 -6 -6z"></path>
<path d="M3163 973 c20 -2 54 -2 75 0 20 2 3 4 -38 4 -41 0 -58 -2 -37 -4z"></path>
<path d="M3617 973 c18 -2 50 -2 70 0 21 2 7 4 -32 4 -38 0 -55 -2 -38 -4z"></path>
<path d="M3513 963 c15 -2 37 -2 50 0 12 2 0 4 -28 4 -27 0 -38 -2 -22 -4z"></path>
</g>
</svg>