<?xml version="1.0" encoding="UTF-8"?>
<svg xmlns="http://www.w3.org/2000/svg" xmlns:xlink="http://www.w3.org/1999/xlink" width="80pt" height="80pt" viewBox="0 0 80 80" version="1.1">
<g id="surface1">
<path style=" stroke:none;fill-rule:nonzero;fill:rgb(0%,0%,0%);fill-opacity:1;" d="M 0.0117188 17.910156 C 0.0117188 27.769531 0.0585938 35.726562 0.113281 35.601562 C 0.160156 35.472656 0.285156 34.695312 0.386719 33.886719 C 0.640625 31.953125 1.269531 29.347656 2.089844 26.855469 C 2.742188 24.890625 4.25 21.621094 5.359375 19.78125 C 5.679688 19.257812 5.941406 18.789062 5.941406 18.742188 C 5.941406 18.695312 6.046875 18.570312 6.171875 18.457031 C 6.296875 18.34375 6.398438 18.195312 6.398438 18.125 C 6.398438 17.921875 8.480469 15.164062 9.589844 13.886719 C 10.765625 12.539062 13.3125 10.058594 14.6875 8.925781 C 16.558594 7.394531 17.472656 6.730469 19.164062 5.703125 C 20.445312 4.9375 24.308594 2.972656 24.546875 2.972656 C 24.617188 2.972656 25.085938 2.789062 25.601562 2.570312 C 26.101562 2.355469 27.097656 2.011719 27.804688 1.816406 C 28.515625 1.621094 29.1875 1.417969 29.3125 1.371094 C 30.058594 1.0625 33.222656 0.410156 34.628906 0.273438 C 35.097656 0.238281 35.566406 0.160156 35.65625 0.101562 C 35.75 0.046875 27.769531 0 17.921875 0 L 0 0 Z M 0.0117188 17.910156 "/>
<path style=" stroke:none;fill-rule:nonzero;fill:rgb(0%,0%,0%);fill-opacity:1;" d="M 44.386719 0.101562 C 44.421875 0.148438 44.847656 0.230469 45.335938 0.273438 C 46.378906 0.367188 49.429688 0.960938 50.171875 1.210938 C 50.457031 1.3125 51.050781 1.484375 51.484375 1.601562 C 52.890625 1.976562 53.632812 2.238281 54.824219 2.753906 C 55.097656 2.878906 55.371094 2.972656 55.441406 2.972656 C 55.667969 2.972656 59.679688 4.984375 60.457031 5.496094 C 60.867188 5.761719 61.417969 6.089844 61.679688 6.230469 C 62.46875 6.652344 64.207031 7.964844 66.34375 9.769531 C 67.246094 10.539062 69.828125 13.152344 70.6875 14.183594 C 71.910156 15.65625 72.25 16.800781 72.273438 19.429688 C 72.273438 21.015625 72.25 21.269531 72.023438 21.851562 C 71.335938 23.554688 69.910156 25.132812 68.261719 25.964844 C 66.996094 26.628906 65.941406 26.890625 64.628906 26.890625 C 63.769531 26.902344 63.441406 26.847656 62.59375 26.546875 C 60.410156 25.78125 59.382812 24.835938 57.199219 21.589844 C 55.976562 19.761719 54.949219 18.332031 53.863281 16.9375 C 53.78125 16.847656 53.691406 16.789062 53.65625 16.8125 C 53.632812 16.847656 53.839844 17.152344 54.125 17.484375 C 54.800781 18.296875 55.929688 19.886719 57.257812 21.886719 C 58.925781 24.398438 59.988281 25.472656 61.621094 26.296875 C 61.988281 26.480469 62.285156 26.707031 62.285156 26.800781 C 62.285156 26.902344 62.367188 27.003906 62.457031 27.039062 C 62.546875 27.085938 62.628906 27.246094 62.628906 27.417969 C 62.628906 27.578125 62.640625 28.230469 62.640625 28.855469 C 62.652344 29.703125 62.59375 30.25 62.410156 30.972656 C 62.261719 31.507812 62.113281 32.136719 62.070312 32.367188 C 62.011719 32.59375 61.875 32.9375 61.761719 33.109375 C 61.324219 33.761719 60.878906 34.824219 60.628906 35.828125 C 60.261719 37.234375 60.296875 37.1875 59.621094 37.496094 L 59.027344 37.761719 L 52.230469 37.839844 C 45.804688 37.910156 45.988281 37.910156 55.601562 37.898438 C 64.546875 37.898438 65.953125 37.921875 67.257812 38.078125 C 69.121094 38.332031 69.886719 38.527344 70.972656 39.050781 C 72.539062 39.816406 73.875 41.496094 74.171875 43.097656 C 74.296875 43.761719 74.332031 60.527344 74.21875 60.855469 C 74.171875 60.984375 74 61.292969 73.839844 61.542969 C 73.679688 61.792969 73.496094 62.089844 73.429688 62.195312 C 72.230469 64.160156 69.292969 67.496094 66.558594 69.988281 C 63.347656 72.925781 59.246094 75.507812 55.371094 77.027344 C 55.246094 77.074219 54.855469 77.246094 54.515625 77.40625 C 54.160156 77.566406 53.132812 77.910156 52.230469 78.171875 C 51.3125 78.433594 50.46875 78.695312 50.34375 78.753906 C 49.667969 79.050781 45.804688 79.714844 43.542969 79.929688 C 43.324219 79.941406 51.441406 79.976562 61.578125 79.976562 L 80 80 L 80 61.347656 C 80 48.480469 79.964844 42.730469 79.886719 42.8125 C 79.816406 42.878906 79.761719 43.234375 79.761719 43.613281 C 79.75 43.976562 79.703125 44.332031 79.65625 44.398438 C 79.613281 44.457031 79.542969 44.847656 79.496094 45.257812 C 79.347656 46.902344 79.0625 48.503906 78.765625 49.429688 C 78.652344 49.804688 78.492188 50.398438 78.410156 50.742188 C 78.023438 52.457031 77.632812 53.578125 77.027344 54.765625 C 76.847656 55.132812 76.71875 55.496094 76.753906 55.578125 C 76.789062 55.667969 76.730469 55.769531 76.617188 55.816406 C 76.445312 55.886719 76.433594 55.828125 76.503906 55.292969 C 76.546875 54.960938 76.652344 54.582031 76.730469 54.457031 C 76.835938 54.285156 76.847656 53.941406 76.777344 53.085938 C 76.6875 51.910156 76.652344 50.949219 76.6875 50.34375 C 76.753906 49.28125 76.664062 45.714844 76.558594 45.65625 C 76.503906 45.613281 76.457031 45.453125 76.46875 45.28125 C 76.480469 44.753906 76.273438 43.65625 76.136719 43.519531 C 75.976562 43.359375 75.953125 42.902344 76.101562 42.8125 C 76.261719 42.707031 76.34375 41.792969 76.207031 41.632812 C 76.136719 41.554688 75.964844 41.269531 75.828125 41.003906 C 75.691406 40.753906 75.382812 40.398438 75.132812 40.238281 C 74.800781 40.011719 74.675781 39.839844 74.652344 39.589844 C 74.628906 39.371094 74.527344 39.210938 74.367188 39.144531 C 74.230469 39.074219 74.125 38.9375 74.125 38.824219 C 74.136719 38.71875 74.101562 38.628906 74.058594 38.628906 C 74 38.628906 73.929688 38.527344 73.886719 38.410156 C 73.851562 38.273438 73.691406 38.171875 73.507812 38.148438 C 73.324219 38.125 73.199219 38.046875 73.199219 37.941406 C 73.199219 37.828125 73.0625 37.761719 72.777344 37.738281 C 72.527344 37.714844 72.34375 37.75 72.34375 37.816406 C 72.34375 37.886719 72.238281 37.941406 72.113281 37.941406 C 71.964844 37.941406 71.886719 37.863281 71.886719 37.738281 C 71.886719 37.621094 71.804688 37.429688 71.714844 37.304688 C 71.566406 37.109375 71.554688 37.109375 71.542969 37.28125 C 71.542969 37.394531 71.484375 37.484375 71.417969 37.484375 C 71.359375 37.484375 71.335938 37.53125 71.371094 37.601562 C 71.40625 37.65625 71.382812 37.714844 71.324219 37.714844 C 71.257812 37.714844 71.199219 37.65625 71.199219 37.589844 C 71.199219 37.519531 71.109375 37.496094 70.984375 37.542969 C 70.730469 37.621094 70.378906 37.496094 70.457031 37.371094 C 70.492188 37.3125 70.378906 37.164062 70.21875 37.039062 C 70.035156 36.890625 69.941406 36.730469 69.988281 36.628906 C 70.023438 36.515625 69.953125 36.433594 69.769531 36.386719 C 69.554688 36.332031 69.484375 36.238281 69.484375 36 C 69.484375 35.65625 69.1875 35.453125 68.984375 35.65625 C 68.925781 35.714844 68.765625 35.769531 68.640625 35.761719 C 68.503906 35.761719 68.457031 35.726562 68.539062 35.703125 C 68.628906 35.65625 68.605469 35.53125 68.433594 35.257812 L 68.207031 34.855469 L 68.515625 34.742188 C 69.015625 34.546875 69.484375 34.640625 69.484375 34.925781 C 69.484375 35.0625 69.53125 35.074219 69.738281 34.960938 C 69.875 34.878906 70.070312 34.730469 70.171875 34.617188 C 70.332031 34.421875 70.367188 34.410156 70.707031 34.582031 C 70.960938 34.707031 71.210938 34.742188 71.484375 34.695312 C 71.886719 34.617188 72.046875 34.398438 71.703125 34.398438 C 71.601562 34.398438 71.542969 34.332031 71.578125 34.25 C 71.601562 34.183594 71.703125 34.125 71.78125 34.148438 C 71.910156 34.183594 71.910156 34.160156 71.804688 34.046875 C 71.703125 33.941406 71.632812 33.941406 71.507812 34.046875 C 71.324219 34.183594 70.742188 34.035156 70.742188 33.839844 C 70.742188 33.691406 71.222656 33.589844 71.382812 33.726562 C 71.453125 33.78125 71.601562 33.804688 71.703125 33.761719 C 71.910156 33.679688 71.953125 33.484375 71.769531 33.484375 C 71.632812 33.484375 71.621094 33.109375 71.761719 32.960938 C 72 32.707031 72 32.398438 71.761719 32.238281 C 71.417969 32.035156 71.3125 32.238281 71.394531 32.949219 C 71.460938 33.496094 71.460938 33.507812 71.210938 33.382812 C 71.074219 33.304688 70.9375 33.175781 70.902344 33.085938 C 70.867188 32.996094 70.765625 32.960938 70.675781 32.996094 C 70.582031 33.027344 70.410156 32.949219 70.296875 32.8125 C 70.125 32.617188 69.964844 32.570312 69.613281 32.582031 C 69.050781 32.617188 68.742188 32.410156 69.1875 32.296875 C 69.460938 32.230469 69.484375 32.171875 69.484375 31.613281 L 69.484375 31.003906 L 70.183594 30.800781 C 70.800781 30.605469 70.855469 30.570312 70.6875 30.433594 C 70.570312 30.355469 70.421875 30.320312 70.367188 30.367188 C 70.296875 30.398438 70.125 30.285156 69.988281 30.101562 C 69.75 29.816406 69.644531 29.769531 69.097656 29.769531 C 68.753906 29.769531 68.433594 29.738281 68.386719 29.691406 C 68.34375 29.632812 68.378906 29.460938 68.457031 29.292969 C 68.539062 29.109375 68.605469 28.9375 68.59375 28.878906 C 68.582031 28.835938 68.628906 28.800781 68.6875 28.800781 C 68.753906 28.800781 68.789062 28.664062 68.777344 28.492188 C 68.742188 28.230469 68.800781 28.171875 69.164062 28.058594 C 69.40625 27.988281 69.703125 27.851562 69.828125 27.738281 C 69.953125 27.632812 70.113281 27.542969 70.171875 27.542969 C 70.230469 27.542969 70.332031 27.441406 70.398438 27.324219 C 70.457031 27.199219 70.695312 27.039062 70.914062 26.960938 C 71.132812 26.878906 71.3125 26.777344 71.3125 26.742188 C 71.3125 26.707031 71.1875 26.546875 71.027344 26.378906 C 70.867188 26.207031 70.742188 25.964844 70.742188 25.828125 C 70.742188 25.578125 70.421875 25.382812 70.296875 25.566406 C 70.148438 25.78125 69.003906 26.628906 68.847656 26.628906 C 68.753906 26.628906 68.6875 26.675781 68.6875 26.71875 C 68.6875 26.878906 67.78125 27.222656 67.542969 27.144531 C 67.234375 27.039062 67.382812 26.824219 67.726562 26.890625 C 67.875 26.914062 68.011719 26.878906 68.046875 26.789062 C 68.078125 26.707031 68.433594 26.457031 68.847656 26.230469 C 69.761719 25.714844 71.269531 24.261719 71.738281 23.429688 C 71.929688 23.085938 72.207031 22.332031 72.34375 21.769531 C 72.480469 21.199219 72.640625 20.582031 72.695312 20.386719 C 72.753906 20.195312 72.800781 19.929688 72.800781 19.804688 C 72.800781 19.679688 72.878906 19.394531 72.972656 19.164062 C 73.121094 18.789062 73.121094 18.765625 72.914062 18.707031 C 72.765625 18.675781 72.6875 18.546875 72.6875 18.367188 C 72.6875 18.023438 72.789062 17.714844 72.902344 17.714844 C 73.074219 17.714844 73.761719 18.902344 73.621094 18.949219 C 73.460938 18.996094 73.441406 19.726562 73.589844 19.828125 C 73.644531 19.863281 73.738281 19.78125 73.769531 19.65625 C 73.851562 19.40625 74.070312 19.394531 74.148438 19.632812 C 74.171875 19.714844 74.113281 19.769531 74.011719 19.769531 C 73.761719 19.769531 73.78125 20.035156 74.058594 20.285156 C 74.21875 20.421875 74.285156 20.640625 74.296875 20.960938 C 74.296875 21.863281 74.332031 22.046875 74.46875 21.929688 C 74.652344 21.78125 74.730469 21.039062 74.617188 20.71875 C 74.421875 20.183594 74.742188 20.367188 75.109375 20.996094 C 75.484375 21.632812 76.34375 23.371094 76.34375 23.484375 C 76.34375 23.507812 76.503906 23.886719 76.695312 24.308594 C 77.175781 25.347656 77.453125 26.058594 77.78125 27.085938 C 77.929688 27.554688 78.101562 28.101562 78.171875 28.296875 C 78.230469 28.492188 78.285156 28.753906 78.285156 28.890625 C 78.285156 29.027344 78.332031 29.234375 78.398438 29.347656 C 78.617188 29.726562 79.0625 31.578125 79.3125 33.199219 C 79.589844 34.902344 79.65625 35.394531 79.726562 36.207031 C 79.769531 36.664062 79.851562 37.0625 79.898438 37.097656 C 79.953125 37.132812 80 29.039062 80 18.582031 L 80 0 L 62.160156 0 C 52.25 0 44.355469 0.046875 44.386719 0.101562 Z M 74.480469 20.136719 C 74.445312 20.230469 74.410156 20.195312 74.410156 20.070312 C 74.398438 19.941406 74.433594 19.875 74.46875 19.921875 C 74.503906 19.953125 74.515625 20.058594 74.480469 20.136719 Z M 70.386719 26.386719 C 70.582031 26.515625 70.367188 26.972656 70.113281 26.972656 C 70.011719 26.972656 69.839844 27.027344 69.714844 27.109375 C 69.371094 27.324219 69.304688 27.121094 69.632812 26.847656 C 69.804688 26.71875 69.941406 26.539062 69.941406 26.445312 C 69.941406 26.261719 70.148438 26.238281 70.386719 26.386719 Z M 69.257812 27.199219 C 69.257812 27.257812 69.210938 27.3125 69.144531 27.3125 C 69.085938 27.3125 69.027344 27.257812 69.027344 27.199219 C 69.027344 27.132812 69.085938 27.085938 69.144531 27.085938 C 69.210938 27.085938 69.257812 27.132812 69.257812 27.199219 Z M 67.3125 27.3125 C 67.3125 27.371094 67.234375 27.429688 67.144531 27.429688 C 67.050781 27.429688 66.972656 27.371094 66.972656 27.3125 C 66.972656 27.246094 67.050781 27.199219 67.144531 27.199219 C 67.234375 27.199219 67.3125 27.246094 67.3125 27.3125 Z M 70.136719 38.011719 C 70.101562 38.046875 70 38.058594 69.921875 38.023438 C 69.828125 37.988281 69.863281 37.953125 69.988281 37.953125 C 70.113281 37.941406 70.183594 37.976562 70.136719 38.011719 Z M 71.851562 38.570312 C 72.273438 38.789062 72.824219 39.027344 73.0625 39.085938 C 73.371094 39.175781 73.484375 39.269531 73.484375 39.429688 C 73.484375 39.554688 73.566406 39.65625 73.65625 39.65625 C 73.75 39.65625 73.828125 39.703125 73.828125 39.769531 C 73.828125 39.828125 73.75 39.886719 73.65625 39.886719 C 73.566406 39.886719 73.484375 39.828125 73.484375 39.769531 C 73.484375 39.703125 73.40625 39.65625 73.3125 39.65625 C 73.074219 39.65625 73.097656 39.78125 73.429688 40.136719 C 73.589844 40.308594 73.714844 40.503906 73.714844 40.582031 C 73.714844 40.789062 72.914062 39.863281 72.847656 39.578125 C 72.800781 39.394531 72.6875 39.3125 72.515625 39.3125 C 72.378906 39.3125 72.195312 39.234375 72.113281 39.144531 C 71.941406 38.925781 70.996094 38.398438 70.789062 38.398438 C 70.695312 38.398438 70.628906 38.34375 70.628906 38.285156 C 70.628906 38.070312 71.074219 38.171875 71.851562 38.570312 Z M 74.867188 40.652344 C 75.132812 40.984375 75.472656 41.714844 75.394531 41.78125 C 75.347656 41.828125 75.234375 41.792969 75.132812 41.703125 C 74.949219 41.554688 74.9375 41.566406 75.015625 41.828125 C 75.292969 42.6875 75.507812 48.308594 75.324219 49.429688 C 75.269531 49.738281 75.222656 49.910156 75.210938 49.804688 C 75.210938 49.703125 75.109375 49.566406 75.003906 49.496094 C 74.8125 49.394531 74.800781 49.109375 74.800781 45.964844 C 74.800781 43.199219 74.765625 42.558594 74.652344 42.605469 C 74.539062 42.640625 74.527344 42.582031 74.582031 42.355469 C 74.628906 42.136719 74.605469 42.046875 74.46875 41.988281 C 74.367188 41.953125 74.285156 41.851562 74.285156 41.761719 C 74.285156 41.679688 74.160156 41.472656 73.988281 41.3125 C 73.679688 41.003906 73.703125 40.800781 74.070312 40.800781 C 74.230469 40.800781 74.285156 40.878906 74.285156 41.144531 C 74.285156 41.40625 74.332031 41.484375 74.515625 41.484375 C 74.789062 41.484375 74.8125 41.1875 74.570312 40.847656 C 74.308594 40.46875 74.582031 40.296875 74.867188 40.652344 Z M 75.886719 44.972656 C 75.886719 45.632812 75.726562 45.632812 75.679688 44.972656 C 75.65625 44.675781 75.703125 44.457031 75.769531 44.457031 C 75.828125 44.457031 75.886719 44.6875 75.886719 44.972656 Z M 75.335938 52.125 L 75.222656 52.515625 L 75.210938 52 C 75.199219 51.644531 75.234375 51.53125 75.324219 51.621094 C 75.40625 51.703125 75.40625 51.863281 75.335938 52.125 Z M 75.324219 55.554688 C 75.335938 57.816406 75.359375 57.632812 75.097656 57.484375 C 74.902344 57.394531 74.867188 57.246094 74.878906 56.503906 C 74.878906 55.875 74.925781 55.621094 75.039062 55.578125 C 75.152344 55.53125 75.199219 55.28125 75.199219 54.59375 C 75.199219 54.089844 75.222656 53.703125 75.257812 53.738281 C 75.304688 53.769531 75.324219 54.59375 75.324219 55.554688 Z M 75.132812 58.789062 C 75.027344 58.960938 74.890625 59.085938 74.835938 59.085938 C 74.664062 59.085938 74.8125 58.445312 75.050781 58.125 L 75.257812 57.851562 L 75.292969 58.171875 C 75.3125 58.355469 75.246094 58.628906 75.132812 58.789062 Z M 75.132812 58.789062 "/>
<path style=" stroke:none;fill-rule:nonzero;fill:rgb(0%,0%,0%);fill-opacity:1;" d="M 36 11.027344 C 33.941406 11.199219 32.960938 11.371094 31.453125 11.78125 C 30.308594 12.101562 28.527344 12.789062 28.605469 12.878906 C 28.628906 12.902344 29.015625 12.765625 29.472656 12.570312 C 31.144531 11.863281 33.175781 11.441406 36.515625 11.144531 C 39.109375 10.902344 41.222656 11.015625 44.148438 11.554688 C 45.839844 11.863281 46.675781 12.136719 48.34375 12.9375 C 49.898438 13.679688 51.085938 14.457031 52.160156 15.429688 C 53.324219 16.480469 53.601562 16.675781 52.777344 15.863281 C 51.601562 14.6875 50.273438 13.761719 48.558594 12.914062 C 46.089844 11.691406 44.707031 11.324219 41.371094 11.027344 C 39.210938 10.835938 38.308594 10.835938 36 11.027344 Z M 36 11.027344 "/>
<path style=" stroke:none;fill-rule:nonzero;fill:rgb(0%,0%,0%);fill-opacity:1;" d="M 27.257812 13.460938 C 22.539062 15.953125 19.3125 19.53125 17.144531 24.6875 C 16.949219 25.152344 16.742188 25.644531 16.6875 25.769531 C 15.816406 27.738281 15.003906 31.335938 14.695312 34.652344 C 14.492188 36.835938 14.445312 42.398438 14.628906 44.46875 C 14.789062 46.230469 15.152344 48.6875 15.292969 48.824219 C 15.347656 48.878906 15.324219 48.59375 15.246094 48.207031 C 14.878906 46.398438 14.707031 44.308594 14.664062 40.742188 C 14.570312 34.855469 14.9375 31.792969 16.238281 27.40625 C 16.71875 25.761719 17.839844 23.304688 19.015625 21.257812 C 20.8125 18.148438 23.792969 15.417969 27.542969 13.441406 C 28.078125 13.152344 28.46875 12.925781 28.398438 12.925781 C 28.34375 12.925781 27.828125 13.164062 27.257812 13.460938 Z M 27.257812 13.460938 "/>
<path style=" stroke:none;fill-rule:nonzero;fill:rgb(0%,0%,0%);fill-opacity:1;" d="M 26.6875 21.152344 C 26.558594 21.234375 26.421875 21.347656 26.378906 21.417969 C 26.238281 21.621094 26.273438 22.207031 26.457031 22.824219 C 26.6875 23.601562 26.855469 29.703125 26.730469 32.675781 C 26.640625 34.628906 26.59375 35.027344 26.332031 35.804688 L 26.035156 36.695312 L 26.296875 36.984375 C 26.707031 37.429688 27.246094 37.507812 28.824219 37.382812 C 31.359375 37.175781 37.496094 36.9375 41.027344 36.902344 C 42.503906 36.890625 43.65625 36.695312 43.65625 36.457031 C 43.65625 36.273438 45.144531 35.40625 45.714844 35.257812 C 46.753906 34.984375 47.121094 34.652344 47.726562 33.441406 C 48.011719 32.835938 48.332031 32.285156 48.410156 32.21875 C 48.503906 32.148438 48.570312 32.023438 48.570312 31.929688 C 48.570312 31.851562 48.765625 31.429688 49.003906 31.003906 C 49.417969 30.25 49.429688 30.195312 49.429688 29.085938 C 49.429688 28 49.40625 27.898438 48.996094 27.097656 C 48.765625 26.628906 48.570312 26.183594 48.570312 26.101562 C 48.570312 26.035156 48.503906 25.910156 48.410156 25.839844 C 48.320312 25.769531 48.035156 25.292969 47.78125 24.789062 C 47.519531 24.273438 47.210938 23.761719 47.097656 23.644531 C 46.996094 23.53125 46.34375 23.257812 45.644531 23.039062 C 44.960938 22.824219 43.953125 22.46875 43.417969 22.238281 C 41.714844 21.53125 40.230469 21.371094 34.34375 21.257812 C 31.578125 21.199219 28.777344 21.121094 28.113281 21.085938 C 27.269531 21.039062 26.847656 21.0625 26.6875 21.152344 Z M 37.542969 25.097656 C 38.273438 25.121094 38.9375 25.085938 39.144531 25.015625 C 39.441406 24.902344 39.566406 24.925781 39.941406 25.132812 C 40.238281 25.292969 40.433594 25.324219 40.503906 25.257812 C 40.6875 25.074219 41.132812 25.132812 41.371094 25.371094 C 41.496094 25.496094 41.667969 25.566406 41.769531 25.53125 C 41.953125 25.453125 42.628906 26.089844 42.628906 26.34375 C 42.628906 26.457031 42.527344 26.445312 42.148438 26.308594 C 41.589844 26.113281 39.519531 26.046875 39.121094 26.21875 C 38.972656 26.273438 38.855469 26.386719 38.855469 26.46875 C 38.855469 26.707031 39.246094 26.855469 40.25 26.996094 C 41.246094 27.132812 42.171875 27.453125 42.171875 27.65625 C 42.171875 27.839844 41.621094 27.792969 41.578125 27.613281 C 41.554688 27.472656 41.484375 27.484375 41.269531 27.667969 C 41.050781 27.839844 41.027344 27.921875 41.144531 28.046875 C 41.210938 28.136719 41.417969 28.230469 41.578125 28.25 C 41.839844 28.273438 41.886719 28.34375 41.886719 28.628906 C 41.886719 28.902344 41.964844 29.015625 42.25 29.164062 C 42.457031 29.28125 42.707031 29.371094 42.8125 29.371094 C 43.152344 29.371094 42.890625 29.65625 42.480469 29.726562 C 42.25 29.761719 41.964844 29.875 41.851562 29.976562 C 41.738281 30.089844 41.601562 30.171875 41.542969 30.171875 C 41.441406 30.171875 41.152344 30.527344 41.144531 30.675781 C 41.144531 30.71875 41.292969 30.742188 41.484375 30.71875 C 41.738281 30.6875 41.792969 30.695312 41.703125 30.8125 C 41.621094 30.902344 41.644531 30.996094 41.761719 31.121094 C 42.101562 31.460938 41.496094 31.554688 41.027344 31.234375 C 40.789062 31.0625 39.769531 30.925781 39.769531 31.0625 C 39.769531 31.085938 39.898438 31.210938 40.058594 31.335938 C 40.21875 31.460938 40.34375 31.601562 40.34375 31.644531 C 40.34375 31.691406 40.023438 31.714844 39.632812 31.691406 C 38.558594 31.632812 38.410156 31.644531 38.160156 31.78125 C 38.035156 31.851562 37.851562 31.875 37.761719 31.839844 C 37.667969 31.804688 37.40625 31.851562 37.175781 31.941406 C 36.6875 32.148438 36.261719 32.160156 36.207031 31.976562 C 36.171875 31.875 35.199219 31.816406 34.878906 31.910156 C 34.800781 31.941406 33.910156 31.726562 33.292969 31.53125 C 32.914062 31.417969 32.332031 31.53125 31.40625 31.921875 C 31.015625 32.078125 30.972656 32.078125 30.730469 31.875 C 30.59375 31.761719 30.367188 31.65625 30.230469 31.65625 C 30.046875 31.65625 29.941406 31.566406 29.898438 31.359375 C 29.839844 31.144531 29.769531 31.085938 29.601562 31.144531 C 29.394531 31.210938 29.371094 31.164062 29.371094 30.546875 C 29.371094 29.910156 29.507812 29.472656 29.65625 29.621094 C 29.703125 29.65625 29.667969 29.804688 29.601562 29.941406 C 29.496094 30.125 29.496094 30.230469 29.589844 30.320312 C 29.714844 30.445312 29.726562 30.410156 29.761719 29.941406 C 29.769531 29.839844 29.910156 29.761719 30.148438 29.738281 C 30.34375 29.714844 30.515625 29.65625 30.515625 29.589844 C 30.515625 29.53125 30.570312 29.484375 30.640625 29.484375 C 30.824219 29.484375 31.769531 28.503906 31.769531 28.308594 C 31.769531 28 32.421875 27.566406 32.996094 27.484375 C 33.335938 27.441406 33.679688 27.304688 33.910156 27.109375 L 34.285156 26.800781 L 34.058594 26.296875 C 33.644531 25.394531 33.714844 25.304688 34.902344 25.175781 C 35.292969 25.144531 35.679688 25.074219 35.769531 25.015625 C 35.863281 24.960938 36.023438 24.949219 36.113281 24.984375 C 36.207031 25.027344 36.847656 25.074219 37.542969 25.097656 Z M 43.222656 25.382812 C 43.453125 25.507812 43.460938 25.519531 43.269531 25.667969 C 42.960938 25.886719 42.34375 25.589844 42.59375 25.335938 C 42.707031 25.222656 42.960938 25.246094 43.222656 25.382812 Z M 43.769531 28.457031 C 43.769531 28.515625 43.726562 28.570312 43.65625 28.570312 C 43.601562 28.570312 43.542969 28.515625 43.542969 28.457031 C 43.542969 28.386719 43.601562 28.34375 43.65625 28.34375 C 43.726562 28.34375 43.769531 28.386719 43.769531 28.457031 Z M 43.441406 30.730469 C 43.359375 30.789062 43.3125 30.878906 43.359375 30.949219 C 43.394531 31.015625 43.382812 31.097656 43.3125 31.144531 C 43.257812 31.175781 43.199219 31.3125 43.199219 31.429688 C 43.199219 31.542969 43.144531 31.65625 43.074219 31.679688 C 42.984375 31.714844 42.996094 31.769531 43.097656 31.886719 C 43.335938 32.136719 43.292969 32.707031 43.015625 32.972656 C 42.558594 33.40625 42.367188 33.460938 42.011719 33.257812 C 41.566406 33.015625 41.496094 32.800781 41.875 32.800781 C 42.023438 32.800781 42.195312 32.742188 42.230469 32.6875 C 42.261719 32.617188 42.195312 32.570312 42.070312 32.570312 C 41.941406 32.570312 41.804688 32.515625 41.769531 32.457031 C 41.726562 32.386719 41.839844 32.34375 42.035156 32.34375 C 42.386719 32.34375 42.8125 31.976562 42.6875 31.78125 C 42.652344 31.714844 42.503906 31.65625 42.355469 31.65625 C 42.195312 31.65625 42.089844 31.589844 42.089844 31.472656 C 42.089844 31.347656 42.171875 31.3125 42.367188 31.347656 C 42.582031 31.394531 42.628906 31.347656 42.628906 31.085938 C 42.628906 30.6875 42.695312 30.628906 43.1875 30.628906 C 43.460938 30.628906 43.554688 30.664062 43.441406 30.730469 Z M 40.296875 32.539062 C 40.171875 32.664062 40.101562 32.492188 40.195312 32.273438 C 40.273438 32.070312 40.285156 32.070312 40.320312 32.261719 C 40.34375 32.378906 40.332031 32.503906 40.296875 32.539062 Z M 39.234375 33.644531 C 39.304688 33.828125 39.210938 33.964844 39.074219 33.875 C 38.9375 33.792969 38.949219 33.484375 39.074219 33.484375 C 39.132812 33.484375 39.199219 33.554688 39.234375 33.644531 Z M 39.234375 33.644531 "/>
<path style=" stroke:none;fill-rule:nonzero;fill:rgb(0%,0%,0%);fill-opacity:1;" d="M 34.71875 26.707031 C 34.800781 26.742188 34.902344 26.730469 34.9375 26.695312 C 34.984375 26.664062 34.914062 26.628906 34.789062 26.640625 C 34.664062 26.640625 34.628906 26.675781 34.71875 26.707031 Z M 34.71875 26.707031 "/>
<path style=" stroke:none;fill-rule:nonzero;fill:rgb(0%,0%,0%);fill-opacity:1;" d="M 72.570312 22.445312 C 72.570312 22.46875 72.652344 22.546875 72.742188 22.628906 C 72.878906 22.742188 72.914062 22.742188 72.914062 22.582031 C 72.914062 22.480469 72.835938 22.398438 72.742188 22.398438 C 72.652344 22.398438 72.570312 22.421875 72.570312 22.445312 Z M 72.570312 22.445312 "/>
<path style=" stroke:none;fill-rule:nonzero;fill:rgb(0%,0%,0%);fill-opacity:1;" d="M 73.429688 23.085938 C 73.335938 23.234375 73.472656 23.65625 73.613281 23.65625 C 73.667969 23.65625 73.714844 23.496094 73.714844 23.3125 C 73.714844 22.972656 73.566406 22.855469 73.429688 23.085938 Z M 73.429688 23.085938 "/>
<path style=" stroke:none;fill-rule:nonzero;fill:rgb(0%,0%,0%);fill-opacity:1;" d="M 72.183594 23.726562 C 72.078125 23.976562 72.089844 24 72.285156 24 C 72.378906 24 72.457031 23.898438 72.457031 23.769531 C 72.457031 23.496094 72.285156 23.460938 72.183594 23.726562 Z M 72.183594 23.726562 "/>
<path style=" stroke:none;fill-rule:nonzero;fill:rgb(0%,0%,0%);fill-opacity:1;" d="M 72.582031 24.308594 C 72.070312 25.003906 72.035156 25.085938 72.285156 25.1875 C 72.527344 25.28125 72.800781 25.152344 72.800781 24.960938 C 72.800781 24.867188 72.867188 24.800781 72.949219 24.800781 C 73.097656 24.800781 73.371094 24.285156 73.371094 23.988281 C 73.371094 23.554688 73.039062 23.691406 72.582031 24.308594 Z M 72.582031 24.308594 "/>
<path style=" stroke:none;fill-rule:nonzero;fill:rgb(0%,0%,0%);fill-opacity:1;" d="M 71.714844 24.34375 C 71.621094 24.492188 71.761719 24.707031 71.898438 24.628906 C 72.035156 24.539062 72.035156 24.230469 71.898438 24.230469 C 71.828125 24.230469 71.75 24.273438 71.714844 24.34375 Z M 71.714844 24.34375 "/>
<path style=" stroke:none;fill-rule:nonzero;fill:rgb(0%,0%,0%);fill-opacity:1;" d="M 71.40625 24.847656 C 71.132812 25.050781 71.144531 25.371094 71.429688 25.371094 C 71.613281 25.371094 71.65625 25.292969 71.65625 25.027344 C 71.65625 24.640625 71.667969 24.640625 71.40625 24.847656 Z M 71.40625 24.847656 "/>
<path style=" stroke:none;fill-rule:nonzero;fill:rgb(0%,0%,0%);fill-opacity:1;" d="M 72.230469 25.65625 C 72.230469 25.761719 72.285156 25.828125 72.355469 25.804688 C 72.421875 25.78125 72.480469 25.714844 72.480469 25.65625 C 72.480469 25.601562 72.421875 25.53125 72.355469 25.507812 C 72.285156 25.484375 72.230469 25.554688 72.230469 25.65625 Z M 72.230469 25.65625 "/>
<path style=" stroke:none;fill-rule:nonzero;fill:rgb(0%,0%,0%);fill-opacity:1;" d="M 71.085938 25.929688 C 71.085938 26.058594 71.761719 26.160156 71.828125 26.058594 C 71.863281 26.011719 71.851562 25.941406 71.804688 25.898438 C 71.691406 25.792969 71.085938 25.816406 71.085938 25.929688 Z M 71.085938 25.929688 "/>
<path style=" stroke:none;fill-rule:nonzero;fill:rgb(0%,0%,0%);fill-opacity:1;" d="M 70.996094 32.34375 C 70.996094 32.558594 71.015625 32.652344 71.050781 32.539062 C 71.074219 32.433594 71.074219 32.25 71.050781 32.136719 C 71.015625 32.035156 70.996094 32.125 70.996094 32.34375 Z M 70.996094 32.34375 "/>
<path style=" stroke:none;fill-rule:nonzero;fill:rgb(0%,0%,0%);fill-opacity:1;" d="M 43.941406 38.058594 L 43.601562 38.148438 L 43.941406 38.148438 C 44.136719 38.148438 44.410156 38.101562 44.570312 38.058594 L 44.855469 37.964844 L 44.570312 37.964844 C 44.410156 37.964844 44.136719 38.011719 43.941406 38.058594 Z M 43.941406 38.058594 "/>
<path style=" stroke:none;fill-rule:nonzero;fill:rgb(0%,0%,0%);fill-opacity:1;" d="M 40.492188 39.359375 C 39.851562 39.851562 39.246094 40.503906 38.824219 41.164062 C 38.503906 41.667969 38.605469 41.691406 38.925781 41.199219 C 39.359375 40.539062 40.320312 39.566406 40.902344 39.1875 C 41.1875 39.003906 41.359375 38.855469 41.292969 38.855469 C 41.222656 38.855469 40.867188 39.085938 40.492188 39.359375 Z M 40.492188 39.359375 "/>
<path style=" stroke:none;fill-rule:nonzero;fill:rgb(0%,0%,0%);fill-opacity:1;" d="M 38.238281 42.457031 C 38.207031 42.558594 38.171875 42.730469 38.183594 42.835938 C 38.183594 42.9375 38.238281 42.878906 38.296875 42.695312 C 38.398438 42.332031 38.367188 42.148438 38.238281 42.457031 Z M 38.238281 42.457031 "/>
<path style=" stroke:none;fill-rule:nonzero;fill:rgb(0%,0%,0%);fill-opacity:1;" d="M 38.089844 44.34375 C 38.089844 44.878906 38.113281 45.097656 38.136719 44.824219 C 38.160156 44.558594 38.160156 44.125 38.136719 43.851562 C 38.113281 43.589844 38.089844 43.804688 38.089844 44.34375 Z M 38.089844 44.34375 "/>
<path style=" stroke:none;fill-rule:nonzero;fill:rgb(0%,0%,0%);fill-opacity:1;" d="M 0 62.160156 L 0 80 L 18.492188 79.976562 C 28.652344 79.964844 36.765625 79.941406 36.515625 79.929688 C 35.074219 79.816406 32.308594 79.382812 30.972656 79.0625 C 29.382812 78.6875 26.183594 77.714844 25.496094 77.40625 C 25.144531 77.246094 24.753906 77.074219 24.628906 77.027344 C 23.0625 76.410156 20.539062 75.144531 18.855469 74.113281 C 17.703125 73.40625 15.429688 71.738281 14.136719 70.652344 C 12.078125 68.925781 9.027344 65.632812 7.484375 63.472656 C 7.132812 62.972656 6.765625 62.492188 6.6875 62.398438 C 6.605469 62.308594 6.410156 62 6.25 61.714844 C 6.101562 61.429688 5.703125 60.765625 5.371094 60.230469 C 4.777344 59.246094 3.074219 55.839844 2.914062 55.3125 C 2.867188 55.152344 2.765625 54.867188 2.6875 54.6875 C 2.21875 53.554688 1.941406 52.742188 1.28125 50.457031 C 0.8125 48.855469 0.230469 45.714844 0.230469 44.8125 C 0.230469 44.617188 0.183594 44.433594 0.113281 44.398438 C 0.0351562 44.355469 0 50.308594 0 62.160156 Z M 0 62.160156 "/>
<path style=" stroke:none;fill-rule:nonzero;fill:rgb(0%,0%,0%);fill-opacity:1;" d="M 38.183594 45.78125 C 38.183594 45.910156 38.21875 45.941406 38.25 45.851562 C 38.285156 45.769531 38.273438 45.667969 38.238281 45.632812 C 38.207031 45.589844 38.171875 45.65625 38.183594 45.78125 Z M 38.183594 45.78125 "/>
<path style=" stroke:none;fill-rule:nonzero;fill:rgb(0%,0%,0%);fill-opacity:1;" d="M 38.285156 46.113281 C 38.285156 46.171875 38.34375 46.308594 38.398438 46.398438 C 38.457031 46.492188 38.515625 46.515625 38.515625 46.457031 C 38.515625 46.386719 38.457031 46.261719 38.398438 46.171875 C 38.34375 46.078125 38.285156 46.046875 38.285156 46.113281 Z M 38.285156 46.113281 "/>
<path style=" stroke:none;fill-rule:nonzero;fill:rgb(0%,0%,0%);fill-opacity:1;" d="M 38.890625 47.429688 C 38.984375 47.589844 39.074219 47.839844 39.109375 48 C 39.152344 48.285156 39.144531 48.285156 38.582031 48.261719 C 38.261719 48.238281 37.75 48.195312 37.429688 48.171875 C 37.121094 48.136719 35.109375 48.035156 32.972656 47.929688 C 30.835938 47.828125 28.59375 47.714844 28 47.667969 L 26.914062 47.601562 L 26.527344 47.941406 C 26.207031 48.238281 26.160156 48.34375 26.261719 48.527344 C 26.480469 48.9375 26.640625 50.789062 26.742188 54 C 26.878906 58.207031 26.867188 61.898438 26.730469 63.027344 C 26.664062 63.53125 26.617188 64.089844 26.617188 64.285156 C 26.628906 65.0625 27.429688 65.519531 28.46875 65.359375 C 28.765625 65.3125 31.359375 65.269531 34.230469 65.269531 C 40.136719 65.257812 41.347656 65.152344 42.570312 64.539062 C 43.132812 64.25 44.148438 64.035156 45.621094 63.886719 C 46.25 63.828125 46.960938 63.679688 47.210938 63.578125 C 47.453125 63.460938 48.113281 62.949219 48.664062 62.433594 C 49.542969 61.632812 49.703125 61.417969 49.828125 60.949219 C 50.058594 60.070312 50.183594 59.769531 50.480469 59.542969 C 51.3125 58.890625 51.578125 57.941406 51.441406 56.160156 C 51.347656 54.9375 51.152344 54.492188 50.410156 53.769531 C 50.21875 53.578125 50.058594 53.347656 50.058594 53.246094 C 50.058594 53.144531 49.976562 52.996094 49.886719 52.914062 C 49.792969 52.835938 49.714844 52.695312 49.714844 52.617188 C 49.714844 52.320312 49.085938 51.566406 48.730469 51.441406 C 48.527344 51.371094 48.34375 51.210938 48.308594 51.097656 C 48.285156 50.972656 48.136719 50.855469 47.988281 50.835938 C 47.839844 50.824219 47.714844 50.71875 47.714844 50.628906 C 47.714844 50.503906 47.886719 50.433594 48.34375 50.386719 C 48.847656 50.332031 48.753906 50.320312 47.816406 50.308594 C 44.996094 50.261719 42.355469 49.78125 40.847656 49.027344 C 39.976562 48.605469 39.507812 48.207031 38.9375 47.429688 L 38.71875 47.144531 Z M 41.769531 50.058594 C 41.804688 50.113281 41.976562 50.171875 42.148438 50.171875 C 42.433594 50.171875 43.085938 50.367188 43.371094 50.527344 C 43.441406 50.558594 43.714844 50.605469 44 50.617188 C 44.902344 50.675781 44.789062 50.855469 43.863281 50.855469 C 43.382812 50.855469 42.949219 50.800781 42.914062 50.742188 C 42.878906 50.675781 42.753906 50.628906 42.640625 50.628906 C 42.433594 50.628906 41.371094 50.089844 41.371094 49.988281 C 41.371094 49.898438 41.703125 49.941406 41.769531 50.058594 Z M 40.332031 51.726562 C 40.355469 51.75 40.355469 51.804688 40.308594 51.839844 C 40.207031 51.941406 39.65625 51.78125 39.65625 51.65625 C 39.65625 51.554688 40.195312 51.613281 40.332031 51.726562 Z M 35.816406 52.421875 C 35.910156 52.605469 35.988281 52.6875 36 52.605469 C 36 52.515625 36.261719 52.582031 36.742188 52.800781 C 37.152344 52.984375 37.484375 53.097656 37.484375 53.050781 C 37.496094 53.003906 37.601562 53.097656 37.714844 53.246094 C 37.875 53.429688 38 53.484375 38.136719 53.429688 C 38.25 53.382812 38.605469 53.335938 38.925781 53.324219 C 39.257812 53.3125 39.589844 53.246094 39.679688 53.164062 C 39.804688 53.074219 40.195312 53.050781 41.039062 53.097656 C 42.9375 53.199219 43.003906 53.199219 43.417969 52.996094 C 43.941406 52.730469 44 52.742188 43.929688 53.132812 C 43.886719 53.371094 43.910156 53.472656 44.058594 53.53125 C 44.21875 53.589844 44.230469 53.632812 44.113281 53.769531 C 44.035156 53.863281 43.863281 53.941406 43.714844 53.941406 C 43.210938 53.941406 42.742188 54.183594 42.742188 54.433594 C 42.742188 54.652344 43.554688 55.542969 43.761719 55.542969 C 43.792969 55.542969 43.910156 55.589844 44 55.65625 C 44.136719 55.738281 44.136719 55.78125 43.964844 55.976562 C 43.792969 56.171875 43.78125 56.21875 43.929688 56.332031 C 44.058594 56.433594 44.070312 56.558594 43.988281 56.824219 C 43.941406 57.015625 43.875 57.199219 43.839844 57.222656 C 43.816406 57.246094 43.601562 57.144531 43.371094 56.972656 C 42.890625 56.652344 42.34375 56.59375 42.238281 56.855469 C 42.207031 56.949219 42.101562 57.027344 42 57.027344 C 41.910156 57.027344 41.828125 57.097656 41.828125 57.164062 C 41.828125 57.269531 42.011719 57.304688 42.480469 57.28125 C 42.925781 57.246094 43.109375 57.28125 43.027344 57.347656 C 42.972656 57.417969 42.789062 57.484375 42.628906 57.507812 C 42.261719 57.554688 42.238281 57.953125 42.605469 58.113281 C 42.949219 58.261719 42.925781 58.433594 42.539062 58.582031 C 42.296875 58.675781 42.183594 58.675781 42.078125 58.546875 C 41.964844 58.433594 41.964844 58.398438 42.078125 58.386719 C 42.160156 58.386719 42.101562 58.34375 41.941406 58.296875 C 41.78125 58.238281 41.429688 58.238281 41.144531 58.285156 C 40.640625 58.355469 40.640625 58.367188 40.960938 58.457031 C 41.164062 58.515625 41.371094 58.503906 41.496094 58.421875 C 41.75 58.261719 41.863281 58.492188 41.667969 58.777344 C 41.554688 58.914062 41.417969 58.949219 41.109375 58.890625 C 40.824219 58.847656 40.558594 58.902344 40.195312 59.074219 C 39.621094 59.347656 39.453125 59.359375 39.175781 59.152344 C 38.890625 58.949219 38.914062 58.890625 39.3125 58.8125 C 39.507812 58.777344 39.644531 58.6875 39.632812 58.605469 C 39.613281 58.503906 39.726562 58.46875 40.035156 58.492188 C 40.355469 58.527344 40.457031 58.492188 40.457031 58.355469 C 40.457031 58.089844 40.261719 58.023438 39.53125 58.046875 C 38.753906 58.058594 38.398438 58.230469 38.398438 58.59375 C 38.398438 58.730469 38.261719 58.949219 38.101562 59.074219 L 37.804688 59.3125 L 38.058594 59.519531 L 38.308594 59.714844 L 38.070312 59.929688 C 37.875 60.101562 37.804688 60.125 37.65625 60 C 37.554688 59.910156 37.027344 59.839844 36.308594 59.804688 C 34.285156 59.726562 33.507812 59.601562 33.222656 59.324219 C 33.050781 59.164062 32.8125 59.085938 32.539062 59.085938 C 32.195312 59.085938 32.078125 59.027344 31.976562 58.800781 C 31.910156 58.652344 31.816406 58.546875 31.761719 58.570312 C 31.714844 58.605469 31.632812 58.570312 31.589844 58.503906 C 31.542969 58.410156 31.554688 58.398438 31.632812 58.445312 C 31.714844 58.492188 31.769531 58.457031 31.769531 58.355469 C 31.769531 58.25 31.703125 58.171875 31.613281 58.171875 C 31.507812 58.171875 31.472656 58.089844 31.507812 57.941406 C 31.601562 57.613281 31.804688 57.484375 32.273438 57.460938 C 32.503906 57.453125 32.71875 57.40625 32.742188 57.359375 C 32.835938 57.222656 32.230469 57.132812 32 57.257812 C 31.714844 57.40625 31.542969 57.3125 31.542969 57.015625 C 31.542969 56.902344 31.496094 56.800781 31.429688 56.800781 C 31.371094 56.800781 31.3125 56.730469 31.3125 56.640625 C 31.3125 56.546875 31.234375 56.457031 31.144531 56.410156 C 31.050781 56.378906 30.972656 56.273438 30.972656 56.171875 C 30.972656 56.070312 30.890625 55.863281 30.789062 55.714844 C 30.617188 55.453125 30.617188 55.429688 30.789062 55.359375 C 30.890625 55.324219 31.132812 55.3125 31.3125 55.335938 C 31.75 55.40625 31.953125 55.199219 31.78125 54.867188 C 31.601562 54.539062 31.621094 54.515625 32.089844 54.515625 C 32.445312 54.515625 32.558594 54.457031 32.71875 54.171875 C 32.835938 53.988281 32.914062 53.804688 32.914062 53.769531 C 32.902344 53.703125 33.703125 53.027344 33.78125 53.027344 C 33.804688 53.027344 34.011719 53.121094 34.238281 53.222656 C 34.652344 53.417969 34.652344 53.417969 34.878906 53.144531 C 35.015625 52.972656 35.074219 52.777344 35.027344 52.605469 C 34.984375 52.398438 35.027344 52.308594 35.222656 52.230469 C 35.613281 52.078125 35.632812 52.089844 35.816406 52.421875 Z M 41.601562 52.285156 C 41.601562 52.46875 41.496094 52.503906 41.210938 52.386719 C 40.925781 52.285156 40.996094 52.113281 41.3125 52.113281 C 41.496094 52.113281 41.601562 52.183594 41.601562 52.285156 Z M 45.246094 55.929688 L 45.496094 56.195312 L 45.199219 56.386719 C 44.777344 56.664062 44.34375 56.527344 44.34375 56.113281 C 44.34375 55.601562 44.847656 55.496094 45.246094 55.929688 Z M 29.601562 58.261719 C 29.601562 58.492188 29.554688 58.617188 29.484375 58.570312 C 29.429688 58.539062 29.371094 58.285156 29.371094 58.023438 C 29.371094 57.667969 29.40625 57.589844 29.484375 57.714844 C 29.542969 57.804688 29.601562 58.058594 29.601562 58.261719 Z M 29.953125 59.484375 C 30.355469 59.703125 30.605469 60.21875 30.378906 60.367188 C 30.296875 60.410156 30.078125 60.445312 29.886719 60.433594 C 29.566406 60.398438 29.542969 60.367188 29.507812 59.851562 C 29.484375 59.554688 29.507812 59.3125 29.542969 59.3125 C 29.578125 59.3125 29.761719 59.394531 29.953125 59.484375 Z M 29.953125 59.484375 "/>
<path style=" stroke:none;fill-rule:nonzero;fill:rgb(0%,0%,0%);fill-opacity:1;" d="M 32.527344 54.71875 C 32.492188 54.789062 32.515625 54.878906 32.582031 54.914062 C 32.753906 55.027344 32.867188 54.878906 32.71875 54.730469 C 32.640625 54.652344 32.570312 54.652344 32.527344 54.71875 Z M 32.527344 54.71875 "/>
<path style=" stroke:none;fill-rule:nonzero;fill:rgb(0%,0%,0%);fill-opacity:1;" d="M 32.308594 55.429688 C 32.195312 55.566406 32.046875 55.632812 31.976562 55.589844 C 31.886719 55.53125 31.875 55.566406 31.921875 55.691406 C 31.976562 55.839844 31.929688 55.886719 31.726562 55.886719 C 31.472656 55.886719 31.460938 55.910156 31.578125 56.160156 C 31.703125 56.421875 31.714844 56.421875 31.863281 56.21875 C 31.941406 56.089844 32.148438 56 32.332031 56 C 32.6875 56 32.914062 55.816406 32.914062 55.53125 C 32.914062 55.382812 32.707031 55.199219 32.527344 55.199219 C 32.515625 55.199219 32.421875 55.304688 32.308594 55.429688 Z M 32.308594 55.429688 "/>
<path style=" stroke:none;fill-rule:nonzero;fill:rgb(0%,0%,0%);fill-opacity:1;" d="M 41.429688 55.28125 C 40.949219 55.347656 40.320312 55.644531 40.398438 55.78125 C 40.480469 55.898438 41.003906 55.804688 41.222656 55.632812 C 41.304688 55.566406 41.453125 55.542969 41.542969 55.589844 C 41.632812 55.621094 41.851562 55.601562 42.023438 55.53125 C 42.273438 55.441406 42.296875 55.394531 42.171875 55.3125 C 42.078125 55.246094 41.953125 55.210938 41.886719 55.222656 C 41.828125 55.222656 41.621094 55.257812 41.429688 55.28125 Z M 41.429688 55.28125 "/>
<path style=" stroke:none;fill-rule:nonzero;fill:rgb(0%,0%,0%);fill-opacity:1;" d="M 33.40625 56.753906 C 33.324219 56.835938 33.257812 57.015625 33.257812 57.144531 C 33.257812 57.28125 33.210938 57.359375 33.164062 57.324219 C 32.996094 57.222656 32.824219 57.644531 32.925781 57.921875 C 33.0625 58.296875 33.257812 58.230469 33.234375 57.804688 C 33.199219 57.507812 33.246094 57.429688 33.484375 57.359375 C 33.644531 57.3125 33.691406 57.269531 33.601562 57.269531 C 33.460938 57.257812 33.460938 57.234375 33.578125 57.164062 C 33.667969 57.097656 33.691406 56.984375 33.632812 56.835938 C 33.554688 56.640625 33.519531 56.617188 33.40625 56.753906 Z M 33.40625 56.753906 "/>
<path style=" stroke:none;fill-rule:nonzero;fill:rgb(0%,0%,0%);fill-opacity:1;" d="M 15.3125 49.121094 C 15.3125 49.359375 16.136719 52.515625 16.25 52.6875 C 16.378906 52.878906 16.398438 52.984375 15.816406 50.6875 C 15.441406 49.210938 15.3125 48.800781 15.3125 49.121094 Z M 15.3125 49.121094 "/>
<path style=" stroke:none;fill-rule:nonzero;fill:rgb(0%,0%,0%);fill-opacity:1;" d="M 50.855469 50.25 C 55.679688 50.332031 59.75 50.332031 59.691406 50.25 C 59.667969 50.207031 57.246094 50.183594 54.308594 50.195312 C 51.371094 50.207031 49.816406 50.238281 50.855469 50.25 Z M 50.855469 50.25 "/>
<path style=" stroke:none;fill-rule:nonzero;fill:rgb(0%,0%,0%);fill-opacity:1;" d="M 59.863281 55.953125 C 59.875 58.902344 59.910156 61.667969 59.921875 62.113281 C 59.941406 62.546875 59.964844 60.34375 59.964844 57.199219 C 59.976562 54.058594 59.953125 51.28125 59.910156 51.039062 C 59.863281 50.789062 59.839844 53.003906 59.863281 55.953125 Z M 59.863281 55.953125 "/>
<path style=" stroke:none;fill-rule:nonzero;fill:rgb(0%,0%,0%);fill-opacity:1;" d="M 16.355469 53.027344 C 16.355469 53.121094 16.398438 53.28125 16.457031 53.371094 C 16.59375 53.578125 16.59375 53.394531 16.457031 53.085938 C 16.386719 52.9375 16.355469 52.914062 16.355469 53.027344 Z M 16.355469 53.027344 "/>
<path style=" stroke:none;fill-rule:nonzero;fill:rgb(0%,0%,0%);fill-opacity:1;" d="M 16.570312 53.667969 C 16.570312 53.738281 16.730469 54.171875 16.925781 54.640625 C 17.121094 55.109375 17.324219 55.613281 17.382812 55.761719 C 17.441406 55.910156 17.519531 56.011719 17.542969 55.976562 C 17.578125 55.941406 17.484375 55.644531 17.335938 55.304688 C 17.175781 54.960938 16.949219 54.421875 16.824219 54.113281 C 16.6875 53.792969 16.582031 53.601562 16.570312 53.667969 Z M 16.570312 53.667969 "/>
<path style=" stroke:none;fill-rule:nonzero;fill:rgb(0%,0%,0%);fill-opacity:1;" d="M 17.601562 56.21875 C 17.601562 56.285156 17.644531 56.367188 17.714844 56.398438 C 17.78125 56.433594 17.792969 56.386719 17.761719 56.296875 C 17.679688 56.089844 17.601562 56.058594 17.601562 56.21875 Z M 17.601562 56.21875 "/>
<path style=" stroke:none;fill-rule:nonzero;fill:rgb(0%,0%,0%);fill-opacity:1;" d="M 17.875 56.730469 C 17.976562 57.027344 19.1875 59.085938 19.269531 59.085938 C 19.335938 59.085938 18.824219 58.148438 18.195312 57.144531 C 17.976562 56.800781 17.839844 56.605469 17.875 56.730469 Z M 17.875 56.730469 "/>
<path style=" stroke:none;fill-rule:nonzero;fill:rgb(0%,0%,0%);fill-opacity:1;" d="M 19.429688 59.417969 C 19.484375 59.542969 19.601562 59.679688 19.667969 59.726562 C 19.738281 59.761719 19.703125 59.667969 19.601562 59.496094 C 19.371094 59.152344 19.257812 59.097656 19.429688 59.417969 Z M 19.429688 59.417969 "/>
<path style=" stroke:none;fill-rule:nonzero;fill:rgb(0%,0%,0%);fill-opacity:1;" d="M 19.769531 59.929688 C 19.769531 59.953125 19.863281 60.046875 19.976562 60.125 C 20.148438 60.273438 20.160156 60.261719 20.011719 60.078125 C 19.863281 59.898438 19.769531 59.839844 19.769531 59.929688 Z M 19.769531 59.929688 "/>
<path style=" stroke:none;fill-rule:nonzero;fill:rgb(0%,0%,0%);fill-opacity:1;" d="M 20.332031 60.640625 C 20.457031 60.835938 21.015625 61.460938 21.566406 62.023438 C 22.113281 62.582031 22.261719 62.707031 21.886719 62.296875 C 21.507812 61.886719 20.949219 61.257812 20.640625 60.914062 C 20.34375 60.570312 20.195312 60.445312 20.332031 60.640625 Z M 20.332031 60.640625 "/>
<path style=" stroke:none;fill-rule:nonzero;fill:rgb(0%,0%,0%);fill-opacity:1;" d="M 23.085938 63.460938 C 23.371094 63.78125 24.914062 64.972656 24.914062 64.855469 C 24.914062 64.835938 24.617188 64.59375 24.261719 64.332031 C 23.898438 64.070312 23.417969 63.691406 23.199219 63.496094 C 22.824219 63.164062 22.824219 63.164062 23.085938 63.460938 Z M 23.085938 63.460938 "/>
<path style=" stroke:none;fill-rule:nonzero;fill:rgb(0%,0%,0%);fill-opacity:1;" d="M 57.941406 64.34375 C 56.972656 64.835938 56.207031 65.246094 56.261719 65.246094 C 56.378906 65.257812 59.566406 63.679688 59.703125 63.542969 C 59.886719 63.359375 59.792969 63.394531 57.941406 64.34375 Z M 57.941406 64.34375 "/>
<path style=" stroke:none;fill-rule:nonzero;fill:rgb(0%,0%,0%);fill-opacity:1;" d="M 25.199219 65.085938 C 25.324219 65.1875 25.53125 65.324219 25.65625 65.382812 L 25.886719 65.496094 L 25.65625 65.3125 C 25.53125 65.210938 25.324219 65.074219 25.199219 65.015625 L 24.972656 64.902344 Z M 25.199219 65.085938 "/>
<path style=" stroke:none;fill-rule:nonzero;fill:rgb(0%,0%,0%);fill-opacity:1;" d="M 55.3125 65.53125 C 54.972656 65.667969 54.582031 65.816406 54.46875 65.863281 C 54.355469 65.910156 54.273438 65.976562 54.308594 66.011719 C 54.367188 66.070312 55.941406 65.460938 56.078125 65.335938 C 56.207031 65.199219 55.964844 65.269531 55.3125 65.53125 Z M 55.3125 65.53125 "/>
<path style=" stroke:none;fill-rule:nonzero;fill:rgb(0%,0%,0%);fill-opacity:1;" d="M 26.628906 65.988281 C 26.628906 66.011719 26.707031 66.070312 26.8125 66.101562 C 26.902344 66.136719 26.949219 66.125 26.914062 66.058594 C 26.847656 65.941406 26.628906 65.898438 26.628906 65.988281 Z M 26.628906 65.988281 "/>
<path style=" stroke:none;fill-rule:nonzero;fill:rgb(0%,0%,0%);fill-opacity:1;" d="M 53.828125 66.171875 C 53.738281 66.230469 53.714844 66.285156 53.769531 66.285156 C 53.839844 66.285156 53.964844 66.230469 54.058594 66.171875 C 54.148438 66.113281 54.183594 66.058594 54.113281 66.058594 C 54.058594 66.058594 53.921875 66.113281 53.828125 66.171875 Z M 53.828125 66.171875 "/>
<path style=" stroke:none;fill-rule:nonzero;fill:rgb(0%,0%,0%);fill-opacity:1;" d="M 27.085938 66.230469 C 27.085938 66.308594 28.46875 66.996094 28.527344 66.949219 C 28.546875 66.925781 28.230469 66.742188 27.828125 66.539062 C 27.417969 66.34375 27.085938 66.195312 27.085938 66.230469 Z M 27.085938 66.230469 "/>
<path style=" stroke:none;fill-rule:nonzero;fill:rgb(0%,0%,0%);fill-opacity:1;" d="M 53.257812 66.386719 C 53.164062 66.445312 52.421875 66.707031 51.601562 66.984375 C 50.789062 67.246094 50.171875 67.484375 50.238281 67.507812 C 50.308594 67.53125 51.015625 67.3125 51.816406 67.039062 C 53.210938 66.539062 53.78125 66.296875 53.542969 66.296875 C 53.484375 66.296875 53.347656 66.332031 53.257812 66.386719 Z M 53.257812 66.386719 "/>
<path style=" stroke:none;fill-rule:nonzero;fill:rgb(0%,0%,0%);fill-opacity:1;" d="M 28.742188 67.085938 C 28.777344 67.144531 28.867188 67.199219 28.925781 67.199219 C 28.996094 67.199219 29.003906 67.144531 28.972656 67.085938 C 28.9375 67.015625 28.847656 66.972656 28.789062 66.972656 C 28.71875 66.972656 28.707031 67.015625 28.742188 67.085938 Z M 28.742188 67.085938 "/>
<path style=" stroke:none;fill-rule:nonzero;fill:rgb(0%,0%,0%);fill-opacity:1;" d="M 29.257812 67.3125 C 29.347656 67.371094 29.484375 67.429688 29.542969 67.429688 C 29.613281 67.429688 29.578125 67.371094 29.484375 67.3125 C 29.394531 67.257812 29.269531 67.199219 29.199219 67.199219 C 29.144531 67.199219 29.164062 67.257812 29.257812 67.3125 Z M 29.257812 67.3125 "/>
<path style=" stroke:none;fill-rule:nonzero;fill:rgb(0%,0%,0%);fill-opacity:1;" d="M 29.988281 67.589844 C 30.113281 67.691406 30.296875 67.769531 30.386719 67.761719 C 30.546875 67.761719 30.546875 67.75 30.398438 67.691406 C 30.308594 67.65625 30.125 67.578125 30 67.519531 C 29.769531 67.417969 29.769531 67.417969 29.988281 67.589844 Z M 29.988281 67.589844 "/>
<path style=" stroke:none;fill-rule:nonzero;fill:rgb(0%,0%,0%);fill-opacity:1;" d="M 49.601562 67.65625 C 49.359375 67.738281 49.359375 67.75 49.542969 67.761719 C 49.667969 67.761719 49.851562 67.714844 49.941406 67.65625 C 50.148438 67.53125 50 67.53125 49.601562 67.65625 Z M 49.601562 67.65625 "/>
<path style=" stroke:none;fill-rule:nonzero;fill:rgb(0%,0%,0%);fill-opacity:1;" d="M 47.429688 68.113281 C 46.582031 68.296875 45.347656 68.503906 44.6875 68.570312 C 43.292969 68.730469 42.527344 68.925781 43.65625 68.835938 C 45.003906 68.730469 49.074219 67.988281 49.246094 67.816406 C 49.335938 67.738281 49.015625 67.78125 47.429688 68.113281 Z M 47.429688 68.113281 "/>
<path style=" stroke:none;fill-rule:nonzero;fill:rgb(0%,0%,0%);fill-opacity:1;" d="M 30.949219 67.964844 C 31.027344 68 31.132812 67.988281 31.164062 67.953125 C 31.210938 67.921875 31.144531 67.886719 31.015625 67.898438 C 30.890625 67.898438 30.855469 67.929688 30.949219 67.964844 Z M 30.949219 67.964844 "/>
<path style=" stroke:none;fill-rule:nonzero;fill:rgb(0%,0%,0%);fill-opacity:1;" d="M 31.75 68.195312 C 31.828125 68.230469 31.929688 68.21875 31.964844 68.183594 C 32.011719 68.148438 31.941406 68.113281 31.816406 68.125 C 31.691406 68.125 31.65625 68.160156 31.75 68.195312 Z M 31.75 68.195312 "/>
<path style=" stroke:none;fill-rule:nonzero;fill:rgb(0%,0%,0%);fill-opacity:1;" d="M 32.777344 68.421875 C 32.855469 68.457031 32.960938 68.445312 32.996094 68.410156 C 33.039062 68.378906 32.972656 68.34375 32.847656 68.355469 C 32.71875 68.355469 32.6875 68.386719 32.777344 68.421875 Z M 32.777344 68.421875 "/>
<path style=" stroke:none;fill-rule:nonzero;fill:rgb(0%,0%,0%);fill-opacity:1;" d="M 33.460938 68.539062 C 33.542969 68.570312 33.644531 68.558594 33.679688 68.527344 C 33.726562 68.492188 33.65625 68.457031 33.53125 68.46875 C 33.40625 68.46875 33.371094 68.503906 33.460938 68.539062 Z M 33.460938 68.539062 "/>
<path style=" stroke:none;fill-rule:nonzero;fill:rgb(0%,0%,0%);fill-opacity:1;" d="M 34.148438 68.652344 C 34.21875 68.675781 34.355469 68.675781 34.433594 68.652344 C 34.503906 68.617188 34.445312 68.59375 34.285156 68.59375 C 34.125 68.59375 34.070312 68.617188 34.148438 68.652344 Z M 34.148438 68.652344 "/>
<path style=" stroke:none;fill-rule:nonzero;fill:rgb(0%,0%,0%);fill-opacity:1;" d="M 35.175781 68.765625 C 35.257812 68.800781 35.359375 68.789062 35.394531 68.753906 C 35.441406 68.71875 35.371094 68.6875 35.246094 68.695312 C 35.121094 68.695312 35.085938 68.730469 35.175781 68.765625 Z M 35.175781 68.765625 "/>
<path style=" stroke:none;fill-rule:nonzero;fill:rgb(0%,0%,0%);fill-opacity:1;" d="M 36.148438 68.878906 C 36.378906 68.902344 36.765625 68.902344 37.003906 68.878906 C 37.234375 68.855469 37.039062 68.835938 36.570312 68.835938 C 36.101562 68.835938 35.910156 68.855469 36.148438 68.878906 Z M 36.148438 68.878906 "/>
<path style=" stroke:none;fill-rule:nonzero;fill:rgb(0%,0%,0%);fill-opacity:1;" d="M 41.335938 68.878906 C 41.542969 68.902344 41.910156 68.902344 42.136719 68.878906 C 42.378906 68.855469 42.21875 68.835938 41.769531 68.835938 C 41.335938 68.835938 41.144531 68.855469 41.335938 68.878906 Z M 41.335938 68.878906 "/>
<path style=" stroke:none;fill-rule:nonzero;fill:rgb(0%,0%,0%);fill-opacity:1;" d="M 40.148438 68.996094 C 40.320312 69.015625 40.570312 69.015625 40.71875 68.996094 C 40.855469 68.972656 40.71875 68.949219 40.398438 68.949219 C 40.089844 68.949219 39.964844 68.972656 40.148438 68.996094 Z M 40.148438 68.996094 "/>
</g>
</svg>
