<svg width="129" height="58" viewBox="0 0 129 58" xmlns="http://www.w3.org/2000/svg"><g fill="none" fill-rule="evenodd"><path d="M108.745 22.152c-.058-.18-.113-.359-.178-.535l-.236-.52c-.148-.516-.408-1.076-.654-1.662-.308-.554-.614-1.141-.987-1.612-.714-.978-1.522-1.656-1.851-1.817-.842-.51-1.712-.873-2.568-1.178-.86-.27-1.71-.499-2.542-.638-1.667-.311-3.262-.403-4.791-.459-1.542-.046-2.962-.021-4.346-.012a79.3 79.3 0 00-4.004.133c-5.088.204-10.125.229-15.001.345-2.594.058-5.136.157-7.618.309l-.424-.292c-.806.159-1.598.27-1.773.449-.399.031-.8.061-1.196.095-1.218-.131-2.233-.074-3.008.3-.913-.144-.321-.253-.843-.384-1.383.1-2.883.127-4.418.101-.459-.116-1.132-.205-2.529-.21l-.036.119c-4.661-.25-9.258-.932-11.645-1.66-2.522.926-5.688.194-8.601.607-1.721.153-3.602.415-5.392.637-.9.116-1.74.188-2.66.294-.895.117-1.75.278-2.541.453A7.52 7.52 0 0016.3 16.26a8.657 8.657 0 00-1.879 1.941c-.964 1.396-1.487 2.769-1.882 4.082a13.973 13.973 0 00-.558 3.021c-.021.111-.051.219-.069.33.009.178.026.35.042.522-.004 1.353.208 2.654.65 3.834.211.617.614 1.134 1.011 1.576.136.15.276.29.415.432.949 1.505 2.287 3.122 2.287 3.813 2.745 2.106 6.508 2.103 9.966 2.005l15.774-.444c.478.053.963.128 1.405.285l.084-.327 6.171-.173c4.318.443 10.388.255 15.554.264 1.114-.016 1.832-.627 2.947-.644l1.578.337c1.117-.016 2.822-.162 3.35-.049 2.106.448 5.16.462 8.301.4 3.147-.074 6.355-.166 8.883-.106 1.681.041 3.422-.117 5.237-.431 1.814-.336 3.712-.814 5.696-1.614.433-.137.878-.347 1.344-.578.234-.109.475-.276.718-.423a6.33 6.33 0 00.723-.503c.964-.715 1.846-1.662 2.602-2.745a13.814 13.814 0 001.811-3.645c.416-1.329.631-2.753.571-4.168a6.93 6.93 0 00-.287-1.1" fill="#ECEEF1"/><path d="M64.126 38.764c-.241-.003-.489-.005-.718-.012.295.011.53.014.718.012M63.793 38.123c-.044.173 1.983.623.333.641.928.011 1.757.031.968.348 1.786-.027.124-.483 1.303-.739-.968.301-1.737-.167-2.604-.25M70.599 38.453c-.893.014-1.687-.359-2.443-.012.867.084 1.948.212 2.443.012M68.515 39.637l.47-.104-1.241-.365.771.469M73.469 39.146c.337.06.598.139.661.262l-3.148.145 2.839.197c1.715-.328.877-.472-.352-.604M69.817 38.898c-.031.113 1.386.073 2.61.14-.82-.088-1.559-.188-1.667-.346l-.943.206M73.469 39.146a9.044 9.044 0 00-1.042-.108l1.042.108M76.448 39.903l.448-.007.121-.482c-.913.11-.545.392-.569.489M79.918 40.234c1.312.077.375.284.324.475.819.276 2.466-.084 3.148-.142-1.03-.32-2.16-.256-3.472-.333M84.107 41.229l-2.676.039c.532.52 1.548.025 2.676-.039M86.966 40.512l1.489.404c.247-.055.049-.192.546-.304-.422-.177-1.369-.061-2.035-.1" fill="#EFC5CD"/><path d="M48.67 48.545h.71a.545.545 0 00.378-.127.447.447 0 00.143-.353.45.45 0 00-.145-.355.548.548 0 00-.38-.13h-.706v.965zm0-2.411v.906h.635c.157 0 .281-.04.373-.118a.412.412 0 00.138-.333.42.42 0 00-.138-.336.553.553 0 00-.373-.119h-.635zm-.705-.541h1.415c.357 0 .639.087.844.261a.825.825 0 01.307.66c0 .39-.226.652-.68.785a.867.867 0 01.76.871.813.813 0 01-.31.663c-.206.168-.487.252-.84.252h-1.496v-3.492zM55.31 47.89h.995l-.5-1.456-.495 1.456zm1.4 1.195l-.226-.655h-1.36l-.226.655h-.745l1.237-3.502h.835l1.231 3.502h-.746zM61.854 46.134v1.02h.58c.176 0 .311-.046.405-.137a.5.5 0 00.14-.373.497.497 0 00-.14-.372c-.094-.092-.229-.138-.405-.138h-.58zm0 1.56v1.391h-.707v-3.492h1.287c.403 0 .713.101.932.303a.976.976 0 01.328.748c0 .22-.067.425-.2.615-.134.19-.344.321-.631.391l.891 1.435h-.835l-.836-1.391h-.229zM68.132 48.393a.467.467 0 00.349.152.513.513 0 00.501-.52.496.496 0 00-.147-.363.485.485 0 00-.354-.148.474.474 0 00-.349.148.5.5 0 00-.146.363c0 .143.049.266.146.368zm.345.728c-.304 0-.561-.105-.773-.313a1.017 1.017 0 01-.317-.753c0-.294.083-.539.25-.735a.946.946 0 01.61-.346c-.197-.286-.295-.538-.295-.753 0-.215.086-.408.26-.58.173-.172.411-.258.715-.258.303 0 .544.08.72.24a.74.74 0 01.266.566.63.63 0 01-.06.285h-.675a.422.422 0 00.045-.202.292.292 0 00-.083-.208.282.282 0 00-.213-.085.276.276 0 00-.21.085.312.312 0 00-.08.222c0 .092.051.205.15.338l1.847 2.461h-.821l-.386-.53a1.03 1.03 0 01-.387.408 1.06 1.06 0 01-.563.158zM29.528 54.296v1.021h.581c.177 0 .312-.046.406-.138a.503.503 0 00.139-.372.504.504 0 00-.139-.373c-.094-.092-.229-.138-.406-.138h-.581zm0 1.561v1.391h-.705v-3.492h1.286c.404 0 .714.101.933.303a.976.976 0 01.328.748c0 .219-.067.425-.201.615-.133.19-.343.32-.63.391l.891 1.435h-.836l-.835-1.391h-.231zM37.288 53.746v.54h-1.31v.916h1.16v.54h-1.16v.966h1.31v.54h-2.017v-3.502h2.017M42.341 54.271a.527.527 0 00-.343.108.363.363 0 00-.132.297c0 .127.031.226.097.298a.63.63 0 00.258.166c.106.037.223.072.35.102.126.029.253.067.38.11s.243.096.351.16a.703.703 0 01.258.278.937.937 0 01.097.442.965.965 0 01-.343.741c-.228.206-.532.31-.911.31s-.684-.089-.918-.268c-.233-.179-.349-.429-.349-.752h.75c.026.307.201.459.525.459.16 0 .286-.041.38-.124a.424.424 0 00.141-.333.372.372 0 00-.186-.328 1.376 1.376 0 00-.447-.18 6.1 6.1 0 01-.528-.145.978.978 0 01-.451-.298c-.123-.141-.184-.329-.184-.563 0-.316.114-.57.344-.76.231-.19.527-.285.888-.285.362 0 .653.082.874.248.22.165.34.416.36.753h-.771a.466.466 0 00-.15-.318.488.488 0 00-.34-.118M47.329 54.296v-.54h2.587v.54h-.946v2.952h-.7v-2.952h-.941M54.549 56.052h.995l-.5-1.456-.495 1.456zm1.4 1.196l-.225-.655h-1.361l-.224.655h-.746l1.236-3.502h.835l1.231 3.502h-.746zM60.377 55.907v-2.151h.706v2.151c0 .24.061.422.183.546.121.123.295.184.522.184.227 0 .401-.061.525-.184.124-.124.185-.306.185-.546v-2.151h.701v2.151c0 .441-.138.78-.415 1.018a1.495 1.495 0 01-1.012.358c-.396 0-.728-.118-.995-.355-.266-.237-.4-.577-.4-1.021M67.842 54.296v1.021h.581c.177 0 .311-.046.405-.138a.5.5 0 00.14-.372.5.5 0 00-.14-.373c-.094-.092-.228-.138-.405-.138h-.581zm0 1.561v1.391h-.705v-3.492h1.286c.403 0 .714.101.932.303a.977.977 0 01.329.748c0 .219-.068.425-.201.615s-.343.32-.63.391l.89 1.435h-.835l-.836-1.391h-.23zM74.477 56.052h.995l-.5-1.456-.495 1.456zm1.4 1.196l-.226-.655h-1.36l-.226.655h-.745l1.236-3.502h.836l1.23 3.502h-.745zM82.601 53.746h.706v3.502h-.706l-1.581-2.421v2.421h-.706v-3.502h.706l1.581 2.421v-2.421M87.054 54.296v-.54h2.587v.54h-.947v2.952h-.7v-2.952h-.94M24.602 13.151c0-.161.107-.322.214-.429.805-.805 1.074-1.771 1.717-2.684-.643.537-2.414 3.059-2.736 3.811.429-.161.697-.43.805-.698zm-5.259 7.244c.268-.375.537-.858.804-1.341.323-.752.752-1.503 1.557-2.147.161-.215.321-.536.321-.804-.803.697-2.521 3.326-3.057 4.668a1.28 1.28 0 00.375-.376zm-7.352 10.464a6.08 6.08 0 01.269-.483v-.268c-.108.214-.269.321-.322.375 0 .161 0 .268-.053.376h.106zm2.951-21.411c.269-.321.537-.697.806-1.073.751-1.126 1.771-1.717 2.844-2.039.322-.107.804.054 1.073.215.482.215.912.375 1.557.215.643-.108 1.072 0 1.233.375 0 .215-.107.59-.054.697.054.376.054.699-.267 1.182-.109.052-.055.16-.055.268-.054 1.233.269.16-.268 1.395-.268.59-.322 1.126-.537 1.609-2.575 6.494.108 3.274 2.254.43.215-.591.591-1.074 1.074-1.556.751-1.074 1.663-2.039 2.415-3.166 1.234-1.61 2.682-3.059 4.292-4.186.59-.376 1.127-.966 1.664-.859.537.054 1.073.269 1.449.591.375.322.697.697.912 1.126.107.054.16.108.214.108.752.161.752.912.752 1.61-.054.161-.161.321-.161.429-.698 1.556-1.396 3.005-1.611 4.454a37.095 37.095 0 00-.268 2.253c-.107.698-.16 1.503-.322 2.308-.107.698-.107 1.395-.697 2.093 0 .054-.053.107 0 .214.375.322-.161.698-.322 1.073-.054.161-.161.376-.054.538.161.589.108 1.126-.375 1.823 0 .054-.054.162-.054.323-.161.482-.268.912-.375 1.341.053 0 .053-.053.267-.161-.16.751-1.072 1.396-.804 2.093.375 0 .322.375.214.858-.267 1.074-.376 2.094-.858 3.22.054.054 0 .107.054.161.268.536-.375 1.288-.215 1.985.053.43-.269.966 0 1.503 0 .268-.214.697-.59 1.073-.108.215-.376.376-.591.59-.321.752-.376.805-1.073.859-.16 0-.322.054-.644.108-.376.053-.644.053-.804-.215-.054-.107-.215-.161-.43-.215-.697-.161-.912-.804-.59-1.503.536-1.931.751-3.649 1.02-5.472.16-.431.267-.967.375-1.396.214-.644.376-1.395.698-2.146 0 .214-.108.482-.108.751.161-.107.161-.107.214-.107.109-.376.269-.751.323-1.181.161-.966.643-1.986.537-2.898-.054-.054-.054-.161 0-.214.536-.537.052-1.074.482-1.61.161-.161.108-.376.161-.483-.107-.59.108-1.181.484-1.771V16.8l-.054-.054c-.376.805-.698 1.61-1.021 2.415h-.16c.805-4.722 1.02-5.312-2.63-.215-.053-.054-.107-.107-.107-.16a.233.233 0 00-.16.053c0 .161-.109.322-.161.483-.269.698-.537.966-1.235 1.395-.161.054-.268.215-.268.322-.268.215-.376.429-.483.644-.591 1.663-4.079 6.6-5.098 8.263-.429.752-1.073 1.181-1.825 1.879 0-.322-.053-.537.108-.751h-.108c-.213.375-.482.697-.751 1.072 0-.053-.053-.053-.107-.106-.321.751-.858.965-1.449 1.126-1.072.376-1.932.429-2.789.162-.537-.162-1.235-.216-1.664-.591-.376-.268-.43-.215-.054-.859.536-.858 1.02-1.717 1.609-2.468.591-.859.966-1.556.86-2.307 1.18-5.957 4.507-13.523.106-6.654-.536.859-1.072 1.824-1.824 2.629-1.717 3.703-5.956 9.176-6.601 13.147a4.16 4.16 0 01-.375 1.181c-.322.482-.59.536-.858.322-.161-.054-.215-.054-.269-.108-.268-.643-.804-.751-1.502-.858-.429-.054-.698-.322-1.02-.484-.054-.053 0-.321.055-.429 1.019-1.824 1.448-3.541 1.878-5.312.16-.643.16-1.342.428-2.039.161-.806 1.503-3.971 1.717-4.776l.645-2.576c.428-1.663.804-3.327 1.287-4.99.053-.322.216-.698.216-1.073.052-1.234.482-2.469.965-3.757.161-.375.214-.805.429-1.234.108-.375.269-.804.43-1.18.16-.375.376-.537.643-.43.269.269.645.483.912.752.162.214.108.537.162.858-.162 1.074-.429 2.146-.751 3.22-1.235 5.956 3.379-.858 4.024-1.824.483-.698 1.127-1.342 1.609-2.04zM37.588 29.894c-.054.267-.054.589-.054.857-.108.108 0 .161.054.269.106.268.321.537.59.644.053 0 .053 0 .107-.054.053-.053.16-.107.215-.161.911-.966 1.556-2.2 2.092-3.434.268-.43.376-.912.537-1.288-1.234-.537-1.824-.053-2.523.858-.589.859-.697 1.342-1.018 2.309zm4.775-10.465a16.325 16.325 0 00-.376-1.717c-.161-.537-.376-.966-.751-1.288-.215-.214-.376-.483-.697-.644-.322-.268-.591-.483-.967-.697-.643-.537-1.824.59-2.2.966-1.448 2.039-.053 4.829 1.288 6.278 1.557 3.059 4.401 1.985 3.757-1.61.106-.429.106-.912-.054-1.288zm-6.385 2.146c-.591-.966-.859-2.146-1.02-3.38-.161-.912.107-1.771.59-2.629.054-.108.161-.215.376-.269.43-.375.966-.697 1.61-1.073.483-.322 1.126-.375 1.717-.268.429 0 1.609 1.073 1.878 1.288.322.268.643.59 1.019.805.483.429.805.911 1.074 1.609.161.43.267.805.483 1.181.16.483.214 1.019.321 1.556.054.483.054.859.162 1.288.052.054.052.054.052.161-.16-.859.055.376 0 .536-.052.645.109 1.235-.052 1.825-.162.322.161.698.589.698 2.63-.161 3.65.214 6.225-.215.269-.107.537-.268.858-.43.108-.053.269-.16.376-.214.108.161.054.376 0 .483-.161.268.376.376.161.59-1.609 1.717-6.546 1.664-8.478 1.664h-.161c-.161 0-.321.053-.321.161 0 .107-.054.161-.108.267-.161.914-.644 1.771-1.019 2.685-.269.643-.645 1.126-1.021 1.609-.214.322-.429.697-.75.912-.107.054-.216.161-.376.268-.107.054-.268.161-.322.322-.43.483-.912.859-1.503 1.02-.107 0-.375.107-.536.215-.751.214-1.502.16-2.2.054-.966-.108-1.61-.806-2.147-1.718-.161-.43-.321-.966-.483-1.449-.107-.966-.16-1.932-.053-2.951.107-1.02.429-1.986.912-2.951.482-1.181 1.181-2.2 1.985-3.167.162-.053.162-.16.215-.321 0-.054 0-.108-.053-.162z" fill="#000"/><path d="M66.886 24.742c-.323.429-.645.912-.966 1.341a10.376 10.376 0 00-.967 1.663c0 .054 0 .162-.053.162-.376.536-.697 1.072-1.073 1.502-.591.644-1.127 1.234-1.718 1.824a10.56 10.56 0 01-1.824 1.342c-.376.215-2.307 1.235-2.736 1.235-.484.053-2.254-.162-2.737 0-.751.16-2.362-.537-3.059-.806-.751-.322-1.448-.697-2.093-1.18-1.019-.805-1.556-1.931-1.717-3.488a11.709 11.709 0 010-2.737 8.482 8.482 0 01.323-1.609c.161-.376.267-.752.428-1.128.376-1.18 1.02-2.146 1.556-3.166.162-.214.269-.429.43-.643.429-.644.858-1.235 1.395-1.664.644-.536 1.235-1.127 1.932-1.61a1.892 1.892 0 011.127-.375c.161 0 .322-.054.483-.108.429-.214.859-.322 1.234-.268.053.054.053.054.053 0 .645-.054 1.235.161 1.772.537.053 0 .107.054.16.054.054 0 .107 0 .161-.054.161-.108.269-.161.43-.054.161.161.268.322.215.591-.108.268-.054.482.053.697.054.054 0 .16.054.215l-.322.483c.053.321.107.643.215.965.107.483.16 1.02.16 1.503 0 .268 0 .536-.053.805a14.905 14.905 0 01-.913 2.737c-.16.375-.375.59-.697.643-.108 0-.215.054-.322.054-.162 0-.268-.054-.322-.107-.268-.269-.644-.429-.966-.59-.053-.054-.107-.054-.161-.108-.161-.108-.268-.268-.215-.537.054-.268.108-.536.161-.751.322-1.073.59-2.092 1.02-3.112 0-.054 0-.161.054-.322-.108.108-.161.108-.215.161-.322.698-.859 1.234-1.288 1.824a11.46 11.46 0 00-1.127 1.932c-.429.913-.859 1.771-1.288 2.683-.429.805-.698 1.717-.966 2.63-.107.268-.107.536-.16.858-.054.376 0 .751.16 1.128.162.321.322.697.483 1.072.108.215.269.429.429.644.269.322 1.61-.215 1.985-.268 1.182-.161 3.703-1.234 4.723-2.147.806-.697 2.308-1.77 3.005-2.575.268-.323.537-.644.806-.966.482-.644 1.985-1.717 2.467-2.415.269-.376 1.127-.859 1.396-1.234.161-.214 0 .751.268.59-.107.483-.859 1.771-1.18 2.147" fill="#000"/><path d="M73.484 24.044c-.213.537-.375 1.019-.643 1.396-.215.536-.537.912-.697 1.394-.591.858 1.072.322 1.394 0 1.288-.965 2.2-2.468 2.898-4.131.859-2.791-.161-2.523-1.502-.805-.59.643-1.127 1.394-1.45 2.146zm-9.765 3.327v1.127c.107-.644.107-.698 0-1.127zm11.322 4.99c.269.537.591 1.074.912 1.503.215.43.536.644.912.644.645.161 1.181.053 1.718-.161.536-.161 2.468-1.718 3.058-1.986.214-.107 2.415-2.467 2.683-2.629.859-.912 1.502-2.04 2.2-3.166.537-.858.966-1.824 1.502-2.683.109-.214.215-.429.323-.697.053-.269.107-.43.161-.645.268.751.966.162.751.698-.108.269-.16.536-.16.698-.054.537-.86 1.609-1.021 1.985-.267.752-.482 1.449-.912 2.146v.108c-.321.644-.805 1.341-1.127 2.039-.375.429-2.897 3.22-3.326 3.596a2.844 2.844 0 01-.913.536c-.805.429-2.898 2.147-3.702 2.361-.537.107-1.127.269-1.664.269a3.035 3.035 0 01-2.307-.859c-.269-.323-.591-.698-.858-1.074-.591-1.019-1.342-2.146-1.878-3.327-.484-.59-.645-1.073-1.128-.375-.107.161-.107.483-.215.644a8.694 8.694 0 00-.536.966c-.108.376-.322.751-.484 1.019-.214.215-.375.323-.643.269-.214 0-.536 0-.805.268-1.127.483-1.556.483-2.361-.214-1.02-.645-1.395-1.772-1.61-2.952-.053-.108-.053-.161-.053-.322.161-.805 0-1.664-.054-2.522-.108-1.073 0-2.146.054-3.22.053-.483.161-.912.161-1.395.053-1.503.482-2.951.858-4.4.269-.859.536-1.771.859-2.576.483-1.502 1.127-3.005 1.77-4.507.376-.645.591-1.342.967-1.932.911-1.986 2.092-3.917 3.165-5.688.806-1.127 1.557-2.2 2.469-3.059.375-.322.751-.698 1.18-1.019.376-.322.859-.322 1.342-.376.053 0 .16.161.269.215.267.59.912.965 1.448 1.395.912.698 1.718 1.556 2.469 2.736.321.43.536 1.128.536 1.771v.483c-.054.268-.376.483-.536.483-.108-.107-.269-.16-.376-.215-.108-.16-.323-.268-.43-.428-.536-.43-.966-.376-1.556.214-.483.429-.965 1.02-1.503 1.502-.052.215-.214.376-.321.538-.537.857-1.128 1.609-1.664 2.36 0 .108-.107.268-.161.375-.214.537-.429 1.074-.805 1.664-.375.752-.804 1.503-1.18 2.361-.215.376-.375.698-.59 1.127-.43 1.02-.966 2.093-1.396 3.166-.59 1.288-1.127 2.63-1.503 3.971-.052.322-.16.537-.214.805-.161.697-.268 1.448-.483 2.039-.215 1.717.269 1.663.645 1.073.804-1.234 1.394-2.683 2.306-3.917.913-1.288 1.932-2.576 3.06-3.649 1.179-.912 2.254-1.234 3.487-1.02.269 0 .483.162.645.483.053.162.107.215.213.376.43.59.591 1.234.591 1.986 0 1.288-.161 2.575-.591 3.917-.053.215-.053.322-.106.537-.269.697-.537 1.287-1.02 1.931-.322.269-.537.59-.805.805-.376.484-.805.805-1.235.966a3.749 3.749 0 00-.697.268c-.161 0-.161.215-.322.268.054.645.322 1.074.537 1.449z" fill="#000"/><path d="M91.408 28.927c-.912.483-2.093.429-2.683.59-.483 0-1.717-.268-2.092-.482-1.342-.806-1.396-1.181-1.664-2.952-.161-.429-.055-1.395.268-2.254.268-1.234 3.165-5.688 3.649-6.814.268-.591.536-1.181.966-1.825.161-.376.429-.483.698-.644.375-.161.75-.161 1.018-.429.806-.429.215-.805.752-.859.536 0 .912.215 1.181.591.215.053.215.322.429.536.161.107.107.322.107.537-.321 1.341-1.503 3.864-1.824 5.151-.269.376-.376 1.878-.483 2.2-.108.537-.214 1.019-.483 1.556-.107.429-.376 1.234-.107 1.449.214.268.322 1.181.643 1.074 1.288-.698 3.005-.752 3.702-1.61.43-.591.699-.322 1.128-.859.375-.375.483-.697.644-.966.322-.697.376-.483.644-1.073.322-.698.804-1.342 1.234-1.932.161-.483.376-.805.698-1.234.536-.161.482-.107.697-.054.805-.053.107 0 .59.268.108.215 0 .43.161.537-.376 1.02-.428 2.093-.912 3.274-.161.375-.054 0-.376.483.054.322-.16.805-.375 1.234-.215.483-.161 1.072-.483 1.502-.43 1.824-.644 2.79-.644 3.005-.161.698 1.717 1.181 3.595.59 1.234-.537 3.435-2.629 4.454-4.292.376-.644.698-1.288 1.288-2.147.536-.966.966.644.751 1.02a3.54 3.54 0 00-.322.644c-.429.321-.912 2.039-1.287 2.361-.108.106-.054.268-.323.375-.697.913-2.092 2.416-3.166 3.273-.482.108-.537.269-1.019.483-.376.376-.483.43-.966.698-.376.161-.429.214-.591.376-.428-.108-.536.053-.697.161-1.02.59-5.366.805-5.688-1.02-.268-1.663-.537-2.575-.053-4.4v-.215c-.751.751-2.147 1.503-3.059 2.093" fill="#000"/><path d="M114.803 29.142c-.322.161-.536.536-.536 1.18.052.269.214.483.375.483.108-.107.268-.107.376-.214.267-.162.536-.376.698-.645.59-.804.804-1.663.643-1.341-.59.269-1.074.161-1.556.537zm6.278-4.239c.054 1.341.483.858 2.469.537.643-.108 1.609-.377 2.575-1.342.483-.483 1.073.107 1.342.376 0 .214-.697 1.287-.805 1.395-2.254 1.34-3.434 1.34-5.098 1.556-1.341.321-1.449 1.019-1.931 2.092l-.215.429c-.161.645-.537 1.128-.805 1.611-.108.107-.215.268-.322.321l-.537.644c-.215.376-.536.806-.912 1.073l-.375.43-.537.483a.753.753 0 01-.483 0c-.162-.108-.376-.268-.537-.322-.054-.161-.054-.322-.054-.483-.106-.483-.268-.912-.751-.966-.214-.108-.376-.322-.537-.483-.214-.322-.375-.429-.643-.59-.483-.322-.591-1.181-.161-1.878.215-.483.483-.751.804-.966a4.401 4.401 0 011.074-.644c.643-.43 1.234-.43 1.931-.751.376-.216.645-.591.86-1.181.375-1.395.804-3.434.965-4.883v-1.824c0-.108 0-.215-.053-.323-.054-.268-.323-.375-.484-.16-.107.053-.16.107-.214.268-.376.59-.751 1.18-1.02 1.824-.805 1.557-1.556 3.22-2.36 4.723-.591 1.126-1.127 2.146-1.611 3.326-.804 1.932-2.629 3.864-3.326 5.957-.162.376-.268.751-.591.966-.268.107-.375.536-.375.859 0 .375-.053.804-.162 1.126-.106.214-.214.429-.321.537-.322.375-.43.643-.591.912-.536 1.342-.966 2.683-1.073 4.132-.053.644-.053 1.288-.215 1.931-.053.483-.268.859-.644 1.02-.267.161-.482.376-.643.805-.054.054-.215.269-.269.269-.161 0-.215.374-.321.536h-.055c-.857.161-1.394-.483-1.716-1.503-.323-1.019-.429-2.146-.483-3.219-.107-2.576.054-5.044.376-7.62.107-1.02.321-2.092.482-3.059.215-1.663.59-3.327 1.02-4.883.59-2.361 1.233-4.669 1.932-6.922.161-.537.376-1.019.536-1.664.644-1.609 1.181-3.326 1.825-4.99.269-.805.697-1.717 1.073-2.522.269-.215.536-.215.805 0l1.288.805.054.054c.804.966 1.288 2.146 1.448 3.756.107.805.054 1.717-.16 2.629-.322 1.288-.698 2.684-1.182 4.025-.321.859-.643 1.931-.966 2.897-.858 3.006.86 2.63 1.235 1.717.161-.429.966-1.502 1.127-2.038l1.77-3.65c.269-.697.537-1.18.967-1.717.375-.429.751-.966 1.181-1.395.321-.322.803-.59 1.179-.59h.912c.484-.107.914.322 1.342.698.269.16.484.59.537 1.019.053.429.161.912.161 1.288l.214 1.556.054 1.986z" fill="#000"/></g></svg>