<svg width="153" height="41" viewBox="0 0 153 41" xmlns="http://www.w3.org/2000/svg"><g fill="none" fill-rule="evenodd"><path d="M151.596 26.875c-5.558-.204-11.139.211-15.272-1.177-1.39-.05 1.463-2.418.114-3.706l-5.565-.203c-1.332-1.902 1.506-3.651.171-5.555-1.333-1.902-6.932-.871-8.284-2.157-4.137-1.387 2.838-1.749 7.008-1.597-1.351-1.285 2.781.103 2.819-1.133.075-2.469.151-4.939-5.354-6.993-1.371-.669.077-2.47.115-3.705-16.685-.61-34.759-1.272-51.518.587C61.87 2.579 45.134-.693 31.3.841c-4.191.465-11.066-2.26-13.94.725l4.169.153c-4.225 1.7-8.341-.305-12.53.159-.037 1.236-.057 1.853-1.468 2.419 2.782.102 6.971-.363 9.735.357l-.057 1.85c-2.802.517-6.934-.87-9.734-.356l-.076 2.471c-.018.617-1.409.566-2.798.515l5.561.203-.076 2.469c-.019.619-1.408.568-2.8.517-.038 1.234-1.466 2.418-.095 3.086l4.172.152c-5.581.415-8.457 3.399-8.513 5.251 1.411-.567 1.354 1.286 2.762.719-4.227 1.699-8.474 4.015-2.932 4.835 48.604 3.635 98.732 2.998 147.433 3.545 2.801-.516 1.445-1.802 1.483-3.036" fill="#000"/><path d="M16.695 11.102v3.025h1.897c.466 0 .832-.138 1.1-.412.269-.275.403-.635.403-1.083 0-.448-.137-.815-.411-1.101-.275-.286-.639-.429-1.092-.429h-1.897zm0 5.351v4.885h-3.06V8.775h4.957c1.456 0 2.589.376 3.4 1.127.812.752 1.217 1.659 1.217 2.722 0 .727-.221 1.437-.662 2.129-.442.691-1.163 1.181-2.165 1.467l3.078 5.118h-3.579l-2.828-4.885h-.358zM38.152 8.739v2.327h-4.546v2.703h4.009v2.326h-4.009v2.917h4.546v2.326h-7.605V8.739h7.605M45.74 21.338V8.775h8.179v2.327h-5.118v2.702h3.83v2.326h-3.83v5.208H45.74M64.048 11.102v3.025h1.897c.465 0 .832-.138 1.101-.412.268-.275.402-.635.402-1.083 0-.448-.136-.815-.411-1.101-.274-.286-.639-.429-1.092-.429h-1.897zm0 5.351v4.885h-3.06V8.775h4.957c1.455 0 2.589.376 3.401 1.127.811.752 1.217 1.659 1.217 2.722 0 .727-.221 1.437-.663 2.129-.441.691-1.163 1.181-2.165 1.467l3.078 5.118h-3.58l-2.827-4.885h-.358zM85.506 8.739v2.327H80.96v2.703h4.009v2.326H80.96v2.917h4.546v2.326h-7.607V8.739h7.607M97.353 11.013c-.382 0-.695.101-.94.304-.244.203-.366.495-.366.876 0 .383.113.689.34.922.226.233.521.412.885.537.364.125.77.244 1.217.358.448.114.892.251 1.333.411.442.162.845.362 1.208.6.365.239.66.576.886 1.011.227.436.341.957.341 1.566 0 1.062-.433 1.972-1.298 2.73-.865.757-2.004 1.136-3.418 1.136-1.414 0-2.554-.34-3.418-1.02-.865-.68-1.298-1.647-1.298-2.9h3.257c.084 1.002.597 1.504 1.539 1.504.442 0 .788-.117 1.038-.349.251-.233.376-.529.376-.886 0-.358-.113-.65-.34-.877a2.356 2.356 0 00-.885-.537c-.365-.131-.77-.253-1.218-.367a12.224 12.224 0 01-1.333-.42 6.54 6.54 0 01-1.208-.6 2.571 2.571 0 01-.886-1.002c-.227-.435-.34-.951-.34-1.548 0-1.169.436-2.106 1.307-2.81.87-.703 1.983-1.055 3.338-1.055 1.353 0 2.448.306 3.283.921.835.614 1.271 1.584 1.307 2.908h-3.329c-.047-.453-.194-.802-.439-1.047-.244-.244-.557-.366-.939-.366M117.54 8.775h3.06v12.563h-3.06V16.13h-4.851v5.208h-3.059V8.775h3.059v5.029h4.851V8.775" fill="#FFF"/><path fill="#000" d="M38.302 34.58v4.97h-1.21v-2.804l-1.154 2.804h-.9l-1.153-2.804v2.804h-1.211v-4.97h1.388l1.429 3.427 1.423-3.427h1.388M44.929 37.794h1.175l-.587-1.77-.588 1.77zm1.756 1.756l-.277-.836h-1.783l-.276.836H43.06l1.727-4.984h1.473l1.72 4.984h-1.295zM53.188 38.874c-.494-.479-.741-1.087-.741-1.823s.247-1.344.741-1.823c.493-.479 1.096-.719 1.808-.719.553 0 1.043.147 1.473.439.429.293.729.699.899 1.218h-1.444c-.189-.364-.491-.545-.906-.545-.415 0-.743.129-.981.389s-.357.607-.357 1.041c0 .435.119.782.357 1.04.238.26.559.39.959.39.288 0 .523-.072.705-.215.181-.145.303-.337.364-.578h-1.401v-.92h2.704v.92c-.09.453-.338.876-.743 1.268a2.266 2.266 0 01-.719.46 2.361 2.361 0 01-.91.177c-.712 0-1.315-.24-1.808-.719M63.711 37.794h1.176l-.588-1.77-.588 1.77zm1.757 1.756l-.277-.836h-1.784l-.276.836h-1.288l1.727-4.984h1.473l1.72 4.984h-1.295zM74.855 34.58v.921l-2.117 3.128h2.117v.921h-3.511v-.921l2.116-3.128h-2.116v-.921h3.511M79.903 39.55h1.211v-4.97h-1.211zM89.574 34.566h1.21v4.984h-1.21l-2.025-3.136v3.136h-1.21v-4.984h1.21l2.025 3.136v-3.136M99.019 34.566v.92h-1.798v1.07h1.586v.92h-1.586v1.153h1.798v.921H96.01v-4.984h3.009"/></g></svg>