<svg width="196" height="58" viewBox="0 0 196 58" xmlns="http://www.w3.org/2000/svg"><path d="M12.3 45c.3 0 .42-.36.18-.48-.72-.18-1.74-.84-1.74-2.46 0-.42.06-.9.18-1.5l.48-1.5h9.84l.48 1.5c.12.6.24 1.08.24 1.5 0 1.62-1.08 2.28-1.8 2.46-.24.06-.24.48.18.48h17.04c.3 0 .42-.36.24-.48-.9-.48-2.1-1.56-2.76-3.84l-.12-.42C31.5 29.7 28.5 19.8 25.26 9.3c-.18-.66-.24-1.14-.24-1.56 0-.84.3-1.26.6-1.5.24-.24.12-.54-.18-.54H12v.06c-.36 0-.42.24-.18.48.3.24.6.66.6 1.5 0 .36-.06.9-.24 1.5L3.12 40.2C2.4 42.72 1.2 43.98.24 44.52c-.18.12-.06.48.24.48H12.3zm7.02-12.24H13.2l3-10.2 3.12 10.2zm37.993 12.3c.24-.06.36-.36.18-.48-.54-.48-1.2-1.38-1.38-2.94V6.12c0-2.04.84-3.66 1.5-4.62.12-.18-.06-.36-.24-.24-3.12 1.74-8.16 2.82-12.48 2.82-.9 0-1.8 0-2.64-.12-.12 0-.18.12-.12.24.6.48 1.38 1.68 1.38 4.32v32.7c-.06 1.86-.84 2.82-1.44 3.36-.18.12-.06.48.18.48h15.06zm20.654 12.36c4.8 0 9.6-1.32 12.78-3.18 6.66-3.84 7.92-10.44 7.98-16.38V16.98c0-2.04.84-3.6 1.44-4.5.12-.18-.06-.36-.24-.24-3.12 1.74-8.16 2.88-12.48 2.88-.9 0-1.8-.06-2.64-.18-.12 0-.24.18-.12.24.6.48 1.32 1.68 1.38 4.38 0 4.2-.06 8.46-.06 12.54 0 3.42-.3 6.6-4.26 6.6-.3 0-.66-.06-1.02-.06-4.32-.84-4.74-5.76-4.74-13.5v-6.36c.12-1.8.84-2.82 1.44-3.3.18-.18.06-.48-.18-.48h-15.06c-.12 0-.24.12-.24.3 0 .06 0 .12.06.18.54.48 1.26 1.32 1.38 2.88v7.8c0 10.02.66 14.76 8.04 18.6 2.58.9 4.86 1.32 6.84 1.32 3.42 0 6-1.26 7.8-3.42v.18c0 1.62-.72 5.58-6.12 6.6-.96.18-1.92.3-2.88.3-3.78 0-7.14-1.32-8.64-3.24-.24-.36-.84-.3-1.08.06l-2.46 4.08c-.36.6-.24 1.32.18 1.8 3.18 3.6 8.04 4.98 12.9 4.98zM129.88 45c.36 0 .48-.3.24-.42-.9-.3-1.68-1.38-1.68-2.52 0-.24.06-.48.12-.72l6.12-22.38c.36-1.8.84-2.82 1.38-3.36.24-.12.12-.42-.12-.42l-10.38-.06c-.54 0-.66.3-.48.42.6.48 1.38 1.08 1.38 2.58v.36c-.3 4.32-2.22 14.7-4.38 17.94-2.58-6.12-3.18-13.62-3.18-15.9v-.48c.06-2.76.6-4.2 1.2-4.68.06-.12 0-.24-.12-.24h-15.24c-.18 0-.36.12-.18.3.48.3 1.14.6 1.56 2.22l6.36 23.58c.06.24.06.48.06.66 0 1.38-.96 2.34-1.5 2.7-.18.12-.06.42.18.42h18.66zm26.293 0c.3 0 .42-.36.18-.48-.66-.6-1.44-1.68-1.56-3.66V17.22c.06-1.98.66-2.46 1.14-4.74.24-.9.36-1.8.36-2.7 0-3.12-1.5-5.7-3.48-7.2-1.38-.96-2.7-1.68-5.28-1.74-5.4.3-7.92 3.72-7.92 6.9.12 3 2.64 5.16 6.48 5.16.36 0 .72 0 1.08-.06 3.06-.3 5.46-1.86 6.72-4.08-.54 4.02-4.14 6.72-9 6.72-1.38 0-2.88-.18-4.38-.66-.18-.06-.24.18-.12.3.6.54 1.44 1.8 1.44 4.74l.06 21.48c-.18 1.68-.96 2.64-1.56 3.18-.18.12-.06.48.18.48h15.66zm16.214.72c.66 0 1.26-.06 1.92-.06 2.94-.36 5.34-2.04 7.08-3.9-.18 1.44-.84 2.28-1.38 2.76-.18.18-.06.48.18.48h15.06c.24 0 .36-.3.18-.48-.6-.54-1.38-1.5-1.44-3.3V16.8c0-2.1.84-3.72 1.44-4.68.12-.12-.06-.36-.24-.24-3.06 1.74-8.1 2.82-12.42 2.82-.9 0-1.8-.06-2.64-.12-.12 0-.18.12-.06.24.36.36.9 1.02 1.14 2.34-1.2-1.2-2.76-2.34-4.92-2.82-.78-.12-1.5-.18-2.22-.18-3.72 0-6.96 1.56-9.3 3.72-3.24 2.88-5.34 7.08-5.58 12.42v.72c0 4.38 1.62 8.46 4.38 11.22 2.64 2.7 5.4 3.48 8.82 3.48zm3.36-6.9h-.54c-3.84-.36-5.76-4.44-5.76-8.46 0-4.2 2.1-8.34 6.48-8.4 3 0 5.46 2.64 5.46 6.72v3c0 3.72-2.16 7.14-5.64 7.14z" fill="#2C343C" fill-rule="nonzero"/></svg>