<?xml version="1.0" encoding="utf-8"?>
<!-- Generator: Adobe Illustrator 18.0.0, SVG Export Plug-In . SVG Version: 6.00 Build 0)  -->
<!DOCTYPE svg PUBLIC "-//W3C//DTD SVG 1.1//EN" "http://www.w3.org/Graphics/SVG/1.1/DTD/svg11.dtd">
<svg version="1.1" id="Layer_1" xmlns="http://www.w3.org/2000/svg" xmlns:xlink="http://www.w3.org/1999/xlink" x="0px" y="0px"
	 viewBox="0 0 47 46.5" enable-background="new 0 0 47 46.5" xml:space="preserve">
<path fill="#444444" d="M37.2,14.7c-1.5-1.5-3.9-0.5-5.4,1L27,20.3V3.8C27,1.5,25.8,0,23.5,0S20,1.5,20,3.8v16.6l-4.8-4.6
	c-1.5-1.5-3.8-2.5-5.3-1c-1.5,1.5-1.5,3.8,0,5.3l11,11c1.5,1.5,3.8,1.5,5.3,0l11-11c0.8-0.8,1.1-1.5,1.1-2.6S38,15.4,37.2,14.7z"/>
<path fill="#444444" d="M0,42.4c0,2.2,1.6,4.1,3.8,4.1h39.6c2.2,0,3.7-1.7,3.7-3.9v-4.1v-8.1c0-2.2-1.4-4-3.5-4
	c-2.2,0-3.5,1.8-3.5,4v9.1H7v-9.1c0-2.2-1.3-4-3.5-4c-2.2,0-3.5,1.8-3.5,4v8.1"/>
</svg>
