<?xml version="1.0" encoding="utf-8"?>
<!-- Generator: Adobe Illustrator 18.0.0, SVG Export Plug-In . SVG Version: 6.00 Build 0)  -->
<!DOCTYPE svg PUBLIC "-//W3C//DTD SVG 1.1//EN" "http://www.w3.org/Graphics/SVG/1.1/DTD/svg11.dtd">
<svg version="1.1" id="Layer_1" xmlns="http://www.w3.org/2000/svg" xmlns:xlink="http://www.w3.org/1999/xlink" x="0px" y="0px"
	 viewBox="0 0 24 24" enable-background="new 0 0 24 24" xml:space="preserve">
<path fill="#444444" d="M23.6,5.2l-4.7-4.7c-0.6-0.6-1.5-0.6-2.1,0L4,13.2c-0.1,0.1-0.2,0.3-0.3,0.5l-3.5,8.3
	c-0.2,0.6-0.1,1.2,0.3,1.6C0.7,23.9,1.1,24,1.5,24c0.2,0,0.4,0,0.6-0.1l8.3-3.5c0.2-0.1,0.3-0.2,0.5-0.3l8.5-8.5l4.3-4.3
	C24.1,6.7,24.1,5.7,23.6,5.2z M8.9,17.7l-4.6,2l2-4.6l8.8-8.8l2.6,2.6L8.9,17.7z"/>
</svg>
