<?xml version="1.0" encoding="utf-8"?>
<!-- Generator: Adobe Illustrator 18.0.0, SVG Export Plug-In . SVG Version: 6.00 Build 0)  -->
<!DOCTYPE svg PUBLIC "-//W3C//DTD SVG 1.1//EN" "http://www.w3.org/Graphics/SVG/1.1/DTD/svg11.dtd">
<svg version="1.1" id="Layer_1" xmlns="http://www.w3.org/2000/svg" xmlns:xlink="http://www.w3.org/1999/xlink" x="0px" y="0px"
	 viewBox="10.7 10.8 30.6 33.1" enable-background="new 10.7 10.8 30.6 33.1" xml:space="preserve">
<path fill="#444444" d="M40.4,17.2L26.7,11c-0.4-0.2-0.9-0.2-1.3,0l-13.7,6.2c-0.5,0.3-0.9,0.8-0.9,1.5v17.4c0,0.6,0.3,1.2,0.9,1.5
	l13.7,6.2c0.4,0.2,0.9,0.2,1.3,0l13.7-6.2c0.6-0.3,0.9-0.8,1-1.5V18.7C41.3,18,41,17.5,40.4,17.2z M24.6,40.4l-11.1-5.1V20.4
	l11.1,5.1V40.4z M26,23l-10.3-4.6L26,13.8l10.3,4.7L26,23z M38.5,35.3l-11.1,5.1V25.5l11.1-5.1V35.3z"/>
</svg>
