<?xml version="1.0" encoding="utf-8"?>
<!-- Generator: Adobe Illustrator 18.0.0, SVG Export Plug-In . SVG Version: 6.00 Build 0)  -->
<!DOCTYPE svg PUBLIC "-//W3C//DTD SVG 1.1//EN" "http://www.w3.org/Graphics/SVG/1.1/DTD/svg11.dtd">
<svg version="1.1" id="Layer_1" xmlns="http://www.w3.org/2000/svg" xmlns:xlink="http://www.w3.org/1999/xlink" x="0px" y="0px"
	 viewBox="0 0 20 20" enable-background="new 0 0 20 20" xml:space="preserve">
<path fill-rule="evenodd" clip-rule="evenodd" fill="#444444" d="M11.4,14.4C11,14.8,10.7,15,10.1,15c-0.6,0-0.9-0.2-1.3-0.5L4,9.3
	C3.4,8.7,3.4,7.9,4,7.4l0,0c0.5-0.5,1.4-0.5,2,0l3.8,2.7l7.9-9.7C17.1,0.1,16.6,0,16,0H4C1.8,0,0,1.8,0,4v12c0,2.2,1.8,4,4,4h12
	c2.2,0,4-1.8,4-4V4c0-0.6-0.1-1.1-0.3-1.6L11.4,14.4z"/>
</svg>
