<?xml version="1.0" encoding="utf-8"?>
<!-- Generator: Adobe Illustrator 18.0.0, SVG Export Plug-In . SVG Version: 6.00 Build 0)  -->
<!DOCTYPE svg PUBLIC "-//W3C//DTD SVG 1.1//EN" "http://www.w3.org/Graphics/SVG/1.1/DTD/svg11.dtd">
<svg version="1.1" id="Layer_1" xmlns="http://www.w3.org/2000/svg" xmlns:xlink="http://www.w3.org/1999/xlink" x="0px" y="0px"
	 viewBox="1 2.3 177.7 200" enable-background="new 1 2.3 177.7 200" xml:space="preserve">
<g>
	<g>
		<path fill="#444444" d="M95.5,154.5l44.4-20.3V74.7L95.5,95V154.5z M39.9,134.3l44.4,20.3V95L39.9,74.7
			C39.9,74.7,39.9,134.3,39.9,134.3z M164.6,36.7L101.8,5c-7.5-3.6-16.1-3.6-23.6,0l-63,31.7C6.6,41.1,1,50,1,59.5v85.5
			c0,9.7,5.6,18.6,14.2,22.8L78,199.6c7.5,3.6,16.1,3.6,23.6,0l62.8-31.7c8.6-4.4,14.2-13.3,14.2-22.8V59.7
			C178.8,50,173.2,41.1,164.6,36.7z M147.3,143.2l-54.8,24.9c-1.7,0.8-3.6,0.8-5.3,0l-54.8-24.9c-2.3-1-3.7-3.3-3.7-5.8V67.7
			c0-2.5,1.5-4.7,3.7-5.8L87.3,37c1.7-0.8,3.6-0.8,5.3,0l54.8,24.9c2.3,1,3.7,3.3,3.7,5.8v69.7C151,139.9,149.6,142.1,147.3,143.2z
			 M48.8,66.7l41.1,18.6L131,66.7L89.9,48.1L48.8,66.7z"/>
	</g>
</g>
</svg>
