<?xml version="1.0" encoding="utf-8"?>
<!-- Generator: Adobe Illustrator 18.0.0, SVG Export Plug-In . SVG Version: 6.00 Build 0)  -->
<!DOCTYPE svg PUBLIC "-//W3C//DTD SVG 1.1//EN" "http://www.w3.org/Graphics/SVG/1.1/DTD/svg11.dtd">
<svg version="1.1" id="Layer_1" xmlns="http://www.w3.org/2000/svg" xmlns:xlink="http://www.w3.org/1999/xlink" x="0px" y="0px"
	 viewBox="0 0 26 18" enable-background="new 0 0 26 18" xml:space="preserve">
<path fill="#444444" d="M12.1,12L0,1.7C0,0.1,1.3,0,1.3,0h7.3h8.8h7.3c0,0,1.3,0.1,1.3,1.7L14,12c0,0-0.1,0.1-0.3,0.1v0
	c-0.2,0.1-0.4,0.1-0.6,0.1c-0.2,0-0.4,0-0.6-0.1v0C12.2,12,12.1,12,12.1,12z M13,14.3c-0.4,0-1.1-0.2-1.8-0.8
	c-1.2-1-8.4-7.3-10.6-9.2C0.4,4.1,0,4.3,0,4.6v12c0,0,0,1.4,1.5,1.4c1.2,0,8,0,10.9,0c0.8,0,1.3,0,1.3,0c2.9,0,9.6,0,10.8,0
	c1.5,0,1.5-1.4,1.5-1.4v-12c0-0.3-0.4-0.5-0.7-0.3c-2.2,1.9-9.4,8.2-10.5,9.2C14.1,14.1,13.5,14.3,13,14.3z"/>
</svg>
