<?xml version="1.0" encoding="utf-8"?>
<!-- Generator: Adobe Illustrator 18.0.0, SVG Export Plug-In . SVG Version: 6.00 Build 0)  -->
<!DOCTYPE svg PUBLIC "-//W3C//DTD SVG 1.1//EN" "http://www.w3.org/Graphics/SVG/1.1/DTD/svg11.dtd">
<svg version="1.1" id="Layer_1" xmlns="http://www.w3.org/2000/svg" xmlns:xlink="http://www.w3.org/1999/xlink" x="0px" y="0px"
	 viewBox="0 0 20 16.3" enable-background="new 0 0 20 16.3" xml:space="preserve">
<path fill="#444444" d="M20,1.9c-0.7,0.3-1.5,0.5-2.4,0.6c0.8-0.5,1.5-1.3,1.8-2.3c-0.8,0.5-1.7,0.8-2.6,1C16.1,0.5,15,0,13.9,0
	c-2.3,0-4.1,1.8-4.1,4.1c0,0.3,0,0.6,0.1,0.9C6.4,4.9,3.4,3.2,1.4,0.8C1,1.4,0.8,2.1,0.8,2.8c0,1.4,0.7,2.7,1.8,3.4
	C2,6.2,1.4,6,0.8,5.7c0,0,0,0,0,0.1c0,2,1.4,3.7,3.3,4C3.8,9.9,3.4,9.9,3,9.9c-0.3,0-0.5,0-0.8-0.1c0.5,1.6,2,2.8,3.8,2.9
	c-1.4,1.1-3.2,1.8-5.1,1.8c-0.3,0-0.7,0-1-0.1c1.8,1.2,4,1.9,6.3,1.9C13.8,16.3,18,10,18,4.6c0-0.2,0-0.4,0-0.5
	C18.8,3.5,19.5,2.8,20,1.9z"/>
</svg>
