<?xml version="1.0" encoding="utf-8"?>
<!-- Generator: Adobe Illustrator 18.0.0, SVG Export Plug-In . SVG Version: 6.00 Build 0)  -->
<!DOCTYPE svg PUBLIC "-//W3C//DTD SVG 1.1//EN" "http://www.w3.org/Graphics/SVG/1.1/DTD/svg11.dtd">
<svg version="1.1" id="Layer_1" xmlns="http://www.w3.org/2000/svg" xmlns:xlink="http://www.w3.org/1999/xlink" x="0px" y="0px"
	 viewBox="0 0 16 16" enable-background="new 0 0 16 16" xml:space="preserve">
<g>
	<g>
		<path fill-rule="evenodd" clip-rule="evenodd" fill="#444444" d="M14,6h-4V2c0-1.1-0.9-2-2-2C6.9,0,6,0.9,6,2v4H2C0.9,6,0,6.9,0,8
			c0,1.1,0.9,2,2,2h4v4c0,1.1,0.9,2,2,2c1.1,0,2-0.9,2-2v-4h4c1.1,0,2-0.9,2-2C16,6.9,15.1,6,14,6z"/>
	</g>
</g>
</svg>
