<?xml version="1.0" encoding="utf-8"?>
<!-- Generator: Adobe Illustrator 18.0.0, SVG Export Plug-In . SVG Version: 6.00 Build 0)  -->
<!DOCTYPE svg PUBLIC "-//W3C//DTD SVG 1.1//EN" "http://www.w3.org/Graphics/SVG/1.1/DTD/svg11.dtd">
<svg version="1.1" id="Layer_1" xmlns="http://www.w3.org/2000/svg" xmlns:xlink="http://www.w3.org/1999/xlink" x="0px" y="0px"
	 viewBox="0 0 15 20" enable-background="new 0 0 15 20" xml:space="preserve">
<g>
	<g>
		<path fill="#444444" d="M13.8,9.5c-0.4,0-0.8,0.4-0.7,0.9c0.1,1-0.2,2-1,2.7l-4.6,4.4c-1.3,1.3-3.5,1.3-4.8,0l-0.1-0.1
			c-1.3-1.3-1.3-3.3,0-4.6l4.6-4.4c0.8-0.8,1.9-1.1,3-0.9c0.4,0.1,0.9-0.2,0.9-0.6C11.3,6.5,11,6,10.6,6C8.9,5.7,7.3,6.2,6.1,7.3
			l-4.6,4.4c-2,1.9-2,4.9,0,6.8l0.1,0.1c1,0.9,2.3,1.4,3.5,1.4c1.3,0,2.6-0.5,3.5-1.4l4.6-4.4c1.1-1,1.6-2.5,1.4-3.9
			C14.6,9.8,14.2,9.5,13.8,9.5z M1.2,10.5c0.4-0.1,0.8-0.4,0.7-0.9c-0.1-1,0.2-2,1-2.7l4.6-4.4c0.6-0.6,1.5-1,2.4-1
			c0.9,0,1.8,0.3,2.4,1l0.1,0.1c1.3,1.3,1.3,3.3,0,4.6l-4.6,4.4c-0.8,0.8-1.9,1.1-3,0.9c-0.4-0.1-0.9,0.2-0.9,0.6
			c-0.1,0.4,0.2,0.8,0.7,0.9c0.3,0,0.6,0.1,0.9,0.1c1.3,0,2.6-0.5,3.5-1.4l4.6-4.4c2-1.9,2-4.9,0-6.8l-0.1-0.1
			C12.5,0.5,11.3,0,9.9,0C8.6,0,7.3,0.5,6.4,1.4L1.8,5.8c-1.1,1.1-1.6,2.5-1.4,4C0.4,10.3,0.8,10.6,1.2,10.5z"/>
	</g>
</g>
</svg>
