<?xml version="1.0" encoding="utf-8"?>
<!-- Generator: Adobe Illustrator 18.0.0, SVG Export Plug-In . SVG Version: 6.00 Build 0)  -->
<!DOCTYPE svg PUBLIC "-//W3C//DTD SVG 1.1//EN" "http://www.w3.org/Graphics/SVG/1.1/DTD/svg11.dtd">
<svg version="1.1" id="Layer_1" xmlns="http://www.w3.org/2000/svg" xmlns:xlink="http://www.w3.org/1999/xlink" x="0px" y="0px"
	 viewBox="0 0 177.6 199.9" enable-background="new 0 0 177.6 199.9" xml:space="preserve">
<g id="Layer_2">
</g>
<path fill="#444444" d="M163.6,34.5L100.8,2.8c-7.5-3.6-16.1-3.6-23.6,0l-63,31.7C5.6,38.8,0,47.8,0,57.3v85.5
	c0,9.7,5.6,18.6,14.2,22.8L77,197.3c7.5,3.6,16.1,3.6,23.6,0l62.8-31.7c8.6-4.4,14.2-13.3,14.2-22.8V57.5
	C177.8,47.8,172.2,38.8,163.6,34.5z M138.6,122.9c0,13.7-11.1,24.8-24.8,24.8H64.3c-13.7,0-24.8-11.1-24.8-24.8V77.4
	c0-13.7,11.1-24.8,24.8-24.8h49.6c6.5,0,12.3,2.5,16.7,6.6c1.2,0.9,2.4,2,3,3.2c0,0,0,0,0,0.1c0,0,0,0,0,0c0.5,1.3,0.2,2.1-1,4.3
	L93.8,123c-1.5,2-2.9,2.7-5.5,2.8c-2.5,0.2-4.1-0.7-5.6-2.2L60.7,99.9c-2.4-2.3-2.4-6,0-8.3l0,0c2.4-2.3,6.4-2.3,8.8,0l16.9,12
	l30.8-38c-1.1-0.3-2.2-0.5-3.4-0.5H64.3c-6.8,0-12.4,5.5-12.4,12.4v45.4c0,6.8,5.5,12.4,12.4,12.4h49.6c6.8,0,12.4-5.5,12.4-12.4
	V94.1c0-1,0.3-2.1,0.9-2.9l6.6-9.6c4.9-7.4,4.9-8.2,4.9,1.5V122.9z"/>
</svg>
