<?xml version="1.0" encoding="utf-8"?>
<!-- Generator: Adobe Illustrator 18.0.0, SVG Export Plug-In . SVG Version: 6.00 Build 0)  -->
<!DOCTYPE svg PUBLIC "-//W3C//DTD SVG 1.1//EN" "http://www.w3.org/Graphics/SVG/1.1/DTD/svg11.dtd">
<svg version="1.1" id="Layer_1" xmlns="http://www.w3.org/2000/svg" xmlns:xlink="http://www.w3.org/1999/xlink" x="0px" y="0px"
	 viewBox="0 0 20 20" enable-background="new 0 0 20 20" xml:space="preserve">
<path fill="#444444" d="M10,0C4.5,0,0,4.5,0,10c0,5.5,4.5,10,10,10s10-4.5,10-10C20,4.5,15.5,0,10,0z M15.9,15.9
	c-0.8,0.8-1.7,1.4-2.7,1.8c-0.3,0.1-0.5,0.2-0.8,0.3v-1.5c0-0.8-0.3-1.4-0.8-1.7c0.3,0,0.6-0.1,0.9-0.1c0.3-0.1,0.6-0.1,0.9-0.3
	c0.3-0.1,0.6-0.2,0.8-0.4c0.3-0.2,0.5-0.4,0.7-0.6c0.2-0.2,0.4-0.5,0.6-0.8c0.2-0.3,0.3-0.7,0.4-1.1c0.1-0.4,0.1-0.9,0.1-1.4
	c0-1-0.3-1.9-1-2.6c0.3-0.8,0.3-1.6-0.1-2.5l-0.2,0c-0.2,0-0.5,0.1-0.9,0.2c-0.4,0.2-0.9,0.4-1.5,0.8c-0.8-0.2-1.6-0.3-2.4-0.3
	c-0.8,0-1.6,0.1-2.4,0.3C7.3,5.7,7,5.5,6.7,5.3C6.3,5.2,6.1,5,5.9,5C5.7,4.9,5.6,4.9,5.4,4.9c-0.2,0-0.3,0-0.3,0c0,0-0.1,0-0.1,0
	C4.6,5.8,4.6,6.7,4.9,7.4c-0.7,0.7-1,1.6-1,2.6c0,0.5,0,1,0.1,1.4c0.1,0.4,0.2,0.8,0.4,1.1c0.2,0.3,0.3,0.6,0.6,0.8
	c0.2,0.2,0.5,0.4,0.7,0.6c0.3,0.2,0.5,0.3,0.8,0.4c0.3,0.1,0.6,0.2,0.9,0.3c0.3,0.1,0.6,0.1,0.9,0.1c-0.5,0.4-0.8,0.9-0.8,1.7V18
	C7.3,18,7,17.9,6.7,17.7c-1-0.4-1.9-1-2.7-1.8c-0.8-0.8-1.4-1.7-1.8-2.7c-0.4-1-0.7-2.1-0.7-3.3c0-1.1,0.2-2.2,0.7-3.3
	c0.4-1,1-1.9,1.8-2.7c0.8-0.8,1.7-1.4,2.7-1.8c1-0.4,2.1-0.7,3.3-0.7s2.2,0.2,3.3,0.7c1,0.4,1.9,1,2.7,1.8c0.8,0.8,1.4,1.7,1.8,2.7
	c0.4,1,0.7,2.1,0.7,3.3c0,1.1-0.2,2.2-0.7,3.3C17.3,14.3,16.7,15.2,15.9,15.9z"/>
</svg>
