<?xml version="1.0" encoding="utf-8"?>
<!-- Generator: Adobe Illustrator 18.0.0, SVG Export Plug-In . SVG Version: 6.00 Build 0)  -->
<!DOCTYPE svg PUBLIC "-//W3C//DTD SVG 1.1//EN" "http://www.w3.org/Graphics/SVG/1.1/DTD/svg11.dtd">
<svg version="1.1" id="Layer_1" xmlns="http://www.w3.org/2000/svg" xmlns:xlink="http://www.w3.org/1999/xlink" x="0px" y="0px"
	 viewBox="0 0 16 16" enable-background="new 0 0 16 16" xml:space="preserve">
<path fill="#444444" d="M13.9,15.9l-3.8-3.8c-1,0.7-2.3,1.1-3.6,1.1c-3.6,0-6.5-3-6.5-6.6C0,3,2.9,0,6.5,0c3.6,0,6.5,3,6.5,6.6
	c0,1.3-0.4,2.5-1,3.5l3.8,3.8c0.2,0.2,0,0.7-0.4,1.1L15,15.5C14.6,15.9,14.1,16.1,13.9,15.9z M10.9,6.6c0-2.4-2-4.4-4.4-4.4
	c-2.4,0-4.4,2-4.4,4.4c0,2.4,2,4.4,4.4,4.4C9,11,10.9,9,10.9,6.6z"/>
</svg>
