<?xml version="1.0" encoding="utf-8"?>
<!-- Generator: Adobe Illustrator 18.0.0, SVG Export Plug-In . SVG Version: 6.00 Build 0)  -->
<!DOCTYPE svg PUBLIC "-//W3C//DTD SVG 1.1//EN" "http://www.w3.org/Graphics/SVG/1.1/DTD/svg11.dtd">
<svg version="1.1" id="Layer_1" xmlns="http://www.w3.org/2000/svg" xmlns:xlink="http://www.w3.org/1999/xlink" x="0px" y="0px"
	 viewBox="0 0 18 16" enable-background="new 0 0 18 16" xml:space="preserve">
<g>
	<g>
		<path fill="#444444" d="M9.9,0C5.8,0,2.6,3.2,2,7H0l3,4l3-4H4c0.6-2.9,2.8-5.2,5.9-5.2c3.5,0,6.3,2.8,6.3,6.2s-2.8,6.2-6.3,6.2
			c-1.6,0-3-0.6-4.1-1.5c-0.2-0.2-0.5-0.2-0.7,0l-0.5,0.5c-0.2,0.2-0.2,0.5,0,0.7c1.4,1.2,3.3,2,5.3,2c4.5,0,8.1-3.6,8.1-8
			C18,3.6,14.4,0,9.9,0z M10.9,8.5c0.1-0.3,0.3-0.6,0.6-0.7l2.7-0.9C14.1,6.4,14.1,6.5,14,6H9c0,0.8,0,0.5,0,1v4.9
			c0.6,0.1,0.4,0,1,0.1L10.9,8.5z"/>
	</g>
</g>
</svg>
