<?xml version="1.0" encoding="utf-8"?>
<!-- Generator: Adobe Illustrator 18.0.0, SVG Export Plug-In . SVG Version: 6.00 Build 0)  -->
<!DOCTYPE svg PUBLIC "-//W3C//DTD SVG 1.1//EN" "http://www.w3.org/Graphics/SVG/1.1/DTD/svg11.dtd">
<svg version="1.1" id="Layer_1" xmlns="http://www.w3.org/2000/svg" xmlns:xlink="http://www.w3.org/1999/xlink" x="0px" y="0px"
	 viewBox="-25 -25 99.9 100" enable-background="new -25 -25 99.9 100" xml:space="preserve">
<g>
	<path fill="#444444" d="M25-25C-2.6-25-25-2.6-25,25s22.4,50,50,50s50-22.4,50-50S52.6-25,25-25z M25,65C3,65-15,47-15,25
		S3-15,25-15S65,3,65,25S47,65,25,65z"/>
	<path fill="#444444" d="M49.6,25H0.4c-3.2,0-5.4,2.8-4.8,5.8C-1.6,44.6,10.4,55,25,55s26.6-10.4,29.4-24.2C55,27.8,52.8,25,49.6,25
		z"/>
	<circle fill="#444444" cx="8.6" cy="10.6" r="7.6"/>
	<circle fill="#444444" cx="41.4" cy="10.6" r="7.6"/>
</g>
</svg>
