<?xml version="1.0" encoding="utf-8"?>
<!-- Generator: Adobe Illustrator 18.0.0, SVG Export Plug-In . SVG Version: 6.00 Build 0)  -->
<!DOCTYPE svg PUBLIC "-//W3C//DTD SVG 1.1//EN" "http://www.w3.org/Graphics/SVG/1.1/DTD/svg11.dtd">
<svg version="1.1" id="Layer_1" xmlns="http://www.w3.org/2000/svg" xmlns:xlink="http://www.w3.org/1999/xlink" x="0px" y="0px"
	 viewBox="0 0 12 10" enable-background="new 0 0 12 10" xml:space="preserve">
<path fill="#444444" d="M1,6h7.6L6.3,8.3c-0.4,0.4-0.4,1,0,1.4c0.4,0.4,1,0.4,1.4,0l4-4c0.4-0.4,0.4-1,0-1.4l-4-4C7.5,0.1,7.3,0,7,0
	C6.7,0,6.5,0.1,6.3,0.3c-0.4,0.4-0.4,1,0,1.4L8.6,4H1C0.4,4,0,4.4,0,5C0,5.6,0.4,6,1,6z"/>
</svg>
