<?xml version="1.0" encoding="utf-8"?>
<!-- Generator: Adobe Illustrator 18.0.0, SVG Export Plug-In . SVG Version: 6.00 Build 0)  -->
<!DOCTYPE svg PUBLIC "-//W3C//DTD SVG 1.1//EN" "http://www.w3.org/Graphics/SVG/1.1/DTD/svg11.dtd">
<svg version="1.1" id="Layer_1" xmlns="http://www.w3.org/2000/svg" xmlns:xlink="http://www.w3.org/1999/xlink" x="0px" y="0px"
	 viewBox="-25 -25 99.7 100" enable-background="new -25 -25 99.7 100" xml:space="preserve">
<g>
	<path fill="#444444" d="M25-15c22,0,40,18,40,40S47,65,25,65s-40-18-40-40S3-15,25-15 M25-25C-2.6-25-25-2.6-25,25s22.4,50,50,50
		s50-22.4,50-50S52.6-25,25-25L25-25z"/>
	<circle fill="#444444" cx="8.6" cy="10.6" r="7.6"/>
	<circle fill="#444444" cx="41.4" cy="10.6" r="7.6"/>
	<path fill="#444444" d="M51.2,34.8l-40.4,11c-2.6,0.8-5.4-0.8-6.2-3.6l0,0c-0.8-2.6,0.8-5.4,3.6-6.2l40.4-11
		c2.6-0.8,5.4,0.8,6.2,3.6l0,0C55.6,31.4,54,34.2,51.2,34.8z"/>
</g>
</svg>
