<?xml version="1.0" encoding="utf-8"?>
<!-- Generator: Adobe Illustrator 18.0.0, SVG Export Plug-In . SVG Version: 6.00 Build 0)  -->
<!DOCTYPE svg PUBLIC "-//W3C//DTD SVG 1.1//EN" "http://www.w3.org/Graphics/SVG/1.1/DTD/svg11.dtd">
<svg version="1.1" id="Layer_1" xmlns="http://www.w3.org/2000/svg" xmlns:xlink="http://www.w3.org/1999/xlink" x="0px" y="0px"
	 viewBox="0 0 48 48" enable-background="new 0 0 48 48" xml:space="preserve">
<path fill="#444444" d="M24,0C10.7,0,0,10.7,0,24c0,13.3,10.7,24,24,24s24-10.7,24-24C48,10.7,37.3,0,24,0z M24,40L24,40
	c-2.2,0-4-1.8-4-4v0c0-2.2,1.8-4,4-4h0c2.2,0,4,1.8,4,4v0C28,38.2,26.2,40,24,40z M34,17.7c0,5.2-2.9,8.2-7.4,9.3l0,1.2
	c0,1-0.8,1.8-1.8,1.8h-1.6c-0.9,0-1.7-0.7-1.8-1.6l-1-6.3l0,0c4.8-0.4,5.7-2,5.7-3.8v0c0-4-4.8-1.9-7.3-0.3c-0.6,0.4-1.5,0.3-2-0.3
	l-2.6-3.2c-0.5-0.6-0.4-1.6,0.2-2.1C20.7,7.5,34,7.3,34,17.7L34,17.7z"/>
</svg>
