<?xml version="1.0" encoding="utf-8"?>
<!-- Generator: Adobe Illustrator 18.0.0, SVG Export Plug-In . SVG Version: 6.00 Build 0)  -->
<!DOCTYPE svg PUBLIC "-//W3C//DTD SVG 1.1//EN" "http://www.w3.org/Graphics/SVG/1.1/DTD/svg11.dtd">
<svg version="1.1" id="Layer_1" xmlns="http://www.w3.org/2000/svg" xmlns:xlink="http://www.w3.org/1999/xlink" x="0px" y="0px"
	 viewBox="0 0 8.4 8.4" enable-background="new 0 0 8.4 8.4" xml:space="preserve">
<path fill-rule="evenodd" clip-rule="evenodd" fill="#444444" d="M5.6,4.2l2.5-2.5c0.4-0.4,0.4-1,0-1.4s-1-0.4-1.4,0L4.2,2.8
	L1.7,0.3c-0.4-0.4-1-0.4-1.4,0s-0.4,1,0,1.4l2.5,2.5L0.3,6.7c-0.4,0.4-0.4,1,0,1.4s1,0.4,1.4,0l2.5-2.5l2.5,2.5c0.4,0.4,1,0.4,1.4,0
	s0.4-1,0-1.4L5.6,4.2z"/>
</svg>
