<?xml version="1.0" encoding="utf-8"?>
<!-- Generator: Adobe Illustrator 18.0.0, SVG Export Plug-In . SVG Version: 6.00 Build 0)  -->
<!DOCTYPE svg PUBLIC "-//W3C//DTD SVG 1.1//EN" "http://www.w3.org/Graphics/SVG/1.1/DTD/svg11.dtd">
<svg version="1.1" id="Layer_1" xmlns="http://www.w3.org/2000/svg" xmlns:xlink="http://www.w3.org/1999/xlink" x="0px" y="0px"
	 viewBox="-25 -25 100 100" enable-background="new -25 -25 100 100" xml:space="preserve">
<g>
	<path fill="#444444" d="M25-25C-2.6-25-25-2.6-25,25s22.4,50,50,50s50-22.4,50-50S52.6-25,25-25z M25,65C3,65-15,47-15,25
		S3-15,25-15S65,3,65,25S47,65,25,65z"/>
	<path fill="#444444" d="M0.6,18.4c1,1,2.6,1,3.6,0l5.3-5.3l5.3,5.3c1,1,2.6,1,3.6,0s1-2.6,0-3.6l-5.3-5.3l5.3-5.3c1-1,1-2.4,0-3.6
		c-1-1-2.6-1-3.6,0L9.5,5.9L4.2,0.6c-1-1-2.6-1-3.6,0c-1,1-1,2.6,0,3.6l5.3,5.3l-5.3,5.3C-0.4,15.8-0.4,17.4,0.6,18.4z"/>
	<path fill="#444444" d="M44,9.4l5.2-5.2c1-1,1-2.4,0-3.6c-1-1-2.6-1-3.6,0l-5.2,5.2l-5.2-5.2c-1-1-2.6-1-3.6,0s-1,2.6,0,3.6
		l5.2,5.2l-5.4,5.4c-1,1-1,2.6,0,3.6s2.6,1,3.6,0l5.4-5.4l5.4,5.4c1,1,2.4,1,3.6,0c1-1,1-2.6,0-3.6L44,9.4z"/>
	<path fill="#444444" d="M47.4,30H25H5H2.4C1.2,30,0,31,0,32.4c0,1.2,1,2.4,2.4,2.4H5V45c0,5.6,4.4,10,10,10s10-4.4,10-10V34.8h22.4
		c1.4,0,2.6-1.2,2.4-2.4C49.8,31.2,48.8,30,47.4,30z M20,45c0,2.8-2.2,5-5,5s-5-2.2-5-5V35h10V45z"/>
</g>
</svg>
