<?xml version="1.0" encoding="utf-8"?>
<!-- Generator: Adobe Illustrator 18.0.0, SVG Export Plug-In . SVG Version: 6.00 Build 0)  -->
<!DOCTYPE svg PUBLIC "-//W3C//DTD SVG 1.1//EN" "http://www.w3.org/Graphics/SVG/1.1/DTD/svg11.dtd">
<svg version="1.1" id="Layer_1" xmlns="http://www.w3.org/2000/svg" xmlns:xlink="http://www.w3.org/1999/xlink" x="0px" y="0px"
	 viewBox="9.8 9.7 30.3 30.8" enable-background="new 9.8 9.7 30.3 30.8" xml:space="preserve">
<g>
	<path fill="#444444" d="M10.6,26.5l13.5,6.2c0,0,0.1,0,0.1,0c0,0,0,0,0.1,0s0,0,0.1,0c0.2,0,0.4,0.1,0.5,0.1c0.2,0,0.4,0,0.6-0.1
		c0,0,0,0,0.1,0c0,0,0,0,0.1,0c0.1,0,0.1,0,0.1,0l13.5-6.2c0.8-0.4,1.1-1.2,0.6-1.8c-0.4-0.6-1.5-0.8-2.3-0.5L25,30l-12.6-5.8
		c-0.8-0.4-1.9-0.1-2.3,0.5C9.5,25.3,9.8,26.1,10.6,26.5z"/>
	<path fill="#444444" d="M10.6,34.1l13.5,6.2c0,0,0.1,0,0.1,0c0,0,0,0,0.1,0s0.1,0,0.1,0c0,0,0.1,0,0.1,0c0,0,0,0,0.1,0
		c0.1,0,0.2,0,0.4,0c0,0,0.1,0,0.1,0c0,0,0,0,0,0c0.1,0,0.1,0,0.1,0c0,0,0.1,0,0.1,0c0,0,0,0,0.1,0s0.1,0,0.1,0c0,0,0,0,0.1,0
		c0,0,0.1,0,0.1,0c0,0,0,0,0,0l13.5-6.2c0.8-0.4,1.1-1.2,0.6-1.8c-0.5-0.6-1.5-0.8-2.3-0.5L25,37.6l-12.6-5.8
		c-0.8-0.4-1.9-0.2-2.3,0.5C9.5,32.9,9.8,33.8,10.6,34.1z"/>
	<path fill="#444444" d="M39.3,16.1L25.8,9.9c-0.5-0.2-1.2-0.2-1.7,0l-13.5,6.2c-0.5,0.2-0.8,0.7-0.8,1.2s0.3,0.9,0.8,1.2l13.5,6.2
		c0.3,0.1,0.5,0.2,0.9,0.2c0.3,0,0.6-0.1,0.8-0.2l13.5-6.2c0.5-0.2,0.8-0.7,0.8-1.2C40.2,16.8,39.9,16.3,39.3,16.1z M25,21.9
		l-10.1-4.7L25,12.6l10.2,4.7L25,21.9z"/>
</g>
</svg>
