<?xml version="1.0" encoding="utf-8"?>
<!-- Generator: Adobe Illustrator 18.0.0, SVG Export Plug-In . SVG Version: 6.00 Build 0)  -->
<!DOCTYPE svg PUBLIC "-//W3C//DTD SVG 1.1//EN" "http://www.w3.org/Graphics/SVG/1.1/DTD/svg11.dtd">
<svg version="1.1" id="Layer_1" xmlns="http://www.w3.org/2000/svg" xmlns:xlink="http://www.w3.org/1999/xlink" x="0px" y="0px"
	 viewBox="0 0 22 22" enable-background="new 0 0 22 22" xml:space="preserve">
<path fill="#444444" d="M22,8.4c-0.1-0.3-0.3-0.5-0.6-0.5l-7.3-0.2l-2.4-7.2C11.6,0.2,11.3,0,11,0c-0.3,0-0.5,0.2-0.6,0.5L8,7.7
	L0.6,7.9C0.4,7.9,0.1,8.1,0,8.4c-0.1,0.3,0,0.6,0.2,0.8l5.8,4.6L4,21.1c-0.1,0.3,0,0.6,0.2,0.8C4.5,22,4.8,22,5,21.9l6-4.4l6,4.4
	c0.1,0.1,0.2,0.1,0.4,0.1c0.1,0,0.3,0,0.4-0.1c0.2-0.2,0.3-0.5,0.2-0.8l-2.1-7.3l5.8-4.6C22,8.9,22.1,8.6,22,8.4z"/>
</svg>
