<?xml version="1.0" encoding="utf-8"?>
<!-- Generator: Adobe Illustrator 18.0.0, SVG Export Plug-In . SVG Version: 6.00 Build 0)  -->
<!DOCTYPE svg PUBLIC "-//W3C//DTD SVG 1.1//EN" "http://www.w3.org/Graphics/SVG/1.1/DTD/svg11.dtd">
<svg version="1.1" id="Layer_1" xmlns="http://www.w3.org/2000/svg" xmlns:xlink="http://www.w3.org/1999/xlink" x="0px" y="0px"
	 viewBox="0 0 177.7 200" enable-background="new 0 0 177.7 200" xml:space="preserve">
<g>
	<polygon fill="#444444" points="129.5,69 88.8,50.4 48.2,69 88.8,87.6 	"/>
	<path fill="#444444" d="M163.7,34.4L100.9,2.7c-7.5-3.6-16.1-3.6-23.6,0l-63,31.7C5.6,38.8,0,47.7,0,57.2v85.5
		c0,9.7,5.6,18.6,14.2,22.8L77,197.3c7.5,3.6,16.1,3.6,23.6,0l62.8-31.7c8.6-4.4,14.2-13.3,14.2-22.8V57.4
		C177.9,47.7,172.3,38.8,163.7,34.4z M31.3,64.4l54-24.8c2.1-1,4.8-1,6.9,0l54,24.8c2.1,0.9,3.4,2.7,3.2,4.6c0,1.9-1.2,3.7-3.3,4.6
		l-54,24.8c-1,0.5-2.2,0.7-3.4,0.7c-1.2,0-2.3-0.2-3.4-0.7l-54-24.8c-2-1-3.3-2.7-3.3-4.6C28,67.1,29.2,65.4,31.3,64.4z M28.9,98.6
		c1.9-2.5,6.1-3.4,9.3-1.9L88.7,120l50.6-23.2c3.3-1.4,7.4-0.6,9.1,1.9c1.9,2.6,0.8,5.8-2.4,7.3l-54,24.8c-0.2,0.1-0.3,0.1-0.5,0.2
		c-0.1,0-0.2,0.1-0.3,0.1c-0.1,0.1-0.2,0.1-0.3,0.1c-0.8,0.2-1.5,0.3-2.3,0.3c-0.7,0-1.5-0.1-2.2-0.3c-0.1,0-0.2-0.1-0.3-0.1
		c-0.1,0-0.2-0.1-0.3-0.1c-0.2-0.1-0.3-0.1-0.5-0.2l-54-24.8C28.1,104.5,27,101.2,28.9,98.6z M146.2,136.4l-54,24.8
		c-0.1,0-0.1,0-0.1,0c-0.2,0.1-0.3,0.1-0.5,0.2c-0.1,0-0.2,0.1-0.3,0.1c-0.2,0-0.3,0.1-0.5,0.1s-0.3,0.1-0.4,0.1
		c-0.2,0.1-0.3,0.1-0.4,0.1c-0.2,0.1-0.3,0.1-0.5,0.1c0,0-0.1,0-0.2,0c-0.2,0-0.4,0-0.6,0c-0.5,0-1,0-1.5-0.1c-0.1,0-0.2,0-0.3,0
		s-0.3-0.1-0.4-0.1s-0.3-0.1-0.4-0.1s-0.2-0.1-0.3-0.1c-0.1-0.1-0.3-0.1-0.5-0.2l-54-24.8c-3.2-1.5-4.3-4.8-2.4-7.3
		c1.9-2.5,6.1-3.4,9.3-1.9l50.6,23.2l50.6-23.2c3.3-1.5,7.4-0.7,9.2,1.8C150.5,131.7,149.4,134.9,146.2,136.4z"/>
</g>
</svg>
