<svg height="2590" viewBox="0 0 3380 2590" width="3380" xmlns="http://www.w3.org/2000/svg"><g fill="none" fill-rule="evenodd"><path d="m1224.587 2336.18c11.954 5.277 24.1 10.169 36.192 15.199 24.266 9.894 39.738 15.144 51.088 17.398 11.515 1.924 18.522 1.731 25.448 1.539 6.952-.22 13.878-.44 25.2 1.319 5.688.852 12.449 2.226 20.913 4.288 8.437 2.308 18.577 4.81 31.026 7.42 99.51 21.301 203.196 29.437 305.839 21.906 102.642-7.476 203.883-30.206 298.748-66.623 190.17-72.836 353.216-197.59 476.441-350.599 123.309-153.201 208.913-336.47 242.742-532.741 16.9-97.984 20.528-199.019 9.399-298.9-10.965-99.852-36.853-198.33-76.096-290.268 34.077 94.191 49.741 181.098 57.656 267.319 7.502 86.358 7.31 172.715-1.842 270.287-6.1-.77-18.11-2.199-25.475 45.295-14.317 70.72-33.72 143.197-60.76 211.91-27.125 68.575-59.552 134.126-95.965 192.065-72.908 115.931-159.858 200.53-221.114 237.937-9.893 6.651-19.924 13.028-31.85 19.404-12.01 6.184-25.366 13-40.783 21.659-15.114 9.042-33.719 18.195-55.127 30.673-21.023 13.028-47.24 26.028-77.277 43.838 20.061-11.873 40.425-23.307 60.046-35.73 19.1-13.138 38.639-25.781 57.271-39.606-3.682-4.92-10.965-14.76-10.965-14.76-74.556 52.222-166.756 99.908-265.001 129.95-97.998 30.7-201.135 43.26-291.548 39.908 0 0-.028-12.231-.028-18.36l-22.122.247c-7.365-.247-14.702-.852-22.095-1.292l-44.107-2.94c-20.803-13.276-6.019-18.443 29.927-21.989 8.959-.797 19.292-1.401 30.751-1.786 11.46-.577 24.101-2.254 37.622-3.188 27.152-1.265 57.875-5.91 90.798-10.17 65.625-10.691 138.945-29.958 205.45-57.47 16.406-7.34 33.142-13.441 48.531-21.522 15.362-7.97 30.422-15.721 44.932-23.224 27.866-17.014 54.193-31.993 74.996-48.1a6507.56 6507.56 0 0 1 -13.713-20.31c-22.067 16.078-46.25 28.804-69.582 42.876l-.907-1.622c384.132-210.397 608.076-711.228 428.68-1157.447-21.738-54.035-49.522-105.322-82.197-153.311 2.638 2.693 5.221 5.442 7.805 8.218 11.954 13.523 24.293 27.045 35.698 40.375 10.8 13.908 21.105 27.183 30.421 39.139 17.808 24.681 31.137 44.938 38.447 53.403 15.664 26.688 24.21 23.253 27.508.66 2.034-10.94 1.044-28.255-1.044-49.363-1.676-21.41-6.815-45.955-13.686-73.11-3.105-13.798-7.53-27.678-12.531-41.915-5.03-14.182-9.866-29.271-16.022-43.866-12.614-29.051-26.327-59.367-43.008-87.292-15.417-28.97-34.489-54.613-51.72-79.542-18.824-23.17-36.165-45.542-53.478-62.363-33.307-35.263-29.02-41.475-14.208-40.32 14.73 1.099 39.93 9.894 45.921 2.968-40.37-30.37-69.362-54.393-98.794-78.717-15.198-11.434-30.532-22.84-47.708-34.384-17.23-11.433-37.237-21.493-60.266-32.322.824-1.567-15.472-11.654-43.393-25.698-13.905-7.147-30.45-15.722-49.85-23.418-19.32-7.75-40.123-17.508-63.4-24.654-91.238-32.817-209.901-52.606-286.904-53.458 0 0-12.943.742-45.124 2.556-32.07 2.116-83.378 4.837-158.896 16.326-50.318 8.438-48.807 15.447-47.653 21.164-1.209-5.992-1.209-5.992-2.445-12.011-23.8 10.774-60.487 19.899-97.119 29.958-36.632 9.922-72.798 22.07-95.277 34.164l-4.562-11.379c-89.424 50.435-185.938 91.305-262.638 159.22-3.765-4.81-3.765-4.81-7.557-9.646-19.842 16.326-39.491 32.762-54.688 44.58-14.922 12.094-24.76 20.202-26.987 17.865l-8.381-8.932c-43.668 30.315-102.038 116.811-110.942 109.225l9.454 7.806c-65.323 79.321-112.482 155.977-152.192 229.554-9.481 18.69-18.798 37.023-27.949 55.08-8.08 18.663-16.021 37.05-23.908 55.273a15813.72 15813.72 0 0 0 -11.543 27.32c-3.297 9.345-6.568 18.634-9.838 27.897-6.375 18.635-12.724 37.215-19.072 55.767-32.318 99.853-51.06 213.366-47.845 333.118 2.968 120 28.663 242.692 74.035 356.947 90.44 229.5 258.186 425.605 459.568 551.321 45.152 28.227 95.827 44.279 57.546 6.79 21.682 14.044 44.904 25.89 68.208 37.599l34.874 17.617" fill="#eceef1" opacity=".482"/><path d="m862.54 1992.74-112.52-890.26c-5.5-43.62 25.94-79.29 69.9-79.29h948.25z" fill="#f36763"/><path d="m1750.9 1030.69h-930.98c-39.28 0-67.38 31.87-62.46 70.85l28.56 225.94c.52 4.1-2.39 7.87-6.5 8.38-4.11.52-7.87-2.39-8.39-6.5l-28.56-225.94c-6.08-48.26 28.71-87.72 77.35-87.72l948.25-.01c2.99 0 5.68 1.77 6.87 4.51 1.2 2.74.64 5.93-1.39 8.11l-905.63 969.55a7.526 7.526 0 0 1 -7.79 2.02 7.505 7.505 0 0 1 -5.13-6.2l-20.7-163.78c-.52-4.11 2.39-7.87 6.5-8.39 4.1-.52 7.86 2.4 8.38 6.5l18.7 147.93z" fill="#767b80"/><path d="m1752.5 1091.42c-8.18 30.54-39.88 48.85-70.43 40.66l-549.05-147.12c-30.56-8.19-48.85-39.88-40.67-70.43l156.4-583.7c8.18-30.545 39.88-48.85 70.44-40.67l549.04 147.115c30.56 8.19 48.85 39.895 40.67 70.44z" fill="#e9e9e9"/><path d="m1134.96 977.72c-26.57-7.12-42.48-34.68-35.37-61.25 0 .01 156.4-583.7 156.4-583.7a7.504 7.504 0 0 0 -5.3-9.185c-4-1.07-8.12 1.305-9.19 5.305l-156.4 583.7c-9.25 34.53 11.43 70.37 45.98 79.62 3.99 1.07 8.11-1.31 9.18-5.3 1.07-4.01-1.3-8.12-5.3-9.19m354.46-634.185 376.87 100.985c26.56 7.12 42.48 34.695 35.37 61.255 0-.005-156.41 583.705-156.41 583.705-7.11 26.56-34.67 42.48-61.25 35.35l-196.79-52.73c-3.99-1.07-8.11 1.31-9.18 5.31s1.3 8.11 5.3 9.18l196.8 52.73c34.54 9.26 70.36-11.43 79.62-45.97l156.4-583.695c9.24-34.525-11.44-70.365-45.98-79.625l-376.88-100.985a7.497 7.497 0 0 0 -9.18 5.305 7.505 7.505 0 0 0 5.31 9.185" fill="#767b80"/><path d="m1698.85 1072.33 155.49-580.34-549.04-147.105-155.49 580.325z" fill="#fff"/><g fill="#f36763"><path d="m1598.7 836.47-72.79 166.22c-4.83 11-18.27 17.48-29.88 14.36l-139.26-37.32c-11.62-3.11-20.02-15.44-18.7-27.37l20.06-180.355z"/><path d="m1420.1 605.445c27.71-3.07 55.12 38.665 61.15 93.14 6.04 54.48-11.56 101.205-39.29 104.265-27.71 3.08-55.11-38.66-61.15-93.14-6.03-54.475 11.57-101.195 39.29-104.265" opacity=".376"/><path d="m1545.49 549.895c38.73 10.375 54.39 77.665 34.97 150.175-19.43 72.505-66.64 122.95-105.37 112.57-38.72-10.37-54.39-77.665-34.96-150.17s66.63-122.95 105.36-112.575" opacity=".376"/><path d="m1617.02 674.37c23.23 15.42 19.86 61.425-7.52 102.665-27.39 41.235-68.48 62.195-91.71 46.775-23.23-15.43-19.85-61.43 7.53-102.67 27.39-41.24 68.47-62.195 91.7-46.77" opacity=".376"/></g><path d="m1616.65 841.27c-3.12 11.61-15.17 18.56-26.77 15.45l-234.24-62.76c-11.61-3.11-18.56-15.155-15.45-26.76l.57-2.105c3.11-11.605 15.15-18.56 26.75-15.45l234.24 62.755c11.61 3.12 18.56 15.15 15.46 26.77z" fill="#e2e8f0"/><path d="m416.035 1677.63 718.145-192.42c27.05-7.25 43.25-35.31 36-62.36l-115.56-431.3c-7.26-27.05-35.31-43.26-62.36-36.01l-718.15 192.44c-27.05 7.24-43.255 35.3-36.01 62.35l115.57 431.32c7.25 27.04 35.315 43.24 62.365 35.98z" fill="#fbedec"/><path d="m990.31 948.3-718.14 192.43c-31.035 8.31-49.625 40.51-41.315 71.54l52.375 195.47c1.075 3.99 5.19 6.37 9.185 5.3 4-1.07 6.375-5.19 5.305-9.19l-52.375-195.45c-6.175-23.07 7.64-47 30.705-53.18.005 0 718.15-192.43 718.15-192.43 3.99-1.07 6.38-5.19 5.3-9.19-1.07-4-5.19-6.37-9.19-5.3m-572.335 736.58 718.145-192.42c31.03-8.31 49.62-40.52 41.3-71.55l-86.11-321.37c-1.06-4-5.18-6.37-9.18-5.3s-6.38 5.18-5.3 9.18l86.11 321.37c6.17 23.07-7.64 47-30.7 53.18l-718.145 192.43c-4 1.06-6.375 5.18-5.305 9.18 1.075 4 5.19 6.38 9.185 5.3" fill="#767b80"/><path d="m704.15 1178.6c76.21 0 137.99 61.78 137.99 138 0 76.21-61.78 137.99-137.99 137.99-76.217 0-138-61.78-138-137.99 0-76.22 61.783-138 138-138" fill="#fff"/><path d="m651.68 1258.5c-7.35-2.37-11.735 1.79-9.74 9.26l32.75 122.22c2 7.48 7.88 8.9 13.06 3.15l76.57-84.75c5.18-5.74 3.41-12.38-3.96-14.77z" fill="#f36763"/><path d="m359.345 1193.48c1.565 5.85-1.93 11.91-7.775 13.48l-45.195 12.1c-5.84 1.57-11.9-1.92-13.475-7.77l-4.99-18.61c-1.56-5.85 1.94-11.91 7.79-13.47l45.185-12.12c5.845-1.56 11.905 1.93 13.47 7.79zm130.225-34.89c1.57 5.85-1.935 11.91-7.775 13.47l-45.195 12.11c-5.835 1.57-11.905-1.93-13.475-7.77l-4.985-18.62c-1.565-5.84 1.935-11.9 7.78-13.47l45.19-12.12c5.84-1.56 11.905 1.94 13.47 7.79zm130.225-34.89c1.565 5.84-1.935 11.9-7.775 13.47l-45.195 12.1c-5.845 1.57-11.9-1.92-13.475-7.77l-4.99-18.62c-1.56-5.84 1.94-11.9 7.78-13.46l45.195-12.12c5.845-1.56 11.905 1.93 13.47 7.78zm130.225-34.89c1.57 5.84-1.93 11.9-7.77 13.46l-45.19 12.11c-5.85 1.56-11.91-1.94-13.48-7.78l-4.99-18.62c-1.57-5.84 1.94-11.9 7.79-13.46l45.18-12.12c5.85-1.55 11.9 1.94 13.48 7.79zm130.23-34.9c1.57 5.84-1.94 11.9-7.78 13.47l-45.19 12.11c-5.84 1.56-11.9-1.93-13.47-7.78l-4.99-18.62c-1.57-5.84 1.93-11.9 7.78-13.46l45.19-12.11c5.84-1.57 11.9 1.94 13.47 7.77zm130.22-34.89c1.57 5.83-1.93 11.9-7.78 13.46l-45.19 12.12c-5.83 1.55-11.9-1.95-13.47-7.79l-4.99-18.62c-1.56-5.84 1.94-11.9 7.78-13.46l45.19-12.11c5.84-1.57 11.91 1.93 13.47 7.78l4.99 18.61zm-539.855 589.73c1.565 5.83-1.94 11.9-7.785 13.46l-45.19 12.11c-5.845 1.57-11.9-1.93-13.47-7.78l-4.985-18.62c-1.565-5.84 1.93-11.9 7.775-13.46l45.195-12.11c5.84-1.56 11.9 1.93 13.47 7.78zm130.225-34.9c1.565 5.84-1.94 11.9-7.78 13.47l-45.195 12.11c-5.845 1.57-11.9-1.93-13.47-7.78l-4.985-18.61c-1.57-5.85 1.93-11.91 7.78-13.48l45.185-12.11c5.845-1.56 11.91 1.94 13.475 7.78zm130.23-34.89c1.56 5.84-1.94 11.9-7.78 13.47l-45.19 12.11c-5.85 1.56-11.91-1.94-13.47-7.78l-5-18.61c-1.55-5.85 1.94-11.91 7.78-13.47l45.19-12.12c5.84-1.56 11.91 1.94 13.48 7.78zm130.22-34.9c1.56 5.84-1.94 11.9-7.79 13.48l-45.18 12.1c-5.84 1.57-11.9-1.93-13.47-7.78l-4.99-18.61c-1.57-5.85 1.93-11.92 7.78-13.48l45.19-12.1c5.84-1.57 11.9 1.93 13.48 7.78zm130.23-34.89c1.56 5.84-1.94 11.9-7.78 13.47l-45.2 12.11c-5.84 1.56-11.9-1.94-13.47-7.78l-4.99-18.62c-1.56-5.84 1.94-11.9 7.79-13.47l45.18-12.11c5.85-1.56 11.91 1.94 13.48 7.78zm130.23-34.9c1.56 5.84-1.94 11.9-7.79 13.48l-45.19 12.1c-5.84 1.57-11.9-1.93-13.47-7.78l-4.99-18.61c-1.56-5.85 1.94-11.9 7.79-13.48l45.19-12.1c5.84-1.57 11.9 1.93 13.46 7.78l4.99 18.61z" fill="#fff"/><path d="m862.54 1992.74h1422.37l181.13-1028.16h-689.87c-43.96 0-101.5 28.77-127.87 63.94l-127.86 170.46h-396.87c-43.96 0-87.91 35.06-97.69 77.9z" fill="#fbedec"/><path d="m2278.61 1985.24 54.18-307.54c.71-4.07 4.61-6.8 8.69-6.09 4.07.72 6.8 4.62 6.08 8.7l-55.27 313.73a7.497 7.497 0 0 1 -7.38 6.2h-1047.91c-4.15 0-7.5-3.36-7.5-7.5s3.35-7.5 7.5-7.5zm-761.92-793.76 125.61-167.46c27.61-36.82 87.84-66.94 133.87-66.94h689.87c2.21 0 4.32.98 5.74 2.69a7.466 7.466 0 0 1 1.64 6.11l-52.34 297.12c-.72 4.08-4.62 6.81-8.69 6.09-4.08-.71-6.81-4.61-6.09-8.69l50.8-288.32h-680.93c-41.9 0-96.73 27.42-121.87 60.94l-127.86 170.46c-1.41 1.89-3.64 3-6 3h-26.63c-4.14 0-7.5-3.36-7.5-7.5s3.36-7.5 7.5-7.5zm-644.75 793.76h271.51c4.13 0 7.5 3.36 7.5 7.5s-3.37 7.5-7.5 7.5h-280.91c-2.28 0-4.44-1.04-5.87-2.82a7.518 7.518 0 0 1 -1.44-6.35l163.33-715.86c10.51-46.05 57.76-83.73 105.01-83.73h173.29c4.14 0 7.5 3.36 7.5 7.5s-3.36 7.5-7.5 7.5h-173.29c-40.67 0-81.34 32.43-90.38 72.07z" fill="#767b80"/><path d="m2764.34 786.105v238.175c0 23.18-18.96 42.15-42.17 42.15h-427.88c-23.19 0-42.15-18.97-42.15-42.15v-238.175c0-23.195 18.96-42.165 42.15-42.165h427.88c23.21 0 42.17 18.965 42.17 42.165" fill="#f36763"/><path d="m2764.34 786.105v9.855l-256.1 161.25-256.1-161.25v-9.855c0-23.195 18.97-42.165 42.16-42.165h427.87c23.21 0 42.17 18.965 42.17 42.165" fill="#fbedec"/><path d="m2756.84 786.105v238.175c0 19.06-15.59 34.65-34.67 34.65h-427.88c-4.13 0-7.5 3.36-7.5 7.5s3.37 7.5 7.5 7.5h427.88c27.33 0 49.67-22.35 49.67-49.65v-238.175c0-4.14-3.36-7.5-7.5-7.5s-7.5 3.36-7.5 7.5m-497.2 140.385v-140.385c0-19.07 15.59-34.665 34.65-34.665h340.78c4.14 0 7.5-3.36 7.5-7.5s-3.36-7.5-7.5-7.5h-340.78c-27.31 0-49.65 22.34-49.65 49.665v140.385c0 4.14 3.36 7.5 7.5 7.5s7.5-3.36 7.5-7.5" fill="#767b80"/><path d="m2246.12 655.59c51.61 0 93.46 41.846 93.46 93.465 0 51.615-41.85 93.465-93.46 93.465-51.62 0-93.47-41.85-93.47-93.465 0-51.619 41.85-93.465 93.47-93.465" fill="#fbedec"/><path d="m2320.68 791.835c-14.85 25.795-42.69 43.185-74.56 43.185-34.11 0-63.6-19.9-77.49-48.715-1.8-3.73-6.29-5.295-10.01-3.5a7.495 7.495 0 0 0 -3.5 10.015c16.31 33.83 50.95 57.2 91 57.2 37.42 0 70.13-20.41 87.56-50.71 2.07-3.58.83-8.17-2.76-10.235a7.5 7.5 0 0 0 -10.24 2.76m-160.53-42.78c0-47.445 38.52-85.965 85.97-85.965 20.37 0 39.09 7.105 53.84 18.965 3.21 2.595 7.94 2.085 10.54-1.14 2.59-3.225 2.08-7.95-1.14-10.545-17.32-13.935-39.32-22.28-63.24-22.28-55.73 0-100.97 45.24-100.97 100.965 0 4.14 3.36 7.5 7.5 7.5s7.5-3.36 7.5-7.5" fill="#767b80"/><path d="m2244.04 705.295-20.62 14.205c-2.92 2.01-6.92 1.27-8.94-1.645a6.423 6.423 0 0 1 1.65-8.93l30.69-21.135a6.4 6.4 0 0 1 6.62-.395 6.419 6.419 0 0 1 3.44 5.68v102.235c0 3.54-2.88 6.42-6.42 6.42a6.42 6.42 0 0 1 -6.42-6.42zm899 822.185-356.71 123.75-356.7-123.75v-46.11c0-20.02 15.49-41.78 34.38-48.33l287.94-99.9c18.92-6.56 49.86-6.56 68.77 0l287.93 99.9c18.91 6.56 34.39 28.31 34.39 48.33z" fill="#f36763"/><path d="m2437.13 1527.48v-46.11c0-10.83 5.42-22.18 13.38-30.54 2.86-3 2.74-7.75-.25-10.6-3-2.85-7.75-2.74-10.6.25-10.63 11.16-17.53 26.45-17.53 40.89v46.11c0 4.13 3.36 7.5 7.5 7.5s7.5-3.37 7.5-7.5m381.13-187.25 287.94 99.89c16.13 5.6 29.34 24.17 29.34 41.25v46.11c0 4.13 3.35 7.5 7.5 7.5 4.13 0 7.5-3.37 7.5-7.5v-46.11c0-22.95-17.74-47.9-39.44-55.42.01 0-287.92-99.89-287.92-99.89a7.503 7.503 0 0 0 -9.55 4.63 7.508 7.508 0 0 0 4.63 9.54" fill="#767b80"/><path d="m3066.61 1674.99c0 16.93-13.86 30.79-30.78 30.79h-498.97c-16.94 0-30.8-13.85-30.8-30.79v-422.49c0-16.93 13.86-30.79 30.8-30.79l498.97.01c16.92 0 30.78 13.84 30.78 30.78z" fill="#fff"/><path d="m2513.56 1467.04v-214.54c0-12.81 10.48-23.29 23.3-23.29h46.99c4.14 0 7.5-3.36 7.5-7.5s-3.36-7.5-7.5-7.5h-46.99c-21.07 0-38.3 17.23-38.3 38.29v214.54c0 4.13 3.36 7.5 7.5 7.5s7.5-3.37 7.5-7.5m118.65-237.83 403.62.01c12.8 0 23.28 10.47 23.28 23.28v98.57c0 4.14 3.36 7.5 7.5 7.5s7.5-3.36 7.5-7.5v-98.57c0-21.06-17.23-38.28-38.28-38.28l-403.62-.01c-4.14 0-7.5 3.37-7.5 7.5 0 4.14 3.36 7.5 7.5 7.5" fill="#767b80"/><path d="m2557.78 1298.4h118.29c3.47 0 6.3-2.82 6.3-6.3 0-3.47-2.83-6.29-6.3-6.29h-118.29a6.295 6.295 0 0 0 0 12.59m0 36.12h118.29c3.47 0 6.3-2.83 6.3-6.3s-2.83-6.29-6.3-6.29h-118.29c-3.47 0-6.29 2.82-6.29 6.29s2.82 6.3 6.29 6.3m10.78 82.4h429.5c3.47 0 6.29-2.82 6.29-6.29s-2.82-6.29-6.29-6.29l-429.5-.01c-3.47 0-6.29 2.83-6.29 6.3s2.82 6.29 6.29 6.29m0 50.89h429.5c3.47 0 6.29-2.81 6.29-6.29 0-3.47-2.82-6.29-6.29-6.29h-429.5c-3.47 0-6.29 2.82-6.29 6.29 0 3.48 2.82 6.29 6.29 6.29m0 50.92h429.5a6.295 6.295 0 0 0 0-12.59h-429.5a6.295 6.295 0 0 0 0 12.59m0 50.9h429.5c3.47 0 6.29-2.82 6.29-6.29s-2.82-6.29-6.29-6.29h-429.5c-3.47 0-6.29 2.82-6.29 6.29s2.82 6.29 6.29 6.29m-10.78 50.91h429.5c3.47 0 6.29-2.83 6.29-6.3s-2.82-6.29-6.29-6.29h-429.5c-3.47 0-6.29 2.82-6.29 6.29s2.82 6.3 6.29 6.3" fill="#767b80"/><path d="m3143.04 1527.48v359.11c0 20.01-16.38 36.39-36.4 36.39h-640.6c-20.04 0-36.41-16.38-36.41-36.4v-359.1l356.7 123.75z" fill="#fbedec"/><path d="m3135.54 1527.48v98.19c0 4.14 3.35 7.5 7.5 7.5 4.13 0 7.5-3.36 7.5-7.5v-98.19c0-4.14-3.37-7.5-7.5-7.5-4.15 0-7.5 3.36-7.5 7.5m-11.28 381.96c-4.88 3.79-11 6.05-17.61 6.05h-640.61c-7.96 0-15.18-3.26-20.42-8.5-2.92-2.93-7.68-2.93-10.6 0-2.94 2.93-2.93 7.68 0 10.61 7.95 7.96 18.94 12.89 31.02 12.89h640.61c10.07 0 19.38-3.43 26.81-9.2 3.27-2.54 3.87-7.25 1.33-10.52s-7.25-3.87-10.52-1.33zm-687.13-371.42v281.94c0 4.14-3.36 7.5-7.5 7.5s-7.5-3.36-7.5-7.5v-292.48c0-2.43 1.17-4.71 3.15-6.12a7.491 7.491 0 0 1 6.8-.97l39.32 13.65c3.91 1.35 5.99 5.63 4.63 9.53a7.505 7.505 0 0 1 -9.54 4.64z" fill="#767b80"/></g></svg>