<svg height="2590" viewBox="0 0 3380 2590" width="3380" xmlns="http://www.w3.org/2000/svg"><g fill="none" fill-rule="evenodd"><path d="m2060.502 253.163c-11.955-5.277-24.101-10.17-36.193-15.199-24.266-9.894-39.738-15.144-51.088-17.398-11.514-1.924-18.522-1.731-25.447-1.539-6.953.22-13.878.44-25.2-1.32-5.69-.851-12.45-2.226-20.914-4.287-8.437-2.309-18.577-4.81-31.026-7.42-99.51-21.302-203.196-29.437-305.838-21.906-102.643 7.476-203.883 30.206-298.749 66.623-190.17 72.835-353.215 197.59-476.441 350.599-123.308 153.2-208.912 336.47-242.742 532.74-16.9 97.985-20.528 199.02-9.398 298.9 10.965 99.853 36.852 198.332 76.095 290.269-34.077-94.191-49.74-181.099-57.655-267.32-7.503-86.357-7.31-172.715 1.84-270.286 6.102.77 18.111 2.198 25.476-45.296 14.318-70.718 33.72-143.196 60.76-211.909 27.125-68.575 59.553-134.126 95.965-192.065 72.908-115.931 159.858-200.53 221.114-237.937 9.893-6.652 19.924-13.028 31.85-19.405 12.01-6.184 25.366-13 40.783-21.658 15.115-9.042 33.72-18.195 55.127-30.673 21.023-13.028 47.24-26.028 77.277-43.839-20.061 11.874-40.425 23.308-60.046 35.73-19.1 13.139-38.639 25.782-57.271 39.607 3.683 4.92 10.965 14.76 10.965 14.76 74.557-52.222 166.756-99.909 265.001-129.95 97.998-30.7 201.135-43.261 291.548-39.908 0 0 .028 12.23.028 18.36l22.122-.247c7.365.247 14.703.852 22.095 1.291l44.107 2.941c20.804 13.276 6.019 18.443-29.927 21.988-8.958.797-19.291 1.402-30.751 1.787-11.46.577-24.101 2.254-37.622 3.188-27.151 1.264-57.875 5.91-90.798 10.17-65.625 10.691-138.945 29.958-205.45 57.47-16.405 7.34-33.142 13.44-48.531 21.521-15.362 7.971-30.422 15.722-44.932 23.225-27.866 17.013-54.193 31.993-74.996 48.099a6507.56 6507.56 0 0 1 13.713 20.311c22.068-16.078 46.251-28.804 69.583-42.876l.906 1.621c-384.132 210.398-608.076 711.23-428.679 1157.448 21.738 54.035 49.521 105.322 82.196 153.31-2.638-2.693-5.221-5.441-7.804-8.217-11.955-13.523-24.294-27.045-35.698-40.376-10.8-13.907-21.106-27.182-30.422-39.138-17.808-24.682-31.136-44.938-38.446-53.404-15.665-26.687-24.211-23.252-27.509-.66-2.034 10.94-1.044 28.255 1.044 49.364 1.677 21.41 6.816 45.955 13.686 73.11 3.105 13.797 7.53 27.677 12.531 41.914 5.03 14.183 9.866 29.272 16.022 43.867 12.614 29.051 26.327 59.367 43.008 87.292 15.417 28.969 34.489 54.612 51.72 79.541 18.824 23.17 36.165 45.543 53.478 62.364 33.307 35.263 29.02 41.475 14.208 40.32-14.73-1.1-39.93-9.894-45.921-2.968 40.37 30.37 69.362 54.393 98.795 78.717 15.197 11.434 30.531 22.84 47.707 34.383 17.23 11.434 37.237 21.494 60.266 32.323-.824 1.566 15.472 11.653 43.393 25.698 13.906 7.146 30.45 15.722 49.851 23.417 19.32 7.751 40.123 17.508 63.4 24.654 91.237 32.818 209.9 52.607 286.903 53.459 0 0 12.944-.742 45.124-2.556 32.07-2.117 83.378-4.838 158.896-16.326 50.319-8.438 48.807-15.447 47.653-21.164 1.21 5.992 1.21 5.992 2.446 12.011 23.798-10.774 60.486-19.899 97.118-29.959 36.633-9.922 72.798-22.07 95.278-34.163l4.562 11.378c89.423-50.435 185.937-91.305 262.637-159.22 3.765 4.81 3.765 4.81 7.558 9.647 19.841-16.326 39.49-32.762 54.687-44.58 14.923-12.094 24.76-20.202 26.987-17.866l8.382 8.933c43.667-30.316 102.037-116.811 110.941-109.225l-9.453-7.806c65.323-79.322 112.48-155.977 152.19-229.555 9.482-18.69 18.798-37.022 27.949-55.08 8.08-18.662 16.022-37.05 23.909-55.272 3.875-9.152 7.722-18.25 11.542-27.32 3.298-9.345 6.568-18.635 9.838-27.897 6.376-18.635 12.724-37.215 19.072-55.767 32.318-99.853 51.06-213.366 47.845-333.118-2.968-120-28.663-242.692-74.035-356.947-90.44-229.5-258.186-425.605-459.568-551.322-45.151-28.227-95.827-44.278-57.545-6.788-21.683-14.045-44.905-25.891-68.209-37.6l-34.873-17.618" fill="#eceef1" opacity=".482"/><path d="m2872 1996.29h-1595c-4.14 0-7.5 3.36-7.5 7.5s3.36 7.5 7.5 7.5h1595c4.14 0 7.5-3.36 7.5-7.5s-3.36-7.5-7.5-7.5m-1675 0h-650.235c-4.14 0-7.5 3.36-7.5 7.5s3.36 7.5 7.5 7.5h650.235c4.14 0 7.5-3.36 7.5-7.5s-3.36-7.5-7.5-7.5" fill="#2d2e85"/><path d="m2180.09 2003.98-57.77-457.17c-2.83-22.39 13.31-40.71 35.88-40.71h486.93z" fill="#f36763"/><path d="m2180.09 2003.98h730.41l93-527.97h-354.26c-22.57 0-52.11 14.76-65.66 32.83l-65.66 87.53h-203.79c-22.57 0-45.14 18.01-50.17 40.01z" fill="#fbedec"/><path d="m2994.56 1483.51h-345.32c-8.82 0-18.78 2.56-28.28 6.71a7.504 7.504 0 0 1 -9.87-3.88c-1.66-3.8.08-8.22 3.87-9.87 11.5-5.02 23.61-7.96 34.28-7.96h354.26c2.21 0 4.32.98 5.75 2.68a7.491 7.491 0 0 1 1.63 6.12l-55.22 313.51c-.71 4.08-4.61 6.8-8.69 6.09a7.505 7.505 0 0 1 -6.08-8.69zm-480.39 105.36 34.81-46.39c2.48-3.31 7.19-3.98 10.49-1.5 3.32 2.48 3.99 7.19 1.5 10.5l-37.05 49.39c-1.41 1.89-3.63 3-6 3h-203.79c-19.28 0-38.56 15.38-42.85 34.17l-81.78 358.44h714.71l18.54-105.27c.71-4.08 4.61-6.81 8.69-6.09 4.07.72 6.8 4.61 6.08 8.69l-19.64 111.47a7.489 7.489 0 0 1 -7.38 6.2h-730.41c-2.28 0-4.44-1.04-5.86-2.82a7.474 7.474 0 0 1 -1.45-6.35l83.88-367.6c5.75-25.21 31.61-45.84 57.47-45.84z" fill="#767b80"/><path d="m1413.21 1147.25-773.665-269.91-14.41 1126.64h761.555z" fill="#fbedec"/><path d="m646.91 887.85-1.375 107.78a7.515 7.515 0 0 1 -7.6 7.41c-4.135-.06-7.455-3.46-7.4-7.6l1.51-118.19a7.52 7.52 0 0 1 3.195-6.06 7.497 7.497 0 0 1 6.775-.93l476.695 166.3c3.91 1.36 5.98 5.65 4.61 9.55-1.36 3.91-5.64 5.97-9.55 4.61z" fill="#767b80"/><path d="m601.295 2010.02h308.905c4.14 0 7.5-3.36 7.5-7.5s-3.36-7.5-7.5-7.5h-308.905c-4.14 0-7.5 3.36-7.5 7.5s3.36 7.5 7.5 7.5" fill="#2d2e85"/><path d="m625.5 875.94h-223.74c-14.39 0-26.16 11.77-26.16 26.16v1075.72c0 14.39 11.77 26.16 26.16 26.16h223.74c14.39 0 26.165-11.77 26.165-26.16v-1075.72c0-14.39-11.775-26.16-26.165-26.16z" fill="#fbedec"/><path d="m659.165 1166.74v-264.64c0-18.51-15.15-33.66-33.665-33.66h-223.74c-18.515 0-33.66 15.15-33.66 33.66v748.9c0 4.14 3.36 7.5 7.5 7.5 4.135 0 7.5-3.36 7.5-7.5v-748.9c0-10.26 8.395-18.66 18.66-18.66h223.74c10.265 0 18.665 8.4 18.665 18.66v264.64c0 4.14 3.36 7.5 7.5 7.5 4.135 0 7.5-3.36 7.5-7.5m-291.065 602.95v208.13c0 18.51 15.145 33.66 33.66 33.66h223.74c18.515 0 33.665-15.15 33.665-33.66v-584.17c0-4.14-3.365-7.5-7.5-7.5-4.14 0-7.5 3.36-7.5 7.5v584.17c0 10.26-8.4 18.66-18.665 18.66h-223.74c-10.265 0-18.66-8.4-18.66-18.66v-208.13c0-4.13-3.365-7.5-7.5-7.5-4.14 0-7.5 3.37-7.5 7.5" fill="#767b80"/><path d="m607.18 1094.11c0 14.39-11.775 26.16-26.16 26.16h-134.77c-14.385 0-26.16-11.77-26.16-26.16v-70.54c0-14.39 11.775-26.16 26.16-26.16h134.77c14.385 0 26.16 11.77 26.16 26.16zm-149.395 471.2c0 8.64-6.285 15.7-13.96 15.7s-13.96-7.06-13.96-15.7v-259.01c0-8.63 6.285-15.7 13.96-15.7s13.96 7.07 13.96 15.7zm69.81 0c0 8.64-6.285 15.7-13.965 15.7s-13.965-7.06-13.965-15.7v-259.01c0-8.63 6.285-15.7 13.965-15.7s13.965 7.07 13.965 15.7zm69.805 0c0 8.64-6.285 15.7-13.96 15.7s-13.96-7.06-13.96-15.7v-259.01c0-8.63 6.285-15.7 13.96-15.7s13.96 7.07 13.96 15.7z" fill="#fff"/><path d="m513.635 1776.48c40.096 0 72.6 32.5 72.6 72.6s-32.504 72.6-72.6 72.6-72.6-32.5-72.6-72.6 32.504-72.6 72.6-72.6" fill="#f36763"/><path d="m513.635 1786.94c34.295 0 62.135 27.85 62.135 62.14 0 34.3-27.84 62.13-62.135 62.13s-62.135-27.83-62.135-62.13c0-34.29 27.84-62.14 62.135-62.14zm0-20.92c-45.845 0-83.065 37.21-83.065 83.06 0 45.84 37.22 83.07 83.065 83.07s83.065-37.23 83.065-83.07c0-45.85-37.22-83.06-83.065-83.06z" fill="#fff"/><path d="m2269.09 1210.62-712.13 247.05-712.13-247.05v-92.06c0-39.98 30.93-83.4 68.67-96.5l574.83-199.42c37.75-13.1 99.55-13.1 137.3 0l574.81 199.43c37.78 13.09 68.65 56.51 68.65 96.49z" fill="#f36763"/><path d="m2116.51 1505.11c0 33.8-27.66 61.46-61.46 61.46h-996.13c-33.82 0-61.49-27.66-61.49-61.46v-843.455c0-33.81 27.67-61.465 61.49-61.465h996.13c33.8 0 61.46 27.655 61.46 61.46z" fill="#fff"/><path d="m1202.29 607.69 852.76.005c29.67 0 53.96 24.275 53.96 53.955v230.06c0 4.14 3.36 7.5 7.5 7.5s7.5-3.36 7.5-7.5v-230.06c0-37.93-31.04-68.955-68.96-68.955l-852.76-.005c-4.14 0-7.5 3.36-7.5 7.5s3.36 7.5 7.5 7.5m906.72 503.55v393.87c0 29.68-24.29 53.96-53.96 53.96h-996.13c-29.69 0-53.99-24.28-53.99-53.96v-843.455c0-13.74 5.21-26.315 13.75-35.865 2.75-3.085 2.49-7.83-.6-10.59a7.503 7.503 0 0 0 -10.59.595c-10.91 12.21-17.56 28.295-17.56 45.86v843.455c0 37.93 31.05 68.96 68.99 68.96h996.13c37.93 0 68.96-31.03 68.96-68.96v-393.87c0-4.14-3.36-7.5-7.5-7.5s-7.5 3.36-7.5 7.5" fill="#767b80"/><path d="m1336.84 752.355h-236.17c-6.43 0-11.65-5.215-11.65-11.645 0-6.435 5.22-11.645 11.65-11.645h236.17c6.43 0 11.65 5.21 11.65 11.645 0 6.43-5.21 11.645-11.65 11.645m0 72.115h-236.17c-6.43 0-11.65-5.22-11.65-11.64 0-6.44 5.22-11.655 11.65-11.655h236.17c6.43 0 11.65 5.215 11.65 11.655 0 6.42-5.21 11.64-11.65 11.64m642.82 164.51h-857.45c-6.44 0-11.65-5.22-11.65-11.65s5.21-11.64 11.65-11.64h857.45c6.43 0 11.65 5.21 11.65 11.64-.01 6.43-5.23 11.65-11.65 11.65m0 101.61h-857.45c-6.44 0-11.65-5.21-11.65-11.65 0-6.42 5.21-11.65 11.65-11.65h857.45c6.43 0 11.65 5.23 11.65 11.65-.01 6.44-5.23 11.65-11.65 11.65m0 101.64h-857.45c-6.44 0-11.65-5.23-11.65-11.66s5.21-11.65 11.65-11.65h857.45c6.43 0 11.65 5.22 11.65 11.65-.01 6.43-5.23 11.66-11.65 11.66m0 101.62h-857.45c-6.44 0-11.65-5.21-11.65-11.64 0-6.44 5.21-11.65 11.65-11.65h857.45c6.43 0 11.65 5.22 11.65 11.65-.01 6.43-5.23 11.64-11.65 11.64m-21.53 101.63h-857.46c-6.43 0-11.65-5.23-11.65-11.65 0-6.44 5.22-11.64 11.65-11.64h857.46c6.44 0 11.65 5.2 11.65 11.64 0 6.42-5.21 11.65-11.65 11.65" fill="#767b80"/><path d="m2269.09 1210.62v716.93c0 39.95-32.69 72.66-72.66 72.66h-1278.91c-40 0-72.69-32.71-72.69-72.67v-716.92l712.11 247.05z" fill="#fbedec"/><path d="m2261.59 1221.15-229.19 79.52c-3.91 1.35-8.19-.72-9.54-4.63-1.36-3.91.72-8.19 4.63-9.54l239.14-82.97c2.29-.8 4.83-.43 6.81.97a7.508 7.508 0 0 1 3.15 6.12v492.12c0 4.14-3.36 7.5-7.5 7.5s-7.5-3.36-7.5-7.5zm-1409.26 0v706.39c0 35.83 29.32 65.17 65.19 65.17h1278.91c35.84 0 65.16-29.33 65.16-65.16v-72.07c0-4.13 3.36-7.5 7.5-7.5 4.13 0 7.5 3.37 7.5 7.5v72.07c0 44.08-36.07 80.16-80.16 80.16h-1278.92c-44.11 0-80.19-36.09-80.19-80.17v-716.92c0-2.43 1.18-4.71 3.15-6.12a7.516 7.516 0 0 1 6.81-.97l96.02 33.31c3.91 1.35 5.98 5.64 4.63 9.54-1.36 3.91-5.64 5.99-9.55 4.63l-86.06-29.86z" fill="#767b80"/><path d="m2333.63 1357.06h570.79v-770.755h-570.79z" fill="#fff"/><path d="m2896.92 593.805h-421.46c-4.15 0-7.5-3.36-7.5-7.5s3.35-7.5 7.5-7.5h428.96c4.13 0 7.5 3.36 7.5 7.5v148.61c0 4.14-3.37 7.5-7.5 7.5-4.15 0-7.5-3.36-7.5-7.5zm-555.79 0v659.055c0 4.14-3.36 7.5-7.5 7.5s-7.5-3.36-7.5-7.5v-666.555c0-4.14 3.36-7.5 7.5-7.5h86.69c4.14 0 7.5 3.36 7.5 7.5s-3.36 7.5-7.5 7.5zm555.79 755.755v-127.31c0-4.15 3.35-7.5 7.5-7.5 4.13 0 7.5 3.35 7.5 7.5v134.81c0 4.15-3.37 7.5-7.5 7.5h-503.66c-4.14 0-7.5-3.35-7.5-7.5 0-4.13 3.36-7.5 7.5-7.5z" fill="#767b80"/><path d="m2748 688.335c0 4.785-3.92 8.69-8.7 8.69h-258.96c-4.78 0-8.69-3.905-8.69-8.69v-2.675c0-4.78 3.91-8.69 8.69-8.69h258.96c4.78 0 8.7 3.91 8.7 8.69z" fill="#767b80"/><path d="m2395.74 660.35c14.71 0 26.64 11.932 26.64 26.65s-11.93 26.65-26.64 26.65c-14.72 0-26.66-11.932-26.66-26.65s11.94-26.65 26.66-26.65" fill="#f36763"/><path d="m2515.67 774.72h302.37c2.82 0 5.12-2.295 5.12-5.12 0-2.83-2.3-5.125-5.12-5.125h-302.37a5.13 5.13 0 0 0 -5.13 5.125c0 2.825 2.3 5.12 5.13 5.12m-95.67 38.24h398.04c2.82 0 5.12-2.3 5.12-5.13 0-2.825-2.3-5.12-5.12-5.12h-398.04a5.127 5.127 0 0 0 -5.12 5.12c0 2.83 2.3 5.13 5.12 5.13m0 38.23h398.04c2.82 0 5.12-2.29 5.12-5.12 0-2.82-2.3-5.12-5.12-5.12h-398.04a5.13 5.13 0 0 0 -5.12 5.12c0 2.83 2.3 5.12 5.12 5.12m52.21 71.27h345.83c2.82 0 5.12-2.3 5.12-5.13s-2.3-5.12-5.12-5.12h-345.83c-2.83 0-5.12 2.29-5.12 5.12s2.29 5.13 5.12 5.13m0 41.71h345.83c2.82 0 5.12-2.29 5.12-5.13 0-2.82-2.3-5.12-5.12-5.12h-345.83c-2.83 0-5.12 2.3-5.12 5.12a5.12 5.12 0 0 0 5.12 5.13m0 41.72h345.83c2.82 0 5.12-2.3 5.12-5.12 0-2.83-2.3-5.13-5.12-5.13h-345.83a5.126 5.126 0 0 0 0 10.25m0 41.71h345.83c2.82 0 5.12-2.29 5.12-5.12s-2.3-5.13-5.12-5.13h-345.83c-2.83 0-5.12 2.3-5.12 5.13s2.29 5.12 5.12 5.12m0 41.71h345.83c2.82 0 5.12-2.29 5.12-5.12s-2.3-5.12-5.12-5.12h-345.83c-2.83 0-5.12 2.29-5.12 5.12s2.29 5.12 5.12 5.12m0 41.71h345.83c2.82 0 5.12-2.29 5.12-5.11 0-2.83-2.3-5.13-5.12-5.13h-345.83c-2.83 0-5.12 2.3-5.12 5.13 0 2.82 2.29 5.11 5.12 5.11m0 41.71h345.83c2.82 0 5.12-2.29 5.12-5.12 0-2.82-2.3-5.12-5.12-5.12h-345.83c-2.83 0-5.12 2.3-5.12 5.12 0 2.83 2.29 5.12 5.12 5.12m-46.34-263.52c4.48 0 8.11 3.64 8.11 8.12s-3.63 8.11-8.11 8.11c-4.49 0-8.12-3.63-8.12-8.11a8.12 8.12 0 0 1 8.12-8.12m0 41.72c4.48 0 8.11 3.63 8.11 8.11 0 4.49-3.63 8.12-8.11 8.12-4.49 0-8.12-3.63-8.12-8.12 0-4.48 3.63-8.11 8.12-8.11m0 41.72c4.48 0 8.11 3.63 8.11 8.12 0 4.48-3.63 8.11-8.11 8.11-4.49 0-8.12-3.63-8.12-8.11 0-4.49 3.63-8.12 8.12-8.12m0 41.71c4.48 0 8.11 3.63 8.11 8.12 0 4.48-3.63 8.11-8.11 8.11-4.49 0-8.12-3.63-8.12-8.11 0-4.49 3.63-8.12 8.12-8.12m0 41.72c4.48 0 8.11 3.63 8.11 8.11s-3.63 8.12-8.11 8.12a8.12 8.12 0 0 1 -8.12-8.12c0-4.48 3.63-8.11 8.12-8.11m0 41.71c4.48 0 8.11 3.63 8.11 8.11 0 4.49-3.63 8.12-8.11 8.12-4.49 0-8.12-3.63-8.12-8.12 0-4.48 3.63-8.11 8.12-8.11m0 41.71c4.48 0 8.11 3.63 8.11 8.11 0 4.49-3.63 8.12-8.11 8.12-4.49 0-8.12-3.63-8.12-8.12 0-4.48 3.63-8.11 8.12-8.11" fill="#767b80"/></g></svg>