<svg height="2590" viewBox="0 0 3380 2590" width="3380" xmlns="http://www.w3.org/2000/svg"><g fill="none" fill-rule="evenodd"><path d="m2684.052 1712.286c5.277-11.954 10.17-24.1 15.2-36.193 9.894-24.266 15.144-39.737 17.397-51.087 1.924-11.515 1.732-18.523 1.54-25.448-.22-6.953-.44-13.878 1.319-25.2.852-5.689 2.226-12.45 4.287-20.913 2.31-8.437 4.81-18.578 7.421-31.027 21.301-99.509 29.437-203.196 21.906-305.838-7.476-102.642-30.206-203.883-66.624-298.748-72.835-190.17-197.59-353.216-350.598-476.442-153.201-123.308-336.471-208.912-532.741-242.741-97.984-16.901-199.019-20.529-298.9-9.399-99.852 10.965-198.331 36.853-290.268 76.096 94.19-34.077 181.098-49.741 267.319-57.656 86.357-7.502 172.715-7.31 270.287 1.841-.77 6.101-2.199 18.11 45.295 25.475 70.719 14.318 143.197 33.72 211.91 60.761 68.574 27.124 134.126 59.552 192.064 95.965 115.932 72.907 200.53 159.858 237.938 221.114 6.651 9.893 13.028 19.923 19.404 31.85 6.184 12.01 13 25.365 21.658 40.782 9.043 15.115 18.195 33.72 30.674 55.128 13.027 21.023 26.028 47.24 43.838 77.277-11.873-20.061-23.307-40.425-35.73-60.047-13.138-19.1-25.781-38.638-39.606-57.27-4.92 3.682-14.76 10.965-14.76 10.965 52.222 74.556 99.908 166.755 129.95 265 30.7 97.999 43.26 201.136 39.907 291.549 0 0-12.23.027-18.36.027l.248 22.123c-.248 7.365-.852 14.702-1.292 22.095l-2.94 44.107c-13.276 20.803-18.443 6.018-21.989-29.927-.797-8.959-1.402-19.292-1.786-30.752-.578-11.46-2.254-24.1-3.189-37.621-1.264-27.152-5.909-57.876-10.169-90.798-10.692-65.625-29.959-138.945-57.471-205.45-7.339-16.406-13.44-33.142-21.52-48.532-7.972-15.362-15.722-30.421-23.226-44.931-17.013-27.866-31.992-54.193-48.098-74.996a6507.56 6507.56 0 0 1 -20.312 13.713c16.079 22.067 28.804 46.25 42.877 69.582l-1.622.907c-210.397-384.132-711.229-608.077-1157.447-428.68-54.036 21.738-105.323 49.522-153.311 82.197 2.693-2.638 5.442-5.222 8.218-7.805 13.522-11.954 27.045-24.293 40.375-35.698 13.908-10.8 27.183-21.105 39.139-30.422 24.681-17.807 44.938-31.136 53.403-38.446 26.688-15.664 23.252-24.21.66-27.508-10.94-2.034-28.255-1.045-49.363 1.044-21.411 1.676-45.955 6.815-73.11 13.685-13.798 3.106-27.678 7.53-41.915 12.532-14.182 5.029-29.271 9.866-43.866 16.021-29.052 12.614-59.368 26.327-87.292 43.009-28.97 15.417-54.613 34.488-79.542 51.72-23.17 18.824-45.542 36.164-62.363 53.478-35.263 33.307-41.475 29.02-40.32 14.207 1.099-14.73 9.894-39.93 2.968-45.92-30.371 40.37-54.393 69.362-78.717 98.794-11.434 15.197-22.84 30.532-34.384 47.708-11.434 17.23-21.493 37.237-32.322 60.266-1.567-.825-11.654 15.472-25.699 43.393-7.146 13.905-15.721 30.449-23.417 49.85-7.75 19.32-17.508 40.123-24.654 63.4-32.817 91.237-52.606 209.901-53.458 286.904 0 0 .742 12.943 2.556 45.124 2.116 32.07 4.837 83.378 16.326 158.896 8.438 50.318 15.446 48.807 21.163 47.652-5.991 1.21-5.991 1.21-12.01 2.446 10.774 23.799 19.899 60.486 29.958 97.119 9.922 36.632 22.07 72.798 34.164 95.277l-11.379 4.562c50.435 89.424 91.305 185.938 159.22 262.638-4.81 3.765-4.81 3.765-9.647 7.557 16.326 19.842 32.762 39.49 44.581 54.688 12.093 14.922 20.201 24.76 17.865 26.986l-8.932 8.382c30.316 43.668 116.81 102.038 109.225 110.942l7.806-9.454c79.321 65.323 155.977 112.48 229.554 152.191 18.69 9.481 37.022 18.797 55.08 27.949 18.662 8.079 37.05 16.021 55.272 23.908 9.153 3.875 18.25 7.722 27.32 11.542 9.345 3.298 18.635 6.568 27.898 9.839 18.634 6.375 37.214 12.723 55.767 19.071 99.853 32.318 213.366 51.06 333.118 47.845 119.999-2.968 242.692-28.663 356.947-74.034 229.5-90.44 425.605-258.186 551.321-459.568 28.227-45.152 44.278-95.827 6.789-57.546 14.045-21.683 25.89-44.904 37.6-68.208l17.617-34.874" fill="#eceef1" opacity=".482"/><path d="m754.37 1392.88c-4.565 0-8.68-3.16-9.695-7.8l-29.465-134.08c-9.19-41.8-53.105-77.11-95.9-77.11h-30.105c-20.05 0-37.155 7.54-48.175 21.23-11.005 13.69-14.7 32.02-10.39 51.62l29.47 134.07c1.17 5.36-2.22 10.67-7.58 11.84-5.355 1.18-10.665-2.21-11.835-7.57l-29.465-134.08c-5.625-25.59-.54-49.86 14.32-68.33 14.86-18.48 37.475-28.65 63.66-28.65h30.105c52.35 0 104.075 41.58 115.305 92.71l29.46 134.08c1.185 5.36-2.21 10.67-7.575 11.84-.715.16-1.425.23-2.135.23" fill="#767b80"/><path d="m249.19 1933.03c-21-3.22-32.22-21.88-26.26-49.05l128.59-585.12c3.985-18.11 9.225-27.17 14.475-27.17h458.165c5.24 0 10.49 9.06 14.48 27.17l128.58 585.12c7.97 36.23-14.65 57.33-50.24 46.87l-28.1-8.25c-35.59-10.44-93.84-10.44-129.445 0l-28.095 8.25c-8.9 2.61-16.985 3.25-23.985 2.18z" fill="#f6f7f8"/><path d="m838.63 1298.86c-3.98-18.11-9.23-27.17-14.47-27.17-5.26 0-10.51 9.06-14.49 27.17l-128.58 585.12c-5.975 27.17 5.25 45.83 26.255 49.05 7.005 1.07 15.085.43 23.99-2.18l28.09-8.25c35.605-10.44 93.845-10.44 129.445 0l28.1 8.25c35.59 10.46 58.2-10.64 50.24-46.87z" fill="#f36763"/><path d="m642.735 1392.88c-.7 0-1.415-.07-2.13-.23-5.36-1.17-8.755-6.48-7.58-11.84l29.475-134.08c4.305-19.58.615-37.92-10.395-51.62-11.015-13.69-28.125-21.22-48.18-21.22h-30.1c-42.795 0-86.715 35.3-95.895 77.11l-29.46 134.08c-1.185 5.36-6.49 8.75-11.84 7.57-5.36-1.17-8.75-6.48-7.57-11.84l29.46-134.08c11.24-51.13 62.96-92.71 115.305-92.71h30.1c26.19 0 48.805 10.17 63.66 28.65 14.855 18.47 19.95 42.74 14.32 68.33l-29.46 134.08c-1.02 4.64-5.135 7.8-9.71 7.8m64.14 546.78h-457.685c-.34 0-.675-.03-1.01-.08-12.69-1.95-22.365-8.66-28.03-18.89-5.335-9.64-7.09-22.67-3.695-38.14l39.53-179.88c.785-3.57 4.325-5.84 7.9-5.05 3.575.78 5.84 4.32 5.055 7.9l-39.53 179.88c-4.895 22.28 3.265 38.12 20.325 41h457.62c.335 0 .67.02 1 .08 6.17.94 13.28.3 21.12-1.99 0 0 28.09-8.25 28.095-8.25 36.63-10.75 96.56-10.75 133.18 0l28.1 8.25c15.02 4.41 27.38 2.75 35.06-4.42 7.69-7.17 10.19-19.39 6.84-34.68-.79-3.57 1.47-7.11 5.04-7.89a6.62 6.62 0 0 1 7.9 5.05c4.61 20.94-.21 37.39-10.73 47.21-10.54 9.83-27.27 13.5-47.85 7.45l-28.1-8.25c-34.57-10.14-91.13-10.14-125.705 0 0 0-28.095 8.25-28.1 8.25-9.74 2.86-18.61 3.54-26.33 2.45" fill="#767b80"/><path d="m366.575 1278.32c-.405.45-1.705 1.93-2.47 3.33-2.25 4.14-4.29 10.36-6.11 18.64l-64.585 293.86c-.785 3.58-4.325 5.85-7.895 5.06-3.575-.79-5.84-4.33-5.055-7.9l64.585-293.87c3.155-14.36 7.375-23.55 11.445-27.86 3.065-3.25 6.37-4.52 9.505-4.52h458.165c3.13 0 6.44 1.27 9.51 4.52 4.06 4.31 8.29 13.5 11.44 27.86l31.78 144.6a6.638 6.638 0 0 1 -5.06 7.9c-3.57.79-7.11-1.48-7.89-5.05l-31.79-144.6c-1.81-8.27-3.86-14.5-6.11-18.64-.76-1.4-2.06-2.88-2.46-3.34z" fill="#767b80"/><path d="m2620.52 776.81v1004.52l-616.4 91.32h-464.2l-624-91.32v-1004.52c0-66.955 54.78-121.76 121.73-121.76h1461.1c66.99 0 121.77 54.8 121.77 121.76" fill="#fbedec"/><path d="m922.54 1781.33v-547.92c0-3.66-2.97-6.63-6.62-6.63-3.67 0-6.63 2.97-6.63 6.63v547.92c0 3.66 2.96 6.63 6.63 6.63 3.65 0 6.62-2.97 6.62-6.63" fill="#767b80"/><path d="m922.54 1013.75v-236.94c0-63.31 51.81-115.125 115.11-115.125h953.14c3.66 0 6.63-2.97 6.63-6.63s-2.97-6.63-6.63-6.63h-953.14c-70.59 0-128.36 57.785-128.36 128.385v236.94c0 3.66 2.96 6.63 6.63 6.63 3.65 0 6.62-2.97 6.62-6.63m1350.87-352.065 225.34-.005c63.34 0 115.13 51.815 115.13 115.13 0 3.65 2.98 6.63 6.63 6.63 3.66 0 6.64-2.98 6.64-6.63 0-70.605-57.76-128.39-128.4-128.39h-225.34a6.636 6.636 0 0 0 -6.63 6.635c0 3.655 2.97 6.63 6.63 6.63" fill="#80797d"/><path d="m2613.88 1087.37v230.29c0 3.66 2.98 6.63 6.63 6.63 3.66 0 6.64-2.97 6.64-6.63v-230.29c0-3.66-2.97-6.64-6.64-6.64-3.65 0-6.63 2.98-6.63 6.64m0 650.58v43.38c0 3.66 2.98 6.63 6.63 6.63 3.66 0 6.64-2.97 6.64-6.63v-43.38c0-3.66-2.97-6.63-6.64-6.63-3.65 0-6.63 2.97-6.63 6.63" fill="#767b80"/><path d="m1037.65 1690.01h1461.1v-913.2h-1461.1z" fill="#fff"/><path d="m2492.12 783.44h-1370.95a6.62 6.62 0 0 1 -6.63-6.63c0-3.66 2.96-6.62 6.63-6.62h1377.58c3.66 0 6.63 2.96 6.63 6.62v314.92c0 3.65-2.97 6.62-6.63 6.62s-6.63-2.97-6.63-6.62zm-1447.85 899.94h1454.48c3.66 0 6.63 2.97 6.63 6.63s-2.97 6.63-6.63 6.63h-1461.1c-3.67 0-6.63-2.97-6.63-6.63v-301.86a6.62 6.62 0 0 1 6.63-6.63c3.66 0 6.62 2.96 6.62 6.63z" fill="#767b80"/><path d="m2681.4 1781.33v30.42c0 66.98-54.77 121.77-121.75 121.77l-1582.86.01c-66.98 0-121.77-54.8-121.77-121.78v-30.42h761.01l16.89 33.61c7.43 15.1 27.24 27.25 43.98 27.25h182.63c16.74 0 36.54-12.15 43.99-27.25l16.9-33.61z" fill="#fbedec"/><path d="m1884.03 1834.82c8.39-4.97 15.61-12.03 19.48-19.88l16.91-33.61h760.98v30.42c0 7.88-.76 15.59-2.21 23.07zm-1026.8 0c-1.45-7.48-2.21-15.19-2.21-23.07v-30.42h761.01l16.89 33.61c3.87 7.85 11.08 14.91 19.48 19.88z" fill="#f36763"/><path d="m1611.94 1787.96h-184.09c-3.65 0-6.62-2.97-6.62-6.63s2.97-6.63 6.62-6.63h188.18c2.51 0 4.8 1.42 5.93 3.65 0 0 16.89 33.62 16.91 33.67 6.42 13.04 23.56 23.54 38.03 23.54h182.63c14.47 0 31.6-10.5 38.04-23.55l16.93-33.66a6.651 6.651 0 0 1 5.92-3.65h760.98c3.65 0 6.63 2.97 6.63 6.63v30.42c0 70.63-57.75 128.4-128.38 128.4l-1147.87.01c-3.66 0-6.63-2.97-6.63-6.63s2.97-6.63 6.63-6.63h1147.87c63.33 0 115.12-51.82 115.12-115.15v-23.79h-750.26l-15.05 29.92c-8.46 17.14-30.92 30.95-49.93 30.95h-182.63c-19 0-41.49-13.82-49.9-30.91zm-750.29 0v23.79c0 63.33 51.81 115.15 115.14 115.15h359.73c3.66 0 6.63 2.97 6.63 6.63s-2.97 6.63-6.63 6.63h-359.73c-70.63 0-128.4-57.78-128.4-128.41v-30.42c0-3.66 2.97-6.63 6.63-6.63h378.45c3.66 0 6.63 2.97 6.63 6.63s-2.97 6.63-6.63 6.63z" fill="#767b80"/><path d="m2126.96 1562.35c0 25.62-20.96 46.58-46.58 46.58h-567.55c-25.63 0-46.58-20.96-46.58-46.58v-471.29c0-25.62 20.95-46.58 46.58-46.58h567.55c25.62 0 46.58 20.96 46.58 46.58z" fill="#f36763"/><path d="m1866.89 1608.93h163.03v-326.06h-163.03z" fill="#fbedec"/><path d="m1472.88 1240.67v-149.61c0-21.97 17.97-39.94 39.94-39.94h567.56c21.98 0 39.95 17.98 39.95 39.94v471.29c0 10.98-4.5 20.97-11.74 28.21a6.633 6.633 0 0 0 0 9.38 6.651 6.651 0 0 0 9.38 0c9.65-9.65 15.62-22.96 15.62-37.59v-471.29c0-29.26-23.94-53.21-53.21-53.21h-567.56c-29.27 0-53.21 23.95-53.21 53.21v149.61c0 3.66 2.97 6.63 6.63 6.63s6.64-2.97 6.64-6.63m520.08 361.63h-480.14c-21.97 0-39.94-17.97-39.94-39.95v-215.54c0-3.66-2.98-6.63-6.63-6.63-3.67 0-6.63 2.97-6.63 6.63v215.54c0 29.27 23.94 53.21 53.21 53.21h480.13c3.67 0 6.63-2.97 6.63-6.63s-2.96-6.63-6.63-6.63" fill="#767b80"/><path d="m1577.5 894.16c-19.43 89.29-38.19 154.46-49.62 245.18-3.57 37.46-38.08 67.76-80.32 67.76h-26.46c-42.23 0-76.87-30.29-70.9-67.66 19.59-92.65 50.82-156.27 82.73-245.26 57.82-.01 86.72-.01 144.57-.02" fill="#f36763"/><path d="m1722.09 894.13c-6.69 89.44-12.84 155.48-16.56 245.1-1.17 37.56-35.7 67.87-77.93 67.87h-26.46c-42.23 0-76.83-30.3-73.26-67.76 11.43-90.72 30.19-155.89 49.62-245.18 57.83-.01 86.75-.01 144.59-.03" fill="#fbedec"/><path d="m1866.69 894.11c6.35 89.43 12.7 155.45 16.5 245.03 1.22 37.65-33.34 67.95-75.57 67.95h-26.45c-42.23 0-76.81-30.3-75.64-67.86 3.72-89.62 9.88-155.66 16.56-245.1 57.85 0 86.74-.02 144.6-.02" fill="#f36763"/><path d="m2011.27 894.09c19.55 89.18 38.14 154.29 49.57 244.94 3.62 37.74-30.97 68.06-73.21 68.06-10.58 0-15.87.01-26.45.01-42.22 0-76.77-30.31-77.99-67.96-3.8-89.58-10.15-155.6-16.5-245.03 57.83-.01 86.74-.01 144.58-.02" fill="#fbedec"/><path d="m2155.86 894.06c32.52 88.75 63.26 152.2 82.66 244.86 6.02 37.85-28.6 68.17-70.85 68.17h-26.45c-42.25 0-76.76-30.32-80.38-68.06-11.43-90.65-30.03-155.76-49.57-244.94 57.83-.01 86.77-.02 144.58-.03z" fill="#f36763"/><path d="m2019.52 900.72c2.64 11.87 5.25 23.33 7.83 34.5.82 3.57-1.4 7.13-4.97 7.95-3.56.82-7.13-1.4-7.95-4.97-3.17-13.72-6.39-27.88-9.64-42.69-.42-1.96.05-4.01 1.32-5.57a6.59 6.59 0 0 1 5.16-2.48c57.83-.01 86.77-.02 144.59-.03 2.77 0 5.27 1.74 6.22 4.35 26.02 71 50.89 125.86 69.76 192.34 1 3.52-1.05 7.19-4.56 8.19-3.53 1-7.2-1.05-8.2-4.57-18.39-64.8-42.54-118.49-67.84-187.05zm34.73 239.07c-3.99-31.66-8.87-60.2-14.36-87.74a6.642 6.642 0 0 1 5.21-7.8c3.59-.71 7.08 1.63 7.8 5.21 5.55 27.85 10.48 56.71 14.52 88.74l.02.2c3.31 34.55 35.11 62.06 73.78 62.06h26.45c29.08 0 54.42-15.48 62.38-38.15a6.631 6.631 0 0 1 8.45-4.06c3.45 1.21 5.27 5 4.06 8.45-9.62 27.43-39.72 47.02-74.89 47.02h-26.45c-45.76 0-82.97-33.05-86.97-73.93" fill="#767b80"/><path d="m1532.1 1428.43h270.74v-145.56h-270.74z" fill="#fbedec"/><g fill="#767b80"><path d="m2054.25 1139.66c3.25 34.06-28.51 60.8-66.62 60.8h-26.45c-38.47 0-70.25-27.23-71.36-61.54-.37-8.69-.77-17.11-1.17-25.35-.19-3.65-3.3-6.47-6.95-6.29-3.66.18-6.48 3.3-6.3 6.95.41 8.21.8 16.59 1.17 25.19 1.32 40.93 38.62 74.3 84.61 74.3h26.45c46.37 0 83.79-33.88 79.82-75.33a6.638 6.638 0 0 0 -7.24-5.96c-3.64.34-6.31 3.58-5.96 7.23m-180.45-238.92c2.12 29.24 4.21 56.06 6.21 82.14.28 3.66-2.46 6.85-6.1 7.12-3.66.28-6.85-2.46-7.12-6.1-2.16-28.21-4.44-57.26-6.72-89.32-.13-1.83.51-3.64 1.76-4.99a6.643 6.643 0 0 1 4.85-2.11c57.84-.01 86.75-.01 144.59-.02 3.66 0 6.63 2.97 6.63 6.63.01 3.66-2.97 6.63-6.63 6.63z"/><path d="m1876.56 1139.35c1.11 34.13-30.65 61.11-68.94 61.11h-26.45c-38.29 0-70.08-26.97-69.01-61.02 1.03-24.98 2.26-48.19 3.65-70.57.22-3.65-2.56-6.8-6.22-7.03-3.65-.22-6.8 2.56-7.02 6.21-1.38 22.47-2.62 45.76-3.67 70.91-1.27 41.14 36.08 74.76 82.27 74.76h26.45c46.18 0 83.53-33.63 82.2-74.8a6.636 6.636 0 0 0 -6.85-6.41c-3.66.12-6.52 3.18-6.41 6.84m-148.32-238.59c-.54 7.22-1.08 14.3-1.61 21.24a6.646 6.646 0 0 1 -7.13 6.1 6.63 6.63 0 0 1 -6.1-7.12c.68-8.89 1.38-17.99 2.08-27.34a6.633 6.633 0 0 1 6.61-6.14c57.84 0 13.07-.02 70.92-.02 3.66 0 6.63 2.97 6.63 6.63s-2.97 6.63-6.63 6.63c-55.65.01-16.32.01-64.77.02"/><path d="m1534.48 1140.06c-3.17 33.75 28.59 60.4 66.66 60.4h26.46c38.46 0 70.24-27.22 71.3-61.44a6.649 6.649 0 0 1 6.84-6.42c3.66.12 6.53 3.18 6.42 6.84-1.28 40.91-38.57 74.29-84.56 74.29h-26.46c-46.37 0-83.78-33.88-79.86-75.02l.03-.19c1.5-11.96 3.13-23.47 4.88-34.66.56-3.61 3.95-6.09 7.57-5.53 3.62.57 6.09 3.96 5.53 7.58-1.72 11.02-3.33 22.36-4.81 34.15m48.35-239.27c-5.84 26.61-11.61 51.13-17.12 74.91-.83 3.57-4.4 5.78-7.96 4.96a6.643 6.643 0 0 1 -4.97-7.96c5.87-25.26 12.02-51.37 18.24-79.95a6.622 6.622 0 0 1 6.47-5.22c57.83-.01 86.76-.01 144.6-.03 3.66 0 6.63 2.98 6.63 6.63 0 3.66-2.97 6.63-6.63 6.63z"/><path d="m1521.28 1138.71c-3.27 34.29-35.06 61.75-73.72 61.75h-26.46c-12.45 0-24.18-2.83-34.2-7.86-3.27-1.64-7.26-.31-8.9 2.96s-.31 7.26 2.96 8.9c11.75 5.89 25.52 9.27 40.14 9.27h26.46c45.82 0 83.04-33.12 86.92-73.76.35-3.64-2.33-6.88-5.97-7.23-3.64-.34-6.88 2.33-7.23 5.97m-83.7-237.9c-28.57 79.03-56.48 138.34-75.74 217.34-.86 3.56-4.46 5.73-8.01 4.87-3.56-.87-5.74-4.46-4.87-8.01 19.73-80.94 48.42-141.34 77.73-223.07a6.624 6.624 0 0 1 6.23-4.39c57.83-.01 86.73-.01 144.58-.02 3.65-.01 6.63 2.97 6.63 6.62 0 3.66-2.98 6.64-6.63 6.64z"/></g><path d="m623.935 686.68c92.982 0 168.355 75.38 168.355 168.36s-75.373 168.36-168.355 168.36c-92.983 0-168.36-75.38-168.36-168.36s75.377-168.36 168.36-168.36" fill="#f36763"/><path d="m780.35 896.29c-18.26 69.31-81.41 120.48-156.415 120.48-28.945 0-56.12-7.62-79.635-20.96-3.18-1.81-7.23-.68-9.04 2.49-1.805 3.19-.685 7.24 2.495 9.04 25.445 14.44 54.855 22.69 86.18 22.69 81.155 0 149.485-55.37 169.235-130.36a6.636 6.636 0 0 0 -4.73-8.1c-3.54-.93-7.17 1.18-8.1 4.72zm-300.815 31.63c-11.085-21.91-17.33-46.67-17.33-72.88 0-89.26 72.47-161.73 161.73-161.73 61.05 0 114.245 33.91 141.775 83.9a6.616 6.616 0 0 0 9 2.6 6.616 6.616 0 0 0 2.61-9c-29.775-54.085-87.335-90.76-153.385-90.76-96.58 0-174.99 78.41-174.99 174.99 0 28.36 6.765 55.16 18.76 78.86a6.635 6.635 0 0 0 8.91 2.93c3.265-1.66 4.575-5.65 2.92-8.91" fill="#767b80"/><path d="m529.115 927.31a10.527 10.527 0 0 1 -4.905-11.83c1.505-5.62 7.28-8.96 12.89-7.45l94.87 25.42c16.815 4.51 34.155-5.51 38.665-22.31 4.49-16.81-5.47-34.16-22.315-38.67l-54.2-14.52c-28.015-7.53-44.71-36.42-37.21-64.44 3.635-13.54 12.33-24.86 24.535-31.9 12.205-7.05 26.37-8.92 39.9-5.3l94.865 25.41c5.625 1.57 8.95 7.27 7.45 12.89-1.515 5.61-7.275 8.95-12.89 7.45l-94.865-25.41c-16.815-4.52-34.155 5.51-38.655 22.31-4.51 16.8 5.46 34.15 22.315 38.67l54.195 14.5c28.005 7.53 44.715 36.43 37.215 64.45-3.625 13.54-12.345 24.87-24.535 31.91-12.21 7.03-26.365 8.93-39.9 5.3l-94.875-25.42c-.925-.25-1.77-.61-2.55-1.07z" fill="#fff"/><path d="m585.98 986.13a10.53 10.53 0 0 1 -4.895-11.84l65.355-243.945c1.505-5.615 7.275-8.945 12.89-7.45 5.615 1.53 8.95 7.275 7.445 12.895l-65.355 243.94c-1.51 5.62-7.275 8.95-12.89 7.44a10.92 10.92 0 0 1 -2.55-1.04m1984.13 180.23c0 12.24 10.02 22.27 22.27 22.27h474.94c12.24 0 22.26-10.03 22.26-22.27v-302.78c0-12.24-10.02-22.26-22.26-22.26h-474.94c-12.25 0-22.27 10.02-22.27 22.26z" fill="#fff"/><path d="m2570.12 1008.36h519.47v-78.28h-519.47zm432.92 92.7c-7.65 0-14.51 3.22-19.39 8.37-4.87-5.15-11.75-8.37-19.39-8.37-14.75 0-26.72 11.96-26.72 26.71s11.97 26.71 26.72 26.71c7.64 0 14.52-3.22 19.39-8.37 4.87 5.15 11.74 8.37 19.39 8.37 14.75 0 26.71-11.96 26.71-26.71s-11.96-26.71-26.71-26.71" fill="#f36763"/><path d="m2563.48 954.69v211.67c0 15.89 13.01 28.89 28.9 28.89h474.94c15.89 0 28.89-13 28.89-28.89v-86.86a6.62 6.62 0 0 0 -6.63-6.63c-3.66 0-6.62 2.96-6.62 6.63v86.86c0 8.6-7.04 15.64-15.64 15.64h-474.94c-8.6 0-15.64-7.04-15.64-15.64v-211.67c0-3.65-2.97-6.63-6.63-6.63s-6.63 2.98-6.63 6.63m532.73 29.88v-120.99c0-15.89-13-28.89-28.89-28.89h-349.48c-3.65 0-6.63 2.98-6.63 6.64 0 3.65 2.98 6.63 6.63 6.63h349.48c8.6 0 15.64 7.03 15.64 15.62v120.99c0 3.66 2.96 6.63 6.62 6.63 3.67 0 6.63-2.97 6.63-6.63" fill="#767b80"/><path d="m3086.08 1357.25 68.46 150.12c11.28 24.74.27 54.22-24.49 65.49l-338.61 154.41c-24.75 11.27-54.22.25-65.5-24.49l-68.44-150.13c-11.29-24.75-.27-54.22 24.47-65.5l338.62-154.39c24.74-11.28 54.22-.28 65.49 24.48z" fill="#fbedec"/><path d="m2906.01 1471.9c32.09 0 58.11 26.01 58.11 58.1s-26.02 58.1-58.11 58.1c-32.08 0-58.09-26.01-58.09-58.1s26.01-58.1 58.09-58.1m180.07-114.65 7.34 16.09a58.646 58.646 0 0 1 -8.64 4.87c-29.2 13.31-63.65.44-76.96-28.75-1.4-3.07-2.49-6.21-3.34-9.36l16.11-7.34c24.74-11.28 54.22-.28 65.49 24.48zm61.13 134.06 7.33 16.06c11.28 24.75.27 54.23-24.49 65.5l-16.1 7.34a58.197 58.197 0 0 1 -4.86-8.65c-13.32-29.2-.44-63.64 28.75-76.96 3.08-1.39 6.2-2.5 9.37-3.29m-444.27-2.86c13.31 29.2.44 63.65-28.75 76.97-3.07 1.39-6.2 2.51-9.36 3.35l-7.33-16.12c-11.29-24.74-.28-54.21 24.47-65.5l16.07-7.33a55.16 55.16 0 0 1 4.9 8.63m101.27 222.13c1.4 3.05 2.49 6.19 3.29 9.37l-16.06 7.32c-24.75 11.28-54.22.26-65.5-24.48l-7.32-16.06c2.67-1.88 5.57-3.52 8.63-4.91 29.2-13.32 63.65-.45 76.96 28.76" fill="#f36763"/><path d="m3032.07 1610.26-243.38 110.97c-21.43 9.77-46.95.23-56.72-21.2l-35.82-78.59a6.631 6.631 0 0 0 -8.78-3.27c-3.33 1.51-4.8 5.44-3.29 8.77l35.83 78.59c12.79 28.07 46.22 40.55 74.28 27.77l243.38-110.98c3.33-1.51 4.8-5.45 3.28-8.78a6.627 6.627 0 0 0 -8.78-3.28m-370.76-89.66c3.31-11.73 11.53-22 23.41-27.42l338.62-154.39c21.42-9.76 46.95-.23 56.71 21.21l68.45 150.13c4.96 10.87 4.94 22.81.92 33.2-1.33 3.42.37 7.25 3.79 8.58a6.63 6.63 0 0 0 8.57-3.79c5.27-13.62 5.29-29.25-1.21-43.5l-68.45-150.13c-12.79-28.07-46.23-40.55-74.28-27.76l-338.62 154.38c-15.56 7.1-26.34 20.54-30.67 35.89-.99 3.52 1.07 7.19 4.58 8.18 3.53.99 7.2-1.06 8.18-4.58" fill="#767b80"/><path d="m1238.19 1046.06c0-14.83-12.04-26.85-26.87-26.85h-229.24c-14.84 0-26.86 12.02-26.86 26.85v205.19a26.852 26.852 0 0 0 26.86 26.87h299.4l-43.29-89.22z" fill="#fbedec"/><path d="m1270.9 1271.48-38.68-79.69c-.44-.9-.66-1.89-.66-2.89v-142.84c0-11.17-9.06-20.23-20.24-20.23h-229.24c-11.17 0-20.23 9.06-20.23 20.23 0 3.67-2.97 6.63-6.64 6.63-3.65 0-6.63-2.96-6.63-6.63 0-18.49 15-33.48 33.5-33.48h229.24c18.5 0 33.49 14.99 33.49 33.48v141.32l42.64 87.84c1 2.05.86 4.48-.35 6.41a6.615 6.615 0 0 1 -5.61 3.12h-44.1c-3.66 0-6.63-2.98-6.63-6.63 0-3.66 2.97-6.64 6.63-6.64zm-322.32-160.29v140.06c0 8.88 3.53 17.4 9.82 23.69a33.501 33.501 0 0 0 23.68 9.81h200.81c3.66 0 6.63-2.98 6.63-6.63 0-3.66-2.97-6.64-6.63-6.64h-200.81c-5.37 0-10.52-2.13-14.31-5.92a20.233 20.233 0 0 1 -5.92-14.3v-140.07c0-3.67-2.97-6.63-6.63-6.63s-6.64 2.96-6.64 6.63" fill="#767b80"/><path d="m1150.86 1202.73c3.18-4.25 4.78-9.69 4.78-16.33 0-6.63-1.6-12.06-4.78-16.32-3.18-4.23-7.63-6.35-13.34-6.35-5.7 0-10.14 2.12-13.32 6.35-3.18 4.26-4.78 9.69-4.78 16.32 0 6.64 1.6 12.08 4.78 16.33 3.18 4.24 7.62 6.36 13.32 6.36 5.71 0 10.16-2.12 13.34-6.36zm-37.02 9.25c-5.57-6.7-8.35-15.23-8.35-25.58 0-10.34 2.78-18.86 8.35-25.57 5.58-6.7 13.47-10.06 23.68-10.06 10.23 0 18.12 3.36 23.69 10.06 5.57 6.71 8.36 15.23 8.36 25.57 0 10.35-2.79 18.88-8.36 25.58-5.57 6.69-13.46 10.05-23.69 10.05-10.21 0-18.1-3.35-23.68-10.05zm-61.69 6.56c-1.34-1.25-2-2.81-2-4.66 0-1.2.33-2.34 1-3.39l81-129.56c1.33-2.12 3.18-3.18 5.58-3.18 1.98 0 3.6.52 4.86 1.58 1.27 1.07 1.9 2.52 1.9 4.39 0 1.46-.47 2.92-1.4 4.37l-80.4 128.76c-.66 1.08-1.52 1.92-2.59 2.59-1.06.66-2.18 1-3.37 1-1.74 0-3.25-.63-4.58-1.89zm17.91-90.45c3.18-4.24 4.77-9.67 4.77-16.32 0-6.63-1.59-12.06-4.77-16.31s-7.63-6.38-13.33-6.38c-5.71 0-10.16 2.13-13.34 6.38s-4.78 9.68-4.78 16.31c0 6.65 1.6 12.08 4.78 16.32 3.18 4.25 7.63 6.38 13.34 6.38 5.7 0 10.15-2.13 13.33-6.38zm-37.02 9.25c-5.57-6.69-8.35-15.21-8.35-25.57 0-10.35 2.78-18.86 8.35-25.57 5.57-6.7 13.47-10.05 23.69-10.05 10.21 0 18.11 3.35 23.68 10.05 5.57 6.71 8.35 15.22 8.35 25.57 0 10.36-2.78 18.88-8.35 25.57-5.57 6.71-13.47 10.05-23.68 10.05-10.22 0-18.12-3.34-23.69-10.05z" fill="#f36763"/><path d="m2323.91 1428.6c-10.8-12.29-18.88-35.68-17.96-52.02l3.08-54.7c.93-16.33 15.02-28.84 31.34-27.8l55.6 3.52c16.32 1.05 38.52 11.94 49.31 24.21l130.1 147.89c10.8 12.28 9.59 31.16-2.69 41.96l-76.73 67.49c-12.28 10.81-31.16 9.6-41.96-2.67l-130.1-147.89z" fill="#fbedec"/><path d="m2404.19 1509.81-75.31-85.6c-9.81-11.15-17.15-32.42-16.31-47.25l3.08-54.71c.72-12.65 11.65-22.35 24.3-21.56l55.6 3.54c14.8.94 34.95 10.82 44.74 21.96.01 0 130.11 147.88 130.11 147.88 8.39 9.54 7.46 24.22-2.09 32.61-2.75 2.41-3.02 6.61-.6 9.36a6.632 6.632 0 0 0 9.36.6c15.02-13.21 16.5-36.31 3.28-51.32l-130.1-147.88c-11.79-13.41-36.04-25.31-53.86-26.45l-55.6-3.53c-19.98-1.27-37.25 14.06-38.38 34.04l-3.08 54.71c-1.01 17.83 7.81 43.36 19.59 56.77l75.31 85.59c2.41 2.74 6.61 3.01 9.35.6 2.75-2.42 3.02-6.62.6-9.36zm135.1 22.4-47.71 41.97c-9.54 8.39-24.21 7.46-32.6-2.08l-17.34-19.71c-2.42-2.75-6.61-3.02-9.35-.6a6.632 6.632 0 0 0 -.6 9.36l17.34 19.7c13.2 15.02 36.29 16.5 51.31 3.28l47.7-41.96a6.641 6.641 0 0 0 .61-9.36 6.65 6.65 0 0 0 -9.36-.6" fill="#767b80"/><path d="m2371.33 1332.25c15.4 0 27.88 12.48 27.88 27.88 0 15.39-12.48 27.87-27.88 27.87-15.39 0-27.87-12.48-27.87-27.87 0-15.4 12.48-27.88 27.87-27.88" fill="#f36763"/></g></svg>