<svg width="107" height="66" viewBox="0 0 107 66" xmlns="http://www.w3.org/2000/svg"><g fill="none" fill-rule="evenodd"><path d="M38.905 50.022c5.877-.774 12.989.844 18.918.164 7.119-.938 14.798-.621 21.886-.329-.016.616-.63 1.514-.047 1.846 2.339 1.02 2.308 2.251 2.276 3.482-.015.615-1.771-.074-1.197.566-1.771-.073-4.734.112-2.976.801.575.639 2.953.121 3.519 1.068.569.948-.637 1.822-.07 2.769l2.364.096c.574.641-.638 1.824-.047 1.847 1.756.688 4.127.478 6.489.576-.016.615.56 1.254-.629 1.514-20.69-.238-41.985.116-62.634-1.661-2.356-.405-.552-1.562 1.243-2.411-.598.284-.574-.64-1.174-.357.024-.923 1.244-2.411 3.615-2.622l-1.772-.073c-.583-.331.023-.923.039-1.537.592.024 1.182.049 1.189-.26l.032-1.231-2.363-.097c.59.024 1.181.049 1.189-.258l.031-1.231c1.19-.259 2.945.429 4.136.169l.023-.921c-1.174-.357-2.954-.122-4.135-.17.599-.285.607-.591.623-1.207 1.779-.235 3.528.761 5.322-.088l-1.771-.074c1.22-1.489 4.141-.136 5.921-.371" fill="#000"/><path d="M36.049 55.421a.496.496 0 00-.324.104.373.373 0 00-.127.304c0 .131.039.237.118.317a.75.75 0 00.305.186c.125.043.266.085.42.124.155.039.308.086.461.142.152.055.291.125.417.207a.917.917 0 01.306.349c.078.151.117.33.117.541 0 .366-.149.681-.447.943-.3.26-.692.392-1.181.392-.488 0-.882-.118-1.18-.352-.299-.236-.449-.569-.449-1.001h1.125c.029.345.206.518.532.518.152 0 .272-.04.358-.12a.398.398 0 00.13-.307.41.41 0 00-.117-.302.843.843 0 00-.307-.186 4.615 4.615 0 00-.419-.126 4.244 4.244 0 01-.462-.145 2.306 2.306 0 01-.416-.207.886.886 0 01-.306-.346 1.133 1.133 0 01-.118-.535c0-.403.151-.727.452-.97.3-.243.684-.364 1.152-.364.468 0 .846.105 1.135.317.288.213.438.547.451 1.005h-1.151a.565.565 0 00-.151-.361.435.435 0 00-.324-.127M41.37 55.451v-.803h3.423v.803h-1.186v3.535H42.55v-3.535h-1.18M48.495 57.237v-2.589h1.058v2.589c0 .26.063.46.19.601.128.139.316.209.564.209.247 0 .435-.07.568-.209.132-.141.197-.341.197-.601v-2.589h1.057v2.589c0 .384-.09.715-.269.992a1.606 1.606 0 01-.679.61 2.103 2.103 0 01-.894.191c-.502 0-.927-.157-1.272-.47-.347-.313-.52-.753-.52-1.323M57.179 58.184h.469c.405 0 .721-.124.952-.372.231-.247.345-.579.345-.995 0-.416-.114-.748-.345-.995-.231-.247-.547-.371-.952-.371h-.469v2.733zm.469-3.536c.693 0 1.261.201 1.706.603.445.401.667.923.667 1.563 0 .641-.222 1.163-.667 1.567-.445.404-1.013.605-1.706.605h-1.526v-4.338h1.526zM63.779 58.986h1.057v-4.338h-1.057zM71.655 57.713c.208-.227.313-.528.313-.908 0-.379-.105-.682-.313-.909-.208-.226-.486-.339-.834-.339s-.627.113-.835.339c-.208.227-.312.53-.312.909 0 .38.104.681.312.908.208.227.487.341.835.341s.626-.114.834-.341zm-2.41.686c-.431-.42-.646-.952-.646-1.594 0-.643.215-1.173.646-1.591.431-.418.958-.627 1.582-.627.624 0 1.15.209 1.576.627.426.418.64.948.64 1.591 0 .642-.215 1.174-.644 1.594-.427.42-.953.631-1.575.631a2.177 2.177 0 01-1.579-.631z" fill="#FFF"/><path d="M7.665 21.05a4.791 4.791 0 00-1.567 1.061 18.998 18.998 0 00-3.184 4.768l-.074.186a1.094 1.094 0 00-.057.271c.142-.152.283-.278.425-.376.141-.098.277-.195.408-.294.217-.152.435-.308.654-.465a6.46 6.46 0 00.62-.515c.206-.196.402-.394.588-.596.184-.201.37-.41.555-.628.849-.958 1.393-2.095 1.632-3.412zm.49 13.567a13.73 13.73 0 00-.228-2.629 4.606 4.606 0 00-.32-1.053 2.66 2.66 0 00-.644-.889 4.579 4.579 0 00-2.041-1.077 2.843 2.843 0 00-.571-.075 1.61 1.61 0 00-.572.09 3.271 3.271 0 01-.595.171 7.422 7.422 0 01-.613.091c-.153.022-.245.046-.277.073-.033.028-.065.116-.098.27-.055.25-.082.497-.082.742V31.784c0 .234-.006.471-.016.711-.011.358-.031.715-.058 1.069-.026.354-.04.705-.04 1.053 0 .283-.012.567-.033.849-.023.283-.049.566-.081.849-.033.36.005.689.114.988.108.299.311.563.604.792.5.391 1.02.65 1.559.776.538.124 1.112.078 1.723-.14.62-.217 1.115-.544 1.485-.979.37-.436.609-.985.718-1.649a5.69 5.69 0 00.05-.743c0-.245.005-.492.016-.743zm-2.302-6.922c.033.054.074.084.122.089a.65.65 0 01.155.041c.425.174.83.373 1.217.596.386.223.742.493 1.069.808a5.863 5.863 0 011.306 1.993c.164.38.286.764.368 1.15.081.387.155.786.22 1.2.065.469.12.934.164 1.396.043.463.059.934.048 1.412 0 .392-.048.768-.147 1.127a5.276 5.276 0 01-.408 1.045 6.157 6.157 0 01-1.91 2.22c-.785.556-1.633.855-2.547.898a6.422 6.422 0 01-2.335-.326 3.527 3.527 0 01-1.519-1.029.434.434 0 00-.195-.13 1.373 1.373 0 00-.041.237c-.005.07-.02.143-.04.22a.456.456 0 01-.05.138c-.021.039-.059.058-.114.058h-.27c-.125 0-.198-.022-.22-.066a2.66 2.66 0 01-.188-.612 4.338 4.338 0 01-.065-.645 8.895 8.895 0 01.008-.653c.011-.218.016-.435.016-.653a237.47 237.47 0 01-.016-2.792c0-.925-.005-1.85-.016-2.775 0-.523-.011-1.042-.032-1.559a23.831 23.831 0 01-.017-1.56c0-.38-.008-.761-.024-1.142a62.763 62.763 0 01-.041-1.144 39.255 39.255 0 00-.197-2.824 17.572 17.572 0 01-.106-1.339c-.016-.434-.002-.882.042-1.339.021-.152.029-.301.024-.449a10.937 10.937 0 01-.009-.448c.012-.11.028-.213.049-.311l.067-.294a.415.415 0 01.154-.286.754.754 0 01.303-.122c.108-.021.198-.009.268.041a.675.675 0 01.189.203c.087.121.157.238.212.352.053.114.125.226.212.335a.2.2 0 01.065.146v.164l.065 1.102.066 1.102c.021.381.046.759.073 1.135.027.375.068.754.123 1.134.087-.151.168-.304.245-.457a9.69 9.69 0 01.244-.457c.25-.49.537-.949.858-1.379.321-.431.661-.847 1.02-1.249.272-.315.558-.612.857-.891.3-.277.623-.524.971-.742a3.87 3.87 0 011.65-.604c.392-.054.724.071.995.376.219.26.359.565.425.914l.098.489c.033.163.06.327.082.49.033.316.021.626-.033.931a5.196 5.196 0 01-.245.898 5.619 5.619 0 01-.906 1.657 8.243 8.243 0 01-1.347 1.331l-.392.326a2.88 2.88 0 01-.424.294.522.522 0 00-.122.082.228.228 0 00-.074.147zM18.768 23.368c-.261.566-.517 1.113-.768 1.641-.25.528-.495 1.053-.734 1.575a32.191 32.191 0 00-1.372 3.355.375.375 0 000 .221l.735-.065c.238-.022.478-.034.719-.034.315-.01.631-.012.946-.007.315.006.631.007.947.007.196 0 .31-.018.343-.056.032-.038.038-.15.017-.335l-.294-2.343c-.099-.778-.197-1.559-.294-2.343a49.16 49.16 0 01-.099-.775 8.705 8.705 0 00-.146-.841zm7.102 17.601c0 .119-.063.225-.188.317a2.39 2.39 0 01-.351.221 8.405 8.405 0 00-.253.131.42.42 0 01-.253.048 6.09 6.09 0 00-.752-.016 1.305 1.305 0 01-.718-.18 2.078 2.078 0 01-.62-.465 2.658 2.658 0 01-.441-.661 8.116 8.116 0 01-.489-1.159 10.623 10.623 0 01-.327-1.208c-.098-.49-.215-.969-.351-1.437-.137-.468-.27-.941-.4-1.42a22.143 22.143 0 01-.368-1.543c-.103-.517-.21-1.037-.318-1.56a.201.201 0 00-.008-.057.142.142 0 01-.009-.057 2.148 2.148 0 00-.065-.277.32.32 0 00-.09-.148.274.274 0 00-.154-.057 3.97 3.97 0 00-.278-.007c-1.024 0-2.046-.05-3.07-.148a.651.651 0 00-.179-.008 2.82 2.82 0 01-.245.008 2.097 2.097 0 01-.31.009.26.26 0 00-.155.024c-.039.022-.074.072-.106.147a8.902 8.902 0 00-.147.376c-.36.882-.721 1.76-1.086 2.636-.365.876-.727 1.755-1.085 2.637-.131.316-.248.634-.352.955-.103.322-.216.645-.335.972a1.851 1.851 0 01-.221.473 1.603 1.603 0 01-.367.392 1.169 1.169 0 01-.204.139c-.071.038-.149.03-.236-.025a.307.307 0 01-.155-.204.557.557 0 01.008-.253c.12-.467.237-.933.351-1.396.114-.463.248-.922.399-1.379a51.7 51.7 0 011.266-3.502c.463-1.148.9-2.316 1.314-3.502.229-.676.476-1.332.744-1.968l.808-1.935c.272-.642.538-1.279.8-1.909l.783-1.895.425-1.143c.043-.086.075-.168.098-.245.021-.076.076-.14.163-.196.152-.087.291-.18.417-.276.124-.099.253-.197.383-.295a1.7 1.7 0 01.391-.196c.196-.043.387-.057.571-.041.186.016.295.123.328.319.163.478.347 1.055.555 1.73.185.577.398 1.29.636 2.139.24.849.518 1.846.833 2.988.152.773.311 1.537.474 2.293.163.757.353 1.511.571 2.262.131.457.245.92.343 1.388.097.467.201.936.31 1.404.316 1.176.604 2.242.866 3.2l.318 1.217c.103.396.196.759.277 1.085.082.327.145.604.188.833.044.228.066.37.066.425zM33.444 19.825a5.428 5.428 0 012.221.661c.675.375 1.235.961 1.682 1.755.304.545.44 1.144.408 1.796a.509.509 0 01-.016.148 1.037 1.037 0 01-.098.245.307.307 0 01-.212.146c-.186.044-.344-.032-.474-.228a8.567 8.567 0 00-.384-.604l-.417-.604a2.445 2.445 0 00-.701-.686 3.179 3.179 0 00-.898-.393.906.906 0 00-.531 0c-.169.055-.339.115-.514.18-.457.186-.83.452-1.118.801a7.883 7.883 0 00-.776 1.126 6.541 6.541 0 00-.547 1.241c-.136.425-.248.865-.335 1.322-.087.457-.157.912-.212 1.364l-.164 1.363c-.032.283-.056.56-.073.833-.015.271-.035.549-.056.832l-.034.841c-.01.278-.015.558-.015.841a17.891 17.891 0 00.26 3.413l.131.792c.043.265.109.524.196.774.098.306.22.591.368.859.146.265.35.497.611.693.088.054.172.103.254.146.081.044.166.077.253.099a.843.843 0 00.433.016.832.832 0 00.4-.261c.348-.37.631-.771.849-1.2.216-.431.385-.89.505-1.38.131-.523.229-1.067.294-1.633a1.63 1.63 0 01.107-.384 1.49 1.49 0 01.204-.335.396.396 0 01.384-.138.423.423 0 01.318.252c0 .023.002.037.008.042.005.005.009.019.009.041.01.261.048.52.114.776.064.255.075.519.032.791-.055.382-.128.76-.221 1.135a6.544 6.544 0 01-.367 1.086 5.26 5.26 0 01-.506.938c-.196.289-.408.569-.637.842a6.131 6.131 0 01-.367.399c-.125.125-.249.253-.368.384a1.812 1.812 0 01-.734.482 6.046 6.046 0 01-.85.22 3.48 3.48 0 01-1.526-.073 5.618 5.618 0 01-1.396-.629c-.609-.37-1.066-.838-1.371-1.404a7.266 7.266 0 01-.685-1.845 44.574 44.574 0 01-.245-1.241 9.713 9.713 0 01-.148-1.257 26.68 26.68 0 01-.09-1.951 26.56 26.56 0 01.058-1.951c.043-.718.103-1.426.18-2.122a22.83 22.83 0 01.326-2.09c.108-.599.225-1.19.35-1.772a7.849 7.849 0 01.581-1.706 8.383 8.383 0 01.996-1.6 6.384 6.384 0 011.372-1.274 4.64 4.64 0 011.468-.678 8.049 8.049 0 011.714-.236M42.262 29.947c.053.044.102.082.146.114a.69.69 0 00.131.082c.816.468 1.629.937 2.44 1.405.811.468 1.625.93 2.442 1.387.555.305 1.109.599 1.665.882.555.284 1.11.576 1.665.882.262.153.515.308.76.465l.742.481c.164.11.321.213.474.311.152.098.304.207.457.326.164.131.318.262.464.393.148.13.297.265.45.407a21.985 21.985 0 01.718.686c.121.12.148.25.082.392a.442.442 0 01-.13.195c-.055.044-.131.061-.229.05a10.737 10.737 0 01-.816-.097 2.568 2.568 0 01-.785-.262 71.65 71.65 0 01-1.084-.571 28.676 28.676 0 01-1.07-.605 75.794 75.794 0 01-1.584-.963 80.37 80.37 0 00-1.584-.964 85.361 85.361 0 00-1.665-.954c-.555-.31-1.11-.623-1.665-.939l-1.356-.743-1.355-.743a5.61 5.61 0 01-.277-.13c0 .086-.003.158-.009.212a.559.559 0 00.009.163c.043.458.084.918.122 1.379.038.463.085.923.14 1.38.053.457.105.914.154 1.371.049.457.1.92.155 1.388.023.218.038.433.049.646.011.212.027.426.049.644.022.326.041.653.057.98.017.327.025.647.025.963 0 .142-.016.284-.049.425a2.554 2.554 0 01-.131.408c-.044.13-.12.204-.228.22-.109.016-.223.03-.343.041-.207.022-.37-.06-.49-.245a5.233 5.233 0 01-.522-1.217 11.564 11.564 0 01-.295-1.313c-.097-.599-.198-1.194-.302-1.788-.103-.593-.204-1.189-.301-1.788a30.905 30.905 0 01-.197-1.323l-.163-1.323a69.079 69.079 0 01-.326-3.003 19.74 19.74 0 01-.098-1.159l-.065-1.159a57.22 57.22 0 01-.131-1.936c-.033-.636-.071-1.281-.114-1.934-.023-.413-.033-.83-.033-1.249 0-.419.022-.835.065-1.249.022-.206.063-.4.123-.579.06-.18.133-.357.22-.532.131-.271.321-.32.572-.146a.96.96 0 01.301.253c.082.103.156.215.221.334.141.284.258.572.351.866.093.294.177.599.253.914a15.802 15.802 0 01.36 1.731c.065.543.122 1.083.17 1.616.049.534.096 1.072.139 1.616.023.284.035.563.041.841.006.278.019.558.041.842a.147.147 0 01.066-.017.147.147 0 00.065-.017c.457-.315.928-.615 1.412-.897.485-.283.972-.561 1.461-.833.512-.283 1.013-.564 1.502-.841.49-.277.991-.553 1.502-.824.272-.152.55-.297.833-.434.283-.135.565-.273.85-.416.087-.043.181-.078.285-.105.103-.028.204-.052.302-.074a.366.366 0 01.171-.025c.06.006.118.014.172.025.196.054.313.128.351.22.038.093.014.232-.073.417a1.63 1.63 0 01-.368.49c-.147.13-.313.25-.498.359a709.82 709.82 0 01-3.257 1.975 812.199 812.199 0 00-3.257 1.976c-.055.032-.11.067-.163.106a4.32 4.32 0 01-.212.138M64.318 28.364l-.196.441c-.162.424-.326.846-.489 1.265l-.489 1.249a4.933 4.933 0 01-.998 1.616c-.184.208-.396.36-.635.458a3.52 3.52 0 01-.752.211.453.453 0 01-.179.034.93.93 0 00-.181.016c-.413.055-.774 0-1.085-.164a3.196 3.196 0 01-.857-.669 3.499 3.499 0 01-.555-.807 6.121 6.121 0 01-.359-.923 4.1 4.1 0 01-.18-.792l-.098-.824a8.368 8.368 0 01-.04-1.601c.038-.522.074-1.05.106-1.583a20.318 20.318 0 01.326-2.335c.044-.218.104-.43.18-.638.076-.206.163-.413.262-.619a.778.778 0 00.081-.147.73.73 0 01.097-.229c.044-.065.115-.097.213-.097a1.08 1.08 0 01.326.015.58.58 0 01.278.163c.131.142.234.286.31.433a.877.877 0 01.081.515.86.86 0 00.017.196c.087.468.136.935.147 1.403l.033 1.404c.01.73.038 1.452.082 2.164.043.713.141 1.428.293 2.147.054.228.12.452.196.67.076.218.18.419.31.603.054.066.112.128.171.189.06.059.123.127.189.203.141-.119.271-.236.391-.351.12-.114.217-.247.294-.4.142-.283.278-.565.409-.849.129-.283.25-.571.358-.865.186-.478.357-.952.516-1.421.157-.468.323-.941.497-1.42a33.299 33.299 0 011.518-3.396c.076-.152.136-.311.18-.473a8.87 8.87 0 00.114-.49c.109-.457.245-.898.408-1.323.163-.424.348-.843.556-1.257a.458.458 0 01.154-.188.761.761 0 01.221-.089c.131-.033.258-.06.384-.082a.87.87 0 01.76.261c.086.098.157.212.212.343.108.239.168.479.178.719.012.239.006.484-.015.734l-.197 2.172c-.064.719-.125 1.441-.178 2.171a40.427 40.427 0 01-.173 1.797 62.98 62.98 0 01-.237 1.779c-.032.239-.067.474-.106.702-.037.229-.079.462-.122.701l-.065.524-.066.522c-.075.468-.149.933-.22 1.396-.071.463-.15.928-.237 1.395-.055.294-.114.588-.179.882a84.99 84.99 0 00-.196.899 6.857 6.857 0 01-.686 1.795 5.753 5.753 0 01-1.208 1.486 7.194 7.194 0 01-3.07 1.584 4.343 4.343 0 01-.848.114 4.791 4.791 0 01-1.258-.098 3.305 3.305 0 01-1.159-.505 1.25 1.25 0 00-.179-.091 1.259 1.259 0 01-.18-.09 3.982 3.982 0 01-.604-.441 2.71 2.71 0 01-.49-.571 6.685 6.685 0 01-.637-1.086 3.442 3.442 0 01-.31-1.2 9.78 9.78 0 01-.041-.678 2.506 2.506 0 01.073-.661c.055-.271.15-.527.286-.766.136-.241.345-.425.629-.556a.328.328 0 01.343.032.81.81 0 01.343.638c0 .347.057.675.171.978.114.306.248.6.4.883.174.326.403.59.686.791.282.202.588.341.914.417.327.076.664.09 1.013.04a2.43 2.43 0 00.962-.35 3.783 3.783 0 001.519-1.781c.087-.173.152-.355.196-.547l.13-.562c.099-.413.189-.827.27-1.241.082-.413.166-.827.254-1.241.097-.544.189-1.082.277-1.616.087-.534.18-1.078.277-1.633l.196-1.126c.011-.055.019-.104.024-.147.006-.044.015-.088.025-.131h-.082M76.155 23.368c-.26.566-.516 1.113-.766 1.641-.251.528-.496 1.053-.736 1.575a32.18 32.18 0 00-1.371 3.355.375.375 0 000 .221l.735-.065c.239-.022.478-.034.718-.034.316-.01.631-.012.947-.007.315.006.631.007.947.007.196 0 .31-.018.343-.056.033-.038.038-.15.016-.335-.097-.783-.195-1.565-.294-2.343l-.294-2.343a96.29 96.29 0 01-.097-.775 8.735 8.735 0 00-.148-.841zm7.103 17.601c0 .119-.063.225-.188.317a2.39 2.39 0 01-.351.221c-.087.044-.171.087-.253.131a.418.418 0 01-.253.048 6.074 6.074 0 00-.751-.016 1.301 1.301 0 01-.718-.18 2.082 2.082 0 01-.621-.465 2.628 2.628 0 01-.44-.661 8.129 8.129 0 01-.491-1.159c-.13-.392-.239-.794-.326-1.208-.097-.49-.216-.969-.351-1.437-.136-.468-.27-.941-.401-1.42a22.718 22.718 0 01-.367-1.543c-.102-.517-.209-1.037-.318-1.56a.201.201 0 00-.008-.057.164.164 0 01-.008-.057 2.331 2.331 0 00-.065-.277.337.337 0 00-.09-.148.277.277 0 00-.155-.057 3.99 3.99 0 00-.278-.007 32.15 32.15 0 01-3.069-.148.659.659 0 00-.18-.008 2.804 2.804 0 01-.245.008 2.1 2.1 0 01-.31.009.266.266 0 00-.156.024c-.038.022-.073.072-.105.147-.032.076-.082.202-.148.376-.358.882-.72 1.76-1.086 2.636a392.41 392.41 0 00-1.085 2.637c-.13.316-.248.634-.351.955-.104.322-.215.645-.335.972a1.648 1.648 0 01-.588.865 1.162 1.162 0 01-.203.139c-.071.038-.15.03-.236-.025a.314.314 0 01-.157-.204.603.603 0 01.009-.253c.12-.467.236-.933.351-1.396.114-.463.248-.922.4-1.379a50.636 50.636 0 011.266-3.502c.462-1.148.9-2.316 1.314-3.502.229-.676.476-1.332.742-1.968l.809-1.935c.271-.642.539-1.279.8-1.909l.784-1.895.424-1.143a1.35 1.35 0 00.097-.245.366.366 0 01.164-.196 3.8 3.8 0 00.416-.276c.125-.099.253-.197.384-.295.109-.075.24-.142.392-.196.196-.043.387-.057.571-.041.186.016.294.123.327.319.163.478.348 1.055.555 1.73.185.577.397 1.29.637 2.139.239.849.516 1.846.833 2.988.152.773.309 1.537.473 2.293.163.757.354 1.511.572 2.262.13.457.245.92.342 1.388.098.467.202.936.31 1.404.316 1.176.604 2.242.866 3.2l.319 1.217c.102.396.195.759.277 1.085.082.327.144.604.187.833.044.228.066.37.066.425zM86.229 25.85a.3.3 0 00.049.065 3.34 3.34 0 00.319-.18 3.69 3.69 0 01.318-.179c.533-.316 1.064-.631 1.592-.948a14.762 14.762 0 001.526-1.045c.229-.184.457-.367.686-.545.228-.181.435-.385.62-.614.175-.217.313-.446.417-.685.103-.239.149-.5.139-.784-.011-.12-.036-.199-.074-.236-.038-.039-.117-.035-.237.008a6.038 6.038 0 00-.98.407 6.182 6.182 0 00-1.33.915 9.98 9.98 0 00-1.102 1.175 60.642 60.642 0 00-1.812 2.434.336.336 0 00-.074.105.546.546 0 01-.057.107zm-.342 15.673a.971.971 0 01-.27-.335 3.163 3.163 0 01-.155-.383l-.066-.261a24.852 24.852 0 00-.065-.261 4.022 4.022 0 01-.22-.89c-.039-.299-.079-.607-.123-.923-.054-.522-.111-1.041-.171-1.559-.06-.517-.117-1.037-.171-1.559a147.9 147.9 0 01-.155-1.437c-.05-.468-.101-.947-.156-1.437a34.221 34.221 0 01-.229-2.531l-.13-2.53a.573.573 0 01-.065-.416c.032-.137.043-.28.032-.433-.01-.283-.024-.563-.04-.841a44.968 44.968 0 01-.042-.84 12.494 12.494 0 01-.032-.89c0-.3-.005-.597-.016-.891 0-.032.005-.067.016-.105a.177.177 0 000-.107c-.065-.25-.038-.467.082-.653.119-.184.256-.364.408-.539.033-.043.081-.064.147-.064.131-.011.259-.02.384-.025.125-.006.248.002.367.025a.8.8 0 01.702.669c.032.239.062.476.09.711.027.233.056.47.09.709 0 .033.002.068.008.107.005.037.013.084.025.139.249-.316.492-.621.725-.915.235-.294.477-.582.727-.866.349-.391.722-.756 1.119-1.093a7.354 7.354 0 011.298-.881 4.09 4.09 0 012.024-.507c.25.011.465.068.645.172.18.103.318.28.417.53.054.13.092.259.113.384.023.125.023.259 0 .399-.032.513-.151.98-.358 1.405-.207.424-.48.822-.817 1.191a12.668 12.668 0 01-1.844 1.666c-.664.49-1.367.931-2.107 1.322a8.014 8.014 0 01-.554.311c.032.044.062.084.088.122a.512.512 0 00.107.106 22.808 22.808 0 012.073 2.351c.305.403.588.816.85 1.241.261.425.506.859.734 1.307a9.48 9.48 0 01.686 1.64c.174.561.332 1.129.474 1.705.108.437.209.869.301 1.298.093.431.183.864.271 1.299.075.381.124.765.146 1.15.021.387 0 .777-.065 1.168a8.78 8.78 0 00-.057.351c-.017.114-.036.231-.058.352-.054.12-.114.217-.179.294a.721.721 0 01-.237.179.537.537 0 01-.351.016 2.454 2.454 0 01-.654-1.094c-.086-.359-.17-.721-.253-1.085a26.1 26.1 0 01-.219-1.086 47.372 47.372 0 00-.523-2.457 18.77 18.77 0 00-.752-2.392 16.257 16.257 0 00-1.085-2.311 10.64 10.64 0 00-1.526-2.048 15.53 15.53 0 01-.417-.466 46.618 46.618 0 00-.449-.514c0 .065-.002.117-.008.155a.587.587 0 00-.008.09l.066.76c.021.255.048.508.081.758.054.49.117.969.187 1.437.071.468.139.947.205 1.436l.261 1.691c.087.56.163 1.123.229 1.689a17.657 17.657 0 01.163 2.401c.01.283-.006.554-.049.816a112.95 112.95 0 00-.204 1.265 3.044 3.044 0 01-.122.466c-.055.141-.169.269-.344.383-.174.115-.337.161-.489.139a11.022 11.022 0 00-.18-.058 1.96 1.96 0 01-.163-.056c-.055-.023-.11-.043-.163-.066zM97.984 37.393c.109-.12.191-.24.245-.359.054-.12.107-.231.156-.335.049-.103.1-.21.155-.319a43.47 43.47 0 001.028-1.885c.328-.637.648-1.282.963-1.935a39.3 39.3 0 00.532-1.102c.168-.364.345-.737.53-1.118.218-.436.429-.868.636-1.299.208-.43.403-.873.588-1.33.197-.457.381-.909.555-1.356.175-.446.321-.914.441-1.404l.196-.742c.066-.245.109-.498.131-.76a3.063 3.063 0 00-.017-.71 1.957 1.957 0 00-.228-.678c-.087-.184-.185-.306-.293-.367-.11-.059-.268-.079-.474-.056-.055.01-.105.018-.148.024a.674.674 0 00-.146.04 3.86 3.86 0 00-1.077.483c-.327.211-.643.443-.947.693a11.599 11.599 0 00-1.683 1.747 18.718 18.718 0 00-1.355 2.009 3.85 3.85 0 00-.35.841 2.44 2.44 0 00-.074.921c.032.36.054.719.065 1.079.011.358.027.717.049 1.077l.131 2.335c.043.772.097 1.55.163 2.334.033.316.06.637.082.964a321.595 321.595 0 00.073 1.093.166.166 0 00.073.115zm-.734-13.47c.13-.196.253-.378.367-.546.114-.169.232-.335.351-.499a6.767 6.767 0 011.192-1.339c.446-.381.931-.729 1.453-1.045a5.456 5.456 0 011.665-.701c.664-.153 1.228-.099 1.691.162.462.263.851.653 1.167 1.176.196.349.332.708.408 1.078.076.37.125.746.146 1.126a6.379 6.379 0 01-.13 1.592 20.787 20.787 0 01-.392 1.559c-.272.894-.579 1.77-.922 2.629-.343.86-.705 1.715-1.086 2.564-.305.685-.61 1.363-.914 2.032a44.74 44.74 0 01-.963 1.983 86.256 86.256 0 01-.89 1.699c-.3.555-.607 1.116-.922 1.681a10.16 10.16 0 00-.278.564c-.088.19-.174.383-.261.579-.12.272-.278.507-.474.702a3.56 3.56 0 01-.669.523 1.274 1.274 0 01-.596.196c-.202.01-.406.032-.613.065-.076 0-.131-.017-.163-.049l-.351-.351a1.194 1.194 0 01-.269-.433 7.342 7.342 0 01-.393-1.493 37.12 37.12 0 01-.195-1.543 56.197 56.197 0 00-.188-1.683c-.071-.554-.138-1.115-.204-1.68a49.937 49.937 0 01-.196-1.723 22.565 22.565 0 01-.098-1.739c-.022-.62-.051-1.23-.089-1.828a28.888 28.888 0 01-.058-1.829c0-.5.006-1.001.017-1.502.01-.5.044-1.001.097-1.502.023-.218.036-.442.041-.67.006-.229.02-.457.041-.686.023-.282.098-.527.229-.734.131-.206.304-.387.522-.539.273-.196.541-.245.809-.147a1.1 1.1 0 01.612.571c.087.197.166.403.236.621.072.217.124.435.156.653.021.109.059.277.114.506zM44.898 3.065a13.955 13.955 0 00-.634-.024 14.813 14.813 0 01-.626-.025 62.683 62.683 0 00-1.069-.03 65.932 65.932 0 01-1.079-.029.41.41 0 01-.089-.01.134.134 0 00-.088.01.802.802 0 01-.423-.016 1.876 1.876 0 01-.395-.181.619.619 0 01-.275-.384.382.382 0 01-.01-.227c.019-.059.075-.105.167-.138a2.81 2.81 0 01.335-.113c.112-.03.224-.051.335-.064a37.22 37.22 0 011.01-.065 351.009 351.009 0 012.044-.083l1.024-.04c.171-.005.34-.007.508-.004.167.002.336-.001.507-.015.532-.033 1.059-.04 1.581-.02s1.049.046 1.581.079c.196.013.41.017.64.01.23-.007.44.023.63.088a.203.203 0 01.114.065c.023.029.067.047.133.053a.5.5 0 00-.01.075.092.092 0 01-.01.044l-.384.65a.446.446 0 01-.345.246c-.23.026-.457.055-.679.084a9.598 9.598 0 01-.67.064c-.355.013-.703.021-1.044.025-.342.003-.69.008-1.045.014a.403.403 0 00-.059.005l-.069.015a.611.611 0 01-.005.089.236.236 0 00.005.079c.072.393.118.789.139 1.186.019.398.035.8.048 1.207.013.355.028.705.044 1.049.017.345.032.695.045 1.049.02.506.041 1.008.064 1.508.023.499.042 1.004.054 1.517.013.347.025.692.035 1.034.009.341.014.689.014 1.044a6.7 6.7 0 01-.014.428c-.01.142-.019.288-.025.439a2.626 2.626 0 00-.019.345c0 .086-.007.166-.02.241a.62.62 0 01-.089.221.547.547 0 01-.202.208.468.468 0 01-.291.029.942.942 0 01-.516-.237 1.608 1.608 0 01-.34-.453 2.133 2.133 0 01-.202-.522 9.11 9.11 0 01-.114-.542 9.09 9.09 0 01-.103-.975 13.153 13.153 0 01-.015-.975c0-.112-.003-.218-.01-.321-.007-.101-.012-.208-.019-.32l-.06-1.358a200.431 200.431 0 01-.157-3.635c-.021-.756.029-1.504.147-2.246a.128.128 0 00.005-.065.625.625 0 01-.005-.083M53.085 11.625c.013-.132.029-.263.049-.394a24.74 24.74 0 00.133-1.163c.022-.256.053-.511.093-.768.046-.269.094-.536.143-.802.05-.267.106-.534.173-.804.072-.289.159-.571.261-.846.101-.276.228-.541.378-.798.099-.164.2-.323.301-.478.102-.154.229-.294.379-.419.053-.046.108-.09.163-.133a1.25 1.25 0 01.173-.113.456.456 0 01.227-.074.915.915 0 01.245.025c.145.033.281.083.409.153.129.068.251.146.37.231.052.026.081.049.088.069l.212.364c.069.118.123.243.163.375.052.171.093.342.122.511l.094.523c.02.099.031.2.035.306.003.104.017.207.044.304.053.218.067.436.044.656-.023.22-.018.438.015.655.013.039.015.08.005.123a.583.583 0 00-.014.133c.006.151.01.305.014.463.003.157.011.312.025.462.019.25.042.503.068.759l.079.759c.02.25.037.501.055.753.016.253.041.505.073.754.014.092.037.181.069.266.033.085.063.174.089.265a1.05 1.05 0 01-.069.691c-.059.164-.171.226-.335.186-.499-.131-.857-.417-1.074-.856a6.243 6.243 0 01-.457-1.217 7.793 7.793 0 01-.222-1.276 23.03 23.03 0 01-.103-1.595 16.991 16.991 0 01.024-1.596c.02-.309.02-.616.005-.922a68.325 68.325 0 01-.044-.92.181.181 0 00-.015-.074.948.948 0 01-.035-.113c-.058.093-.113.177-.162.257-.05.078-.091.153-.123.225-.139.289-.262.58-.369.872a6.42 6.42 0 00-.262.911 2.853 2.853 0 01-.079.335 5.908 5.908 0 00-.088.335 5.062 5.062 0 00-.084.404 18.51 18.51 0 01-.073.404c-.073.335-.132.67-.178 1.004-.053.309-.097.616-.134.922-.035.305-.077.612-.123.921-.026.176-.057.35-.092.521a3.378 3.378 0 01-.154.513 1.144 1.144 0 01-.256.409 6.681 6.681 0 01-.344.33 1.321 1.321 0 01-.242.172 5.743 5.743 0 01-.27.142c-.125.06-.229.075-.311.045a.546.546 0 01-.242-.212 2.835 2.835 0 01-.236-.433 1.978 1.978 0 01-.138-.473c-.033-.21-.058-.417-.078-.62a24.55 24.55 0 00-.069-.621c-.014-.145-.03-.289-.05-.434a74.38 74.38 0 00-.059-.433 50.14 50.14 0 01-.153-1.447c-.042-.48-.066-.966-.073-1.458-.014-.782-.024-1.56-.03-2.334l-.019-2.335a66.007 66.007 0 010-1.665c.006-.552.01-1.107.01-1.665 0-.125.038-.237.112-.335a.466.466 0 01.32-.177.715.715 0 01.523.138.733.733 0 01.26.285c.057.112.101.233.133.365.06.243.094.486.104.728.011.244.021.487.035.73.007.223.017.442.029.659l.04.65c.006.125.01.249.01.37 0 .122.003.245.009.369.007.119.012.237.015.355.003.118.012.237.025.355a38.214 38.214 0 00.099 1.212c.032.275.043.547.034.817-.01.269-.022.541-.034.817-.007.113-.004.224.009.335l.039.335.02.374c.007.125.016.253.029.385.014.177.024.354.03.531.007.178.016.359.03.542.013.164.024.326.034.483.011.158.021.318.035.482l.02.094.019.094c.02 0 .036-.003.05-.01M60.826 10.788c.086-.014.163-.023.232-.03.068-.007.136-.019.202-.039.23-.053.448-.129.655-.232a3.71 3.71 0 00.586-.359 9.046 9.046 0 00.838-.7c.275-.249.492-.532.649-.847.158-.315.267-.653.325-1.014.033-.164.033-.32 0-.468a.974.974 0 00-.216-.419 1.452 1.452 0 00-.743-.488 1.228 1.228 0 00-.874.104 2.262 2.262 0 00-.664.488 2.836 2.836 0 00-.467.674c-.21.421-.362.871-.453 1.35a6.777 6.777 0 00-.114.768 5.447 5.447 0 00-.014.778c.005.073.014.143.024.212l.034.222zm4.551.009c-.125.276-.251.549-.379.818-.128.27-.265.538-.409.808-.131.256-.28.501-.448.734a8.634 8.634 0 01-.537.675 2.94 2.94 0 01-.98.772c-.364.175-.783.235-1.256.183-.493-.053-.913-.207-1.261-.463a3.02 3.02 0 01-.867-1.034 5.279 5.279 0 01-.369-.961 6.024 6.024 0 01-.183-1.01 6.135 6.135 0 01-.043-.798c.003-.262.011-.528.024-.797.013-.276.043-.548.089-.818a7.12 7.12 0 01.187-.807c.112-.395.247-.775.409-1.143.161-.367.373-.712.635-1.034.157-.197.331-.373.523-.528.189-.154.396-.291.62-.409.189-.097.386-.178.586-.241.2-.062.405-.1.615-.112.237-.014.47 0 .7.039.23.039.449.135.659.285a3.638 3.638 0 00.336.217c.203.132.378.289.527.472.147.185.283.381.408.592.125.21.204.433.237.669.033.237.027.481-.019.73a3.86 3.86 0 01-1.153 2.097c-.177.171-.358.337-.542.498a5.925 5.925 0 01-.582.449 4.57 4.57 0 01-.901.462 3.103 3.103 0 01-.999.197.904.904 0 00-.089.02c.046.283.114.548.207.798.092.25.227.48.403.69.152.171.321.298.508.383.187.086.392.135.616.149a.401.401 0 00.242-.055c.068-.043.138-.091.212-.142a3.56 3.56 0 00.413-.429c.124-.154.239-.318.344-.487a7.977 7.977 0 00.748-1.429c.053-.118.114-.219.183-.3a.459.459 0 01.301-.153.507.507 0 01.206.059.325.325 0 01.109.133c.026.056.016.13-.03.221z" fill="#272525"/></g></svg>