<svg xmlns="http://www.w3.org/2000/svg" xmlns:xlink="http://www.w3.org/1999/xlink" width="100%" height="100%" version="1.1" viewBox="0 0 4 1" xml:space="preserve" style="fill-rule:evenodd;clip-rule:evenodd;stroke-linecap:round;stroke-linejoin:round;stroke-miterlimit:1.5"><g id="Artboard1" transform="matrix(0.840622,0,0,0.519878,-1.2747,-0.777938)"><rect width="4.318" height="1.372" x="1.516" y="1.496" style="fill:none"/><g><path d="M89.088,91.616L92.694,91.604L123.947,91.504L124.256,111.889L88.994,111.991L89.088,91.616Z" transform="matrix(0.0166543,0,0,0.0269294,0.31221,-0.553181)" style="fill:none;stroke:#000;stroke-width:.75px"/></g><g><path d="M106.525,92.021L107.003,111.922" transform="matrix(0.0166543,0,0,0.0269294,0.31221,-0.553181)" style="fill:none;stroke:#000;stroke-width:.75px"/></g><g><path d="M89.088,91.616L92.694,91.604L123.947,91.504L124.256,111.889L88.994,111.991L89.088,91.616Z" transform="matrix(0.0166543,0,0,0.0269294,1.16038,-0.553181)" style="fill:none;stroke:#000;stroke-width:.75px"/></g><g><path d="M89.088,91.616L92.694,91.604L123.947,91.504L124.256,111.889L88.994,111.991L89.088,91.616Z" transform="matrix(0.0166543,0,0,0.0269294,2.03024,-0.545389)" style="fill:none;stroke:#000;stroke-width:.75px"/></g><g><path d="M89.088,91.616L92.694,91.604L123.947,91.504L124.256,111.889L88.994,111.991L89.088,91.616Z" transform="matrix(0.0166543,0,0,0.0269294,2.88656,-0.545389)" style="fill:none;stroke:#000;stroke-width:.75px"/></g><g><path d="M106.525,92.021L106.394,111.719" transform="matrix(0.0166543,0,0,0.0269294,1.16038,-0.553181)" style="fill:none;stroke:#000;stroke-width:.75px"/></g><g><path d="M107.013,92.102L107.003,111.922" transform="matrix(0.0166543,0,0,0.0269294,2.03024,-0.545389)" style="fill:none;stroke:#000;stroke-width:.75px"/></g><g><path d="M106.974,92.111L107.003,111.922" transform="matrix(0.0166543,0,0,0.0269294,2.88656,-0.545389)" style="fill:#ebebeb;stroke:#000;stroke-width:.75px"/></g><g><path d="M115.564,101.604L139.049,101.78" transform="matrix(0.0166543,0,0,0.0269294,0.31221,-0.553181)" style="fill:#ebebeb;stroke:#ef1d00;stroke-width:.8px"/></g><g><path d="M115.564,101.604L139.049,101.78" transform="matrix(0.0166543,0,0,0.0269294,1.17207,-0.553181)" style="fill:#ebebeb;stroke:#ef1d00;stroke-width:.8px"/></g><g><path d="M115.564,101.604L139.049,101.78" transform="matrix(0.0166543,0,0,0.0269294,2.02874,-0.553181)" style="fill:#ebebeb;stroke:#ef1d00;stroke-width:.8px"/></g><g><path d="M115.564,101.604L139.049,101.78" transform="matrix(0.0166543,0,0,0.0269294,2.02874,-0.553181)" style="fill:#ebebeb;stroke:#ef1d00;stroke-width:.8px"/></g><g><path d="M115.564,101.604L139.049,101.78" transform="matrix(0.0166543,0,0,0.0269294,2.87306,-0.553181)" style="fill:#ebebeb;stroke:#ef1d00;stroke-width:.8px"/></g><g><path d="M135.96,104.04L139.089,101.78L136,99.324" transform="matrix(0.0166543,0,0,0.0269294,0.31221,-0.553181)" style="fill:none;stroke:#ef1d00;stroke-width:.8px"/></g><g><path d="M135.96,104.04L139.089,101.78L136,99.324" transform="matrix(0.0166543,0,0,0.0269294,1.17207,-0.553181)" style="fill:none;stroke:#ef1d00;stroke-width:.8px"/></g><g><path d="M135.96,104.04L139.089,101.78L136,99.324" transform="matrix(0.0166543,0,0,0.0269294,2.02874,-0.553181)" style="fill:none;stroke:#ef1d00;stroke-width:.8px"/></g><g><path d="M135.96,104.04L139.089,101.78L136,99.324" transform="matrix(0.0166543,0,0,0.0269294,2.87306,-0.553181)" style="fill:none;stroke:#ef1d00;stroke-width:.8px"/></g><g><path d="M95.535,97.818C95.47,97.818 95.641,99.519 95.825,99.704C96.01,99.888 97.227,99.704 97.469,99.752C98.251,99.908 99.484,100.817 99.741,101.589C100.119,102.721 99.055,103.558 98.146,103.861C98.044,103.895 96.696,104.203 96.696,104.006" transform="matrix(0.0166543,0,0,0.0269294,0.31221,-0.553181)" style="fill:none;stroke:#6047ff;stroke-width:.8px"/></g><g><path d="M95.63,97.695C95.497,97.695 95.819,97.738 95.892,97.738C96.102,97.738 96.34,97.735 96.545,97.695C97.207,97.562 98.213,97.52 98.808,97.52" transform="matrix(0.0166543,0,0,0.0269294,0.31221,-0.553181)" style="fill:none;stroke:#6047ff;stroke-width:.8px"/></g><g><path d="M144.959,99.046C144.873,99.046 145.206,98.765 145.255,98.7C145.478,98.402 145.609,98.222 145.749,98.503C145.948,98.9 145.822,99.733 145.897,100.182C146.139,101.632 146.391,103.176 146.391,104.627" transform="matrix(0.0166543,0,0,0.0269294,0.31221,-0.553181)" style="fill:none;stroke:#6047ff;stroke-width:.8px"/></g><g><path d="M151.627,98.848C151.406,98.848 151.128,98.628 150.886,98.749C149.923,99.231 149.355,100.774 149.355,101.763C149.355,102.35 149.583,103.672 150.244,103.837C152.61,104.429 153.78,101.426 152.862,99.589C152.743,99.353 151.627,98.381 151.627,98.996" transform="matrix(0.0166543,0,0,0.0269294,0.31221,-0.553181)" style="fill:none;stroke:#6047ff;stroke-width:.8px"/></g><g><path d="M200.298,97.741C200.821,97.688 202.768,97.691 202.768,97.691L200.876,99.938C200.876,99.938 202.366,99.987 202.795,100.226C203.58,100.664 203.816,101.946 203.744,102.664C203.627,103.813 203.367,104.599 202.125,104.755C201.586,104.822 200.091,104.757 199.903,103.717" transform="matrix(0.0166543,0,0,0.0269294,0.31221,-0.553181)" style="fill:none;stroke:#6047ff;stroke-width:.8px"/></g><g><path d="M251.507,98.542C251.631,98.418 252.354,97.684 252.442,97.771C252.533,97.862 252.497,98.236 252.497,98.349C252.497,98.805 252.597,99.27 252.634,99.724C252.802,101.739 253.047,103.834 253.047,105.803" transform="matrix(0.0166543,0,0,0.0269294,0.31221,-0.553181)" style="fill:none;stroke:#6047ff;stroke-width:.8px"/></g><g><path d="M251.837,106.243C252.538,106.243 253.3,105.968 254.01,105.968" transform="matrix(0.0166543,0,0,0.0269294,0.31221,-0.553181)" style="fill:none;stroke:#6047ff;stroke-width:.8px"/></g><g><path d="M251.837,106.243C252.538,106.243 253.3,105.968 254.01,105.968" transform="matrix(0.0166543,0,0,0.0269294,0.31221,-0.553181)" style="fill:none;stroke:#6047ff;stroke-width:.8px"/></g><g><path d="M301.943,99.25C301.833,99.47 301.965,99.815 302.009,100.035C302.08,100.392 302.125,100.742 302.161,101.104C302.18,101.289 302.183,101.463 302.183,101.65C302.183,101.692 302.144,101.99 302.14,101.977C301.897,101.25 302.159,100.054 302.598,99.49C302.83,99.192 303.199,98.925 303.601,99.076C304.222,99.308 304.292,100.615 304.43,101.17C304.459,101.284 304.545,102.08 304.648,101.977" transform="matrix(0.0166543,0,0,0.0269294,0.295481,-0.508098)" style="fill:none;stroke:#000;stroke-width:.8px"/></g><g><path d="M306.873,99.381C306.873,99.381 306.903,100.198 306.917,100.297C306.998,100.863 307.102,101.858 307.855,101.933C308.837,102.031 309.207,99.294 309.207,99.294C309.207,99.294 309.207,99.425 309.207,99.49C309.207,99.624 309.263,100.146 309.273,100.275C309.294,100.554 309.439,101.874 309.971,101.475" transform="matrix(0.0166543,0,0,0.0269294,0.295481,-0.508098)" style="fill:none;stroke:#000;stroke-width:.8px"/></g><g><path d="M312.24,95.673C312.24,96.158 312.255,99.374 312.462,100.437C312.62,101.244 313.272,102.156 313.672,101.557" transform="matrix(0.0166543,0,0,0.0269294,0.295481,-0.508098)" style="fill:none;stroke:#000;stroke-width:.8px"/></g><g><path d="M316.123,96C316.123,96 315.997,100.102 316.319,100.879C316.622,101.609 316.962,101.221 316.962,101.221" transform="matrix(0.0166543,0,0,0.0269294,0.295481,-0.508098)" style="fill:none;stroke:#000;stroke-width:.8px"/></g></g></svg>