<svg xmlns="http://www.w3.org/2000/svg" width="100" height="100" viewBox="0 0 100 100">
    <g fill="none" fill-rule="evenodd" transform="translate(15 15)">
        <path fill="#FFF" d="M2.357 1.688c-.37 0-.67.3-.67.67v64.285c0 .37.3.67.67.67h64.286c.37 0 .67-.3.67-.67V2.357c0-.37-.3-.67-.67-.67H2.357z"/>
        <path fill="#FFF" stroke="#1C272B" stroke-linecap="round" stroke-width="3" d="M70 67.2a2.8 2.8 0 0 1-2.8 2.8H2.8A2.8 2.8 0 0 1 0 67.2V2.8A2.8 2.8 0 0 1 2.8 0h64.4A2.8 2.8 0 0 1 70 2.8v64.4z"/>
        <rect width="55.804" height="15.625" x="6.598" y="46.777" fill="#F99D78" rx="2.68"/>
        <rect width="55.804" height="15.625" x="6.598" y="6.598" fill="#F99D78" rx="2.68"/>
        <rect width="55.804" height="15.625" x="6.598" y="26.688" fill="#F66839" rx="2.68"/>
        <path fill="#FFF" d="M27.715 34.223h3.034v3.965c-.492.16-.955.273-1.389.338a9.047 9.047 0 0 1-1.331.096c-1.155 0-2.036-.339-2.645-1.017-.609-.678-.913-1.652-.913-2.922 0-1.235.353-2.197 1.06-2.888.706-.69 1.685-1.036 2.937-1.036.785 0 1.542.157 2.27.471l-.538 1.298a3.849 3.849 0 0 0-1.742-.419c-.702 0-1.263.236-1.685.706-.422.471-.633 1.104-.633 1.9 0 .83.17 1.463.51 1.901.34.438.834.657 1.483.657.338 0 .682-.035 1.03-.105v-1.596h-1.448v-1.35zm9.26 4.295H32.57v-7.649h4.405v1.33H34.19v1.678h2.59v1.33h-2.59v1.972h2.784v1.339zm4.546 0h-1.622v-6.299h-2.077v-1.35h5.776v1.35H41.52v6.299z"/>
        <path fill="#FFF" fill-opacity=".5" d="M26.569 14.38h.534c.498 0 .871-.1 1.12-.296.247-.197.37-.484.37-.86 0-.381-.103-.662-.31-.843-.208-.182-.533-.272-.976-.272h-.738v2.27zm3.662-1.214c0 .823-.257 1.452-.772 1.888-.514.436-1.246.654-2.194.654h-.696v2.72h-1.622V10.78h2.443c.928 0 1.633.2 2.116.599.484.4.725.995.725 1.787zm7.67-2.386v4.95c0 .564-.127 1.06-.38 1.485a2.468 2.468 0 0 1-1.096.978c-.478.227-1.043.34-1.695.34-.983 0-1.747-.252-2.291-.756-.544-.504-.816-1.193-.816-2.069V10.78h1.616v4.682c0 .59.119 1.022.356 1.298.237.275.63.413 1.177.413.53 0 .915-.139 1.154-.416.239-.277.358-.712.358-1.305V10.78h1.617zm4.823 7.649h-1.622v-6.3h-2.077V10.78h5.776v1.35h-2.077v6.299zM23.404 54.558h.533c.5 0 .872-.099 1.12-.296.248-.197.371-.484.371-.86 0-.38-.103-.661-.31-.843-.208-.18-.534-.272-.977-.272h-.737v2.27zm3.662-1.214c0 .823-.257 1.453-.772 1.889-.514.436-1.246.654-2.194.654h-.696v2.72h-1.622V50.96h2.443c.928 0 1.633.2 2.116.599.483.399.725.994.725 1.786zm8.386 1.428c0 1.266-.314 2.24-.942 2.92-.627.68-1.527 1.02-2.699 1.02s-2.072-.34-2.7-1.02c-.627-.68-.941-1.657-.941-2.93 0-1.273.315-2.245.944-2.917.63-.671 1.532-1.007 2.707-1.007 1.176 0 2.075.339 2.697 1.015.623.677.934 1.65.934 2.92zm-5.582 0c0 .855.162 1.498.487 1.93.324.433.809.65 1.454.65 1.294 0 1.94-.86 1.94-2.58 0-1.723-.643-2.584-1.93-2.584-.645 0-1.131.217-1.46.651-.327.435-.491 1.079-.491 1.933zm11.682 1.711c0 .69-.248 1.235-.745 1.632-.497.398-1.189.597-2.075.597-.816 0-1.538-.154-2.166-.46v-1.507c.517.23.953.392 1.311.486.357.094.684.141.98.141.357 0 .63-.068.82-.204.19-.136.285-.338.285-.606a.67.67 0 0 0-.126-.4 1.405 1.405 0 0 0-.369-.338c-.162-.108-.492-.28-.991-.518-.467-.22-.818-.43-1.052-.633a2.376 2.376 0 0 1-.56-.706 2.015 2.015 0 0 1-.209-.942c0-.677.23-1.208.688-1.596.459-.387 1.093-.58 1.902-.58.398 0 .777.047 1.138.141.36.094.738.227 1.133.398l-.524 1.26a7.654 7.654 0 0 0-1.012-.35c-.267-.066-.53-.1-.787-.1-.307 0-.543.072-.707.215a.708.708 0 0 0-.245.56c0 .143.033.267.099.374.066.106.172.209.316.308.145.1.488.279 1.029.537.714.341 1.205.684 1.47 1.028.265.343.397.764.397 1.263zm4.337 2.124h-1.622v-6.299H42.19v-1.35h5.776v1.35H45.89v6.3z"/>
    </g>
</svg>
