<?xml version="1.0" encoding="utf-8"?>
<!-- Generator: Adobe Illustrator 22.1.0, SVG Export Plug-In . SVG Version: 6.00 Build 0)  -->
<svg version="1.1" id="Layer_1" xmlns="http://www.w3.org/2000/svg" xmlns:xlink="http://www.w3.org/1999/xlink" x="0px" y="0px"
	 viewBox="0 0 100 100" style="enable-background:new 0 0 100 100;" xml:space="preserve">
<style type="text/css">
	.st0{fill:#F99D78;}
	.st1{fill:#FF6C37;}
	.st2{fill:none;stroke:#1C272B;stroke-width:3;}
	.st3{filter:url(#Adobe_OpacityMaskFilter);}
	.st4{fill:#FFFFFF;}
	.st5{mask:url(#b_1_);fill:#FFFFFF;}
	.st6{filter:url(#Adobe_OpacityMaskFilter_1_);}
	.st7{mask:url(#b_2_);fill:#FFFFFF;}
	.st8{filter:url(#Adobe_OpacityMaskFilter_2_);}
	.st9{mask:url(#b_3_);fill:#FFFFFF;}
</style>
<g transform="translate(13 13)">
	<path class="st0" d="M8.8,0h0.4C10.7,0,12,1.3,12,2.8v54.4c0,1.6-1.3,2.8-2.8,2.8H8.8C7.3,60,6,58.7,6,57.2l0,0V2.8
		C6,1.3,7.3,0,8.8,0C8.8,0,8.8,0,8.8,0z M19.8,10h0.4c1.6,0,2.8,1.3,2.8,2.8c0,0,0,0,0,0v54.4c0,1.6-1.3,2.8-2.8,2.8h-0.4
		c-1.6,0-2.8-1.3-2.8-2.8V12.8C17,11.3,18.3,10,19.8,10L19.8,10z M30.8,2h0.4C32.7,2,34,3.3,34,4.8c0,0,0,0,0,0v54.4
		c0,1.6-1.3,2.8-2.8,2.8h-0.4c-1.6,0-2.8-1.3-2.8-2.8v0V4.8C28,3.3,29.3,2,30.8,2z M41.8,15h0.4c1.6,0,2.8,1.3,2.8,2.8v54.4
		c0,1.6-1.3,2.8-2.8,2.8h-0.4c-1.6,0-2.8-1.3-2.8-2.8V17.8C39,16.3,40.3,15,41.8,15L41.8,15z M52.8,7h0.4C54.7,7,56,8.3,56,9.8v54.4
		c0,1.6-1.3,2.8-2.8,2.8h-0.4c-1.6,0-2.8-1.3-2.8-2.8V9.8C50,8.3,51.3,7,52.8,7C52.8,7,52.8,7,52.8,7z M63.8,15h0.4
		c1.6,0,2.8,1.3,2.8,2.8v54.4c0,1.6-1.3,2.8-2.8,2.8h-0.4c-1.6,0-2.8-1.3-2.8-2.8V17.8C61,16.3,62.3,15,63.8,15L63.8,15z"/>
	<path class="st1" d="M3.8,23.5h67.3c2.9,0,5.3,2.4,5.3,5.3c0,0,0,0,0,0v17.3c0,2.9-2.4,5.3-5.3,5.3l0,0H3.8c-2.9,0-5.3-2.4-5.3-5.3
		V28.8C-1.5,25.9,0.9,23.5,3.8,23.5z"/>
	<path class="st2" d="M3.8,23.5h67.3c2.9,0,5.3,2.4,5.3,5.3c0,0,0,0,0,0v17.3c0,2.9-2.4,5.3-5.3,5.3l0,0H3.8c-2.9,0-5.3-2.4-5.3-5.3
		V28.8C-1.5,25.9,0.9,23.5,3.8,23.5z"/>
	<defs>
		<filter id="Adobe_OpacityMaskFilter" filterUnits="userSpaceOnUse" x="59.8" y="32.7" width="6.4" height="6.4">
			<feColorMatrix  type="matrix" values="1 0 0 0 0  0 1 0 0 0  0 0 1 0 0  0 0 0 1 0"/>
		</filter>
	</defs>
	<mask maskUnits="userSpaceOnUse" x="59.8" y="32.7" width="6.4" height="6.4" id="b_1_">
		<g class="st3">
			<path id="a_1_" class="st4" d="M3.8,25h67.3c2.1,0,3.8,1.7,3.8,3.8v17.3c0,2.1-1.7,3.8-3.8,3.8l0,0H3.8C1.7,50,0,48.3,0,46.2
				V28.8C0,26.7,1.7,25,3.8,25z"/>
		</g>
	</mask>
	<ellipse class="st5" cx="63" cy="35.9" rx="3.2" ry="3.2"/>
	<defs>
		<filter id="Adobe_OpacityMaskFilter_1_" filterUnits="userSpaceOnUse" x="50.3" y="32.7" width="6.4" height="6.4">
			<feColorMatrix  type="matrix" values="1 0 0 0 0  0 1 0 0 0  0 0 1 0 0  0 0 0 1 0"/>
		</filter>
	</defs>
	<mask maskUnits="userSpaceOnUse" x="50.3" y="32.7" width="6.4" height="6.4" id="b_2_">
		<g class="st6">
			<path id="a_2_" class="st4" d="M3.8,25h67.3c2.1,0,3.8,1.7,3.8,3.8v17.3c0,2.1-1.7,3.8-3.8,3.8l0,0H3.8C1.7,50,0,48.3,0,46.2
				V28.8C0,26.7,1.7,25,3.8,25z"/>
		</g>
	</mask>
	<ellipse class="st7" cx="53.4" cy="35.9" rx="3.2" ry="3.2"/>
	<defs>
		<filter id="Adobe_OpacityMaskFilter_2_" filterUnits="userSpaceOnUse" x="8.8" y="35.9" width="20.7" height="15.9">
			<feColorMatrix  type="matrix" values="1 0 0 0 0  0 1 0 0 0  0 0 1 0 0  0 0 0 1 0"/>
		</filter>
	</defs>
	<mask maskUnits="userSpaceOnUse" x="8.8" y="35.9" width="20.7" height="15.9" id="b_3_">
		<g class="st8">
			<path id="a_3_" class="st4" d="M3.8,25h67.3c2.1,0,3.8,1.7,3.8,3.8v17.3c0,2.1-1.7,3.8-3.8,3.8l0,0H3.8C1.7,50,0,48.3,0,46.2
				V28.8C0,26.7,1.7,25,3.8,25z"/>
		</g>
	</mask>
	<path class="st9" d="M8.8,35.9h4.8v15.9H8.8V35.9z M16.8,35.9h4.8v15.9h-4.8L16.8,35.9z M24.7,35.9h4.8v15.9h-4.8L24.7,35.9z"/>
</g>
</svg>
