<svg xmlns="http://www.w3.org/2000/svg" width="100" height="100" viewBox="0 0 100 100">
    <g fill="none" fill-rule="evenodd" transform="translate(13 11)">
        <path fill="#F99D78" stroke="#1C272B" stroke-width="1.739" d="M8.503 57.531l-4.225-.833A3.51 3.51 0 0 1 1.476 53.8L.91 50.148a3.48 3.48 0 0 1 1.8-3.59l3.78-2.042 2.013 13.015z"/>
        <path fill="#1C272B" fill-rule="nonzero" d="M39.517 15.17H35.46V8.873h4.058z"/>
        <path fill="#FF6C37" stroke="#1C272B" stroke-width="1.739" d="M42.126 5.438c0 2.53-2.077 4.58-4.638 4.58s-4.637-2.05-4.637-4.58c0-2.529 2.076-4.58 4.637-4.58 2.561 0 4.638 2.051 4.638 4.58"/>
        <path fill="#F99D78" stroke="#1C272B" stroke-width="1.739" d="M66.473 57.531l4.225-.833A3.51 3.51 0 0 0 73.5 53.8l.565-3.653a3.48 3.48 0 0 0-1.799-3.59l-3.78-2.042-2.014 13.015z"/>
        <path fill="#FF6C37" stroke="#1C272B" stroke-width="1.739" d="M69.082 46.655c0 17.23-14.145 31.198-31.594 31.198S5.895 63.885 5.895 46.655s14.144-31.199 31.593-31.199c17.449 0 31.594 13.968 31.594 31.199"/>
        <path fill="#F99D78" stroke="#1C272B" stroke-width="1.739" d="M63.285 50.09c0 10.274-11.55 21.466-25.797 21.466S11.692 60.364 11.692 50.09c0-10.275.58-18.604 25.796-18.604 24.058 0 25.797 8.33 25.797 18.604z"/>
        <ellipse cx="21.449" cy="42.934" fill="#FFF" rx="3.478" ry="3.435"/>
        <ellipse cx="27.536" cy="46.655" fill="#FFF" rx="2.029" ry="2.004"/>
    </g>
</svg>
