<svg xmlns="http://www.w3.org/2000/svg" width="100" height="100" viewBox="0 0 100 100">
    <g fill="none" fill-rule="evenodd">
        <g transform="translate(15 15)">
            <path fill="#FFF" stroke="#1C272B" stroke-linecap="round" stroke-width="3" d="M70 67.2a2.8 2.8 0 0 1-2.8 2.8H2.8A2.8 2.8 0 0 1 0 67.2V2.8A2.8 2.8 0 0 1 2.8 0h64.4A2.8 2.8 0 0 1 70 2.8v64.4z"/>
            <path fill="#FFF" d="M3.357 2.688c-.37 0-.67.3-.67.67v64.285c0 .37.3.67.67.67h64.286c.37 0 .67-.3.67-.67V3.357c0-.37-.3-.67-.67-.67H3.357z"/>
            <rect width="53.571" height="53.571" x="8.714" y="8.714" fill="#F99D78" rx="3.025"/>
            <rect width="38.304" height="27.214" x="16.348" y="21.893" fill="#FF6C37" stroke="#FFF" stroke-width="2.679" rx="3.214"/>
        </g>
        <path fill="#FFF" d="M58.211 51.394l-11.764 5.882A1 1 0 0 1 45 56.382V44.618a1 1 0 0 1 1.447-.894l11.764 5.882a1 1 0 0 1 0 1.788z"/>
    </g>
</svg>
