<svg xmlns="http://www.w3.org/2000/svg" width="100" height="100" viewBox="0 0 100 100">
    <g fill="none" fill-rule="evenodd" transform="translate(15 15)">
        <path fill="#FFF" stroke="#1C272B" stroke-linecap="round" stroke-width="4.02" d="M70 67.2a2.8 2.8 0 0 1-2.8 2.8H2.8A2.8 2.8 0 0 1 0 67.2V2.8A2.8 2.8 0 0 1 2.8 0h64.4A2.8 2.8 0 0 1 70 2.8v64.4z"/>
        <rect width="56.538" height="56.538" x="6.731" y="6.731" fill="#FF6C37" rx="2.251"/>
        <path fill="#FFF" d="M57.447 30.252c.39 0 .584.457.309.725l-4.327 4.206a.912.912 0 0 1-1.262 0l-4.327-4.206c-.275-.268-.08-.725.309-.725h1.957a15.268 15.268 0 0 0-3.87-6.17C43.137 21.07 39.067 19.564 35 19.564c-4.068 0-8.138 1.505-11.235 4.516a15.273 15.273 0 0 0-3.888 6.202.358.358 0 0 1-.343.246h-4.295c-.24 0-.422-.22-.364-.446 1.133-4.418 3.789-8.539 8.046-11.518 7.154-5.01 17.004-5.01 24.158 0 4.31 3.017 6.97 7.205 8.077 11.687h2.291zm-2.692 9.225c.243 0 .427.224.368.452a19.902 19.902 0 0 1-5.431 9.357C45.64 53.224 40.32 55.192 35 55.192c-5.32 0-10.64-1.968-14.692-5.906a19.89 19.89 0 0 1-5.467-9.532h-2.288c-.39 0-.584-.457-.309-.725l4.635-4.507a.465.465 0 0 1 .645 0l4.636 4.507c.275.268.08.725-.309.725h-1.956a15.29 15.29 0 0 0 4.18 6.464c6.047 5.573 15.804 5.573 21.851 0a15.306 15.306 0 0 0 4.196-6.492.362.362 0 0 1 .346-.249h4.287z"/>
    </g>
</svg>
