<svg width="86" height="86" viewBox="0 0 86 86" xmlns="http://www.w3.org/2000/svg"><defs><linearGradient x1="50%" y1="0%" x2="50%" y2="100%" id="a"><stop stop-color="#FF9A20" offset="0%"/><stop stop-color="#FF7724" offset="100%"/></linearGradient><linearGradient x1="50%" y1="0%" x2="50%" y2="100%" id="b"><stop stop-color="#444E58" offset="0%"/><stop stop-color="#22312C" offset="100%"/></linearGradient></defs><g transform="translate(2 2)" fill-rule="nonzero" fill="none"><path d="M8.725 74.219C2.361 67.854 0 57.486 0 41.472S2.361 15.09 8.725 8.725C15.09 2.361 25.458 0 41.472 0s26.382 2.361 32.747 8.725c6.364 6.365 8.725 16.733 8.725 32.747s-2.361 26.382-8.725 32.747c-6.365 6.364-16.733 8.725-32.747 8.725S15.09 80.583 8.725 74.219z" fill="url(#a)"/><circle fill="#FFF" cx="41.472" cy="41.472" r="31.104"/><path d="M41.472 74.304c-18.133 0-32.832-14.7-32.832-32.832 0-18.133 14.7-32.832 32.832-32.832 18.133 0 32.832 14.7 32.832 32.832a32.753 32.753 0 01-32.832 32.832zm0-12.996l2.462-2.462-2.462-9.44-2.462 9.44 2.462 2.462zm-3.146-.137l-1.231 4.652 2.872-2.873-1.641-1.779zm6.292 0l-1.641 1.642 2.872 2.873-1.23-4.515zm2.326 8.482l-5.472-5.472L36 69.653c1.807.324 3.636.507 5.472.547a23.97 23.97 0 005.472-.547zm-5.472-56.909c-14.015-.014-25.99 10.096-28.327 23.915-2.336 13.818 5.648 27.304 18.888 31.9l6.156-22.846a5.317 5.317 0 01-2.19-4.378 5.472 5.472 0 118.756 4.378l6.156 22.845c13.24-4.595 21.224-18.08 18.888-31.9C67.462 22.84 55.487 12.73 41.472 12.745z" fill="url(#b)"/><path d="M60.213 55.699a2.123 2.123 0 01-2.872.41 1.86 1.86 0 01-.41-2.735 21.022 21.022 0 000-23.804 1.86 1.86 0 01.41-2.735 2.123 2.123 0 012.872.41 24.676 24.676 0 010 28.454zm-9.986-5.335a2.323 2.323 0 01.137-3.146 8.927 8.927 0 002.052-5.746 9.391 9.391 0 00-2.052-5.746 2.472 2.472 0 01-.137-3.146 1.885 1.885 0 012.873-.137 13.63 13.63 0 010 18.058 1.988 1.988 0 01-2.873-.137zm-17.51 0a1.988 1.988 0 01-2.873.137 13.63 13.63 0 010-18.058 1.88 1.88 0 012.873.137 2.323 2.323 0 01-.137 3.146 9.391 9.391 0 00-2.052 5.746 8.927 8.927 0 002.052 5.746c.861.851.92 2.223.137 3.146zm-7.114 5.745a2.123 2.123 0 01-2.872-.41 24.676 24.676 0 010-28.454 2.123 2.123 0 012.872-.41 1.86 1.86 0 01.41 2.735 21.022 21.022 0 000 23.804c.633.87.45 2.088-.41 2.735z" fill="#FF9A20"/></g></svg>