<svg width="86" height="86" viewBox="0 0 86 86" xmlns="http://www.w3.org/2000/svg"><path d="M67.281 38.236c-13.497-8.015-35.76-8.752-48.645-4.842a3.916 3.916 0 11-2.273-7.495c14.79-4.49 39.377-3.623 54.915 5.601a3.917 3.917 0 01-3.997 6.736zm-.442 11.872a3.266 3.266 0 01-4.49 1.075c-11.253-6.916-28.411-8.92-41.724-4.88a3.27 3.27 0 01-4.074-2.174 3.269 3.269 0 012.177-4.072c15.207-4.614 34.113-2.38 47.037 5.563a3.265 3.265 0 011.074 4.488zM61.716 61.51a2.608 2.608 0 01-3.589.868c-9.833-6.01-22.209-7.367-36.784-4.038a2.609 2.609 0 11-1.162-5.087c15.95-3.645 29.632-2.077 40.668 4.667a2.61 2.61 0 01.867 3.59zM42.513 1.116C19.388 1.116.64 19.863.64 42.987c0 23.127 18.747 41.872 41.872 41.872s41.871-18.745 41.871-41.872c0-23.125-18.746-41.871-41.871-41.871z" fill="#1ED760" fill-rule="evenodd"/></svg>