<svg width="86" height="86" viewBox="0 0 86 86" xmlns="http://www.w3.org/2000/svg"><defs><linearGradient x1="50%" y1="0%" x2="50%" y2="100%" id="a"><stop stop-color="#F452FF" offset="0%"/><stop stop-color="#832BC1" offset="100%"/></linearGradient></defs><g fill="none" fill-rule="evenodd"><path d="M80.868 71.506c-.802 2.037-2.652 4.905-5.276 6.926-1.515 1.166-3.324 2.282-5.809 3.018-2.648.785-5.91 1.05-9.97 1.05H22.686c-4.06 0-7.322-.265-9.97-1.05-2.485-.736-4.294-1.852-5.809-3.018-2.624-2.021-4.475-4.889-5.277-6.926C.016 67.402 0 62.745 0 59.812V22.687c0-2.932.016-7.589 1.632-11.693.802-2.037 2.652-4.905 5.276-6.926 1.515-1.166 3.324-2.282 5.808-3.018C15.366.265 18.627 0 22.687 0h37.126c4.06 0 7.322.265 9.97 1.05 2.485.736 4.294 1.852 5.809 3.018 2.624 2.021 4.475 4.889 5.277 6.926 1.615 4.104 1.631 8.76 1.631 11.693v37.125c0 2.933-.016 7.59-1.632 11.694z" fill="url(#a)" transform="translate(2 1)"/><path d="M82.868 72.506c-.802 2.037-2.652 4.905-5.276 6.926-1.515 1.166-3.324 2.282-5.809 3.018-2.648.785-5.91 1.05-9.97 1.05H24.686c-4.06 0-7.322-.265-9.97-1.05-2.485-.736-4.294-1.852-5.809-3.018-2.624-2.021-4.475-4.889-5.277-6.926C2.016 68.402 2 63.745 2 60.812V23.687c0-2.932.016-7.589 1.632-11.693.802-2.037 2.652-4.905 5.276-6.926 1.515-1.166 3.324-2.282 5.808-3.018C17.366 1.265 20.627 1 24.687 1h37.126c4.06 0 7.322.265 9.97 1.05 2.485.736 4.294 1.852 5.809 3.018 2.624 2.021 4.475 4.889 5.277 6.926 1.615 4.104 1.631 8.76 1.631 11.693v37.125c0 2.933-.016 7.59-1.632 11.694z"/><path d="M49.54 48.729c-1.245-1.315-3.434-2.158-6.017-2.158-2.584 0-4.773.843-6.019 2.158-.65.686-.994 1.389-1.102 2.39-.21 1.941-.092 3.611.135 6.282.217 2.545.628 5.939 1.165 9.395.382 2.46.692 3.788.974 4.739.458 1.54 2.17 2.888 4.847 2.888 2.676 0 4.388-1.348 4.846-2.888.282-.95.593-2.278.974-4.739.537-3.456.948-6.85 1.165-9.395.227-2.67.345-4.341.135-6.281-.108-1.002-.452-1.705-1.102-2.391zM36.734 37.022a6.796 6.796 0 1013.592 0 6.796 6.796 0 00-13.592 0zm6.712-26.82c-15.894.046-28.917 12.94-29.114 28.833-.16 12.874 8.058 23.887 19.534 27.924a.39.39 0 00.518-.426c-.15-.999-.292-2.004-.423-2.991a1.004 1.004 0 00-.592-.791c-9.07-3.963-15.404-13.06-15.302-23.597C18.2 25.325 29.491 14.052 43.32 13.94c14.136-.114 25.673 11.353 25.673 25.463 0 10.432-6.306 19.417-15.305 23.348-.323.141-.544.443-.59.792-.13.987-.272 1.991-.422 2.99a.39.39 0 00.517.425C64.559 62.96 72.73 52.12 72.73 39.403c0-16.129-13.145-29.245-29.285-29.2zM42.918 23.6c9.01-.35 16.45 6.88 16.45 15.813 0 4.544-1.924 8.646-5.001 11.534a1.21 1.21 0 00-.381.95c.061 1.087.039 2.143-.033 3.336-.02.317.336.52.6.34 5.159-3.525 8.552-9.453 8.552-16.16 0-11.043-9.198-19.979-20.335-19.547-10.35.401-18.655 8.935-18.787 19.292-.087 6.812 3.327 12.846 8.553 16.417a.384.384 0 00.598-.342c-.072-1.193-.095-2.25-.033-3.336.02-.357-.12-.704-.381-.949a15.784 15.784 0 01-4.997-11.96c.218-8.293 6.904-15.067 15.195-15.388z" fill="#FFF" fill-rule="nonzero"/></g></svg>