<svg width="202" height="31" viewBox="0 0 202 31" xmlns="http://www.w3.org/2000/svg"><g fill="#fff" fill-rule="nonzero"><path d="M.09 15.66v-3.18c0-1.38.63-2.43 1.8-3.09C6 7.02 10.11 4.71 14.22 2.37c.96-.54 1.92-1.11 2.91-1.65 1.26-.69 2.49-.69 3.75.03 3.24 1.86 6.45 3.72 9.69 5.58 1.77 1.02 3.54 2.04 5.31 3.09 1.14.69 1.74 1.74 1.74 3.09v6.33c0 1.5-.75 2.55-2.04 3.27-2.67 1.47-5.34 2.97-8.01 4.47-2.25 1.26-4.53 2.55-6.78 3.78-1.23.69-2.46.57-3.69-.09-2.97-1.62-5.94-3.24-8.88-4.86-2.1-1.14-4.2-2.28-6.27-3.45-1.2-.69-1.8-1.74-1.8-3.12-.06-1.08-.06-2.13-.06-3.18zm5.97-3.15c.45-.24.87-.48 1.29-.72 2.01-1.14 4.02-2.28 6.06-3.42 1.8-1.02 3.6-2.04 5.37-3.06.18-.12.33-.12.51 0 1.11.63 2.19 1.26 3.3 1.92 2.25 1.32 4.53 2.61 6.78 3.93 1.35.78 2.73 1.56 4.08 2.37.18.12.39.18.6.18.51-.03.99-.39 1.08-.87.12-.54-.09-1.02-.57-1.29-1.32-.78-2.67-1.53-3.99-2.31l-6.21-3.6c-1.59-.93-3.18-1.83-4.74-2.76-.39-.21-.78-.24-1.17 0-.3.18-.6.33-.9.51-2.46 1.35-4.89 2.73-7.35 4.11l-7.02 3.96c-.42.24-.66.6-.63 1.08.03.45.27.78.66.99l1.89 1.08c1.89 1.08 3.78 2.13 5.67 3.21l5.4 3.06 2.25 1.26c.51.3 1.14.15 1.47-.3.42-.6.27-1.32-.39-1.71-1.92-1.08-3.84-2.19-5.76-3.27-2.13-1.2-4.23-2.4-6.36-3.6-.42-.24-.87-.48-1.32-.75zm12.96 15.84c.21.03.42-.06.6-.15 1.32-.75 2.64-1.47 3.96-2.22 1.44-.81 2.91-1.62 4.35-2.43 1.44-.81 2.85-1.59 4.29-2.4.78-.42 1.56-.87 2.34-1.29.57-.33.78-1.02.45-1.56-.33-.57-.99-.78-1.56-.45-2.1 1.17-4.23 2.34-6.33 3.54-2.64 1.47-5.31 2.97-7.95 4.44-.12.06-.21.06-.33 0-1.41-.78-2.82-1.53-4.2-2.31-3.48-1.92-6.96-3.81-10.44-5.7a1.1 1.1 0 00-.87-.09c-.48.12-.75.45-.84.93-.09.51.15.93.6 1.2L10.65 24c2.58 1.41 5.13 2.82 7.71 4.23.21.06.42.12.66.12zM49.92 17.55c-1.35-.33-2.64-.9-3.81-1.65a7.33 7.33 0 01-3.21-5.97c-.15-1.98.51-3.93 1.83-5.4a8.594 8.594 0 015.85-2.61c3.66 0 5.7 1.41 7.53 2.64l.84.57-2.61 4.5-.9-.6c-1.62-1.08-2.67-1.8-4.83-1.8-.33 0-1.59.27-2.22.99-.21.24-.48.63-.42 1.5.03 1.35.93 2.13 3.24 2.73.3.06.51.15.72.24 2.4.87 4.26 2.04 5.55 3.51 1.26 1.41 1.95 3.27 1.98 5.16a8.29 8.29 0 01-2.01 5.25c-1.41 1.74-3.54 2.73-5.79 2.73-1.5.03-2.97-.21-4.41-.63a13.81 13.81 0 01-6-4.02l3.66-3.63a8.481 8.481 0 006.75 3c2.07 0 2.76-2.01 2.76-2.67 0-1.44-1.53-2.76-4.17-3.69l-.12-.03-.21-.12zM81.03 2.28v5.28h-6.96V28.8h-5.01V7.59h-6.99V2.28h18.96zM98.34 23.88H87.93l-2.34 4.92h-5.64L92.76 2.31h1.47l11.88 26.49h-5.55l-2.22-4.92zM96 18.6l-2.61-5.91-2.85 5.91H96zM124.74 8.73c-4.86-3.33-12.21-.24-12.21 6.87 0 7.44 7.77 10.44 12.51 6.66l3.24 3.9a12.703 12.703 0 01-8.31 3.18c-7.17 0-13.02-6.15-13.02-13.71 0-7.56 5.85-13.74 13.02-13.74 2.94.03 5.76 1.05 8.04 2.91l-3.27 3.93zm14.1 7.92l-1.95 2.07v10.02h-5.01V2.28h5.01v8.55l7.35-8.55h6.78l-8.79 10.35 9 16.11h-6l-6.39-12.09zM162.6 24.27a3.124 3.124 0 003.09-3.18 3.15 3.15 0 00-3.09-3.21h-8.22V2.28h6.84c4.05 0 7.35 3.48 7.35 7.74 0 1.56-.45 3.06-1.29 4.35 1.89 1.56 3 3.9 2.97 6.36 0 4.47-3.42 8.01-7.59 8.01h-1.8v-4.5l1.74.03zm-1.59-11.52a3.003 3.003 0 002.91-3.06 2.945 2.945 0 00-2.88-3h-2.19v6.06h2.16zM174.63 28.74V2.28h5.01v26.46h-5.01zm27.21-26.46v5.28h-6.96V28.8h-5.01V7.59h-6.99V2.28h18.96z"/><path d="M159.03 28.77h-4.65v-4.5h4.65z"/></g></svg>