<svg width="195" height="41" viewBox="0 0 195 41" fill="none" xmlns="http://www.w3.org/2000/svg"><path d="M1.128 15.893L11.4 5.633l10.271 10.26" stroke="#fff" stroke-width="2.495" stroke-miterlimit="10"/><path d="M1.128 24.986L11.4 14.726l10.271 10.26M41.046 14.726l-10.271 10.26-10.272-10.26" stroke="#fff" stroke-width="2.495" stroke-miterlimit="10"/><path d="M41.046 5.633l-10.271 10.26-10.272-10.26" stroke="#fff" stroke-width="2.495" stroke-miterlimit="10"/><path d="M11.4 41V0z" fill="#fff"/><path d="M11.4 41V0" stroke="#fff" stroke-width="2.495" stroke-miterlimit="10"/><path d="M30.774 41V0z" fill="#fff"/><path d="M30.774 41V0" stroke="#fff" stroke-width="2.495" stroke-miterlimit="10"/><path d="M51.318 30.74h3.625v-8.49h9.063v-3.299h-9.063v-5.392h9.587V10.26H51.318v20.48zM85.235 12.634a9.627 9.627 0 00-3.464-2.173 12.176 12.176 0 00-4.39-.724 12.016 12.016 0 00-4.351.765 9.871 9.871 0 00-3.424 2.172 10.06 10.06 0 00-2.256 3.42 11.858 11.858 0 00-.805 4.466c-.025 1.501.249 2.992.805 4.386a9.777 9.777 0 005.68 5.553c1.39.521 2.865.78 4.35.764 1.5.004 2.99-.269 4.39-.805a10.314 10.314 0 003.465-2.212 10.019 10.019 0 002.256-3.38c.555-1.395.829-2.885.805-4.386a11.737 11.737 0 00-.805-4.466 9.977 9.977 0 00-2.256-3.38zm-1.249 10.783a7.078 7.078 0 01-1.45 2.414 6.605 6.605 0 01-2.215 1.61 7.056 7.056 0 01-2.9.563 6.934 6.934 0 01-2.9-.563 6.644 6.644 0 01-2.216-1.61 7.08 7.08 0 01-1.45-2.414 8.805 8.805 0 01-.524-3.018 7.998 7.998 0 01.523-2.856 7.08 7.08 0 011.45-2.334 6.606 6.606 0 012.216-1.569 7.095 7.095 0 012.9-.563 7.217 7.217 0 012.9.563c.84.363 1.595.898 2.216 1.57a7.08 7.08 0 011.45 2.333 7.96 7.96 0 01.524 2.857 8.763 8.763 0 01-.524 3.017zM104.65 19.876a5.71 5.71 0 001.248-3.742 5.74 5.74 0 00-.644-2.856 4.91 4.91 0 00-1.692-1.81 7.338 7.338 0 00-2.457-.926c-.942-.188-1.9-.283-2.86-.282h-7.13v20.48h3.666v-8.65h2.658l4.753 8.69h4.391l-5.438-9.093a5.28 5.28 0 003.505-1.81zm-5.479-1.006l-1.57.081h-2.82v-5.553h3.142l1.45.081c.459.052.907.174 1.329.362.39.175.724.453.967.805.264.435.39.94.362 1.448.033.552-.108 1.101-.402 1.57a2.461 2.461 0 01-1.048.844 4.749 4.749 0 01-1.41.363zM112.746 21.888h9.426v-3.3h-9.426V13.56h9.95V10.26h-13.575v20.48h14.098v-3.3h-10.473v-5.552zM136.955 20.037a9.553 9.553 0 00-2.336-1.046l-2.336-.764a7.058 7.058 0 01-1.813-.966 1.886 1.886 0 01-.725-1.61c-.015-.42.083-.836.282-1.206.189-.324.451-.6.765-.805a3.35 3.35 0 011.088-.443 5.159 5.159 0 011.249-.16c.704 0 1.402.136 2.054.402a3.386 3.386 0 011.531 1.247l2.658-2.816a7.33 7.33 0 00-2.739-1.61 10.122 10.122 0 00-3.142-.483 10.405 10.405 0 00-2.779.363 7.495 7.495 0 00-2.417 1.126 5.999 5.999 0 00-1.692 1.931 5.5 5.5 0 00-.644 2.736 5.18 5.18 0 00.725 2.897 5.675 5.675 0 001.812 1.73c.73.45 1.516.8 2.337 1.047l2.336.804c.658.247 1.27.6 1.813 1.046a2.135 2.135 0 01.725 1.73c.009.438-.102.87-.323 1.248-.21.356-.499.659-.845.885a3.999 3.999 0 01-1.169.523 4.92 4.92 0 01-3.585-.402 4.59 4.59 0 01-1.732-1.57l-2.779 2.616a7.089 7.089 0 003.021 2.132 10.77 10.77 0 003.666.644c.967.004 1.931-.132 2.86-.402a7.057 7.057 0 002.376-1.207 5.837 5.837 0 001.652-2.052 6.45 6.45 0 00.604-2.897 5.263 5.263 0 00-.725-2.937 5.796 5.796 0 00-1.773-1.73zM141.023 13.56h6.284v17.18h3.626V13.56h6.283v-3.3h-16.193v3.3zM173.973 19.876a5.706 5.706 0 001.249-3.742 5.786 5.786 0 00-.644-2.856 4.92 4.92 0 00-1.692-1.81 7.296 7.296 0 00-2.457-.926c-.942-.189-1.9-.283-2.86-.282h-7.13v20.48h3.666v-8.65h2.658l4.753 8.69h4.391l-5.438-9.093a5.275 5.275 0 003.504-1.81zm-5.478-1.006l-1.571.081h-2.819v-5.553h3.141l1.451.081a4.56 4.56 0 011.329.362c.39.175.724.453.967.805.263.435.39.94.362 1.448.033.552-.108 1.101-.403 1.57a2.453 2.453 0 01-1.047.844 4.798 4.798 0 01-1.41.363zM190.65 10.26l-5.116 8.168-5.035-8.168h-4.552l7.694 11.709v8.771h3.625v-8.771L195 10.26h-4.35z" fill="#fff"/></svg>