<svg width="308" height="43" viewBox="0 0 308 43" xmlns="http://www.w3.org/2000/svg"><g fill="#fff" fill-rule="evenodd"><path d="M61.5 39.66c-4.32 0-8.28-.48-11.76-3.96l4.5-4.5c2.28 2.28 5.22 2.58 7.38 2.58 2.4 0 4.86-.78 4.86-2.88 0-1.38-.72-2.34-2.94-2.52l-4.32-.42c-4.98-.48-8.04-2.64-8.04-7.74 0-5.7 5.04-8.82 10.68-8.82 4.32 0 7.92.72 10.56 3.24l-4.26 4.32c-1.62-1.44-4.02-1.86-6.42-1.86-2.76 0-3.9 1.26-3.9 2.64 0 1.02.42 2.16 2.88 2.4l4.32.42c5.46.54 8.22 3.42 8.22 8.1 0 6.12-5.22 9-11.76 9zm23.76-.3c-5.64 0-7.98-3.96-7.98-7.92V17.76h-2.94v-5.22h2.94V4.38h6.9v8.16h4.86v5.22h-4.86v13.26c0 1.56.72 2.52 2.4 2.52h2.52v5.82h-3.84zM92.1 7.02V1.38h7.08v5.64H92.1zm.12 32.34v-27.6h6.9v27.6h-6.9zm22.44.3c-5.52 0-12.36-2.94-12.36-14.16 0-11.16 6.84-14.1 12.36-14.1 3.84 0 6.66 1.14 9.12 3.72l-4.68 4.68c-1.44-1.56-2.64-2.16-4.44-2.16-1.62 0-2.94.6-3.9 1.8-1.08 1.32-1.56 3.18-1.56 6.12s.48 4.8 1.56 6.18c1.02 1.2 2.28 1.8 3.9 1.8 1.8 0 3-.66 4.44-2.16l4.68 4.62c-2.46 2.46-5.28 3.66-9.12 3.66zm28.14-.3l-6.78-11.52-2.94 3.3v8.22h-6.9V1.62h6.9v21.42l9.18-11.28h8.34l-9.84 11.16 10.62 16.5h-8.58v-.06z" fill-rule="nonzero"/><path d="M157.08 27.66c0 3.54 2.16 6.12 6.06 6.12 3 0 4.5-.84 6.24-2.58l4.2 4.08c-2.82 2.82-5.52 4.32-10.5 4.32-6.54 0-12.78-2.94-12.78-14.16 0-9 4.86-14.1 12.06-14.1 7.68 0 12.06 5.64 12.06 13.2v3.06h-17.34v.06zm9.9-7.68c-.72-1.62-2.28-2.88-4.62-2.88-2.34 0-3.9 1.2-4.62 2.88-.42 1.02-.6 1.74-.66 2.94h10.5c-.06-1.2-.18-1.92-.6-2.94zm25.68-.72c-1.08-1.08-1.98-1.62-3.66-1.62-2.1 0-4.44 1.62-4.44 5.1v16.62h-6.9v-27.6h6.72v2.64c1.32-1.62 3.96-2.94 6.96-2.94 2.7 0 4.62.66 6.54 2.58l-5.22 5.22z" fill-rule="nonzero"/><path d="M28.5 42.42c-.42.18-.96.12-1.5.18-.48 0-1.14 0-1.44-.24-.18-.12-.18-.42-.18-.6s.06-.48.06-.66c.06-.24.12-.6 0-.78-.12-.18-.54-.12-.78-.24s-.3-.48-.36-.84c0-.12-.12-.24-.12-.3-.06-.54.12-1.32.24-1.86.12-.6.3-1.14.42-1.74.18-.84.18-1.8.12-2.7 0-.48-.12-.84 0-1.2.06-.36.24-.66.3-1.02v-.36c0-.12.06-.18.06-.3 0-.24-.06-.54-.06-.84-.06-.78 0-1.92.06-2.58 0-.24.12-.48-.06-.6-.84 0-1.56.12-2.34.24-2.04.24-4.68.3-6.66-.12-.18-.06-.36-.06-.54-.06-1.44-.3-2.7-.96-3.72-1.74-.18-.12-.36-.24-.54-.42-.18-.12-.36-.3-.54-.42-.78-.36-1.86.06-2.22.6-.12.18-.24.48-.36.72s-.24.48-.3.72c-.54 1.2-1.14 2.4-1.68 3.6-.3.72-.66 1.5-.9 2.28-.48 1.68-.06 3.9.36 5.52.06.12.12.3.18.48.12.36.36.9.66 1.14.18.12.42.24.6.36.24.18.36.54.54.9.06.12.18.3.24.48.18.36.3.66-.12.9-.3.18-.78.18-1.2.24-.18.06-.12.3-.24.42-.06.06-.36.18-.48.24-.54.18-1.5.18-1.92 0-.24-.06-.48-.24-.54-.42-.12-.36.18-.78-.06-1.02-.12-.12-.36-.12-.54-.18-.3-.12-.54-.42-.72-.72-.3-.84-.12-2.1-.18-3.12 0-.3-.06-.6-.06-.96 0-.6-.18-1.2-.24-1.8-.06-.3-.12-.54-.18-.78-.12-.42-.18-.9-.3-1.32-.12-.48-.12-.96 0-1.32.06-.12.18-.24.24-.36.12-.24.12-.48.12-.72-.06-.12-.36 0-.42-.12-.18-1.32-.36-2.58-.48-3.96-.06-.48-.06-.9-.06-1.38-.06-.9 0-1.86-.12-2.76l-.18-1.26c-.18-1.2-.48-2.7-.24-3.96.18-.78.42-1.44.9-2.04.3-.42.66-.78 1.02-1.2.36-.36.78-.72 1.2-1.02.3-.18.6-.42.9-.6.66-.3 1.56-.6 2.52-.66.96-.06 2.04-.06 2.94.12.9.18 1.8.3 2.7.48.84.18 1.68.42 2.52.6.12 0 .18.12.3.12.24.06.54.06.84.18.78.18 1.74.3 2.7.3 1.02 0 1.92 0 2.76-.24.12-.06.24-.12.36-.12.12-.06.3-.06.42-.06.06 0 .18-.12.24-.18.48-.24.9-.48 1.32-.78.36-.24.6-.42 1.08-.6.18-.06.42-.18.6-.24.42-.12.9-.24 1.2-.48.54-.3.9-.78 1.32-1.2.42-.36.9-.78 1.38-1.14.96-.78 1.92-1.44 2.82-2.16.48-.36.96-.72 1.5-1.02 1.02-.6 2.1-1.26 3.6-1.38.6-.06 1.2-.06 1.8 0 .18 0 .36.12.54.06.18-.06.3-.3.36-.48.24-.42.36-.66.6-1.14.12-.3.06-.6.36-.6s.24.78.24 1.08c0 .36-.06.84 0 1.08.06.18.3.42.54.42.18 0 .3-.12.42-.24.18-.12.3-.12.42-.24.24-.18.54-.48.78-.72.18-.18.54-.72.84-.66.6.06 0 .96-.12 1.2-.3.66-.6 1.2-.96 1.8-.12.24-.48.6-.48.9 0 .18.18.3.24.54.06.12.06.18.12.3.18.48.36 1.14.54 1.68.12.48.24.96.42 1.38.18.42.42.84.6 1.32.06.12.06.24.12.36.36.96.72 2.04 1.2 3 .18.36.42.84.42 1.38 0 .6-.3.9-.6 1.38-.12.24-.36.6-.6.66-.18.06-.36 0-.54 0-.24.06-.42.18-.6.18-.54.06-1.08-.36-1.2-.78-.06-.12 0-.3-.06-.48-.12-.66-.48-.96-.9-1.44-.3-.3-.54-.48-.9-.66-.54-.3-1.08-.42-1.68-.72-.18-.12-.48-.24-.66-.18-.3.06-.6.54-.84.84-1.44 1.92-2.76 3.9-4.14 5.76-.96 1.26-1.92 2.52-2.7 3.9-.18.36-.3.78-.48 1.2-.12.42-.24.84-.36 1.32-.54 1.56-.72 3.48-1.2 5.1-.06.18-.06.36-.12.54-.24.84-.48 1.8-.72 2.7-.18.66-.24 1.56-.3 2.4 0 .84-.06 1.98.24 2.46.18.3.72.36.9.66.12.18.24.6.42.84.12.18.42.54.36.84 0 .18-.18.36-.36.42s-.42.06-.6.12c0 .24.06.48-.12.6z"/><path d="M228.84 11.4c-3.42 0-5.94 1.08-8.28 3.48-1.74-2.4-4.26-3.48-7.32-3.48-2.52 0-5.1 1.02-6.9 2.88v-2.52h-6.72v27.6h6.9V22.68c0-3.78 2.46-5.04 4.62-5.04s4.56 1.26 4.56 5.04v16.68h6.9V22.5c0-3.6 2.52-4.86 4.62-4.86 2.16 0 4.56 1.26 4.56 5.04v16.68h6.9V21.72c0-3-.78-5.64-3-7.86-1.62-1.56-4.08-2.46-6.84-2.46zm29.94 17.04c0 3.78-2.46 5.04-4.62 5.04s-4.56-1.26-4.56-5.04V11.7h-6.9v17.7c0 3 .6 5.64 2.82 7.86 1.56 1.56 3.78 2.46 6.54 2.46 2.52 0 5.1-.96 6.9-2.88v2.52h6.72v-27.6h-6.9v16.68zm18.18 2.58V1.62h-6.9v29.82c0 3.9 2.4 7.92 8.04 7.92h3.9v-5.82h-2.64c-1.74 0-2.4-.84-2.4-2.52zm30.36-6.42c0-7.56-4.32-13.2-12.06-13.2-7.14 0-12.06 5.1-12.06 14.1 0 11.16 6.24 14.16 12.78 14.16 4.98 0 7.68-1.56 10.5-4.32l-4.2-4.08c-1.74 1.74-3.24 2.58-6.24 2.58-3.9 0-6.06-2.58-6.06-6.12h17.28V24.6h.06zm-17.28-1.62c.06-1.2.24-1.98.66-2.94.72-1.62 2.28-2.88 4.62-2.88 2.34 0 3.84 1.2 4.62 2.88.42 1.02.6 1.74.66 2.94h-10.56z" fill-rule="nonzero"/></g></svg>