<svg width="184" height="50" viewBox="0 0 184 50" fill="none" xmlns="http://www.w3.org/2000/svg"><g clip-path="url(#clip0)" fill="#fff"><path d="M109.185 21.755h4.86v17.358h-4.86v-2.257c-1.736 2.604-3.993 2.778-5.381 2.778-5.381 0-8.853-4.166-8.853-9.2 0-5.208 3.472-9.2 8.506-9.2 1.388 0 3.992.173 5.554 2.777v-2.256h.174zm-9.027 8.679c0 2.777 1.91 4.86 4.861 4.86 2.777 0 4.86-2.083 4.86-4.86s-1.909-4.86-4.86-4.86c-2.778 0-4.861 2.082-4.861 4.86zm23.434-4.513v13.192h-4.86V25.921h-1.909v-4.166h1.909v-5.902h4.86v5.902h3.299v4.166h-3.299zm14.755 0c-1.215-1.042-2.256-1.215-2.777-1.215-1.215 0-1.91.52-1.91 1.388 0 .521.174 1.042 1.563 1.563l1.215.347c1.388.52 3.471 1.041 4.339 2.43.521.694.868 1.736.868 2.95 0 1.563-.52 3.125-1.909 4.34-1.389 1.216-3.125 1.91-5.208 1.91-3.645 0-5.554-1.736-6.77-2.951l2.604-2.951c1.042 1.041 2.43 2.083 3.819 2.083 1.389 0 2.43-.694 2.43-1.91 0-1.04-.868-1.562-1.562-1.735l-1.041-.347c-1.216-.521-2.604-1.042-3.646-2.083-.868-.868-1.388-1.91-1.388-3.299 0-1.735.867-3.124 1.735-3.992 1.389-1.042 3.125-1.215 4.514-1.215 1.215 0 3.298.173 5.554 1.91l-2.43 2.777zm10.589-1.91c1.736-2.43 4.166-2.777 5.555-2.777 5.034 0 8.505 3.992 8.505 9.2 0 5.207-3.471 9.2-8.679 9.2-1.042 0-3.645-.174-5.555-2.778v2.257h-4.687V9.951h4.861v14.06zm-.521 6.423c0 2.777 1.91 4.86 4.86 4.86 2.778 0 4.861-2.083 4.861-4.86s-1.91-4.86-4.861-4.86c-2.95 0-4.86 2.082-4.86 4.86zm22.566 6.075l-8.332-14.754h5.728l5.381 9.894 4.861-9.894h5.555l-13.887 26.558h-5.555l6.249-11.804zM93.736 24.706H81.585v4.86h6.422c-1.041 3.298-3.471 5.555-7.984 5.555-5.034 0-8.68-4.166-8.68-9.2 0-5.034 3.472-9.374 8.506-9.374 2.777 0 5.555 1.389 7.29 3.645l3.993-2.603c-2.604-3.646-6.77-5.729-11.283-5.729-7.638 0-13.887 6.25-13.887 14.06 0 7.812 5.902 14.061 13.887 14.061s13.887-6.249 13.887-14.06c.173-.521 0-.868 0-1.215zM24.302.925C10.936.925 0 11.86 0 25.226c0 13.367 10.936 24.302 24.302 24.302s24.302-10.935 24.302-24.302C48.604 11.86 37.668.925 24.302.925zm-13.54 37.841c-3.645-3.645-5.554-8.506-5.554-13.192l18.92 18.747c-4.86-.174-9.72-1.91-13.366-5.555zM28.468 43.8L5.728 21.06c1.91-8.505 9.547-14.928 18.574-14.928 6.422 0 11.977 3.125 15.449 7.811L37.147 16.2c-2.95-3.992-7.638-6.596-12.845-6.596-6.77 0-12.498 4.34-14.755 10.415L29.51 39.98c5.034-1.736 8.853-6.075 10.068-11.283h-8.332v-3.472h12.151c0 9.027-6.422 16.665-14.928 18.574z"/></g><defs><clipPath id="clip0"><path fill="#fff" d="M0 .925h184v48.604H0z"/></clipPath></defs></svg>