<svg width="317" height="59" viewBox="0 0 317 59" xmlns="http://www.w3.org/2000/svg" xmlns:xlink="http://www.w3.org/1999/xlink"><defs><path d="M3.599 2.512H1.407a1.182 1.182 0 110-2.365H3.6a1.183 1.183 0 010 2.365" id="a"/><path d="M34.231.183v9.105c0 8.674-7.058 15.727-15.731 15.727-8.674 0-15.732-7.053-15.732-15.727V.183H.12v9.105c0 10.134 8.245 18.377 18.38 18.377 10.134 0 18.38-8.242 18.38-18.377V.183h-2.649" id="c"/><path d="M.16 2.258c0-.984.797-1.78 1.78-1.78h11.12a1.78 1.78 0 010 3.56H1.94a1.78 1.78 0 01-1.78-1.78" id="e"/><path d="M32 18.554v-3.351h-6.342c-.806 0-1.513-.613-1.534-1.408a1.456 1.456 0 011.466-1.484H32C31.997 5.511 26.401 0 19.5 0S7.003 5.512 7 12.311h6.118c.803 0 1.504.61 1.528 1.402a1.456 1.456 0 01-1.467 1.49H7v3.351h6.118c.803 0 1.504.61 1.528 1.402a1.456 1.456 0 01-1.467 1.49H7v3.35h6.118c.803 0 1.504.61 1.528 1.402a1.456 1.456 0 01-1.467 1.49H7C7.003 34.489 12.599 40 19.5 40S31.997 34.488 32 27.689h-6.41c-.81 0-1.466-.648-1.466-1.446 0-.799.657-1.446 1.467-1.446H32v-3.352h-6.342c-.806 0-1.513-.612-1.534-1.407a1.456 1.456 0 011.466-1.484H32z" id="g"/></defs><g fill="none" fill-rule="evenodd"><g><path d="M3.422 20.512H1.23a1.182 1.182 0 110-2.364h2.192a1.182 1.182 0 010 2.364"/><path d="M3.422 20.512H1.23a1.182 1.182 0 110-2.364h2.192a1.182 1.182 0 010 2.364" fill="#EC5033"/><g transform="translate(34 18)"><mask id="b" fill="#fff"><use xlink:href="#a"/></mask><path d="M3.599 2.512H1.407a1.182 1.182 0 110-2.365H3.6a1.183 1.183 0 010 2.365" fill="#EC5033" mask="url(#b)"/></g><g transform="translate(1 18)"><mask id="d" fill="#fff"><use xlink:href="#c"/></mask><path d="M34.231.183v9.105c0 8.674-7.058 15.727-15.731 15.727-8.674 0-15.732-7.053-15.732-15.727V.183H.12v9.105c0 10.134 8.245 18.377 18.38 18.377 10.134 0 18.38-8.242 18.38-18.377V.183h-2.649" fill="#EC5033" mask="url(#d)"/></g><path fill="#EC5033" d="M17.091 52.62h4.817v-7.115h-4.817z"/><g transform="translate(12 53.5)"><mask id="f" fill="#fff"><use xlink:href="#e"/></mask><path d="M.16 2.258c0-.984.797-1.78 1.78-1.78h11.12a1.78 1.78 0 010 3.56H1.94a1.78 1.78 0 01-1.78-1.78" fill="#EC5033" mask="url(#f)"/></g><use fill="#EC5033" xlink:href="#g"/></g><path d="M57.64 44V32.096h5.088c2.656 0 4.912-.472 6.768-1.416 1.856-.944 3.256-2.24 4.2-3.888.944-1.648 1.416-3.528 1.416-5.64 0-3.392-1.056-6.088-3.168-8.088-2.112-2-5.184-3-9.216-3H49.432V44h8.208zm4.176-18.48H57.64v-8.832h4.176c3.296 0 4.944 1.488 4.944 4.464 0 2.912-1.648 4.368-4.944 4.368zm31.456 18.816c3.168 0 6.056-.744 8.664-2.232 2.608-1.488 4.672-3.56 6.192-6.216 1.52-2.656 2.28-5.648 2.28-8.976 0-3.328-.752-6.312-2.256-8.952-1.504-2.64-3.56-4.704-6.168-6.192-2.608-1.488-5.512-2.232-8.712-2.232-3.168 0-6.056.744-8.664 2.232-2.608 1.488-4.672 3.552-6.192 6.192-1.52 2.64-2.28 5.624-2.28 8.952 0 3.328.76 6.32 2.28 8.976 1.52 2.656 3.584 4.728 6.192 6.216 2.608 1.488 5.496 2.232 8.664 2.232zm0-7.68c-2.688 0-4.824-.88-6.408-2.64-1.584-1.76-2.376-4.128-2.376-7.104 0-3.008.792-5.384 2.376-7.128 1.584-1.744 3.72-2.616 6.408-2.616s4.824.88 6.408 2.64c1.584 1.76 2.376 4.128 2.376 7.104s-.8 5.344-2.4 7.104c-1.6 1.76-3.728 2.64-6.384 2.64zM125.832 44c3.616 0 6.76-.72 9.432-2.16 2.672-1.44 4.72-3.448 6.144-6.024 1.424-2.576 2.136-5.528 2.136-8.856 0-3.328-.712-6.272-2.136-8.832-1.424-2.56-3.464-4.544-6.12-5.952-2.656-1.408-5.808-2.112-9.456-2.112h-12.816V44h12.816zm-.72-7.344h-3.888V17.264h3.888c3.2 0 5.688.848 7.464 2.544 1.776 1.696 2.664 4.08 2.664 7.152s-.888 5.456-2.664 7.152c-1.776 1.696-4.264 2.544-7.464 2.544zm36.592 7.632c4.32 0 7.896-1.144 10.728-3.432 2.832-2.288 4.664-5.352 5.496-9.192h-8.688c-.64 1.536-1.624 2.752-2.952 3.648-1.328.896-2.904 1.344-4.728 1.344-2.4 0-4.336-.872-5.808-2.616-1.472-1.744-2.208-4.088-2.208-7.032s.736-5.296 2.208-7.056c1.472-1.76 3.408-2.64 5.808-2.64 1.824 0 3.4.448 4.728 1.344 1.328.896 2.312 2.128 2.952 3.696h8.688c-.832-3.872-2.664-6.944-5.496-9.216-2.832-2.272-6.408-3.408-10.728-3.408-3.296 0-6.192.728-8.688 2.184-2.496 1.456-4.424 3.496-5.784 6.12-1.36 2.624-2.04 5.616-2.04 8.976 0 3.36.68 6.352 2.04 8.976 1.36 2.624 3.288 4.664 5.784 6.12 2.496 1.456 5.392 2.184 8.688 2.184zM186.728 44l2.112-6.192h12.72L203.672 44h8.736l-12.432-33.696h-9.456L178.088 44h8.64zm12.72-12.432h-8.496l4.272-12.48 4.224 12.48zm26.656 12.768c2.528 0 4.68-.448 6.456-1.344 1.776-.896 3.12-2.096 4.032-3.6.912-1.504 1.368-3.152 1.368-4.944 0-2.208-.496-4-1.488-5.376-.992-1.376-2.176-2.424-3.552-3.144-1.376-.72-3.152-1.448-5.328-2.184-1.504-.544-2.656-.992-3.456-1.344-.8-.352-1.464-.808-1.992-1.368s-.792-1.24-.792-2.04c0-.992.296-1.744.888-2.256.592-.512 1.368-.768 2.328-.768 1.12 0 2.008.328 2.664.984.656.656 1.064 1.544 1.224 2.664h8.88c-.288-3.136-1.544-5.6-3.768-7.392-2.224-1.792-5.224-2.688-9-2.688-2.336 0-4.408.392-6.216 1.176-1.808.784-3.224 1.912-4.248 3.384s-1.536 3.216-1.536 5.232c0 2.176.488 3.944 1.464 5.304.976 1.36 2.144 2.384 3.504 3.072 1.36.688 3.112 1.4 5.256 2.136 1.472.512 2.624.952 3.456 1.32.832.368 1.528.84 2.088 1.416s.84 1.296.84 2.16c0 .96-.304 1.728-.912 2.304-.608.576-1.44.864-2.496.864-1.216 0-2.216-.368-3-1.104-.784-.736-1.24-1.744-1.368-3.024h-8.736c.224 3.328 1.568 5.92 4.032 7.776 2.464 1.856 5.6 2.784 9.408 2.784zM255.688 44V16.592h9.216v-6.528h-26.592v6.528h9.12V44h8.256zm31.792 0v-6.576h-12.912v-7.536h11.472v-6.192h-11.472v-7.104h12.912v-6.528h-21.12V44h21.12zm10.864 0V31.184h1.872L307.56 44h9.072l-8.064-13.344c2.592-.64 4.568-1.824 5.928-3.552 1.36-1.728 2.04-3.824 2.04-6.288 0-2.08-.464-3.928-1.392-5.544-.928-1.616-2.32-2.888-4.176-3.816-1.856-.928-4.128-1.392-6.816-1.392h-14.016V44h8.208zm5.088-18.432h-5.088v-8.592h5.088c1.6 0 2.792.384 3.576 1.152.784.768 1.176 1.824 1.176 3.168 0 1.408-.384 2.472-1.152 3.192-.768.72-1.968 1.08-3.6 1.08z" fill="#E2E2E2" fill-rule="nonzero"/></g></svg>