<svg width="138" height="37" viewBox="0 0 138 37" xmlns="http://www.w3.org/2000/svg"><path d="M26.374 15.835H14.912a.534.534 0 01.534 0v5.581h4.471v6.934s-1.004.341-3.78.341c-3.274 0-7.848-1.191-7.848-11.21 0-10.02 4.763-11.338 9.235-11.338 3.871 0 5.539.678 6.6 1.005.334.102.642-.229.642-.524l1.278-5.392a.497.497 0 00-.204-.416c-.965.761-3.594-.704-10.236-.704C7.953.112.104 3.354.104 18.94c0 15.585 8.986 17.908 16.558 17.908 6.27 0 10.073-2.668 10.073-2.668.157-.087.174-.305.174-.405V16.37a.534.534 0 01-.534 0M85.441 1.98a.533.533 0 01-.536 0H78.45a.535.535 0 01.537 0L78.99 14.4H68.93V1.98a.533.533 0 01-.536 0H61.94a.535.535 0 01.537 0v33.632c0 .297.24.538.533.538h6.453V21.765h10.06l-.018 14.385c0 .297.24.538.535.538h6.468a.535.535 0 00.533-.538V1.98M38.55 6.392c0-2.315-1.862-4.185-4.16-4.185-2.297 0-4.162 1.87-4.162 4.185 0 2.312 1.865 4.187 4.161 4.187 2.299 0 4.161-1.875 4.161-4.187m-.46 22.125V12.993a.535.535 0 01-.537 0h-6.433c-.295 0-.559.303-.559.598v22.242c0 .654.409.848.938.848h5.796c.636 0 .792-.31.792-.858v-6.77m71.879-16.545h-6.405a.536.536 0 01.538 0v16.49s-1.627 1.186-3.936 1.186-2.922-1.043-2.922-3.295V13.045a.535.535 0 01-.537 0h-6.5a.537.537 0 01.538 0v15.47c0 6.69 3.743 8.325 8.891 8.325 4.225 0 7.63-2.324 7.63-2.324s.163 1.225.236 1.37c.073.145.264.291.471.291l4.135-.018-.002-22.577a.536.536 0 00-.535-.538m13.375 17.657c-2.221-.067-3.728-1.07-3.728-1.07V18.978s1.486-.907 3.31-1.07c2.306-.205 4.528.489 4.528 5.968 0 5.777-1.003 6.918-4.11 6.824zm2.526-18.95c-3.637 0-6.111 1.617-6.111 1.617V1.98a.534.534 0 01-.537 0h-6.472a.534.534 0 01.537 0v33.633c0 .297.239.538.534.538h4.49c.202 0 .355-.103.469-.285.111-.18.272-1.551.272-1.551s2.646 2.497 7.656 2.497c5.882 0 9.254-2.97 9.254-13.337 0-10.368-5.387-11.722-9.027-11.722h-1.065zm-70.832.703h-4.841l-.007-6.37c0-.241-.125-.361-.405-.361h-6.597c-.256 0-.394.112-.394.358v6.582s-3.306.795-3.53.859a.534.534 0 01.513 0v4.648c0 .298.238.538.533.538h3.383v9.95c0 7.391 5.205 8.117 8.717 8.117 1.605 0 3.525-.513 3.842-.63.192-.07.303-.268.303-.482l.006-4.55a.544.544 0 00-.536-.537c-.282 0-1.003.114-1.746.114-2.378 0-3.184-1.1-3.184-2.526v-9.456h4.841c.295 0 .534-.24.534-.538v-5.18a.534.534 0 01-.536 0" fill="#fff" fill-rule="evenodd"/></svg>