<svg width="260" height="54" viewBox="0 0 260 54" xmlns="http://www.w3.org/2000/svg" xmlns:xlink="http://www.w3.org/1999/xlink"><defs><path d="M16.275 31.525c2.272 2.271 2.234 5.959 0 8.23a5.821 5.821 0 01-8.23-.037C3.276 34.913.334 28.322.372 21.023a26.35 26.35 0 017.783-18.62 5.822 5.822 0 018.23.036c2.272 2.272 2.235 5.922-.037 8.193a14.599 14.599 0 00-4.357 10.428c-.037 4.059 1.639 7.783 4.283 10.465z" id="a"/><path d="M10.679 16.302c-2.272 2.235-5.958 2.235-8.193-.037a5.82 5.82 0 01.037-8.23C7.29 3.268 13.92.363 21.181.363 28.443.4 35.035 3.379 39.8 8.183a5.821 5.821 0 01-.036 8.23c-2.273 2.273-5.922 2.236-8.194-.036a14.596 14.596 0 00-10.428-4.357c-4.058-.038-7.783 1.638-10.464 4.282z" id="c"/><path d="M31.534 2.439c2.272-2.271 5.921-2.234 8.23.037a5.821 5.821 0 01-.037 8.23c-4.804 4.767-11.396 7.71-18.695 7.673-7.262-.037-13.854-3.017-18.62-7.821a5.82 5.82 0 01.037-8.23C4.72.056 8.369.093 10.642 2.365a14.595 14.595 0 0010.427 4.357c4.06.037 7.784-1.638 10.465-4.283z" id="e"/><path d="M10.679 10.632c-2.272 2.272-5.958 2.235-8.23-.037C.177 8.324.214 4.636 2.486 2.402 4.758.13 8.444.168 10.716 2.44c2.272 2.235 2.235 5.922-.037 8.193z" id="g"/><path d="M10.567 10.558c-2.272 2.272-5.958 2.234-8.23-.037C.065 8.25.102 4.561 2.374 2.328c2.272-2.272 5.958-2.235 8.23.037 2.273 2.271 2.235 5.959-.037 8.193z" id="i"/><path d="M17.085 27.568c1.675-1.266 1.899-.559 3.314.857.707.707 2.644 1.936 1.378 2.979-2.644 2.16-5.028 3.128-8.417 3.128C5.726 34.495.326 28.797.773 21.237c.186-3.39 1.527-6.592 4.17-8.789 2.422-2.048 5.438-2.942 8.603-2.867 1.602.037 3.017.26 4.506.893.97.373 1.9.82 2.72 1.452 1.676 1.304.893 2.049-.41 3.352-.298.298-.596.596-.857.894-.67.67-1.117 1.155-2.01.521-1.714-1.191-3.874-1.825-5.923-1.303-6.591 1.676-6.293 13.407 1.788 13.444 1.266.038 2.682-.484 3.725-1.266zm183.227 7.113a2.003 2.003 0 01-2.011-2.011l.112-25.995c0-1.117.893-2.01 2.011-2.01h2.16c1.117 0 2.01.893 2.01 2.01l-.111 25.995a2.002 2.002 0 01-2.01 2.011h-2.16zm-11.321-3.016c-2.347 2.197-4.58 3.351-7.895 3.351-6.704-.037-9.907-5.586-9.907-11.805l.038-10.577c0-1.117.893-2.01 2.01-2.01h2.16c1.118 0 2.012.893 2.012 2.01l-.038 10.577c0 3.463 1.863 6.181 5.512 6.181 3.612 0 5.884-3.053 5.922-6.48v-3.76c-.038-.15-.038-.298-.038-.447l.038-5.996c0-1.118.893-2.011 2.01-2.011h2.16c1.118 0 2.011.893 2.011 2.01l-.074 19.962c0 1.08-.894 1.974-2.011 1.974h-1.824c-1.118 0-1.9-.931-1.974-1.974l-.112-1.005zm-25.697-20.967h4.171c1.117 0 1.974.93 1.974 2.048v1.378c0 1.08-.894 2.011-2.011 2.011h-4.17l-.075 16.423a2.003 2.003 0 01-2.012 2.011h-2.16a2.002 2.002 0 01-2.01-2.011l.074-22.717c0-4.953 2.83-8.863 7.895-9.31.15 0 .26-.038.41-.038.297-.037.595 0 .894 0h1.936c1.117 0 1.973.932 1.973 2.049v1.266c0 1.08-.893 2.011-2.01 2.011h-1.565c-2.383 0-3.388 1.825-3.425 4.059l.111.82zm-14.97-.075h4.58c1.08 0 1.974.894 1.974 2.011v1.378c0 1.08-.895 1.974-2.012 1.974h-4.58l-.037 10.055c0 1.936.93 3.054 2.867 3.054h.932c1.08 0 1.973.894 1.973 2.01v1.378c0 1.081-.894 1.974-2.01 1.974h-1.751c-.335 0-.634 0-.969-.037-4.953-.335-7.15-3.538-7.15-8.38.037-6.517.037-12.997.075-19.514 0-1.08.893-1.973 2.01-1.973h2.123c1.08 0 1.974.893 1.974 2.01v4.06zm-66.253-.26h4.58c1.08 0 1.974.894 1.974 2.01v1.378c0 1.08-.894 1.974-2.01 1.974h-4.581v10.056c0 1.936.93 3.053 2.867 3.053h.931c1.08 0 1.974.894 1.974 2.01v1.38c0 1.08-.894 1.973-2.01 1.973h-1.38c-5.399-.038-8.527-2.346-8.527-8.416.037-6.518.037-12.998.074-19.515 0-1.08.894-1.974 2.01-1.974h2.124c1.08 0 1.974.894 1.974 2.011v4.06zm-26.889 2.83c2.198-2.048 4.581-3.352 7.672-3.352 6.704.037 10.167 5.512 10.13 11.805l-.038 10.577c0 1.117-.893 2.01-2.01 2.01h-2.16a2.003 2.003 0 01-2.012-2.01l.038-10.502c0-3.464-1.863-6.182-5.512-6.182-3.612 0-5.884 3.016-5.922 6.443l-.037 10.241c0 1.08-.893 1.974-2.01 1.974h-2.123c-1.08 0-1.974-.894-1.974-2.01.037-6.37.037-12.775.074-19.144v-.856c0-1.08.894-1.974 2.011-1.974h1.825c1.117 0 1.9.932 1.974 1.974l.074 1.005zm66.364.26c2.198-2.048 4.582-3.351 7.672-3.351 6.704.037 10.167 5.512 10.13 11.805l-.038 10.576a2.002 2.002 0 01-2.01 2.012h-2.16a2.003 2.003 0 01-2.012-2.012l.038-10.501c0-3.464-1.863-6.182-5.512-6.182-3.612 0-5.884 3.016-5.922 6.443l-.037 10.24c0 1.081-.893 1.974-2.01 1.974h-2.123c-1.08 0-1.974-.893-1.974-2.01l.074-19.999c0-1.08.895-1.974 2.012-1.974h1.824c1.117 0 1.9.93 1.974 1.974l.074 1.005zM34.923 9.655c7.225.037 12.476 5.325 12.439 12.513-.038 7.336-5.177 12.476-12.513 12.439-7.337-.038-12.401-5.215-12.364-12.513.037-7.226 5.176-12.476 12.438-12.439zm60.294 14.933c.52 3.352 3.724 4.73 6.852 4.767 1.49 0 3.203-.372 4.544-1.005.224-.112.446-.186.67-.335.745-.41 1.415-.67 2.086 0 .372.372.708.745 1.08 1.08.335.335.67.67.968 1.08 1.005 1.266.298 1.564-.857 2.346-2.457 1.638-5.66 2.458-8.602 2.458-7.896-.037-13.11-4.841-13.11-12.81.038-7.524 5.251-12.514 12.775-12.477 7.671.037 12.028 4.544 12.14 12.215.037 2.086.112 2.756-2.048 2.756l-16.498-.075zm-60.294-9.31c-3.91 0-6.256 3.128-6.294 6.853 0 3.761 2.309 6.815 6.257 6.815 3.948 0 6.294-3.017 6.294-6.778 0-3.613-2.495-6.89-6.257-6.89zm60.443 4.134l12.364.037c-.447-3.091-3.016-4.32-5.958-4.32-2.943 0-5.475 1.378-6.406 4.283z" id="k"/></defs><g fill="none" fill-rule="evenodd"><g transform="translate(0 5.67)"><mask id="b" fill="#fff"><use xlink:href="#a"/></mask><path fill="#BCBCBC" mask="url(#b)" d="M.34 41.52h17.788V.698H.34z"/></g><g transform="translate(5.67)"><mask id="d" fill="#fff"><use xlink:href="#c"/></mask><path fill="#BCBCBC" mask="url(#d)" d="M.794 18.128H41.52V.34H.794z"/></g><g transform="translate(5.67 34.83)"><mask id="f" fill="#fff"><use xlink:href="#e"/></mask><path fill="#BCBCBC" mask="url(#f)" d="M.697 18.387H41.52V.599H.697z"/></g><g transform="translate(5.67 5.67)"><mask id="h" fill="#fff"><use xlink:href="#g"/></mask><path fill="#FFF" mask="url(#h)" d="M.697 12.36h11.76V.698H.698z"/></g><g transform="translate(5.67 34.83)"><mask id="j" fill="#fff"><use xlink:href="#i"/></mask><path fill="#FFF" mask="url(#j)" d="M.6 12.263h11.76V.6H.6z"/></g><g transform="translate(54.27 4.86)"><mask id="l" fill="#fff"><use xlink:href="#k"/></mask><path fill="#FFF" mask="url(#l)" d="M.697 35.04h203.925V.438H.697z"/></g></g></svg>