<svg width="192" height="58" viewBox="0 0 192 58" xmlns="http://www.w3.org/2000/svg"><path d="M27.648 21.696c0 3.264-2.688 5.952-5.952 5.952s-5.952-2.688-5.952-5.952 2.688-5.952 5.952-5.952 5.952 2.688 5.952 5.952zm-5.952 8.256c-3.264 0-5.952 2.688-5.952 5.952s2.688 5.952 5.952 5.952 5.952-2.688 5.952-5.952-2.688-5.952-5.952-5.952zM57.6 28.8c0 15.936-12.864 28.8-28.8 28.8S0 44.736 0 28.8 12.864 0 28.8 0s28.8 12.864 28.8 28.8zm-7.68 0A21.06 21.06 0 0028.8 7.68 21.06 21.06 0 007.68 28.8 21.06 21.06 0 0028.8 49.92 21.06 21.06 0 0049.92 28.8zm-14.016 1.152c-3.264 0-5.952 2.688-5.952 5.952s2.688 5.952 5.952 5.952 5.952-2.688 5.952-5.952-2.688-5.952-5.952-5.952zm0-14.208c-3.264 0-5.952 2.688-5.952 5.952s2.688 5.952 5.952 5.952 5.952-2.688 5.952-5.952-2.688-5.952-5.952-5.952zm99.072-4.416c.192 0 .384.192.576.384v6.144c0 .384-.384.576-.576.576H124.8c-.384 0-.576-.384-.576-.576v-5.952c0-.384.384-.576.576-.576h10.176zm-.192 8.64H115.2c-.192 0-.576.192-.576.576l-2.496 9.6-.192.576-3.072-10.176c0-.192-.384-.576-.576-.576h-7.68c-.192 0-.576.192-.576.576l-2.88 9.6-.192.576-.192-.576-1.152-4.8-1.152-4.8c0-.192-.384-.576-.576-.576h-15.36v-8.256c0-.192-.384-.576-.768-.384l-9.6 3.072c-.384 0-.576.192-.576.576v5.184h-2.496c-.192 0-.576.192-.576.576v7.296c0 .192.192.576.576.576h2.496v9.024c0 6.336 3.456 9.216 9.792 9.216 2.688 0 5.184-.576 6.912-1.536v-7.68c0-.384-.384-.576-.576-.384-.96.384-1.92.576-2.688.576-1.728 0-2.688-.768-2.688-2.688v-6.528h5.568c.192 0 .576-.192.576-.576v-6.144l7.296 24.192c0 .192.384.576.576.576h8.064c.192 0 .576-.192.576-.576l3.456-10.752 1.728 5.568 1.536 5.184c0 .192.384.576.576.576h8.064c.192 0 .576-.192.576-.576l7.296-24.192V46.08c0 .192.192.576.576.576h9.792c.192 0 .576-.192.576-.576V20.544c0-.192-.192-.576-.384-.576zm12.864-8.64h-9.792c-.192 0-.576.192-.576.576v33.984c0 .192.192.576.576.576h9.792c.192 0 .576-.192.576-.576V11.712c0-.192-.192-.384-.576-.384zm13.056 0h-10.176c-.192 0-.576.192-.576.576v5.952c0 .192.192.576.576.576h10.176c.192 0 .576-.192.576-.576v-6.144c0-.192-.192-.384-.576-.384zm-.192 8.64h-9.792c-.192 0-.576.192-.576.576v25.152c0 .192.192.576.576.576h9.792c.192 0 .576-.192.576-.576V20.544c0-.192-.192-.576-.576-.576zm30.912 13.056c0 7.296-6.144 13.632-14.784 13.632-8.448 0-14.592-6.336-14.592-13.632 0-7.296 6.144-13.632 14.784-13.632 8.448 0 14.592 6.336 14.592 13.632zm-10.368.192c0-2.688-1.92-4.8-4.224-4.608-2.496 0-4.224 2.112-4.224 4.608 0 2.496 1.92 4.608 4.224 4.608 2.496 0 4.224-2.112 4.224-4.608z" fill="#FFF" fill-rule="nonzero"/></svg>